<?xml version="1.0" encoding="utf-8" standalone="no"?>
<!DOCTYPE svg PUBLIC "-//W3C//DTD SVG 1.1//EN"
  "http://www.w3.org/Graphics/SVG/1.1/DTD/svg11.dtd">
<!-- Created with matplotlib (https://matplotlib.org/) -->
<svg height="216pt" version="1.1" viewBox="0 0 360 216" width="360pt" xmlns="http://www.w3.org/2000/svg" xmlns:xlink="http://www.w3.org/1999/xlink">
 <metadata>
  <rdf:RDF xmlns:cc="http://creativecommons.org/ns#" xmlns:dc="http://purl.org/dc/elements/1.1/" xmlns:rdf="http://www.w3.org/1999/02/22-rdf-syntax-ns#">
   <cc:Work>
    <dc:type rdf:resource="http://purl.org/dc/dcmitype/StillImage"/>
    <dc:date>2024-12-06T09:11:42.190119</dc:date>
    <dc:format>image/svg+xml</dc:format>
    <dc:creator>
     <cc:Agent>
      <dc:title>Matplotlib v3.3.2, https://matplotlib.org/</dc:title>
     </cc:Agent>
    </dc:creator>
   </cc:Work>
  </rdf:RDF>
 </metadata>
 <defs>
  <style type="text/css">*{stroke-linecap:butt;stroke-linejoin:round;}</style>
 </defs>
 <g id="figure_1">
  <g id="patch_1">
   <path d="M 0 216 
L 360 216 
L 360 0 
L 0 0 
z
" style="fill:none;"/>
  </g>
  <g id="axes_1">
   <g id="patch_2">
    <path d="M 45 189 
L 324 189 
L 324 25.92 
L 45 25.92 
z
" style="fill:#ffffff;"/>
   </g>
   <g id="PathCollection_1">
    <path clip-path="url(#pe682c2f691)" d="M 62.65508 185.099487 
C 63.592715 185.099487 64.492072 184.726961 65.15508 184.063953 
C 65.818088 183.400945 66.190614 182.501587 66.190614 181.563953 
C 66.190614 180.626318 65.818088 179.726961 65.15508 179.063953 
C 64.492072 178.400945 63.592715 178.028419 62.65508 178.028419 
C 61.717446 178.028419 60.818088 178.400945 60.15508 179.063953 
C 59.492072 179.726961 59.119546 180.626318 59.119546 181.563953 
C 59.119546 182.501587 59.492072 183.400945 60.15508 184.063953 
C 60.818088 184.726961 61.717446 185.099487 62.65508 185.099487 
z
" style="fill:none;stroke:#2ca02c;"/>
   </g>
   <g id="PathCollection_2">
    <path clip-path="url(#pe682c2f691)" d="M 67.628342 185.044756 
C 68.565977 185.044756 69.465334 184.67223 70.128342 184.009222 
C 70.79135 183.346214 71.163876 182.446857 71.163876 181.509222 
C 71.163876 180.571587 70.79135 179.67223 70.128342 179.009222 
C 69.465334 178.346214 68.565977 177.973688 67.628342 177.973688 
C 66.690708 177.973688 65.79135 178.346214 65.128342 179.009222 
C 64.465334 179.67223 64.092808 180.571587 64.092808 181.509222 
C 64.092808 182.446857 64.465334 183.346214 65.128342 184.009222 
C 65.79135 184.67223 66.690708 185.044756 67.628342 185.044756 
z
" style="fill:none;stroke:#2ca02c;"/>
   </g>
   <g id="PathCollection_3">
    <path clip-path="url(#pe682c2f691)" d="M 72.601604 184.827152 
C 73.539239 184.827152 74.438597 184.454625 75.101604 183.791618 
C 75.764612 183.12861 76.137138 182.229252 76.137138 181.291618 
C 76.137138 180.353983 75.764612 179.454625 75.101604 178.791618 
C 74.438597 178.12861 73.539239 177.756084 72.601604 177.756084 
C 71.66397 177.756084 70.764612 178.12861 70.101604 178.791618 
C 69.438597 179.454625 69.06607 180.353983 69.06607 181.291618 
C 69.06607 182.229252 69.438597 183.12861 70.101604 183.791618 
C 70.764612 184.454625 71.66397 184.827152 72.601604 184.827152 
z
" style="fill:none;stroke:#2ca02c;"/>
   </g>
   <g id="PathCollection_4">
    <path clip-path="url(#pe682c2f691)" d="M 77.574866 184.398679 
C 78.512501 184.398679 79.411859 184.026153 80.074866 183.363145 
C 80.737874 182.700138 81.1104 181.80078 81.1104 180.863145 
C 81.1104 179.925511 80.737874 179.026153 80.074866 178.363145 
C 79.411859 177.700138 78.512501 177.327611 77.574866 177.327611 
C 76.637232 177.327611 75.737874 177.700138 75.074866 178.363145 
C 74.411859 179.026153 74.039332 179.925511 74.039332 180.863145 
C 74.039332 181.80078 74.411859 182.700138 75.074866 183.363145 
C 75.737874 184.026153 76.637232 184.398679 77.574866 184.398679 
z
" style="fill:none;stroke:#2ca02c;"/>
   </g>
   <g id="PathCollection_5">
    <path clip-path="url(#pe682c2f691)" d="M 82.548128 183.732656 
C 83.485763 183.732656 84.385121 183.36013 85.048128 182.697122 
C 85.711136 182.034114 86.083662 181.134756 86.083662 180.197122 
C 86.083662 179.259487 85.711136 178.36013 85.048128 177.697122 
C 84.385121 177.034114 83.485763 176.661588 82.548128 176.661588 
C 81.610494 176.661588 80.711136 177.034114 80.048128 177.697122 
C 79.385121 178.36013 79.012594 179.259487 79.012594 180.197122 
C 79.012594 181.134756 79.385121 182.034114 80.048128 182.697122 
C 80.711136 183.36013 81.610494 183.732656 82.548128 183.732656 
z
" style="fill:none;stroke:#2ca02c;"/>
   </g>
   <g id="PathCollection_6">
    <path clip-path="url(#pe682c2f691)" d="M 87.52139 182.818894 
C 88.459025 182.818894 89.358383 182.446368 90.02139 181.78336 
C 90.684398 181.120353 91.056924 180.220995 91.056924 179.28336 
C 91.056924 178.345726 90.684398 177.446368 90.02139 176.78336 
C 89.358383 176.120353 88.459025 175.747827 87.52139 175.747827 
C 86.583756 175.747827 85.684398 176.120353 85.02139 176.78336 
C 84.358383 177.446368 83.985856 178.345726 83.985856 179.28336 
C 83.985856 180.220995 84.358383 181.120353 85.02139 181.78336 
C 85.684398 182.446368 86.583756 182.818894 87.52139 182.818894 
z
" style="fill:none;stroke:#2ca02c;"/>
   </g>
   <g id="PathCollection_7">
    <path clip-path="url(#pe682c2f691)" d="M 92.494652 181.659488 
C 93.432287 181.659488 94.331645 181.286962 94.994652 180.623954 
C 95.65766 179.960946 96.030186 179.061589 96.030186 178.123954 
C 96.030186 177.18632 95.65766 176.286962 94.994652 175.623954 
C 94.331645 174.960946 93.432287 174.58842 92.494652 174.58842 
C 91.557018 174.58842 90.65766 174.960946 89.994652 175.623954 
C 89.331645 176.286962 88.959119 177.18632 88.959119 178.123954 
C 88.959119 179.061589 89.331645 179.960946 89.994652 180.623954 
C 90.65766 181.286962 91.557018 181.659488 92.494652 181.659488 
z
" style="fill:none;stroke:#2ca02c;"/>
   </g>
   <g id="PathCollection_8">
    <path clip-path="url(#pe682c2f691)" d="M 97.467914 180.265176 
C 98.405549 180.265176 99.304907 179.89265 99.967914 179.229642 
C 100.630922 178.566634 101.003448 177.667277 101.003448 176.729642 
C 101.003448 175.792007 100.630922 174.89265 99.967914 174.229642 
C 99.304907 173.566634 98.405549 173.194108 97.467914 173.194108 
C 96.53028 173.194108 95.630922 173.566634 94.967914 174.229642 
C 94.304907 174.89265 93.932381 175.792007 93.932381 176.729642 
C 93.932381 177.667277 94.304907 178.566634 94.967914 179.229642 
C 95.630922 179.89265 96.53028 180.265176 97.467914 180.265176 
z
" style="fill:none;stroke:#2ca02c;"/>
   </g>
   <g id="PathCollection_9">
    <path clip-path="url(#pe682c2f691)" d="M 102.441176 178.652253 
C 103.378811 178.652253 104.278169 178.279727 104.941176 177.616719 
C 105.604184 176.953712 105.97671 176.054354 105.97671 175.116719 
C 105.97671 174.179085 105.604184 173.279727 104.941176 172.616719 
C 104.278169 171.953712 103.378811 171.581186 102.441176 171.581186 
C 101.503542 171.581186 100.604184 171.953712 99.941176 172.616719 
C 99.278169 173.279727 98.905643 174.179085 98.905643 175.116719 
C 98.905643 176.054354 99.278169 176.953712 99.941176 177.616719 
C 100.604184 178.279727 101.503542 178.652253 102.441176 178.652253 
z
" style="fill:none;stroke:#2ca02c;"/>
   </g>
   <g id="PathCollection_10">
    <path clip-path="url(#pe682c2f691)" d="M 107.414439 176.840003 
C 108.352073 176.840003 109.251431 176.467477 109.914439 175.804469 
C 110.577446 175.141462 110.949972 174.242104 110.949972 173.304469 
C 110.949972 172.366835 110.577446 171.467477 109.914439 170.804469 
C 109.251431 170.141462 108.352073 169.768936 107.414439 169.768936 
C 106.476804 169.768936 105.577446 170.141462 104.914439 170.804469 
C 104.251431 171.467477 103.878905 172.366835 103.878905 173.304469 
C 103.878905 174.242104 104.251431 175.141462 104.914439 175.804469 
C 105.577446 176.467477 106.476804 176.840003 107.414439 176.840003 
z
" style="fill:none;stroke:#2ca02c;"/>
   </g>
   <g id="PathCollection_11">
    <path clip-path="url(#pe682c2f691)" d="M 112.387701 174.848599 
C 113.325335 174.848599 114.224693 174.476073 114.887701 173.813065 
C 115.550708 173.150057 115.923234 172.2507 115.923234 171.313065 
C 115.923234 170.37543 115.550708 169.476073 114.887701 168.813065 
C 114.224693 168.150057 113.325335 167.777531 112.387701 167.777531 
C 111.450066 167.777531 110.550708 168.150057 109.887701 168.813065 
C 109.224693 169.476073 108.852167 170.37543 108.852167 171.313065 
C 108.852167 172.2507 109.224693 173.150057 109.887701 173.813065 
C 110.550708 174.476073 111.450066 174.848599 112.387701 174.848599 
z
" style="fill:none;stroke:#2ca02c;"/>
   </g>
   <g id="PathCollection_12">
    <path clip-path="url(#pe682c2f691)" d="M 117.360963 172.697457 
C 118.298597 172.697457 119.197955 172.324931 119.860963 171.661923 
C 120.52397 170.998916 120.896496 170.099558 120.896496 169.161923 
C 120.896496 168.224289 120.52397 167.324931 119.860963 166.661923 
C 119.197955 165.998916 118.298597 165.626389 117.360963 165.626389 
C 116.423328 165.626389 115.52397 165.998916 114.860963 166.661923 
C 114.197955 167.324931 113.825429 168.224289 113.825429 169.161923 
C 113.825429 170.099558 114.197955 170.998916 114.860963 171.661923 
C 115.52397 172.324931 116.423328 172.697457 117.360963 172.697457 
z
" style="fill:none;stroke:#2ca02c;"/>
   </g>
   <g id="PathCollection_13">
    <path clip-path="url(#pe682c2f691)" d="M 122.334225 170.404001 
C 123.271859 170.404001 124.171217 170.031475 124.834225 169.368467 
C 125.497232 168.70546 125.869759 167.806102 125.869759 166.868467 
C 125.869759 165.930833 125.497232 165.031475 124.834225 164.368467 
C 124.171217 163.70546 123.271859 163.332933 122.334225 163.332933 
C 121.39659 163.332933 120.497232 163.70546 119.834225 164.368467 
C 119.171217 165.031475 118.798691 165.930833 118.798691 166.868467 
C 118.798691 167.806102 119.171217 168.70546 119.834225 169.368467 
C 120.497232 170.031475 121.39659 170.404001 122.334225 170.404001 
z
" style="fill:none;stroke:#2ca02c;"/>
   </g>
   <g id="PathCollection_14">
    <path clip-path="url(#pe682c2f691)" d="M 127.307487 167.982797 
C 128.245121 167.982797 129.144479 167.610271 129.807487 166.947263 
C 130.470494 166.284255 130.843021 165.384897 130.843021 164.447263 
C 130.843021 163.509628 130.470494 162.610271 129.807487 161.947263 
C 129.144479 161.284255 128.245121 160.911729 127.307487 160.911729 
C 126.369852 160.911729 125.470494 161.284255 124.807487 161.947263 
C 124.144479 162.610271 123.771953 163.509628 123.771953 164.447263 
C 123.771953 165.384897 124.144479 166.284255 124.807487 166.947263 
C 125.470494 167.610271 126.369852 167.982797 127.307487 167.982797 
z
" style="fill:none;stroke:#2ca02c;"/>
   </g>
   <g id="PathCollection_15">
    <path clip-path="url(#pe682c2f691)" d="M 132.280749 165.445034 
C 133.218383 165.445034 134.117741 165.072508 134.780749 164.4095 
C 135.443756 163.746492 135.816283 162.847135 135.816283 161.9095 
C 135.816283 160.971866 135.443756 160.072508 134.780749 159.4095 
C 134.117741 158.746492 133.218383 158.373966 132.280749 158.373966 
C 131.343114 158.373966 130.443756 158.746492 129.780749 159.4095 
C 129.117741 160.072508 128.745215 160.971866 128.745215 161.9095 
C 128.745215 162.847135 129.117741 163.746492 129.780749 164.4095 
C 130.443756 165.072508 131.343114 165.445034 132.280749 165.445034 
z
" style="fill:none;stroke:#2ca02c;"/>
   </g>
   <g id="PathCollection_16">
    <path clip-path="url(#pe682c2f691)" d="M 137.254011 162.798313 
C 138.191645 162.798313 139.091003 162.425787 139.754011 161.762779 
C 140.417018 161.099772 140.789545 160.200414 140.789545 159.262779 
C 140.789545 158.325145 140.417018 157.425787 139.754011 156.762779 
C 139.091003 156.099772 138.191645 155.727246 137.254011 155.727246 
C 136.316376 155.727246 135.417018 156.099772 134.754011 156.762779 
C 134.091003 157.425787 133.718477 158.325145 133.718477 159.262779 
C 133.718477 160.200414 134.091003 161.099772 134.754011 161.762779 
C 135.417018 162.425787 136.316376 162.798313 137.254011 162.798313 
z
" style="fill:none;stroke:#2ca02c;"/>
   </g>
   <g id="PathCollection_17">
    <path clip-path="url(#pe682c2f691)" d="M 142.227273 160.046707 
C 143.164907 160.046707 144.064265 159.674181 144.727273 159.011173 
C 145.39028 158.348165 145.762807 157.448807 145.762807 156.511173 
C 145.762807 155.573538 145.39028 154.674181 144.727273 154.011173 
C 144.064265 153.348165 143.164907 152.975639 142.227273 152.975639 
C 141.289638 152.975639 140.39028 153.348165 139.727273 154.011173 
C 139.064265 154.674181 138.691739 155.573538 138.691739 156.511173 
C 138.691739 157.448807 139.064265 158.348165 139.727273 159.011173 
C 140.39028 159.674181 141.289638 160.046707 142.227273 160.046707 
z
" style="fill:none;stroke:#2ca02c;"/>
   </g>
   <g id="PathCollection_18">
    <path clip-path="url(#pe682c2f691)" d="M 147.200535 157.191055 
C 148.138169 157.191055 149.037527 156.818529 149.700535 156.155521 
C 150.363543 155.492513 150.736069 154.593156 150.736069 153.655521 
C 150.736069 152.717887 150.363543 151.818529 149.700535 151.155521 
C 149.037527 150.492513 148.138169 150.119987 147.200535 150.119987 
C 146.2629 150.119987 145.363543 150.492513 144.700535 151.155521 
C 144.037527 151.818529 143.665001 152.717887 143.665001 153.655521 
C 143.665001 154.593156 144.037527 155.492513 144.700535 156.155521 
C 145.363543 156.818529 146.2629 157.191055 147.200535 157.191055 
z
" style="fill:none;stroke:#2ca02c;"/>
   </g>
   <g id="PathCollection_19">
    <path clip-path="url(#pe682c2f691)" d="M 152.173797 154.229472 
C 153.111431 154.229472 154.010789 153.856946 154.673797 153.193938 
C 155.336805 152.53093 155.709331 151.631573 155.709331 150.693938 
C 155.709331 149.756304 155.336805 148.856946 154.673797 148.193938 
C 154.010789 147.53093 153.111431 147.158404 152.173797 147.158404 
C 151.236162 147.158404 150.336805 147.53093 149.673797 148.193938 
C 149.010789 148.856946 148.638263 149.756304 148.638263 150.693938 
C 148.638263 151.631573 149.010789 152.53093 149.673797 153.193938 
C 150.336805 153.856946 151.236162 154.229472 152.173797 154.229472 
z
" style="fill:none;stroke:#2ca02c;"/>
   </g>
   <g id="PathCollection_20">
    <path clip-path="url(#pe682c2f691)" d="M 157.147059 151.158016 
C 158.084693 151.158016 158.984051 150.78549 159.647059 150.122482 
C 160.310067 149.459474 160.682593 148.560117 160.682593 147.622482 
C 160.682593 146.684847 160.310067 145.78549 159.647059 145.122482 
C 158.984051 144.459474 158.084693 144.086948 157.147059 144.086948 
C 156.209424 144.086948 155.310067 144.459474 154.647059 145.122482 
C 153.984051 145.78549 153.611525 146.684847 153.611525 147.622482 
C 153.611525 148.560117 153.984051 149.459474 154.647059 150.122482 
C 155.310067 150.78549 156.209424 151.158016 157.147059 151.158016 
z
" style="fill:none;stroke:#2ca02c;"/>
   </g>
   <g id="PathCollection_21">
    <path clip-path="url(#pe682c2f691)" d="M 162.120321 147.971496 
C 163.057955 147.971496 163.957313 147.59897 164.620321 146.935962 
C 165.283329 146.272954 165.655855 145.373597 165.655855 144.435962 
C 165.655855 143.498328 165.283329 142.59897 164.620321 141.935962 
C 163.957313 141.272954 163.057955 140.900428 162.120321 140.900428 
C 161.182686 140.900428 160.283329 141.272954 159.620321 141.935962 
C 158.957313 142.59897 158.584787 143.498328 158.584787 144.435962 
C 158.584787 145.373597 158.957313 146.272954 159.620321 146.935962 
C 160.283329 147.59897 161.182686 147.971496 162.120321 147.971496 
z
" style="fill:none;stroke:#2ca02c;"/>
   </g>
   <g id="PathCollection_22">
    <path clip-path="url(#pe682c2f691)" d="M 167.093583 144.664383 
C 168.031217 144.664383 168.930575 144.291857 169.593583 143.628849 
C 170.256591 142.965841 170.629117 142.066484 170.629117 141.128849 
C 170.629117 140.191215 170.256591 139.291857 169.593583 138.628849 
C 168.930575 137.965841 168.031217 137.593315 167.093583 137.593315 
C 166.155948 137.593315 165.256591 137.965841 164.593583 138.628849 
C 163.930575 139.291857 163.558049 140.191215 163.558049 141.128849 
C 163.558049 142.066484 163.930575 142.965841 164.593583 143.628849 
C 165.256591 144.291857 166.155948 144.664383 167.093583 144.664383 
z
" style="fill:none;stroke:#2ca02c;"/>
   </g>
   <g id="PathCollection_23">
    <path clip-path="url(#pe682c2f691)" d="M 172.066845 141.231782 
C 173.004479 141.231782 173.903837 140.859256 174.566845 140.196248 
C 175.229853 139.53324 175.602379 138.633883 175.602379 137.696248 
C 175.602379 136.758613 175.229853 135.859256 174.566845 135.196248 
C 173.903837 134.53324 173.004479 134.160714 172.066845 134.160714 
C 171.12921 134.160714 170.229853 134.53324 169.566845 135.196248 
C 168.903837 135.859256 168.531311 136.758613 168.531311 137.696248 
C 168.531311 138.633883 168.903837 139.53324 169.566845 140.196248 
C 170.229853 140.859256 171.12921 141.231782 172.066845 141.231782 
z
" style="fill:none;stroke:#2ca02c;"/>
   </g>
   <g id="PathCollection_24">
    <path clip-path="url(#pe682c2f691)" d="M 177.040107 137.67044 
C 177.977742 137.67044 178.877099 137.297914 179.540107 136.634906 
C 180.203115 135.971899 180.575641 135.072541 180.575641 134.134906 
C 180.575641 133.197272 180.203115 132.297914 179.540107 131.634906 
C 178.877099 130.971899 177.977742 130.599373 177.040107 130.599373 
C 176.102472 130.599373 175.203115 130.971899 174.540107 131.634906 
C 173.877099 132.297914 173.504573 133.197272 173.504573 134.134906 
C 173.504573 135.072541 173.877099 135.971899 174.540107 136.634906 
C 175.203115 137.297914 176.102472 137.67044 177.040107 137.67044 
z
" style="fill:none;stroke:#2ca02c;"/>
   </g>
   <g id="PathCollection_25">
    <path clip-path="url(#pe682c2f691)" d="M 182.013369 133.97975 
C 182.951004 133.97975 183.850361 133.607224 184.513369 132.944217 
C 185.176377 132.281209 185.548903 131.381851 185.548903 130.444217 
C 185.548903 129.506582 185.176377 128.607224 184.513369 127.944217 
C 183.850361 127.281209 182.951004 126.908683 182.013369 126.908683 
C 181.075734 126.908683 180.176377 127.281209 179.513369 127.944217 
C 178.850361 128.607224 178.477835 129.506582 178.477835 130.444217 
C 178.477835 131.381851 178.850361 132.281209 179.513369 132.944217 
C 180.176377 133.607224 181.075734 133.97975 182.013369 133.97975 
z
" style="fill:none;stroke:#2ca02c;"/>
   </g>
   <g id="PathCollection_26">
    <path clip-path="url(#pe682c2f691)" d="M 186.986631 130.162719 
C 187.924266 130.162719 188.823623 129.790193 189.486631 129.127185 
C 190.149639 128.464177 190.522165 127.564819 190.522165 126.627185 
C 190.522165 125.68955 190.149639 124.790193 189.486631 124.127185 
C 188.823623 123.464177 187.924266 123.091651 186.986631 123.091651 
C 186.048996 123.091651 185.149639 123.464177 184.486631 124.127185 
C 183.823623 124.790193 183.451097 125.68955 183.451097 126.627185 
C 183.451097 127.564819 183.823623 128.464177 184.486631 129.127185 
C 185.149639 129.790193 186.048996 130.162719 186.986631 130.162719 
z
" style="fill:none;stroke:#2ca02c;"/>
   </g>
   <g id="PathCollection_27">
    <path clip-path="url(#pe682c2f691)" d="M 191.959893 126.22686 
C 192.897528 126.22686 193.796885 125.854334 194.459893 125.191326 
C 195.122901 124.528319 195.495427 123.628961 195.495427 122.691326 
C 195.495427 121.753692 195.122901 120.854334 194.459893 120.191326 
C 193.796885 119.528319 192.897528 119.155792 191.959893 119.155792 
C 191.022258 119.155792 190.122901 119.528319 189.459893 120.191326 
C 188.796885 120.854334 188.424359 121.753692 188.424359 122.691326 
C 188.424359 123.628961 188.796885 124.528319 189.459893 125.191326 
C 190.122901 125.854334 191.022258 126.22686 191.959893 126.22686 
z
" style="fill:none;stroke:#2ca02c;"/>
   </g>
   <g id="PathCollection_28">
    <path clip-path="url(#pe682c2f691)" d="M 196.933155 122.184991 
C 197.87079 122.184991 198.770147 121.812465 199.433155 121.149458 
C 200.096163 120.48645 200.468689 119.587092 200.468689 118.649458 
C 200.468689 117.711823 200.096163 116.812465 199.433155 116.149458 
C 198.770147 115.48645 197.87079 115.113924 196.933155 115.113924 
C 195.995521 115.113924 195.096163 115.48645 194.433155 116.149458 
C 193.770147 116.812465 193.397621 117.711823 193.397621 118.649458 
C 193.397621 119.587092 193.770147 120.48645 194.433155 121.149458 
C 195.096163 121.812465 195.995521 122.184991 196.933155 122.184991 
z
" style="fill:none;stroke:#2ca02c;"/>
   </g>
   <g id="PathCollection_29">
    <path clip-path="url(#pe682c2f691)" d="M 201.906417 118.055876 
C 202.844052 118.055876 203.743409 117.68335 204.406417 117.020342 
C 205.069425 116.357334 205.441951 115.457977 205.441951 114.520342 
C 205.441951 113.582707 205.069425 112.68335 204.406417 112.020342 
C 203.743409 111.357334 202.844052 110.984808 201.906417 110.984808 
C 200.968783 110.984808 200.069425 111.357334 199.406417 112.020342 
C 198.743409 112.68335 198.370883 113.582707 198.370883 114.520342 
C 198.370883 115.457977 198.743409 116.357334 199.406417 117.020342 
C 200.069425 117.68335 200.968783 118.055876 201.906417 118.055876 
z
" style="fill:none;stroke:#2ca02c;"/>
   </g>
   <g id="PathCollection_30">
    <path clip-path="url(#pe682c2f691)" d="M 206.879679 113.864705 
C 207.817314 113.864705 208.716671 113.492179 209.379679 112.829171 
C 210.042687 112.166163 210.415213 111.266806 210.415213 110.329171 
C 210.415213 109.391537 210.042687 108.492179 209.379679 107.829171 
C 208.716671 107.166163 207.817314 106.793637 206.879679 106.793637 
C 205.942045 106.793637 205.042687 107.166163 204.379679 107.829171 
C 203.716671 108.492179 203.344145 109.391537 203.344145 110.329171 
C 203.344145 111.266806 203.716671 112.166163 204.379679 112.829171 
C 205.042687 113.492179 205.942045 113.864705 206.879679 113.864705 
z
" style="fill:none;stroke:#2ca02c;"/>
   </g>
   <g id="PathCollection_31">
    <path clip-path="url(#pe682c2f691)" d="M 211.852941 109.643362 
C 212.790576 109.643362 213.689933 109.270836 214.352941 108.607828 
C 215.015949 107.94482 215.388475 107.045462 215.388475 106.107828 
C 215.388475 105.170193 215.015949 104.270836 214.352941 103.607828 
C 213.689933 102.94482 212.790576 102.572294 211.852941 102.572294 
C 210.915307 102.572294 210.015949 102.94482 209.352941 103.607828 
C 208.689933 104.270836 208.317407 105.170193 208.317407 106.107828 
C 208.317407 107.045462 208.689933 107.94482 209.352941 108.607828 
C 210.015949 109.270836 210.915307 109.643362 211.852941 109.643362 
z
" style="fill:none;stroke:#2ca02c;"/>
   </g>
   <g id="PathCollection_32">
    <path clip-path="url(#pe682c2f691)" d="M 216.826203 105.430445 
C 217.763838 105.430445 218.663195 105.057918 219.326203 104.394911 
C 219.989211 103.731903 220.361737 102.832545 220.361737 101.894911 
C 220.361737 100.957276 219.989211 100.057918 219.326203 99.394911 
C 218.663195 98.731903 217.763838 98.359377 216.826203 98.359377 
C 215.888569 98.359377 214.989211 98.731903 214.326203 99.394911 
C 213.663195 100.057918 213.290669 100.957276 213.290669 101.894911 
C 213.290669 102.832545 213.663195 103.731903 214.326203 104.394911 
C 214.989211 105.057918 215.888569 105.430445 216.826203 105.430445 
z
" style="fill:none;stroke:#2ca02c;"/>
   </g>
   <g id="PathCollection_33">
    <path clip-path="url(#pe682c2f691)" d="M 221.799465 101.271014 
C 222.7371 101.271014 223.636457 100.898488 224.299465 100.23548 
C 224.962473 99.572472 225.334999 98.673115 225.334999 97.73548 
C 225.334999 96.797846 224.962473 95.898488 224.299465 95.23548 
C 223.636457 94.572472 222.7371 94.199946 221.799465 94.199946 
C 220.861831 94.199946 219.962473 94.572472 219.299465 95.23548 
C 218.636457 95.898488 218.263931 96.797846 218.263931 97.73548 
C 218.263931 98.673115 218.636457 99.572472 219.299465 100.23548 
C 219.962473 100.898488 220.861831 101.271014 221.799465 101.271014 
z
" style="fill:none;stroke:#2ca02c;"/>
   </g>
   <g id="PathCollection_34">
    <path clip-path="url(#pe682c2f691)" d="M 226.772727 97.216025 
C 227.710362 97.216025 228.60972 96.843498 229.272727 96.180491 
C 229.935735 95.517483 230.308261 94.618125 230.308261 93.680491 
C 230.308261 92.742856 229.935735 91.843498 229.272727 91.180491 
C 228.60972 90.517483 227.710362 90.144957 226.772727 90.144957 
C 225.835093 90.144957 224.935735 90.517483 224.272727 91.180491 
C 223.60972 91.843498 223.237193 92.742856 223.237193 93.680491 
C 223.237193 94.618125 223.60972 95.517483 224.272727 96.180491 
C 224.935735 96.843498 225.835093 97.216025 226.772727 97.216025 
z
" style="fill:none;stroke:#2ca02c;"/>
   </g>
   <g id="PathCollection_35">
    <path clip-path="url(#pe682c2f691)" d="M 231.745989 93.321413 
C 232.683624 93.321413 233.582982 92.948887 234.245989 92.285879 
C 234.908997 91.622871 235.281523 90.723513 235.281523 89.785879 
C 235.281523 88.848244 234.908997 87.948887 234.245989 87.285879 
C 233.582982 86.622871 232.683624 86.250345 231.745989 86.250345 
C 230.808355 86.250345 229.908997 86.622871 229.245989 87.285879 
C 228.582982 87.948887 228.210455 88.848244 228.210455 89.785879 
C 228.210455 90.723513 228.582982 91.622871 229.245989 92.285879 
C 229.908997 92.948887 230.808355 93.321413 231.745989 93.321413 
z
" style="fill:none;stroke:#2ca02c;"/>
   </g>
   <g id="PathCollection_36">
    <path clip-path="url(#pe682c2f691)" d="M 236.719251 89.646802 
C 237.656886 89.646802 238.556244 89.274276 239.219251 88.611268 
C 239.882259 87.948261 240.254785 87.048903 240.254785 86.111268 
C 240.254785 85.173634 239.882259 84.274276 239.219251 83.611268 
C 238.556244 82.948261 237.656886 82.575734 236.719251 82.575734 
C 235.781617 82.575734 234.882259 82.948261 234.219251 83.611268 
C 233.556244 84.274276 233.183717 85.173634 233.183717 86.111268 
C 233.183717 87.048903 233.556244 87.948261 234.219251 88.611268 
C 234.882259 89.274276 235.781617 89.646802 236.719251 89.646802 
z
" style="fill:none;stroke:#2ca02c;"/>
   </g>
   <g id="PathCollection_37">
    <path clip-path="url(#pe682c2f691)" d="M 241.692513 86.253793 
C 242.630148 86.253793 243.529506 85.881267 244.192513 85.21826 
C 244.855521 84.555252 245.228047 83.655894 245.228047 82.71826 
C 245.228047 81.780625 244.855521 80.881267 244.192513 80.21826 
C 243.529506 79.555252 242.630148 79.182726 241.692513 79.182726 
C 240.754879 79.182726 239.855521 79.555252 239.192513 80.21826 
C 238.529506 80.881267 238.156979 81.780625 238.156979 82.71826 
C 238.156979 83.655894 238.529506 84.555252 239.192513 85.21826 
C 239.855521 85.881267 240.754879 86.253793 241.692513 86.253793 
z
" style="fill:none;stroke:#2ca02c;"/>
   </g>
   <g id="PathCollection_38">
    <path clip-path="url(#pe682c2f691)" d="M 246.665775 83.203805 
C 247.60341 83.203805 248.502768 82.831279 249.165775 82.168272 
C 249.828783 81.505264 250.201309 80.605906 250.201309 79.668272 
C 250.201309 78.730637 249.828783 77.831279 249.165775 77.168272 
C 248.502768 76.505264 247.60341 76.132738 246.665775 76.132738 
C 245.728141 76.132738 244.828783 76.505264 244.165775 77.168272 
C 243.502768 77.831279 243.130241 78.730637 243.130241 79.668272 
C 243.130241 80.605906 243.502768 81.505264 244.165775 82.168272 
C 244.828783 82.831279 245.728141 83.203805 246.665775 83.203805 
z
" style="fill:none;stroke:#2ca02c;"/>
   </g>
   <g id="PathCollection_39">
    <path clip-path="url(#pe682c2f691)" d="M 251.639037 80.55543 
C 252.576672 80.55543 253.47603 80.182904 254.139037 79.519897 
C 254.802045 78.856889 255.174571 77.957531 255.174571 77.019897 
C 255.174571 76.082262 254.802045 75.182904 254.139037 74.519897 
C 253.47603 73.856889 252.576672 73.484363 251.639037 73.484363 
C 250.701403 73.484363 249.802045 73.856889 249.139037 74.519897 
C 248.47603 75.182904 248.103504 76.082262 248.103504 77.019897 
C 248.103504 77.957531 248.47603 78.856889 249.139037 79.519897 
C 249.802045 80.182904 250.701403 80.55543 251.639037 80.55543 
z
" style="fill:none;stroke:#2ca02c;"/>
   </g>
   <g id="PathCollection_40">
    <path clip-path="url(#pe682c2f691)" d="M 256.612299 78.361273 
C 257.549934 78.361273 258.449292 77.988747 259.112299 77.325739 
C 259.775307 76.662731 260.147833 75.763373 260.147833 74.825739 
C 260.147833 73.888104 259.775307 72.988747 259.112299 72.325739 
C 258.449292 71.662731 257.549934 71.290205 256.612299 71.290205 
C 255.674665 71.290205 254.775307 71.662731 254.112299 72.325739 
C 253.449292 72.988747 253.076766 73.888104 253.076766 74.825739 
C 253.076766 75.763373 253.449292 76.662731 254.112299 77.325739 
C 254.775307 77.988747 255.674665 78.361273 256.612299 78.361273 
z
" style="fill:none;stroke:#2ca02c;"/>
   </g>
   <g id="PathCollection_41">
    <path clip-path="url(#pe682c2f691)" d="M 261.585561 76.664231 
C 262.523196 76.664231 263.422554 76.291705 264.085561 75.628697 
C 264.748569 74.96569 265.121095 74.066332 265.121095 73.128697 
C 265.121095 72.191063 264.748569 71.291705 264.085561 70.628697 
C 263.422554 69.96569 262.523196 69.593164 261.585561 69.593164 
C 260.647927 69.593164 259.748569 69.96569 259.085561 70.628697 
C 258.422554 71.291705 258.050028 72.191063 258.050028 73.128697 
C 258.050028 74.066332 258.422554 74.96569 259.085561 75.628697 
C 259.748569 76.291705 260.647927 76.664231 261.585561 76.664231 
z
" style="fill:none;stroke:#2ca02c;"/>
   </g>
   <g id="PathCollection_42">
    <path clip-path="url(#pe682c2f691)" d="M 266.558824 75.493198 
C 267.496458 75.493198 268.395816 75.120672 269.058824 74.457664 
C 269.721831 73.794656 270.094357 72.895299 270.094357 71.957664 
C 270.094357 71.020029 269.721831 70.120672 269.058824 69.457664 
C 268.395816 68.794656 267.496458 68.42213 266.558824 68.42213 
C 265.621189 68.42213 264.721831 68.794656 264.058824 69.457664 
C 263.395816 70.120672 263.02329 71.020029 263.02329 71.957664 
C 263.02329 72.895299 263.395816 73.794656 264.058824 74.457664 
C 264.721831 75.120672 265.621189 75.493198 266.558824 75.493198 
z
" style="fill:none;stroke:#2ca02c;"/>
   </g>
   <g id="PathCollection_43">
    <path clip-path="url(#pe682c2f691)" d="M 271.532086 74.858131 
C 272.46972 74.858131 273.369078 74.485605 274.032086 73.822597 
C 274.695093 73.15959 275.067619 72.260232 275.067619 71.322597 
C 275.067619 70.384963 274.695093 69.485605 274.032086 68.822597 
C 273.369078 68.15959 272.46972 67.787064 271.532086 67.787064 
C 270.594451 67.787064 269.695093 68.15959 269.032086 68.822597 
C 268.369078 69.485605 267.996552 70.384963 267.996552 71.322597 
C 267.996552 72.260232 268.369078 73.15959 269.032086 73.822597 
C 269.695093 74.485605 270.594451 74.858131 271.532086 74.858131 
z
" style="fill:none;stroke:#2ca02c;"/>
   </g>
   <g id="PathCollection_44">
    <path clip-path="url(#pe682c2f691)" d="M 276.505348 74.744475 
C 277.442982 74.744475 278.34234 74.371949 279.005348 73.708941 
C 279.668355 73.045933 280.040881 72.146576 280.040881 71.208941 
C 280.040881 70.271307 279.668355 69.371949 279.005348 68.708941 
C 278.34234 68.045933 277.442982 67.673407 276.505348 67.673407 
C 275.567713 67.673407 274.668355 68.045933 274.005348 68.708941 
C 273.34234 69.371949 272.969814 70.271307 272.969814 71.208941 
C 272.969814 72.146576 273.34234 73.045933 274.005348 73.708941 
C 274.668355 74.371949 275.567713 74.744475 276.505348 74.744475 
z
" style="fill:none;stroke:#2ca02c;"/>
   </g>
   <g id="PathCollection_45">
    <path clip-path="url(#pe682c2f691)" d="M 281.47861 75.106886 
C 282.416244 75.106886 283.315602 74.734359 283.97861 74.071352 
C 284.641617 73.408344 285.014144 72.508986 285.014144 71.571352 
C 285.014144 70.633717 284.641617 69.734359 283.97861 69.071352 
C 283.315602 68.408344 282.416244 68.035818 281.47861 68.035818 
C 280.540975 68.035818 279.641617 68.408344 278.97861 69.071352 
C 278.315602 69.734359 277.943076 70.633717 277.943076 71.571352 
C 277.943076 72.508986 278.315602 73.408344 278.97861 74.071352 
C 279.641617 74.734359 280.540975 75.106886 281.47861 75.106886 
z
" style="fill:none;stroke:#2ca02c;"/>
   </g>
   <g id="PathCollection_46">
    <path clip-path="url(#pe682c2f691)" d="M 286.451872 75.862235 
C 287.389506 75.862235 288.288864 75.489709 288.951872 74.826701 
C 289.614879 74.163694 289.987406 73.264336 289.987406 72.326701 
C 289.987406 71.389067 289.614879 70.489709 288.951872 69.826701 
C 288.288864 69.163694 287.389506 68.791168 286.451872 68.791168 
C 285.514237 68.791168 284.614879 69.163694 283.951872 69.826701 
C 283.288864 70.489709 282.916338 71.389067 282.916338 72.326701 
C 282.916338 73.264336 283.288864 74.163694 283.951872 74.826701 
C 284.614879 75.489709 285.514237 75.862235 286.451872 75.862235 
z
" style="fill:none;stroke:#2ca02c;"/>
   </g>
   <g id="PathCollection_47">
    <path clip-path="url(#pe682c2f691)" d="M 291.425134 76.881854 
C 292.362768 76.881854 293.262126 76.509328 293.925134 75.84632 
C 294.588141 75.183312 294.960668 74.283954 294.960668 73.34632 
C 294.960668 72.408685 294.588141 71.509328 293.925134 70.84632 
C 293.262126 70.183312 292.362768 69.810786 291.425134 69.810786 
C 290.487499 69.810786 289.588141 70.183312 288.925134 70.84632 
C 288.262126 71.509328 287.8896 72.408685 287.8896 73.34632 
C 287.8896 74.283954 288.262126 75.183312 288.925134 75.84632 
C 289.588141 76.509328 290.487499 76.881854 291.425134 76.881854 
z
" style="fill:none;stroke:#2ca02c;"/>
   </g>
   <g id="PathCollection_48">
    <path clip-path="url(#pe682c2f691)" d="M 296.398396 77.982977 
C 297.33603 77.982977 298.235388 77.610451 298.898396 76.947443 
C 299.561403 76.284436 299.93393 75.385078 299.93393 74.447443 
C 299.93393 73.509809 299.561403 72.610451 298.898396 71.947443 
C 298.235388 71.284436 297.33603 70.911909 296.398396 70.911909 
C 295.460761 70.911909 294.561403 71.284436 293.898396 71.947443 
C 293.235388 72.610451 292.862862 73.509809 292.862862 74.447443 
C 292.862862 75.385078 293.235388 76.284436 293.898396 76.947443 
C 294.561403 77.610451 295.460761 77.982977 296.398396 77.982977 
z
" style="fill:none;stroke:#2ca02c;"/>
   </g>
   <g id="PathCollection_49">
    <path clip-path="url(#pe682c2f691)" d="M 301.371658 78.919369 
C 302.309292 78.919369 303.20865 78.546842 303.871658 77.883835 
C 304.534666 77.220827 304.907192 76.321469 304.907192 75.383835 
C 304.907192 74.4462 304.534666 73.546842 303.871658 72.883835 
C 303.20865 72.220827 302.309292 71.848301 301.371658 71.848301 
C 300.434023 71.848301 299.534666 72.220827 298.871658 72.883835 
C 298.20865 73.546842 297.836124 74.4462 297.836124 75.383835 
C 297.836124 76.321469 298.20865 77.220827 298.871658 77.883835 
C 299.534666 78.546842 300.434023 78.919369 301.371658 78.919369 
z
" style="fill:none;stroke:#2ca02c;"/>
   </g>
   <g id="PathCollection_50">
    <path clip-path="url(#pe682c2f691)" d="M 306.34492 79.371076 
C 307.282554 79.371076 308.181912 78.998549 308.84492 78.335542 
C 309.507928 77.672534 309.880454 76.773176 309.880454 75.835542 
C 309.880454 74.897907 309.507928 73.998549 308.84492 73.335542 
C 308.181912 72.672534 307.282554 72.300008 306.34492 72.300008 
C 305.407285 72.300008 304.507928 72.672534 303.84492 73.335542 
C 303.181912 73.998549 302.809386 74.897907 302.809386 75.835542 
C 302.809386 76.773176 303.181912 77.672534 303.84492 78.335542 
C 304.507928 78.998549 305.407285 79.371076 306.34492 79.371076 
z
" style="fill:none;stroke:#2ca02c;"/>
   </g>
   <g id="PathCollection_51">
    <path clip-path="url(#pe682c2f691)" d="M 311.318182 78.933288 
C 312.255816 78.933288 313.155174 78.560762 313.818182 77.897754 
C 314.48119 77.234746 314.853716 76.335389 314.853716 75.397754 
C 314.853716 74.46012 314.48119 73.560762 313.818182 72.897754 
C 313.155174 72.234746 312.255816 71.86222 311.318182 71.86222 
C 310.380547 71.86222 309.48119 72.234746 308.818182 72.897754 
C 308.155174 73.560762 307.782648 74.46012 307.782648 75.397754 
C 307.782648 76.335389 308.155174 77.234746 308.818182 77.897754 
C 309.48119 78.560762 310.380547 78.933288 311.318182 78.933288 
z
" style="fill:none;stroke:#2ca02c;"/>
   </g>
   <g id="PathCollection_52">
    <defs>
     <path d="M 0 3.535534 
C 0.937635 3.535534 1.836992 3.163008 2.5 2.5 
C 3.163008 1.836992 3.535534 0.937635 3.535534 0 
C 3.535534 -0.937635 3.163008 -1.836992 2.5 -2.5 
C 1.836992 -3.163008 0.937635 -3.535534 0 -3.535534 
C -0.937635 -3.535534 -1.836992 -3.163008 -2.5 -2.5 
C -3.163008 -1.836992 -3.535534 -0.937635 -3.535534 0 
C -3.535534 0.937635 -3.163008 1.836992 -2.5 2.5 
C -1.836992 3.163008 -0.937635 3.535534 0 3.535534 
z
" id="m68e6f1fb80" style="stroke:#2ca02c;"/>
    </defs>
    <g clip-path="url(#pe682c2f691)">
     <use style="fill:#2ca02c;stroke:#2ca02c;" x="62.65508" xlink:href="#m68e6f1fb80" y="180.585803"/>
    </g>
   </g>
   <g id="PathCollection_53">
    <g clip-path="url(#pe682c2f691)">
     <use style="fill:#2ca02c;stroke:#2ca02c;" x="67.628342" xlink:href="#m68e6f1fb80" y="179.575098"/>
    </g>
   </g>
   <g id="PathCollection_54">
    <g clip-path="url(#pe682c2f691)">
     <use style="fill:#2ca02c;stroke:#2ca02c;" x="72.601604" xlink:href="#m68e6f1fb80" y="178.848601"/>
    </g>
   </g>
   <g id="PathCollection_55">
    <g clip-path="url(#pe682c2f691)">
     <use style="fill:#2ca02c;stroke:#2ca02c;" x="77.574866" xlink:href="#m68e6f1fb80" y="178.194756"/>
    </g>
   </g>
   <g id="PathCollection_56">
    <g clip-path="url(#pe682c2f691)">
     <use style="fill:#2ca02c;stroke:#2ca02c;" x="82.548128" xlink:href="#m68e6f1fb80" y="177.457122"/>
    </g>
   </g>
   <g id="PathCollection_57">
    <g clip-path="url(#pe682c2f691)">
     <use style="fill:#2ca02c;stroke:#2ca02c;" x="87.52139" xlink:href="#m68e6f1fb80" y="176.524661"/>
    </g>
   </g>
   <g id="PathCollection_58">
    <g clip-path="url(#pe682c2f691)">
     <use style="fill:#2ca02c;stroke:#2ca02c;" x="92.494652" xlink:href="#m68e6f1fb80" y="175.323608"/>
    </g>
   </g>
   <g id="PathCollection_59">
    <g clip-path="url(#pe682c2f691)">
     <use style="fill:#2ca02c;stroke:#2ca02c;" x="97.467914" xlink:href="#m68e6f1fb80" y="173.810232"/>
    </g>
   </g>
   <g id="PathCollection_60">
    <g clip-path="url(#pe682c2f691)">
     <use style="fill:#2ca02c;stroke:#2ca02c;" x="102.441176" xlink:href="#m68e6f1fb80" y="171.964436"/>
    </g>
   </g>
   <g id="PathCollection_61">
    <g clip-path="url(#pe682c2f691)">
     <use style="fill:#2ca02c;stroke:#2ca02c;" x="107.414439" xlink:href="#m68e6f1fb80" y="169.784162"/>
    </g>
   </g>
   <g id="PathCollection_62">
    <g clip-path="url(#pe682c2f691)">
     <use style="fill:#2ca02c;stroke:#2ca02c;" x="112.387701" xlink:href="#m68e6f1fb80" y="167.280544"/>
    </g>
   </g>
   <g id="PathCollection_63">
    <g clip-path="url(#pe682c2f691)">
     <use style="fill:#2ca02c;stroke:#2ca02c;" x="117.360963" xlink:href="#m68e6f1fb80" y="164.473777"/>
    </g>
   </g>
   <g id="PathCollection_64">
    <g clip-path="url(#pe682c2f691)">
     <use style="fill:#2ca02c;stroke:#2ca02c;" x="122.334225" xlink:href="#m68e6f1fb80" y="161.389647"/>
    </g>
   </g>
   <g id="PathCollection_65">
    <g clip-path="url(#pe682c2f691)">
     <use style="fill:#2ca02c;stroke:#2ca02c;" x="127.307487" xlink:href="#m68e6f1fb80" y="158.056679"/>
    </g>
   </g>
   <g id="PathCollection_66">
    <g clip-path="url(#pe682c2f691)">
     <use style="fill:#2ca02c;stroke:#2ca02c;" x="132.280749" xlink:href="#m68e6f1fb80" y="154.503869"/>
    </g>
   </g>
   <g id="PathCollection_67">
    <g clip-path="url(#pe682c2f691)">
     <use style="fill:#2ca02c;stroke:#2ca02c;" x="137.254011" xlink:href="#m68e6f1fb80" y="150.758929"/>
    </g>
   </g>
   <g id="PathCollection_68">
    <g clip-path="url(#pe682c2f691)">
     <use style="fill:#2ca02c;stroke:#2ca02c;" x="142.227273" xlink:href="#m68e6f1fb80" y="146.847038"/>
    </g>
   </g>
   <g id="PathCollection_69">
    <g clip-path="url(#pe682c2f691)">
     <use style="fill:#2ca02c;stroke:#2ca02c;" x="147.200535" xlink:href="#m68e6f1fb80" y="142.790017"/>
    </g>
   </g>
   <g id="PathCollection_70">
    <g clip-path="url(#pe682c2f691)">
     <use style="fill:#2ca02c;stroke:#2ca02c;" x="152.173797" xlink:href="#m68e6f1fb80" y="138.605908"/>
    </g>
   </g>
   <g id="PathCollection_71">
    <g clip-path="url(#pe682c2f691)">
     <use style="fill:#2ca02c;stroke:#2ca02c;" x="157.147059" xlink:href="#m68e6f1fb80" y="134.308899"/>
    </g>
   </g>
   <g id="PathCollection_72">
    <g clip-path="url(#pe682c2f691)">
     <use style="fill:#2ca02c;stroke:#2ca02c;" x="162.120321" xlink:href="#m68e6f1fb80" y="129.909558"/>
    </g>
   </g>
   <g id="PathCollection_73">
    <g clip-path="url(#pe682c2f691)">
     <use style="fill:#2ca02c;stroke:#2ca02c;" x="167.093583" xlink:href="#m68e6f1fb80" y="125.41533"/>
    </g>
   </g>
   <g id="PathCollection_74">
    <g clip-path="url(#pe682c2f691)">
     <use style="fill:#2ca02c;stroke:#2ca02c;" x="172.066845" xlink:href="#m68e6f1fb80" y="120.831238"/>
    </g>
   </g>
   <g id="PathCollection_75">
    <g clip-path="url(#pe682c2f691)">
     <use style="fill:#2ca02c;stroke:#2ca02c;" x="177.040107" xlink:href="#m68e6f1fb80" y="116.160774"/>
    </g>
   </g>
   <g id="PathCollection_76">
    <g clip-path="url(#pe682c2f691)">
     <use style="fill:#2ca02c;stroke:#2ca02c;" x="182.013369" xlink:href="#m68e6f1fb80" y="111.4069"/>
    </g>
   </g>
   <g id="PathCollection_77">
    <g clip-path="url(#pe682c2f691)">
     <use style="fill:#2ca02c;stroke:#2ca02c;" x="186.986631" xlink:href="#m68e6f1fb80" y="106.573139"/>
    </g>
   </g>
   <g id="PathCollection_78">
    <g clip-path="url(#pe682c2f691)">
     <use style="fill:#2ca02c;stroke:#2ca02c;" x="191.959893" xlink:href="#m68e6f1fb80" y="101.664698"/>
    </g>
   </g>
   <g id="PathCollection_79">
    <g clip-path="url(#pe682c2f691)">
     <use style="fill:#2ca02c;stroke:#2ca02c;" x="196.933155" xlink:href="#m68e6f1fb80" y="96.689588"/>
    </g>
   </g>
   <g id="PathCollection_80">
    <g clip-path="url(#pe682c2f691)">
     <use style="fill:#2ca02c;stroke:#2ca02c;" x="201.906417" xlink:href="#m68e6f1fb80" y="91.659684"/>
    </g>
   </g>
   <g id="PathCollection_81">
    <g clip-path="url(#pe682c2f691)">
     <use style="fill:#2ca02c;stroke:#2ca02c;" x="206.879679" xlink:href="#m68e6f1fb80" y="86.591695"/>
    </g>
   </g>
   <g id="PathCollection_82">
    <g clip-path="url(#pe682c2f691)">
     <use style="fill:#2ca02c;stroke:#2ca02c;" x="211.852941" xlink:href="#m68e6f1fb80" y="81.507983"/>
    </g>
   </g>
   <g id="PathCollection_83">
    <g clip-path="url(#pe682c2f691)">
     <use style="fill:#2ca02c;stroke:#2ca02c;" x="216.826203" xlink:href="#m68e6f1fb80" y="76.437199"/>
    </g>
   </g>
   <g id="PathCollection_84">
    <g clip-path="url(#pe682c2f691)">
     <use style="fill:#2ca02c;stroke:#2ca02c;" x="221.799465" xlink:href="#m68e6f1fb80" y="71.414688"/>
    </g>
   </g>
   <g id="PathCollection_85">
    <g clip-path="url(#pe682c2f691)">
     <use style="fill:#2ca02c;stroke:#2ca02c;" x="226.772727" xlink:href="#m68e6f1fb80" y="66.482609"/>
    </g>
   </g>
   <g id="PathCollection_86">
    <g clip-path="url(#pe682c2f691)">
     <use style="fill:#2ca02c;stroke:#2ca02c;" x="231.745989" xlink:href="#m68e6f1fb80" y="61.689743"/>
    </g>
   </g>
   <g id="PathCollection_87">
    <g clip-path="url(#pe682c2f691)">
     <use style="fill:#2ca02c;stroke:#2ca02c;" x="236.719251" xlink:href="#m68e6f1fb80" y="57.090923"/>
    </g>
   </g>
   <g id="PathCollection_88">
    <g clip-path="url(#pe682c2f691)">
     <use style="fill:#2ca02c;stroke:#2ca02c;" x="241.692513" xlink:href="#m68e6f1fb80" y="52.746063"/>
    </g>
   </g>
   <g id="PathCollection_89">
    <g clip-path="url(#pe682c2f691)">
     <use style="fill:#2ca02c;stroke:#2ca02c;" x="246.665775" xlink:href="#m68e6f1fb80" y="48.718717"/>
    </g>
   </g>
   <g id="PathCollection_90">
    <g clip-path="url(#pe682c2f691)">
     <use style="fill:#2ca02c;stroke:#2ca02c;" x="251.639037" xlink:href="#m68e6f1fb80" y="45.074153"/>
    </g>
   </g>
   <g id="PathCollection_91">
    <g clip-path="url(#pe682c2f691)">
     <use style="fill:#2ca02c;stroke:#2ca02c;" x="256.612299" xlink:href="#m68e6f1fb80" y="41.87686"/>
    </g>
   </g>
   <g id="PathCollection_92">
    <g clip-path="url(#pe682c2f691)">
     <use style="fill:#2ca02c;stroke:#2ca02c;" x="261.585561" xlink:href="#m68e6f1fb80" y="39.187484"/>
    </g>
   </g>
   <g id="PathCollection_93">
    <g clip-path="url(#pe682c2f691)">
     <use style="fill:#2ca02c;stroke:#2ca02c;" x="266.558824" xlink:href="#m68e6f1fb80" y="37.059111"/>
    </g>
   </g>
   <g id="PathCollection_94">
    <g clip-path="url(#pe682c2f691)">
     <use style="fill:#2ca02c;stroke:#2ca02c;" x="271.532086" xlink:href="#m68e6f1fb80" y="35.532881"/>
    </g>
   </g>
   <g id="PathCollection_95">
    <g clip-path="url(#pe682c2f691)">
     <use style="fill:#2ca02c;stroke:#2ca02c;" x="276.505348" xlink:href="#m68e6f1fb80" y="34.632864"/>
    </g>
   </g>
   <g id="PathCollection_96">
    <g clip-path="url(#pe682c2f691)">
     <use style="fill:#2ca02c;stroke:#2ca02c;" x="281.47861" xlink:href="#m68e6f1fb80" y="34.360178"/>
    </g>
   </g>
   <g id="PathCollection_97">
    <g clip-path="url(#pe682c2f691)">
     <use style="fill:#2ca02c;stroke:#2ca02c;" x="286.451872" xlink:href="#m68e6f1fb80" y="34.686282"/>
    </g>
   </g>
   <g id="PathCollection_98">
    <g clip-path="url(#pe682c2f691)">
     <use style="fill:#2ca02c;stroke:#2ca02c;" x="291.425134" xlink:href="#m68e6f1fb80" y="35.545409"/>
    </g>
   </g>
   <g id="PathCollection_99">
    <g clip-path="url(#pe682c2f691)">
     <use style="fill:#2ca02c;stroke:#2ca02c;" x="296.398396" xlink:href="#m68e6f1fb80" y="36.826099"/>
    </g>
   </g>
   <g id="PathCollection_100">
    <g clip-path="url(#pe682c2f691)">
     <use style="fill:#2ca02c;stroke:#2ca02c;" x="301.371658" xlink:href="#m68e6f1fb80" y="38.361774"/>
    </g>
   </g>
   <g id="PathCollection_101">
    <g clip-path="url(#pe682c2f691)">
     <use style="fill:#2ca02c;stroke:#2ca02c;" x="306.34492" xlink:href="#m68e6f1fb80" y="39.920325"/>
    </g>
   </g>
   <g id="PathCollection_102">
    <g clip-path="url(#pe682c2f691)">
     <use style="fill:#2ca02c;stroke:#2ca02c;" x="311.318182" xlink:href="#m68e6f1fb80" y="41.192652"/>
    </g>
   </g>
   <g id="matplotlib.axis_1"/>
   <g id="matplotlib.axis_2">
    <g id="ytick_1">
     <g id="line2d_1">
      <defs>
       <path d="M 0 0 
L -3.5 0 
" id="m32f52c342a" style="stroke:#000000;stroke-width:0.8;"/>
      </defs>
      <g>
       <use style="stroke:#000000;stroke-width:0.8;" x="45" xlink:href="#m32f52c342a" y="181.587273"/>
      </g>
     </g>
     <g id="text_1">
      <!-- 0.00 -->
      <g transform="translate(15.734375 185.386491)scale(0.1 -0.1)">
       <defs>
        <path d="M 31.78125 66.40625 
Q 24.171875 66.40625 20.328125 58.90625 
Q 16.5 51.421875 16.5 36.375 
Q 16.5 21.390625 20.328125 13.890625 
Q 24.171875 6.390625 31.78125 6.390625 
Q 39.453125 6.390625 43.28125 13.890625 
Q 47.125 21.390625 47.125 36.375 
Q 47.125 51.421875 43.28125 58.90625 
Q 39.453125 66.40625 31.78125 66.40625 
z
M 31.78125 74.21875 
Q 44.046875 74.21875 50.515625 64.515625 
Q 56.984375 54.828125 56.984375 36.375 
Q 56.984375 17.96875 50.515625 8.265625 
Q 44.046875 -1.421875 31.78125 -1.421875 
Q 19.53125 -1.421875 13.0625 8.265625 
Q 6.59375 17.96875 6.59375 36.375 
Q 6.59375 54.828125 13.0625 64.515625 
Q 19.53125 74.21875 31.78125 74.21875 
z
" id="DejaVuSans-48"/>
        <path d="M 10.6875 12.40625 
L 21 12.40625 
L 21 0 
L 10.6875 0 
z
" id="DejaVuSans-46"/>
       </defs>
       <use xlink:href="#DejaVuSans-48"/>
       <use x="63.623047" xlink:href="#DejaVuSans-46"/>
       <use x="95.410156" xlink:href="#DejaVuSans-48"/>
       <use x="159.033203" xlink:href="#DejaVuSans-48"/>
      </g>
     </g>
    </g>
    <g id="ytick_2">
     <g id="line2d_2">
      <g>
       <use style="stroke:#000000;stroke-width:0.8;" x="45" xlink:href="#m32f52c342a" y="157.742744"/>
      </g>
     </g>
     <g id="text_2">
      <!-- 0.05 -->
      <g transform="translate(15.734375 161.541963)scale(0.1 -0.1)">
       <defs>
        <path d="M 10.796875 72.90625 
L 49.515625 72.90625 
L 49.515625 64.59375 
L 19.828125 64.59375 
L 19.828125 46.734375 
Q 21.96875 47.46875 24.109375 47.828125 
Q 26.265625 48.1875 28.421875 48.1875 
Q 40.625 48.1875 47.75 41.5 
Q 54.890625 34.8125 54.890625 23.390625 
Q 54.890625 11.625 47.5625 5.09375 
Q 40.234375 -1.421875 26.90625 -1.421875 
Q 22.3125 -1.421875 17.546875 -0.640625 
Q 12.796875 0.140625 7.71875 1.703125 
L 7.71875 11.625 
Q 12.109375 9.234375 16.796875 8.0625 
Q 21.484375 6.890625 26.703125 6.890625 
Q 35.15625 6.890625 40.078125 11.328125 
Q 45.015625 15.765625 45.015625 23.390625 
Q 45.015625 31 40.078125 35.4375 
Q 35.15625 39.890625 26.703125 39.890625 
Q 22.75 39.890625 18.8125 39.015625 
Q 14.890625 38.140625 10.796875 36.28125 
z
" id="DejaVuSans-53"/>
       </defs>
       <use xlink:href="#DejaVuSans-48"/>
       <use x="63.623047" xlink:href="#DejaVuSans-46"/>
       <use x="95.410156" xlink:href="#DejaVuSans-48"/>
       <use x="159.033203" xlink:href="#DejaVuSans-53"/>
      </g>
     </g>
    </g>
    <g id="ytick_3">
     <g id="line2d_3">
      <g>
       <use style="stroke:#000000;stroke-width:0.8;" x="45" xlink:href="#m32f52c342a" y="133.898216"/>
      </g>
     </g>
     <g id="text_3">
      <!-- 0.10 -->
      <g transform="translate(15.734375 137.697434)scale(0.1 -0.1)">
       <defs>
        <path d="M 12.40625 8.296875 
L 28.515625 8.296875 
L 28.515625 63.921875 
L 10.984375 60.40625 
L 10.984375 69.390625 
L 28.421875 72.90625 
L 38.28125 72.90625 
L 38.28125 8.296875 
L 54.390625 8.296875 
L 54.390625 0 
L 12.40625 0 
z
" id="DejaVuSans-49"/>
       </defs>
       <use xlink:href="#DejaVuSans-48"/>
       <use x="63.623047" xlink:href="#DejaVuSans-46"/>
       <use x="95.410156" xlink:href="#DejaVuSans-49"/>
       <use x="159.033203" xlink:href="#DejaVuSans-48"/>
      </g>
     </g>
    </g>
    <g id="ytick_4">
     <g id="line2d_4">
      <g>
       <use style="stroke:#000000;stroke-width:0.8;" x="45" xlink:href="#m32f52c342a" y="110.053687"/>
      </g>
     </g>
     <g id="text_4">
      <!-- 0.15 -->
      <g transform="translate(15.734375 113.852906)scale(0.1 -0.1)">
       <use xlink:href="#DejaVuSans-48"/>
       <use x="63.623047" xlink:href="#DejaVuSans-46"/>
       <use x="95.410156" xlink:href="#DejaVuSans-49"/>
       <use x="159.033203" xlink:href="#DejaVuSans-53"/>
      </g>
     </g>
    </g>
    <g id="ytick_5">
     <g id="line2d_5">
      <g>
       <use style="stroke:#000000;stroke-width:0.8;" x="45" xlink:href="#m32f52c342a" y="86.209159"/>
      </g>
     </g>
     <g id="text_5">
      <!-- 0.20 -->
      <g transform="translate(15.734375 90.008377)scale(0.1 -0.1)">
       <defs>
        <path d="M 19.1875 8.296875 
L 53.609375 8.296875 
L 53.609375 0 
L 7.328125 0 
L 7.328125 8.296875 
Q 12.9375 14.109375 22.625 23.890625 
Q 32.328125 33.6875 34.8125 36.53125 
Q 39.546875 41.84375 41.421875 45.53125 
Q 43.3125 49.21875 43.3125 52.78125 
Q 43.3125 58.59375 39.234375 62.25 
Q 35.15625 65.921875 28.609375 65.921875 
Q 23.96875 65.921875 18.8125 64.3125 
Q 13.671875 62.703125 7.8125 59.421875 
L 7.8125 69.390625 
Q 13.765625 71.78125 18.9375 73 
Q 24.125 74.21875 28.421875 74.21875 
Q 39.75 74.21875 46.484375 68.546875 
Q 53.21875 62.890625 53.21875 53.421875 
Q 53.21875 48.921875 51.53125 44.890625 
Q 49.859375 40.875 45.40625 35.40625 
Q 44.1875 33.984375 37.640625 27.21875 
Q 31.109375 20.453125 19.1875 8.296875 
z
" id="DejaVuSans-50"/>
       </defs>
       <use xlink:href="#DejaVuSans-48"/>
       <use x="63.623047" xlink:href="#DejaVuSans-46"/>
       <use x="95.410156" xlink:href="#DejaVuSans-50"/>
       <use x="159.033203" xlink:href="#DejaVuSans-48"/>
      </g>
     </g>
    </g>
    <g id="ytick_6">
     <g id="line2d_6">
      <g>
       <use style="stroke:#000000;stroke-width:0.8;" x="45" xlink:href="#m32f52c342a" y="62.36463"/>
      </g>
     </g>
     <g id="text_6">
      <!-- 0.25 -->
      <g transform="translate(15.734375 66.163849)scale(0.1 -0.1)">
       <use xlink:href="#DejaVuSans-48"/>
       <use x="63.623047" xlink:href="#DejaVuSans-46"/>
       <use x="95.410156" xlink:href="#DejaVuSans-50"/>
       <use x="159.033203" xlink:href="#DejaVuSans-53"/>
      </g>
     </g>
    </g>
    <g id="ytick_7">
     <g id="line2d_7">
      <g>
       <use style="stroke:#000000;stroke-width:0.8;" x="45" xlink:href="#m32f52c342a" y="38.520102"/>
      </g>
     </g>
     <g id="text_7">
      <!-- 0.30 -->
      <g transform="translate(15.734375 42.31932)scale(0.1 -0.1)">
       <defs>
        <path d="M 40.578125 39.3125 
Q 47.65625 37.796875 51.625 33 
Q 55.609375 28.21875 55.609375 21.1875 
Q 55.609375 10.40625 48.1875 4.484375 
Q 40.765625 -1.421875 27.09375 -1.421875 
Q 22.515625 -1.421875 17.65625 -0.515625 
Q 12.796875 0.390625 7.625 2.203125 
L 7.625 11.71875 
Q 11.71875 9.328125 16.59375 8.109375 
Q 21.484375 6.890625 26.8125 6.890625 
Q 36.078125 6.890625 40.9375 10.546875 
Q 45.796875 14.203125 45.796875 21.1875 
Q 45.796875 27.640625 41.28125 31.265625 
Q 36.765625 34.90625 28.71875 34.90625 
L 20.21875 34.90625 
L 20.21875 43.015625 
L 29.109375 43.015625 
Q 36.375 43.015625 40.234375 45.921875 
Q 44.09375 48.828125 44.09375 54.296875 
Q 44.09375 59.90625 40.109375 62.90625 
Q 36.140625 65.921875 28.71875 65.921875 
Q 24.65625 65.921875 20.015625 65.03125 
Q 15.375 64.15625 9.8125 62.3125 
L 9.8125 71.09375 
Q 15.4375 72.65625 20.34375 73.4375 
Q 25.25 74.21875 29.59375 74.21875 
Q 40.828125 74.21875 47.359375 69.109375 
Q 53.90625 64.015625 53.90625 55.328125 
Q 53.90625 49.265625 50.4375 45.09375 
Q 46.96875 40.921875 40.578125 39.3125 
z
" id="DejaVuSans-51"/>
       </defs>
       <use xlink:href="#DejaVuSans-48"/>
       <use x="63.623047" xlink:href="#DejaVuSans-46"/>
       <use x="95.410156" xlink:href="#DejaVuSans-51"/>
       <use x="159.033203" xlink:href="#DejaVuSans-48"/>
      </g>
     </g>
    </g>
   </g>
   <g id="line2d_8">
    <path clip-path="url(#pe682c2f691)" d="M 57.681818 181.587273 
L 89.552139 181.47647 
L 95.043449 181.147248 
L 100.928476 180.567938 
L 107.372995 179.705399 
L 114.501337 178.522051 
L 122.582888 176.948301 
L 131.949198 174.891183 
L 143.574198 172.098919 
L 160.213904 167.85185 
L 197.596257 158.260489 
L 208.786096 155.60712 
L 213.966578 154.638642 
L 219.375 153.856372 
L 225.114973 153.252962 
L 231.269385 152.832193 
L 237.900401 152.604204 
L 245.132353 152.581022 
L 253.110294 152.781407 
L 262.062166 153.233198 
L 272.360963 153.981835 
L 284.669786 155.108158 
L 300.542781 156.79692 
L 311.318182 158.028017 
L 311.318182 158.028017 
" style="fill:none;stroke:#2ca02c;stroke-dasharray:11.1,4.8;stroke-dashoffset:0;stroke-width:3;"/>
   </g>
   <g id="line2d_9">
    <path clip-path="url(#pe682c2f691)" d="M 57.681818 181.587273 
L 86.298797 181.476731 
L 88.764706 181.16858 
L 91.168449 180.643366 
L 93.65508 179.86934 
L 96.245321 178.826745 
L 98.959893 177.492514 
L 101.840241 175.826174 
L 104.907086 173.790643 
L 108.18115 171.346311 
L 111.703877 168.432719 
L 115.495989 165.002051 
L 119.619652 160.965248 
L 124.157754 156.20261 
L 129.17246 150.607978 
L 134.808824 143.977352 
L 141.294786 135.995088 
L 149.106952 126.017426 
L 159.840909 111.917952 
L 190.012032 72.113608 
L 200.227941 59.117363 
L 206.631016 51.270394 
L 209.511364 48.112258 
L 212.225936 45.461745 
L 214.919786 43.139809 
L 217.613636 41.109391 
L 220.328209 39.3408 
L 223.063503 37.823057 
L 225.840241 36.536596 
L 228.658422 35.475969 
L 231.53877 34.630089 
L 234.481283 33.997541 
L 237.506684 33.573929 
L 240.656417 33.359136 
L 243.909759 33.360819 
L 247.308155 33.585357 
L 250.893048 34.047577 
L 254.664439 34.760472 
L 258.66377 35.745011 
L 262.932487 37.02737 
L 267.532754 38.645207 
L 272.506016 40.633261 
L 277.976604 43.064413 
L 284.048128 46.01118 
L 290.948529 49.613688 
L 299.071524 54.113951 
L 309.328877 60.064222 
L 311.318182 61.240966 
L 311.318182 61.240966 
" style="fill:none;stroke:#2ca02c;stroke-linecap:square;stroke-width:3;"/>
   </g>
   <g id="patch_3">
    <path d="M 45 189 
L 45 25.92 
" style="fill:none;stroke:#000000;stroke-linecap:square;stroke-linejoin:miter;stroke-width:0.8;"/>
   </g>
   <g id="patch_4">
    <path d="M 324 189 
L 324 25.92 
" style="fill:none;stroke:#000000;stroke-linecap:square;stroke-linejoin:miter;stroke-width:0.8;"/>
   </g>
   <g id="patch_5">
    <path d="M 45 189 
L 324 189 
" style="fill:none;stroke:#000000;stroke-linecap:square;stroke-linejoin:miter;stroke-width:0.8;"/>
   </g>
   <g id="patch_6">
    <path d="M 45 25.92 
L 324 25.92 
" style="fill:none;stroke:#000000;stroke-linecap:square;stroke-linejoin:miter;stroke-width:0.8;"/>
   </g>
  </g>
 </g>
 <defs>
  <clipPath id="pe682c2f691">
   <rect height="163.08" width="279" x="45" y="25.92"/>
  </clipPath>
 </defs>
</svg>
