<?xml version="1.0" encoding="utf-8" standalone="no"?>
<!DOCTYPE svg PUBLIC "-//W3C//DTD SVG 1.1//EN"
  "http://www.w3.org/Graphics/SVG/1.1/DTD/svg11.dtd">
<!-- Created with matplotlib (https://matplotlib.org/) -->
<svg height="216pt" version="1.1" viewBox="0 0 360 216" width="360pt" xmlns="http://www.w3.org/2000/svg" xmlns:xlink="http://www.w3.org/1999/xlink">
 <metadata>
  <rdf:RDF xmlns:cc="http://creativecommons.org/ns#" xmlns:dc="http://purl.org/dc/elements/1.1/" xmlns:rdf="http://www.w3.org/1999/02/22-rdf-syntax-ns#">
   <cc:Work>
    <dc:type rdf:resource="http://purl.org/dc/dcmitype/StillImage"/>
    <dc:date>2024-12-06T09:12:06.637326</dc:date>
    <dc:format>image/svg+xml</dc:format>
    <dc:creator>
     <cc:Agent>
      <dc:title>Matplotlib v3.3.2, https://matplotlib.org/</dc:title>
     </cc:Agent>
    </dc:creator>
   </cc:Work>
  </rdf:RDF>
 </metadata>
 <defs>
  <style type="text/css">*{stroke-linecap:butt;stroke-linejoin:round;}</style>
 </defs>
 <g id="figure_1">
  <g id="patch_1">
   <path d="M 0 216 
L 360 216 
L 360 0 
L 0 0 
z
" style="fill:none;"/>
  </g>
  <g id="axes_1">
   <g id="patch_2">
    <path d="M 45 189 
L 324 189 
L 324 25.92 
L 45 25.92 
z
" style="fill:#ffffff;"/>
   </g>
   <g id="PathCollection_1">
    <path clip-path="url(#p71758f4661)" d="M 62.65508 184.836168 
C 63.592715 184.836168 64.492072 184.463642 65.15508 183.800634 
C 65.818088 183.137626 66.190614 182.238268 66.190614 181.300634 
C 66.190614 180.362999 65.818088 179.463642 65.15508 178.800634 
C 64.492072 178.137626 63.592715 177.7651 62.65508 177.7651 
C 61.717446 177.7651 60.818088 178.137626 60.15508 178.800634 
C 59.492072 179.463642 59.119546 180.362999 59.119546 181.300634 
C 59.119546 182.238268 59.492072 183.137626 60.15508 183.800634 
C 60.818088 184.463642 61.717446 184.836168 62.65508 184.836168 
z
" style="fill:none;stroke:#9467bd;"/>
   </g>
   <g id="PathCollection_2">
    <path clip-path="url(#p71758f4661)" d="M 67.628342 184.952194 
C 68.565977 184.952194 69.465334 184.579668 70.128342 183.916661 
C 70.79135 183.253653 71.163876 182.354295 71.163876 181.416661 
C 71.163876 180.479026 70.79135 179.579668 70.128342 178.916661 
C 69.465334 178.253653 68.565977 177.881127 67.628342 177.881127 
C 66.690708 177.881127 65.79135 178.253653 65.128342 178.916661 
C 64.465334 179.579668 64.092808 180.479026 64.092808 181.416661 
C 64.092808 182.354295 64.465334 183.253653 65.128342 183.916661 
C 65.79135 184.579668 66.690708 184.952194 67.628342 184.952194 
z
" style="fill:none;stroke:#9467bd;"/>
   </g>
   <g id="PathCollection_3">
    <path clip-path="url(#p71758f4661)" d="M 72.601604 185.122807 
C 73.539239 185.122807 74.438597 184.75028 75.101604 184.087273 
C 75.764612 183.424265 76.137138 182.524907 76.137138 181.587273 
C 76.137138 180.649638 75.764612 179.75028 75.101604 179.087273 
C 74.438597 178.424265 73.539239 178.051739 72.601604 178.051739 
C 71.66397 178.051739 70.764612 178.424265 70.101604 179.087273 
C 69.438597 179.75028 69.06607 180.649638 69.06607 181.587273 
C 69.06607 182.524907 69.438597 183.424265 70.101604 184.087273 
C 70.764612 184.75028 71.66397 185.122807 72.601604 185.122807 
z
" style="fill:none;stroke:#9467bd;"/>
   </g>
   <g id="PathCollection_4">
    <path clip-path="url(#p71758f4661)" d="M 77.574866 185.103759 
C 78.512501 185.103759 79.411859 184.731233 80.074866 184.068225 
C 80.737874 183.405217 81.1104 182.505859 81.1104 181.568225 
C 81.1104 180.63059 80.737874 179.731233 80.074866 179.068225 
C 79.411859 178.405217 78.512501 178.032691 77.574866 178.032691 
C 76.637232 178.032691 75.737874 178.405217 75.074866 179.068225 
C 74.411859 179.731233 74.039332 180.63059 74.039332 181.568225 
C 74.039332 182.505859 74.411859 183.405217 75.074866 184.068225 
C 75.737874 184.731233 76.637232 185.103759 77.574866 185.103759 
z
" style="fill:none;stroke:#9467bd;"/>
   </g>
   <g id="PathCollection_5">
    <path clip-path="url(#p71758f4661)" d="M 82.548128 184.727138 
C 83.485763 184.727138 84.385121 184.354611 85.048128 183.691604 
C 85.711136 183.028596 86.083662 182.129238 86.083662 181.191604 
C 86.083662 180.253969 85.711136 179.354611 85.048128 178.691604 
C 84.385121 178.028596 83.485763 177.65607 82.548128 177.65607 
C 81.610494 177.65607 80.711136 178.028596 80.048128 178.691604 
C 79.385121 179.354611 79.012594 180.253969 79.012594 181.191604 
C 79.012594 182.129238 79.385121 183.028596 80.048128 183.691604 
C 80.711136 184.354611 81.610494 184.727138 82.548128 184.727138 
z
" style="fill:none;stroke:#9467bd;"/>
   </g>
   <g id="PathCollection_6">
    <path clip-path="url(#p71758f4661)" d="M 87.52139 183.888376 
C 88.459025 183.888376 89.358383 183.51585 90.02139 182.852842 
C 90.684398 182.189834 91.056924 181.290476 91.056924 180.352842 
C 91.056924 179.415207 90.684398 178.51585 90.02139 177.852842 
C 89.358383 177.189834 88.459025 176.817308 87.52139 176.817308 
C 86.583756 176.817308 85.684398 177.189834 85.02139 177.852842 
C 84.358383 178.51585 83.985856 179.415207 83.985856 180.352842 
C 83.985856 181.290476 84.358383 182.189834 85.02139 182.852842 
C 85.684398 183.51585 86.583756 183.888376 87.52139 183.888376 
z
" style="fill:none;stroke:#9467bd;"/>
   </g>
   <g id="PathCollection_7">
    <path clip-path="url(#p71758f4661)" d="M 92.494652 182.534589 
C 93.432287 182.534589 94.331645 182.162063 94.994652 181.499055 
C 95.65766 180.836047 96.030186 179.93669 96.030186 178.999055 
C 96.030186 178.061421 95.65766 177.162063 94.994652 176.499055 
C 94.331645 175.836047 93.432287 175.463521 92.494652 175.463521 
C 91.557018 175.463521 90.65766 175.836047 89.994652 176.499055 
C 89.331645 177.162063 88.959119 178.061421 88.959119 178.999055 
C 88.959119 179.93669 89.331645 180.836047 89.994652 181.499055 
C 90.65766 182.162063 91.557018 182.534589 92.494652 182.534589 
z
" style="fill:none;stroke:#9467bd;"/>
   </g>
   <g id="PathCollection_8">
    <path clip-path="url(#p71758f4661)" d="M 97.467914 180.654086 
C 98.405549 180.654086 99.304907 180.281559 99.967914 179.618552 
C 100.630922 178.955544 101.003448 178.056186 101.003448 177.118552 
C 101.003448 176.180917 100.630922 175.281559 99.967914 174.618552 
C 99.304907 173.955544 98.405549 173.583018 97.467914 173.583018 
C 96.53028 173.583018 95.630922 173.955544 94.967914 174.618552 
C 94.304907 175.281559 93.932381 176.180917 93.932381 177.118552 
C 93.932381 178.056186 94.304907 178.955544 94.967914 179.618552 
C 95.630922 180.281559 96.53028 180.654086 97.467914 180.654086 
z
" style="fill:none;stroke:#9467bd;"/>
   </g>
   <g id="PathCollection_9">
    <path clip-path="url(#p71758f4661)" d="M 102.441176 178.267085 
C 103.378811 178.267085 104.278169 177.894559 104.941176 177.231551 
C 105.604184 176.568543 105.97671 175.669185 105.97671 174.731551 
C 105.97671 173.793916 105.604184 172.894559 104.941176 172.231551 
C 104.278169 171.568543 103.378811 171.196017 102.441176 171.196017 
C 101.503542 171.196017 100.604184 171.568543 99.941176 172.231551 
C 99.278169 172.894559 98.905643 173.793916 98.905643 174.731551 
C 98.905643 175.669185 99.278169 176.568543 99.941176 177.231551 
C 100.604184 177.894559 101.503542 178.267085 102.441176 178.267085 
z
" style="fill:none;stroke:#9467bd;"/>
   </g>
   <g id="PathCollection_10">
    <path clip-path="url(#p71758f4661)" d="M 107.414439 175.417524 
C 108.352073 175.417524 109.251431 175.044998 109.914439 174.38199 
C 110.577446 173.718982 110.949972 172.819625 110.949972 171.88199 
C 110.949972 170.944356 110.577446 170.044998 109.914439 169.38199 
C 109.251431 168.718982 108.352073 168.346456 107.414439 168.346456 
C 106.476804 168.346456 105.577446 168.718982 104.914439 169.38199 
C 104.251431 170.044998 103.878905 170.944356 103.878905 171.88199 
C 103.878905 172.819625 104.251431 173.718982 104.914439 174.38199 
C 105.577446 175.044998 106.476804 175.417524 107.414439 175.417524 
z
" style="fill:none;stroke:#9467bd;"/>
   </g>
   <g id="PathCollection_11">
    <path clip-path="url(#p71758f4661)" d="M 112.387701 172.165921 
C 113.325335 172.165921 114.224693 171.793395 114.887701 171.130387 
C 115.550708 170.467379 115.923234 169.568022 115.923234 168.630387 
C 115.923234 167.692753 115.550708 166.793395 114.887701 166.130387 
C 114.224693 165.467379 113.325335 165.094853 112.387701 165.094853 
C 111.450066 165.094853 110.550708 165.467379 109.887701 166.130387 
C 109.224693 166.793395 108.852167 167.692753 108.852167 168.630387 
C 108.852167 169.568022 109.224693 170.467379 109.887701 171.130387 
C 110.550708 171.793395 111.450066 172.165921 112.387701 172.165921 
z
" style="fill:none;stroke:#9467bd;"/>
   </g>
   <g id="PathCollection_12">
    <path clip-path="url(#p71758f4661)" d="M 117.360963 168.583223 
C 118.298597 168.583223 119.197955 168.210697 119.860963 167.547689 
C 120.52397 166.884681 120.896496 165.985323 120.896496 165.047689 
C 120.896496 164.110054 120.52397 163.210697 119.860963 162.547689 
C 119.197955 161.884681 118.298597 161.512155 117.360963 161.512155 
C 116.423328 161.512155 115.52397 161.884681 114.860963 162.547689 
C 114.197955 163.210697 113.825429 164.110054 113.825429 165.047689 
C 113.825429 165.985323 114.197955 166.884681 114.860963 167.547689 
C 115.52397 168.210697 116.423328 168.583223 117.360963 168.583223 
z
" style="fill:none;stroke:#9467bd;"/>
   </g>
   <g id="PathCollection_13">
    <path clip-path="url(#p71758f4661)" d="M 122.334225 164.74559 
C 123.271859 164.74559 124.171217 164.373064 124.834225 163.710056 
C 125.497232 163.047048 125.869759 162.147691 125.869759 161.210056 
C 125.869759 160.272422 125.497232 159.373064 124.834225 158.710056 
C 124.171217 158.047048 123.271859 157.674522 122.334225 157.674522 
C 121.39659 157.674522 120.497232 158.047048 119.834225 158.710056 
C 119.171217 159.373064 118.798691 160.272422 118.798691 161.210056 
C 118.798691 162.147691 119.171217 163.047048 119.834225 163.710056 
C 120.497232 164.373064 121.39659 164.74559 122.334225 164.74559 
z
" style="fill:none;stroke:#9467bd;"/>
   </g>
   <g id="PathCollection_14">
    <path clip-path="url(#p71758f4661)" d="M 127.307487 160.730051 
C 128.245121 160.730051 129.144479 160.357525 129.807487 159.694517 
C 130.470494 159.031509 130.843021 158.132152 130.843021 157.194517 
C 130.843021 156.256882 130.470494 155.357525 129.807487 154.694517 
C 129.144479 154.031509 128.245121 153.658983 127.307487 153.658983 
C 126.369852 153.658983 125.470494 154.031509 124.807487 154.694517 
C 124.144479 155.357525 123.771953 156.256882 123.771953 157.194517 
C 123.771953 158.132152 124.144479 159.031509 124.807487 159.694517 
C 125.470494 160.357525 126.369852 160.730051 127.307487 160.730051 
z
" style="fill:none;stroke:#9467bd;"/>
   </g>
   <g id="PathCollection_15">
    <path clip-path="url(#p71758f4661)" d="M 132.280749 156.610972 
C 133.218383 156.610972 134.117741 156.238446 134.780749 155.575438 
C 135.443756 154.91243 135.816283 154.013073 135.816283 153.075438 
C 135.816283 152.137804 135.443756 151.238446 134.780749 150.575438 
C 134.117741 149.91243 133.218383 149.539904 132.280749 149.539904 
C 131.343114 149.539904 130.443756 149.91243 129.780749 150.575438 
C 129.117741 151.238446 128.745215 152.137804 128.745215 153.075438 
C 128.745215 154.013073 129.117741 154.91243 129.780749 155.575438 
C 130.443756 156.238446 131.343114 156.610972 132.280749 156.610972 
z
" style="fill:none;stroke:#9467bd;"/>
   </g>
   <g id="PathCollection_16">
    <path clip-path="url(#p71758f4661)" d="M 137.254011 152.457281 
C 138.191645 152.457281 139.091003 152.084755 139.754011 151.421747 
C 140.417018 150.75874 140.789545 149.859382 140.789545 148.921747 
C 140.789545 147.984113 140.417018 147.084755 139.754011 146.421747 
C 139.091003 145.75874 138.191645 145.386213 137.254011 145.386213 
C 136.316376 145.386213 135.417018 145.75874 134.754011 146.421747 
C 134.091003 147.084755 133.718477 147.984113 133.718477 148.921747 
C 133.718477 149.859382 134.091003 150.75874 134.754011 151.421747 
C 135.417018 152.084755 136.316376 152.457281 137.254011 152.457281 
z
" style="fill:none;stroke:#9467bd;"/>
   </g>
   <g id="PathCollection_17">
    <path clip-path="url(#p71758f4661)" d="M 142.227273 148.330389 
C 143.164907 148.330389 144.064265 147.957862 144.727273 147.294855 
C 145.39028 146.631847 145.762807 145.732489 145.762807 144.794855 
C 145.762807 143.85722 145.39028 142.957862 144.727273 142.294855 
C 144.064265 141.631847 143.164907 141.259321 142.227273 141.259321 
C 141.289638 141.259321 140.39028 141.631847 139.727273 142.294855 
C 139.064265 142.957862 138.691739 143.85722 138.691739 144.794855 
C 138.691739 145.732489 139.064265 146.631847 139.727273 147.294855 
C 140.39028 147.957862 141.289638 148.330389 142.227273 148.330389 
z
" style="fill:none;stroke:#9467bd;"/>
   </g>
   <g id="PathCollection_18">
    <path clip-path="url(#p71758f4661)" d="M 147.200535 144.282746 
C 148.138169 144.282746 149.037527 143.91022 149.700535 143.247212 
C 150.363543 142.584204 150.736069 141.684847 150.736069 140.747212 
C 150.736069 139.809578 150.363543 138.91022 149.700535 138.247212 
C 149.037527 137.584204 148.138169 137.211678 147.200535 137.211678 
C 146.2629 137.211678 145.363543 137.584204 144.700535 138.247212 
C 144.037527 138.91022 143.665001 139.809578 143.665001 140.747212 
C 143.665001 141.684847 144.037527 142.584204 144.700535 143.247212 
C 145.363543 143.91022 146.2629 144.282746 147.200535 144.282746 
z
" style="fill:none;stroke:#9467bd;"/>
   </g>
   <g id="PathCollection_19">
    <path clip-path="url(#p71758f4661)" d="M 152.173797 140.356983 
C 153.111431 140.356983 154.010789 139.984457 154.673797 139.321449 
C 155.336805 138.658441 155.709331 137.759083 155.709331 136.821449 
C 155.709331 135.883814 155.336805 134.984457 154.673797 134.321449 
C 154.010789 133.658441 153.111431 133.285915 152.173797 133.285915 
C 151.236162 133.285915 150.336805 133.658441 149.673797 134.321449 
C 149.010789 134.984457 148.638263 135.883814 148.638263 136.821449 
C 148.638263 137.759083 149.010789 138.658441 149.673797 139.321449 
C 150.336805 139.984457 151.236162 140.356983 152.173797 140.356983 
z
" style="fill:none;stroke:#9467bd;"/>
   </g>
   <g id="PathCollection_20">
    <path clip-path="url(#p71758f4661)" d="M 157.147059 136.585563 
C 158.084693 136.585563 158.984051 136.213037 159.647059 135.550029 
C 160.310067 134.887021 160.682593 133.987664 160.682593 133.050029 
C 160.682593 132.112394 160.310067 131.213037 159.647059 130.550029 
C 158.984051 129.887021 158.084693 129.514495 157.147059 129.514495 
C 156.209424 129.514495 155.310067 129.887021 154.647059 130.550029 
C 153.984051 131.213037 153.611525 132.112394 153.611525 133.050029 
C 153.611525 133.987664 153.984051 134.887021 154.647059 135.550029 
C 155.310067 136.213037 156.209424 136.585563 157.147059 136.585563 
z
" style="fill:none;stroke:#9467bd;"/>
   </g>
   <g id="PathCollection_21">
    <path clip-path="url(#p71758f4661)" d="M 162.120321 132.990905 
C 163.057955 132.990905 163.957313 132.618379 164.620321 131.955371 
C 165.283329 131.292363 165.655855 130.393006 165.655855 129.455371 
C 165.655855 128.517737 165.283329 127.618379 164.620321 126.955371 
C 163.957313 126.292363 163.057955 125.919837 162.120321 125.919837 
C 161.182686 125.919837 160.283329 126.292363 159.620321 126.955371 
C 158.957313 127.618379 158.584787 128.517737 158.584787 129.455371 
C 158.584787 130.393006 158.957313 131.292363 159.620321 131.955371 
C 160.283329 132.618379 161.182686 132.990905 162.120321 132.990905 
z
" style="fill:none;stroke:#9467bd;"/>
   </g>
   <g id="PathCollection_22">
    <path clip-path="url(#p71758f4661)" d="M 167.093583 129.5859 
C 168.031217 129.5859 168.930575 129.213374 169.593583 128.550366 
C 170.256591 127.887358 170.629117 126.988001 170.629117 126.050366 
C 170.629117 125.112732 170.256591 124.213374 169.593583 123.550366 
C 168.930575 122.887358 168.031217 122.514832 167.093583 122.514832 
C 166.155948 122.514832 165.256591 122.887358 164.593583 123.550366 
C 163.930575 124.213374 163.558049 125.112732 163.558049 126.050366 
C 163.558049 126.988001 163.930575 127.887358 164.593583 128.550366 
C 165.256591 129.213374 166.155948 129.5859 167.093583 129.5859 
z
" style="fill:none;stroke:#9467bd;"/>
   </g>
   <g id="PathCollection_23">
    <path clip-path="url(#p71758f4661)" d="M 172.066845 126.374778 
C 173.004479 126.374778 173.903837 126.002252 174.566845 125.339244 
C 175.229853 124.676236 175.602379 123.776879 175.602379 122.839244 
C 175.602379 121.90161 175.229853 121.002252 174.566845 120.339244 
C 173.903837 119.676236 173.004479 119.30371 172.066845 119.30371 
C 171.12921 119.30371 170.229853 119.676236 169.566845 120.339244 
C 168.903837 121.002252 168.531311 121.90161 168.531311 122.839244 
C 168.531311 123.776879 168.903837 124.676236 169.566845 125.339244 
C 170.229853 126.002252 171.12921 126.374778 172.066845 126.374778 
z
" style="fill:none;stroke:#9467bd;"/>
   </g>
   <g id="PathCollection_24">
    <path clip-path="url(#p71758f4661)" d="M 177.040107 123.354255 
C 177.977742 123.354255 178.877099 122.981729 179.540107 122.318722 
C 180.203115 121.655714 180.575641 120.756356 180.575641 119.818722 
C 180.575641 118.881087 180.203115 117.981729 179.540107 117.318722 
C 178.877099 116.655714 177.977742 116.283188 177.040107 116.283188 
C 176.102472 116.283188 175.203115 116.655714 174.540107 117.318722 
C 173.877099 117.981729 173.504573 118.881087 173.504573 119.818722 
C 173.504573 120.756356 173.877099 121.655714 174.540107 122.318722 
C 175.203115 122.981729 176.102472 123.354255 177.040107 123.354255 
z
" style="fill:none;stroke:#9467bd;"/>
   </g>
   <g id="PathCollection_25">
    <path clip-path="url(#p71758f4661)" d="M 182.013369 120.514911 
C 182.951004 120.514911 183.850361 120.142385 184.513369 119.479377 
C 185.176377 118.816369 185.548903 117.917011 185.548903 116.979377 
C 185.548903 116.041742 185.176377 115.142385 184.513369 114.479377 
C 183.850361 113.816369 182.951004 113.443843 182.013369 113.443843 
C 181.075734 113.443843 180.176377 113.816369 179.513369 114.479377 
C 178.850361 115.142385 178.477835 116.041742 178.477835 116.979377 
C 178.477835 117.917011 178.850361 118.816369 179.513369 119.479377 
C 180.176377 120.142385 181.075734 120.514911 182.013369 120.514911 
z
" style="fill:none;stroke:#9467bd;"/>
   </g>
   <g id="PathCollection_26">
    <path clip-path="url(#p71758f4661)" d="M 186.986631 117.842726 
C 187.924266 117.842726 188.823623 117.4702 189.486631 116.807192 
C 190.149639 116.144184 190.522165 115.244827 190.522165 114.307192 
C 190.522165 113.369557 190.149639 112.4702 189.486631 111.807192 
C 188.823623 111.144184 187.924266 110.771658 186.986631 110.771658 
C 186.048996 110.771658 185.149639 111.144184 184.486631 111.807192 
C 183.823623 112.4702 183.451097 113.369557 183.451097 114.307192 
C 183.451097 115.244827 183.823623 116.144184 184.486631 116.807192 
C 185.149639 117.4702 186.048996 117.842726 186.986631 117.842726 
z
" style="fill:none;stroke:#9467bd;"/>
   </g>
   <g id="PathCollection_27">
    <path clip-path="url(#p71758f4661)" d="M 191.959893 115.320737 
C 192.897528 115.320737 193.796885 114.948211 194.459893 114.285203 
C 195.122901 113.622195 195.495427 112.722838 195.495427 111.785203 
C 195.495427 110.847569 195.122901 109.948211 194.459893 109.285203 
C 193.796885 108.622195 192.897528 108.249669 191.959893 108.249669 
C 191.022258 108.249669 190.122901 108.622195 189.459893 109.285203 
C 188.796885 109.948211 188.424359 110.847569 188.424359 111.785203 
C 188.424359 112.722838 188.796885 113.622195 189.459893 114.285203 
C 190.122901 114.948211 191.022258 115.320737 191.959893 115.320737 
z
" style="fill:none;stroke:#9467bd;"/>
   </g>
   <g id="PathCollection_28">
    <path clip-path="url(#p71758f4661)" d="M 196.933155 112.930735 
C 197.87079 112.930735 198.770147 112.558208 199.433155 111.895201 
C 200.096163 111.232193 200.468689 110.332835 200.468689 109.395201 
C 200.468689 108.457566 200.096163 107.558208 199.433155 106.895201 
C 198.770147 106.232193 197.87079 105.859667 196.933155 105.859667 
C 195.995521 105.859667 195.096163 106.232193 194.433155 106.895201 
C 193.770147 107.558208 193.397621 108.457566 193.397621 109.395201 
C 193.397621 110.332835 193.770147 111.232193 194.433155 111.895201 
C 195.096163 112.558208 195.995521 112.930735 196.933155 112.930735 
z
" style="fill:none;stroke:#9467bd;"/>
   </g>
   <g id="PathCollection_29">
    <path clip-path="url(#p71758f4661)" d="M 201.906417 110.654954 
C 202.844052 110.654954 203.743409 110.282428 204.406417 109.61942 
C 205.069425 108.956412 205.441951 108.057054 205.441951 107.11942 
C 205.441951 106.181785 205.069425 105.282428 204.406417 104.61942 
C 203.743409 103.956412 202.844052 103.583886 201.906417 103.583886 
C 200.968783 103.583886 200.069425 103.956412 199.406417 104.61942 
C 198.743409 105.282428 198.370883 106.181785 198.370883 107.11942 
C 198.370883 108.057054 198.743409 108.956412 199.406417 109.61942 
C 200.069425 110.282428 200.968783 110.654954 201.906417 110.654954 
z
" style="fill:none;stroke:#9467bd;"/>
   </g>
   <g id="PathCollection_30">
    <path clip-path="url(#p71758f4661)" d="M 206.879679 108.477697 
C 207.817314 108.477697 208.716671 108.105171 209.379679 107.442163 
C 210.042687 106.779156 210.415213 105.879798 210.415213 104.942163 
C 210.415213 104.004529 210.042687 103.105171 209.379679 102.442163 
C 208.716671 101.779156 207.817314 101.406629 206.879679 101.406629 
C 205.942045 101.406629 205.042687 101.779156 204.379679 102.442163 
C 203.716671 103.105171 203.344145 104.004529 203.344145 104.942163 
C 203.344145 105.879798 203.716671 106.779156 204.379679 107.442163 
C 205.042687 108.105171 205.942045 108.477697 206.879679 108.477697 
z
" style="fill:none;stroke:#9467bd;"/>
   </g>
   <g id="PathCollection_31">
    <path clip-path="url(#p71758f4661)" d="M 211.852941 106.386831 
C 212.790576 106.386831 213.689933 106.014304 214.352941 105.351297 
C 215.015949 104.688289 215.388475 103.788931 215.388475 102.851297 
C 215.388475 101.913662 215.015949 101.014304 214.352941 100.351297 
C 213.689933 99.688289 212.790576 99.315763 211.852941 99.315763 
C 210.915307 99.315763 210.015949 99.688289 209.352941 100.351297 
C 208.689933 101.014304 208.317407 101.913662 208.317407 102.851297 
C 208.317407 103.788931 208.689933 104.688289 209.352941 105.351297 
C 210.015949 106.014304 210.915307 106.386831 211.852941 106.386831 
z
" style="fill:none;stroke:#9467bd;"/>
   </g>
   <g id="PathCollection_32">
    <path clip-path="url(#p71758f4661)" d="M 216.826203 104.375093 
C 217.763838 104.375093 218.663195 104.002567 219.326203 103.339559 
C 219.989211 102.676552 220.361737 101.777194 220.361737 100.839559 
C 220.361737 99.901925 219.989211 99.002567 219.326203 98.339559 
C 218.663195 97.676552 217.763838 97.304025 216.826203 97.304025 
C 215.888569 97.304025 214.989211 97.676552 214.326203 98.339559 
C 213.663195 99.002567 213.290669 99.901925 213.290669 100.839559 
C 213.290669 101.777194 213.663195 102.676552 214.326203 103.339559 
C 214.989211 104.002567 215.888569 104.375093 216.826203 104.375093 
z
" style="fill:none;stroke:#9467bd;"/>
   </g>
   <g id="PathCollection_33">
    <path clip-path="url(#p71758f4661)" d="M 221.799465 102.441164 
C 222.7371 102.441164 223.636457 102.068638 224.299465 101.40563 
C 224.962473 100.742623 225.334999 99.843265 225.334999 98.90563 
C 225.334999 97.967996 224.962473 97.068638 224.299465 96.40563 
C 223.636457 95.742623 222.7371 95.370096 221.799465 95.370096 
C 220.861831 95.370096 219.962473 95.742623 219.299465 96.40563 
C 218.636457 97.068638 218.263931 97.967996 218.263931 98.90563 
C 218.263931 99.843265 218.636457 100.742623 219.299465 101.40563 
C 219.962473 102.068638 220.861831 102.441164 221.799465 102.441164 
z
" style="fill:none;stroke:#9467bd;"/>
   </g>
   <g id="PathCollection_34">
    <path clip-path="url(#p71758f4661)" d="M 226.772727 100.590423 
C 227.710362 100.590423 228.60972 100.217897 229.272727 99.554889 
C 229.935735 98.891881 230.308261 97.992524 230.308261 97.054889 
C 230.308261 96.117255 229.935735 95.217897 229.272727 94.554889 
C 228.60972 93.891881 227.710362 93.519355 226.772727 93.519355 
C 225.835093 93.519355 224.935735 93.891881 224.272727 94.554889 
C 223.60972 95.217897 223.237193 96.117255 223.237193 97.054889 
C 223.237193 97.992524 223.60972 98.891881 224.272727 99.554889 
C 224.935735 100.217897 225.835093 100.590423 226.772727 100.590423 
z
" style="fill:none;stroke:#9467bd;"/>
   </g>
   <g id="PathCollection_35">
    <path clip-path="url(#p71758f4661)" d="M 231.745989 98.835353 
C 232.683624 98.835353 233.582982 98.462827 234.245989 97.799819 
C 234.908997 97.136811 235.281523 96.237454 235.281523 95.299819 
C 235.281523 94.362184 234.908997 93.462827 234.245989 92.799819 
C 233.582982 92.136811 232.683624 91.764285 231.745989 91.764285 
C 230.808355 91.764285 229.908997 92.136811 229.245989 92.799819 
C 228.582982 93.462827 228.210455 94.362184 228.210455 95.299819 
C 228.210455 96.237454 228.582982 97.136811 229.245989 97.799819 
C 229.908997 98.462827 230.808355 98.835353 231.745989 98.835353 
z
" style="fill:none;stroke:#9467bd;"/>
   </g>
   <g id="PathCollection_36">
    <path clip-path="url(#p71758f4661)" d="M 236.719251 97.195517 
C 237.656886 97.195517 238.556244 96.822991 239.219251 96.159983 
C 239.882259 95.496976 240.254785 94.597618 240.254785 93.659983 
C 240.254785 92.722349 239.882259 91.822991 239.219251 91.159983 
C 238.556244 90.496976 237.656886 90.12445 236.719251 90.12445 
C 235.781617 90.12445 234.882259 90.496976 234.219251 91.159983 
C 233.556244 91.822991 233.183717 92.722349 233.183717 93.659983 
C 233.183717 94.597618 233.556244 95.496976 234.219251 96.159983 
C 234.882259 96.822991 235.781617 97.195517 236.719251 97.195517 
z
" style="fill:none;stroke:#9467bd;"/>
   </g>
   <g id="PathCollection_37">
    <path clip-path="url(#p71758f4661)" d="M 241.692513 95.697063 
C 242.630148 95.697063 243.529506 95.324537 244.192513 94.661529 
C 244.855521 93.998521 245.228047 93.099163 245.228047 92.161529 
C 245.228047 91.223894 244.855521 90.324537 244.192513 89.661529 
C 243.529506 88.998521 242.630148 88.625995 241.692513 88.625995 
C 240.754879 88.625995 239.855521 88.998521 239.192513 89.661529 
C 238.529506 90.324537 238.156979 91.223894 238.156979 92.161529 
C 238.156979 93.099163 238.529506 93.998521 239.192513 94.661529 
C 239.855521 95.324537 240.754879 95.697063 241.692513 95.697063 
z
" style="fill:none;stroke:#9467bd;"/>
   </g>
   <g id="PathCollection_38">
    <path clip-path="url(#p71758f4661)" d="M 246.665775 94.371678 
C 247.60341 94.371678 248.502768 93.999152 249.165775 93.336145 
C 249.828783 92.673137 250.201309 91.773779 250.201309 90.836145 
C 250.201309 89.89851 249.828783 88.999152 249.165775 88.336145 
C 248.502768 87.673137 247.60341 87.300611 246.665775 87.300611 
C 245.728141 87.300611 244.828783 87.673137 244.165775 88.336145 
C 243.502768 88.999152 243.130241 89.89851 243.130241 90.836145 
C 243.130241 91.773779 243.502768 92.673137 244.165775 93.336145 
C 244.828783 93.999152 245.728141 94.371678 246.665775 94.371678 
z
" style="fill:none;stroke:#9467bd;"/>
   </g>
   <g id="PathCollection_39">
    <path clip-path="url(#p71758f4661)" d="M 251.639037 93.254961 
C 252.576672 93.254961 253.47603 92.882435 254.139037 92.219427 
C 254.802045 91.556419 255.174571 90.657062 255.174571 89.719427 
C 255.174571 88.781793 254.802045 87.882435 254.139037 87.219427 
C 253.47603 86.556419 252.576672 86.183893 251.639037 86.183893 
C 250.701403 86.183893 249.802045 86.556419 249.139037 87.219427 
C 248.47603 87.882435 248.103504 88.781793 248.103504 89.719427 
C 248.103504 90.657062 248.47603 91.556419 249.139037 92.219427 
C 249.802045 92.882435 250.701403 93.254961 251.639037 93.254961 
z
" style="fill:none;stroke:#9467bd;"/>
   </g>
   <g id="PathCollection_40">
    <path clip-path="url(#p71758f4661)" d="M 256.612299 92.384124 
C 257.549934 92.384124 258.449292 92.011598 259.112299 91.34859 
C 259.775307 90.685582 260.147833 89.786224 260.147833 88.84859 
C 260.147833 87.910955 259.775307 87.011598 259.112299 86.34859 
C 258.449292 85.685582 257.549934 85.313056 256.612299 85.313056 
C 255.674665 85.313056 254.775307 85.685582 254.112299 86.34859 
C 253.449292 87.011598 253.076766 87.910955 253.076766 88.84859 
C 253.076766 89.786224 253.449292 90.685582 254.112299 91.34859 
C 254.775307 92.011598 255.674665 92.384124 256.612299 92.384124 
z
" style="fill:none;stroke:#9467bd;"/>
   </g>
   <g id="PathCollection_41">
    <path clip-path="url(#p71758f4661)" d="M 261.585561 91.794988 
C 262.523196 91.794988 263.422554 91.422462 264.085561 90.759454 
C 264.748569 90.096447 265.121095 89.197089 265.121095 88.259454 
C 265.121095 87.32182 264.748569 86.422462 264.085561 85.759454 
C 263.422554 85.096447 262.523196 84.723921 261.585561 84.723921 
C 260.647927 84.723921 259.748569 85.096447 259.085561 85.759454 
C 258.422554 86.422462 258.050028 87.32182 258.050028 88.259454 
C 258.050028 89.197089 258.422554 90.096447 259.085561 90.759454 
C 259.748569 91.422462 260.647927 91.794988 261.585561 91.794988 
z
" style="fill:none;stroke:#9467bd;"/>
   </g>
   <g id="PathCollection_42">
    <path clip-path="url(#p71758f4661)" d="M 266.558824 91.518206 
C 267.496458 91.518206 268.395816 91.145679 269.058824 90.482672 
C 269.721831 89.819664 270.094357 88.920306 270.094357 87.982672 
C 270.094357 87.045037 269.721831 86.145679 269.058824 85.482672 
C 268.395816 84.819664 267.496458 84.447138 266.558824 84.447138 
C 265.621189 84.447138 264.721831 84.819664 264.058824 85.482672 
C 263.395816 86.145679 263.02329 87.045037 263.02329 87.982672 
C 263.02329 88.920306 263.395816 89.819664 264.058824 90.482672 
C 264.721831 91.145679 265.621189 91.518206 266.558824 91.518206 
z
" style="fill:none;stroke:#9467bd;"/>
   </g>
   <g id="PathCollection_43">
    <path clip-path="url(#p71758f4661)" d="M 271.532086 91.574644 
C 272.46972 91.574644 273.369078 91.202118 274.032086 90.53911 
C 274.695093 89.876102 275.067619 88.976744 275.067619 88.03911 
C 275.067619 87.101475 274.695093 86.202118 274.032086 85.53911 
C 273.369078 84.876102 272.46972 84.503576 271.532086 84.503576 
C 270.594451 84.503576 269.695093 84.876102 269.032086 85.53911 
C 268.369078 86.202118 267.996552 87.101475 267.996552 88.03911 
C 267.996552 88.976744 268.369078 89.876102 269.032086 90.53911 
C 269.695093 91.202118 270.594451 91.574644 271.532086 91.574644 
z
" style="fill:none;stroke:#9467bd;"/>
   </g>
   <g id="PathCollection_44">
    <path clip-path="url(#p71758f4661)" d="M 276.505348 91.969882 
C 277.442982 91.969882 278.34234 91.597356 279.005348 90.934348 
C 279.668355 90.271341 280.040881 89.371983 280.040881 88.434348 
C 280.040881 87.496714 279.668355 86.597356 279.005348 85.934348 
C 278.34234 85.271341 277.442982 84.898814 276.505348 84.898814 
C 275.567713 84.898814 274.668355 85.271341 274.005348 85.934348 
C 273.34234 86.597356 272.969814 87.496714 272.969814 88.434348 
C 272.969814 89.371983 273.34234 90.271341 274.005348 90.934348 
C 274.668355 91.597356 275.567713 91.969882 276.505348 91.969882 
z
" style="fill:none;stroke:#9467bd;"/>
   </g>
   <g id="PathCollection_45">
    <path clip-path="url(#p71758f4661)" d="M 281.47861 92.68776 
C 282.416244 92.68776 283.315602 92.315233 283.97861 91.652226 
C 284.641617 90.989218 285.014144 90.08986 285.014144 89.152226 
C 285.014144 88.214591 284.641617 87.315233 283.97861 86.652226 
C 283.315602 85.989218 282.416244 85.616692 281.47861 85.616692 
C 280.540975 85.616692 279.641617 85.989218 278.97861 86.652226 
C 278.315602 87.315233 277.943076 88.214591 277.943076 89.152226 
C 277.943076 90.08986 278.315602 90.989218 278.97861 91.652226 
C 279.641617 92.315233 280.540975 92.68776 281.47861 92.68776 
z
" style="fill:none;stroke:#9467bd;"/>
   </g>
   <g id="PathCollection_46">
    <path clip-path="url(#p71758f4661)" d="M 286.451872 93.68291 
C 287.389506 93.68291 288.288864 93.310384 288.951872 92.647377 
C 289.614879 91.984369 289.987406 91.085011 289.987406 90.147377 
C 289.987406 89.209742 289.614879 88.310384 288.951872 87.647377 
C 288.288864 86.984369 287.389506 86.611843 286.451872 86.611843 
C 285.514237 86.611843 284.614879 86.984369 283.951872 87.647377 
C 283.288864 88.310384 282.916338 89.209742 282.916338 90.147377 
C 282.916338 91.085011 283.288864 91.984369 283.951872 92.647377 
C 284.614879 93.310384 285.514237 93.68291 286.451872 93.68291 
z
" style="fill:none;stroke:#9467bd;"/>
   </g>
   <g id="PathCollection_47">
    <path clip-path="url(#p71758f4661)" d="M 291.425134 94.872234 
C 292.362768 94.872234 293.262126 94.499708 293.925134 93.8367 
C 294.588141 93.173692 294.960668 92.274335 294.960668 91.3367 
C 294.960668 90.399066 294.588141 89.499708 293.925134 88.8367 
C 293.262126 88.173692 292.362768 87.801166 291.425134 87.801166 
C 290.487499 87.801166 289.588141 88.173692 288.925134 88.8367 
C 288.262126 89.499708 287.8896 90.399066 287.8896 91.3367 
C 287.8896 92.274335 288.262126 93.173692 288.925134 93.8367 
C 289.588141 94.499708 290.487499 94.872234 291.425134 94.872234 
z
" style="fill:none;stroke:#9467bd;"/>
   </g>
   <g id="PathCollection_48">
    <path clip-path="url(#p71758f4661)" d="M 296.398396 96.125238 
C 297.33603 96.125238 298.235388 95.752712 298.898396 95.089704 
C 299.561403 94.426697 299.93393 93.527339 299.93393 92.589704 
C 299.93393 91.65207 299.561403 90.752712 298.898396 90.089704 
C 298.235388 89.426697 297.33603 89.054171 296.398396 89.054171 
C 295.460761 89.054171 294.561403 89.426697 293.898396 90.089704 
C 293.235388 90.752712 292.862862 91.65207 292.862862 92.589704 
C 292.862862 93.527339 293.235388 94.426697 293.898396 95.089704 
C 294.561403 95.752712 295.460761 96.125238 296.398396 96.125238 
z
" style="fill:none;stroke:#9467bd;"/>
   </g>
   <g id="PathCollection_49">
    <path clip-path="url(#p71758f4661)" d="M 301.371658 97.253198 
C 302.309292 97.253198 303.20865 96.880672 303.871658 96.217664 
C 304.534666 95.554656 304.907192 94.655299 304.907192 93.717664 
C 304.907192 92.78003 304.534666 91.880672 303.871658 91.217664 
C 303.20865 90.554656 302.309292 90.18213 301.371658 90.18213 
C 300.434023 90.18213 299.534666 90.554656 298.871658 91.217664 
C 298.20865 91.880672 297.836124 92.78003 297.836124 93.717664 
C 297.836124 94.655299 298.20865 95.554656 298.871658 96.217664 
C 299.534666 96.880672 300.434023 97.253198 301.371658 97.253198 
z
" style="fill:none;stroke:#9467bd;"/>
   </g>
   <g id="PathCollection_50">
    <path clip-path="url(#p71758f4661)" d="M 306.34492 97.997067 
C 307.282554 97.997067 308.181912 97.624541 308.84492 96.961533 
C 309.507928 96.298526 309.880454 95.399168 309.880454 94.461533 
C 309.880454 93.523899 309.507928 92.624541 308.84492 91.961533 
C 308.181912 91.298526 307.282554 90.925999 306.34492 90.925999 
C 305.407285 90.925999 304.507928 91.298526 303.84492 91.961533 
C 303.181912 92.624541 302.809386 93.523899 302.809386 94.461533 
C 302.809386 95.399168 303.181912 96.298526 303.84492 96.961533 
C 304.507928 97.624541 305.407285 97.997067 306.34492 97.997067 
z
" style="fill:none;stroke:#9467bd;"/>
   </g>
   <g id="PathCollection_51">
    <path clip-path="url(#p71758f4661)" d="M 311.318182 98.014091 
C 312.255816 98.014091 313.155174 97.641565 313.818182 96.978557 
C 314.48119 96.31555 314.853716 95.416192 314.853716 94.478557 
C 314.853716 93.540923 314.48119 92.641565 313.818182 91.978557 
C 313.155174 91.31555 312.255816 90.943024 311.318182 90.943024 
C 310.380547 90.943024 309.48119 91.31555 308.818182 91.978557 
C 308.155174 92.641565 307.782648 93.540923 307.782648 94.478557 
C 307.782648 95.416192 308.155174 96.31555 308.818182 96.978557 
C 309.48119 97.641565 310.380547 98.014091 311.318182 98.014091 
z
" style="fill:none;stroke:#9467bd;"/>
   </g>
   <g id="PathCollection_52">
    <defs>
     <path d="M 0 3.535534 
C 0.937635 3.535534 1.836992 3.163008 2.5 2.5 
C 3.163008 1.836992 3.535534 0.937635 3.535534 0 
C 3.535534 -0.937635 3.163008 -1.836992 2.5 -2.5 
C 1.836992 -3.163008 0.937635 -3.535534 0 -3.535534 
C -0.937635 -3.535534 -1.836992 -3.163008 -2.5 -2.5 
C -3.163008 -1.836992 -3.535534 -0.937635 -3.535534 0 
C -3.535534 0.937635 -3.163008 1.836992 -2.5 2.5 
C -1.836992 3.163008 -0.937635 3.535534 0 3.535534 
z
" id="mcfbd928b53" style="stroke:#9467bd;"/>
    </defs>
    <g clip-path="url(#p71758f4661)">
     <use style="fill:#9467bd;stroke:#9467bd;" x="62.65508" xlink:href="#mcfbd928b53" y="179.785605"/>
    </g>
   </g>
   <g id="PathCollection_53">
    <g clip-path="url(#p71758f4661)">
     <use style="fill:#9467bd;stroke:#9467bd;" x="67.628342" xlink:href="#mcfbd928b53" y="180.050935"/>
    </g>
   </g>
   <g id="PathCollection_54">
    <g clip-path="url(#p71758f4661)">
     <use style="fill:#9467bd;stroke:#9467bd;" x="72.601604" xlink:href="#mcfbd928b53" y="179.508364"/>
    </g>
   </g>
   <g id="PathCollection_55">
    <g clip-path="url(#p71758f4661)">
     <use style="fill:#9467bd;stroke:#9467bd;" x="77.574866" xlink:href="#mcfbd928b53" y="178.266888"/>
    </g>
   </g>
   <g id="PathCollection_56">
    <g clip-path="url(#p71758f4661)">
     <use style="fill:#9467bd;stroke:#9467bd;" x="82.548128" xlink:href="#mcfbd928b53" y="176.409187"/>
    </g>
   </g>
   <g id="PathCollection_57">
    <g clip-path="url(#p71758f4661)">
     <use style="fill:#9467bd;stroke:#9467bd;" x="87.52139" xlink:href="#mcfbd928b53" y="174.018897"/>
    </g>
   </g>
   <g id="PathCollection_58">
    <g clip-path="url(#p71758f4661)">
     <use style="fill:#9467bd;stroke:#9467bd;" x="92.494652" xlink:href="#mcfbd928b53" y="171.139977"/>
    </g>
   </g>
   <g id="PathCollection_59">
    <g clip-path="url(#p71758f4661)">
     <use style="fill:#9467bd;stroke:#9467bd;" x="97.467914" xlink:href="#mcfbd928b53" y="167.825194"/>
    </g>
   </g>
   <g id="PathCollection_60">
    <g clip-path="url(#p71758f4661)">
     <use style="fill:#9467bd;stroke:#9467bd;" x="102.441176" xlink:href="#mcfbd928b53" y="164.116758"/>
    </g>
   </g>
   <g id="PathCollection_61">
    <g clip-path="url(#p71758f4661)">
     <use style="fill:#9467bd;stroke:#9467bd;" x="107.414439" xlink:href="#mcfbd928b53" y="160.053359"/>
    </g>
   </g>
   <g id="PathCollection_62">
    <g clip-path="url(#p71758f4661)">
     <use style="fill:#9467bd;stroke:#9467bd;" x="112.387701" xlink:href="#mcfbd928b53" y="155.672219"/>
    </g>
   </g>
   <g id="PathCollection_63">
    <g clip-path="url(#p71758f4661)">
     <use style="fill:#9467bd;stroke:#9467bd;" x="117.360963" xlink:href="#mcfbd928b53" y="151.010693"/>
    </g>
   </g>
   <g id="PathCollection_64">
    <g clip-path="url(#p71758f4661)">
     <use style="fill:#9467bd;stroke:#9467bd;" x="122.334225" xlink:href="#mcfbd928b53" y="146.107452"/>
    </g>
   </g>
   <g id="PathCollection_65">
    <g clip-path="url(#p71758f4661)">
     <use style="fill:#9467bd;stroke:#9467bd;" x="127.307487" xlink:href="#mcfbd928b53" y="141.003275"/>
    </g>
   </g>
   <g id="PathCollection_66">
    <g clip-path="url(#p71758f4661)">
     <use style="fill:#9467bd;stroke:#9467bd;" x="132.280749" xlink:href="#mcfbd928b53" y="135.741499"/>
    </g>
   </g>
   <g id="PathCollection_67">
    <g clip-path="url(#p71758f4661)">
     <use style="fill:#9467bd;stroke:#9467bd;" x="137.254011" xlink:href="#mcfbd928b53" y="130.368145"/>
    </g>
   </g>
   <g id="PathCollection_68">
    <g clip-path="url(#p71758f4661)">
     <use style="fill:#9467bd;stroke:#9467bd;" x="142.227273" xlink:href="#mcfbd928b53" y="124.931768"/>
    </g>
   </g>
   <g id="PathCollection_69">
    <g clip-path="url(#p71758f4661)">
     <use style="fill:#9467bd;stroke:#9467bd;" x="147.200535" xlink:href="#mcfbd928b53" y="119.48306"/>
    </g>
   </g>
   <g id="PathCollection_70">
    <g clip-path="url(#p71758f4661)">
     <use style="fill:#9467bd;stroke:#9467bd;" x="152.173797" xlink:href="#mcfbd928b53" y="114.074236"/>
    </g>
   </g>
   <g id="PathCollection_71">
    <g clip-path="url(#p71758f4661)">
     <use style="fill:#9467bd;stroke:#9467bd;" x="157.147059" xlink:href="#mcfbd928b53" y="108.758255"/>
    </g>
   </g>
   <g id="PathCollection_72">
    <g clip-path="url(#p71758f4661)">
     <use style="fill:#9467bd;stroke:#9467bd;" x="162.120321" xlink:href="#mcfbd928b53" y="103.587884"/>
    </g>
   </g>
   <g id="PathCollection_73">
    <g clip-path="url(#p71758f4661)">
     <use style="fill:#9467bd;stroke:#9467bd;" x="167.093583" xlink:href="#mcfbd928b53" y="98.614664"/>
    </g>
   </g>
   <g id="PathCollection_74">
    <g clip-path="url(#p71758f4661)">
     <use style="fill:#9467bd;stroke:#9467bd;" x="172.066845" xlink:href="#mcfbd928b53" y="93.887804"/>
    </g>
   </g>
   <g id="PathCollection_75">
    <g clip-path="url(#p71758f4661)">
     <use style="fill:#9467bd;stroke:#9467bd;" x="177.040107" xlink:href="#mcfbd928b53" y="89.453027"/>
    </g>
   </g>
   <g id="PathCollection_76">
    <g clip-path="url(#p71758f4661)">
     <use style="fill:#9467bd;stroke:#9467bd;" x="182.013369" xlink:href="#mcfbd928b53" y="85.351426"/>
    </g>
   </g>
   <g id="PathCollection_77">
    <g clip-path="url(#p71758f4661)">
     <use style="fill:#9467bd;stroke:#9467bd;" x="186.986631" xlink:href="#mcfbd928b53" y="81.618339"/>
    </g>
   </g>
   <g id="PathCollection_78">
    <g clip-path="url(#p71758f4661)">
     <use style="fill:#9467bd;stroke:#9467bd;" x="191.959893" xlink:href="#mcfbd928b53" y="78.282297"/>
    </g>
   </g>
   <g id="PathCollection_79">
    <g clip-path="url(#p71758f4661)">
     <use style="fill:#9467bd;stroke:#9467bd;" x="196.933155" xlink:href="#mcfbd928b53" y="75.364072"/>
    </g>
   </g>
   <g id="PathCollection_80">
    <g clip-path="url(#p71758f4661)">
     <use style="fill:#9467bd;stroke:#9467bd;" x="201.906417" xlink:href="#mcfbd928b53" y="72.875858"/>
    </g>
   </g>
   <g id="PathCollection_81">
    <g clip-path="url(#p71758f4661)">
     <use style="fill:#9467bd;stroke:#9467bd;" x="206.879679" xlink:href="#mcfbd928b53" y="70.820624"/>
    </g>
   </g>
   <g id="PathCollection_82">
    <g clip-path="url(#p71758f4661)">
     <use style="fill:#9467bd;stroke:#9467bd;" x="211.852941" xlink:href="#mcfbd928b53" y="69.19167"/>
    </g>
   </g>
   <g id="PathCollection_83">
    <g clip-path="url(#p71758f4661)">
     <use style="fill:#9467bd;stroke:#9467bd;" x="216.826203" xlink:href="#mcfbd928b53" y="67.972423"/>
    </g>
   </g>
   <g id="PathCollection_84">
    <g clip-path="url(#p71758f4661)">
     <use style="fill:#9467bd;stroke:#9467bd;" x="221.799465" xlink:href="#mcfbd928b53" y="67.13651"/>
    </g>
   </g>
   <g id="PathCollection_85">
    <g clip-path="url(#p71758f4661)">
     <use style="fill:#9467bd;stroke:#9467bd;" x="226.772727" xlink:href="#mcfbd928b53" y="66.648134"/>
    </g>
   </g>
   <g id="PathCollection_86">
    <g clip-path="url(#p71758f4661)">
     <use style="fill:#9467bd;stroke:#9467bd;" x="231.745989" xlink:href="#mcfbd928b53" y="66.462799"/>
    </g>
   </g>
   <g id="PathCollection_87">
    <g clip-path="url(#p71758f4661)">
     <use style="fill:#9467bd;stroke:#9467bd;" x="236.719251" xlink:href="#mcfbd928b53" y="66.528413"/>
    </g>
   </g>
   <g id="PathCollection_88">
    <g clip-path="url(#p71758f4661)">
     <use style="fill:#9467bd;stroke:#9467bd;" x="241.692513" xlink:href="#mcfbd928b53" y="66.786798"/>
    </g>
   </g>
   <g id="PathCollection_89">
    <g clip-path="url(#p71758f4661)">
     <use style="fill:#9467bd;stroke:#9467bd;" x="246.665775" xlink:href="#mcfbd928b53" y="67.175653"/>
    </g>
   </g>
   <g id="PathCollection_90">
    <g clip-path="url(#p71758f4661)">
     <use style="fill:#9467bd;stroke:#9467bd;" x="251.639037" xlink:href="#mcfbd928b53" y="67.631001"/>
    </g>
   </g>
   <g id="PathCollection_91">
    <g clip-path="url(#p71758f4661)">
     <use style="fill:#9467bd;stroke:#9467bd;" x="256.612299" xlink:href="#mcfbd928b53" y="68.090148"/>
    </g>
   </g>
   <g id="PathCollection_92">
    <g clip-path="url(#p71758f4661)">
     <use style="fill:#9467bd;stroke:#9467bd;" x="261.585561" xlink:href="#mcfbd928b53" y="68.495192"/>
    </g>
   </g>
   <g id="PathCollection_93">
    <g clip-path="url(#p71758f4661)">
     <use style="fill:#9467bd;stroke:#9467bd;" x="266.558824" xlink:href="#mcfbd928b53" y="68.797131"/>
    </g>
   </g>
   <g id="PathCollection_94">
    <g clip-path="url(#p71758f4661)">
     <use style="fill:#9467bd;stroke:#9467bd;" x="271.532086" xlink:href="#mcfbd928b53" y="68.960577"/>
    </g>
   </g>
   <g id="PathCollection_95">
    <g clip-path="url(#p71758f4661)">
     <use style="fill:#9467bd;stroke:#9467bd;" x="276.505348" xlink:href="#mcfbd928b53" y="68.969133"/>
    </g>
   </g>
   <g id="PathCollection_96">
    <g clip-path="url(#p71758f4661)">
     <use style="fill:#9467bd;stroke:#9467bd;" x="281.47861" xlink:href="#mcfbd928b53" y="68.831463"/>
    </g>
   </g>
   <g id="PathCollection_97">
    <g clip-path="url(#p71758f4661)">
     <use style="fill:#9467bd;stroke:#9467bd;" x="286.451872" xlink:href="#mcfbd928b53" y="68.588082"/>
    </g>
   </g>
   <g id="PathCollection_98">
    <g clip-path="url(#p71758f4661)">
     <use style="fill:#9467bd;stroke:#9467bd;" x="291.425134" xlink:href="#mcfbd928b53" y="68.318906"/>
    </g>
   </g>
   <g id="PathCollection_99">
    <g clip-path="url(#p71758f4661)">
     <use style="fill:#9467bd;stroke:#9467bd;" x="296.398396" xlink:href="#mcfbd928b53" y="68.151605"/>
    </g>
   </g>
   <g id="PathCollection_100">
    <g clip-path="url(#p71758f4661)">
     <use style="fill:#9467bd;stroke:#9467bd;" x="301.371658" xlink:href="#mcfbd928b53" y="68.270772"/>
    </g>
   </g>
   <g id="PathCollection_101">
    <g clip-path="url(#p71758f4661)">
     <use style="fill:#9467bd;stroke:#9467bd;" x="306.34492" xlink:href="#mcfbd928b53" y="68.92797"/>
    </g>
   </g>
   <g id="PathCollection_102">
    <g clip-path="url(#p71758f4661)">
     <use style="fill:#9467bd;stroke:#9467bd;" x="311.318182" xlink:href="#mcfbd928b53" y="70.452663"/>
    </g>
   </g>
   <g id="matplotlib.axis_1"/>
   <g id="matplotlib.axis_2">
    <g id="ytick_1">
     <g id="line2d_1">
      <defs>
       <path d="M 0 0 
L -3.5 0 
" id="m554ffa48f7" style="stroke:#000000;stroke-width:0.8;"/>
      </defs>
      <g>
       <use style="stroke:#000000;stroke-width:0.8;" x="45" xlink:href="#m554ffa48f7" y="181.21499"/>
      </g>
     </g>
     <g id="text_1">
      <!-- 0.0 -->
      <g transform="translate(22.096875 185.014209)scale(0.1 -0.1)">
       <defs>
        <path d="M 31.78125 66.40625 
Q 24.171875 66.40625 20.328125 58.90625 
Q 16.5 51.421875 16.5 36.375 
Q 16.5 21.390625 20.328125 13.890625 
Q 24.171875 6.390625 31.78125 6.390625 
Q 39.453125 6.390625 43.28125 13.890625 
Q 47.125 21.390625 47.125 36.375 
Q 47.125 51.421875 43.28125 58.90625 
Q 39.453125 66.40625 31.78125 66.40625 
z
M 31.78125 74.21875 
Q 44.046875 74.21875 50.515625 64.515625 
Q 56.984375 54.828125 56.984375 36.375 
Q 56.984375 17.96875 50.515625 8.265625 
Q 44.046875 -1.421875 31.78125 -1.421875 
Q 19.53125 -1.421875 13.0625 8.265625 
Q 6.59375 17.96875 6.59375 36.375 
Q 6.59375 54.828125 13.0625 64.515625 
Q 19.53125 74.21875 31.78125 74.21875 
z
" id="DejaVuSans-48"/>
        <path d="M 10.6875 12.40625 
L 21 12.40625 
L 21 0 
L 10.6875 0 
z
" id="DejaVuSans-46"/>
       </defs>
       <use xlink:href="#DejaVuSans-48"/>
       <use x="63.623047" xlink:href="#DejaVuSans-46"/>
       <use x="95.410156" xlink:href="#DejaVuSans-48"/>
      </g>
     </g>
    </g>
    <g id="ytick_2">
     <g id="line2d_2">
      <g>
       <use style="stroke:#000000;stroke-width:0.8;" x="45" xlink:href="#m554ffa48f7" y="150.604778"/>
      </g>
     </g>
     <g id="text_2">
      <!-- 0.1 -->
      <g transform="translate(22.096875 154.403997)scale(0.1 -0.1)">
       <defs>
        <path d="M 12.40625 8.296875 
L 28.515625 8.296875 
L 28.515625 63.921875 
L 10.984375 60.40625 
L 10.984375 69.390625 
L 28.421875 72.90625 
L 38.28125 72.90625 
L 38.28125 8.296875 
L 54.390625 8.296875 
L 54.390625 0 
L 12.40625 0 
z
" id="DejaVuSans-49"/>
       </defs>
       <use xlink:href="#DejaVuSans-48"/>
       <use x="63.623047" xlink:href="#DejaVuSans-46"/>
       <use x="95.410156" xlink:href="#DejaVuSans-49"/>
      </g>
     </g>
    </g>
    <g id="ytick_3">
     <g id="line2d_3">
      <g>
       <use style="stroke:#000000;stroke-width:0.8;" x="45" xlink:href="#m554ffa48f7" y="119.994567"/>
      </g>
     </g>
     <g id="text_3">
      <!-- 0.2 -->
      <g transform="translate(22.096875 123.793785)scale(0.1 -0.1)">
       <defs>
        <path d="M 19.1875 8.296875 
L 53.609375 8.296875 
L 53.609375 0 
L 7.328125 0 
L 7.328125 8.296875 
Q 12.9375 14.109375 22.625 23.890625 
Q 32.328125 33.6875 34.8125 36.53125 
Q 39.546875 41.84375 41.421875 45.53125 
Q 43.3125 49.21875 43.3125 52.78125 
Q 43.3125 58.59375 39.234375 62.25 
Q 35.15625 65.921875 28.609375 65.921875 
Q 23.96875 65.921875 18.8125 64.3125 
Q 13.671875 62.703125 7.8125 59.421875 
L 7.8125 69.390625 
Q 13.765625 71.78125 18.9375 73 
Q 24.125 74.21875 28.421875 74.21875 
Q 39.75 74.21875 46.484375 68.546875 
Q 53.21875 62.890625 53.21875 53.421875 
Q 53.21875 48.921875 51.53125 44.890625 
Q 49.859375 40.875 45.40625 35.40625 
Q 44.1875 33.984375 37.640625 27.21875 
Q 31.109375 20.453125 19.1875 8.296875 
z
" id="DejaVuSans-50"/>
       </defs>
       <use xlink:href="#DejaVuSans-48"/>
       <use x="63.623047" xlink:href="#DejaVuSans-46"/>
       <use x="95.410156" xlink:href="#DejaVuSans-50"/>
      </g>
     </g>
    </g>
    <g id="ytick_4">
     <g id="line2d_4">
      <g>
       <use style="stroke:#000000;stroke-width:0.8;" x="45" xlink:href="#m554ffa48f7" y="89.384355"/>
      </g>
     </g>
     <g id="text_4">
      <!-- 0.3 -->
      <g transform="translate(22.096875 93.183574)scale(0.1 -0.1)">
       <defs>
        <path d="M 40.578125 39.3125 
Q 47.65625 37.796875 51.625 33 
Q 55.609375 28.21875 55.609375 21.1875 
Q 55.609375 10.40625 48.1875 4.484375 
Q 40.765625 -1.421875 27.09375 -1.421875 
Q 22.515625 -1.421875 17.65625 -0.515625 
Q 12.796875 0.390625 7.625 2.203125 
L 7.625 11.71875 
Q 11.71875 9.328125 16.59375 8.109375 
Q 21.484375 6.890625 26.8125 6.890625 
Q 36.078125 6.890625 40.9375 10.546875 
Q 45.796875 14.203125 45.796875 21.1875 
Q 45.796875 27.640625 41.28125 31.265625 
Q 36.765625 34.90625 28.71875 34.90625 
L 20.21875 34.90625 
L 20.21875 43.015625 
L 29.109375 43.015625 
Q 36.375 43.015625 40.234375 45.921875 
Q 44.09375 48.828125 44.09375 54.296875 
Q 44.09375 59.90625 40.109375 62.90625 
Q 36.140625 65.921875 28.71875 65.921875 
Q 24.65625 65.921875 20.015625 65.03125 
Q 15.375 64.15625 9.8125 62.3125 
L 9.8125 71.09375 
Q 15.4375 72.65625 20.34375 73.4375 
Q 25.25 74.21875 29.59375 74.21875 
Q 40.828125 74.21875 47.359375 69.109375 
Q 53.90625 64.015625 53.90625 55.328125 
Q 53.90625 49.265625 50.4375 45.09375 
Q 46.96875 40.921875 40.578125 39.3125 
z
" id="DejaVuSans-51"/>
       </defs>
       <use xlink:href="#DejaVuSans-48"/>
       <use x="63.623047" xlink:href="#DejaVuSans-46"/>
       <use x="95.410156" xlink:href="#DejaVuSans-51"/>
      </g>
     </g>
    </g>
    <g id="ytick_5">
     <g id="line2d_5">
      <g>
       <use style="stroke:#000000;stroke-width:0.8;" x="45" xlink:href="#m554ffa48f7" y="58.774143"/>
      </g>
     </g>
     <g id="text_5">
      <!-- 0.4 -->
      <g transform="translate(22.096875 62.573362)scale(0.1 -0.1)">
       <defs>
        <path d="M 37.796875 64.3125 
L 12.890625 25.390625 
L 37.796875 25.390625 
z
M 35.203125 72.90625 
L 47.609375 72.90625 
L 47.609375 25.390625 
L 58.015625 25.390625 
L 58.015625 17.1875 
L 47.609375 17.1875 
L 47.609375 0 
L 37.796875 0 
L 37.796875 17.1875 
L 4.890625 17.1875 
L 4.890625 26.703125 
z
" id="DejaVuSans-52"/>
       </defs>
       <use xlink:href="#DejaVuSans-48"/>
       <use x="63.623047" xlink:href="#DejaVuSans-46"/>
       <use x="95.410156" xlink:href="#DejaVuSans-52"/>
      </g>
     </g>
    </g>
    <g id="ytick_6">
     <g id="line2d_6">
      <g>
       <use style="stroke:#000000;stroke-width:0.8;" x="45" xlink:href="#m554ffa48f7" y="28.163932"/>
      </g>
     </g>
     <g id="text_6">
      <!-- 0.5 -->
      <g transform="translate(22.096875 31.96315)scale(0.1 -0.1)">
       <defs>
        <path d="M 10.796875 72.90625 
L 49.515625 72.90625 
L 49.515625 64.59375 
L 19.828125 64.59375 
L 19.828125 46.734375 
Q 21.96875 47.46875 24.109375 47.828125 
Q 26.265625 48.1875 28.421875 48.1875 
Q 40.625 48.1875 47.75 41.5 
Q 54.890625 34.8125 54.890625 23.390625 
Q 54.890625 11.625 47.5625 5.09375 
Q 40.234375 -1.421875 26.90625 -1.421875 
Q 22.3125 -1.421875 17.546875 -0.640625 
Q 12.796875 0.140625 7.71875 1.703125 
L 7.71875 11.625 
Q 12.109375 9.234375 16.796875 8.0625 
Q 21.484375 6.890625 26.703125 6.890625 
Q 35.15625 6.890625 40.078125 11.328125 
Q 45.015625 15.765625 45.015625 23.390625 
Q 45.015625 31 40.078125 35.4375 
Q 35.15625 39.890625 26.703125 39.890625 
Q 22.75 39.890625 18.8125 39.015625 
Q 14.890625 38.140625 10.796875 36.28125 
z
" id="DejaVuSans-53"/>
       </defs>
       <use xlink:href="#DejaVuSans-48"/>
       <use x="63.623047" xlink:href="#DejaVuSans-46"/>
       <use x="95.410156" xlink:href="#DejaVuSans-53"/>
      </g>
     </g>
    </g>
   </g>
   <g id="line2d_7">
    <path clip-path="url(#p71758f4661)" d="M 57.681818 181.21499 
L 88.225936 181.103926 
L 92.370321 180.783093 
L 96.680481 180.224124 
L 101.260027 179.404249 
L 106.191845 178.292803 
L 111.538102 176.856651 
L 117.381684 175.053585 
L 123.888369 172.809539 
L 131.286096 170.018004 
L 139.989305 166.489942 
L 151.034091 161.761637 
L 169.53877 153.559804 
L 191.131016 144.062295 
L 204.931818 138.237722 
L 209.407754 136.541478 
L 213.448529 135.252187 
L 217.592914 134.164621 
L 221.903075 133.264125 
L 226.420455 132.548291 
L 231.186497 132.019907 
L 236.221925 131.68683 
L 241.588904 131.556319 
L 247.349599 131.640799 
L 253.586898 131.957339 
L 260.425134 132.530916 
L 268.009358 133.394713 
L 276.608957 134.603748 
L 286.659091 136.248792 
L 299.112968 138.523683 
L 311.318182 140.903106 
L 311.318182 140.903106 
" style="fill:none;stroke:#9467bd;stroke-dasharray:11.1,4.8;stroke-dashoffset:0;stroke-width:3;"/>
   </g>
   <g id="line2d_8">
    <path clip-path="url(#p71758f4661)" d="M 57.681818 181.21499 
L 86.298797 181.104724 
L 88.764706 180.797344 
L 91.168449 180.273445 
L 93.65508 179.501359 
L 96.245321 178.461377 
L 98.980615 177.119435 
L 101.860963 175.455484 
L 104.927807 173.423324 
L 108.201872 170.983431 
L 111.724599 168.075516 
L 115.516711 164.651882 
L 119.640374 160.623707 
L 124.178476 155.871616 
L 129.193182 150.289724 
L 134.850267 143.649677 
L 141.33623 135.685371 
L 149.169118 125.704214 
L 159.985963 111.528783 
L 189.763369 72.336221 
L 200.10361 59.208057 
L 206.610294 51.249232 
L 209.490642 48.096546 
L 212.205214 45.45027 
L 214.899064 43.131863 
L 217.592914 41.104373 
L 220.307487 39.338169 
L 223.042781 37.822295 
L 225.819519 36.53722 
L 228.637701 35.477506 
L 231.518048 34.632082 
L 234.460561 33.999536 
L 237.506684 33.573323 
L 240.656417 33.359069 
L 243.930481 33.361445 
L 247.349599 33.588775 
L 250.934492 34.052379 
L 254.705882 34.765904 
L 258.725936 35.755939 
L 263.015374 37.045105 
L 267.615642 38.662988 
L 272.609626 40.658621 
L 278.080214 43.088093 
L 284.17246 46.041902 
L 291.114305 49.661909 
L 299.278743 54.179169 
L 309.639706 60.180135 
L 311.318182 61.170889 
L 311.318182 61.170889 
" style="fill:none;stroke:#9467bd;stroke-linecap:square;stroke-width:3;"/>
   </g>
   <g id="patch_3">
    <path d="M 45 189 
L 45 25.92 
" style="fill:none;stroke:#000000;stroke-linecap:square;stroke-linejoin:miter;stroke-width:0.8;"/>
   </g>
   <g id="patch_4">
    <path d="M 324 189 
L 324 25.92 
" style="fill:none;stroke:#000000;stroke-linecap:square;stroke-linejoin:miter;stroke-width:0.8;"/>
   </g>
   <g id="patch_5">
    <path d="M 45 189 
L 324 189 
" style="fill:none;stroke:#000000;stroke-linecap:square;stroke-linejoin:miter;stroke-width:0.8;"/>
   </g>
   <g id="patch_6">
    <path d="M 45 25.92 
L 324 25.92 
" style="fill:none;stroke:#000000;stroke-linecap:square;stroke-linejoin:miter;stroke-width:0.8;"/>
   </g>
  </g>
 </g>
 <defs>
  <clipPath id="p71758f4661">
   <rect height="163.08" width="279" x="45" y="25.92"/>
  </clipPath>
 </defs>
</svg>
