<?xml version="1.0" encoding="utf-8" standalone="no"?>
<!DOCTYPE svg PUBLIC "-//W3C//DTD SVG 1.1//EN"
  "http://www.w3.org/Graphics/SVG/1.1/DTD/svg11.dtd">
<!-- Created with matplotlib (https://matplotlib.org/) -->
<svg height="216pt" version="1.1" viewBox="0 0 360 216" width="360pt" xmlns="http://www.w3.org/2000/svg" xmlns:xlink="http://www.w3.org/1999/xlink">
 <metadata>
  <rdf:RDF xmlns:cc="http://creativecommons.org/ns#" xmlns:dc="http://purl.org/dc/elements/1.1/" xmlns:rdf="http://www.w3.org/1999/02/22-rdf-syntax-ns#">
   <cc:Work>
    <dc:type rdf:resource="http://purl.org/dc/dcmitype/StillImage"/>
    <dc:date>2024-12-06T09:00:28.322610</dc:date>
    <dc:format>image/svg+xml</dc:format>
    <dc:creator>
     <cc:Agent>
      <dc:title>Matplotlib v3.3.2, https://matplotlib.org/</dc:title>
     </cc:Agent>
    </dc:creator>
   </cc:Work>
  </rdf:RDF>
 </metadata>
 <defs>
  <style type="text/css">*{stroke-linecap:butt;stroke-linejoin:round;}</style>
 </defs>
 <g id="figure_1">
  <g id="patch_1">
   <path d="M 0 216 
L 360 216 
L 360 0 
L 0 0 
z
" style="fill:none;"/>
  </g>
  <g id="axes_1">
   <g id="patch_2">
    <path d="M 45 189 
L 324 189 
L 324 25.92 
L 45 25.92 
z
" style="fill:#ffffff;"/>
   </g>
   <g id="PathCollection_1">
    <path clip-path="url(#p5adc256ceb)" d="M 62.65508 185.099399 
C 63.592715 185.099399 64.492072 184.726873 65.15508 184.063865 
C 65.818088 183.400858 66.190614 182.5015 66.190614 181.563865 
C 66.190614 180.626231 65.818088 179.726873 65.15508 179.063865 
C 64.492072 178.400858 63.592715 178.028332 62.65508 178.028332 
C 61.717446 178.028332 60.818088 178.400858 60.15508 179.063865 
C 59.492072 179.726873 59.119546 180.626231 59.119546 181.563865 
C 59.119546 182.5015 59.492072 183.400858 60.15508 184.063865 
C 60.818088 184.726873 61.717446 185.099399 62.65508 185.099399 
z
" style="fill:none;stroke:#2ca02c;"/>
   </g>
   <g id="PathCollection_2">
    <path clip-path="url(#p5adc256ceb)" d="M 67.628342 185.044463 
C 68.565977 185.044463 69.465334 184.671937 70.128342 184.00893 
C 70.79135 183.345922 71.163876 182.446564 71.163876 181.50893 
C 71.163876 180.571295 70.79135 179.671937 70.128342 179.00893 
C 69.465334 178.345922 68.565977 177.973396 67.628342 177.973396 
C 66.690708 177.973396 65.79135 178.345922 65.128342 179.00893 
C 64.465334 179.671937 64.092808 180.571295 64.092808 181.50893 
C 64.092808 182.446564 64.465334 183.345922 65.128342 184.00893 
C 65.79135 184.671937 66.690708 185.044463 67.628342 185.044463 
z
" style="fill:none;stroke:#2ca02c;"/>
   </g>
   <g id="PathCollection_3">
    <path clip-path="url(#p5adc256ceb)" d="M 72.601604 184.826044 
C 73.539239 184.826044 74.438597 184.453518 75.101604 183.79051 
C 75.764612 183.127502 76.137138 182.228145 76.137138 181.29051 
C 76.137138 180.352876 75.764612 179.453518 75.101604 178.79051 
C 74.438597 178.127502 73.539239 177.754976 72.601604 177.754976 
C 71.66397 177.754976 70.764612 178.127502 70.101604 178.79051 
C 69.438597 179.453518 69.06607 180.352876 69.06607 181.29051 
C 69.06607 182.228145 69.438597 183.127502 70.101604 183.79051 
C 70.764612 184.453518 71.66397 184.826044 72.601604 184.826044 
z
" style="fill:none;stroke:#2ca02c;"/>
   </g>
   <g id="PathCollection_4">
    <path clip-path="url(#p5adc256ceb)" d="M 77.574866 184.395967 
C 78.512501 184.395967 79.411859 184.02344 80.074866 183.360433 
C 80.737874 182.697425 81.1104 181.798067 81.1104 180.860433 
C 81.1104 179.922798 80.737874 179.02344 80.074866 178.360433 
C 79.411859 177.697425 78.512501 177.324899 77.574866 177.324899 
C 76.637232 177.324899 75.737874 177.697425 75.074866 178.360433 
C 74.411859 179.02344 74.039332 179.922798 74.039332 180.860433 
C 74.039332 181.798067 74.411859 182.697425 75.074866 183.360433 
C 75.737874 184.02344 76.637232 184.395967 77.574866 184.395967 
z
" style="fill:none;stroke:#2ca02c;"/>
   </g>
   <g id="PathCollection_5">
    <path clip-path="url(#p5adc256ceb)" d="M 82.548128 183.727448 
C 83.485763 183.727448 84.385121 183.354922 85.048128 182.691914 
C 85.711136 182.028906 86.083662 181.129549 86.083662 180.191914 
C 86.083662 179.25428 85.711136 178.354922 85.048128 177.691914 
C 84.385121 177.028906 83.485763 176.65638 82.548128 176.65638 
C 81.610494 176.65638 80.711136 177.028906 80.048128 177.691914 
C 79.385121 178.354922 79.012594 179.25428 79.012594 180.191914 
C 79.012594 181.129549 79.385121 182.028906 80.048128 182.691914 
C 80.711136 183.354922 81.610494 183.727448 82.548128 183.727448 
z
" style="fill:none;stroke:#2ca02c;"/>
   </g>
   <g id="PathCollection_6">
    <path clip-path="url(#p5adc256ceb)" d="M 87.52139 182.810263 
C 88.459025 182.810263 89.358383 182.437737 90.02139 181.77473 
C 90.684398 181.111722 91.056924 180.212364 91.056924 179.27473 
C 91.056924 178.337095 90.684398 177.437737 90.02139 176.77473 
C 89.358383 176.111722 88.459025 175.739196 87.52139 175.739196 
C 86.583756 175.739196 85.684398 176.111722 85.02139 176.77473 
C 84.358383 177.437737 83.985856 178.337095 83.985856 179.27473 
C 83.985856 180.212364 84.358383 181.111722 85.02139 181.77473 
C 85.684398 182.437737 86.583756 182.810263 87.52139 182.810263 
z
" style="fill:none;stroke:#2ca02c;"/>
   </g>
   <g id="PathCollection_7">
    <path clip-path="url(#p5adc256ceb)" d="M 92.494652 181.646514 
C 93.432287 181.646514 94.331645 181.273988 94.994652 180.61098 
C 95.65766 179.947972 96.030186 179.048614 96.030186 178.11098 
C 96.030186 177.173345 95.65766 176.273988 94.994652 175.61098 
C 94.331645 174.947972 93.432287 174.575446 92.494652 174.575446 
C 91.557018 174.575446 90.65766 174.947972 89.994652 175.61098 
C 89.331645 176.273988 88.959119 177.173345 88.959119 178.11098 
C 88.959119 179.048614 89.331645 179.947972 89.994652 180.61098 
C 90.65766 181.273988 91.557018 181.646514 92.494652 181.646514 
z
" style="fill:none;stroke:#2ca02c;"/>
   </g>
   <g id="PathCollection_8">
    <path clip-path="url(#p5adc256ceb)" d="M 97.467914 180.246978 
C 98.405549 180.246978 99.304907 179.874452 99.967914 179.211444 
C 100.630922 178.548436 101.003448 177.649079 101.003448 176.711444 
C 101.003448 175.77381 100.630922 174.874452 99.967914 174.211444 
C 99.304907 173.548436 98.405549 173.17591 97.467914 173.17591 
C 96.53028 173.17591 95.630922 173.548436 94.967914 174.211444 
C 94.304907 174.874452 93.932381 175.77381 93.932381 176.711444 
C 93.932381 177.649079 94.304907 178.548436 94.967914 179.211444 
C 95.630922 179.874452 96.53028 180.246978 97.467914 180.246978 
z
" style="fill:none;stroke:#2ca02c;"/>
   </g>
   <g id="PathCollection_9">
    <path clip-path="url(#p5adc256ceb)" d="M 102.441176 178.628013 
C 103.378811 178.628013 104.278169 178.255487 104.941176 177.592479 
C 105.604184 176.929472 105.97671 176.030114 105.97671 175.092479 
C 105.97671 174.154845 105.604184 173.255487 104.941176 172.592479 
C 104.278169 171.929472 103.378811 171.556945 102.441176 171.556945 
C 101.503542 171.556945 100.604184 171.929472 99.941176 172.592479 
C 99.278169 173.255487 98.905643 174.154845 98.905643 175.092479 
C 98.905643 176.030114 99.278169 176.929472 99.941176 177.592479 
C 100.604184 178.255487 101.503542 178.628013 102.441176 178.628013 
z
" style="fill:none;stroke:#2ca02c;"/>
   </g>
   <g id="PathCollection_10">
    <path clip-path="url(#p5adc256ceb)" d="M 107.414439 176.808974 
C 108.352073 176.808974 109.251431 176.436448 109.914439 175.77344 
C 110.577446 175.110432 110.949972 174.211075 110.949972 173.27344 
C 110.949972 172.335806 110.577446 171.436448 109.914439 170.77344 
C 109.251431 170.110432 108.352073 169.737906 107.414439 169.737906 
C 106.476804 169.737906 105.577446 170.110432 104.914439 170.77344 
C 104.251431 171.436448 103.878905 172.335806 103.878905 173.27344 
C 103.878905 174.211075 104.251431 175.110432 104.914439 175.77344 
C 105.577446 176.436448 106.476804 176.808974 107.414439 176.808974 
z
" style="fill:none;stroke:#2ca02c;"/>
   </g>
   <g id="PathCollection_11">
    <path clip-path="url(#p5adc256ceb)" d="M 112.387701 174.810109 
C 113.325335 174.810109 114.224693 174.437583 114.887701 173.774576 
C 115.550708 173.111568 115.923234 172.21221 115.923234 171.274576 
C 115.923234 170.336941 115.550708 169.437583 114.887701 168.774576 
C 114.224693 168.111568 113.325335 167.739042 112.387701 167.739042 
C 111.450066 167.739042 110.550708 168.111568 109.887701 168.774576 
C 109.224693 169.437583 108.852167 170.336941 108.852167 171.274576 
C 108.852167 172.21221 109.224693 173.111568 109.887701 173.774576 
C 110.550708 174.437583 111.450066 174.810109 112.387701 174.810109 
z
" style="fill:none;stroke:#2ca02c;"/>
   </g>
   <g id="PathCollection_12">
    <path clip-path="url(#p5adc256ceb)" d="M 117.360963 172.650909 
C 118.298597 172.650909 119.197955 172.278383 119.860963 171.615375 
C 120.52397 170.952367 120.896496 170.05301 120.896496 169.115375 
C 120.896496 168.177741 120.52397 167.278383 119.860963 166.615375 
C 119.197955 165.952367 118.298597 165.579841 117.360963 165.579841 
C 116.423328 165.579841 115.52397 165.952367 114.860963 166.615375 
C 114.197955 167.278383 113.825429 168.177741 113.825429 169.115375 
C 113.825429 170.05301 114.197955 170.952367 114.860963 171.615375 
C 115.52397 172.278383 116.423328 172.650909 117.360963 172.650909 
z
" style="fill:none;stroke:#2ca02c;"/>
   </g>
   <g id="PathCollection_13">
    <path clip-path="url(#p5adc256ceb)" d="M 122.334225 170.348861 
C 123.271859 170.348861 124.171217 169.976335 124.834225 169.313327 
C 125.497232 168.65032 125.869759 167.750962 125.869759 166.813327 
C 125.869759 165.875693 125.497232 164.976335 124.834225 164.313327 
C 124.171217 163.65032 123.271859 163.277793 122.334225 163.277793 
C 121.39659 163.277793 120.497232 163.65032 119.834225 164.313327 
C 119.171217 164.976335 118.798691 165.875693 118.798691 166.813327 
C 118.798691 167.750962 119.171217 168.65032 119.834225 169.313327 
C 120.497232 169.976335 121.39659 170.348861 122.334225 170.348861 
z
" style="fill:none;stroke:#2ca02c;"/>
   </g>
   <g id="PathCollection_14">
    <path clip-path="url(#p5adc256ceb)" d="M 127.307487 167.918586 
C 128.245121 167.918586 129.144479 167.54606 129.807487 166.883053 
C 130.470494 166.220045 130.843021 165.320687 130.843021 164.383053 
C 130.843021 163.445418 130.470494 162.54606 129.807487 161.883053 
C 129.144479 161.220045 128.245121 160.847519 127.307487 160.847519 
C 126.369852 160.847519 125.470494 161.220045 124.807487 161.883053 
C 124.144479 162.54606 123.771953 163.445418 123.771953 164.383053 
C 123.771953 165.320687 124.144479 166.220045 124.807487 166.883053 
C 125.470494 167.54606 126.369852 167.918586 127.307487 167.918586 
z
" style="fill:none;stroke:#2ca02c;"/>
   </g>
   <g id="PathCollection_15">
    <path clip-path="url(#p5adc256ceb)" d="M 132.280749 165.371317 
C 133.218383 165.371317 134.117741 164.998791 134.780749 164.335783 
C 135.443756 163.672775 135.816283 162.773417 135.816283 161.835783 
C 135.816283 160.898148 135.443756 159.998791 134.780749 159.335783 
C 134.117741 158.672775 133.218383 158.300249 132.280749 158.300249 
C 131.343114 158.300249 130.443756 158.672775 129.780749 159.335783 
C 129.117741 159.998791 128.745215 160.898148 128.745215 161.835783 
C 128.745215 162.773417 129.117741 163.672775 129.780749 164.335783 
C 130.443756 164.998791 131.343114 165.371317 132.280749 165.371317 
z
" style="fill:none;stroke:#2ca02c;"/>
   </g>
   <g id="PathCollection_16">
    <path clip-path="url(#p5adc256ceb)" d="M 137.254011 162.714681 
C 138.191645 162.714681 139.091003 162.342155 139.754011 161.679147 
C 140.417018 161.016139 140.789545 160.116781 140.789545 159.179147 
C 140.789545 158.241512 140.417018 157.342155 139.754011 156.679147 
C 139.091003 156.016139 138.191645 155.643613 137.254011 155.643613 
C 136.316376 155.643613 135.417018 156.016139 134.754011 156.679147 
C 134.091003 157.342155 133.718477 158.241512 133.718477 159.179147 
C 133.718477 160.116781 134.091003 161.016139 134.754011 161.679147 
C 135.417018 162.342155 136.316376 162.714681 137.254011 162.714681 
z
" style="fill:none;stroke:#2ca02c;"/>
   </g>
   <g id="PathCollection_17">
    <path clip-path="url(#p5adc256ceb)" d="M 142.227273 159.952766 
C 143.164907 159.952766 144.064265 159.58024 144.727273 158.917232 
C 145.39028 158.254224 145.762807 157.354867 145.762807 156.417232 
C 145.762807 155.479598 145.39028 154.58024 144.727273 153.917232 
C 144.064265 153.254224 143.164907 152.881698 142.227273 152.881698 
C 141.289638 152.881698 140.39028 153.254224 139.727273 153.917232 
C 139.064265 154.58024 138.691739 155.479598 138.691739 156.417232 
C 138.691739 157.354867 139.064265 158.254224 139.727273 158.917232 
C 140.39028 159.58024 141.289638 159.952766 142.227273 159.952766 
z
" style="fill:none;stroke:#2ca02c;"/>
   </g>
   <g id="PathCollection_18">
    <path clip-path="url(#p5adc256ceb)" d="M 147.200535 157.086416 
C 148.138169 157.086416 149.037527 156.71389 149.700535 156.050883 
C 150.363543 155.387875 150.736069 154.488517 150.736069 153.550883 
C 150.736069 152.613248 150.363543 151.71389 149.700535 151.050883 
C 149.037527 150.387875 148.138169 150.015349 147.200535 150.015349 
C 146.2629 150.015349 145.363543 150.387875 144.700535 151.050883 
C 144.037527 151.71389 143.665001 152.613248 143.665001 153.550883 
C 143.665001 154.488517 144.037527 155.387875 144.700535 156.050883 
C 145.363543 156.71389 146.2629 157.086416 147.200535 157.086416 
z
" style="fill:none;stroke:#2ca02c;"/>
   </g>
   <g id="PathCollection_19">
    <path clip-path="url(#p5adc256ceb)" d="M 152.173797 154.113739 
C 153.111431 154.113739 154.010789 153.741213 154.673797 153.078205 
C 155.336805 152.415197 155.709331 151.515839 155.709331 150.578205 
C 155.709331 149.64057 155.336805 148.741213 154.673797 148.078205 
C 154.010789 147.415197 153.111431 147.042671 152.173797 147.042671 
C 151.236162 147.042671 150.336805 147.415197 149.673797 148.078205 
C 149.010789 148.741213 148.638263 149.64057 148.638263 150.578205 
C 148.638263 151.515839 149.010789 152.415197 149.673797 153.078205 
C 150.336805 153.741213 151.236162 154.113739 152.173797 154.113739 
z
" style="fill:none;stroke:#2ca02c;"/>
   </g>
   <g id="PathCollection_20">
    <path clip-path="url(#p5adc256ceb)" d="M 157.147059 151.030776 
C 158.084693 151.030776 158.984051 150.65825 159.647059 149.995242 
C 160.310067 149.332235 160.682593 148.432877 160.682593 147.495242 
C 160.682593 146.557608 160.310067 145.65825 159.647059 144.995242 
C 158.984051 144.332235 158.084693 143.959708 157.147059 143.959708 
C 156.209424 143.959708 155.310067 144.332235 154.647059 144.995242 
C 153.984051 145.65825 153.611525 146.557608 153.611525 147.495242 
C 153.611525 148.432877 153.984051 149.332235 154.647059 149.995242 
C 155.310067 150.65825 156.209424 151.030776 157.147059 151.030776 
z
" style="fill:none;stroke:#2ca02c;"/>
   </g>
   <g id="PathCollection_21">
    <path clip-path="url(#p5adc256ceb)" d="M 162.120321 147.832319 
C 163.057955 147.832319 163.957313 147.459793 164.620321 146.796785 
C 165.283329 146.133777 165.655855 145.23442 165.655855 144.296785 
C 165.655855 143.359151 165.283329 142.459793 164.620321 141.796785 
C 163.957313 141.133777 163.057955 140.761251 162.120321 140.761251 
C 161.182686 140.761251 160.283329 141.133777 159.620321 141.796785 
C 158.957313 142.459793 158.584787 143.359151 158.584787 144.296785 
C 158.584787 145.23442 158.957313 146.133777 159.620321 146.796785 
C 160.283329 147.459793 161.182686 147.832319 162.120321 147.832319 
z
" style="fill:none;stroke:#2ca02c;"/>
   </g>
   <g id="PathCollection_22">
    <path clip-path="url(#p5adc256ceb)" d="M 167.093583 144.512817 
C 168.031217 144.512817 168.930575 144.140291 169.593583 143.477283 
C 170.256591 142.814275 170.629117 141.914917 170.629117 140.977283 
C 170.629117 140.039648 170.256591 139.140291 169.593583 138.477283 
C 168.930575 137.814275 168.031217 137.441749 167.093583 137.441749 
C 166.155948 137.441749 165.256591 137.814275 164.593583 138.477283 
C 163.930575 139.140291 163.558049 140.039648 163.558049 140.977283 
C 163.558049 141.914917 163.930575 142.814275 164.593583 143.477283 
C 165.256591 144.140291 166.155948 144.512817 167.093583 144.512817 
z
" style="fill:none;stroke:#2ca02c;"/>
   </g>
   <g id="PathCollection_23">
    <path clip-path="url(#p5adc256ceb)" d="M 172.066845 141.067356 
C 173.004479 141.067356 173.903837 140.69483 174.566845 140.031822 
C 175.229853 139.368815 175.602379 138.469457 175.602379 137.531822 
C 175.602379 136.594188 175.229853 135.69483 174.566845 135.031822 
C 173.903837 134.368815 173.004479 133.996289 172.066845 133.996289 
C 171.12921 133.996289 170.229853 134.368815 169.566845 135.031822 
C 168.903837 135.69483 168.531311 136.594188 168.531311 137.531822 
C 168.531311 138.469457 168.903837 139.368815 169.566845 140.031822 
C 170.229853 140.69483 171.12921 141.067356 172.066845 141.067356 
z
" style="fill:none;stroke:#2ca02c;"/>
   </g>
   <g id="PathCollection_24">
    <path clip-path="url(#p5adc256ceb)" d="M 177.040107 137.492673 
C 177.977742 137.492673 178.877099 137.120147 179.540107 136.457139 
C 180.203115 135.794132 180.575641 134.894774 180.575641 133.957139 
C 180.575641 133.019505 180.203115 132.120147 179.540107 131.457139 
C 178.877099 130.794132 177.977742 130.421605 177.040107 130.421605 
C 176.102472 130.421605 175.203115 130.794132 174.540107 131.457139 
C 173.877099 132.120147 173.504573 133.019505 173.504573 133.957139 
C 173.504573 134.894774 173.877099 135.794132 174.540107 136.457139 
C 175.203115 137.120147 176.102472 137.492673 177.040107 137.492673 
z
" style="fill:none;stroke:#2ca02c;"/>
   </g>
   <g id="PathCollection_25">
    <path clip-path="url(#p5adc256ceb)" d="M 182.013369 133.788157 
C 182.951004 133.788157 183.850361 133.415631 184.513369 132.752623 
C 185.176377 132.089615 185.548903 131.190258 185.548903 130.252623 
C 185.548903 129.314989 185.176377 128.415631 184.513369 127.752623 
C 183.850361 127.089615 182.951004 126.717089 182.013369 126.717089 
C 181.075734 126.717089 180.176377 127.089615 179.513369 127.752623 
C 178.850361 128.415631 178.477835 129.314989 178.477835 130.252623 
C 178.477835 131.190258 178.850361 132.089615 179.513369 132.752623 
C 180.176377 133.415631 181.075734 133.788157 182.013369 133.788157 
z
" style="fill:none;stroke:#2ca02c;"/>
   </g>
   <g id="PathCollection_26">
    <path clip-path="url(#p5adc256ceb)" d="M 186.986631 129.956826 
C 187.924266 129.956826 188.823623 129.5843 189.486631 128.921292 
C 190.149639 128.258284 190.522165 127.358927 190.522165 126.421292 
C 190.522165 125.483658 190.149639 124.5843 189.486631 123.921292 
C 188.823623 123.258284 187.924266 122.885758 186.986631 122.885758 
C 186.048996 122.885758 185.149639 123.258284 184.486631 123.921292 
C 183.823623 124.5843 183.451097 125.483658 183.451097 126.421292 
C 183.451097 127.358927 183.823623 128.258284 184.486631 128.921292 
C 185.149639 129.5843 186.048996 129.956826 186.986631 129.956826 
z
" style="fill:none;stroke:#2ca02c;"/>
   </g>
   <g id="PathCollection_27">
    <path clip-path="url(#p5adc256ceb)" d="M 191.959893 126.006223 
C 192.897528 126.006223 193.796885 125.633697 194.459893 124.970689 
C 195.122901 124.307681 195.495427 123.408324 195.495427 122.470689 
C 195.495427 121.533054 195.122901 120.633697 194.459893 119.970689 
C 193.796885 119.307681 192.897528 118.935155 191.959893 118.935155 
C 191.022258 118.935155 190.122901 119.307681 189.459893 119.970689 
C 188.796885 120.633697 188.424359 121.533054 188.424359 122.470689 
C 188.424359 123.408324 188.796885 124.307681 189.459893 124.970689 
C 190.122901 125.633697 191.022258 126.006223 191.959893 126.006223 
z
" style="fill:none;stroke:#2ca02c;"/>
   </g>
   <g id="PathCollection_28">
    <path clip-path="url(#p5adc256ceb)" d="M 196.933155 121.949212 
C 197.87079 121.949212 198.770147 121.576686 199.433155 120.913678 
C 200.096163 120.250671 200.468689 119.351313 200.468689 118.413678 
C 200.468689 117.476044 200.096163 116.576686 199.433155 115.913678 
C 198.770147 115.250671 197.87079 114.878144 196.933155 114.878144 
C 195.995521 114.878144 195.096163 115.250671 194.433155 115.913678 
C 193.770147 116.576686 193.397621 117.476044 193.397621 118.413678 
C 193.397621 119.351313 193.770147 120.250671 194.433155 120.913678 
C 195.096163 121.576686 195.995521 121.949212 196.933155 121.949212 
z
" style="fill:none;stroke:#2ca02c;"/>
   </g>
   <g id="PathCollection_29">
    <path clip-path="url(#p5adc256ceb)" d="M 201.906417 117.804628 
C 202.844052 117.804628 203.743409 117.432102 204.406417 116.769094 
C 205.069425 116.106087 205.441951 115.206729 205.441951 114.269094 
C 205.441951 113.33146 205.069425 112.432102 204.406417 111.769094 
C 203.743409 111.106087 202.844052 110.73356 201.906417 110.73356 
C 200.968783 110.73356 200.069425 111.106087 199.406417 111.769094 
C 198.743409 112.432102 198.370883 113.33146 198.370883 114.269094 
C 198.370883 115.206729 198.743409 116.106087 199.406417 116.769094 
C 200.069425 117.432102 200.968783 117.804628 201.906417 117.804628 
z
" style="fill:none;stroke:#2ca02c;"/>
   </g>
   <g id="PathCollection_30">
    <path clip-path="url(#p5adc256ceb)" d="M 206.879679 113.597756 
C 207.817314 113.597756 208.716671 113.22523 209.379679 112.562222 
C 210.042687 111.899215 210.415213 110.999857 210.415213 110.062222 
C 210.415213 109.124588 210.042687 108.22523 209.379679 107.562222 
C 208.716671 106.899215 207.817314 106.526688 206.879679 106.526688 
C 205.942045 106.526688 205.042687 106.899215 204.379679 107.562222 
C 203.716671 108.22523 203.344145 109.124588 203.344145 110.062222 
C 203.344145 110.999857 203.716671 111.899215 204.379679 112.562222 
C 205.042687 113.22523 205.942045 113.597756 206.879679 113.597756 
z
" style="fill:none;stroke:#2ca02c;"/>
   </g>
   <g id="PathCollection_31">
    <path clip-path="url(#p5adc256ceb)" d="M 211.852941 109.360599 
C 212.790576 109.360599 213.689933 108.988073 214.352941 108.325065 
C 215.015949 107.662057 215.388475 106.762699 215.388475 105.825065 
C 215.388475 104.88743 215.015949 103.988073 214.352941 103.325065 
C 213.689933 102.662057 212.790576 102.289531 211.852941 102.289531 
C 210.915307 102.289531 210.015949 102.662057 209.352941 103.325065 
C 208.689933 103.988073 208.317407 104.88743 208.317407 105.825065 
C 208.317407 106.762699 208.689933 107.662057 209.352941 108.325065 
C 210.015949 108.988073 210.915307 109.360599 211.852941 109.360599 
z
" style="fill:none;stroke:#2ca02c;"/>
   </g>
   <g id="PathCollection_32">
    <path clip-path="url(#p5adc256ceb)" d="M 216.826203 105.131899 
C 217.763838 105.131899 218.663195 104.759373 219.326203 104.096365 
C 219.989211 103.433358 220.361737 102.534 220.361737 101.596365 
C 220.361737 100.658731 219.989211 99.759373 219.326203 99.096365 
C 218.663195 98.433358 217.763838 98.060831 216.826203 98.060831 
C 215.888569 98.060831 214.989211 98.433358 214.326203 99.096365 
C 213.663195 99.759373 213.290669 100.658731 213.290669 101.596365 
C 213.290669 102.534 213.663195 103.433358 214.326203 104.096365 
C 214.989211 104.759373 215.888569 105.131899 216.826203 105.131899 
z
" style="fill:none;stroke:#2ca02c;"/>
   </g>
   <g id="PathCollection_33">
    <path clip-path="url(#p5adc256ceb)" d="M 221.799465 100.956887 
C 222.7371 100.956887 223.636457 100.58436 224.299465 99.921353 
C 224.962473 99.258345 225.334999 98.358987 225.334999 97.421353 
C 225.334999 96.483718 224.962473 95.58436 224.299465 94.921353 
C 223.636457 94.258345 222.7371 93.885819 221.799465 93.885819 
C 220.861831 93.885819 219.962473 94.258345 219.299465 94.921353 
C 218.636457 95.58436 218.263931 96.483718 218.263931 97.421353 
C 218.263931 98.358987 218.636457 99.258345 219.299465 99.921353 
C 219.962473 100.58436 220.861831 100.956887 221.799465 100.956887 
z
" style="fill:none;stroke:#2ca02c;"/>
   </g>
   <g id="PathCollection_34">
    <path clip-path="url(#p5adc256ceb)" d="M 226.772727 96.886706 
C 227.710362 96.886706 228.60972 96.51418 229.272727 95.851172 
C 229.935735 95.188164 230.308261 94.288807 230.308261 93.351172 
C 230.308261 92.413538 229.935735 91.51418 229.272727 90.851172 
C 228.60972 90.188164 227.710362 89.815638 226.772727 89.815638 
C 225.835093 89.815638 224.935735 90.188164 224.272727 90.851172 
C 223.60972 91.51418 223.237193 92.413538 223.237193 93.351172 
C 223.237193 94.288807 223.60972 95.188164 224.272727 95.851172 
C 224.935735 96.51418 225.835093 96.886706 226.772727 96.886706 
z
" style="fill:none;stroke:#2ca02c;"/>
   </g>
   <g id="PathCollection_35">
    <path clip-path="url(#p5adc256ceb)" d="M 231.745989 92.977504 
C 232.683624 92.977504 233.582982 92.604978 234.245989 91.94197 
C 234.908997 91.278963 235.281523 90.379605 235.281523 89.44197 
C 235.281523 88.504336 234.908997 87.604978 234.245989 86.94197 
C 233.582982 86.278963 232.683624 85.906436 231.745989 85.906436 
C 230.808355 85.906436 229.908997 86.278963 229.245989 86.94197 
C 228.582982 87.604978 228.210455 88.504336 228.210455 89.44197 
C 228.210455 90.379605 228.582982 91.278963 229.245989 91.94197 
C 229.908997 92.604978 230.808355 92.977504 231.745989 92.977504 
z
" style="fill:none;stroke:#2ca02c;"/>
   </g>
   <g id="PathCollection_36">
    <path clip-path="url(#p5adc256ceb)" d="M 236.719251 89.289128 
C 237.656886 89.289128 238.556244 88.916602 239.219251 88.253594 
C 239.882259 87.590586 240.254785 86.691228 240.254785 85.753594 
C 240.254785 84.815959 239.882259 83.916602 239.219251 83.253594 
C 238.556244 82.590586 237.656886 82.21806 236.719251 82.21806 
C 235.781617 82.21806 234.882259 82.590586 234.219251 83.253594 
C 233.556244 83.916602 233.183717 84.815959 233.183717 85.753594 
C 233.183717 86.691228 233.556244 87.590586 234.219251 88.253594 
C 234.882259 88.916602 235.781617 89.289128 236.719251 89.289128 
z
" style="fill:none;stroke:#2ca02c;"/>
   </g>
   <g id="PathCollection_37">
    <path clip-path="url(#p5adc256ceb)" d="M 241.692513 85.883408 
C 242.630148 85.883408 243.529506 85.510882 244.192513 84.847874 
C 244.855521 84.184866 245.228047 83.285509 245.228047 82.347874 
C 245.228047 81.41024 244.855521 80.510882 244.192513 79.847874 
C 243.529506 79.184866 242.630148 78.81234 241.692513 78.81234 
C 240.754879 78.81234 239.855521 79.184866 239.192513 79.847874 
C 238.529506 80.510882 238.156979 81.41024 238.156979 82.347874 
C 238.156979 83.285509 238.529506 84.184866 239.192513 84.847874 
C 239.855521 85.510882 240.754879 85.883408 241.692513 85.883408 
z
" style="fill:none;stroke:#2ca02c;"/>
   </g>
   <g id="PathCollection_38">
    <path clip-path="url(#p5adc256ceb)" d="M 246.665775 82.821994 
C 247.60341 82.821994 248.502768 82.449468 249.165775 81.78646 
C 249.828783 81.123452 250.201309 80.224095 250.201309 79.28646 
C 250.201309 78.348826 249.828783 77.449468 249.165775 76.78646 
C 248.502768 76.123452 247.60341 75.750926 246.665775 75.750926 
C 245.728141 75.750926 244.828783 76.123452 244.165775 76.78646 
C 243.502768 77.449468 243.130241 78.348826 243.130241 79.28646 
C 243.130241 80.224095 243.502768 81.123452 244.165775 81.78646 
C 244.828783 82.449468 245.728141 82.821994 246.665775 82.821994 
z
" style="fill:none;stroke:#2ca02c;"/>
   </g>
   <g id="PathCollection_39">
    <path clip-path="url(#p5adc256ceb)" d="M 251.639037 80.163698 
C 252.576672 80.163698 253.47603 79.791171 254.139037 79.128164 
C 254.802045 78.465156 255.174571 77.565798 255.174571 76.628164 
C 255.174571 75.690529 254.802045 74.791171 254.139037 74.128164 
C 253.47603 73.465156 252.576672 73.09263 251.639037 73.09263 
C 250.701403 73.09263 249.802045 73.465156 249.139037 74.128164 
C 248.47603 74.791171 248.103504 75.690529 248.103504 76.628164 
C 248.103504 77.565798 248.47603 78.465156 249.139037 79.128164 
C 249.802045 79.791171 250.701403 80.163698 251.639037 80.163698 
z
" style="fill:none;stroke:#2ca02c;"/>
   </g>
   <g id="PathCollection_40">
    <path clip-path="url(#p5adc256ceb)" d="M 256.612299 77.96132 
C 257.549934 77.96132 258.449292 77.588794 259.112299 76.925786 
C 259.775307 76.262778 260.147833 75.363421 260.147833 74.425786 
C 260.147833 73.488152 259.775307 72.588794 259.112299 71.925786 
C 258.449292 71.262778 257.549934 70.890252 256.612299 70.890252 
C 255.674665 70.890252 254.775307 71.262778 254.112299 71.925786 
C 253.449292 72.588794 253.076766 73.488152 253.076766 74.425786 
C 253.076766 75.363421 253.449292 76.262778 254.112299 76.925786 
C 254.775307 77.588794 255.674665 77.96132 256.612299 77.96132 
z
" style="fill:none;stroke:#2ca02c;"/>
   </g>
   <g id="PathCollection_41">
    <path clip-path="url(#p5adc256ceb)" d="M 261.585561 76.257921 
C 262.523196 76.257921 263.422554 75.885395 264.085561 75.222387 
C 264.748569 74.55938 265.121095 73.660022 265.121095 72.722387 
C 265.121095 71.784753 264.748569 70.885395 264.085561 70.222387 
C 263.422554 69.55938 262.523196 69.186853 261.585561 69.186853 
C 260.647927 69.186853 259.748569 69.55938 259.085561 70.222387 
C 258.422554 70.885395 258.050028 71.784753 258.050028 72.722387 
C 258.050028 73.660022 258.422554 74.55938 259.085561 75.222387 
C 259.748569 75.885395 260.647927 76.257921 261.585561 76.257921 
z
" style="fill:none;stroke:#2ca02c;"/>
   </g>
   <g id="PathCollection_42">
    <path clip-path="url(#p5adc256ceb)" d="M 266.558824 75.082501 
C 267.496458 75.082501 268.395816 74.709975 269.058824 74.046967 
C 269.721831 73.383959 270.094357 72.484602 270.094357 71.546967 
C 270.094357 70.609332 269.721831 69.709975 269.058824 69.046967 
C 268.395816 68.383959 267.496458 68.011433 266.558824 68.011433 
C 265.621189 68.011433 264.721831 68.383959 264.058824 69.046967 
C 263.395816 69.709975 263.02329 70.609332 263.02329 71.546967 
C 263.02329 72.484602 263.395816 73.383959 264.058824 74.046967 
C 264.721831 74.709975 265.621189 75.082501 266.558824 75.082501 
z
" style="fill:none;stroke:#2ca02c;"/>
   </g>
   <g id="PathCollection_43">
    <path clip-path="url(#p5adc256ceb)" d="M 271.532086 74.445055 
C 272.46972 74.445055 273.369078 74.072529 274.032086 73.409521 
C 274.695093 72.746514 275.067619 71.847156 275.067619 70.909521 
C 275.067619 69.971887 274.695093 69.072529 274.032086 68.409521 
C 273.369078 67.746514 272.46972 67.373987 271.532086 67.373987 
C 270.594451 67.373987 269.695093 67.746514 269.032086 68.409521 
C 268.369078 69.072529 267.996552 69.971887 267.996552 70.909521 
C 267.996552 71.847156 268.369078 72.746514 269.032086 73.409521 
C 269.695093 74.072529 270.594451 74.445055 271.532086 74.445055 
z
" style="fill:none;stroke:#2ca02c;"/>
   </g>
   <g id="PathCollection_44">
    <path clip-path="url(#p5adc256ceb)" d="M 276.505348 74.330973 
C 277.442982 74.330973 278.34234 73.958447 279.005348 73.295439 
C 279.668355 72.632431 280.040881 71.733074 280.040881 70.795439 
C 280.040881 69.857805 279.668355 68.958447 279.005348 68.295439 
C 278.34234 67.632431 277.442982 67.259905 276.505348 67.259905 
C 275.567713 67.259905 274.668355 67.632431 274.005348 68.295439 
C 273.34234 68.958447 272.969814 69.857805 272.969814 70.795439 
C 272.969814 71.733074 273.34234 72.632431 274.005348 73.295439 
C 274.668355 73.958447 275.567713 74.330973 276.505348 74.330973 
z
" style="fill:none;stroke:#2ca02c;"/>
   </g>
   <g id="PathCollection_45">
    <path clip-path="url(#p5adc256ceb)" d="M 281.47861 74.694741 
C 282.416244 74.694741 283.315602 74.322215 283.97861 73.659207 
C 284.641617 72.9962 285.014144 72.096842 285.014144 71.159207 
C 285.014144 70.221573 284.641617 69.322215 283.97861 68.659207 
C 283.315602 67.9962 282.416244 67.623674 281.47861 67.623674 
C 280.540975 67.623674 279.641617 67.9962 278.97861 68.659207 
C 278.315602 69.322215 277.943076 70.221573 277.943076 71.159207 
C 277.943076 72.096842 278.315602 72.9962 278.97861 73.659207 
C 279.641617 74.322215 280.540975 74.694741 281.47861 74.694741 
z
" style="fill:none;stroke:#2ca02c;"/>
   </g>
   <g id="PathCollection_46">
    <path clip-path="url(#p5adc256ceb)" d="M 286.451872 75.452921 
C 287.389506 75.452921 288.288864 75.080395 288.951872 74.417387 
C 289.614879 73.754379 289.987406 72.855022 289.987406 71.917387 
C 289.987406 70.979752 289.614879 70.080395 288.951872 69.417387 
C 288.288864 68.754379 287.389506 68.381853 286.451872 68.381853 
C 285.514237 68.381853 284.614879 68.754379 283.951872 69.417387 
C 283.288864 70.080395 282.916338 70.979752 282.916338 71.917387 
C 282.916338 72.855022 283.288864 73.754379 283.951872 74.417387 
C 284.614879 75.080395 285.514237 75.452921 286.451872 75.452921 
z
" style="fill:none;stroke:#2ca02c;"/>
   </g>
   <g id="PathCollection_47">
    <path clip-path="url(#p5adc256ceb)" d="M 291.425134 76.476359 
C 292.362768 76.476359 293.262126 76.103833 293.925134 75.440825 
C 294.588141 74.777817 294.960668 73.878459 294.960668 72.940825 
C 294.960668 72.00319 294.588141 71.103833 293.925134 70.440825 
C 293.262126 69.777817 292.362768 69.405291 291.425134 69.405291 
C 290.487499 69.405291 289.588141 69.777817 288.925134 70.440825 
C 288.262126 71.103833 287.8896 72.00319 287.8896 72.940825 
C 287.8896 73.878459 288.262126 74.777817 288.925134 75.440825 
C 289.588141 76.103833 290.487499 76.476359 291.425134 76.476359 
z
" style="fill:none;stroke:#2ca02c;"/>
   </g>
   <g id="PathCollection_48">
    <path clip-path="url(#p5adc256ceb)" d="M 296.398396 77.581608 
C 297.33603 77.581608 298.235388 77.209081 298.898396 76.546074 
C 299.561403 75.883066 299.93393 74.983708 299.93393 74.046074 
C 299.93393 73.108439 299.561403 72.209081 298.898396 71.546074 
C 298.235388 70.883066 297.33603 70.51054 296.398396 70.51054 
C 295.460761 70.51054 294.561403 70.883066 293.898396 71.546074 
C 293.235388 72.209081 292.862862 73.108439 292.862862 74.046074 
C 292.862862 74.983708 293.235388 75.883066 293.898396 76.546074 
C 294.561403 77.209081 295.460761 77.581608 296.398396 77.581608 
z
" style="fill:none;stroke:#2ca02c;"/>
   </g>
   <g id="PathCollection_49">
    <path clip-path="url(#p5adc256ceb)" d="M 301.371658 78.521507 
C 302.309292 78.521507 303.20865 78.148981 303.871658 77.485973 
C 304.534666 76.822965 304.907192 75.923607 304.907192 74.985973 
C 304.907192 74.048338 304.534666 73.148981 303.871658 72.485973 
C 303.20865 71.822965 302.309292 71.450439 301.371658 71.450439 
C 300.434023 71.450439 299.534666 71.822965 298.871658 72.485973 
C 298.20865 73.148981 297.836124 74.048338 297.836124 74.985973 
C 297.836124 75.923607 298.20865 76.822965 298.871658 77.485973 
C 299.534666 78.148981 300.434023 78.521507 301.371658 78.521507 
z
" style="fill:none;stroke:#2ca02c;"/>
   </g>
   <g id="PathCollection_50">
    <path clip-path="url(#p5adc256ceb)" d="M 306.34492 78.974906 
C 307.282554 78.974906 308.181912 78.60238 308.84492 77.939372 
C 309.507928 77.276364 309.880454 76.377007 309.880454 75.439372 
C 309.880454 74.501737 309.507928 73.60238 308.84492 72.939372 
C 308.181912 72.276364 307.282554 71.903838 306.34492 71.903838 
C 305.407285 71.903838 304.507928 72.276364 303.84492 72.939372 
C 303.181912 73.60238 302.809386 74.501737 302.809386 75.439372 
C 302.809386 76.377007 303.181912 77.276364 303.84492 77.939372 
C 304.507928 78.60238 305.407285 78.974906 306.34492 78.974906 
z
" style="fill:none;stroke:#2ca02c;"/>
   </g>
   <g id="PathCollection_51">
    <path clip-path="url(#p5adc256ceb)" d="M 311.318182 78.535478 
C 312.255816 78.535478 313.155174 78.162952 313.818182 77.499945 
C 314.48119 76.836937 314.853716 75.937579 314.853716 74.999945 
C 314.853716 74.06231 314.48119 73.162952 313.818182 72.499945 
C 313.155174 71.836937 312.255816 71.464411 311.318182 71.464411 
C 310.380547 71.464411 309.48119 71.836937 308.818182 72.499945 
C 308.155174 73.162952 307.782648 74.06231 307.782648 74.999945 
C 307.782648 75.937579 308.155174 76.836937 308.818182 77.499945 
C 309.48119 78.162952 310.380547 78.535478 311.318182 78.535478 
z
" style="fill:none;stroke:#2ca02c;"/>
   </g>
   <g id="PathCollection_52">
    <defs>
     <path d="M 0 3.535534 
C 0.937635 3.535534 1.836992 3.163008 2.5 2.5 
C 3.163008 1.836992 3.535534 0.937635 3.535534 0 
C 3.535534 -0.937635 3.163008 -1.836992 2.5 -2.5 
C 1.836992 -3.163008 0.937635 -3.535534 0 -3.535534 
C -0.937635 -3.535534 -1.836992 -3.163008 -2.5 -2.5 
C -3.163008 -1.836992 -3.535534 -0.937635 -3.535534 0 
C -3.535534 0.937635 -3.163008 1.836992 -2.5 2.5 
C -1.836992 3.163008 -0.937635 3.535534 0 3.535534 
z
" id="m61e40b21f5" style="stroke:#2ca02c;"/>
    </defs>
    <g clip-path="url(#p5adc256ceb)">
     <use style="fill:#2ca02c;stroke:#2ca02c;" x="62.65508" xlink:href="#m61e40b21f5" y="180.582051"/>
    </g>
   </g>
   <g id="PathCollection_53">
    <g clip-path="url(#p5adc256ceb)">
     <use style="fill:#2ca02c;stroke:#2ca02c;" x="67.628342" xlink:href="#m61e40b21f5" y="179.56756"/>
    </g>
   </g>
   <g id="PathCollection_54">
    <g clip-path="url(#p5adc256ceb)">
     <use style="fill:#2ca02c;stroke:#2ca02c;" x="72.601604" xlink:href="#m61e40b21f5" y="178.838341"/>
    </g>
   </g>
   <g id="PathCollection_55">
    <g clip-path="url(#p5adc256ceb)">
     <use style="fill:#2ca02c;stroke:#2ca02c;" x="77.574866" xlink:href="#m61e40b21f5" y="178.182047"/>
    </g>
   </g>
   <g id="PathCollection_56">
    <g clip-path="url(#p5adc256ceb)">
     <use style="fill:#2ca02c;stroke:#2ca02c;" x="82.548128" xlink:href="#m61e40b21f5" y="177.44165"/>
    </g>
   </g>
   <g id="PathCollection_57">
    <g clip-path="url(#p5adc256ceb)">
     <use style="fill:#2ca02c;stroke:#2ca02c;" x="87.52139" xlink:href="#m61e40b21f5" y="176.505695"/>
    </g>
   </g>
   <g id="PathCollection_58">
    <g clip-path="url(#p5adc256ceb)">
     <use style="fill:#2ca02c;stroke:#2ca02c;" x="92.494652" xlink:href="#m61e40b21f5" y="175.300143"/>
    </g>
   </g>
   <g id="PathCollection_59">
    <g clip-path="url(#p5adc256ceb)">
     <use style="fill:#2ca02c;stroke:#2ca02c;" x="97.467914" xlink:href="#m61e40b21f5" y="173.781097"/>
    </g>
   </g>
   <g id="PathCollection_60">
    <g clip-path="url(#p5adc256ceb)">
     <use style="fill:#2ca02c;stroke:#2ca02c;" x="102.441176" xlink:href="#m61e40b21f5" y="171.928387"/>
    </g>
   </g>
   <g id="PathCollection_61">
    <g clip-path="url(#p5adc256ceb)">
     <use style="fill:#2ca02c;stroke:#2ca02c;" x="107.414439" xlink:href="#m61e40b21f5" y="169.739945"/>
    </g>
   </g>
   <g id="PathCollection_62">
    <g clip-path="url(#p5adc256ceb)">
     <use style="fill:#2ca02c;stroke:#2ca02c;" x="112.387701" xlink:href="#m61e40b21f5" y="167.226947"/>
    </g>
   </g>
   <g id="PathCollection_63">
    <g clip-path="url(#p5adc256ceb)">
     <use style="fill:#2ca02c;stroke:#2ca02c;" x="117.360963" xlink:href="#m61e40b21f5" y="164.409666"/>
    </g>
   </g>
   <g id="PathCollection_64">
    <g clip-path="url(#p5adc256ceb)">
     <use style="fill:#2ca02c;stroke:#2ca02c;" x="122.334225" xlink:href="#m61e40b21f5" y="161.313982"/>
    </g>
   </g>
   <g id="PathCollection_65">
    <g clip-path="url(#p5adc256ceb)">
     <use style="fill:#2ca02c;stroke:#2ca02c;" x="127.307487" xlink:href="#m61e40b21f5" y="157.968528"/>
    </g>
   </g>
   <g id="PathCollection_66">
    <g clip-path="url(#p5adc256ceb)">
     <use style="fill:#2ca02c;stroke:#2ca02c;" x="132.280749" xlink:href="#m61e40b21f5" y="154.402408"/>
    </g>
   </g>
   <g id="PathCollection_67">
    <g clip-path="url(#p5adc256ceb)">
     <use style="fill:#2ca02c;stroke:#2ca02c;" x="137.254011" xlink:href="#m61e40b21f5" y="150.643439"/>
    </g>
   </g>
   <g id="PathCollection_68">
    <g clip-path="url(#p5adc256ceb)">
     <use style="fill:#2ca02c;stroke:#2ca02c;" x="142.227273" xlink:href="#m61e40b21f5" y="146.716894"/>
    </g>
   </g>
   <g id="PathCollection_69">
    <g clip-path="url(#p5adc256ceb)">
     <use style="fill:#2ca02c;stroke:#2ca02c;" x="147.200535" xlink:href="#m61e40b21f5" y="142.644674"/>
    </g>
   </g>
   <g id="PathCollection_70">
    <g clip-path="url(#p5adc256ceb)">
     <use style="fill:#2ca02c;stroke:#2ca02c;" x="152.173797" xlink:href="#m61e40b21f5" y="138.44489"/>
    </g>
   </g>
   <g id="PathCollection_71">
    <g clip-path="url(#p5adc256ceb)">
     <use style="fill:#2ca02c;stroke:#2ca02c;" x="157.147059" xlink:href="#m61e40b21f5" y="134.131784"/>
    </g>
   </g>
   <g id="PathCollection_72">
    <g clip-path="url(#p5adc256ceb)">
     <use style="fill:#2ca02c;stroke:#2ca02c;" x="162.120321" xlink:href="#m61e40b21f5" y="129.715962"/>
    </g>
   </g>
   <g id="PathCollection_73">
    <g clip-path="url(#p5adc256ceb)">
     <use style="fill:#2ca02c;stroke:#2ca02c;" x="167.093583" xlink:href="#m61e40b21f5" y="125.204897"/>
    </g>
   </g>
   <g id="PathCollection_74">
    <g clip-path="url(#p5adc256ceb)">
     <use style="fill:#2ca02c;stroke:#2ca02c;" x="172.066845" xlink:href="#m61e40b21f5" y="120.603632"/>
    </g>
   </g>
   <g id="PathCollection_75">
    <g clip-path="url(#p5adc256ceb)">
     <use style="fill:#2ca02c;stroke:#2ca02c;" x="177.040107" xlink:href="#m61e40b21f5" y="115.915672"/>
    </g>
   </g>
   <g id="PathCollection_76">
    <g clip-path="url(#p5adc256ceb)">
     <use style="fill:#2ca02c;stroke:#2ca02c;" x="182.013369" xlink:href="#m61e40b21f5" y="111.143989"/>
    </g>
   </g>
   <g id="PathCollection_77">
    <g clip-path="url(#p5adc256ceb)">
     <use style="fill:#2ca02c;stroke:#2ca02c;" x="186.986631" xlink:href="#m61e40b21f5" y="106.292119"/>
    </g>
   </g>
   <g id="PathCollection_78">
    <g clip-path="url(#p5adc256ceb)">
     <use style="fill:#2ca02c;stroke:#2ca02c;" x="191.959893" xlink:href="#m61e40b21f5" y="101.36529"/>
    </g>
   </g>
   <g id="PathCollection_79">
    <g clip-path="url(#p5adc256ceb)">
     <use style="fill:#2ca02c;stroke:#2ca02c;" x="196.933155" xlink:href="#m61e40b21f5" y="96.371542"/>
    </g>
   </g>
   <g id="PathCollection_80">
    <g clip-path="url(#p5adc256ceb)">
     <use style="fill:#2ca02c;stroke:#2ca02c;" x="201.906417" xlink:href="#m61e40b21f5" y="91.322795"/>
    </g>
   </g>
   <g id="PathCollection_81">
    <g clip-path="url(#p5adc256ceb)">
     <use style="fill:#2ca02c;stroke:#2ca02c;" x="206.879679" xlink:href="#m61e40b21f5" y="86.23582"/>
    </g>
   </g>
   <g id="PathCollection_82">
    <g clip-path="url(#p5adc256ceb)">
     <use style="fill:#2ca02c;stroke:#2ca02c;" x="211.852941" xlink:href="#m61e40b21f5" y="81.133063"/>
    </g>
   </g>
   <g id="PathCollection_83">
    <g clip-path="url(#p5adc256ceb)">
     <use style="fill:#2ca02c;stroke:#2ca02c;" x="216.826203" xlink:href="#m61e40b21f5" y="76.043284"/>
    </g>
   </g>
   <g id="PathCollection_84">
    <g clip-path="url(#p5adc256ceb)">
     <use style="fill:#2ca02c;stroke:#2ca02c;" x="221.799465" xlink:href="#m61e40b21f5" y="71.001957"/>
    </g>
   </g>
   <g id="PathCollection_85">
    <g clip-path="url(#p5adc256ceb)">
     <use style="fill:#2ca02c;stroke:#2ca02c;" x="226.772727" xlink:href="#m61e40b21f5" y="66.051401"/>
    </g>
   </g>
   <g id="PathCollection_86">
    <g clip-path="url(#p5adc256ceb)">
     <use style="fill:#2ca02c;stroke:#2ca02c;" x="231.745989" xlink:href="#m61e40b21f5" y="61.24058"/>
    </g>
   </g>
   <g id="PathCollection_87">
    <g clip-path="url(#p5adc256ceb)">
     <use style="fill:#2ca02c;stroke:#2ca02c;" x="236.719251" xlink:href="#m61e40b21f5" y="56.624532"/>
    </g>
   </g>
   <g id="PathCollection_88">
    <g clip-path="url(#p5adc256ceb)">
     <use style="fill:#2ca02c;stroke:#2ca02c;" x="241.692513" xlink:href="#m61e40b21f5" y="52.263395"/>
    </g>
   </g>
   <g id="PathCollection_89">
    <g clip-path="url(#p5adc256ceb)">
     <use style="fill:#2ca02c;stroke:#2ca02c;" x="246.665775" xlink:href="#m61e40b21f5" y="48.220962"/>
    </g>
   </g>
   <g id="PathCollection_90">
    <g clip-path="url(#p5adc256ceb)">
     <use style="fill:#2ca02c;stroke:#2ca02c;" x="251.639037" xlink:href="#m61e40b21f5" y="44.562744"/>
    </g>
   </g>
   <g id="PathCollection_91">
    <g clip-path="url(#p5adc256ceb)">
     <use style="fill:#2ca02c;stroke:#2ca02c;" x="256.612299" xlink:href="#m61e40b21f5" y="41.353473"/>
    </g>
   </g>
   <g id="PathCollection_92">
    <g clip-path="url(#p5adc256ceb)">
     <use style="fill:#2ca02c;stroke:#2ca02c;" x="261.585561" xlink:href="#m61e40b21f5" y="38.654022"/>
    </g>
   </g>
   <g id="PathCollection_93">
    <g clip-path="url(#p5adc256ceb)">
     <use style="fill:#2ca02c;stroke:#2ca02c;" x="266.558824" xlink:href="#m61e40b21f5" y="36.517676"/>
    </g>
   </g>
   <g id="PathCollection_94">
    <g clip-path="url(#p5adc256ceb)">
     <use style="fill:#2ca02c;stroke:#2ca02c;" x="271.532086" xlink:href="#m61e40b21f5" y="34.985728"/>
    </g>
   </g>
   <g id="PathCollection_95">
    <g clip-path="url(#p5adc256ceb)">
     <use style="fill:#2ca02c;stroke:#2ca02c;" x="276.505348" xlink:href="#m61e40b21f5" y="34.082339"/>
    </g>
   </g>
   <g id="PathCollection_96">
    <g clip-path="url(#p5adc256ceb)">
     <use style="fill:#2ca02c;stroke:#2ca02c;" x="281.47861" xlink:href="#m61e40b21f5" y="33.808632"/>
    </g>
   </g>
   <g id="PathCollection_97">
    <g clip-path="url(#p5adc256ceb)">
     <use style="fill:#2ca02c;stroke:#2ca02c;" x="286.451872" xlink:href="#m61e40b21f5" y="34.135958"/>
    </g>
   </g>
   <g id="PathCollection_98">
    <g clip-path="url(#p5adc256ceb)">
     <use style="fill:#2ca02c;stroke:#2ca02c;" x="291.425134" xlink:href="#m61e40b21f5" y="34.998304"/>
    </g>
   </g>
   <g id="PathCollection_99">
    <g clip-path="url(#p5adc256ceb)">
     <use style="fill:#2ca02c;stroke:#2ca02c;" x="296.398396" xlink:href="#m61e40b21f5" y="36.283791"/>
    </g>
   </g>
   <g id="PathCollection_100">
    <g clip-path="url(#p5adc256ceb)">
     <use style="fill:#2ca02c;stroke:#2ca02c;" x="301.371658" xlink:href="#m61e40b21f5" y="37.825219"/>
    </g>
   </g>
   <g id="PathCollection_101">
    <g clip-path="url(#p5adc256ceb)">
     <use style="fill:#2ca02c;stroke:#2ca02c;" x="306.34492" xlink:href="#m61e40b21f5" y="39.389609"/>
    </g>
   </g>
   <g id="PathCollection_102">
    <g clip-path="url(#p5adc256ceb)">
     <use style="fill:#2ca02c;stroke:#2ca02c;" x="311.318182" xlink:href="#m61e40b21f5" y="40.666702"/>
    </g>
   </g>
   <g id="matplotlib.axis_1"/>
   <g id="matplotlib.axis_2">
    <g id="ytick_1">
     <g id="line2d_1">
      <defs>
       <path d="M 0 0 
L -3.5 0 
" id="m68f2aae944" style="stroke:#000000;stroke-width:0.8;"/>
      </defs>
      <g>
       <use style="stroke:#000000;stroke-width:0.8;" x="45" xlink:href="#m68f2aae944" y="181.587273"/>
      </g>
     </g>
     <g id="text_1">
      <!-- 0.00 -->
      <g transform="translate(15.734375 185.386491)scale(0.1 -0.1)">
       <defs>
        <path d="M 31.78125 66.40625 
Q 24.171875 66.40625 20.328125 58.90625 
Q 16.5 51.421875 16.5 36.375 
Q 16.5 21.390625 20.328125 13.890625 
Q 24.171875 6.390625 31.78125 6.390625 
Q 39.453125 6.390625 43.28125 13.890625 
Q 47.125 21.390625 47.125 36.375 
Q 47.125 51.421875 43.28125 58.90625 
Q 39.453125 66.40625 31.78125 66.40625 
z
M 31.78125 74.21875 
Q 44.046875 74.21875 50.515625 64.515625 
Q 56.984375 54.828125 56.984375 36.375 
Q 56.984375 17.96875 50.515625 8.265625 
Q 44.046875 -1.421875 31.78125 -1.421875 
Q 19.53125 -1.421875 13.0625 8.265625 
Q 6.59375 17.96875 6.59375 36.375 
Q 6.59375 54.828125 13.0625 64.515625 
Q 19.53125 74.21875 31.78125 74.21875 
z
" id="DejaVuSans-48"/>
        <path d="M 10.6875 12.40625 
L 21 12.40625 
L 21 0 
L 10.6875 0 
z
" id="DejaVuSans-46"/>
       </defs>
       <use xlink:href="#DejaVuSans-48"/>
       <use x="63.623047" xlink:href="#DejaVuSans-46"/>
       <use x="95.410156" xlink:href="#DejaVuSans-48"/>
       <use x="159.033203" xlink:href="#DejaVuSans-48"/>
      </g>
     </g>
    </g>
    <g id="ytick_2">
     <g id="line2d_2">
      <g>
       <use style="stroke:#000000;stroke-width:0.8;" x="45" xlink:href="#m68f2aae944" y="157.653417"/>
      </g>
     </g>
     <g id="text_2">
      <!-- 0.05 -->
      <g transform="translate(15.734375 161.452636)scale(0.1 -0.1)">
       <defs>
        <path d="M 10.796875 72.90625 
L 49.515625 72.90625 
L 49.515625 64.59375 
L 19.828125 64.59375 
L 19.828125 46.734375 
Q 21.96875 47.46875 24.109375 47.828125 
Q 26.265625 48.1875 28.421875 48.1875 
Q 40.625 48.1875 47.75 41.5 
Q 54.890625 34.8125 54.890625 23.390625 
Q 54.890625 11.625 47.5625 5.09375 
Q 40.234375 -1.421875 26.90625 -1.421875 
Q 22.3125 -1.421875 17.546875 -0.640625 
Q 12.796875 0.140625 7.71875 1.703125 
L 7.71875 11.625 
Q 12.109375 9.234375 16.796875 8.0625 
Q 21.484375 6.890625 26.703125 6.890625 
Q 35.15625 6.890625 40.078125 11.328125 
Q 45.015625 15.765625 45.015625 23.390625 
Q 45.015625 31 40.078125 35.4375 
Q 35.15625 39.890625 26.703125 39.890625 
Q 22.75 39.890625 18.8125 39.015625 
Q 14.890625 38.140625 10.796875 36.28125 
z
" id="DejaVuSans-53"/>
       </defs>
       <use xlink:href="#DejaVuSans-48"/>
       <use x="63.623047" xlink:href="#DejaVuSans-46"/>
       <use x="95.410156" xlink:href="#DejaVuSans-48"/>
       <use x="159.033203" xlink:href="#DejaVuSans-53"/>
      </g>
     </g>
    </g>
    <g id="ytick_3">
     <g id="line2d_3">
      <g>
       <use style="stroke:#000000;stroke-width:0.8;" x="45" xlink:href="#m68f2aae944" y="133.719562"/>
      </g>
     </g>
     <g id="text_3">
      <!-- 0.10 -->
      <g transform="translate(15.734375 137.518781)scale(0.1 -0.1)">
       <defs>
        <path d="M 12.40625 8.296875 
L 28.515625 8.296875 
L 28.515625 63.921875 
L 10.984375 60.40625 
L 10.984375 69.390625 
L 28.421875 72.90625 
L 38.28125 72.90625 
L 38.28125 8.296875 
L 54.390625 8.296875 
L 54.390625 0 
L 12.40625 0 
z
" id="DejaVuSans-49"/>
       </defs>
       <use xlink:href="#DejaVuSans-48"/>
       <use x="63.623047" xlink:href="#DejaVuSans-46"/>
       <use x="95.410156" xlink:href="#DejaVuSans-49"/>
       <use x="159.033203" xlink:href="#DejaVuSans-48"/>
      </g>
     </g>
    </g>
    <g id="ytick_4">
     <g id="line2d_4">
      <g>
       <use style="stroke:#000000;stroke-width:0.8;" x="45" xlink:href="#m68f2aae944" y="109.785706"/>
      </g>
     </g>
     <g id="text_4">
      <!-- 0.15 -->
      <g transform="translate(15.734375 113.584925)scale(0.1 -0.1)">
       <use xlink:href="#DejaVuSans-48"/>
       <use x="63.623047" xlink:href="#DejaVuSans-46"/>
       <use x="95.410156" xlink:href="#DejaVuSans-49"/>
       <use x="159.033203" xlink:href="#DejaVuSans-53"/>
      </g>
     </g>
    </g>
    <g id="ytick_5">
     <g id="line2d_5">
      <g>
       <use style="stroke:#000000;stroke-width:0.8;" x="45" xlink:href="#m68f2aae944" y="85.851851"/>
      </g>
     </g>
     <g id="text_5">
      <!-- 0.20 -->
      <g transform="translate(15.734375 89.65107)scale(0.1 -0.1)">
       <defs>
        <path d="M 19.1875 8.296875 
L 53.609375 8.296875 
L 53.609375 0 
L 7.328125 0 
L 7.328125 8.296875 
Q 12.9375 14.109375 22.625 23.890625 
Q 32.328125 33.6875 34.8125 36.53125 
Q 39.546875 41.84375 41.421875 45.53125 
Q 43.3125 49.21875 43.3125 52.78125 
Q 43.3125 58.59375 39.234375 62.25 
Q 35.15625 65.921875 28.609375 65.921875 
Q 23.96875 65.921875 18.8125 64.3125 
Q 13.671875 62.703125 7.8125 59.421875 
L 7.8125 69.390625 
Q 13.765625 71.78125 18.9375 73 
Q 24.125 74.21875 28.421875 74.21875 
Q 39.75 74.21875 46.484375 68.546875 
Q 53.21875 62.890625 53.21875 53.421875 
Q 53.21875 48.921875 51.53125 44.890625 
Q 49.859375 40.875 45.40625 35.40625 
Q 44.1875 33.984375 37.640625 27.21875 
Q 31.109375 20.453125 19.1875 8.296875 
z
" id="DejaVuSans-50"/>
       </defs>
       <use xlink:href="#DejaVuSans-48"/>
       <use x="63.623047" xlink:href="#DejaVuSans-46"/>
       <use x="95.410156" xlink:href="#DejaVuSans-50"/>
       <use x="159.033203" xlink:href="#DejaVuSans-48"/>
      </g>
     </g>
    </g>
    <g id="ytick_6">
     <g id="line2d_6">
      <g>
       <use style="stroke:#000000;stroke-width:0.8;" x="45" xlink:href="#m68f2aae944" y="61.917995"/>
      </g>
     </g>
     <g id="text_6">
      <!-- 0.25 -->
      <g transform="translate(15.734375 65.717214)scale(0.1 -0.1)">
       <use xlink:href="#DejaVuSans-48"/>
       <use x="63.623047" xlink:href="#DejaVuSans-46"/>
       <use x="95.410156" xlink:href="#DejaVuSans-50"/>
       <use x="159.033203" xlink:href="#DejaVuSans-53"/>
      </g>
     </g>
    </g>
    <g id="ytick_7">
     <g id="line2d_7">
      <g>
       <use style="stroke:#000000;stroke-width:0.8;" x="45" xlink:href="#m68f2aae944" y="37.98414"/>
      </g>
     </g>
     <g id="text_7">
      <!-- 0.30 -->
      <g transform="translate(15.734375 41.783359)scale(0.1 -0.1)">
       <defs>
        <path d="M 40.578125 39.3125 
Q 47.65625 37.796875 51.625 33 
Q 55.609375 28.21875 55.609375 21.1875 
Q 55.609375 10.40625 48.1875 4.484375 
Q 40.765625 -1.421875 27.09375 -1.421875 
Q 22.515625 -1.421875 17.65625 -0.515625 
Q 12.796875 0.390625 7.625 2.203125 
L 7.625 11.71875 
Q 11.71875 9.328125 16.59375 8.109375 
Q 21.484375 6.890625 26.8125 6.890625 
Q 36.078125 6.890625 40.9375 10.546875 
Q 45.796875 14.203125 45.796875 21.1875 
Q 45.796875 27.640625 41.28125 31.265625 
Q 36.765625 34.90625 28.71875 34.90625 
L 20.21875 34.90625 
L 20.21875 43.015625 
L 29.109375 43.015625 
Q 36.375 43.015625 40.234375 45.921875 
Q 44.09375 48.828125 44.09375 54.296875 
Q 44.09375 59.90625 40.109375 62.90625 
Q 36.140625 65.921875 28.71875 65.921875 
Q 24.65625 65.921875 20.015625 65.03125 
Q 15.375 64.15625 9.8125 62.3125 
L 9.8125 71.09375 
Q 15.4375 72.65625 20.34375 73.4375 
Q 25.25 74.21875 29.59375 74.21875 
Q 40.828125 74.21875 47.359375 69.109375 
Q 53.90625 64.015625 53.90625 55.328125 
Q 53.90625 49.265625 50.4375 45.09375 
Q 46.96875 40.921875 40.578125 39.3125 
z
" id="DejaVuSans-51"/>
       </defs>
       <use xlink:href="#DejaVuSans-48"/>
       <use x="63.623047" xlink:href="#DejaVuSans-46"/>
       <use x="95.410156" xlink:href="#DejaVuSans-51"/>
       <use x="159.033203" xlink:href="#DejaVuSans-48"/>
      </g>
     </g>
    </g>
   </g>
   <g id="line2d_8">
    <path clip-path="url(#p5adc256ceb)" d="M 57.681818 181.587273 
L 89.013369 181.476375 
L 93.924465 181.151964 
L 99.125668 180.583923 
L 104.762032 179.741875 
L 110.937166 178.590007 
L 117.775401 177.083047 
L 125.483957 175.151456 
L 134.497995 172.656125 
L 145.687834 169.315491 
L 162.161765 164.13769 
L 194.674465 153.89494 
L 207.501337 150.091698 
L 212.246658 148.931446 
L 217.054144 147.987619 
L 222.110294 147.223623 
L 227.456551 146.64224 
L 233.15508 146.247781 
L 239.28877 146.048791 
L 245.940508 146.059251 
L 253.213904 146.297029 
L 261.274733 146.786938 
L 270.413102 147.570296 
L 281.064171 148.713184 
L 294.18115 150.354406 
L 311.318182 152.720664 
L 311.318182 152.720664 
" style="fill:none;stroke:#2ca02c;stroke-dasharray:11.1,4.8;stroke-dashoffset:0;stroke-width:3;"/>
   </g>
   <g id="line2d_9">
    <path clip-path="url(#p5adc256ceb)" d="M 57.681818 181.587273 
L 86.298797 181.476857 
L 88.764706 181.168891 
L 91.168449 180.643868 
L 93.65508 179.870025 
L 96.245321 178.827602 
L 98.959893 177.493537 
L 101.840241 175.827356 
L 104.907086 173.791978 
L 108.18115 171.347789 
L 111.703877 168.434319 
L 115.495989 165.003752 
L 119.619652 160.96704 
L 124.157754 156.204478 
L 129.17246 150.609902 
L 134.808824 143.979302 
L 141.294786 135.997014 
L 149.106952 126.019274 
L 159.840909 111.919631 
L 190.012032 72.114616 
L 200.227941 59.118118 
L 206.631016 51.27099 
L 209.511364 48.112786 
L 212.225936 45.462212 
L 214.919786 43.140219 
L 217.613636 41.109748 
L 220.328209 39.341107 
L 223.063503 37.823315 
L 225.840241 36.536809 
L 228.658422 35.476139 
L 231.53877 34.630218 
L 234.481283 33.997631 
L 237.506684 33.573982 
L 240.635695 33.359851 
L 243.889037 33.360111 
L 247.287433 33.583288 
L 250.872326 34.0442 
L 254.643717 34.755851 
L 258.643048 35.739208 
L 262.911765 37.020447 
L 267.512032 38.637227 
L 272.485294 40.624298 
L 277.955882 43.054538 
L 284.027406 46.00048 
L 290.927807 49.602257 
L 299.050802 54.101899 
L 309.328877 60.063922 
L 311.318182 61.240665 
L 311.318182 61.240665 
" style="fill:none;stroke:#2ca02c;stroke-linecap:square;stroke-width:3;"/>
   </g>
   <g id="patch_3">
    <path d="M 45 189 
L 45 25.92 
" style="fill:none;stroke:#000000;stroke-linecap:square;stroke-linejoin:miter;stroke-width:0.8;"/>
   </g>
   <g id="patch_4">
    <path d="M 324 189 
L 324 25.92 
" style="fill:none;stroke:#000000;stroke-linecap:square;stroke-linejoin:miter;stroke-width:0.8;"/>
   </g>
   <g id="patch_5">
    <path d="M 45 189 
L 324 189 
" style="fill:none;stroke:#000000;stroke-linecap:square;stroke-linejoin:miter;stroke-width:0.8;"/>
   </g>
   <g id="patch_6">
    <path d="M 45 25.92 
L 324 25.92 
" style="fill:none;stroke:#000000;stroke-linecap:square;stroke-linejoin:miter;stroke-width:0.8;"/>
   </g>
  </g>
 </g>
 <defs>
  <clipPath id="p5adc256ceb">
   <rect height="163.08" width="279" x="45" y="25.92"/>
  </clipPath>
 </defs>
</svg>
