<?xml version="1.0" encoding="utf-8" standalone="no"?>
<!DOCTYPE svg PUBLIC "-//W3C//DTD SVG 1.1//EN"
  "http://www.w3.org/Graphics/SVG/1.1/DTD/svg11.dtd">
<!-- Created with matplotlib (https://matplotlib.org/) -->
<svg height="216pt" version="1.1" viewBox="0 0 360 216" width="360pt" xmlns="http://www.w3.org/2000/svg" xmlns:xlink="http://www.w3.org/1999/xlink">
 <metadata>
  <rdf:RDF xmlns:cc="http://creativecommons.org/ns#" xmlns:dc="http://purl.org/dc/elements/1.1/" xmlns:rdf="http://www.w3.org/1999/02/22-rdf-syntax-ns#">
   <cc:Work>
    <dc:type rdf:resource="http://purl.org/dc/dcmitype/StillImage"/>
    <dc:date>2024-12-06T09:00:03.009735</dc:date>
    <dc:format>image/svg+xml</dc:format>
    <dc:creator>
     <cc:Agent>
      <dc:title>Matplotlib v3.3.2, https://matplotlib.org/</dc:title>
     </cc:Agent>
    </dc:creator>
   </cc:Work>
  </rdf:RDF>
 </metadata>
 <defs>
  <style type="text/css">*{stroke-linecap:butt;stroke-linejoin:round;}</style>
 </defs>
 <g id="figure_1">
  <g id="patch_1">
   <path d="M 0 216 
L 360 216 
L 360 0 
L 0 0 
z
" style="fill:none;"/>
  </g>
  <g id="axes_1">
   <g id="patch_2">
    <path d="M 45 189 
L 324 189 
L 324 25.92 
L 45 25.92 
z
" style="fill:#ffffff;"/>
   </g>
   <g id="PathCollection_1">
    <path clip-path="url(#pf60a8013b3)" d="M 62.65508 184.832406 
C 63.592715 184.832406 64.492072 184.45988 65.15508 183.796872 
C 65.818088 183.133864 66.190614 182.234507 66.190614 181.296872 
C 66.190614 180.359238 65.818088 179.45988 65.15508 178.796872 
C 64.492072 178.133864 63.592715 177.761338 62.65508 177.761338 
C 61.717446 177.761338 60.818088 178.133864 60.15508 178.796872 
C 59.492072 179.45988 59.119546 180.359238 59.119546 181.296872 
C 59.119546 182.234507 59.492072 183.133864 60.15508 183.796872 
C 60.818088 184.45988 61.717446 184.832406 62.65508 184.832406 
z
" style="fill:none;stroke:#9467bd;"/>
   </g>
   <g id="PathCollection_2">
    <path clip-path="url(#pf60a8013b3)" d="M 67.628342 184.949956 
C 68.565977 184.949956 69.465334 184.577429 70.128342 183.914422 
C 70.79135 183.251414 71.163876 182.352056 71.163876 181.414422 
C 71.163876 180.476787 70.79135 179.577429 70.128342 178.914422 
C 69.465334 178.251414 68.565977 177.878888 67.628342 177.878888 
C 66.690708 177.878888 65.79135 178.251414 65.128342 178.914422 
C 64.465334 179.577429 64.092808 180.476787 64.092808 181.414422 
C 64.092808 182.352056 64.465334 183.251414 65.128342 183.914422 
C 65.79135 184.577429 66.690708 184.949956 67.628342 184.949956 
z
" style="fill:none;stroke:#9467bd;"/>
   </g>
   <g id="PathCollection_3">
    <path clip-path="url(#pf60a8013b3)" d="M 72.601604 185.122807 
C 73.539239 185.122807 74.438597 184.75028 75.101604 184.087273 
C 75.764612 183.424265 76.137138 182.524907 76.137138 181.587273 
C 76.137138 180.649638 75.764612 179.75028 75.101604 179.087273 
C 74.438597 178.424265 73.539239 178.051739 72.601604 178.051739 
C 71.66397 178.051739 70.764612 178.424265 70.101604 179.087273 
C 69.438597 179.75028 69.06607 180.649638 69.06607 181.587273 
C 69.06607 182.524907 69.438597 183.424265 70.101604 184.087273 
C 70.764612 184.75028 71.66397 185.122807 72.601604 185.122807 
z
" style="fill:none;stroke:#9467bd;"/>
   </g>
   <g id="PathCollection_4">
    <path clip-path="url(#pf60a8013b3)" d="M 77.574866 185.103509 
C 78.512501 185.103509 79.411859 184.730983 80.074866 184.067975 
C 80.737874 183.404967 81.1104 182.505609 81.1104 181.567975 
C 81.1104 180.63034 80.737874 179.730983 80.074866 179.067975 
C 79.411859 178.404967 78.512501 178.032441 77.574866 178.032441 
C 76.637232 178.032441 75.737874 178.404967 75.074866 179.067975 
C 74.411859 179.730983 74.039332 180.63034 74.039332 181.567975 
C 74.039332 182.505609 74.411859 183.404967 75.074866 184.067975 
C 75.737874 184.730983 76.637232 185.103509 77.574866 185.103509 
z
" style="fill:none;stroke:#9467bd;"/>
   </g>
   <g id="PathCollection_5">
    <path clip-path="url(#pf60a8013b3)" d="M 82.548128 184.721945 
C 83.485763 184.721945 84.385121 184.349419 85.048128 183.686411 
C 85.711136 183.023403 86.083662 182.124046 86.083662 181.186411 
C 86.083662 180.248777 85.711136 179.349419 85.048128 178.686411 
C 84.385121 178.023403 83.485763 177.650877 82.548128 177.650877 
C 81.610494 177.650877 80.711136 178.023403 80.048128 178.686411 
C 79.385121 179.349419 79.012594 180.248777 79.012594 181.186411 
C 79.012594 182.124046 79.385121 183.023403 80.048128 183.686411 
C 80.711136 184.349419 81.610494 184.721945 82.548128 184.721945 
z
" style="fill:none;stroke:#9467bd;"/>
   </g>
   <g id="PathCollection_6">
    <path clip-path="url(#pf60a8013b3)" d="M 87.52139 183.872176 
C 88.459025 183.872176 89.358383 183.49965 90.02139 182.836642 
C 90.684398 182.173634 91.056924 181.274277 91.056924 180.336642 
C 91.056924 179.399008 90.684398 178.49965 90.02139 177.836642 
C 89.358383 177.173634 88.459025 176.801108 87.52139 176.801108 
C 86.583756 176.801108 85.684398 177.173634 85.02139 177.836642 
C 84.358383 178.49965 83.985856 179.399008 83.985856 180.336642 
C 83.985856 181.274277 84.358383 182.173634 85.02139 182.836642 
C 85.684398 183.49965 86.583756 183.872176 87.52139 183.872176 
z
" style="fill:none;stroke:#9467bd;"/>
   </g>
   <g id="PathCollection_7">
    <path clip-path="url(#pf60a8013b3)" d="M 92.494652 182.500623 
C 93.432287 182.500623 94.331645 182.128097 94.994652 181.465089 
C 95.65766 180.802082 96.030186 179.902724 96.030186 178.965089 
C 96.030186 178.027455 95.65766 177.128097 94.994652 176.465089 
C 94.331645 175.802082 93.432287 175.429555 92.494652 175.429555 
C 91.557018 175.429555 90.65766 175.802082 89.994652 176.465089 
C 89.331645 177.128097 88.959119 178.027455 88.959119 178.965089 
C 88.959119 179.902724 89.331645 180.802082 89.994652 181.465089 
C 90.65766 182.128097 91.557018 182.500623 92.494652 182.500623 
z
" style="fill:none;stroke:#9467bd;"/>
   </g>
   <g id="PathCollection_8">
    <path clip-path="url(#pf60a8013b3)" d="M 97.467914 180.595442 
C 98.405549 180.595442 99.304907 180.222916 99.967914 179.559908 
C 100.630922 178.8969 101.003448 177.997542 101.003448 177.059908 
C 101.003448 176.122273 100.630922 175.222916 99.967914 174.559908 
C 99.304907 173.8969 98.405549 173.524374 97.467914 173.524374 
C 96.53028 173.524374 95.630922 173.8969 94.967914 174.559908 
C 94.304907 175.222916 93.932381 176.122273 93.932381 177.059908 
C 93.932381 177.997542 94.304907 178.8969 94.967914 179.559908 
C 95.630922 180.222916 96.53028 180.595442 97.467914 180.595442 
z
" style="fill:none;stroke:#9467bd;"/>
   </g>
   <g id="PathCollection_9">
    <path clip-path="url(#pf60a8013b3)" d="M 102.441176 178.177116 
C 103.378811 178.177116 104.278169 177.80459 104.941176 177.141582 
C 105.604184 176.478574 105.97671 175.579216 105.97671 174.641582 
C 105.97671 173.703947 105.604184 172.80459 104.941176 172.141582 
C 104.278169 171.478574 103.378811 171.106048 102.441176 171.106048 
C 101.503542 171.106048 100.604184 171.478574 99.941176 172.141582 
C 99.278169 172.80459 98.905643 173.703947 98.905643 174.641582 
C 98.905643 175.579216 99.278169 176.478574 99.941176 177.141582 
C 100.604184 177.80459 101.503542 178.177116 102.441176 178.177116 
z
" style="fill:none;stroke:#9467bd;"/>
   </g>
   <g id="PathCollection_10">
    <path clip-path="url(#pf60a8013b3)" d="M 107.414439 175.29016 
C 108.352073 175.29016 109.251431 174.917634 109.914439 174.254626 
C 110.577446 173.591618 110.949972 172.69226 110.949972 171.754626 
C 110.949972 170.816991 110.577446 169.917634 109.914439 169.254626 
C 109.251431 168.591618 108.352073 168.219092 107.414439 168.219092 
C 106.476804 168.219092 105.577446 168.591618 104.914439 169.254626 
C 104.251431 169.917634 103.878905 170.816991 103.878905 171.754626 
C 103.878905 172.69226 104.251431 173.591618 104.914439 174.254626 
C 105.577446 174.917634 106.476804 175.29016 107.414439 175.29016 
z
" style="fill:none;stroke:#9467bd;"/>
   </g>
   <g id="PathCollection_11">
    <path clip-path="url(#pf60a8013b3)" d="M 112.387701 171.995885 
C 113.325335 171.995885 114.224693 171.623359 114.887701 170.960351 
C 115.550708 170.297344 115.923234 169.397986 115.923234 168.460351 
C 115.923234 167.522717 115.550708 166.623359 114.887701 165.960351 
C 114.224693 165.297344 113.325335 164.924818 112.387701 164.924818 
C 111.450066 164.924818 110.550708 165.297344 109.887701 165.960351 
C 109.224693 166.623359 108.852167 167.522717 108.852167 168.460351 
C 108.852167 169.397986 109.224693 170.297344 109.887701 170.960351 
C 110.550708 171.623359 111.450066 171.995885 112.387701 171.995885 
z
" style="fill:none;stroke:#9467bd;"/>
   </g>
   <g id="PathCollection_12">
    <path clip-path="url(#pf60a8013b3)" d="M 117.360963 168.366171 
C 118.298597 168.366171 119.197955 167.993645 119.860963 167.330637 
C 120.52397 166.667629 120.896496 165.768271 120.896496 164.830637 
C 120.896496 163.893002 120.52397 162.993645 119.860963 162.330637 
C 119.197955 161.667629 118.298597 161.295103 117.360963 161.295103 
C 116.423328 161.295103 115.52397 161.667629 114.860963 162.330637 
C 114.197955 162.993645 113.825429 163.893002 113.825429 164.830637 
C 113.825429 165.768271 114.197955 166.667629 114.860963 167.330637 
C 115.52397 167.993645 116.423328 168.366171 117.360963 168.366171 
z
" style="fill:none;stroke:#9467bd;"/>
   </g>
   <g id="PathCollection_13">
    <path clip-path="url(#pf60a8013b3)" d="M 122.334225 164.478176 
C 123.271859 164.478176 124.171217 164.10565 124.834225 163.442642 
C 125.497232 162.779634 125.869759 161.880277 125.869759 160.942642 
C 125.869759 160.005008 125.497232 159.10565 124.834225 158.442642 
C 124.171217 157.779634 123.271859 157.407108 122.334225 157.407108 
C 121.39659 157.407108 120.497232 157.779634 119.834225 158.442642 
C 119.171217 159.10565 118.798691 160.005008 118.798691 160.942642 
C 118.798691 161.880277 119.171217 162.779634 119.834225 163.442642 
C 120.497232 164.10565 121.39659 164.478176 122.334225 164.478176 
z
" style="fill:none;stroke:#9467bd;"/>
   </g>
   <g id="PathCollection_14">
    <path clip-path="url(#pf60a8013b3)" d="M 127.307487 160.40994 
C 128.245121 160.40994 129.144479 160.037414 129.807487 159.374406 
C 130.470494 158.711399 130.843021 157.812041 130.843021 156.874406 
C 130.843021 155.936772 130.470494 155.037414 129.807487 154.374406 
C 129.144479 153.711399 128.245121 153.338872 127.307487 153.338872 
C 126.369852 153.338872 125.470494 153.711399 124.807487 154.374406 
C 124.144479 155.037414 123.771953 155.936772 123.771953 156.874406 
C 123.771953 157.812041 124.144479 158.711399 124.807487 159.374406 
C 125.470494 160.037414 126.369852 160.40994 127.307487 160.40994 
z
" style="fill:none;stroke:#9467bd;"/>
   </g>
   <g id="PathCollection_15">
    <path clip-path="url(#pf60a8013b3)" d="M 132.280749 156.236806 
C 133.218383 156.236806 134.117741 155.86428 134.780749 155.201272 
C 135.443756 154.538264 135.816283 153.638907 135.816283 152.701272 
C 135.816283 151.763638 135.443756 150.86428 134.780749 150.201272 
C 134.117741 149.538264 133.218383 149.165738 132.280749 149.165738 
C 131.343114 149.165738 130.443756 149.538264 129.780749 150.201272 
C 129.117741 150.86428 128.745215 151.763638 128.745215 152.701272 
C 128.745215 153.638907 129.117741 154.538264 129.780749 155.201272 
C 130.443756 155.86428 131.343114 156.236806 132.280749 156.236806 
z
" style="fill:none;stroke:#9467bd;"/>
   </g>
   <g id="PathCollection_16">
    <path clip-path="url(#pf60a8013b3)" d="M 137.254011 152.028606 
C 138.191645 152.028606 139.091003 151.656079 139.754011 150.993072 
C 140.417018 150.330064 140.789545 149.430706 140.789545 148.493072 
C 140.789545 147.555437 140.417018 146.656079 139.754011 145.993072 
C 139.091003 145.330064 138.191645 144.957538 137.254011 144.957538 
C 136.316376 144.957538 135.417018 145.330064 134.754011 145.993072 
C 134.091003 146.656079 133.718477 147.555437 133.718477 148.493072 
C 133.718477 149.430706 134.091003 150.330064 134.754011 150.993072 
C 135.417018 151.656079 136.316376 152.028606 137.254011 152.028606 
z
" style="fill:none;stroke:#9467bd;"/>
   </g>
   <g id="PathCollection_17">
    <path clip-path="url(#pf60a8013b3)" d="M 142.227273 147.847555 
C 143.164907 147.847555 144.064265 147.475029 144.727273 146.812021 
C 145.39028 146.149013 145.762807 145.249656 145.762807 144.312021 
C 145.762807 143.374387 145.39028 142.475029 144.727273 141.812021 
C 144.064265 141.149013 143.164907 140.776487 142.227273 140.776487 
C 141.289638 140.776487 140.39028 141.149013 139.727273 141.812021 
C 139.064265 142.475029 138.691739 143.374387 138.691739 144.312021 
C 138.691739 145.249656 139.064265 146.149013 139.727273 146.812021 
C 140.39028 147.475029 141.289638 147.847555 142.227273 147.847555 
z
" style="fill:none;stroke:#9467bd;"/>
   </g>
   <g id="PathCollection_18">
    <path clip-path="url(#pf60a8013b3)" d="M 147.200535 143.746795 
C 148.138169 143.746795 149.037527 143.374268 149.700535 142.711261 
C 150.363543 142.048253 150.736069 141.148895 150.736069 140.211261 
C 150.736069 139.273626 150.363543 138.374268 149.700535 137.711261 
C 149.037527 137.048253 148.138169 136.675727 147.200535 136.675727 
C 146.2629 136.675727 145.363543 137.048253 144.700535 137.711261 
C 144.037527 138.374268 143.665001 139.273626 143.665001 140.211261 
C 143.665001 141.148895 144.037527 142.048253 144.700535 142.711261 
C 145.363543 143.374268 146.2629 143.746795 147.200535 143.746795 
z
" style="fill:none;stroke:#9467bd;"/>
   </g>
   <g id="PathCollection_19">
    <path clip-path="url(#pf60a8013b3)" d="M 152.173797 139.769513 
C 153.111431 139.769513 154.010789 139.396987 154.673797 138.733979 
C 155.336805 138.070971 155.709331 137.171613 155.709331 136.233979 
C 155.709331 135.296344 155.336805 134.396987 154.673797 133.733979 
C 154.010789 133.070971 153.111431 132.698445 152.173797 132.698445 
C 151.236162 132.698445 150.336805 133.070971 149.673797 133.733979 
C 149.010789 134.396987 148.638263 135.296344 148.638263 136.233979 
C 148.638263 137.171613 149.010789 138.070971 149.673797 138.733979 
C 150.336805 139.396987 151.236162 139.769513 152.173797 139.769513 
z
" style="fill:none;stroke:#9467bd;"/>
   </g>
   <g id="PathCollection_20">
    <path clip-path="url(#pf60a8013b3)" d="M 157.147059 135.9486 
C 158.084693 135.9486 158.984051 135.576074 159.647059 134.913066 
C 160.310067 134.250058 160.682593 133.3507 160.682593 132.413066 
C 160.682593 131.475431 160.310067 130.576074 159.647059 129.913066 
C 158.984051 129.250058 158.084693 128.877532 157.147059 128.877532 
C 156.209424 128.877532 155.310067 129.250058 154.647059 129.913066 
C 153.984051 130.576074 153.611525 131.475431 153.611525 132.413066 
C 153.611525 133.3507 153.984051 134.250058 154.647059 134.913066 
C 155.310067 135.576074 156.209424 135.9486 157.147059 135.9486 
z
" style="fill:none;stroke:#9467bd;"/>
   </g>
   <g id="PathCollection_21">
    <path clip-path="url(#pf60a8013b3)" d="M 162.120321 132.306769 
C 163.057955 132.306769 163.957313 131.934242 164.620321 131.271235 
C 165.283329 130.608227 165.655855 129.708869 165.655855 128.771235 
C 165.655855 127.8336 165.283329 126.934242 164.620321 126.271235 
C 163.957313 125.608227 163.057955 125.235701 162.120321 125.235701 
C 161.182686 125.235701 160.283329 125.608227 159.620321 126.271235 
C 158.957313 126.934242 158.584787 127.8336 158.584787 128.771235 
C 158.584787 129.708869 158.957313 130.608227 159.620321 131.271235 
C 160.283329 131.934242 161.182686 132.306769 162.120321 132.306769 
z
" style="fill:none;stroke:#9467bd;"/>
   </g>
   <g id="PathCollection_22">
    <path clip-path="url(#pf60a8013b3)" d="M 167.093583 128.857079 
C 168.031217 128.857079 168.930575 128.484553 169.593583 127.821545 
C 170.256591 127.158537 170.629117 126.25918 170.629117 125.321545 
C 170.629117 124.383911 170.256591 123.484553 169.593583 122.821545 
C 168.930575 122.158537 168.031217 121.786011 167.093583 121.786011 
C 166.155948 121.786011 165.256591 122.158537 164.593583 122.821545 
C 163.930575 123.484553 163.558049 124.383911 163.558049 125.321545 
C 163.558049 126.25918 163.930575 127.158537 164.593583 127.821545 
C 165.256591 128.484553 166.155948 128.857079 167.093583 128.857079 
z
" style="fill:none;stroke:#9467bd;"/>
   </g>
   <g id="PathCollection_23">
    <path clip-path="url(#pf60a8013b3)" d="M 172.066845 125.603817 
C 173.004479 125.603817 173.903837 125.231291 174.566845 124.568283 
C 175.229853 123.905275 175.602379 123.005918 175.602379 122.068283 
C 175.602379 121.130649 175.229853 120.231291 174.566845 119.568283 
C 173.903837 118.905275 173.004479 118.532749 172.066845 118.532749 
C 171.12921 118.532749 170.229853 118.905275 169.566845 119.568283 
C 168.903837 120.231291 168.531311 121.130649 168.531311 122.068283 
C 168.531311 123.005918 168.903837 123.905275 169.566845 124.568283 
C 170.229853 125.231291 171.12921 125.603817 172.066845 125.603817 
z
" style="fill:none;stroke:#9467bd;"/>
   </g>
   <g id="PathCollection_24">
    <path clip-path="url(#pf60a8013b3)" d="M 177.040107 122.543655 
C 177.977742 122.543655 178.877099 122.171129 179.540107 121.508122 
C 180.203115 120.845114 180.575641 119.945756 180.575641 119.008122 
C 180.575641 118.070487 180.203115 117.171129 179.540107 116.508122 
C 178.877099 115.845114 177.977742 115.472588 177.040107 115.472588 
C 176.102472 115.472588 175.203115 115.845114 174.540107 116.508122 
C 173.877099 117.171129 173.504573 118.070487 173.504573 119.008122 
C 173.504573 119.945756 173.877099 120.845114 174.540107 121.508122 
C 175.203115 122.171129 176.102472 122.543655 177.040107 122.543655 
z
" style="fill:none;stroke:#9467bd;"/>
   </g>
   <g id="PathCollection_25">
    <path clip-path="url(#pf60a8013b3)" d="M 182.013369 119.667049 
C 182.951004 119.667049 183.850361 119.294523 184.513369 118.631516 
C 185.176377 117.968508 185.548903 117.06915 185.548903 116.131516 
C 185.548903 115.193881 185.176377 114.294523 184.513369 113.631516 
C 183.850361 112.968508 182.951004 112.595982 182.013369 112.595982 
C 181.075734 112.595982 180.176377 112.968508 179.513369 113.631516 
C 178.850361 114.294523 178.477835 115.193881 178.477835 116.131516 
C 178.477835 117.06915 178.850361 117.968508 179.513369 118.631516 
C 180.176377 119.294523 181.075734 119.667049 182.013369 119.667049 
z
" style="fill:none;stroke:#9467bd;"/>
   </g>
   <g id="PathCollection_26">
    <path clip-path="url(#pf60a8013b3)" d="M 186.986631 116.959797 
C 187.924266 116.959797 188.823623 116.587271 189.486631 115.924263 
C 190.149639 115.261255 190.522165 114.361898 190.522165 113.424263 
C 190.522165 112.486629 190.149639 111.587271 189.486631 110.924263 
C 188.823623 110.261255 187.924266 109.888729 186.986631 109.888729 
C 186.048996 109.888729 185.149639 110.261255 184.486631 110.924263 
C 183.823623 111.587271 183.451097 112.486629 183.451097 113.424263 
C 183.451097 114.361898 183.823623 115.261255 184.486631 115.924263 
C 185.149639 116.587271 186.048996 116.959797 186.986631 116.959797 
z
" style="fill:none;stroke:#9467bd;"/>
   </g>
   <g id="PathCollection_27">
    <path clip-path="url(#pf60a8013b3)" d="M 191.959893 114.404712 
C 192.897528 114.404712 193.796885 114.032186 194.459893 113.369178 
C 195.122901 112.70617 195.495427 111.806812 195.495427 110.869178 
C 195.495427 109.931543 195.122901 109.032186 194.459893 108.369178 
C 193.796885 107.70617 192.897528 107.333644 191.959893 107.333644 
C 191.022258 107.333644 190.122901 107.70617 189.459893 108.369178 
C 188.796885 109.032186 188.424359 109.931543 188.424359 110.869178 
C 188.424359 111.806812 188.796885 112.70617 189.459893 113.369178 
C 190.122901 114.032186 191.022258 114.404712 191.959893 114.404712 
z
" style="fill:none;stroke:#9467bd;"/>
   </g>
   <g id="PathCollection_28">
    <path clip-path="url(#pf60a8013b3)" d="M 196.933155 111.983345 
C 197.87079 111.983345 198.770147 111.610819 199.433155 110.947811 
C 200.096163 110.284803 200.468689 109.385445 200.468689 108.447811 
C 200.468689 107.510176 200.096163 106.610819 199.433155 105.947811 
C 198.770147 105.284803 197.87079 104.912277 196.933155 104.912277 
C 195.995521 104.912277 195.096163 105.284803 194.433155 105.947811 
C 193.770147 106.610819 193.397621 107.510176 193.397621 108.447811 
C 193.397621 109.385445 193.770147 110.284803 194.433155 110.947811 
C 195.096163 111.610819 195.995521 111.983345 196.933155 111.983345 
z
" style="fill:none;stroke:#9467bd;"/>
   </g>
   <g id="PathCollection_29">
    <path clip-path="url(#pf60a8013b3)" d="M 201.906417 109.677699 
C 202.844052 109.677699 203.743409 109.305172 204.406417 108.642165 
C 205.069425 107.979157 205.441951 107.079799 205.441951 106.142165 
C 205.441951 105.20453 205.069425 104.305172 204.406417 103.642165 
C 203.743409 102.979157 202.844052 102.606631 201.906417 102.606631 
C 200.968783 102.606631 200.069425 102.979157 199.406417 103.642165 
C 198.743409 104.305172 198.370883 105.20453 198.370883 106.142165 
C 198.370883 107.079799 198.743409 107.979157 199.406417 108.642165 
C 200.069425 109.305172 200.968783 109.677699 201.906417 109.677699 
z
" style="fill:none;stroke:#9467bd;"/>
   </g>
   <g id="PathCollection_30">
    <path clip-path="url(#pf60a8013b3)" d="M 206.879679 107.471869 
C 207.817314 107.471869 208.716671 107.099343 209.379679 106.436336 
C 210.042687 105.773328 210.415213 104.87397 210.415213 103.936336 
C 210.415213 102.998701 210.042687 102.099343 209.379679 101.436336 
C 208.716671 100.773328 207.817314 100.400802 206.879679 100.400802 
C 205.942045 100.400802 205.042687 100.773328 204.379679 101.436336 
C 203.716671 102.099343 203.344145 102.998701 203.344145 103.936336 
C 203.344145 104.87397 203.716671 105.773328 204.379679 106.436336 
C 205.042687 107.099343 205.942045 107.471869 206.879679 107.471869 
z
" style="fill:none;stroke:#9467bd;"/>
   </g>
   <g id="PathCollection_31">
    <path clip-path="url(#pf60a8013b3)" d="M 211.852941 105.353564 
C 212.790576 105.353564 213.689933 104.981038 214.352941 104.31803 
C 215.015949 103.655022 215.388475 102.755665 215.388475 101.81803 
C 215.388475 100.880395 215.015949 99.981038 214.352941 99.31803 
C 213.689933 98.655022 212.790576 98.282496 211.852941 98.282496 
C 210.915307 98.282496 210.015949 98.655022 209.352941 99.31803 
C 208.689933 99.981038 208.317407 100.880395 208.317407 101.81803 
C 208.317407 102.755665 208.689933 103.655022 209.352941 104.31803 
C 210.015949 104.981038 210.915307 105.353564 211.852941 105.353564 
z
" style="fill:none;stroke:#9467bd;"/>
   </g>
   <g id="PathCollection_32">
    <path clip-path="url(#pf60a8013b3)" d="M 216.826203 103.315426 
C 217.763838 103.315426 218.663195 102.9429 219.326203 102.279892 
C 219.989211 101.616885 220.361737 100.717527 220.361737 99.779892 
C 220.361737 98.842258 219.989211 97.9429 219.326203 97.279892 
C 218.663195 96.616885 217.763838 96.244358 216.826203 96.244358 
C 215.888569 96.244358 214.989211 96.616885 214.326203 97.279892 
C 213.663195 97.9429 213.290669 98.842258 213.290669 99.779892 
C 213.290669 100.717527 213.663195 101.616885 214.326203 102.279892 
C 214.989211 102.9429 215.888569 103.315426 216.826203 103.315426 
z
" style="fill:none;stroke:#9467bd;"/>
   </g>
   <g id="PathCollection_33">
    <path clip-path="url(#pf60a8013b3)" d="M 221.799465 101.356118 
C 222.7371 101.356118 223.636457 100.983592 224.299465 100.320584 
C 224.962473 99.657576 225.334999 98.758219 225.334999 97.820584 
C 225.334999 96.882949 224.962473 95.983592 224.299465 95.320584 
C 223.636457 94.657576 222.7371 94.28505 221.799465 94.28505 
C 220.861831 94.28505 219.962473 94.657576 219.299465 95.320584 
C 218.636457 95.983592 218.263931 96.882949 218.263931 97.820584 
C 218.263931 98.758219 218.636457 99.657576 219.299465 100.320584 
C 219.962473 100.983592 220.861831 101.356118 221.799465 101.356118 
z
" style="fill:none;stroke:#9467bd;"/>
   </g>
   <g id="PathCollection_34">
    <path clip-path="url(#pf60a8013b3)" d="M 226.772727 99.481089 
C 227.710362 99.481089 228.60972 99.108563 229.272727 98.445555 
C 229.935735 97.782547 230.308261 96.88319 230.308261 95.945555 
C 230.308261 95.007921 229.935735 94.108563 229.272727 93.445555 
C 228.60972 92.782547 227.710362 92.410021 226.772727 92.410021 
C 225.835093 92.410021 224.935735 92.782547 224.272727 93.445555 
C 223.60972 94.108563 223.237193 95.007921 223.237193 95.945555 
C 223.237193 96.88319 223.60972 97.782547 224.272727 98.445555 
C 224.935735 99.108563 225.835093 99.481089 226.772727 99.481089 
z
" style="fill:none;stroke:#9467bd;"/>
   </g>
   <g id="PathCollection_35">
    <path clip-path="url(#pf60a8013b3)" d="M 231.745989 97.702987 
C 232.683624 97.702987 233.582982 97.330461 234.245989 96.667453 
C 234.908997 96.004445 235.281523 95.105087 235.281523 94.167453 
C 235.281523 93.229818 234.908997 92.330461 234.245989 91.667453 
C 233.582982 91.004445 232.683624 90.631919 231.745989 90.631919 
C 230.808355 90.631919 229.908997 91.004445 229.245989 91.667453 
C 228.582982 92.330461 228.210455 93.229818 228.210455 94.167453 
C 228.210455 95.105087 228.582982 96.004445 229.245989 96.667453 
C 229.908997 97.330461 230.808355 97.702987 231.745989 97.702987 
z
" style="fill:none;stroke:#9467bd;"/>
   </g>
   <g id="PathCollection_36">
    <path clip-path="url(#pf60a8013b3)" d="M 236.719251 96.041631 
C 237.656886 96.041631 238.556244 95.669105 239.219251 95.006098 
C 239.882259 94.34309 240.254785 93.443732 240.254785 92.506098 
C 240.254785 91.568463 239.882259 90.669105 239.219251 90.006098 
C 238.556244 89.34309 237.656886 88.970564 236.719251 88.970564 
C 235.781617 88.970564 234.882259 89.34309 234.219251 90.006098 
C 233.556244 90.669105 233.183717 91.568463 233.183717 92.506098 
C 233.183717 93.443732 233.556244 94.34309 234.219251 95.006098 
C 234.882259 95.669105 235.781617 96.041631 236.719251 96.041631 
z
" style="fill:none;stroke:#9467bd;"/>
   </g>
   <g id="PathCollection_37">
    <path clip-path="url(#pf60a8013b3)" d="M 241.692513 94.523512 
C 242.630148 94.523512 243.529506 94.150986 244.192513 93.487978 
C 244.855521 92.824971 245.228047 91.925613 245.228047 90.987978 
C 245.228047 90.050344 244.855521 89.150986 244.192513 88.487978 
C 243.529506 87.824971 242.630148 87.452444 241.692513 87.452444 
C 240.754879 87.452444 239.855521 87.824971 239.192513 88.487978 
C 238.529506 89.150986 238.156979 90.050344 238.156979 90.987978 
C 238.156979 91.925613 238.529506 92.824971 239.192513 93.487978 
C 239.855521 94.150986 240.754879 94.523512 241.692513 94.523512 
z
" style="fill:none;stroke:#9467bd;"/>
   </g>
   <g id="PathCollection_38">
    <path clip-path="url(#pf60a8013b3)" d="M 246.665775 93.180735 
C 247.60341 93.180735 248.502768 92.808209 249.165775 92.145201 
C 249.828783 91.482193 250.201309 90.582835 250.201309 89.645201 
C 250.201309 88.707566 249.828783 87.808209 249.165775 87.145201 
C 248.502768 86.482193 247.60341 86.109667 246.665775 86.109667 
C 245.728141 86.109667 244.828783 86.482193 244.165775 87.145201 
C 243.502768 87.808209 243.130241 88.707566 243.130241 89.645201 
C 243.130241 90.582835 243.502768 91.482193 244.165775 92.145201 
C 244.828783 92.808209 245.728141 93.180735 246.665775 93.180735 
z
" style="fill:none;stroke:#9467bd;"/>
   </g>
   <g id="PathCollection_39">
    <path clip-path="url(#pf60a8013b3)" d="M 251.639037 92.049362 
C 252.576672 92.049362 253.47603 91.676836 254.139037 91.013829 
C 254.802045 90.350821 255.174571 89.451463 255.174571 88.513829 
C 255.174571 87.576194 254.802045 86.676836 254.139037 86.013829 
C 253.47603 85.350821 252.576672 84.978295 251.639037 84.978295 
C 250.701403 84.978295 249.802045 85.350821 249.139037 86.013829 
C 248.47603 86.676836 248.103504 87.576194 248.103504 88.513829 
C 248.103504 89.451463 248.47603 90.350821 249.139037 91.013829 
C 249.802045 91.676836 250.701403 92.049362 251.639037 92.049362 
z
" style="fill:none;stroke:#9467bd;"/>
   </g>
   <g id="PathCollection_40">
    <path clip-path="url(#pf60a8013b3)" d="M 256.612299 91.167097 
C 257.549934 91.167097 258.449292 90.794571 259.112299 90.131563 
C 259.775307 89.468555 260.147833 88.569198 260.147833 87.631563 
C 260.147833 86.693929 259.775307 85.794571 259.112299 85.131563 
C 258.449292 84.468555 257.549934 84.096029 256.612299 84.096029 
C 255.674665 84.096029 254.775307 84.468555 254.112299 85.131563 
C 253.449292 85.794571 253.076766 86.693929 253.076766 87.631563 
C 253.076766 88.569198 253.449292 89.468555 254.112299 90.131563 
C 254.775307 90.794571 255.674665 91.167097 256.612299 91.167097 
z
" style="fill:none;stroke:#9467bd;"/>
   </g>
   <g id="PathCollection_41">
    <path clip-path="url(#pf60a8013b3)" d="M 261.585561 90.57023 
C 262.523196 90.57023 263.422554 90.197704 264.085561 89.534696 
C 264.748569 88.871689 265.121095 87.972331 265.121095 87.034696 
C 265.121095 86.097062 264.748569 85.197704 264.085561 84.534696 
C 263.422554 83.871689 262.523196 83.499162 261.585561 83.499162 
C 260.647927 83.499162 259.748569 83.871689 259.085561 84.534696 
C 258.422554 85.197704 258.050028 86.097062 258.050028 87.034696 
C 258.050028 87.972331 258.422554 88.871689 259.085561 89.534696 
C 259.748569 90.197704 260.647927 90.57023 261.585561 90.57023 
z
" style="fill:none;stroke:#9467bd;"/>
   </g>
   <g id="PathCollection_42">
    <path clip-path="url(#pf60a8013b3)" d="M 266.558824 90.289815 
C 267.496458 90.289815 268.395816 89.917289 269.058824 89.254281 
C 269.721831 88.591274 270.094357 87.691916 270.094357 86.754281 
C 270.094357 85.816647 269.721831 84.917289 269.058824 84.254281 
C 268.395816 83.591274 267.496458 83.218747 266.558824 83.218747 
C 265.621189 83.218747 264.721831 83.591274 264.058824 84.254281 
C 263.395816 84.917289 263.02329 85.816647 263.02329 86.754281 
C 263.02329 87.691916 263.395816 88.591274 264.058824 89.254281 
C 264.721831 89.917289 265.621189 90.289815 266.558824 90.289815 
z
" style="fill:none;stroke:#9467bd;"/>
   </g>
   <g id="PathCollection_43">
    <path clip-path="url(#pf60a8013b3)" d="M 271.532086 90.346994 
C 272.46972 90.346994 273.369078 89.974468 274.032086 89.31146 
C 274.695093 88.648452 275.067619 87.749095 275.067619 86.81146 
C 275.067619 85.873826 274.695093 84.974468 274.032086 84.31146 
C 273.369078 83.648452 272.46972 83.275926 271.532086 83.275926 
C 270.594451 83.275926 269.695093 83.648452 269.032086 84.31146 
C 268.369078 84.974468 267.996552 85.873826 267.996552 86.81146 
C 267.996552 87.749095 268.369078 88.648452 269.032086 89.31146 
C 269.695093 89.974468 270.594451 90.346994 271.532086 90.346994 
z
" style="fill:none;stroke:#9467bd;"/>
   </g>
   <g id="PathCollection_44">
    <path clip-path="url(#pf60a8013b3)" d="M 276.505348 90.747419 
C 277.442982 90.747419 278.34234 90.374893 279.005348 89.711885 
C 279.668355 89.048878 280.040881 88.14952 280.040881 87.211885 
C 280.040881 86.274251 279.668355 85.374893 279.005348 84.711885 
C 278.34234 84.048878 277.442982 83.676352 276.505348 83.676352 
C 275.567713 83.676352 274.668355 84.048878 274.005348 84.711885 
C 273.34234 85.374893 272.969814 86.274251 272.969814 87.211885 
C 272.969814 88.14952 273.34234 89.048878 274.005348 89.711885 
C 274.668355 90.374893 275.567713 90.747419 276.505348 90.747419 
z
" style="fill:none;stroke:#9467bd;"/>
   </g>
   <g id="PathCollection_45">
    <path clip-path="url(#pf60a8013b3)" d="M 281.47861 91.474718 
C 282.416244 91.474718 283.315602 91.102191 283.97861 90.439184 
C 284.641617 89.776176 285.014144 88.876818 285.014144 87.939184 
C 285.014144 87.001549 284.641617 86.102191 283.97861 85.439184 
C 283.315602 84.776176 282.416244 84.40365 281.47861 84.40365 
C 280.540975 84.40365 279.641617 84.776176 278.97861 85.439184 
C 278.315602 86.102191 277.943076 87.001549 277.943076 87.939184 
C 277.943076 88.876818 278.315602 89.776176 278.97861 90.439184 
C 279.641617 91.102191 280.540975 91.474718 281.47861 91.474718 
z
" style="fill:none;stroke:#9467bd;"/>
   </g>
   <g id="PathCollection_46">
    <path clip-path="url(#pf60a8013b3)" d="M 286.451872 92.482928 
C 287.389506 92.482928 288.288864 92.110402 288.951872 91.447394 
C 289.614879 90.784386 289.987406 89.885029 289.987406 88.947394 
C 289.987406 88.009759 289.614879 87.110402 288.951872 86.447394 
C 288.288864 85.784386 287.389506 85.41186 286.451872 85.41186 
C 285.514237 85.41186 284.614879 85.784386 283.951872 86.447394 
C 283.288864 87.110402 282.916338 88.009759 282.916338 88.947394 
C 282.916338 89.885029 283.288864 90.784386 283.951872 91.447394 
C 284.614879 92.110402 285.514237 92.482928 286.451872 92.482928 
z
" style="fill:none;stroke:#9467bd;"/>
   </g>
   <g id="PathCollection_47">
    <path clip-path="url(#pf60a8013b3)" d="M 291.425134 93.687859 
C 292.362768 93.687859 293.262126 93.315333 293.925134 92.652325 
C 294.588141 91.989318 294.960668 91.08996 294.960668 90.152325 
C 294.960668 89.214691 294.588141 88.315333 293.925134 87.652325 
C 293.262126 86.989318 292.362768 86.616792 291.425134 86.616792 
C 290.487499 86.616792 289.588141 86.989318 288.925134 87.652325 
C 288.262126 88.315333 287.8896 89.214691 287.8896 90.152325 
C 287.8896 91.08996 288.262126 91.989318 288.925134 92.652325 
C 289.588141 93.315333 290.487499 93.687859 291.425134 93.687859 
z
" style="fill:none;stroke:#9467bd;"/>
   </g>
   <g id="PathCollection_48">
    <path clip-path="url(#pf60a8013b3)" d="M 296.398396 94.957307 
C 297.33603 94.957307 298.235388 94.584781 298.898396 93.921773 
C 299.561403 93.258765 299.93393 92.359408 299.93393 91.421773 
C 299.93393 90.484138 299.561403 89.584781 298.898396 88.921773 
C 298.235388 88.258765 297.33603 87.886239 296.398396 87.886239 
C 295.460761 87.886239 294.561403 88.258765 293.898396 88.921773 
C 293.235388 89.584781 292.862862 90.484138 292.862862 91.421773 
C 292.862862 92.359408 293.235388 93.258765 293.898396 93.921773 
C 294.561403 94.584781 295.460761 94.957307 296.398396 94.957307 
z
" style="fill:none;stroke:#9467bd;"/>
   </g>
   <g id="PathCollection_49">
    <path clip-path="url(#pf60a8013b3)" d="M 301.371658 96.100069 
C 302.309292 96.100069 303.20865 95.727543 303.871658 95.064535 
C 304.534666 94.401527 304.907192 93.50217 304.907192 92.564535 
C 304.907192 91.626901 304.534666 90.727543 303.871658 90.064535 
C 303.20865 89.401527 302.309292 89.029001 301.371658 89.029001 
C 300.434023 89.029001 299.534666 89.401527 298.871658 90.064535 
C 298.20865 90.727543 297.836124 91.626901 297.836124 92.564535 
C 297.836124 93.50217 298.20865 94.401527 298.871658 95.064535 
C 299.534666 95.727543 300.434023 96.100069 301.371658 96.100069 
z
" style="fill:none;stroke:#9467bd;"/>
   </g>
   <g id="PathCollection_50">
    <path clip-path="url(#pf60a8013b3)" d="M 306.34492 96.8537 
C 307.282554 96.8537 308.181912 96.481174 308.84492 95.818166 
C 309.507928 95.155158 309.880454 94.255801 309.880454 93.318166 
C 309.880454 92.380532 309.507928 91.481174 308.84492 90.818166 
C 308.181912 90.155158 307.282554 89.782632 306.34492 89.782632 
C 305.407285 89.782632 304.507928 90.155158 303.84492 90.818166 
C 303.181912 91.481174 302.809386 92.380532 302.809386 93.318166 
C 302.809386 94.255801 303.181912 95.155158 303.84492 95.818166 
C 304.507928 96.481174 305.407285 96.8537 306.34492 96.8537 
z
" style="fill:none;stroke:#9467bd;"/>
   </g>
   <g id="PathCollection_51">
    <path clip-path="url(#pf60a8013b3)" d="M 311.318182 96.870948 
C 312.255816 96.870948 313.155174 96.498422 313.818182 95.835414 
C 314.48119 95.172406 314.853716 94.273048 314.853716 93.335414 
C 314.853716 92.397779 314.48119 91.498422 313.818182 90.835414 
C 313.155174 90.172406 312.255816 89.79988 311.318182 89.79988 
C 310.380547 89.79988 309.48119 90.172406 308.818182 90.835414 
C 308.155174 91.498422 307.782648 92.397779 307.782648 93.335414 
C 307.782648 94.273048 308.155174 95.172406 308.818182 95.835414 
C 309.48119 96.498422 310.380547 96.870948 311.318182 96.870948 
z
" style="fill:none;stroke:#9467bd;"/>
   </g>
   <g id="PathCollection_52">
    <defs>
     <path d="M 0 3.535534 
C 0.937635 3.535534 1.836992 3.163008 2.5 2.5 
C 3.163008 1.836992 3.535534 0.937635 3.535534 0 
C 3.535534 -0.937635 3.163008 -1.836992 2.5 -2.5 
C 1.836992 -3.163008 0.937635 -3.535534 0 -3.535534 
C -0.937635 -3.535534 -1.836992 -3.163008 -2.5 -2.5 
C -3.163008 -1.836992 -3.535534 -0.937635 -3.535534 0 
C -3.535534 0.937635 -3.163008 1.836992 -2.5 2.5 
C -1.836992 3.163008 -0.937635 3.535534 0 3.535534 
z
" id="mc81543efd1" style="stroke:#9467bd;"/>
    </defs>
    <g clip-path="url(#pf60a8013b3)">
     <use style="fill:#9467bd;stroke:#9467bd;" x="62.65508" xlink:href="#mc81543efd1" y="179.761962"/>
    </g>
   </g>
   <g id="PathCollection_53">
    <g clip-path="url(#pf60a8013b3)">
     <use style="fill:#9467bd;stroke:#9467bd;" x="67.628342" xlink:href="#mc81543efd1" y="180.030774"/>
    </g>
   </g>
   <g id="PathCollection_54">
    <g clip-path="url(#pf60a8013b3)">
     <use style="fill:#9467bd;stroke:#9467bd;" x="72.601604" xlink:href="#mc81543efd1" y="179.481082"/>
    </g>
   </g>
   <g id="PathCollection_55">
    <g clip-path="url(#pf60a8013b3)">
     <use style="fill:#9467bd;stroke:#9467bd;" x="77.574866" xlink:href="#mc81543efd1" y="178.223314"/>
    </g>
   </g>
   <g id="PathCollection_56">
    <g clip-path="url(#pf60a8013b3)">
     <use style="fill:#9467bd;stroke:#9467bd;" x="82.548128" xlink:href="#mc81543efd1" y="176.341234"/>
    </g>
   </g>
   <g id="PathCollection_57">
    <g clip-path="url(#pf60a8013b3)">
     <use style="fill:#9467bd;stroke:#9467bd;" x="87.52139" xlink:href="#mc81543efd1" y="173.919575"/>
    </g>
   </g>
   <g id="PathCollection_58">
    <g clip-path="url(#pf60a8013b3)">
     <use style="fill:#9467bd;stroke:#9467bd;" x="92.494652" xlink:href="#mc81543efd1" y="171.002876"/>
    </g>
   </g>
   <g id="PathCollection_59">
    <g clip-path="url(#pf60a8013b3)">
     <use style="fill:#9467bd;stroke:#9467bd;" x="97.467914" xlink:href="#mc81543efd1" y="167.644592"/>
    </g>
   </g>
   <g id="PathCollection_60">
    <g clip-path="url(#pf60a8013b3)">
     <use style="fill:#9467bd;stroke:#9467bd;" x="102.441176" xlink:href="#mc81543efd1" y="163.887489"/>
    </g>
   </g>
   <g id="PathCollection_61">
    <g clip-path="url(#pf60a8013b3)">
     <use style="fill:#9467bd;stroke:#9467bd;" x="107.414439" xlink:href="#mc81543efd1" y="159.770766"/>
    </g>
   </g>
   <g id="PathCollection_62">
    <g clip-path="url(#pf60a8013b3)">
     <use style="fill:#9467bd;stroke:#9467bd;" x="112.387701" xlink:href="#mc81543efd1" y="155.332131"/>
    </g>
   </g>
   <g id="PathCollection_63">
    <g clip-path="url(#pf60a8013b3)">
     <use style="fill:#9467bd;stroke:#9467bd;" x="117.360963" xlink:href="#mc81543efd1" y="150.609431"/>
    </g>
   </g>
   <g id="PathCollection_64">
    <g clip-path="url(#pf60a8013b3)">
     <use style="fill:#9467bd;stroke:#9467bd;" x="122.334225" xlink:href="#mc81543efd1" y="145.641844"/>
    </g>
   </g>
   <g id="PathCollection_65">
    <g clip-path="url(#pf60a8013b3)">
     <use style="fill:#9467bd;stroke:#9467bd;" x="127.307487" xlink:href="#mc81543efd1" y="140.470684"/>
    </g>
   </g>
   <g id="PathCollection_66">
    <g clip-path="url(#pf60a8013b3)">
     <use style="fill:#9467bd;stroke:#9467bd;" x="132.280749" xlink:href="#mc81543efd1" y="135.139857"/>
    </g>
   </g>
   <g id="PathCollection_67">
    <g clip-path="url(#pf60a8013b3)">
     <use style="fill:#9467bd;stroke:#9467bd;" x="137.254011" xlink:href="#mc81543efd1" y="129.695987"/>
    </g>
   </g>
   <g id="PathCollection_68">
    <g clip-path="url(#pf60a8013b3)">
     <use style="fill:#9467bd;stroke:#9467bd;" x="142.227273" xlink:href="#mc81543efd1" y="124.188268"/>
    </g>
   </g>
   <g id="PathCollection_69">
    <g clip-path="url(#pf60a8013b3)">
     <use style="fill:#9467bd;stroke:#9467bd;" x="147.200535" xlink:href="#mc81543efd1" y="118.668055"/>
    </g>
   </g>
   <g id="PathCollection_70">
    <g clip-path="url(#pf60a8013b3)">
     <use style="fill:#9467bd;stroke:#9467bd;" x="152.173797" xlink:href="#mc81543efd1" y="113.18825"/>
    </g>
   </g>
   <g id="PathCollection_71">
    <g clip-path="url(#pf60a8013b3)">
     <use style="fill:#9467bd;stroke:#9467bd;" x="157.147059" xlink:href="#mc81543efd1" y="107.802507"/>
    </g>
   </g>
   <g id="PathCollection_72">
    <g clip-path="url(#pf60a8013b3)">
     <use style="fill:#9467bd;stroke:#9467bd;" x="162.120321" xlink:href="#mc81543efd1" y="102.564284"/>
    </g>
   </g>
   <g id="PathCollection_73">
    <g clip-path="url(#pf60a8013b3)">
     <use style="fill:#9467bd;stroke:#9467bd;" x="167.093583" xlink:href="#mc81543efd1" y="97.5258"/>
    </g>
   </g>
   <g id="PathCollection_74">
    <g clip-path="url(#pf60a8013b3)">
     <use style="fill:#9467bd;stroke:#9467bd;" x="172.066845" xlink:href="#mc81543efd1" y="92.736908"/>
    </g>
   </g>
   <g id="PathCollection_75">
    <g clip-path="url(#pf60a8013b3)">
     <use style="fill:#9467bd;stroke:#9467bd;" x="177.040107" xlink:href="#mc81543efd1" y="88.243933"/>
    </g>
   </g>
   <g id="PathCollection_76">
    <g clip-path="url(#pf60a8013b3)">
     <use style="fill:#9467bd;stroke:#9467bd;" x="182.013369" xlink:href="#mc81543efd1" y="84.088506"/>
    </g>
   </g>
   <g id="PathCollection_77">
    <g clip-path="url(#pf60a8013b3)">
     <use style="fill:#9467bd;stroke:#9467bd;" x="186.986631" xlink:href="#mc81543efd1" y="80.306428"/>
    </g>
   </g>
   <g id="PathCollection_78">
    <g clip-path="url(#pf60a8013b3)">
     <use style="fill:#9467bd;stroke:#9467bd;" x="191.959893" xlink:href="#mc81543efd1" y="76.926606"/>
    </g>
   </g>
   <g id="PathCollection_79">
    <g clip-path="url(#pf60a8013b3)">
     <use style="fill:#9467bd;stroke:#9467bd;" x="196.933155" xlink:href="#mc81543efd1" y="73.970085"/>
    </g>
   </g>
   <g id="PathCollection_80">
    <g clip-path="url(#pf60a8013b3)">
     <use style="fill:#9467bd;stroke:#9467bd;" x="201.906417" xlink:href="#mc81543efd1" y="71.449218"/>
    </g>
   </g>
   <g id="PathCollection_81">
    <g clip-path="url(#pf60a8013b3)">
     <use style="fill:#9467bd;stroke:#9467bd;" x="206.879679" xlink:href="#mc81543efd1" y="69.367013"/>
    </g>
   </g>
   <g id="PathCollection_82">
    <g clip-path="url(#pf60a8013b3)">
     <use style="fill:#9467bd;stroke:#9467bd;" x="211.852941" xlink:href="#mc81543efd1" y="67.716682"/>
    </g>
   </g>
   <g id="PathCollection_83">
    <g clip-path="url(#pf60a8013b3)">
     <use style="fill:#9467bd;stroke:#9467bd;" x="216.826203" xlink:href="#mc81543efd1" y="66.481435"/>
    </g>
   </g>
   <g id="PathCollection_84">
    <g clip-path="url(#pf60a8013b3)">
     <use style="fill:#9467bd;stroke:#9467bd;" x="221.799465" xlink:href="#mc81543efd1" y="65.634551"/>
    </g>
   </g>
   <g id="PathCollection_85">
    <g clip-path="url(#pf60a8013b3)">
     <use style="fill:#9467bd;stroke:#9467bd;" x="226.772727" xlink:href="#mc81543efd1" y="65.139766"/>
    </g>
   </g>
   <g id="PathCollection_86">
    <g clip-path="url(#pf60a8013b3)">
     <use style="fill:#9467bd;stroke:#9467bd;" x="231.745989" xlink:href="#mc81543efd1" y="64.952"/>
    </g>
   </g>
   <g id="PathCollection_87">
    <g clip-path="url(#pf60a8013b3)">
     <use style="fill:#9467bd;stroke:#9467bd;" x="236.719251" xlink:href="#mc81543efd1" y="65.018474"/>
    </g>
   </g>
   <g id="PathCollection_88">
    <g clip-path="url(#pf60a8013b3)">
     <use style="fill:#9467bd;stroke:#9467bd;" x="241.692513" xlink:href="#mc81543efd1" y="65.28025"/>
    </g>
   </g>
   <g id="PathCollection_89">
    <g clip-path="url(#pf60a8013b3)">
     <use style="fill:#9467bd;stroke:#9467bd;" x="246.665775" xlink:href="#mc81543efd1" y="65.674209"/>
    </g>
   </g>
   <g id="PathCollection_90">
    <g clip-path="url(#pf60a8013b3)">
     <use style="fill:#9467bd;stroke:#9467bd;" x="251.639037" xlink:href="#mc81543efd1" y="66.135532"/>
    </g>
   </g>
   <g id="PathCollection_91">
    <g clip-path="url(#pf60a8013b3)">
     <use style="fill:#9467bd;stroke:#9467bd;" x="256.612299" xlink:href="#mc81543efd1" y="66.600704"/>
    </g>
   </g>
   <g id="PathCollection_92">
    <g clip-path="url(#pf60a8013b3)">
     <use style="fill:#9467bd;stroke:#9467bd;" x="261.585561" xlink:href="#mc81543efd1" y="67.011064"/>
    </g>
   </g>
   <g id="PathCollection_93">
    <g clip-path="url(#pf60a8013b3)">
     <use style="fill:#9467bd;stroke:#9467bd;" x="266.558824" xlink:href="#mc81543efd1" y="67.316965"/>
    </g>
   </g>
   <g id="PathCollection_94">
    <g clip-path="url(#pf60a8013b3)">
     <use style="fill:#9467bd;stroke:#9467bd;" x="271.532086" xlink:href="#mc81543efd1" y="67.482556"/>
    </g>
   </g>
   <g id="PathCollection_95">
    <g clip-path="url(#pf60a8013b3)">
     <use style="fill:#9467bd;stroke:#9467bd;" x="276.505348" xlink:href="#mc81543efd1" y="67.491225"/>
    </g>
   </g>
   <g id="PathCollection_96">
    <g clip-path="url(#pf60a8013b3)">
     <use style="fill:#9467bd;stroke:#9467bd;" x="281.47861" xlink:href="#mc81543efd1" y="67.351748"/>
    </g>
   </g>
   <g id="PathCollection_97">
    <g clip-path="url(#pf60a8013b3)">
     <use style="fill:#9467bd;stroke:#9467bd;" x="286.451872" xlink:href="#mc81543efd1" y="67.105173"/>
    </g>
   </g>
   <g id="PathCollection_98">
    <g clip-path="url(#pf60a8013b3)">
     <use style="fill:#9467bd;stroke:#9467bd;" x="291.425134" xlink:href="#mc81543efd1" y="66.832465"/>
    </g>
   </g>
   <g id="PathCollection_99">
    <g clip-path="url(#pf60a8013b3)">
     <use style="fill:#9467bd;stroke:#9467bd;" x="296.398396" xlink:href="#mc81543efd1" y="66.662968"/>
    </g>
   </g>
   <g id="PathCollection_100">
    <g clip-path="url(#pf60a8013b3)">
     <use style="fill:#9467bd;stroke:#9467bd;" x="301.371658" xlink:href="#mc81543efd1" y="66.783699"/>
    </g>
   </g>
   <g id="PathCollection_101">
    <g clip-path="url(#pf60a8013b3)">
     <use style="fill:#9467bd;stroke:#9467bd;" x="306.34492" xlink:href="#mc81543efd1" y="67.449521"/>
    </g>
   </g>
   <g id="PathCollection_102">
    <g clip-path="url(#pf60a8013b3)">
     <use style="fill:#9467bd;stroke:#9467bd;" x="311.318182" xlink:href="#mc81543efd1" y="68.994223"/>
    </g>
   </g>
   <g id="matplotlib.axis_1"/>
   <g id="matplotlib.axis_2">
    <g id="ytick_1">
     <g id="line2d_1">
      <defs>
       <path d="M 0 0 
L -3.5 0 
" id="ma582d86a33" style="stroke:#000000;stroke-width:0.8;"/>
      </defs>
      <g>
       <use style="stroke:#000000;stroke-width:0.8;" x="45" xlink:href="#ma582d86a33" y="181.210104"/>
      </g>
     </g>
     <g id="text_1">
      <!-- 0.0 -->
      <g transform="translate(22.096875 185.009323)scale(0.1 -0.1)">
       <defs>
        <path d="M 31.78125 66.40625 
Q 24.171875 66.40625 20.328125 58.90625 
Q 16.5 51.421875 16.5 36.375 
Q 16.5 21.390625 20.328125 13.890625 
Q 24.171875 6.390625 31.78125 6.390625 
Q 39.453125 6.390625 43.28125 13.890625 
Q 47.125 21.390625 47.125 36.375 
Q 47.125 51.421875 43.28125 58.90625 
Q 39.453125 66.40625 31.78125 66.40625 
z
M 31.78125 74.21875 
Q 44.046875 74.21875 50.515625 64.515625 
Q 56.984375 54.828125 56.984375 36.375 
Q 56.984375 17.96875 50.515625 8.265625 
Q 44.046875 -1.421875 31.78125 -1.421875 
Q 19.53125 -1.421875 13.0625 8.265625 
Q 6.59375 17.96875 6.59375 36.375 
Q 6.59375 54.828125 13.0625 64.515625 
Q 19.53125 74.21875 31.78125 74.21875 
z
" id="DejaVuSans-48"/>
        <path d="M 10.6875 12.40625 
L 21 12.40625 
L 21 0 
L 10.6875 0 
z
" id="DejaVuSans-46"/>
       </defs>
       <use xlink:href="#DejaVuSans-48"/>
       <use x="63.623047" xlink:href="#DejaVuSans-46"/>
       <use x="95.410156" xlink:href="#DejaVuSans-48"/>
      </g>
     </g>
    </g>
    <g id="ytick_2">
     <g id="line2d_2">
      <g>
       <use style="stroke:#000000;stroke-width:0.8;" x="45" xlink:href="#ma582d86a33" y="150.198189"/>
      </g>
     </g>
     <g id="text_2">
      <!-- 0.1 -->
      <g transform="translate(22.096875 153.997408)scale(0.1 -0.1)">
       <defs>
        <path d="M 12.40625 8.296875 
L 28.515625 8.296875 
L 28.515625 63.921875 
L 10.984375 60.40625 
L 10.984375 69.390625 
L 28.421875 72.90625 
L 38.28125 72.90625 
L 38.28125 8.296875 
L 54.390625 8.296875 
L 54.390625 0 
L 12.40625 0 
z
" id="DejaVuSans-49"/>
       </defs>
       <use xlink:href="#DejaVuSans-48"/>
       <use x="63.623047" xlink:href="#DejaVuSans-46"/>
       <use x="95.410156" xlink:href="#DejaVuSans-49"/>
      </g>
     </g>
    </g>
    <g id="ytick_3">
     <g id="line2d_3">
      <g>
       <use style="stroke:#000000;stroke-width:0.8;" x="45" xlink:href="#ma582d86a33" y="119.186274"/>
      </g>
     </g>
     <g id="text_3">
      <!-- 0.2 -->
      <g transform="translate(22.096875 122.985493)scale(0.1 -0.1)">
       <defs>
        <path d="M 19.1875 8.296875 
L 53.609375 8.296875 
L 53.609375 0 
L 7.328125 0 
L 7.328125 8.296875 
Q 12.9375 14.109375 22.625 23.890625 
Q 32.328125 33.6875 34.8125 36.53125 
Q 39.546875 41.84375 41.421875 45.53125 
Q 43.3125 49.21875 43.3125 52.78125 
Q 43.3125 58.59375 39.234375 62.25 
Q 35.15625 65.921875 28.609375 65.921875 
Q 23.96875 65.921875 18.8125 64.3125 
Q 13.671875 62.703125 7.8125 59.421875 
L 7.8125 69.390625 
Q 13.765625 71.78125 18.9375 73 
Q 24.125 74.21875 28.421875 74.21875 
Q 39.75 74.21875 46.484375 68.546875 
Q 53.21875 62.890625 53.21875 53.421875 
Q 53.21875 48.921875 51.53125 44.890625 
Q 49.859375 40.875 45.40625 35.40625 
Q 44.1875 33.984375 37.640625 27.21875 
Q 31.109375 20.453125 19.1875 8.296875 
z
" id="DejaVuSans-50"/>
       </defs>
       <use xlink:href="#DejaVuSans-48"/>
       <use x="63.623047" xlink:href="#DejaVuSans-46"/>
       <use x="95.410156" xlink:href="#DejaVuSans-50"/>
      </g>
     </g>
    </g>
    <g id="ytick_4">
     <g id="line2d_4">
      <g>
       <use style="stroke:#000000;stroke-width:0.8;" x="45" xlink:href="#ma582d86a33" y="88.174359"/>
      </g>
     </g>
     <g id="text_4">
      <!-- 0.3 -->
      <g transform="translate(22.096875 91.973578)scale(0.1 -0.1)">
       <defs>
        <path d="M 40.578125 39.3125 
Q 47.65625 37.796875 51.625 33 
Q 55.609375 28.21875 55.609375 21.1875 
Q 55.609375 10.40625 48.1875 4.484375 
Q 40.765625 -1.421875 27.09375 -1.421875 
Q 22.515625 -1.421875 17.65625 -0.515625 
Q 12.796875 0.390625 7.625 2.203125 
L 7.625 11.71875 
Q 11.71875 9.328125 16.59375 8.109375 
Q 21.484375 6.890625 26.8125 6.890625 
Q 36.078125 6.890625 40.9375 10.546875 
Q 45.796875 14.203125 45.796875 21.1875 
Q 45.796875 27.640625 41.28125 31.265625 
Q 36.765625 34.90625 28.71875 34.90625 
L 20.21875 34.90625 
L 20.21875 43.015625 
L 29.109375 43.015625 
Q 36.375 43.015625 40.234375 45.921875 
Q 44.09375 48.828125 44.09375 54.296875 
Q 44.09375 59.90625 40.109375 62.90625 
Q 36.140625 65.921875 28.71875 65.921875 
Q 24.65625 65.921875 20.015625 65.03125 
Q 15.375 64.15625 9.8125 62.3125 
L 9.8125 71.09375 
Q 15.4375 72.65625 20.34375 73.4375 
Q 25.25 74.21875 29.59375 74.21875 
Q 40.828125 74.21875 47.359375 69.109375 
Q 53.90625 64.015625 53.90625 55.328125 
Q 53.90625 49.265625 50.4375 45.09375 
Q 46.96875 40.921875 40.578125 39.3125 
z
" id="DejaVuSans-51"/>
       </defs>
       <use xlink:href="#DejaVuSans-48"/>
       <use x="63.623047" xlink:href="#DejaVuSans-46"/>
       <use x="95.410156" xlink:href="#DejaVuSans-51"/>
      </g>
     </g>
    </g>
    <g id="ytick_5">
     <g id="line2d_5">
      <g>
       <use style="stroke:#000000;stroke-width:0.8;" x="45" xlink:href="#ma582d86a33" y="57.162444"/>
      </g>
     </g>
     <g id="text_5">
      <!-- 0.4 -->
      <g transform="translate(22.096875 60.961663)scale(0.1 -0.1)">
       <defs>
        <path d="M 37.796875 64.3125 
L 12.890625 25.390625 
L 37.796875 25.390625 
z
M 35.203125 72.90625 
L 47.609375 72.90625 
L 47.609375 25.390625 
L 58.015625 25.390625 
L 58.015625 17.1875 
L 47.609375 17.1875 
L 47.609375 0 
L 37.796875 0 
L 37.796875 17.1875 
L 4.890625 17.1875 
L 4.890625 26.703125 
z
" id="DejaVuSans-52"/>
       </defs>
       <use xlink:href="#DejaVuSans-48"/>
       <use x="63.623047" xlink:href="#DejaVuSans-46"/>
       <use x="95.410156" xlink:href="#DejaVuSans-52"/>
      </g>
     </g>
    </g>
    <g id="ytick_6">
     <g id="line2d_6">
      <g>
       <use style="stroke:#000000;stroke-width:0.8;" x="45" xlink:href="#ma582d86a33" y="26.150529"/>
      </g>
     </g>
     <g id="text_6">
      <!-- 0.5 -->
      <g transform="translate(22.096875 29.949748)scale(0.1 -0.1)">
       <defs>
        <path d="M 10.796875 72.90625 
L 49.515625 72.90625 
L 49.515625 64.59375 
L 19.828125 64.59375 
L 19.828125 46.734375 
Q 21.96875 47.46875 24.109375 47.828125 
Q 26.265625 48.1875 28.421875 48.1875 
Q 40.625 48.1875 47.75 41.5 
Q 54.890625 34.8125 54.890625 23.390625 
Q 54.890625 11.625 47.5625 5.09375 
Q 40.234375 -1.421875 26.90625 -1.421875 
Q 22.3125 -1.421875 17.546875 -0.640625 
Q 12.796875 0.140625 7.71875 1.703125 
L 7.71875 11.625 
Q 12.109375 9.234375 16.796875 8.0625 
Q 21.484375 6.890625 26.703125 6.890625 
Q 35.15625 6.890625 40.078125 11.328125 
Q 45.015625 15.765625 45.015625 23.390625 
Q 45.015625 31 40.078125 35.4375 
Q 35.15625 39.890625 26.703125 39.890625 
Q 22.75 39.890625 18.8125 39.015625 
Q 14.890625 38.140625 10.796875 36.28125 
z
" id="DejaVuSans-53"/>
       </defs>
       <use xlink:href="#DejaVuSans-48"/>
       <use x="63.623047" xlink:href="#DejaVuSans-46"/>
       <use x="95.410156" xlink:href="#DejaVuSans-53"/>
      </g>
     </g>
    </g>
   </g>
   <g id="line2d_7">
    <path clip-path="url(#pf60a8013b3)" d="M 57.681818 181.210104 
L 88.723262 181.099556 
L 93.364973 180.776177 
L 98.27607 180.206783 
L 103.539439 179.368779 
L 109.25869 178.228877 
L 115.537433 176.746168 
L 122.562166 174.852977 
L 130.560829 172.461418 
L 140.134358 169.357748 
L 152.52607 165.092681 
L 180.417781 155.173465 
L 198.093583 149.046238 
L 208.081551 145.780101 
L 212.557487 144.578049 
L 217.11631 143.585492 
L 221.903075 142.772603 
L 226.959225 142.141941 
L 232.326203 141.699373 
L 238.045455 141.453091 
L 244.199866 141.412836 
L 250.893048 141.594408 
L 258.249332 142.020059 
L 266.475936 142.723759 
L 275.862968 143.755895 
L 286.96992 145.208503 
L 301.102273 147.293524 
L 311.318182 148.896093 
L 311.318182 148.896093 
" style="fill:none;stroke:#9467bd;stroke-dasharray:11.1,4.8;stroke-dashoffset:0;stroke-width:3;"/>
   </g>
   <g id="line2d_8">
    <path clip-path="url(#pf60a8013b3)" d="M 57.681818 181.210104 
L 86.298797 181.099836 
L 88.764706 180.792457 
L 91.168449 180.268564 
L 93.65508 179.49649 
L 96.245321 178.456529 
L 98.980615 177.114619 
L 101.860963 175.450713 
L 104.927807 173.418611 
L 108.201872 170.978789 
L 111.724599 168.070962 
L 115.516711 164.647436 
L 119.640374 160.619393 
L 124.178476 155.867457 
L 129.193182 150.285749 
L 134.850267 143.645926 
L 141.33623 135.681885 
L 149.169118 125.701053 
L 159.985963 111.526092 
L 189.784091 72.308167 
L 200.10361 59.207128 
L 206.610294 51.248579 
L 209.490642 48.096004 
L 212.205214 45.449821 
L 214.899064 43.131497 
L 217.592914 41.10408 
L 220.307487 39.337939 
L 223.042781 37.82212 
L 225.819519 36.537092 
L 228.637701 35.477418 
L 231.518048 34.632026 
L 234.460561 33.999505 
L 237.506684 33.57331 
L 240.656417 33.359066 
L 243.930481 33.361446 
L 247.349599 33.588772 
L 250.934492 34.052364 
L 254.705882 34.765868 
L 258.725936 35.755873 
L 263.015374 37.045 
L 267.615642 38.662832 
L 272.609626 40.658401 
L 278.100936 43.097427 
L 284.193182 46.051943 
L 291.135027 49.672544 
L 299.299465 54.190257 
L 309.660428 60.191485 
L 311.318182 61.17 
L 311.318182 61.17 
" style="fill:none;stroke:#9467bd;stroke-linecap:square;stroke-width:3;"/>
   </g>
   <g id="patch_3">
    <path d="M 45 189 
L 45 25.92 
" style="fill:none;stroke:#000000;stroke-linecap:square;stroke-linejoin:miter;stroke-width:0.8;"/>
   </g>
   <g id="patch_4">
    <path d="M 324 189 
L 324 25.92 
" style="fill:none;stroke:#000000;stroke-linecap:square;stroke-linejoin:miter;stroke-width:0.8;"/>
   </g>
   <g id="patch_5">
    <path d="M 45 189 
L 324 189 
" style="fill:none;stroke:#000000;stroke-linecap:square;stroke-linejoin:miter;stroke-width:0.8;"/>
   </g>
   <g id="patch_6">
    <path d="M 45 25.92 
L 324 25.92 
" style="fill:none;stroke:#000000;stroke-linecap:square;stroke-linejoin:miter;stroke-width:0.8;"/>
   </g>
  </g>
 </g>
 <defs>
  <clipPath id="pf60a8013b3">
   <rect height="163.08" width="279" x="45" y="25.92"/>
  </clipPath>
 </defs>
</svg>
