<?xml version="1.0" encoding="utf-8" standalone="no"?>
<!DOCTYPE svg PUBLIC "-//W3C//DTD SVG 1.1//EN"
  "http://www.w3.org/Graphics/SVG/1.1/DTD/svg11.dtd">
<!-- Created with matplotlib (https://matplotlib.org/) -->
<svg height="216pt" version="1.1" viewBox="0 0 360 216" width="360pt" xmlns="http://www.w3.org/2000/svg" xmlns:xlink="http://www.w3.org/1999/xlink">
 <metadata>
  <rdf:RDF xmlns:cc="http://creativecommons.org/ns#" xmlns:dc="http://purl.org/dc/elements/1.1/" xmlns:rdf="http://www.w3.org/1999/02/22-rdf-syntax-ns#">
   <cc:Work>
    <dc:type rdf:resource="http://purl.org/dc/dcmitype/StillImage"/>
    <dc:date>2024-12-06T08:59:21.155616</dc:date>
    <dc:format>image/svg+xml</dc:format>
    <dc:creator>
     <cc:Agent>
      <dc:title>Matplotlib v3.3.2, https://matplotlib.org/</dc:title>
     </cc:Agent>
    </dc:creator>
   </cc:Work>
  </rdf:RDF>
 </metadata>
 <defs>
  <style type="text/css">*{stroke-linecap:butt;stroke-linejoin:round;}</style>
 </defs>
 <g id="figure_1">
  <g id="patch_1">
   <path d="M 0 216 
L 360 216 
L 360 0 
L 0 0 
z
" style="fill:none;"/>
  </g>
  <g id="axes_1">
   <g id="patch_2">
    <path d="M 45 189 
L 324 189 
L 324 25.92 
L 45 25.92 
z
" style="fill:#ffffff;"/>
   </g>
   <g id="PathCollection_1">
    <path clip-path="url(#pfd31e0d80c)" d="M 62.65508 183.619657 
C 63.592715 183.619657 64.492072 183.247131 65.15508 182.584123 
C 65.818088 181.921115 66.190614 181.021758 66.190614 180.084123 
C 66.190614 179.146489 65.818088 178.247131 65.15508 177.584123 
C 64.492072 176.921115 63.592715 176.548589 62.65508 176.548589 
C 61.717446 176.548589 60.818088 176.921115 60.15508 177.584123 
C 59.492072 178.247131 59.119546 179.146489 59.119546 180.084123 
C 59.119546 181.021758 59.492072 181.921115 60.15508 182.584123 
C 60.818088 183.247131 61.717446 183.619657 62.65508 183.619657 
z
" style="fill:none;stroke:#ff9896;"/>
   </g>
   <g id="PathCollection_2">
    <path clip-path="url(#pfd31e0d80c)" d="M 67.628342 185.007355 
C 68.565977 185.007355 69.465334 184.634828 70.128342 183.971821 
C 70.79135 183.308813 71.163876 182.409455 71.163876 181.471821 
C 71.163876 180.534186 70.79135 179.634828 70.128342 178.971821 
C 69.465334 178.308813 68.565977 177.936287 67.628342 177.936287 
C 66.690708 177.936287 65.79135 178.308813 65.128342 178.971821 
C 64.465334 179.634828 64.092808 180.534186 64.092808 181.471821 
C 64.092808 182.409455 64.465334 183.308813 65.128342 183.971821 
C 65.79135 184.634828 66.690708 185.007355 67.628342 185.007355 
z
" style="fill:none;stroke:#ff9896;"/>
   </g>
   <g id="PathCollection_3">
    <path clip-path="url(#pfd31e0d80c)" d="M 72.601604 185.122807 
C 73.539239 185.122807 74.438597 184.75028 75.101604 184.087273 
C 75.764612 183.424265 76.137138 182.524907 76.137138 181.587273 
C 76.137138 180.649638 75.764612 179.75028 75.101604 179.087273 
C 74.438597 178.424265 73.539239 178.051739 72.601604 178.051739 
C 71.66397 178.051739 70.764612 178.424265 70.101604 179.087273 
C 69.438597 179.75028 69.06607 180.649638 69.06607 181.587273 
C 69.06607 182.524907 69.438597 183.424265 70.101604 184.087273 
C 70.764612 184.75028 71.66397 185.122807 72.601604 185.122807 
z
" style="fill:none;stroke:#ff9896;"/>
   </g>
   <g id="PathCollection_4">
    <path clip-path="url(#pfd31e0d80c)" d="M 77.574866 184.292645 
C 78.512501 184.292645 79.411859 183.920119 80.074866 183.257111 
C 80.737874 182.594103 81.1104 181.694746 81.1104 180.757111 
C 81.1104 179.819476 80.737874 178.920119 80.074866 178.257111 
C 79.411859 177.594103 78.512501 177.221577 77.574866 177.221577 
C 76.637232 177.221577 75.737874 177.594103 75.074866 178.257111 
C 74.411859 178.920119 74.039332 179.819476 74.039332 180.757111 
C 74.039332 181.694746 74.411859 182.594103 75.074866 183.257111 
C 75.737874 183.920119 76.637232 184.292645 77.574866 184.292645 
z
" style="fill:none;stroke:#ff9896;"/>
   </g>
   <g id="PathCollection_5">
    <path clip-path="url(#pfd31e0d80c)" d="M 82.548128 182.751856 
C 83.485763 182.751856 84.385121 182.37933 85.048128 181.716322 
C 85.711136 181.053315 86.083662 180.153957 86.083662 179.216322 
C 86.083662 178.278688 85.711136 177.37933 85.048128 176.716322 
C 84.385121 176.053315 83.485763 175.680789 82.548128 175.680789 
C 81.610494 175.680789 80.711136 176.053315 80.048128 176.716322 
C 79.385121 177.37933 79.012594 178.278688 79.012594 179.216322 
C 79.012594 180.153957 79.385121 181.053315 80.048128 181.716322 
C 80.711136 182.37933 81.610494 182.751856 82.548128 182.751856 
z
" style="fill:none;stroke:#ff9896;"/>
   </g>
   <g id="PathCollection_6">
    <path clip-path="url(#pfd31e0d80c)" d="M 87.52139 180.656783 
C 88.459025 180.656783 89.358383 180.284257 90.02139 179.621249 
C 90.684398 178.958241 91.056924 178.058883 91.056924 177.121249 
C 91.056924 176.183614 90.684398 175.284257 90.02139 174.621249 
C 89.358383 173.958241 88.459025 173.585715 87.52139 173.585715 
C 86.583756 173.585715 85.684398 173.958241 85.02139 174.621249 
C 84.358383 175.284257 83.985856 176.183614 83.985856 177.121249 
C 83.985856 178.058883 84.358383 178.958241 85.02139 179.621249 
C 85.684398 180.284257 86.583756 180.656783 87.52139 180.656783 
z
" style="fill:none;stroke:#ff9896;"/>
   </g>
   <g id="PathCollection_7">
    <path clip-path="url(#pfd31e0d80c)" d="M 92.494652 178.106964 
C 93.432287 178.106964 94.331645 177.734437 94.994652 177.07143 
C 95.65766 176.408422 96.030186 175.509064 96.030186 174.57143 
C 96.030186 173.633795 95.65766 172.734437 94.994652 172.07143 
C 94.331645 171.408422 93.432287 171.035896 92.494652 171.035896 
C 91.557018 171.035896 90.65766 171.408422 89.994652 172.07143 
C 89.331645 172.734437 88.959119 173.633795 88.959119 174.57143 
C 88.959119 175.509064 89.331645 176.408422 89.994652 177.07143 
C 90.65766 177.734437 91.557018 178.106964 92.494652 178.106964 
z
" style="fill:none;stroke:#ff9896;"/>
   </g>
   <g id="PathCollection_8">
    <path clip-path="url(#pfd31e0d80c)" d="M 97.467914 175.156885 
C 98.405549 175.156885 99.304907 174.784359 99.967914 174.121352 
C 100.630922 173.458344 101.003448 172.558986 101.003448 171.621352 
C 101.003448 170.683717 100.630922 169.784359 99.967914 169.121352 
C 99.304907 168.458344 98.405549 168.085818 97.467914 168.085818 
C 96.53028 168.085818 95.630922 168.458344 94.967914 169.121352 
C 94.304907 169.784359 93.932381 170.683717 93.932381 171.621352 
C 93.932381 172.558986 94.304907 173.458344 94.967914 174.121352 
C 95.630922 174.784359 96.53028 175.156885 97.467914 175.156885 
z
" style="fill:none;stroke:#ff9896;"/>
   </g>
   <g id="PathCollection_9">
    <path clip-path="url(#pfd31e0d80c)" d="M 102.441176 171.82916 
C 103.378811 171.82916 104.278169 171.456634 104.941176 170.793627 
C 105.604184 170.130619 105.97671 169.231261 105.97671 168.293627 
C 105.97671 167.355992 105.604184 166.456634 104.941176 165.793627 
C 104.278169 165.130619 103.378811 164.758093 102.441176 164.758093 
C 101.503542 164.758093 100.604184 165.130619 99.941176 165.793627 
C 99.278169 166.456634 98.905643 167.355992 98.905643 168.293627 
C 98.905643 169.231261 99.278169 170.130619 99.941176 170.793627 
C 100.604184 171.456634 101.503542 171.82916 102.441176 171.82916 
z
" style="fill:none;stroke:#ff9896;"/>
   </g>
   <g id="PathCollection_10">
    <path clip-path="url(#pfd31e0d80c)" d="M 107.414439 168.125423 
C 108.352073 168.125423 109.251431 167.752897 109.914439 167.089889 
C 110.577446 166.426881 110.949972 165.527524 110.949972 164.589889 
C 110.949972 163.652254 110.577446 162.752897 109.914439 162.089889 
C 109.251431 161.426881 108.352073 161.054355 107.414439 161.054355 
C 106.476804 161.054355 105.577446 161.426881 104.914439 162.089889 
C 104.251431 162.752897 103.878905 163.652254 103.878905 164.589889 
C 103.878905 165.527524 104.251431 166.426881 104.914439 167.089889 
C 105.577446 167.752897 106.476804 168.125423 107.414439 168.125423 
z
" style="fill:none;stroke:#ff9896;"/>
   </g>
   <g id="PathCollection_11">
    <path clip-path="url(#pfd31e0d80c)" d="M 112.387701 164.035588 
C 113.325335 164.035588 114.224693 163.663062 114.887701 163.000054 
C 115.550708 162.337047 115.923234 161.437689 115.923234 160.500054 
C 115.923234 159.56242 115.550708 158.663062 114.887701 158.000054 
C 114.224693 157.337047 113.325335 156.96452 112.387701 156.96452 
C 111.450066 156.96452 110.550708 157.337047 109.887701 158.000054 
C 109.224693 158.663062 108.852167 159.56242 108.852167 160.500054 
C 108.852167 161.437689 109.224693 162.337047 109.887701 163.000054 
C 110.550708 163.663062 111.450066 164.035588 112.387701 164.035588 
z
" style="fill:none;stroke:#ff9896;"/>
   </g>
   <g id="PathCollection_12">
    <path clip-path="url(#pfd31e0d80c)" d="M 117.360963 159.545572 
C 118.298597 159.545572 119.197955 159.173046 119.860963 158.510038 
C 120.52397 157.84703 120.896496 156.947673 120.896496 156.010038 
C 120.896496 155.072404 120.52397 154.173046 119.860963 153.510038 
C 119.197955 152.84703 118.298597 152.474504 117.360963 152.474504 
C 116.423328 152.474504 115.52397 152.84703 114.860963 153.510038 
C 114.197955 154.173046 113.825429 155.072404 113.825429 156.010038 
C 113.825429 156.947673 114.197955 157.84703 114.860963 158.510038 
C 115.52397 159.173046 116.423328 159.545572 117.360963 159.545572 
z
" style="fill:none;stroke:#ff9896;"/>
   </g>
   <g id="PathCollection_13">
    <path clip-path="url(#pfd31e0d80c)" d="M 122.334225 154.643568 
C 123.271859 154.643568 124.171217 154.271042 124.834225 153.608034 
C 125.497232 152.945026 125.869759 152.045669 125.869759 151.108034 
C 125.869759 150.1704 125.497232 149.271042 124.834225 148.608034 
C 124.171217 147.945026 123.271859 147.5725 122.334225 147.5725 
C 121.39659 147.5725 120.497232 147.945026 119.834225 148.608034 
C 119.171217 149.271042 118.798691 150.1704 118.798691 151.108034 
C 118.798691 152.045669 119.171217 152.945026 119.834225 153.608034 
C 120.497232 154.271042 121.39659 154.643568 122.334225 154.643568 
z
" style="fill:none;stroke:#ff9896;"/>
   </g>
   <g id="PathCollection_14">
    <path clip-path="url(#pfd31e0d80c)" d="M 127.307487 149.324984 
C 128.245121 149.324984 129.144479 148.952458 129.807487 148.28945 
C 130.470494 147.626442 130.843021 146.727085 130.843021 145.78945 
C 130.843021 144.851816 130.470494 143.952458 129.807487 143.28945 
C 129.144479 142.626442 128.245121 142.253916 127.307487 142.253916 
C 126.369852 142.253916 125.470494 142.626442 124.807487 143.28945 
C 124.144479 143.952458 123.771953 144.851816 123.771953 145.78945 
C 123.771953 146.727085 124.144479 147.626442 124.807487 148.28945 
C 125.470494 148.952458 126.369852 149.324984 127.307487 149.324984 
z
" style="fill:none;stroke:#ff9896;"/>
   </g>
   <g id="PathCollection_15">
    <path clip-path="url(#pfd31e0d80c)" d="M 132.280749 143.596134 
C 133.218383 143.596134 134.117741 143.223608 134.780749 142.5606 
C 135.443756 141.897592 135.816283 140.998235 135.816283 140.0606 
C 135.816283 139.122966 135.443756 138.223608 134.780749 137.5606 
C 134.117741 136.897592 133.218383 136.525066 132.280749 136.525066 
C 131.343114 136.525066 130.443756 136.897592 129.780749 137.5606 
C 129.117741 138.223608 128.745215 139.122966 128.745215 140.0606 
C 128.745215 140.998235 129.117741 141.897592 129.780749 142.5606 
C 130.443756 143.223608 131.343114 143.596134 132.280749 143.596134 
z
" style="fill:none;stroke:#ff9896;"/>
   </g>
   <g id="PathCollection_16">
    <path clip-path="url(#pfd31e0d80c)" d="M 137.254011 137.476786 
C 138.191645 137.476786 139.091003 137.10426 139.754011 136.441252 
C 140.417018 135.778245 140.789545 134.878887 140.789545 133.941252 
C 140.789545 133.003618 140.417018 132.10426 139.754011 131.441252 
C 139.091003 130.778245 138.191645 130.405719 137.254011 130.405719 
C 136.316376 130.405719 135.417018 130.778245 134.754011 131.441252 
C 134.091003 132.10426 133.718477 133.003618 133.718477 133.941252 
C 133.718477 134.878887 134.091003 135.778245 134.754011 136.441252 
C 135.417018 137.10426 136.316376 137.476786 137.254011 137.476786 
z
" style="fill:none;stroke:#ff9896;"/>
   </g>
   <g id="PathCollection_17">
    <path clip-path="url(#pfd31e0d80c)" d="M 142.227273 131.001664 
C 143.164907 131.001664 144.064265 130.629137 144.727273 129.96613 
C 145.39028 129.303122 145.762807 128.403764 145.762807 127.46613 
C 145.762807 126.528495 145.39028 125.629137 144.727273 124.96613 
C 144.064265 124.303122 143.164907 123.930596 142.227273 123.930596 
C 141.289638 123.930596 140.39028 124.303122 139.727273 124.96613 
C 139.064265 125.629137 138.691739 126.528495 138.691739 127.46613 
C 138.691739 128.403764 139.064265 129.303122 139.727273 129.96613 
C 140.39028 130.629137 141.289638 131.001664 142.227273 131.001664 
z
" style="fill:none;stroke:#ff9896;"/>
   </g>
   <g id="PathCollection_18">
    <path clip-path="url(#pfd31e0d80c)" d="M 147.200535 124.220997 
C 148.138169 124.220997 149.037527 123.848471 149.700535 123.185464 
C 150.363543 122.522456 150.736069 121.623098 150.736069 120.685464 
C 150.736069 119.747829 150.363543 118.848471 149.700535 118.185464 
C 149.037527 117.522456 148.138169 117.14993 147.200535 117.14993 
C 146.2629 117.14993 145.363543 117.522456 144.700535 118.185464 
C 144.037527 118.848471 143.665001 119.747829 143.665001 120.685464 
C 143.665001 121.623098 144.037527 122.522456 144.700535 123.185464 
C 145.363543 123.848471 146.2629 124.220997 147.200535 124.220997 
z
" style="fill:none;stroke:#ff9896;"/>
   </g>
   <g id="PathCollection_19">
    <path clip-path="url(#pfd31e0d80c)" d="M 152.173797 117.200233 
C 153.111431 117.200233 154.010789 116.827707 154.673797 116.164699 
C 155.336805 115.501692 155.709331 114.602334 155.709331 113.664699 
C 155.709331 112.727065 155.336805 111.827707 154.673797 111.164699 
C 154.010789 110.501692 153.111431 110.129165 152.173797 110.129165 
C 151.236162 110.129165 150.336805 110.501692 149.673797 111.164699 
C 149.010789 111.827707 148.638263 112.727065 148.638263 113.664699 
C 148.638263 114.602334 149.010789 115.501692 149.673797 116.164699 
C 150.336805 116.827707 151.236162 117.200233 152.173797 117.200233 
z
" style="fill:none;stroke:#ff9896;"/>
   </g>
   <g id="PathCollection_20">
    <path clip-path="url(#pfd31e0d80c)" d="M 157.147059 110.018984 
C 158.084693 110.018984 158.984051 109.646458 159.647059 108.98345 
C 160.310067 108.320442 160.682593 107.421084 160.682593 106.48345 
C 160.682593 105.545815 160.310067 104.646458 159.647059 103.98345 
C 158.984051 103.320442 158.084693 102.947916 157.147059 102.947916 
C 156.209424 102.947916 155.310067 103.320442 154.647059 103.98345 
C 153.984051 104.646458 153.611525 105.545815 153.611525 106.48345 
C 153.611525 107.421084 153.984051 108.320442 154.647059 108.98345 
C 155.310067 109.646458 156.209424 110.018984 157.147059 110.018984 
z
" style="fill:none;stroke:#ff9896;"/>
   </g>
   <g id="PathCollection_21">
    <path clip-path="url(#pfd31e0d80c)" d="M 162.120321 102.769334 
C 163.057955 102.769334 163.957313 102.396807 164.620321 101.7338 
C 165.283329 101.070792 165.655855 100.171434 165.655855 99.2338 
C 165.655855 98.296165 165.283329 97.396807 164.620321 96.7338 
C 163.957313 96.070792 163.057955 95.698266 162.120321 95.698266 
C 161.182686 95.698266 160.283329 96.070792 159.620321 96.7338 
C 158.957313 97.396807 158.584787 98.296165 158.584787 99.2338 
C 158.584787 100.171434 158.957313 101.070792 159.620321 101.7338 
C 160.283329 102.396807 161.182686 102.769334 162.120321 102.769334 
z
" style="fill:none;stroke:#ff9896;"/>
   </g>
   <g id="PathCollection_22">
    <path clip-path="url(#pfd31e0d80c)" d="M 167.093583 95.553589 
C 168.031217 95.553589 168.930575 95.181062 169.593583 94.518055 
C 170.256591 93.855047 170.629117 92.955689 170.629117 92.018055 
C 170.629117 91.08042 170.256591 90.181062 169.593583 89.518055 
C 168.930575 88.855047 168.031217 88.482521 167.093583 88.482521 
C 166.155948 88.482521 165.256591 88.855047 164.593583 89.518055 
C 163.930575 90.181062 163.558049 91.08042 163.558049 92.018055 
C 163.558049 92.955689 163.930575 93.855047 164.593583 94.518055 
C 165.256591 95.181062 166.155948 95.553589 167.093583 95.553589 
z
" style="fill:none;stroke:#ff9896;"/>
   </g>
   <g id="PathCollection_23">
    <path clip-path="url(#pfd31e0d80c)" d="M 172.066845 88.481572 
C 173.004479 88.481572 173.903837 88.109046 174.566845 87.446038 
C 175.229853 86.78303 175.602379 85.883673 175.602379 84.946038 
C 175.602379 84.008404 175.229853 83.109046 174.566845 82.446038 
C 173.903837 81.78303 173.004479 81.410504 172.066845 81.410504 
C 171.12921 81.410504 170.229853 81.78303 169.566845 82.446038 
C 168.903837 83.109046 168.531311 84.008404 168.531311 84.946038 
C 168.531311 85.883673 168.903837 86.78303 169.566845 87.446038 
C 170.229853 88.109046 171.12921 88.481572 172.066845 88.481572 
z
" style="fill:none;stroke:#ff9896;"/>
   </g>
   <g id="PathCollection_24">
    <path clip-path="url(#pfd31e0d80c)" d="M 177.040107 81.667566 
C 177.977742 81.667566 178.877099 81.29504 179.540107 80.632032 
C 180.203115 79.969025 180.575641 79.069667 180.575641 78.132032 
C 180.575641 77.194398 180.203115 76.29504 179.540107 75.632032 
C 178.877099 74.969025 177.977742 74.596498 177.040107 74.596498 
C 176.102472 74.596498 175.203115 74.969025 174.540107 75.632032 
C 173.877099 76.29504 173.504573 77.194398 173.504573 78.132032 
C 173.504573 79.069667 173.877099 79.969025 174.540107 80.632032 
C 175.203115 81.29504 176.102472 81.667566 177.040107 81.667566 
z
" style="fill:none;stroke:#ff9896;"/>
   </g>
   <g id="PathCollection_25">
    <path clip-path="url(#pfd31e0d80c)" d="M 182.013369 75.226996 
C 182.951004 75.226996 183.850361 74.85447 184.513369 74.191463 
C 185.176377 73.528455 185.548903 72.629097 185.548903 71.691463 
C 185.548903 70.753828 185.176377 69.85447 184.513369 69.191463 
C 183.850361 68.528455 182.951004 68.155929 182.013369 68.155929 
C 181.075734 68.155929 180.176377 68.528455 179.513369 69.191463 
C 178.850361 69.85447 178.477835 70.753828 178.477835 71.691463 
C 178.477835 72.629097 178.850361 73.528455 179.513369 74.191463 
C 180.176377 74.85447 181.075734 75.226996 182.013369 75.226996 
z
" style="fill:none;stroke:#ff9896;"/>
   </g>
   <g id="PathCollection_26">
    <path clip-path="url(#pfd31e0d80c)" d="M 186.986631 69.272955 
C 187.924266 69.272955 188.823623 68.900429 189.486631 68.237421 
C 190.149639 67.574414 190.522165 66.675056 190.522165 65.737421 
C 190.522165 64.799787 190.149639 63.900429 189.486631 63.237421 
C 188.823623 62.574414 187.924266 62.201887 186.986631 62.201887 
C 186.048996 62.201887 185.149639 62.574414 184.486631 63.237421 
C 183.823623 63.900429 183.451097 64.799787 183.451097 65.737421 
C 183.451097 66.675056 183.823623 67.574414 184.486631 68.237421 
C 185.149639 68.900429 186.048996 69.272955 186.986631 69.272955 
z
" style="fill:none;stroke:#ff9896;"/>
   </g>
   <g id="PathCollection_27">
    <path clip-path="url(#pfd31e0d80c)" d="M 191.959893 63.912671 
C 192.897528 63.912671 193.796885 63.540145 194.459893 62.877137 
C 195.122901 62.214129 195.495427 61.314771 195.495427 60.377137 
C 195.495427 59.439502 195.122901 58.540145 194.459893 57.877137 
C 193.796885 57.214129 192.897528 56.841603 191.959893 56.841603 
C 191.022258 56.841603 190.122901 57.214129 189.459893 57.877137 
C 188.796885 58.540145 188.424359 59.439502 188.424359 60.377137 
C 188.424359 61.314771 188.796885 62.214129 189.459893 62.877137 
C 190.122901 63.540145 191.022258 63.912671 191.959893 63.912671 
z
" style="fill:none;stroke:#ff9896;"/>
   </g>
   <g id="PathCollection_28">
    <path clip-path="url(#pfd31e0d80c)" d="M 196.933155 59.244011 
C 197.87079 59.244011 198.770147 58.871485 199.433155 58.208478 
C 200.096163 57.54547 200.468689 56.646112 200.468689 55.708478 
C 200.468689 54.770843 200.096163 53.871485 199.433155 53.208478 
C 198.770147 52.54547 197.87079 52.172944 196.933155 52.172944 
C 195.995521 52.172944 195.096163 52.54547 194.433155 53.208478 
C 193.770147 53.871485 193.397621 54.770843 193.397621 55.708478 
C 193.397621 56.646112 193.770147 57.54547 194.433155 58.208478 
C 195.096163 58.871485 195.995521 59.244011 196.933155 59.244011 
z
" style="fill:none;stroke:#ff9896;"/>
   </g>
   <g id="PathCollection_29">
    <path clip-path="url(#pfd31e0d80c)" d="M 201.906417 55.352131 
C 202.844052 55.352131 203.743409 54.979605 204.406417 54.316597 
C 205.069425 53.653589 205.441951 52.754231 205.441951 51.816597 
C 205.441951 50.878962 205.069425 49.979605 204.406417 49.316597 
C 203.743409 48.653589 202.844052 48.281063 201.906417 48.281063 
C 200.968783 48.281063 200.069425 48.653589 199.406417 49.316597 
C 198.743409 49.979605 198.370883 50.878962 198.370883 51.816597 
C 198.370883 52.754231 198.743409 53.653589 199.406417 54.316597 
C 200.069425 54.979605 200.968783 55.352131 201.906417 55.352131 
z
" style="fill:none;stroke:#ff9896;"/>
   </g>
   <g id="PathCollection_30">
    <path clip-path="url(#pfd31e0d80c)" d="M 206.879679 52.306346 
C 207.817314 52.306346 208.716671 51.93382 209.379679 51.270812 
C 210.042687 50.607804 210.415213 49.708447 210.415213 48.770812 
C 210.415213 47.833178 210.042687 46.93382 209.379679 46.270812 
C 208.716671 45.607804 207.817314 45.235278 206.879679 45.235278 
C 205.942045 45.235278 205.042687 45.607804 204.379679 46.270812 
C 203.716671 46.93382 203.344145 47.833178 203.344145 48.770812 
C 203.344145 49.708447 203.716671 50.607804 204.379679 51.270812 
C 205.042687 51.93382 205.942045 52.306346 206.879679 52.306346 
z
" style="fill:none;stroke:#ff9896;"/>
   </g>
   <g id="PathCollection_31">
    <path clip-path="url(#pfd31e0d80c)" d="M 211.852941 50.157356 
C 212.790576 50.157356 213.689933 49.784829 214.352941 49.121822 
C 215.015949 48.458814 215.388475 47.559456 215.388475 46.621822 
C 215.388475 45.684187 215.015949 44.784829 214.352941 44.121822 
C 213.689933 43.458814 212.790576 43.086288 211.852941 43.086288 
C 210.915307 43.086288 210.015949 43.458814 209.352941 44.121822 
C 208.689933 44.784829 208.317407 45.684187 208.317407 46.621822 
C 208.317407 47.559456 208.689933 48.458814 209.352941 49.121822 
C 210.015949 49.784829 210.915307 50.157356 211.852941 50.157356 
z
" style="fill:none;stroke:#ff9896;"/>
   </g>
   <g id="PathCollection_32">
    <path clip-path="url(#pfd31e0d80c)" d="M 216.826203 48.934888 
C 217.763838 48.934888 218.663195 48.562362 219.326203 47.899354 
C 219.989211 47.236346 220.361737 46.336989 220.361737 45.399354 
C 220.361737 44.461719 219.989211 43.562362 219.326203 42.899354 
C 218.663195 42.236346 217.763838 41.86382 216.826203 41.86382 
C 215.888569 41.86382 214.989211 42.236346 214.326203 42.899354 
C 213.663195 43.562362 213.290669 44.461719 213.290669 45.399354 
C 213.290669 46.336989 213.663195 47.236346 214.326203 47.899354 
C 214.989211 48.562362 215.888569 48.934888 216.826203 48.934888 
z
" style="fill:none;stroke:#ff9896;"/>
   </g>
   <g id="PathCollection_33">
    <path clip-path="url(#pfd31e0d80c)" d="M 221.799465 48.645884 
C 222.7371 48.645884 223.636457 48.273357 224.299465 47.61035 
C 224.962473 46.947342 225.334999 46.047984 225.334999 45.11035 
C 225.334999 44.172715 224.962473 43.273357 224.299465 42.61035 
C 223.636457 41.947342 222.7371 41.574816 221.799465 41.574816 
C 220.861831 41.574816 219.962473 41.947342 219.299465 42.61035 
C 218.636457 43.273357 218.263931 44.172715 218.263931 45.11035 
C 218.263931 46.047984 218.636457 46.947342 219.299465 47.61035 
C 219.962473 48.273357 220.861831 48.645884 221.799465 48.645884 
z
" style="fill:none;stroke:#ff9896;"/>
   </g>
   <g id="PathCollection_34">
    <path clip-path="url(#pfd31e0d80c)" d="M 226.772727 49.273309 
C 227.710362 49.273309 228.60972 48.900783 229.272727 48.237775 
C 229.935735 47.574768 230.308261 46.67541 230.308261 45.737775 
C 230.308261 44.800141 229.935735 43.900783 229.272727 43.237775 
C 228.60972 42.574768 227.710362 42.202242 226.772727 42.202242 
C 225.835093 42.202242 224.935735 42.574768 224.272727 43.237775 
C 223.60972 43.900783 223.237193 44.800141 223.237193 45.737775 
C 223.237193 46.67541 223.60972 47.574768 224.272727 48.237775 
C 224.935735 48.900783 225.835093 49.273309 226.772727 49.273309 
z
" style="fill:none;stroke:#ff9896;"/>
   </g>
   <g id="PathCollection_35">
    <path clip-path="url(#pfd31e0d80c)" d="M 231.745989 50.775702 
C 232.683624 50.775702 233.582982 50.403175 234.245989 49.740168 
C 234.908997 49.07716 235.281523 48.177802 235.281523 47.240168 
C 235.281523 46.302533 234.908997 45.403175 234.245989 44.740168 
C 233.582982 44.07716 232.683624 43.704634 231.745989 43.704634 
C 230.808355 43.704634 229.908997 44.07716 229.245989 44.740168 
C 228.582982 45.403175 228.210455 46.302533 228.210455 47.240168 
C 228.210455 48.177802 228.582982 49.07716 229.245989 49.740168 
C 229.908997 50.403175 230.808355 50.775702 231.745989 50.775702 
z
" style="fill:none;stroke:#ff9896;"/>
   </g>
   <g id="PathCollection_36">
    <path clip-path="url(#pfd31e0d80c)" d="M 236.719251 53.08754 
C 237.656886 53.08754 238.556244 52.715014 239.219251 52.052006 
C 239.882259 51.388998 240.254785 50.48964 240.254785 49.552006 
C 240.254785 48.614371 239.882259 47.715014 239.219251 47.052006 
C 238.556244 46.388998 237.656886 46.016472 236.719251 46.016472 
C 235.781617 46.016472 234.882259 46.388998 234.219251 47.052006 
C 233.556244 47.715014 233.183717 48.614371 233.183717 49.552006 
C 233.183717 50.48964 233.556244 51.388998 234.219251 52.052006 
C 234.882259 52.715014 235.781617 53.08754 236.719251 53.08754 
z
" style="fill:none;stroke:#ff9896;"/>
   </g>
   <g id="PathCollection_37">
    <path clip-path="url(#pfd31e0d80c)" d="M 241.692513 56.120545 
C 242.630148 56.120545 243.529506 55.748019 244.192513 55.085011 
C 244.855521 54.422003 245.228047 53.522646 245.228047 52.585011 
C 245.228047 51.647377 244.855521 50.748019 244.192513 50.085011 
C 243.529506 49.422003 242.630148 49.049477 241.692513 49.049477 
C 240.754879 49.049477 239.855521 49.422003 239.192513 50.085011 
C 238.529506 50.748019 238.156979 51.647377 238.156979 52.585011 
C 238.156979 53.522646 238.529506 54.422003 239.192513 55.085011 
C 239.855521 55.748019 240.754879 56.120545 241.692513 56.120545 
z
" style="fill:none;stroke:#ff9896;"/>
   </g>
   <g id="PathCollection_38">
    <path clip-path="url(#pfd31e0d80c)" d="M 246.665775 59.766006 
C 247.60341 59.766006 248.502768 59.39348 249.165775 58.730472 
C 249.828783 58.067465 250.201309 57.168107 250.201309 56.230472 
C 250.201309 55.292838 249.828783 54.39348 249.165775 53.730472 
C 248.502768 53.067465 247.60341 52.694938 246.665775 52.694938 
C 245.728141 52.694938 244.828783 53.067465 244.165775 53.730472 
C 243.502768 54.39348 243.130241 55.292838 243.130241 56.230472 
C 243.130241 57.168107 243.502768 58.067465 244.165775 58.730472 
C 244.828783 59.39348 245.728141 59.766006 246.665775 59.766006 
z
" style="fill:none;stroke:#ff9896;"/>
   </g>
   <g id="PathCollection_39">
    <path clip-path="url(#pfd31e0d80c)" d="M 251.639037 63.898232 
C 252.576672 63.898232 253.47603 63.525706 254.139037 62.862698 
C 254.802045 62.19969 255.174571 61.300332 255.174571 60.362698 
C 255.174571 59.425063 254.802045 58.525706 254.139037 57.862698 
C 253.47603 57.19969 252.576672 56.827164 251.639037 56.827164 
C 250.701403 56.827164 249.802045 57.19969 249.139037 57.862698 
C 248.47603 58.525706 248.103504 59.425063 248.103504 60.362698 
C 248.103504 61.300332 248.47603 62.19969 249.139037 62.862698 
C 249.802045 63.525706 250.701403 63.898232 251.639037 63.898232 
z
" style="fill:none;stroke:#ff9896;"/>
   </g>
   <g id="PathCollection_40">
    <path clip-path="url(#pfd31e0d80c)" d="M 256.612299 68.379223 
C 257.549934 68.379223 258.449292 68.006696 259.112299 67.343689 
C 259.775307 66.680681 260.147833 65.781323 260.147833 64.843689 
C 260.147833 63.906054 259.775307 63.006696 259.112299 62.343689 
C 258.449292 61.680681 257.549934 61.308155 256.612299 61.308155 
C 255.674665 61.308155 254.775307 61.680681 254.112299 62.343689 
C 253.449292 63.006696 253.076766 63.906054 253.076766 64.843689 
C 253.076766 65.781323 253.449292 66.680681 254.112299 67.343689 
C 254.775307 68.006696 255.674665 68.379223 256.612299 68.379223 
z
" style="fill:none;stroke:#ff9896;"/>
   </g>
   <g id="PathCollection_41">
    <path clip-path="url(#pfd31e0d80c)" d="M 261.585561 73.064669 
C 262.523196 73.064669 263.422554 72.692143 264.085561 72.029135 
C 264.748569 71.366127 265.121095 70.46677 265.121095 69.529135 
C 265.121095 68.5915 264.748569 67.692143 264.085561 67.029135 
C 263.422554 66.366127 262.523196 65.993601 261.585561 65.993601 
C 260.647927 65.993601 259.748569 66.366127 259.085561 67.029135 
C 258.422554 67.692143 258.050028 68.5915 258.050028 69.529135 
C 258.050028 70.46677 258.422554 71.366127 259.085561 72.029135 
C 259.748569 72.692143 260.647927 73.064669 261.585561 73.064669 
z
" style="fill:none;stroke:#ff9896;"/>
   </g>
   <g id="PathCollection_42">
    <path clip-path="url(#pfd31e0d80c)" d="M 266.558824 77.811367 
C 267.496458 77.811367 268.395816 77.438841 269.058824 76.775833 
C 269.721831 76.112825 270.094357 75.213468 270.094357 74.275833 
C 270.094357 73.338198 269.721831 72.438841 269.058824 71.775833 
C 268.395816 71.112825 267.496458 70.740299 266.558824 70.740299 
C 265.621189 70.740299 264.721831 71.112825 264.058824 71.775833 
C 263.395816 72.438841 263.02329 73.338198 263.02329 74.275833 
C 263.02329 75.213468 263.395816 76.112825 264.058824 76.775833 
C 264.721831 77.438841 265.621189 77.811367 266.558824 77.811367 
z
" style="fill:none;stroke:#ff9896;"/>
   </g>
   <g id="PathCollection_43">
    <path clip-path="url(#pfd31e0d80c)" d="M 271.532086 82.486156 
C 272.46972 82.486156 273.369078 82.11363 274.032086 81.450623 
C 274.695093 80.787615 275.067619 79.888257 275.067619 78.950623 
C 275.067619 78.012988 274.695093 77.11363 274.032086 76.450623 
C 273.369078 75.787615 272.46972 75.415089 271.532086 75.415089 
C 270.594451 75.415089 269.695093 75.787615 269.032086 76.450623 
C 268.369078 77.11363 267.996552 78.012988 267.996552 78.950623 
C 267.996552 79.888257 268.369078 80.787615 269.032086 81.450623 
C 269.695093 82.11363 270.594451 82.486156 271.532086 82.486156 
z
" style="fill:none;stroke:#ff9896;"/>
   </g>
   <g id="PathCollection_44">
    <path clip-path="url(#pfd31e0d80c)" d="M 276.505348 86.976474 
C 277.442982 86.976474 278.34234 86.603948 279.005348 85.94094 
C 279.668355 85.277932 280.040881 84.378575 280.040881 83.44094 
C 280.040881 82.503305 279.668355 81.603948 279.005348 80.94094 
C 278.34234 80.277932 277.442982 79.905406 276.505348 79.905406 
C 275.567713 79.905406 274.668355 80.277932 274.005348 80.94094 
C 273.34234 81.603948 272.969814 82.503305 272.969814 83.44094 
C 272.969814 84.378575 273.34234 85.277932 274.005348 85.94094 
C 274.668355 86.603948 275.567713 86.976474 276.505348 86.976474 
z
" style="fill:none;stroke:#ff9896;"/>
   </g>
   <g id="PathCollection_45">
    <path clip-path="url(#pfd31e0d80c)" d="M 281.47861 91.202626 
C 282.416244 91.202626 283.315602 90.8301 283.97861 90.167092 
C 284.641617 89.504084 285.014144 88.604726 285.014144 87.667092 
C 285.014144 86.729457 284.641617 85.8301 283.97861 85.167092 
C 283.315602 84.504084 282.416244 84.131558 281.47861 84.131558 
C 280.540975 84.131558 279.641617 84.504084 278.97861 85.167092 
C 278.315602 85.8301 277.943076 86.729457 277.943076 87.667092 
C 277.943076 88.604726 278.315602 89.504084 278.97861 90.167092 
C 279.641617 90.8301 280.540975 91.202626 281.47861 91.202626 
z
" style="fill:none;stroke:#ff9896;"/>
   </g>
   <g id="PathCollection_46">
    <path clip-path="url(#pfd31e0d80c)" d="M 286.451872 95.131873 
C 287.389506 95.131873 288.288864 94.759347 288.951872 94.096339 
C 289.614879 93.433331 289.987406 92.533974 289.987406 91.596339 
C 289.987406 90.658705 289.614879 89.759347 288.951872 89.096339 
C 288.288864 88.433331 287.389506 88.060805 286.451872 88.060805 
C 285.514237 88.060805 284.614879 88.433331 283.951872 89.096339 
C 283.288864 89.759347 282.916338 90.658705 282.916338 91.596339 
C 282.916338 92.533974 283.288864 93.433331 283.951872 94.096339 
C 284.614879 94.759347 285.514237 95.131873 286.451872 95.131873 
z
" style="fill:none;stroke:#ff9896;"/>
   </g>
   <g id="PathCollection_47">
    <path clip-path="url(#pfd31e0d80c)" d="M 291.425134 98.794436 
C 292.362768 98.794436 293.262126 98.42191 293.925134 97.758902 
C 294.588141 97.095895 294.960668 96.196537 294.960668 95.258902 
C 294.960668 94.321268 294.588141 93.42191 293.925134 92.758902 
C 293.262126 92.095895 292.362768 91.723368 291.425134 91.723368 
C 290.487499 91.723368 289.588141 92.095895 288.925134 92.758902 
C 288.262126 93.42191 287.8896 94.321268 287.8896 95.258902 
C 287.8896 96.196537 288.262126 97.095895 288.925134 97.758902 
C 289.588141 98.42191 290.487499 98.794436 291.425134 98.794436 
z
" style="fill:none;stroke:#ff9896;"/>
   </g>
   <g id="PathCollection_48">
    <path clip-path="url(#pfd31e0d80c)" d="M 296.398396 102.301506 
C 297.33603 102.301506 298.235388 101.92898 298.898396 101.265972 
C 299.561403 100.602964 299.93393 99.703607 299.93393 98.765972 
C 299.93393 97.828337 299.561403 96.92898 298.898396 96.265972 
C 298.235388 95.602964 297.33603 95.230438 296.398396 95.230438 
C 295.460761 95.230438 294.561403 95.602964 293.898396 96.265972 
C 293.235388 96.92898 292.862862 97.828337 292.862862 98.765972 
C 292.862862 99.703607 293.235388 100.602964 293.898396 101.265972 
C 294.561403 101.92898 295.460761 102.301506 296.398396 102.301506 
z
" style="fill:none;stroke:#ff9896;"/>
   </g>
   <g id="PathCollection_49">
    <path clip-path="url(#pfd31e0d80c)" d="M 301.371658 105.865371 
C 302.309292 105.865371 303.20865 105.492845 303.871658 104.829837 
C 304.534666 104.166829 304.907192 103.267471 304.907192 102.329837 
C 304.907192 101.392202 304.534666 100.492845 303.871658 99.829837 
C 303.20865 99.166829 302.309292 98.794303 301.371658 98.794303 
C 300.434023 98.794303 299.534666 99.166829 298.871658 99.829837 
C 298.20865 100.492845 297.836124 101.392202 297.836124 102.329837 
C 297.836124 103.267471 298.20865 104.166829 298.871658 104.829837 
C 299.534666 105.492845 300.434023 105.865371 301.371658 105.865371 
z
" style="fill:none;stroke:#ff9896;"/>
   </g>
   <g id="PathCollection_50">
    <path clip-path="url(#pfd31e0d80c)" d="M 306.34492 109.821752 
C 307.282554 109.821752 308.181912 109.449226 308.84492 108.786218 
C 309.507928 108.123211 309.880454 107.223853 309.880454 106.286218 
C 309.880454 105.348584 309.507928 104.449226 308.84492 103.786218 
C 308.181912 103.123211 307.282554 102.750685 306.34492 102.750685 
C 305.407285 102.750685 304.507928 103.123211 303.84492 103.786218 
C 303.181912 104.449226 302.809386 105.348584 302.809386 106.286218 
C 302.809386 107.223853 303.181912 108.123211 303.84492 108.786218 
C 304.507928 109.449226 305.407285 109.821752 306.34492 109.821752 
z
" style="fill:none;stroke:#ff9896;"/>
   </g>
   <g id="PathCollection_51">
    <path clip-path="url(#pfd31e0d80c)" d="M 311.318182 114.654451 
C 312.255816 114.654451 313.155174 114.281924 313.818182 113.618917 
C 314.48119 112.955909 314.853716 112.056551 314.853716 111.118917 
C 314.853716 110.181282 314.48119 109.281924 313.818182 108.618917 
C 313.155174 107.955909 312.255816 107.583383 311.318182 107.583383 
C 310.380547 107.583383 309.48119 107.955909 308.818182 108.618917 
C 308.155174 109.281924 307.782648 110.181282 307.782648 111.118917 
C 307.782648 112.056551 308.155174 112.955909 308.818182 113.618917 
C 309.48119 114.281924 310.380547 114.654451 311.318182 114.654451 
z
" style="fill:none;stroke:#ff9896;"/>
   </g>
   <g id="PathCollection_52">
    <defs>
     <path d="M 0 3.535534 
C 0.937635 3.535534 1.836992 3.163008 2.5 2.5 
C 3.163008 1.836992 3.535534 0.937635 3.535534 0 
C 3.535534 -0.937635 3.163008 -1.836992 2.5 -2.5 
C 1.836992 -3.163008 0.937635 -3.535534 0 -3.535534 
C -0.937635 -3.535534 -1.836992 -3.163008 -2.5 -2.5 
C -3.163008 -1.836992 -3.535534 -0.937635 -3.535534 0 
C -3.535534 0.937635 -3.163008 1.836992 -2.5 2.5 
C -1.836992 3.163008 -0.937635 3.535534 0 3.535534 
z
" id="m2265fb6d07" style="stroke:#ff9896;"/>
    </defs>
    <g clip-path="url(#pfd31e0d80c)">
     <use style="fill:#ff9896;stroke:#ff9896;" x="62.65508" xlink:href="#m2265fb6d07" y="180.042309"/>
    </g>
   </g>
   <g id="PathCollection_53">
    <g clip-path="url(#pfd31e0d80c)">
     <use style="fill:#ff9896;stroke:#ff9896;" x="67.628342" xlink:href="#m2265fb6d07" y="181.128624"/>
    </g>
   </g>
   <g id="PathCollection_54">
    <g clip-path="url(#pfd31e0d80c)">
     <use style="fill:#ff9896;stroke:#ff9896;" x="72.601604" xlink:href="#m2265fb6d07" y="181.228492"/>
    </g>
   </g>
   <g id="PathCollection_55">
    <g clip-path="url(#pfd31e0d80c)">
     <use style="fill:#ff9896;stroke:#ff9896;" x="77.574866" xlink:href="#m2265fb6d07" y="180.5528"/>
    </g>
   </g>
   <g id="PathCollection_56">
    <g clip-path="url(#pfd31e0d80c)">
     <use style="fill:#ff9896;stroke:#ff9896;" x="82.548128" xlink:href="#m2265fb6d07" y="179.245703"/>
    </g>
   </g>
   <g id="PathCollection_57">
    <g clip-path="url(#pfd31e0d80c)">
     <use style="fill:#ff9896;stroke:#ff9896;" x="87.52139" xlink:href="#m2265fb6d07" y="177.407794"/>
    </g>
   </g>
   <g id="PathCollection_58">
    <g clip-path="url(#pfd31e0d80c)">
     <use style="fill:#ff9896;stroke:#ff9896;" x="92.494652" xlink:href="#m2265fb6d07" y="175.097933"/>
    </g>
   </g>
   <g id="PathCollection_59">
    <g clip-path="url(#pfd31e0d80c)">
     <use style="fill:#ff9896;stroke:#ff9896;" x="97.467914" xlink:href="#m2265fb6d07" y="172.348493"/>
    </g>
   </g>
   <g id="PathCollection_60">
    <g clip-path="url(#pfd31e0d80c)">
     <use style="fill:#ff9896;stroke:#ff9896;" x="102.441176" xlink:href="#m2265fb6d07" y="169.173293"/>
    </g>
   </g>
   <g id="PathCollection_61">
    <g clip-path="url(#pfd31e0d80c)">
     <use style="fill:#ff9896;stroke:#ff9896;" x="107.414439" xlink:href="#m2265fb6d07" y="165.575225"/>
    </g>
   </g>
   <g id="PathCollection_62">
    <g clip-path="url(#pfd31e0d80c)">
     <use style="fill:#ff9896;stroke:#ff9896;" x="112.387701" xlink:href="#m2265fb6d07" y="161.552662"/>
    </g>
   </g>
   <g id="PathCollection_63">
    <g clip-path="url(#pfd31e0d80c)">
     <use style="fill:#ff9896;stroke:#ff9896;" x="117.360963" xlink:href="#m2265fb6d07" y="157.104714"/>
    </g>
   </g>
   <g id="PathCollection_64">
    <g clip-path="url(#pfd31e0d80c)">
     <use style="fill:#ff9896;stroke:#ff9896;" x="122.334225" xlink:href="#m2265fb6d07" y="152.235426"/>
    </g>
   </g>
   <g id="PathCollection_65">
    <g clip-path="url(#pfd31e0d80c)">
     <use style="fill:#ff9896;stroke:#ff9896;" x="127.307487" xlink:href="#m2265fb6d07" y="146.956973"/>
    </g>
   </g>
   <g id="PathCollection_66">
    <g clip-path="url(#pfd31e0d80c)">
     <use style="fill:#ff9896;stroke:#ff9896;" x="132.280749" xlink:href="#m2265fb6d07" y="141.291932"/>
    </g>
   </g>
   <g id="PathCollection_67">
    <g clip-path="url(#pfd31e0d80c)">
     <use style="fill:#ff9896;stroke:#ff9896;" x="137.254011" xlink:href="#m2265fb6d07" y="135.274722"/>
    </g>
   </g>
   <g id="PathCollection_68">
    <g clip-path="url(#pfd31e0d80c)">
     <use style="fill:#ff9896;stroke:#ff9896;" x="142.227273" xlink:href="#m2265fb6d07" y="128.952261"/>
    </g>
   </g>
   <g id="PathCollection_69">
    <g clip-path="url(#pfd31e0d80c)">
     <use style="fill:#ff9896;stroke:#ff9896;" x="147.200535" xlink:href="#m2265fb6d07" y="122.383937"/>
    </g>
   </g>
   <g id="PathCollection_70">
    <g clip-path="url(#pfd31e0d80c)">
     <use style="fill:#ff9896;stroke:#ff9896;" x="152.173797" xlink:href="#m2265fb6d07" y="115.640957"/>
    </g>
   </g>
   <g id="PathCollection_71">
    <g clip-path="url(#pfd31e0d80c)">
     <use style="fill:#ff9896;stroke:#ff9896;" x="157.147059" xlink:href="#m2265fb6d07" y="108.805154"/>
    </g>
   </g>
   <g id="PathCollection_72">
    <g clip-path="url(#pfd31e0d80c)">
     <use style="fill:#ff9896;stroke:#ff9896;" x="162.120321" xlink:href="#m2265fb6d07" y="101.967319"/>
    </g>
   </g>
   <g id="PathCollection_73">
    <g clip-path="url(#pfd31e0d80c)">
     <use style="fill:#ff9896;stroke:#ff9896;" x="167.093583" xlink:href="#m2265fb6d07" y="95.22515"/>
    </g>
   </g>
   <g id="PathCollection_74">
    <g clip-path="url(#pfd31e0d80c)">
     <use style="fill:#ff9896;stroke:#ff9896;" x="172.066845" xlink:href="#m2265fb6d07" y="88.68087"/>
    </g>
   </g>
   <g id="PathCollection_75">
    <g clip-path="url(#pfd31e0d80c)">
     <use style="fill:#ff9896;stroke:#ff9896;" x="177.040107" xlink:href="#m2265fb6d07" y="82.438613"/>
    </g>
   </g>
   <g id="PathCollection_76">
    <g clip-path="url(#pfd31e0d80c)">
     <use style="fill:#ff9896;stroke:#ff9896;" x="182.013369" xlink:href="#m2265fb6d07" y="76.601634"/>
    </g>
   </g>
   <g id="PathCollection_77">
    <g clip-path="url(#pfd31e0d80c)">
     <use style="fill:#ff9896;stroke:#ff9896;" x="186.986631" xlink:href="#m2265fb6d07" y="71.269429"/>
    </g>
   </g>
   <g id="PathCollection_78">
    <g clip-path="url(#pfd31e0d80c)">
     <use style="fill:#ff9896;stroke:#ff9896;" x="191.959893" xlink:href="#m2265fb6d07" y="66.534836"/>
    </g>
   </g>
   <g id="PathCollection_79">
    <g clip-path="url(#pfd31e0d80c)">
     <use style="fill:#ff9896;stroke:#ff9896;" x="196.933155" xlink:href="#m2265fb6d07" y="62.481193"/>
    </g>
   </g>
   <g id="PathCollection_80">
    <g clip-path="url(#pfd31e0d80c)">
     <use style="fill:#ff9896;stroke:#ff9896;" x="201.906417" xlink:href="#m2265fb6d07" y="59.179631"/>
    </g>
   </g>
   <g id="PathCollection_81">
    <g clip-path="url(#pfd31e0d80c)">
     <use style="fill:#ff9896;stroke:#ff9896;" x="206.879679" xlink:href="#m2265fb6d07" y="56.686569"/>
    </g>
   </g>
   <g id="PathCollection_82">
    <g clip-path="url(#pfd31e0d80c)">
     <use style="fill:#ff9896;stroke:#ff9896;" x="211.852941" xlink:href="#m2265fb6d07" y="55.041498"/>
    </g>
   </g>
   <g id="PathCollection_83">
    <g clip-path="url(#pfd31e0d80c)">
     <use style="fill:#ff9896;stroke:#ff9896;" x="216.826203" xlink:href="#m2265fb6d07" y="54.265119"/>
    </g>
   </g>
   <g id="PathCollection_84">
    <g clip-path="url(#pfd31e0d80c)">
     <use style="fill:#ff9896;stroke:#ff9896;" x="221.799465" xlink:href="#m2265fb6d07" y="54.35791"/>
    </g>
   </g>
   <g id="PathCollection_85">
    <g clip-path="url(#pfd31e0d80c)">
     <use style="fill:#ff9896;stroke:#ff9896;" x="226.772727" xlink:href="#m2265fb6d07" y="55.299213"/>
    </g>
   </g>
   <g id="PathCollection_86">
    <g clip-path="url(#pfd31e0d80c)">
     <use style="fill:#ff9896;stroke:#ff9896;" x="231.745989" xlink:href="#m2265fb6d07" y="57.04689"/>
    </g>
   </g>
   <g id="PathCollection_87">
    <g clip-path="url(#pfd31e0d80c)">
     <use style="fill:#ff9896;stroke:#ff9896;" x="236.719251" xlink:href="#m2265fb6d07" y="59.537646"/>
    </g>
   </g>
   <g id="PathCollection_88">
    <g clip-path="url(#pfd31e0d80c)">
     <use style="fill:#ff9896;stroke:#ff9896;" x="241.692513" xlink:href="#m2265fb6d07" y="62.688087"/>
    </g>
   </g>
   <g id="PathCollection_89">
    <g clip-path="url(#pfd31e0d80c)">
     <use style="fill:#ff9896;stroke:#ff9896;" x="246.665775" xlink:href="#m2265fb6d07" y="66.396574"/>
    </g>
   </g>
   <g id="PathCollection_90">
    <g clip-path="url(#pfd31e0d80c)">
     <use style="fill:#ff9896;stroke:#ff9896;" x="251.639037" xlink:href="#m2265fb6d07" y="70.54598"/>
    </g>
   </g>
   <g id="PathCollection_91">
    <g clip-path="url(#pfd31e0d80c)">
     <use style="fill:#ff9896;stroke:#ff9896;" x="256.612299" xlink:href="#m2265fb6d07" y="75.007388"/>
    </g>
   </g>
   <g id="PathCollection_92">
    <g clip-path="url(#pfd31e0d80c)">
     <use style="fill:#ff9896;stroke:#ff9896;" x="261.585561" xlink:href="#m2265fb6d07" y="79.644833"/>
    </g>
   </g>
   <g id="PathCollection_93">
    <g clip-path="url(#pfd31e0d80c)">
     <use style="fill:#ff9896;stroke:#ff9896;" x="266.558824" xlink:href="#m2265fb6d07" y="84.321152"/>
    </g>
   </g>
   <g id="PathCollection_94">
    <g clip-path="url(#pfd31e0d80c)">
     <use style="fill:#ff9896;stroke:#ff9896;" x="271.532086" xlink:href="#m2265fb6d07" y="88.905012"/>
    </g>
   </g>
   <g id="PathCollection_95">
    <g clip-path="url(#pfd31e0d80c)">
     <use style="fill:#ff9896;stroke:#ff9896;" x="276.505348" xlink:href="#m2265fb6d07" y="93.279211"/>
    </g>
   </g>
   <g id="PathCollection_96">
    <g clip-path="url(#pfd31e0d80c)">
     <use style="fill:#ff9896;stroke:#ff9896;" x="281.47861" xlink:href="#m2265fb6d07" y="97.350296"/>
    </g>
   </g>
   <g id="PathCollection_97">
    <g clip-path="url(#pfd31e0d80c)">
     <use style="fill:#ff9896;stroke:#ff9896;" x="286.451872" xlink:href="#m2265fb6d07" y="101.059604"/>
    </g>
   </g>
   <g id="PathCollection_98">
    <g clip-path="url(#pfd31e0d80c)">
     <use style="fill:#ff9896;stroke:#ff9896;" x="291.425134" xlink:href="#m2265fb6d07" y="104.395783"/>
    </g>
   </g>
   <g id="PathCollection_99">
    <g clip-path="url(#pfd31e0d80c)">
     <use style="fill:#ff9896;stroke:#ff9896;" x="296.398396" xlink:href="#m2265fb6d07" y="107.408874"/>
    </g>
   </g>
   <g id="PathCollection_100">
    <g clip-path="url(#pfd31e0d80c)">
     <use style="fill:#ff9896;stroke:#ff9896;" x="301.371658" xlink:href="#m2265fb6d07" y="110.226028"/>
    </g>
   </g>
   <g id="PathCollection_101">
    <g clip-path="url(#pfd31e0d80c)">
     <use style="fill:#ff9896;stroke:#ff9896;" x="306.34492" xlink:href="#m2265fb6d07" y="113.068932"/>
    </g>
   </g>
   <g id="PathCollection_102">
    <g clip-path="url(#pfd31e0d80c)">
     <use style="fill:#ff9896;stroke:#ff9896;" x="311.318182" xlink:href="#m2265fb6d07" y="116.27302"/>
    </g>
   </g>
   <g id="matplotlib.axis_1"/>
   <g id="matplotlib.axis_2">
    <g id="ytick_1">
     <g id="line2d_1">
      <defs>
       <path d="M 0 0 
L -3.5 0 
" id="mfaa8a1ee13" style="stroke:#000000;stroke-width:0.8;"/>
      </defs>
      <g>
       <use style="stroke:#000000;stroke-width:0.8;" x="45" xlink:href="#mfaa8a1ee13" y="179.852307"/>
      </g>
     </g>
     <g id="text_1">
      <!-- 0.0 -->
      <g transform="translate(22.096875 183.651526)scale(0.1 -0.1)">
       <defs>
        <path d="M 31.78125 66.40625 
Q 24.171875 66.40625 20.328125 58.90625 
Q 16.5 51.421875 16.5 36.375 
Q 16.5 21.390625 20.328125 13.890625 
Q 24.171875 6.390625 31.78125 6.390625 
Q 39.453125 6.390625 43.28125 13.890625 
Q 47.125 21.390625 47.125 36.375 
Q 47.125 51.421875 43.28125 58.90625 
Q 39.453125 66.40625 31.78125 66.40625 
z
M 31.78125 74.21875 
Q 44.046875 74.21875 50.515625 64.515625 
Q 56.984375 54.828125 56.984375 36.375 
Q 56.984375 17.96875 50.515625 8.265625 
Q 44.046875 -1.421875 31.78125 -1.421875 
Q 19.53125 -1.421875 13.0625 8.265625 
Q 6.59375 17.96875 6.59375 36.375 
Q 6.59375 54.828125 13.0625 64.515625 
Q 19.53125 74.21875 31.78125 74.21875 
z
" id="DejaVuSans-48"/>
        <path d="M 10.6875 12.40625 
L 21 12.40625 
L 21 0 
L 10.6875 0 
z
" id="DejaVuSans-46"/>
       </defs>
       <use xlink:href="#DejaVuSans-48"/>
       <use x="63.623047" xlink:href="#DejaVuSans-46"/>
       <use x="95.410156" xlink:href="#DejaVuSans-48"/>
      </g>
     </g>
    </g>
    <g id="ytick_2">
     <g id="line2d_2">
      <g>
       <use style="stroke:#000000;stroke-width:0.8;" x="45" xlink:href="#mfaa8a1ee13" y="150.665083"/>
      </g>
     </g>
     <g id="text_2">
      <!-- 0.1 -->
      <g transform="translate(22.096875 154.464302)scale(0.1 -0.1)">
       <defs>
        <path d="M 12.40625 8.296875 
L 28.515625 8.296875 
L 28.515625 63.921875 
L 10.984375 60.40625 
L 10.984375 69.390625 
L 28.421875 72.90625 
L 38.28125 72.90625 
L 38.28125 8.296875 
L 54.390625 8.296875 
L 54.390625 0 
L 12.40625 0 
z
" id="DejaVuSans-49"/>
       </defs>
       <use xlink:href="#DejaVuSans-48"/>
       <use x="63.623047" xlink:href="#DejaVuSans-46"/>
       <use x="95.410156" xlink:href="#DejaVuSans-49"/>
      </g>
     </g>
    </g>
    <g id="ytick_3">
     <g id="line2d_3">
      <g>
       <use style="stroke:#000000;stroke-width:0.8;" x="45" xlink:href="#mfaa8a1ee13" y="121.47786"/>
      </g>
     </g>
     <g id="text_3">
      <!-- 0.2 -->
      <g transform="translate(22.096875 125.277078)scale(0.1 -0.1)">
       <defs>
        <path d="M 19.1875 8.296875 
L 53.609375 8.296875 
L 53.609375 0 
L 7.328125 0 
L 7.328125 8.296875 
Q 12.9375 14.109375 22.625 23.890625 
Q 32.328125 33.6875 34.8125 36.53125 
Q 39.546875 41.84375 41.421875 45.53125 
Q 43.3125 49.21875 43.3125 52.78125 
Q 43.3125 58.59375 39.234375 62.25 
Q 35.15625 65.921875 28.609375 65.921875 
Q 23.96875 65.921875 18.8125 64.3125 
Q 13.671875 62.703125 7.8125 59.421875 
L 7.8125 69.390625 
Q 13.765625 71.78125 18.9375 73 
Q 24.125 74.21875 28.421875 74.21875 
Q 39.75 74.21875 46.484375 68.546875 
Q 53.21875 62.890625 53.21875 53.421875 
Q 53.21875 48.921875 51.53125 44.890625 
Q 49.859375 40.875 45.40625 35.40625 
Q 44.1875 33.984375 37.640625 27.21875 
Q 31.109375 20.453125 19.1875 8.296875 
z
" id="DejaVuSans-50"/>
       </defs>
       <use xlink:href="#DejaVuSans-48"/>
       <use x="63.623047" xlink:href="#DejaVuSans-46"/>
       <use x="95.410156" xlink:href="#DejaVuSans-50"/>
      </g>
     </g>
    </g>
    <g id="ytick_4">
     <g id="line2d_4">
      <g>
       <use style="stroke:#000000;stroke-width:0.8;" x="45" xlink:href="#mfaa8a1ee13" y="92.290636"/>
      </g>
     </g>
     <g id="text_4">
      <!-- 0.3 -->
      <g transform="translate(22.096875 96.089855)scale(0.1 -0.1)">
       <defs>
        <path d="M 40.578125 39.3125 
Q 47.65625 37.796875 51.625 33 
Q 55.609375 28.21875 55.609375 21.1875 
Q 55.609375 10.40625 48.1875 4.484375 
Q 40.765625 -1.421875 27.09375 -1.421875 
Q 22.515625 -1.421875 17.65625 -0.515625 
Q 12.796875 0.390625 7.625 2.203125 
L 7.625 11.71875 
Q 11.71875 9.328125 16.59375 8.109375 
Q 21.484375 6.890625 26.8125 6.890625 
Q 36.078125 6.890625 40.9375 10.546875 
Q 45.796875 14.203125 45.796875 21.1875 
Q 45.796875 27.640625 41.28125 31.265625 
Q 36.765625 34.90625 28.71875 34.90625 
L 20.21875 34.90625 
L 20.21875 43.015625 
L 29.109375 43.015625 
Q 36.375 43.015625 40.234375 45.921875 
Q 44.09375 48.828125 44.09375 54.296875 
Q 44.09375 59.90625 40.109375 62.90625 
Q 36.140625 65.921875 28.71875 65.921875 
Q 24.65625 65.921875 20.015625 65.03125 
Q 15.375 64.15625 9.8125 62.3125 
L 9.8125 71.09375 
Q 15.4375 72.65625 20.34375 73.4375 
Q 25.25 74.21875 29.59375 74.21875 
Q 40.828125 74.21875 47.359375 69.109375 
Q 53.90625 64.015625 53.90625 55.328125 
Q 53.90625 49.265625 50.4375 45.09375 
Q 46.96875 40.921875 40.578125 39.3125 
z
" id="DejaVuSans-51"/>
       </defs>
       <use xlink:href="#DejaVuSans-48"/>
       <use x="63.623047" xlink:href="#DejaVuSans-46"/>
       <use x="95.410156" xlink:href="#DejaVuSans-51"/>
      </g>
     </g>
    </g>
    <g id="ytick_5">
     <g id="line2d_5">
      <g>
       <use style="stroke:#000000;stroke-width:0.8;" x="45" xlink:href="#mfaa8a1ee13" y="63.103412"/>
      </g>
     </g>
     <g id="text_5">
      <!-- 0.4 -->
      <g transform="translate(22.096875 66.902631)scale(0.1 -0.1)">
       <defs>
        <path d="M 37.796875 64.3125 
L 12.890625 25.390625 
L 37.796875 25.390625 
z
M 35.203125 72.90625 
L 47.609375 72.90625 
L 47.609375 25.390625 
L 58.015625 25.390625 
L 58.015625 17.1875 
L 47.609375 17.1875 
L 47.609375 0 
L 37.796875 0 
L 37.796875 17.1875 
L 4.890625 17.1875 
L 4.890625 26.703125 
z
" id="DejaVuSans-52"/>
       </defs>
       <use xlink:href="#DejaVuSans-48"/>
       <use x="63.623047" xlink:href="#DejaVuSans-46"/>
       <use x="95.410156" xlink:href="#DejaVuSans-52"/>
      </g>
     </g>
    </g>
    <g id="ytick_6">
     <g id="line2d_6">
      <g>
       <use style="stroke:#000000;stroke-width:0.8;" x="45" xlink:href="#mfaa8a1ee13" y="33.916188"/>
      </g>
     </g>
     <g id="text_6">
      <!-- 0.5 -->
      <g transform="translate(22.096875 37.715407)scale(0.1 -0.1)">
       <defs>
        <path d="M 10.796875 72.90625 
L 49.515625 72.90625 
L 49.515625 64.59375 
L 19.828125 64.59375 
L 19.828125 46.734375 
Q 21.96875 47.46875 24.109375 47.828125 
Q 26.265625 48.1875 28.421875 48.1875 
Q 40.625 48.1875 47.75 41.5 
Q 54.890625 34.8125 54.890625 23.390625 
Q 54.890625 11.625 47.5625 5.09375 
Q 40.234375 -1.421875 26.90625 -1.421875 
Q 22.3125 -1.421875 17.546875 -0.640625 
Q 12.796875 0.140625 7.71875 1.703125 
L 7.71875 11.625 
Q 12.109375 9.234375 16.796875 8.0625 
Q 21.484375 6.890625 26.703125 6.890625 
Q 35.15625 6.890625 40.078125 11.328125 
Q 45.015625 15.765625 45.015625 23.390625 
Q 45.015625 31 40.078125 35.4375 
Q 35.15625 39.890625 26.703125 39.890625 
Q 22.75 39.890625 18.8125 39.015625 
Q 14.890625 38.140625 10.796875 36.28125 
z
" id="DejaVuSans-53"/>
       </defs>
       <use xlink:href="#DejaVuSans-48"/>
       <use x="63.623047" xlink:href="#DejaVuSans-46"/>
       <use x="95.410156" xlink:href="#DejaVuSans-53"/>
      </g>
     </g>
    </g>
   </g>
   <g id="line2d_7">
    <path clip-path="url(#pfd31e0d80c)" d="M 57.681818 179.852307 
L 88.826872 179.742061 
L 93.572193 179.418893 
L 98.60762 178.849109 
L 104.016043 178.009689 
L 109.880348 176.871921 
L 116.36631 175.383148 
L 123.618984 173.486057 
L 131.990642 171.060443 
L 142.144385 167.876131 
L 155.800134 163.341968 
L 200.725267 148.258993 
L 208.744652 145.801214 
L 213.303476 144.666323 
L 218.007353 143.72672 
L 222.939171 142.969702 
L 228.161096 142.394632 
L 233.735294 142.007269 
L 239.703209 141.818416 
L 246.147727 141.839842 
L 253.193182 142.089292 
L 260.984626 142.591882 
L 269.770722 143.386747 
L 279.945187 144.537218 
L 292.295455 146.166806 
L 308.976604 148.608597 
L 311.318182 148.963954 
L 311.318182 148.963954 
" style="fill:none;stroke:#ff9896;stroke-dasharray:11.1,4.8;stroke-dashoffset:0;stroke-width:3;"/>
   </g>
   <g id="line2d_8">
    <path clip-path="url(#pfd31e0d80c)" d="M 57.681818 179.852307 
L 86.319519 179.741432 
L 88.785428 179.435009 
L 91.209893 178.908603 
L 93.696524 178.139874 
L 96.307487 177.096624 
L 99.042781 175.761639 
L 101.94385 174.094947 
L 105.031417 172.060181 
L 108.326203 169.618205 
L 111.890374 166.691797 
L 115.72393 163.248569 
L 119.889037 159.201064 
L 124.427139 154.475983 
L 129.504011 148.859336 
L 135.243984 142.164091 
L 141.833556 134.124778 
L 149.935829 123.869432 
L 160.980615 109.504287 
L 188.727273 73.300279 
L 199.171123 60.126496 
L 206.340909 51.393327 
L 209.262701 48.195079 
L 211.997995 45.527774 
L 214.691845 43.207864 
L 217.385695 41.177482 
L 220.100267 39.407129 
L 222.835561 37.885927 
L 225.612299 36.594354 
L 228.430481 35.527008 
L 231.310829 34.672791 
L 234.274064 34.02657 
L 237.320187 33.590661 
L 240.46992 33.365363 
L 243.743984 33.355262 
L 247.163102 33.568585 
L 250.747995 34.016546 
L 254.540107 34.717101 
L 258.56016 35.68883 
L 262.849599 36.95743 
L 267.470588 38.559935 
L 272.485294 40.539156 
L 277.976604 42.9505 
L 284.089572 45.883431 
L 291.031417 49.467254 
L 299.216578 53.952134 
L 309.598262 59.908521 
L 311.318182 60.914334 
L 311.318182 60.914334 
" style="fill:none;stroke:#ff9896;stroke-linecap:square;stroke-width:3;"/>
   </g>
   <g id="patch_3">
    <path d="M 45 189 
L 45 25.92 
" style="fill:none;stroke:#000000;stroke-linecap:square;stroke-linejoin:miter;stroke-width:0.8;"/>
   </g>
   <g id="patch_4">
    <path d="M 324 189 
L 324 25.92 
" style="fill:none;stroke:#000000;stroke-linecap:square;stroke-linejoin:miter;stroke-width:0.8;"/>
   </g>
   <g id="patch_5">
    <path d="M 45 189 
L 324 189 
" style="fill:none;stroke:#000000;stroke-linecap:square;stroke-linejoin:miter;stroke-width:0.8;"/>
   </g>
   <g id="patch_6">
    <path d="M 45 25.92 
L 324 25.92 
" style="fill:none;stroke:#000000;stroke-linecap:square;stroke-linejoin:miter;stroke-width:0.8;"/>
   </g>
  </g>
 </g>
 <defs>
  <clipPath id="pfd31e0d80c">
   <rect height="163.08" width="279" x="45" y="25.92"/>
  </clipPath>
 </defs>
</svg>
