<?xml version="1.0" encoding="utf-8" standalone="no"?>
<!DOCTYPE svg PUBLIC "-//W3C//DTD SVG 1.1//EN"
  "http://www.w3.org/Graphics/SVG/1.1/DTD/svg11.dtd">
<!-- Created with matplotlib (https://matplotlib.org/) -->
<svg height="216pt" version="1.1" viewBox="0 0 360 216" width="360pt" xmlns="http://www.w3.org/2000/svg" xmlns:xlink="http://www.w3.org/1999/xlink">
 <metadata>
  <rdf:RDF xmlns:cc="http://creativecommons.org/ns#" xmlns:dc="http://purl.org/dc/elements/1.1/" xmlns:rdf="http://www.w3.org/1999/02/22-rdf-syntax-ns#">
   <cc:Work>
    <dc:type rdf:resource="http://purl.org/dc/dcmitype/StillImage"/>
    <dc:date>2024-12-06T10:17:03.105534</dc:date>
    <dc:format>image/svg+xml</dc:format>
    <dc:creator>
     <cc:Agent>
      <dc:title>Matplotlib v3.3.2, https://matplotlib.org/</dc:title>
     </cc:Agent>
    </dc:creator>
   </cc:Work>
  </rdf:RDF>
 </metadata>
 <defs>
  <style type="text/css">*{stroke-linecap:butt;stroke-linejoin:round;}</style>
 </defs>
 <g id="figure_1">
  <g id="patch_1">
   <path d="M 0 216 
L 360 216 
L 360 0 
L 0 0 
z
" style="fill:none;"/>
  </g>
  <g id="axes_1">
   <g id="patch_2">
    <path d="M 45 189 
L 324 189 
L 324 25.92 
L 45 25.92 
z
" style="fill:#ffffff;"/>
   </g>
   <g id="PathCollection_1">
    <path clip-path="url(#p4b2cdc51b8)" d="M 62.65508 185.099324 
C 63.592715 185.099324 64.492072 184.726798 65.15508 184.06379 
C 65.818088 183.400782 66.190614 182.501425 66.190614 181.56379 
C 66.190614 180.626155 65.818088 179.726798 65.15508 179.06379 
C 64.492072 178.400782 63.592715 178.028256 62.65508 178.028256 
C 61.717446 178.028256 60.818088 178.400782 60.15508 179.06379 
C 59.492072 179.726798 59.119546 180.626155 59.119546 181.56379 
C 59.119546 182.501425 59.492072 183.400782 60.15508 184.06379 
C 60.818088 184.726798 61.717446 185.099324 62.65508 185.099324 
z
" style="fill:none;stroke:#2ca02c;"/>
   </g>
   <g id="PathCollection_2">
    <path clip-path="url(#p4b2cdc51b8)" d="M 67.628342 185.044211 
C 68.565977 185.044211 69.465334 184.671685 70.128342 184.008677 
C 70.79135 183.34567 71.163876 182.446312 71.163876 181.508677 
C 71.163876 180.571043 70.79135 179.671685 70.128342 179.008677 
C 69.465334 178.34567 68.565977 177.973143 67.628342 177.973143 
C 66.690708 177.973143 65.79135 178.34567 65.128342 179.008677 
C 64.465334 179.671685 64.092808 180.571043 64.092808 181.508677 
C 64.092808 182.446312 64.465334 183.34567 65.128342 184.008677 
C 65.79135 184.671685 66.690708 185.044211 67.628342 185.044211 
z
" style="fill:none;stroke:#2ca02c;"/>
   </g>
   <g id="PathCollection_3">
    <path clip-path="url(#p4b2cdc51b8)" d="M 72.601604 184.825088 
C 73.539239 184.825088 74.438597 184.452562 75.101604 183.789554 
C 75.764612 183.126547 76.137138 182.227189 76.137138 181.289554 
C 76.137138 180.35192 75.764612 179.452562 75.101604 178.789554 
C 74.438597 178.126547 73.539239 177.754021 72.601604 177.754021 
C 71.66397 177.754021 70.764612 178.126547 70.101604 178.789554 
C 69.438597 179.452562 69.06607 180.35192 69.06607 181.289554 
C 69.06607 182.227189 69.438597 183.126547 70.101604 183.789554 
C 70.764612 184.452562 71.66397 184.825088 72.601604 184.825088 
z
" style="fill:none;stroke:#2ca02c;"/>
   </g>
   <g id="PathCollection_4">
    <path clip-path="url(#p4b2cdc51b8)" d="M 77.574866 184.393626 
C 78.512501 184.393626 79.411859 184.0211 80.074866 183.358092 
C 80.737874 182.695084 81.1104 181.795726 81.1104 180.858092 
C 81.1104 179.920457 80.737874 179.0211 80.074866 178.358092 
C 79.411859 177.695084 78.512501 177.322558 77.574866 177.322558 
C 76.637232 177.322558 75.737874 177.695084 75.074866 178.358092 
C 74.411859 179.0211 74.039332 179.920457 74.039332 180.858092 
C 74.039332 181.795726 74.411859 182.695084 75.074866 183.358092 
C 75.737874 184.0211 76.637232 184.393626 77.574866 184.393626 
z
" style="fill:none;stroke:#2ca02c;"/>
   </g>
   <g id="PathCollection_5">
    <path clip-path="url(#p4b2cdc51b8)" d="M 82.548128 183.722954 
C 83.485763 183.722954 84.385121 183.350428 85.048128 182.687421 
C 85.711136 182.024413 86.083662 181.125055 86.083662 180.187421 
C 86.083662 179.249786 85.711136 178.350428 85.048128 177.687421 
C 84.385121 177.024413 83.485763 176.651887 82.548128 176.651887 
C 81.610494 176.651887 80.711136 177.024413 80.048128 177.687421 
C 79.385121 178.350428 79.012594 179.249786 79.012594 180.187421 
C 79.012594 181.125055 79.385121 182.024413 80.048128 182.687421 
C 80.711136 183.350428 81.610494 183.722954 82.548128 183.722954 
z
" style="fill:none;stroke:#2ca02c;"/>
   </g>
   <g id="PathCollection_6">
    <path clip-path="url(#p4b2cdc51b8)" d="M 87.52139 182.802816 
C 88.459025 182.802816 89.358383 182.43029 90.02139 181.767282 
C 90.684398 181.104274 91.056924 180.204917 91.056924 179.267282 
C 91.056924 178.329648 90.684398 177.43029 90.02139 176.767282 
C 89.358383 176.104274 88.459025 175.731748 87.52139 175.731748 
C 86.583756 175.731748 85.684398 176.104274 85.02139 176.767282 
C 84.358383 177.43029 83.985856 178.329648 83.985856 179.267282 
C 83.985856 180.204917 84.358383 181.104274 85.02139 181.767282 
C 85.684398 182.43029 86.583756 182.802816 87.52139 182.802816 
z
" style="fill:none;stroke:#2ca02c;"/>
   </g>
   <g id="PathCollection_7">
    <path clip-path="url(#p4b2cdc51b8)" d="M 92.494652 181.635319 
C 93.432287 181.635319 94.331645 181.262793 94.994652 180.599785 
C 95.65766 179.936777 96.030186 179.037419 96.030186 178.099785 
C 96.030186 177.16215 95.65766 176.262793 94.994652 175.599785 
C 94.331645 174.936777 93.432287 174.564251 92.494652 174.564251 
C 91.557018 174.564251 90.65766 174.936777 89.994652 175.599785 
C 89.331645 176.262793 88.959119 177.16215 88.959119 178.099785 
C 88.959119 179.037419 89.331645 179.936777 89.994652 180.599785 
C 90.65766 181.262793 91.557018 181.635319 92.494652 181.635319 
z
" style="fill:none;stroke:#2ca02c;"/>
   </g>
   <g id="PathCollection_8">
    <path clip-path="url(#p4b2cdc51b8)" d="M 97.467914 180.231276 
C 98.405549 180.231276 99.304907 179.85875 99.967914 179.195742 
C 100.630922 178.532734 101.003448 177.633377 101.003448 176.695742 
C 101.003448 175.758108 100.630922 174.85875 99.967914 174.195742 
C 99.304907 173.532734 98.405549 173.160208 97.467914 173.160208 
C 96.53028 173.160208 95.630922 173.532734 94.967914 174.195742 
C 94.304907 174.85875 93.932381 175.758108 93.932381 176.695742 
C 93.932381 177.633377 94.304907 178.532734 94.967914 179.195742 
C 95.630922 179.85875 96.53028 180.231276 97.467914 180.231276 
z
" style="fill:none;stroke:#2ca02c;"/>
   </g>
   <g id="PathCollection_9">
    <path clip-path="url(#p4b2cdc51b8)" d="M 102.441176 178.607097 
C 103.378811 178.607097 104.278169 178.234571 104.941176 177.571563 
C 105.604184 176.908556 105.97671 176.009198 105.97671 175.071563 
C 105.97671 174.133929 105.604184 173.234571 104.941176 172.571563 
C 104.278169 171.908556 103.378811 171.53603 102.441176 171.53603 
C 101.503542 171.53603 100.604184 171.908556 99.941176 172.571563 
C 99.278169 173.234571 98.905643 174.133929 98.905643 175.071563 
C 98.905643 176.009198 99.278169 176.908556 99.941176 177.571563 
C 100.604184 178.234571 101.503542 178.607097 102.441176 178.607097 
z
" style="fill:none;stroke:#2ca02c;"/>
   </g>
   <g id="PathCollection_10">
    <path clip-path="url(#p4b2cdc51b8)" d="M 107.414439 176.7822 
C 108.352073 176.7822 109.251431 176.409674 109.914439 175.746666 
C 110.577446 175.083659 110.949972 174.184301 110.949972 173.246666 
C 110.949972 172.309032 110.577446 171.409674 109.914439 170.746666 
C 109.251431 170.083659 108.352073 169.711132 107.414439 169.711132 
C 106.476804 169.711132 105.577446 170.083659 104.914439 170.746666 
C 104.251431 171.409674 103.878905 172.309032 103.878905 173.246666 
C 103.878905 174.184301 104.251431 175.083659 104.914439 175.746666 
C 105.577446 176.409674 106.476804 176.7822 107.414439 176.7822 
z
" style="fill:none;stroke:#2ca02c;"/>
   </g>
   <g id="PathCollection_11">
    <path clip-path="url(#p4b2cdc51b8)" d="M 112.387701 174.776899 
C 113.325335 174.776899 114.224693 174.404372 114.887701 173.741365 
C 115.550708 173.078357 115.923234 172.178999 115.923234 171.241365 
C 115.923234 170.30373 115.550708 169.404372 114.887701 168.741365 
C 114.224693 168.078357 113.325335 167.705831 112.387701 167.705831 
C 111.450066 167.705831 110.550708 168.078357 109.887701 168.741365 
C 109.224693 169.404372 108.852167 170.30373 108.852167 171.241365 
C 108.852167 172.178999 109.224693 173.078357 109.887701 173.741365 
C 110.550708 174.404372 111.450066 174.776899 112.387701 174.776899 
z
" style="fill:none;stroke:#2ca02c;"/>
   </g>
   <g id="PathCollection_12">
    <path clip-path="url(#p4b2cdc51b8)" d="M 117.360963 172.610745 
C 118.298597 172.610745 119.197955 172.238218 119.860963 171.575211 
C 120.52397 170.912203 120.896496 170.012845 120.896496 169.075211 
C 120.896496 168.137576 120.52397 167.238218 119.860963 166.575211 
C 119.197955 165.912203 118.298597 165.539677 117.360963 165.539677 
C 116.423328 165.539677 115.52397 165.912203 114.860963 166.575211 
C 114.197955 167.238218 113.825429 168.137576 113.825429 169.075211 
C 113.825429 170.012845 114.197955 170.912203 114.860963 171.575211 
C 115.52397 172.238218 116.423328 172.610745 117.360963 172.610745 
z
" style="fill:none;stroke:#2ca02c;"/>
   </g>
   <g id="PathCollection_13">
    <path clip-path="url(#p4b2cdc51b8)" d="M 122.334225 170.301283 
C 123.271859 170.301283 124.171217 169.928757 124.834225 169.265749 
C 125.497232 168.602742 125.869759 167.703384 125.869759 166.765749 
C 125.869759 165.828115 125.497232 164.928757 124.834225 164.265749 
C 124.171217 163.602742 123.271859 163.230216 122.334225 163.230216 
C 121.39659 163.230216 120.497232 163.602742 119.834225 164.265749 
C 119.171217 164.928757 118.798691 165.828115 118.798691 166.765749 
C 118.798691 167.703384 119.171217 168.602742 119.834225 169.265749 
C 120.497232 169.928757 121.39659 170.301283 122.334225 170.301283 
z
" style="fill:none;stroke:#2ca02c;"/>
   </g>
   <g id="PathCollection_14">
    <path clip-path="url(#p4b2cdc51b8)" d="M 127.307487 167.863182 
C 128.245121 167.863182 129.144479 167.490656 129.807487 166.827648 
C 130.470494 166.164641 130.843021 165.265283 130.843021 164.327648 
C 130.843021 163.390014 130.470494 162.490656 129.807487 161.827648 
C 129.144479 161.164641 128.245121 160.792114 127.307487 160.792114 
C 126.369852 160.792114 125.470494 161.164641 124.807487 161.827648 
C 124.144479 162.490656 123.771953 163.390014 123.771953 164.327648 
C 123.771953 165.265283 124.144479 166.164641 124.807487 166.827648 
C 125.470494 167.490656 126.369852 167.863182 127.307487 167.863182 
z
" style="fill:none;stroke:#2ca02c;"/>
   </g>
   <g id="PathCollection_15">
    <path clip-path="url(#p4b2cdc51b8)" d="M 132.280749 165.307709 
C 133.218383 165.307709 134.117741 164.935183 134.780749 164.272175 
C 135.443756 163.609168 135.816283 162.70981 135.816283 161.772175 
C 135.816283 160.834541 135.443756 159.935183 134.780749 159.272175 
C 134.117741 158.609168 133.218383 158.236641 132.280749 158.236641 
C 131.343114 158.236641 130.443756 158.609168 129.780749 159.272175 
C 129.117741 159.935183 128.745215 160.834541 128.745215 161.772175 
C 128.745215 162.70981 129.117741 163.609168 129.780749 164.272175 
C 130.443756 164.935183 131.343114 165.307709 132.280749 165.307709 
z
" style="fill:none;stroke:#2ca02c;"/>
   </g>
   <g id="PathCollection_16">
    <path clip-path="url(#p4b2cdc51b8)" d="M 137.254011 162.642518 
C 138.191645 162.642518 139.091003 162.269992 139.754011 161.606984 
C 140.417018 160.943976 140.789545 160.044619 140.789545 159.106984 
C 140.789545 158.169349 140.417018 157.269992 139.754011 156.606984 
C 139.091003 155.943976 138.191645 155.57145 137.254011 155.57145 
C 136.316376 155.57145 135.417018 155.943976 134.754011 156.606984 
C 134.091003 157.269992 133.718477 158.169349 133.718477 159.106984 
C 133.718477 160.044619 134.091003 160.943976 134.754011 161.606984 
C 135.417018 162.269992 136.316376 162.642518 137.254011 162.642518 
z
" style="fill:none;stroke:#2ca02c;"/>
   </g>
   <g id="PathCollection_17">
    <path clip-path="url(#p4b2cdc51b8)" d="M 142.227273 159.871709 
C 143.164907 159.871709 144.064265 159.499183 144.727273 158.836175 
C 145.39028 158.173167 145.762807 157.273809 145.762807 156.336175 
C 145.762807 155.39854 145.39028 154.499183 144.727273 153.836175 
C 144.064265 153.173167 143.164907 152.800641 142.227273 152.800641 
C 141.289638 152.800641 140.39028 153.173167 139.727273 153.836175 
C 139.064265 154.499183 138.691739 155.39854 138.691739 156.336175 
C 138.691739 157.273809 139.064265 158.173167 139.727273 158.836175 
C 140.39028 159.499183 141.289638 159.871709 142.227273 159.871709 
z
" style="fill:none;stroke:#2ca02c;"/>
   </g>
   <g id="PathCollection_18">
    <path clip-path="url(#p4b2cdc51b8)" d="M 147.200535 156.996128 
C 148.138169 156.996128 149.037527 156.623602 149.700535 155.960594 
C 150.363543 155.297587 150.736069 154.398229 150.736069 153.460594 
C 150.736069 152.52296 150.363543 151.623602 149.700535 150.960594 
C 149.037527 150.297587 148.138169 149.92506 147.200535 149.92506 
C 146.2629 149.92506 145.363543 150.297587 144.700535 150.960594 
C 144.037527 151.623602 143.665001 152.52296 143.665001 153.460594 
C 143.665001 154.398229 144.037527 155.297587 144.700535 155.960594 
C 145.363543 156.623602 146.2629 156.996128 147.200535 156.996128 
z
" style="fill:none;stroke:#2ca02c;"/>
   </g>
   <g id="PathCollection_19">
    <path clip-path="url(#p4b2cdc51b8)" d="M 152.173797 154.013877 
C 153.111431 154.013877 154.010789 153.641351 154.673797 152.978343 
C 155.336805 152.315336 155.709331 151.415978 155.709331 150.478343 
C 155.709331 149.540709 155.336805 148.641351 154.673797 147.978343 
C 154.010789 147.315336 153.111431 146.94281 152.173797 146.94281 
C 151.236162 146.94281 150.336805 147.315336 149.673797 147.978343 
C 149.010789 148.641351 148.638263 149.540709 148.638263 150.478343 
C 148.638263 151.415978 149.010789 152.315336 149.673797 152.978343 
C 150.336805 153.641351 151.236162 154.013877 152.173797 154.013877 
z
" style="fill:none;stroke:#2ca02c;"/>
   </g>
   <g id="PathCollection_20">
    <path clip-path="url(#p4b2cdc51b8)" d="M 157.147059 150.920987 
C 158.084693 150.920987 158.984051 150.54846 159.647059 149.885453 
C 160.310067 149.222445 160.682593 148.323087 160.682593 147.385453 
C 160.682593 146.447818 160.310067 145.54846 159.647059 144.885453 
C 158.984051 144.222445 158.084693 143.849919 157.147059 143.849919 
C 156.209424 143.849919 155.310067 144.222445 154.647059 144.885453 
C 153.984051 145.54846 153.611525 146.447818 153.611525 147.385453 
C 153.611525 148.323087 153.984051 149.222445 154.647059 149.885453 
C 155.310067 150.54846 156.209424 150.920987 157.147059 150.920987 
z
" style="fill:none;stroke:#2ca02c;"/>
   </g>
   <g id="PathCollection_21">
    <path clip-path="url(#p4b2cdc51b8)" d="M 162.120321 147.712229 
C 163.057955 147.712229 163.957313 147.339703 164.620321 146.676695 
C 165.283329 146.013687 165.655855 145.11433 165.655855 144.176695 
C 165.655855 143.239061 165.283329 142.339703 164.620321 141.676695 
C 163.957313 141.013687 163.057955 140.641161 162.120321 140.641161 
C 161.182686 140.641161 160.283329 141.013687 159.620321 141.676695 
C 158.957313 142.339703 158.584787 143.239061 158.584787 144.176695 
C 158.584787 145.11433 158.957313 146.013687 159.620321 146.676695 
C 160.283329 147.339703 161.182686 147.712229 162.120321 147.712229 
z
" style="fill:none;stroke:#2ca02c;"/>
   </g>
   <g id="PathCollection_22">
    <path clip-path="url(#p4b2cdc51b8)" d="M 167.093583 144.382037 
C 168.031217 144.382037 168.930575 144.00951 169.593583 143.346503 
C 170.256591 142.683495 170.629117 141.784137 170.629117 140.846503 
C 170.629117 139.908868 170.256591 139.00951 169.593583 138.346503 
C 168.930575 137.683495 168.031217 137.310969 167.093583 137.310969 
C 166.155948 137.310969 165.256591 137.683495 164.593583 138.346503 
C 163.930575 139.00951 163.558049 139.908868 163.558049 140.846503 
C 163.558049 141.784137 163.930575 142.683495 164.593583 143.346503 
C 165.256591 144.00951 166.155948 144.382037 167.093583 144.382037 
z
" style="fill:none;stroke:#2ca02c;"/>
   </g>
   <g id="PathCollection_23">
    <path clip-path="url(#p4b2cdc51b8)" d="M 172.066845 140.925481 
C 173.004479 140.925481 173.903837 140.552954 174.566845 139.889947 
C 175.229853 139.226939 175.602379 138.327581 175.602379 137.389947 
C 175.602379 136.452312 175.229853 135.552954 174.566845 134.889947 
C 173.903837 134.226939 173.004479 133.854413 172.066845 133.854413 
C 171.12921 133.854413 170.229853 134.226939 169.566845 134.889947 
C 168.903837 135.552954 168.531311 136.452312 168.531311 137.389947 
C 168.531311 138.327581 168.903837 139.226939 169.566845 139.889947 
C 170.229853 140.552954 171.12921 140.925481 172.066845 140.925481 
z
" style="fill:none;stroke:#2ca02c;"/>
   </g>
   <g id="PathCollection_24">
    <path clip-path="url(#p4b2cdc51b8)" d="M 177.040107 137.339286 
C 177.977742 137.339286 178.877099 136.966759 179.540107 136.303752 
C 180.203115 135.640744 180.575641 134.741386 180.575641 133.803752 
C 180.575641 132.866117 180.203115 131.966759 179.540107 131.303752 
C 178.877099 130.640744 177.977742 130.268218 177.040107 130.268218 
C 176.102472 130.268218 175.203115 130.640744 174.540107 131.303752 
C 173.877099 131.966759 173.504573 132.866117 173.504573 133.803752 
C 173.504573 134.741386 173.877099 135.640744 174.540107 136.303752 
C 175.203115 136.966759 176.102472 137.339286 177.040107 137.339286 
z
" style="fill:none;stroke:#2ca02c;"/>
   </g>
   <g id="PathCollection_25">
    <path clip-path="url(#p4b2cdc51b8)" d="M 182.013369 133.622839 
C 182.951004 133.622839 183.850361 133.250313 184.513369 132.587306 
C 185.176377 131.924298 185.548903 131.02494 185.548903 130.087306 
C 185.548903 129.149671 185.176377 128.250313 184.513369 127.587306 
C 183.850361 126.924298 182.951004 126.551772 182.013369 126.551772 
C 181.075734 126.551772 180.176377 126.924298 179.513369 127.587306 
C 178.850361 128.250313 178.477835 129.149671 178.477835 130.087306 
C 178.477835 131.02494 178.850361 131.924298 179.513369 132.587306 
C 180.176377 133.250313 181.075734 133.622839 182.013369 133.622839 
z
" style="fill:none;stroke:#2ca02c;"/>
   </g>
   <g id="PathCollection_26">
    <path clip-path="url(#p4b2cdc51b8)" d="M 186.986631 129.77917 
C 187.924266 129.77917 188.823623 129.406644 189.486631 128.743636 
C 190.149639 128.080628 190.522165 127.181271 190.522165 126.243636 
C 190.522165 125.306001 190.149639 124.406644 189.486631 123.743636 
C 188.823623 123.080628 187.924266 122.708102 186.986631 122.708102 
C 186.048996 122.708102 185.149639 123.080628 184.486631 123.743636 
C 183.823623 124.406644 183.451097 125.306001 183.451097 126.243636 
C 183.451097 127.181271 183.823623 128.080628 184.486631 128.743636 
C 185.149639 129.406644 186.048996 129.77917 186.986631 129.77917 
z
" style="fill:none;stroke:#2ca02c;"/>
   </g>
   <g id="PathCollection_27">
    <path clip-path="url(#p4b2cdc51b8)" d="M 191.959893 125.815844 
C 192.897528 125.815844 193.796885 125.443318 194.459893 124.78031 
C 195.122901 124.117303 195.495427 123.217945 195.495427 122.28031 
C 195.495427 121.342676 195.122901 120.443318 194.459893 119.78031 
C 193.796885 119.117303 192.897528 118.744777 191.959893 118.744777 
C 191.022258 118.744777 190.122901 119.117303 189.459893 119.78031 
C 188.796885 120.443318 188.424359 121.342676 188.424359 122.28031 
C 188.424359 123.217945 188.796885 124.117303 189.459893 124.78031 
C 190.122901 125.443318 191.022258 125.815844 191.959893 125.815844 
z
" style="fill:none;stroke:#2ca02c;"/>
   </g>
   <g id="PathCollection_28">
    <path clip-path="url(#p4b2cdc51b8)" d="M 196.933155 121.745769 
C 197.87079 121.745769 198.770147 121.373242 199.433155 120.710235 
C 200.096163 120.047227 200.468689 119.147869 200.468689 118.210235 
C 200.468689 117.2726 200.096163 116.373242 199.433155 115.710235 
C 198.770147 115.047227 197.87079 114.674701 196.933155 114.674701 
C 195.995521 114.674701 195.096163 115.047227 194.433155 115.710235 
C 193.770147 116.373242 193.397621 117.2726 193.397621 118.210235 
C 193.397621 119.147869 193.770147 120.047227 194.433155 120.710235 
C 195.096163 121.373242 195.995521 121.745769 196.933155 121.745769 
z
" style="fill:none;stroke:#2ca02c;"/>
   </g>
   <g id="PathCollection_29">
    <path clip-path="url(#p4b2cdc51b8)" d="M 201.906417 117.587837 
C 202.844052 117.587837 203.743409 117.215311 204.406417 116.552303 
C 205.069425 115.889296 205.441951 114.989938 205.441951 114.052303 
C 205.441951 113.114669 205.069425 112.215311 204.406417 111.552303 
C 203.743409 110.889296 202.844052 110.516769 201.906417 110.516769 
C 200.968783 110.516769 200.069425 110.889296 199.406417 111.552303 
C 198.743409 112.215311 198.370883 113.114669 198.370883 114.052303 
C 198.370883 114.989938 198.743409 115.889296 199.406417 116.552303 
C 200.069425 117.215311 200.968783 117.587837 201.906417 117.587837 
z
" style="fill:none;stroke:#2ca02c;"/>
   </g>
   <g id="PathCollection_30">
    <path clip-path="url(#p4b2cdc51b8)" d="M 206.879679 113.367418 
C 207.817314 113.367418 208.716671 112.994891 209.379679 112.331884 
C 210.042687 111.668876 210.415213 110.769518 210.415213 109.831884 
C 210.415213 108.894249 210.042687 107.994891 209.379679 107.331884 
C 208.716671 106.668876 207.817314 106.29635 206.879679 106.29635 
C 205.942045 106.29635 205.042687 106.668876 204.379679 107.331884 
C 203.716671 107.994891 203.344145 108.894249 203.344145 109.831884 
C 203.344145 110.769518 203.716671 111.668876 204.379679 112.331884 
C 205.042687 112.994891 205.942045 113.367418 206.879679 113.367418 
z
" style="fill:none;stroke:#2ca02c;"/>
   </g>
   <g id="PathCollection_31">
    <path clip-path="url(#p4b2cdc51b8)" d="M 211.852941 109.116615 
C 212.790576 109.116615 213.689933 108.744089 214.352941 108.081081 
C 215.015949 107.418073 215.388475 106.518716 215.388475 105.581081 
C 215.388475 104.643446 215.015949 103.744089 214.352941 103.081081 
C 213.689933 102.418073 212.790576 102.045547 211.852941 102.045547 
C 210.915307 102.045547 210.015949 102.418073 209.352941 103.081081 
C 208.689933 103.744089 208.317407 104.643446 208.317407 105.581081 
C 208.317407 106.518716 208.689933 107.418073 209.352941 108.081081 
C 210.015949 108.744089 210.915307 109.116615 211.852941 109.116615 
z
" style="fill:none;stroke:#2ca02c;"/>
   </g>
   <g id="PathCollection_32">
    <path clip-path="url(#p4b2cdc51b8)" d="M 216.826203 104.874297 
C 217.763838 104.874297 218.663195 104.501771 219.326203 103.838763 
C 219.989211 103.175755 220.361737 102.276398 220.361737 101.338763 
C 220.361737 100.401129 219.989211 99.501771 219.326203 98.838763 
C 218.663195 98.175755 217.763838 97.803229 216.826203 97.803229 
C 215.888569 97.803229 214.989211 98.175755 214.326203 98.838763 
C 213.663195 99.501771 213.290669 100.401129 213.290669 101.338763 
C 213.290669 102.276398 213.663195 103.175755 214.326203 103.838763 
C 214.989211 104.501771 215.888569 104.874297 216.826203 104.874297 
z
" style="fill:none;stroke:#2ca02c;"/>
   </g>
   <g id="PathCollection_33">
    <path clip-path="url(#p4b2cdc51b8)" d="M 221.799465 100.685839 
C 222.7371 100.685839 223.636457 100.313313 224.299465 99.650305 
C 224.962473 98.987298 225.334999 98.08794 225.334999 97.150305 
C 225.334999 96.212671 224.962473 95.313313 224.299465 94.650305 
C 223.636457 93.987298 222.7371 93.614772 221.799465 93.614772 
C 220.861831 93.614772 219.962473 93.987298 219.299465 94.650305 
C 218.636457 95.313313 218.263931 96.212671 218.263931 97.150305 
C 218.263931 98.08794 218.636457 98.987298 219.299465 99.650305 
C 219.962473 100.313313 220.861831 100.685839 221.799465 100.685839 
z
" style="fill:none;stroke:#2ca02c;"/>
   </g>
   <g id="PathCollection_34">
    <path clip-path="url(#p4b2cdc51b8)" d="M 226.772727 96.602551 
C 227.710362 96.602551 228.60972 96.230025 229.272727 95.567017 
C 229.935735 94.90401 230.308261 94.004652 230.308261 93.067017 
C 230.308261 92.129383 229.935735 91.230025 229.272727 90.567017 
C 228.60972 89.90401 227.710362 89.531483 226.772727 89.531483 
C 225.835093 89.531483 224.935735 89.90401 224.272727 90.567017 
C 223.60972 91.230025 223.237193 92.129383 223.237193 93.067017 
C 223.237193 94.004652 223.60972 94.90401 224.272727 95.567017 
C 224.935735 96.230025 225.835093 96.602551 226.772727 96.602551 
z
" style="fill:none;stroke:#2ca02c;"/>
   </g>
   <g id="PathCollection_35">
    <path clip-path="url(#p4b2cdc51b8)" d="M 231.745989 92.68076 
C 232.683624 92.68076 233.582982 92.308234 234.245989 91.645226 
C 234.908997 90.982219 235.281523 90.082861 235.281523 89.145226 
C 235.281523 88.207592 234.908997 87.308234 234.245989 86.645226 
C 233.582982 85.982219 232.683624 85.609693 231.745989 85.609693 
C 230.808355 85.609693 229.908997 85.982219 229.245989 86.645226 
C 228.582982 87.308234 228.210455 88.207592 228.210455 89.145226 
C 228.210455 90.082861 228.582982 90.982219 229.245989 91.645226 
C 229.908997 92.308234 230.808355 92.68076 231.745989 92.68076 
z
" style="fill:none;stroke:#2ca02c;"/>
   </g>
   <g id="PathCollection_36">
    <path clip-path="url(#p4b2cdc51b8)" d="M 236.719251 88.980506 
C 237.656886 88.980506 238.556244 88.60798 239.219251 87.944972 
C 239.882259 87.281964 240.254785 86.382606 240.254785 85.444972 
C 240.254785 84.507337 239.882259 83.60798 239.219251 82.944972 
C 238.556244 82.281964 237.656886 81.909438 236.719251 81.909438 
C 235.781617 81.909438 234.882259 82.281964 234.219251 82.944972 
C 233.556244 83.60798 233.183717 84.507337 233.183717 85.444972 
C 233.183717 86.382606 233.556244 87.281964 234.219251 87.944972 
C 234.882259 88.60798 235.781617 88.980506 236.719251 88.980506 
z
" style="fill:none;stroke:#2ca02c;"/>
   </g>
   <g id="PathCollection_37">
    <path clip-path="url(#p4b2cdc51b8)" d="M 241.692513 85.563818 
C 242.630148 85.563818 243.529506 85.191292 244.192513 84.528284 
C 244.855521 83.865277 245.228047 82.965919 245.228047 82.028284 
C 245.228047 81.09065 244.855521 80.191292 244.192513 79.528284 
C 243.529506 78.865277 242.630148 78.492751 241.692513 78.492751 
C 240.754879 78.492751 239.855521 78.865277 239.192513 79.528284 
C 238.529506 80.191292 238.156979 81.09065 238.156979 82.028284 
C 238.156979 82.965919 238.529506 83.865277 239.192513 84.528284 
C 239.855521 85.191292 240.754879 85.563818 241.692513 85.563818 
z
" style="fill:none;stroke:#2ca02c;"/>
   </g>
   <g id="PathCollection_38">
    <path clip-path="url(#p4b2cdc51b8)" d="M 246.665775 82.492545 
C 247.60341 82.492545 248.502768 82.120019 249.165775 81.457012 
C 249.828783 80.794004 250.201309 79.894646 250.201309 78.957012 
C 250.201309 78.019377 249.828783 77.120019 249.165775 76.457012 
C 248.502768 75.794004 247.60341 75.421478 246.665775 75.421478 
C 245.728141 75.421478 244.828783 75.794004 244.165775 76.457012 
C 243.502768 77.120019 243.130241 78.019377 243.130241 78.957012 
C 243.130241 79.894646 243.502768 80.794004 244.165775 81.457012 
C 244.828783 82.120019 245.728141 82.492545 246.665775 82.492545 
z
" style="fill:none;stroke:#2ca02c;"/>
   </g>
   <g id="PathCollection_39">
    <path clip-path="url(#p4b2cdc51b8)" d="M 251.639037 79.825688 
C 252.576672 79.825688 253.47603 79.453162 254.139037 78.790154 
C 254.802045 78.127147 255.174571 77.227789 255.174571 76.290154 
C 255.174571 75.35252 254.802045 74.453162 254.139037 73.790154 
C 253.47603 73.127147 252.576672 72.75462 251.639037 72.75462 
C 250.701403 72.75462 249.802045 73.127147 249.139037 73.790154 
C 248.47603 74.453162 248.103504 75.35252 248.103504 76.290154 
C 248.103504 77.227789 248.47603 78.127147 249.139037 78.790154 
C 249.802045 79.453162 250.701403 79.825688 251.639037 79.825688 
z
" style="fill:none;stroke:#2ca02c;"/>
   </g>
   <g id="PathCollection_40">
    <path clip-path="url(#p4b2cdc51b8)" d="M 256.612299 77.616218 
C 257.549934 77.616218 258.449292 77.243692 259.112299 76.580684 
C 259.775307 75.917676 260.147833 75.018319 260.147833 74.080684 
C 260.147833 73.14305 259.775307 72.243692 259.112299 71.580684 
C 258.449292 70.917676 257.549934 70.54515 256.612299 70.54515 
C 255.674665 70.54515 254.775307 70.917676 254.112299 71.580684 
C 253.449292 72.243692 253.076766 73.14305 253.076766 74.080684 
C 253.076766 75.018319 253.449292 75.917676 254.112299 76.580684 
C 254.775307 77.243692 255.674665 77.616218 256.612299 77.616218 
z
" style="fill:none;stroke:#2ca02c;"/>
   </g>
   <g id="PathCollection_41">
    <path clip-path="url(#p4b2cdc51b8)" d="M 261.585561 75.907334 
C 262.523196 75.907334 263.422554 75.534808 264.085561 74.8718 
C 264.748569 74.208792 265.121095 73.309434 265.121095 72.3718 
C 265.121095 71.434165 264.748569 70.534808 264.085561 69.8718 
C 263.422554 69.208792 262.523196 68.836266 261.585561 68.836266 
C 260.647927 68.836266 259.748569 69.208792 259.085561 69.8718 
C 258.422554 70.534808 258.050028 71.434165 258.050028 72.3718 
C 258.050028 73.309434 258.422554 74.208792 259.085561 74.8718 
C 259.748569 75.534808 260.647927 75.907334 261.585561 75.907334 
z
" style="fill:none;stroke:#2ca02c;"/>
   </g>
   <g id="PathCollection_42">
    <path clip-path="url(#p4b2cdc51b8)" d="M 266.558824 74.728128 
C 267.496458 74.728128 268.395816 74.355602 269.058824 73.692594 
C 269.721831 73.029586 270.094357 72.130229 270.094357 71.192594 
C 270.094357 70.25496 269.721831 69.355602 269.058824 68.692594 
C 268.395816 68.029586 267.496458 67.65706 266.558824 67.65706 
C 265.621189 67.65706 264.721831 68.029586 264.058824 68.692594 
C 263.395816 69.355602 263.02329 70.25496 263.02329 71.192594 
C 263.02329 72.130229 263.395816 73.029586 264.058824 73.692594 
C 264.721831 74.355602 265.621189 74.728128 266.558824 74.728128 
z
" style="fill:none;stroke:#2ca02c;"/>
   </g>
   <g id="PathCollection_43">
    <path clip-path="url(#p4b2cdc51b8)" d="M 271.532086 74.08863 
C 272.46972 74.08863 273.369078 73.716103 274.032086 73.053096 
C 274.695093 72.390088 275.067619 71.49073 275.067619 70.553096 
C 275.067619 69.615461 274.695093 68.716103 274.032086 68.053096 
C 273.369078 67.390088 272.46972 67.017562 271.532086 67.017562 
C 270.594451 67.017562 269.695093 67.390088 269.032086 68.053096 
C 268.369078 68.716103 267.996552 69.615461 267.996552 70.553096 
C 267.996552 71.49073 268.369078 72.390088 269.032086 73.053096 
C 269.695093 73.716103 270.594451 74.08863 271.532086 74.08863 
z
" style="fill:none;stroke:#2ca02c;"/>
   </g>
   <g id="PathCollection_44">
    <path clip-path="url(#p4b2cdc51b8)" d="M 276.505348 73.97418 
C 277.442982 73.97418 278.34234 73.601654 279.005348 72.938646 
C 279.668355 72.275638 280.040881 71.376281 280.040881 70.438646 
C 280.040881 69.501011 279.668355 68.601654 279.005348 67.938646 
C 278.34234 67.275638 277.442982 66.903112 276.505348 66.903112 
C 275.567713 66.903112 274.668355 67.275638 274.005348 67.938646 
C 273.34234 68.601654 272.969814 69.501011 272.969814 70.438646 
C 272.969814 71.376281 273.34234 72.275638 274.005348 72.938646 
C 274.668355 73.601654 275.567713 73.97418 276.505348 73.97418 
z
" style="fill:none;stroke:#2ca02c;"/>
   </g>
   <g id="PathCollection_45">
    <path clip-path="url(#p4b2cdc51b8)" d="M 281.47861 74.33912 
C 282.416244 74.33912 283.315602 73.966594 283.97861 73.303586 
C 284.641617 72.640578 285.014144 71.74122 285.014144 70.803586 
C 285.014144 69.865951 284.641617 68.966594 283.97861 68.303586 
C 283.315602 67.640578 282.416244 67.268052 281.47861 67.268052 
C 280.540975 67.268052 279.641617 67.640578 278.97861 68.303586 
C 278.315602 68.966594 277.943076 69.865951 277.943076 70.803586 
C 277.943076 71.74122 278.315602 72.640578 278.97861 73.303586 
C 279.641617 73.966594 280.540975 74.33912 281.47861 74.33912 
z
" style="fill:none;stroke:#2ca02c;"/>
   </g>
   <g id="PathCollection_46">
    <path clip-path="url(#p4b2cdc51b8)" d="M 286.451872 75.099741 
C 287.389506 75.099741 288.288864 74.727215 288.951872 74.064207 
C 289.614879 73.401199 289.987406 72.501842 289.987406 71.564207 
C 289.987406 70.626572 289.614879 69.727215 288.951872 69.064207 
C 288.288864 68.401199 287.389506 68.028673 286.451872 68.028673 
C 285.514237 68.028673 284.614879 68.401199 283.951872 69.064207 
C 283.288864 69.727215 282.916338 70.626572 282.916338 71.564207 
C 282.916338 72.501842 283.288864 73.401199 283.951872 74.064207 
C 284.614879 74.727215 285.514237 75.099741 286.451872 75.099741 
z
" style="fill:none;stroke:#2ca02c;"/>
   </g>
   <g id="PathCollection_47">
    <path clip-path="url(#p4b2cdc51b8)" d="M 291.425134 76.126475 
C 292.362768 76.126475 293.262126 75.753949 293.925134 75.090941 
C 294.588141 74.427933 294.960668 73.528575 294.960668 72.590941 
C 294.960668 71.653306 294.588141 70.753949 293.925134 70.090941 
C 293.262126 69.427933 292.362768 69.055407 291.425134 69.055407 
C 290.487499 69.055407 289.588141 69.427933 288.925134 70.090941 
C 288.262126 70.753949 287.8896 71.653306 287.8896 72.590941 
C 287.8896 73.528575 288.262126 74.427933 288.925134 75.090941 
C 289.588141 75.753949 290.487499 76.126475 291.425134 76.126475 
z
" style="fill:none;stroke:#2ca02c;"/>
   </g>
   <g id="PathCollection_48">
    <path clip-path="url(#p4b2cdc51b8)" d="M 296.398396 77.235283 
C 297.33603 77.235283 298.235388 76.862757 298.898396 76.199749 
C 299.561403 75.536741 299.93393 74.637383 299.93393 73.699749 
C 299.93393 72.762114 299.561403 71.862757 298.898396 71.199749 
C 298.235388 70.536741 297.33603 70.164215 296.398396 70.164215 
C 295.460761 70.164215 294.561403 70.536741 293.898396 71.199749 
C 293.235388 71.862757 292.862862 72.762114 292.862862 73.699749 
C 292.862862 74.637383 293.235388 75.536741 293.898396 76.199749 
C 294.561403 76.862757 295.460761 77.235283 296.398396 77.235283 
z
" style="fill:none;stroke:#2ca02c;"/>
   </g>
   <g id="PathCollection_49">
    <path clip-path="url(#p4b2cdc51b8)" d="M 301.371658 78.178209 
C 302.309292 78.178209 303.20865 77.805683 303.871658 77.142675 
C 304.534666 76.479667 304.907192 75.58031 304.907192 74.642675 
C 304.907192 73.70504 304.534666 72.805683 303.871658 72.142675 
C 303.20865 71.479667 302.309292 71.107141 301.371658 71.107141 
C 300.434023 71.107141 299.534666 71.479667 298.871658 72.142675 
C 298.20865 72.805683 297.836124 73.70504 297.836124 74.642675 
C 297.836124 75.58031 298.20865 76.479667 298.871658 77.142675 
C 299.534666 77.805683 300.434023 78.178209 301.371658 78.178209 
z
" style="fill:none;stroke:#2ca02c;"/>
   </g>
   <g id="PathCollection_50">
    <path clip-path="url(#p4b2cdc51b8)" d="M 306.34492 78.633068 
C 307.282554 78.633068 308.181912 78.260542 308.84492 77.597534 
C 309.507928 76.934526 309.880454 76.035169 309.880454 75.097534 
C 309.880454 74.1599 309.507928 73.260542 308.84492 72.597534 
C 308.181912 71.934526 307.282554 71.562 306.34492 71.562 
C 305.407285 71.562 304.507928 71.934526 303.84492 72.597534 
C 303.181912 73.260542 302.809386 74.1599 302.809386 75.097534 
C 302.809386 76.035169 303.181912 76.934526 303.84492 77.597534 
C 304.507928 78.260542 305.407285 78.633068 306.34492 78.633068 
z
" style="fill:none;stroke:#2ca02c;"/>
   </g>
   <g id="PathCollection_51">
    <path clip-path="url(#p4b2cdc51b8)" d="M 311.318182 78.192225 
C 312.255816 78.192225 313.155174 77.819699 313.818182 77.156692 
C 314.48119 76.493684 314.853716 75.594326 314.853716 74.656692 
C 314.853716 73.719057 314.48119 72.819699 313.818182 72.156692 
C 313.155174 71.493684 312.255816 71.121158 311.318182 71.121158 
C 310.380547 71.121158 309.48119 71.493684 308.818182 72.156692 
C 308.155174 72.819699 307.782648 73.719057 307.782648 74.656692 
C 307.782648 75.594326 308.155174 76.493684 308.818182 77.156692 
C 309.48119 77.819699 310.380547 78.192225 311.318182 78.192225 
z
" style="fill:none;stroke:#2ca02c;"/>
   </g>
   <g id="PathCollection_52">
    <defs>
     <path d="M 0 3.535534 
C 0.937635 3.535534 1.836992 3.163008 2.5 2.5 
C 3.163008 1.836992 3.535534 0.937635 3.535534 0 
C 3.535534 -0.937635 3.163008 -1.836992 2.5 -2.5 
C 1.836992 -3.163008 0.937635 -3.535534 0 -3.535534 
C -0.937635 -3.535534 -1.836992 -3.163008 -2.5 -2.5 
C -3.163008 -1.836992 -3.535534 -0.937635 -3.535534 0 
C -3.535534 0.937635 -3.163008 1.836992 -2.5 2.5 
C -1.836992 3.163008 -0.937635 3.535534 0 3.535534 
z
" id="m448eb4ec6d" style="stroke:#2ca02c;"/>
    </defs>
    <g clip-path="url(#p4b2cdc51b8)">
     <use style="fill:#2ca02c;stroke:#2ca02c;" x="62.65508" xlink:href="#m448eb4ec6d" y="180.578814"/>
    </g>
   </g>
   <g id="PathCollection_53">
    <g clip-path="url(#p4b2cdc51b8)">
     <use style="fill:#2ca02c;stroke:#2ca02c;" x="67.628342" xlink:href="#m448eb4ec6d" y="179.561055"/>
    </g>
   </g>
   <g id="PathCollection_54">
    <g clip-path="url(#p4b2cdc51b8)">
     <use style="fill:#2ca02c;stroke:#2ca02c;" x="72.601604" xlink:href="#m448eb4ec6d" y="178.829489"/>
    </g>
   </g>
   <g id="PathCollection_55">
    <g clip-path="url(#p4b2cdc51b8)">
     <use style="fill:#2ca02c;stroke:#2ca02c;" x="77.574866" xlink:href="#m448eb4ec6d" y="178.171081"/>
    </g>
   </g>
   <g id="PathCollection_56">
    <g clip-path="url(#p4b2cdc51b8)">
     <use style="fill:#2ca02c;stroke:#2ca02c;" x="82.548128" xlink:href="#m448eb4ec6d" y="177.428299"/>
    </g>
   </g>
   <g id="PathCollection_57">
    <g clip-path="url(#p4b2cdc51b8)">
     <use style="fill:#2ca02c;stroke:#2ca02c;" x="87.52139" xlink:href="#m448eb4ec6d" y="176.489331"/>
    </g>
   </g>
   <g id="PathCollection_58">
    <g clip-path="url(#p4b2cdc51b8)">
     <use style="fill:#2ca02c;stroke:#2ca02c;" x="92.494652" xlink:href="#m448eb4ec6d" y="175.279896"/>
    </g>
   </g>
   <g id="PathCollection_59">
    <g clip-path="url(#p4b2cdc51b8)">
     <use style="fill:#2ca02c;stroke:#2ca02c;" x="97.467914" xlink:href="#m448eb4ec6d" y="173.755958"/>
    </g>
   </g>
   <g id="PathCollection_60">
    <g clip-path="url(#p4b2cdc51b8)">
     <use style="fill:#2ca02c;stroke:#2ca02c;" x="102.441176" xlink:href="#m448eb4ec6d" y="171.897281"/>
    </g>
   </g>
   <g id="PathCollection_61">
    <g clip-path="url(#p4b2cdc51b8)">
     <use style="fill:#2ca02c;stroke:#2ca02c;" x="107.414439" xlink:href="#m448eb4ec6d" y="169.701792"/>
    </g>
   </g>
   <g id="PathCollection_62">
    <g clip-path="url(#p4b2cdc51b8)">
     <use style="fill:#2ca02c;stroke:#2ca02c;" x="112.387701" xlink:href="#m448eb4ec6d" y="167.180702"/>
    </g>
   </g>
   <g id="PathCollection_63">
    <g clip-path="url(#p4b2cdc51b8)">
     <use style="fill:#2ca02c;stroke:#2ca02c;" x="117.360963" xlink:href="#m448eb4ec6d" y="164.354347"/>
    </g>
   </g>
   <g id="PathCollection_64">
    <g clip-path="url(#p4b2cdc51b8)">
     <use style="fill:#2ca02c;stroke:#2ca02c;" x="122.334225" xlink:href="#m448eb4ec6d" y="161.248694"/>
    </g>
   </g>
   <g id="PathCollection_65">
    <g clip-path="url(#p4b2cdc51b8)">
     <use style="fill:#2ca02c;stroke:#2ca02c;" x="127.307487" xlink:href="#m448eb4ec6d" y="157.892467"/>
    </g>
   </g>
   <g id="PathCollection_66">
    <g clip-path="url(#p4b2cdc51b8)">
     <use style="fill:#2ca02c;stroke:#2ca02c;" x="132.280749" xlink:href="#m448eb4ec6d" y="154.314863"/>
    </g>
   </g>
   <g id="PathCollection_67">
    <g clip-path="url(#p4b2cdc51b8)">
     <use style="fill:#2ca02c;stroke:#2ca02c;" x="137.254011" xlink:href="#m448eb4ec6d" y="150.543788"/>
    </g>
   </g>
   <g id="PathCollection_68">
    <g clip-path="url(#p4b2cdc51b8)">
     <use style="fill:#2ca02c;stroke:#2ca02c;" x="142.227273" xlink:href="#m448eb4ec6d" y="146.604597"/>
    </g>
   </g>
   <g id="PathCollection_69">
    <g clip-path="url(#p4b2cdc51b8)">
     <use style="fill:#2ca02c;stroke:#2ca02c;" x="147.200535" xlink:href="#m448eb4ec6d" y="142.519264"/>
    </g>
   </g>
   <g id="PathCollection_70">
    <g clip-path="url(#p4b2cdc51b8)">
     <use style="fill:#2ca02c;stroke:#2ca02c;" x="152.173797" xlink:href="#m448eb4ec6d" y="138.305955"/>
    </g>
   </g>
   <g id="PathCollection_71">
    <g clip-path="url(#p4b2cdc51b8)">
     <use style="fill:#2ca02c;stroke:#2ca02c;" x="157.147059" xlink:href="#m448eb4ec6d" y="133.978958"/>
    </g>
   </g>
   <g id="PathCollection_72">
    <g clip-path="url(#p4b2cdc51b8)">
     <use style="fill:#2ca02c;stroke:#2ca02c;" x="162.120321" xlink:href="#m448eb4ec6d" y="129.548916"/>
    </g>
   </g>
   <g id="PathCollection_73">
    <g clip-path="url(#p4b2cdc51b8)">
     <use style="fill:#2ca02c;stroke:#2ca02c;" x="167.093583" xlink:href="#m448eb4ec6d" y="125.023324"/>
    </g>
   </g>
   <g id="PathCollection_74">
    <g clip-path="url(#p4b2cdc51b8)">
     <use style="fill:#2ca02c;stroke:#2ca02c;" x="172.066845" xlink:href="#m448eb4ec6d" y="120.407241"/>
    </g>
   </g>
   <g id="PathCollection_75">
    <g clip-path="url(#p4b2cdc51b8)">
     <use style="fill:#2ca02c;stroke:#2ca02c;" x="177.040107" xlink:href="#m448eb4ec6d" y="115.704183"/>
    </g>
   </g>
   <g id="PathCollection_76">
    <g clip-path="url(#p4b2cdc51b8)">
     <use style="fill:#2ca02c;stroke:#2ca02c;" x="182.013369" xlink:href="#m448eb4ec6d" y="110.917134"/>
    </g>
   </g>
   <g id="PathCollection_77">
    <g clip-path="url(#p4b2cdc51b8)">
     <use style="fill:#2ca02c;stroke:#2ca02c;" x="186.986631" xlink:href="#m448eb4ec6d" y="106.049639"/>
    </g>
   </g>
   <g id="PathCollection_78">
    <g clip-path="url(#p4b2cdc51b8)">
     <use style="fill:#2ca02c;stroke:#2ca02c;" x="191.959893" xlink:href="#m448eb4ec6d" y="101.106944"/>
    </g>
   </g>
   <g id="PathCollection_79">
    <g clip-path="url(#p4b2cdc51b8)">
     <use style="fill:#2ca02c;stroke:#2ca02c;" x="196.933155" xlink:href="#m448eb4ec6d" y="96.097114"/>
    </g>
   </g>
   <g id="PathCollection_80">
    <g clip-path="url(#p4b2cdc51b8)">
     <use style="fill:#2ca02c;stroke:#2ca02c;" x="201.906417" xlink:href="#m448eb4ec6d" y="91.032108"/>
    </g>
   </g>
   <g id="PathCollection_81">
    <g clip-path="url(#p4b2cdc51b8)">
     <use style="fill:#2ca02c;stroke:#2ca02c;" x="206.879679" xlink:href="#m448eb4ec6d" y="85.928751"/>
    </g>
   </g>
   <g id="PathCollection_82">
    <g clip-path="url(#p4b2cdc51b8)">
     <use style="fill:#2ca02c;stroke:#2ca02c;" x="211.852941" xlink:href="#m448eb4ec6d" y="80.809562"/>
    </g>
   </g>
   <g id="PathCollection_83">
    <g clip-path="url(#p4b2cdc51b8)">
     <use style="fill:#2ca02c;stroke:#2ca02c;" x="216.826203" xlink:href="#m448eb4ec6d" y="75.703391"/>
    </g>
   </g>
   <g id="PathCollection_84">
    <g clip-path="url(#p4b2cdc51b8)">
     <use style="fill:#2ca02c;stroke:#2ca02c;" x="221.799465" xlink:href="#m448eb4ec6d" y="70.645829"/>
    </g>
   </g>
   <g id="PathCollection_85">
    <g clip-path="url(#p4b2cdc51b8)">
     <use style="fill:#2ca02c;stroke:#2ca02c;" x="226.772727" xlink:href="#m448eb4ec6d" y="65.679331"/>
    </g>
   </g>
   <g id="PathCollection_86">
    <g clip-path="url(#p4b2cdc51b8)">
     <use style="fill:#2ca02c;stroke:#2ca02c;" x="231.745989" xlink:href="#m448eb4ec6d" y="60.853017"/>
    </g>
   </g>
   <g id="PathCollection_87">
    <g clip-path="url(#p4b2cdc51b8)">
     <use style="fill:#2ca02c;stroke:#2ca02c;" x="236.719251" xlink:href="#m448eb4ec6d" y="56.222103"/>
    </g>
   </g>
   <g id="PathCollection_88">
    <g clip-path="url(#p4b2cdc51b8)">
     <use style="fill:#2ca02c;stroke:#2ca02c;" x="241.692513" xlink:href="#m448eb4ec6d" y="51.846921"/>
    </g>
   </g>
   <g id="PathCollection_89">
    <g clip-path="url(#p4b2cdc51b8)">
     <use style="fill:#2ca02c;stroke:#2ca02c;" x="246.665775" xlink:href="#m448eb4ec6d" y="47.79147"/>
    </g>
   </g>
   <g id="PathCollection_90">
    <g clip-path="url(#p4b2cdc51b8)">
     <use style="fill:#2ca02c;stroke:#2ca02c;" x="251.639037" xlink:href="#m448eb4ec6d" y="44.121471"/>
    </g>
   </g>
   <g id="PathCollection_91">
    <g clip-path="url(#p4b2cdc51b8)">
     <use style="fill:#2ca02c;stroke:#2ca02c;" x="256.612299" xlink:href="#m448eb4ec6d" y="40.901866"/>
    </g>
   </g>
   <g id="PathCollection_92">
    <g clip-path="url(#p4b2cdc51b8)">
     <use style="fill:#2ca02c;stroke:#2ca02c;" x="261.585561" xlink:href="#m448eb4ec6d" y="38.193721"/>
    </g>
   </g>
   <g id="PathCollection_93">
    <g clip-path="url(#p4b2cdc51b8)">
     <use style="fill:#2ca02c;stroke:#2ca02c;" x="266.558824" xlink:href="#m448eb4ec6d" y="36.050495"/>
    </g>
   </g>
   <g id="PathCollection_94">
    <g clip-path="url(#p4b2cdc51b8)">
     <use style="fill:#2ca02c;stroke:#2ca02c;" x="271.532086" xlink:href="#m448eb4ec6d" y="34.513614"/>
    </g>
   </g>
   <g id="PathCollection_95">
    <g clip-path="url(#p4b2cdc51b8)">
     <use style="fill:#2ca02c;stroke:#2ca02c;" x="276.505348" xlink:href="#m448eb4ec6d" y="33.607316"/>
    </g>
   </g>
   <g id="PathCollection_96">
    <g clip-path="url(#p4b2cdc51b8)">
     <use style="fill:#2ca02c;stroke:#2ca02c;" x="281.47861" xlink:href="#m448eb4ec6d" y="33.332727"/>
    </g>
   </g>
   <g id="PathCollection_97">
    <g clip-path="url(#p4b2cdc51b8)">
     <use style="fill:#2ca02c;stroke:#2ca02c;" x="286.451872" xlink:href="#m448eb4ec6d" y="33.661107"/>
    </g>
   </g>
   <g id="PathCollection_98">
    <g clip-path="url(#p4b2cdc51b8)">
     <use style="fill:#2ca02c;stroke:#2ca02c;" x="291.425134" xlink:href="#m448eb4ec6d" y="34.52623"/>
    </g>
   </g>
   <g id="PathCollection_99">
    <g clip-path="url(#p4b2cdc51b8)">
     <use style="fill:#2ca02c;stroke:#2ca02c;" x="296.398396" xlink:href="#m448eb4ec6d" y="35.815857"/>
    </g>
   </g>
   <g id="PathCollection_100">
    <g clip-path="url(#p4b2cdc51b8)">
     <use style="fill:#2ca02c;stroke:#2ca02c;" x="301.371658" xlink:href="#m448eb4ec6d" y="37.362249"/>
    </g>
   </g>
   <g id="PathCollection_101">
    <g clip-path="url(#p4b2cdc51b8)">
     <use style="fill:#2ca02c;stroke:#2ca02c;" x="306.34492" xlink:href="#m448eb4ec6d" y="38.931677"/>
    </g>
   </g>
   <g id="PathCollection_102">
    <g clip-path="url(#p4b2cdc51b8)">
     <use style="fill:#2ca02c;stroke:#2ca02c;" x="311.318182" xlink:href="#m448eb4ec6d" y="40.212883"/>
    </g>
   </g>
   <g id="matplotlib.axis_1"/>
   <g id="matplotlib.axis_2">
    <g id="ytick_1">
     <g id="line2d_1">
      <defs>
       <path d="M 0 0 
L -3.5 0 
" id="mee174250af" style="stroke:#000000;stroke-width:0.8;"/>
      </defs>
      <g>
       <use style="stroke:#000000;stroke-width:0.8;" x="45" xlink:href="#mee174250af" y="181.587273"/>
      </g>
     </g>
     <g id="text_1">
      <!-- 0.00 -->
      <g transform="translate(15.734375 185.386491)scale(0.1 -0.1)">
       <defs>
        <path d="M 31.78125 66.40625 
Q 24.171875 66.40625 20.328125 58.90625 
Q 16.5 51.421875 16.5 36.375 
Q 16.5 21.390625 20.328125 13.890625 
Q 24.171875 6.390625 31.78125 6.390625 
Q 39.453125 6.390625 43.28125 13.890625 
Q 47.125 21.390625 47.125 36.375 
Q 47.125 51.421875 43.28125 58.90625 
Q 39.453125 66.40625 31.78125 66.40625 
z
M 31.78125 74.21875 
Q 44.046875 74.21875 50.515625 64.515625 
Q 56.984375 54.828125 56.984375 36.375 
Q 56.984375 17.96875 50.515625 8.265625 
Q 44.046875 -1.421875 31.78125 -1.421875 
Q 19.53125 -1.421875 13.0625 8.265625 
Q 6.59375 17.96875 6.59375 36.375 
Q 6.59375 54.828125 13.0625 64.515625 
Q 19.53125 74.21875 31.78125 74.21875 
z
" id="DejaVuSans-48"/>
        <path d="M 10.6875 12.40625 
L 21 12.40625 
L 21 0 
L 10.6875 0 
z
" id="DejaVuSans-46"/>
       </defs>
       <use xlink:href="#DejaVuSans-48"/>
       <use x="63.623047" xlink:href="#DejaVuSans-46"/>
       <use x="95.410156" xlink:href="#DejaVuSans-48"/>
       <use x="159.033203" xlink:href="#DejaVuSans-48"/>
      </g>
     </g>
    </g>
    <g id="ytick_2">
     <g id="line2d_2">
      <g>
       <use style="stroke:#000000;stroke-width:0.8;" x="45" xlink:href="#mee174250af" y="157.576341"/>
      </g>
     </g>
     <g id="text_2">
      <!-- 0.05 -->
      <g transform="translate(15.734375 161.37556)scale(0.1 -0.1)">
       <defs>
        <path d="M 10.796875 72.90625 
L 49.515625 72.90625 
L 49.515625 64.59375 
L 19.828125 64.59375 
L 19.828125 46.734375 
Q 21.96875 47.46875 24.109375 47.828125 
Q 26.265625 48.1875 28.421875 48.1875 
Q 40.625 48.1875 47.75 41.5 
Q 54.890625 34.8125 54.890625 23.390625 
Q 54.890625 11.625 47.5625 5.09375 
Q 40.234375 -1.421875 26.90625 -1.421875 
Q 22.3125 -1.421875 17.546875 -0.640625 
Q 12.796875 0.140625 7.71875 1.703125 
L 7.71875 11.625 
Q 12.109375 9.234375 16.796875 8.0625 
Q 21.484375 6.890625 26.703125 6.890625 
Q 35.15625 6.890625 40.078125 11.328125 
Q 45.015625 15.765625 45.015625 23.390625 
Q 45.015625 31 40.078125 35.4375 
Q 35.15625 39.890625 26.703125 39.890625 
Q 22.75 39.890625 18.8125 39.015625 
Q 14.890625 38.140625 10.796875 36.28125 
z
" id="DejaVuSans-53"/>
       </defs>
       <use xlink:href="#DejaVuSans-48"/>
       <use x="63.623047" xlink:href="#DejaVuSans-46"/>
       <use x="95.410156" xlink:href="#DejaVuSans-48"/>
       <use x="159.033203" xlink:href="#DejaVuSans-53"/>
      </g>
     </g>
    </g>
    <g id="ytick_3">
     <g id="line2d_3">
      <g>
       <use style="stroke:#000000;stroke-width:0.8;" x="45" xlink:href="#mee174250af" y="133.565409"/>
      </g>
     </g>
     <g id="text_3">
      <!-- 0.10 -->
      <g transform="translate(15.734375 137.364628)scale(0.1 -0.1)">
       <defs>
        <path d="M 12.40625 8.296875 
L 28.515625 8.296875 
L 28.515625 63.921875 
L 10.984375 60.40625 
L 10.984375 69.390625 
L 28.421875 72.90625 
L 38.28125 72.90625 
L 38.28125 8.296875 
L 54.390625 8.296875 
L 54.390625 0 
L 12.40625 0 
z
" id="DejaVuSans-49"/>
       </defs>
       <use xlink:href="#DejaVuSans-48"/>
       <use x="63.623047" xlink:href="#DejaVuSans-46"/>
       <use x="95.410156" xlink:href="#DejaVuSans-49"/>
       <use x="159.033203" xlink:href="#DejaVuSans-48"/>
      </g>
     </g>
    </g>
    <g id="ytick_4">
     <g id="line2d_4">
      <g>
       <use style="stroke:#000000;stroke-width:0.8;" x="45" xlink:href="#mee174250af" y="109.554477"/>
      </g>
     </g>
     <g id="text_4">
      <!-- 0.15 -->
      <g transform="translate(15.734375 113.353696)scale(0.1 -0.1)">
       <use xlink:href="#DejaVuSans-48"/>
       <use x="63.623047" xlink:href="#DejaVuSans-46"/>
       <use x="95.410156" xlink:href="#DejaVuSans-49"/>
       <use x="159.033203" xlink:href="#DejaVuSans-53"/>
      </g>
     </g>
    </g>
    <g id="ytick_5">
     <g id="line2d_5">
      <g>
       <use style="stroke:#000000;stroke-width:0.8;" x="45" xlink:href="#mee174250af" y="85.543545"/>
      </g>
     </g>
     <g id="text_5">
      <!-- 0.20 -->
      <g transform="translate(15.734375 89.342764)scale(0.1 -0.1)">
       <defs>
        <path d="M 19.1875 8.296875 
L 53.609375 8.296875 
L 53.609375 0 
L 7.328125 0 
L 7.328125 8.296875 
Q 12.9375 14.109375 22.625 23.890625 
Q 32.328125 33.6875 34.8125 36.53125 
Q 39.546875 41.84375 41.421875 45.53125 
Q 43.3125 49.21875 43.3125 52.78125 
Q 43.3125 58.59375 39.234375 62.25 
Q 35.15625 65.921875 28.609375 65.921875 
Q 23.96875 65.921875 18.8125 64.3125 
Q 13.671875 62.703125 7.8125 59.421875 
L 7.8125 69.390625 
Q 13.765625 71.78125 18.9375 73 
Q 24.125 74.21875 28.421875 74.21875 
Q 39.75 74.21875 46.484375 68.546875 
Q 53.21875 62.890625 53.21875 53.421875 
Q 53.21875 48.921875 51.53125 44.890625 
Q 49.859375 40.875 45.40625 35.40625 
Q 44.1875 33.984375 37.640625 27.21875 
Q 31.109375 20.453125 19.1875 8.296875 
z
" id="DejaVuSans-50"/>
       </defs>
       <use xlink:href="#DejaVuSans-48"/>
       <use x="63.623047" xlink:href="#DejaVuSans-46"/>
       <use x="95.410156" xlink:href="#DejaVuSans-50"/>
       <use x="159.033203" xlink:href="#DejaVuSans-48"/>
      </g>
     </g>
    </g>
    <g id="ytick_6">
     <g id="line2d_6">
      <g>
       <use style="stroke:#000000;stroke-width:0.8;" x="45" xlink:href="#mee174250af" y="61.532613"/>
      </g>
     </g>
     <g id="text_6">
      <!-- 0.25 -->
      <g transform="translate(15.734375 65.331832)scale(0.1 -0.1)">
       <use xlink:href="#DejaVuSans-48"/>
       <use x="63.623047" xlink:href="#DejaVuSans-46"/>
       <use x="95.410156" xlink:href="#DejaVuSans-50"/>
       <use x="159.033203" xlink:href="#DejaVuSans-53"/>
      </g>
     </g>
    </g>
    <g id="ytick_7">
     <g id="line2d_7">
      <g>
       <use style="stroke:#000000;stroke-width:0.8;" x="45" xlink:href="#mee174250af" y="37.521682"/>
      </g>
     </g>
     <g id="text_7">
      <!-- 0.30 -->
      <g transform="translate(15.734375 41.3209)scale(0.1 -0.1)">
       <defs>
        <path d="M 40.578125 39.3125 
Q 47.65625 37.796875 51.625 33 
Q 55.609375 28.21875 55.609375 21.1875 
Q 55.609375 10.40625 48.1875 4.484375 
Q 40.765625 -1.421875 27.09375 -1.421875 
Q 22.515625 -1.421875 17.65625 -0.515625 
Q 12.796875 0.390625 7.625 2.203125 
L 7.625 11.71875 
Q 11.71875 9.328125 16.59375 8.109375 
Q 21.484375 6.890625 26.8125 6.890625 
Q 36.078125 6.890625 40.9375 10.546875 
Q 45.796875 14.203125 45.796875 21.1875 
Q 45.796875 27.640625 41.28125 31.265625 
Q 36.765625 34.90625 28.71875 34.90625 
L 20.21875 34.90625 
L 20.21875 43.015625 
L 29.109375 43.015625 
Q 36.375 43.015625 40.234375 45.921875 
Q 44.09375 48.828125 44.09375 54.296875 
Q 44.09375 59.90625 40.109375 62.90625 
Q 36.140625 65.921875 28.71875 65.921875 
Q 24.65625 65.921875 20.015625 65.03125 
Q 15.375 64.15625 9.8125 62.3125 
L 9.8125 71.09375 
Q 15.4375 72.65625 20.34375 73.4375 
Q 25.25 74.21875 29.59375 74.21875 
Q 40.828125 74.21875 47.359375 69.109375 
Q 53.90625 64.015625 53.90625 55.328125 
Q 53.90625 49.265625 50.4375 45.09375 
Q 46.96875 40.921875 40.578125 39.3125 
z
" id="DejaVuSans-51"/>
       </defs>
       <use xlink:href="#DejaVuSans-48"/>
       <use x="63.623047" xlink:href="#DejaVuSans-46"/>
       <use x="95.410156" xlink:href="#DejaVuSans-51"/>
       <use x="159.033203" xlink:href="#DejaVuSans-48"/>
      </g>
     </g>
    </g>
   </g>
   <g id="line2d_8">
    <path clip-path="url(#p4b2cdc51b8)" d="M 57.681818 181.587273 
L 86.858289 181.476615 
L 89.614305 181.166265 
L 92.349599 180.631988 
L 95.188503 179.847076 
L 98.151738 178.794306 
L 101.280749 177.443784 
L 104.616979 175.756949 
L 108.18115 173.699417 
L 111.993984 171.236015 
L 116.117647 168.300891 
L 120.614305 164.819956 
L 125.546123 160.713636 
L 131.037433 155.844888 
L 137.295455 149.990204 
L 144.67246 142.772036 
L 154.03877 133.276538 
L 169.766711 116.959597 
L 187.110963 99.071366 
L 198.321524 87.832148 
L 206.444519 79.971151 
L 209.552807 77.27593 
L 212.453877 75.051584 
L 215.354947 73.105783 
L 218.276738 71.412153 
L 221.239973 69.949677 
L 224.265374 68.703753 
L 227.352941 67.671844 
L 230.523396 66.845976 
L 233.79746 66.22311 
L 237.195856 65.804451 
L 240.718583 65.595391 
L 244.407086 65.600639 
L 248.282086 65.830454 
L 252.364305 66.296752 
L 256.715909 67.020315 
L 261.35762 68.020105 
L 266.372326 69.331241 
L 271.822193 70.989899 
L 277.831551 73.056044 
L 284.566176 75.612548 
L 292.295455 78.791109 
L 301.599599 82.867143 
L 311.318182 87.311278 
L 311.318182 87.311278 
" style="fill:none;stroke:#2ca02c;stroke-dasharray:11.1,4.8;stroke-dashoffset:0;stroke-width:3;"/>
   </g>
   <g id="line2d_9">
    <path clip-path="url(#p4b2cdc51b8)" d="M 57.681818 181.587273 
L 86.837567 181.476721 
L 89.572861 181.167389 
L 92.287433 180.634722 
L 95.105615 179.851511 
L 98.048128 178.800144 
L 101.156417 177.450239 
L 104.471925 175.762583 
L 107.994652 173.714917 
L 111.766043 171.261464 
L 115.82754 168.350673 
L 120.262032 164.893864 
L 125.110963 160.827658 
L 130.519385 155.996553 
L 136.673797 150.192389 
L 143.885027 143.074943 
L 152.878342 133.87157 
L 167.031417 119.026127 
L 186.489305 98.668839 
L 197.762032 87.206729 
L 206.216578 78.898692 
L 209.345588 76.129293 
L 212.246658 73.856272 
L 215.127005 71.879437 
L 218.028075 70.155318 
L 220.970588 68.662832 
L 223.975267 67.387319 
L 227.042112 66.326469 
L 230.191845 65.472311 
L 233.445187 64.821875 
L 236.802139 64.378558 
L 240.283422 64.143435 
L 243.930481 64.121465 
L 247.764037 64.323419 
L 251.804813 64.761788 
L 256.094251 65.453951 
L 260.673797 66.421555 
L 265.605615 67.694844 
L 270.951872 69.308675 
L 276.836898 71.322338 
L 283.405749 73.810883 
L 290.907086 76.897189 
L 299.838235 80.821285 
L 311.318182 86.119546 
L 311.318182 86.119546 
" style="fill:none;stroke:#2ca02c;stroke-linecap:square;stroke-width:3;"/>
   </g>
   <g id="patch_3">
    <path d="M 45 189 
L 45 25.92 
" style="fill:none;stroke:#000000;stroke-linecap:square;stroke-linejoin:miter;stroke-width:0.8;"/>
   </g>
   <g id="patch_4">
    <path d="M 324 189 
L 324 25.92 
" style="fill:none;stroke:#000000;stroke-linecap:square;stroke-linejoin:miter;stroke-width:0.8;"/>
   </g>
   <g id="patch_5">
    <path d="M 45 189 
L 324 189 
" style="fill:none;stroke:#000000;stroke-linecap:square;stroke-linejoin:miter;stroke-width:0.8;"/>
   </g>
   <g id="patch_6">
    <path d="M 45 25.92 
L 324 25.92 
" style="fill:none;stroke:#000000;stroke-linecap:square;stroke-linejoin:miter;stroke-width:0.8;"/>
   </g>
  </g>
 </g>
 <defs>
  <clipPath id="p4b2cdc51b8">
   <rect height="163.08" width="279" x="45" y="25.92"/>
  </clipPath>
 </defs>
</svg>
