<?xml version="1.0" encoding="utf-8" standalone="no"?>
<!DOCTYPE svg PUBLIC "-//W3C//DTD SVG 1.1//EN"
  "http://www.w3.org/Graphics/SVG/1.1/DTD/svg11.dtd">
<!-- Created with matplotlib (https://matplotlib.org/) -->
<svg height="216pt" version="1.1" viewBox="0 0 360 216" width="360pt" xmlns="http://www.w3.org/2000/svg" xmlns:xlink="http://www.w3.org/1999/xlink">
 <metadata>
  <rdf:RDF xmlns:cc="http://creativecommons.org/ns#" xmlns:dc="http://purl.org/dc/elements/1.1/" xmlns:rdf="http://www.w3.org/1999/02/22-rdf-syntax-ns#">
   <cc:Work>
    <dc:type rdf:resource="http://purl.org/dc/dcmitype/StillImage"/>
    <dc:date>2024-12-06T10:16:45.042173</dc:date>
    <dc:format>image/svg+xml</dc:format>
    <dc:creator>
     <cc:Agent>
      <dc:title>Matplotlib v3.3.2, https://matplotlib.org/</dc:title>
     </cc:Agent>
    </dc:creator>
   </cc:Work>
  </rdf:RDF>
 </metadata>
 <defs>
  <style type="text/css">*{stroke-linecap:butt;stroke-linejoin:round;}</style>
 </defs>
 <g id="figure_1">
  <g id="patch_1">
   <path d="M 0 216 
L 360 216 
L 360 0 
L 0 0 
z
" style="fill:none;"/>
  </g>
  <g id="axes_1">
   <g id="patch_2">
    <path d="M 45 189 
L 324 189 
L 324 25.92 
L 45 25.92 
z
" style="fill:#ffffff;"/>
   </g>
   <g id="PathCollection_1">
    <path clip-path="url(#p1521cc4cdd)" d="M 62.65508 184.756148 
C 63.592715 184.756148 64.492072 184.383622 65.15508 183.720614 
C 65.818088 183.057606 66.190614 182.158249 66.190614 181.220614 
C 66.190614 180.28298 65.818088 179.383622 65.15508 178.720614 
C 64.492072 178.057606 63.592715 177.68508 62.65508 177.68508 
C 61.717446 177.68508 60.818088 178.057606 60.15508 178.720614 
C 59.492072 179.383622 59.119546 180.28298 59.119546 181.220614 
C 59.119546 182.158249 59.492072 183.057606 60.15508 183.720614 
C 60.818088 184.383622 61.717446 184.756148 62.65508 184.756148 
z
" style="fill:none;stroke:#9467bd;"/>
   </g>
   <g id="PathCollection_2">
    <path clip-path="url(#p1521cc4cdd)" d="M 67.628342 184.904565 
C 68.565977 184.904565 69.465334 184.532039 70.128342 183.869032 
C 70.79135 183.206024 71.163876 182.306666 71.163876 181.369032 
C 71.163876 180.431397 70.79135 179.532039 70.128342 178.869032 
C 69.465334 178.206024 68.565977 177.833498 67.628342 177.833498 
C 66.690708 177.833498 65.79135 178.206024 65.128342 178.869032 
C 64.465334 179.532039 64.092808 180.431397 64.092808 181.369032 
C 64.092808 182.306666 64.465334 183.206024 65.128342 183.869032 
C 65.79135 184.532039 66.690708 184.904565 67.628342 184.904565 
z
" style="fill:none;stroke:#9467bd;"/>
   </g>
   <g id="PathCollection_3">
    <path clip-path="url(#p1521cc4cdd)" d="M 72.601604 185.122807 
C 73.539239 185.122807 74.438597 184.75028 75.101604 184.087273 
C 75.764612 183.424265 76.137138 182.524907 76.137138 181.587273 
C 76.137138 180.649638 75.764612 179.75028 75.101604 179.087273 
C 74.438597 178.424265 73.539239 178.051739 72.601604 178.051739 
C 71.66397 178.051739 70.764612 178.424265 70.101604 179.087273 
C 69.438597 179.75028 69.06607 180.649638 69.06607 181.587273 
C 69.06607 182.524907 69.438597 183.424265 70.101604 184.087273 
C 70.764612 184.75028 71.66397 185.122807 72.601604 185.122807 
z
" style="fill:none;stroke:#9467bd;"/>
   </g>
   <g id="PathCollection_4">
    <path clip-path="url(#p1521cc4cdd)" d="M 77.574866 185.098441 
C 78.512501 185.098441 79.411859 184.725915 80.074866 184.062907 
C 80.737874 183.3999 81.1104 182.500542 81.1104 181.562907 
C 81.1104 180.625273 80.737874 179.725915 80.074866 179.062907 
C 79.411859 178.3999 78.512501 178.027374 77.574866 178.027374 
C 76.637232 178.027374 75.737874 178.3999 75.074866 179.062907 
C 74.411859 179.725915 74.039332 180.625273 74.039332 181.562907 
C 74.039332 182.500542 74.411859 183.3999 75.074866 184.062907 
C 75.737874 184.725915 76.637232 185.098441 77.574866 185.098441 
z
" style="fill:none;stroke:#9467bd;"/>
   </g>
   <g id="PathCollection_5">
    <path clip-path="url(#p1521cc4cdd)" d="M 82.548128 184.61668 
C 83.485763 184.61668 84.385121 184.244154 85.048128 183.581146 
C 85.711136 182.918139 86.083662 182.018781 86.083662 181.081146 
C 86.083662 180.143512 85.711136 179.244154 85.048128 178.581146 
C 84.385121 177.918139 83.485763 177.545612 82.548128 177.545612 
C 81.610494 177.545612 80.711136 177.918139 80.048128 178.581146 
C 79.385121 179.244154 79.012594 180.143512 79.012594 181.081146 
C 79.012594 182.018781 79.385121 182.918139 80.048128 183.581146 
C 80.711136 184.244154 81.610494 184.61668 82.548128 184.61668 
z
" style="fill:none;stroke:#9467bd;"/>
   </g>
   <g id="PathCollection_6">
    <path clip-path="url(#p1521cc4cdd)" d="M 87.52139 183.543765 
C 88.459025 183.543765 89.358383 183.171239 90.02139 182.508231 
C 90.684398 181.845223 91.056924 180.945866 91.056924 180.008231 
C 91.056924 179.070597 90.684398 178.171239 90.02139 177.508231 
C 89.358383 176.845223 88.459025 176.472697 87.52139 176.472697 
C 86.583756 176.472697 85.684398 176.845223 85.02139 177.508231 
C 84.358383 178.171239 83.985856 179.070597 83.985856 180.008231 
C 83.985856 180.945866 84.358383 181.845223 85.02139 182.508231 
C 85.684398 183.171239 86.583756 183.543765 87.52139 183.543765 
z
" style="fill:none;stroke:#9467bd;"/>
   </g>
   <g id="PathCollection_7">
    <path clip-path="url(#p1521cc4cdd)" d="M 92.494652 181.812048 
C 93.432287 181.812048 94.331645 181.439521 94.994652 180.776514 
C 95.65766 180.113506 96.030186 179.214148 96.030186 178.276514 
C 96.030186 177.338879 95.65766 176.439521 94.994652 175.776514 
C 94.331645 175.113506 93.432287 174.74098 92.494652 174.74098 
C 91.557018 174.74098 90.65766 175.113506 89.994652 175.776514 
C 89.331645 176.439521 88.959119 177.338879 88.959119 178.276514 
C 88.959119 179.214148 89.331645 180.113506 89.994652 180.776514 
C 90.65766 181.439521 91.557018 181.812048 92.494652 181.812048 
z
" style="fill:none;stroke:#9467bd;"/>
   </g>
   <g id="PathCollection_8">
    <path clip-path="url(#p1521cc4cdd)" d="M 97.467914 179.406572 
C 98.405549 179.406572 99.304907 179.034046 99.967914 178.371038 
C 100.630922 177.708031 101.003448 176.808673 101.003448 175.871038 
C 101.003448 174.933404 100.630922 174.034046 99.967914 173.371038 
C 99.304907 172.708031 98.405549 172.335505 97.467914 172.335505 
C 96.53028 172.335505 95.630922 172.708031 94.967914 173.371038 
C 94.304907 174.034046 93.932381 174.933404 93.932381 175.871038 
C 93.932381 176.808673 94.304907 177.708031 94.967914 178.371038 
C 95.630922 179.034046 96.53028 179.406572 97.467914 179.406572 
z
" style="fill:none;stroke:#9467bd;"/>
   </g>
   <g id="PathCollection_9">
    <path clip-path="url(#p1521cc4cdd)" d="M 102.441176 176.353203 
C 103.378811 176.353203 104.278169 175.980677 104.941176 175.317669 
C 105.604184 174.654661 105.97671 173.755304 105.97671 172.817669 
C 105.97671 171.880035 105.604184 170.980677 104.941176 170.317669 
C 104.278169 169.654661 103.378811 169.282135 102.441176 169.282135 
C 101.503542 169.282135 100.604184 169.654661 99.941176 170.317669 
C 99.278169 170.980677 98.905643 171.880035 98.905643 172.817669 
C 98.905643 173.755304 99.278169 174.654661 99.941176 175.317669 
C 100.604184 175.980677 101.503542 176.353203 102.441176 176.353203 
z
" style="fill:none;stroke:#9467bd;"/>
   </g>
   <g id="PathCollection_10">
    <path clip-path="url(#p1521cc4cdd)" d="M 107.414439 172.708143 
C 108.352073 172.708143 109.251431 172.335617 109.914439 171.672609 
C 110.577446 171.009601 110.949972 170.110244 110.949972 169.172609 
C 110.949972 168.234975 110.577446 167.335617 109.914439 166.672609 
C 109.251431 166.009601 108.352073 165.637075 107.414439 165.637075 
C 106.476804 165.637075 105.577446 166.009601 104.914439 166.672609 
C 104.251431 167.335617 103.878905 168.234975 103.878905 169.172609 
C 103.878905 170.110244 104.251431 171.009601 104.914439 171.672609 
C 105.577446 172.335617 106.476804 172.708143 107.414439 172.708143 
z
" style="fill:none;stroke:#9467bd;"/>
   </g>
   <g id="PathCollection_11">
    <path clip-path="url(#p1521cc4cdd)" d="M 112.387701 168.548804 
C 113.325335 168.548804 114.224693 168.176278 114.887701 167.51327 
C 115.550708 166.850263 115.923234 165.950905 115.923234 165.01327 
C 115.923234 164.075636 115.550708 163.176278 114.887701 162.51327 
C 114.224693 161.850263 113.325335 161.477737 112.387701 161.477737 
C 111.450066 161.477737 110.550708 161.850263 109.887701 162.51327 
C 109.224693 163.176278 108.852167 164.075636 108.852167 165.01327 
C 108.852167 165.950905 109.224693 166.850263 109.887701 167.51327 
C 110.550708 168.176278 111.450066 168.548804 112.387701 168.548804 
z
" style="fill:none;stroke:#9467bd;"/>
   </g>
   <g id="PathCollection_12">
    <path clip-path="url(#p1521cc4cdd)" d="M 117.360963 163.96594 
C 118.298597 163.96594 119.197955 163.593414 119.860963 162.930406 
C 120.52397 162.267398 120.896496 161.368041 120.896496 160.430406 
C 120.896496 159.492772 120.52397 158.593414 119.860963 157.930406 
C 119.197955 157.267398 118.298597 156.894872 117.360963 156.894872 
C 116.423328 156.894872 115.52397 157.267398 114.860963 157.930406 
C 114.197955 158.593414 113.825429 159.492772 113.825429 160.430406 
C 113.825429 161.368041 114.197955 162.267398 114.860963 162.930406 
C 115.52397 163.593414 116.423328 163.96594 117.360963 163.96594 
z
" style="fill:none;stroke:#9467bd;"/>
   </g>
   <g id="PathCollection_13">
    <path clip-path="url(#p1521cc4cdd)" d="M 122.334225 159.056972 
C 123.271859 159.056972 124.171217 158.684446 124.834225 158.021438 
C 125.497232 157.358431 125.869759 156.459073 125.869759 155.521438 
C 125.869759 154.583804 125.497232 153.684446 124.834225 153.021438 
C 124.171217 152.358431 123.271859 151.985904 122.334225 151.985904 
C 121.39659 151.985904 120.497232 152.358431 119.834225 153.021438 
C 119.171217 153.684446 118.798691 154.583804 118.798691 155.521438 
C 118.798691 156.459073 119.171217 157.358431 119.834225 158.021438 
C 120.497232 158.684446 121.39659 159.056972 122.334225 159.056972 
z
" style="fill:none;stroke:#9467bd;"/>
   </g>
   <g id="PathCollection_14">
    <path clip-path="url(#p1521cc4cdd)" d="M 127.307487 153.920433 
C 128.245121 153.920433 129.144479 153.547907 129.807487 152.884899 
C 130.470494 152.221891 130.843021 151.322533 130.843021 150.384899 
C 130.843021 149.447264 130.470494 148.547907 129.807487 147.884899 
C 129.144479 147.221891 128.245121 146.849365 127.307487 146.849365 
C 126.369852 146.849365 125.470494 147.221891 124.807487 147.884899 
C 124.144479 148.547907 123.771953 149.447264 123.771953 150.384899 
C 123.771953 151.322533 124.144479 152.221891 124.807487 152.884899 
C 125.470494 153.547907 126.369852 153.920433 127.307487 153.920433 
z
" style="fill:none;stroke:#9467bd;"/>
   </g>
   <g id="PathCollection_15">
    <path clip-path="url(#p1521cc4cdd)" d="M 132.280749 148.651449 
C 133.218383 148.651449 134.117741 148.278923 134.780749 147.615915 
C 135.443756 146.952907 135.816283 146.05355 135.816283 145.115915 
C 135.816283 144.178281 135.443756 143.278923 134.780749 142.615915 
C 134.117741 141.952907 133.218383 141.580381 132.280749 141.580381 
C 131.343114 141.580381 130.443756 141.952907 129.780749 142.615915 
C 129.117741 143.278923 128.745215 144.178281 128.745215 145.115915 
C 128.745215 146.05355 129.117741 146.952907 129.780749 147.615915 
C 130.443756 148.278923 131.343114 148.651449 132.280749 148.651449 
z
" style="fill:none;stroke:#9467bd;"/>
   </g>
   <g id="PathCollection_16">
    <path clip-path="url(#p1521cc4cdd)" d="M 137.254011 143.338191 
C 138.191645 143.338191 139.091003 142.965664 139.754011 142.302657 
C 140.417018 141.639649 140.789545 140.740291 140.789545 139.802657 
C 140.789545 138.865022 140.417018 137.965664 139.754011 137.302657 
C 139.091003 136.639649 138.191645 136.267123 137.254011 136.267123 
C 136.316376 136.267123 135.417018 136.639649 134.754011 137.302657 
C 134.091003 137.965664 133.718477 138.865022 133.718477 139.802657 
C 133.718477 140.740291 134.091003 141.639649 134.754011 142.302657 
C 135.417018 142.965664 136.316376 143.338191 137.254011 143.338191 
z
" style="fill:none;stroke:#9467bd;"/>
   </g>
   <g id="PathCollection_17">
    <path clip-path="url(#p1521cc4cdd)" d="M 142.227273 138.059212 
C 143.164907 138.059212 144.064265 137.686685 144.727273 137.023678 
C 145.39028 136.36067 145.762807 135.461312 145.762807 134.523678 
C 145.762807 133.586043 145.39028 132.686685 144.727273 132.023678 
C 144.064265 131.36067 143.164907 130.988144 142.227273 130.988144 
C 141.289638 130.988144 140.39028 131.36067 139.727273 132.023678 
C 139.064265 132.686685 138.691739 133.586043 138.691739 134.523678 
C 138.691739 135.461312 139.064265 136.36067 139.727273 137.023678 
C 140.39028 137.686685 141.289638 138.059212 142.227273 138.059212 
z
" style="fill:none;stroke:#9467bd;"/>
   </g>
   <g id="PathCollection_18">
    <path clip-path="url(#p1521cc4cdd)" d="M 147.200535 132.881607 
C 148.138169 132.881607 149.037527 132.50908 149.700535 131.846073 
C 150.363543 131.183065 150.736069 130.283707 150.736069 129.346073 
C 150.736069 128.408438 150.363543 127.50908 149.700535 126.846073 
C 149.037527 126.183065 148.138169 125.810539 147.200535 125.810539 
C 146.2629 125.810539 145.363543 126.183065 144.700535 126.846073 
C 144.037527 127.50908 143.665001 128.408438 143.665001 129.346073 
C 143.665001 130.283707 144.037527 131.183065 144.700535 131.846073 
C 145.363543 132.50908 146.2629 132.881607 147.200535 132.881607 
z
" style="fill:none;stroke:#9467bd;"/>
   </g>
   <g id="PathCollection_19">
    <path clip-path="url(#p1521cc4cdd)" d="M 152.173797 127.859905 
C 153.111431 127.859905 154.010789 127.487379 154.673797 126.824371 
C 155.336805 126.161364 155.709331 125.262006 155.709331 124.324371 
C 155.709331 123.386737 155.336805 122.487379 154.673797 121.824371 
C 154.010789 121.161364 153.111431 120.788837 152.173797 120.788837 
C 151.236162 120.788837 150.336805 121.161364 149.673797 121.824371 
C 149.010789 122.487379 148.638263 123.386737 148.638263 124.324371 
C 148.638263 125.262006 149.010789 126.161364 149.673797 126.824371 
C 150.336805 127.487379 151.236162 127.859905 152.173797 127.859905 
z
" style="fill:none;stroke:#9467bd;"/>
   </g>
   <g id="PathCollection_20">
    <path clip-path="url(#p1521cc4cdd)" d="M 157.147059 123.035635 
C 158.084693 123.035635 158.984051 122.663108 159.647059 122.000101 
C 160.310067 121.337093 160.682593 120.437735 160.682593 119.500101 
C 160.682593 118.562466 160.310067 117.663108 159.647059 117.000101 
C 158.984051 116.337093 158.084693 115.964567 157.147059 115.964567 
C 156.209424 115.964567 155.310067 116.337093 154.647059 117.000101 
C 153.984051 117.663108 153.611525 118.562466 153.611525 119.500101 
C 153.611525 120.437735 153.984051 121.337093 154.647059 122.000101 
C 155.310067 122.663108 156.209424 123.035635 157.147059 123.035635 
z
" style="fill:none;stroke:#9467bd;"/>
   </g>
   <g id="PathCollection_21">
    <path clip-path="url(#p1521cc4cdd)" d="M 162.120321 118.437472 
C 163.057955 118.437472 163.957313 118.064946 164.620321 117.401938 
C 165.283329 116.73893 165.655855 115.839573 165.655855 114.901938 
C 165.655855 113.964304 165.283329 113.064946 164.620321 112.401938 
C 163.957313 111.73893 163.057955 111.366404 162.120321 111.366404 
C 161.182686 111.366404 160.283329 111.73893 159.620321 112.401938 
C 158.957313 113.064946 158.584787 113.964304 158.584787 114.901938 
C 158.584787 115.839573 158.957313 116.73893 159.620321 117.401938 
C 160.283329 118.064946 161.182686 118.437472 162.120321 118.437472 
z
" style="fill:none;stroke:#9467bd;"/>
   </g>
   <g id="PathCollection_22">
    <path clip-path="url(#p1521cc4cdd)" d="M 167.093583 114.081907 
C 168.031217 114.081907 168.930575 113.709381 169.593583 113.046373 
C 170.256591 112.383365 170.629117 111.484007 170.629117 110.546373 
C 170.629117 109.608738 170.256591 108.709381 169.593583 108.046373 
C 168.930575 107.383365 168.031217 107.010839 167.093583 107.010839 
C 166.155948 107.010839 165.256591 107.383365 164.593583 108.046373 
C 163.930575 108.709381 163.558049 109.608738 163.558049 110.546373 
C 163.558049 111.484007 163.930575 112.383365 164.593583 113.046373 
C 165.256591 113.709381 166.155948 114.081907 167.093583 114.081907 
z
" style="fill:none;stroke:#9467bd;"/>
   </g>
   <g id="PathCollection_23">
    <path clip-path="url(#p1521cc4cdd)" d="M 172.066845 109.97435 
C 173.004479 109.97435 173.903837 109.601824 174.566845 108.938816 
C 175.229853 108.275808 175.602379 107.376451 175.602379 106.438816 
C 175.602379 105.501182 175.229853 104.601824 174.566845 103.938816 
C 173.903837 103.275808 173.004479 102.903282 172.066845 102.903282 
C 171.12921 102.903282 170.229853 103.275808 169.566845 103.938816 
C 168.903837 104.601824 168.531311 105.501182 168.531311 106.438816 
C 168.531311 107.376451 168.903837 108.275808 169.566845 108.938816 
C 170.229853 109.601824 171.12921 109.97435 172.066845 109.97435 
z
" style="fill:none;stroke:#9467bd;"/>
   </g>
   <g id="PathCollection_24">
    <path clip-path="url(#p1521cc4cdd)" d="M 177.040107 106.110601 
C 177.977742 106.110601 178.877099 105.738075 179.540107 105.075068 
C 180.203115 104.41206 180.575641 103.512702 180.575641 102.575068 
C 180.575641 101.637433 180.203115 100.738075 179.540107 100.075068 
C 178.877099 99.41206 177.977742 99.039534 177.040107 99.039534 
C 176.102472 99.039534 175.203115 99.41206 174.540107 100.075068 
C 173.877099 100.738075 173.504573 101.637433 173.504573 102.575068 
C 173.504573 103.512702 173.877099 104.41206 174.540107 105.075068 
C 175.203115 105.738075 176.102472 106.110601 177.040107 106.110601 
z
" style="fill:none;stroke:#9467bd;"/>
   </g>
   <g id="PathCollection_25">
    <path clip-path="url(#p1521cc4cdd)" d="M 182.013369 102.478609 
C 182.951004 102.478609 183.850361 102.106083 184.513369 101.443075 
C 185.176377 100.780068 185.548903 99.88071 185.548903 98.943075 
C 185.548903 98.005441 185.176377 97.106083 184.513369 96.443075 
C 183.850361 95.780068 182.951004 95.407542 182.013369 95.407542 
C 181.075734 95.407542 180.176377 95.780068 179.513369 96.443075 
C 178.850361 97.106083 178.477835 98.005441 178.477835 98.943075 
C 178.477835 99.88071 178.850361 100.780068 179.513369 101.443075 
C 180.176377 102.106083 181.075734 102.478609 182.013369 102.478609 
z
" style="fill:none;stroke:#9467bd;"/>
   </g>
   <g id="PathCollection_26">
    <path clip-path="url(#p1521cc4cdd)" d="M 186.986631 99.060442 
C 187.924266 99.060442 188.823623 98.687916 189.486631 98.024909 
C 190.149639 97.361901 190.522165 96.462543 190.522165 95.524909 
C 190.522165 94.587274 190.149639 93.687916 189.486631 93.024909 
C 188.823623 92.361901 187.924266 91.989375 186.986631 91.989375 
C 186.048996 91.989375 185.149639 92.361901 184.486631 93.024909 
C 183.823623 93.687916 183.451097 94.587274 183.451097 95.524909 
C 183.451097 96.462543 183.823623 97.361901 184.486631 98.024909 
C 185.149639 98.687916 186.048996 99.060442 186.986631 99.060442 
z
" style="fill:none;stroke:#9467bd;"/>
   </g>
   <g id="PathCollection_27">
    <path clip-path="url(#p1521cc4cdd)" d="M 191.959893 95.834401 
C 192.897528 95.834401 193.796885 95.461875 194.459893 94.798867 
C 195.122901 94.135859 195.495427 93.236502 195.495427 92.298867 
C 195.495427 91.361233 195.122901 90.461875 194.459893 89.798867 
C 193.796885 89.135859 192.897528 88.763333 191.959893 88.763333 
C 191.022258 88.763333 190.122901 89.135859 189.459893 89.798867 
C 188.796885 90.461875 188.424359 91.361233 188.424359 92.298867 
C 188.424359 93.236502 188.796885 94.135859 189.459893 94.798867 
C 190.122901 95.461875 191.022258 95.834401 191.959893 95.834401 
z
" style="fill:none;stroke:#9467bd;"/>
   </g>
   <g id="PathCollection_28">
    <path clip-path="url(#p1521cc4cdd)" d="M 196.933155 92.777192 
C 197.87079 92.777192 198.770147 92.404666 199.433155 91.741658 
C 200.096163 91.078651 200.468689 90.179293 200.468689 89.241658 
C 200.468689 88.304024 200.096163 87.404666 199.433155 86.741658 
C 198.770147 86.078651 197.87079 85.706124 196.933155 85.706124 
C 195.995521 85.706124 195.096163 86.078651 194.433155 86.741658 
C 193.770147 87.404666 193.397621 88.304024 193.397621 89.241658 
C 193.397621 90.179293 193.770147 91.078651 194.433155 91.741658 
C 195.096163 92.404666 195.995521 92.777192 196.933155 92.777192 
z
" style="fill:none;stroke:#9467bd;"/>
   </g>
   <g id="PathCollection_29">
    <path clip-path="url(#p1521cc4cdd)" d="M 201.906417 89.866092 
C 202.844052 89.866092 203.743409 89.493566 204.406417 88.830558 
C 205.069425 88.16755 205.441951 87.268192 205.441951 86.330558 
C 205.441951 85.392923 205.069425 84.493566 204.406417 83.830558 
C 203.743409 83.16755 202.844052 82.795024 201.906417 82.795024 
C 200.968783 82.795024 200.069425 83.16755 199.406417 83.830558 
C 198.743409 84.493566 198.370883 85.392923 198.370883 86.330558 
C 198.370883 87.268192 198.743409 88.16755 199.406417 88.830558 
C 200.069425 89.493566 200.968783 89.866092 201.906417 89.866092 
z
" style="fill:none;stroke:#9467bd;"/>
   </g>
   <g id="PathCollection_30">
    <path clip-path="url(#p1521cc4cdd)" d="M 206.879679 87.08102 
C 207.817314 87.08102 208.716671 86.708494 209.379679 86.045486 
C 210.042687 85.382478 210.415213 84.483121 210.415213 83.545486 
C 210.415213 82.607852 210.042687 81.708494 209.379679 81.045486 
C 208.716671 80.382478 207.817314 80.009952 206.879679 80.009952 
C 205.942045 80.009952 205.042687 80.382478 204.379679 81.045486 
C 203.716671 81.708494 203.344145 82.607852 203.344145 83.545486 
C 203.344145 84.483121 203.716671 85.382478 204.379679 86.045486 
C 205.042687 86.708494 205.942045 87.08102 206.879679 87.08102 
z
" style="fill:none;stroke:#9467bd;"/>
   </g>
   <g id="PathCollection_31">
    <path clip-path="url(#p1521cc4cdd)" d="M 211.852941 84.406455 
C 212.790576 84.406455 213.689933 84.033929 214.352941 83.370921 
C 215.015949 82.707914 215.388475 81.808556 215.388475 80.870921 
C 215.388475 79.933287 215.015949 79.033929 214.352941 78.370921 
C 213.689933 77.707914 212.790576 77.335388 211.852941 77.335388 
C 210.915307 77.335388 210.015949 77.707914 209.352941 78.370921 
C 208.689933 79.033929 208.317407 79.933287 208.317407 80.870921 
C 208.317407 81.808556 208.689933 82.707914 209.352941 83.370921 
C 210.015949 84.033929 210.915307 84.406455 211.852941 84.406455 
z
" style="fill:none;stroke:#9467bd;"/>
   </g>
   <g id="PathCollection_32">
    <path clip-path="url(#p1521cc4cdd)" d="M 216.826203 81.83311 
C 217.763838 81.83311 218.663195 81.460584 219.326203 80.797576 
C 219.989211 80.134568 220.361737 79.235211 220.361737 78.297576 
C 220.361737 77.359942 219.989211 76.460584 219.326203 75.797576 
C 218.663195 75.134568 217.763838 74.762042 216.826203 74.762042 
C 215.888569 74.762042 214.989211 75.134568 214.326203 75.797576 
C 213.663195 76.460584 213.290669 77.359942 213.290669 78.297576 
C 213.290669 79.235211 213.663195 80.134568 214.326203 80.797576 
C 214.989211 81.460584 215.888569 81.83311 216.826203 81.83311 
z
" style="fill:none;stroke:#9467bd;"/>
   </g>
   <g id="PathCollection_33">
    <path clip-path="url(#p1521cc4cdd)" d="M 221.799465 79.359295 
C 222.7371 79.359295 223.636457 78.986769 224.299465 78.323761 
C 224.962473 77.660753 225.334999 76.761395 225.334999 75.823761 
C 225.334999 74.886126 224.962473 73.986769 224.299465 73.323761 
C 223.636457 72.660753 222.7371 72.288227 221.799465 72.288227 
C 220.861831 72.288227 219.962473 72.660753 219.299465 73.323761 
C 218.636457 73.986769 218.263931 74.886126 218.263931 75.823761 
C 218.263931 76.761395 218.636457 77.660753 219.299465 78.323761 
C 219.962473 78.986769 220.861831 79.359295 221.799465 79.359295 
z
" style="fill:none;stroke:#9467bd;"/>
   </g>
   <g id="PathCollection_34">
    <path clip-path="url(#p1521cc4cdd)" d="M 226.772727 76.99189 
C 227.710362 76.99189 228.60972 76.619364 229.272727 75.956356 
C 229.935735 75.293349 230.308261 74.393991 230.308261 73.456356 
C 230.308261 72.518722 229.935735 71.619364 229.272727 70.956356 
C 228.60972 70.293349 227.710362 69.920823 226.772727 69.920823 
C 225.835093 69.920823 224.935735 70.293349 224.272727 70.956356 
C 223.60972 71.619364 223.237193 72.518722 223.237193 73.456356 
C 223.237193 74.393991 223.60972 75.293349 224.272727 75.956356 
C 224.935735 76.619364 225.835093 76.99189 226.772727 76.99189 
z
" style="fill:none;stroke:#9467bd;"/>
   </g>
   <g id="PathCollection_35">
    <path clip-path="url(#p1521cc4cdd)" d="M 231.745989 74.746865 
C 232.683624 74.746865 233.582982 74.374339 234.245989 73.711331 
C 234.908997 73.048323 235.281523 72.148966 235.281523 71.211331 
C 235.281523 70.273697 234.908997 69.374339 234.245989 68.711331 
C 233.582982 68.048323 232.683624 67.675797 231.745989 67.675797 
C 230.808355 67.675797 229.908997 68.048323 229.245989 68.711331 
C 228.582982 69.374339 228.210455 70.273697 228.210455 71.211331 
C 228.210455 72.148966 228.582982 73.048323 229.245989 73.711331 
C 229.908997 74.374339 230.808355 74.746865 231.745989 74.746865 
z
" style="fill:none;stroke:#9467bd;"/>
   </g>
   <g id="PathCollection_36">
    <path clip-path="url(#p1521cc4cdd)" d="M 236.719251 72.649244 
C 237.656886 72.649244 238.556244 72.276718 239.219251 71.61371 
C 239.882259 70.950702 240.254785 70.051344 240.254785 69.11371 
C 240.254785 68.176075 239.882259 67.276718 239.219251 66.61371 
C 238.556244 65.950702 237.656886 65.578176 236.719251 65.578176 
C 235.781617 65.578176 234.882259 65.950702 234.219251 66.61371 
C 233.556244 67.276718 233.183717 68.176075 233.183717 69.11371 
C 233.183717 70.051344 233.556244 70.950702 234.219251 71.61371 
C 234.882259 72.276718 235.781617 72.649244 236.719251 72.649244 
z
" style="fill:none;stroke:#9467bd;"/>
   </g>
   <g id="PathCollection_37">
    <path clip-path="url(#p1521cc4cdd)" d="M 241.692513 70.732472 
C 242.630148 70.732472 243.529506 70.359946 244.192513 69.696938 
C 244.855521 69.03393 245.228047 68.134573 245.228047 67.196938 
C 245.228047 66.259304 244.855521 65.359946 244.192513 64.696938 
C 243.529506 64.03393 242.630148 63.661404 241.692513 63.661404 
C 240.754879 63.661404 239.855521 64.03393 239.192513 64.696938 
C 238.529506 65.359946 238.156979 66.259304 238.156979 67.196938 
C 238.156979 68.134573 238.529506 69.03393 239.192513 69.696938 
C 239.855521 70.359946 240.754879 70.732472 241.692513 70.732472 
z
" style="fill:none;stroke:#9467bd;"/>
   </g>
   <g id="PathCollection_38">
    <path clip-path="url(#p1521cc4cdd)" d="M 246.665775 69.037086 
C 247.60341 69.037086 248.502768 68.66456 249.165775 68.001552 
C 249.828783 67.338545 250.201309 66.439187 250.201309 65.501552 
C 250.201309 64.563918 249.828783 63.66456 249.165775 63.001552 
C 248.502768 62.338545 247.60341 61.966018 246.665775 61.966018 
C 245.728141 61.966018 244.828783 62.338545 244.165775 63.001552 
C 243.502768 63.66456 243.130241 64.563918 243.130241 65.501552 
C 243.130241 66.439187 243.502768 67.338545 244.165775 68.001552 
C 244.828783 68.66456 245.728141 69.037086 246.665775 69.037086 
z
" style="fill:none;stroke:#9467bd;"/>
   </g>
   <g id="PathCollection_39">
    <path clip-path="url(#p1521cc4cdd)" d="M 251.639037 67.60862 
C 252.576672 67.60862 253.47603 67.236094 254.139037 66.573086 
C 254.802045 65.910078 255.174571 65.01072 255.174571 64.073086 
C 255.174571 63.135451 254.802045 62.236094 254.139037 61.573086 
C 253.47603 60.910078 252.576672 60.537552 251.639037 60.537552 
C 250.701403 60.537552 249.802045 60.910078 249.139037 61.573086 
C 248.47603 62.236094 248.103504 63.135451 248.103504 64.073086 
C 248.103504 65.01072 248.47603 65.910078 249.139037 66.573086 
C 249.802045 67.236094 250.701403 67.60862 251.639037 67.60862 
z
" style="fill:none;stroke:#9467bd;"/>
   </g>
   <g id="PathCollection_40">
    <path clip-path="url(#p1521cc4cdd)" d="M 256.612299 66.494675 
C 257.549934 66.494675 258.449292 66.122148 259.112299 65.459141 
C 259.775307 64.796133 260.147833 63.896775 260.147833 62.959141 
C 260.147833 62.021506 259.775307 61.122148 259.112299 60.459141 
C 258.449292 59.796133 257.549934 59.423607 256.612299 59.423607 
C 255.674665 59.423607 254.775307 59.796133 254.112299 60.459141 
C 253.449292 61.122148 253.076766 62.021506 253.076766 62.959141 
C 253.076766 63.896775 253.449292 64.796133 254.112299 65.459141 
C 254.775307 66.122148 255.674665 66.494675 256.612299 66.494675 
z
" style="fill:none;stroke:#9467bd;"/>
   </g>
   <g id="PathCollection_41">
    <path clip-path="url(#p1521cc4cdd)" d="M 261.585561 65.741073 
C 262.523196 65.741073 263.422554 65.368547 264.085561 64.705539 
C 264.748569 64.042531 265.121095 63.143173 265.121095 62.205539 
C 265.121095 61.267904 264.748569 60.368547 264.085561 59.705539 
C 263.422554 59.042531 262.523196 58.670005 261.585561 58.670005 
C 260.647927 58.670005 259.748569 59.042531 259.085561 59.705539 
C 258.422554 60.368547 258.050028 61.267904 258.050028 62.205539 
C 258.050028 63.143173 258.422554 64.042531 259.085561 64.705539 
C 259.748569 65.368547 260.647927 65.741073 261.585561 65.741073 
z
" style="fill:none;stroke:#9467bd;"/>
   </g>
   <g id="PathCollection_42">
    <path clip-path="url(#p1521cc4cdd)" d="M 266.558824 65.387022 
C 267.496458 65.387022 268.395816 65.014496 269.058824 64.351488 
C 269.721831 63.68848 270.094357 62.789123 270.094357 61.851488 
C 270.094357 60.913853 269.721831 60.014496 269.058824 59.351488 
C 268.395816 58.68848 267.496458 58.315954 266.558824 58.315954 
C 265.621189 58.315954 264.721831 58.68848 264.058824 59.351488 
C 263.395816 60.014496 263.02329 60.913853 263.02329 61.851488 
C 263.02329 62.789123 263.395816 63.68848 264.058824 64.351488 
C 264.721831 65.014496 265.621189 65.387022 266.558824 65.387022 
z
" style="fill:none;stroke:#9467bd;"/>
   </g>
   <g id="PathCollection_43">
    <path clip-path="url(#p1521cc4cdd)" d="M 271.532086 65.459216 
C 272.46972 65.459216 273.369078 65.08669 274.032086 64.423682 
C 274.695093 63.760674 275.067619 62.861316 275.067619 61.923682 
C 275.067619 60.986047 274.695093 60.08669 274.032086 59.423682 
C 273.369078 58.760674 272.46972 58.388148 271.532086 58.388148 
C 270.594451 58.388148 269.695093 58.760674 269.032086 59.423682 
C 268.369078 60.08669 267.996552 60.986047 267.996552 61.923682 
C 267.996552 62.861316 268.369078 63.760674 269.032086 64.423682 
C 269.695093 65.08669 270.594451 65.459216 271.532086 65.459216 
z
" style="fill:none;stroke:#9467bd;"/>
   </g>
   <g id="PathCollection_44">
    <path clip-path="url(#p1521cc4cdd)" d="M 276.505348 65.964791 
C 277.442982 65.964791 278.34234 65.592265 279.005348 64.929257 
C 279.668355 64.266249 280.040881 63.366892 280.040881 62.429257 
C 280.040881 61.491623 279.668355 60.592265 279.005348 59.929257 
C 278.34234 59.266249 277.442982 58.893723 276.505348 58.893723 
C 275.567713 58.893723 274.668355 59.266249 274.005348 59.929257 
C 273.34234 60.592265 272.969814 61.491623 272.969814 62.429257 
C 272.969814 63.366892 273.34234 64.266249 274.005348 64.929257 
C 274.668355 65.592265 275.567713 65.964791 276.505348 65.964791 
z
" style="fill:none;stroke:#9467bd;"/>
   </g>
   <g id="PathCollection_45">
    <path clip-path="url(#p1521cc4cdd)" d="M 281.47861 66.883075 
C 282.416244 66.883075 283.315602 66.510549 283.97861 65.847541 
C 284.641617 65.184534 285.014144 64.285176 285.014144 63.347541 
C 285.014144 62.409907 284.641617 61.510549 283.97861 60.847541 
C 283.315602 60.184534 282.416244 59.812007 281.47861 59.812007 
C 280.540975 59.812007 279.641617 60.184534 278.97861 60.847541 
C 278.315602 61.510549 277.943076 62.409907 277.943076 63.347541 
C 277.943076 64.285176 278.315602 65.184534 278.97861 65.847541 
C 279.641617 66.510549 280.540975 66.883075 281.47861 66.883075 
z
" style="fill:none;stroke:#9467bd;"/>
   </g>
   <g id="PathCollection_46">
    <path clip-path="url(#p1521cc4cdd)" d="M 286.451872 68.156038 
C 287.389506 68.156038 288.288864 67.783512 288.951872 67.120504 
C 289.614879 66.457496 289.987406 65.558139 289.987406 64.620504 
C 289.987406 63.682869 289.614879 62.783512 288.951872 62.120504 
C 288.288864 61.457496 287.389506 61.08497 286.451872 61.08497 
C 285.514237 61.08497 284.614879 61.457496 283.951872 62.120504 
C 283.288864 62.783512 282.916338 63.682869 282.916338 64.620504 
C 282.916338 65.558139 283.288864 66.457496 283.951872 67.120504 
C 284.614879 67.783512 285.514237 68.156038 286.451872 68.156038 
z
" style="fill:none;stroke:#9467bd;"/>
   </g>
   <g id="PathCollection_47">
    <path clip-path="url(#p1521cc4cdd)" d="M 291.425134 69.67738 
C 292.362768 69.67738 293.262126 69.304854 293.925134 68.641846 
C 294.588141 67.978838 294.960668 67.07948 294.960668 66.141846 
C 294.960668 65.204211 294.588141 64.304854 293.925134 63.641846 
C 293.262126 62.978838 292.362768 62.606312 291.425134 62.606312 
C 290.487499 62.606312 289.588141 62.978838 288.925134 63.641846 
C 288.262126 64.304854 287.8896 65.204211 287.8896 66.141846 
C 287.8896 67.07948 288.262126 67.978838 288.925134 68.641846 
C 289.588141 69.304854 290.487499 69.67738 291.425134 69.67738 
z
" style="fill:none;stroke:#9467bd;"/>
   </g>
   <g id="PathCollection_48">
    <path clip-path="url(#p1521cc4cdd)" d="M 296.398396 71.28018 
C 297.33603 71.28018 298.235388 70.907654 298.898396 70.244646 
C 299.561403 69.581638 299.93393 68.68228 299.93393 67.744646 
C 299.93393 66.807011 299.561403 65.907654 298.898396 65.244646 
C 298.235388 64.581638 297.33603 64.209112 296.398396 64.209112 
C 295.460761 64.209112 294.561403 64.581638 293.898396 65.244646 
C 293.235388 65.907654 292.862862 66.807011 292.862862 67.744646 
C 292.862862 68.68228 293.235388 69.581638 293.898396 70.244646 
C 294.561403 70.907654 295.460761 71.28018 296.398396 71.28018 
z
" style="fill:none;stroke:#9467bd;"/>
   </g>
   <g id="PathCollection_49">
    <path clip-path="url(#p1521cc4cdd)" d="M 301.371658 72.723027 
C 302.309292 72.723027 303.20865 72.350501 303.871658 71.687493 
C 304.534666 71.024485 304.907192 70.125128 304.907192 69.187493 
C 304.907192 68.249858 304.534666 67.350501 303.871658 66.687493 
C 303.20865 66.024485 302.309292 65.651959 301.371658 65.651959 
C 300.434023 65.651959 299.534666 66.024485 298.871658 66.687493 
C 298.20865 67.350501 297.836124 68.249858 297.836124 69.187493 
C 297.836124 70.125128 298.20865 71.024485 298.871658 71.687493 
C 299.534666 72.350501 300.434023 72.723027 301.371658 72.723027 
z
" style="fill:none;stroke:#9467bd;"/>
   </g>
   <g id="PathCollection_50">
    <path clip-path="url(#p1521cc4cdd)" d="M 306.34492 73.674559 
C 307.282554 73.674559 308.181912 73.302033 308.84492 72.639025 
C 309.507928 71.976017 309.880454 71.076659 309.880454 70.139025 
C 309.880454 69.20139 309.507928 68.302033 308.84492 67.639025 
C 308.181912 66.976017 307.282554 66.603491 306.34492 66.603491 
C 305.407285 66.603491 304.507928 66.976017 303.84492 67.639025 
C 303.181912 68.302033 302.809386 69.20139 302.809386 70.139025 
C 302.809386 71.076659 303.181912 71.976017 303.84492 72.639025 
C 304.507928 73.302033 305.407285 73.674559 306.34492 73.674559 
z
" style="fill:none;stroke:#9467bd;"/>
   </g>
   <g id="PathCollection_51">
    <path clip-path="url(#p1521cc4cdd)" d="M 311.318182 73.696335 
C 312.255816 73.696335 313.155174 73.323809 313.818182 72.660802 
C 314.48119 71.997794 314.853716 71.098436 314.853716 70.160802 
C 314.853716 69.223167 314.48119 68.323809 313.818182 67.660802 
C 313.155174 66.997794 312.255816 66.625268 311.318182 66.625268 
C 310.380547 66.625268 309.48119 66.997794 308.818182 67.660802 
C 308.155174 68.323809 307.782648 69.223167 307.782648 70.160802 
C 307.782648 71.098436 308.155174 71.997794 308.818182 72.660802 
C 309.48119 73.323809 310.380547 73.696335 311.318182 73.696335 
z
" style="fill:none;stroke:#9467bd;"/>
   </g>
   <g id="PathCollection_52">
    <defs>
     <path d="M 0 3.535534 
C 0.937635 3.535534 1.836992 3.163008 2.5 2.5 
C 3.163008 1.836992 3.535534 0.937635 3.535534 0 
C 3.535534 -0.937635 3.163008 -1.836992 2.5 -2.5 
C 1.836992 -3.163008 0.937635 -3.535534 0 -3.535534 
C -0.937635 -3.535534 -1.836992 -3.163008 -2.5 -2.5 
C -3.163008 -1.836992 -3.535534 -0.937635 -3.535534 0 
C -3.535534 0.937635 -3.163008 1.836992 -2.5 2.5 
C -1.836992 3.163008 -0.937635 3.535534 0 3.535534 
z
" id="ma189107668" style="stroke:#9467bd;"/>
    </defs>
    <g clip-path="url(#p1521cc4cdd)">
     <use style="fill:#9467bd;stroke:#9467bd;" x="62.65508" xlink:href="#ma189107668" y="179.282642"/>
    </g>
   </g>
   <g id="PathCollection_53">
    <g clip-path="url(#p1521cc4cdd)">
     <use style="fill:#9467bd;stroke:#9467bd;" x="67.628342" xlink:href="#ma189107668" y="179.622043"/>
    </g>
   </g>
   <g id="PathCollection_54">
    <g clip-path="url(#p1521cc4cdd)">
     <use style="fill:#9467bd;stroke:#9467bd;" x="72.601604" xlink:href="#ma189107668" y="178.928004"/>
    </g>
   </g>
   <g id="PathCollection_55">
    <g clip-path="url(#p1521cc4cdd)">
     <use style="fill:#9467bd;stroke:#9467bd;" x="77.574866" xlink:href="#ma189107668" y="177.339951"/>
    </g>
   </g>
   <g id="PathCollection_56">
    <g clip-path="url(#p1521cc4cdd)">
     <use style="fill:#9467bd;stroke:#9467bd;" x="82.548128" xlink:href="#ma189107668" y="174.963643"/>
    </g>
   </g>
   <g id="PathCollection_57">
    <g clip-path="url(#p1521cc4cdd)">
     <use style="fill:#9467bd;stroke:#9467bd;" x="87.52139" xlink:href="#ma189107668" y="171.906067"/>
    </g>
   </g>
   <g id="PathCollection_58">
    <g clip-path="url(#p1521cc4cdd)">
     <use style="fill:#9467bd;stroke:#9467bd;" x="92.494652" xlink:href="#ma189107668" y="168.223452"/>
    </g>
   </g>
   <g id="PathCollection_59">
    <g clip-path="url(#p1521cc4cdd)">
     <use style="fill:#9467bd;stroke:#9467bd;" x="97.467914" xlink:href="#ma189107668" y="163.983295"/>
    </g>
   </g>
   <g id="PathCollection_60">
    <g clip-path="url(#p1521cc4cdd)">
     <use style="fill:#9467bd;stroke:#9467bd;" x="102.441176" xlink:href="#ma189107668" y="159.239591"/>
    </g>
   </g>
   <g id="PathCollection_61">
    <g clip-path="url(#p1521cc4cdd)">
     <use style="fill:#9467bd;stroke:#9467bd;" x="107.414439" xlink:href="#ma189107668" y="154.041832"/>
    </g>
   </g>
   <g id="PathCollection_62">
    <g clip-path="url(#p1521cc4cdd)">
     <use style="fill:#9467bd;stroke:#9467bd;" x="112.387701" xlink:href="#ma189107668" y="148.437628"/>
    </g>
   </g>
   <g id="PathCollection_63">
    <g clip-path="url(#p1521cc4cdd)">
     <use style="fill:#9467bd;stroke:#9467bd;" x="117.360963" xlink:href="#ma189107668" y="142.474765"/>
    </g>
   </g>
   <g id="PathCollection_64">
    <g clip-path="url(#p1521cc4cdd)">
     <use style="fill:#9467bd;stroke:#9467bd;" x="122.334225" xlink:href="#ma189107668" y="136.202707"/>
    </g>
   </g>
   <g id="PathCollection_65">
    <g clip-path="url(#p1521cc4cdd)">
     <use style="fill:#9467bd;stroke:#9467bd;" x="127.307487" xlink:href="#ma189107668" y="129.67362"/>
    </g>
   </g>
   <g id="PathCollection_66">
    <g clip-path="url(#p1521cc4cdd)">
     <use style="fill:#9467bd;stroke:#9467bd;" x="132.280749" xlink:href="#ma189107668" y="122.942937"/>
    </g>
   </g>
   <g id="PathCollection_67">
    <g clip-path="url(#p1521cc4cdd)">
     <use style="fill:#9467bd;stroke:#9467bd;" x="137.254011" xlink:href="#ma189107668" y="116.069527"/>
    </g>
   </g>
   <g id="PathCollection_68">
    <g clip-path="url(#p1521cc4cdd)">
     <use style="fill:#9467bd;stroke:#9467bd;" x="142.227273" xlink:href="#ma189107668" y="109.115501"/>
    </g>
   </g>
   <g id="PathCollection_69">
    <g clip-path="url(#p1521cc4cdd)">
     <use style="fill:#9467bd;stroke:#9467bd;" x="147.200535" xlink:href="#ma189107668" y="102.145701"/>
    </g>
   </g>
   <g id="PathCollection_70">
    <g clip-path="url(#p1521cc4cdd)">
     <use style="fill:#9467bd;stroke:#9467bd;" x="152.173797" xlink:href="#ma189107668" y="95.22692"/>
    </g>
   </g>
   <g id="PathCollection_71">
    <g clip-path="url(#p1521cc4cdd)">
     <use style="fill:#9467bd;stroke:#9467bd;" x="157.147059" xlink:href="#ma189107668" y="88.426899"/>
    </g>
   </g>
   <g id="PathCollection_72">
    <g clip-path="url(#p1521cc4cdd)">
     <use style="fill:#9467bd;stroke:#9467bd;" x="162.120321" xlink:href="#ma189107668" y="81.813139"/>
    </g>
   </g>
   <g id="PathCollection_73">
    <g clip-path="url(#p1521cc4cdd)">
     <use style="fill:#9467bd;stroke:#9467bd;" x="167.093583" xlink:href="#ma189107668" y="75.451567"/>
    </g>
   </g>
   <g id="PathCollection_74">
    <g clip-path="url(#p1521cc4cdd)">
     <use style="fill:#9467bd;stroke:#9467bd;" x="172.066845" xlink:href="#ma189107668" y="69.40513"/>
    </g>
   </g>
   <g id="PathCollection_75">
    <g clip-path="url(#p1521cc4cdd)">
     <use style="fill:#9467bd;stroke:#9467bd;" x="177.040107" xlink:href="#ma189107668" y="63.732316"/>
    </g>
   </g>
   <g id="PathCollection_76">
    <g clip-path="url(#p1521cc4cdd)">
     <use style="fill:#9467bd;stroke:#9467bd;" x="182.013369" xlink:href="#ma189107668" y="58.485689"/>
    </g>
   </g>
   <g id="PathCollection_77">
    <g clip-path="url(#p1521cc4cdd)">
     <use style="fill:#9467bd;stroke:#9467bd;" x="186.986631" xlink:href="#ma189107668" y="53.710452"/>
    </g>
   </g>
   <g id="PathCollection_78">
    <g clip-path="url(#p1521cc4cdd)">
     <use style="fill:#9467bd;stroke:#9467bd;" x="191.959893" xlink:href="#ma189107668" y="49.443102"/>
    </g>
   </g>
   <g id="PathCollection_79">
    <g clip-path="url(#p1521cc4cdd)">
     <use style="fill:#9467bd;stroke:#9467bd;" x="196.933155" xlink:href="#ma189107668" y="45.710209"/>
    </g>
   </g>
   <g id="PathCollection_80">
    <g clip-path="url(#p1521cc4cdd)">
     <use style="fill:#9467bd;stroke:#9467bd;" x="201.906417" xlink:href="#ma189107668" y="42.527372"/>
    </g>
   </g>
   <g id="PathCollection_81">
    <g clip-path="url(#p1521cc4cdd)">
     <use style="fill:#9467bd;stroke:#9467bd;" x="206.879679" xlink:href="#ma189107668" y="39.898388"/>
    </g>
   </g>
   <g id="PathCollection_82">
    <g clip-path="url(#p1521cc4cdd)">
     <use style="fill:#9467bd;stroke:#9467bd;" x="211.852941" xlink:href="#ma189107668" y="37.814685"/>
    </g>
   </g>
   <g id="PathCollection_83">
    <g clip-path="url(#p1521cc4cdd)">
     <use style="fill:#9467bd;stroke:#9467bd;" x="216.826203" xlink:href="#ma189107668" y="36.255067"/>
    </g>
   </g>
   <g id="PathCollection_84">
    <g clip-path="url(#p1521cc4cdd)">
     <use style="fill:#9467bd;stroke:#9467bd;" x="221.799465" xlink:href="#ma189107668" y="35.185795"/>
    </g>
   </g>
   <g id="PathCollection_85">
    <g clip-path="url(#p1521cc4cdd)">
     <use style="fill:#9467bd;stroke:#9467bd;" x="226.772727" xlink:href="#ma189107668" y="34.561081"/>
    </g>
   </g>
   <g id="PathCollection_86">
    <g clip-path="url(#p1521cc4cdd)">
     <use style="fill:#9467bd;stroke:#9467bd;" x="231.745989" xlink:href="#ma189107668" y="34.324007"/>
    </g>
   </g>
   <g id="PathCollection_87">
    <g clip-path="url(#p1521cc4cdd)">
     <use style="fill:#9467bd;stroke:#9467bd;" x="236.719251" xlink:href="#ma189107668" y="34.407939"/>
    </g>
   </g>
   <g id="PathCollection_88">
    <g clip-path="url(#p1521cc4cdd)">
     <use style="fill:#9467bd;stroke:#9467bd;" x="241.692513" xlink:href="#ma189107668" y="34.738455"/>
    </g>
   </g>
   <g id="PathCollection_89">
    <g clip-path="url(#p1521cc4cdd)">
     <use style="fill:#9467bd;stroke:#9467bd;" x="246.665775" xlink:href="#ma189107668" y="35.235866"/>
    </g>
   </g>
   <g id="PathCollection_90">
    <g clip-path="url(#p1521cc4cdd)">
     <use style="fill:#9467bd;stroke:#9467bd;" x="251.639037" xlink:href="#ma189107668" y="35.818332"/>
    </g>
   </g>
   <g id="PathCollection_91">
    <g clip-path="url(#p1521cc4cdd)">
     <use style="fill:#9467bd;stroke:#9467bd;" x="256.612299" xlink:href="#ma189107668" y="36.405656"/>
    </g>
   </g>
   <g id="PathCollection_92">
    <g clip-path="url(#p1521cc4cdd)">
     <use style="fill:#9467bd;stroke:#9467bd;" x="261.585561" xlink:href="#ma189107668" y="36.923774"/>
    </g>
   </g>
   <g id="PathCollection_93">
    <g clip-path="url(#p1521cc4cdd)">
     <use style="fill:#9467bd;stroke:#9467bd;" x="266.558824" xlink:href="#ma189107668" y="37.310005"/>
    </g>
   </g>
   <g id="PathCollection_94">
    <g clip-path="url(#p1521cc4cdd)">
     <use style="fill:#9467bd;stroke:#9467bd;" x="271.532086" xlink:href="#ma189107668" y="37.519079"/>
    </g>
   </g>
   <g id="PathCollection_95">
    <g clip-path="url(#p1521cc4cdd)">
     <use style="fill:#9467bd;stroke:#9467bd;" x="276.505348" xlink:href="#ma189107668" y="37.530024"/>
    </g>
   </g>
   <g id="PathCollection_96">
    <g clip-path="url(#p1521cc4cdd)">
     <use style="fill:#9467bd;stroke:#9467bd;" x="281.47861" xlink:href="#ma189107668" y="37.353921"/>
    </g>
   </g>
   <g id="PathCollection_97">
    <g clip-path="url(#p1521cc4cdd)">
     <use style="fill:#9467bd;stroke:#9467bd;" x="286.451872" xlink:href="#ma189107668" y="37.042596"/>
    </g>
   </g>
   <g id="PathCollection_98">
    <g clip-path="url(#p1521cc4cdd)">
     <use style="fill:#9467bd;stroke:#9467bd;" x="291.425134" xlink:href="#ma189107668" y="36.698276"/>
    </g>
   </g>
   <g id="PathCollection_99">
    <g clip-path="url(#p1521cc4cdd)">
     <use style="fill:#9467bd;stroke:#9467bd;" x="296.398396" xlink:href="#ma189107668" y="36.48427"/>
    </g>
   </g>
   <g id="PathCollection_100">
    <g clip-path="url(#p1521cc4cdd)">
     <use style="fill:#9467bd;stroke:#9467bd;" x="301.371658" xlink:href="#ma189107668" y="36.636705"/>
    </g>
   </g>
   <g id="PathCollection_101">
    <g clip-path="url(#p1521cc4cdd)">
     <use style="fill:#9467bd;stroke:#9467bd;" x="306.34492" xlink:href="#ma189107668" y="37.477369"/>
    </g>
   </g>
   <g id="PathCollection_102">
    <g clip-path="url(#p1521cc4cdd)">
     <use style="fill:#9467bd;stroke:#9467bd;" x="311.318182" xlink:href="#ma189107668" y="39.427704"/>
    </g>
   </g>
   <g id="matplotlib.axis_1"/>
   <g id="matplotlib.axis_2">
    <g id="ytick_1">
     <g id="line2d_1">
      <defs>
       <path d="M 0 0 
L -3.5 0 
" id="mda3921da93" style="stroke:#000000;stroke-width:0.8;"/>
      </defs>
      <g>
       <use style="stroke:#000000;stroke-width:0.8;" x="45" xlink:href="#mda3921da93" y="181.111061"/>
      </g>
     </g>
     <g id="text_1">
      <!-- 0.0 -->
      <g transform="translate(22.096875 184.91028)scale(0.1 -0.1)">
       <defs>
        <path d="M 31.78125 66.40625 
Q 24.171875 66.40625 20.328125 58.90625 
Q 16.5 51.421875 16.5 36.375 
Q 16.5 21.390625 20.328125 13.890625 
Q 24.171875 6.390625 31.78125 6.390625 
Q 39.453125 6.390625 43.28125 13.890625 
Q 47.125 21.390625 47.125 36.375 
Q 47.125 51.421875 43.28125 58.90625 
Q 39.453125 66.40625 31.78125 66.40625 
z
M 31.78125 74.21875 
Q 44.046875 74.21875 50.515625 64.515625 
Q 56.984375 54.828125 56.984375 36.375 
Q 56.984375 17.96875 50.515625 8.265625 
Q 44.046875 -1.421875 31.78125 -1.421875 
Q 19.53125 -1.421875 13.0625 8.265625 
Q 6.59375 17.96875 6.59375 36.375 
Q 6.59375 54.828125 13.0625 64.515625 
Q 19.53125 74.21875 31.78125 74.21875 
z
" id="DejaVuSans-48"/>
        <path d="M 10.6875 12.40625 
L 21 12.40625 
L 21 0 
L 10.6875 0 
z
" id="DejaVuSans-46"/>
       </defs>
       <use xlink:href="#DejaVuSans-48"/>
       <use x="63.623047" xlink:href="#DejaVuSans-46"/>
       <use x="95.410156" xlink:href="#DejaVuSans-48"/>
      </g>
     </g>
    </g>
    <g id="ytick_2">
     <g id="line2d_2">
      <g>
       <use style="stroke:#000000;stroke-width:0.8;" x="45" xlink:href="#mda3921da93" y="141.955532"/>
      </g>
     </g>
     <g id="text_2">
      <!-- 0.1 -->
      <g transform="translate(22.096875 145.754751)scale(0.1 -0.1)">
       <defs>
        <path d="M 12.40625 8.296875 
L 28.515625 8.296875 
L 28.515625 63.921875 
L 10.984375 60.40625 
L 10.984375 69.390625 
L 28.421875 72.90625 
L 38.28125 72.90625 
L 38.28125 8.296875 
L 54.390625 8.296875 
L 54.390625 0 
L 12.40625 0 
z
" id="DejaVuSans-49"/>
       </defs>
       <use xlink:href="#DejaVuSans-48"/>
       <use x="63.623047" xlink:href="#DejaVuSans-46"/>
       <use x="95.410156" xlink:href="#DejaVuSans-49"/>
      </g>
     </g>
    </g>
    <g id="ytick_3">
     <g id="line2d_3">
      <g>
       <use style="stroke:#000000;stroke-width:0.8;" x="45" xlink:href="#mda3921da93" y="102.800002"/>
      </g>
     </g>
     <g id="text_3">
      <!-- 0.2 -->
      <g transform="translate(22.096875 106.599221)scale(0.1 -0.1)">
       <defs>
        <path d="M 19.1875 8.296875 
L 53.609375 8.296875 
L 53.609375 0 
L 7.328125 0 
L 7.328125 8.296875 
Q 12.9375 14.109375 22.625 23.890625 
Q 32.328125 33.6875 34.8125 36.53125 
Q 39.546875 41.84375 41.421875 45.53125 
Q 43.3125 49.21875 43.3125 52.78125 
Q 43.3125 58.59375 39.234375 62.25 
Q 35.15625 65.921875 28.609375 65.921875 
Q 23.96875 65.921875 18.8125 64.3125 
Q 13.671875 62.703125 7.8125 59.421875 
L 7.8125 69.390625 
Q 13.765625 71.78125 18.9375 73 
Q 24.125 74.21875 28.421875 74.21875 
Q 39.75 74.21875 46.484375 68.546875 
Q 53.21875 62.890625 53.21875 53.421875 
Q 53.21875 48.921875 51.53125 44.890625 
Q 49.859375 40.875 45.40625 35.40625 
Q 44.1875 33.984375 37.640625 27.21875 
Q 31.109375 20.453125 19.1875 8.296875 
z
" id="DejaVuSans-50"/>
       </defs>
       <use xlink:href="#DejaVuSans-48"/>
       <use x="63.623047" xlink:href="#DejaVuSans-46"/>
       <use x="95.410156" xlink:href="#DejaVuSans-50"/>
      </g>
     </g>
    </g>
    <g id="ytick_4">
     <g id="line2d_4">
      <g>
       <use style="stroke:#000000;stroke-width:0.8;" x="45" xlink:href="#mda3921da93" y="63.644473"/>
      </g>
     </g>
     <g id="text_4">
      <!-- 0.3 -->
      <g transform="translate(22.096875 67.443692)scale(0.1 -0.1)">
       <defs>
        <path d="M 40.578125 39.3125 
Q 47.65625 37.796875 51.625 33 
Q 55.609375 28.21875 55.609375 21.1875 
Q 55.609375 10.40625 48.1875 4.484375 
Q 40.765625 -1.421875 27.09375 -1.421875 
Q 22.515625 -1.421875 17.65625 -0.515625 
Q 12.796875 0.390625 7.625 2.203125 
L 7.625 11.71875 
Q 11.71875 9.328125 16.59375 8.109375 
Q 21.484375 6.890625 26.8125 6.890625 
Q 36.078125 6.890625 40.9375 10.546875 
Q 45.796875 14.203125 45.796875 21.1875 
Q 45.796875 27.640625 41.28125 31.265625 
Q 36.765625 34.90625 28.71875 34.90625 
L 20.21875 34.90625 
L 20.21875 43.015625 
L 29.109375 43.015625 
Q 36.375 43.015625 40.234375 45.921875 
Q 44.09375 48.828125 44.09375 54.296875 
Q 44.09375 59.90625 40.109375 62.90625 
Q 36.140625 65.921875 28.71875 65.921875 
Q 24.65625 65.921875 20.015625 65.03125 
Q 15.375 64.15625 9.8125 62.3125 
L 9.8125 71.09375 
Q 15.4375 72.65625 20.34375 73.4375 
Q 25.25 74.21875 29.59375 74.21875 
Q 40.828125 74.21875 47.359375 69.109375 
Q 53.90625 64.015625 53.90625 55.328125 
Q 53.90625 49.265625 50.4375 45.09375 
Q 46.96875 40.921875 40.578125 39.3125 
z
" id="DejaVuSans-51"/>
       </defs>
       <use xlink:href="#DejaVuSans-48"/>
       <use x="63.623047" xlink:href="#DejaVuSans-46"/>
       <use x="95.410156" xlink:href="#DejaVuSans-51"/>
      </g>
     </g>
    </g>
   </g>
   <g id="line2d_5">
    <path clip-path="url(#p1521cc4cdd)" d="M 57.681818 181.111061 
L 86.609626 181.001346 
L 89.158422 180.696279 
L 91.665775 180.17263 
L 94.256016 179.403231 
L 96.970588 178.362015 
L 99.830214 177.023319 
L 102.855615 175.357921 
L 106.067513 173.332986 
L 109.528075 170.882334 
L 113.237299 167.976737 
L 117.257353 164.538023 
L 121.650401 160.478721 
L 126.457888 155.726355 
L 131.804144 150.123055 
L 137.917112 143.38503 
L 145.10762 135.116501 
L 154.163102 124.348318 
L 169.393717 105.831942 
L 186.364973 85.304256 
L 197.347594 72.372103 
L 205.926471 62.59215 
L 208.993316 59.414821 
L 211.790775 56.833588 
L 214.546791 54.59027 
L 217.302807 52.630273 
L 220.079545 50.925015 
L 222.897727 49.453486 
L 225.757353 48.209937 
L 228.679144 47.181779 
L 231.663102 46.367326 
L 234.729947 45.760733 
L 237.900401 45.361162 
L 241.195187 45.172096 
L 244.614305 45.19987 
L 248.199198 45.452965 
L 251.970588 45.944134 
L 255.96992 46.692254 
L 260.217914 47.715973 
L 264.776738 49.046783 
L 269.708556 50.722638 
L 275.075535 52.785447 
L 281.022727 55.314985 
L 287.695187 58.400157 
L 295.424465 62.225697 
L 304.894385 67.172249 
L 311.318182 70.633705 
L 311.318182 70.633705 
" style="fill:none;stroke:#9467bd;stroke-dasharray:11.1,4.8;stroke-dashoffset:0;stroke-width:3;"/>
   </g>
   <g id="line2d_6">
    <path clip-path="url(#p1521cc4cdd)" d="M 57.681818 181.111061 
L 86.506016 181.00022 
L 88.971925 180.692835 
L 91.375668 180.169167 
L 93.862299 179.397533 
L 96.45254 178.358227 
L 99.187834 177.017169 
L 102.068182 175.35435 
L 105.135027 173.323683 
L 108.409091 170.885511 
L 111.931818 167.979725 
L 115.72393 164.558625 
L 119.847594 160.533485 
L 124.385695 155.784944 
L 129.400401 150.207276 
L 135.057487 143.572326 
L 141.564171 135.588155 
L 149.438503 125.560183 
L 160.296791 111.339121 
L 189.701203 72.660422 
L 200.020722 59.55843 
L 206.755348 51.315067 
L 209.656417 48.135238 
L 212.370989 45.485323 
L 215.06484 43.163277 
L 217.75869 41.132233 
L 220.473262 39.362557 
L 223.208556 37.843295 
L 225.985294 36.55489 
L 228.803476 35.491906 
L 231.683824 34.643249 
L 234.626337 34.007509 
L 237.67246 33.578102 
L 240.822193 33.36066 
L 244.096257 33.35984 
L 247.515374 33.583955 
L 251.100267 34.044317 
L 254.871658 34.754567 
L 258.891711 35.741257 
L 263.18115 37.027011 
L 267.781417 38.641404 
L 272.775401 40.633435 
L 278.245989 43.059174 
L 284.338235 46.009066 
L 291.259358 49.613764 
L 299.423797 54.125868 
L 309.764037 60.108899 
L 311.318182 61.025299 
L 311.318182 61.025299 
" style="fill:none;stroke:#9467bd;stroke-linecap:square;stroke-width:3;"/>
   </g>
   <g id="patch_3">
    <path d="M 45 189 
L 45 25.92 
" style="fill:none;stroke:#000000;stroke-linecap:square;stroke-linejoin:miter;stroke-width:0.8;"/>
   </g>
   <g id="patch_4">
    <path d="M 324 189 
L 324 25.92 
" style="fill:none;stroke:#000000;stroke-linecap:square;stroke-linejoin:miter;stroke-width:0.8;"/>
   </g>
   <g id="patch_5">
    <path d="M 45 189 
L 324 189 
" style="fill:none;stroke:#000000;stroke-linecap:square;stroke-linejoin:miter;stroke-width:0.8;"/>
   </g>
   <g id="patch_6">
    <path d="M 45 25.92 
L 324 25.92 
" style="fill:none;stroke:#000000;stroke-linecap:square;stroke-linejoin:miter;stroke-width:0.8;"/>
   </g>
  </g>
 </g>
 <defs>
  <clipPath id="p1521cc4cdd">
   <rect height="163.08" width="279" x="45" y="25.92"/>
  </clipPath>
 </defs>
</svg>
