<?xml version="1.0" encoding="utf-8" standalone="no"?>
<!DOCTYPE svg PUBLIC "-//W3C//DTD SVG 1.1//EN"
  "http://www.w3.org/Graphics/SVG/1.1/DTD/svg11.dtd">
<!-- Created with matplotlib (https://matplotlib.org/) -->
<svg height="216pt" version="1.1" viewBox="0 0 360 216" width="360pt" xmlns="http://www.w3.org/2000/svg" xmlns:xlink="http://www.w3.org/1999/xlink">
 <metadata>
  <rdf:RDF xmlns:cc="http://creativecommons.org/ns#" xmlns:dc="http://purl.org/dc/elements/1.1/" xmlns:rdf="http://www.w3.org/1999/02/22-rdf-syntax-ns#">
   <cc:Work>
    <dc:type rdf:resource="http://purl.org/dc/dcmitype/StillImage"/>
    <dc:date>2024-12-04T13:36:05.642975</dc:date>
    <dc:format>image/svg+xml</dc:format>
    <dc:creator>
     <cc:Agent>
      <dc:title>Matplotlib v3.3.2, https://matplotlib.org/</dc:title>
     </cc:Agent>
    </dc:creator>
   </cc:Work>
  </rdf:RDF>
 </metadata>
 <defs>
  <style type="text/css">*{stroke-linecap:butt;stroke-linejoin:round;}</style>
 </defs>
 <g id="figure_1">
  <g id="patch_1">
   <path d="M 0 216 
L 360 216 
L 360 0 
L 0 0 
z
" style="fill:none;"/>
  </g>
  <g id="axes_1">
   <g id="patch_2">
    <path d="M 45 189 
L 324 189 
L 324 25.92 
L 45 25.92 
z
" style="fill:#ffffff;"/>
   </g>
   <g id="PathCollection_1">
    <path clip-path="url(#pcf0e57806e)" d="M 62.65508 185.028806 
C 63.592715 185.028806 64.492072 184.65628 65.15508 183.993272 
C 65.818088 183.330264 66.190614 182.430907 66.190614 181.493272 
C 66.190614 180.555637 65.818088 179.65628 65.15508 178.993272 
C 64.492072 178.330264 63.592715 177.957738 62.65508 177.957738 
C 61.717446 177.957738 60.818088 178.330264 60.15508 178.993272 
C 59.492072 179.65628 59.119546 180.555637 59.119546 181.493272 
C 59.119546 182.430907 59.492072 183.330264 60.15508 183.993272 
C 60.818088 184.65628 61.717446 185.028806 62.65508 185.028806 
z
" style="fill:none;stroke:#9467bd;"/>
   </g>
   <g id="PathCollection_2">
    <path clip-path="url(#pcf0e57806e)" d="M 67.628342 185.066856 
C 68.565977 185.066856 69.465334 184.69433 70.128342 184.031322 
C 70.79135 183.368314 71.163876 182.468957 71.163876 181.531322 
C 71.163876 180.593687 70.79135 179.69433 70.128342 179.031322 
C 69.465334 178.368314 68.565977 177.995788 67.628342 177.995788 
C 66.690708 177.995788 65.79135 178.368314 65.128342 179.031322 
C 64.465334 179.69433 64.092808 180.593687 64.092808 181.531322 
C 64.092808 182.468957 64.465334 183.368314 65.128342 184.031322 
C 65.79135 184.69433 66.690708 185.066856 67.628342 185.066856 
z
" style="fill:none;stroke:#9467bd;"/>
   </g>
   <g id="PathCollection_3">
    <path clip-path="url(#pcf0e57806e)" d="M 72.601604 185.122807 
C 73.539239 185.122807 74.438597 184.75028 75.101604 184.087273 
C 75.764612 183.424265 76.137138 182.524907 76.137138 181.587273 
C 76.137138 180.649638 75.764612 179.75028 75.101604 179.087273 
C 74.438597 178.424265 73.539239 178.051739 72.601604 178.051739 
C 71.66397 178.051739 70.764612 178.424265 70.101604 179.087273 
C 69.438597 179.75028 69.06607 180.649638 69.06607 181.587273 
C 69.06607 182.524907 69.438597 183.424265 70.101604 184.087273 
C 70.764612 184.75028 71.66397 185.122807 72.601604 185.122807 
z
" style="fill:none;stroke:#9467bd;"/>
   </g>
   <g id="PathCollection_4">
    <path clip-path="url(#pcf0e57806e)" d="M 77.574866 185.11656 
C 78.512501 185.11656 79.411859 184.744034 80.074866 184.081026 
C 80.737874 183.418018 81.1104 182.518661 81.1104 181.581026 
C 81.1104 180.643392 80.737874 179.744034 80.074866 179.081026 
C 79.411859 178.418018 78.512501 178.045492 77.574866 178.045492 
C 76.637232 178.045492 75.737874 178.418018 75.074866 179.081026 
C 74.411859 179.744034 74.039332 180.643392 74.039332 181.581026 
C 74.039332 182.518661 74.411859 183.418018 75.074866 184.081026 
C 75.737874 184.744034 76.637232 185.11656 77.574866 185.11656 
z
" style="fill:none;stroke:#9467bd;"/>
   </g>
   <g id="PathCollection_5">
    <path clip-path="url(#pcf0e57806e)" d="M 82.548128 184.99305 
C 83.485763 184.99305 84.385121 184.620524 85.048128 183.957517 
C 85.711136 183.294509 86.083662 182.395151 86.083662 181.457517 
C 86.083662 180.519882 85.711136 179.620524 85.048128 178.957517 
C 84.385121 178.294509 83.485763 177.921983 82.548128 177.921983 
C 81.610494 177.921983 80.711136 178.294509 80.048128 178.957517 
C 79.385121 179.620524 79.012594 180.519882 79.012594 181.457517 
C 79.012594 182.395151 79.385121 183.294509 80.048128 183.957517 
C 80.711136 184.620524 81.610494 184.99305 82.548128 184.99305 
z
" style="fill:none;stroke:#9467bd;"/>
   </g>
   <g id="PathCollection_6">
    <path clip-path="url(#pcf0e57806e)" d="M 87.52139 184.717986 
C 88.459025 184.717986 89.358383 184.34546 90.02139 183.682452 
C 90.684398 183.019444 91.056924 182.120087 91.056924 181.182452 
C 91.056924 180.244817 90.684398 179.34546 90.02139 178.682452 
C 89.358383 178.019444 88.459025 177.646918 87.52139 177.646918 
C 86.583756 177.646918 85.684398 178.019444 85.02139 178.682452 
C 84.358383 179.34546 83.985856 180.244817 83.985856 181.182452 
C 83.985856 182.120087 84.358383 183.019444 85.02139 183.682452 
C 85.684398 184.34546 86.583756 184.717986 87.52139 184.717986 
z
" style="fill:none;stroke:#9467bd;"/>
   </g>
   <g id="PathCollection_7">
    <path clip-path="url(#pcf0e57806e)" d="M 92.494652 184.274023 
C 93.432287 184.274023 94.331645 183.901497 94.994652 183.238489 
C 95.65766 182.575482 96.030186 181.676124 96.030186 180.738489 
C 96.030186 179.800855 95.65766 178.901497 94.994652 178.238489 
C 94.331645 177.575482 93.432287 177.202956 92.494652 177.202956 
C 91.557018 177.202956 90.65766 177.575482 89.994652 178.238489 
C 89.331645 178.901497 88.959119 179.800855 88.959119 180.738489 
C 88.959119 181.676124 89.331645 182.575482 89.994652 183.238489 
C 90.65766 183.901497 91.557018 184.274023 92.494652 184.274023 
z
" style="fill:none;stroke:#9467bd;"/>
   </g>
   <g id="PathCollection_8">
    <path clip-path="url(#pcf0e57806e)" d="M 97.467914 183.657329 
C 98.405549 183.657329 99.304907 183.284803 99.967914 182.621795 
C 100.630922 181.958787 101.003448 181.059429 101.003448 180.121795 
C 101.003448 179.18416 100.630922 178.284803 99.967914 177.621795 
C 99.304907 176.958787 98.405549 176.586261 97.467914 176.586261 
C 96.53028 176.586261 95.630922 176.958787 94.967914 177.621795 
C 94.304907 178.284803 93.932381 179.18416 93.932381 180.121795 
C 93.932381 181.059429 94.304907 181.958787 94.967914 182.621795 
C 95.630922 183.284803 96.53028 183.657329 97.467914 183.657329 
z
" style="fill:none;stroke:#9467bd;"/>
   </g>
   <g id="PathCollection_9">
    <path clip-path="url(#pcf0e57806e)" d="M 102.441176 182.874533 
C 103.378811 182.874533 104.278169 182.502007 104.941176 181.838999 
C 105.604184 181.175991 105.97671 180.276633 105.97671 179.338999 
C 105.97671 178.401364 105.604184 177.502007 104.941176 176.838999 
C 104.278169 176.175991 103.378811 175.803465 102.441176 175.803465 
C 101.503542 175.803465 100.604184 176.175991 99.941176 176.838999 
C 99.278169 177.502007 98.905643 178.401364 98.905643 179.338999 
C 98.905643 180.276633 99.278169 181.175991 99.941176 181.838999 
C 100.604184 182.502007 101.503542 182.874533 102.441176 182.874533 
z
" style="fill:none;stroke:#9467bd;"/>
   </g>
   <g id="PathCollection_10">
    <path clip-path="url(#pcf0e57806e)" d="M 107.414439 181.940044 
C 108.352073 181.940044 109.251431 181.567518 109.914439 180.90451 
C 110.577446 180.241503 110.949972 179.342145 110.949972 178.40451 
C 110.949972 177.466876 110.577446 176.567518 109.914439 175.90451 
C 109.251431 175.241503 108.352073 174.868976 107.414439 174.868976 
C 106.476804 174.868976 105.577446 175.241503 104.914439 175.90451 
C 104.251431 176.567518 103.878905 177.466876 103.878905 178.40451 
C 103.878905 179.342145 104.251431 180.241503 104.914439 180.90451 
C 105.577446 181.567518 106.476804 181.940044 107.414439 181.940044 
z
" style="fill:none;stroke:#9467bd;"/>
   </g>
   <g id="PathCollection_11">
    <path clip-path="url(#pcf0e57806e)" d="M 112.387701 180.87371 
C 113.325335 180.87371 114.224693 180.501183 114.887701 179.838176 
C 115.550708 179.175168 115.923234 178.27581 115.923234 177.338176 
C 115.923234 176.400541 115.550708 175.501183 114.887701 174.838176 
C 114.224693 174.175168 113.325335 173.802642 112.387701 173.802642 
C 111.450066 173.802642 110.550708 174.175168 109.887701 174.838176 
C 109.224693 175.501183 108.852167 176.400541 108.852167 177.338176 
C 108.852167 178.27581 109.224693 179.175168 109.887701 179.838176 
C 110.550708 180.501183 111.450066 180.87371 112.387701 180.87371 
z
" style="fill:none;stroke:#9467bd;"/>
   </g>
   <g id="PathCollection_12">
    <path clip-path="url(#pcf0e57806e)" d="M 117.360963 179.698795 
C 118.298597 179.698795 119.197955 179.326269 119.860963 178.663261 
C 120.52397 178.000253 120.896496 177.100896 120.896496 176.163261 
C 120.896496 175.225627 120.52397 174.326269 119.860963 173.663261 
C 119.197955 173.000253 118.298597 172.627727 117.360963 172.627727 
C 116.423328 172.627727 115.52397 173.000253 114.860963 173.663261 
C 114.197955 174.326269 113.825429 175.225627 113.825429 176.163261 
C 113.825429 177.100896 114.197955 178.000253 114.860963 178.663261 
C 115.52397 179.326269 116.423328 179.698795 117.360963 179.698795 
z
" style="fill:none;stroke:#9467bd;"/>
   </g>
   <g id="PathCollection_13">
    <path clip-path="url(#pcf0e57806e)" d="M 122.334225 178.440277 
C 123.271859 178.440277 124.171217 178.067751 124.834225 177.404743 
C 125.497232 176.741735 125.869759 175.842378 125.869759 174.904743 
C 125.869759 173.967109 125.497232 173.067751 124.834225 172.404743 
C 124.171217 171.741735 123.271859 171.369209 122.334225 171.369209 
C 121.39659 171.369209 120.497232 171.741735 119.834225 172.404743 
C 119.171217 173.067751 118.798691 173.967109 118.798691 174.904743 
C 118.798691 175.842378 119.171217 176.741735 119.834225 177.404743 
C 120.497232 178.067751 121.39659 178.440277 122.334225 178.440277 
z
" style="fill:none;stroke:#9467bd;"/>
   </g>
   <g id="PathCollection_14">
    <path clip-path="url(#pcf0e57806e)" d="M 127.307487 177.123416 
C 128.245121 177.123416 129.144479 176.75089 129.807487 176.087882 
C 130.470494 175.424875 130.843021 174.525517 130.843021 173.587882 
C 130.843021 172.650248 130.470494 171.75089 129.807487 171.087882 
C 129.144479 170.424875 128.245121 170.052348 127.307487 170.052348 
C 126.369852 170.052348 125.470494 170.424875 124.807487 171.087882 
C 124.144479 171.75089 123.771953 172.650248 123.771953 173.587882 
C 123.771953 174.525517 124.144479 175.424875 124.807487 176.087882 
C 125.470494 176.75089 126.369852 177.123416 127.307487 177.123416 
z
" style="fill:none;stroke:#9467bd;"/>
   </g>
   <g id="PathCollection_15">
    <path clip-path="url(#pcf0e57806e)" d="M 132.280749 175.7726 
C 133.218383 175.7726 134.117741 175.400074 134.780749 174.737067 
C 135.443756 174.074059 135.816283 173.174701 135.816283 172.237067 
C 135.816283 171.299432 135.443756 170.400074 134.780749 169.737067 
C 134.117741 169.074059 133.218383 168.701533 132.280749 168.701533 
C 131.343114 168.701533 130.443756 169.074059 129.780749 169.737067 
C 129.117741 170.400074 128.745215 171.299432 128.745215 172.237067 
C 128.745215 173.174701 129.117741 174.074059 129.780749 174.737067 
C 130.443756 175.400074 131.343114 175.7726 132.280749 175.7726 
z
" style="fill:none;stroke:#9467bd;"/>
   </g>
   <g id="PathCollection_16">
    <path clip-path="url(#pcf0e57806e)" d="M 137.254011 174.410434 
C 138.191645 174.410434 139.091003 174.037908 139.754011 173.3749 
C 140.417018 172.711892 140.789545 171.812535 140.789545 170.8749 
C 140.789545 169.937265 140.417018 169.037908 139.754011 168.3749 
C 139.091003 167.711892 138.191645 167.339366 137.254011 167.339366 
C 136.316376 167.339366 135.417018 167.711892 134.754011 168.3749 
C 134.091003 169.037908 133.718477 169.937265 133.718477 170.8749 
C 133.718477 171.812535 134.091003 172.711892 134.754011 173.3749 
C 135.417018 174.037908 136.316376 174.410434 137.254011 174.410434 
z
" style="fill:none;stroke:#9467bd;"/>
   </g>
   <g id="PathCollection_17">
    <path clip-path="url(#pcf0e57806e)" d="M 142.227273 173.057056 
C 143.164907 173.057056 144.064265 172.68453 144.727273 172.021522 
C 145.39028 171.358514 145.762807 170.459156 145.762807 169.521522 
C 145.762807 168.583887 145.39028 167.68453 144.727273 167.021522 
C 144.064265 166.358514 143.164907 165.985988 142.227273 165.985988 
C 141.289638 165.985988 140.39028 166.358514 139.727273 167.021522 
C 139.064265 167.68453 138.691739 168.583887 138.691739 169.521522 
C 138.691739 170.459156 139.064265 171.358514 139.727273 172.021522 
C 140.39028 172.68453 141.289638 173.057056 142.227273 173.057056 
z
" style="fill:none;stroke:#9467bd;"/>
   </g>
   <g id="PathCollection_18">
    <path clip-path="url(#pcf0e57806e)" d="M 147.200535 171.729667 
C 148.138169 171.729667 149.037527 171.357141 149.700535 170.694133 
C 150.363543 170.031125 150.736069 169.131767 150.736069 168.194133 
C 150.736069 167.256498 150.363543 166.357141 149.700535 165.694133 
C 149.037527 165.031125 148.138169 164.658599 147.200535 164.658599 
C 146.2629 164.658599 145.363543 165.031125 144.700535 165.694133 
C 144.037527 166.357141 143.665001 167.256498 143.665001 168.194133 
C 143.665001 169.131767 144.037527 170.031125 144.700535 170.694133 
C 145.363543 171.357141 146.2629 171.729667 147.200535 171.729667 
z
" style="fill:none;stroke:#9467bd;"/>
   </g>
   <g id="PathCollection_19">
    <path clip-path="url(#pcf0e57806e)" d="M 152.173797 170.442247 
C 153.111431 170.442247 154.010789 170.069721 154.673797 169.406713 
C 155.336805 168.743706 155.709331 167.844348 155.709331 166.906713 
C 155.709331 165.969079 155.336805 165.069721 154.673797 164.406713 
C 154.010789 163.743706 153.111431 163.371179 152.173797 163.371179 
C 151.236162 163.371179 150.336805 163.743706 149.673797 164.406713 
C 149.010789 165.069721 148.638263 165.969079 148.638263 166.906713 
C 148.638263 167.844348 149.010789 168.743706 149.673797 169.406713 
C 150.336805 170.069721 151.236162 170.442247 152.173797 170.442247 
z
" style="fill:none;stroke:#9467bd;"/>
   </g>
   <g id="PathCollection_20">
    <path clip-path="url(#pcf0e57806e)" d="M 157.147059 169.205443 
C 158.084693 169.205443 158.984051 168.832917 159.647059 168.169909 
C 160.310067 167.506901 160.682593 166.607544 160.682593 165.669909 
C 160.682593 164.732275 160.310067 163.832917 159.647059 163.169909 
C 158.984051 162.506901 158.084693 162.134375 157.147059 162.134375 
C 156.209424 162.134375 155.310067 162.506901 154.647059 163.169909 
C 153.984051 163.832917 153.611525 164.732275 153.611525 165.669909 
C 153.611525 166.607544 153.984051 167.506901 154.647059 168.169909 
C 155.310067 168.832917 156.209424 169.205443 157.147059 169.205443 
z
" style="fill:none;stroke:#9467bd;"/>
   </g>
   <g id="PathCollection_21">
    <path clip-path="url(#pcf0e57806e)" d="M 162.120321 168.026607 
C 163.057955 168.026607 163.957313 167.65408 164.620321 166.991073 
C 165.283329 166.328065 165.655855 165.428707 165.655855 164.491073 
C 165.655855 163.553438 165.283329 162.65408 164.620321 161.991073 
C 163.957313 161.328065 163.057955 160.955539 162.120321 160.955539 
C 161.182686 160.955539 160.283329 161.328065 159.620321 161.991073 
C 158.957313 162.65408 158.584787 163.553438 158.584787 164.491073 
C 158.584787 165.428707 158.957313 166.328065 159.620321 166.991073 
C 160.283329 167.65408 161.182686 168.026607 162.120321 168.026607 
z
" style="fill:none;stroke:#9467bd;"/>
   </g>
   <g id="PathCollection_22">
    <path clip-path="url(#pcf0e57806e)" d="M 167.093583 166.909965 
C 168.031217 166.909965 168.930575 166.537439 169.593583 165.874431 
C 170.256591 165.211423 170.629117 164.312066 170.629117 163.374431 
C 170.629117 162.436797 170.256591 161.537439 169.593583 160.874431 
C 168.930575 160.211423 168.031217 159.838897 167.093583 159.838897 
C 166.155948 159.838897 165.256591 160.211423 164.593583 160.874431 
C 163.930575 161.537439 163.558049 162.436797 163.558049 163.374431 
C 163.558049 164.312066 163.930575 165.211423 164.593583 165.874431 
C 165.256591 166.537439 166.155948 166.909965 167.093583 166.909965 
z
" style="fill:none;stroke:#9467bd;"/>
   </g>
   <g id="PathCollection_23">
    <path clip-path="url(#pcf0e57806e)" d="M 172.066845 165.856906 
C 173.004479 165.856906 173.903837 165.48438 174.566845 164.821372 
C 175.229853 164.158364 175.602379 163.259006 175.602379 162.321372 
C 175.602379 161.383737 175.229853 160.48438 174.566845 159.821372 
C 173.903837 159.158364 173.004479 158.785838 172.066845 158.785838 
C 171.12921 158.785838 170.229853 159.158364 169.566845 159.821372 
C 168.903837 160.48438 168.531311 161.383737 168.531311 162.321372 
C 168.531311 163.259006 168.903837 164.158364 169.566845 164.821372 
C 170.229853 165.48438 171.12921 165.856906 172.066845 165.856906 
z
" style="fill:none;stroke:#9467bd;"/>
   </g>
   <g id="PathCollection_24">
    <path clip-path="url(#pcf0e57806e)" d="M 177.040107 164.866352 
C 177.977742 164.866352 178.877099 164.493826 179.540107 163.830818 
C 180.203115 163.16781 180.575641 162.268452 180.575641 161.330818 
C 180.575641 160.393183 180.203115 159.493826 179.540107 158.830818 
C 178.877099 158.16781 177.977742 157.795284 177.040107 157.795284 
C 176.102472 157.795284 175.203115 158.16781 174.540107 158.830818 
C 173.877099 159.493826 173.504573 160.393183 173.504573 161.330818 
C 173.504573 162.268452 173.877099 163.16781 174.540107 163.830818 
C 175.203115 164.493826 176.102472 164.866352 177.040107 164.866352 
z
" style="fill:none;stroke:#9467bd;"/>
   </g>
   <g id="PathCollection_25">
    <path clip-path="url(#pcf0e57806e)" d="M 182.013369 163.935214 
C 182.951004 163.935214 183.850361 163.562687 184.513369 162.89968 
C 185.176377 162.236672 185.548903 161.337314 185.548903 160.39968 
C 185.548903 159.462045 185.176377 158.562687 184.513369 157.89968 
C 183.850361 157.236672 182.951004 156.864146 182.013369 156.864146 
C 181.075734 156.864146 180.176377 157.236672 179.513369 157.89968 
C 178.850361 158.562687 178.477835 159.462045 178.477835 160.39968 
C 178.477835 161.337314 178.850361 162.236672 179.513369 162.89968 
C 180.176377 163.562687 181.075734 163.935214 182.013369 163.935214 
z
" style="fill:none;stroke:#9467bd;"/>
   </g>
   <g id="PathCollection_26">
    <path clip-path="url(#pcf0e57806e)" d="M 186.986631 163.058894 
C 187.924266 163.058894 188.823623 162.686368 189.486631 162.02336 
C 190.149639 161.360352 190.522165 160.460995 190.522165 159.52336 
C 190.522165 158.585726 190.149639 157.686368 189.486631 157.02336 
C 188.823623 156.360352 187.924266 155.987826 186.986631 155.987826 
C 186.048996 155.987826 185.149639 156.360352 184.486631 157.02336 
C 183.823623 157.686368 183.451097 158.585726 183.451097 159.52336 
C 183.451097 160.460995 183.823623 161.360352 184.486631 162.02336 
C 185.149639 162.686368 186.048996 163.058894 186.986631 163.058894 
z
" style="fill:none;stroke:#9467bd;"/>
   </g>
   <g id="PathCollection_27">
    <path clip-path="url(#pcf0e57806e)" d="M 191.959893 162.23183 
C 192.897528 162.23183 193.796885 161.859304 194.459893 161.196296 
C 195.122901 160.533288 195.495427 159.633931 195.495427 158.696296 
C 195.495427 157.758661 195.122901 156.859304 194.459893 156.196296 
C 193.796885 155.533288 192.897528 155.160762 191.959893 155.160762 
C 191.022258 155.160762 190.122901 155.533288 189.459893 156.196296 
C 188.796885 156.859304 188.424359 157.758661 188.424359 158.696296 
C 188.424359 159.633931 188.796885 160.533288 189.459893 161.196296 
C 190.122901 161.859304 191.022258 162.23183 191.959893 162.23183 
z
" style="fill:none;stroke:#9467bd;"/>
   </g>
   <g id="PathCollection_28">
    <path clip-path="url(#pcf0e57806e)" d="M 196.933155 161.448049 
C 197.87079 161.448049 198.770147 161.075523 199.433155 160.412516 
C 200.096163 159.749508 200.468689 158.85015 200.468689 157.912516 
C 200.468689 156.974881 200.096163 156.075523 199.433155 155.412516 
C 198.770147 154.749508 197.87079 154.376982 196.933155 154.376982 
C 195.995521 154.376982 195.096163 154.749508 194.433155 155.412516 
C 193.770147 156.075523 193.397621 156.974881 193.397621 157.912516 
C 193.397621 158.85015 193.770147 159.749508 194.433155 160.412516 
C 195.096163 161.075523 195.995521 161.448049 196.933155 161.448049 
z
" style="fill:none;stroke:#9467bd;"/>
   </g>
   <g id="PathCollection_29">
    <path clip-path="url(#pcf0e57806e)" d="M 201.906417 160.701727 
C 202.844052 160.701727 203.743409 160.329201 204.406417 159.666193 
C 205.069425 159.003185 205.441951 158.103828 205.441951 157.166193 
C 205.441951 156.228559 205.069425 155.329201 204.406417 154.666193 
C 203.743409 154.003185 202.844052 153.630659 201.906417 153.630659 
C 200.968783 153.630659 200.069425 154.003185 199.406417 154.666193 
C 198.743409 155.329201 198.370883 156.228559 198.370883 157.166193 
C 198.370883 158.103828 198.743409 159.003185 199.406417 159.666193 
C 200.069425 160.329201 200.968783 160.701727 201.906417 160.701727 
z
" style="fill:none;stroke:#9467bd;"/>
   </g>
   <g id="PathCollection_30">
    <path clip-path="url(#pcf0e57806e)" d="M 206.879679 159.987715 
C 207.817314 159.987715 208.716671 159.615189 209.379679 158.952181 
C 210.042687 158.289173 210.415213 157.389816 210.415213 156.452181 
C 210.415213 155.514546 210.042687 154.615189 209.379679 153.952181 
C 208.716671 153.289173 207.817314 152.916647 206.879679 152.916647 
C 205.942045 152.916647 205.042687 153.289173 204.379679 153.952181 
C 203.716671 154.615189 203.344145 155.514546 203.344145 156.452181 
C 203.344145 157.389816 203.716671 158.289173 204.379679 158.952181 
C 205.042687 159.615189 205.942045 159.987715 206.879679 159.987715 
z
" style="fill:none;stroke:#9467bd;"/>
   </g>
   <g id="PathCollection_31">
    <path clip-path="url(#pcf0e57806e)" d="M 211.852941 159.302034 
C 212.790576 159.302034 213.689933 158.929507 214.352941 158.2665 
C 215.015949 157.603492 215.388475 156.704134 215.388475 155.7665 
C 215.388475 154.828865 215.015949 153.929507 214.352941 153.2665 
C 213.689933 152.603492 212.790576 152.230966 211.852941 152.230966 
C 210.915307 152.230966 210.015949 152.603492 209.352941 153.2665 
C 208.689933 153.929507 208.317407 154.828865 208.317407 155.7665 
C 208.317407 156.704134 208.689933 157.603492 209.352941 158.2665 
C 210.015949 158.929507 210.915307 159.302034 211.852941 159.302034 
z
" style="fill:none;stroke:#9467bd;"/>
   </g>
   <g id="PathCollection_32">
    <path clip-path="url(#pcf0e57806e)" d="M 216.826203 158.642302 
C 217.763838 158.642302 218.663195 158.269776 219.326203 157.606768 
C 219.989211 156.94376 220.361737 156.044403 220.361737 155.106768 
C 220.361737 154.169133 219.989211 153.269776 219.326203 152.606768 
C 218.663195 151.94376 217.763838 151.571234 216.826203 151.571234 
C 215.888569 151.571234 214.989211 151.94376 214.326203 152.606768 
C 213.663195 153.269776 213.290669 154.169133 213.290669 155.106768 
C 213.290669 156.044403 213.663195 156.94376 214.326203 157.606768 
C 214.989211 158.269776 215.888569 158.642302 216.826203 158.642302 
z
" style="fill:none;stroke:#9467bd;"/>
   </g>
   <g id="PathCollection_33">
    <path clip-path="url(#pcf0e57806e)" d="M 221.799465 158.008087 
C 222.7371 158.008087 223.636457 157.635561 224.299465 156.972553 
C 224.962473 156.309545 225.334999 155.410187 225.334999 154.472553 
C 225.334999 153.534918 224.962473 152.635561 224.299465 151.972553 
C 223.636457 151.309545 222.7371 150.937019 221.799465 150.937019 
C 220.861831 150.937019 219.962473 151.309545 219.299465 151.972553 
C 218.636457 152.635561 218.263931 153.534918 218.263931 154.472553 
C 218.263931 155.410187 218.636457 156.309545 219.299465 156.972553 
C 219.962473 157.635561 220.861831 158.008087 221.799465 158.008087 
z
" style="fill:none;stroke:#9467bd;"/>
   </g>
   <g id="PathCollection_34">
    <path clip-path="url(#pcf0e57806e)" d="M 226.772727 157.401153 
C 227.710362 157.401153 228.60972 157.028626 229.272727 156.365619 
C 229.935735 155.702611 230.308261 154.803253 230.308261 153.865619 
C 230.308261 152.927984 229.935735 152.028626 229.272727 151.365619 
C 228.60972 150.702611 227.710362 150.330085 226.772727 150.330085 
C 225.835093 150.330085 224.935735 150.702611 224.272727 151.365619 
C 223.60972 152.028626 223.237193 152.927984 223.237193 153.865619 
C 223.237193 154.803253 223.60972 155.702611 224.272727 156.365619 
C 224.935735 157.028626 225.835093 157.401153 226.772727 157.401153 
z
" style="fill:none;stroke:#9467bd;"/>
   </g>
   <g id="PathCollection_35">
    <path clip-path="url(#pcf0e57806e)" d="M 231.745989 156.825593 
C 232.683624 156.825593 233.582982 156.453066 234.245989 155.790059 
C 234.908997 155.127051 235.281523 154.227693 235.281523 153.290059 
C 235.281523 152.352424 234.908997 151.453066 234.245989 150.790059 
C 233.582982 150.127051 232.683624 149.754525 231.745989 149.754525 
C 230.808355 149.754525 229.908997 150.127051 229.245989 150.790059 
C 228.582982 151.453066 228.210455 152.352424 228.210455 153.290059 
C 228.210455 154.227693 228.582982 155.127051 229.245989 155.790059 
C 229.908997 156.453066 230.808355 156.825593 231.745989 156.825593 
z
" style="fill:none;stroke:#9467bd;"/>
   </g>
   <g id="PathCollection_36">
    <path clip-path="url(#pcf0e57806e)" d="M 236.719251 156.287823 
C 237.656886 156.287823 238.556244 155.915297 239.219251 155.252289 
C 239.882259 154.589281 240.254785 153.689924 240.254785 152.752289 
C 240.254785 151.814654 239.882259 150.915297 239.219251 150.252289 
C 238.556244 149.589281 237.656886 149.216755 236.719251 149.216755 
C 235.781617 149.216755 234.882259 149.589281 234.219251 150.252289 
C 233.556244 150.915297 233.183717 151.814654 233.183717 152.752289 
C 233.183717 153.689924 233.556244 154.589281 234.219251 155.252289 
C 234.882259 155.915297 235.781617 156.287823 236.719251 156.287823 
z
" style="fill:none;stroke:#9467bd;"/>
   </g>
   <g id="PathCollection_37">
    <path clip-path="url(#pcf0e57806e)" d="M 241.692513 155.796418 
C 242.630148 155.796418 243.529506 155.423892 244.192513 154.760884 
C 244.855521 154.097876 245.228047 153.198519 245.228047 152.260884 
C 245.228047 151.323249 244.855521 150.423892 244.192513 149.760884 
C 243.529506 149.097876 242.630148 148.72535 241.692513 148.72535 
C 240.754879 148.72535 239.855521 149.097876 239.192513 149.760884 
C 238.529506 150.423892 238.156979 151.323249 238.156979 152.260884 
C 238.156979 153.198519 238.529506 154.097876 239.192513 154.760884 
C 239.855521 155.423892 240.754879 155.796418 241.692513 155.796418 
z
" style="fill:none;stroke:#9467bd;"/>
   </g>
   <g id="PathCollection_38">
    <path clip-path="url(#pcf0e57806e)" d="M 246.665775 155.36177 
C 247.60341 155.36177 248.502768 154.989244 249.165775 154.326236 
C 249.828783 153.663228 250.201309 152.76387 250.201309 151.826236 
C 250.201309 150.888601 249.828783 149.989244 249.165775 149.326236 
C 248.502768 148.663228 247.60341 148.290702 246.665775 148.290702 
C 245.728141 148.290702 244.828783 148.663228 244.165775 149.326236 
C 243.502768 149.989244 243.130241 150.888601 243.130241 151.826236 
C 243.130241 152.76387 243.502768 153.663228 244.165775 154.326236 
C 244.828783 154.989244 245.728141 155.36177 246.665775 155.36177 
z
" style="fill:none;stroke:#9467bd;"/>
   </g>
   <g id="PathCollection_39">
    <path clip-path="url(#pcf0e57806e)" d="M 251.639037 154.995552 
C 252.576672 154.995552 253.47603 154.623026 254.139037 153.960018 
C 254.802045 153.29701 255.174571 152.397653 255.174571 151.460018 
C 255.174571 150.522384 254.802045 149.623026 254.139037 148.960018 
C 253.47603 148.29701 252.576672 147.924484 251.639037 147.924484 
C 250.701403 147.924484 249.802045 148.29701 249.139037 148.960018 
C 248.47603 149.623026 248.103504 150.522384 248.103504 151.460018 
C 248.103504 152.397653 248.47603 153.29701 249.139037 153.960018 
C 249.802045 154.623026 250.701403 154.995552 251.639037 154.995552 
z
" style="fill:none;stroke:#9467bd;"/>
   </g>
   <g id="PathCollection_40">
    <path clip-path="url(#pcf0e57806e)" d="M 256.612299 154.709969 
C 257.549934 154.709969 258.449292 154.337442 259.112299 153.674435 
C 259.775307 153.011427 260.147833 152.112069 260.147833 151.174435 
C 260.147833 150.2368 259.775307 149.337442 259.112299 148.674435 
C 258.449292 148.011427 257.549934 147.638901 256.612299 147.638901 
C 255.674665 147.638901 254.775307 148.011427 254.112299 148.674435 
C 253.449292 149.337442 253.076766 150.2368 253.076766 151.174435 
C 253.076766 152.112069 253.449292 153.011427 254.112299 153.674435 
C 254.775307 154.337442 255.674665 154.709969 256.612299 154.709969 
z
" style="fill:none;stroke:#9467bd;"/>
   </g>
   <g id="PathCollection_41">
    <path clip-path="url(#pcf0e57806e)" d="M 261.585561 154.516767 
C 262.523196 154.516767 263.422554 154.144241 264.085561 153.481233 
C 264.748569 152.818225 265.121095 151.918867 265.121095 150.981233 
C 265.121095 150.043598 264.748569 149.144241 264.085561 148.481233 
C 263.422554 147.818225 262.523196 147.445699 261.585561 147.445699 
C 260.647927 147.445699 259.748569 147.818225 259.085561 148.481233 
C 258.422554 149.144241 258.050028 150.043598 258.050028 150.981233 
C 258.050028 151.918867 258.422554 152.818225 259.085561 153.481233 
C 259.748569 154.144241 260.647927 154.516767 261.585561 154.516767 
z
" style="fill:none;stroke:#9467bd;"/>
   </g>
   <g id="PathCollection_42">
    <path clip-path="url(#pcf0e57806e)" d="M 266.558824 154.425998 
C 267.496458 154.425998 268.395816 154.053472 269.058824 153.390464 
C 269.721831 152.727457 270.094357 151.828099 270.094357 150.890464 
C 270.094357 149.95283 269.721831 149.053472 269.058824 148.390464 
C 268.395816 147.727457 267.496458 147.354931 266.558824 147.354931 
C 265.621189 147.354931 264.721831 147.727457 264.058824 148.390464 
C 263.395816 149.053472 263.02329 149.95283 263.02329 150.890464 
C 263.02329 151.828099 263.395816 152.727457 264.058824 153.390464 
C 264.721831 154.053472 265.621189 154.425998 266.558824 154.425998 
z
" style="fill:none;stroke:#9467bd;"/>
   </g>
   <g id="PathCollection_43">
    <path clip-path="url(#pcf0e57806e)" d="M 271.532086 154.444507 
C 272.46972 154.444507 273.369078 154.071981 274.032086 153.408973 
C 274.695093 152.745965 275.067619 151.846607 275.067619 150.908973 
C 275.067619 149.971338 274.695093 149.071981 274.032086 148.408973 
C 273.369078 147.745965 272.46972 147.373439 271.532086 147.373439 
C 270.594451 147.373439 269.695093 147.745965 269.032086 148.408973 
C 268.369078 149.071981 267.996552 149.971338 267.996552 150.908973 
C 267.996552 151.846607 268.369078 152.745965 269.032086 153.408973 
C 269.695093 154.071981 270.594451 154.444507 271.532086 154.444507 
z
" style="fill:none;stroke:#9467bd;"/>
   </g>
   <g id="PathCollection_44">
    <path clip-path="url(#pcf0e57806e)" d="M 276.505348 154.574122 
C 277.442982 154.574122 278.34234 154.201596 279.005348 153.538588 
C 279.668355 152.87558 280.040881 151.976222 280.040881 151.038588 
C 280.040881 150.100953 279.668355 149.201596 279.005348 148.538588 
C 278.34234 147.87558 277.442982 147.503054 276.505348 147.503054 
C 275.567713 147.503054 274.668355 147.87558 274.005348 148.538588 
C 273.34234 149.201596 272.969814 150.100953 272.969814 151.038588 
C 272.969814 151.976222 273.34234 152.87558 274.005348 153.538588 
C 274.668355 154.201596 275.567713 154.574122 276.505348 154.574122 
z
" style="fill:none;stroke:#9467bd;"/>
   </g>
   <g id="PathCollection_45">
    <path clip-path="url(#pcf0e57806e)" d="M 281.47861 154.809543 
C 282.416244 154.809543 283.315602 154.437017 283.97861 153.774009 
C 284.641617 153.111002 285.014144 152.211644 285.014144 151.274009 
C 285.014144 150.336375 284.641617 149.437017 283.97861 148.774009 
C 283.315602 148.111002 282.416244 147.738476 281.47861 147.738476 
C 280.540975 147.738476 279.641617 148.111002 278.97861 148.774009 
C 278.315602 149.437017 277.943076 150.336375 277.943076 151.274009 
C 277.943076 152.211644 278.315602 153.111002 278.97861 153.774009 
C 279.641617 154.437017 280.540975 154.809543 281.47861 154.809543 
z
" style="fill:none;stroke:#9467bd;"/>
   </g>
   <g id="PathCollection_46">
    <path clip-path="url(#pcf0e57806e)" d="M 286.451872 155.135894 
C 287.389506 155.135894 288.288864 154.763368 288.951872 154.10036 
C 289.614879 153.437353 289.987406 152.537995 289.987406 151.60036 
C 289.987406 150.662726 289.614879 149.763368 288.951872 149.10036 
C 288.288864 148.437353 287.389506 148.064827 286.451872 148.064827 
C 285.514237 148.064827 284.614879 148.437353 283.951872 149.10036 
C 283.288864 149.763368 282.916338 150.662726 282.916338 151.60036 
C 282.916338 152.537995 283.288864 153.437353 283.951872 154.10036 
C 284.614879 154.763368 285.514237 155.135894 286.451872 155.135894 
z
" style="fill:none;stroke:#9467bd;"/>
   </g>
   <g id="PathCollection_47">
    <path clip-path="url(#pcf0e57806e)" d="M 291.425134 155.525923 
C 292.362768 155.525923 293.262126 155.153396 293.925134 154.490389 
C 294.588141 153.827381 294.960668 152.928023 294.960668 151.990389 
C 294.960668 151.052754 294.588141 150.153396 293.925134 149.490389 
C 293.262126 148.827381 292.362768 148.454855 291.425134 148.454855 
C 290.487499 148.454855 289.588141 148.827381 288.925134 149.490389 
C 288.262126 150.153396 287.8896 151.052754 287.8896 151.990389 
C 287.8896 152.928023 288.262126 153.827381 288.925134 154.490389 
C 289.588141 155.153396 290.487499 155.525923 291.425134 155.525923 
z
" style="fill:none;stroke:#9467bd;"/>
   </g>
   <g id="PathCollection_48">
    <path clip-path="url(#pcf0e57806e)" d="M 296.398396 155.936834 
C 297.33603 155.936834 298.235388 155.564308 298.898396 154.9013 
C 299.561403 154.238293 299.93393 153.338935 299.93393 152.4013 
C 299.93393 151.463666 299.561403 150.564308 298.898396 149.9013 
C 298.235388 149.238293 297.33603 148.865767 296.398396 148.865767 
C 295.460761 148.865767 294.561403 149.238293 293.898396 149.9013 
C 293.235388 150.564308 292.862862 151.463666 292.862862 152.4013 
C 292.862862 153.338935 293.235388 154.238293 293.898396 154.9013 
C 294.561403 155.564308 295.460761 155.936834 296.398396 155.936834 
z
" style="fill:none;stroke:#9467bd;"/>
   </g>
   <g id="PathCollection_49">
    <path clip-path="url(#pcf0e57806e)" d="M 301.371658 156.306739 
C 302.309292 156.306739 303.20865 155.934213 303.871658 155.271205 
C 304.534666 154.608197 304.907192 153.708839 304.907192 152.771205 
C 304.907192 151.83357 304.534666 150.934213 303.871658 150.271205 
C 303.20865 149.608197 302.309292 149.235671 301.371658 149.235671 
C 300.434023 149.235671 299.534666 149.608197 298.871658 150.271205 
C 298.20865 150.934213 297.836124 151.83357 297.836124 152.771205 
C 297.836124 153.708839 298.20865 154.608197 298.871658 155.271205 
C 299.534666 155.934213 300.434023 156.306739 301.371658 156.306739 
z
" style="fill:none;stroke:#9467bd;"/>
   </g>
   <g id="PathCollection_50">
    <path clip-path="url(#pcf0e57806e)" d="M 306.34492 156.550684 
C 307.282554 156.550684 308.181912 156.178158 308.84492 155.51515 
C 309.507928 154.852143 309.880454 153.952785 309.880454 153.01515 
C 309.880454 152.077516 309.507928 151.178158 308.84492 150.51515 
C 308.181912 149.852143 307.282554 149.479616 306.34492 149.479616 
C 305.407285 149.479616 304.507928 149.852143 303.84492 150.51515 
C 303.181912 151.178158 302.809386 152.077516 302.809386 153.01515 
C 302.809386 153.952785 303.181912 154.852143 303.84492 155.51515 
C 304.507928 156.178158 305.407285 156.550684 306.34492 156.550684 
z
" style="fill:none;stroke:#9467bd;"/>
   </g>
   <g id="PathCollection_51">
    <path clip-path="url(#pcf0e57806e)" d="M 311.318182 156.556267 
C 312.255816 156.556267 313.155174 156.183741 313.818182 155.520733 
C 314.48119 154.857725 314.853716 153.958368 314.853716 153.020733 
C 314.853716 152.083099 314.48119 151.183741 313.818182 150.520733 
C 313.155174 149.857725 312.255816 149.485199 311.318182 149.485199 
C 310.380547 149.485199 309.48119 149.857725 308.818182 150.520733 
C 308.155174 151.183741 307.782648 152.083099 307.782648 153.020733 
C 307.782648 153.958368 308.155174 154.857725 308.818182 155.520733 
C 309.48119 156.183741 310.380547 156.556267 311.318182 156.556267 
z
" style="fill:none;stroke:#9467bd;"/>
   </g>
   <g id="PathCollection_52">
    <defs>
     <path d="M 0 3.535534 
C 0.937635 3.535534 1.836992 3.163008 2.5 2.5 
C 3.163008 1.836992 3.535534 0.937635 3.535534 0 
C 3.535534 -0.937635 3.163008 -1.836992 2.5 -2.5 
C 1.836992 -3.163008 0.937635 -3.535534 0 -3.535534 
C -0.937635 -3.535534 -1.836992 -3.163008 -2.5 -2.5 
C -3.163008 -1.836992 -3.535534 -0.937635 -3.535534 0 
C -3.535534 0.937635 -3.163008 1.836992 -2.5 2.5 
C -1.836992 3.163008 -0.937635 3.535534 0 3.535534 
z
" id="m55de4bcbb8" style="stroke:#9467bd;"/>
    </defs>
    <g clip-path="url(#pcf0e57806e)">
     <use style="fill:#9467bd;stroke:#9467bd;" x="62.65508" xlink:href="#m55de4bcbb8" y="180.996432"/>
    </g>
   </g>
   <g id="PathCollection_53">
    <g clip-path="url(#pcf0e57806e)">
     <use style="fill:#9467bd;stroke:#9467bd;" x="67.628342" xlink:href="#m55de4bcbb8" y="181.083444"/>
    </g>
   </g>
   <g id="PathCollection_54">
    <g clip-path="url(#pcf0e57806e)">
     <use style="fill:#9467bd;stroke:#9467bd;" x="72.601604" xlink:href="#m55de4bcbb8" y="180.905513"/>
    </g>
   </g>
   <g id="PathCollection_55">
    <g clip-path="url(#pcf0e57806e)">
     <use style="fill:#9467bd;stroke:#9467bd;" x="77.574866" xlink:href="#m55de4bcbb8" y="180.498382"/>
    </g>
   </g>
   <g id="PathCollection_56">
    <g clip-path="url(#pcf0e57806e)">
     <use style="fill:#9467bd;stroke:#9467bd;" x="82.548128" xlink:href="#m55de4bcbb8" y="179.889165"/>
    </g>
   </g>
   <g id="PathCollection_57">
    <g clip-path="url(#pcf0e57806e)">
     <use style="fill:#9467bd;stroke:#9467bd;" x="87.52139" xlink:href="#m55de4bcbb8" y="179.10529"/>
    </g>
   </g>
   <g id="PathCollection_58">
    <g clip-path="url(#pcf0e57806e)">
     <use style="fill:#9467bd;stroke:#9467bd;" x="92.494652" xlink:href="#m55de4bcbb8" y="178.161174"/>
    </g>
   </g>
   <g id="PathCollection_59">
    <g clip-path="url(#pcf0e57806e)">
     <use style="fill:#9467bd;stroke:#9467bd;" x="97.467914" xlink:href="#m55de4bcbb8" y="177.07412"/>
    </g>
   </g>
   <g id="PathCollection_60">
    <g clip-path="url(#pcf0e57806e)">
     <use style="fill:#9467bd;stroke:#9467bd;" x="102.441176" xlink:href="#m55de4bcbb8" y="175.857971"/>
    </g>
   </g>
   <g id="PathCollection_61">
    <g clip-path="url(#pcf0e57806e)">
     <use style="fill:#9467bd;stroke:#9467bd;" x="107.414439" xlink:href="#m55de4bcbb8" y="174.525415"/>
    </g>
   </g>
   <g id="PathCollection_62">
    <g clip-path="url(#pcf0e57806e)">
     <use style="fill:#9467bd;stroke:#9467bd;" x="112.387701" xlink:href="#m55de4bcbb8" y="173.088658"/>
    </g>
   </g>
   <g id="PathCollection_63">
    <g clip-path="url(#pcf0e57806e)">
     <use style="fill:#9467bd;stroke:#9467bd;" x="117.360963" xlink:href="#m55de4bcbb8" y="171.559952"/>
    </g>
   </g>
   <g id="PathCollection_64">
    <g clip-path="url(#pcf0e57806e)">
     <use style="fill:#9467bd;stroke:#9467bd;" x="122.334225" xlink:href="#m55de4bcbb8" y="169.951977"/>
    </g>
   </g>
   <g id="PathCollection_65">
    <g clip-path="url(#pcf0e57806e)">
     <use style="fill:#9467bd;stroke:#9467bd;" x="127.307487" xlink:href="#m55de4bcbb8" y="168.278107"/>
    </g>
   </g>
   <g id="PathCollection_66">
    <g clip-path="url(#pcf0e57806e)">
     <use style="fill:#9467bd;stroke:#9467bd;" x="132.280749" xlink:href="#m55de4bcbb8" y="166.552553"/>
    </g>
   </g>
   <g id="PathCollection_67">
    <g clip-path="url(#pcf0e57806e)">
     <use style="fill:#9467bd;stroke:#9467bd;" x="137.254011" xlink:href="#m55de4bcbb8" y="164.790409"/>
    </g>
   </g>
   <g id="PathCollection_68">
    <g clip-path="url(#pcf0e57806e)">
     <use style="fill:#9467bd;stroke:#9467bd;" x="142.227273" xlink:href="#m55de4bcbb8" y="163.007597"/>
    </g>
   </g>
   <g id="PathCollection_69">
    <g clip-path="url(#pcf0e57806e)">
     <use style="fill:#9467bd;stroke:#9467bd;" x="147.200535" xlink:href="#m55de4bcbb8" y="161.220741"/>
    </g>
   </g>
   <g id="PathCollection_70">
    <g clip-path="url(#pcf0e57806e)">
     <use style="fill:#9467bd;stroke:#9467bd;" x="152.173797" xlink:href="#m55de4bcbb8" y="159.446964"/>
    </g>
   </g>
   <g id="PathCollection_71">
    <g clip-path="url(#pcf0e57806e)">
     <use style="fill:#9467bd;stroke:#9467bd;" x="157.147059" xlink:href="#m55de4bcbb8" y="157.703635"/>
    </g>
   </g>
   <g id="PathCollection_72">
    <g clip-path="url(#pcf0e57806e)">
     <use style="fill:#9467bd;stroke:#9467bd;" x="162.120321" xlink:href="#m55de4bcbb8" y="156.008057"/>
    </g>
   </g>
   <g id="PathCollection_73">
    <g clip-path="url(#pcf0e57806e)">
     <use style="fill:#9467bd;stroke:#9467bd;" x="167.093583" xlink:href="#m55de4bcbb8" y="154.377133"/>
    </g>
   </g>
   <g id="PathCollection_74">
    <g clip-path="url(#pcf0e57806e)">
     <use style="fill:#9467bd;stroke:#9467bd;" x="172.066845" xlink:href="#m55de4bcbb8" y="152.827001"/>
    </g>
   </g>
   <g id="PathCollection_75">
    <g clip-path="url(#pcf0e57806e)">
     <use style="fill:#9467bd;stroke:#9467bd;" x="177.040107" xlink:href="#m55de4bcbb8" y="151.372655"/>
    </g>
   </g>
   <g id="PathCollection_76">
    <g clip-path="url(#pcf0e57806e)">
     <use style="fill:#9467bd;stroke:#9467bd;" x="182.013369" xlink:href="#m55de4bcbb8" y="150.027571"/>
    </g>
   </g>
   <g id="PathCollection_77">
    <g clip-path="url(#pcf0e57806e)">
     <use style="fill:#9467bd;stroke:#9467bd;" x="186.986631" xlink:href="#m55de4bcbb8" y="148.803337"/>
    </g>
   </g>
   <g id="PathCollection_78">
    <g clip-path="url(#pcf0e57806e)">
     <use style="fill:#9467bd;stroke:#9467bd;" x="191.959893" xlink:href="#m55de4bcbb8" y="147.709311"/>
    </g>
   </g>
   <g id="PathCollection_79">
    <g clip-path="url(#pcf0e57806e)">
     <use style="fill:#9467bd;stroke:#9467bd;" x="196.933155" xlink:href="#m55de4bcbb8" y="146.752305"/>
    </g>
   </g>
   <g id="PathCollection_80">
    <g clip-path="url(#pcf0e57806e)">
     <use style="fill:#9467bd;stroke:#9467bd;" x="201.906417" xlink:href="#m55de4bcbb8" y="145.936317"/>
    </g>
   </g>
   <g id="PathCollection_81">
    <g clip-path="url(#pcf0e57806e)">
     <use style="fill:#9467bd;stroke:#9467bd;" x="206.879679" xlink:href="#m55de4bcbb8" y="145.262321"/>
    </g>
   </g>
   <g id="PathCollection_82">
    <g clip-path="url(#pcf0e57806e)">
     <use style="fill:#9467bd;stroke:#9467bd;" x="211.852941" xlink:href="#m55de4bcbb8" y="144.72812"/>
    </g>
   </g>
   <g id="PathCollection_83">
    <g clip-path="url(#pcf0e57806e)">
     <use style="fill:#9467bd;stroke:#9467bd;" x="216.826203" xlink:href="#m55de4bcbb8" y="144.328279"/>
    </g>
   </g>
   <g id="PathCollection_84">
    <g clip-path="url(#pcf0e57806e)">
     <use style="fill:#9467bd;stroke:#9467bd;" x="221.799465" xlink:href="#m55de4bcbb8" y="144.054148"/>
    </g>
   </g>
   <g id="PathCollection_85">
    <g clip-path="url(#pcf0e57806e)">
     <use style="fill:#9467bd;stroke:#9467bd;" x="226.772727" xlink:href="#m55de4bcbb8" y="143.89399"/>
    </g>
   </g>
   <g id="PathCollection_86">
    <g clip-path="url(#pcf0e57806e)">
     <use style="fill:#9467bd;stroke:#9467bd;" x="231.745989" xlink:href="#m55de4bcbb8" y="143.833211"/>
    </g>
   </g>
   <g id="PathCollection_87">
    <g clip-path="url(#pcf0e57806e)">
     <use style="fill:#9467bd;stroke:#9467bd;" x="236.719251" xlink:href="#m55de4bcbb8" y="143.854728"/>
    </g>
   </g>
   <g id="PathCollection_88">
    <g clip-path="url(#pcf0e57806e)">
     <use style="fill:#9467bd;stroke:#9467bd;" x="241.692513" xlink:href="#m55de4bcbb8" y="143.939463"/>
    </g>
   </g>
   <g id="PathCollection_89">
    <g clip-path="url(#pcf0e57806e)">
     <use style="fill:#9467bd;stroke:#9467bd;" x="246.665775" xlink:href="#m55de4bcbb8" y="144.066985"/>
    </g>
   </g>
   <g id="PathCollection_90">
    <g clip-path="url(#pcf0e57806e)">
     <use style="fill:#9467bd;stroke:#9467bd;" x="251.639037" xlink:href="#m55de4bcbb8" y="144.216313"/>
    </g>
   </g>
   <g id="PathCollection_91">
    <g clip-path="url(#pcf0e57806e)">
     <use style="fill:#9467bd;stroke:#9467bd;" x="256.612299" xlink:href="#m55de4bcbb8" y="144.366886"/>
    </g>
   </g>
   <g id="PathCollection_92">
    <g clip-path="url(#pcf0e57806e)">
     <use style="fill:#9467bd;stroke:#9467bd;" x="261.585561" xlink:href="#m55de4bcbb8" y="144.499716"/>
    </g>
   </g>
   <g id="PathCollection_93">
    <g clip-path="url(#pcf0e57806e)">
     <use style="fill:#9467bd;stroke:#9467bd;" x="266.558824" xlink:href="#m55de4bcbb8" y="144.598735"/>
    </g>
   </g>
   <g id="PathCollection_94">
    <g clip-path="url(#pcf0e57806e)">
     <use style="fill:#9467bd;stroke:#9467bd;" x="271.532086" xlink:href="#m55de4bcbb8" y="144.652335"/>
    </g>
   </g>
   <g id="PathCollection_95">
    <g clip-path="url(#pcf0e57806e)">
     <use style="fill:#9467bd;stroke:#9467bd;" x="276.505348" xlink:href="#m55de4bcbb8" y="144.655141"/>
    </g>
   </g>
   <g id="PathCollection_96">
    <g clip-path="url(#pcf0e57806e)">
     <use style="fill:#9467bd;stroke:#9467bd;" x="281.47861" xlink:href="#m55de4bcbb8" y="144.609994"/>
    </g>
   </g>
   <g id="PathCollection_97">
    <g clip-path="url(#pcf0e57806e)">
     <use style="fill:#9467bd;stroke:#9467bd;" x="286.451872" xlink:href="#m55de4bcbb8" y="144.530179"/>
    </g>
   </g>
   <g id="PathCollection_98">
    <g clip-path="url(#pcf0e57806e)">
     <use style="fill:#9467bd;stroke:#9467bd;" x="291.425134" xlink:href="#m55de4bcbb8" y="144.441905"/>
    </g>
   </g>
   <g id="PathCollection_99">
    <g clip-path="url(#pcf0e57806e)">
     <use style="fill:#9467bd;stroke:#9467bd;" x="296.398396" xlink:href="#m55de4bcbb8" y="144.38704"/>
    </g>
   </g>
   <g id="PathCollection_100">
    <g clip-path="url(#pcf0e57806e)">
     <use style="fill:#9467bd;stroke:#9467bd;" x="301.371658" xlink:href="#m55de4bcbb8" y="144.42612"/>
    </g>
   </g>
   <g id="PathCollection_101">
    <g clip-path="url(#pcf0e57806e)">
     <use style="fill:#9467bd;stroke:#9467bd;" x="306.34492" xlink:href="#m55de4bcbb8" y="144.641642"/>
    </g>
   </g>
   <g id="PathCollection_102">
    <g clip-path="url(#pcf0e57806e)">
     <use style="fill:#9467bd;stroke:#9467bd;" x="311.318182" xlink:href="#m55de4bcbb8" y="145.141652"/>
    </g>
   </g>
   <g id="matplotlib.axis_1"/>
   <g id="matplotlib.axis_2">
    <g id="ytick_1">
     <g id="line2d_1">
      <defs>
       <path d="M 0 0 
L -3.5 0 
" id="ma88b2ca8a9" style="stroke:#000000;stroke-width:0.8;"/>
      </defs>
      <g>
       <use style="stroke:#000000;stroke-width:0.8;" x="45" xlink:href="#ma88b2ca8a9" y="181.465186"/>
      </g>
     </g>
     <g id="text_1">
      <!-- 0.00 -->
      <g transform="translate(15.734375 185.264405)scale(0.1 -0.1)">
       <defs>
        <path d="M 31.78125 66.40625 
Q 24.171875 66.40625 20.328125 58.90625 
Q 16.5 51.421875 16.5 36.375 
Q 16.5 21.390625 20.328125 13.890625 
Q 24.171875 6.390625 31.78125 6.390625 
Q 39.453125 6.390625 43.28125 13.890625 
Q 47.125 21.390625 47.125 36.375 
Q 47.125 51.421875 43.28125 58.90625 
Q 39.453125 66.40625 31.78125 66.40625 
z
M 31.78125 74.21875 
Q 44.046875 74.21875 50.515625 64.515625 
Q 56.984375 54.828125 56.984375 36.375 
Q 56.984375 17.96875 50.515625 8.265625 
Q 44.046875 -1.421875 31.78125 -1.421875 
Q 19.53125 -1.421875 13.0625 8.265625 
Q 6.59375 17.96875 6.59375 36.375 
Q 6.59375 54.828125 13.0625 64.515625 
Q 19.53125 74.21875 31.78125 74.21875 
z
" id="DejaVuSans-48"/>
        <path d="M 10.6875 12.40625 
L 21 12.40625 
L 21 0 
L 10.6875 0 
z
" id="DejaVuSans-46"/>
       </defs>
       <use xlink:href="#DejaVuSans-48"/>
       <use x="63.623047" xlink:href="#DejaVuSans-46"/>
       <use x="95.410156" xlink:href="#DejaVuSans-48"/>
       <use x="159.033203" xlink:href="#DejaVuSans-48"/>
      </g>
     </g>
    </g>
    <g id="ytick_2">
     <g id="line2d_2">
      <g>
       <use style="stroke:#000000;stroke-width:0.8;" x="45" xlink:href="#ma88b2ca8a9" y="156.369309"/>
      </g>
     </g>
     <g id="text_2">
      <!-- 0.25 -->
      <g transform="translate(15.734375 160.168528)scale(0.1 -0.1)">
       <defs>
        <path d="M 19.1875 8.296875 
L 53.609375 8.296875 
L 53.609375 0 
L 7.328125 0 
L 7.328125 8.296875 
Q 12.9375 14.109375 22.625 23.890625 
Q 32.328125 33.6875 34.8125 36.53125 
Q 39.546875 41.84375 41.421875 45.53125 
Q 43.3125 49.21875 43.3125 52.78125 
Q 43.3125 58.59375 39.234375 62.25 
Q 35.15625 65.921875 28.609375 65.921875 
Q 23.96875 65.921875 18.8125 64.3125 
Q 13.671875 62.703125 7.8125 59.421875 
L 7.8125 69.390625 
Q 13.765625 71.78125 18.9375 73 
Q 24.125 74.21875 28.421875 74.21875 
Q 39.75 74.21875 46.484375 68.546875 
Q 53.21875 62.890625 53.21875 53.421875 
Q 53.21875 48.921875 51.53125 44.890625 
Q 49.859375 40.875 45.40625 35.40625 
Q 44.1875 33.984375 37.640625 27.21875 
Q 31.109375 20.453125 19.1875 8.296875 
z
" id="DejaVuSans-50"/>
        <path d="M 10.796875 72.90625 
L 49.515625 72.90625 
L 49.515625 64.59375 
L 19.828125 64.59375 
L 19.828125 46.734375 
Q 21.96875 47.46875 24.109375 47.828125 
Q 26.265625 48.1875 28.421875 48.1875 
Q 40.625 48.1875 47.75 41.5 
Q 54.890625 34.8125 54.890625 23.390625 
Q 54.890625 11.625 47.5625 5.09375 
Q 40.234375 -1.421875 26.90625 -1.421875 
Q 22.3125 -1.421875 17.546875 -0.640625 
Q 12.796875 0.140625 7.71875 1.703125 
L 7.71875 11.625 
Q 12.109375 9.234375 16.796875 8.0625 
Q 21.484375 6.890625 26.703125 6.890625 
Q 35.15625 6.890625 40.078125 11.328125 
Q 45.015625 15.765625 45.015625 23.390625 
Q 45.015625 31 40.078125 35.4375 
Q 35.15625 39.890625 26.703125 39.890625 
Q 22.75 39.890625 18.8125 39.015625 
Q 14.890625 38.140625 10.796875 36.28125 
z
" id="DejaVuSans-53"/>
       </defs>
       <use xlink:href="#DejaVuSans-48"/>
       <use x="63.623047" xlink:href="#DejaVuSans-46"/>
       <use x="95.410156" xlink:href="#DejaVuSans-50"/>
       <use x="159.033203" xlink:href="#DejaVuSans-53"/>
      </g>
     </g>
    </g>
    <g id="ytick_3">
     <g id="line2d_3">
      <g>
       <use style="stroke:#000000;stroke-width:0.8;" x="45" xlink:href="#ma88b2ca8a9" y="131.273433"/>
      </g>
     </g>
     <g id="text_3">
      <!-- 0.50 -->
      <g transform="translate(15.734375 135.072652)scale(0.1 -0.1)">
       <use xlink:href="#DejaVuSans-48"/>
       <use x="63.623047" xlink:href="#DejaVuSans-46"/>
       <use x="95.410156" xlink:href="#DejaVuSans-53"/>
       <use x="159.033203" xlink:href="#DejaVuSans-48"/>
      </g>
     </g>
    </g>
    <g id="ytick_4">
     <g id="line2d_4">
      <g>
       <use style="stroke:#000000;stroke-width:0.8;" x="45" xlink:href="#ma88b2ca8a9" y="106.177557"/>
      </g>
     </g>
     <g id="text_4">
      <!-- 0.75 -->
      <g transform="translate(15.734375 109.976775)scale(0.1 -0.1)">
       <defs>
        <path d="M 8.203125 72.90625 
L 55.078125 72.90625 
L 55.078125 68.703125 
L 28.609375 0 
L 18.3125 0 
L 43.21875 64.59375 
L 8.203125 64.59375 
z
" id="DejaVuSans-55"/>
       </defs>
       <use xlink:href="#DejaVuSans-48"/>
       <use x="63.623047" xlink:href="#DejaVuSans-46"/>
       <use x="95.410156" xlink:href="#DejaVuSans-55"/>
       <use x="159.033203" xlink:href="#DejaVuSans-53"/>
      </g>
     </g>
    </g>
    <g id="ytick_5">
     <g id="line2d_5">
      <g>
       <use style="stroke:#000000;stroke-width:0.8;" x="45" xlink:href="#ma88b2ca8a9" y="81.08168"/>
      </g>
     </g>
     <g id="text_5">
      <!-- 1.00 -->
      <g transform="translate(15.734375 84.880899)scale(0.1 -0.1)">
       <defs>
        <path d="M 12.40625 8.296875 
L 28.515625 8.296875 
L 28.515625 63.921875 
L 10.984375 60.40625 
L 10.984375 69.390625 
L 28.421875 72.90625 
L 38.28125 72.90625 
L 38.28125 8.296875 
L 54.390625 8.296875 
L 54.390625 0 
L 12.40625 0 
z
" id="DejaVuSans-49"/>
       </defs>
       <use xlink:href="#DejaVuSans-49"/>
       <use x="63.623047" xlink:href="#DejaVuSans-46"/>
       <use x="95.410156" xlink:href="#DejaVuSans-48"/>
       <use x="159.033203" xlink:href="#DejaVuSans-48"/>
      </g>
     </g>
    </g>
    <g id="ytick_6">
     <g id="line2d_6">
      <g>
       <use style="stroke:#000000;stroke-width:0.8;" x="45" xlink:href="#ma88b2ca8a9" y="55.985804"/>
      </g>
     </g>
     <g id="text_6">
      <!-- 1.25 -->
      <g transform="translate(15.734375 59.785023)scale(0.1 -0.1)">
       <use xlink:href="#DejaVuSans-49"/>
       <use x="63.623047" xlink:href="#DejaVuSans-46"/>
       <use x="95.410156" xlink:href="#DejaVuSans-50"/>
       <use x="159.033203" xlink:href="#DejaVuSans-53"/>
      </g>
     </g>
    </g>
    <g id="ytick_7">
     <g id="line2d_7">
      <g>
       <use style="stroke:#000000;stroke-width:0.8;" x="45" xlink:href="#ma88b2ca8a9" y="30.889927"/>
      </g>
     </g>
     <g id="text_7">
      <!-- 1.50 -->
      <g transform="translate(15.734375 34.689146)scale(0.1 -0.1)">
       <use xlink:href="#DejaVuSans-49"/>
       <use x="63.623047" xlink:href="#DejaVuSans-46"/>
       <use x="95.410156" xlink:href="#DejaVuSans-53"/>
       <use x="159.033203" xlink:href="#DejaVuSans-48"/>
      </g>
     </g>
    </g>
   </g>
   <g id="line2d_8">
    <path clip-path="url(#pcf0e57806e)" d="M 57.681818 181.465186 
L 89.635027 181.354691 
L 95.229947 181.025329 
L 101.218583 180.447388 
L 107.787433 179.586878 
L 115.081551 178.403047 
L 123.349599 176.831111 
L 133.088904 174.74511 
L 145.273396 171.895392 
L 163.715909 167.325904 
L 196.145722 159.293918 
L 208.578877 156.42788 
L 213.862968 155.467885 
L 219.354278 154.698861 
L 225.197861 154.107181 
L 231.476604 153.697971 
L 238.252674 153.482124 
L 245.650401 153.472012 
L 253.835561 153.686881 
L 263.056818 154.156191 
L 273.707888 154.92706 
L 286.555481 156.088426 
L 303.526738 157.860501 
L 311.318182 158.724305 
L 311.318182 158.724305 
" style="fill:none;stroke:#9467bd;stroke-dasharray:11.1,4.8;stroke-dashoffset:0;stroke-width:3;"/>
   </g>
   <g id="line2d_9">
    <path clip-path="url(#pcf0e57806e)" d="M 57.681818 181.465186 
L 86.298797 181.354102 
L 88.764706 181.045351 
L 91.168449 180.519696 
L 93.65508 179.745446 
L 96.245321 178.702877 
L 98.959893 177.368948 
L 101.840241 175.703212 
L 104.907086 173.668627 
L 108.18115 171.225619 
L 111.703877 168.313783 
L 115.495989 164.885349 
L 119.619652 160.851345 
L 124.157754 156.092181 
L 129.17246 150.501799 
L 134.829545 143.851453 
L 141.315508 135.874589 
L 149.148396 125.877459 
L 159.944519 111.706438 
L 189.825535 72.314618 
L 200.124332 59.219384 
L 206.610294 51.273897 
L 209.490642 48.116486 
L 212.205214 45.466306 
L 214.899064 43.144518 
L 217.592914 41.114109 
L 220.307487 39.345399 
L 223.042781 37.827417 
L 225.819519 36.540602 
L 228.637701 35.479507 
L 231.518048 34.633045 
L 234.460561 33.999801 
L 237.506684 33.573225 
L 240.656417 33.358951 
L 243.930481 33.361658 
L 247.349599 33.589686 
L 250.934492 34.054373 
L 254.705882 34.769389 
L 258.705214 35.755692 
L 262.994652 37.046202 
L 267.59492 38.666035 
L 272.588904 40.664309 
L 278.059492 43.097214 
L 284.151738 46.055405 
L 291.072861 49.66983 
L 299.237299 54.193668 
L 309.57754 60.191744 
L 311.318182 61.220866 
L 311.318182 61.220866 
" style="fill:none;stroke:#9467bd;stroke-linecap:square;stroke-width:3;"/>
   </g>
   <g id="patch_3">
    <path d="M 45 189 
L 45 25.92 
" style="fill:none;stroke:#000000;stroke-linecap:square;stroke-linejoin:miter;stroke-width:0.8;"/>
   </g>
   <g id="patch_4">
    <path d="M 324 189 
L 324 25.92 
" style="fill:none;stroke:#000000;stroke-linecap:square;stroke-linejoin:miter;stroke-width:0.8;"/>
   </g>
   <g id="patch_5">
    <path d="M 45 189 
L 324 189 
" style="fill:none;stroke:#000000;stroke-linecap:square;stroke-linejoin:miter;stroke-width:0.8;"/>
   </g>
   <g id="patch_6">
    <path d="M 45 25.92 
L 324 25.92 
" style="fill:none;stroke:#000000;stroke-linecap:square;stroke-linejoin:miter;stroke-width:0.8;"/>
   </g>
  </g>
 </g>
 <defs>
  <clipPath id="pcf0e57806e">
   <rect height="163.08" width="279" x="45" y="25.92"/>
  </clipPath>
 </defs>
</svg>
