<?xml version="1.0" encoding="utf-8" standalone="no"?>
<!DOCTYPE svg PUBLIC "-//W3C//DTD SVG 1.1//EN"
  "http://www.w3.org/Graphics/SVG/1.1/DTD/svg11.dtd">
<!-- Created with matplotlib (https://matplotlib.org/) -->
<svg height="216pt" version="1.1" viewBox="0 0 360 216" width="360pt" xmlns="http://www.w3.org/2000/svg" xmlns:xlink="http://www.w3.org/1999/xlink">
 <metadata>
  <rdf:RDF xmlns:cc="http://creativecommons.org/ns#" xmlns:dc="http://purl.org/dc/elements/1.1/" xmlns:rdf="http://www.w3.org/1999/02/22-rdf-syntax-ns#">
   <cc:Work>
    <dc:type rdf:resource="http://purl.org/dc/dcmitype/StillImage"/>
    <dc:date>2024-12-04T13:36:37.401746</dc:date>
    <dc:format>image/svg+xml</dc:format>
    <dc:creator>
     <cc:Agent>
      <dc:title>Matplotlib v3.3.2, https://matplotlib.org/</dc:title>
     </cc:Agent>
    </dc:creator>
   </cc:Work>
  </rdf:RDF>
 </metadata>
 <defs>
  <style type="text/css">*{stroke-linecap:butt;stroke-linejoin:round;}</style>
 </defs>
 <g id="figure_1">
  <g id="patch_1">
   <path d="M 0 216 
L 360 216 
L 360 0 
L 0 0 
z
" style="fill:none;"/>
  </g>
  <g id="axes_1">
   <g id="patch_2">
    <path d="M 45 189 
L 324 189 
L 324 25.92 
L 45 25.92 
z
" style="fill:#ffffff;"/>
   </g>
   <g id="PathCollection_1">
    <path clip-path="url(#pd0523a856a)" d="M 62.65508 183.489939 
C 63.592715 183.489939 64.492072 183.117413 65.15508 182.454405 
C 65.818088 181.791397 66.190614 180.89204 66.190614 179.954405 
C 66.190614 179.01677 65.818088 178.117413 65.15508 177.454405 
C 64.492072 176.791397 63.592715 176.418871 62.65508 176.418871 
C 61.717446 176.418871 60.818088 176.791397 60.15508 177.454405 
C 59.492072 178.117413 59.119546 179.01677 59.119546 179.954405 
C 59.119546 180.89204 59.492072 181.791397 60.15508 182.454405 
C 60.818088 183.117413 61.717446 183.489939 62.65508 183.489939 
z
" style="fill:none;stroke:#ff9896;"/>
   </g>
   <g id="PathCollection_2">
    <path clip-path="url(#pd0523a856a)" d="M 67.628342 184.997391 
C 68.565977 184.997391 69.465334 184.624865 70.128342 183.961857 
C 70.79135 183.29885 71.163876 182.399492 71.163876 181.461857 
C 71.163876 180.524223 70.79135 179.624865 70.128342 178.961857 
C 69.465334 178.29885 68.565977 177.926323 67.628342 177.926323 
C 66.690708 177.926323 65.79135 178.29885 65.128342 178.961857 
C 64.465334 179.624865 64.092808 180.524223 64.092808 181.461857 
C 64.092808 182.399492 64.465334 183.29885 65.128342 183.961857 
C 65.79135 184.624865 66.690708 184.997391 67.628342 184.997391 
z
" style="fill:none;stroke:#ff9896;"/>
   </g>
   <g id="PathCollection_3">
    <path clip-path="url(#pd0523a856a)" d="M 72.601604 185.122807 
C 73.539239 185.122807 74.438597 184.75028 75.101604 184.087273 
C 75.764612 183.424265 76.137138 182.524907 76.137138 181.587273 
C 76.137138 180.649638 75.764612 179.75028 75.101604 179.087273 
C 74.438597 178.424265 73.539239 178.051739 72.601604 178.051739 
C 71.66397 178.051739 70.764612 178.424265 70.101604 179.087273 
C 69.438597 179.75028 69.06607 180.649638 69.06607 181.587273 
C 69.06607 182.524907 69.438597 183.424265 70.101604 184.087273 
C 70.764612 184.75028 71.66397 185.122807 72.601604 185.122807 
z
" style="fill:none;stroke:#ff9896;"/>
   </g>
   <g id="PathCollection_4">
    <path clip-path="url(#pd0523a856a)" d="M 77.574866 184.221004 
C 78.512501 184.221004 79.411859 183.848478 80.074866 183.18547 
C 80.737874 182.522462 81.1104 181.623105 81.1104 180.68547 
C 81.1104 179.747836 80.737874 178.848478 80.074866 178.18547 
C 79.411859 177.522462 78.512501 177.149936 77.574866 177.149936 
C 76.637232 177.149936 75.737874 177.522462 75.074866 178.18547 
C 74.411859 178.848478 74.039332 179.747836 74.039332 180.68547 
C 74.039332 181.623105 74.411859 182.522462 75.074866 183.18547 
C 75.737874 183.848478 76.637232 184.221004 77.574866 184.221004 
z
" style="fill:none;stroke:#ff9896;"/>
   </g>
   <g id="PathCollection_5">
    <path clip-path="url(#pd0523a856a)" d="M 82.548128 182.547249 
C 83.485763 182.547249 84.385121 182.174723 85.048128 181.511715 
C 85.711136 180.848708 86.083662 179.94935 86.083662 179.011715 
C 86.083662 178.074081 85.711136 177.174723 85.048128 176.511715 
C 84.385121 175.848708 83.485763 175.476181 82.548128 175.476181 
C 81.610494 175.476181 80.711136 175.848708 80.048128 176.511715 
C 79.385121 177.174723 79.012594 178.074081 79.012594 179.011715 
C 79.012594 179.94935 79.385121 180.848708 80.048128 181.511715 
C 80.711136 182.174723 81.610494 182.547249 82.548128 182.547249 
z
" style="fill:none;stroke:#ff9896;"/>
   </g>
   <g id="PathCollection_6">
    <path clip-path="url(#pd0523a856a)" d="M 87.52139 180.271376 
C 88.459025 180.271376 89.358383 179.89885 90.02139 179.235842 
C 90.684398 178.572834 91.056924 177.673477 91.056924 176.735842 
C 91.056924 175.798208 90.684398 174.89885 90.02139 174.235842 
C 89.358383 173.572834 88.459025 173.200308 87.52139 173.200308 
C 86.583756 173.200308 85.684398 173.572834 85.02139 174.235842 
C 84.358383 174.89885 83.985856 175.798208 83.985856 176.735842 
C 83.985856 177.673477 84.358383 178.572834 85.02139 179.235842 
C 85.684398 179.89885 86.583756 180.271376 87.52139 180.271376 
z
" style="fill:none;stroke:#ff9896;"/>
   </g>
   <g id="PathCollection_7">
    <path clip-path="url(#pd0523a856a)" d="M 92.494652 177.501514 
C 93.432287 177.501514 94.331645 177.128987 94.994652 176.46598 
C 95.65766 175.802972 96.030186 174.903614 96.030186 173.96598 
C 96.030186 173.028345 95.65766 172.128987 94.994652 171.46598 
C 94.331645 170.802972 93.432287 170.430446 92.494652 170.430446 
C 91.557018 170.430446 90.65766 170.802972 89.994652 171.46598 
C 89.331645 172.128987 88.959119 173.028345 88.959119 173.96598 
C 88.959119 174.903614 89.331645 175.802972 89.994652 176.46598 
C 90.65766 177.128987 91.557018 177.501514 92.494652 177.501514 
z
" style="fill:none;stroke:#ff9896;"/>
   </g>
   <g id="PathCollection_8">
    <path clip-path="url(#pd0523a856a)" d="M 97.467914 174.296851 
C 98.405549 174.296851 99.304907 173.924325 99.967914 173.261317 
C 100.630922 172.598309 101.003448 171.698952 101.003448 170.761317 
C 101.003448 169.823682 100.630922 168.924325 99.967914 168.261317 
C 99.304907 167.598309 98.405549 167.225783 97.467914 167.225783 
C 96.53028 167.225783 95.630922 167.598309 94.967914 168.261317 
C 94.304907 168.924325 93.932381 169.823682 93.932381 170.761317 
C 93.932381 171.698952 94.304907 172.598309 94.967914 173.261317 
C 95.630922 173.924325 96.53028 174.296851 97.467914 174.296851 
z
" style="fill:none;stroke:#ff9896;"/>
   </g>
   <g id="PathCollection_9">
    <path clip-path="url(#pd0523a856a)" d="M 102.441176 170.681951 
C 103.378811 170.681951 104.278169 170.309425 104.941176 169.646418 
C 105.604184 168.98341 105.97671 168.084052 105.97671 167.146418 
C 105.97671 166.208783 105.604184 165.309425 104.941176 164.646418 
C 104.278169 163.98341 103.378811 163.610884 102.441176 163.610884 
C 101.503542 163.610884 100.604184 163.98341 99.941176 164.646418 
C 99.278169 165.309425 98.905643 166.208783 98.905643 167.146418 
C 98.905643 168.084052 99.278169 168.98341 99.941176 169.646418 
C 100.604184 170.309425 101.503542 170.681951 102.441176 170.681951 
z
" style="fill:none;stroke:#ff9896;"/>
   </g>
   <g id="PathCollection_10">
    <path clip-path="url(#pd0523a856a)" d="M 107.414439 166.65859 
C 108.352073 166.65859 109.251431 166.286064 109.914439 165.623057 
C 110.577446 164.960049 110.949972 164.060691 110.949972 163.123057 
C 110.949972 162.185422 110.577446 161.286064 109.914439 160.623057 
C 109.251431 159.960049 108.352073 159.587523 107.414439 159.587523 
C 106.476804 159.587523 105.577446 159.960049 104.914439 160.623057 
C 104.251431 161.286064 103.878905 162.185422 103.878905 163.123057 
C 103.878905 164.060691 104.251431 164.960049 104.914439 165.623057 
C 105.577446 166.286064 106.476804 166.65859 107.414439 166.65859 
z
" style="fill:none;stroke:#ff9896;"/>
   </g>
   <g id="PathCollection_11">
    <path clip-path="url(#pd0523a856a)" d="M 112.387701 162.215813 
C 113.325335 162.215813 114.224693 161.843287 114.887701 161.180279 
C 115.550708 160.517272 115.923234 159.617914 115.923234 158.680279 
C 115.923234 157.742645 115.550708 156.843287 114.887701 156.180279 
C 114.224693 155.517272 113.325335 155.144745 112.387701 155.144745 
C 111.450066 155.144745 110.550708 155.517272 109.887701 156.180279 
C 109.224693 156.843287 108.852167 157.742645 108.852167 158.680279 
C 108.852167 159.617914 109.224693 160.517272 109.887701 161.180279 
C 110.550708 161.843287 111.450066 162.215813 112.387701 162.215813 
z
" style="fill:none;stroke:#ff9896;"/>
   </g>
   <g id="PathCollection_12">
    <path clip-path="url(#pd0523a856a)" d="M 117.360963 157.33832 
C 118.298597 157.33832 119.197955 156.965793 119.860963 156.302786 
C 120.52397 155.639778 120.896496 154.74042 120.896496 153.802786 
C 120.896496 152.865151 120.52397 151.965793 119.860963 151.302786 
C 119.197955 150.639778 118.298597 150.267252 117.360963 150.267252 
C 116.423328 150.267252 115.52397 150.639778 114.860963 151.302786 
C 114.197955 151.965793 113.825429 152.865151 113.825429 153.802786 
C 113.825429 154.74042 114.197955 155.639778 114.860963 156.302786 
C 115.52397 156.965793 116.423328 157.33832 117.360963 157.33832 
z
" style="fill:none;stroke:#ff9896;"/>
   </g>
   <g id="PathCollection_13">
    <path clip-path="url(#pd0523a856a)" d="M 122.334225 152.013285 
C 123.271859 152.013285 124.171217 151.640759 124.834225 150.977751 
C 125.497232 150.314743 125.869759 149.415386 125.869759 148.477751 
C 125.869759 147.540116 125.497232 146.640759 124.834225 145.977751 
C 124.171217 145.314743 123.271859 144.942217 122.334225 144.942217 
C 121.39659 144.942217 120.497232 145.314743 119.834225 145.977751 
C 119.171217 146.640759 118.798691 147.540116 118.798691 148.477751 
C 118.798691 149.415386 119.171217 150.314743 119.834225 150.977751 
C 120.497232 151.640759 121.39659 152.013285 122.334225 152.013285 
z
" style="fill:none;stroke:#ff9896;"/>
   </g>
   <g id="PathCollection_14">
    <path clip-path="url(#pd0523a856a)" d="M 127.307487 146.23572 
C 128.245121 146.23572 129.144479 145.863194 129.807487 145.200186 
C 130.470494 144.537178 130.843021 143.637821 130.843021 142.700186 
C 130.843021 141.762552 130.470494 140.863194 129.807487 140.200186 
C 129.144479 139.537178 128.245121 139.164652 127.307487 139.164652 
C 126.369852 139.164652 125.470494 139.537178 124.807487 140.200186 
C 124.144479 140.863194 123.771953 141.762552 123.771953 142.700186 
C 123.771953 143.637821 124.144479 144.537178 124.807487 145.200186 
C 125.470494 145.863194 126.369852 146.23572 127.307487 146.23572 
z
" style="fill:none;stroke:#ff9896;"/>
   </g>
   <g id="PathCollection_15">
    <path clip-path="url(#pd0523a856a)" d="M 132.280749 140.012485 
C 133.218383 140.012485 134.117741 139.639958 134.780749 138.976951 
C 135.443756 138.313943 135.816283 137.414585 135.816283 136.476951 
C 135.816283 135.539316 135.443756 134.639958 134.780749 133.976951 
C 134.117741 133.313943 133.218383 132.941417 132.280749 132.941417 
C 131.343114 132.941417 130.443756 133.313943 129.780749 133.976951 
C 129.117741 134.639958 128.745215 135.539316 128.745215 136.476951 
C 128.745215 137.414585 129.117741 138.313943 129.780749 138.976951 
C 130.443756 139.639958 131.343114 140.012485 132.280749 140.012485 
z
" style="fill:none;stroke:#ff9896;"/>
   </g>
   <g id="PathCollection_16">
    <path clip-path="url(#pd0523a856a)" d="M 137.254011 133.365052 
C 138.191645 133.365052 139.091003 132.992526 139.754011 132.329518 
C 140.417018 131.66651 140.789545 130.767153 140.789545 129.829518 
C 140.789545 128.891884 140.417018 127.992526 139.754011 127.329518 
C 139.091003 126.66651 138.191645 126.293984 137.254011 126.293984 
C 136.316376 126.293984 135.417018 126.66651 134.754011 127.329518 
C 134.091003 127.992526 133.718477 128.891884 133.718477 129.829518 
C 133.718477 130.767153 134.091003 131.66651 134.754011 132.329518 
C 135.417018 132.992526 136.316376 133.365052 137.254011 133.365052 
z
" style="fill:none;stroke:#ff9896;"/>
   </g>
   <g id="PathCollection_17">
    <path clip-path="url(#pd0523a856a)" d="M 142.227273 126.331142 
C 143.164907 126.331142 144.064265 125.958616 144.727273 125.295608 
C 145.39028 124.6326 145.762807 123.733243 145.762807 122.795608 
C 145.762807 121.857974 145.39028 120.958616 144.727273 120.295608 
C 144.064265 119.6326 143.164907 119.260074 142.227273 119.260074 
C 141.289638 119.260074 140.39028 119.6326 139.727273 120.295608 
C 139.064265 120.958616 138.691739 121.857974 138.691739 122.795608 
C 138.691739 123.733243 139.064265 124.6326 139.727273 125.295608 
C 140.39028 125.958616 141.289638 126.331142 142.227273 126.331142 
z
" style="fill:none;stroke:#ff9896;"/>
   </g>
   <g id="PathCollection_18">
    <path clip-path="url(#pd0523a856a)" d="M 147.200535 118.965321 
C 148.138169 118.965321 149.037527 118.592795 149.700535 117.929787 
C 150.363543 117.26678 150.736069 116.367422 150.736069 115.429787 
C 150.736069 114.492153 150.363543 113.592795 149.700535 112.929787 
C 149.037527 112.26678 148.138169 111.894253 147.200535 111.894253 
C 146.2629 111.894253 145.363543 112.26678 144.700535 112.929787 
C 144.037527 113.592795 143.665001 114.492153 143.665001 115.429787 
C 143.665001 116.367422 144.037527 117.26678 144.700535 117.929787 
C 145.363543 118.592795 146.2629 118.965321 147.200535 118.965321 
z
" style="fill:none;stroke:#ff9896;"/>
   </g>
   <g id="PathCollection_19">
    <path clip-path="url(#pd0523a856a)" d="M 152.173797 111.338682 
C 153.111431 111.338682 154.010789 110.966156 154.673797 110.303148 
C 155.336805 109.640141 155.709331 108.740783 155.709331 107.803148 
C 155.709331 106.865514 155.336805 105.966156 154.673797 105.303148 
C 154.010789 104.640141 153.111431 104.267615 152.173797 104.267615 
C 151.236162 104.267615 150.336805 104.640141 149.673797 105.303148 
C 149.010789 105.966156 148.638263 106.865514 148.638263 107.803148 
C 148.638263 108.740783 149.010789 109.640141 149.673797 110.303148 
C 150.336805 110.966156 151.236162 111.338682 152.173797 111.338682 
z
" style="fill:none;stroke:#ff9896;"/>
   </g>
   <g id="PathCollection_20">
    <path clip-path="url(#pd0523a856a)" d="M 157.147059 103.537709 
C 158.084693 103.537709 158.984051 103.165183 159.647059 102.502175 
C 160.310067 101.839167 160.682593 100.93981 160.682593 100.002175 
C 160.682593 99.06454 160.310067 98.165183 159.647059 97.502175 
C 158.984051 96.839167 158.084693 96.466641 157.147059 96.466641 
C 156.209424 96.466641 155.310067 96.839167 154.647059 97.502175 
C 153.984051 98.165183 153.611525 99.06454 153.611525 100.002175 
C 153.611525 100.93981 153.984051 101.839167 154.647059 102.502175 
C 155.310067 103.165183 156.209424 103.537709 157.147059 103.537709 
z
" style="fill:none;stroke:#ff9896;"/>
   </g>
   <g id="PathCollection_21">
    <path clip-path="url(#pd0523a856a)" d="M 162.120321 95.662432 
C 163.057955 95.662432 163.957313 95.289906 164.620321 94.626898 
C 165.283329 93.96389 165.655855 93.064532 165.655855 92.126898 
C 165.655855 91.189263 165.283329 90.289906 164.620321 89.626898 
C 163.957313 88.96389 163.057955 88.591364 162.120321 88.591364 
C 161.182686 88.591364 160.283329 88.96389 159.620321 89.626898 
C 158.957313 90.289906 158.584787 91.189263 158.584787 92.126898 
C 158.584787 93.064532 158.957313 93.96389 159.620321 94.626898 
C 160.283329 95.289906 161.182686 95.662432 162.120321 95.662432 
z
" style="fill:none;stroke:#ff9896;"/>
   </g>
   <g id="PathCollection_22">
    <path clip-path="url(#pd0523a856a)" d="M 167.093583 87.823986 
C 168.031217 87.823986 168.930575 87.451459 169.593583 86.788452 
C 170.256591 86.125444 170.629117 85.226086 170.629117 84.288452 
C 170.629117 83.350817 170.256591 82.451459 169.593583 81.788452 
C 168.930575 81.125444 168.031217 80.752918 167.093583 80.752918 
C 166.155948 80.752918 165.256591 81.125444 164.593583 81.788452 
C 163.930575 82.451459 163.558049 83.350817 163.558049 84.288452 
C 163.558049 85.226086 163.930575 86.125444 164.593583 86.788452 
C 165.256591 87.451459 166.155948 87.823986 167.093583 87.823986 
z
" style="fill:none;stroke:#ff9896;"/>
   </g>
   <g id="PathCollection_23">
    <path clip-path="url(#pd0523a856a)" d="M 172.066845 80.141671 
C 173.004479 80.141671 173.903837 79.769145 174.566845 79.106138 
C 175.229853 78.44313 175.602379 77.543772 175.602379 76.606138 
C 175.602379 75.668503 175.229853 74.769145 174.566845 74.106138 
C 173.903837 73.44313 173.004479 73.070604 172.066845 73.070604 
C 171.12921 73.070604 170.229853 73.44313 169.566845 74.106138 
C 168.903837 74.769145 168.531311 75.668503 168.531311 76.606138 
C 168.531311 77.543772 168.903837 78.44313 169.566845 79.106138 
C 170.229853 79.769145 171.12921 80.141671 172.066845 80.141671 
z
" style="fill:none;stroke:#ff9896;"/>
   </g>
   <g id="PathCollection_24">
    <path clip-path="url(#pd0523a856a)" d="M 177.040107 72.739634 
C 177.977742 72.739634 178.877099 72.367108 179.540107 71.7041 
C 180.203115 71.041092 180.575641 70.141734 180.575641 69.2041 
C 180.575641 68.266465 180.203115 67.367108 179.540107 66.7041 
C 178.877099 66.041092 177.977742 65.668566 177.040107 65.668566 
C 176.102472 65.668566 175.203115 66.041092 174.540107 66.7041 
C 173.877099 67.367108 173.504573 68.266465 173.504573 69.2041 
C 173.504573 70.141734 173.877099 71.041092 174.540107 71.7041 
C 175.203115 72.367108 176.102472 72.739634 177.040107 72.739634 
z
" style="fill:none;stroke:#ff9896;"/>
   </g>
   <g id="PathCollection_25">
    <path clip-path="url(#pd0523a856a)" d="M 182.013369 65.743259 
C 182.951004 65.743259 183.850361 65.370732 184.513369 64.707725 
C 185.176377 64.044717 185.548903 63.145359 185.548903 62.207725 
C 185.548903 61.27009 185.176377 60.370732 184.513369 59.707725 
C 183.850361 59.044717 182.951004 58.672191 182.013369 58.672191 
C 181.075734 58.672191 180.176377 59.044717 179.513369 59.707725 
C 178.850361 60.370732 178.477835 61.27009 178.477835 62.207725 
C 178.477835 63.145359 178.850361 64.044717 179.513369 64.707725 
C 180.176377 65.370732 181.075734 65.743259 182.013369 65.743259 
z
" style="fill:none;stroke:#ff9896;"/>
   </g>
   <g id="PathCollection_26">
    <path clip-path="url(#pd0523a856a)" d="M 186.986631 59.275398 
C 187.924266 59.275398 188.823623 58.902872 189.486631 58.239864 
C 190.149639 57.576857 190.522165 56.677499 190.522165 55.739864 
C 190.522165 54.80223 190.149639 53.902872 189.486631 53.239864 
C 188.823623 52.576857 187.924266 52.20433 186.986631 52.20433 
C 186.048996 52.20433 185.149639 52.576857 184.486631 53.239864 
C 183.823623 53.902872 183.451097 54.80223 183.451097 55.739864 
C 183.451097 56.677499 183.823623 57.576857 184.486631 58.239864 
C 185.149639 58.902872 186.048996 59.275398 186.986631 59.275398 
z
" style="fill:none;stroke:#ff9896;"/>
   </g>
   <g id="PathCollection_27">
    <path clip-path="url(#pd0523a856a)" d="M 191.959893 53.452534 
C 192.897528 53.452534 193.796885 53.080008 194.459893 52.417001 
C 195.122901 51.753993 195.495427 50.854635 195.495427 49.917001 
C 195.495427 48.979366 195.122901 48.080008 194.459893 47.417001 
C 193.796885 46.753993 192.897528 46.381467 191.959893 46.381467 
C 191.022258 46.381467 190.122901 46.753993 189.459893 47.417001 
C 188.796885 48.080008 188.424359 48.979366 188.424359 49.917001 
C 188.424359 50.854635 188.796885 51.753993 189.459893 52.417001 
C 190.122901 53.080008 191.022258 53.452534 191.959893 53.452534 
z
" style="fill:none;stroke:#ff9896;"/>
   </g>
   <g id="PathCollection_28">
    <path clip-path="url(#pd0523a856a)" d="M 196.933155 48.380981 
C 197.87079 48.380981 198.770147 48.008455 199.433155 47.345447 
C 200.096163 46.68244 200.468689 45.783082 200.468689 44.845447 
C 200.468689 43.907813 200.096163 43.008455 199.433155 42.345447 
C 198.770147 41.68244 197.87079 41.309914 196.933155 41.309914 
C 195.995521 41.309914 195.096163 41.68244 194.433155 42.345447 
C 193.770147 43.008455 193.397621 43.907813 193.397621 44.845447 
C 193.397621 45.783082 193.770147 46.68244 194.433155 47.345447 
C 195.096163 48.008455 195.995521 48.380981 196.933155 48.380981 
z
" style="fill:none;stroke:#ff9896;"/>
   </g>
   <g id="PathCollection_29">
    <path clip-path="url(#pd0523a856a)" d="M 201.906417 44.153241 
C 202.844052 44.153241 203.743409 43.780715 204.406417 43.117707 
C 205.069425 42.454699 205.441951 41.555342 205.441951 40.617707 
C 205.441951 39.680072 205.069425 38.780715 204.406417 38.117707 
C 203.743409 37.454699 202.844052 37.082173 201.906417 37.082173 
C 200.968783 37.082173 200.069425 37.454699 199.406417 38.117707 
C 198.743409 38.780715 198.370883 39.680072 198.370883 40.617707 
C 198.370883 41.555342 198.743409 42.454699 199.406417 43.117707 
C 200.069425 43.780715 200.968783 44.153241 201.906417 44.153241 
z
" style="fill:none;stroke:#ff9896;"/>
   </g>
   <g id="PathCollection_30">
    <path clip-path="url(#pd0523a856a)" d="M 206.879679 40.844613 
C 207.817314 40.844613 208.716671 40.472086 209.379679 39.809079 
C 210.042687 39.146071 210.415213 38.246713 210.415213 37.309079 
C 210.415213 36.371444 210.042687 35.472086 209.379679 34.809079 
C 208.716671 34.146071 207.817314 33.773545 206.879679 33.773545 
C 205.942045 33.773545 205.042687 34.146071 204.379679 34.809079 
C 203.716671 35.472086 203.344145 36.371444 203.344145 37.309079 
C 203.344145 38.246713 203.716671 39.146071 204.379679 39.809079 
C 205.042687 40.472086 205.942045 40.844613 206.879679 40.844613 
z
" style="fill:none;stroke:#ff9896;"/>
   </g>
   <g id="PathCollection_31">
    <path clip-path="url(#pd0523a856a)" d="M 211.852941 38.51017 
C 212.790576 38.51017 213.689933 38.137643 214.352941 37.474636 
C 215.015949 36.811628 215.388475 35.91227 215.388475 34.974636 
C 215.388475 34.037001 215.015949 33.137643 214.352941 32.474636 
C 213.689933 31.811628 212.790576 31.439102 211.852941 31.439102 
C 210.915307 31.439102 210.015949 31.811628 209.352941 32.474636 
C 208.689933 33.137643 208.317407 34.037001 208.317407 34.974636 
C 208.317407 35.91227 208.689933 36.811628 209.352941 37.474636 
C 210.015949 38.137643 210.915307 38.51017 211.852941 38.51017 
z
" style="fill:none;stroke:#ff9896;"/>
   </g>
   <g id="PathCollection_32">
    <path clip-path="url(#pd0523a856a)" d="M 216.826203 37.182206 
C 217.763838 37.182206 218.663195 36.80968 219.326203 36.146672 
C 219.989211 35.483664 220.361737 34.584306 220.361737 33.646672 
C 220.361737 32.709037 219.989211 31.80968 219.326203 31.146672 
C 218.663195 30.483664 217.763838 30.111138 216.826203 30.111138 
C 215.888569 30.111138 214.989211 30.483664 214.326203 31.146672 
C 213.663195 31.80968 213.290669 32.709037 213.290669 33.646672 
C 213.290669 34.584306 213.663195 35.483664 214.326203 36.146672 
C 214.989211 36.80968 215.888569 37.182206 216.826203 37.182206 
z
" style="fill:none;stroke:#ff9896;"/>
   </g>
   <g id="PathCollection_33">
    <path clip-path="url(#pd0523a856a)" d="M 221.799465 36.868261 
C 222.7371 36.868261 223.636457 36.495735 224.299465 35.832727 
C 224.962473 35.16972 225.334999 34.270362 225.334999 33.332727 
C 225.334999 32.395093 224.962473 31.495735 224.299465 30.832727 
C 223.636457 30.16972 222.7371 29.797193 221.799465 29.797193 
C 220.861831 29.797193 219.962473 30.16972 219.299465 30.832727 
C 218.636457 31.495735 218.263931 32.395093 218.263931 33.332727 
C 218.263931 34.270362 218.636457 35.16972 219.299465 35.832727 
C 219.962473 36.495735 220.861831 36.868261 221.799465 36.868261 
z
" style="fill:none;stroke:#ff9896;"/>
   </g>
   <g id="PathCollection_34">
    <path clip-path="url(#pd0523a856a)" d="M 226.772727 37.549832 
C 227.710362 37.549832 228.60972 37.177306 229.272727 36.514298 
C 229.935735 35.851291 230.308261 34.951933 230.308261 34.014298 
C 230.308261 33.076664 229.935735 32.177306 229.272727 31.514298 
C 228.60972 30.851291 227.710362 30.478764 226.772727 30.478764 
C 225.835093 30.478764 224.935735 30.851291 224.272727 31.514298 
C 223.60972 32.177306 223.237193 33.076664 223.237193 34.014298 
C 223.237193 34.951933 223.60972 35.851291 224.272727 36.514298 
C 224.935735 37.177306 225.835093 37.549832 226.772727 37.549832 
z
" style="fill:none;stroke:#ff9896;"/>
   </g>
   <g id="PathCollection_35">
    <path clip-path="url(#pd0523a856a)" d="M 231.745989 39.181877 
C 232.683624 39.181877 233.582982 38.809351 234.245989 38.146343 
C 234.908997 37.483336 235.281523 36.583978 235.281523 35.646343 
C 235.281523 34.708709 234.908997 33.809351 234.245989 33.146343 
C 233.582982 32.483336 232.683624 32.110809 231.745989 32.110809 
C 230.808355 32.110809 229.908997 32.483336 229.245989 33.146343 
C 228.582982 33.809351 228.210455 34.708709 228.210455 35.646343 
C 228.210455 36.583978 228.582982 37.483336 229.245989 38.146343 
C 229.908997 38.809351 230.808355 39.181877 231.745989 39.181877 
z
" style="fill:none;stroke:#ff9896;"/>
   </g>
   <g id="PathCollection_36">
    <path clip-path="url(#pd0523a856a)" d="M 236.719251 41.693221 
C 237.656886 41.693221 238.556244 41.320695 239.219251 40.657688 
C 239.882259 39.99468 240.254785 39.095322 240.254785 38.157688 
C 240.254785 37.220053 239.882259 36.320695 239.219251 35.657688 
C 238.556244 34.99468 237.656886 34.622154 236.719251 34.622154 
C 235.781617 34.622154 234.882259 34.99468 234.219251 35.657688 
C 233.556244 36.320695 233.183717 37.220053 233.183717 38.157688 
C 233.183717 39.095322 233.556244 39.99468 234.219251 40.657688 
C 234.882259 41.320695 235.781617 41.693221 236.719251 41.693221 
z
" style="fill:none;stroke:#ff9896;"/>
   </g>
   <g id="PathCollection_37">
    <path clip-path="url(#pd0523a856a)" d="M 241.692513 44.987968 
C 242.630148 44.987968 243.529506 44.615441 244.192513 43.952434 
C 244.855521 43.289426 245.228047 42.390068 245.228047 41.452434 
C 245.228047 40.514799 244.855521 39.615441 244.192513 38.952434 
C 243.529506 38.289426 242.630148 37.9169 241.692513 37.9169 
C 240.754879 37.9169 239.855521 38.289426 239.192513 38.952434 
C 238.529506 39.615441 238.156979 40.514799 238.156979 41.452434 
C 238.156979 42.390068 238.529506 43.289426 239.192513 43.952434 
C 239.855521 44.615441 240.754879 44.987968 241.692513 44.987968 
z
" style="fill:none;stroke:#ff9896;"/>
   </g>
   <g id="PathCollection_38">
    <path clip-path="url(#pd0523a856a)" d="M 246.665775 48.948023 
C 247.60341 48.948023 248.502768 48.575497 249.165775 47.912489 
C 249.828783 47.249481 250.201309 46.350124 250.201309 45.412489 
C 250.201309 44.474855 249.828783 43.575497 249.165775 42.912489 
C 248.502768 42.249481 247.60341 41.876955 246.665775 41.876955 
C 245.728141 41.876955 244.828783 42.249481 244.165775 42.912489 
C 243.502768 43.575497 243.130241 44.474855 243.130241 45.412489 
C 243.130241 46.350124 243.502768 47.249481 244.165775 47.912489 
C 244.828783 48.575497 245.728141 48.948023 246.665775 48.948023 
z
" style="fill:none;stroke:#ff9896;"/>
   </g>
   <g id="PathCollection_39">
    <path clip-path="url(#pd0523a856a)" d="M 251.639037 53.43685 
C 252.576672 53.43685 253.47603 53.064323 254.139037 52.401316 
C 254.802045 51.738308 255.174571 50.83895 255.174571 49.901316 
C 255.174571 48.963681 254.802045 48.064323 254.139037 47.401316 
C 253.47603 46.738308 252.576672 46.365782 251.639037 46.365782 
C 250.701403 46.365782 249.802045 46.738308 249.139037 47.401316 
C 248.47603 48.064323 248.103504 48.963681 248.103504 49.901316 
C 248.103504 50.83895 248.47603 51.738308 249.139037 52.401316 
C 249.802045 53.064323 250.701403 53.43685 251.639037 53.43685 
z
" style="fill:none;stroke:#ff9896;"/>
   </g>
   <g id="PathCollection_40">
    <path clip-path="url(#pd0523a856a)" d="M 256.612299 58.304539 
C 257.549934 58.304539 258.449292 57.932013 259.112299 57.269005 
C 259.775307 56.605997 260.147833 55.706639 260.147833 54.769005 
C 260.147833 53.83137 259.775307 52.932013 259.112299 52.269005 
C 258.449292 51.605997 257.549934 51.233471 256.612299 51.233471 
C 255.674665 51.233471 254.775307 51.605997 254.112299 52.269005 
C 253.449292 52.932013 253.076766 53.83137 253.076766 54.769005 
C 253.076766 55.706639 253.449292 56.605997 254.112299 57.269005 
C 254.775307 57.932013 255.674665 58.304539 256.612299 58.304539 
z
" style="fill:none;stroke:#ff9896;"/>
   </g>
   <g id="PathCollection_41">
    <path clip-path="url(#pd0523a856a)" d="M 261.585561 63.394328 
C 262.523196 63.394328 263.422554 63.021801 264.085561 62.358794 
C 264.748569 61.695786 265.121095 60.796428 265.121095 59.858794 
C 265.121095 58.921159 264.748569 58.021801 264.085561 57.358794 
C 263.422554 56.695786 262.523196 56.32326 261.585561 56.32326 
C 260.647927 56.32326 259.748569 56.695786 259.085561 57.358794 
C 258.422554 58.021801 258.050028 58.921159 258.050028 59.858794 
C 258.050028 60.796428 258.422554 61.695786 259.085561 62.358794 
C 259.748569 63.021801 260.647927 63.394328 261.585561 63.394328 
z
" style="fill:none;stroke:#ff9896;"/>
   </g>
   <g id="PathCollection_42">
    <path clip-path="url(#pd0523a856a)" d="M 266.558824 68.550654 
C 267.496458 68.550654 268.395816 68.178128 269.058824 67.51512 
C 269.721831 66.852112 270.094357 65.952755 270.094357 65.01512 
C 270.094357 64.077485 269.721831 63.178128 269.058824 62.51512 
C 268.395816 61.852112 267.496458 61.479586 266.558824 61.479586 
C 265.621189 61.479586 264.721831 61.852112 264.058824 62.51512 
C 263.395816 63.178128 263.02329 64.077485 263.02329 65.01512 
C 263.02329 65.952755 263.395816 66.852112 264.058824 67.51512 
C 264.721831 68.178128 265.621189 68.550654 266.558824 68.550654 
z
" style="fill:none;stroke:#ff9896;"/>
   </g>
   <g id="PathCollection_43">
    <path clip-path="url(#pd0523a856a)" d="M 271.532086 73.628866 
C 272.46972 73.628866 273.369078 73.25634 274.032086 72.593332 
C 274.695093 71.930325 275.067619 71.030967 275.067619 70.093332 
C 275.067619 69.155698 274.695093 68.25634 274.032086 67.593332 
C 273.369078 66.930325 272.46972 66.557798 271.532086 66.557798 
C 270.594451 66.557798 269.695093 66.930325 269.032086 67.593332 
C 268.369078 68.25634 267.996552 69.155698 267.996552 70.093332 
C 267.996552 71.030967 268.369078 71.930325 269.032086 72.593332 
C 269.695093 73.25634 270.594451 73.628866 271.532086 73.628866 
z
" style="fill:none;stroke:#ff9896;"/>
   </g>
   <g id="PathCollection_44">
    <path clip-path="url(#pd0523a856a)" d="M 276.505348 78.506687 
C 277.442982 78.506687 278.34234 78.134161 279.005348 77.471153 
C 279.668355 76.808145 280.040881 75.908788 280.040881 74.971153 
C 280.040881 74.033519 279.668355 73.134161 279.005348 72.471153 
C 278.34234 71.808145 277.442982 71.435619 276.505348 71.435619 
C 275.567713 71.435619 274.668355 71.808145 274.005348 72.471153 
C 273.34234 73.134161 272.969814 74.033519 272.969814 74.971153 
C 272.969814 75.908788 273.34234 76.808145 274.005348 77.471153 
C 274.668355 78.134161 275.567713 78.506687 276.505348 78.506687 
z
" style="fill:none;stroke:#ff9896;"/>
   </g>
   <g id="PathCollection_45">
    <path clip-path="url(#pd0523a856a)" d="M 281.47861 83.097545 
C 282.416244 83.097545 283.315602 82.725019 283.97861 82.062011 
C 284.641617 81.399004 285.014144 80.499646 285.014144 79.562011 
C 285.014144 78.624377 284.641617 77.725019 283.97861 77.062011 
C 283.315602 76.399004 282.416244 76.026478 281.47861 76.026478 
C 280.540975 76.026478 279.641617 76.399004 278.97861 77.062011 
C 278.315602 77.725019 277.943076 78.624377 277.943076 79.562011 
C 277.943076 80.499646 278.315602 81.399004 278.97861 82.062011 
C 279.641617 82.725019 280.540975 83.097545 281.47861 83.097545 
z
" style="fill:none;stroke:#ff9896;"/>
   </g>
   <g id="PathCollection_46">
    <path clip-path="url(#pd0523a856a)" d="M 286.451872 87.365877 
C 287.389506 87.365877 288.288864 86.993351 288.951872 86.330343 
C 289.614879 85.667335 289.987406 84.767978 289.987406 83.830343 
C 289.987406 82.892709 289.614879 81.993351 288.951872 81.330343 
C 288.288864 80.667335 287.389506 80.294809 286.451872 80.294809 
C 285.514237 80.294809 284.614879 80.667335 283.951872 81.330343 
C 283.288864 81.993351 282.916338 82.892709 282.916338 83.830343 
C 282.916338 84.767978 283.288864 85.667335 283.951872 86.330343 
C 284.614879 86.993351 285.514237 87.365877 286.451872 87.365877 
z
" style="fill:none;stroke:#ff9896;"/>
   </g>
   <g id="PathCollection_47">
    <path clip-path="url(#pd0523a856a)" d="M 291.425134 91.34451 
C 292.362768 91.34451 293.262126 90.971984 293.925134 90.308977 
C 294.588141 89.645969 294.960668 88.746611 294.960668 87.808977 
C 294.960668 86.871342 294.588141 85.971984 293.925134 85.308977 
C 293.262126 84.645969 292.362768 84.273443 291.425134 84.273443 
C 290.487499 84.273443 289.588141 84.645969 288.925134 85.308977 
C 288.262126 85.971984 287.8896 86.871342 287.8896 87.808977 
C 287.8896 88.746611 288.262126 89.645969 288.925134 90.308977 
C 289.588141 90.971984 290.487499 91.34451 291.425134 91.34451 
z
" style="fill:none;stroke:#ff9896;"/>
   </g>
   <g id="PathCollection_48">
    <path clip-path="url(#pd0523a856a)" d="M 296.398396 95.154232 
C 297.33603 95.154232 298.235388 94.781705 298.898396 94.118698 
C 299.561403 93.45569 299.93393 92.556332 299.93393 91.618698 
C 299.93393 90.681063 299.561403 89.781705 298.898396 89.118698 
C 298.235388 88.45569 297.33603 88.083164 296.398396 88.083164 
C 295.460761 88.083164 294.561403 88.45569 293.898396 89.118698 
C 293.235388 89.781705 292.862862 90.681063 292.862862 91.618698 
C 292.862862 92.556332 293.235388 93.45569 293.898396 94.118698 
C 294.561403 94.781705 295.460761 95.154232 296.398396 95.154232 
z
" style="fill:none;stroke:#ff9896;"/>
   </g>
   <g id="PathCollection_49">
    <path clip-path="url(#pd0523a856a)" d="M 301.371658 99.025649 
C 302.309292 99.025649 303.20865 98.653123 303.871658 97.990115 
C 304.534666 97.327108 304.907192 96.42775 304.907192 95.490115 
C 304.907192 94.552481 304.534666 93.653123 303.871658 92.990115 
C 303.20865 92.327108 302.309292 91.954581 301.371658 91.954581 
C 300.434023 91.954581 299.534666 92.327108 298.871658 92.990115 
C 298.20865 93.653123 297.836124 94.552481 297.836124 95.490115 
C 297.836124 96.42775 298.20865 97.327108 298.871658 97.990115 
C 299.534666 98.653123 300.434023 99.025649 301.371658 99.025649 
z
" style="fill:none;stroke:#ff9896;"/>
   </g>
   <g id="PathCollection_50">
    <path clip-path="url(#pd0523a856a)" d="M 306.34492 103.323457 
C 307.282554 103.323457 308.181912 102.950931 308.84492 102.287923 
C 309.507928 101.624915 309.880454 100.725557 309.880454 99.787923 
C 309.880454 98.850288 309.507928 97.950931 308.84492 97.287923 
C 308.181912 96.624915 307.282554 96.252389 306.34492 96.252389 
C 305.407285 96.252389 304.507928 96.624915 303.84492 97.287923 
C 303.181912 97.950931 302.809386 98.850288 302.809386 99.787923 
C 302.809386 100.725557 303.181912 101.624915 303.84492 102.287923 
C 304.507928 102.950931 305.407285 103.323457 306.34492 103.323457 
z
" style="fill:none;stroke:#ff9896;"/>
   </g>
   <g id="PathCollection_51">
    <path clip-path="url(#pd0523a856a)" d="M 311.318182 108.573205 
C 312.255816 108.573205 313.155174 108.200679 313.818182 107.537671 
C 314.48119 106.874663 314.853716 105.975306 314.853716 105.037671 
C 314.853716 104.100036 314.48119 103.200679 313.818182 102.537671 
C 313.155174 101.874663 312.255816 101.502137 311.318182 101.502137 
C 310.380547 101.502137 309.48119 101.874663 308.818182 102.537671 
C 308.155174 103.200679 307.782648 104.100036 307.782648 105.037671 
C 307.782648 105.975306 308.155174 106.874663 308.818182 107.537671 
C 309.48119 108.200679 310.380547 108.573205 311.318182 108.573205 
z
" style="fill:none;stroke:#ff9896;"/>
   </g>
   <g id="PathCollection_52">
    <defs>
     <path d="M 0 3.535534 
C 0.937635 3.535534 1.836992 3.163008 2.5 2.5 
C 3.163008 1.836992 3.535534 0.937635 3.535534 0 
C 3.535534 -0.937635 3.163008 -1.836992 2.5 -2.5 
C 1.836992 -3.163008 0.937635 -3.535534 0 -3.535534 
C -0.937635 -3.535534 -1.836992 -3.163008 -2.5 -2.5 
C -3.163008 -1.836992 -3.535534 -0.937635 -3.535534 0 
C -3.535534 0.937635 -3.163008 1.836992 -2.5 2.5 
C -1.836992 3.163008 -0.937635 3.535534 0 3.535534 
z
" id="mc73150feeb" style="stroke:#ff9896;"/>
    </defs>
    <g clip-path="url(#pd0523a856a)">
     <use style="fill:#ff9896;stroke:#ff9896;" x="62.65508" xlink:href="#mc73150feeb" y="179.908982"/>
    </g>
   </g>
   <g id="PathCollection_53">
    <g clip-path="url(#pd0523a856a)">
     <use style="fill:#ff9896;stroke:#ff9896;" x="67.628342" xlink:href="#mc73150feeb" y="181.089044"/>
    </g>
   </g>
   <g id="PathCollection_54">
    <g clip-path="url(#pd0523a856a)">
     <use style="fill:#ff9896;stroke:#ff9896;" x="72.601604" xlink:href="#mc73150feeb" y="181.19753"/>
    </g>
   </g>
   <g id="PathCollection_55">
    <g clip-path="url(#pd0523a856a)">
     <use style="fill:#ff9896;stroke:#ff9896;" x="77.574866" xlink:href="#mc73150feeb" y="180.463528"/>
    </g>
   </g>
   <g id="PathCollection_56">
    <g clip-path="url(#pd0523a856a)">
     <use style="fill:#ff9896;stroke:#ff9896;" x="82.548128" xlink:href="#mc73150feeb" y="179.043631"/>
    </g>
   </g>
   <g id="PathCollection_57">
    <g clip-path="url(#pd0523a856a)">
     <use style="fill:#ff9896;stroke:#ff9896;" x="87.52139" xlink:href="#mc73150feeb" y="177.047115"/>
    </g>
   </g>
   <g id="PathCollection_58">
    <g clip-path="url(#pd0523a856a)">
     <use style="fill:#ff9896;stroke:#ff9896;" x="92.494652" xlink:href="#mc73150feeb" y="174.537918"/>
    </g>
   </g>
   <g id="PathCollection_59">
    <g clip-path="url(#pd0523a856a)">
     <use style="fill:#ff9896;stroke:#ff9896;" x="97.467914" xlink:href="#mc73150feeb" y="171.551209"/>
    </g>
   </g>
   <g id="PathCollection_60">
    <g clip-path="url(#pd0523a856a)">
     <use style="fill:#ff9896;stroke:#ff9896;" x="102.441176" xlink:href="#mc73150feeb" y="168.101997"/>
    </g>
   </g>
   <g id="PathCollection_61">
    <g clip-path="url(#pd0523a856a)">
     <use style="fill:#ff9896;stroke:#ff9896;" x="107.414439" xlink:href="#mc73150feeb" y="164.193425"/>
    </g>
   </g>
   <g id="PathCollection_62">
    <g clip-path="url(#pd0523a856a)">
     <use style="fill:#ff9896;stroke:#ff9896;" x="112.387701" xlink:href="#mc73150feeb" y="159.823724"/>
    </g>
   </g>
   <g id="PathCollection_63">
    <g clip-path="url(#pd0523a856a)">
     <use style="fill:#ff9896;stroke:#ff9896;" x="117.360963" xlink:href="#mc73150feeb" y="154.991929"/>
    </g>
   </g>
   <g id="PathCollection_64">
    <g clip-path="url(#pd0523a856a)">
     <use style="fill:#ff9896;stroke:#ff9896;" x="122.334225" xlink:href="#mc73150feeb" y="149.702434"/>
    </g>
   </g>
   <g id="PathCollection_65">
    <g clip-path="url(#pd0523a856a)">
     <use style="fill:#ff9896;stroke:#ff9896;" x="127.307487" xlink:href="#mc73150feeb" y="143.968463"/>
    </g>
   </g>
   <g id="PathCollection_66">
    <g clip-path="url(#pd0523a856a)">
     <use style="fill:#ff9896;stroke:#ff9896;" x="132.280749" xlink:href="#mc73150feeb" y="137.814543"/>
    </g>
   </g>
   <g id="PathCollection_67">
    <g clip-path="url(#pd0523a856a)">
     <use style="fill:#ff9896;stroke:#ff9896;" x="137.254011" xlink:href="#mc73150feeb" y="131.278063"/>
    </g>
   </g>
   <g id="PathCollection_68">
    <g clip-path="url(#pd0523a856a)">
     <use style="fill:#ff9896;stroke:#ff9896;" x="142.227273" xlink:href="#mc73150feeb" y="124.409989"/>
    </g>
   </g>
   <g id="PathCollection_69">
    <g clip-path="url(#pd0523a856a)">
     <use style="fill:#ff9896;stroke:#ff9896;" x="147.200535" xlink:href="#mc73150feeb" y="117.274835"/>
    </g>
   </g>
   <g id="PathCollection_70">
    <g clip-path="url(#pd0523a856a)">
     <use style="fill:#ff9896;stroke:#ff9896;" x="152.173797" xlink:href="#mc73150feeb" y="109.949953"/>
    </g>
   </g>
   <g id="PathCollection_71">
    <g clip-path="url(#pd0523a856a)">
     <use style="fill:#ff9896;stroke:#ff9896;" x="157.147059" xlink:href="#mc73150feeb" y="102.524236"/>
    </g>
   </g>
   <g id="PathCollection_72">
    <g clip-path="url(#pd0523a856a)">
     <use style="fill:#ff9896;stroke:#ff9896;" x="162.120321" xlink:href="#mc73150feeb" y="95.096313"/>
    </g>
   </g>
   <g id="PathCollection_73">
    <g clip-path="url(#pd0523a856a)">
     <use style="fill:#ff9896;stroke:#ff9896;" x="167.093583" xlink:href="#mc73150feeb" y="87.772311"/>
    </g>
   </g>
   <g id="PathCollection_74">
    <g clip-path="url(#pd0523a856a)">
     <use style="fill:#ff9896;stroke:#ff9896;" x="172.066845" xlink:href="#mc73150feeb" y="80.663276"/>
    </g>
   </g>
   <g id="PathCollection_75">
    <g clip-path="url(#pd0523a856a)">
     <use style="fill:#ff9896;stroke:#ff9896;" x="177.040107" xlink:href="#mc73150feeb" y="73.882328"/>
    </g>
   </g>
   <g id="PathCollection_76">
    <g clip-path="url(#pd0523a856a)">
     <use style="fill:#ff9896;stroke:#ff9896;" x="182.013369" xlink:href="#mc73150feeb" y="67.541632"/>
    </g>
   </g>
   <g id="PathCollection_77">
    <g clip-path="url(#pd0523a856a)">
     <use style="fill:#ff9896;stroke:#ff9896;" x="186.986631" xlink:href="#mc73150feeb" y="61.749271"/>
    </g>
   </g>
   <g id="PathCollection_78">
    <g clip-path="url(#pd0523a856a)">
     <use style="fill:#ff9896;stroke:#ff9896;" x="191.959893" xlink:href="#mc73150feeb" y="56.606094"/>
    </g>
   </g>
   <g id="PathCollection_79">
    <g clip-path="url(#pd0523a856a)">
     <use style="fill:#ff9896;stroke:#ff9896;" x="196.933155" xlink:href="#mc73150feeb" y="52.202631"/>
    </g>
   </g>
   <g id="PathCollection_80">
    <g clip-path="url(#pd0523a856a)">
     <use style="fill:#ff9896;stroke:#ff9896;" x="201.906417" xlink:href="#mc73150feeb" y="48.616152"/>
    </g>
   </g>
   <g id="PathCollection_81">
    <g clip-path="url(#pd0523a856a)">
     <use style="fill:#ff9896;stroke:#ff9896;" x="206.879679" xlink:href="#mc73150feeb" y="45.907946"/>
    </g>
   </g>
   <g id="PathCollection_82">
    <g clip-path="url(#pd0523a856a)">
     <use style="fill:#ff9896;stroke:#ff9896;" x="211.852941" xlink:href="#mc73150feeb" y="44.120909"/>
    </g>
   </g>
   <g id="PathCollection_83">
    <g clip-path="url(#pd0523a856a)">
     <use style="fill:#ff9896;stroke:#ff9896;" x="216.826203" xlink:href="#mc73150feeb" y="43.27753"/>
    </g>
   </g>
   <g id="PathCollection_84">
    <g clip-path="url(#pd0523a856a)">
     <use style="fill:#ff9896;stroke:#ff9896;" x="221.799465" xlink:href="#mc73150feeb" y="43.378329"/>
    </g>
   </g>
   <g id="PathCollection_85">
    <g clip-path="url(#pd0523a856a)">
     <use style="fill:#ff9896;stroke:#ff9896;" x="226.772727" xlink:href="#mc73150feeb" y="44.400864"/>
    </g>
   </g>
   <g id="PathCollection_86">
    <g clip-path="url(#pd0523a856a)">
     <use style="fill:#ff9896;stroke:#ff9896;" x="231.745989" xlink:href="#mc73150feeb" y="46.299361"/>
    </g>
   </g>
   <g id="PathCollection_87">
    <g clip-path="url(#pd0523a856a)">
     <use style="fill:#ff9896;stroke:#ff9896;" x="236.719251" xlink:href="#mc73150feeb" y="49.005064"/>
    </g>
   </g>
   <g id="PathCollection_88">
    <g clip-path="url(#pd0523a856a)">
     <use style="fill:#ff9896;stroke:#ff9896;" x="241.692513" xlink:href="#mc73150feeb" y="52.42738"/>
    </g>
   </g>
   <g id="PathCollection_89">
    <g clip-path="url(#pd0523a856a)">
     <use style="fill:#ff9896;stroke:#ff9896;" x="246.665775" xlink:href="#mc73150feeb" y="56.455901"/>
    </g>
   </g>
   <g id="PathCollection_90">
    <g clip-path="url(#pd0523a856a)">
     <use style="fill:#ff9896;stroke:#ff9896;" x="251.639037" xlink:href="#mc73150feeb" y="60.96339"/>
    </g>
   </g>
   <g id="PathCollection_91">
    <g clip-path="url(#pd0523a856a)">
     <use style="fill:#ff9896;stroke:#ff9896;" x="256.612299" xlink:href="#mc73150feeb" y="65.809806"/>
    </g>
   </g>
   <g id="PathCollection_92">
    <g clip-path="url(#pd0523a856a)">
     <use style="fill:#ff9896;stroke:#ff9896;" x="261.585561" xlink:href="#mc73150feeb" y="70.847452"/>
    </g>
   </g>
   <g id="PathCollection_93">
    <g clip-path="url(#pd0523a856a)">
     <use style="fill:#ff9896;stroke:#ff9896;" x="266.558824" xlink:href="#mc73150feeb" y="75.927325"/>
    </g>
   </g>
   <g id="PathCollection_94">
    <g clip-path="url(#pd0523a856a)">
     <use style="fill:#ff9896;stroke:#ff9896;" x="271.532086" xlink:href="#mc73150feeb" y="80.906762"/>
    </g>
   </g>
   <g id="PathCollection_95">
    <g clip-path="url(#pd0523a856a)">
     <use style="fill:#ff9896;stroke:#ff9896;" x="276.505348" xlink:href="#mc73150feeb" y="85.658443"/>
    </g>
   </g>
   <g id="PathCollection_96">
    <g clip-path="url(#pd0523a856a)">
     <use style="fill:#ff9896;stroke:#ff9896;" x="281.47861" xlink:href="#mc73150feeb" y="90.080852"/>
    </g>
   </g>
   <g id="PathCollection_97">
    <g clip-path="url(#pd0523a856a)">
     <use style="fill:#ff9896;stroke:#ff9896;" x="286.451872" xlink:href="#mc73150feeb" y="94.110264"/>
    </g>
   </g>
   <g id="PathCollection_98">
    <g clip-path="url(#pd0523a856a)">
     <use style="fill:#ff9896;stroke:#ff9896;" x="291.425134" xlink:href="#mc73150feeb" y="97.734347"/>
    </g>
   </g>
   <g id="PathCollection_99">
    <g clip-path="url(#pd0523a856a)">
     <use style="fill:#ff9896;stroke:#ff9896;" x="296.398396" xlink:href="#mc73150feeb" y="101.007461"/>
    </g>
   </g>
   <g id="PathCollection_100">
    <g clip-path="url(#pd0523a856a)">
     <use style="fill:#ff9896;stroke:#ff9896;" x="301.371658" xlink:href="#mc73150feeb" y="104.067729"/>
    </g>
   </g>
   <g id="PathCollection_101">
    <g clip-path="url(#pd0523a856a)">
     <use style="fill:#ff9896;stroke:#ff9896;" x="306.34492" xlink:href="#mc73150feeb" y="107.155968"/>
    </g>
   </g>
   <g id="PathCollection_102">
    <g clip-path="url(#pd0523a856a)">
     <use style="fill:#ff9896;stroke:#ff9896;" x="311.318182" xlink:href="#mc73150feeb" y="110.63656"/>
    </g>
   </g>
   <g id="matplotlib.axis_1"/>
   <g id="matplotlib.axis_2">
    <g id="ytick_1">
     <g id="line2d_1">
      <defs>
       <path d="M 0 0 
L -3.5 0 
" id="mc92a7f8372" style="stroke:#000000;stroke-width:0.8;"/>
      </defs>
      <g>
       <use style="stroke:#000000;stroke-width:0.8;" x="45" xlink:href="#mc92a7f8372" y="179.702584"/>
      </g>
     </g>
     <g id="text_1">
      <!-- 0.0 -->
      <g transform="translate(22.096875 183.501803)scale(0.1 -0.1)">
       <defs>
        <path d="M 31.78125 66.40625 
Q 24.171875 66.40625 20.328125 58.90625 
Q 16.5 51.421875 16.5 36.375 
Q 16.5 21.390625 20.328125 13.890625 
Q 24.171875 6.390625 31.78125 6.390625 
Q 39.453125 6.390625 43.28125 13.890625 
Q 47.125 21.390625 47.125 36.375 
Q 47.125 51.421875 43.28125 58.90625 
Q 39.453125 66.40625 31.78125 66.40625 
z
M 31.78125 74.21875 
Q 44.046875 74.21875 50.515625 64.515625 
Q 56.984375 54.828125 56.984375 36.375 
Q 56.984375 17.96875 50.515625 8.265625 
Q 44.046875 -1.421875 31.78125 -1.421875 
Q 19.53125 -1.421875 13.0625 8.265625 
Q 6.59375 17.96875 6.59375 36.375 
Q 6.59375 54.828125 13.0625 64.515625 
Q 19.53125 74.21875 31.78125 74.21875 
z
" id="DejaVuSans-48"/>
        <path d="M 10.6875 12.40625 
L 21 12.40625 
L 21 0 
L 10.6875 0 
z
" id="DejaVuSans-46"/>
       </defs>
       <use xlink:href="#DejaVuSans-48"/>
       <use x="63.623047" xlink:href="#DejaVuSans-46"/>
       <use x="95.410156" xlink:href="#DejaVuSans-48"/>
      </g>
     </g>
    </g>
    <g id="ytick_2">
     <g id="line2d_2">
      <g>
       <use style="stroke:#000000;stroke-width:0.8;" x="45" xlink:href="#mc92a7f8372" y="147.996575"/>
      </g>
     </g>
     <g id="text_2">
      <!-- 0.1 -->
      <g transform="translate(22.096875 151.795793)scale(0.1 -0.1)">
       <defs>
        <path d="M 12.40625 8.296875 
L 28.515625 8.296875 
L 28.515625 63.921875 
L 10.984375 60.40625 
L 10.984375 69.390625 
L 28.421875 72.90625 
L 38.28125 72.90625 
L 38.28125 8.296875 
L 54.390625 8.296875 
L 54.390625 0 
L 12.40625 0 
z
" id="DejaVuSans-49"/>
       </defs>
       <use xlink:href="#DejaVuSans-48"/>
       <use x="63.623047" xlink:href="#DejaVuSans-46"/>
       <use x="95.410156" xlink:href="#DejaVuSans-49"/>
      </g>
     </g>
    </g>
    <g id="ytick_3">
     <g id="line2d_3">
      <g>
       <use style="stroke:#000000;stroke-width:0.8;" x="45" xlink:href="#mc92a7f8372" y="116.290565"/>
      </g>
     </g>
     <g id="text_3">
      <!-- 0.2 -->
      <g transform="translate(22.096875 120.089784)scale(0.1 -0.1)">
       <defs>
        <path d="M 19.1875 8.296875 
L 53.609375 8.296875 
L 53.609375 0 
L 7.328125 0 
L 7.328125 8.296875 
Q 12.9375 14.109375 22.625 23.890625 
Q 32.328125 33.6875 34.8125 36.53125 
Q 39.546875 41.84375 41.421875 45.53125 
Q 43.3125 49.21875 43.3125 52.78125 
Q 43.3125 58.59375 39.234375 62.25 
Q 35.15625 65.921875 28.609375 65.921875 
Q 23.96875 65.921875 18.8125 64.3125 
Q 13.671875 62.703125 7.8125 59.421875 
L 7.8125 69.390625 
Q 13.765625 71.78125 18.9375 73 
Q 24.125 74.21875 28.421875 74.21875 
Q 39.75 74.21875 46.484375 68.546875 
Q 53.21875 62.890625 53.21875 53.421875 
Q 53.21875 48.921875 51.53125 44.890625 
Q 49.859375 40.875 45.40625 35.40625 
Q 44.1875 33.984375 37.640625 27.21875 
Q 31.109375 20.453125 19.1875 8.296875 
z
" id="DejaVuSans-50"/>
       </defs>
       <use xlink:href="#DejaVuSans-48"/>
       <use x="63.623047" xlink:href="#DejaVuSans-46"/>
       <use x="95.410156" xlink:href="#DejaVuSans-50"/>
      </g>
     </g>
    </g>
    <g id="ytick_4">
     <g id="line2d_4">
      <g>
       <use style="stroke:#000000;stroke-width:0.8;" x="45" xlink:href="#mc92a7f8372" y="84.584556"/>
      </g>
     </g>
     <g id="text_4">
      <!-- 0.3 -->
      <g transform="translate(22.096875 88.383775)scale(0.1 -0.1)">
       <defs>
        <path d="M 40.578125 39.3125 
Q 47.65625 37.796875 51.625 33 
Q 55.609375 28.21875 55.609375 21.1875 
Q 55.609375 10.40625 48.1875 4.484375 
Q 40.765625 -1.421875 27.09375 -1.421875 
Q 22.515625 -1.421875 17.65625 -0.515625 
Q 12.796875 0.390625 7.625 2.203125 
L 7.625 11.71875 
Q 11.71875 9.328125 16.59375 8.109375 
Q 21.484375 6.890625 26.8125 6.890625 
Q 36.078125 6.890625 40.9375 10.546875 
Q 45.796875 14.203125 45.796875 21.1875 
Q 45.796875 27.640625 41.28125 31.265625 
Q 36.765625 34.90625 28.71875 34.90625 
L 20.21875 34.90625 
L 20.21875 43.015625 
L 29.109375 43.015625 
Q 36.375 43.015625 40.234375 45.921875 
Q 44.09375 48.828125 44.09375 54.296875 
Q 44.09375 59.90625 40.109375 62.90625 
Q 36.140625 65.921875 28.71875 65.921875 
Q 24.65625 65.921875 20.015625 65.03125 
Q 15.375 64.15625 9.8125 62.3125 
L 9.8125 71.09375 
Q 15.4375 72.65625 20.34375 73.4375 
Q 25.25 74.21875 29.59375 74.21875 
Q 40.828125 74.21875 47.359375 69.109375 
Q 53.90625 64.015625 53.90625 55.328125 
Q 53.90625 49.265625 50.4375 45.09375 
Q 46.96875 40.921875 40.578125 39.3125 
z
" id="DejaVuSans-51"/>
       </defs>
       <use xlink:href="#DejaVuSans-48"/>
       <use x="63.623047" xlink:href="#DejaVuSans-46"/>
       <use x="95.410156" xlink:href="#DejaVuSans-51"/>
      </g>
     </g>
    </g>
    <g id="ytick_5">
     <g id="line2d_5">
      <g>
       <use style="stroke:#000000;stroke-width:0.8;" x="45" xlink:href="#mc92a7f8372" y="52.878547"/>
      </g>
     </g>
     <g id="text_5">
      <!-- 0.4 -->
      <g transform="translate(22.096875 56.677765)scale(0.1 -0.1)">
       <defs>
        <path d="M 37.796875 64.3125 
L 12.890625 25.390625 
L 37.796875 25.390625 
z
M 35.203125 72.90625 
L 47.609375 72.90625 
L 47.609375 25.390625 
L 58.015625 25.390625 
L 58.015625 17.1875 
L 47.609375 17.1875 
L 47.609375 0 
L 37.796875 0 
L 37.796875 17.1875 
L 4.890625 17.1875 
L 4.890625 26.703125 
z
" id="DejaVuSans-52"/>
       </defs>
       <use xlink:href="#DejaVuSans-48"/>
       <use x="63.623047" xlink:href="#DejaVuSans-46"/>
       <use x="95.410156" xlink:href="#DejaVuSans-52"/>
      </g>
     </g>
    </g>
   </g>
   <g id="line2d_6">
    <path clip-path="url(#pd0523a856a)" d="M 57.681818 179.702584 
L 311.318182 179.702584 
L 311.318182 179.702584 
" style="fill:none;stroke:#ff9896;stroke-dasharray:11.1,4.8;stroke-dashoffset:0;stroke-width:3;"/>
   </g>
   <g id="line2d_7">
    <path clip-path="url(#pd0523a856a)" d="M 57.681818 179.702584 
L 86.423128 179.592134 
L 88.992647 179.283564 
L 91.520722 178.754288 
L 94.110963 177.984596 
L 96.825535 176.945241 
L 99.705882 175.600233 
L 102.752005 173.92786 
L 105.984626 171.895558 
L 109.465909 169.437872 
L 113.195856 166.526031 
L 117.236631 163.082641 
L 121.650401 159.021315 
L 126.499332 154.249444 
L 131.887032 148.629389 
L 138.082888 141.834058 
L 145.418449 133.442511 
L 154.764037 122.390493 
L 171.237968 102.497712 
L 187.090241 83.503291 
L 197.989973 70.795046 
L 206.009358 61.753314 
L 209.034759 58.67298 
L 211.832219 56.139717 
L 214.588235 53.940455 
L 217.364973 52.007433 
L 220.162433 50.329699 
L 223.001337 48.886303 
L 225.881684 47.671267 
L 228.824198 46.672038 
L 231.828877 45.886685 
L 234.916444 45.309344 
L 238.10762 44.939104 
L 241.423128 44.779319 
L 244.88369 44.83696 
L 248.510027 45.121973 
L 252.322861 45.646622 
L 256.363636 46.42936 
L 260.673797 47.493798 
L 265.294786 48.867241 
L 270.28877 50.586655 
L 275.759358 52.709622 
L 281.81016 55.300803 
L 288.669118 58.486401 
L 296.667781 62.455021 
L 306.572861 67.629911 
L 311.318182 70.175494 
L 311.318182 70.175494 
" style="fill:none;stroke:#ff9896;stroke-linecap:square;stroke-width:3;"/>
   </g>
   <g id="patch_3">
    <path d="M 45 189 
L 45 25.92 
" style="fill:none;stroke:#000000;stroke-linecap:square;stroke-linejoin:miter;stroke-width:0.8;"/>
   </g>
   <g id="patch_4">
    <path d="M 324 189 
L 324 25.92 
" style="fill:none;stroke:#000000;stroke-linecap:square;stroke-linejoin:miter;stroke-width:0.8;"/>
   </g>
   <g id="patch_5">
    <path d="M 45 189 
L 324 189 
" style="fill:none;stroke:#000000;stroke-linecap:square;stroke-linejoin:miter;stroke-width:0.8;"/>
   </g>
   <g id="patch_6">
    <path d="M 45 25.92 
L 324 25.92 
" style="fill:none;stroke:#000000;stroke-linecap:square;stroke-linejoin:miter;stroke-width:0.8;"/>
   </g>
  </g>
 </g>
 <defs>
  <clipPath id="pd0523a856a">
   <rect height="163.08" width="279" x="45" y="25.92"/>
  </clipPath>
 </defs>
</svg>
