<?xml version="1.0" encoding="utf-8" standalone="no"?>
<!DOCTYPE svg PUBLIC "-//W3C//DTD SVG 1.1//EN"
  "http://www.w3.org/Graphics/SVG/1.1/DTD/svg11.dtd">
<!-- Created with matplotlib (https://matplotlib.org/) -->
<svg height="216pt" version="1.1" viewBox="0 0 504 216" width="504pt" xmlns="http://www.w3.org/2000/svg" xmlns:xlink="http://www.w3.org/1999/xlink">
 <metadata>
  <rdf:RDF xmlns:cc="http://creativecommons.org/ns#" xmlns:dc="http://purl.org/dc/elements/1.1/" xmlns:rdf="http://www.w3.org/1999/02/22-rdf-syntax-ns#">
   <cc:Work>
    <dc:type rdf:resource="http://purl.org/dc/dcmitype/StillImage"/>
    <dc:date>2024-12-16T16:47:44.697210</dc:date>
    <dc:format>image/svg+xml</dc:format>
    <dc:creator>
     <cc:Agent>
      <dc:title>Matplotlib v3.3.2, https://matplotlib.org/</dc:title>
     </cc:Agent>
    </dc:creator>
   </cc:Work>
  </rdf:RDF>
 </metadata>
 <defs>
  <style type="text/css">*{stroke-linecap:butt;stroke-linejoin:round;}</style>
 </defs>
 <g id="figure_1">
  <g id="patch_1">
   <path d="M 0 216 
L 504 216 
L 504 0 
L 0 0 
z
" style="fill:none;"/>
  </g>
  <g id="axes_1">
   <g id="patch_2">
    <path d="M 63 189 
L 453.6 189 
L 453.6 25.92 
L 63 25.92 
z
" style="fill:#ffffff;"/>
   </g>
   <g id="PathCollection_1">
    <path clip-path="url(#p7c81525953)" d="M 87.717112 192.27852 
C 88.654747 192.27852 89.554105 191.905994 90.217112 191.242986 
C 90.88012 190.579978 91.252646 189.68062 91.252646 188.742986 
C 91.252646 187.805351 90.88012 186.905994 90.217112 186.242986 
C 89.554105 185.579978 88.654747 185.207452 87.717112 185.207452 
C 86.779478 185.207452 85.88012 185.579978 85.217112 186.242986 
C 84.554105 186.905994 84.181578 187.805351 84.181578 188.742986 
C 84.181578 189.68062 84.554105 190.579978 85.217112 191.242986 
C 85.88012 191.905994 86.779478 192.27852 87.717112 192.27852 
z
" style="fill:none;stroke:#1f77b4;"/>
   </g>
   <g id="PathCollection_2">
    <path clip-path="url(#p7c81525953)" d="M 94.679679 192.025353 
C 95.617314 192.025353 96.516671 191.652827 97.179679 190.989819 
C 97.842687 190.326811 98.215213 189.427454 98.215213 188.489819 
C 98.215213 187.552185 97.842687 186.652827 97.179679 185.989819 
C 96.516671 185.326811 95.617314 184.954285 94.679679 184.954285 
C 93.742045 184.954285 92.842687 185.326811 92.179679 185.989819 
C 91.516671 186.652827 91.144145 187.552185 91.144145 188.489819 
C 91.144145 189.427454 91.516671 190.326811 92.179679 190.989819 
C 92.842687 191.652827 93.742045 192.025353 94.679679 192.025353 
z
" style="fill:none;stroke:#1f77b4;"/>
   </g>
   <g id="PathCollection_3">
    <path clip-path="url(#p7c81525953)" d="M 101.642246 191.773638 
C 102.579881 191.773638 103.479238 191.401111 104.142246 190.738104 
C 104.805254 190.075096 105.17778 189.175738 105.17778 188.238104 
C 105.17778 187.300469 104.805254 186.401111 104.142246 185.738104 
C 103.479238 185.075096 102.579881 184.70257 101.642246 184.70257 
C 100.704611 184.70257 99.805254 185.075096 99.142246 185.738104 
C 98.479238 186.401111 98.106712 187.300469 98.106712 188.238104 
C 98.106712 189.175738 98.479238 190.075096 99.142246 190.738104 
C 99.805254 191.401111 100.704611 191.773638 101.642246 191.773638 
z
" style="fill:none;stroke:#1f77b4;"/>
   </g>
   <g id="PathCollection_4">
    <path clip-path="url(#p7c81525953)" d="M 108.604813 191.466144 
C 109.542447 191.466144 110.441805 191.093618 111.104813 190.43061 
C 111.767821 189.767602 112.140347 188.868245 112.140347 187.93061 
C 112.140347 186.992976 111.767821 186.093618 111.104813 185.43061 
C 110.441805 184.767602 109.542447 184.395076 108.604813 184.395076 
C 107.667178 184.395076 106.767821 184.767602 106.104813 185.43061 
C 105.441805 186.093618 105.069279 186.992976 105.069279 187.93061 
C 105.069279 188.868245 105.441805 189.767602 106.104813 190.43061 
C 106.767821 191.093618 107.667178 191.466144 108.604813 191.466144 
z
" style="fill:none;stroke:#1f77b4;"/>
   </g>
   <g id="PathCollection_5">
    <path clip-path="url(#p7c81525953)" d="M 115.56738 191.063256 
C 116.505014 191.063256 117.404372 190.69073 118.06738 190.027722 
C 118.730387 189.364714 119.102914 188.465357 119.102914 187.527722 
C 119.102914 186.590088 118.730387 185.69073 118.06738 185.027722 
C 117.404372 184.364714 116.505014 183.992188 115.56738 183.992188 
C 114.629745 183.992188 113.730387 184.364714 113.06738 185.027722 
C 112.404372 185.69073 112.031846 186.590088 112.031846 187.527722 
C 112.031846 188.465357 112.404372 189.364714 113.06738 190.027722 
C 113.730387 190.69073 114.629745 191.063256 115.56738 191.063256 
z
" style="fill:none;stroke:#1f77b4;"/>
   </g>
   <g id="PathCollection_6">
    <path clip-path="url(#p7c81525953)" d="M 122.529947 190.539856 
C 123.467581 190.539856 124.366939 190.16733 125.029947 189.504323 
C 125.692954 188.841315 126.06548 187.941957 126.06548 187.004323 
C 126.06548 186.066688 125.692954 185.16733 125.029947 184.504323 
C 124.366939 183.841315 123.467581 183.468789 122.529947 183.468789 
C 121.592312 183.468789 120.692954 183.841315 120.029947 184.504323 
C 119.366939 185.16733 118.994413 186.066688 118.994413 187.004323 
C 118.994413 187.941957 119.366939 188.841315 120.029947 189.504323 
C 120.692954 190.16733 121.592312 190.539856 122.529947 190.539856 
z
" style="fill:none;stroke:#1f77b4;"/>
   </g>
   <g id="PathCollection_7">
    <path clip-path="url(#p7c81525953)" d="M 129.492513 189.882464 
C 130.430148 189.882464 131.329506 189.509938 131.992513 188.84693 
C 132.655521 188.183922 133.028047 187.284564 133.028047 186.34693 
C 133.028047 185.409295 132.655521 184.509938 131.992513 183.84693 
C 131.329506 183.183922 130.430148 182.811396 129.492513 182.811396 
C 128.554879 182.811396 127.655521 183.183922 126.992513 183.84693 
C 126.329506 184.509938 125.956979 185.409295 125.956979 186.34693 
C 125.956979 187.284564 126.329506 188.183922 126.992513 188.84693 
C 127.655521 189.509938 128.554879 189.882464 129.492513 189.882464 
z
" style="fill:none;stroke:#1f77b4;"/>
   </g>
   <g id="PathCollection_8">
    <path clip-path="url(#p7c81525953)" d="M 136.45508 189.086698 
C 137.392715 189.086698 138.292072 188.714172 138.95508 188.051165 
C 139.618088 187.388157 139.990614 186.488799 139.990614 185.551165 
C 139.990614 184.61353 139.618088 183.714172 138.95508 183.051165 
C 138.292072 182.388157 137.392715 182.015631 136.45508 182.015631 
C 135.517446 182.015631 134.618088 182.388157 133.95508 183.051165 
C 133.292072 183.714172 132.919546 184.61353 132.919546 185.551165 
C 132.919546 186.488799 133.292072 187.388157 133.95508 188.051165 
C 134.618088 188.714172 135.517446 189.086698 136.45508 189.086698 
z
" style="fill:none;stroke:#1f77b4;"/>
   </g>
   <g id="PathCollection_9">
    <path clip-path="url(#p7c81525953)" d="M 143.417647 188.155058 
C 144.355282 188.155058 145.254639 187.782532 145.917647 187.119524 
C 146.580655 186.456516 146.953181 185.557159 146.953181 184.619524 
C 146.953181 183.68189 146.580655 182.782532 145.917647 182.119524 
C 145.254639 181.456516 144.355282 181.08399 143.417647 181.08399 
C 142.480013 181.08399 141.580655 181.456516 140.917647 182.119524 
C 140.254639 182.782532 139.882113 183.68189 139.882113 184.619524 
C 139.882113 185.557159 140.254639 186.456516 140.917647 187.119524 
C 141.580655 187.782532 142.480013 188.155058 143.417647 188.155058 
z
" style="fill:none;stroke:#1f77b4;"/>
   </g>
   <g id="PathCollection_10">
    <path clip-path="url(#p7c81525953)" d="M 150.380214 187.094987 
C 151.317848 187.094987 152.217206 186.722461 152.880214 186.059453 
C 153.543222 185.396445 153.915748 184.497088 153.915748 183.559453 
C 153.915748 182.621819 153.543222 181.722461 152.880214 181.059453 
C 152.217206 180.396445 151.317848 180.023919 150.380214 180.023919 
C 149.442579 180.023919 148.543222 180.396445 147.880214 181.059453 
C 147.217206 181.722461 146.84468 182.621819 146.84468 183.559453 
C 146.84468 184.497088 147.217206 185.396445 147.880214 186.059453 
C 148.543222 186.722461 149.442579 187.094987 150.380214 187.094987 
z
" style="fill:none;stroke:#1f77b4;"/>
   </g>
   <g id="PathCollection_11">
    <path clip-path="url(#p7c81525953)" d="M 157.342781 185.917225 
C 158.280415 185.917225 159.179773 185.544699 159.842781 184.881691 
C 160.505788 184.218684 160.878315 183.319326 160.878315 182.381691 
C 160.878315 181.444057 160.505788 180.544699 159.842781 179.881691 
C 159.179773 179.218684 158.280415 178.846158 157.342781 178.846158 
C 156.405146 178.846158 155.505788 179.218684 154.842781 179.881691 
C 154.179773 180.544699 153.807247 181.444057 153.807247 182.381691 
C 153.807247 183.319326 154.179773 184.218684 154.842781 184.881691 
C 155.505788 185.544699 156.405146 185.917225 157.342781 185.917225 
z
" style="fill:none;stroke:#1f77b4;"/>
   </g>
   <g id="PathCollection_12">
    <path clip-path="url(#p7c81525953)" d="M 164.305348 184.634415 
C 165.242982 184.634415 166.14234 184.261889 166.805348 183.598881 
C 167.468355 182.935873 167.840881 182.036516 167.840881 181.098881 
C 167.840881 180.161246 167.468355 179.261889 166.805348 178.598881 
C 166.14234 177.935873 165.242982 177.563347 164.305348 177.563347 
C 163.367713 177.563347 162.468355 177.935873 161.805348 178.598881 
C 161.14234 179.261889 160.769814 180.161246 160.769814 181.098881 
C 160.769814 182.036516 161.14234 182.935873 161.805348 183.598881 
C 162.468355 184.261889 163.367713 184.634415 164.305348 184.634415 
z
" style="fill:none;stroke:#1f77b4;"/>
   </g>
   <g id="PathCollection_13">
    <path clip-path="url(#p7c81525953)" d="M 171.267914 183.25995 
C 172.205549 183.25995 173.104907 182.887424 173.767914 182.224416 
C 174.430922 181.561409 174.803448 180.662051 174.803448 179.724416 
C 174.803448 178.786782 174.430922 177.887424 173.767914 177.224416 
C 173.104907 176.561409 172.205549 176.188882 171.267914 176.188882 
C 170.33028 176.188882 169.430922 176.561409 168.767914 177.224416 
C 168.104907 177.887424 167.732381 178.786782 167.732381 179.724416 
C 167.732381 180.662051 168.104907 181.561409 168.767914 182.224416 
C 169.430922 182.887424 170.33028 183.25995 171.267914 183.25995 
z
" style="fill:none;stroke:#1f77b4;"/>
   </g>
   <g id="PathCollection_14">
    <path clip-path="url(#p7c81525953)" d="M 178.230481 181.807057 
C 179.168116 181.807057 180.067474 181.434531 180.730481 180.771523 
C 181.393489 180.108515 181.766015 179.209158 181.766015 178.271523 
C 181.766015 177.333889 181.393489 176.434531 180.730481 175.771523 
C 180.067474 175.108515 179.168116 174.735989 178.230481 174.735989 
C 177.292847 174.735989 176.393489 175.108515 175.730481 175.771523 
C 175.067474 176.434531 174.694947 177.333889 174.694947 178.271523 
C 174.694947 179.209158 175.067474 180.108515 175.730481 180.771523 
C 176.393489 181.434531 177.292847 181.807057 178.230481 181.807057 
z
" style="fill:none;stroke:#1f77b4;"/>
   </g>
   <g id="PathCollection_15">
    <path clip-path="url(#p7c81525953)" d="M 185.193048 180.288078 
C 186.130683 180.288078 187.03004 179.915551 187.693048 179.252544 
C 188.356056 178.589536 188.728582 177.690178 188.728582 176.752544 
C 188.728582 175.814909 188.356056 174.915551 187.693048 174.252544 
C 187.03004 173.589536 186.130683 173.21701 185.193048 173.21701 
C 184.255414 173.21701 183.356056 173.589536 182.693048 174.252544 
C 182.03004 174.915551 181.657514 175.814909 181.657514 176.752544 
C 181.657514 177.690178 182.03004 178.589536 182.693048 179.252544 
C 183.356056 179.915551 184.255414 180.288078 185.193048 180.288078 
z
" style="fill:none;stroke:#1f77b4;"/>
   </g>
   <g id="PathCollection_16">
    <path clip-path="url(#p7c81525953)" d="M 192.155615 178.71395 
C 193.09325 178.71395 193.992607 178.341424 194.655615 177.678416 
C 195.318623 177.015408 195.691149 176.11605 195.691149 175.178416 
C 195.691149 174.240781 195.318623 173.341424 194.655615 172.678416 
C 193.992607 172.015408 193.09325 171.642882 192.155615 171.642882 
C 191.21798 171.642882 190.318623 172.015408 189.655615 172.678416 
C 188.992607 173.341424 188.620081 174.240781 188.620081 175.178416 
C 188.620081 176.11605 188.992607 177.015408 189.655615 177.678416 
C 190.318623 178.341424 191.21798 178.71395 192.155615 178.71395 
z
" style="fill:none;stroke:#1f77b4;"/>
   </g>
   <g id="PathCollection_17">
    <path clip-path="url(#p7c81525953)" d="M 199.118182 177.093862 
C 200.055816 177.093862 200.955174 176.721336 201.618182 176.058328 
C 202.28119 175.39532 202.653716 174.495962 202.653716 173.558328 
C 202.653716 172.620693 202.28119 171.721336 201.618182 171.058328 
C 200.955174 170.39532 200.055816 170.022794 199.118182 170.022794 
C 198.180547 170.022794 197.28119 170.39532 196.618182 171.058328 
C 195.955174 171.721336 195.582648 172.620693 195.582648 173.558328 
C 195.582648 174.495962 195.955174 175.39532 196.618182 176.058328 
C 197.28119 176.721336 198.180547 177.093862 199.118182 177.093862 
z
" style="fill:none;stroke:#1f77b4;"/>
   </g>
   <g id="PathCollection_18">
    <path clip-path="url(#p7c81525953)" d="M 206.080749 175.435066 
C 207.018383 175.435066 207.917741 175.06254 208.580749 174.399532 
C 209.243756 173.736525 209.616283 172.837167 209.616283 171.899532 
C 209.616283 170.961898 209.243756 170.06254 208.580749 169.399532 
C 207.917741 168.736525 207.018383 168.363998 206.080749 168.363998 
C 205.143114 168.363998 204.243756 168.736525 203.580749 169.399532 
C 202.917741 170.06254 202.545215 170.961898 202.545215 171.899532 
C 202.545215 172.837167 202.917741 173.736525 203.580749 174.399532 
C 204.243756 175.06254 205.143114 175.435066 206.080749 175.435066 
z
" style="fill:none;stroke:#1f77b4;"/>
   </g>
   <g id="PathCollection_19">
    <path clip-path="url(#p7c81525953)" d="M 213.043316 173.742833 
C 213.98095 173.742833 214.880308 173.370307 215.543316 172.707299 
C 216.206323 172.044292 216.578849 171.144934 216.578849 170.207299 
C 216.578849 169.269665 216.206323 168.370307 215.543316 167.707299 
C 214.880308 167.044292 213.98095 166.671766 213.043316 166.671766 
C 212.105681 166.671766 211.206323 167.044292 210.543316 167.707299 
C 209.880308 168.370307 209.507782 169.269665 209.507782 170.207299 
C 209.507782 171.144934 209.880308 172.044292 210.543316 172.707299 
C 211.206323 173.370307 212.105681 173.742833 213.043316 173.742833 
z
" style="fill:none;stroke:#1f77b4;"/>
   </g>
   <g id="PathCollection_20">
    <path clip-path="url(#p7c81525953)" d="M 220.005882 172.020531 
C 220.943517 172.020531 221.842875 171.648005 222.505882 170.984997 
C 223.16889 170.321989 223.541416 169.422631 223.541416 168.484997 
C 223.541416 167.547362 223.16889 166.648005 222.505882 165.984997 
C 221.842875 165.321989 220.943517 164.949463 220.005882 164.949463 
C 219.068248 164.949463 218.16889 165.321989 217.505882 165.984997 
C 216.842875 166.648005 216.470348 167.547362 216.470348 168.484997 
C 216.470348 169.422631 216.842875 170.321989 217.505882 170.984997 
C 218.16889 171.648005 219.068248 172.020531 220.005882 172.020531 
z
" style="fill:none;stroke:#1f77b4;"/>
   </g>
   <g id="PathCollection_21">
    <path clip-path="url(#p7c81525953)" d="M 226.968449 170.269812 
C 227.906084 170.269812 228.805441 169.897285 229.468449 169.234278 
C 230.131457 168.57127 230.503983 167.671912 230.503983 166.734278 
C 230.503983 165.796643 230.131457 164.897285 229.468449 164.234278 
C 228.805441 163.57127 227.906084 163.198744 226.968449 163.198744 
C 226.030815 163.198744 225.131457 163.57127 224.468449 164.234278 
C 223.805441 164.897285 223.432915 165.796643 223.432915 166.734278 
C 223.432915 167.671912 223.805441 168.57127 224.468449 169.234278 
C 225.131457 169.897285 226.030815 170.269812 226.968449 170.269812 
z
" style="fill:none;stroke:#1f77b4;"/>
   </g>
   <g id="PathCollection_22">
    <path clip-path="url(#p7c81525953)" d="M 233.931016 168.490891 
C 234.868651 168.490891 235.768008 168.118365 236.431016 167.455357 
C 237.094024 166.79235 237.46655 165.892992 237.46655 164.955357 
C 237.46655 164.017723 237.094024 163.118365 236.431016 162.455357 
C 235.768008 161.79235 234.868651 161.419823 233.931016 161.419823 
C 232.993381 161.419823 232.094024 161.79235 231.431016 162.455357 
C 230.768008 163.118365 230.395482 164.017723 230.395482 164.955357 
C 230.395482 165.892992 230.768008 166.79235 231.431016 167.455357 
C 232.094024 168.118365 232.993381 168.490891 233.931016 168.490891 
z
" style="fill:none;stroke:#1f77b4;"/>
   </g>
   <g id="PathCollection_23">
    <path clip-path="url(#p7c81525953)" d="M 240.893583 166.6829 
C 241.831217 166.6829 242.730575 166.310374 243.393583 165.647366 
C 244.056591 164.984359 244.429117 164.085001 244.429117 163.147366 
C 244.429117 162.209732 244.056591 161.310374 243.393583 160.647366 
C 242.730575 159.984359 241.831217 159.611832 240.893583 159.611832 
C 239.955948 159.611832 239.056591 159.984359 238.393583 160.647366 
C 237.730575 161.310374 237.358049 162.209732 237.358049 163.147366 
C 237.358049 164.085001 237.730575 164.984359 238.393583 165.647366 
C 239.056591 166.310374 239.955948 166.6829 240.893583 166.6829 
z
" style="fill:none;stroke:#1f77b4;"/>
   </g>
   <g id="PathCollection_24">
    <path clip-path="url(#p7c81525953)" d="M 247.85615 164.844291 
C 248.793784 164.844291 249.693142 164.471765 250.35615 163.808757 
C 251.019157 163.14575 251.391684 162.246392 251.391684 161.308757 
C 251.391684 160.371123 251.019157 159.471765 250.35615 158.808757 
C 249.693142 158.14575 248.793784 157.773223 247.85615 157.773223 
C 246.918515 157.773223 246.019157 158.14575 245.35615 158.808757 
C 244.693142 159.471765 244.320616 160.371123 244.320616 161.308757 
C 244.320616 162.246392 244.693142 163.14575 245.35615 163.808757 
C 246.019157 164.471765 246.918515 164.844291 247.85615 164.844291 
z
" style="fill:none;stroke:#1f77b4;"/>
   </g>
   <g id="PathCollection_25">
    <path clip-path="url(#p7c81525953)" d="M 254.818717 162.97329 
C 255.756351 162.97329 256.655709 162.600764 257.318717 161.937756 
C 257.981724 161.274749 258.35425 160.375391 258.35425 159.437756 
C 258.35425 158.500122 257.981724 157.600764 257.318717 156.937756 
C 256.655709 156.274749 255.756351 155.902223 254.818717 155.902223 
C 253.881082 155.902223 252.981724 156.274749 252.318717 156.937756 
C 251.655709 157.600764 251.283183 158.500122 251.283183 159.437756 
C 251.283183 160.375391 251.655709 161.274749 252.318717 161.937756 
C 252.981724 162.600764 253.881082 162.97329 254.818717 162.97329 
z
" style="fill:none;stroke:#1f77b4;"/>
   </g>
   <g id="PathCollection_26">
    <path clip-path="url(#p7c81525953)" d="M 261.781283 161.068366 
C 262.718918 161.068366 263.618276 160.695839 264.281283 160.032832 
C 264.944291 159.369824 265.316817 158.470466 265.316817 157.532832 
C 265.316817 156.595197 264.944291 155.695839 264.281283 155.032832 
C 263.618276 154.369824 262.718918 153.997298 261.781283 153.997298 
C 260.843649 153.997298 259.944291 154.369824 259.281283 155.032832 
C 258.618276 155.695839 258.24575 156.595197 258.24575 157.532832 
C 258.24575 158.470466 258.618276 159.369824 259.281283 160.032832 
C 259.944291 160.695839 260.843649 161.068366 261.781283 161.068366 
z
" style="fill:none;stroke:#1f77b4;"/>
   </g>
   <g id="PathCollection_27">
    <path clip-path="url(#p7c81525953)" d="M 268.74385 159.128707 
C 269.681485 159.128707 270.580843 158.756181 271.24385 158.093173 
C 271.906858 157.430165 272.279384 156.530808 272.279384 155.593173 
C 272.279384 154.655539 271.906858 153.756181 271.24385 153.093173 
C 270.580843 152.430165 269.681485 152.057639 268.74385 152.057639 
C 267.806216 152.057639 266.906858 152.430165 266.24385 153.093173 
C 265.580843 153.756181 265.208316 154.655539 265.208316 155.593173 
C 265.208316 156.530808 265.580843 157.430165 266.24385 158.093173 
C 266.906858 158.756181 267.806216 159.128707 268.74385 159.128707 
z
" style="fill:none;stroke:#1f77b4;"/>
   </g>
   <g id="PathCollection_28">
    <path clip-path="url(#p7c81525953)" d="M 275.706417 157.154694 
C 276.644052 157.154694 277.543409 156.782167 278.206417 156.11916 
C 278.869425 155.456152 279.241951 154.556794 279.241951 153.61916 
C 279.241951 152.681525 278.869425 151.782167 278.206417 151.11916 
C 277.543409 150.456152 276.644052 150.083626 275.706417 150.083626 
C 274.768783 150.083626 273.869425 150.456152 273.206417 151.11916 
C 272.543409 151.782167 272.170883 152.681525 272.170883 153.61916 
C 272.170883 154.556794 272.543409 155.456152 273.206417 156.11916 
C 273.869425 156.782167 274.768783 157.154694 275.706417 157.154694 
z
" style="fill:none;stroke:#1f77b4;"/>
   </g>
   <g id="PathCollection_29">
    <path clip-path="url(#p7c81525953)" d="M 282.668984 155.148329 
C 283.606619 155.148329 284.505976 154.775803 285.168984 154.112795 
C 285.831992 153.449787 286.204518 152.55043 286.204518 151.612795 
C 286.204518 150.675161 285.831992 149.775803 285.168984 149.112795 
C 284.505976 148.449787 283.606619 148.077261 282.668984 148.077261 
C 281.731349 148.077261 280.831992 148.449787 280.168984 149.112795 
C 279.505976 149.775803 279.13345 150.675161 279.13345 151.612795 
C 279.13345 152.55043 279.505976 153.449787 280.168984 154.112795 
C 280.831992 154.775803 281.731349 155.148329 282.668984 155.148329 
z
" style="fill:none;stroke:#1f77b4;"/>
   </g>
   <g id="PathCollection_30">
    <path clip-path="url(#p7c81525953)" d="M 289.631551 153.113641 
C 290.569185 153.113641 291.468543 152.741115 292.131551 152.078107 
C 292.794559 151.4151 293.167085 150.515742 293.167085 149.578107 
C 293.167085 148.640473 292.794559 147.741115 292.131551 147.078107 
C 291.468543 146.4151 290.569185 146.042573 289.631551 146.042573 
C 288.693916 146.042573 287.794559 146.4151 287.131551 147.078107 
C 286.468543 147.741115 286.096017 148.640473 286.096017 149.578107 
C 286.096017 150.515742 286.468543 151.4151 287.131551 152.078107 
C 287.794559 152.741115 288.693916 153.113641 289.631551 153.113641 
z
" style="fill:none;stroke:#1f77b4;"/>
   </g>
   <g id="PathCollection_31">
    <path clip-path="url(#p7c81525953)" d="M 296.594118 151.057011 
C 297.531752 151.057011 298.43111 150.684485 299.094118 150.021477 
C 299.757125 149.358469 300.129652 148.459111 300.129652 147.521477 
C 300.129652 146.583842 299.757125 145.684485 299.094118 145.021477 
C 298.43111 144.358469 297.531752 143.985943 296.594118 143.985943 
C 295.656483 143.985943 294.757125 144.358469 294.094118 145.021477 
C 293.43111 145.684485 293.058584 146.583842 293.058584 147.521477 
C 293.058584 148.459111 293.43111 149.358469 294.094118 150.021477 
C 294.757125 150.684485 295.656483 151.057011 296.594118 151.057011 
z
" style="fill:none;stroke:#1f77b4;"/>
   </g>
   <g id="PathCollection_32">
    <path clip-path="url(#p7c81525953)" d="M 303.556684 148.987426 
C 304.494319 148.987426 305.393677 148.6149 306.056684 147.951892 
C 306.719692 147.288884 307.092218 146.389526 307.092218 145.451892 
C 307.092218 144.514257 306.719692 143.6149 306.056684 142.951892 
C 305.393677 142.288884 304.494319 141.916358 303.556684 141.916358 
C 302.61905 141.916358 301.719692 142.288884 301.056684 142.951892 
C 300.393677 143.6149 300.021151 144.514257 300.021151 145.451892 
C 300.021151 146.389526 300.393677 147.288884 301.056684 147.951892 
C 301.719692 148.6149 302.61905 148.987426 303.556684 148.987426 
z
" style="fill:none;stroke:#1f77b4;"/>
   </g>
   <g id="PathCollection_33">
    <path clip-path="url(#p7c81525953)" d="M 310.519251 146.916642 
C 311.456886 146.916642 312.356244 146.544116 313.019251 145.881108 
C 313.682259 145.2181 314.054785 144.318742 314.054785 143.381108 
C 314.054785 142.443473 313.682259 141.544116 313.019251 140.881108 
C 312.356244 140.2181 311.456886 139.845574 310.519251 139.845574 
C 309.581617 139.845574 308.682259 140.2181 308.019251 140.881108 
C 307.356244 141.544116 306.983717 142.443473 306.983717 143.381108 
C 306.983717 144.318742 307.356244 145.2181 308.019251 145.881108 
C 308.682259 146.544116 309.581617 146.916642 310.519251 146.916642 
z
" style="fill:none;stroke:#1f77b4;"/>
   </g>
   <g id="PathCollection_34">
    <path clip-path="url(#p7c81525953)" d="M 317.481818 144.859225 
C 318.419453 144.859225 319.31881 144.486699 319.981818 143.823691 
C 320.644826 143.160684 321.017352 142.261326 321.017352 141.323691 
C 321.017352 140.386057 320.644826 139.486699 319.981818 138.823691 
C 319.31881 138.160684 318.419453 137.788158 317.481818 137.788158 
C 316.544184 137.788158 315.644826 138.160684 314.981818 138.823691 
C 314.31881 139.486699 313.946284 140.386057 313.946284 141.323691 
C 313.946284 142.261326 314.31881 143.160684 314.981818 143.823691 
C 315.644826 144.486699 316.544184 144.859225 317.481818 144.859225 
z
" style="fill:none;stroke:#1f77b4;"/>
   </g>
   <g id="PathCollection_35">
    <path clip-path="url(#p7c81525953)" d="M 324.444385 142.832472 
C 325.38202 142.832472 326.281377 142.459946 326.944385 141.796938 
C 327.607393 141.133931 327.979919 140.234573 327.979919 139.296938 
C 327.979919 138.359304 327.607393 137.459946 326.944385 136.796938 
C 326.281377 136.133931 325.38202 135.761405 324.444385 135.761405 
C 323.50675 135.761405 322.607393 136.133931 321.944385 136.796938 
C 321.281377 137.459946 320.908851 138.359304 320.908851 139.296938 
C 320.908851 140.234573 321.281377 141.133931 321.944385 141.796938 
C 322.607393 142.459946 323.50675 142.832472 324.444385 142.832472 
z
" style="fill:none;stroke:#1f77b4;"/>
   </g>
   <g id="PathCollection_36">
    <path clip-path="url(#p7c81525953)" d="M 331.406952 140.856177 
C 332.344586 140.856177 333.243944 140.48365 333.906952 139.820643 
C 334.56996 139.157635 334.942486 138.258277 334.942486 137.320643 
C 334.942486 136.383008 334.56996 135.48365 333.906952 134.820643 
C 333.243944 134.157635 332.344586 133.785109 331.406952 133.785109 
C 330.469317 133.785109 329.56996 134.157635 328.906952 134.820643 
C 328.243944 135.48365 327.871418 136.383008 327.871418 137.320643 
C 327.871418 138.258277 328.243944 139.157635 328.906952 139.820643 
C 329.56996 140.48365 330.469317 140.856177 331.406952 140.856177 
z
" style="fill:none;stroke:#1f77b4;"/>
   </g>
   <g id="PathCollection_37">
    <path clip-path="url(#p7c81525953)" d="M 338.369519 138.952237 
C 339.307153 138.952237 340.206511 138.579711 340.869519 137.916703 
C 341.532526 137.253695 341.905053 136.354338 341.905053 135.416703 
C 341.905053 134.479068 341.532526 133.579711 340.869519 132.916703 
C 340.206511 132.253695 339.307153 131.881169 338.369519 131.881169 
C 337.431884 131.881169 336.532526 132.253695 335.869519 132.916703 
C 335.206511 133.579711 334.833985 134.479068 334.833985 135.416703 
C 334.833985 136.354338 335.206511 137.253695 335.869519 137.916703 
C 336.532526 138.579711 337.431884 138.952237 338.369519 138.952237 
z
" style="fill:none;stroke:#1f77b4;"/>
   </g>
   <g id="PathCollection_38">
    <path clip-path="url(#p7c81525953)" d="M 345.332086 137.144083 
C 346.26972 137.144083 347.169078 136.771557 347.832086 136.108549 
C 348.495093 135.445541 348.867619 134.546184 348.867619 133.608549 
C 348.867619 132.670915 348.495093 131.771557 347.832086 131.108549 
C 347.169078 130.445541 346.26972 130.073015 345.332086 130.073015 
C 344.394451 130.073015 343.495093 130.445541 342.832086 131.108549 
C 342.169078 131.771557 341.796552 132.670915 341.796552 133.608549 
C 341.796552 134.546184 342.169078 135.445541 342.832086 136.108549 
C 343.495093 136.771557 344.394451 137.144083 345.332086 137.144083 
z
" style="fill:none;stroke:#1f77b4;"/>
   </g>
   <g id="PathCollection_39">
    <path clip-path="url(#p7c81525953)" d="M 352.294652 135.455905 
C 353.232287 135.455905 354.131645 135.083379 354.794652 134.420371 
C 355.45766 133.757364 355.830186 132.858006 355.830186 131.920371 
C 355.830186 130.982737 355.45766 130.083379 354.794652 129.420371 
C 354.131645 128.757364 353.232287 128.384838 352.294652 128.384838 
C 351.357018 128.384838 350.45766 128.757364 349.794652 129.420371 
C 349.131645 130.083379 348.759119 130.982737 348.759119 131.920371 
C 348.759119 132.858006 349.131645 133.757364 349.794652 134.420371 
C 350.45766 135.083379 351.357018 135.455905 352.294652 135.455905 
z
" style="fill:none;stroke:#1f77b4;"/>
   </g>
   <g id="PathCollection_40">
    <path clip-path="url(#p7c81525953)" d="M 359.257219 133.911668 
C 360.194854 133.911668 361.094212 133.539142 361.757219 132.876134 
C 362.420227 132.213127 362.792753 131.313769 362.792753 130.376134 
C 362.792753 129.4385 362.420227 128.539142 361.757219 127.876134 
C 361.094212 127.213127 360.194854 126.8406 359.257219 126.8406 
C 358.319585 126.8406 357.420227 127.213127 356.757219 127.876134 
C 356.094212 128.539142 355.721685 129.4385 355.721685 130.376134 
C 355.721685 131.313769 356.094212 132.213127 356.757219 132.876134 
C 357.420227 133.539142 358.319585 133.911668 359.257219 133.911668 
z
" style="fill:none;stroke:#1f77b4;"/>
   </g>
   <g id="PathCollection_41">
    <path clip-path="url(#p7c81525953)" d="M 366.219786 132.533896 
C 367.157421 132.533896 368.056778 132.16137 368.719786 131.498362 
C 369.382794 130.835354 369.75532 129.935996 369.75532 128.998362 
C 369.75532 128.060727 369.382794 127.16137 368.719786 126.498362 
C 368.056778 125.835354 367.157421 125.462828 366.219786 125.462828 
C 365.282152 125.462828 364.382794 125.835354 363.719786 126.498362 
C 363.056778 127.16137 362.684252 128.060727 362.684252 128.998362 
C 362.684252 129.935996 363.056778 130.835354 363.719786 131.498362 
C 364.382794 132.16137 365.282152 132.533896 366.219786 132.533896 
z
" style="fill:none;stroke:#1f77b4;"/>
   </g>
   <g id="PathCollection_42">
    <path clip-path="url(#p7c81525953)" d="M 373.182353 131.342205 
C 374.119987 131.342205 375.019345 130.969679 375.682353 130.306671 
C 376.345361 129.643663 376.717887 128.744306 376.717887 127.806671 
C 376.717887 126.869036 376.345361 125.969679 375.682353 125.306671 
C 375.019345 124.643663 374.119987 124.271137 373.182353 124.271137 
C 372.244718 124.271137 371.345361 124.643663 370.682353 125.306671 
C 370.019345 125.969679 369.646819 126.869036 369.646819 127.806671 
C 369.646819 128.744306 370.019345 129.643663 370.682353 130.306671 
C 371.345361 130.969679 372.244718 131.342205 373.182353 131.342205 
z
" style="fill:none;stroke:#1f77b4;"/>
   </g>
   <g id="PathCollection_43">
    <path clip-path="url(#p7c81525953)" d="M 380.14492 130.351578 
C 381.082554 130.351578 381.981912 129.979052 382.64492 129.316044 
C 383.307928 128.653036 383.680454 127.753679 383.680454 126.816044 
C 383.680454 125.87841 383.307928 124.979052 382.64492 124.316044 
C 381.981912 123.653036 381.082554 123.28051 380.14492 123.28051 
C 379.207285 123.28051 378.307928 123.653036 377.64492 124.316044 
C 376.981912 124.979052 376.609386 125.87841 376.609386 126.816044 
C 376.609386 127.753679 376.981912 128.653036 377.64492 129.316044 
C 378.307928 129.979052 379.207285 130.351578 380.14492 130.351578 
z
" style="fill:none;stroke:#1f77b4;"/>
   </g>
   <g id="PathCollection_44">
    <path clip-path="url(#p7c81525953)" d="M 387.107487 129.57035 
C 388.045121 129.57035 388.944479 129.197824 389.607487 128.534817 
C 390.270494 127.871809 390.643021 126.972451 390.643021 126.034817 
C 390.643021 125.097182 390.270494 124.197824 389.607487 123.534817 
C 388.944479 122.871809 388.045121 122.499283 387.107487 122.499283 
C 386.169852 122.499283 385.270494 122.871809 384.607487 123.534817 
C 383.944479 124.197824 383.571953 125.097182 383.571953 126.034817 
C 383.571953 126.972451 383.944479 127.871809 384.607487 128.534817 
C 385.270494 129.197824 386.169852 129.57035 387.107487 129.57035 
z
" style="fill:none;stroke:#1f77b4;"/>
   </g>
   <g id="PathCollection_45">
    <path clip-path="url(#p7c81525953)" d="M 394.070053 128.997901 
C 395.007688 128.997901 395.907046 128.625374 396.570053 127.962367 
C 397.233061 127.299359 397.605587 126.400001 397.605587 125.462367 
C 397.605587 124.524732 397.233061 123.625374 396.570053 122.962367 
C 395.907046 122.299359 395.007688 121.926833 394.070053 121.926833 
C 393.132419 121.926833 392.233061 122.299359 391.570053 122.962367 
C 390.907046 123.625374 390.53452 124.524732 390.53452 125.462367 
C 390.53452 126.400001 390.907046 127.299359 391.570053 127.962367 
C 392.233061 128.625374 393.132419 128.997901 394.070053 128.997901 
z
" style="fill:none;stroke:#1f77b4;"/>
   </g>
   <g id="PathCollection_46">
    <path clip-path="url(#p7c81525953)" d="M 401.03262 128.622023 
C 401.970255 128.622023 402.869613 128.249497 403.53262 127.586489 
C 404.195628 126.923481 404.568154 126.024123 404.568154 125.086489 
C 404.568154 124.148854 404.195628 123.249497 403.53262 122.586489 
C 402.869613 121.923481 401.970255 121.550955 401.03262 121.550955 
C 400.094986 121.550955 399.195628 121.923481 398.53262 122.586489 
C 397.869613 123.249497 397.497086 124.148854 397.497086 125.086489 
C 397.497086 126.024123 397.869613 126.923481 398.53262 127.586489 
C 399.195628 128.249497 400.094986 128.622023 401.03262 128.622023 
z
" style="fill:none;stroke:#1f77b4;"/>
   </g>
   <g id="PathCollection_47">
    <path clip-path="url(#p7c81525953)" d="M 407.995187 128.415969 
C 408.932822 128.415969 409.832179 128.043443 410.495187 127.380436 
C 411.158195 126.717428 411.530721 125.81807 411.530721 124.880436 
C 411.530721 123.942801 411.158195 123.043443 410.495187 122.380436 
C 409.832179 121.717428 408.932822 121.344902 407.995187 121.344902 
C 407.057553 121.344902 406.158195 121.717428 405.495187 122.380436 
C 404.832179 123.043443 404.459653 123.942801 404.459653 124.880436 
C 404.459653 125.81807 404.832179 126.717428 405.495187 127.380436 
C 406.158195 128.043443 407.057553 128.415969 407.995187 128.415969 
z
" style="fill:none;stroke:#1f77b4;"/>
   </g>
   <g id="PathCollection_48">
    <path clip-path="url(#p7c81525953)" d="M 414.957754 128.335142 
C 415.895389 128.335142 416.794746 127.962616 417.457754 127.299608 
C 418.120762 126.6366 418.493288 125.737243 418.493288 124.799608 
C 418.493288 123.861974 418.120762 122.962616 417.457754 122.299608 
C 416.794746 121.6366 415.895389 121.264074 414.957754 121.264074 
C 414.020119 121.264074 413.120762 121.6366 412.457754 122.299608 
C 411.794746 122.962616 411.42222 123.861974 411.42222 124.799608 
C 411.42222 125.737243 411.794746 126.6366 412.457754 127.299608 
C 413.120762 127.962616 414.020119 128.335142 414.957754 128.335142 
z
" style="fill:none;stroke:#1f77b4;"/>
   </g>
   <g id="PathCollection_49">
    <path clip-path="url(#p7c81525953)" d="M 421.920321 128.313415 
C 422.857955 128.313415 423.757313 127.940888 424.420321 127.277881 
C 425.083329 126.614873 425.455855 125.715515 425.455855 124.777881 
C 425.455855 123.840246 425.083329 122.940888 424.420321 122.277881 
C 423.757313 121.614873 422.857955 121.242347 421.920321 121.242347 
C 420.982686 121.242347 420.083329 121.614873 419.420321 122.277881 
C 418.757313 122.940888 418.384787 123.840246 418.384787 124.777881 
C 418.384787 125.715515 418.757313 126.614873 419.420321 127.277881 
C 420.083329 127.940888 420.982686 128.313415 421.920321 128.313415 
z
" style="fill:none;stroke:#1f77b4;"/>
   </g>
   <g id="PathCollection_50">
    <path clip-path="url(#p7c81525953)" d="M 428.882888 128.259076 
C 429.820522 128.259076 430.71988 127.88655 431.382888 127.223542 
C 432.045895 126.560535 432.418422 125.661177 432.418422 124.723542 
C 432.418422 123.785908 432.045895 122.88655 431.382888 122.223542 
C 430.71988 121.560535 429.820522 121.188009 428.882888 121.188009 
C 427.945253 121.188009 427.045895 121.560535 426.382888 122.223542 
C 425.71988 122.88655 425.347354 123.785908 425.347354 124.723542 
C 425.347354 125.661177 425.71988 126.560535 426.382888 127.223542 
C 427.045895 127.88655 427.945253 128.259076 428.882888 128.259076 
z
" style="fill:none;stroke:#1f77b4;"/>
   </g>
   <g id="PathCollection_51">
    <path clip-path="url(#p7c81525953)" d="M 435.845455 128.05037 
C 436.783089 128.05037 437.682447 127.677844 438.345455 127.014836 
C 439.008462 126.351829 439.380988 125.452471 439.380988 124.514836 
C 439.380988 123.577202 439.008462 122.677844 438.345455 122.014836 
C 437.682447 121.351829 436.783089 120.979302 435.845455 120.979302 
C 434.90782 120.979302 434.008462 121.351829 433.345455 122.014836 
C 432.682447 122.677844 432.309921 123.577202 432.309921 124.514836 
C 432.309921 125.452471 432.682447 126.351829 433.345455 127.014836 
C 434.008462 127.677844 434.90782 128.05037 435.845455 128.05037 
z
" style="fill:none;stroke:#1f77b4;"/>
   </g>
   <g id="PathCollection_52">
    <defs>
     <path d="M 0 3.535534 
C 0.937635 3.535534 1.836992 3.163008 2.5 2.5 
C 3.163008 1.836992 3.535534 0.937635 3.535534 0 
C 3.535534 -0.937635 3.163008 -1.836992 2.5 -2.5 
C 1.836992 -3.163008 0.937635 -3.535534 0 -3.535534 
C -0.937635 -3.535534 -1.836992 -3.163008 -2.5 -2.5 
C -3.163008 -1.836992 -3.535534 -0.937635 -3.535534 0 
C -3.535534 0.937635 -3.163008 1.836992 -2.5 2.5 
C -1.836992 3.163008 -0.937635 3.535534 0 3.535534 
z
" id="mfd5678c12e" style="stroke:#1f77b4;"/>
    </defs>
    <g clip-path="url(#p7c81525953)">
     <use style="fill:#1f77b4;stroke:#1f77b4;" x="87.717112" xlink:href="#mfd5678c12e" y="188.976158"/>
    </g>
   </g>
   <g id="PathCollection_53">
    <g clip-path="url(#p7c81525953)">
     <use style="fill:#1f77b4;stroke:#1f77b4;" x="94.679679" xlink:href="#mfd5678c12e" y="188.941628"/>
    </g>
   </g>
   <g id="PathCollection_54">
    <g clip-path="url(#p7c81525953)">
     <use style="fill:#1f77b4;stroke:#1f77b4;" x="101.642246" xlink:href="#mfd5678c12e" y="188.772198"/>
    </g>
   </g>
   <g id="PathCollection_55">
    <g clip-path="url(#p7c81525953)">
     <use style="fill:#1f77b4;stroke:#1f77b4;" x="108.604813" xlink:href="#mfd5678c12e" y="188.448909"/>
    </g>
   </g>
   <g id="PathCollection_56">
    <g clip-path="url(#p7c81525953)">
     <use style="fill:#1f77b4;stroke:#1f77b4;" x="115.56738" xlink:href="#mfd5678c12e" y="187.963083"/>
    </g>
   </g>
   <g id="PathCollection_57">
    <g clip-path="url(#p7c81525953)">
     <use style="fill:#1f77b4;stroke:#1f77b4;" x="122.529947" xlink:href="#mfd5678c12e" y="187.313675"/>
    </g>
   </g>
   <g id="PathCollection_58">
    <g clip-path="url(#p7c81525953)">
     <use style="fill:#1f77b4;stroke:#1f77b4;" x="129.492513" xlink:href="#mfd5678c12e" y="186.504982"/>
    </g>
   </g>
   <g id="PathCollection_59">
    <g clip-path="url(#p7c81525953)">
     <use style="fill:#1f77b4;stroke:#1f77b4;" x="136.45508" xlink:href="#mfd5678c12e" y="185.544709"/>
    </g>
   </g>
   <g id="PathCollection_60">
    <g clip-path="url(#p7c81525953)">
     <use style="fill:#1f77b4;stroke:#1f77b4;" x="143.417647" xlink:href="#mfd5678c12e" y="184.442344"/>
    </g>
   </g>
   <g id="PathCollection_61">
    <g clip-path="url(#p7c81525953)">
     <use style="fill:#1f77b4;stroke:#1f77b4;" x="150.380214" xlink:href="#mfd5678c12e" y="183.207847"/>
    </g>
   </g>
   <g id="PathCollection_62">
    <g clip-path="url(#p7c81525953)">
     <use style="fill:#1f77b4;stroke:#1f77b4;" x="157.342781" xlink:href="#mfd5678c12e" y="181.850607"/>
    </g>
   </g>
   <g id="PathCollection_63">
    <g clip-path="url(#p7c81525953)">
     <use style="fill:#1f77b4;stroke:#1f77b4;" x="164.305348" xlink:href="#mfd5678c12e" y="180.378668"/>
    </g>
   </g>
   <g id="PathCollection_64">
    <g clip-path="url(#p7c81525953)">
     <use style="fill:#1f77b4;stroke:#1f77b4;" x="171.267914" xlink:href="#mfd5678c12e" y="178.79819"/>
    </g>
   </g>
   <g id="PathCollection_65">
    <g clip-path="url(#p7c81525953)">
     <use style="fill:#1f77b4;stroke:#1f77b4;" x="178.230481" xlink:href="#mfd5678c12e" y="177.113123"/>
    </g>
   </g>
   <g id="PathCollection_66">
    <g clip-path="url(#p7c81525953)">
     <use style="fill:#1f77b4;stroke:#1f77b4;" x="185.193048" xlink:href="#mfd5678c12e" y="175.325084"/>
    </g>
   </g>
   <g id="PathCollection_67">
    <g clip-path="url(#p7c81525953)">
     <use style="fill:#1f77b4;stroke:#1f77b4;" x="192.155615" xlink:href="#mfd5678c12e" y="173.433404"/>
    </g>
   </g>
   <g id="PathCollection_68">
    <g clip-path="url(#p7c81525953)">
     <use style="fill:#1f77b4;stroke:#1f77b4;" x="199.118182" xlink:href="#mfd5678c12e" y="171.435329"/>
    </g>
   </g>
   <g id="PathCollection_69">
    <g clip-path="url(#p7c81525953)">
     <use style="fill:#1f77b4;stroke:#1f77b4;" x="206.080749" xlink:href="#mfd5678c12e" y="169.326357"/>
    </g>
   </g>
   <g id="PathCollection_70">
    <g clip-path="url(#p7c81525953)">
     <use style="fill:#1f77b4;stroke:#1f77b4;" x="213.043316" xlink:href="#mfd5678c12e" y="167.100685"/>
    </g>
   </g>
   <g id="PathCollection_71">
    <g clip-path="url(#p7c81525953)">
     <use style="fill:#1f77b4;stroke:#1f77b4;" x="220.005882" xlink:href="#mfd5678c12e" y="164.751746"/>
    </g>
   </g>
   <g id="PathCollection_72">
    <g clip-path="url(#p7c81525953)">
     <use style="fill:#1f77b4;stroke:#1f77b4;" x="226.968449" xlink:href="#mfd5678c12e" y="162.272815"/>
    </g>
   </g>
   <g id="PathCollection_73">
    <g clip-path="url(#p7c81525953)">
     <use style="fill:#1f77b4;stroke:#1f77b4;" x="233.931016" xlink:href="#mfd5678c12e" y="159.657664"/>
    </g>
   </g>
   <g id="PathCollection_74">
    <g clip-path="url(#p7c81525953)">
     <use style="fill:#1f77b4;stroke:#1f77b4;" x="240.893583" xlink:href="#mfd5678c12e" y="156.90125"/>
    </g>
   </g>
   <g id="PathCollection_75">
    <g clip-path="url(#p7c81525953)">
     <use style="fill:#1f77b4;stroke:#1f77b4;" x="247.85615" xlink:href="#mfd5678c12e" y="154.000396"/>
    </g>
   </g>
   <g id="PathCollection_76">
    <g clip-path="url(#p7c81525953)">
     <use style="fill:#1f77b4;stroke:#1f77b4;" x="254.818717" xlink:href="#mfd5678c12e" y="150.954473"/>
    </g>
   </g>
   <g id="PathCollection_77">
    <g clip-path="url(#p7c81525953)">
     <use style="fill:#1f77b4;stroke:#1f77b4;" x="261.781283" xlink:href="#mfd5678c12e" y="147.766036"/>
    </g>
   </g>
   <g id="PathCollection_78">
    <g clip-path="url(#p7c81525953)">
     <use style="fill:#1f77b4;stroke:#1f77b4;" x="268.74385" xlink:href="#mfd5678c12e" y="144.441405"/>
    </g>
   </g>
   <g id="PathCollection_79">
    <g clip-path="url(#p7c81525953)">
     <use style="fill:#1f77b4;stroke:#1f77b4;" x="275.706417" xlink:href="#mfd5678c12e" y="140.991171"/>
    </g>
   </g>
   <g id="PathCollection_80">
    <g clip-path="url(#p7c81525953)">
     <use style="fill:#1f77b4;stroke:#1f77b4;" x="282.668984" xlink:href="#mfd5678c12e" y="137.430598"/>
    </g>
   </g>
   <g id="PathCollection_81">
    <g clip-path="url(#p7c81525953)">
     <use style="fill:#1f77b4;stroke:#1f77b4;" x="289.631551" xlink:href="#mfd5678c12e" y="133.779913"/>
    </g>
   </g>
   <g id="PathCollection_82">
    <g clip-path="url(#p7c81525953)">
     <use style="fill:#1f77b4;stroke:#1f77b4;" x="296.594118" xlink:href="#mfd5678c12e" y="130.064445"/>
    </g>
   </g>
   <g id="PathCollection_83">
    <g clip-path="url(#p7c81525953)">
     <use style="fill:#1f77b4;stroke:#1f77b4;" x="303.556684" xlink:href="#mfd5678c12e" y="126.314607"/>
    </g>
   </g>
   <g id="PathCollection_84">
    <g clip-path="url(#p7c81525953)">
     <use style="fill:#1f77b4;stroke:#1f77b4;" x="310.519251" xlink:href="#mfd5678c12e" y="122.565698"/>
    </g>
   </g>
   <g id="PathCollection_85">
    <g clip-path="url(#p7c81525953)">
     <use style="fill:#1f77b4;stroke:#1f77b4;" x="317.481818" xlink:href="#mfd5678c12e" y="118.857493"/>
    </g>
   </g>
   <g id="PathCollection_86">
    <g clip-path="url(#p7c81525953)">
     <use style="fill:#1f77b4;stroke:#1f77b4;" x="324.444385" xlink:href="#mfd5678c12e" y="115.233614"/>
    </g>
   </g>
   <g id="PathCollection_87">
    <g clip-path="url(#p7c81525953)">
     <use style="fill:#1f77b4;stroke:#1f77b4;" x="331.406952" xlink:href="#mfd5678c12e" y="111.74065"/>
    </g>
   </g>
   <g id="PathCollection_88">
    <g clip-path="url(#p7c81525953)">
     <use style="fill:#1f77b4;stroke:#1f77b4;" x="338.369519" xlink:href="#mfd5678c12e" y="108.427014"/>
    </g>
   </g>
   <g id="PathCollection_89">
    <g clip-path="url(#p7c81525953)">
     <use style="fill:#1f77b4;stroke:#1f77b4;" x="345.332086" xlink:href="#mfd5678c12e" y="105.341505"/>
    </g>
   </g>
   <g id="PathCollection_90">
    <g clip-path="url(#p7c81525953)">
     <use style="fill:#1f77b4;stroke:#1f77b4;" x="352.294652" xlink:href="#mfd5678c12e" y="102.531567"/>
    </g>
   </g>
   <g id="PathCollection_91">
    <g clip-path="url(#p7c81525953)">
     <use style="fill:#1f77b4;stroke:#1f77b4;" x="359.257219" xlink:href="#mfd5678c12e" y="100.041214"/>
    </g>
   </g>
   <g id="PathCollection_92">
    <g clip-path="url(#p7c81525953)">
     <use style="fill:#1f77b4;stroke:#1f77b4;" x="366.219786" xlink:href="#mfd5678c12e" y="97.908601"/>
    </g>
   </g>
   <g id="PathCollection_93">
    <g clip-path="url(#p7c81525953)">
     <use style="fill:#1f77b4;stroke:#1f77b4;" x="373.182353" xlink:href="#mfd5678c12e" y="96.163229"/>
    </g>
   </g>
   <g id="PathCollection_94">
    <g clip-path="url(#p7c81525953)">
     <use style="fill:#1f77b4;stroke:#1f77b4;" x="380.14492" xlink:href="#mfd5678c12e" y="94.822744"/>
    </g>
   </g>
   <g id="PathCollection_95">
    <g clip-path="url(#p7c81525953)">
     <use style="fill:#1f77b4;stroke:#1f77b4;" x="387.107487" xlink:href="#mfd5678c12e" y="93.889336"/>
    </g>
   </g>
   <g id="PathCollection_96">
    <g clip-path="url(#p7c81525953)">
     <use style="fill:#1f77b4;stroke:#1f77b4;" x="394.070053" xlink:href="#mfd5678c12e" y="93.34569"/>
    </g>
   </g>
   <g id="PathCollection_97">
    <g clip-path="url(#p7c81525953)">
     <use style="fill:#1f77b4;stroke:#1f77b4;" x="401.03262" xlink:href="#mfd5678c12e" y="93.150484"/>
    </g>
   </g>
   <g id="PathCollection_98">
    <g clip-path="url(#p7c81525953)">
     <use style="fill:#1f77b4;stroke:#1f77b4;" x="407.995187" xlink:href="#mfd5678c12e" y="93.233412"/>
    </g>
   </g>
   <g id="PathCollection_99">
    <g clip-path="url(#p7c81525953)">
     <use style="fill:#1f77b4;stroke:#1f77b4;" x="414.957754" xlink:href="#mfd5678c12e" y="93.489698"/>
    </g>
   </g>
   <g id="PathCollection_100">
    <g clip-path="url(#p7c81525953)">
     <use style="fill:#1f77b4;stroke:#1f77b4;" x="421.920321" xlink:href="#mfd5678c12e" y="93.774101"/>
    </g>
   </g>
   <g id="PathCollection_101">
    <g clip-path="url(#p7c81525953)">
     <use style="fill:#1f77b4;stroke:#1f77b4;" x="428.882888" xlink:href="#mfd5678c12e" y="93.894372"/>
    </g>
   </g>
   <g id="PathCollection_102">
    <g clip-path="url(#p7c81525953)">
     <use style="fill:#1f77b4;stroke:#1f77b4;" x="435.845455" xlink:href="#mfd5678c12e" y="93.604149"/>
    </g>
   </g>
   <g id="matplotlib.axis_1"/>
   <g id="matplotlib.axis_2"/>
   <g id="line2d_1">
    <path clip-path="url(#p7c81525953)" d="M 80.754545 189 
L 124.241578 188.889408 
L 129.956684 188.570034 
L 135.874866 188.01436 
L 142.170187 187.197146 
L 148.900668 186.096343 
L 156.153342 184.682166 
L 164.073262 182.907739 
L 172.834492 180.712088 
L 182.698128 178.005271 
L 194.157353 174.622907 
L 208.285561 170.210253 
L 228.999198 163.482497 
L 268.424733 150.658934 
L 287.455749 144.730383 
L 305.007219 139.494833 
L 320.208824 135.188573 
L 334.308021 131.423901 
L 347.827005 128.043123 
L 361.026872 124.970471 
L 374.081684 122.159446 
L 387.107487 119.582248 
L 400.162299 117.225928 
L 413.333155 115.074546 
L 426.678075 113.119978 
L 435.845455 111.904671 
L 435.845455 111.904671 
" style="fill:none;stroke:#1f77b4;stroke-dasharray:11.1,4.8;stroke-dashoffset:0;stroke-width:3;"/>
   </g>
   <g id="line2d_2">
    <path clip-path="url(#p7c81525953)" d="M 80.754545 189 
L 123.661364 188.888909 
L 128.825267 188.571778 
L 134.105214 188.023046 
L 139.675267 187.21858 
L 145.593449 186.136492 
L 151.917781 184.751107 
L 158.735294 183.026369 
L 166.133021 180.921855 
L 174.285027 178.367141 
L 183.423396 175.264654 
L 193.925267 171.458014 
L 206.660963 166.595386 
L 224.183422 159.647342 
L 270.455481 141.199177 
L 287.629813 134.654468 
L 303.701738 128.766929 
L 317.713904 123.866824 
L 330.710695 119.555523 
L 343.127273 115.669418 
L 355.224733 112.115198 
L 367.148128 108.843596 
L 378.984492 105.826466 
L 390.791845 103.045866 
L 402.657219 100.479956 
L 414.609626 98.122493 
L 426.736096 95.957911 
L 435.845455 94.478103 
L 435.845455 94.478103 
" style="fill:none;stroke:#1f77b4;stroke-linecap:square;stroke-width:3;"/>
   </g>
   <g id="patch_3">
    <path d="M 63 189 
L 63 25.92 
" style="fill:none;stroke:#000000;stroke-linecap:square;stroke-linejoin:miter;stroke-width:0.8;"/>
   </g>
   <g id="patch_4">
    <path d="M 453.6 189 
L 453.6 25.92 
" style="fill:none;stroke:#000000;stroke-linecap:square;stroke-linejoin:miter;stroke-width:0.8;"/>
   </g>
   <g id="patch_5">
    <path d="M 63 189 
L 453.6 189 
" style="fill:none;stroke:#000000;stroke-linecap:square;stroke-linejoin:miter;stroke-width:0.8;"/>
   </g>
   <g id="patch_6">
    <path d="M 63 25.92 
L 453.6 25.92 
" style="fill:none;stroke:#000000;stroke-linecap:square;stroke-linejoin:miter;stroke-width:0.8;"/>
   </g>
  </g>
 </g>
 <defs>
  <clipPath id="p7c81525953">
   <rect height="163.08" width="390.6" x="63" y="25.92"/>
  </clipPath>
 </defs>
</svg>
