<?xml version="1.0" encoding="utf-8" standalone="no"?>
<!DOCTYPE svg PUBLIC "-//W3C//DTD SVG 1.1//EN"
  "http://www.w3.org/Graphics/SVG/1.1/DTD/svg11.dtd">
<!-- Created with matplotlib (https://matplotlib.org/) -->
<svg height="216pt" version="1.1" viewBox="0 0 504 216" width="504pt" xmlns="http://www.w3.org/2000/svg" xmlns:xlink="http://www.w3.org/1999/xlink">
 <metadata>
  <rdf:RDF xmlns:cc="http://creativecommons.org/ns#" xmlns:dc="http://purl.org/dc/elements/1.1/" xmlns:rdf="http://www.w3.org/1999/02/22-rdf-syntax-ns#">
   <cc:Work>
    <dc:type rdf:resource="http://purl.org/dc/dcmitype/StillImage"/>
    <dc:date>2024-12-17T10:26:29.716654</dc:date>
    <dc:format>image/svg+xml</dc:format>
    <dc:creator>
     <cc:Agent>
      <dc:title>Matplotlib v3.3.2, https://matplotlib.org/</dc:title>
     </cc:Agent>
    </dc:creator>
   </cc:Work>
  </rdf:RDF>
 </metadata>
 <defs>
  <style type="text/css">*{stroke-linecap:butt;stroke-linejoin:round;}</style>
 </defs>
 <g id="figure_1">
  <g id="patch_1">
   <path d="M 0 216 
L 504 216 
L 504 0 
L 0 0 
z
" style="fill:none;"/>
  </g>
  <g id="axes_1">
   <g id="patch_2">
    <path d="M 63 189 
L 453.6 189 
L 453.6 25.92 
L 63 25.92 
z
" style="fill:#ffffff;"/>
   </g>
   <g id="PathCollection_1">
    <path clip-path="url(#pf51d519e47)" d="M 87.717112 191.568518 
C 88.654747 191.568518 89.554105 191.195992 90.217112 190.532985 
C 90.88012 189.869977 91.252646 188.970619 91.252646 188.032985 
C 91.252646 187.09535 90.88012 186.195992 90.217112 185.532985 
C 89.554105 184.869977 88.654747 184.497451 87.717112 184.497451 
C 86.779478 184.497451 85.88012 184.869977 85.217112 185.532985 
C 84.554105 186.195992 84.181578 187.09535 84.181578 188.032985 
C 84.181578 188.970619 84.554105 189.869977 85.217112 190.532985 
C 85.88012 191.195992 86.779478 191.568518 87.717112 191.568518 
z
" style="fill:none;stroke:#aec7e8;"/>
   </g>
   <g id="PathCollection_2">
    <path clip-path="url(#pf51d519e47)" d="M 94.679679 191.122186 
C 95.617314 191.122186 96.516671 190.74966 97.179679 190.086652 
C 97.842687 189.423644 98.215213 188.524286 98.215213 187.586652 
C 98.215213 186.649017 97.842687 185.74966 97.179679 185.086652 
C 96.516671 184.423644 95.617314 184.051118 94.679679 184.051118 
C 93.742045 184.051118 92.842687 184.423644 92.179679 185.086652 
C 91.516671 185.74966 91.144145 186.649017 91.144145 187.586652 
C 91.144145 188.524286 91.516671 189.423644 92.179679 190.086652 
C 92.842687 190.74966 93.742045 191.122186 94.679679 191.122186 
z
" style="fill:none;stroke:#aec7e8;"/>
   </g>
   <g id="PathCollection_3">
    <path clip-path="url(#pf51d519e47)" d="M 101.642246 190.381481 
C 102.579881 190.381481 103.479238 190.008954 104.142246 189.345947 
C 104.805254 188.682939 105.17778 187.783581 105.17778 186.845947 
C 105.17778 185.908312 104.805254 185.008954 104.142246 184.345947 
C 103.479238 183.682939 102.579881 183.310413 101.642246 183.310413 
C 100.704611 183.310413 99.805254 183.682939 99.142246 184.345947 
C 98.479238 185.008954 98.106712 185.908312 98.106712 186.845947 
C 98.106712 187.783581 98.479238 188.682939 99.142246 189.345947 
C 99.805254 190.008954 100.704611 190.381481 101.642246 190.381481 
z
" style="fill:none;stroke:#aec7e8;"/>
   </g>
   <g id="PathCollection_4">
    <path clip-path="url(#pf51d519e47)" d="M 108.604813 189.412465 
C 109.542447 189.412465 110.441805 189.039939 111.104813 188.376931 
C 111.767821 187.713923 112.140347 186.814566 112.140347 185.876931 
C 112.140347 184.939297 111.767821 184.039939 111.104813 183.376931 
C 110.441805 182.713923 109.542447 182.341397 108.604813 182.341397 
C 107.667178 182.341397 106.767821 182.713923 106.104813 183.376931 
C 105.441805 184.039939 105.069279 184.939297 105.069279 185.876931 
C 105.069279 186.814566 105.441805 187.713923 106.104813 188.376931 
C 106.767821 189.039939 107.667178 189.412465 108.604813 189.412465 
z
" style="fill:none;stroke:#aec7e8;"/>
   </g>
   <g id="PathCollection_5">
    <path clip-path="url(#pf51d519e47)" d="M 115.56738 188.27068 
C 116.505014 188.27068 117.404372 187.898154 118.06738 187.235147 
C 118.730387 186.572139 119.102914 185.672781 119.102914 184.735147 
C 119.102914 183.797512 118.730387 182.898154 118.06738 182.235147 
C 117.404372 181.572139 116.505014 181.199613 115.56738 181.199613 
C 114.629745 181.199613 113.730387 181.572139 113.06738 182.235147 
C 112.404372 182.898154 112.031846 183.797512 112.031846 184.735147 
C 112.031846 185.672781 112.404372 186.572139 113.06738 187.235147 
C 113.730387 187.898154 114.629745 188.27068 115.56738 188.27068 
z
" style="fill:none;stroke:#aec7e8;"/>
   </g>
   <g id="PathCollection_6">
    <path clip-path="url(#pf51d519e47)" d="M 122.529947 187.001844 
C 123.467581 187.001844 124.366939 186.629318 125.029947 185.96631 
C 125.692954 185.303302 126.06548 184.403944 126.06548 183.46631 
C 126.06548 182.528675 125.692954 181.629318 125.029947 180.96631 
C 124.366939 180.303302 123.467581 179.930776 122.529947 179.930776 
C 121.592312 179.930776 120.692954 180.303302 120.029947 180.96631 
C 119.366939 181.629318 118.994413 182.528675 118.994413 183.46631 
C 118.994413 184.403944 119.366939 185.303302 120.029947 185.96631 
C 120.692954 186.629318 121.592312 187.001844 122.529947 187.001844 
z
" style="fill:none;stroke:#aec7e8;"/>
   </g>
   <g id="PathCollection_7">
    <path clip-path="url(#pf51d519e47)" d="M 129.492513 185.642596 
C 130.430148 185.642596 131.329506 185.27007 131.992513 184.607062 
C 132.655521 183.944054 133.028047 183.044696 133.028047 182.107062 
C 133.028047 181.169427 132.655521 180.27007 131.992513 179.607062 
C 131.329506 178.944054 130.430148 178.571528 129.492513 178.571528 
C 128.554879 178.571528 127.655521 178.944054 126.992513 179.607062 
C 126.329506 180.27007 125.956979 181.169427 125.956979 182.107062 
C 125.956979 183.044696 126.329506 183.944054 126.992513 184.607062 
C 127.655521 185.27007 128.554879 185.642596 129.492513 185.642596 
z
" style="fill:none;stroke:#aec7e8;"/>
   </g>
   <g id="PathCollection_8">
    <path clip-path="url(#pf51d519e47)" d="M 136.45508 184.221292 
C 137.392715 184.221292 138.292072 183.848766 138.95508 183.185758 
C 139.618088 182.52275 139.990614 181.623392 139.990614 180.685758 
C 139.990614 179.748123 139.618088 178.848766 138.95508 178.185758 
C 138.292072 177.52275 137.392715 177.150224 136.45508 177.150224 
C 135.517446 177.150224 134.618088 177.52275 133.95508 178.185758 
C 133.292072 178.848766 132.919546 179.748123 132.919546 180.685758 
C 132.919546 181.623392 133.292072 182.52275 133.95508 183.185758 
C 134.618088 183.848766 135.517446 184.221292 136.45508 184.221292 
z
" style="fill:none;stroke:#aec7e8;"/>
   </g>
   <g id="PathCollection_9">
    <path clip-path="url(#pf51d519e47)" d="M 143.417647 182.758828 
C 144.355282 182.758828 145.254639 182.386301 145.917647 181.723294 
C 146.580655 181.060286 146.953181 180.160928 146.953181 179.223294 
C 146.953181 178.285659 146.580655 177.386301 145.917647 176.723294 
C 145.254639 176.060286 144.355282 175.68776 143.417647 175.68776 
C 142.480013 175.68776 141.580655 176.060286 140.917647 176.723294 
C 140.254639 177.386301 139.882113 178.285659 139.882113 179.223294 
C 139.882113 180.160928 140.254639 181.060286 140.917647 181.723294 
C 141.580655 182.386301 142.480013 182.758828 143.417647 182.758828 
z
" style="fill:none;stroke:#aec7e8;"/>
   </g>
   <g id="PathCollection_10">
    <path clip-path="url(#pf51d519e47)" d="M 150.380214 181.26949 
C 151.317848 181.26949 152.217206 180.896964 152.880214 180.233956 
C 153.543222 179.570948 153.915748 178.67159 153.915748 177.733956 
C 153.915748 176.796321 153.543222 175.896964 152.880214 175.233956 
C 152.217206 174.570948 151.317848 174.198422 150.380214 174.198422 
C 149.442579 174.198422 148.543222 174.570948 147.880214 175.233956 
C 147.217206 175.896964 146.84468 176.796321 146.84468 177.733956 
C 146.84468 178.67159 147.217206 179.570948 147.880214 180.233956 
C 148.543222 180.896964 149.442579 181.26949 150.380214 181.26949 
z
" style="fill:none;stroke:#aec7e8;"/>
   </g>
   <g id="PathCollection_11">
    <path clip-path="url(#pf51d519e47)" d="M 157.342781 179.761827 
C 158.280415 179.761827 159.179773 179.389301 159.842781 178.726293 
C 160.505788 178.063285 160.878315 177.163928 160.878315 176.226293 
C 160.878315 175.288659 160.505788 174.389301 159.842781 173.726293 
C 159.179773 173.063285 158.280415 172.690759 157.342781 172.690759 
C 156.405146 172.690759 155.505788 173.063285 154.842781 173.726293 
C 154.179773 174.389301 153.807247 175.288659 153.807247 176.226293 
C 153.807247 177.163928 154.179773 178.063285 154.842781 178.726293 
C 155.505788 179.389301 156.405146 179.761827 157.342781 179.761827 
z
" style="fill:none;stroke:#aec7e8;"/>
   </g>
   <g id="PathCollection_12">
    <path clip-path="url(#pf51d519e47)" d="M 164.305348 178.239531 
C 165.242982 178.239531 166.14234 177.867005 166.805348 177.203998 
C 167.468355 176.54099 167.840881 175.641632 167.840881 174.703998 
C 167.840881 173.766363 167.468355 172.867005 166.805348 172.203998 
C 166.14234 171.54099 165.242982 171.168464 164.305348 171.168464 
C 163.367713 171.168464 162.468355 171.54099 161.805348 172.203998 
C 161.14234 172.867005 160.769814 173.766363 160.769814 174.703998 
C 160.769814 175.641632 161.14234 176.54099 161.805348 177.203998 
C 162.468355 177.867005 163.367713 178.239531 164.305348 178.239531 
z
" style="fill:none;stroke:#aec7e8;"/>
   </g>
   <g id="PathCollection_13">
    <path clip-path="url(#pf51d519e47)" d="M 171.267914 176.702318 
C 172.205549 176.702318 173.104907 176.329792 173.767914 175.666784 
C 174.430922 175.003776 174.803448 174.104418 174.803448 173.166784 
C 174.803448 172.229149 174.430922 171.329792 173.767914 170.666784 
C 173.104907 170.003776 172.205549 169.63125 171.267914 169.63125 
C 170.33028 169.63125 169.430922 170.003776 168.767914 170.666784 
C 168.104907 171.329792 167.732381 172.229149 167.732381 173.166784 
C 167.732381 174.104418 168.104907 175.003776 168.767914 175.666784 
C 169.430922 176.329792 170.33028 176.702318 171.267914 176.702318 
z
" style="fill:none;stroke:#aec7e8;"/>
   </g>
   <g id="PathCollection_14">
    <path clip-path="url(#pf51d519e47)" d="M 178.230481 175.146804 
C 179.168116 175.146804 180.067474 174.774278 180.730481 174.11127 
C 181.393489 173.448262 181.766015 172.548905 181.766015 171.61127 
C 181.766015 170.673636 181.393489 169.774278 180.730481 169.11127 
C 180.067474 168.448262 179.168116 168.075736 178.230481 168.075736 
C 177.292847 168.075736 176.393489 168.448262 175.730481 169.11127 
C 175.067474 169.774278 174.694947 170.673636 174.694947 171.61127 
C 174.694947 172.548905 175.067474 173.448262 175.730481 174.11127 
C 176.393489 174.774278 177.292847 175.146804 178.230481 175.146804 
z
" style="fill:none;stroke:#aec7e8;"/>
   </g>
   <g id="PathCollection_15">
    <path clip-path="url(#pf51d519e47)" d="M 185.193048 173.56737 
C 186.130683 173.56737 187.03004 173.194844 187.693048 172.531836 
C 188.356056 171.868828 188.728582 170.969471 188.728582 170.031836 
C 188.728582 169.094202 188.356056 168.194844 187.693048 167.531836 
C 187.03004 166.868828 186.130683 166.496302 185.193048 166.496302 
C 184.255414 166.496302 183.356056 166.868828 182.693048 167.531836 
C 182.03004 168.194844 181.657514 169.094202 181.657514 170.031836 
C 181.657514 170.969471 182.03004 171.868828 182.693048 172.531836 
C 183.356056 173.194844 184.255414 173.56737 185.193048 173.56737 
z
" style="fill:none;stroke:#aec7e8;"/>
   </g>
   <g id="PathCollection_16">
    <path clip-path="url(#pf51d519e47)" d="M 192.155615 171.956998 
C 193.09325 171.956998 193.992607 171.584472 194.655615 170.921464 
C 195.318623 170.258456 195.691149 169.359099 195.691149 168.421464 
C 195.691149 167.48383 195.318623 166.584472 194.655615 165.921464 
C 193.992607 165.258456 193.09325 164.88593 192.155615 164.88593 
C 191.21798 164.88593 190.318623 165.258456 189.655615 165.921464 
C 188.992607 166.584472 188.620081 167.48383 188.620081 168.421464 
C 188.620081 169.359099 188.992607 170.258456 189.655615 170.921464 
C 190.318623 171.584472 191.21798 171.956998 192.155615 171.956998 
z
" style="fill:none;stroke:#aec7e8;"/>
   </g>
   <g id="PathCollection_17">
    <path clip-path="url(#pf51d519e47)" d="M 199.118182 170.308082 
C 200.055816 170.308082 200.955174 169.935556 201.618182 169.272549 
C 202.28119 168.609541 202.653716 167.710183 202.653716 166.772549 
C 202.653716 165.834914 202.28119 164.935556 201.618182 164.272549 
C 200.955174 163.609541 200.055816 163.237015 199.118182 163.237015 
C 198.180547 163.237015 197.28119 163.609541 196.618182 164.272549 
C 195.955174 164.935556 195.582648 165.834914 195.582648 166.772549 
C 195.582648 167.710183 195.955174 168.609541 196.618182 169.272549 
C 197.28119 169.935556 198.180547 170.308082 199.118182 170.308082 
z
" style="fill:none;stroke:#aec7e8;"/>
   </g>
   <g id="PathCollection_18">
    <path clip-path="url(#pf51d519e47)" d="M 206.080749 168.613199 
C 207.018383 168.613199 207.917741 168.240673 208.580749 167.577665 
C 209.243756 166.914658 209.616283 166.0153 209.616283 165.077665 
C 209.616283 164.140031 209.243756 163.240673 208.580749 162.577665 
C 207.917741 161.914658 207.018383 161.542131 206.080749 161.542131 
C 205.143114 161.542131 204.243756 161.914658 203.580749 162.577665 
C 202.917741 163.240673 202.545215 164.140031 202.545215 165.077665 
C 202.545215 166.0153 202.917741 166.914658 203.580749 167.577665 
C 204.243756 168.240673 205.143114 168.613199 206.080749 168.613199 
z
" style="fill:none;stroke:#aec7e8;"/>
   </g>
   <g id="PathCollection_19">
    <path clip-path="url(#pf51d519e47)" d="M 213.043316 166.865829 
C 213.98095 166.865829 214.880308 166.493303 215.543316 165.830295 
C 216.206323 165.167287 216.578849 164.267929 216.578849 163.330295 
C 216.578849 162.39266 216.206323 161.493303 215.543316 160.830295 
C 214.880308 160.167287 213.98095 159.794761 213.043316 159.794761 
C 212.105681 159.794761 211.206323 160.167287 210.543316 160.830295 
C 209.880308 161.493303 209.507782 162.39266 209.507782 163.330295 
C 209.507782 164.267929 209.880308 165.167287 210.543316 165.830295 
C 211.206323 166.493303 212.105681 166.865829 213.043316 166.865829 
z
" style="fill:none;stroke:#aec7e8;"/>
   </g>
   <g id="PathCollection_20">
    <path clip-path="url(#pf51d519e47)" d="M 220.005882 165.061024 
C 220.943517 165.061024 221.842875 164.688497 222.505882 164.02549 
C 223.16889 163.362482 223.541416 162.463124 223.541416 161.52549 
C 223.541416 160.587855 223.16889 159.688497 222.505882 159.02549 
C 221.842875 158.362482 220.943517 157.989956 220.005882 157.989956 
C 219.068248 157.989956 218.16889 158.362482 217.505882 159.02549 
C 216.842875 159.688497 216.470348 160.587855 216.470348 161.52549 
C 216.470348 162.463124 216.842875 163.362482 217.505882 164.02549 
C 218.16889 164.688497 219.068248 165.061024 220.005882 165.061024 
z
" style="fill:none;stroke:#aec7e8;"/>
   </g>
   <g id="PathCollection_21">
    <path clip-path="url(#pf51d519e47)" d="M 226.968449 163.196015 
C 227.906084 163.196015 228.805441 162.823489 229.468449 162.160481 
C 230.131457 161.497474 230.503983 160.598116 230.503983 159.660481 
C 230.503983 158.722847 230.131457 157.823489 229.468449 157.160481 
C 228.805441 156.497474 227.906084 156.124947 226.968449 156.124947 
C 226.030815 156.124947 225.131457 156.497474 224.468449 157.160481 
C 223.805441 157.823489 223.432915 158.722847 223.432915 159.660481 
C 223.432915 160.598116 223.805441 161.497474 224.468449 162.160481 
C 225.131457 162.823489 226.030815 163.196015 226.968449 163.196015 
z
" style="fill:none;stroke:#aec7e8;"/>
   </g>
   <g id="PathCollection_22">
    <path clip-path="url(#pf51d519e47)" d="M 233.931016 161.270745 
C 234.868651 161.270745 235.768008 160.898219 236.431016 160.235211 
C 237.094024 159.572204 237.46655 158.672846 237.46655 157.735211 
C 237.46655 156.797577 237.094024 155.898219 236.431016 155.235211 
C 235.768008 154.572204 234.868651 154.199678 233.931016 154.199678 
C 232.993381 154.199678 232.094024 154.572204 231.431016 155.235211 
C 230.768008 155.898219 230.395482 156.797577 230.395482 157.735211 
C 230.395482 158.672846 230.768008 159.572204 231.431016 160.235211 
C 232.094024 160.898219 232.993381 161.270745 233.931016 161.270745 
z
" style="fill:none;stroke:#aec7e8;"/>
   </g>
   <g id="PathCollection_23">
    <path clip-path="url(#pf51d519e47)" d="M 240.893583 159.28832 
C 241.831217 159.28832 242.730575 158.915794 243.393583 158.252786 
C 244.056591 157.589778 244.429117 156.69042 244.429117 155.752786 
C 244.429117 154.815151 244.056591 153.915794 243.393583 153.252786 
C 242.730575 152.589778 241.831217 152.217252 240.893583 152.217252 
C 239.955948 152.217252 239.056591 152.589778 238.393583 153.252786 
C 237.730575 153.915794 237.358049 154.815151 237.358049 155.752786 
C 237.358049 156.69042 237.730575 157.589778 238.393583 158.252786 
C 239.056591 158.915794 239.955948 159.28832 240.893583 159.28832 
z
" style="fill:none;stroke:#aec7e8;"/>
   </g>
   <g id="PathCollection_24">
    <path clip-path="url(#pf51d519e47)" d="M 247.85615 157.255375 
C 248.793784 157.255375 249.693142 156.882849 250.35615 156.219841 
C 251.019157 155.556834 251.391684 154.657476 251.391684 153.719841 
C 251.391684 152.782207 251.019157 151.882849 250.35615 151.219841 
C 249.693142 150.556834 248.793784 150.184307 247.85615 150.184307 
C 246.918515 150.184307 246.019157 150.556834 245.35615 151.219841 
C 244.693142 151.882849 244.320616 152.782207 244.320616 153.719841 
C 244.320616 154.657476 244.693142 155.556834 245.35615 156.219841 
C 246.019157 156.882849 246.918515 157.255375 247.85615 157.255375 
z
" style="fill:none;stroke:#aec7e8;"/>
   </g>
   <g id="PathCollection_25">
    <path clip-path="url(#pf51d519e47)" d="M 254.818717 155.182349 
C 255.756351 155.182349 256.655709 154.809823 257.318717 154.146815 
C 257.981724 153.483807 258.35425 152.58445 258.35425 151.646815 
C 258.35425 150.70918 257.981724 149.809823 257.318717 149.146815 
C 256.655709 148.483807 255.756351 148.111281 254.818717 148.111281 
C 253.881082 148.111281 252.981724 148.483807 252.318717 149.146815 
C 251.655709 149.809823 251.283183 150.70918 251.283183 151.646815 
C 251.283183 152.58445 251.655709 153.483807 252.318717 154.146815 
C 252.981724 154.809823 253.881082 155.182349 254.818717 155.182349 
z
" style="fill:none;stroke:#aec7e8;"/>
   </g>
   <g id="PathCollection_26">
    <path clip-path="url(#pf51d519e47)" d="M 261.781283 153.083645 
C 262.718918 153.083645 263.618276 152.711119 264.281283 152.048111 
C 264.944291 151.385103 265.316817 150.485746 265.316817 149.548111 
C 265.316817 148.610477 264.944291 147.711119 264.281283 147.048111 
C 263.618276 146.385103 262.718918 146.012577 261.781283 146.012577 
C 260.843649 146.012577 259.944291 146.385103 259.281283 147.048111 
C 258.618276 147.711119 258.24575 148.610477 258.24575 149.548111 
C 258.24575 150.485746 258.618276 151.385103 259.281283 152.048111 
C 259.944291 152.711119 260.843649 153.083645 261.781283 153.083645 
z
" style="fill:none;stroke:#aec7e8;"/>
   </g>
   <g id="PathCollection_27">
    <path clip-path="url(#pf51d519e47)" d="M 268.74385 150.977687 
C 269.681485 150.977687 270.580843 150.605161 271.24385 149.942153 
C 271.906858 149.279146 272.279384 148.379788 272.279384 147.442153 
C 272.279384 146.504519 271.906858 145.605161 271.24385 144.942153 
C 270.580843 144.279146 269.681485 143.906619 268.74385 143.906619 
C 267.806216 143.906619 266.906858 144.279146 266.24385 144.942153 
C 265.580843 145.605161 265.208316 146.504519 265.208316 147.442153 
C 265.208316 148.379788 265.580843 149.279146 266.24385 149.942153 
C 266.906858 150.605161 267.806216 150.977687 268.74385 150.977687 
z
" style="fill:none;stroke:#aec7e8;"/>
   </g>
   <g id="PathCollection_28">
    <path clip-path="url(#pf51d519e47)" d="M 275.706417 148.886852 
C 276.644052 148.886852 277.543409 148.514326 278.206417 147.851318 
C 278.869425 147.188311 279.241951 146.288953 279.241951 145.351318 
C 279.241951 144.413684 278.869425 143.514326 278.206417 142.851318 
C 277.543409 142.188311 276.644052 141.815784 275.706417 141.815784 
C 274.768783 141.815784 273.869425 142.188311 273.206417 142.851318 
C 272.543409 143.514326 272.170883 144.413684 272.170883 145.351318 
C 272.170883 146.288953 272.543409 147.188311 273.206417 147.851318 
C 273.869425 148.514326 274.768783 148.886852 275.706417 148.886852 
z
" style="fill:none;stroke:#aec7e8;"/>
   </g>
   <g id="PathCollection_29">
    <path clip-path="url(#pf51d519e47)" d="M 282.668984 146.837275 
C 283.606619 146.837275 284.505976 146.464749 285.168984 145.801741 
C 285.831992 145.138734 286.204518 144.239376 286.204518 143.301741 
C 286.204518 142.364107 285.831992 141.464749 285.168984 140.801741 
C 284.505976 140.138734 283.606619 139.766207 282.668984 139.766207 
C 281.731349 139.766207 280.831992 140.138734 280.168984 140.801741 
C 279.505976 141.464749 279.13345 142.364107 279.13345 143.301741 
C 279.13345 144.239376 279.505976 145.138734 280.168984 145.801741 
C 280.831992 146.464749 281.731349 146.837275 282.668984 146.837275 
z
" style="fill:none;stroke:#aec7e8;"/>
   </g>
   <g id="PathCollection_30">
    <path clip-path="url(#pf51d519e47)" d="M 289.631551 144.858518 
C 290.569185 144.858518 291.468543 144.485991 292.131551 143.822984 
C 292.794559 143.159976 293.167085 142.260618 293.167085 141.322984 
C 293.167085 140.385349 292.794559 139.485991 292.131551 138.822984 
C 291.468543 138.159976 290.569185 137.78745 289.631551 137.78745 
C 288.693916 137.78745 287.794559 138.159976 287.131551 138.822984 
C 286.468543 139.485991 286.096017 140.385349 286.096017 141.322984 
C 286.096017 142.260618 286.468543 143.159976 287.131551 143.822984 
C 287.794559 144.485991 288.693916 144.858518 289.631551 144.858518 
z
" style="fill:none;stroke:#aec7e8;"/>
   </g>
   <g id="PathCollection_31">
    <path clip-path="url(#pf51d519e47)" d="M 296.594118 142.983089 
C 297.531752 142.983089 298.43111 142.610563 299.094118 141.947555 
C 299.757125 141.284547 300.129652 140.385189 300.129652 139.447555 
C 300.129652 138.50992 299.757125 137.610563 299.094118 136.947555 
C 298.43111 136.284547 297.531752 135.912021 296.594118 135.912021 
C 295.656483 135.912021 294.757125 136.284547 294.094118 136.947555 
C 293.43111 137.610563 293.058584 138.50992 293.058584 139.447555 
C 293.058584 140.385189 293.43111 141.284547 294.094118 141.947555 
C 294.757125 142.610563 295.656483 142.983089 296.594118 142.983089 
z
" style="fill:none;stroke:#aec7e8;"/>
   </g>
   <g id="PathCollection_32">
    <path clip-path="url(#pf51d519e47)" d="M 303.556684 141.245817 
C 304.494319 141.245817 305.393677 140.873291 306.056684 140.210284 
C 306.719692 139.547276 307.092218 138.647918 307.092218 137.710284 
C 307.092218 136.772649 306.719692 135.873291 306.056684 135.210284 
C 305.393677 134.547276 304.494319 134.17475 303.556684 134.17475 
C 302.61905 134.17475 301.719692 134.547276 301.056684 135.210284 
C 300.393677 135.873291 300.021151 136.772649 300.021151 137.710284 
C 300.021151 138.647918 300.393677 139.547276 301.056684 140.210284 
C 301.719692 140.873291 302.61905 141.245817 303.556684 141.245817 
z
" style="fill:none;stroke:#aec7e8;"/>
   </g>
   <g id="PathCollection_33">
    <path clip-path="url(#pf51d519e47)" d="M 310.519251 139.68306 
C 311.456886 139.68306 312.356244 139.310534 313.019251 138.647526 
C 313.682259 137.984518 314.054785 137.085161 314.054785 136.147526 
C 314.054785 135.209892 313.682259 134.310534 313.019251 133.647526 
C 312.356244 132.984518 311.456886 132.611992 310.519251 132.611992 
C 309.581617 132.611992 308.682259 132.984518 308.019251 133.647526 
C 307.356244 134.310534 306.983717 135.209892 306.983717 136.147526 
C 306.983717 137.085161 307.356244 137.984518 308.019251 138.647526 
C 308.682259 139.310534 309.581617 139.68306 310.519251 139.68306 
z
" style="fill:none;stroke:#aec7e8;"/>
   </g>
   <g id="PathCollection_34">
    <path clip-path="url(#pf51d519e47)" d="M 317.481818 138.331739 
C 318.419453 138.331739 319.31881 137.959213 319.981818 137.296205 
C 320.644826 136.633198 321.017352 135.73384 321.017352 134.796205 
C 321.017352 133.858571 320.644826 132.959213 319.981818 132.296205 
C 319.31881 131.633198 318.419453 131.260672 317.481818 131.260672 
C 316.544184 131.260672 315.644826 131.633198 314.981818 132.296205 
C 314.31881 132.959213 313.946284 133.858571 313.946284 134.796205 
C 313.946284 135.73384 314.31881 136.633198 314.981818 137.296205 
C 315.644826 137.959213 316.544184 138.331739 317.481818 138.331739 
z
" style="fill:none;stroke:#aec7e8;"/>
   </g>
   <g id="PathCollection_35">
    <path clip-path="url(#pf51d519e47)" d="M 324.444385 137.228206 
C 325.38202 137.228206 326.281377 136.85568 326.944385 136.192672 
C 327.607393 135.529664 327.979919 134.630307 327.979919 133.692672 
C 327.979919 132.755038 327.607393 131.85568 326.944385 131.192672 
C 326.281377 130.529664 325.38202 130.157138 324.444385 130.157138 
C 323.50675 130.157138 322.607393 130.529664 321.944385 131.192672 
C 321.281377 131.85568 320.908851 132.755038 320.908851 133.692672 
C 320.908851 134.630307 321.281377 135.529664 321.944385 136.192672 
C 322.607393 136.85568 323.50675 137.228206 324.444385 137.228206 
z
" style="fill:none;stroke:#aec7e8;"/>
   </g>
   <g id="PathCollection_36">
    <path clip-path="url(#pf51d519e47)" d="M 331.406952 136.406917 
C 332.344586 136.406917 333.243944 136.03439 333.906952 135.371383 
C 334.56996 134.708375 334.942486 133.809017 334.942486 132.871383 
C 334.942486 131.933748 334.56996 131.03439 333.906952 130.371383 
C 333.243944 129.708375 332.344586 129.335849 331.406952 129.335849 
C 330.469317 129.335849 329.56996 129.708375 328.906952 130.371383 
C 328.243944 131.03439 327.871418 131.933748 327.871418 132.871383 
C 327.871418 133.809017 328.243944 134.708375 328.906952 135.371383 
C 329.56996 136.03439 330.469317 136.406917 331.406952 136.406917 
z
" style="fill:none;stroke:#aec7e8;"/>
   </g>
   <g id="PathCollection_37">
    <path clip-path="url(#pf51d519e47)" d="M 338.369519 135.898913 
C 339.307153 135.898913 340.206511 135.526386 340.869519 134.863379 
C 341.532526 134.200371 341.905053 133.301013 341.905053 132.363379 
C 341.905053 131.425744 341.532526 130.526386 340.869519 129.863379 
C 340.206511 129.200371 339.307153 128.827845 338.369519 128.827845 
C 337.431884 128.827845 336.532526 129.200371 335.869519 129.863379 
C 335.206511 130.526386 334.833985 131.425744 334.833985 132.363379 
C 334.833985 133.301013 335.206511 134.200371 335.869519 134.863379 
C 336.532526 135.526386 337.431884 135.898913 338.369519 135.898913 
z
" style="fill:none;stroke:#aec7e8;"/>
   </g>
   <g id="PathCollection_38">
    <path clip-path="url(#pf51d519e47)" d="M 345.332086 135.730103 
C 346.26972 135.730103 347.169078 135.357577 347.832086 134.694569 
C 348.495093 134.031562 348.867619 133.132204 348.867619 132.194569 
C 348.867619 131.256935 348.495093 130.357577 347.832086 129.694569 
C 347.169078 129.031562 346.26972 128.659035 345.332086 128.659035 
C 344.394451 128.659035 343.495093 129.031562 342.832086 129.694569 
C 342.169078 130.357577 341.796552 131.256935 341.796552 132.194569 
C 341.796552 133.132204 342.169078 134.031562 342.832086 134.694569 
C 343.495093 135.357577 344.394451 135.730103 345.332086 135.730103 
z
" style="fill:none;stroke:#aec7e8;"/>
   </g>
   <g id="PathCollection_39">
    <path clip-path="url(#pf51d519e47)" d="M 352.294652 135.919334 
C 353.232287 135.919334 354.131645 135.546808 354.794652 134.8838 
C 355.45766 134.220792 355.830186 133.321435 355.830186 132.3838 
C 355.830186 131.446166 355.45766 130.546808 354.794652 129.8838 
C 354.131645 129.220792 353.232287 128.848266 352.294652 128.848266 
C 351.357018 128.848266 350.45766 129.220792 349.794652 129.8838 
C 349.131645 130.546808 348.759119 131.446166 348.759119 132.3838 
C 348.759119 133.321435 349.131645 134.220792 349.794652 134.8838 
C 350.45766 135.546808 351.357018 135.919334 352.294652 135.919334 
z
" style="fill:none;stroke:#aec7e8;"/>
   </g>
   <g id="PathCollection_40">
    <path clip-path="url(#pf51d519e47)" d="M 359.257219 136.476238 
C 360.194854 136.476238 361.094212 136.103711 361.757219 135.440704 
C 362.420227 134.777696 362.792753 133.878338 362.792753 132.940704 
C 362.792753 132.003069 362.420227 131.103711 361.757219 130.440704 
C 361.094212 129.777696 360.194854 129.40517 359.257219 129.40517 
C 358.319585 129.40517 357.420227 129.777696 356.757219 130.440704 
C 356.094212 131.103711 355.721685 132.003069 355.721685 132.940704 
C 355.721685 133.878338 356.094212 134.777696 356.757219 135.440704 
C 357.420227 136.103711 358.319585 136.476238 359.257219 136.476238 
z
" style="fill:none;stroke:#aec7e8;"/>
   </g>
   <g id="PathCollection_41">
    <path clip-path="url(#pf51d519e47)" d="M 366.219786 137.39886 
C 367.157421 137.39886 368.056778 137.026334 368.719786 136.363326 
C 369.382794 135.700318 369.75532 134.80096 369.75532 133.863326 
C 369.75532 132.925691 369.382794 132.026334 368.719786 131.363326 
C 368.056778 130.700318 367.157421 130.327792 366.219786 130.327792 
C 365.282152 130.327792 364.382794 130.700318 363.719786 131.363326 
C 363.056778 132.026334 362.684252 132.925691 362.684252 133.863326 
C 362.684252 134.80096 363.056778 135.700318 363.719786 136.363326 
C 364.382794 137.026334 365.282152 137.39886 366.219786 137.39886 
z
" style="fill:none;stroke:#aec7e8;"/>
   </g>
   <g id="PathCollection_42">
    <path clip-path="url(#pf51d519e47)" d="M 373.182353 138.671049 
C 374.119987 138.671049 375.019345 138.298523 375.682353 137.635516 
C 376.345361 136.972508 376.717887 136.07315 376.717887 135.135516 
C 376.717887 134.197881 376.345361 133.298523 375.682353 132.635516 
C 375.019345 131.972508 374.119987 131.599982 373.182353 131.599982 
C 372.244718 131.599982 371.345361 131.972508 370.682353 132.635516 
C 370.019345 133.298523 369.646819 134.197881 369.646819 135.135516 
C 369.646819 136.07315 370.019345 136.972508 370.682353 137.635516 
C 371.345361 138.298523 372.244718 138.671049 373.182353 138.671049 
z
" style="fill:none;stroke:#aec7e8;"/>
   </g>
   <g id="PathCollection_43">
    <path clip-path="url(#pf51d519e47)" d="M 380.14492 140.259606 
C 381.082554 140.259606 381.981912 139.88708 382.64492 139.224072 
C 383.307928 138.561064 383.680454 137.661706 383.680454 136.724072 
C 383.680454 135.786437 383.307928 134.88708 382.64492 134.224072 
C 381.981912 133.561064 381.082554 133.188538 380.14492 133.188538 
C 379.207285 133.188538 378.307928 133.561064 377.64492 134.224072 
C 376.981912 134.88708 376.609386 135.786437 376.609386 136.724072 
C 376.609386 137.661706 376.981912 138.561064 377.64492 139.224072 
C 378.307928 139.88708 379.207285 140.259606 380.14492 140.259606 
z
" style="fill:none;stroke:#aec7e8;"/>
   </g>
   <g id="PathCollection_44">
    <path clip-path="url(#pf51d519e47)" d="M 387.107487 142.111174 
C 388.045121 142.111174 388.944479 141.738648 389.607487 141.075641 
C 390.270494 140.412633 390.643021 139.513275 390.643021 138.575641 
C 390.643021 137.638006 390.270494 136.738648 389.607487 136.075641 
C 388.944479 135.412633 388.045121 135.040107 387.107487 135.040107 
C 386.169852 135.040107 385.270494 135.412633 384.607487 136.075641 
C 383.944479 136.738648 383.571953 137.638006 383.571953 138.575641 
C 383.571953 139.513275 383.944479 140.412633 384.607487 141.075641 
C 385.270494 141.738648 386.169852 142.111174 387.107487 142.111174 
z
" style="fill:none;stroke:#aec7e8;"/>
   </g>
   <g id="PathCollection_45">
    <path clip-path="url(#pf51d519e47)" d="M 394.070053 144.148884 
C 395.007688 144.148884 395.907046 143.776358 396.570053 143.113351 
C 397.233061 142.450343 397.605587 141.550985 397.605587 140.613351 
C 397.605587 139.675716 397.233061 138.776358 396.570053 138.113351 
C 395.907046 137.450343 395.007688 137.077817 394.070053 137.077817 
C 393.132419 137.077817 392.233061 137.450343 391.570053 138.113351 
C 390.907046 138.776358 390.53452 139.675716 390.53452 140.613351 
C 390.53452 141.550985 390.907046 142.450343 391.570053 143.113351 
C 392.233061 143.776358 393.132419 144.148884 394.070053 144.148884 
z
" style="fill:none;stroke:#aec7e8;"/>
   </g>
   <g id="PathCollection_46">
    <path clip-path="url(#pf51d519e47)" d="M 401.03262 146.268719 
C 401.970255 146.268719 402.869613 145.896192 403.53262 145.233185 
C 404.195628 144.570177 404.568154 143.670819 404.568154 142.733185 
C 404.568154 141.79555 404.195628 140.896192 403.53262 140.233185 
C 402.869613 139.570177 401.970255 139.197651 401.03262 139.197651 
C 400.094986 139.197651 399.195628 139.570177 398.53262 140.233185 
C 397.869613 140.896192 397.497086 141.79555 397.497086 142.733185 
C 397.497086 143.670819 397.869613 144.570177 398.53262 145.233185 
C 399.195628 145.896192 400.094986 146.268719 401.03262 146.268719 
z
" style="fill:none;stroke:#aec7e8;"/>
   </g>
   <g id="PathCollection_47">
    <path clip-path="url(#pf51d519e47)" d="M 407.995187 148.335607 
C 408.932822 148.335607 409.832179 147.963081 410.495187 147.300073 
C 411.158195 146.637066 411.530721 145.737708 411.530721 144.800073 
C 411.530721 143.862439 411.158195 142.963081 410.495187 142.300073 
C 409.832179 141.637066 408.932822 141.264539 407.995187 141.264539 
C 407.057553 141.264539 406.158195 141.637066 405.495187 142.300073 
C 404.832179 142.963081 404.459653 143.862439 404.459653 144.800073 
C 404.459653 145.737708 404.832179 146.637066 405.495187 147.300073 
C 406.158195 147.963081 407.057553 148.335607 407.995187 148.335607 
z
" style="fill:none;stroke:#aec7e8;"/>
   </g>
   <g id="PathCollection_48">
    <path clip-path="url(#pf51d519e47)" d="M 414.957754 150.179239 
C 415.895389 150.179239 416.794746 149.806713 417.457754 149.143705 
C 418.120762 148.480697 418.493288 147.581339 418.493288 146.643705 
C 418.493288 145.70607 418.120762 144.806713 417.457754 144.143705 
C 416.794746 143.480697 415.895389 143.108171 414.957754 143.108171 
C 414.020119 143.108171 413.120762 143.480697 412.457754 144.143705 
C 411.794746 144.806713 411.42222 145.70607 411.42222 146.643705 
C 411.42222 147.581339 411.794746 148.480697 412.457754 149.143705 
C 413.120762 149.806713 414.020119 150.179239 414.957754 150.179239 
z
" style="fill:none;stroke:#aec7e8;"/>
   </g>
   <g id="PathCollection_49">
    <path clip-path="url(#pf51d519e47)" d="M 421.920321 151.589579 
C 422.857955 151.589579 423.757313 151.217053 424.420321 150.554045 
C 425.083329 149.891037 425.455855 148.991679 425.455855 148.054045 
C 425.455855 147.11641 425.083329 146.217053 424.420321 145.554045 
C 423.757313 144.891037 422.857955 144.518511 421.920321 144.518511 
C 420.982686 144.518511 420.083329 144.891037 419.420321 145.554045 
C 418.757313 146.217053 418.384787 147.11641 418.384787 148.054045 
C 418.384787 148.991679 418.757313 149.891037 419.420321 150.554045 
C 420.083329 151.217053 420.982686 151.589579 421.920321 151.589579 
z
" style="fill:none;stroke:#aec7e8;"/>
   </g>
   <g id="PathCollection_50">
    <path clip-path="url(#pf51d519e47)" d="M 428.882888 152.312088 
C 429.820522 152.312088 430.71988 151.939562 431.382888 151.276554 
C 432.045895 150.613546 432.418422 149.714189 432.418422 148.776554 
C 432.418422 147.83892 432.045895 146.939562 431.382888 146.276554 
C 430.71988 145.613546 429.820522 145.24102 428.882888 145.24102 
C 427.945253 145.24102 427.045895 145.613546 426.382888 146.276554 
C 425.71988 146.939562 425.347354 147.83892 425.347354 148.776554 
C 425.347354 149.714189 425.71988 150.613546 426.382888 151.276554 
C 427.045895 151.939562 427.945253 152.312088 428.882888 152.312088 
z
" style="fill:none;stroke:#aec7e8;"/>
   </g>
   <g id="PathCollection_51">
    <path clip-path="url(#pf51d519e47)" d="M 435.845455 152.042634 
C 436.783089 152.042634 437.682447 151.670107 438.345455 151.0071 
C 439.008462 150.344092 439.380988 149.444734 439.380988 148.5071 
C 439.380988 147.569465 439.008462 146.670107 438.345455 146.0071 
C 437.682447 145.344092 436.783089 144.971566 435.845455 144.971566 
C 434.90782 144.971566 434.008462 145.344092 433.345455 146.0071 
C 432.682447 146.670107 432.309921 147.569465 432.309921 148.5071 
C 432.309921 149.444734 432.682447 150.344092 433.345455 151.0071 
C 434.008462 151.670107 434.90782 152.042634 435.845455 152.042634 
z
" style="fill:none;stroke:#aec7e8;"/>
   </g>
   <g id="PathCollection_52">
    <defs>
     <path d="M 0 3.535534 
C 0.937635 3.535534 1.836992 3.163008 2.5 2.5 
C 3.163008 1.836992 3.535534 0.937635 3.535534 0 
C 3.535534 -0.937635 3.163008 -1.836992 2.5 -2.5 
C 1.836992 -3.163008 0.937635 -3.535534 0 -3.535534 
C -0.937635 -3.535534 -1.836992 -3.163008 -2.5 -2.5 
C -3.163008 -1.836992 -3.535534 -0.937635 -3.535534 0 
C -3.535534 0.937635 -3.163008 1.836992 -2.5 2.5 
C -1.836992 3.163008 -0.937635 3.535534 0 3.535534 
z
" id="m664d3552be" style="stroke:#aec7e8;"/>
    </defs>
    <g clip-path="url(#pf51d519e47)">
     <use style="fill:#aec7e8;stroke:#aec7e8;" x="87.717112" xlink:href="#m664d3552be" y="188.725257"/>
    </g>
   </g>
   <g id="PathCollection_53">
    <g clip-path="url(#pf51d519e47)">
     <use style="fill:#aec7e8;stroke:#aec7e8;" x="94.679679" xlink:href="#m664d3552be" y="188.71569"/>
    </g>
   </g>
   <g id="PathCollection_54">
    <g clip-path="url(#pf51d519e47)">
     <use style="fill:#aec7e8;stroke:#aec7e8;" x="101.642246" xlink:href="#m664d3552be" y="188.611965"/>
    </g>
   </g>
   <g id="PathCollection_55">
    <g clip-path="url(#pf51d519e47)">
     <use style="fill:#aec7e8;stroke:#aec7e8;" x="108.604813" xlink:href="#m664d3552be" y="188.383648"/>
    </g>
   </g>
   <g id="PathCollection_56">
    <g clip-path="url(#pf51d519e47)">
     <use style="fill:#aec7e8;stroke:#aec7e8;" x="115.56738" xlink:href="#m664d3552be" y="188.015355"/>
    </g>
   </g>
   <g id="PathCollection_57">
    <g clip-path="url(#pf51d519e47)">
     <use style="fill:#aec7e8;stroke:#aec7e8;" x="122.529947" xlink:href="#m664d3552be" y="187.503448"/>
    </g>
   </g>
   <g id="PathCollection_58">
    <g clip-path="url(#pf51d519e47)">
     <use style="fill:#aec7e8;stroke:#aec7e8;" x="129.492513" xlink:href="#m664d3552be" y="186.853114"/>
    </g>
   </g>
   <g id="PathCollection_59">
    <g clip-path="url(#pf51d519e47)">
     <use style="fill:#aec7e8;stroke:#aec7e8;" x="136.45508" xlink:href="#m664d3552be" y="186.075835"/>
    </g>
   </g>
   <g id="PathCollection_60">
    <g clip-path="url(#pf51d519e47)">
     <use style="fill:#aec7e8;stroke:#aec7e8;" x="143.417647" xlink:href="#m664d3552be" y="185.187201"/>
    </g>
   </g>
   <g id="PathCollection_61">
    <g clip-path="url(#pf51d519e47)">
     <use style="fill:#aec7e8;stroke:#aec7e8;" x="150.380214" xlink:href="#m664d3552be" y="184.205062"/>
    </g>
   </g>
   <g id="PathCollection_62">
    <g clip-path="url(#pf51d519e47)">
     <use style="fill:#aec7e8;stroke:#aec7e8;" x="157.342781" xlink:href="#m664d3552be" y="183.14799"/>
    </g>
   </g>
   <g id="PathCollection_63">
    <g clip-path="url(#pf51d519e47)">
     <use style="fill:#aec7e8;stroke:#aec7e8;" x="164.305348" xlink:href="#m664d3552be" y="182.034039"/>
    </g>
   </g>
   <g id="PathCollection_64">
    <g clip-path="url(#pf51d519e47)">
     <use style="fill:#aec7e8;stroke:#aec7e8;" x="171.267914" xlink:href="#m664d3552be" y="180.879769"/>
    </g>
   </g>
   <g id="PathCollection_65">
    <g clip-path="url(#pf51d519e47)">
     <use style="fill:#aec7e8;stroke:#aec7e8;" x="178.230481" xlink:href="#m664d3552be" y="179.699525"/>
    </g>
   </g>
   <g id="PathCollection_66">
    <g clip-path="url(#pf51d519e47)">
     <use style="fill:#aec7e8;stroke:#aec7e8;" x="185.193048" xlink:href="#m664d3552be" y="178.50495"/>
    </g>
   </g>
   <g id="PathCollection_67">
    <g clip-path="url(#pf51d519e47)">
     <use style="fill:#aec7e8;stroke:#aec7e8;" x="192.155615" xlink:href="#m664d3552be" y="177.304698"/>
    </g>
   </g>
   <g id="PathCollection_68">
    <g clip-path="url(#pf51d519e47)">
     <use style="fill:#aec7e8;stroke:#aec7e8;" x="199.118182" xlink:href="#m664d3552be" y="176.104344"/>
    </g>
   </g>
   <g id="PathCollection_69">
    <g clip-path="url(#pf51d519e47)">
     <use style="fill:#aec7e8;stroke:#aec7e8;" x="206.080749" xlink:href="#m664d3552be" y="174.906459"/>
    </g>
   </g>
   <g id="PathCollection_70">
    <g clip-path="url(#pf51d519e47)">
     <use style="fill:#aec7e8;stroke:#aec7e8;" x="213.043316" xlink:href="#m664d3552be" y="173.710832"/>
    </g>
   </g>
   <g id="PathCollection_71">
    <g clip-path="url(#pf51d519e47)">
     <use style="fill:#aec7e8;stroke:#aec7e8;" x="220.005882" xlink:href="#m664d3552be" y="172.514818"/>
    </g>
   </g>
   <g id="PathCollection_72">
    <g clip-path="url(#pf51d519e47)">
     <use style="fill:#aec7e8;stroke:#aec7e8;" x="226.968449" xlink:href="#m664d3552be" y="171.313794"/>
    </g>
   </g>
   <g id="PathCollection_73">
    <g clip-path="url(#pf51d519e47)">
     <use style="fill:#aec7e8;stroke:#aec7e8;" x="233.931016" xlink:href="#m664d3552be" y="170.1017"/>
    </g>
   </g>
   <g id="PathCollection_74">
    <g clip-path="url(#pf51d519e47)">
     <use style="fill:#aec7e8;stroke:#aec7e8;" x="240.893583" xlink:href="#m664d3552be" y="168.871638"/>
    </g>
   </g>
   <g id="PathCollection_75">
    <g clip-path="url(#pf51d519e47)">
     <use style="fill:#aec7e8;stroke:#aec7e8;" x="247.85615" xlink:href="#m664d3552be" y="167.616526"/>
    </g>
   </g>
   <g id="PathCollection_76">
    <g clip-path="url(#pf51d519e47)">
     <use style="fill:#aec7e8;stroke:#aec7e8;" x="254.818717" xlink:href="#m664d3552be" y="166.329767"/>
    </g>
   </g>
   <g id="PathCollection_77">
    <g clip-path="url(#pf51d519e47)">
     <use style="fill:#aec7e8;stroke:#aec7e8;" x="261.781283" xlink:href="#m664d3552be" y="165.00592"/>
    </g>
   </g>
   <g id="PathCollection_78">
    <g clip-path="url(#pf51d519e47)">
     <use style="fill:#aec7e8;stroke:#aec7e8;" x="268.74385" xlink:href="#m664d3552be" y="163.641354"/>
    </g>
   </g>
   <g id="PathCollection_79">
    <g clip-path="url(#pf51d519e47)">
     <use style="fill:#aec7e8;stroke:#aec7e8;" x="275.706417" xlink:href="#m664d3552be" y="162.234867"/>
    </g>
   </g>
   <g id="PathCollection_80">
    <g clip-path="url(#pf51d519e47)">
     <use style="fill:#aec7e8;stroke:#aec7e8;" x="282.668984" xlink:href="#m664d3552be" y="160.78824"/>
    </g>
   </g>
   <g id="PathCollection_81">
    <g clip-path="url(#pf51d519e47)">
     <use style="fill:#aec7e8;stroke:#aec7e8;" x="289.631551" xlink:href="#m664d3552be" y="159.306708"/>
    </g>
   </g>
   <g id="PathCollection_82">
    <g clip-path="url(#pf51d519e47)">
     <use style="fill:#aec7e8;stroke:#aec7e8;" x="296.594118" xlink:href="#m664d3552be" y="157.799335"/>
    </g>
   </g>
   <g id="PathCollection_83">
    <g clip-path="url(#pf51d519e47)">
     <use style="fill:#aec7e8;stroke:#aec7e8;" x="303.556684" xlink:href="#m664d3552be" y="156.27927"/>
    </g>
   </g>
   <g id="PathCollection_84">
    <g clip-path="url(#pf51d519e47)">
     <use style="fill:#aec7e8;stroke:#aec7e8;" x="310.519251" xlink:href="#m664d3552be" y="154.763845"/>
    </g>
   </g>
   <g id="PathCollection_85">
    <g clip-path="url(#pf51d519e47)">
     <use style="fill:#aec7e8;stroke:#aec7e8;" x="317.481818" xlink:href="#m664d3552be" y="153.274527"/>
    </g>
   </g>
   <g id="PathCollection_86">
    <g clip-path="url(#pf51d519e47)">
     <use style="fill:#aec7e8;stroke:#aec7e8;" x="324.444385" xlink:href="#m664d3552be" y="151.836678"/>
    </g>
   </g>
   <g id="PathCollection_87">
    <g clip-path="url(#pf51d519e47)">
     <use style="fill:#aec7e8;stroke:#aec7e8;" x="331.406952" xlink:href="#m664d3552be" y="150.479104"/>
    </g>
   </g>
   <g id="PathCollection_88">
    <g clip-path="url(#pf51d519e47)">
     <use style="fill:#aec7e8;stroke:#aec7e8;" x="338.369519" xlink:href="#m664d3552be" y="149.233391"/>
    </g>
   </g>
   <g id="PathCollection_89">
    <g clip-path="url(#pf51d519e47)">
     <use style="fill:#aec7e8;stroke:#aec7e8;" x="345.332086" xlink:href="#m664d3552be" y="148.132983"/>
    </g>
   </g>
   <g id="PathCollection_90">
    <g clip-path="url(#pf51d519e47)">
     <use style="fill:#aec7e8;stroke:#aec7e8;" x="352.294652" xlink:href="#m664d3552be" y="147.211999"/>
    </g>
   </g>
   <g id="PathCollection_91">
    <g clip-path="url(#pf51d519e47)">
     <use style="fill:#aec7e8;stroke:#aec7e8;" x="359.257219" xlink:href="#m664d3552be" y="146.503762"/>
    </g>
   </g>
   <g id="PathCollection_92">
    <g clip-path="url(#pf51d519e47)">
     <use style="fill:#aec7e8;stroke:#aec7e8;" x="366.219786" xlink:href="#m664d3552be" y="146.039015"/>
    </g>
   </g>
   <g id="PathCollection_93">
    <g clip-path="url(#pf51d519e47)">
     <use style="fill:#aec7e8;stroke:#aec7e8;" x="373.182353" xlink:href="#m664d3552be" y="145.843811"/>
    </g>
   </g>
   <g id="PathCollection_94">
    <g clip-path="url(#pf51d519e47)">
     <use style="fill:#aec7e8;stroke:#aec7e8;" x="380.14492" xlink:href="#m664d3552be" y="145.937056"/>
    </g>
   </g>
   <g id="PathCollection_95">
    <g clip-path="url(#pf51d519e47)">
     <use style="fill:#aec7e8;stroke:#aec7e8;" x="387.107487" xlink:href="#m664d3552be" y="146.32767"/>
    </g>
   </g>
   <g id="PathCollection_96">
    <g clip-path="url(#pf51d519e47)">
     <use style="fill:#aec7e8;stroke:#aec7e8;" x="394.070053" xlink:href="#m664d3552be" y="147.011369"/>
    </g>
   </g>
   <g id="PathCollection_97">
    <g clip-path="url(#pf51d519e47)">
     <use style="fill:#aec7e8;stroke:#aec7e8;" x="401.03262" xlink:href="#m664d3552be" y="147.967031"/>
    </g>
   </g>
   <g id="PathCollection_98">
    <g clip-path="url(#pf51d519e47)">
     <use style="fill:#aec7e8;stroke:#aec7e8;" x="407.995187" xlink:href="#m664d3552be" y="149.15262"/>
    </g>
   </g>
   <g id="PathCollection_99">
    <g clip-path="url(#pf51d519e47)">
     <use style="fill:#aec7e8;stroke:#aec7e8;" x="414.957754" xlink:href="#m664d3552be" y="150.500671"/>
    </g>
   </g>
   <g id="PathCollection_100">
    <g clip-path="url(#pf51d519e47)">
     <use style="fill:#aec7e8;stroke:#aec7e8;" x="421.920321" xlink:href="#m664d3552be" y="151.91329"/>
    </g>
   </g>
   <g id="PathCollection_101">
    <g clip-path="url(#pf51d519e47)">
     <use style="fill:#aec7e8;stroke:#aec7e8;" x="428.882888" xlink:href="#m664d3552be" y="153.256661"/>
    </g>
   </g>
   <g id="PathCollection_102">
    <g clip-path="url(#pf51d519e47)">
     <use style="fill:#aec7e8;stroke:#aec7e8;" x="435.845455" xlink:href="#m664d3552be" y="154.355037"/>
    </g>
   </g>
   <g id="matplotlib.axis_1"/>
   <g id="matplotlib.axis_2"/>
   <g id="line2d_1">
    <path clip-path="url(#pf51d519e47)" d="M 80.754545 189 
L 123.690374 188.889771 
L 129.34746 188.569885 
L 135.20762 188.012219 
L 141.415909 187.194886 
L 148.059358 186.092462 
L 155.225 184.673802 
L 163.028877 182.897257 
L 171.587032 180.717389 
L 181.218583 178.030088 
L 192.387701 174.675449 
L 205.993717 170.346316 
L 225.227807 163.970289 
L 269.846257 149.113211 
L 287.745856 143.426946 
L 293.664037 141.743821 
L 299.089037 140.435333 
L 304.659091 139.320971 
L 310.490241 138.382671 
L 316.582487 137.628607 
L 323.022861 137.057854 
L 329.811364 136.681407 
L 337.035027 136.505649 
L 344.751872 136.542363 
L 353.077941 136.806938 
L 362.129278 137.319927 
L 372.108957 138.112021 
L 383.278075 139.226058 
L 396.129813 140.737726 
L 411.505481 142.778506 
L 431.725936 145.701189 
L 435.845455 146.31647 
L 435.845455 146.31647 
" style="fill:none;stroke:#aec7e8;stroke-dasharray:11.1,4.8;stroke-dashoffset:0;stroke-width:3;"/>
   </g>
   <g id="line2d_2">
    <path clip-path="url(#pf51d519e47)" d="M 80.754545 189 
L 124.386631 188.889066 
L 130.681952 188.566463 
L 137.29639 188.001432 
L 144.345989 187.173848 
L 151.975802 186.051456 
L 160.330882 184.593028 
L 169.556283 182.752193 
L 180.000134 180.435303 
L 192.184626 177.496377 
L 207.299198 173.610499 
L 230.014572 167.513293 
L 269.237032 156.985897 
L 288.587166 152.035021 
L 294.882487 150.628968 
L 300.916711 149.511703 
L 307.212032 148.574164 
L 313.826471 147.81578 
L 320.818048 147.239836 
L 328.244786 146.853075 
L 336.193717 146.664268 
L 344.751872 146.686221 
L 354.064305 146.93607 
L 364.30508 147.437599 
L 375.735294 148.224874 
L 388.790107 149.352713 
L 404.281818 150.922222 
L 424.067112 153.162837 
L 435.845455 154.57017 
L 435.845455 154.57017 
" style="fill:none;stroke:#aec7e8;stroke-linecap:square;stroke-width:3;"/>
   </g>
   <g id="patch_3">
    <path d="M 63 189 
L 63 25.92 
" style="fill:none;stroke:#000000;stroke-linecap:square;stroke-linejoin:miter;stroke-width:0.8;"/>
   </g>
   <g id="patch_4">
    <path d="M 453.6 189 
L 453.6 25.92 
" style="fill:none;stroke:#000000;stroke-linecap:square;stroke-linejoin:miter;stroke-width:0.8;"/>
   </g>
   <g id="patch_5">
    <path d="M 63 189 
L 453.6 189 
" style="fill:none;stroke:#000000;stroke-linecap:square;stroke-linejoin:miter;stroke-width:0.8;"/>
   </g>
   <g id="patch_6">
    <path d="M 63 25.92 
L 453.6 25.92 
" style="fill:none;stroke:#000000;stroke-linecap:square;stroke-linejoin:miter;stroke-width:0.8;"/>
   </g>
  </g>
 </g>
 <defs>
  <clipPath id="pf51d519e47">
   <rect height="163.08" width="390.6" x="63" y="25.92"/>
  </clipPath>
 </defs>
</svg>
