<?xml version="1.0" encoding="utf-8" standalone="no"?>
<!DOCTYPE svg PUBLIC "-//W3C//DTD SVG 1.1//EN"
  "http://www.w3.org/Graphics/SVG/1.1/DTD/svg11.dtd">
<!-- Created with matplotlib (https://matplotlib.org/) -->
<svg height="216pt" version="1.1" viewBox="0 0 504 216" width="504pt" xmlns="http://www.w3.org/2000/svg" xmlns:xlink="http://www.w3.org/1999/xlink">
 <metadata>
  <rdf:RDF xmlns:cc="http://creativecommons.org/ns#" xmlns:dc="http://purl.org/dc/elements/1.1/" xmlns:rdf="http://www.w3.org/1999/02/22-rdf-syntax-ns#">
   <cc:Work>
    <dc:type rdf:resource="http://purl.org/dc/dcmitype/StillImage"/>
    <dc:date>2024-12-17T10:27:28.354722</dc:date>
    <dc:format>image/svg+xml</dc:format>
    <dc:creator>
     <cc:Agent>
      <dc:title>Matplotlib v3.3.2, https://matplotlib.org/</dc:title>
     </cc:Agent>
    </dc:creator>
   </cc:Work>
  </rdf:RDF>
 </metadata>
 <defs>
  <style type="text/css">*{stroke-linecap:butt;stroke-linejoin:round;}</style>
 </defs>
 <g id="figure_1">
  <g id="patch_1">
   <path d="M 0 216 
L 504 216 
L 504 0 
L 0 0 
z
" style="fill:none;"/>
  </g>
  <g id="axes_1">
   <g id="patch_2">
    <path d="M 63 189 
L 453.6 189 
L 453.6 25.92 
L 63 25.92 
z
" style="fill:#ffffff;"/>
   </g>
   <g id="PathCollection_1">
    <path clip-path="url(#pdc7cd2b547)" d="M 87.717112 192.538991 
C 88.654747 192.538991 89.554105 192.166465 90.217112 191.503457 
C 90.88012 190.84045 91.252646 189.941092 91.252646 189.003457 
C 91.252646 188.065823 90.88012 187.166465 90.217112 186.503457 
C 89.554105 185.84045 88.654747 185.467923 87.717112 185.467923 
C 86.779478 185.467923 85.88012 185.84045 85.217112 186.503457 
C 84.554105 187.166465 84.181578 188.065823 84.181578 189.003457 
C 84.181578 189.941092 84.554105 190.84045 85.217112 191.503457 
C 85.88012 192.166465 86.779478 192.538991 87.717112 192.538991 
z
" style="fill:none;stroke:#ff7f0e;"/>
   </g>
   <g id="PathCollection_2">
    <path clip-path="url(#pdc7cd2b547)" d="M 94.679679 192.388459 
C 95.617314 192.388459 96.516671 192.015932 97.179679 191.352925 
C 97.842687 190.689917 98.215213 189.790559 98.215213 188.852925 
C 98.215213 187.91529 97.842687 187.015932 97.179679 186.352925 
C 96.516671 185.689917 95.617314 185.317391 94.679679 185.317391 
C 93.742045 185.317391 92.842687 185.689917 92.179679 186.352925 
C 91.516671 187.015932 91.144145 187.91529 91.144145 188.852925 
C 91.144145 189.790559 91.516671 190.689917 92.179679 191.352925 
C 92.842687 192.015932 93.742045 192.388459 94.679679 192.388459 
z
" style="fill:none;stroke:#ff7f0e;"/>
   </g>
   <g id="PathCollection_3">
    <path clip-path="url(#pdc7cd2b547)" d="M 101.642246 192.204037 
C 102.579881 192.204037 103.479238 191.83151 104.142246 191.168503 
C 104.805254 190.505495 105.17778 189.606137 105.17778 188.668503 
C 105.17778 187.730868 104.805254 186.83151 104.142246 186.168503 
C 103.479238 185.505495 102.579881 185.132969 101.642246 185.132969 
C 100.704611 185.132969 99.805254 185.505495 99.142246 186.168503 
C 98.479238 186.83151 98.106712 187.730868 98.106712 188.668503 
C 98.106712 189.606137 98.479238 190.505495 99.142246 191.168503 
C 99.805254 191.83151 100.704611 192.204037 101.642246 192.204037 
z
" style="fill:none;stroke:#ff7f0e;"/>
   </g>
   <g id="PathCollection_4">
    <path clip-path="url(#pdc7cd2b547)" d="M 108.604813 191.954975 
C 109.542447 191.954975 110.441805 191.582449 111.104813 190.919441 
C 111.767821 190.256434 112.140347 189.357076 112.140347 188.419441 
C 112.140347 187.481807 111.767821 186.582449 111.104813 185.919441 
C 110.441805 185.256434 109.542447 184.883907 108.604813 184.883907 
C 107.667178 184.883907 106.767821 185.256434 106.104813 185.919441 
C 105.441805 186.582449 105.069279 187.481807 105.069279 188.419441 
C 105.069279 189.357076 105.441805 190.256434 106.104813 190.919441 
C 106.767821 191.582449 107.667178 191.954975 108.604813 191.954975 
z
" style="fill:none;stroke:#ff7f0e;"/>
   </g>
   <g id="PathCollection_5">
    <path clip-path="url(#pdc7cd2b547)" d="M 115.56738 191.61996 
C 116.505014 191.61996 117.404372 191.247434 118.06738 190.584426 
C 118.730387 189.921418 119.102914 189.02206 119.102914 188.084426 
C 119.102914 187.146791 118.730387 186.247434 118.06738 185.584426 
C 117.404372 184.921418 116.505014 184.548892 115.56738 184.548892 
C 114.629745 184.548892 113.730387 184.921418 113.06738 185.584426 
C 112.404372 186.247434 112.031846 187.146791 112.031846 188.084426 
C 112.031846 189.02206 112.404372 189.921418 113.06738 190.584426 
C 113.730387 191.247434 114.629745 191.61996 115.56738 191.61996 
z
" style="fill:none;stroke:#ff7f0e;"/>
   </g>
   <g id="PathCollection_6">
    <path clip-path="url(#pdc7cd2b547)" d="M 122.529947 191.185542 
C 123.467581 191.185542 124.366939 190.813016 125.029947 190.150008 
C 125.692954 189.487 126.06548 188.587642 126.06548 187.650008 
C 126.06548 186.712373 125.692954 185.813016 125.029947 185.150008 
C 124.366939 184.487 123.467581 184.114474 122.529947 184.114474 
C 121.592312 184.114474 120.692954 184.487 120.029947 185.150008 
C 119.366939 185.813016 118.994413 186.712373 118.994413 187.650008 
C 118.994413 188.587642 119.366939 189.487 120.029947 190.150008 
C 120.692954 190.813016 121.592312 191.185542 122.529947 191.185542 
z
" style="fill:none;stroke:#ff7f0e;"/>
   </g>
   <g id="PathCollection_7">
    <path clip-path="url(#pdc7cd2b547)" d="M 129.492513 190.644715 
C 130.430148 190.644715 131.329506 190.272189 131.992513 189.609181 
C 132.655521 188.946173 133.028047 188.046816 133.028047 187.109181 
C 133.028047 186.171546 132.655521 185.272189 131.992513 184.609181 
C 131.329506 183.946173 130.430148 183.573647 129.492513 183.573647 
C 128.554879 183.573647 127.655521 183.946173 126.992513 184.609181 
C 126.329506 185.272189 125.956979 186.171546 125.956979 187.109181 
C 125.956979 188.046816 126.329506 188.946173 126.992513 189.609181 
C 127.655521 190.272189 128.554879 190.644715 129.492513 190.644715 
z
" style="fill:none;stroke:#ff7f0e;"/>
   </g>
   <g id="PathCollection_8">
    <path clip-path="url(#pdc7cd2b547)" d="M 136.45508 189.995643 
C 137.392715 189.995643 138.292072 189.623117 138.95508 188.960109 
C 139.618088 188.297101 139.990614 187.397744 139.990614 186.460109 
C 139.990614 185.522475 139.618088 184.623117 138.95508 183.960109 
C 138.292072 183.297101 137.392715 182.924575 136.45508 182.924575 
C 135.517446 182.924575 134.618088 183.297101 133.95508 183.960109 
C 133.292072 184.623117 132.919546 185.522475 132.919546 186.460109 
C 132.919546 187.397744 133.292072 188.297101 133.95508 188.960109 
C 134.618088 189.623117 135.517446 189.995643 136.45508 189.995643 
z
" style="fill:none;stroke:#ff7f0e;"/>
   </g>
   <g id="PathCollection_9">
    <path clip-path="url(#pdc7cd2b547)" d="M 143.417647 189.240536 
C 144.355282 189.240536 145.254639 188.86801 145.917647 188.205002 
C 146.580655 187.541994 146.953181 186.642636 146.953181 185.705002 
C 146.953181 184.767367 146.580655 183.86801 145.917647 183.205002 
C 145.254639 182.541994 144.355282 182.169468 143.417647 182.169468 
C 142.480013 182.169468 141.580655 182.541994 140.917647 183.205002 
C 140.254639 183.86801 139.882113 184.767367 139.882113 185.705002 
C 139.882113 186.642636 140.254639 187.541994 140.917647 188.205002 
C 141.580655 188.86801 142.480013 189.240536 143.417647 189.240536 
z
" style="fill:none;stroke:#ff7f0e;"/>
   </g>
   <g id="PathCollection_10">
    <path clip-path="url(#pdc7cd2b547)" d="M 150.380214 188.384657 
C 151.317848 188.384657 152.217206 188.012131 152.880214 187.349123 
C 153.543222 186.686115 153.915748 185.786758 153.915748 184.849123 
C 153.915748 183.911489 153.543222 183.012131 152.880214 182.349123 
C 152.217206 181.686115 151.317848 181.313589 150.380214 181.313589 
C 149.442579 181.313589 148.543222 181.686115 147.880214 182.349123 
C 147.217206 183.012131 146.84468 183.911489 146.84468 184.849123 
C 146.84468 185.786758 147.217206 186.686115 147.880214 187.349123 
C 148.543222 188.012131 149.442579 188.384657 150.380214 188.384657 
z
" style="fill:none;stroke:#ff7f0e;"/>
   </g>
   <g id="PathCollection_11">
    <path clip-path="url(#pdc7cd2b547)" d="M 157.342781 187.435468 
C 158.280415 187.435468 159.179773 187.062942 159.842781 186.399934 
C 160.505788 185.736927 160.878315 184.837569 160.878315 183.899934 
C 160.878315 182.9623 160.505788 182.062942 159.842781 181.399934 
C 159.179773 180.736927 158.280415 180.3644 157.342781 180.3644 
C 156.405146 180.3644 155.505788 180.736927 154.842781 181.399934 
C 154.179773 182.062942 153.807247 182.9623 153.807247 183.899934 
C 153.807247 184.837569 154.179773 185.736927 154.842781 186.399934 
C 155.505788 187.062942 156.405146 187.435468 157.342781 187.435468 
z
" style="fill:none;stroke:#ff7f0e;"/>
   </g>
   <g id="PathCollection_12">
    <path clip-path="url(#pdc7cd2b547)" d="M 164.305348 186.401892 
C 165.242982 186.401892 166.14234 186.029366 166.805348 185.366358 
C 167.468355 184.70335 167.840881 183.803993 167.840881 182.866358 
C 167.840881 181.928723 167.468355 181.029366 166.805348 180.366358 
C 166.14234 179.70335 165.242982 179.330824 164.305348 179.330824 
C 163.367713 179.330824 162.468355 179.70335 161.805348 180.366358 
C 161.14234 181.029366 160.769814 181.928723 160.769814 182.866358 
C 160.769814 183.803993 161.14234 184.70335 161.805348 185.366358 
C 162.468355 186.029366 163.367713 186.401892 164.305348 186.401892 
z
" style="fill:none;stroke:#ff7f0e;"/>
   </g>
   <g id="PathCollection_13">
    <path clip-path="url(#pdc7cd2b547)" d="M 171.267914 185.29369 
C 172.205549 185.29369 173.104907 184.921163 173.767914 184.258156 
C 174.430922 183.595148 174.803448 182.69579 174.803448 181.758156 
C 174.803448 180.820521 174.430922 179.921163 173.767914 179.258156 
C 173.104907 178.595148 172.205549 178.222622 171.267914 178.222622 
C 170.33028 178.222622 169.430922 178.595148 168.767914 179.258156 
C 168.104907 179.921163 167.732381 180.820521 167.732381 181.758156 
C 167.732381 182.69579 168.104907 183.595148 168.767914 184.258156 
C 169.430922 184.921163 170.33028 185.29369 171.267914 185.29369 
z
" style="fill:none;stroke:#ff7f0e;"/>
   </g>
   <g id="PathCollection_14">
    <path clip-path="url(#pdc7cd2b547)" d="M 178.230481 184.120947 
C 179.168116 184.120947 180.067474 183.748421 180.730481 183.085413 
C 181.393489 182.422405 181.766015 181.523048 181.766015 180.585413 
C 181.766015 179.647779 181.393489 178.748421 180.730481 178.085413 
C 180.067474 177.422405 179.168116 177.049879 178.230481 177.049879 
C 177.292847 177.049879 176.393489 177.422405 175.730481 178.085413 
C 175.067474 178.748421 174.694947 179.647779 174.694947 180.585413 
C 174.694947 181.523048 175.067474 182.422405 175.730481 183.085413 
C 176.393489 183.748421 177.292847 184.120947 178.230481 184.120947 
z
" style="fill:none;stroke:#ff7f0e;"/>
   </g>
   <g id="PathCollection_15">
    <path clip-path="url(#pdc7cd2b547)" d="M 185.193048 182.893662 
C 186.130683 182.893662 187.03004 182.521136 187.693048 181.858128 
C 188.356056 181.19512 188.728582 180.295762 188.728582 179.358128 
C 188.728582 178.420493 188.356056 177.521136 187.693048 176.858128 
C 187.03004 176.19512 186.130683 175.822594 185.193048 175.822594 
C 184.255414 175.822594 183.356056 176.19512 182.693048 176.858128 
C 182.03004 177.521136 181.657514 178.420493 181.657514 179.358128 
C 181.657514 180.295762 182.03004 181.19512 182.693048 181.858128 
C 183.356056 182.521136 184.255414 182.893662 185.193048 182.893662 
z
" style="fill:none;stroke:#ff7f0e;"/>
   </g>
   <g id="PathCollection_16">
    <path clip-path="url(#pdc7cd2b547)" d="M 192.155615 181.621418 
C 193.09325 181.621418 193.992607 181.248892 194.655615 180.585884 
C 195.318623 179.922876 195.691149 179.023519 195.691149 178.085884 
C 195.691149 177.148249 195.318623 176.248892 194.655615 175.585884 
C 193.992607 174.922876 193.09325 174.55035 192.155615 174.55035 
C 191.21798 174.55035 190.318623 174.922876 189.655615 175.585884 
C 188.992607 176.248892 188.620081 177.148249 188.620081 178.085884 
C 188.620081 179.023519 188.992607 179.922876 189.655615 180.585884 
C 190.318623 181.248892 191.21798 181.621418 192.155615 181.621418 
z
" style="fill:none;stroke:#ff7f0e;"/>
   </g>
   <g id="PathCollection_17">
    <path clip-path="url(#pdc7cd2b547)" d="M 199.118182 180.31315 
C 200.055816 180.31315 200.955174 179.940624 201.618182 179.277616 
C 202.28119 178.614608 202.653716 177.715251 202.653716 176.777616 
C 202.653716 175.839982 202.28119 174.940624 201.618182 174.277616 
C 200.955174 173.614608 200.055816 173.242082 199.118182 173.242082 
C 198.180547 173.242082 197.28119 173.614608 196.618182 174.277616 
C 195.955174 174.940624 195.582648 175.839982 195.582648 176.777616 
C 195.582648 177.715251 195.955174 178.614608 196.618182 179.277616 
C 197.28119 179.940624 198.180547 180.31315 199.118182 180.31315 
z
" style="fill:none;stroke:#ff7f0e;"/>
   </g>
   <g id="PathCollection_18">
    <path clip-path="url(#pdc7cd2b547)" d="M 206.080749 178.976981 
C 207.018383 178.976981 207.917741 178.604455 208.580749 177.941448 
C 209.243756 177.27844 209.616283 176.379082 209.616283 175.441448 
C 209.616283 174.503813 209.243756 173.604455 208.580749 172.941448 
C 207.917741 172.27844 207.018383 171.905914 206.080749 171.905914 
C 205.143114 171.905914 204.243756 172.27844 203.580749 172.941448 
C 202.917741 173.604455 202.545215 174.503813 202.545215 175.441448 
C 202.545215 176.379082 202.917741 177.27844 203.580749 177.941448 
C 204.243756 178.604455 205.143114 178.976981 206.080749 178.976981 
z
" style="fill:none;stroke:#ff7f0e;"/>
   </g>
   <g id="PathCollection_19">
    <path clip-path="url(#pdc7cd2b547)" d="M 213.043316 177.620133 
C 213.98095 177.620133 214.880308 177.247607 215.543316 176.584599 
C 216.206323 175.921591 216.578849 175.022233 216.578849 174.084599 
C 216.578849 173.146964 216.206323 172.247607 215.543316 171.584599 
C 214.880308 170.921591 213.98095 170.549065 213.043316 170.549065 
C 212.105681 170.549065 211.206323 170.921591 210.543316 171.584599 
C 209.880308 172.247607 209.507782 173.146964 209.507782 174.084599 
C 209.507782 175.022233 209.880308 175.921591 210.543316 176.584599 
C 211.206323 177.247607 212.105681 177.620133 213.043316 177.620133 
z
" style="fill:none;stroke:#ff7f0e;"/>
   </g>
   <g id="PathCollection_20">
    <path clip-path="url(#pdc7cd2b547)" d="M 220.005882 176.248892 
C 220.943517 176.248892 221.842875 175.876365 222.505882 175.213358 
C 223.16889 174.55035 223.541416 173.650992 223.541416 172.713358 
C 223.541416 171.775723 223.16889 170.876365 222.505882 170.213358 
C 221.842875 169.55035 220.943517 169.177824 220.005882 169.177824 
C 219.068248 169.177824 218.16889 169.55035 217.505882 170.213358 
C 216.842875 170.876365 216.470348 171.775723 216.470348 172.713358 
C 216.470348 173.650992 216.842875 174.55035 217.505882 175.213358 
C 218.16889 175.876365 219.068248 176.248892 220.005882 176.248892 
z
" style="fill:none;stroke:#ff7f0e;"/>
   </g>
   <g id="PathCollection_21">
    <path clip-path="url(#pdc7cd2b547)" d="M 226.968449 174.868638 
C 227.906084 174.868638 228.805441 174.496112 229.468449 173.833104 
C 230.131457 173.170097 230.503983 172.270739 230.503983 171.333104 
C 230.503983 170.39547 230.131457 169.496112 229.468449 168.833104 
C 228.805441 168.170097 227.906084 167.79757 226.968449 167.79757 
C 226.030815 167.79757 225.131457 168.170097 224.468449 168.833104 
C 223.805441 169.496112 223.432915 170.39547 223.432915 171.333104 
C 223.432915 172.270739 223.805441 173.170097 224.468449 173.833104 
C 225.131457 174.496112 226.030815 174.868638 226.968449 174.868638 
z
" style="fill:none;stroke:#ff7f0e;"/>
   </g>
   <g id="PathCollection_22">
    <path clip-path="url(#pdc7cd2b547)" d="M 233.931016 173.483915 
C 234.868651 173.483915 235.768008 173.111389 236.431016 172.448381 
C 237.094024 171.785373 237.46655 170.886016 237.46655 169.948381 
C 237.46655 169.010747 237.094024 168.111389 236.431016 167.448381 
C 235.768008 166.785373 234.868651 166.412847 233.931016 166.412847 
C 232.993381 166.412847 232.094024 166.785373 231.431016 167.448381 
C 230.768008 168.111389 230.395482 169.010747 230.395482 169.948381 
C 230.395482 170.886016 230.768008 171.785373 231.431016 172.448381 
C 232.094024 173.111389 232.993381 173.483915 233.931016 173.483915 
z
" style="fill:none;stroke:#ff7f0e;"/>
   </g>
   <g id="PathCollection_23">
    <path clip-path="url(#pdc7cd2b547)" d="M 240.893583 172.098538 
C 241.831217 172.098538 242.730575 171.726012 243.393583 171.063004 
C 244.056591 170.399996 244.429117 169.500639 244.429117 168.563004 
C 244.429117 167.62537 244.056591 166.726012 243.393583 166.063004 
C 242.730575 165.399996 241.831217 165.02747 240.893583 165.02747 
C 239.955948 165.02747 239.056591 165.399996 238.393583 166.063004 
C 237.730575 166.726012 237.358049 167.62537 237.358049 168.563004 
C 237.358049 169.500639 237.730575 170.399996 238.393583 171.063004 
C 239.056591 171.726012 239.955948 172.098538 240.893583 172.098538 
z
" style="fill:none;stroke:#ff7f0e;"/>
   </g>
   <g id="PathCollection_24">
    <path clip-path="url(#pdc7cd2b547)" d="M 247.85615 170.715738 
C 248.793784 170.715738 249.693142 170.343212 250.35615 169.680204 
C 251.019157 169.017196 251.391684 168.117838 251.391684 167.180204 
C 251.391684 166.242569 251.019157 165.343212 250.35615 164.680204 
C 249.693142 164.017196 248.793784 163.64467 247.85615 163.64467 
C 246.918515 163.64467 246.019157 164.017196 245.35615 164.680204 
C 244.693142 165.343212 244.320616 166.242569 244.320616 167.180204 
C 244.320616 168.117838 244.693142 169.017196 245.35615 169.680204 
C 246.019157 170.343212 246.918515 170.715738 247.85615 170.715738 
z
" style="fill:none;stroke:#ff7f0e;"/>
   </g>
   <g id="PathCollection_25">
    <path clip-path="url(#pdc7cd2b547)" d="M 254.818717 169.338325 
C 255.756351 169.338325 256.655709 168.965799 257.318717 168.302791 
C 257.981724 167.639783 258.35425 166.740426 258.35425 165.802791 
C 258.35425 164.865157 257.981724 163.965799 257.318717 163.302791 
C 256.655709 162.639783 255.756351 162.267257 254.818717 162.267257 
C 253.881082 162.267257 252.981724 162.639783 252.318717 163.302791 
C 251.655709 163.965799 251.283183 164.865157 251.283183 165.802791 
C 251.283183 166.740426 251.655709 167.639783 252.318717 168.302791 
C 252.981724 168.965799 253.881082 169.338325 254.818717 169.338325 
z
" style="fill:none;stroke:#ff7f0e;"/>
   </g>
   <g id="PathCollection_26">
    <path clip-path="url(#pdc7cd2b547)" d="M 261.781283 167.968873 
C 262.718918 167.968873 263.618276 167.596347 264.281283 166.933339 
C 264.944291 166.270331 265.316817 165.370973 265.316817 164.433339 
C 265.316817 163.495704 264.944291 162.596347 264.281283 161.933339 
C 263.618276 161.270331 262.718918 160.897805 261.781283 160.897805 
C 260.843649 160.897805 259.944291 161.270331 259.281283 161.933339 
C 258.618276 162.596347 258.24575 163.495704 258.24575 164.433339 
C 258.24575 165.370973 258.618276 166.270331 259.281283 166.933339 
C 259.944291 167.596347 260.843649 167.968873 261.781283 167.968873 
z
" style="fill:none;stroke:#ff7f0e;"/>
   </g>
   <g id="PathCollection_27">
    <path clip-path="url(#pdc7cd2b547)" d="M 268.74385 166.609908 
C 269.681485 166.609908 270.580843 166.237382 271.24385 165.574374 
C 271.906858 164.911366 272.279384 164.012009 272.279384 163.074374 
C 272.279384 162.136739 271.906858 161.237382 271.24385 160.574374 
C 270.580843 159.911366 269.681485 159.53884 268.74385 159.53884 
C 267.806216 159.53884 266.906858 159.911366 266.24385 160.574374 
C 265.580843 161.237382 265.208316 162.136739 265.208316 163.074374 
C 265.208316 164.012009 265.580843 164.911366 266.24385 165.574374 
C 266.906858 166.237382 267.806216 166.609908 268.74385 166.609908 
z
" style="fill:none;stroke:#ff7f0e;"/>
   </g>
   <g id="PathCollection_28">
    <path clip-path="url(#pdc7cd2b547)" d="M 275.706417 165.264101 
C 276.644052 165.264101 277.543409 164.891575 278.206417 164.228567 
C 278.869425 163.56556 279.241951 162.666202 279.241951 161.728567 
C 279.241951 160.790933 278.869425 159.891575 278.206417 159.228567 
C 277.543409 158.56556 276.644052 158.193033 275.706417 158.193033 
C 274.768783 158.193033 273.869425 158.56556 273.206417 159.228567 
C 272.543409 159.891575 272.170883 160.790933 272.170883 161.728567 
C 272.170883 162.666202 272.543409 163.56556 273.206417 164.228567 
C 273.869425 164.891575 274.768783 165.264101 275.706417 165.264101 
z
" style="fill:none;stroke:#ff7f0e;"/>
   </g>
   <g id="PathCollection_29">
    <path clip-path="url(#pdc7cd2b547)" d="M 282.668984 163.934456 
C 283.606619 163.934456 284.505976 163.561929 285.168984 162.898922 
C 285.831992 162.235914 286.204518 161.336556 286.204518 160.398922 
C 286.204518 159.461287 285.831992 158.561929 285.168984 157.898922 
C 284.505976 157.235914 283.606619 156.863388 282.668984 156.863388 
C 281.731349 156.863388 280.831992 157.235914 280.168984 157.898922 
C 279.505976 158.561929 279.13345 159.461287 279.13345 160.398922 
C 279.13345 161.336556 279.505976 162.235914 280.168984 162.898922 
C 280.831992 163.561929 281.731349 163.934456 282.668984 163.934456 
z
" style="fill:none;stroke:#ff7f0e;"/>
   </g>
   <g id="PathCollection_30">
    <path clip-path="url(#pdc7cd2b547)" d="M 289.631551 162.624475 
C 290.569185 162.624475 291.468543 162.251949 292.131551 161.588941 
C 292.794559 160.925933 293.167085 160.026576 293.167085 159.088941 
C 293.167085 158.151307 292.794559 157.251949 292.131551 156.588941 
C 291.468543 155.925933 290.569185 155.553407 289.631551 155.553407 
C 288.693916 155.553407 287.794559 155.925933 287.131551 156.588941 
C 286.468543 157.251949 286.096017 158.151307 286.096017 159.088941 
C 286.096017 160.026576 286.468543 160.925933 287.131551 161.588941 
C 287.794559 162.251949 288.693916 162.624475 289.631551 162.624475 
z
" style="fill:none;stroke:#ff7f0e;"/>
   </g>
   <g id="PathCollection_31">
    <path clip-path="url(#pdc7cd2b547)" d="M 296.594118 161.338318 
C 297.531752 161.338318 298.43111 160.965792 299.094118 160.302784 
C 299.757125 159.639776 300.129652 158.740418 300.129652 157.802784 
C 300.129652 156.865149 299.757125 155.965792 299.094118 155.302784 
C 298.43111 154.639776 297.531752 154.26725 296.594118 154.26725 
C 295.656483 154.26725 294.757125 154.639776 294.094118 155.302784 
C 293.43111 155.965792 293.058584 156.865149 293.058584 157.802784 
C 293.058584 158.740418 293.43111 159.639776 294.094118 160.302784 
C 294.757125 160.965792 295.656483 161.338318 296.594118 161.338318 
z
" style="fill:none;stroke:#ff7f0e;"/>
   </g>
   <g id="PathCollection_32">
    <path clip-path="url(#pdc7cd2b547)" d="M 303.556684 160.080915 
C 304.494319 160.080915 305.393677 159.708388 306.056684 159.045381 
C 306.719692 158.382373 307.092218 157.483015 307.092218 156.545381 
C 307.092218 155.607746 306.719692 154.708388 306.056684 154.045381 
C 305.393677 153.382373 304.494319 153.009847 303.556684 153.009847 
C 302.61905 153.009847 301.719692 153.382373 301.056684 154.045381 
C 300.393677 154.708388 300.021151 155.607746 300.021151 156.545381 
C 300.021151 157.483015 300.393677 158.382373 301.056684 159.045381 
C 301.719692 159.708388 302.61905 160.080915 303.556684 160.080915 
z
" style="fill:none;stroke:#ff7f0e;"/>
   </g>
   <g id="PathCollection_33">
    <path clip-path="url(#pdc7cd2b547)" d="M 310.519251 158.858055 
C 311.456886 158.858055 312.356244 158.485529 313.019251 157.822521 
C 313.682259 157.159514 314.054785 156.260156 314.054785 155.322521 
C 314.054785 154.384887 313.682259 153.485529 313.019251 152.822521 
C 312.356244 152.159514 311.456886 151.786988 310.519251 151.786988 
C 309.581617 151.786988 308.682259 152.159514 308.019251 152.822521 
C 307.356244 153.485529 306.983717 154.384887 306.983717 155.322521 
C 306.983717 156.260156 307.356244 157.159514 308.019251 157.822521 
C 308.682259 158.485529 309.581617 158.858055 310.519251 158.858055 
z
" style="fill:none;stroke:#ff7f0e;"/>
   </g>
   <g id="PathCollection_34">
    <path clip-path="url(#pdc7cd2b547)" d="M 317.481818 157.676428 
C 318.419453 157.676428 319.31881 157.303902 319.981818 156.640894 
C 320.644826 155.977887 321.017352 155.078529 321.017352 154.140894 
C 321.017352 153.20326 320.644826 152.303902 319.981818 151.640894 
C 319.31881 150.977887 318.419453 150.60536 317.481818 150.60536 
C 316.544184 150.60536 315.644826 150.977887 314.981818 151.640894 
C 314.31881 152.303902 313.946284 153.20326 313.946284 154.140894 
C 313.946284 155.078529 314.31881 155.977887 314.981818 156.640894 
C 315.644826 157.303902 316.544184 157.676428 317.481818 157.676428 
z
" style="fill:none;stroke:#ff7f0e;"/>
   </g>
   <g id="PathCollection_35">
    <path clip-path="url(#pdc7cd2b547)" d="M 324.444385 156.54361 
C 325.38202 156.54361 326.281377 156.171083 326.944385 155.508076 
C 327.607393 154.845068 327.979919 153.94571 327.979919 153.008076 
C 327.979919 152.070441 327.607393 151.171083 326.944385 150.508076 
C 326.281377 149.845068 325.38202 149.472542 324.444385 149.472542 
C 323.50675 149.472542 322.607393 149.845068 321.944385 150.508076 
C 321.281377 151.171083 320.908851 152.070441 320.908851 153.008076 
C 320.908851 153.94571 321.281377 154.845068 321.944385 155.508076 
C 322.607393 156.171083 323.50675 156.54361 324.444385 156.54361 
z
" style="fill:none;stroke:#ff7f0e;"/>
   </g>
   <g id="PathCollection_36">
    <path clip-path="url(#pdc7cd2b547)" d="M 331.406952 155.467991 
C 332.344586 155.467991 333.243944 155.095465 333.906952 154.432457 
C 334.56996 153.769449 334.942486 152.870091 334.942486 151.932457 
C 334.942486 150.994822 334.56996 150.095465 333.906952 149.432457 
C 333.243944 148.769449 332.344586 148.396923 331.406952 148.396923 
C 330.469317 148.396923 329.56996 148.769449 328.906952 149.432457 
C 328.243944 150.095465 327.871418 150.994822 327.871418 151.932457 
C 327.871418 152.870091 328.243944 153.769449 328.906952 154.432457 
C 329.56996 155.095465 330.469317 155.467991 331.406952 155.467991 
z
" style="fill:none;stroke:#ff7f0e;"/>
   </g>
   <g id="PathCollection_37">
    <path clip-path="url(#pdc7cd2b547)" d="M 338.369519 154.458643 
C 339.307153 154.458643 340.206511 154.086116 340.869519 153.423109 
C 341.532526 152.760101 341.905053 151.860743 341.905053 150.923109 
C 341.905053 149.985474 341.532526 149.086116 340.869519 148.423109 
C 340.206511 147.760101 339.307153 147.387575 338.369519 147.387575 
C 337.431884 147.387575 336.532526 147.760101 335.869519 148.423109 
C 335.206511 149.086116 334.833985 149.985474 334.833985 150.923109 
C 334.833985 151.860743 335.206511 152.760101 335.869519 153.423109 
C 336.532526 154.086116 337.431884 154.458643 338.369519 154.458643 
z
" style="fill:none;stroke:#ff7f0e;"/>
   </g>
   <g id="PathCollection_38">
    <path clip-path="url(#pdc7cd2b547)" d="M 345.332086 153.525102 
C 346.26972 153.525102 347.169078 153.152576 347.832086 152.489568 
C 348.495093 151.82656 348.867619 150.927203 348.867619 149.989568 
C 348.867619 149.051933 348.495093 148.152576 347.832086 147.489568 
C 347.169078 146.82656 346.26972 146.454034 345.332086 146.454034 
C 344.394451 146.454034 343.495093 146.82656 342.832086 147.489568 
C 342.169078 148.152576 341.796552 149.051933 341.796552 149.989568 
C 341.796552 150.927203 342.169078 151.82656 342.832086 152.489568 
C 343.495093 153.152576 344.394451 153.525102 345.332086 153.525102 
z
" style="fill:none;stroke:#ff7f0e;"/>
   </g>
   <g id="PathCollection_39">
    <path clip-path="url(#pdc7cd2b547)" d="M 352.294652 152.677077 
C 353.232287 152.677077 354.131645 152.304551 354.794652 151.641543 
C 355.45766 150.978535 355.830186 150.079178 355.830186 149.141543 
C 355.830186 148.203909 355.45766 147.304551 354.794652 146.641543 
C 354.131645 145.978535 353.232287 145.606009 352.294652 145.606009 
C 351.357018 145.606009 350.45766 145.978535 349.794652 146.641543 
C 349.131645 147.304551 348.759119 148.203909 348.759119 149.141543 
C 348.759119 150.079178 349.131645 150.978535 349.794652 151.641543 
C 350.45766 152.304551 351.357018 152.677077 352.294652 152.677077 
z
" style="fill:none;stroke:#ff7f0e;"/>
   </g>
   <g id="PathCollection_40">
    <path clip-path="url(#pdc7cd2b547)" d="M 359.257219 151.924065 
C 360.194854 151.924065 361.094212 151.551539 361.757219 150.888531 
C 362.420227 150.225524 362.792753 149.326166 362.792753 148.388531 
C 362.792753 147.450897 362.420227 146.551539 361.757219 145.888531 
C 361.094212 145.225524 360.194854 144.852997 359.257219 144.852997 
C 358.319585 144.852997 357.420227 145.225524 356.757219 145.888531 
C 356.094212 146.551539 355.721685 147.450897 355.721685 148.388531 
C 355.721685 149.326166 356.094212 150.225524 356.757219 150.888531 
C 357.420227 151.551539 358.319585 151.924065 359.257219 151.924065 
z
" style="fill:none;stroke:#ff7f0e;"/>
   </g>
   <g id="PathCollection_41">
    <path clip-path="url(#pdc7cd2b547)" d="M 366.219786 151.27487 
C 367.157421 151.27487 368.056778 150.902343 368.719786 150.239336 
C 369.382794 149.576328 369.75532 148.67697 369.75532 147.739336 
C 369.75532 146.801701 369.382794 145.902343 368.719786 145.239336 
C 368.056778 144.576328 367.157421 144.203802 366.219786 144.203802 
C 365.282152 144.203802 364.382794 144.576328 363.719786 145.239336 
C 363.056778 145.902343 362.684252 146.801701 362.684252 147.739336 
C 362.684252 148.67697 363.056778 149.576328 363.719786 150.239336 
C 364.382794 150.902343 365.282152 151.27487 366.219786 151.27487 
z
" style="fill:none;stroke:#ff7f0e;"/>
   </g>
   <g id="PathCollection_42">
    <path clip-path="url(#pdc7cd2b547)" d="M 373.182353 150.737013 
C 374.119987 150.737013 375.019345 150.364487 375.682353 149.701479 
C 376.345361 149.038471 376.717887 148.139114 376.717887 147.201479 
C 376.717887 146.263845 376.345361 145.364487 375.682353 144.701479 
C 375.019345 144.038471 374.119987 143.665945 373.182353 143.665945 
C 372.244718 143.665945 371.345361 144.038471 370.682353 144.701479 
C 370.019345 145.364487 369.646819 146.263845 369.646819 147.201479 
C 369.646819 148.139114 370.019345 149.038471 370.682353 149.701479 
C 371.345361 150.364487 372.244718 150.737013 373.182353 150.737013 
z
" style="fill:none;stroke:#ff7f0e;"/>
   </g>
   <g id="PathCollection_43">
    <path clip-path="url(#pdc7cd2b547)" d="M 380.14492 150.316042 
C 381.082554 150.316042 381.981912 149.943516 382.64492 149.280508 
C 383.307928 148.6175 383.680454 147.718143 383.680454 146.780508 
C 383.680454 145.842874 383.307928 144.943516 382.64492 144.280508 
C 381.981912 143.6175 381.082554 143.244974 380.14492 143.244974 
C 379.207285 143.244974 378.307928 143.6175 377.64492 144.280508 
C 376.981912 144.943516 376.609386 145.842874 376.609386 146.780508 
C 376.609386 147.718143 376.981912 148.6175 377.64492 149.280508 
C 378.307928 149.943516 379.207285 150.316042 380.14492 150.316042 
z
" style="fill:none;stroke:#ff7f0e;"/>
   </g>
   <g id="PathCollection_44">
    <path clip-path="url(#pdc7cd2b547)" d="M 387.107487 150.014706 
C 388.045121 150.014706 388.944479 149.64218 389.607487 148.979172 
C 390.270494 148.316164 390.643021 147.416806 390.643021 146.479172 
C 390.643021 145.541537 390.270494 144.64218 389.607487 143.979172 
C 388.944479 143.316164 388.045121 142.943638 387.107487 142.943638 
C 386.169852 142.943638 385.270494 143.316164 384.607487 143.979172 
C 383.944479 144.64218 383.571953 145.541537 383.571953 146.479172 
C 383.571953 147.416806 383.944479 148.316164 384.607487 148.979172 
C 385.270494 149.64218 386.169852 150.014706 387.107487 150.014706 
z
" style="fill:none;stroke:#ff7f0e;"/>
   </g>
   <g id="PathCollection_45">
    <path clip-path="url(#pdc7cd2b547)" d="M 394.070053 149.832011 
C 395.007688 149.832011 395.907046 149.459485 396.570053 148.796477 
C 397.233061 148.133469 397.605587 147.234112 397.605587 146.296477 
C 397.605587 145.358843 397.233061 144.459485 396.570053 143.796477 
C 395.907046 143.133469 395.007688 142.760943 394.070053 142.760943 
C 393.132419 142.760943 392.233061 143.133469 391.570053 143.796477 
C 390.907046 144.459485 390.53452 145.358843 390.53452 146.296477 
C 390.53452 147.234112 390.907046 148.133469 391.570053 148.796477 
C 392.233061 149.459485 393.132419 149.832011 394.070053 149.832011 
z
" style="fill:none;stroke:#ff7f0e;"/>
   </g>
   <g id="PathCollection_46">
    <path clip-path="url(#pdc7cd2b547)" d="M 401.03262 149.762143 
C 401.970255 149.762143 402.869613 149.389617 403.53262 148.726609 
C 404.195628 148.063601 404.568154 147.164243 404.568154 146.226609 
C 404.568154 145.288974 404.195628 144.389617 403.53262 143.726609 
C 402.869613 143.063601 401.970255 142.691075 401.03262 142.691075 
C 400.094986 142.691075 399.195628 143.063601 398.53262 143.726609 
C 397.869613 144.389617 397.497086 145.288974 397.497086 146.226609 
C 397.497086 147.164243 397.869613 148.063601 398.53262 148.726609 
C 399.195628 149.389617 400.094986 149.762143 401.03262 149.762143 
z
" style="fill:none;stroke:#ff7f0e;"/>
   </g>
   <g id="PathCollection_47">
    <path clip-path="url(#pdc7cd2b547)" d="M 407.995187 149.793237 
C 408.932822 149.793237 409.832179 149.420711 410.495187 148.757703 
C 411.158195 148.094695 411.530721 147.195338 411.530721 146.257703 
C 411.530721 145.320068 411.158195 144.420711 410.495187 143.757703 
C 409.832179 143.094695 408.932822 142.722169 407.995187 142.722169 
C 407.057553 142.722169 406.158195 143.094695 405.495187 143.757703 
C 404.832179 144.420711 404.459653 145.320068 404.459653 146.257703 
C 404.459653 147.195338 404.832179 148.094695 405.495187 148.757703 
C 406.158195 149.420711 407.057553 149.793237 407.995187 149.793237 
z
" style="fill:none;stroke:#ff7f0e;"/>
   </g>
   <g id="PathCollection_48">
    <path clip-path="url(#pdc7cd2b547)" d="M 414.957754 149.906011 
C 415.895389 149.906011 416.794746 149.533484 417.457754 148.870477 
C 418.120762 148.207469 418.493288 147.308111 418.493288 146.370477 
C 418.493288 145.432842 418.120762 144.533484 417.457754 143.870477 
C 416.794746 143.207469 415.895389 142.834943 414.957754 142.834943 
C 414.020119 142.834943 413.120762 143.207469 412.457754 143.870477 
C 411.794746 144.533484 411.42222 145.432842 411.42222 146.370477 
C 411.42222 147.308111 411.794746 148.207469 412.457754 148.870477 
C 413.120762 149.533484 414.020119 149.906011 414.957754 149.906011 
z
" style="fill:none;stroke:#ff7f0e;"/>
   </g>
   <g id="PathCollection_49">
    <path clip-path="url(#pdc7cd2b547)" d="M 421.920321 150.072227 
C 422.857955 150.072227 423.757313 149.699701 424.420321 149.036693 
C 425.083329 148.373685 425.455855 147.474328 425.455855 146.536693 
C 425.455855 145.599059 425.083329 144.699701 424.420321 144.036693 
C 423.757313 143.373685 422.857955 143.001159 421.920321 143.001159 
C 420.982686 143.001159 420.083329 143.373685 419.420321 144.036693 
C 418.757313 144.699701 418.384787 145.599059 418.384787 146.536693 
C 418.384787 147.474328 418.757313 148.373685 419.420321 149.036693 
C 420.083329 149.699701 420.982686 150.072227 421.920321 150.072227 
z
" style="fill:none;stroke:#ff7f0e;"/>
   </g>
   <g id="PathCollection_50">
    <path clip-path="url(#pdc7cd2b547)" d="M 428.882888 150.253 
C 429.820522 150.253 430.71988 149.880474 431.382888 149.217466 
C 432.045895 148.554458 432.418422 147.6551 432.418422 146.717466 
C 432.418422 145.779831 432.045895 144.880474 431.382888 144.217466 
C 430.71988 143.554458 429.820522 143.181932 428.882888 143.181932 
C 427.945253 143.181932 427.045895 143.554458 426.382888 144.217466 
C 425.71988 144.880474 425.347354 145.779831 425.347354 146.717466 
C 425.347354 147.6551 425.71988 148.554458 426.382888 149.217466 
C 427.045895 149.880474 427.945253 150.253 428.882888 150.253 
z
" style="fill:none;stroke:#ff7f0e;"/>
   </g>
   <g id="PathCollection_51">
    <path clip-path="url(#pdc7cd2b547)" d="M 435.845455 150.396924 
C 436.783089 150.396924 437.682447 150.024398 438.345455 149.36139 
C 439.008462 148.698382 439.380988 147.799025 439.380988 146.86139 
C 439.380988 145.923756 439.008462 145.024398 438.345455 144.36139 
C 437.682447 143.698382 436.783089 143.325856 435.845455 143.325856 
C 434.90782 143.325856 434.008462 143.698382 433.345455 144.36139 
C 432.682447 145.024398 432.309921 145.923756 432.309921 146.86139 
C 432.309921 147.799025 432.682447 148.698382 433.345455 149.36139 
C 434.008462 150.024398 434.90782 150.396924 435.845455 150.396924 
z
" style="fill:none;stroke:#ff7f0e;"/>
   </g>
   <g id="PathCollection_52">
    <defs>
     <path d="M 0 3.535534 
C 0.937635 3.535534 1.836992 3.163008 2.5 2.5 
C 3.163008 1.836992 3.535534 0.937635 3.535534 0 
C 3.535534 -0.937635 3.163008 -1.836992 2.5 -2.5 
C 1.836992 -3.163008 0.937635 -3.535534 0 -3.535534 
C -0.937635 -3.535534 -1.836992 -3.163008 -2.5 -2.5 
C -3.163008 -1.836992 -3.535534 -0.937635 -3.535534 0 
C -3.535534 0.937635 -3.163008 1.836992 -2.5 2.5 
C -1.836992 3.163008 -0.937635 3.535534 0 3.535534 
z
" id="m901e949c72" style="stroke:#ff7f0e;"/>
    </defs>
    <g clip-path="url(#pdc7cd2b547)">
     <use style="fill:#ff7f0e;stroke:#ff7f0e;" x="87.717112" xlink:href="#m901e949c72" y="188.373773"/>
    </g>
   </g>
   <g id="PathCollection_53">
    <g clip-path="url(#pdc7cd2b547)">
     <use style="fill:#ff7f0e;stroke:#ff7f0e;" x="94.679679" xlink:href="#m901e949c72" y="188.005001"/>
    </g>
   </g>
   <g id="PathCollection_54">
    <g clip-path="url(#pdc7cd2b547)">
     <use style="fill:#ff7f0e;stroke:#ff7f0e;" x="101.642246" xlink:href="#m901e949c72" y="187.699167"/>
    </g>
   </g>
   <g id="PathCollection_55">
    <g clip-path="url(#pdc7cd2b547)">
     <use style="fill:#ff7f0e;stroke:#ff7f0e;" x="108.604813" xlink:href="#m901e949c72" y="187.383745"/>
    </g>
   </g>
   <g id="PathCollection_56">
    <g clip-path="url(#pdc7cd2b547)">
     <use style="fill:#ff7f0e;stroke:#ff7f0e;" x="115.56738" xlink:href="#m901e949c72" y="187.009072"/>
    </g>
   </g>
   <g id="PathCollection_57">
    <g clip-path="url(#pdc7cd2b547)">
     <use style="fill:#ff7f0e;stroke:#ff7f0e;" x="122.529947" xlink:href="#m901e949c72" y="186.543109"/>
    </g>
   </g>
   <g id="PathCollection_58">
    <g clip-path="url(#pdc7cd2b547)">
     <use style="fill:#ff7f0e;stroke:#ff7f0e;" x="129.492513" xlink:href="#m901e949c72" y="185.967876"/>
    </g>
   </g>
   <g id="PathCollection_59">
    <g clip-path="url(#pdc7cd2b547)">
     <use style="fill:#ff7f0e;stroke:#ff7f0e;" x="136.45508" xlink:href="#m901e949c72" y="185.276302"/>
    </g>
   </g>
   <g id="PathCollection_60">
    <g clip-path="url(#pdc7cd2b547)">
     <use style="fill:#ff7f0e;stroke:#ff7f0e;" x="143.417647" xlink:href="#m901e949c72" y="184.46949"/>
    </g>
   </g>
   <g id="PathCollection_61">
    <g clip-path="url(#pdc7cd2b547)">
     <use style="fill:#ff7f0e;stroke:#ff7f0e;" x="150.380214" xlink:href="#m901e949c72" y="183.554362"/>
    </g>
   </g>
   <g id="PathCollection_62">
    <g clip-path="url(#pdc7cd2b547)">
     <use style="fill:#ff7f0e;stroke:#ff7f0e;" x="157.342781" xlink:href="#m901e949c72" y="182.541667"/>
    </g>
   </g>
   <g id="PathCollection_63">
    <g clip-path="url(#pdc7cd2b547)">
     <use style="fill:#ff7f0e;stroke:#ff7f0e;" x="164.305348" xlink:href="#m901e949c72" y="181.444314"/>
    </g>
   </g>
   <g id="PathCollection_64">
    <g clip-path="url(#pdc7cd2b547)">
     <use style="fill:#ff7f0e;stroke:#ff7f0e;" x="171.267914" xlink:href="#m901e949c72" y="180.276031"/>
    </g>
   </g>
   <g id="PathCollection_65">
    <g clip-path="url(#pdc7cd2b547)">
     <use style="fill:#ff7f0e;stroke:#ff7f0e;" x="178.230481" xlink:href="#m901e949c72" y="179.050298"/>
    </g>
   </g>
   <g id="PathCollection_66">
    <g clip-path="url(#pdc7cd2b547)">
     <use style="fill:#ff7f0e;stroke:#ff7f0e;" x="185.193048" xlink:href="#m901e949c72" y="177.779558"/>
    </g>
   </g>
   <g id="PathCollection_67">
    <g clip-path="url(#pdc7cd2b547)">
     <use style="fill:#ff7f0e;stroke:#ff7f0e;" x="192.155615" xlink:href="#m901e949c72" y="176.47466"/>
    </g>
   </g>
   <g id="PathCollection_68">
    <g clip-path="url(#pdc7cd2b547)">
     <use style="fill:#ff7f0e;stroke:#ff7f0e;" x="199.118182" xlink:href="#m901e949c72" y="175.144523"/>
    </g>
   </g>
   <g id="PathCollection_69">
    <g clip-path="url(#pdc7cd2b547)">
     <use style="fill:#ff7f0e;stroke:#ff7f0e;" x="206.080749" xlink:href="#m901e949c72" y="173.795996"/>
    </g>
   </g>
   <g id="PathCollection_70">
    <g clip-path="url(#pdc7cd2b547)">
     <use style="fill:#ff7f0e;stroke:#ff7f0e;" x="213.043316" xlink:href="#m901e949c72" y="172.433882"/>
    </g>
   </g>
   <g id="PathCollection_71">
    <g clip-path="url(#pdc7cd2b547)">
     <use style="fill:#ff7f0e;stroke:#ff7f0e;" x="220.005882" xlink:href="#m901e949c72" y="171.061119"/>
    </g>
   </g>
   <g id="PathCollection_72">
    <g clip-path="url(#pdc7cd2b547)">
     <use style="fill:#ff7f0e;stroke:#ff7f0e;" x="226.968449" xlink:href="#m901e949c72" y="169.679076"/>
    </g>
   </g>
   <g id="PathCollection_73">
    <g clip-path="url(#pdc7cd2b547)">
     <use style="fill:#ff7f0e;stroke:#ff7f0e;" x="233.931016" xlink:href="#m901e949c72" y="168.287953"/>
    </g>
   </g>
   <g id="PathCollection_74">
    <g clip-path="url(#pdc7cd2b547)">
     <use style="fill:#ff7f0e;stroke:#ff7f0e;" x="240.893583" xlink:href="#m901e949c72" y="166.887255"/>
    </g>
   </g>
   <g id="PathCollection_75">
    <g clip-path="url(#pdc7cd2b547)">
     <use style="fill:#ff7f0e;stroke:#ff7f0e;" x="247.85615" xlink:href="#m901e949c72" y="165.476321"/>
    </g>
   </g>
   <g id="PathCollection_76">
    <g clip-path="url(#pdc7cd2b547)">
     <use style="fill:#ff7f0e;stroke:#ff7f0e;" x="254.818717" xlink:href="#m901e949c72" y="164.054881"/>
    </g>
   </g>
   <g id="PathCollection_77">
    <g clip-path="url(#pdc7cd2b547)">
     <use style="fill:#ff7f0e;stroke:#ff7f0e;" x="261.781283" xlink:href="#m901e949c72" y="162.623619"/>
    </g>
   </g>
   <g id="PathCollection_78">
    <g clip-path="url(#pdc7cd2b547)">
     <use style="fill:#ff7f0e;stroke:#ff7f0e;" x="268.74385" xlink:href="#m901e949c72" y="161.184718"/>
    </g>
   </g>
   <g id="PathCollection_79">
    <g clip-path="url(#pdc7cd2b547)">
     <use style="fill:#ff7f0e;stroke:#ff7f0e;" x="275.706417" xlink:href="#m901e949c72" y="159.742366"/>
    </g>
   </g>
   <g id="PathCollection_80">
    <g clip-path="url(#pdc7cd2b547)">
     <use style="fill:#ff7f0e;stroke:#ff7f0e;" x="282.668984" xlink:href="#m901e949c72" y="158.303189"/>
    </g>
   </g>
   <g id="PathCollection_81">
    <g clip-path="url(#pdc7cd2b547)">
     <use style="fill:#ff7f0e;stroke:#ff7f0e;" x="289.631551" xlink:href="#m901e949c72" y="156.876608"/>
    </g>
   </g>
   <g id="PathCollection_82">
    <g clip-path="url(#pdc7cd2b547)">
     <use style="fill:#ff7f0e;stroke:#ff7f0e;" x="296.594118" xlink:href="#m901e949c72" y="155.475071"/>
    </g>
   </g>
   <g id="PathCollection_83">
    <g clip-path="url(#pdc7cd2b547)">
     <use style="fill:#ff7f0e;stroke:#ff7f0e;" x="303.556684" xlink:href="#m901e949c72" y="154.114159"/>
    </g>
   </g>
   <g id="PathCollection_84">
    <g clip-path="url(#pdc7cd2b547)">
     <use style="fill:#ff7f0e;stroke:#ff7f0e;" x="310.519251" xlink:href="#m901e949c72" y="152.81253"/>
    </g>
   </g>
   <g id="PathCollection_85">
    <g clip-path="url(#pdc7cd2b547)">
     <use style="fill:#ff7f0e;stroke:#ff7f0e;" x="317.481818" xlink:href="#m901e949c72" y="151.591676"/>
    </g>
   </g>
   <g id="PathCollection_86">
    <g clip-path="url(#pdc7cd2b547)">
     <use style="fill:#ff7f0e;stroke:#ff7f0e;" x="324.444385" xlink:href="#m901e949c72" y="150.475477"/>
    </g>
   </g>
   <g id="PathCollection_87">
    <g clip-path="url(#pdc7cd2b547)">
     <use style="fill:#ff7f0e;stroke:#ff7f0e;" x="331.406952" xlink:href="#m901e949c72" y="149.48953"/>
    </g>
   </g>
   <g id="PathCollection_88">
    <g clip-path="url(#pdc7cd2b547)">
     <use style="fill:#ff7f0e;stroke:#ff7f0e;" x="338.369519" xlink:href="#m901e949c72" y="148.660215"/>
    </g>
   </g>
   <g id="PathCollection_89">
    <g clip-path="url(#pdc7cd2b547)">
     <use style="fill:#ff7f0e;stroke:#ff7f0e;" x="345.332086" xlink:href="#m901e949c72" y="148.01349"/>
    </g>
   </g>
   <g id="PathCollection_90">
    <g clip-path="url(#pdc7cd2b547)">
     <use style="fill:#ff7f0e;stroke:#ff7f0e;" x="352.294652" xlink:href="#m901e949c72" y="147.573385"/>
    </g>
   </g>
   <g id="PathCollection_91">
    <g clip-path="url(#pdc7cd2b547)">
     <use style="fill:#ff7f0e;stroke:#ff7f0e;" x="359.257219" xlink:href="#m901e949c72" y="147.36017"/>
    </g>
   </g>
   <g id="PathCollection_92">
    <g clip-path="url(#pdc7cd2b547)">
     <use style="fill:#ff7f0e;stroke:#ff7f0e;" x="366.219786" xlink:href="#m901e949c72" y="147.388176"/>
    </g>
   </g>
   <g id="PathCollection_93">
    <g clip-path="url(#pdc7cd2b547)">
     <use style="fill:#ff7f0e;stroke:#ff7f0e;" x="373.182353" xlink:href="#m901e949c72" y="147.66325"/>
    </g>
   </g>
   <g id="PathCollection_94">
    <g clip-path="url(#pdc7cd2b547)">
     <use style="fill:#ff7f0e;stroke:#ff7f0e;" x="380.14492" xlink:href="#m901e949c72" y="148.179801"/>
    </g>
   </g>
   <g id="PathCollection_95">
    <g clip-path="url(#pdc7cd2b547)">
     <use style="fill:#ff7f0e;stroke:#ff7f0e;" x="387.107487" xlink:href="#m901e949c72" y="148.917447"/>
    </g>
   </g>
   <g id="PathCollection_96">
    <g clip-path="url(#pdc7cd2b547)">
     <use style="fill:#ff7f0e;stroke:#ff7f0e;" x="394.070053" xlink:href="#m901e949c72" y="149.837202"/>
    </g>
   </g>
   <g id="PathCollection_97">
    <g clip-path="url(#pdc7cd2b547)">
     <use style="fill:#ff7f0e;stroke:#ff7f0e;" x="401.03262" xlink:href="#m901e949c72" y="150.877213"/>
    </g>
   </g>
   <g id="PathCollection_98">
    <g clip-path="url(#pdc7cd2b547)">
     <use style="fill:#ff7f0e;stroke:#ff7f0e;" x="407.995187" xlink:href="#m901e949c72" y="151.947993"/>
    </g>
   </g>
   <g id="PathCollection_99">
    <g clip-path="url(#pdc7cd2b547)">
     <use style="fill:#ff7f0e;stroke:#ff7f0e;" x="414.957754" xlink:href="#m901e949c72" y="152.927158"/>
    </g>
   </g>
   <g id="PathCollection_100">
    <g clip-path="url(#pdc7cd2b547)">
     <use style="fill:#ff7f0e;stroke:#ff7f0e;" x="421.920321" xlink:href="#m901e949c72" y="153.653609"/>
    </g>
   </g>
   <g id="PathCollection_101">
    <g clip-path="url(#pdc7cd2b547)">
     <use style="fill:#ff7f0e;stroke:#ff7f0e;" x="428.882888" xlink:href="#m901e949c72" y="153.921175"/>
    </g>
   </g>
   <g id="PathCollection_102">
    <g clip-path="url(#pdc7cd2b547)">
     <use style="fill:#ff7f0e;stroke:#ff7f0e;" x="435.845455" xlink:href="#m901e949c72" y="153.471651"/>
    </g>
   </g>
   <g id="matplotlib.axis_1"/>
   <g id="matplotlib.axis_2"/>
   <g id="line2d_1">
    <path clip-path="url(#pdc7cd2b547)" d="M 80.754545 189 
L 125.343984 188.889561 
L 132.161497 188.564952 
L 139.35615 187.996952 
L 147.131016 187.156572 
L 155.602139 186.013007 
L 164.943583 184.523053 
L 175.445455 182.617638 
L 187.600936 180.179533 
L 202.425401 176.96963 
L 223.110027 172.243764 
L 276.605749 159.934248 
L 296.187968 155.701155 
L 307.212032 153.533384 
L 316.640508 151.904017 
L 325.517781 150.594543 
L 334.191979 149.539316 
L 342.866176 148.708372 
L 351.656417 148.090162 
L 360.678743 147.679134 
L 370.049198 147.475916 
L 379.883824 147.486653 
L 390.327674 147.722713 
L 401.554813 148.201756 
L 413.826337 148.951624 
L 427.519385 150.01574 
L 435.845455 150.757513 
L 435.845455 150.757513 
" style="fill:none;stroke:#ff7f0e;stroke-dasharray:11.1,4.8;stroke-dashoffset:0;stroke-width:3;"/>
   </g>
   <g id="line2d_2">
    <path clip-path="url(#pdc7cd2b547)" d="M 80.754545 189 
L 125.372995 188.889596 
L 132.219519 188.564873 
L 139.443182 187.99702 
L 147.247059 187.157466 
L 155.747193 186.015868 
L 165.146658 184.524669 
L 175.706551 182.619344 
L 187.949064 180.178136 
L 202.947594 176.950502 
L 224.06738 172.157363 
L 275.706417 160.365028 
L 295.723797 156.062578 
L 306.921925 153.868712 
L 316.408422 152.234526 
L 325.343717 150.920235 
L 334.046925 149.86421 
L 342.750134 149.03221 
L 351.569385 148.412829 
L 360.620722 148.000548 
L 370.020187 147.795944 
L 379.883824 147.805045 
L 390.356684 148.03904 
L 401.641845 148.516836 
L 413.97139 149.265442 
L 427.751471 150.330068 
L 435.845455 151.046059 
L 435.845455 151.046059 
" style="fill:none;stroke:#ff7f0e;stroke-linecap:square;stroke-width:3;"/>
   </g>
   <g id="patch_3">
    <path d="M 63 189 
L 63 25.92 
" style="fill:none;stroke:#000000;stroke-linecap:square;stroke-linejoin:miter;stroke-width:0.8;"/>
   </g>
   <g id="patch_4">
    <path d="M 453.6 189 
L 453.6 25.92 
" style="fill:none;stroke:#000000;stroke-linecap:square;stroke-linejoin:miter;stroke-width:0.8;"/>
   </g>
   <g id="patch_5">
    <path d="M 63 189 
L 453.6 189 
" style="fill:none;stroke:#000000;stroke-linecap:square;stroke-linejoin:miter;stroke-width:0.8;"/>
   </g>
   <g id="patch_6">
    <path d="M 63 25.92 
L 453.6 25.92 
" style="fill:none;stroke:#000000;stroke-linecap:square;stroke-linejoin:miter;stroke-width:0.8;"/>
   </g>
  </g>
 </g>
 <defs>
  <clipPath id="pdc7cd2b547">
   <rect height="163.08" width="390.6" x="63" y="25.92"/>
  </clipPath>
 </defs>
</svg>
