<?xml version="1.0" encoding="utf-8" standalone="no"?>
<!DOCTYPE svg PUBLIC "-//W3C//DTD SVG 1.1//EN"
  "http://www.w3.org/Graphics/SVG/1.1/DTD/svg11.dtd">
<!-- Created with matplotlib (https://matplotlib.org/) -->
<svg height="216pt" version="1.1" viewBox="0 0 504 216" width="504pt" xmlns="http://www.w3.org/2000/svg" xmlns:xlink="http://www.w3.org/1999/xlink">
 <metadata>
  <rdf:RDF xmlns:cc="http://creativecommons.org/ns#" xmlns:dc="http://purl.org/dc/elements/1.1/" xmlns:rdf="http://www.w3.org/1999/02/22-rdf-syntax-ns#">
   <cc:Work>
    <dc:type rdf:resource="http://purl.org/dc/dcmitype/StillImage"/>
    <dc:date>2024-12-17T10:28:50.721535</dc:date>
    <dc:format>image/svg+xml</dc:format>
    <dc:creator>
     <cc:Agent>
      <dc:title>Matplotlib v3.3.2, https://matplotlib.org/</dc:title>
     </cc:Agent>
    </dc:creator>
   </cc:Work>
  </rdf:RDF>
 </metadata>
 <defs>
  <style type="text/css">*{stroke-linecap:butt;stroke-linejoin:round;}</style>
 </defs>
 <g id="figure_1">
  <g id="patch_1">
   <path d="M 0 216 
L 504 216 
L 504 0 
L 0 0 
z
" style="fill:none;"/>
  </g>
  <g id="axes_1">
   <g id="patch_2">
    <path d="M 63 189 
L 453.6 189 
L 453.6 25.92 
L 63 25.92 
z
" style="fill:#ffffff;"/>
   </g>
   <g id="PathCollection_1">
    <path clip-path="url(#pfeffbb08f7)" d="M 87.717112 192.519585 
C 88.654747 192.519585 89.554105 192.147059 90.217112 191.484051 
C 90.88012 190.821043 91.252646 189.921685 91.252646 188.984051 
C 91.252646 188.046416 90.88012 187.147059 90.217112 186.484051 
C 89.554105 185.821043 88.654747 185.448517 87.717112 185.448517 
C 86.779478 185.448517 85.88012 185.821043 85.217112 186.484051 
C 84.554105 187.147059 84.181578 188.046416 84.181578 188.984051 
C 84.181578 189.921685 84.554105 190.821043 85.217112 191.484051 
C 85.88012 192.147059 86.779478 192.519585 87.717112 192.519585 
z
" style="fill:none;stroke:#2ca02c;"/>
   </g>
   <g id="PathCollection_2">
    <path clip-path="url(#pfeffbb08f7)" d="M 94.679679 192.482153 
C 95.617314 192.482153 96.516671 192.109626 97.179679 191.446619 
C 97.842687 190.783611 98.215213 189.884253 98.215213 188.946619 
C 98.215213 188.008984 97.842687 187.109626 97.179679 186.446619 
C 96.516671 185.783611 95.617314 185.411085 94.679679 185.411085 
C 93.742045 185.411085 92.842687 185.783611 92.179679 186.446619 
C 91.516671 187.109626 91.144145 188.008984 91.144145 188.946619 
C 91.144145 189.884253 91.516671 190.783611 92.179679 191.446619 
C 92.842687 192.109626 93.742045 192.482153 94.679679 192.482153 
z
" style="fill:none;stroke:#2ca02c;"/>
   </g>
   <g id="PathCollection_3">
    <path clip-path="url(#pfeffbb08f7)" d="M 101.642246 192.333326 
C 102.579881 192.333326 103.479238 191.9608 104.142246 191.297793 
C 104.805254 190.634785 105.17778 189.735427 105.17778 188.797793 
C 105.17778 187.860158 104.805254 186.9608 104.142246 186.297793 
C 103.479238 185.634785 102.579881 185.262259 101.642246 185.262259 
C 100.704611 185.262259 99.805254 185.634785 99.142246 186.297793 
C 98.479238 186.9608 98.106712 187.860158 98.106712 188.797793 
C 98.106712 189.735427 98.479238 190.634785 99.142246 191.297793 
C 99.805254 191.9608 100.704611 192.333326 101.642246 192.333326 
z
" style="fill:none;stroke:#2ca02c;"/>
   </g>
   <g id="PathCollection_4">
    <path clip-path="url(#pfeffbb08f7)" d="M 108.604813 192.040281 
C 109.542447 192.040281 110.441805 191.667755 111.104813 191.004747 
C 111.767821 190.341739 112.140347 189.442382 112.140347 188.504747 
C 112.140347 187.567113 111.767821 186.667755 111.104813 186.004747 
C 110.441805 185.341739 109.542447 184.969213 108.604813 184.969213 
C 107.667178 184.969213 106.767821 185.341739 106.104813 186.004747 
C 105.441805 186.667755 105.069279 187.567113 105.069279 188.504747 
C 105.069279 189.442382 105.441805 190.341739 106.104813 191.004747 
C 106.767821 191.667755 107.667178 192.040281 108.604813 192.040281 
z
" style="fill:none;stroke:#2ca02c;"/>
   </g>
   <g id="PathCollection_5">
    <path clip-path="url(#pfeffbb08f7)" d="M 115.56738 191.584767 
C 116.505014 191.584767 117.404372 191.212241 118.06738 190.549233 
C 118.730387 189.886226 119.102914 188.986868 119.102914 188.049233 
C 119.102914 187.111599 118.730387 186.212241 118.06738 185.549233 
C 117.404372 184.886226 116.505014 184.5137 115.56738 184.5137 
C 114.629745 184.5137 113.730387 184.886226 113.06738 185.549233 
C 112.404372 186.212241 112.031846 187.111599 112.031846 188.049233 
C 112.031846 188.986868 112.404372 189.886226 113.06738 190.549233 
C 113.730387 191.212241 114.629745 191.584767 115.56738 191.584767 
z
" style="fill:none;stroke:#2ca02c;"/>
   </g>
   <g id="PathCollection_6">
    <path clip-path="url(#pfeffbb08f7)" d="M 122.529947 190.959818 
C 123.467581 190.959818 124.366939 190.587292 125.029947 189.924284 
C 125.692954 189.261276 126.06548 188.361919 126.06548 187.424284 
C 126.06548 186.48665 125.692954 185.587292 125.029947 184.924284 
C 124.366939 184.261276 123.467581 183.88875 122.529947 183.88875 
C 121.592312 183.88875 120.692954 184.261276 120.029947 184.924284 
C 119.366939 185.587292 118.994413 186.48665 118.994413 187.424284 
C 118.994413 188.361919 119.366939 189.261276 120.029947 189.924284 
C 120.692954 190.587292 121.592312 190.959818 122.529947 190.959818 
z
" style="fill:none;stroke:#2ca02c;"/>
   </g>
   <g id="PathCollection_7">
    <path clip-path="url(#pfeffbb08f7)" d="M 129.492513 190.166865 
C 130.430148 190.166865 131.329506 189.794339 131.992513 189.131331 
C 132.655521 188.468323 133.028047 187.568965 133.028047 186.631331 
C 133.028047 185.693696 132.655521 184.794339 131.992513 184.131331 
C 131.329506 183.468323 130.430148 183.095797 129.492513 183.095797 
C 128.554879 183.095797 127.655521 183.468323 126.992513 184.131331 
C 126.329506 184.794339 125.956979 185.693696 125.956979 186.631331 
C 125.956979 187.568965 126.329506 188.468323 126.992513 189.131331 
C 127.655521 189.794339 128.554879 190.166865 129.492513 190.166865 
z
" style="fill:none;stroke:#2ca02c;"/>
   </g>
   <g id="PathCollection_8">
    <path clip-path="url(#pfeffbb08f7)" d="M 136.45508 189.213252 
C 137.392715 189.213252 138.292072 188.840726 138.95508 188.177718 
C 139.618088 187.514711 139.990614 186.615353 139.990614 185.677718 
C 139.990614 184.740084 139.618088 183.840726 138.95508 183.177718 
C 138.292072 182.514711 137.392715 182.142184 136.45508 182.142184 
C 135.517446 182.142184 134.618088 182.514711 133.95508 183.177718 
C 133.292072 183.840726 132.919546 184.740084 132.919546 185.677718 
C 132.919546 186.615353 133.292072 187.514711 133.95508 188.177718 
C 134.618088 188.840726 135.517446 189.213252 136.45508 189.213252 
z
" style="fill:none;stroke:#2ca02c;"/>
   </g>
   <g id="PathCollection_9">
    <path clip-path="url(#pfeffbb08f7)" d="M 143.417647 188.110125 
C 144.355282 188.110125 145.254639 187.737599 145.917647 187.074591 
C 146.580655 186.411584 146.953181 185.512226 146.953181 184.574591 
C 146.953181 183.636957 146.580655 182.737599 145.917647 182.074591 
C 145.254639 181.411584 144.355282 181.039057 143.417647 181.039057 
C 142.480013 181.039057 141.580655 181.411584 140.917647 182.074591 
C 140.254639 182.737599 139.882113 183.636957 139.882113 184.574591 
C 139.882113 185.512226 140.254639 186.411584 140.917647 187.074591 
C 141.580655 187.737599 142.480013 188.110125 143.417647 188.110125 
z
" style="fill:none;stroke:#2ca02c;"/>
   </g>
   <g id="PathCollection_10">
    <path clip-path="url(#pfeffbb08f7)" d="M 150.380214 186.870672 
C 151.317848 186.870672 152.217206 186.498146 152.880214 185.835138 
C 153.543222 185.172131 153.915748 184.272773 153.915748 183.335138 
C 153.915748 182.397504 153.543222 181.498146 152.880214 180.835138 
C 152.217206 180.172131 151.317848 179.799604 150.380214 179.799604 
C 149.442579 179.799604 148.543222 180.172131 147.880214 180.835138 
C 147.217206 181.498146 146.84468 182.397504 146.84468 183.335138 
C 146.84468 184.272773 147.217206 185.172131 147.880214 185.835138 
C 148.543222 186.498146 149.442579 186.870672 150.380214 186.870672 
z
" style="fill:none;stroke:#2ca02c;"/>
   </g>
   <g id="PathCollection_11">
    <path clip-path="url(#pfeffbb08f7)" d="M 157.342781 185.50869 
C 158.280415 185.50869 159.179773 185.136164 159.842781 184.473156 
C 160.505788 183.810148 160.878315 182.910791 160.878315 181.973156 
C 160.878315 181.035522 160.505788 180.136164 159.842781 179.473156 
C 159.179773 178.810148 158.280415 178.437622 157.342781 178.437622 
C 156.405146 178.437622 155.505788 178.810148 154.842781 179.473156 
C 154.179773 180.136164 153.807247 181.035522 153.807247 181.973156 
C 153.807247 182.910791 154.179773 183.810148 154.842781 184.473156 
C 155.505788 185.136164 156.405146 185.50869 157.342781 185.50869 
z
" style="fill:none;stroke:#2ca02c;"/>
   </g>
   <g id="PathCollection_12">
    <path clip-path="url(#pfeffbb08f7)" d="M 164.305348 184.037459 
C 165.242982 184.037459 166.14234 183.664932 166.805348 183.001925 
C 167.468355 182.338917 167.840881 181.439559 167.840881 180.501925 
C 167.840881 179.56429 167.468355 178.664932 166.805348 178.001925 
C 166.14234 177.338917 165.242982 176.966391 164.305348 176.966391 
C 163.367713 176.966391 162.468355 177.338917 161.805348 178.001925 
C 161.14234 178.664932 160.769814 179.56429 160.769814 180.501925 
C 160.769814 181.439559 161.14234 182.338917 161.805348 183.001925 
C 162.468355 183.664932 163.367713 184.037459 164.305348 184.037459 
z
" style="fill:none;stroke:#2ca02c;"/>
   </g>
   <g id="PathCollection_13">
    <path clip-path="url(#pfeffbb08f7)" d="M 171.267914 182.468894 
C 172.205549 182.468894 173.104907 182.096368 173.767914 181.43336 
C 174.430922 180.770353 174.803448 179.870995 174.803448 178.93336 
C 174.803448 177.995726 174.430922 177.096368 173.767914 176.43336 
C 173.104907 175.770353 172.205549 175.397826 171.267914 175.397826 
C 170.33028 175.397826 169.430922 175.770353 168.767914 176.43336 
C 168.104907 177.096368 167.732381 177.995726 167.732381 178.93336 
C 167.732381 179.870995 168.104907 180.770353 168.767914 181.43336 
C 169.430922 182.096368 170.33028 182.468894 171.267914 182.468894 
z
" style="fill:none;stroke:#2ca02c;"/>
   </g>
   <g id="PathCollection_14">
    <path clip-path="url(#pfeffbb08f7)" d="M 178.230481 180.812959 
C 179.168116 180.812959 180.067474 180.440432 180.730481 179.777425 
C 181.393489 179.114417 181.766015 178.215059 181.766015 177.277425 
C 181.766015 176.33979 181.393489 175.440432 180.730481 174.777425 
C 180.067474 174.114417 179.168116 173.741891 178.230481 173.741891 
C 177.292847 173.741891 176.393489 174.114417 175.730481 174.777425 
C 175.067474 175.440432 174.694947 176.33979 174.694947 177.277425 
C 174.694947 178.215059 175.067474 179.114417 175.730481 179.777425 
C 176.393489 180.440432 177.292847 180.812959 178.230481 180.812959 
z
" style="fill:none;stroke:#2ca02c;"/>
   </g>
   <g id="PathCollection_15">
    <path clip-path="url(#pfeffbb08f7)" d="M 185.193048 179.077305 
C 186.130683 179.077305 187.03004 178.704779 187.693048 178.041771 
C 188.356056 177.378764 188.728582 176.479406 188.728582 175.541771 
C 188.728582 174.604137 188.356056 173.704779 187.693048 173.041771 
C 187.03004 172.378764 186.130683 172.006238 185.193048 172.006238 
C 184.255414 172.006238 183.356056 172.378764 182.693048 173.041771 
C 182.03004 173.704779 181.657514 174.604137 181.657514 175.541771 
C 181.657514 176.479406 182.03004 177.378764 182.693048 178.041771 
C 183.356056 178.704779 184.255414 179.077305 185.193048 179.077305 
z
" style="fill:none;stroke:#2ca02c;"/>
   </g>
   <g id="PathCollection_16">
    <path clip-path="url(#pfeffbb08f7)" d="M 192.155615 177.267132 
C 193.09325 177.267132 193.992607 176.894606 194.655615 176.231598 
C 195.318623 175.568591 195.691149 174.669233 195.691149 173.731598 
C 195.691149 172.793964 195.318623 171.894606 194.655615 171.231598 
C 193.992607 170.568591 193.09325 170.196065 192.155615 170.196065 
C 191.21798 170.196065 190.318623 170.568591 189.655615 171.231598 
C 188.992607 171.894606 188.620081 172.793964 188.620081 173.731598 
C 188.620081 174.669233 188.992607 175.568591 189.655615 176.231598 
C 190.318623 176.894606 191.21798 177.267132 192.155615 177.267132 
z
" style="fill:none;stroke:#2ca02c;"/>
   </g>
   <g id="PathCollection_17">
    <path clip-path="url(#pfeffbb08f7)" d="M 199.118182 175.385225 
C 200.055816 175.385225 200.955174 175.012699 201.618182 174.349691 
C 202.28119 173.686683 202.653716 172.787325 202.653716 171.849691 
C 202.653716 170.912056 202.28119 170.012699 201.618182 169.349691 
C 200.955174 168.686683 200.055816 168.314157 199.118182 168.314157 
C 198.180547 168.314157 197.28119 168.686683 196.618182 169.349691 
C 195.955174 170.012699 195.582648 170.912056 195.582648 171.849691 
C 195.582648 172.787325 195.955174 173.686683 196.618182 174.349691 
C 197.28119 175.012699 198.180547 175.385225 199.118182 175.385225 
z
" style="fill:none;stroke:#2ca02c;"/>
   </g>
   <g id="PathCollection_18">
    <path clip-path="url(#pfeffbb08f7)" d="M 206.080749 173.432157 
C 207.018383 173.432157 207.917741 173.059631 208.580749 172.396624 
C 209.243756 171.733616 209.616283 170.834258 209.616283 169.896624 
C 209.616283 168.958989 209.243756 168.059631 208.580749 167.396624 
C 207.917741 166.733616 207.018383 166.36109 206.080749 166.36109 
C 205.143114 166.36109 204.243756 166.733616 203.580749 167.396624 
C 202.917741 168.059631 202.545215 168.958989 202.545215 169.896624 
C 202.545215 170.834258 202.917741 171.733616 203.580749 172.396624 
C 204.243756 173.059631 205.143114 173.432157 206.080749 173.432157 
z
" style="fill:none;stroke:#2ca02c;"/>
   </g>
   <g id="PathCollection_19">
    <path clip-path="url(#pfeffbb08f7)" d="M 213.043316 171.406641 
C 213.98095 171.406641 214.880308 171.034114 215.543316 170.371107 
C 216.206323 169.708099 216.578849 168.808741 216.578849 167.871107 
C 216.578849 166.933472 216.206323 166.034114 215.543316 165.371107 
C 214.880308 164.708099 213.98095 164.335573 213.043316 164.335573 
C 212.105681 164.335573 211.206323 164.708099 210.543316 165.371107 
C 209.880308 166.034114 209.507782 166.933472 209.507782 167.871107 
C 209.507782 168.808741 209.880308 169.708099 210.543316 170.371107 
C 211.206323 171.034114 212.105681 171.406641 213.043316 171.406641 
z
" style="fill:none;stroke:#2ca02c;"/>
   </g>
   <g id="PathCollection_20">
    <path clip-path="url(#pfeffbb08f7)" d="M 220.005882 169.305978 
C 220.943517 169.305978 221.842875 168.933452 222.505882 168.270444 
C 223.16889 167.607436 223.541416 166.708079 223.541416 165.770444 
C 223.541416 164.83281 223.16889 163.933452 222.505882 163.270444 
C 221.842875 162.607436 220.943517 162.23491 220.005882 162.23491 
C 219.068248 162.23491 218.16889 162.607436 217.505882 163.270444 
C 216.842875 163.933452 216.470348 164.83281 216.470348 165.770444 
C 216.470348 166.708079 216.842875 167.607436 217.505882 168.270444 
C 218.16889 168.933452 219.068248 169.305978 220.005882 169.305978 
z
" style="fill:none;stroke:#2ca02c;"/>
   </g>
   <g id="PathCollection_21">
    <path clip-path="url(#pfeffbb08f7)" d="M 226.968449 167.12662 
C 227.906084 167.12662 228.805441 166.754094 229.468449 166.091086 
C 230.131457 165.428078 230.503983 164.528721 230.503983 163.591086 
C 230.503983 162.653452 230.131457 161.754094 229.468449 161.091086 
C 228.805441 160.428078 227.906084 160.055552 226.968449 160.055552 
C 226.030815 160.055552 225.131457 160.428078 224.468449 161.091086 
C 223.805441 161.754094 223.432915 162.653452 223.432915 163.591086 
C 223.432915 164.528721 223.805441 165.428078 224.468449 166.091086 
C 225.131457 166.754094 226.030815 167.12662 226.968449 167.12662 
z
" style="fill:none;stroke:#2ca02c;"/>
   </g>
   <g id="PathCollection_22">
    <path clip-path="url(#pfeffbb08f7)" d="M 233.931016 164.864785 
C 234.868651 164.864785 235.768008 164.492258 236.431016 163.829251 
C 237.094024 163.166243 237.46655 162.266885 237.46655 161.329251 
C 237.46655 160.391616 237.094024 159.492258 236.431016 158.829251 
C 235.768008 158.166243 234.868651 157.793717 233.931016 157.793717 
C 232.993381 157.793717 232.094024 158.166243 231.431016 158.829251 
C 230.768008 159.492258 230.395482 160.391616 230.395482 161.329251 
C 230.395482 162.266885 230.768008 163.166243 231.431016 163.829251 
C 232.094024 164.492258 232.993381 164.864785 233.931016 164.864785 
z
" style="fill:none;stroke:#2ca02c;"/>
   </g>
   <g id="PathCollection_23">
    <path clip-path="url(#pfeffbb08f7)" d="M 240.893583 162.517124 
C 241.831217 162.517124 242.730575 162.144598 243.393583 161.48159 
C 244.056591 160.818582 244.429117 159.919225 244.429117 158.98159 
C 244.429117 158.043956 244.056591 157.144598 243.393583 156.48159 
C 242.730575 155.818582 241.831217 155.446056 240.893583 155.446056 
C 239.955948 155.446056 239.056591 155.818582 238.393583 156.48159 
C 237.730575 157.144598 237.358049 158.043956 237.358049 158.98159 
C 237.358049 159.919225 237.730575 160.818582 238.393583 161.48159 
C 239.056591 162.144598 239.955948 162.517124 240.893583 162.517124 
z
" style="fill:none;stroke:#2ca02c;"/>
   </g>
   <g id="PathCollection_24">
    <path clip-path="url(#pfeffbb08f7)" d="M 247.85615 160.081414 
C 248.793784 160.081414 249.693142 159.708888 250.35615 159.04588 
C 251.019157 158.382872 251.391684 157.483515 251.391684 156.54588 
C 251.391684 155.608246 251.019157 154.708888 250.35615 154.04588 
C 249.693142 153.382872 248.793784 153.010346 247.85615 153.010346 
C 246.918515 153.010346 246.019157 153.382872 245.35615 154.04588 
C 244.693142 154.708888 244.320616 155.608246 244.320616 156.54588 
C 244.320616 157.483515 244.693142 158.382872 245.35615 159.04588 
C 246.019157 159.708888 246.918515 160.081414 247.85615 160.081414 
z
" style="fill:none;stroke:#2ca02c;"/>
   </g>
   <g id="PathCollection_25">
    <path clip-path="url(#pfeffbb08f7)" d="M 254.818717 157.557239 
C 255.756351 157.557239 256.655709 157.184712 257.318717 156.521705 
C 257.981724 155.858697 258.35425 154.959339 258.35425 154.021705 
C 258.35425 153.08407 257.981724 152.184712 257.318717 151.521705 
C 256.655709 150.858697 255.756351 150.486171 254.818717 150.486171 
C 253.881082 150.486171 252.981724 150.858697 252.318717 151.521705 
C 251.655709 152.184712 251.283183 153.08407 251.283183 154.021705 
C 251.283183 154.959339 251.655709 155.858697 252.318717 156.521705 
C 252.981724 157.184712 253.881082 157.557239 254.818717 157.557239 
z
" style="fill:none;stroke:#2ca02c;"/>
   </g>
   <g id="PathCollection_26">
    <path clip-path="url(#pfeffbb08f7)" d="M 261.781283 154.946654 
C 262.718918 154.946654 263.618276 154.574128 264.281283 153.91112 
C 264.944291 153.248113 265.316817 152.348755 265.316817 151.41112 
C 265.316817 150.473486 264.944291 149.574128 264.281283 148.91112 
C 263.618276 148.248113 262.718918 147.875586 261.781283 147.875586 
C 260.843649 147.875586 259.944291 148.248113 259.281283 148.91112 
C 258.618276 149.574128 258.24575 150.473486 258.24575 151.41112 
C 258.24575 152.348755 258.618276 153.248113 259.281283 153.91112 
C 259.944291 154.574128 260.843649 154.946654 261.781283 154.946654 
z
" style="fill:none;stroke:#2ca02c;"/>
   </g>
   <g id="PathCollection_27">
    <path clip-path="url(#pfeffbb08f7)" d="M 268.74385 152.254801 
C 269.681485 152.254801 270.580843 151.882274 271.24385 151.219267 
C 271.906858 150.556259 272.279384 149.656901 272.279384 148.719267 
C 272.279384 147.781632 271.906858 146.882274 271.24385 146.219267 
C 270.580843 145.556259 269.681485 145.183733 268.74385 145.183733 
C 267.806216 145.183733 266.906858 145.556259 266.24385 146.219267 
C 265.580843 146.882274 265.208316 147.781632 265.208316 148.719267 
C 265.208316 149.656901 265.580843 150.556259 266.24385 151.219267 
C 266.906858 151.882274 267.806216 152.254801 268.74385 152.254801 
z
" style="fill:none;stroke:#2ca02c;"/>
   </g>
   <g id="PathCollection_28">
    <path clip-path="url(#pfeffbb08f7)" d="M 275.706417 149.490443 
C 276.644052 149.490443 277.543409 149.117917 278.206417 148.454909 
C 278.869425 147.791902 279.241951 146.892544 279.241951 145.954909 
C 279.241951 145.017275 278.869425 144.117917 278.206417 143.454909 
C 277.543409 142.791902 276.644052 142.419376 275.706417 142.419376 
C 274.768783 142.419376 273.869425 142.791902 273.206417 143.454909 
C 272.543409 144.117917 272.170883 145.017275 272.170883 145.954909 
C 272.170883 146.892544 272.543409 147.791902 273.206417 148.454909 
C 273.869425 149.117917 274.768783 149.490443 275.706417 149.490443 
z
" style="fill:none;stroke:#2ca02c;"/>
   </g>
   <g id="PathCollection_29">
    <path clip-path="url(#pfeffbb08f7)" d="M 282.668984 146.666415 
C 283.606619 146.666415 284.505976 146.293889 285.168984 145.630881 
C 285.831992 144.967874 286.204518 144.068516 286.204518 143.130881 
C 286.204518 142.193247 285.831992 141.293889 285.168984 140.630881 
C 284.505976 139.967874 283.606619 139.595348 282.668984 139.595348 
C 281.731349 139.595348 280.831992 139.967874 280.168984 140.630881 
C 279.505976 141.293889 279.13345 142.193247 279.13345 143.130881 
C 279.13345 144.068516 279.505976 144.967874 280.168984 145.630881 
C 280.831992 146.293889 281.731349 146.666415 282.668984 146.666415 
z
" style="fill:none;stroke:#2ca02c;"/>
   </g>
   <g id="PathCollection_30">
    <path clip-path="url(#pfeffbb08f7)" d="M 289.631551 143.799946 
C 290.569185 143.799946 291.468543 143.42742 292.131551 142.764412 
C 292.794559 142.101404 293.167085 141.202046 293.167085 140.264412 
C 293.167085 139.326777 292.794559 138.42742 292.131551 137.764412 
C 291.468543 137.101404 290.569185 136.728878 289.631551 136.728878 
C 288.693916 136.728878 287.794559 137.101404 287.131551 137.764412 
C 286.468543 138.42742 286.096017 139.326777 286.096017 140.264412 
C 286.096017 141.202046 286.468543 142.101404 287.131551 142.764412 
C 287.794559 143.42742 288.693916 143.799946 289.631551 143.799946 
z
" style="fill:none;stroke:#2ca02c;"/>
   </g>
   <g id="PathCollection_31">
    <path clip-path="url(#pfeffbb08f7)" d="M 296.594118 140.91284 
C 297.531752 140.91284 298.43111 140.540314 299.094118 139.877306 
C 299.757125 139.214299 300.129652 138.314941 300.129652 137.377306 
C 300.129652 136.439672 299.757125 135.540314 299.094118 134.877306 
C 298.43111 134.214299 297.531752 133.841773 296.594118 133.841773 
C 295.656483 133.841773 294.757125 134.214299 294.094118 134.877306 
C 293.43111 135.540314 293.058584 136.439672 293.058584 137.377306 
C 293.058584 138.314941 293.43111 139.214299 294.094118 139.877306 
C 294.757125 140.540314 295.656483 140.91284 296.594118 140.91284 
z
" style="fill:none;stroke:#2ca02c;"/>
   </g>
   <g id="PathCollection_32">
    <path clip-path="url(#pfeffbb08f7)" d="M 303.556684 138.031498 
C 304.494319 138.031498 305.393677 137.658972 306.056684 136.995964 
C 306.719692 136.332956 307.092218 135.433599 307.092218 134.495964 
C 307.092218 133.558329 306.719692 132.658972 306.056684 131.995964 
C 305.393677 131.332956 304.494319 130.96043 303.556684 130.96043 
C 302.61905 130.96043 301.719692 131.332956 301.056684 131.995964 
C 300.393677 132.658972 300.021151 133.558329 300.021151 134.495964 
C 300.021151 135.433599 300.393677 136.332956 301.056684 136.995964 
C 301.719692 137.658972 302.61905 138.031498 303.556684 138.031498 
z
" style="fill:none;stroke:#2ca02c;"/>
   </g>
   <g id="PathCollection_33">
    <path clip-path="url(#pfeffbb08f7)" d="M 310.519251 135.186737 
C 311.456886 135.186737 312.356244 134.81421 313.019251 134.151203 
C 313.682259 133.488195 314.054785 132.588837 314.054785 131.651203 
C 314.054785 130.713568 313.682259 129.81421 313.019251 129.151203 
C 312.356244 128.488195 311.456886 128.115669 310.519251 128.115669 
C 309.581617 128.115669 308.682259 128.488195 308.019251 129.151203 
C 307.356244 129.81421 306.983717 130.713568 306.983717 131.651203 
C 306.983717 132.588837 307.356244 133.488195 308.019251 134.151203 
C 308.682259 134.81421 309.581617 135.186737 310.519251 135.186737 
z
" style="fill:none;stroke:#2ca02c;"/>
   </g>
   <g id="PathCollection_34">
    <path clip-path="url(#pfeffbb08f7)" d="M 317.481818 132.413406 
C 318.419453 132.413406 319.31881 132.040879 319.981818 131.377872 
C 320.644826 130.714864 321.017352 129.815506 321.017352 128.877872 
C 321.017352 127.940237 320.644826 127.040879 319.981818 126.377872 
C 319.31881 125.714864 318.419453 125.342338 317.481818 125.342338 
C 316.544184 125.342338 315.644826 125.714864 314.981818 126.377872 
C 314.31881 127.040879 313.946284 127.940237 313.946284 128.877872 
C 313.946284 129.815506 314.31881 130.714864 314.981818 131.377872 
C 315.644826 132.040879 316.544184 132.413406 317.481818 132.413406 
z
" style="fill:none;stroke:#2ca02c;"/>
   </g>
   <g id="PathCollection_35">
    <path clip-path="url(#pfeffbb08f7)" d="M 324.444385 129.749762 
C 325.38202 129.749762 326.281377 129.377236 326.944385 128.714228 
C 327.607393 128.05122 327.979919 127.151863 327.979919 126.214228 
C 327.979919 125.276593 327.607393 124.377236 326.944385 123.714228 
C 326.281377 123.05122 325.38202 122.678694 324.444385 122.678694 
C 323.50675 122.678694 322.607393 123.05122 321.944385 123.714228 
C 321.281377 124.377236 320.908851 125.276593 320.908851 126.214228 
C 320.908851 127.151863 321.281377 128.05122 321.944385 128.714228 
C 322.607393 129.377236 323.50675 129.749762 324.444385 129.749762 
z
" style="fill:none;stroke:#2ca02c;"/>
   </g>
   <g id="PathCollection_36">
    <path clip-path="url(#pfeffbb08f7)" d="M 331.406952 127.236584 
C 332.344586 127.236584 333.243944 126.864058 333.906952 126.20105 
C 334.56996 125.538042 334.942486 124.638684 334.942486 123.70105 
C 334.942486 122.763415 334.56996 121.864058 333.906952 121.20105 
C 333.243944 120.538042 332.344586 120.165516 331.406952 120.165516 
C 330.469317 120.165516 329.56996 120.538042 328.906952 121.20105 
C 328.243944 121.864058 327.871418 122.763415 327.871418 123.70105 
C 327.871418 124.638684 328.243944 125.538042 328.906952 126.20105 
C 329.56996 126.864058 330.469317 127.236584 331.406952 127.236584 
z
" style="fill:none;stroke:#2ca02c;"/>
   </g>
   <g id="PathCollection_37">
    <path clip-path="url(#pfeffbb08f7)" d="M 338.369519 124.916002 
C 339.307153 124.916002 340.206511 124.543475 340.869519 123.880468 
C 341.532526 123.21746 341.905053 122.318102 341.905053 121.380468 
C 341.905053 120.442833 341.532526 119.543475 340.869519 118.880468 
C 340.206511 118.21746 339.307153 117.844934 338.369519 117.844934 
C 337.431884 117.844934 336.532526 118.21746 335.869519 118.880468 
C 335.206511 119.543475 334.833985 120.442833 334.833985 121.380468 
C 334.833985 122.318102 335.206511 123.21746 335.869519 123.880468 
C 336.532526 124.543475 337.431884 124.916002 338.369519 124.916002 
z
" style="fill:none;stroke:#2ca02c;"/>
   </g>
   <g id="PathCollection_38">
    <path clip-path="url(#pfeffbb08f7)" d="M 345.332086 122.830022 
C 346.26972 122.830022 347.169078 122.457496 347.832086 121.794488 
C 348.495093 121.13148 348.867619 120.232122 348.867619 119.294488 
C 348.867619 118.356853 348.495093 117.457496 347.832086 116.794488 
C 347.169078 116.13148 346.26972 115.758954 345.332086 115.758954 
C 344.394451 115.758954 343.495093 116.13148 342.832086 116.794488 
C 342.169078 117.457496 341.796552 118.356853 341.796552 119.294488 
C 341.796552 120.232122 342.169078 121.13148 342.832086 121.794488 
C 343.495093 122.457496 344.394451 122.830022 345.332086 122.830022 
z
" style="fill:none;stroke:#2ca02c;"/>
   </g>
   <g id="PathCollection_39">
    <path clip-path="url(#pfeffbb08f7)" d="M 352.294652 121.018717 
C 353.232287 121.018717 354.131645 120.646191 354.794652 119.983183 
C 355.45766 119.320176 355.830186 118.420818 355.830186 117.483183 
C 355.830186 116.545549 355.45766 115.646191 354.794652 114.983183 
C 354.131645 114.320176 353.232287 113.94765 352.294652 113.94765 
C 351.357018 113.94765 350.45766 114.320176 349.794652 114.983183 
C 349.131645 115.646191 348.759119 116.545549 348.759119 117.483183 
C 348.759119 118.420818 349.131645 119.320176 349.794652 119.983183 
C 350.45766 120.646191 351.357018 121.018717 352.294652 121.018717 
z
" style="fill:none;stroke:#2ca02c;"/>
   </g>
   <g id="PathCollection_40">
    <path clip-path="url(#pfeffbb08f7)" d="M 359.257219 119.518066 
C 360.194854 119.518066 361.094212 119.14554 361.757219 118.482532 
C 362.420227 117.819524 362.792753 116.920167 362.792753 115.982532 
C 362.792753 115.044898 362.420227 114.14554 361.757219 113.482532 
C 361.094212 112.819524 360.194854 112.446998 359.257219 112.446998 
C 358.319585 112.446998 357.420227 112.819524 356.757219 113.482532 
C 356.094212 114.14554 355.721685 115.044898 355.721685 115.982532 
C 355.721685 116.920167 356.094212 117.819524 356.757219 118.482532 
C 357.420227 119.14554 358.319585 119.518066 359.257219 119.518066 
z
" style="fill:none;stroke:#2ca02c;"/>
   </g>
   <g id="PathCollection_41">
    <path clip-path="url(#pfeffbb08f7)" d="M 366.219786 118.357408 
C 367.157421 118.357408 368.056778 117.984882 368.719786 117.321874 
C 369.382794 116.658866 369.75532 115.759508 369.75532 114.821874 
C 369.75532 113.884239 369.382794 112.984882 368.719786 112.321874 
C 368.056778 111.658866 367.157421 111.28634 366.219786 111.28634 
C 365.282152 111.28634 364.382794 111.658866 363.719786 112.321874 
C 363.056778 112.984882 362.684252 113.884239 362.684252 114.821874 
C 362.684252 115.759508 363.056778 116.658866 363.719786 117.321874 
C 364.382794 117.984882 365.282152 118.357408 366.219786 118.357408 
z
" style="fill:none;stroke:#2ca02c;"/>
   </g>
   <g id="PathCollection_42">
    <path clip-path="url(#pfeffbb08f7)" d="M 373.182353 117.556502 
C 374.119987 117.556502 375.019345 117.183976 375.682353 116.520968 
C 376.345361 115.857961 376.717887 114.958603 376.717887 114.020968 
C 376.717887 113.083334 376.345361 112.183976 375.682353 111.520968 
C 375.019345 110.857961 374.119987 110.485434 373.182353 110.485434 
C 372.244718 110.485434 371.345361 110.857961 370.682353 111.520968 
C 370.019345 112.183976 369.646819 113.083334 369.646819 114.020968 
C 369.646819 114.958603 370.019345 115.857961 370.682353 116.520968 
C 371.345361 117.183976 372.244718 117.556502 373.182353 117.556502 
z
" style="fill:none;stroke:#2ca02c;"/>
   </g>
   <g id="PathCollection_43">
    <path clip-path="url(#pfeffbb08f7)" d="M 380.14492 117.122161 
C 381.082554 117.122161 381.981912 116.749635 382.64492 116.086627 
C 383.307928 115.423619 383.680454 114.524262 383.680454 113.586627 
C 383.680454 112.648992 383.307928 111.749635 382.64492 111.086627 
C 381.981912 110.423619 381.082554 110.051093 380.14492 110.051093 
C 379.207285 110.051093 378.307928 110.423619 377.64492 111.086627 
C 376.981912 111.749635 376.609386 112.648992 376.609386 113.586627 
C 376.609386 114.524262 376.981912 115.423619 377.64492 116.086627 
C 378.307928 116.749635 379.207285 117.122161 380.14492 117.122161 
z
" style="fill:none;stroke:#2ca02c;"/>
   </g>
   <g id="PathCollection_44">
    <path clip-path="url(#pfeffbb08f7)" d="M 387.107487 117.044428 
C 388.045121 117.044428 388.944479 116.671902 389.607487 116.008894 
C 390.270494 115.345886 390.643021 114.446528 390.643021 113.508894 
C 390.643021 112.571259 390.270494 111.671902 389.607487 111.008894 
C 388.944479 110.345886 388.045121 109.97336 387.107487 109.97336 
C 386.169852 109.97336 385.270494 110.345886 384.607487 111.008894 
C 383.944479 111.671902 383.571953 112.571259 383.571953 113.508894 
C 383.571953 114.446528 383.944479 115.345886 384.607487 116.008894 
C 385.270494 116.671902 386.169852 117.044428 387.107487 117.044428 
z
" style="fill:none;stroke:#2ca02c;"/>
   </g>
   <g id="PathCollection_45">
    <path clip-path="url(#pfeffbb08f7)" d="M 394.070053 117.292291 
C 395.007688 117.292291 395.907046 116.919765 396.570053 116.256758 
C 397.233061 115.59375 397.605587 114.694392 397.605587 113.756758 
C 397.605587 112.819123 397.233061 111.919765 396.570053 111.256758 
C 395.907046 110.59375 395.007688 110.221224 394.070053 110.221224 
C 393.132419 110.221224 392.233061 110.59375 391.570053 111.256758 
C 390.907046 111.919765 390.53452 112.819123 390.53452 113.756758 
C 390.53452 114.694392 390.907046 115.59375 391.570053 116.256758 
C 392.233061 116.919765 393.132419 117.292291 394.070053 117.292291 
z
" style="fill:none;stroke:#2ca02c;"/>
   </g>
   <g id="PathCollection_46">
    <path clip-path="url(#pfeffbb08f7)" d="M 401.03262 117.808898 
C 401.970255 117.808898 402.869613 117.436372 403.53262 116.773364 
C 404.195628 116.110357 404.568154 115.210999 404.568154 114.273364 
C 404.568154 113.33573 404.195628 112.436372 403.53262 111.773364 
C 402.869613 111.110357 401.970255 110.73783 401.03262 110.73783 
C 400.094986 110.73783 399.195628 111.110357 398.53262 111.773364 
C 397.869613 112.436372 397.497086 113.33573 397.497086 114.273364 
C 397.497086 115.210999 397.869613 116.110357 398.53262 116.773364 
C 399.195628 117.436372 400.094986 117.808898 401.03262 117.808898 
z
" style="fill:none;stroke:#2ca02c;"/>
   </g>
   <g id="PathCollection_47">
    <path clip-path="url(#pfeffbb08f7)" d="M 407.995187 118.506246 
C 408.932822 118.506246 409.832179 118.13372 410.495187 117.470712 
C 411.158195 116.807705 411.530721 115.908347 411.530721 114.970712 
C 411.530721 114.033078 411.158195 113.13372 410.495187 112.470712 
C 409.832179 111.807705 408.932822 111.435178 407.995187 111.435178 
C 407.057553 111.435178 406.158195 111.807705 405.495187 112.470712 
C 404.832179 113.13372 404.459653 114.033078 404.459653 114.970712 
C 404.459653 115.908347 404.832179 116.807705 405.495187 117.470712 
C 406.158195 118.13372 407.057553 118.506246 407.995187 118.506246 
z
" style="fill:none;stroke:#2ca02c;"/>
   </g>
   <g id="PathCollection_48">
    <path clip-path="url(#pfeffbb08f7)" d="M 414.957754 119.259338 
C 415.895389 119.259338 416.794746 118.886812 417.457754 118.223804 
C 418.120762 117.560797 418.493288 116.661439 418.493288 115.723804 
C 418.493288 114.78617 418.120762 113.886812 417.457754 113.223804 
C 416.794746 112.560797 415.895389 112.18827 414.957754 112.18827 
C 414.020119 112.18827 413.120762 112.560797 412.457754 113.223804 
C 411.794746 113.886812 411.42222 114.78617 411.42222 115.723804 
C 411.42222 116.661439 411.794746 117.560797 412.457754 118.223804 
C 413.120762 118.886812 414.020119 119.259338 414.957754 119.259338 
z
" style="fill:none;stroke:#2ca02c;"/>
   </g>
   <g id="PathCollection_49">
    <path clip-path="url(#pfeffbb08f7)" d="M 421.920321 119.899765 
C 422.857955 119.899765 423.757313 119.527239 424.420321 118.864231 
C 425.083329 118.201223 425.455855 117.301866 425.455855 116.364231 
C 425.455855 115.426596 425.083329 114.527239 424.420321 113.864231 
C 423.757313 113.201223 422.857955 112.828697 421.920321 112.828697 
C 420.982686 112.828697 420.083329 113.201223 419.420321 113.864231 
C 418.757313 114.527239 418.384787 115.426596 418.384787 116.364231 
C 418.384787 117.301866 418.757313 118.201223 419.420321 118.864231 
C 420.083329 119.527239 420.982686 119.899765 421.920321 119.899765 
z
" style="fill:none;stroke:#2ca02c;"/>
   </g>
   <g id="PathCollection_50">
    <path clip-path="url(#pfeffbb08f7)" d="M 428.882888 120.208701 
C 429.820522 120.208701 430.71988 119.836175 431.382888 119.173167 
C 432.045895 118.510159 432.418422 117.610802 432.418422 116.673167 
C 432.418422 115.735533 432.045895 114.836175 431.382888 114.173167 
C 430.71988 113.510159 429.820522 113.137633 428.882888 113.137633 
C 427.945253 113.137633 427.045895 113.510159 426.382888 114.173167 
C 425.71988 114.836175 425.347354 115.735533 425.347354 116.673167 
C 425.347354 117.610802 425.71988 118.510159 426.382888 119.173167 
C 427.045895 119.836175 427.945253 120.208701 428.882888 120.208701 
z
" style="fill:none;stroke:#2ca02c;"/>
   </g>
   <g id="PathCollection_51">
    <path clip-path="url(#pfeffbb08f7)" d="M 435.845455 119.909285 
C 436.783089 119.909285 437.682447 119.536759 438.345455 118.873751 
C 439.008462 118.210743 439.380988 117.311385 439.380988 116.373751 
C 439.380988 115.436116 439.008462 114.536759 438.345455 113.873751 
C 437.682447 113.210743 436.783089 112.838217 435.845455 112.838217 
C 434.90782 112.838217 434.008462 113.210743 433.345455 113.873751 
C 432.682447 114.536759 432.309921 115.436116 432.309921 116.373751 
C 432.309921 117.311385 432.682447 118.210743 433.345455 118.873751 
C 434.008462 119.536759 434.90782 119.909285 435.845455 119.909285 
z
" style="fill:none;stroke:#2ca02c;"/>
   </g>
   <g id="PathCollection_52">
    <defs>
     <path d="M 0 3.535534 
C 0.937635 3.535534 1.836992 3.163008 2.5 2.5 
C 3.163008 1.836992 3.535534 0.937635 3.535534 0 
C 3.535534 -0.937635 3.163008 -1.836992 2.5 -2.5 
C 1.836992 -3.163008 0.937635 -3.535534 0 -3.535534 
C -0.937635 -3.535534 -1.836992 -3.163008 -2.5 -2.5 
C -3.163008 -1.836992 -3.535534 -0.937635 -3.535534 0 
C -3.535534 0.937635 -3.163008 1.836992 -2.5 2.5 
C -1.836992 3.163008 -0.937635 3.535534 0 3.535534 
z
" id="m734799df56" style="stroke:#2ca02c;"/>
    </defs>
    <g clip-path="url(#pfeffbb08f7)">
     <use style="fill:#2ca02c;stroke:#2ca02c;" x="87.717112" xlink:href="#m734799df56" y="188.315064"/>
    </g>
   </g>
   <g id="PathCollection_53">
    <g clip-path="url(#pfeffbb08f7)">
     <use style="fill:#2ca02c;stroke:#2ca02c;" x="94.679679" xlink:href="#m734799df56" y="187.623812"/>
    </g>
   </g>
   <g id="PathCollection_54">
    <g clip-path="url(#pfeffbb08f7)">
     <use style="fill:#2ca02c;stroke:#2ca02c;" x="101.642246" xlink:href="#m734799df56" y="187.126939"/>
    </g>
   </g>
   <g id="PathCollection_55">
    <g clip-path="url(#pfeffbb08f7)">
     <use style="fill:#2ca02c;stroke:#2ca02c;" x="108.604813" xlink:href="#m734799df56" y="186.679755"/>
    </g>
   </g>
   <g id="PathCollection_56">
    <g clip-path="url(#pfeffbb08f7)">
     <use style="fill:#2ca02c;stroke:#2ca02c;" x="115.56738" xlink:href="#m734799df56" y="186.175264"/>
    </g>
   </g>
   <g id="PathCollection_57">
    <g clip-path="url(#pfeffbb08f7)">
     <use style="fill:#2ca02c;stroke:#2ca02c;" x="122.529947" xlink:href="#m734799df56" y="185.537526"/>
    </g>
   </g>
   <g id="PathCollection_58">
    <g clip-path="url(#pfeffbb08f7)">
     <use style="fill:#2ca02c;stroke:#2ca02c;" x="129.492513" xlink:href="#m734799df56" y="184.716089"/>
    </g>
   </g>
   <g id="PathCollection_59">
    <g clip-path="url(#pfeffbb08f7)">
     <use style="fill:#2ca02c;stroke:#2ca02c;" x="136.45508" xlink:href="#m734799df56" y="183.681045"/>
    </g>
   </g>
   <g id="PathCollection_60">
    <g clip-path="url(#pfeffbb08f7)">
     <use style="fill:#2ca02c;stroke:#2ca02c;" x="143.417647" xlink:href="#m734799df56" y="182.418649"/>
    </g>
   </g>
   <g id="PathCollection_61">
    <g clip-path="url(#pfeffbb08f7)">
     <use style="fill:#2ca02c;stroke:#2ca02c;" x="150.380214" xlink:href="#m734799df56" y="180.927493"/>
    </g>
   </g>
   <g id="PathCollection_62">
    <g clip-path="url(#pfeffbb08f7)">
     <use style="fill:#2ca02c;stroke:#2ca02c;" x="157.342781" xlink:href="#m734799df56" y="179.215192"/>
    </g>
   </g>
   <g id="PathCollection_63">
    <g clip-path="url(#pfeffbb08f7)">
     <use style="fill:#2ca02c;stroke:#2ca02c;" x="164.305348" xlink:href="#m734799df56" y="177.295559"/>
    </g>
   </g>
   <g id="PathCollection_64">
    <g clip-path="url(#pfeffbb08f7)">
     <use style="fill:#2ca02c;stroke:#2ca02c;" x="171.267914" xlink:href="#m734799df56" y="175.186228"/>
    </g>
   </g>
   <g id="PathCollection_65">
    <g clip-path="url(#pfeffbb08f7)">
     <use style="fill:#2ca02c;stroke:#2ca02c;" x="178.230481" xlink:href="#m734799df56" y="172.90671"/>
    </g>
   </g>
   <g id="PathCollection_66">
    <g clip-path="url(#pfeffbb08f7)">
     <use style="fill:#2ca02c;stroke:#2ca02c;" x="185.193048" xlink:href="#m734799df56" y="170.476834"/>
    </g>
   </g>
   <g id="PathCollection_67">
    <g clip-path="url(#pfeffbb08f7)">
     <use style="fill:#2ca02c;stroke:#2ca02c;" x="192.155615" xlink:href="#m734799df56" y="167.915556"/>
    </g>
   </g>
   <g id="PathCollection_68">
    <g clip-path="url(#pfeffbb08f7)">
     <use style="fill:#2ca02c;stroke:#2ca02c;" x="199.118182" xlink:href="#m734799df56" y="165.240095"/>
    </g>
   </g>
   <g id="PathCollection_69">
    <g clip-path="url(#pfeffbb08f7)">
     <use style="fill:#2ca02c;stroke:#2ca02c;" x="206.080749" xlink:href="#m734799df56" y="162.465374"/>
    </g>
   </g>
   <g id="PathCollection_70">
    <g clip-path="url(#pfeffbb08f7)">
     <use style="fill:#2ca02c;stroke:#2ca02c;" x="213.043316" xlink:href="#m734799df56" y="159.603734"/>
    </g>
   </g>
   <g id="PathCollection_71">
    <g clip-path="url(#pfeffbb08f7)">
     <use style="fill:#2ca02c;stroke:#2ca02c;" x="220.005882" xlink:href="#m734799df56" y="156.664879"/>
    </g>
   </g>
   <g id="PathCollection_72">
    <g clip-path="url(#pfeffbb08f7)">
     <use style="fill:#2ca02c;stroke:#2ca02c;" x="226.968449" xlink:href="#m734799df56" y="153.656036"/>
    </g>
   </g>
   <g id="PathCollection_73">
    <g clip-path="url(#pfeffbb08f7)">
     <use style="fill:#2ca02c;stroke:#2ca02c;" x="233.931016" xlink:href="#m734799df56" y="150.582296"/>
    </g>
   </g>
   <g id="PathCollection_74">
    <g clip-path="url(#pfeffbb08f7)">
     <use style="fill:#2ca02c;stroke:#2ca02c;" x="240.893583" xlink:href="#m734799df56" y="147.447095"/>
    </g>
   </g>
   <g id="PathCollection_75">
    <g clip-path="url(#pfeffbb08f7)">
     <use style="fill:#2ca02c;stroke:#2ca02c;" x="247.85615" xlink:href="#m734799df56" y="144.252823"/>
    </g>
   </g>
   <g id="PathCollection_76">
    <g clip-path="url(#pfeffbb08f7)">
     <use style="fill:#2ca02c;stroke:#2ca02c;" x="254.818717" xlink:href="#m734799df56" y="141.001504"/>
    </g>
   </g>
   <g id="PathCollection_77">
    <g clip-path="url(#pfeffbb08f7)">
     <use style="fill:#2ca02c;stroke:#2ca02c;" x="261.781283" xlink:href="#m734799df56" y="137.695547"/>
    </g>
   </g>
   <g id="PathCollection_78">
    <g clip-path="url(#pfeffbb08f7)">
     <use style="fill:#2ca02c;stroke:#2ca02c;" x="268.74385" xlink:href="#m734799df56" y="134.338515"/>
    </g>
   </g>
   <g id="PathCollection_79">
    <g clip-path="url(#pfeffbb08f7)">
     <use style="fill:#2ca02c;stroke:#2ca02c;" x="275.706417" xlink:href="#m734799df56" y="130.935885"/>
    </g>
   </g>
   <g id="PathCollection_80">
    <g clip-path="url(#pfeffbb08f7)">
     <use style="fill:#2ca02c;stroke:#2ca02c;" x="282.668984" xlink:href="#m734799df56" y="127.49578"/>
    </g>
   </g>
   <g id="PathCollection_81">
    <g clip-path="url(#pfeffbb08f7)">
     <use style="fill:#2ca02c;stroke:#2ca02c;" x="289.631551" xlink:href="#m734799df56" y="124.029628"/>
    </g>
   </g>
   <g id="PathCollection_82">
    <g clip-path="url(#pfeffbb08f7)">
     <use style="fill:#2ca02c;stroke:#2ca02c;" x="296.594118" xlink:href="#m734799df56" y="120.552723"/>
    </g>
   </g>
   <g id="PathCollection_83">
    <g clip-path="url(#pfeffbb08f7)">
     <use style="fill:#2ca02c;stroke:#2ca02c;" x="303.556684" xlink:href="#m734799df56" y="117.084659"/>
    </g>
   </g>
   <g id="PathCollection_84">
    <g clip-path="url(#pfeffbb08f7)">
     <use style="fill:#2ca02c;stroke:#2ca02c;" x="310.519251" xlink:href="#m734799df56" y="113.64961"/>
    </g>
   </g>
   <g id="PathCollection_85">
    <g clip-path="url(#pfeffbb08f7)">
     <use style="fill:#2ca02c;stroke:#2ca02c;" x="317.481818" xlink:href="#m734799df56" y="110.276411"/>
    </g>
   </g>
   <g id="PathCollection_86">
    <g clip-path="url(#pfeffbb08f7)">
     <use style="fill:#2ca02c;stroke:#2ca02c;" x="324.444385" xlink:href="#m734799df56" y="106.998424"/>
    </g>
   </g>
   <g id="PathCollection_87">
    <g clip-path="url(#pfeffbb08f7)">
     <use style="fill:#2ca02c;stroke:#2ca02c;" x="331.406952" xlink:href="#m734799df56" y="103.853151"/>
    </g>
   </g>
   <g id="PathCollection_88">
    <g clip-path="url(#pfeffbb08f7)">
     <use style="fill:#2ca02c;stroke:#2ca02c;" x="338.369519" xlink:href="#m734799df56" y="100.881569"/>
    </g>
   </g>
   <g id="PathCollection_89">
    <g clip-path="url(#pfeffbb08f7)">
     <use style="fill:#2ca02c;stroke:#2ca02c;" x="345.332086" xlink:href="#m734799df56" y="98.127144"/>
    </g>
   </g>
   <g id="PathCollection_90">
    <g clip-path="url(#pfeffbb08f7)">
     <use style="fill:#2ca02c;stroke:#2ca02c;" x="352.294652" xlink:href="#m734799df56" y="95.634515"/>
    </g>
   </g>
   <g id="PathCollection_91">
    <g clip-path="url(#pfeffbb08f7)">
     <use style="fill:#2ca02c;stroke:#2ca02c;" x="359.257219" xlink:href="#m734799df56" y="93.447789"/>
    </g>
   </g>
   <g id="PathCollection_92">
    <g clip-path="url(#pfeffbb08f7)">
     <use style="fill:#2ca02c;stroke:#2ca02c;" x="366.219786" xlink:href="#m734799df56" y="91.608443"/>
    </g>
   </g>
   <g id="PathCollection_93">
    <g clip-path="url(#pfeffbb08f7)">
     <use style="fill:#2ca02c;stroke:#2ca02c;" x="373.182353" xlink:href="#m734799df56" y="90.152784"/>
    </g>
   </g>
   <g id="PathCollection_94">
    <g clip-path="url(#pfeffbb08f7)">
     <use style="fill:#2ca02c;stroke:#2ca02c;" x="380.14492" xlink:href="#m734799df56" y="89.108948"/>
    </g>
   </g>
   <g id="PathCollection_95">
    <g clip-path="url(#pfeffbb08f7)">
     <use style="fill:#2ca02c;stroke:#2ca02c;" x="387.107487" xlink:href="#m734799df56" y="88.493399"/>
    </g>
   </g>
   <g id="PathCollection_96">
    <g clip-path="url(#pfeffbb08f7)">
     <use style="fill:#2ca02c;stroke:#2ca02c;" x="394.070053" xlink:href="#m734799df56" y="88.306901"/>
    </g>
   </g>
   <g id="PathCollection_97">
    <g clip-path="url(#pfeffbb08f7)">
     <use style="fill:#2ca02c;stroke:#2ca02c;" x="401.03262" xlink:href="#m734799df56" y="88.529934"/>
    </g>
   </g>
   <g id="PathCollection_98">
    <g clip-path="url(#pfeffbb08f7)">
     <use style="fill:#2ca02c;stroke:#2ca02c;" x="407.995187" xlink:href="#m734799df56" y="89.117517"/>
    </g>
   </g>
   <g id="PathCollection_99">
    <g clip-path="url(#pfeffbb08f7)">
     <use style="fill:#2ca02c;stroke:#2ca02c;" x="414.957754" xlink:href="#m734799df56" y="89.99342"/>
    </g>
   </g>
   <g id="PathCollection_100">
    <g clip-path="url(#pfeffbb08f7)">
     <use style="fill:#2ca02c;stroke:#2ca02c;" x="421.920321" xlink:href="#m734799df56" y="91.043715"/>
    </g>
   </g>
   <g id="PathCollection_101">
    <g clip-path="url(#pfeffbb08f7)">
     <use style="fill:#2ca02c;stroke:#2ca02c;" x="428.882888" xlink:href="#m734799df56" y="92.109655"/>
    </g>
   </g>
   <g id="PathCollection_102">
    <g clip-path="url(#pfeffbb08f7)">
     <use style="fill:#2ca02c;stroke:#2ca02c;" x="435.845455" xlink:href="#m734799df56" y="92.979838"/>
    </g>
   </g>
   <g id="matplotlib.axis_1"/>
   <g id="matplotlib.axis_2"/>
   <g id="line2d_1">
    <path clip-path="url(#pfeffbb08f7)" d="M 80.754545 189 
L 123.748396 188.889748 
L 128.999332 188.57409 
L 134.395321 188.025339 
L 140.081417 187.222141 
L 146.144652 186.138522 
L 152.643048 184.747631 
L 159.634626 183.020682 
L 167.264439 180.903333 
L 175.706551 178.324733 
L 185.193048 175.189284 
L 196.246123 171.294169 
L 209.88115 166.241786 
L 229.985561 158.528554 
L 266.422995 144.540656 
L 284.409626 137.897976 
L 299.785294 132.448822 
L 311.273529 128.607097 
L 321.398262 125.452833 
L 330.855749 122.736812 
L 339.965107 120.351006 
L 348.84238 118.254871 
L 357.60361 116.413708 
L 366.335829 114.805681 
L 375.068048 113.423311 
L 383.887299 112.252637 
L 392.822594 111.291827 
L 401.902941 110.539861 
L 411.186364 109.995181 
L 420.701872 109.660345 
L 430.536497 109.538295 
L 435.845455 109.561854 
L 435.845455 109.561854 
" style="fill:none;stroke:#2ca02c;stroke-dasharray:11.1,4.8;stroke-dashoffset:0;stroke-width:3;"/>
   </g>
   <g id="line2d_2">
    <path clip-path="url(#pfeffbb08f7)" d="M 80.754545 189 
L 123.197193 188.889744 
L 127.954947 188.576361 
L 132.799733 188.031703 
L 137.847594 187.238926 
L 143.185561 186.173775 
L 148.871658 184.809194 
L 154.934893 183.122319 
L 161.462299 181.072209 
L 168.540909 178.612742 
L 176.344786 175.661341 
L 185.077005 172.115298 
L 195.114706 167.791648 
L 207.212166 162.328347 
L 223.632219 154.649885 
L 269.962299 132.861551 
L 286.063235 125.610173 
L 299.872326 119.624775 
L 310.403209 115.296894 
L 319.744652 111.694923 
L 328.476872 108.563903 
L 336.831952 105.802143 
L 344.983957 103.340696 
L 352.990909 101.154578 
L 360.910829 99.221466 
L 368.830749 97.516959 
L 376.750668 96.039314 
L 384.72861 94.776461 
L 392.793583 93.724482 
L 401.00361 92.878407 
L 409.35869 92.241516 
L 417.916845 91.813231 
L 426.707086 91.597491 
L 435.758422 91.599138 
L 435.845455 91.600209 
L 435.845455 91.600209 
" style="fill:none;stroke:#2ca02c;stroke-linecap:square;stroke-width:3;"/>
   </g>
   <g id="patch_3">
    <path d="M 63 189 
L 63 25.92 
" style="fill:none;stroke:#000000;stroke-linecap:square;stroke-linejoin:miter;stroke-width:0.8;"/>
   </g>
   <g id="patch_4">
    <path d="M 453.6 189 
L 453.6 25.92 
" style="fill:none;stroke:#000000;stroke-linecap:square;stroke-linejoin:miter;stroke-width:0.8;"/>
   </g>
   <g id="patch_5">
    <path d="M 63 189 
L 453.6 189 
" style="fill:none;stroke:#000000;stroke-linecap:square;stroke-linejoin:miter;stroke-width:0.8;"/>
   </g>
   <g id="patch_6">
    <path d="M 63 25.92 
L 453.6 25.92 
" style="fill:none;stroke:#000000;stroke-linecap:square;stroke-linejoin:miter;stroke-width:0.8;"/>
   </g>
  </g>
 </g>
 <defs>
  <clipPath id="pfeffbb08f7">
   <rect height="163.08" width="390.6" x="63" y="25.92"/>
  </clipPath>
 </defs>
</svg>
