<?xml version="1.0" encoding="utf-8" standalone="no"?>
<!DOCTYPE svg PUBLIC "-//W3C//DTD SVG 1.1//EN"
  "http://www.w3.org/Graphics/SVG/1.1/DTD/svg11.dtd">
<!-- Created with matplotlib (https://matplotlib.org/) -->
<svg height="216pt" version="1.1" viewBox="0 0 504 216" width="504pt" xmlns="http://www.w3.org/2000/svg" xmlns:xlink="http://www.w3.org/1999/xlink">
 <metadata>
  <rdf:RDF xmlns:cc="http://creativecommons.org/ns#" xmlns:dc="http://purl.org/dc/elements/1.1/" xmlns:rdf="http://www.w3.org/1999/02/22-rdf-syntax-ns#">
   <cc:Work>
    <dc:type rdf:resource="http://purl.org/dc/dcmitype/StillImage"/>
    <dc:date>2024-12-17T10:29:35.683513</dc:date>
    <dc:format>image/svg+xml</dc:format>
    <dc:creator>
     <cc:Agent>
      <dc:title>Matplotlib v3.3.2, https://matplotlib.org/</dc:title>
     </cc:Agent>
    </dc:creator>
   </cc:Work>
  </rdf:RDF>
 </metadata>
 <defs>
  <style type="text/css">*{stroke-linecap:butt;stroke-linejoin:round;}</style>
 </defs>
 <g id="figure_1">
  <g id="patch_1">
   <path d="M 0 216 
L 504 216 
L 504 0 
L 0 0 
z
" style="fill:none;"/>
  </g>
  <g id="axes_1">
   <g id="patch_2">
    <path d="M 63 189 
L 453.6 189 
L 453.6 25.92 
L 63 25.92 
z
" style="fill:#ffffff;"/>
   </g>
   <g id="PathCollection_1">
    <path clip-path="url(#p2bb626f779)" d="M 87.717112 192.236445 
C 88.654747 192.236445 89.554105 191.863919 90.217112 191.200911 
C 90.88012 190.537904 91.252646 189.638546 91.252646 188.700911 
C 91.252646 187.763277 90.88012 186.863919 90.217112 186.200911 
C 89.554105 185.537904 88.654747 185.165377 87.717112 185.165377 
C 86.779478 185.165377 85.88012 185.537904 85.217112 186.200911 
C 84.554105 186.863919 84.181578 187.763277 84.181578 188.700911 
C 84.181578 189.638546 84.554105 190.537904 85.217112 191.200911 
C 85.88012 191.863919 86.779478 192.236445 87.717112 192.236445 
z
" style="fill:none;stroke:#d62728;"/>
   </g>
   <g id="PathCollection_2">
    <path clip-path="url(#p2bb626f779)" d="M 94.679679 191.89428 
C 95.617314 191.89428 96.516671 191.521754 97.179679 190.858746 
C 97.842687 190.195738 98.215213 189.296381 98.215213 188.358746 
C 98.215213 187.421111 97.842687 186.521754 97.179679 185.858746 
C 96.516671 185.195738 95.617314 184.823212 94.679679 184.823212 
C 93.742045 184.823212 92.842687 185.195738 92.179679 185.858746 
C 91.516671 186.521754 91.144145 187.421111 91.144145 188.358746 
C 91.144145 189.296381 91.516671 190.195738 92.179679 190.858746 
C 92.842687 191.521754 93.742045 191.89428 94.679679 191.89428 
z
" style="fill:none;stroke:#d62728;"/>
   </g>
   <g id="PathCollection_3">
    <path clip-path="url(#p2bb626f779)" d="M 101.642246 191.49112 
C 102.579881 191.49112 103.479238 191.118594 104.142246 190.455586 
C 104.805254 189.792578 105.17778 188.893221 105.17778 187.955586 
C 105.17778 187.017952 104.805254 186.118594 104.142246 185.455586 
C 103.479238 184.792578 102.579881 184.420052 101.642246 184.420052 
C 100.704611 184.420052 99.805254 184.792578 99.142246 185.455586 
C 98.479238 186.118594 98.106712 187.017952 98.106712 187.955586 
C 98.106712 188.893221 98.479238 189.792578 99.142246 190.455586 
C 99.805254 191.118594 100.704611 191.49112 101.642246 191.49112 
z
" style="fill:none;stroke:#d62728;"/>
   </g>
   <g id="PathCollection_4">
    <path clip-path="url(#p2bb626f779)" d="M 108.604813 191.026489 
C 109.542447 191.026489 110.441805 190.653963 111.104813 189.990956 
C 111.767821 189.327948 112.140347 188.42859 112.140347 187.490956 
C 112.140347 186.553321 111.767821 185.653963 111.104813 184.990956 
C 110.441805 184.327948 109.542447 183.955422 108.604813 183.955422 
C 107.667178 183.955422 106.767821 184.327948 106.104813 184.990956 
C 105.441805 185.653963 105.069279 186.553321 105.069279 187.490956 
C 105.069279 188.42859 105.441805 189.327948 106.104813 189.990956 
C 106.767821 190.653963 107.667178 191.026489 108.604813 191.026489 
z
" style="fill:none;stroke:#d62728;"/>
   </g>
   <g id="PathCollection_5">
    <path clip-path="url(#p2bb626f779)" d="M 115.56738 190.496611 
C 116.505014 190.496611 117.404372 190.124084 118.06738 189.461077 
C 118.730387 188.798069 119.102914 187.898711 119.102914 186.961077 
C 119.102914 186.023442 118.730387 185.124084 118.06738 184.461077 
C 117.404372 183.798069 116.505014 183.425543 115.56738 183.425543 
C 114.629745 183.425543 113.730387 183.798069 113.06738 184.461077 
C 112.404372 185.124084 112.031846 186.023442 112.031846 186.961077 
C 112.031846 187.898711 112.404372 188.798069 113.06738 189.461077 
C 113.730387 190.124084 114.629745 190.496611 115.56738 190.496611 
z
" style="fill:none;stroke:#d62728;"/>
   </g>
   <g id="PathCollection_6">
    <path clip-path="url(#p2bb626f779)" d="M 122.529947 189.895421 
C 123.467581 189.895421 124.366939 189.522895 125.029947 188.859887 
C 125.692954 188.196879 126.06548 187.297521 126.06548 186.359887 
C 126.06548 185.422252 125.692954 184.522895 125.029947 183.859887 
C 124.366939 183.196879 123.467581 182.824353 122.529947 182.824353 
C 121.592312 182.824353 120.692954 183.196879 120.029947 183.859887 
C 119.366939 184.522895 118.994413 185.422252 118.994413 186.359887 
C 118.994413 187.297521 119.366939 188.196879 120.029947 188.859887 
C 120.692954 189.522895 121.592312 189.895421 122.529947 189.895421 
z
" style="fill:none;stroke:#d62728;"/>
   </g>
   <g id="PathCollection_7">
    <path clip-path="url(#p2bb626f779)" d="M 129.492513 189.215441 
C 130.430148 189.215441 131.329506 188.842915 131.992513 188.179907 
C 132.655521 187.516899 133.028047 186.617542 133.028047 185.679907 
C 133.028047 184.742273 132.655521 183.842915 131.992513 183.179907 
C 131.329506 182.516899 130.430148 182.144373 129.492513 182.144373 
C 128.554879 182.144373 127.655521 182.516899 126.992513 183.179907 
C 126.329506 183.842915 125.956979 184.742273 125.956979 185.679907 
C 125.956979 186.617542 126.329506 187.516899 126.992513 188.179907 
C 127.655521 188.842915 128.554879 189.215441 129.492513 189.215441 
z
" style="fill:none;stroke:#d62728;"/>
   </g>
   <g id="PathCollection_8">
    <path clip-path="url(#p2bb626f779)" d="M 136.45508 188.448548 
C 137.392715 188.448548 138.292072 188.076022 138.95508 187.413014 
C 139.618088 186.750007 139.990614 185.850649 139.990614 184.913014 
C 139.990614 183.97538 139.618088 183.076022 138.95508 182.413014 
C 138.292072 181.750007 137.392715 181.37748 136.45508 181.37748 
C 135.517446 181.37748 134.618088 181.750007 133.95508 182.413014 
C 133.292072 183.076022 132.919546 183.97538 132.919546 184.913014 
C 132.919546 185.850649 133.292072 186.750007 133.95508 187.413014 
C 134.618088 188.076022 135.517446 188.448548 136.45508 188.448548 
z
" style="fill:none;stroke:#d62728;"/>
   </g>
   <g id="PathCollection_9">
    <path clip-path="url(#p2bb626f779)" d="M 143.417647 187.586649 
C 144.355282 187.586649 145.254639 187.214123 145.917647 186.551115 
C 146.580655 185.888107 146.953181 184.98875 146.953181 184.051115 
C 146.953181 183.11348 146.580655 182.214123 145.917647 181.551115 
C 145.254639 180.888107 144.355282 180.515581 143.417647 180.515581 
C 142.480013 180.515581 141.580655 180.888107 140.917647 181.551115 
C 140.254639 182.214123 139.882113 183.11348 139.882113 184.051115 
C 139.882113 184.98875 140.254639 185.888107 140.917647 186.551115 
C 141.580655 187.214123 142.480013 187.586649 143.417647 187.586649 
z
" style="fill:none;stroke:#d62728;"/>
   </g>
   <g id="PathCollection_10">
    <path clip-path="url(#p2bb626f779)" d="M 150.380214 186.622268 
C 151.317848 186.622268 152.217206 186.249742 152.880214 185.586734 
C 153.543222 184.923726 153.915748 184.024369 153.915748 183.086734 
C 153.915748 182.1491 153.543222 181.249742 152.880214 180.586734 
C 152.217206 179.923726 151.317848 179.5512 150.380214 179.5512 
C 149.442579 179.5512 148.543222 179.923726 147.880214 180.586734 
C 147.217206 181.249742 146.84468 182.1491 146.84468 183.086734 
C 146.84468 184.024369 147.217206 184.923726 147.880214 185.586734 
C 148.543222 186.249742 149.442579 186.622268 150.380214 186.622268 
z
" style="fill:none;stroke:#d62728;"/>
   </g>
   <g id="PathCollection_11">
    <path clip-path="url(#p2bb626f779)" d="M 157.342781 185.549043 
C 158.280415 185.549043 159.179773 185.176517 159.842781 184.513509 
C 160.505788 183.850502 160.878315 182.951144 160.878315 182.013509 
C 160.878315 181.075875 160.505788 180.176517 159.842781 179.513509 
C 159.179773 178.850502 158.280415 178.477975 157.342781 178.477975 
C 156.405146 178.477975 155.505788 178.850502 154.842781 179.513509 
C 154.179773 180.176517 153.807247 181.075875 153.807247 182.013509 
C 153.807247 182.951144 154.179773 183.850502 154.842781 184.513509 
C 155.505788 185.176517 156.405146 185.549043 157.342781 185.549043 
z
" style="fill:none;stroke:#d62728;"/>
   </g>
   <g id="PathCollection_12">
    <path clip-path="url(#p2bb626f779)" d="M 164.305348 184.36214 
C 165.242982 184.36214 166.14234 183.989614 166.805348 183.326607 
C 167.468355 182.663599 167.840881 181.764241 167.840881 180.826607 
C 167.840881 179.888972 167.468355 178.989614 166.805348 178.326607 
C 166.14234 177.663599 165.242982 177.291073 164.305348 177.291073 
C 163.367713 177.291073 162.468355 177.663599 161.805348 178.326607 
C 161.14234 178.989614 160.769814 179.888972 160.769814 180.826607 
C 160.769814 181.764241 161.14234 182.663599 161.805348 183.326607 
C 162.468355 183.989614 163.367713 184.36214 164.305348 184.36214 
z
" style="fill:none;stroke:#d62728;"/>
   </g>
   <g id="PathCollection_13">
    <path clip-path="url(#p2bb626f779)" d="M 171.267914 183.058588 
C 172.205549 183.058588 173.104907 182.686062 173.767914 182.023054 
C 174.430922 181.360046 174.803448 180.460688 174.803448 179.523054 
C 174.803448 178.585419 174.430922 177.686062 173.767914 177.023054 
C 173.104907 176.360046 172.205549 175.98752 171.267914 175.98752 
C 170.33028 175.98752 169.430922 176.360046 168.767914 177.023054 
C 168.104907 177.686062 167.732381 178.585419 167.732381 179.523054 
C 167.732381 180.460688 168.104907 181.360046 168.767914 182.023054 
C 169.430922 182.686062 170.33028 183.058588 171.267914 183.058588 
z
" style="fill:none;stroke:#d62728;"/>
   </g>
   <g id="PathCollection_14">
    <path clip-path="url(#p2bb626f779)" d="M 178.230481 181.637532 
C 179.168116 181.637532 180.067474 181.265006 180.730481 180.601998 
C 181.393489 179.93899 181.766015 179.039633 181.766015 178.101998 
C 181.766015 177.164363 181.393489 176.265006 180.730481 175.601998 
C 180.067474 174.93899 179.168116 174.566464 178.230481 174.566464 
C 177.292847 174.566464 176.393489 174.93899 175.730481 175.601998 
C 175.067474 176.265006 174.694947 177.164363 174.694947 178.101998 
C 174.694947 179.039633 175.067474 179.93899 175.730481 180.601998 
C 176.393489 181.265006 177.292847 181.637532 178.230481 181.637532 
z
" style="fill:none;stroke:#d62728;"/>
   </g>
   <g id="PathCollection_15">
    <path clip-path="url(#p2bb626f779)" d="M 185.193048 180.100421 
C 186.130683 180.100421 187.03004 179.727895 187.693048 179.064887 
C 188.356056 178.401879 188.728582 177.502521 188.728582 176.564887 
C 188.728582 175.627252 188.356056 174.727895 187.693048 174.064887 
C 187.03004 173.401879 186.130683 173.029353 185.193048 173.029353 
C 184.255414 173.029353 183.356056 173.401879 182.693048 174.064887 
C 182.03004 174.727895 181.657514 175.627252 181.657514 176.564887 
C 181.657514 177.502521 182.03004 178.401879 182.693048 179.064887 
C 183.356056 179.727895 184.255414 180.100421 185.193048 180.100421 
z
" style="fill:none;stroke:#d62728;"/>
   </g>
   <g id="PathCollection_16">
    <path clip-path="url(#p2bb626f779)" d="M 192.155615 178.451121 
C 193.09325 178.451121 193.992607 178.078595 194.655615 177.415587 
C 195.318623 176.752579 195.691149 175.853222 195.691149 174.915587 
C 195.691149 173.977952 195.318623 173.078595 194.655615 172.415587 
C 193.992607 171.752579 193.09325 171.380053 192.155615 171.380053 
C 191.21798 171.380053 190.318623 171.752579 189.655615 172.415587 
C 188.992607 173.078595 188.620081 173.977952 188.620081 174.915587 
C 188.620081 175.853222 188.992607 176.752579 189.655615 177.415587 
C 190.318623 178.078595 191.21798 178.451121 192.155615 178.451121 
z
" style="fill:none;stroke:#d62728;"/>
   </g>
   <g id="PathCollection_17">
    <path clip-path="url(#p2bb626f779)" d="M 199.118182 176.695964 
C 200.055816 176.695964 200.955174 176.323437 201.618182 175.66043 
C 202.28119 174.997422 202.653716 174.098064 202.653716 173.16043 
C 202.653716 172.222795 202.28119 171.323437 201.618182 170.66043 
C 200.955174 169.997422 200.055816 169.624896 199.118182 169.624896 
C 198.180547 169.624896 197.28119 169.997422 196.618182 170.66043 
C 195.955174 171.323437 195.582648 172.222795 195.582648 173.16043 
C 195.582648 174.098064 195.955174 174.997422 196.618182 175.66043 
C 197.28119 176.323437 198.180547 176.695964 199.118182 176.695964 
z
" style="fill:none;stroke:#d62728;"/>
   </g>
   <g id="PathCollection_18">
    <path clip-path="url(#p2bb626f779)" d="M 206.080749 174.843733 
C 207.018383 174.843733 207.917741 174.471206 208.580749 173.808199 
C 209.243756 173.145191 209.616283 172.245833 209.616283 171.308199 
C 209.616283 170.370564 209.243756 169.471206 208.580749 168.808199 
C 207.917741 168.145191 207.018383 167.772665 206.080749 167.772665 
C 205.143114 167.772665 204.243756 168.145191 203.580749 168.808199 
C 202.917741 169.471206 202.545215 170.370564 202.545215 171.308199 
C 202.545215 172.245833 202.917741 173.145191 203.580749 173.808199 
C 204.243756 174.471206 205.143114 174.843733 206.080749 174.843733 
z
" style="fill:none;stroke:#d62728;"/>
   </g>
   <g id="PathCollection_19">
    <path clip-path="url(#p2bb626f779)" d="M 213.043316 172.905592 
C 213.98095 172.905592 214.880308 172.533066 215.543316 171.870058 
C 216.206323 171.20705 216.578849 170.307693 216.578849 169.370058 
C 216.578849 168.432424 216.206323 167.533066 215.543316 166.870058 
C 214.880308 166.20705 213.98095 165.834524 213.043316 165.834524 
C 212.105681 165.834524 211.206323 166.20705 210.543316 166.870058 
C 209.880308 167.533066 209.507782 168.432424 209.507782 169.370058 
C 209.507782 170.307693 209.880308 171.20705 210.543316 171.870058 
C 211.206323 172.533066 212.105681 172.905592 213.043316 172.905592 
z
" style="fill:none;stroke:#d62728;"/>
   </g>
   <g id="PathCollection_20">
    <path clip-path="url(#p2bb626f779)" d="M 220.005882 170.894958 
C 220.943517 170.894958 221.842875 170.522432 222.505882 169.859424 
C 223.16889 169.196416 223.541416 168.297058 223.541416 167.359424 
C 223.541416 166.421789 223.16889 165.522432 222.505882 164.859424 
C 221.842875 164.196416 220.943517 163.82389 220.005882 163.82389 
C 219.068248 163.82389 218.16889 164.196416 217.505882 164.859424 
C 216.842875 165.522432 216.470348 166.421789 216.470348 167.359424 
C 216.470348 168.297058 216.842875 169.196416 217.505882 169.859424 
C 218.16889 170.522432 219.068248 170.894958 220.005882 170.894958 
z
" style="fill:none;stroke:#d62728;"/>
   </g>
   <g id="PathCollection_21">
    <path clip-path="url(#p2bb626f779)" d="M 226.968449 168.827321 
C 227.906084 168.827321 228.805441 168.454795 229.468449 167.791787 
C 230.131457 167.128779 230.503983 166.229422 230.503983 165.291787 
C 230.503983 164.354153 230.131457 163.454795 229.468449 162.791787 
C 228.805441 162.128779 227.906084 161.756253 226.968449 161.756253 
C 226.030815 161.756253 225.131457 162.128779 224.468449 162.791787 
C 223.805441 163.454795 223.432915 164.354153 223.432915 165.291787 
C 223.432915 166.229422 223.805441 167.128779 224.468449 167.791787 
C 225.131457 168.454795 226.030815 168.827321 226.968449 168.827321 
z
" style="fill:none;stroke:#d62728;"/>
   </g>
   <g id="PathCollection_22">
    <path clip-path="url(#p2bb626f779)" d="M 233.931016 166.72002 
C 234.868651 166.72002 235.768008 166.347494 236.431016 165.684486 
C 237.094024 165.021478 237.46655 164.122121 237.46655 163.184486 
C 237.46655 162.246852 237.094024 161.347494 236.431016 160.684486 
C 235.768008 160.021478 234.868651 159.648952 233.931016 159.648952 
C 232.993381 159.648952 232.094024 160.021478 231.431016 160.684486 
C 230.768008 161.347494 230.395482 162.246852 230.395482 163.184486 
C 230.395482 164.122121 230.768008 165.021478 231.431016 165.684486 
C 232.094024 166.347494 232.993381 166.72002 233.931016 166.72002 
z
" style="fill:none;stroke:#d62728;"/>
   </g>
   <g id="PathCollection_23">
    <path clip-path="url(#p2bb626f779)" d="M 240.893583 164.591972 
C 241.831217 164.591972 242.730575 164.219445 243.393583 163.556438 
C 244.056591 162.89343 244.429117 161.994072 244.429117 161.056438 
C 244.429117 160.118803 244.056591 159.219445 243.393583 158.556438 
C 242.730575 157.89343 241.831217 157.520904 240.893583 157.520904 
C 239.955948 157.520904 239.056591 157.89343 238.393583 158.556438 
C 237.730575 159.219445 237.358049 160.118803 237.358049 161.056438 
C 237.358049 161.994072 237.730575 162.89343 238.393583 163.556438 
C 239.056591 164.219445 239.955948 164.591972 240.893583 164.591972 
z
" style="fill:none;stroke:#d62728;"/>
   </g>
   <g id="PathCollection_24">
    <path clip-path="url(#p2bb626f779)" d="M 247.85615 162.463358 
C 248.793784 162.463358 249.693142 162.090831 250.35615 161.427824 
C 251.019157 160.764816 251.391684 159.865458 251.391684 158.927824 
C 251.391684 157.990189 251.019157 157.090831 250.35615 156.427824 
C 249.693142 155.764816 248.793784 155.39229 247.85615 155.39229 
C 246.918515 155.39229 246.019157 155.764816 245.35615 156.427824 
C 244.693142 157.090831 244.320616 157.990189 244.320616 158.927824 
C 244.320616 159.865458 244.693142 160.764816 245.35615 161.427824 
C 246.019157 162.090831 246.918515 162.463358 247.85615 162.463358 
z
" style="fill:none;stroke:#d62728;"/>
   </g>
   <g id="PathCollection_25">
    <path clip-path="url(#p2bb626f779)" d="M 254.818717 160.355278 
C 255.756351 160.355278 256.655709 159.982752 257.318717 159.319744 
C 257.981724 158.656736 258.35425 157.757379 258.35425 156.819744 
C 258.35425 155.88211 257.981724 154.982752 257.318717 154.319744 
C 256.655709 153.656736 255.756351 153.28421 254.818717 153.28421 
C 253.881082 153.28421 252.981724 153.656736 252.318717 154.319744 
C 251.655709 154.982752 251.283183 155.88211 251.283183 156.819744 
C 251.283183 157.757379 251.655709 158.656736 252.318717 159.319744 
C 252.981724 159.982752 253.881082 160.355278 254.818717 160.355278 
z
" style="fill:none;stroke:#d62728;"/>
   </g>
   <g id="PathCollection_26">
    <path clip-path="url(#p2bb626f779)" d="M 261.781283 158.289371 
C 262.718918 158.289371 263.618276 157.916845 264.281283 157.253837 
C 264.944291 156.590829 265.316817 155.691472 265.316817 154.753837 
C 265.316817 153.816202 264.944291 152.916845 264.281283 152.253837 
C 263.618276 151.590829 262.718918 151.218303 261.781283 151.218303 
C 260.843649 151.218303 259.944291 151.590829 259.281283 152.253837 
C 258.618276 152.916845 258.24575 153.816202 258.24575 154.753837 
C 258.24575 155.691472 258.618276 156.590829 259.281283 157.253837 
C 259.944291 157.916845 260.843649 158.289371 261.781283 158.289371 
z
" style="fill:none;stroke:#d62728;"/>
   </g>
   <g id="PathCollection_27">
    <path clip-path="url(#p2bb626f779)" d="M 268.74385 156.287398 
C 269.681485 156.287398 270.580843 155.914872 271.24385 155.251864 
C 271.906858 154.588856 272.279384 153.689499 272.279384 152.751864 
C 272.279384 151.814229 271.906858 150.914872 271.24385 150.251864 
C 270.580843 149.588856 269.681485 149.21633 268.74385 149.21633 
C 267.806216 149.21633 266.906858 149.588856 266.24385 150.251864 
C 265.580843 150.914872 265.208316 151.814229 265.208316 152.751864 
C 265.208316 153.689499 265.580843 154.588856 266.24385 155.251864 
C 266.906858 155.914872 267.806216 156.287398 268.74385 156.287398 
z
" style="fill:none;stroke:#d62728;"/>
   </g>
   <g id="PathCollection_28">
    <path clip-path="url(#p2bb626f779)" d="M 275.706417 154.37081 
C 276.644052 154.37081 277.543409 153.998284 278.206417 153.335276 
C 278.869425 152.672268 279.241951 151.772911 279.241951 150.835276 
C 279.241951 149.897642 278.869425 148.998284 278.206417 148.335276 
C 277.543409 147.672268 276.644052 147.299742 275.706417 147.299742 
C 274.768783 147.299742 273.869425 147.672268 273.206417 148.335276 
C 272.543409 148.998284 272.170883 149.897642 272.170883 150.835276 
C 272.170883 151.772911 272.543409 152.672268 273.206417 153.335276 
C 273.869425 153.998284 274.768783 154.37081 275.706417 154.37081 
z
" style="fill:none;stroke:#d62728;"/>
   </g>
   <g id="PathCollection_29">
    <path clip-path="url(#p2bb626f779)" d="M 282.668984 152.560286 
C 283.606619 152.560286 284.505976 152.18776 285.168984 151.524752 
C 285.831992 150.861745 286.204518 149.962387 286.204518 149.024752 
C 286.204518 148.087118 285.831992 147.18776 285.168984 146.524752 
C 284.505976 145.861745 283.606619 145.489219 282.668984 145.489219 
C 281.731349 145.489219 280.831992 145.861745 280.168984 146.524752 
C 279.505976 147.18776 279.13345 148.087118 279.13345 149.024752 
C 279.13345 149.962387 279.505976 150.861745 280.168984 151.524752 
C 280.831992 152.18776 281.731349 152.560286 282.668984 152.560286 
z
" style="fill:none;stroke:#d62728;"/>
   </g>
   <g id="PathCollection_30">
    <path clip-path="url(#p2bb626f779)" d="M 289.631551 150.875254 
C 290.569185 150.875254 291.468543 150.502728 292.131551 149.83972 
C 292.794559 149.176712 293.167085 148.277355 293.167085 147.33972 
C 293.167085 146.402086 292.794559 145.502728 292.131551 144.83972 
C 291.468543 144.176712 290.569185 143.804186 289.631551 143.804186 
C 288.693916 143.804186 287.794559 144.176712 287.131551 144.83972 
C 286.468543 145.502728 286.096017 146.402086 286.096017 147.33972 
C 286.096017 148.277355 286.468543 149.176712 287.131551 149.83972 
C 287.794559 150.502728 288.693916 150.875254 289.631551 150.875254 
z
" style="fill:none;stroke:#d62728;"/>
   </g>
   <g id="PathCollection_31">
    <path clip-path="url(#p2bb626f779)" d="M 296.594118 149.333397 
C 297.531752 149.333397 298.43111 148.960871 299.094118 148.297863 
C 299.757125 147.634856 300.129652 146.735498 300.129652 145.797863 
C 300.129652 144.860229 299.757125 143.960871 299.094118 143.297863 
C 298.43111 142.634856 297.531752 142.262329 296.594118 142.262329 
C 295.656483 142.262329 294.757125 142.634856 294.094118 143.297863 
C 293.43111 143.960871 293.058584 144.860229 293.058584 145.797863 
C 293.058584 146.735498 293.43111 147.634856 294.094118 148.297863 
C 294.757125 148.960871 295.656483 149.333397 296.594118 149.333397 
z
" style="fill:none;stroke:#d62728;"/>
   </g>
   <g id="PathCollection_32">
    <path clip-path="url(#p2bb626f779)" d="M 303.556684 147.950148 
C 304.494319 147.950148 305.393677 147.577622 306.056684 146.914614 
C 306.719692 146.251606 307.092218 145.352248 307.092218 144.414614 
C 307.092218 143.476979 306.719692 142.577622 306.056684 141.914614 
C 305.393677 141.251606 304.494319 140.87908 303.556684 140.87908 
C 302.61905 140.87908 301.719692 141.251606 301.056684 141.914614 
C 300.393677 142.577622 300.021151 143.476979 300.021151 144.414614 
C 300.021151 145.352248 300.393677 146.251606 301.056684 146.914614 
C 301.719692 147.577622 302.61905 147.950148 303.556684 147.950148 
z
" style="fill:none;stroke:#d62728;"/>
   </g>
   <g id="PathCollection_33">
    <path clip-path="url(#p2bb626f779)" d="M 310.519251 146.738173 
C 311.456886 146.738173 312.356244 146.365647 313.019251 145.702639 
C 313.682259 145.039631 314.054785 144.140273 314.054785 143.202639 
C 314.054785 142.265004 313.682259 141.365647 313.019251 140.702639 
C 312.356244 140.039631 311.456886 139.667105 310.519251 139.667105 
C 309.581617 139.667105 308.682259 140.039631 308.019251 140.702639 
C 307.356244 141.365647 306.983717 142.265004 306.983717 143.202639 
C 306.983717 144.140273 307.356244 145.039631 308.019251 145.702639 
C 308.682259 146.365647 309.581617 146.738173 310.519251 146.738173 
z
" style="fill:none;stroke:#d62728;"/>
   </g>
   <g id="PathCollection_34">
    <path clip-path="url(#p2bb626f779)" d="M 317.481818 145.706856 
C 318.419453 145.706856 319.31881 145.33433 319.981818 144.671322 
C 320.644826 144.008315 321.017352 143.108957 321.017352 142.171322 
C 321.017352 141.233688 320.644826 140.33433 319.981818 139.671322 
C 319.31881 139.008315 318.419453 138.635788 317.481818 138.635788 
C 316.544184 138.635788 315.644826 139.008315 314.981818 139.671322 
C 314.31881 140.33433 313.946284 141.233688 313.946284 142.171322 
C 313.946284 143.108957 314.31881 144.008315 314.981818 144.671322 
C 315.644826 145.33433 316.544184 145.706856 317.481818 145.706856 
z
" style="fill:none;stroke:#d62728;"/>
   </g>
   <g id="PathCollection_35">
    <path clip-path="url(#p2bb626f779)" d="M 324.444385 144.861779 
C 325.38202 144.861779 326.281377 144.489253 326.944385 143.826245 
C 327.607393 143.163238 327.979919 142.26388 327.979919 141.326245 
C 327.979919 140.388611 327.607393 139.489253 326.944385 138.826245 
C 326.281377 138.163238 325.38202 137.790711 324.444385 137.790711 
C 323.50675 137.790711 322.607393 138.163238 321.944385 138.826245 
C 321.281377 139.489253 320.908851 140.388611 320.908851 141.326245 
C 320.908851 142.26388 321.281377 143.163238 321.944385 143.826245 
C 322.607393 144.489253 323.50675 144.861779 324.444385 144.861779 
z
" style="fill:none;stroke:#d62728;"/>
   </g>
   <g id="PathCollection_36">
    <path clip-path="url(#p2bb626f779)" d="M 331.406952 144.204203 
C 332.344586 144.204203 333.243944 143.831676 333.906952 143.168669 
C 334.56996 142.505661 334.942486 141.606303 334.942486 140.668669 
C 334.942486 139.731034 334.56996 138.831676 333.906952 138.168669 
C 333.243944 137.505661 332.344586 137.133135 331.406952 137.133135 
C 330.469317 137.133135 329.56996 137.505661 328.906952 138.168669 
C 328.243944 138.831676 327.871418 139.731034 327.871418 140.668669 
C 327.871418 141.606303 328.243944 142.505661 328.906952 143.168669 
C 329.56996 143.831676 330.469317 144.204203 331.406952 144.204203 
z
" style="fill:none;stroke:#d62728;"/>
   </g>
   <g id="PathCollection_37">
    <path clip-path="url(#p2bb626f779)" d="M 338.369519 143.730558 
C 339.307153 143.730558 340.206511 143.358031 340.869519 142.695024 
C 341.532526 142.032016 341.905053 141.132658 341.905053 140.195024 
C 341.905053 139.257389 341.532526 138.358031 340.869519 137.695024 
C 340.206511 137.032016 339.307153 136.65949 338.369519 136.65949 
C 337.431884 136.65949 336.532526 137.032016 335.869519 137.695024 
C 335.206511 138.358031 334.833985 139.257389 334.833985 140.195024 
C 334.833985 141.132658 335.206511 142.032016 335.869519 142.695024 
C 336.532526 143.358031 337.431884 143.730558 338.369519 143.730558 
z
" style="fill:none;stroke:#d62728;"/>
   </g>
   <g id="PathCollection_38">
    <path clip-path="url(#p2bb626f779)" d="M 345.332086 143.431944 
C 346.26972 143.431944 347.169078 143.059418 347.832086 142.39641 
C 348.495093 141.733403 348.867619 140.834045 348.867619 139.89641 
C 348.867619 138.958776 348.495093 138.059418 347.832086 137.39641 
C 347.169078 136.733403 346.26972 136.360877 345.332086 136.360877 
C 344.394451 136.360877 343.495093 136.733403 342.832086 137.39641 
C 342.169078 138.059418 341.796552 138.958776 341.796552 139.89641 
C 341.796552 140.834045 342.169078 141.733403 342.832086 142.39641 
C 343.495093 143.059418 344.394451 143.431944 345.332086 143.431944 
z
" style="fill:none;stroke:#d62728;"/>
   </g>
   <g id="PathCollection_39">
    <path clip-path="url(#p2bb626f779)" d="M 352.294652 143.293645 
C 353.232287 143.293645 354.131645 142.921119 354.794652 142.258111 
C 355.45766 141.595103 355.830186 140.695745 355.830186 139.758111 
C 355.830186 138.820476 355.45766 137.921119 354.794652 137.258111 
C 354.131645 136.595103 353.232287 136.222577 352.294652 136.222577 
C 351.357018 136.222577 350.45766 136.595103 349.794652 137.258111 
C 349.131645 137.921119 348.759119 138.820476 348.759119 139.758111 
C 348.759119 140.695745 349.131645 141.595103 349.794652 142.258111 
C 350.45766 142.921119 351.357018 143.293645 352.294652 143.293645 
z
" style="fill:none;stroke:#d62728;"/>
   </g>
   <g id="PathCollection_40">
    <path clip-path="url(#p2bb626f779)" d="M 359.257219 143.294654 
C 360.194854 143.294654 361.094212 142.922128 361.757219 142.25912 
C 362.420227 141.596112 362.792753 140.696754 362.792753 139.75912 
C 362.792753 138.821485 362.420227 137.922128 361.757219 137.25912 
C 361.094212 136.596112 360.194854 136.223586 359.257219 136.223586 
C 358.319585 136.223586 357.420227 136.596112 356.757219 137.25912 
C 356.094212 137.922128 355.721685 138.821485 355.721685 139.75912 
C 355.721685 140.696754 356.094212 141.596112 356.757219 142.25912 
C 357.420227 142.922128 358.319585 143.294654 359.257219 143.294654 
z
" style="fill:none;stroke:#d62728;"/>
   </g>
   <g id="PathCollection_41">
    <path clip-path="url(#p2bb626f779)" d="M 366.219786 143.407229 
C 367.157421 143.407229 368.056778 143.034703 368.719786 142.371695 
C 369.382794 141.708687 369.75532 140.80933 369.75532 139.871695 
C 369.75532 138.93406 369.382794 138.034703 368.719786 137.371695 
C 368.056778 136.708687 367.157421 136.336161 366.219786 136.336161 
C 365.282152 136.336161 364.382794 136.708687 363.719786 137.371695 
C 363.056778 138.034703 362.684252 138.93406 362.684252 139.871695 
C 362.684252 140.80933 363.056778 141.708687 363.719786 142.371695 
C 364.382794 143.034703 365.282152 143.407229 366.219786 143.407229 
z
" style="fill:none;stroke:#d62728;"/>
   </g>
   <g id="PathCollection_42">
    <path clip-path="url(#p2bb626f779)" d="M 373.182353 143.596466 
C 374.119987 143.596466 375.019345 143.22394 375.682353 142.560932 
C 376.345361 141.897924 376.717887 140.998567 376.717887 140.060932 
C 376.717887 139.123298 376.345361 138.22394 375.682353 137.560932 
C 375.019345 136.897924 374.119987 136.525398 373.182353 136.525398 
C 372.244718 136.525398 371.345361 136.897924 370.682353 137.560932 
C 370.019345 138.22394 369.646819 139.123298 369.646819 140.060932 
C 369.646819 140.998567 370.019345 141.897924 370.682353 142.560932 
C 371.345361 143.22394 372.244718 143.596466 373.182353 143.596466 
z
" style="fill:none;stroke:#d62728;"/>
   </g>
   <g id="PathCollection_43">
    <path clip-path="url(#p2bb626f779)" d="M 380.14492 143.819902 
C 381.082554 143.819902 381.981912 143.447376 382.64492 142.784368 
C 383.307928 142.12136 383.680454 141.222003 383.680454 140.284368 
C 383.680454 139.346733 383.307928 138.447376 382.64492 137.784368 
C 381.981912 137.12136 381.082554 136.748834 380.14492 136.748834 
C 379.207285 136.748834 378.307928 137.12136 377.64492 137.784368 
C 376.981912 138.447376 376.609386 139.346733 376.609386 140.284368 
C 376.609386 141.222003 376.981912 142.12136 377.64492 142.784368 
C 378.307928 143.447376 379.207285 143.819902 380.14492 143.819902 
z
" style="fill:none;stroke:#d62728;"/>
   </g>
   <g id="PathCollection_44">
    <path clip-path="url(#p2bb626f779)" d="M 387.107487 144.027149 
C 388.045121 144.027149 388.944479 143.654623 389.607487 142.991616 
C 390.270494 142.328608 390.643021 141.42925 390.643021 140.491616 
C 390.643021 139.553981 390.270494 138.654623 389.607487 137.991616 
C 388.944479 137.328608 388.045121 136.956082 387.107487 136.956082 
C 386.169852 136.956082 385.270494 137.328608 384.607487 137.991616 
C 383.944479 138.654623 383.571953 139.553981 383.571953 140.491616 
C 383.571953 141.42925 383.944479 142.328608 384.607487 142.991616 
C 385.270494 143.654623 386.169852 144.027149 387.107487 144.027149 
z
" style="fill:none;stroke:#d62728;"/>
   </g>
   <g id="PathCollection_45">
    <path clip-path="url(#p2bb626f779)" d="M 394.070053 144.159568 
C 395.007688 144.159568 395.907046 143.787041 396.570053 143.124034 
C 397.233061 142.461026 397.605587 141.561668 397.605587 140.624034 
C 397.605587 139.686399 397.233061 138.787041 396.570053 138.124034 
C 395.907046 137.461026 395.007688 137.0885 394.070053 137.0885 
C 393.132419 137.0885 392.233061 137.461026 391.570053 138.124034 
C 390.907046 138.787041 390.53452 139.686399 390.53452 140.624034 
C 390.53452 141.561668 390.907046 142.461026 391.570053 143.124034 
C 392.233061 143.787041 393.132419 144.159568 394.070053 144.159568 
z
" style="fill:none;stroke:#d62728;"/>
   </g>
   <g id="PathCollection_46">
    <path clip-path="url(#p2bb626f779)" d="M 401.03262 144.149969 
C 401.970255 144.149969 402.869613 143.777442 403.53262 143.114435 
C 404.195628 142.451427 404.568154 141.552069 404.568154 140.614435 
C 404.568154 139.6768 404.195628 138.777442 403.53262 138.114435 
C 402.869613 137.451427 401.970255 137.078901 401.03262 137.078901 
C 400.094986 137.078901 399.195628 137.451427 398.53262 138.114435 
C 397.869613 138.777442 397.497086 139.6768 397.497086 140.614435 
C 397.497086 141.552069 397.869613 142.451427 398.53262 143.114435 
C 399.195628 143.777442 400.094986 144.149969 401.03262 144.149969 
z
" style="fill:none;stroke:#d62728;"/>
   </g>
   <g id="PathCollection_47">
    <path clip-path="url(#p2bb626f779)" d="M 407.995187 143.922371 
C 408.932822 143.922371 409.832179 143.549844 410.495187 142.886837 
C 411.158195 142.223829 411.530721 141.324471 411.530721 140.386837 
C 411.530721 139.449202 411.158195 138.549844 410.495187 137.886837 
C 409.832179 137.223829 408.932822 136.851303 407.995187 136.851303 
C 407.057553 136.851303 406.158195 137.223829 405.495187 137.886837 
C 404.832179 138.549844 404.459653 139.449202 404.459653 140.386837 
C 404.459653 141.324471 404.832179 142.223829 405.495187 142.886837 
C 406.158195 143.549844 407.057553 143.922371 407.995187 143.922371 
z
" style="fill:none;stroke:#d62728;"/>
   </g>
   <g id="PathCollection_48">
    <path clip-path="url(#p2bb626f779)" d="M 414.957754 143.391794 
C 415.895389 143.391794 416.794746 143.019268 417.457754 142.35626 
C 418.120762 141.693252 418.493288 140.793894 418.493288 139.85626 
C 418.493288 138.918625 418.120762 138.019268 417.457754 137.35626 
C 416.794746 136.693252 415.895389 136.320726 414.957754 136.320726 
C 414.020119 136.320726 413.120762 136.693252 412.457754 137.35626 
C 411.794746 138.019268 411.42222 138.918625 411.42222 139.85626 
C 411.42222 140.793894 411.794746 141.693252 412.457754 142.35626 
C 413.120762 143.019268 414.020119 143.391794 414.957754 143.391794 
z
" style="fill:none;stroke:#d62728;"/>
   </g>
   <g id="PathCollection_49">
    <path clip-path="url(#p2bb626f779)" d="M 421.920321 142.464106 
C 422.857955 142.464106 423.757313 142.09158 424.420321 141.428572 
C 425.083329 140.765564 425.455855 139.866207 425.455855 138.928572 
C 425.455855 137.990938 425.083329 137.09158 424.420321 136.428572 
C 423.757313 135.765564 422.857955 135.393038 421.920321 135.393038 
C 420.982686 135.393038 420.083329 135.765564 419.420321 136.428572 
C 418.757313 137.09158 418.384787 137.990938 418.384787 138.928572 
C 418.384787 139.866207 418.757313 140.765564 419.420321 141.428572 
C 420.083329 142.09158 420.982686 142.464106 421.920321 142.464106 
z
" style="fill:none;stroke:#d62728;"/>
   </g>
   <g id="PathCollection_50">
    <path clip-path="url(#p2bb626f779)" d="M 428.882888 141.035924 
C 429.820522 141.035924 430.71988 140.663398 431.382888 140.00039 
C 432.045895 139.337382 432.418422 138.438025 432.418422 137.50039 
C 432.418422 136.562756 432.045895 135.663398 431.382888 135.00039 
C 430.71988 134.337382 429.820522 133.964856 428.882888 133.964856 
C 427.945253 133.964856 427.045895 134.337382 426.382888 135.00039 
C 425.71988 135.663398 425.347354 136.562756 425.347354 137.50039 
C 425.347354 138.438025 425.71988 139.337382 426.382888 140.00039 
C 427.045895 140.663398 427.945253 141.035924 428.882888 141.035924 
z
" style="fill:none;stroke:#d62728;"/>
   </g>
   <g id="PathCollection_51">
    <path clip-path="url(#p2bb626f779)" d="M 435.845455 138.994569 
C 436.783089 138.994569 437.682447 138.622043 438.345455 137.959035 
C 439.008462 137.296028 439.380988 136.39667 439.380988 135.459035 
C 439.380988 134.521401 439.008462 133.622043 438.345455 132.959035 
C 437.682447 132.296028 436.783089 131.923501 435.845455 131.923501 
C 434.90782 131.923501 434.008462 132.296028 433.345455 132.959035 
C 432.682447 133.622043 432.309921 134.521401 432.309921 135.459035 
C 432.309921 136.39667 432.682447 137.296028 433.345455 137.959035 
C 434.008462 138.622043 434.90782 138.994569 435.845455 138.994569 
z
" style="fill:none;stroke:#d62728;"/>
   </g>
   <g id="PathCollection_52">
    <defs>
     <path d="M 0 3.535534 
C 0.937635 3.535534 1.836992 3.163008 2.5 2.5 
C 3.163008 1.836992 3.535534 0.937635 3.535534 0 
C 3.535534 -0.937635 3.163008 -1.836992 2.5 -2.5 
C 1.836992 -3.163008 0.937635 -3.535534 0 -3.535534 
C -0.937635 -3.535534 -1.836992 -3.163008 -2.5 -2.5 
C -3.163008 -1.836992 -3.535534 -0.937635 -3.535534 0 
C -3.535534 0.937635 -3.163008 1.836992 -2.5 2.5 
C -1.836992 3.163008 -0.937635 3.535534 0 3.535534 
z
" id="m19abbc8ae5" style="stroke:#d62728;"/>
    </defs>
    <g clip-path="url(#p2bb626f779)">
     <use style="fill:#d62728;stroke:#d62728;" x="87.717112" xlink:href="#m19abbc8ae5" y="188.704825"/>
    </g>
   </g>
   <g id="PathCollection_53">
    <g clip-path="url(#p2bb626f779)">
     <use style="fill:#d62728;stroke:#d62728;" x="94.679679" xlink:href="#m19abbc8ae5" y="188.803876"/>
    </g>
   </g>
   <g id="PathCollection_54">
    <g clip-path="url(#p2bb626f779)">
     <use style="fill:#d62728;stroke:#d62728;" x="101.642246" xlink:href="#m19abbc8ae5" y="188.608702"/>
    </g>
   </g>
   <g id="PathCollection_55">
    <g clip-path="url(#p2bb626f779)">
     <use style="fill:#d62728;stroke:#d62728;" x="108.604813" xlink:href="#m19abbc8ae5" y="188.177488"/>
    </g>
   </g>
   <g id="PathCollection_56">
    <g clip-path="url(#p2bb626f779)">
     <use style="fill:#d62728;stroke:#d62728;" x="115.56738" xlink:href="#m19abbc8ae5" y="187.557383"/>
    </g>
   </g>
   <g id="PathCollection_57">
    <g clip-path="url(#p2bb626f779)">
     <use style="fill:#d62728;stroke:#d62728;" x="122.529947" xlink:href="#m19abbc8ae5" y="186.785679"/>
    </g>
   </g>
   <g id="PathCollection_58">
    <g clip-path="url(#p2bb626f779)">
     <use style="fill:#d62728;stroke:#d62728;" x="129.492513" xlink:href="#m19abbc8ae5" y="185.890874"/>
    </g>
   </g>
   <g id="PathCollection_59">
    <g clip-path="url(#p2bb626f779)">
     <use style="fill:#d62728;stroke:#d62728;" x="136.45508" xlink:href="#m19abbc8ae5" y="184.893731"/>
    </g>
   </g>
   <g id="PathCollection_60">
    <g clip-path="url(#p2bb626f779)">
     <use style="fill:#d62728;stroke:#d62728;" x="143.417647" xlink:href="#m19abbc8ae5" y="183.808305"/>
    </g>
   </g>
   <g id="PathCollection_61">
    <g clip-path="url(#p2bb626f779)">
     <use style="fill:#d62728;stroke:#d62728;" x="150.380214" xlink:href="#m19abbc8ae5" y="182.642953"/>
    </g>
   </g>
   <g id="PathCollection_62">
    <g clip-path="url(#p2bb626f779)">
     <use style="fill:#d62728;stroke:#d62728;" x="157.342781" xlink:href="#m19abbc8ae5" y="181.401309"/>
    </g>
   </g>
   <g id="PathCollection_63">
    <g clip-path="url(#p2bb626f779)">
     <use style="fill:#d62728;stroke:#d62728;" x="164.305348" xlink:href="#m19abbc8ae5" y="180.083229"/>
    </g>
   </g>
   <g id="PathCollection_64">
    <g clip-path="url(#p2bb626f779)">
     <use style="fill:#d62728;stroke:#d62728;" x="171.267914" xlink:href="#m19abbc8ae5" y="178.685698"/>
    </g>
   </g>
   <g id="PathCollection_65">
    <g clip-path="url(#p2bb626f779)">
     <use style="fill:#d62728;stroke:#d62728;" x="178.230481" xlink:href="#m19abbc8ae5" y="177.203698"/>
    </g>
   </g>
   <g id="PathCollection_66">
    <g clip-path="url(#p2bb626f779)">
     <use style="fill:#d62728;stroke:#d62728;" x="185.193048" xlink:href="#m19abbc8ae5" y="175.631016"/>
    </g>
   </g>
   <g id="PathCollection_67">
    <g clip-path="url(#p2bb626f779)">
     <use style="fill:#d62728;stroke:#d62728;" x="192.155615" xlink:href="#m19abbc8ae5" y="173.961025"/>
    </g>
   </g>
   <g id="PathCollection_68">
    <g clip-path="url(#p2bb626f779)">
     <use style="fill:#d62728;stroke:#d62728;" x="199.118182" xlink:href="#m19abbc8ae5" y="172.187388"/>
    </g>
   </g>
   <g id="PathCollection_69">
    <g clip-path="url(#p2bb626f779)">
     <use style="fill:#d62728;stroke:#d62728;" x="206.080749" xlink:href="#m19abbc8ae5" y="170.30472"/>
    </g>
   </g>
   <g id="PathCollection_70">
    <g clip-path="url(#p2bb626f779)">
     <use style="fill:#d62728;stroke:#d62728;" x="213.043316" xlink:href="#m19abbc8ae5" y="168.309174"/>
    </g>
   </g>
   <g id="PathCollection_71">
    <g clip-path="url(#p2bb626f779)">
     <use style="fill:#d62728;stroke:#d62728;" x="220.005882" xlink:href="#m19abbc8ae5" y="166.198972"/>
    </g>
   </g>
   <g id="PathCollection_72">
    <g clip-path="url(#p2bb626f779)">
     <use style="fill:#d62728;stroke:#d62728;" x="226.968449" xlink:href="#m19abbc8ae5" y="163.974853"/>
    </g>
   </g>
   <g id="PathCollection_73">
    <g clip-path="url(#p2bb626f779)">
     <use style="fill:#d62728;stroke:#d62728;" x="233.931016" xlink:href="#m19abbc8ae5" y="161.640458"/>
    </g>
   </g>
   <g id="PathCollection_74">
    <g clip-path="url(#p2bb626f779)">
     <use style="fill:#d62728;stroke:#d62728;" x="240.893583" xlink:href="#m19abbc8ae5" y="159.202622"/>
    </g>
   </g>
   <g id="PathCollection_75">
    <g clip-path="url(#p2bb626f779)">
     <use style="fill:#d62728;stroke:#d62728;" x="247.85615" xlink:href="#m19abbc8ae5" y="156.671594"/>
    </g>
   </g>
   <g id="PathCollection_76">
    <g clip-path="url(#p2bb626f779)">
     <use style="fill:#d62728;stroke:#d62728;" x="254.818717" xlink:href="#m19abbc8ae5" y="154.061161"/>
    </g>
   </g>
   <g id="PathCollection_77">
    <g clip-path="url(#p2bb626f779)">
     <use style="fill:#d62728;stroke:#d62728;" x="261.781283" xlink:href="#m19abbc8ae5" y="151.388683"/>
    </g>
   </g>
   <g id="PathCollection_78">
    <g clip-path="url(#p2bb626f779)">
     <use style="fill:#d62728;stroke:#d62728;" x="268.74385" xlink:href="#m19abbc8ae5" y="148.675032"/>
    </g>
   </g>
   <g id="PathCollection_79">
    <g clip-path="url(#p2bb626f779)">
     <use style="fill:#d62728;stroke:#d62728;" x="275.706417" xlink:href="#m19abbc8ae5" y="145.944426"/>
    </g>
   </g>
   <g id="PathCollection_80">
    <g clip-path="url(#p2bb626f779)">
     <use style="fill:#d62728;stroke:#d62728;" x="282.668984" xlink:href="#m19abbc8ae5" y="143.224166"/>
    </g>
   </g>
   <g id="PathCollection_81">
    <g clip-path="url(#p2bb626f779)">
     <use style="fill:#d62728;stroke:#d62728;" x="289.631551" xlink:href="#m19abbc8ae5" y="140.544256"/>
    </g>
   </g>
   <g id="PathCollection_82">
    <g clip-path="url(#p2bb626f779)">
     <use style="fill:#d62728;stroke:#d62728;" x="296.594118" xlink:href="#m19abbc8ae5" y="137.936914"/>
    </g>
   </g>
   <g id="PathCollection_83">
    <g clip-path="url(#p2bb626f779)">
     <use style="fill:#d62728;stroke:#d62728;" x="303.556684" xlink:href="#m19abbc8ae5" y="135.435965"/>
    </g>
   </g>
   <g id="PathCollection_84">
    <g clip-path="url(#p2bb626f779)">
     <use style="fill:#d62728;stroke:#d62728;" x="310.519251" xlink:href="#m19abbc8ae5" y="133.076109"/>
    </g>
   </g>
   <g id="PathCollection_85">
    <g clip-path="url(#p2bb626f779)">
     <use style="fill:#d62728;stroke:#d62728;" x="317.481818" xlink:href="#m19abbc8ae5" y="130.892072"/>
    </g>
   </g>
   <g id="PathCollection_86">
    <g clip-path="url(#p2bb626f779)">
     <use style="fill:#d62728;stroke:#d62728;" x="324.444385" xlink:href="#m19abbc8ae5" y="128.917612"/>
    </g>
   </g>
   <g id="PathCollection_87">
    <g clip-path="url(#p2bb626f779)">
     <use style="fill:#d62728;stroke:#d62728;" x="331.406952" xlink:href="#m19abbc8ae5" y="127.184408"/>
    </g>
   </g>
   <g id="PathCollection_88">
    <g clip-path="url(#p2bb626f779)">
     <use style="fill:#d62728;stroke:#d62728;" x="338.369519" xlink:href="#m19abbc8ae5" y="125.720797"/>
    </g>
   </g>
   <g id="PathCollection_89">
    <g clip-path="url(#p2bb626f779)">
     <use style="fill:#d62728;stroke:#d62728;" x="345.332086" xlink:href="#m19abbc8ae5" y="124.550372"/>
    </g>
   </g>
   <g id="PathCollection_90">
    <g clip-path="url(#p2bb626f779)">
     <use style="fill:#d62728;stroke:#d62728;" x="352.294652" xlink:href="#m19abbc8ae5" y="123.690441"/>
    </g>
   </g>
   <g id="PathCollection_91">
    <g clip-path="url(#p2bb626f779)">
     <use style="fill:#d62728;stroke:#d62728;" x="359.257219" xlink:href="#m19abbc8ae5" y="123.150321"/>
    </g>
   </g>
   <g id="PathCollection_92">
    <g clip-path="url(#p2bb626f779)">
     <use style="fill:#d62728;stroke:#d62728;" x="366.219786" xlink:href="#m19abbc8ae5" y="122.929487"/>
    </g>
   </g>
   <g id="PathCollection_93">
    <g clip-path="url(#p2bb626f779)">
     <use style="fill:#d62728;stroke:#d62728;" x="373.182353" xlink:href="#m19abbc8ae5" y="123.01556"/>
    </g>
   </g>
   <g id="PathCollection_94">
    <g clip-path="url(#p2bb626f779)">
     <use style="fill:#d62728;stroke:#d62728;" x="380.14492" xlink:href="#m19abbc8ae5" y="123.382124"/>
    </g>
   </g>
   <g id="PathCollection_95">
    <g clip-path="url(#p2bb626f779)">
     <use style="fill:#d62728;stroke:#d62728;" x="387.107487" xlink:href="#m19abbc8ae5" y="123.98639"/>
    </g>
   </g>
   <g id="PathCollection_96">
    <g clip-path="url(#p2bb626f779)">
     <use style="fill:#d62728;stroke:#d62728;" x="394.070053" xlink:href="#m19abbc8ae5" y="124.766667"/>
    </g>
   </g>
   <g id="PathCollection_97">
    <g clip-path="url(#p2bb626f779)">
     <use style="fill:#d62728;stroke:#d62728;" x="401.03262" xlink:href="#m19abbc8ae5" y="125.639679"/>
    </g>
   </g>
   <g id="PathCollection_98">
    <g clip-path="url(#p2bb626f779)">
     <use style="fill:#d62728;stroke:#d62728;" x="407.995187" xlink:href="#m19abbc8ae5" y="126.497685"/>
    </g>
   </g>
   <g id="PathCollection_99">
    <g clip-path="url(#p2bb626f779)">
     <use style="fill:#d62728;stroke:#d62728;" x="414.957754" xlink:href="#m19abbc8ae5" y="127.20542"/>
    </g>
   </g>
   <g id="PathCollection_100">
    <g clip-path="url(#p2bb626f779)">
     <use style="fill:#d62728;stroke:#d62728;" x="421.920321" xlink:href="#m19abbc8ae5" y="127.596849"/>
    </g>
   </g>
   <g id="PathCollection_101">
    <g clip-path="url(#p2bb626f779)">
     <use style="fill:#d62728;stroke:#d62728;" x="428.882888" xlink:href="#m19abbc8ae5" y="127.471725"/>
    </g>
   </g>
   <g id="PathCollection_102">
    <g clip-path="url(#p2bb626f779)">
     <use style="fill:#d62728;stroke:#d62728;" x="435.845455" xlink:href="#m19abbc8ae5" y="126.59195"/>
    </g>
   </g>
   <g id="matplotlib.axis_1"/>
   <g id="matplotlib.axis_2"/>
   <g id="line2d_1">
    <path clip-path="url(#p2bb626f779)" d="M 80.754545 189 
L 124.125535 188.88901 
L 129.869652 188.569385 
L 135.845856 188.011007 
L 142.170187 187.194555 
L 148.95869 186.091143 
L 156.298396 184.668961 
L 164.305348 182.886536 
L 173.15361 180.684344 
L 183.133289 177.966158 
L 194.795588 174.551479 
L 209.242914 170.07849 
L 231.058957 163.063068 
L 267.612433 151.316576 
L 286.730481 145.425207 
L 293.606016 143.480463 
L 299.147059 142.150907 
L 304.804144 141.024265 
L 310.693316 140.080142 
L 316.872594 139.316976 
L 323.370989 138.74049 
L 330.246524 138.355851 
L 337.557219 138.171719 
L 345.390107 138.199508 
L 353.832219 138.454566 
L 363.02861 138.957995 
L 373.182353 139.740593 
L 384.583556 140.847523 
L 397.725401 142.353527 
L 413.53623 144.397803 
L 434.627005 147.364372 
L 435.845455 147.540783 
L 435.845455 147.540783 
" style="fill:none;stroke:#d62728;stroke-dasharray:11.1,4.8;stroke-dashoffset:0;stroke-width:3;"/>
   </g>
   <g id="line2d_2">
    <path clip-path="url(#p2bb626f779)" d="M 80.754545 189 
L 123.51631 188.889536 
L 128.709225 188.572967 
L 134.018182 188.025194 
L 139.617246 187.222553 
L 145.564439 186.143599 
L 151.946791 184.756383 
L 158.822326 183.030378 
L 166.307086 180.917516 
L 174.546123 178.355755 
L 183.800535 175.239375 
L 194.476471 171.402405 
L 207.473262 166.484694 
L 225.720989 159.320318 
L 268.685829 142.382513 
L 286.092246 135.807407 
L 292.793717 133.450283 
L 297.870588 131.908241 
L 302.94746 130.599262 
L 308.198396 129.475779 
L 313.652406 128.536633 
L 319.367513 127.779557 
L 325.372727 127.210882 
L 331.697059 126.83817 
L 338.369519 126.669604 
L 345.477139 126.714592 
L 353.106952 126.988456 
L 361.345989 127.510458 
L 370.310294 128.30457 
L 380.231952 129.410875 
L 391.40107 130.885085 
L 404.36885 132.827995 
L 420.179679 135.431189 
L 435.845455 138.166255 
L 435.845455 138.166255 
" style="fill:none;stroke:#d62728;stroke-linecap:square;stroke-width:3;"/>
   </g>
   <g id="patch_3">
    <path d="M 63 189 
L 63 25.92 
" style="fill:none;stroke:#000000;stroke-linecap:square;stroke-linejoin:miter;stroke-width:0.8;"/>
   </g>
   <g id="patch_4">
    <path d="M 453.6 189 
L 453.6 25.92 
" style="fill:none;stroke:#000000;stroke-linecap:square;stroke-linejoin:miter;stroke-width:0.8;"/>
   </g>
   <g id="patch_5">
    <path d="M 63 189 
L 453.6 189 
" style="fill:none;stroke:#000000;stroke-linecap:square;stroke-linejoin:miter;stroke-width:0.8;"/>
   </g>
   <g id="patch_6">
    <path d="M 63 25.92 
L 453.6 25.92 
" style="fill:none;stroke:#000000;stroke-linecap:square;stroke-linejoin:miter;stroke-width:0.8;"/>
   </g>
  </g>
 </g>
 <defs>
  <clipPath id="p2bb626f779">
   <rect height="163.08" width="390.6" x="63" y="25.92"/>
  </clipPath>
 </defs>
</svg>
