<?xml version="1.0" encoding="utf-8" standalone="no"?>
<!DOCTYPE svg PUBLIC "-//W3C//DTD SVG 1.1//EN"
  "http://www.w3.org/Graphics/SVG/1.1/DTD/svg11.dtd">
<!-- Created with matplotlib (https://matplotlib.org/) -->
<svg height="216pt" version="1.1" viewBox="0 0 504 216" width="504pt" xmlns="http://www.w3.org/2000/svg" xmlns:xlink="http://www.w3.org/1999/xlink">
 <metadata>
  <rdf:RDF xmlns:cc="http://creativecommons.org/ns#" xmlns:dc="http://purl.org/dc/elements/1.1/" xmlns:rdf="http://www.w3.org/1999/02/22-rdf-syntax-ns#">
   <cc:Work>
    <dc:type rdf:resource="http://purl.org/dc/dcmitype/StillImage"/>
    <dc:date>2024-12-17T10:30:03.062885</dc:date>
    <dc:format>image/svg+xml</dc:format>
    <dc:creator>
     <cc:Agent>
      <dc:title>Matplotlib v3.3.2, https://matplotlib.org/</dc:title>
     </cc:Agent>
    </dc:creator>
   </cc:Work>
  </rdf:RDF>
 </metadata>
 <defs>
  <style type="text/css">*{stroke-linecap:butt;stroke-linejoin:round;}</style>
 </defs>
 <g id="figure_1">
  <g id="patch_1">
   <path d="M 0 216 
L 504 216 
L 504 0 
L 0 0 
z
" style="fill:none;"/>
  </g>
  <g id="axes_1">
   <g id="patch_2">
    <path d="M 63 189 
L 453.6 189 
L 453.6 25.92 
L 63 25.92 
z
" style="fill:#ffffff;"/>
   </g>
   <g id="PathCollection_1">
    <path clip-path="url(#p50838a7498)" d="M 87.717112 192.62679 
C 88.654747 192.62679 89.554105 192.254264 90.217112 191.591256 
C 90.88012 190.928248 91.252646 190.028891 91.252646 189.091256 
C 91.252646 188.153621 90.88012 187.254264 90.217112 186.591256 
C 89.554105 185.928248 88.654747 185.555722 87.717112 185.555722 
C 86.779478 185.555722 85.88012 185.928248 85.217112 186.591256 
C 84.554105 187.254264 84.181578 188.153621 84.181578 189.091256 
C 84.181578 190.028891 84.554105 190.928248 85.217112 191.591256 
C 85.88012 192.254264 86.779478 192.62679 87.717112 192.62679 
z
" style="fill:none;stroke:#9467bd;"/>
   </g>
   <g id="PathCollection_2">
    <path clip-path="url(#p50838a7498)" d="M 94.679679 192.75042 
C 95.617314 192.75042 96.516671 192.377893 97.179679 191.714886 
C 97.842687 191.051878 98.215213 190.15252 98.215213 189.214886 
C 98.215213 188.277251 97.842687 187.377893 97.179679 186.714886 
C 96.516671 186.051878 95.617314 185.679352 94.679679 185.679352 
C 93.742045 185.679352 92.842687 186.051878 92.179679 186.714886 
C 91.516671 187.377893 91.144145 188.277251 91.144145 189.214886 
C 91.144145 190.15252 91.516671 191.051878 92.179679 191.714886 
C 92.842687 192.377893 93.742045 192.75042 94.679679 192.75042 
z
" style="fill:none;stroke:#9467bd;"/>
   </g>
   <g id="PathCollection_3">
    <path clip-path="url(#p50838a7498)" d="M 101.642246 192.932211 
C 102.579881 192.932211 103.479238 192.559685 104.142246 191.896677 
C 104.805254 191.23367 105.17778 190.334312 105.17778 189.396677 
C 105.17778 188.459043 104.805254 187.559685 104.142246 186.896677 
C 103.479238 186.23367 102.579881 185.861144 101.642246 185.861144 
C 100.704611 185.861144 99.805254 186.23367 99.142246 186.896677 
C 98.479238 187.559685 98.106712 188.459043 98.106712 189.396677 
C 98.106712 190.334312 98.479238 191.23367 99.142246 191.896677 
C 99.805254 192.559685 100.704611 192.932211 101.642246 192.932211 
z
" style="fill:none;stroke:#9467bd;"/>
   </g>
   <g id="PathCollection_4">
    <path clip-path="url(#p50838a7498)" d="M 108.604813 192.911915 
C 109.542447 192.911915 110.441805 192.539389 111.104813 191.876381 
C 111.767821 191.213374 112.140347 190.314016 112.140347 189.376381 
C 112.140347 188.438747 111.767821 187.539389 111.104813 186.876381 
C 110.441805 186.213374 109.542447 185.840848 108.604813 185.840848 
C 107.667178 185.840848 106.767821 186.213374 106.104813 186.876381 
C 105.441805 187.539389 105.069279 188.438747 105.069279 189.376381 
C 105.069279 190.314016 105.441805 191.213374 106.104813 191.876381 
C 106.767821 192.539389 107.667178 192.911915 108.604813 192.911915 
z
" style="fill:none;stroke:#9467bd;"/>
   </g>
   <g id="PathCollection_5">
    <path clip-path="url(#p50838a7498)" d="M 115.56738 192.510615 
C 116.505014 192.510615 117.404372 192.138089 118.06738 191.475081 
C 118.730387 190.812074 119.102914 189.912716 119.102914 188.975081 
C 119.102914 188.037447 118.730387 187.138089 118.06738 186.475081 
C 117.404372 185.812074 116.505014 185.439547 115.56738 185.439547 
C 114.629745 185.439547 113.730387 185.812074 113.06738 186.475081 
C 112.404372 187.138089 112.031846 188.037447 112.031846 188.975081 
C 112.031846 189.912716 112.404372 190.812074 113.06738 191.475081 
C 113.730387 192.138089 114.629745 192.510615 115.56738 192.510615 
z
" style="fill:none;stroke:#9467bd;"/>
   </g>
   <g id="PathCollection_6">
    <path clip-path="url(#p50838a7498)" d="M 122.529947 191.616892 
C 123.467581 191.616892 124.366939 191.244366 125.029947 190.581358 
C 125.692954 189.918351 126.06548 189.018993 126.06548 188.081358 
C 126.06548 187.143724 125.692954 186.244366 125.029947 185.581358 
C 124.366939 184.918351 123.467581 184.545824 122.529947 184.545824 
C 121.592312 184.545824 120.692954 184.918351 120.029947 185.581358 
C 119.366939 186.244366 118.994413 187.143724 118.994413 188.081358 
C 118.994413 189.018993 119.366939 189.918351 120.029947 190.581358 
C 120.692954 191.244366 121.592312 191.616892 122.529947 191.616892 
z
" style="fill:none;stroke:#9467bd;"/>
   </g>
   <g id="PathCollection_7">
    <path clip-path="url(#p50838a7498)" d="M 129.492513 190.174396 
C 130.430148 190.174396 131.329506 189.80187 131.992513 189.138862 
C 132.655521 188.475854 133.028047 187.576497 133.028047 186.638862 
C 133.028047 185.701228 132.655521 184.80187 131.992513 184.138862 
C 131.329506 183.475854 130.430148 183.103328 129.492513 183.103328 
C 128.554879 183.103328 127.655521 183.475854 126.992513 184.138862 
C 126.329506 184.80187 125.956979 185.701228 125.956979 186.638862 
C 125.956979 187.576497 126.329506 188.475854 126.992513 189.138862 
C 127.655521 189.80187 128.554879 190.174396 129.492513 190.174396 
z
" style="fill:none;stroke:#9467bd;"/>
   </g>
   <g id="PathCollection_8">
    <path clip-path="url(#p50838a7498)" d="M 136.45508 188.170669 
C 137.392715 188.170669 138.292072 187.798143 138.95508 187.135135 
C 139.618088 186.472128 139.990614 185.57277 139.990614 184.635135 
C 139.990614 183.697501 139.618088 182.798143 138.95508 182.135135 
C 138.292072 181.472128 137.392715 181.099602 136.45508 181.099602 
C 135.517446 181.099602 134.618088 181.472128 133.95508 182.135135 
C 133.292072 182.798143 132.919546 183.697501 132.919546 184.635135 
C 132.919546 185.57277 133.292072 186.472128 133.95508 187.135135 
C 134.618088 187.798143 135.517446 188.170669 136.45508 188.170669 
z
" style="fill:none;stroke:#9467bd;"/>
   </g>
   <g id="PathCollection_9">
    <path clip-path="url(#p50838a7498)" d="M 143.417647 185.627256 
C 144.355282 185.627256 145.254639 185.25473 145.917647 184.591722 
C 146.580655 183.928714 146.953181 183.029357 146.953181 182.091722 
C 146.953181 181.154088 146.580655 180.25473 145.917647 179.591722 
C 145.254639 178.928714 144.355282 178.556188 143.417647 178.556188 
C 142.480013 178.556188 141.580655 178.928714 140.917647 179.591722 
C 140.254639 180.25473 139.882113 181.154088 139.882113 182.091722 
C 139.882113 183.029357 140.254639 183.928714 140.917647 184.591722 
C 141.580655 185.25473 142.480013 185.627256 143.417647 185.627256 
z
" style="fill:none;stroke:#9467bd;"/>
   </g>
   <g id="PathCollection_10">
    <path clip-path="url(#p50838a7498)" d="M 150.380214 182.590973 
C 151.317848 182.590973 152.217206 182.218447 152.880214 181.555439 
C 153.543222 180.892431 153.915748 179.993074 153.915748 179.055439 
C 153.915748 178.117804 153.543222 177.218447 152.880214 176.555439 
C 152.217206 175.892431 151.317848 175.519905 150.380214 175.519905 
C 149.442579 175.519905 148.543222 175.892431 147.880214 176.555439 
C 147.217206 177.218447 146.84468 178.117804 146.84468 179.055439 
C 146.84468 179.993074 147.217206 180.892431 147.880214 181.555439 
C 148.543222 182.218447 149.442579 182.590973 150.380214 182.590973 
z
" style="fill:none;stroke:#9467bd;"/>
   </g>
   <g id="PathCollection_11">
    <path clip-path="url(#p50838a7498)" d="M 157.342781 179.126303 
C 158.280415 179.126303 159.179773 178.753777 159.842781 178.090769 
C 160.505788 177.427761 160.878315 176.528403 160.878315 175.590769 
C 160.878315 174.653134 160.505788 173.753777 159.842781 173.090769 
C 159.179773 172.427761 158.280415 172.055235 157.342781 172.055235 
C 156.405146 172.055235 155.505788 172.427761 154.842781 173.090769 
C 154.179773 173.753777 153.807247 174.653134 153.807247 175.590769 
C 153.807247 176.528403 154.179773 177.427761 154.842781 178.090769 
C 155.505788 178.753777 156.405146 179.126303 157.342781 179.126303 
z
" style="fill:none;stroke:#9467bd;"/>
   </g>
   <g id="PathCollection_12">
    <path clip-path="url(#p50838a7498)" d="M 164.305348 175.308842 
C 165.242982 175.308842 166.14234 174.936316 166.805348 174.273308 
C 167.468355 173.6103 167.840881 172.710943 167.840881 171.773308 
C 167.840881 170.835674 167.468355 169.936316 166.805348 169.273308 
C 166.14234 168.6103 165.242982 168.237774 164.305348 168.237774 
C 163.367713 168.237774 162.468355 168.6103 161.805348 169.273308 
C 161.14234 169.936316 160.769814 170.835674 160.769814 171.773308 
C 160.769814 172.710943 161.14234 173.6103 161.805348 174.273308 
C 162.468355 174.936316 163.367713 175.308842 164.305348 175.308842 
z
" style="fill:none;stroke:#9467bd;"/>
   </g>
   <g id="PathCollection_13">
    <path clip-path="url(#p50838a7498)" d="M 171.267914 171.219741 
C 172.205549 171.219741 173.104907 170.847215 173.767914 170.184208 
C 174.430922 169.5212 174.803448 168.621842 174.803448 167.684208 
C 174.803448 166.746573 174.430922 165.847215 173.767914 165.184208 
C 173.104907 164.5212 172.205549 164.148674 171.267914 164.148674 
C 170.33028 164.148674 169.430922 164.5212 168.767914 165.184208 
C 168.104907 165.847215 167.732381 166.746573 167.732381 167.684208 
C 167.732381 168.621842 168.104907 169.5212 168.767914 170.184208 
C 169.430922 170.847215 170.33028 171.219741 171.267914 171.219741 
z
" style="fill:none;stroke:#9467bd;"/>
   </g>
   <g id="PathCollection_14">
    <path clip-path="url(#p50838a7498)" d="M 178.230481 166.941077 
C 179.168116 166.941077 180.067474 166.568551 180.730481 165.905543 
C 181.393489 165.242535 181.766015 164.343178 181.766015 163.405543 
C 181.766015 162.467909 181.393489 161.568551 180.730481 160.905543 
C 180.067474 160.242535 179.168116 159.870009 178.230481 159.870009 
C 177.292847 159.870009 176.393489 160.242535 175.730481 160.905543 
C 175.067474 161.568551 174.694947 162.467909 174.694947 163.405543 
C 174.694947 164.343178 175.067474 165.242535 175.730481 165.905543 
C 176.393489 166.568551 177.292847 166.941077 178.230481 166.941077 
z
" style="fill:none;stroke:#9467bd;"/>
   </g>
   <g id="PathCollection_15">
    <path clip-path="url(#p50838a7498)" d="M 185.193048 162.552088 
C 186.130683 162.552088 187.03004 162.179562 187.693048 161.516554 
C 188.356056 160.853547 188.728582 159.954189 188.728582 159.016554 
C 188.728582 158.07892 188.356056 157.179562 187.693048 156.516554 
C 187.03004 155.853547 186.130683 155.481021 185.193048 155.481021 
C 184.255414 155.481021 183.356056 155.853547 182.693048 156.516554 
C 182.03004 157.179562 181.657514 158.07892 181.657514 159.016554 
C 181.657514 159.954189 182.03004 160.853547 182.693048 161.516554 
C 183.356056 162.179562 184.255414 162.552088 185.193048 162.552088 
z
" style="fill:none;stroke:#9467bd;"/>
   </g>
   <g id="PathCollection_16">
    <path clip-path="url(#p50838a7498)" d="M 192.155615 158.126219 
C 193.09325 158.126219 193.992607 157.753693 194.655615 157.090686 
C 195.318623 156.427678 195.691149 155.52832 195.691149 154.590686 
C 195.691149 153.653051 195.318623 152.753693 194.655615 152.090686 
C 193.992607 151.427678 193.09325 151.055152 192.155615 151.055152 
C 191.21798 151.055152 190.318623 151.427678 189.655615 152.090686 
C 188.992607 152.753693 188.620081 153.653051 188.620081 154.590686 
C 188.620081 155.52832 188.992607 156.427678 189.655615 157.090686 
C 190.318623 157.753693 191.21798 158.126219 192.155615 158.126219 
z
" style="fill:none;stroke:#9467bd;"/>
   </g>
   <g id="PathCollection_17">
    <path clip-path="url(#p50838a7498)" d="M 199.118182 153.728905 
C 200.055816 153.728905 200.955174 153.356379 201.618182 152.693371 
C 202.28119 152.030363 202.653716 151.131006 202.653716 150.193371 
C 202.653716 149.255736 202.28119 148.356379 201.618182 147.693371 
C 200.955174 147.030363 200.055816 146.657837 199.118182 146.657837 
C 198.180547 146.657837 197.28119 147.030363 196.618182 147.693371 
C 195.955174 148.356379 195.582648 149.255736 195.582648 150.193371 
C 195.582648 151.131006 195.955174 152.030363 196.618182 152.693371 
C 197.28119 153.356379 198.180547 153.728905 199.118182 153.728905 
z
" style="fill:none;stroke:#9467bd;"/>
   </g>
   <g id="PathCollection_18">
    <path clip-path="url(#p50838a7498)" d="M 206.080749 149.416033 
C 207.018383 149.416033 207.917741 149.043507 208.580749 148.3805 
C 209.243756 147.717492 209.616283 146.818134 209.616283 145.8805 
C 209.616283 144.942865 209.243756 144.043507 208.580749 143.3805 
C 207.917741 142.717492 207.018383 142.344966 206.080749 142.344966 
C 205.143114 142.344966 204.243756 142.717492 203.580749 143.3805 
C 202.917741 144.043507 202.545215 144.942865 202.545215 145.8805 
C 202.545215 146.818134 202.917741 147.717492 203.580749 148.3805 
C 204.243756 149.043507 205.143114 149.416033 206.080749 149.416033 
z
" style="fill:none;stroke:#9467bd;"/>
   </g>
   <g id="PathCollection_19">
    <path clip-path="url(#p50838a7498)" d="M 213.043316 145.233028 
C 213.98095 145.233028 214.880308 144.860501 215.543316 144.197494 
C 216.206323 143.534486 216.578849 142.635128 216.578849 141.697494 
C 216.578849 140.759859 216.206323 139.860501 215.543316 139.197494 
C 214.880308 138.534486 213.98095 138.16196 213.043316 138.16196 
C 212.105681 138.16196 211.206323 138.534486 210.543316 139.197494 
C 209.880308 139.860501 209.507782 140.759859 209.507782 141.697494 
C 209.507782 142.635128 209.880308 143.534486 210.543316 144.197494 
C 211.206323 144.860501 212.105681 145.233028 213.043316 145.233028 
z
" style="fill:none;stroke:#9467bd;"/>
   </g>
   <g id="PathCollection_20">
    <path clip-path="url(#p50838a7498)" d="M 220.005882 141.214479 
C 220.943517 141.214479 221.842875 140.841953 222.505882 140.178945 
C 223.16889 139.515937 223.541416 138.616579 223.541416 137.678945 
C 223.541416 136.74131 223.16889 135.841953 222.505882 135.178945 
C 221.842875 134.515937 220.943517 134.143411 220.005882 134.143411 
C 219.068248 134.143411 218.16889 134.515937 217.505882 135.178945 
C 216.842875 135.841953 216.470348 136.74131 216.470348 137.678945 
C 216.470348 138.616579 216.842875 139.515937 217.505882 140.178945 
C 218.16889 140.841953 219.068248 141.214479 220.005882 141.214479 
z
" style="fill:none;stroke:#9467bd;"/>
   </g>
   <g id="PathCollection_21">
    <path clip-path="url(#p50838a7498)" d="M 226.968449 137.384275 
C 227.906084 137.384275 228.805441 137.011748 229.468449 136.348741 
C 230.131457 135.685733 230.503983 134.786375 230.503983 133.848741 
C 230.503983 132.911106 230.131457 132.011748 229.468449 131.348741 
C 228.805441 130.685733 227.906084 130.313207 226.968449 130.313207 
C 226.030815 130.313207 225.131457 130.685733 224.468449 131.348741 
C 223.805441 132.011748 223.432915 132.911106 223.432915 133.848741 
C 223.432915 134.786375 223.805441 135.685733 224.468449 136.348741 
C 225.131457 137.011748 226.030815 137.384275 226.968449 137.384275 
z
" style="fill:none;stroke:#9467bd;"/>
   </g>
   <g id="PathCollection_22">
    <path clip-path="url(#p50838a7498)" d="M 233.931016 133.756151 
C 234.868651 133.756151 235.768008 133.383624 236.431016 132.720617 
C 237.094024 132.057609 237.46655 131.158251 237.46655 130.220617 
C 237.46655 129.282982 237.094024 128.383624 236.431016 127.720617 
C 235.768008 127.057609 234.868651 126.685083 233.931016 126.685083 
C 232.993381 126.685083 232.094024 127.057609 231.431016 127.720617 
C 230.768008 128.383624 230.395482 129.282982 230.395482 130.220617 
C 230.395482 131.158251 230.768008 132.057609 231.431016 132.720617 
C 232.094024 133.383624 232.993381 133.756151 233.931016 133.756151 
z
" style="fill:none;stroke:#9467bd;"/>
   </g>
   <g id="PathCollection_23">
    <path clip-path="url(#p50838a7498)" d="M 240.893583 130.334614 
C 241.831217 130.334614 242.730575 129.962088 243.393583 129.29908 
C 244.056591 128.636072 244.429117 127.736715 244.429117 126.79908 
C 244.429117 125.861446 244.056591 124.962088 243.393583 124.29908 
C 242.730575 123.636072 241.831217 123.263546 240.893583 123.263546 
C 239.955948 123.263546 239.056591 123.636072 238.393583 124.29908 
C 237.730575 124.962088 237.358049 125.861446 237.358049 126.79908 
C 237.358049 127.736715 237.730575 128.636072 238.393583 129.29908 
C 239.056591 129.962088 239.955948 130.334614 240.893583 130.334614 
z
" style="fill:none;stroke:#9467bd;"/>
   </g>
   <g id="PathCollection_24">
    <path clip-path="url(#p50838a7498)" d="M 247.85615 127.116166 
C 248.793784 127.116166 249.693142 126.74364 250.35615 126.080632 
C 251.019157 125.417625 251.391684 124.518267 251.391684 123.580632 
C 251.391684 122.642998 251.019157 121.74364 250.35615 121.080632 
C 249.693142 120.417625 248.793784 120.045099 247.85615 120.045099 
C 246.918515 120.045099 246.019157 120.417625 245.35615 121.080632 
C 244.693142 121.74364 244.320616 122.642998 244.320616 123.580632 
C 244.320616 124.518267 244.693142 125.417625 245.35615 126.080632 
C 246.019157 126.74364 246.918515 127.116166 247.85615 127.116166 
z
" style="fill:none;stroke:#9467bd;"/>
   </g>
   <g id="PathCollection_25">
    <path clip-path="url(#p50838a7498)" d="M 254.818717 124.090769 
C 255.756351 124.090769 256.655709 123.718242 257.318717 123.055235 
C 257.981724 122.392227 258.35425 121.492869 258.35425 120.555235 
C 258.35425 119.6176 257.981724 118.718242 257.318717 118.055235 
C 256.655709 117.392227 255.756351 117.019701 254.818717 117.019701 
C 253.881082 117.019701 252.981724 117.392227 252.318717 118.055235 
C 251.655709 118.718242 251.283183 119.6176 251.283183 120.555235 
C 251.283183 121.492869 251.655709 122.392227 252.318717 123.055235 
C 252.981724 123.718242 253.881082 124.090769 254.818717 124.090769 
z
" style="fill:none;stroke:#9467bd;"/>
   </g>
   <g id="PathCollection_26">
    <path clip-path="url(#p50838a7498)" d="M 261.781283 121.243484 
C 262.718918 121.243484 263.618276 120.870958 264.281283 120.20795 
C 264.944291 119.544942 265.316817 118.645585 265.316817 117.70795 
C 265.316817 116.770316 264.944291 115.870958 264.281283 115.20795 
C 263.618276 114.544942 262.718918 114.172416 261.781283 114.172416 
C 260.843649 114.172416 259.944291 114.544942 259.281283 115.20795 
C 258.618276 115.870958 258.24575 116.770316 258.24575 117.70795 
C 258.24575 118.645585 258.618276 119.544942 259.281283 120.20795 
C 259.944291 120.870958 260.843649 121.243484 261.781283 121.243484 
z
" style="fill:none;stroke:#9467bd;"/>
   </g>
   <g id="PathCollection_27">
    <path clip-path="url(#p50838a7498)" d="M 268.74385 118.556237 
C 269.681485 118.556237 270.580843 118.183711 271.24385 117.520704 
C 271.906858 116.857696 272.279384 115.958338 272.279384 115.020704 
C 272.279384 114.083069 271.906858 113.183711 271.24385 112.520704 
C 270.580843 111.857696 269.681485 111.48517 268.74385 111.48517 
C 267.806216 111.48517 266.906858 111.857696 266.24385 112.520704 
C 265.580843 113.183711 265.208316 114.083069 265.208316 115.020704 
C 265.208316 115.958338 265.580843 116.857696 266.24385 117.520704 
C 266.906858 118.183711 267.806216 118.556237 268.74385 118.556237 
z
" style="fill:none;stroke:#9467bd;"/>
   </g>
   <g id="PathCollection_28">
    <path clip-path="url(#p50838a7498)" d="M 275.706417 116.009626 
C 276.644052 116.009626 277.543409 115.6371 278.206417 114.974092 
C 278.869425 114.311084 279.241951 113.411726 279.241951 112.474092 
C 279.241951 111.536457 278.869425 110.6371 278.206417 109.974092 
C 277.543409 109.311084 276.644052 108.938558 275.706417 108.938558 
C 274.768783 108.938558 273.869425 109.311084 273.206417 109.974092 
C 272.543409 110.6371 272.170883 111.536457 272.170883 112.474092 
C 272.170883 113.411726 272.543409 114.311084 273.206417 114.974092 
C 273.869425 115.6371 274.768783 116.009626 275.706417 116.009626 
z
" style="fill:none;stroke:#9467bd;"/>
   </g>
   <g id="PathCollection_29">
    <path clip-path="url(#p50838a7498)" d="M 282.668984 113.58472 
C 283.606619 113.58472 284.505976 113.212194 285.168984 112.549187 
C 285.831992 111.886179 286.204518 110.986821 286.204518 110.049187 
C 286.204518 109.111552 285.831992 108.212194 285.168984 107.549187 
C 284.505976 106.886179 283.606619 106.513653 282.668984 106.513653 
C 281.731349 106.513653 280.831992 106.886179 280.168984 107.549187 
C 279.505976 108.212194 279.13345 109.111552 279.13345 110.049187 
C 279.13345 110.986821 279.505976 111.886179 280.168984 112.549187 
C 280.831992 113.212194 281.731349 113.58472 282.668984 113.58472 
z
" style="fill:none;stroke:#9467bd;"/>
   </g>
   <g id="PathCollection_30">
    <path clip-path="url(#p50838a7498)" d="M 289.631551 111.264795 
C 290.569185 111.264795 291.468543 110.892269 292.131551 110.229261 
C 292.794559 109.566254 293.167085 108.666896 293.167085 107.729261 
C 293.167085 106.791627 292.794559 105.892269 292.131551 105.229261 
C 291.468543 104.566254 290.569185 104.193727 289.631551 104.193727 
C 288.693916 104.193727 287.794559 104.566254 287.131551 105.229261 
C 286.468543 105.892269 286.096017 106.791627 286.096017 107.729261 
C 286.096017 108.666896 286.468543 109.566254 287.131551 110.229261 
C 287.794559 110.892269 288.693916 111.264795 289.631551 111.264795 
z
" style="fill:none;stroke:#9467bd;"/>
   </g>
   <g id="PathCollection_31">
    <path clip-path="url(#p50838a7498)" d="M 296.594118 109.036921 
C 297.531752 109.036921 298.43111 108.664395 299.094118 108.001387 
C 299.757125 107.338379 300.129652 106.439022 300.129652 105.501387 
C 300.129652 104.563752 299.757125 103.664395 299.094118 103.001387 
C 298.43111 102.338379 297.531752 101.965853 296.594118 101.965853 
C 295.656483 101.965853 294.757125 102.338379 294.094118 103.001387 
C 293.43111 103.664395 293.058584 104.563752 293.058584 105.501387 
C 293.058584 106.439022 293.43111 107.338379 294.094118 108.001387 
C 294.757125 108.664395 295.656483 109.036921 296.594118 109.036921 
z
" style="fill:none;stroke:#9467bd;"/>
   </g>
   <g id="PathCollection_32">
    <path clip-path="url(#p50838a7498)" d="M 303.556684 106.893361 
C 304.494319 106.893361 305.393677 106.520835 306.056684 105.857827 
C 306.719692 105.194819 307.092218 104.295462 307.092218 103.357827 
C 307.092218 102.420192 306.719692 101.520835 306.056684 100.857827 
C 305.393677 100.194819 304.494319 99.822293 303.556684 99.822293 
C 302.61905 99.822293 301.719692 100.194819 301.056684 100.857827 
C 300.393677 101.520835 300.021151 102.420192 300.021151 103.357827 
C 300.021151 104.295462 300.393677 105.194819 301.056684 105.857827 
C 301.719692 106.520835 302.61905 106.893361 303.556684 106.893361 
z
" style="fill:none;stroke:#9467bd;"/>
   </g>
   <g id="PathCollection_33">
    <path clip-path="url(#p50838a7498)" d="M 310.519251 104.832708 
C 311.456886 104.832708 312.356244 104.460182 313.019251 103.797174 
C 313.682259 103.134166 314.054785 102.234808 314.054785 101.297174 
C 314.054785 100.359539 313.682259 99.460182 313.019251 98.797174 
C 312.356244 98.134166 311.456886 97.76164 310.519251 97.76164 
C 309.581617 97.76164 308.682259 98.134166 308.019251 98.797174 
C 307.356244 99.460182 306.983717 100.359539 306.983717 101.297174 
C 306.983717 102.234808 307.356244 103.134166 308.019251 103.797174 
C 308.682259 104.460182 309.581617 104.832708 310.519251 104.832708 
z
" style="fill:none;stroke:#9467bd;"/>
   </g>
   <g id="PathCollection_34">
    <path clip-path="url(#p50838a7498)" d="M 317.481818 102.860694 
C 318.419453 102.860694 319.31881 102.488167 319.981818 101.82516 
C 320.644826 101.162152 321.017352 100.262794 321.017352 99.32516 
C 321.017352 98.387525 320.644826 97.488167 319.981818 96.82516 
C 319.31881 96.162152 318.419453 95.789626 317.481818 95.789626 
C 316.544184 95.789626 315.644826 96.162152 314.981818 96.82516 
C 314.31881 97.488167 313.946284 98.387525 313.946284 99.32516 
C 313.946284 100.262794 314.31881 101.162152 314.981818 101.82516 
C 315.644826 102.488167 316.544184 102.860694 317.481818 102.860694 
z
" style="fill:none;stroke:#9467bd;"/>
   </g>
   <g id="PathCollection_35">
    <path clip-path="url(#p50838a7498)" d="M 324.444385 100.990619 
C 325.38202 100.990619 326.281377 100.618093 326.944385 99.955085 
C 327.607393 99.292078 327.979919 98.39272 327.979919 97.455085 
C 327.979919 96.517451 327.607393 95.618093 326.944385 94.955085 
C 326.281377 94.292078 325.38202 93.919551 324.444385 93.919551 
C 323.50675 93.919551 322.607393 94.292078 321.944385 94.955085 
C 321.281377 95.618093 320.908851 96.517451 320.908851 97.455085 
C 320.908851 98.39272 321.281377 99.292078 321.944385 99.955085 
C 322.607393 100.618093 323.50675 100.990619 324.444385 100.990619 
z
" style="fill:none;stroke:#9467bd;"/>
   </g>
   <g id="PathCollection_36">
    <path clip-path="url(#p50838a7498)" d="M 331.406952 99.243331 
C 332.344586 99.243331 333.243944 98.870804 333.906952 98.207797 
C 334.56996 97.544789 334.942486 96.645431 334.942486 95.707797 
C 334.942486 94.770162 334.56996 93.870804 333.906952 93.207797 
C 333.243944 92.544789 332.344586 92.172263 331.406952 92.172263 
C 330.469317 92.172263 329.56996 92.544789 328.906952 93.207797 
C 328.243944 93.870804 327.871418 94.770162 327.871418 95.707797 
C 327.871418 96.645431 328.243944 97.544789 328.906952 98.207797 
C 329.56996 98.870804 330.469317 99.243331 331.406952 99.243331 
z
" style="fill:none;stroke:#9467bd;"/>
   </g>
   <g id="PathCollection_37">
    <path clip-path="url(#p50838a7498)" d="M 338.369519 97.646687 
C 339.307153 97.646687 340.206511 97.274161 340.869519 96.611153 
C 341.532526 95.948145 341.905053 95.048788 341.905053 94.111153 
C 341.905053 93.173519 341.532526 92.274161 340.869519 91.611153 
C 340.206511 90.948145 339.307153 90.575619 338.369519 90.575619 
C 337.431884 90.575619 336.532526 90.948145 335.869519 91.611153 
C 335.206511 92.274161 334.833985 93.173519 334.833985 94.111153 
C 334.833985 95.048788 335.206511 95.948145 335.869519 96.611153 
C 336.532526 97.274161 337.431884 97.646687 338.369519 97.646687 
z
" style="fill:none;stroke:#9467bd;"/>
   </g>
   <g id="PathCollection_38">
    <path clip-path="url(#p50838a7498)" d="M 345.332086 96.234455 
C 346.26972 96.234455 347.169078 95.861929 347.832086 95.198921 
C 348.495093 94.535913 348.867619 93.636555 348.867619 92.698921 
C 348.867619 91.761286 348.495093 90.861929 347.832086 90.198921 
C 347.169078 89.535913 346.26972 89.163387 345.332086 89.163387 
C 344.394451 89.163387 343.495093 89.535913 342.832086 90.198921 
C 342.169078 90.861929 341.796552 91.761286 341.796552 92.698921 
C 341.796552 93.636555 342.169078 94.535913 342.832086 95.198921 
C 343.495093 95.861929 344.394451 96.234455 345.332086 96.234455 
z
" style="fill:none;stroke:#9467bd;"/>
   </g>
   <g id="PathCollection_39">
    <path clip-path="url(#p50838a7498)" d="M 352.294652 95.044562 
C 353.232287 95.044562 354.131645 94.672036 354.794652 94.009028 
C 355.45766 93.346021 355.830186 92.446663 355.830186 91.509028 
C 355.830186 90.571394 355.45766 89.672036 354.794652 89.009028 
C 354.131645 88.346021 353.232287 87.973495 352.294652 87.973495 
C 351.357018 87.973495 350.45766 88.346021 349.794652 89.009028 
C 349.131645 89.672036 348.759119 90.571394 348.759119 91.509028 
C 348.759119 92.446663 349.131645 93.346021 349.794652 94.009028 
C 350.45766 94.672036 351.357018 95.044562 352.294652 95.044562 
z
" style="fill:none;stroke:#9467bd;"/>
   </g>
   <g id="PathCollection_40">
    <path clip-path="url(#p50838a7498)" d="M 359.257219 94.116662 
C 360.194854 94.116662 361.094212 93.744136 361.757219 93.081128 
C 362.420227 92.41812 362.792753 91.518763 362.792753 90.581128 
C 362.792753 89.643493 362.420227 88.744136 361.757219 88.081128 
C 361.094212 87.41812 360.194854 87.045594 359.257219 87.045594 
C 358.319585 87.045594 357.420227 87.41812 356.757219 88.081128 
C 356.094212 88.744136 355.721685 89.643493 355.721685 90.581128 
C 355.721685 91.518763 356.094212 92.41812 356.757219 93.081128 
C 357.420227 93.744136 358.319585 94.116662 359.257219 94.116662 
z
" style="fill:none;stroke:#9467bd;"/>
   </g>
   <g id="PathCollection_41">
    <path clip-path="url(#p50838a7498)" d="M 366.219786 93.488922 
C 367.157421 93.488922 368.056778 93.116396 368.719786 92.453388 
C 369.382794 91.790381 369.75532 90.891023 369.75532 89.953388 
C 369.75532 89.015754 369.382794 88.116396 368.719786 87.453388 
C 368.056778 86.790381 367.157421 86.417855 366.219786 86.417855 
C 365.282152 86.417855 364.382794 86.790381 363.719786 87.453388 
C 363.056778 88.116396 362.684252 89.015754 362.684252 89.953388 
C 362.684252 90.891023 363.056778 91.790381 363.719786 92.453388 
C 364.382794 93.116396 365.282152 93.488922 366.219786 93.488922 
z
" style="fill:none;stroke:#9467bd;"/>
   </g>
   <g id="PathCollection_42">
    <path clip-path="url(#p50838a7498)" d="M 373.182353 93.194003 
C 374.119987 93.194003 375.019345 92.821477 375.682353 92.158469 
C 376.345361 91.495461 376.717887 90.596104 376.717887 89.658469 
C 376.717887 88.720834 376.345361 87.821477 375.682353 87.158469 
C 375.019345 86.495461 374.119987 86.122935 373.182353 86.122935 
C 372.244718 86.122935 371.345361 86.495461 370.682353 87.158469 
C 370.019345 87.821477 369.646819 88.720834 369.646819 89.658469 
C 369.646819 90.596104 370.019345 91.495461 370.682353 92.158469 
C 371.345361 92.821477 372.244718 93.194003 373.182353 93.194003 
z
" style="fill:none;stroke:#9467bd;"/>
   </g>
   <g id="PathCollection_43">
    <path clip-path="url(#p50838a7498)" d="M 380.14492 93.254139 
C 381.082554 93.254139 381.981912 92.881613 382.64492 92.218605 
C 383.307928 91.555598 383.680454 90.65624 383.680454 89.718605 
C 383.680454 88.780971 383.307928 87.881613 382.64492 87.218605 
C 381.981912 86.555598 381.082554 86.183071 380.14492 86.183071 
C 379.207285 86.183071 378.307928 86.555598 377.64492 87.218605 
C 376.981912 87.881613 376.609386 88.780971 376.609386 89.718605 
C 376.609386 90.65624 376.981912 91.555598 377.64492 92.218605 
C 378.307928 92.881613 379.207285 93.254139 380.14492 93.254139 
z
" style="fill:none;stroke:#9467bd;"/>
   </g>
   <g id="PathCollection_44">
    <path clip-path="url(#p50838a7498)" d="M 387.107487 93.675276 
C 388.045121 93.675276 388.944479 93.30275 389.607487 92.639743 
C 390.270494 91.976735 390.643021 91.077377 390.643021 90.139743 
C 390.643021 89.202108 390.270494 88.30275 389.607487 87.639743 
C 388.944479 86.976735 388.045121 86.604209 387.107487 86.604209 
C 386.169852 86.604209 385.270494 86.976735 384.607487 87.639743 
C 383.944479 88.30275 383.571953 89.202108 383.571953 90.139743 
C 383.571953 91.077377 383.944479 91.976735 384.607487 92.639743 
C 385.270494 93.30275 386.169852 93.675276 387.107487 93.675276 
z
" style="fill:none;stroke:#9467bd;"/>
   </g>
   <g id="PathCollection_45">
    <path clip-path="url(#p50838a7498)" d="M 394.070053 94.440194 
C 395.007688 94.440194 395.907046 94.067668 396.570053 93.40466 
C 397.233061 92.741652 397.605587 91.842295 397.605587 90.90466 
C 397.605587 89.967026 397.233061 89.067668 396.570053 88.40466 
C 395.907046 87.741652 395.007688 87.369126 394.070053 87.369126 
C 393.132419 87.369126 392.233061 87.741652 391.570053 88.40466 
C 390.907046 89.067668 390.53452 89.967026 390.53452 90.90466 
C 390.53452 91.842295 390.907046 92.741652 391.570053 93.40466 
C 392.233061 94.067668 393.132419 94.440194 394.070053 94.440194 
z
" style="fill:none;stroke:#9467bd;"/>
   </g>
   <g id="PathCollection_46">
    <path clip-path="url(#p50838a7498)" d="M 401.03262 95.500554 
C 401.970255 95.500554 402.869613 95.128028 403.53262 94.46502 
C 404.195628 93.802012 404.568154 92.902655 404.568154 91.96502 
C 404.568154 91.027385 404.195628 90.128028 403.53262 89.46502 
C 402.869613 88.802012 401.970255 88.429486 401.03262 88.429486 
C 400.094986 88.429486 399.195628 88.802012 398.53262 89.46502 
C 397.869613 90.128028 397.497086 91.027385 397.497086 91.96502 
C 397.497086 92.902655 397.869613 93.802012 398.53262 94.46502 
C 399.195628 95.128028 400.094986 95.500554 401.03262 95.500554 
z
" style="fill:none;stroke:#9467bd;"/>
   </g>
   <g id="PathCollection_47">
    <path clip-path="url(#p50838a7498)" d="M 407.995187 96.76781 
C 408.932822 96.76781 409.832179 96.395284 410.495187 95.732276 
C 411.158195 95.069268 411.530721 94.169911 411.530721 93.232276 
C 411.530721 92.294642 411.158195 91.395284 410.495187 90.732276 
C 409.832179 90.069268 408.932822 89.696742 407.995187 89.696742 
C 407.057553 89.696742 406.158195 90.069268 405.495187 90.732276 
C 404.832179 91.395284 404.459653 92.294642 404.459653 93.232276 
C 404.459653 94.169911 404.832179 95.069268 405.495187 95.732276 
C 406.158195 96.395284 407.057553 96.76781 407.995187 96.76781 
z
" style="fill:none;stroke:#9467bd;"/>
   </g>
   <g id="PathCollection_48">
    <path clip-path="url(#p50838a7498)" d="M 414.957754 98.10292 
C 415.895389 98.10292 416.794746 97.730393 417.457754 97.067386 
C 418.120762 96.404378 418.493288 95.50502 418.493288 94.567386 
C 418.493288 93.629751 418.120762 92.730393 417.457754 92.067386 
C 416.794746 91.404378 415.895389 91.031852 414.957754 91.031852 
C 414.020119 91.031852 413.120762 91.404378 412.457754 92.067386 
C 411.794746 92.730393 411.42222 93.629751 411.42222 94.567386 
C 411.42222 95.50502 411.794746 96.404378 412.457754 97.067386 
C 413.120762 97.730393 414.020119 98.10292 414.957754 98.10292 
z
" style="fill:none;stroke:#9467bd;"/>
   </g>
   <g id="PathCollection_49">
    <path clip-path="url(#p50838a7498)" d="M 421.920321 99.304791 
C 422.857955 99.304791 423.757313 98.932265 424.420321 98.269257 
C 425.083329 97.606249 425.455855 96.706892 425.455855 95.769257 
C 425.455855 94.831622 425.083329 93.932265 424.420321 93.269257 
C 423.757313 92.606249 422.857955 92.233723 421.920321 92.233723 
C 420.982686 92.233723 420.083329 92.606249 419.420321 93.269257 
C 418.757313 93.932265 418.384787 94.831622 418.384787 95.769257 
C 418.384787 96.706892 418.757313 97.606249 419.420321 98.269257 
C 420.083329 98.932265 420.982686 99.304791 421.920321 99.304791 
z
" style="fill:none;stroke:#9467bd;"/>
   </g>
   <g id="PathCollection_50">
    <path clip-path="url(#p50838a7498)" d="M 428.882888 100.097403 
C 429.820522 100.097403 430.71988 99.724877 431.382888 99.061869 
C 432.045895 98.398862 432.418422 97.499504 432.418422 96.561869 
C 432.418422 95.624235 432.045895 94.724877 431.382888 94.061869 
C 430.71988 93.398862 429.820522 93.026336 428.882888 93.026336 
C 427.945253 93.026336 427.045895 93.398862 426.382888 94.061869 
C 425.71988 94.724877 425.347354 95.624235 425.347354 96.561869 
C 425.347354 97.499504 425.71988 98.398862 426.382888 99.061869 
C 427.045895 99.724877 427.945253 100.097403 428.882888 100.097403 
z
" style="fill:none;stroke:#9467bd;"/>
   </g>
   <g id="PathCollection_51">
    <path clip-path="url(#p50838a7498)" d="M 435.845455 100.115543 
C 436.783089 100.115543 437.682447 99.743017 438.345455 99.080009 
C 439.008462 98.417001 439.380988 97.517644 439.380988 96.580009 
C 439.380988 95.642375 439.008462 94.743017 438.345455 94.080009 
C 437.682447 93.417001 436.783089 93.044475 435.845455 93.044475 
C 434.90782 93.044475 434.008462 93.417001 433.345455 94.080009 
C 432.682447 94.743017 432.309921 95.642375 432.309921 96.580009 
C 432.309921 97.517644 432.682447 98.417001 433.345455 99.080009 
C 434.008462 99.743017 434.90782 100.115543 435.845455 100.115543 
z
" style="fill:none;stroke:#9467bd;"/>
   </g>
   <g id="PathCollection_52">
    <defs>
     <path d="M 0 3.535534 
C 0.937635 3.535534 1.836992 3.163008 2.5 2.5 
C 3.163008 1.836992 3.535534 0.937635 3.535534 0 
C 3.535534 -0.937635 3.163008 -1.836992 2.5 -2.5 
C 1.836992 -3.163008 0.937635 -3.535534 0 -3.535534 
C -0.937635 -3.535534 -1.836992 -3.163008 -2.5 -2.5 
C -3.163008 -1.836992 -3.535534 -0.937635 -3.535534 0 
C -3.535534 0.937635 -3.163008 1.836992 -2.5 2.5 
C -1.836992 3.163008 -0.937635 3.535534 0 3.535534 
z
" id="m43b5352044" style="stroke:#9467bd;"/>
    </defs>
    <g clip-path="url(#p50838a7498)">
     <use style="fill:#9467bd;stroke:#9467bd;" x="87.717112" xlink:href="#m43b5352044" y="187.476953"/>
    </g>
   </g>
   <g id="PathCollection_53">
    <g clip-path="url(#p50838a7498)">
     <use style="fill:#9467bd;stroke:#9467bd;" x="94.679679" xlink:href="#m43b5352044" y="187.759669"/>
    </g>
   </g>
   <g id="PathCollection_54">
    <g clip-path="url(#p50838a7498)">
     <use style="fill:#9467bd;stroke:#9467bd;" x="101.642246" xlink:href="#m43b5352044" y="187.181544"/>
    </g>
   </g>
   <g id="PathCollection_55">
    <g clip-path="url(#p50838a7498)">
     <use style="fill:#9467bd;stroke:#9467bd;" x="108.604813" xlink:href="#m43b5352044" y="185.858718"/>
    </g>
   </g>
   <g id="PathCollection_56">
    <g clip-path="url(#p50838a7498)">
     <use style="fill:#9467bd;stroke:#9467bd;" x="115.56738" xlink:href="#m43b5352044" y="183.879288"/>
    </g>
   </g>
   <g id="PathCollection_57">
    <g clip-path="url(#p50838a7498)">
     <use style="fill:#9467bd;stroke:#9467bd;" x="122.529947" xlink:href="#m43b5352044" y="181.33237"/>
    </g>
   </g>
   <g id="PathCollection_58">
    <g clip-path="url(#p50838a7498)">
     <use style="fill:#9467bd;stroke:#9467bd;" x="129.492513" xlink:href="#m43b5352044" y="178.264805"/>
    </g>
   </g>
   <g id="PathCollection_59">
    <g clip-path="url(#p50838a7498)">
     <use style="fill:#9467bd;stroke:#9467bd;" x="136.45508" xlink:href="#m43b5352044" y="174.732814"/>
    </g>
   </g>
   <g id="PathCollection_60">
    <g clip-path="url(#p50838a7498)">
     <use style="fill:#9467bd;stroke:#9467bd;" x="143.417647" xlink:href="#m43b5352044" y="170.781376"/>
    </g>
   </g>
   <g id="PathCollection_61">
    <g clip-path="url(#p50838a7498)">
     <use style="fill:#9467bd;stroke:#9467bd;" x="150.380214" xlink:href="#m43b5352044" y="166.451716"/>
    </g>
   </g>
   <g id="PathCollection_62">
    <g clip-path="url(#p50838a7498)">
     <use style="fill:#9467bd;stroke:#9467bd;" x="157.342781" xlink:href="#m43b5352044" y="161.783494"/>
    </g>
   </g>
   <g id="PathCollection_63">
    <g clip-path="url(#p50838a7498)">
     <use style="fill:#9467bd;stroke:#9467bd;" x="164.305348" xlink:href="#m43b5352044" y="156.816514"/>
    </g>
   </g>
   <g id="PathCollection_64">
    <g clip-path="url(#p50838a7498)">
     <use style="fill:#9467bd;stroke:#9467bd;" x="171.267914" xlink:href="#m43b5352044" y="151.591979"/>
    </g>
   </g>
   <g id="PathCollection_65">
    <g clip-path="url(#p50838a7498)">
     <use style="fill:#9467bd;stroke:#9467bd;" x="178.230481" xlink:href="#m43b5352044" y="146.153342"/>
    </g>
   </g>
   <g id="PathCollection_66">
    <g clip-path="url(#p50838a7498)">
     <use style="fill:#9467bd;stroke:#9467bd;" x="185.193048" xlink:href="#m43b5352044" y="140.546778"/>
    </g>
   </g>
   <g id="PathCollection_67">
    <g clip-path="url(#p50838a7498)">
     <use style="fill:#9467bd;stroke:#9467bd;" x="192.155615" xlink:href="#m43b5352044" y="134.821326"/>
    </g>
   </g>
   <g id="PathCollection_68">
    <g clip-path="url(#p50838a7498)">
     <use style="fill:#9467bd;stroke:#9467bd;" x="199.118182" xlink:href="#m43b5352044" y="129.028721"/>
    </g>
   </g>
   <g id="PathCollection_69">
    <g clip-path="url(#p50838a7498)">
     <use style="fill:#9467bd;stroke:#9467bd;" x="206.080749" xlink:href="#m43b5352044" y="123.222976"/>
    </g>
   </g>
   <g id="PathCollection_70">
    <g clip-path="url(#p50838a7498)">
     <use style="fill:#9467bd;stroke:#9467bd;" x="213.043316" xlink:href="#m43b5352044" y="117.45973"/>
    </g>
   </g>
   <g id="PathCollection_71">
    <g clip-path="url(#p50838a7498)">
     <use style="fill:#9467bd;stroke:#9467bd;" x="220.005882" xlink:href="#m43b5352044" y="111.795409"/>
    </g>
   </g>
   <g id="PathCollection_72">
    <g clip-path="url(#p50838a7498)">
     <use style="fill:#9467bd;stroke:#9467bd;" x="226.968449" xlink:href="#m43b5352044" y="106.286241"/>
    </g>
   </g>
   <g id="PathCollection_73">
    <g clip-path="url(#p50838a7498)">
     <use style="fill:#9467bd;stroke:#9467bd;" x="233.931016" xlink:href="#m43b5352044" y="100.987142"/>
    </g>
   </g>
   <g id="PathCollection_74">
    <g clip-path="url(#p50838a7498)">
     <use style="fill:#9467bd;stroke:#9467bd;" x="240.893583" xlink:href="#m43b5352044" y="95.950546"/>
    </g>
   </g>
   <g id="PathCollection_75">
    <g clip-path="url(#p50838a7498)">
     <use style="fill:#9467bd;stroke:#9467bd;" x="247.85615" xlink:href="#m43b5352044" y="91.225172"/>
    </g>
   </g>
   <g id="PathCollection_76">
    <g clip-path="url(#p50838a7498)">
     <use style="fill:#9467bd;stroke:#9467bd;" x="254.818717" xlink:href="#m43b5352044" y="86.854806"/>
    </g>
   </g>
   <g id="PathCollection_77">
    <g clip-path="url(#p50838a7498)">
     <use style="fill:#9467bd;stroke:#9467bd;" x="261.781283" xlink:href="#m43b5352044" y="82.877102"/>
    </g>
   </g>
   <g id="PathCollection_78">
    <g clip-path="url(#p50838a7498)">
     <use style="fill:#9467bd;stroke:#9467bd;" x="268.74385" xlink:href="#m43b5352044" y="79.32246"/>
    </g>
   </g>
   <g id="PathCollection_79">
    <g clip-path="url(#p50838a7498)">
     <use style="fill:#9467bd;stroke:#9467bd;" x="275.706417" xlink:href="#m43b5352044" y="76.213013"/>
    </g>
   </g>
   <g id="PathCollection_80">
    <g clip-path="url(#p50838a7498)">
     <use style="fill:#9467bd;stroke:#9467bd;" x="282.668984" xlink:href="#m43b5352044" y="73.561755"/>
    </g>
   </g>
   <g id="PathCollection_81">
    <g clip-path="url(#p50838a7498)">
     <use style="fill:#9467bd;stroke:#9467bd;" x="289.631551" xlink:href="#m43b5352044" y="71.371848"/>
    </g>
   </g>
   <g id="PathCollection_82">
    <g clip-path="url(#p50838a7498)">
     <use style="fill:#9467bd;stroke:#9467bd;" x="296.594118" xlink:href="#m43b5352044" y="69.636154"/>
    </g>
   </g>
   <g id="PathCollection_83">
    <g clip-path="url(#p50838a7498)">
     <use style="fill:#9467bd;stroke:#9467bd;" x="303.556684" xlink:href="#m43b5352044" y="68.337013"/>
    </g>
   </g>
   <g id="PathCollection_84">
    <g clip-path="url(#p50838a7498)">
     <use style="fill:#9467bd;stroke:#9467bd;" x="310.519251" xlink:href="#m43b5352044" y="67.446325"/>
    </g>
   </g>
   <g id="PathCollection_85">
    <g clip-path="url(#p50838a7498)">
     <use style="fill:#9467bd;stroke:#9467bd;" x="317.481818" xlink:href="#m43b5352044" y="66.925947"/>
    </g>
   </g>
   <g id="PathCollection_86">
    <g clip-path="url(#p50838a7498)">
     <use style="fill:#9467bd;stroke:#9467bd;" x="324.444385" xlink:href="#m43b5352044" y="66.728469"/>
    </g>
   </g>
   <g id="PathCollection_87">
    <g clip-path="url(#p50838a7498)">
     <use style="fill:#9467bd;stroke:#9467bd;" x="331.406952" xlink:href="#m43b5352044" y="66.798382"/>
    </g>
   </g>
   <g id="PathCollection_88">
    <g clip-path="url(#p50838a7498)">
     <use style="fill:#9467bd;stroke:#9467bd;" x="338.369519" xlink:href="#m43b5352044" y="67.073698"/>
    </g>
   </g>
   <g id="PathCollection_89">
    <g clip-path="url(#p50838a7498)">
     <use style="fill:#9467bd;stroke:#9467bd;" x="345.332086" xlink:href="#m43b5352044" y="67.488034"/>
    </g>
   </g>
   <g id="PathCollection_90">
    <g clip-path="url(#p50838a7498)">
     <use style="fill:#9467bd;stroke:#9467bd;" x="352.294652" xlink:href="#m43b5352044" y="67.973219"/>
    </g>
   </g>
   <g id="PathCollection_91">
    <g clip-path="url(#p50838a7498)">
     <use style="fill:#9467bd;stroke:#9467bd;" x="359.257219" xlink:href="#m43b5352044" y="68.462452"/>
    </g>
   </g>
   <g id="PathCollection_92">
    <g clip-path="url(#p50838a7498)">
     <use style="fill:#9467bd;stroke:#9467bd;" x="366.219786" xlink:href="#m43b5352044" y="68.894038"/>
    </g>
   </g>
   <g id="PathCollection_93">
    <g clip-path="url(#p50838a7498)">
     <use style="fill:#9467bd;stroke:#9467bd;" x="373.182353" xlink:href="#m43b5352044" y="69.215762"/>
    </g>
   </g>
   <g id="PathCollection_94">
    <g clip-path="url(#p50838a7498)">
     <use style="fill:#9467bd;stroke:#9467bd;" x="380.14492" xlink:href="#m43b5352044" y="69.389918"/>
    </g>
   </g>
   <g id="PathCollection_95">
    <g clip-path="url(#p50838a7498)">
     <use style="fill:#9467bd;stroke:#9467bd;" x="387.107487" xlink:href="#m43b5352044" y="69.399035"/>
    </g>
   </g>
   <g id="PathCollection_96">
    <g clip-path="url(#p50838a7498)">
     <use style="fill:#9467bd;stroke:#9467bd;" x="394.070053" xlink:href="#m43b5352044" y="69.252344"/>
    </g>
   </g>
   <g id="PathCollection_97">
    <g clip-path="url(#p50838a7498)">
     <use style="fill:#9467bd;stroke:#9467bd;" x="401.03262" xlink:href="#m43b5352044" y="68.993014"/>
    </g>
   </g>
   <g id="PathCollection_98">
    <g clip-path="url(#p50838a7498)">
     <use style="fill:#9467bd;stroke:#9467bd;" x="407.995187" xlink:href="#m43b5352044" y="68.7062"/>
    </g>
   </g>
   <g id="PathCollection_99">
    <g clip-path="url(#p50838a7498)">
     <use style="fill:#9467bd;stroke:#9467bd;" x="414.957754" xlink:href="#m43b5352044" y="68.527936"/>
    </g>
   </g>
   <g id="PathCollection_100">
    <g clip-path="url(#p50838a7498)">
     <use style="fill:#9467bd;stroke:#9467bd;" x="421.920321" xlink:href="#m43b5352044" y="68.654912"/>
    </g>
   </g>
   <g id="PathCollection_101">
    <g clip-path="url(#p50838a7498)">
     <use style="fill:#9467bd;stroke:#9467bd;" x="428.882888" xlink:href="#m43b5352044" y="69.355174"/>
    </g>
   </g>
   <g id="PathCollection_102">
    <g clip-path="url(#p50838a7498)">
     <use style="fill:#9467bd;stroke:#9467bd;" x="435.845455" xlink:href="#m43b5352044" y="70.979775"/>
    </g>
   </g>
   <g id="matplotlib.axis_1"/>
   <g id="matplotlib.axis_2"/>
   <g id="line2d_1">
    <path clip-path="url(#p50838a7498)" d="M 80.754545 189 
L 121.804679 188.890296 
L 125.837166 188.579893 
L 129.840642 188.047103 
L 133.989171 187.268535 
L 138.311765 186.229466 
L 142.866444 184.90393 
L 147.682219 183.267707 
L 152.788102 181.294942 
L 158.213102 178.958717 
L 164.044251 176.203412 
L 170.397594 172.950457 
L 177.302139 169.161586 
L 184.960963 164.701448 
L 193.722193 159.33353 
L 204.020989 152.751059 
L 217.133824 144.087845 
L 240.37139 128.41487 
L 262.013369 113.931735 
L 277.127941 104.08383 
L 288.587166 96.859404 
L 292.880749 94.410624 
L 296.884225 92.382875 
L 300.916711 90.590694 
L 305.007219 89.016027 
L 309.21377 87.635932 
L 313.536364 86.453295 
L 317.975 85.469722 
L 322.587701 84.677062 
L 327.345455 84.0856 
L 332.306283 83.693598 
L 337.499198 83.507997 
L 342.953209 83.538095 
L 348.697326 83.794902 
L 354.760561 84.290462 
L 361.229947 85.044858 
L 368.163503 86.080249 
L 375.648262 87.42568 
L 383.829278 89.125628 
L 392.909626 91.244259 
L 403.179412 93.874395 
L 415.21885 97.195054 
L 430.304412 101.598588 
L 435.845455 103.25959 
L 435.845455 103.25959 
" style="fill:none;stroke:#9467bd;stroke-dasharray:11.1,4.8;stroke-dashoffset:0;stroke-width:3;"/>
   </g>
   <g id="line2d_2">
    <path clip-path="url(#p50838a7498)" d="M 80.754545 189 
L 121.369519 188.890295 
L 125.024866 188.584179 
L 128.622193 188.059542 
L 132.335561 187.290903 
L 136.193984 186.262436 
L 140.226471 184.955255 
L 144.462032 183.346659 
L 148.929679 181.410063 
L 153.658422 179.116602 
L 158.735294 176.402734 
L 164.160294 173.246017 
L 170.020455 169.573948 
L 176.373797 165.32669 
L 183.423396 160.339898 
L 191.314305 154.477966 
L 200.394652 147.44698 
L 211.476738 138.570542 
L 226.881417 125.920941 
L 261.926337 97.064475 
L 276.112567 85.723718 
L 287.774866 76.672186 
L 291.952406 73.68868 
L 295.694786 71.289226 
L 299.408155 69.173081 
L 303.150535 67.296525 
L 306.950936 65.639216 
L 310.838369 64.187068 
L 314.812834 62.940449 
L 318.874332 61.898838 
L 323.080882 61.050717 
L 327.403476 60.406431 
L 331.900134 59.962521 
L 336.570856 59.726817 
L 341.444652 59.705679 
L 346.550535 59.908435 
L 351.917513 60.346731 
L 357.574599 61.033845 
L 363.579813 61.989096 
L 370.020187 63.24203 
L 376.953743 64.821397 
L 384.467513 66.76426 
L 392.764572 69.143968 
L 402.047995 72.043277 
L 412.752941 75.626584 
L 425.720722 80.212188 
L 435.845455 83.913849 
L 435.845455 83.913849 
" style="fill:none;stroke:#9467bd;stroke-linecap:square;stroke-width:3;"/>
   </g>
   <g id="patch_3">
    <path d="M 63 189 
L 63 25.92 
" style="fill:none;stroke:#000000;stroke-linecap:square;stroke-linejoin:miter;stroke-width:0.8;"/>
   </g>
   <g id="patch_4">
    <path d="M 453.6 189 
L 453.6 25.92 
" style="fill:none;stroke:#000000;stroke-linecap:square;stroke-linejoin:miter;stroke-width:0.8;"/>
   </g>
   <g id="patch_5">
    <path d="M 63 189 
L 453.6 189 
" style="fill:none;stroke:#000000;stroke-linecap:square;stroke-linejoin:miter;stroke-width:0.8;"/>
   </g>
   <g id="patch_6">
    <path d="M 63 25.92 
L 453.6 25.92 
" style="fill:none;stroke:#000000;stroke-linecap:square;stroke-linejoin:miter;stroke-width:0.8;"/>
   </g>
  </g>
 </g>
 <defs>
  <clipPath id="p50838a7498">
   <rect height="163.08" width="390.6" x="63" y="25.92"/>
  </clipPath>
 </defs>
</svg>
