<?xml version="1.0" encoding="utf-8" standalone="no"?>
<!DOCTYPE svg PUBLIC "-//W3C//DTD SVG 1.1//EN"
  "http://www.w3.org/Graphics/SVG/1.1/DTD/svg11.dtd">
<!-- Created with matplotlib (https://matplotlib.org/) -->
<svg height="216pt" version="1.1" viewBox="0 0 504 216" width="504pt" xmlns="http://www.w3.org/2000/svg" xmlns:xlink="http://www.w3.org/1999/xlink">
 <metadata>
  <rdf:RDF xmlns:cc="http://creativecommons.org/ns#" xmlns:dc="http://purl.org/dc/elements/1.1/" xmlns:rdf="http://www.w3.org/1999/02/22-rdf-syntax-ns#">
   <cc:Work>
    <dc:type rdf:resource="http://purl.org/dc/dcmitype/StillImage"/>
    <dc:date>2024-12-17T10:30:50.401016</dc:date>
    <dc:format>image/svg+xml</dc:format>
    <dc:creator>
     <cc:Agent>
      <dc:title>Matplotlib v3.3.2, https://matplotlib.org/</dc:title>
     </cc:Agent>
    </dc:creator>
   </cc:Work>
  </rdf:RDF>
 </metadata>
 <defs>
  <style type="text/css">*{stroke-linecap:butt;stroke-linejoin:round;}</style>
 </defs>
 <g id="figure_1">
  <g id="patch_1">
   <path d="M 0 216 
L 504 216 
L 504 0 
L 0 0 
z
" style="fill:none;"/>
  </g>
  <g id="axes_1">
   <g id="patch_2">
    <path d="M 63 189 
L 453.6 189 
L 453.6 25.92 
L 63 25.92 
z
" style="fill:#ffffff;"/>
   </g>
   <g id="PathCollection_1">
    <path clip-path="url(#p76d9dc55e9)" d="M 87.717112 191.947817 
C 88.654747 191.947817 89.554105 191.575291 90.217112 190.912283 
C 90.88012 190.249275 91.252646 189.349918 91.252646 188.412283 
C 91.252646 187.474649 90.88012 186.575291 90.217112 185.912283 
C 89.554105 185.249275 88.654747 184.876749 87.717112 184.876749 
C 86.779478 184.876749 85.88012 185.249275 85.217112 185.912283 
C 84.554105 186.575291 84.181578 187.474649 84.181578 188.412283 
C 84.181578 189.349918 84.554105 190.249275 85.217112 190.912283 
C 85.88012 191.575291 86.779478 191.947817 87.717112 191.947817 
z
" style="fill:none;stroke:#8c564b;"/>
   </g>
   <g id="PathCollection_2">
    <path clip-path="url(#p76d9dc55e9)" d="M 94.679679 191.229745 
C 95.617314 191.229745 96.516671 190.857218 97.179679 190.194211 
C 97.842687 189.531203 98.215213 188.631845 98.215213 187.694211 
C 98.215213 186.756576 97.842687 185.857218 97.179679 185.194211 
C 96.516671 184.531203 95.617314 184.158677 94.679679 184.158677 
C 93.742045 184.158677 92.842687 184.531203 92.179679 185.194211 
C 91.516671 185.857218 91.144145 186.756576 91.144145 187.694211 
C 91.144145 188.631845 91.516671 189.531203 92.179679 190.194211 
C 92.842687 190.857218 93.742045 191.229745 94.679679 191.229745 
z
" style="fill:none;stroke:#8c564b;"/>
   </g>
   <g id="PathCollection_3">
    <path clip-path="url(#p76d9dc55e9)" d="M 101.642246 190.732656 
C 102.579881 190.732656 103.479238 190.36013 104.142246 189.697123 
C 104.805254 189.034115 105.17778 188.134757 105.17778 187.197123 
C 105.17778 186.259488 104.805254 185.36013 104.142246 184.697123 
C 103.479238 184.034115 102.579881 183.661589 101.642246 183.661589 
C 100.704611 183.661589 99.805254 184.034115 99.142246 184.697123 
C 98.479238 185.36013 98.106712 186.259488 98.106712 187.197123 
C 98.106712 188.134757 98.479238 189.034115 99.142246 189.697123 
C 99.805254 190.36013 100.704611 190.732656 101.642246 190.732656 
z
" style="fill:none;stroke:#8c564b;"/>
   </g>
   <g id="PathCollection_4">
    <path clip-path="url(#p76d9dc55e9)" d="M 108.604813 190.356238 
C 109.542447 190.356238 110.441805 189.983712 111.104813 189.320704 
C 111.767821 188.657696 112.140347 187.758339 112.140347 186.820704 
C 112.140347 185.88307 111.767821 184.983712 111.104813 184.320704 
C 110.441805 183.657696 109.542447 183.28517 108.604813 183.28517 
C 107.667178 183.28517 106.767821 183.657696 106.104813 184.320704 
C 105.441805 184.983712 105.069279 185.88307 105.069279 186.820704 
C 105.069279 187.758339 105.441805 188.657696 106.104813 189.320704 
C 106.767821 189.983712 107.667178 190.356238 108.604813 190.356238 
z
" style="fill:none;stroke:#8c564b;"/>
   </g>
   <g id="PathCollection_5">
    <path clip-path="url(#p76d9dc55e9)" d="M 115.56738 190.024102 
C 116.505014 190.024102 117.404372 189.651576 118.06738 188.988568 
C 118.730387 188.32556 119.102914 187.426203 119.102914 186.488568 
C 119.102914 185.550933 118.730387 184.651576 118.06738 183.988568 
C 117.404372 183.32556 116.505014 182.953034 115.56738 182.953034 
C 114.629745 182.953034 113.730387 183.32556 113.06738 183.988568 
C 112.404372 184.651576 112.031846 185.550933 112.031846 186.488568 
C 112.031846 187.426203 112.404372 188.32556 113.06738 188.988568 
C 113.730387 189.651576 114.629745 190.024102 115.56738 190.024102 
z
" style="fill:none;stroke:#8c564b;"/>
   </g>
   <g id="PathCollection_6">
    <path clip-path="url(#p76d9dc55e9)" d="M 122.529947 189.683165 
C 123.467581 189.683165 124.366939 189.310639 125.029947 188.647631 
C 125.692954 187.984624 126.06548 187.085266 126.06548 186.147631 
C 126.06548 185.209997 125.692954 184.310639 125.029947 183.647631 
C 124.366939 182.984624 123.467581 182.612097 122.529947 182.612097 
C 121.592312 182.612097 120.692954 182.984624 120.029947 183.647631 
C 119.366939 184.310639 118.994413 185.209997 118.994413 186.147631 
C 118.994413 187.085266 119.366939 187.984624 120.029947 188.647631 
C 120.692954 189.310639 121.592312 189.683165 122.529947 189.683165 
z
" style="fill:none;stroke:#8c564b;"/>
   </g>
   <g id="PathCollection_7">
    <path clip-path="url(#p76d9dc55e9)" d="M 129.492513 189.293575 
C 130.430148 189.293575 131.329506 188.921049 131.992513 188.258041 
C 132.655521 187.595033 133.028047 186.695676 133.028047 185.758041 
C 133.028047 184.820406 132.655521 183.921049 131.992513 183.258041 
C 131.329506 182.595033 130.430148 182.222507 129.492513 182.222507 
C 128.554879 182.222507 127.655521 182.595033 126.992513 183.258041 
C 126.329506 183.921049 125.956979 184.820406 125.956979 185.758041 
C 125.956979 186.695676 126.329506 187.595033 126.992513 188.258041 
C 127.655521 188.921049 128.554879 189.293575 129.492513 189.293575 
z
" style="fill:none;stroke:#8c564b;"/>
   </g>
   <g id="PathCollection_8">
    <path clip-path="url(#p76d9dc55e9)" d="M 136.45508 188.832099 
C 137.392715 188.832099 138.292072 188.459573 138.95508 187.796565 
C 139.618088 187.133557 139.990614 186.2342 139.990614 185.296565 
C 139.990614 184.358931 139.618088 183.459573 138.95508 182.796565 
C 138.292072 182.133557 137.392715 181.761031 136.45508 181.761031 
C 135.517446 181.761031 134.618088 182.133557 133.95508 182.796565 
C 133.292072 183.459573 132.919546 184.358931 132.919546 185.296565 
C 132.919546 186.2342 133.292072 187.133557 133.95508 187.796565 
C 134.618088 188.459573 135.517446 188.832099 136.45508 188.832099 
z
" style="fill:none;stroke:#8c564b;"/>
   </g>
   <g id="PathCollection_9">
    <path clip-path="url(#p76d9dc55e9)" d="M 143.417647 188.28603 
C 144.355282 188.28603 145.254639 187.913504 145.917647 187.250497 
C 146.580655 186.587489 146.953181 185.688131 146.953181 184.750497 
C 146.953181 183.812862 146.580655 182.913504 145.917647 182.250497 
C 145.254639 181.587489 144.355282 181.214963 143.417647 181.214963 
C 142.480013 181.214963 141.580655 181.587489 140.917647 182.250497 
C 140.254639 182.913504 139.882113 183.812862 139.882113 184.750497 
C 139.882113 185.688131 140.254639 186.587489 140.917647 187.250497 
C 141.580655 187.913504 142.480013 188.28603 143.417647 188.28603 
z
" style="fill:none;stroke:#8c564b;"/>
   </g>
   <g id="PathCollection_10">
    <path clip-path="url(#p76d9dc55e9)" d="M 150.380214 187.651347 
C 151.317848 187.651347 152.217206 187.278821 152.880214 186.615813 
C 153.543222 185.952806 153.915748 185.053448 153.915748 184.115813 
C 153.915748 183.178179 153.543222 182.278821 152.880214 181.615813 
C 152.217206 180.952806 151.317848 180.580279 150.380214 180.580279 
C 149.442579 180.580279 148.543222 180.952806 147.880214 181.615813 
C 147.217206 182.278821 146.84468 183.178179 146.84468 184.115813 
C 146.84468 185.053448 147.217206 185.952806 147.880214 186.615813 
C 148.543222 187.278821 149.442579 187.651347 150.380214 187.651347 
z
" style="fill:none;stroke:#8c564b;"/>
   </g>
   <g id="PathCollection_11">
    <path clip-path="url(#p76d9dc55e9)" d="M 157.342781 186.930528 
C 158.280415 186.930528 159.179773 186.558002 159.842781 185.894994 
C 160.505788 185.231986 160.878315 184.332629 160.878315 183.394994 
C 160.878315 182.45736 160.505788 181.558002 159.842781 180.894994 
C 159.179773 180.231986 158.280415 179.85946 157.342781 179.85946 
C 156.405146 179.85946 155.505788 180.231986 154.842781 180.894994 
C 154.179773 181.558002 153.807247 182.45736 153.807247 183.394994 
C 153.807247 184.332629 154.179773 185.231986 154.842781 185.894994 
C 155.505788 186.558002 156.405146 186.930528 157.342781 186.930528 
z
" style="fill:none;stroke:#8c564b;"/>
   </g>
   <g id="PathCollection_12">
    <path clip-path="url(#p76d9dc55e9)" d="M 164.305348 186.130659 
C 165.242982 186.130659 166.14234 185.758132 166.805348 185.095125 
C 167.468355 184.432117 167.840881 183.532759 167.840881 182.595125 
C 167.840881 181.65749 167.468355 180.758132 166.805348 180.095125 
C 166.14234 179.432117 165.242982 179.059591 164.305348 179.059591 
C 163.367713 179.059591 162.468355 179.432117 161.805348 180.095125 
C 161.14234 180.758132 160.769814 181.65749 160.769814 182.595125 
C 160.769814 183.532759 161.14234 184.432117 161.805348 185.095125 
C 162.468355 185.758132 163.367713 186.130659 164.305348 186.130659 
z
" style="fill:none;stroke:#8c564b;"/>
   </g>
   <g id="PathCollection_13">
    <path clip-path="url(#p76d9dc55e9)" d="M 171.267914 185.261814 
C 172.205549 185.261814 173.104907 184.889288 173.767914 184.22628 
C 174.430922 183.563272 174.803448 182.663915 174.803448 181.72628 
C 174.803448 180.788646 174.430922 179.889288 173.767914 179.22628 
C 173.104907 178.563272 172.205549 178.190746 171.267914 178.190746 
C 170.33028 178.190746 169.430922 178.563272 168.767914 179.22628 
C 168.104907 179.889288 167.732381 180.788646 167.732381 181.72628 
C 167.732381 182.663915 168.104907 183.563272 168.767914 184.22628 
C 169.430922 184.889288 170.33028 185.261814 171.267914 185.261814 
z
" style="fill:none;stroke:#8c564b;"/>
   </g>
   <g id="PathCollection_14">
    <path clip-path="url(#p76d9dc55e9)" d="M 178.230481 184.3357 
C 179.168116 184.3357 180.067474 183.963174 180.730481 183.300166 
C 181.393489 182.637159 181.766015 181.737801 181.766015 180.800166 
C 181.766015 179.862532 181.393489 178.963174 180.730481 178.300166 
C 180.067474 177.637159 179.168116 177.264632 178.230481 177.264632 
C 177.292847 177.264632 176.393489 177.637159 175.730481 178.300166 
C 175.067474 178.963174 174.694947 179.862532 174.694947 180.800166 
C 174.694947 181.737801 175.067474 182.637159 175.730481 183.300166 
C 176.393489 183.963174 177.292847 184.3357 178.230481 184.3357 
z
" style="fill:none;stroke:#8c564b;"/>
   </g>
   <g id="PathCollection_15">
    <path clip-path="url(#p76d9dc55e9)" d="M 185.193048 183.364535 
C 186.130683 183.364535 187.03004 182.992009 187.693048 182.329001 
C 188.356056 181.665993 188.728582 180.766636 188.728582 179.829001 
C 188.728582 178.891367 188.356056 177.992009 187.693048 177.329001 
C 187.03004 176.665993 186.130683 176.293467 185.193048 176.293467 
C 184.255414 176.293467 183.356056 176.665993 182.693048 177.329001 
C 182.03004 177.992009 181.657514 178.891367 181.657514 179.829001 
C 181.657514 180.766636 182.03004 181.665993 182.693048 182.329001 
C 183.356056 182.992009 184.255414 183.364535 185.193048 183.364535 
z
" style="fill:none;stroke:#8c564b;"/>
   </g>
   <g id="PathCollection_16">
    <path clip-path="url(#p76d9dc55e9)" d="M 192.155615 182.360157 
C 193.09325 182.360157 193.992607 181.987631 194.655615 181.324623 
C 195.318623 180.661616 195.691149 179.762258 195.691149 178.824623 
C 195.691149 177.886989 195.318623 176.987631 194.655615 176.324623 
C 193.992607 175.661616 193.09325 175.289089 192.155615 175.289089 
C 191.21798 175.289089 190.318623 175.661616 189.655615 176.324623 
C 188.992607 176.987631 188.620081 177.886989 188.620081 178.824623 
C 188.620081 179.762258 188.992607 180.661616 189.655615 181.324623 
C 190.318623 181.987631 191.21798 182.360157 192.155615 182.360157 
z
" style="fill:none;stroke:#8c564b;"/>
   </g>
   <g id="PathCollection_17">
    <path clip-path="url(#p76d9dc55e9)" d="M 199.118182 181.333341 
C 200.055816 181.333341 200.955174 180.960815 201.618182 180.297807 
C 202.28119 179.634799 202.653716 178.735442 202.653716 177.797807 
C 202.653716 176.860173 202.28119 175.960815 201.618182 175.297807 
C 200.955174 174.634799 200.055816 174.262273 199.118182 174.262273 
C 198.180547 174.262273 197.28119 174.634799 196.618182 175.297807 
C 195.955174 175.960815 195.582648 176.860173 195.582648 177.797807 
C 195.582648 178.735442 195.955174 179.634799 196.618182 180.297807 
C 197.28119 180.960815 198.180547 181.333341 199.118182 181.333341 
z
" style="fill:none;stroke:#8c564b;"/>
   </g>
   <g id="PathCollection_18">
    <path clip-path="url(#p76d9dc55e9)" d="M 206.080749 180.293304 
C 207.018383 180.293304 207.917741 179.920778 208.580749 179.25777 
C 209.243756 178.594763 209.616283 177.695405 209.616283 176.75777 
C 209.616283 175.820136 209.243756 174.920778 208.580749 174.25777 
C 207.917741 173.594763 207.018383 173.222236 206.080749 173.222236 
C 205.143114 173.222236 204.243756 173.594763 203.580749 174.25777 
C 202.917741 174.920778 202.545215 175.820136 202.545215 176.75777 
C 202.545215 177.695405 202.917741 178.594763 203.580749 179.25777 
C 204.243756 179.920778 205.143114 180.293304 206.080749 180.293304 
z
" style="fill:none;stroke:#8c564b;"/>
   </g>
   <g id="PathCollection_19">
    <path clip-path="url(#p76d9dc55e9)" d="M 213.043316 179.247389 
C 213.98095 179.247389 214.880308 178.874863 215.543316 178.211855 
C 216.206323 177.548847 216.578849 176.649489 216.578849 175.711855 
C 216.578849 174.77422 216.206323 173.874863 215.543316 173.211855 
C 214.880308 172.548847 213.98095 172.176321 213.043316 172.176321 
C 212.105681 172.176321 211.206323 172.548847 210.543316 173.211855 
C 209.880308 173.874863 209.507782 174.77422 209.507782 175.711855 
C 209.507782 176.649489 209.880308 177.548847 210.543316 178.211855 
C 211.206323 178.874863 212.105681 179.247389 213.043316 179.247389 
z
" style="fill:none;stroke:#8c564b;"/>
   </g>
   <g id="PathCollection_20">
    <path clip-path="url(#p76d9dc55e9)" d="M 220.005882 178.200901 
C 220.943517 178.200901 221.842875 177.828375 222.505882 177.165367 
C 223.16889 176.502359 223.541416 175.603001 223.541416 174.665367 
C 223.541416 173.727732 223.16889 172.828375 222.505882 172.165367 
C 221.842875 171.502359 220.943517 171.129833 220.005882 171.129833 
C 219.068248 171.129833 218.16889 171.502359 217.505882 172.165367 
C 216.842875 172.828375 216.470348 173.727732 216.470348 174.665367 
C 216.470348 175.603001 216.842875 176.502359 217.505882 177.165367 
C 218.16889 177.828375 219.068248 178.200901 220.005882 178.200901 
z
" style="fill:none;stroke:#8c564b;"/>
   </g>
   <g id="PathCollection_21">
    <path clip-path="url(#p76d9dc55e9)" d="M 226.968449 177.157091 
C 227.906084 177.157091 228.805441 176.784565 229.468449 176.121557 
C 230.131457 175.458549 230.503983 174.559192 230.503983 173.621557 
C 230.503983 172.683922 230.131457 171.784565 229.468449 171.121557 
C 228.805441 170.458549 227.906084 170.086023 226.968449 170.086023 
C 226.030815 170.086023 225.131457 170.458549 224.468449 171.121557 
C 223.805441 171.784565 223.432915 172.683922 223.432915 173.621557 
C 223.432915 174.559192 223.805441 175.458549 224.468449 176.121557 
C 225.131457 176.784565 226.030815 177.157091 226.968449 177.157091 
z
" style="fill:none;stroke:#8c564b;"/>
   </g>
   <g id="PathCollection_22">
    <path clip-path="url(#p76d9dc55e9)" d="M 233.931016 176.117259 
C 234.868651 176.117259 235.768008 175.744732 236.431016 175.081725 
C 237.094024 174.418717 237.46655 173.519359 237.46655 172.581725 
C 237.46655 171.64409 237.094024 170.744732 236.431016 170.081725 
C 235.768008 169.418717 234.868651 169.046191 233.931016 169.046191 
C 232.993381 169.046191 232.094024 169.418717 231.431016 170.081725 
C 230.768008 170.744732 230.395482 171.64409 230.395482 172.581725 
C 230.395482 173.519359 230.768008 174.418717 231.431016 175.081725 
C 232.094024 175.744732 232.993381 176.117259 233.931016 176.117259 
z
" style="fill:none;stroke:#8c564b;"/>
   </g>
   <g id="PathCollection_23">
    <path clip-path="url(#p76d9dc55e9)" d="M 240.893583 175.080965 
C 241.831217 175.080965 242.730575 174.708439 243.393583 174.045431 
C 244.056591 173.382423 244.429117 172.483066 244.429117 171.545431 
C 244.429117 170.607797 244.056591 169.708439 243.393583 169.045431 
C 242.730575 168.382423 241.831217 168.009897 240.893583 168.009897 
C 239.955948 168.009897 239.056591 168.382423 238.393583 169.045431 
C 237.730575 169.708439 237.358049 170.607797 237.358049 171.545431 
C 237.358049 172.483066 237.730575 173.382423 238.393583 174.045431 
C 239.056591 174.708439 239.955948 175.080965 240.893583 175.080965 
z
" style="fill:none;stroke:#8c564b;"/>
   </g>
   <g id="PathCollection_24">
    <path clip-path="url(#p76d9dc55e9)" d="M 247.85615 174.046335 
C 248.793784 174.046335 249.693142 173.673809 250.35615 173.010801 
C 251.019157 172.347793 251.391684 171.448435 251.391684 170.510801 
C 251.391684 169.573166 251.019157 168.673809 250.35615 168.010801 
C 249.693142 167.347793 248.793784 166.975267 247.85615 166.975267 
C 246.918515 166.975267 246.019157 167.347793 245.35615 168.010801 
C 244.693142 168.673809 244.320616 169.573166 244.320616 170.510801 
C 244.320616 171.448435 244.693142 172.347793 245.35615 173.010801 
C 246.019157 173.673809 246.918515 174.046335 247.85615 174.046335 
z
" style="fill:none;stroke:#8c564b;"/>
   </g>
   <g id="PathCollection_25">
    <path clip-path="url(#p76d9dc55e9)" d="M 254.818717 173.010433 
C 255.756351 173.010433 256.655709 172.637907 257.318717 171.974899 
C 257.981724 171.311891 258.35425 170.412534 258.35425 169.474899 
C 258.35425 168.537264 257.981724 167.637907 257.318717 166.974899 
C 256.655709 166.311891 255.756351 165.939365 254.818717 165.939365 
C 253.881082 165.939365 252.981724 166.311891 252.318717 166.974899 
C 251.655709 167.637907 251.283183 168.537264 251.283183 169.474899 
C 251.283183 170.412534 251.655709 171.311891 252.318717 171.974899 
C 252.981724 172.637907 253.881082 173.010433 254.818717 173.010433 
z
" style="fill:none;stroke:#8c564b;"/>
   </g>
   <g id="PathCollection_26">
    <path clip-path="url(#p76d9dc55e9)" d="M 261.781283 171.969698 
C 262.718918 171.969698 263.618276 171.597172 264.281283 170.934165 
C 264.944291 170.271157 265.316817 169.371799 265.316817 168.434165 
C 265.316817 167.49653 264.944291 166.597172 264.281283 165.934165 
C 263.618276 165.271157 262.718918 164.898631 261.781283 164.898631 
C 260.843649 164.898631 259.944291 165.271157 259.281283 165.934165 
C 258.618276 166.597172 258.24575 167.49653 258.24575 168.434165 
C 258.24575 169.371799 258.618276 170.271157 259.281283 170.934165 
C 259.944291 171.597172 260.843649 171.969698 261.781283 171.969698 
z
" style="fill:none;stroke:#8c564b;"/>
   </g>
   <g id="PathCollection_27">
    <path clip-path="url(#p76d9dc55e9)" d="M 268.74385 170.920417 
C 269.681485 170.920417 270.580843 170.547891 271.24385 169.884883 
C 271.906858 169.221876 272.279384 168.322518 272.279384 167.384883 
C 272.279384 166.447249 271.906858 165.547891 271.24385 164.884883 
C 270.580843 164.221876 269.681485 163.849349 268.74385 163.849349 
C 267.806216 163.849349 266.906858 164.221876 266.24385 164.884883 
C 265.580843 165.547891 265.208316 166.447249 265.208316 167.384883 
C 265.208316 168.322518 265.580843 169.221876 266.24385 169.884883 
C 266.906858 170.547891 267.806216 170.920417 268.74385 170.920417 
z
" style="fill:none;stroke:#8c564b;"/>
   </g>
   <g id="PathCollection_28">
    <path clip-path="url(#p76d9dc55e9)" d="M 275.706417 169.859221 
C 276.644052 169.859221 277.543409 169.486695 278.206417 168.823688 
C 278.869425 168.16068 279.241951 167.261322 279.241951 166.323688 
C 279.241951 165.386053 278.869425 164.486695 278.206417 163.823688 
C 277.543409 163.16068 276.644052 162.788154 275.706417 162.788154 
C 274.768783 162.788154 273.869425 163.16068 273.206417 163.823688 
C 272.543409 164.486695 272.170883 165.386053 272.170883 166.323688 
C 272.170883 167.261322 272.543409 168.16068 273.206417 168.823688 
C 273.869425 169.486695 274.768783 169.859221 275.706417 169.859221 
z
" style="fill:none;stroke:#8c564b;"/>
   </g>
   <g id="PathCollection_29">
    <path clip-path="url(#p76d9dc55e9)" d="M 282.668984 168.783591 
C 283.606619 168.783591 284.505976 168.411065 285.168984 167.748057 
C 285.831992 167.085049 286.204518 166.185691 286.204518 165.248057 
C 286.204518 164.310422 285.831992 163.411065 285.168984 162.748057 
C 284.505976 162.085049 283.606619 161.712523 282.668984 161.712523 
C 281.731349 161.712523 280.831992 162.085049 280.168984 162.748057 
C 279.505976 163.411065 279.13345 164.310422 279.13345 165.248057 
C 279.13345 166.185691 279.505976 167.085049 280.168984 167.748057 
C 280.831992 168.411065 281.731349 168.783591 282.668984 168.783591 
z
" style="fill:none;stroke:#8c564b;"/>
   </g>
   <g id="PathCollection_30">
    <path clip-path="url(#p76d9dc55e9)" d="M 289.631551 167.692348 
C 290.569185 167.692348 291.468543 167.319822 292.131551 166.656814 
C 292.794559 165.993806 293.167085 165.094448 293.167085 164.156814 
C 293.167085 163.219179 292.794559 162.319822 292.131551 161.656814 
C 291.468543 160.993806 290.569185 160.62128 289.631551 160.62128 
C 288.693916 160.62128 287.794559 160.993806 287.131551 161.656814 
C 286.468543 162.319822 286.096017 163.219179 286.096017 164.156814 
C 286.096017 165.094448 286.468543 165.993806 287.131551 166.656814 
C 287.794559 167.319822 288.693916 167.692348 289.631551 167.692348 
z
" style="fill:none;stroke:#8c564b;"/>
   </g>
   <g id="PathCollection_31">
    <path clip-path="url(#p76d9dc55e9)" d="M 296.594118 166.586125 
C 297.531752 166.586125 298.43111 166.213598 299.094118 165.550591 
C 299.757125 164.887583 300.129652 163.988225 300.129652 163.050591 
C 300.129652 162.112956 299.757125 161.213598 299.094118 160.550591 
C 298.43111 159.887583 297.531752 159.515057 296.594118 159.515057 
C 295.656483 159.515057 294.757125 159.887583 294.094118 160.550591 
C 293.43111 161.213598 293.058584 162.112956 293.058584 163.050591 
C 293.058584 163.988225 293.43111 164.887583 294.094118 165.550591 
C 294.757125 166.213598 295.656483 166.586125 296.594118 166.586125 
z
" style="fill:none;stroke:#8c564b;"/>
   </g>
   <g id="PathCollection_32">
    <path clip-path="url(#p76d9dc55e9)" d="M 303.556684 165.467785 
C 304.494319 165.467785 305.393677 165.095259 306.056684 164.432251 
C 306.719692 163.769244 307.092218 162.869886 307.092218 161.932251 
C 307.092218 160.994617 306.719692 160.095259 306.056684 159.432251 
C 305.393677 158.769244 304.494319 158.396717 303.556684 158.396717 
C 302.61905 158.396717 301.719692 158.769244 301.056684 159.432251 
C 300.393677 160.095259 300.021151 160.994617 300.021151 161.932251 
C 300.021151 162.869886 300.393677 163.769244 301.056684 164.432251 
C 301.719692 165.095259 302.61905 165.467785 303.556684 165.467785 
z
" style="fill:none;stroke:#8c564b;"/>
   </g>
   <g id="PathCollection_33">
    <path clip-path="url(#p76d9dc55e9)" d="M 310.519251 164.34279 
C 311.456886 164.34279 312.356244 163.970263 313.019251 163.307256 
C 313.682259 162.644248 314.054785 161.74489 314.054785 160.807256 
C 314.054785 159.869621 313.682259 158.970263 313.019251 158.307256 
C 312.356244 157.644248 311.456886 157.271722 310.519251 157.271722 
C 309.581617 157.271722 308.682259 157.644248 308.019251 158.307256 
C 307.356244 158.970263 306.983717 159.869621 306.983717 160.807256 
C 306.983717 161.74489 307.356244 162.644248 308.019251 163.307256 
C 308.682259 163.970263 309.581617 164.34279 310.519251 164.34279 
z
" style="fill:none;stroke:#8c564b;"/>
   </g>
   <g id="PathCollection_34">
    <path clip-path="url(#p76d9dc55e9)" d="M 317.481818 163.219477 
C 318.419453 163.219477 319.31881 162.846951 319.981818 162.183943 
C 320.644826 161.520935 321.017352 160.621578 321.017352 159.683943 
C 321.017352 158.746308 320.644826 157.846951 319.981818 157.183943 
C 319.31881 156.520935 318.419453 156.148409 317.481818 156.148409 
C 316.544184 156.148409 315.644826 156.520935 314.981818 157.183943 
C 314.31881 157.846951 313.946284 158.746308 313.946284 159.683943 
C 313.946284 160.621578 314.31881 161.520935 314.981818 162.183943 
C 315.644826 162.846951 316.544184 163.219477 317.481818 163.219477 
z
" style="fill:none;stroke:#8c564b;"/>
   </g>
   <g id="PathCollection_35">
    <path clip-path="url(#p76d9dc55e9)" d="M 324.444385 162.109259 
C 325.38202 162.109259 326.281377 161.736733 326.944385 161.073725 
C 327.607393 160.410717 327.979919 159.51136 327.979919 158.573725 
C 327.979919 157.636091 327.607393 156.736733 326.944385 156.073725 
C 326.281377 155.410717 325.38202 155.038191 324.444385 155.038191 
C 323.50675 155.038191 322.607393 155.410717 321.944385 156.073725 
C 321.281377 156.736733 320.908851 157.636091 320.908851 158.573725 
C 320.908851 159.51136 321.281377 160.410717 321.944385 161.073725 
C 322.607393 161.736733 323.50675 162.109259 324.444385 162.109259 
z
" style="fill:none;stroke:#8c564b;"/>
   </g>
   <g id="PathCollection_36">
    <path clip-path="url(#p76d9dc55e9)" d="M 331.406952 161.026698 
C 332.344586 161.026698 333.243944 160.654172 333.906952 159.991164 
C 334.56996 159.328156 334.942486 158.428798 334.942486 157.491164 
C 334.942486 156.553529 334.56996 155.654172 333.906952 154.991164 
C 333.243944 154.328156 332.344586 153.95563 331.406952 153.95563 
C 330.469317 153.95563 329.56996 154.328156 328.906952 154.991164 
C 328.243944 155.654172 327.871418 156.553529 327.871418 157.491164 
C 327.871418 158.428798 328.243944 159.328156 328.906952 159.991164 
C 329.56996 160.654172 330.469317 161.026698 331.406952 161.026698 
z
" style="fill:none;stroke:#8c564b;"/>
   </g>
   <g id="PathCollection_37">
    <path clip-path="url(#p76d9dc55e9)" d="M 338.369519 159.989461 
C 339.307153 159.989461 340.206511 159.616935 340.869519 158.953927 
C 341.532526 158.29092 341.905053 157.391562 341.905053 156.453927 
C 341.905053 155.516293 341.532526 154.616935 340.869519 153.953927 
C 340.206511 153.29092 339.307153 152.918393 338.369519 152.918393 
C 337.431884 152.918393 336.532526 153.29092 335.869519 153.953927 
C 335.206511 154.616935 334.833985 155.516293 334.833985 156.453927 
C 334.833985 157.391562 335.206511 158.29092 335.869519 158.953927 
C 336.532526 159.616935 337.431884 159.989461 338.369519 159.989461 
z
" style="fill:none;stroke:#8c564b;"/>
   </g>
   <g id="PathCollection_38">
    <path clip-path="url(#p76d9dc55e9)" d="M 345.332086 159.018129 
C 346.26972 159.018129 347.169078 158.645603 347.832086 157.982595 
C 348.495093 157.319587 348.867619 156.42023 348.867619 155.482595 
C 348.867619 154.544961 348.495093 153.645603 347.832086 152.982595 
C 347.169078 152.319587 346.26972 151.947061 345.332086 151.947061 
C 344.394451 151.947061 343.495093 152.319587 342.832086 152.982595 
C 342.169078 153.645603 341.796552 154.544961 341.796552 155.482595 
C 341.796552 156.42023 342.169078 157.319587 342.832086 157.982595 
C 343.495093 158.645603 344.394451 159.018129 345.332086 159.018129 
z
" style="fill:none;stroke:#8c564b;"/>
   </g>
   <g id="PathCollection_39">
    <path clip-path="url(#p76d9dc55e9)" d="M 352.294652 158.135841 
C 353.232287 158.135841 354.131645 157.763315 354.794652 157.100307 
C 355.45766 156.437299 355.830186 155.537942 355.830186 154.600307 
C 355.830186 153.662672 355.45766 152.763315 354.794652 152.100307 
C 354.131645 151.437299 353.232287 151.064773 352.294652 151.064773 
C 351.357018 151.064773 350.45766 151.437299 349.794652 152.100307 
C 349.131645 152.763315 348.759119 153.662672 348.759119 154.600307 
C 348.759119 155.537942 349.131645 156.437299 349.794652 157.100307 
C 350.45766 157.763315 351.357018 158.135841 352.294652 158.135841 
z
" style="fill:none;stroke:#8c564b;"/>
   </g>
   <g id="PathCollection_40">
    <path clip-path="url(#p76d9dc55e9)" d="M 359.257219 157.367764 
C 360.194854 157.367764 361.094212 156.995238 361.757219 156.33223 
C 362.420227 155.669222 362.792753 154.769864 362.792753 153.83223 
C 362.792753 152.894595 362.420227 151.995238 361.757219 151.33223 
C 361.094212 150.669222 360.194854 150.296696 359.257219 150.296696 
C 358.319585 150.296696 357.420227 150.669222 356.757219 151.33223 
C 356.094212 151.995238 355.721685 152.894595 355.721685 153.83223 
C 355.721685 154.769864 356.094212 155.669222 356.757219 156.33223 
C 357.420227 156.995238 358.319585 157.367764 359.257219 157.367764 
z
" style="fill:none;stroke:#8c564b;"/>
   </g>
   <g id="PathCollection_41">
    <path clip-path="url(#p76d9dc55e9)" d="M 366.219786 156.740368 
C 367.157421 156.740368 368.056778 156.367841 368.719786 155.704834 
C 369.382794 155.041826 369.75532 154.142468 369.75532 153.204834 
C 369.75532 152.267199 369.382794 151.367841 368.719786 150.704834 
C 368.056778 150.041826 367.157421 149.6693 366.219786 149.6693 
C 365.282152 149.6693 364.382794 150.041826 363.719786 150.704834 
C 363.056778 151.367841 362.684252 152.267199 362.684252 153.204834 
C 362.684252 154.142468 363.056778 155.041826 363.719786 155.704834 
C 364.382794 156.367841 365.282152 156.740368 366.219786 156.740368 
z
" style="fill:none;stroke:#8c564b;"/>
   </g>
   <g id="PathCollection_42">
    <path clip-path="url(#p76d9dc55e9)" d="M 373.182353 156.280486 
C 374.119987 156.280486 375.019345 155.90796 375.682353 155.244952 
C 376.345361 154.581944 376.717887 153.682587 376.717887 152.744952 
C 376.717887 151.807317 376.345361 150.90796 375.682353 150.244952 
C 375.019345 149.581944 374.119987 149.209418 373.182353 149.209418 
C 372.244718 149.209418 371.345361 149.581944 370.682353 150.244952 
C 370.019345 150.90796 369.646819 151.807317 369.646819 152.744952 
C 369.646819 153.682587 370.019345 154.581944 370.682353 155.244952 
C 371.345361 155.90796 372.244718 156.280486 373.182353 156.280486 
z
" style="fill:none;stroke:#8c564b;"/>
   </g>
   <g id="PathCollection_43">
    <path clip-path="url(#p76d9dc55e9)" d="M 380.14492 156.014152 
C 381.082554 156.014152 381.981912 155.641626 382.64492 154.978618 
C 383.307928 154.31561 383.680454 153.416252 383.680454 152.478618 
C 383.680454 151.540983 383.307928 150.641626 382.64492 149.978618 
C 381.981912 149.31561 381.082554 148.943084 380.14492 148.943084 
C 379.207285 148.943084 378.307928 149.31561 377.64492 149.978618 
C 376.981912 150.641626 376.609386 151.540983 376.609386 152.478618 
C 376.609386 153.416252 376.981912 154.31561 377.64492 154.978618 
C 378.307928 155.641626 379.207285 156.014152 380.14492 156.014152 
z
" style="fill:none;stroke:#8c564b;"/>
   </g>
   <g id="PathCollection_44">
    <path clip-path="url(#p76d9dc55e9)" d="M 387.107487 155.965184 
C 388.045121 155.965184 388.944479 155.592658 389.607487 154.92965 
C 390.270494 154.266642 390.643021 153.367284 390.643021 152.42965 
C 390.643021 151.492015 390.270494 150.592658 389.607487 149.92965 
C 388.944479 149.266642 388.045121 148.894116 387.107487 148.894116 
C 386.169852 148.894116 385.270494 149.266642 384.607487 149.92965 
C 383.944479 150.592658 383.571953 151.492015 383.571953 152.42965 
C 383.571953 153.367284 383.944479 154.266642 384.607487 154.92965 
C 385.270494 155.592658 386.169852 155.965184 387.107487 155.965184 
z
" style="fill:none;stroke:#8c564b;"/>
   </g>
   <g id="PathCollection_45">
    <path clip-path="url(#p76d9dc55e9)" d="M 394.070053 156.153515 
C 395.007688 156.153515 395.907046 155.780989 396.570053 155.117981 
C 397.233061 154.454974 397.605587 153.555616 397.605587 152.617981 
C 397.605587 151.680347 397.233061 150.780989 396.570053 150.117981 
C 395.907046 149.454974 395.007688 149.082448 394.070053 149.082448 
C 393.132419 149.082448 392.233061 149.454974 391.570053 150.117981 
C 390.907046 150.780989 390.53452 151.680347 390.53452 152.617981 
C 390.53452 153.555616 390.907046 154.454974 391.570053 155.117981 
C 392.233061 155.780989 393.132419 156.153515 394.070053 156.153515 
z
" style="fill:none;stroke:#8c564b;"/>
   </g>
   <g id="PathCollection_46">
    <path clip-path="url(#p76d9dc55e9)" d="M 401.03262 156.59324 
C 401.970255 156.59324 402.869613 156.220714 403.53262 155.557706 
C 404.195628 154.894699 404.568154 153.995341 404.568154 153.057706 
C 404.568154 152.120072 404.195628 151.220714 403.53262 150.557706 
C 402.869613 149.894699 401.970255 149.522173 401.03262 149.522173 
C 400.094986 149.522173 399.195628 149.894699 398.53262 150.557706 
C 397.869613 151.220714 397.497086 152.120072 397.497086 153.057706 
C 397.497086 153.995341 397.869613 154.894699 398.53262 155.557706 
C 399.195628 156.220714 400.094986 156.59324 401.03262 156.59324 
z
" style="fill:none;stroke:#8c564b;"/>
   </g>
   <g id="PathCollection_47">
    <path clip-path="url(#p76d9dc55e9)" d="M 407.995187 157.290366 
C 408.932822 157.290366 409.832179 156.91784 410.495187 156.254832 
C 411.158195 155.591825 411.530721 154.692467 411.530721 153.754832 
C 411.530721 152.817198 411.158195 151.91784 410.495187 151.254832 
C 409.832179 150.591825 408.932822 150.219298 407.995187 150.219298 
C 407.057553 150.219298 406.158195 150.591825 405.495187 151.254832 
C 404.832179 151.91784 404.459653 152.817198 404.459653 153.754832 
C 404.459653 154.692467 404.832179 155.591825 405.495187 156.254832 
C 406.158195 156.91784 407.057553 157.290366 407.995187 157.290366 
z
" style="fill:none;stroke:#8c564b;"/>
   </g>
   <g id="PathCollection_48">
    <path clip-path="url(#p76d9dc55e9)" d="M 414.957754 158.240254 
C 415.895389 158.240254 416.794746 157.867728 417.457754 157.20472 
C 418.120762 156.541712 418.493288 155.642354 418.493288 154.70472 
C 418.493288 153.767085 418.120762 152.867728 417.457754 152.20472 
C 416.794746 151.541712 415.895389 151.169186 414.957754 151.169186 
C 414.020119 151.169186 413.120762 151.541712 412.457754 152.20472 
C 411.794746 152.867728 411.42222 153.767085 411.42222 154.70472 
C 411.42222 155.642354 411.794746 156.541712 412.457754 157.20472 
C 413.120762 157.867728 414.020119 158.240254 414.957754 158.240254 
z
" style="fill:none;stroke:#8c564b;"/>
   </g>
   <g id="PathCollection_49">
    <path clip-path="url(#p76d9dc55e9)" d="M 421.920321 159.424728 
C 422.857955 159.424728 423.757313 159.052202 424.420321 158.389194 
C 425.083329 157.726186 425.455855 156.826829 425.455855 155.889194 
C 425.455855 154.95156 425.083329 154.052202 424.420321 153.389194 
C 423.757313 152.726186 422.857955 152.35366 421.920321 152.35366 
C 420.982686 152.35366 420.083329 152.726186 419.420321 153.389194 
C 418.757313 154.052202 418.384787 154.95156 418.384787 155.889194 
C 418.384787 156.826829 418.757313 157.726186 419.420321 158.389194 
C 420.083329 159.052202 420.982686 159.424728 421.920321 159.424728 
z
" style="fill:none;stroke:#8c564b;"/>
   </g>
   <g id="PathCollection_50">
    <path clip-path="url(#p76d9dc55e9)" d="M 428.882888 160.808842 
C 429.820522 160.808842 430.71988 160.436316 431.382888 159.773308 
C 432.045895 159.1103 432.418422 158.210942 432.418422 157.273308 
C 432.418422 156.335673 432.045895 155.436316 431.382888 154.773308 
C 430.71988 154.1103 429.820522 153.737774 428.882888 153.737774 
C 427.945253 153.737774 427.045895 154.1103 426.382888 154.773308 
C 425.71988 155.436316 425.347354 156.335673 425.347354 157.273308 
C 425.347354 158.210942 425.71988 159.1103 426.382888 159.773308 
C 427.045895 160.436316 427.945253 160.808842 428.882888 160.808842 
z
" style="fill:none;stroke:#8c564b;"/>
   </g>
   <g id="PathCollection_51">
    <path clip-path="url(#p76d9dc55e9)" d="M 435.845455 162.337278 
C 436.783089 162.337278 437.682447 161.964752 438.345455 161.301744 
C 439.008462 160.638737 439.380988 159.739379 439.380988 158.801744 
C 439.380988 157.86411 439.008462 156.964752 438.345455 156.301744 
C 437.682447 155.638737 436.783089 155.266211 435.845455 155.266211 
C 434.90782 155.266211 434.008462 155.638737 433.345455 156.301744 
C 432.682447 156.964752 432.309921 157.86411 432.309921 158.801744 
C 432.309921 159.739379 432.682447 160.638737 433.345455 161.301744 
C 434.008462 161.964752 434.90782 162.337278 435.845455 162.337278 
z
" style="fill:none;stroke:#8c564b;"/>
   </g>
   <g id="PathCollection_52">
    <defs>
     <path d="M 0 3.535534 
C 0.937635 3.535534 1.836992 3.163008 2.5 2.5 
C 3.163008 1.836992 3.535534 0.937635 3.535534 0 
C 3.535534 -0.937635 3.163008 -1.836992 2.5 -2.5 
C 1.836992 -3.163008 0.937635 -3.535534 0 -3.535534 
C -0.937635 -3.535534 -1.836992 -3.163008 -2.5 -2.5 
C -3.163008 -1.836992 -3.535534 -0.937635 -3.535534 0 
C -3.535534 0.937635 -3.163008 1.836992 -2.5 2.5 
C -1.836992 3.163008 -0.937635 3.535534 0 3.535534 
z
" id="m74de8247ea" style="stroke:#8c564b;"/>
    </defs>
    <g clip-path="url(#p76d9dc55e9)">
     <use style="fill:#8c564b;stroke:#8c564b;" x="87.717112" xlink:href="#m74de8247ea" y="188.33473"/>
    </g>
   </g>
   <g id="PathCollection_53">
    <g clip-path="url(#p76d9dc55e9)">
     <use style="fill:#8c564b;stroke:#8c564b;" x="94.679679" xlink:href="#m74de8247ea" y="187.738623"/>
    </g>
   </g>
   <g id="PathCollection_54">
    <g clip-path="url(#p76d9dc55e9)">
     <use style="fill:#8c564b;stroke:#8c564b;" x="101.642246" xlink:href="#m74de8247ea" y="187.367675"/>
    </g>
   </g>
   <g id="PathCollection_55">
    <g clip-path="url(#p76d9dc55e9)">
     <use style="fill:#8c564b;stroke:#8c564b;" x="108.604813" xlink:href="#m74de8247ea" y="187.116875"/>
    </g>
   </g>
   <g id="PathCollection_56">
    <g clip-path="url(#p76d9dc55e9)">
     <use style="fill:#8c564b;stroke:#8c564b;" x="115.56738" xlink:href="#m74de8247ea" y="186.906053"/>
    </g>
   </g>
   <g id="PathCollection_57">
    <g clip-path="url(#p76d9dc55e9)">
     <use style="fill:#8c564b;stroke:#8c564b;" x="122.529947" xlink:href="#m74de8247ea" y="186.681857"/>
    </g>
   </g>
   <g id="PathCollection_58">
    <g clip-path="url(#p76d9dc55e9)">
     <use style="fill:#8c564b;stroke:#8c564b;" x="129.492513" xlink:href="#m74de8247ea" y="186.401687"/>
    </g>
   </g>
   <g id="PathCollection_59">
    <g clip-path="url(#p76d9dc55e9)">
     <use style="fill:#8c564b;stroke:#8c564b;" x="136.45508" xlink:href="#m74de8247ea" y="186.042622"/>
    </g>
   </g>
   <g id="PathCollection_60">
    <g clip-path="url(#p76d9dc55e9)">
     <use style="fill:#8c564b;stroke:#8c564b;" x="143.417647" xlink:href="#m74de8247ea" y="185.592264"/>
    </g>
   </g>
   <g id="PathCollection_61">
    <g clip-path="url(#p76d9dc55e9)">
     <use style="fill:#8c564b;stroke:#8c564b;" x="150.380214" xlink:href="#m74de8247ea" y="185.047315"/>
    </g>
   </g>
   <g id="PathCollection_62">
    <g clip-path="url(#p76d9dc55e9)">
     <use style="fill:#8c564b;stroke:#8c564b;" x="157.342781" xlink:href="#m74de8247ea" y="184.411261"/>
    </g>
   </g>
   <g id="PathCollection_63">
    <g clip-path="url(#p76d9dc55e9)">
     <use style="fill:#8c564b;stroke:#8c564b;" x="164.305348" xlink:href="#m74de8247ea" y="183.692369"/>
    </g>
   </g>
   <g id="PathCollection_64">
    <g clip-path="url(#p76d9dc55e9)">
     <use style="fill:#8c564b;stroke:#8c564b;" x="171.267914" xlink:href="#m74de8247ea" y="182.901974"/>
    </g>
   </g>
   <g id="PathCollection_65">
    <g clip-path="url(#p76d9dc55e9)">
     <use style="fill:#8c564b;stroke:#8c564b;" x="178.230481" xlink:href="#m74de8247ea" y="182.053055"/>
    </g>
   </g>
   <g id="PathCollection_66">
    <g clip-path="url(#p76d9dc55e9)">
     <use style="fill:#8c564b;stroke:#8c564b;" x="185.193048" xlink:href="#m74de8247ea" y="181.159056"/>
    </g>
   </g>
   <g id="PathCollection_67">
    <g clip-path="url(#p76d9dc55e9)">
     <use style="fill:#8c564b;stroke:#8c564b;" x="192.155615" xlink:href="#m74de8247ea" y="180.232959"/>
    </g>
   </g>
   <g id="PathCollection_68">
    <g clip-path="url(#p76d9dc55e9)">
     <use style="fill:#8c564b;stroke:#8c564b;" x="199.118182" xlink:href="#m74de8247ea" y="179.286567"/>
    </g>
   </g>
   <g id="PathCollection_69">
    <g clip-path="url(#p76d9dc55e9)">
     <use style="fill:#8c564b;stroke:#8c564b;" x="206.080749" xlink:href="#m74de8247ea" y="178.329998"/>
    </g>
   </g>
   <g id="PathCollection_70">
    <g clip-path="url(#p76d9dc55e9)">
     <use style="fill:#8c564b;stroke:#8c564b;" x="213.043316" xlink:href="#m74de8247ea" y="177.371355"/>
    </g>
   </g>
   <g id="PathCollection_71">
    <g clip-path="url(#p76d9dc55e9)">
     <use style="fill:#8c564b;stroke:#8c564b;" x="220.005882" xlink:href="#m74de8247ea" y="176.416563"/>
    </g>
   </g>
   <g id="PathCollection_72">
    <g clip-path="url(#p76d9dc55e9)">
     <use style="fill:#8c564b;stroke:#8c564b;" x="226.968449" xlink:href="#m74de8247ea" y="175.469356"/>
    </g>
   </g>
   <g id="PathCollection_73">
    <g clip-path="url(#p76d9dc55e9)">
     <use style="fill:#8c564b;stroke:#8c564b;" x="233.931016" xlink:href="#m74de8247ea" y="174.531381"/>
    </g>
   </g>
   <g id="PathCollection_74">
    <g clip-path="url(#p76d9dc55e9)">
     <use style="fill:#8c564b;stroke:#8c564b;" x="240.893583" xlink:href="#m74de8247ea" y="173.60242"/>
    </g>
   </g>
   <g id="PathCollection_75">
    <g clip-path="url(#p76d9dc55e9)">
     <use style="fill:#8c564b;stroke:#8c564b;" x="247.85615" xlink:href="#m74de8247ea" y="172.680696"/>
    </g>
   </g>
   <g id="PathCollection_76">
    <g clip-path="url(#p76d9dc55e9)">
     <use style="fill:#8c564b;stroke:#8c564b;" x="254.818717" xlink:href="#m74de8247ea" y="171.763248"/>
    </g>
   </g>
   <g id="PathCollection_77">
    <g clip-path="url(#p76d9dc55e9)">
     <use style="fill:#8c564b;stroke:#8c564b;" x="261.781283" xlink:href="#m74de8247ea" y="170.846364"/>
    </g>
   </g>
   <g id="PathCollection_78">
    <g clip-path="url(#p76d9dc55e9)">
     <use style="fill:#8c564b;stroke:#8c564b;" x="268.74385" xlink:href="#m74de8247ea" y="169.926038"/>
    </g>
   </g>
   <g id="PathCollection_79">
    <g clip-path="url(#p76d9dc55e9)">
     <use style="fill:#8c564b;stroke:#8c564b;" x="275.706417" xlink:href="#m74de8247ea" y="168.998451"/>
    </g>
   </g>
   <g id="PathCollection_80">
    <g clip-path="url(#p76d9dc55e9)">
     <use style="fill:#8c564b;stroke:#8c564b;" x="282.668984" xlink:href="#m74de8247ea" y="168.060437"/>
    </g>
   </g>
   <g id="PathCollection_81">
    <g clip-path="url(#p76d9dc55e9)">
     <use style="fill:#8c564b;stroke:#8c564b;" x="289.631551" xlink:href="#m74de8247ea" y="167.109936"/>
    </g>
   </g>
   <g id="PathCollection_82">
    <g clip-path="url(#p76d9dc55e9)">
     <use style="fill:#8c564b;stroke:#8c564b;" x="296.594118" xlink:href="#m74de8247ea" y="166.146392"/>
    </g>
   </g>
   <g id="PathCollection_83">
    <g clip-path="url(#p76d9dc55e9)">
     <use style="fill:#8c564b;stroke:#8c564b;" x="303.556684" xlink:href="#m74de8247ea" y="165.171106"/>
    </g>
   </g>
   <g id="PathCollection_84">
    <g clip-path="url(#p76d9dc55e9)">
     <use style="fill:#8c564b;stroke:#8c564b;" x="310.519251" xlink:href="#m74de8247ea" y="164.187492"/>
    </g>
   </g>
   <g id="PathCollection_85">
    <g clip-path="url(#p76d9dc55e9)">
     <use style="fill:#8c564b;stroke:#8c564b;" x="317.481818" xlink:href="#m74de8247ea" y="163.201248"/>
    </g>
   </g>
   <g id="PathCollection_86">
    <g clip-path="url(#p76d9dc55e9)">
     <use style="fill:#8c564b;stroke:#8c564b;" x="324.444385" xlink:href="#m74de8247ea" y="162.220401"/>
    </g>
   </g>
   <g id="PathCollection_87">
    <g clip-path="url(#p76d9dc55e9)">
     <use style="fill:#8c564b;stroke:#8c564b;" x="331.406952" xlink:href="#m74de8247ea" y="161.255222"/>
    </g>
   </g>
   <g id="PathCollection_88">
    <g clip-path="url(#p76d9dc55e9)">
     <use style="fill:#8c564b;stroke:#8c564b;" x="338.369519" xlink:href="#m74de8247ea" y="160.317978"/>
    </g>
   </g>
   <g id="PathCollection_89">
    <g clip-path="url(#p76d9dc55e9)">
     <use style="fill:#8c564b;stroke:#8c564b;" x="345.332086" xlink:href="#m74de8247ea" y="159.422519"/>
    </g>
   </g>
   <g id="PathCollection_90">
    <g clip-path="url(#p76d9dc55e9)">
     <use style="fill:#8c564b;stroke:#8c564b;" x="352.294652" xlink:href="#m74de8247ea" y="158.583665"/>
    </g>
   </g>
   <g id="PathCollection_91">
    <g clip-path="url(#p76d9dc55e9)">
     <use style="fill:#8c564b;stroke:#8c564b;" x="359.257219" xlink:href="#m74de8247ea" y="157.816388"/>
    </g>
   </g>
   <g id="PathCollection_92">
    <g clip-path="url(#p76d9dc55e9)">
     <use style="fill:#8c564b;stroke:#8c564b;" x="366.219786" xlink:href="#m74de8247ea" y="157.134759"/>
    </g>
   </g>
   <g id="PathCollection_93">
    <g clip-path="url(#p76d9dc55e9)">
     <use style="fill:#8c564b;stroke:#8c564b;" x="373.182353" xlink:href="#m74de8247ea" y="156.550645"/>
    </g>
   </g>
   <g id="PathCollection_94">
    <g clip-path="url(#p76d9dc55e9)">
     <use style="fill:#8c564b;stroke:#8c564b;" x="380.14492" xlink:href="#m74de8247ea" y="156.072146"/>
    </g>
   </g>
   <g id="PathCollection_95">
    <g clip-path="url(#p76d9dc55e9)">
     <use style="fill:#8c564b;stroke:#8c564b;" x="387.107487" xlink:href="#m74de8247ea" y="155.701736"/>
    </g>
   </g>
   <g id="PathCollection_96">
    <g clip-path="url(#p76d9dc55e9)">
     <use style="fill:#8c564b;stroke:#8c564b;" x="394.070053" xlink:href="#m74de8247ea" y="155.434102"/>
    </g>
   </g>
   <g id="PathCollection_97">
    <g clip-path="url(#p76d9dc55e9)">
     <use style="fill:#8c564b;stroke:#8c564b;" x="401.03262" xlink:href="#m74de8247ea" y="155.253664"/>
    </g>
   </g>
   <g id="PathCollection_98">
    <g clip-path="url(#p76d9dc55e9)">
     <use style="fill:#8c564b;stroke:#8c564b;" x="407.995187" xlink:href="#m74de8247ea" y="155.131744"/>
    </g>
   </g>
   <g id="PathCollection_99">
    <g clip-path="url(#p76d9dc55e9)">
     <use style="fill:#8c564b;stroke:#8c564b;" x="414.957754" xlink:href="#m74de8247ea" y="155.023377"/>
    </g>
   </g>
   <g id="PathCollection_100">
    <g clip-path="url(#p76d9dc55e9)">
     <use style="fill:#8c564b;stroke:#8c564b;" x="421.920321" xlink:href="#m74de8247ea" y="154.863742"/>
    </g>
   </g>
   <g id="PathCollection_101">
    <g clip-path="url(#p76d9dc55e9)">
     <use style="fill:#8c564b;stroke:#8c564b;" x="428.882888" xlink:href="#m74de8247ea" y="154.564194"/>
    </g>
   </g>
   <g id="PathCollection_102">
    <g clip-path="url(#p76d9dc55e9)">
     <use style="fill:#8c564b;stroke:#8c564b;" x="435.845455" xlink:href="#m74de8247ea" y="154.007874"/>
    </g>
   </g>
   <g id="matplotlib.axis_1"/>
   <g id="matplotlib.axis_2"/>
   <g id="line2d_1">
    <path clip-path="url(#p76d9dc55e9)" d="M 80.754545 189 
L 125.227941 188.889195 
L 132.27754 188.562788 
L 139.733289 187.992348 
L 147.827273 187.146432 
L 156.646524 185.997858 
L 166.452139 184.492347 
L 177.563235 182.556013 
L 190.589037 180.053073 
L 206.922059 176.67674 
L 232.219385 171.191039 
L 271.470856 162.701736 
L 290.588904 158.790333 
L 297.319385 157.644671 
L 304.107888 156.716783 
L 311.273529 155.963564 
L 318.874332 155.389867 
L 326.997326 155.001626 
L 335.758556 154.808528 
L 345.245053 154.824772 
L 355.659893 155.068375 
L 367.264171 155.566744 
L 380.435027 156.360243 
L 395.897727 157.521661 
L 415.131818 159.199772 
L 435.845455 161.172791 
L 435.845455 161.172791 
" style="fill:none;stroke:#8c564b;stroke-dasharray:11.1,4.8;stroke-dashoffset:0;stroke-width:3;"/>
   </g>
   <g id="line2d_2">
    <path clip-path="url(#p76d9dc55e9)" d="M 80.754545 189 
L 125.60508 188.889379 
L 133.031818 188.562428 
L 140.980749 187.985985 
L 149.596925 187.134933 
L 159.083422 185.971092 
L 169.730348 184.436127 
L 181.972861 182.440354 
L 196.710294 179.803978 
L 216.437567 176.032802 
L 286.701471 162.414082 
L 294.650401 161.080936 
L 301.7 160.132334 
L 309.097727 159.363553 
L 316.959626 158.77204 
L 325.372727 158.364005 
L 334.453075 158.148746 
L 344.345722 158.140037 
L 355.224733 158.356463 
L 367.409225 158.826041 
L 381.334358 159.59101 
L 397.841444 160.728012 
L 418.816176 162.407137 
L 435.845455 163.879771 
L 435.845455 163.879771 
" style="fill:none;stroke:#8c564b;stroke-linecap:square;stroke-width:3;"/>
   </g>
   <g id="patch_3">
    <path d="M 63 189 
L 63 25.92 
" style="fill:none;stroke:#000000;stroke-linecap:square;stroke-linejoin:miter;stroke-width:0.8;"/>
   </g>
   <g id="patch_4">
    <path d="M 453.6 189 
L 453.6 25.92 
" style="fill:none;stroke:#000000;stroke-linecap:square;stroke-linejoin:miter;stroke-width:0.8;"/>
   </g>
   <g id="patch_5">
    <path d="M 63 189 
L 453.6 189 
" style="fill:none;stroke:#000000;stroke-linecap:square;stroke-linejoin:miter;stroke-width:0.8;"/>
   </g>
   <g id="patch_6">
    <path d="M 63 25.92 
L 453.6 25.92 
" style="fill:none;stroke:#000000;stroke-linecap:square;stroke-linejoin:miter;stroke-width:0.8;"/>
   </g>
  </g>
 </g>
 <defs>
  <clipPath id="p76d9dc55e9">
   <rect height="163.08" width="390.6" x="63" y="25.92"/>
  </clipPath>
 </defs>
</svg>
