<?xml version="1.0" encoding="utf-8" standalone="no"?>
<!DOCTYPE svg PUBLIC "-//W3C//DTD SVG 1.1//EN"
  "http://www.w3.org/Graphics/SVG/1.1/DTD/svg11.dtd">
<!-- Created with matplotlib (https://matplotlib.org/) -->
<svg height="216pt" version="1.1" viewBox="0 0 504 216" width="504pt" xmlns="http://www.w3.org/2000/svg" xmlns:xlink="http://www.w3.org/1999/xlink">
 <metadata>
  <rdf:RDF xmlns:cc="http://creativecommons.org/ns#" xmlns:dc="http://purl.org/dc/elements/1.1/" xmlns:rdf="http://www.w3.org/1999/02/22-rdf-syntax-ns#">
   <cc:Work>
    <dc:type rdf:resource="http://purl.org/dc/dcmitype/StillImage"/>
    <dc:date>2024-12-18T09:31:49.091294</dc:date>
    <dc:format>image/svg+xml</dc:format>
    <dc:creator>
     <cc:Agent>
      <dc:title>Matplotlib v3.3.2, https://matplotlib.org/</dc:title>
     </cc:Agent>
    </dc:creator>
   </cc:Work>
  </rdf:RDF>
 </metadata>
 <defs>
  <style type="text/css">*{stroke-linecap:butt;stroke-linejoin:round;}</style>
 </defs>
 <g id="figure_1">
  <g id="patch_1">
   <path d="M 0 216 
L 504 216 
L 504 0 
L 0 0 
z
" style="fill:none;"/>
  </g>
  <g id="axes_1">
   <g id="patch_2">
    <path d="M 63 189 
L 453.6 189 
L 453.6 25.92 
L 63 25.92 
z
" style="fill:#ffffff;"/>
   </g>
   <g id="PathCollection_1">
    <path clip-path="url(#p72bf0053c1)" d="M 87.717112 192.170568 
C 88.654747 192.170568 89.554105 191.798042 90.217112 191.135034 
C 90.88012 190.472026 91.252646 189.572668 91.252646 188.635034 
C 91.252646 187.697399 90.88012 186.798042 90.217112 186.135034 
C 89.554105 185.472026 88.654747 185.0995 87.717112 185.0995 
C 86.779478 185.0995 85.88012 185.472026 85.217112 186.135034 
C 84.554105 186.798042 84.181578 187.697399 84.181578 188.635034 
C 84.181578 189.572668 84.554105 190.472026 85.217112 191.135034 
C 85.88012 191.798042 86.779478 192.170568 87.717112 192.170568 
z
" style="fill:none;stroke:#e377c2;"/>
   </g>
   <g id="PathCollection_2">
    <path clip-path="url(#p72bf0053c1)" d="M 94.679679 192.505168 
C 95.617314 192.505168 96.516671 192.132642 97.179679 191.469635 
C 97.842687 190.806627 98.215213 189.907269 98.215213 188.969635 
C 98.215213 188.032 97.842687 187.132642 97.179679 186.469635 
C 96.516671 185.806627 95.617314 185.434101 94.679679 185.434101 
C 93.742045 185.434101 92.842687 185.806627 92.179679 186.469635 
C 91.516671 187.132642 91.144145 188.032 91.144145 188.969635 
C 91.144145 189.907269 91.516671 190.806627 92.179679 191.469635 
C 92.842687 192.132642 93.742045 192.505168 94.679679 192.505168 
z
" style="fill:none;stroke:#e377c2;"/>
   </g>
   <g id="PathCollection_3">
    <path clip-path="url(#p72bf0053c1)" d="M 101.642246 192.37697 
C 102.579881 192.37697 103.479238 192.004444 104.142246 191.341436 
C 104.805254 190.678429 105.17778 189.779071 105.17778 188.841436 
C 105.17778 187.903802 104.805254 187.004444 104.142246 186.341436 
C 103.479238 185.678429 102.579881 185.305902 101.642246 185.305902 
C 100.704611 185.305902 99.805254 185.678429 99.142246 186.341436 
C 98.479238 187.004444 98.106712 187.903802 98.106712 188.841436 
C 98.106712 189.779071 98.479238 190.678429 99.142246 191.341436 
C 99.805254 192.004444 100.704611 192.37697 101.642246 192.37697 
z
" style="fill:none;stroke:#e377c2;"/>
   </g>
   <g id="PathCollection_4">
    <path clip-path="url(#p72bf0053c1)" d="M 108.604813 191.781731 
C 109.542447 191.781731 110.441805 191.409205 111.104813 190.746197 
C 111.767821 190.083189 112.140347 189.183831 112.140347 188.246197 
C 112.140347 187.308562 111.767821 186.409205 111.104813 185.746197 
C 110.441805 185.083189 109.542447 184.710663 108.604813 184.710663 
C 107.667178 184.710663 106.767821 185.083189 106.104813 185.746197 
C 105.441805 186.409205 105.069279 187.308562 105.069279 188.246197 
C 105.069279 189.183831 105.441805 190.083189 106.104813 190.746197 
C 106.767821 191.409205 107.667178 191.781731 108.604813 191.781731 
z
" style="fill:none;stroke:#e377c2;"/>
   </g>
   <g id="PathCollection_5">
    <path clip-path="url(#p72bf0053c1)" d="M 115.56738 190.733723 
C 116.505014 190.733723 117.404372 190.361197 118.06738 189.698189 
C 118.730387 189.035182 119.102914 188.135824 119.102914 187.198189 
C 119.102914 186.260555 118.730387 185.361197 118.06738 184.698189 
C 117.404372 184.035182 116.505014 183.662656 115.56738 183.662656 
C 114.629745 183.662656 113.730387 184.035182 113.06738 184.698189 
C 112.404372 185.361197 112.031846 186.260555 112.031846 187.198189 
C 112.031846 188.135824 112.404372 189.035182 113.06738 189.698189 
C 113.730387 190.361197 114.629745 190.733723 115.56738 190.733723 
z
" style="fill:none;stroke:#e377c2;"/>
   </g>
   <g id="PathCollection_6">
    <path clip-path="url(#p72bf0053c1)" d="M 122.529947 189.260311 
C 123.467581 189.260311 124.366939 188.887785 125.029947 188.224777 
C 125.692954 187.56177 126.06548 186.662412 126.06548 185.724777 
C 126.06548 184.787143 125.692954 183.887785 125.029947 183.224777 
C 124.366939 182.56177 123.467581 182.189243 122.529947 182.189243 
C 121.592312 182.189243 120.692954 182.56177 120.029947 183.224777 
C 119.366939 183.887785 118.994413 184.787143 118.994413 185.724777 
C 118.994413 186.662412 119.366939 187.56177 120.029947 188.224777 
C 120.692954 188.887785 121.592312 189.260311 122.529947 189.260311 
z
" style="fill:none;stroke:#e377c2;"/>
   </g>
   <g id="PathCollection_7">
    <path clip-path="url(#p72bf0053c1)" d="M 129.492513 187.397361 
C 130.430148 187.397361 131.329506 187.024834 131.992513 186.361827 
C 132.655521 185.698819 133.028047 184.799461 133.028047 183.861827 
C 133.028047 182.924192 132.655521 182.024834 131.992513 181.361827 
C 131.329506 180.698819 130.430148 180.326293 129.492513 180.326293 
C 128.554879 180.326293 127.655521 180.698819 126.992513 181.361827 
C 126.329506 182.024834 125.956979 182.924192 125.956979 183.861827 
C 125.956979 184.799461 126.329506 185.698819 126.992513 186.361827 
C 127.655521 187.024834 128.554879 187.397361 129.492513 187.397361 
z
" style="fill:none;stroke:#e377c2;"/>
   </g>
   <g id="PathCollection_8">
    <path clip-path="url(#p72bf0053c1)" d="M 136.45508 185.185358 
C 137.392715 185.185358 138.292072 184.812832 138.95508 184.149824 
C 139.618088 183.486817 139.990614 182.587459 139.990614 181.649824 
C 139.990614 180.71219 139.618088 179.812832 138.95508 179.149824 
C 138.292072 178.486817 137.392715 178.11429 136.45508 178.11429 
C 135.517446 178.11429 134.618088 178.486817 133.95508 179.149824 
C 133.292072 179.812832 132.919546 180.71219 132.919546 181.649824 
C 132.919546 182.587459 133.292072 183.486817 133.95508 184.149824 
C 134.618088 184.812832 135.517446 185.185358 136.45508 185.185358 
z
" style="fill:none;stroke:#e377c2;"/>
   </g>
   <g id="PathCollection_9">
    <path clip-path="url(#p72bf0053c1)" d="M 143.417647 182.666204 
C 144.355282 182.666204 145.254639 182.293678 145.917647 181.63067 
C 146.580655 180.967662 146.953181 180.068305 146.953181 179.13067 
C 146.953181 178.193036 146.580655 177.293678 145.917647 176.63067 
C 145.254639 175.967662 144.355282 175.595136 143.417647 175.595136 
C 142.480013 175.595136 141.580655 175.967662 140.917647 176.63067 
C 140.254639 177.293678 139.882113 178.193036 139.882113 179.13067 
C 139.882113 180.068305 140.254639 180.967662 140.917647 181.63067 
C 141.580655 182.293678 142.480013 182.666204 143.417647 182.666204 
z
" style="fill:none;stroke:#e377c2;"/>
   </g>
   <g id="PathCollection_10">
    <path clip-path="url(#p72bf0053c1)" d="M 150.380214 179.880632 
C 151.317848 179.880632 152.217206 179.508106 152.880214 178.845098 
C 153.543222 178.182091 153.915748 177.282733 153.915748 176.345098 
C 153.915748 175.407464 153.543222 174.508106 152.880214 173.845098 
C 152.217206 173.182091 151.317848 172.809564 150.380214 172.809564 
C 149.442579 172.809564 148.543222 173.182091 147.880214 173.845098 
C 147.217206 174.508106 146.84468 175.407464 146.84468 176.345098 
C 146.84468 177.282733 147.217206 178.182091 147.880214 178.845098 
C 148.543222 179.508106 149.442579 179.880632 150.380214 179.880632 
z
" style="fill:none;stroke:#e377c2;"/>
   </g>
   <g id="PathCollection_11">
    <path clip-path="url(#p72bf0053c1)" d="M 157.342781 176.866214 
C 158.280415 176.866214 159.179773 176.493687 159.842781 175.83068 
C 160.505788 175.167672 160.878315 174.268314 160.878315 173.33068 
C 160.878315 172.393045 160.505788 171.493687 159.842781 170.83068 
C 159.179773 170.167672 158.280415 169.795146 157.342781 169.795146 
C 156.405146 169.795146 155.505788 170.167672 154.842781 170.83068 
C 154.179773 171.493687 153.807247 172.393045 153.807247 173.33068 
C 153.807247 174.268314 154.179773 175.167672 154.842781 175.83068 
C 155.505788 176.493687 156.405146 176.866214 157.342781 176.866214 
z
" style="fill:none;stroke:#e377c2;"/>
   </g>
   <g id="PathCollection_12">
    <path clip-path="url(#p72bf0053c1)" d="M 164.305348 173.655896 
C 165.242982 173.655896 166.14234 173.28337 166.805348 172.620362 
C 167.468355 171.957354 167.840881 171.057997 167.840881 170.120362 
C 167.840881 169.182728 167.468355 168.28337 166.805348 167.620362 
C 166.14234 166.957354 165.242982 166.584828 164.305348 166.584828 
C 163.367713 166.584828 162.468355 166.957354 161.805348 167.620362 
C 161.14234 168.28337 160.769814 169.182728 160.769814 170.120362 
C 160.769814 171.057997 161.14234 171.957354 161.805348 172.620362 
C 162.468355 173.28337 163.367713 173.655896 164.305348 173.655896 
z
" style="fill:none;stroke:#e377c2;"/>
   </g>
   <g id="PathCollection_13">
    <path clip-path="url(#p72bf0053c1)" d="M 171.267914 170.277035 
C 172.205549 170.277035 173.104907 169.904509 173.767914 169.241501 
C 174.430922 168.578493 174.803448 167.679136 174.803448 166.741501 
C 174.803448 165.803867 174.430922 164.904509 173.767914 164.241501 
C 173.104907 163.578493 172.205549 163.205967 171.267914 163.205967 
C 170.33028 163.205967 169.430922 163.578493 168.767914 164.241501 
C 168.104907 164.904509 167.732381 165.803867 167.732381 166.741501 
C 167.732381 167.679136 168.104907 168.578493 168.767914 169.241501 
C 169.430922 169.904509 170.33028 170.277035 171.267914 170.277035 
z
" style="fill:none;stroke:#e377c2;"/>
   </g>
   <g id="PathCollection_14">
    <path clip-path="url(#p72bf0053c1)" d="M 178.230481 166.750873 
C 179.168116 166.750873 180.067474 166.378347 180.730481 165.715339 
C 181.393489 165.052332 181.766015 164.152974 181.766015 163.215339 
C 181.766015 162.277705 181.393489 161.378347 180.730481 160.715339 
C 180.067474 160.052332 179.168116 159.679805 178.230481 159.679805 
C 177.292847 159.679805 176.393489 160.052332 175.730481 160.715339 
C 175.067474 161.378347 174.694947 162.277705 174.694947 163.215339 
C 174.694947 164.152974 175.067474 165.052332 175.730481 165.715339 
C 176.393489 166.378347 177.292847 166.750873 178.230481 166.750873 
z
" style="fill:none;stroke:#e377c2;"/>
   </g>
   <g id="PathCollection_15">
    <path clip-path="url(#p72bf0053c1)" d="M 185.193048 163.092417 
C 186.130683 163.092417 187.03004 162.719891 187.693048 162.056883 
C 188.356056 161.393875 188.728582 160.494518 188.728582 159.556883 
C 188.728582 158.619249 188.356056 157.719891 187.693048 157.056883 
C 187.03004 156.393875 186.130683 156.021349 185.193048 156.021349 
C 184.255414 156.021349 183.356056 156.393875 182.693048 157.056883 
C 182.03004 157.719891 181.657514 158.619249 181.657514 159.556883 
C 181.657514 160.494518 182.03004 161.393875 182.693048 162.056883 
C 183.356056 162.719891 184.255414 163.092417 185.193048 163.092417 
z
" style="fill:none;stroke:#e377c2;"/>
   </g>
   <g id="PathCollection_16">
    <path clip-path="url(#p72bf0053c1)" d="M 192.155615 159.310672 
C 193.09325 159.310672 193.992607 158.938146 194.655615 158.275138 
C 195.318623 157.61213 195.691149 156.712772 195.691149 155.775138 
C 195.691149 154.837503 195.318623 153.938146 194.655615 153.275138 
C 193.992607 152.61213 193.09325 152.239604 192.155615 152.239604 
C 191.21798 152.239604 190.318623 152.61213 189.655615 153.275138 
C 188.992607 153.938146 188.620081 154.837503 188.620081 155.775138 
C 188.620081 156.712772 188.992607 157.61213 189.655615 158.275138 
C 190.318623 158.938146 191.21798 159.310672 192.155615 159.310672 
z
" style="fill:none;stroke:#e377c2;"/>
   </g>
   <g id="PathCollection_17">
    <path clip-path="url(#p72bf0053c1)" d="M 199.118182 155.409184 
C 200.055816 155.409184 200.955174 155.036658 201.618182 154.37365 
C 202.28119 153.710643 202.653716 152.811285 202.653716 151.87365 
C 202.653716 150.936016 202.28119 150.036658 201.618182 149.37365 
C 200.955174 148.710643 200.055816 148.338117 199.118182 148.338117 
C 198.180547 148.338117 197.28119 148.710643 196.618182 149.37365 
C 195.955174 150.036658 195.582648 150.936016 195.582648 151.87365 
C 195.582648 152.811285 195.955174 153.710643 196.618182 154.37365 
C 197.28119 155.036658 198.180547 155.409184 199.118182 155.409184 
z
" style="fill:none;stroke:#e377c2;"/>
   </g>
   <g id="PathCollection_18">
    <path clip-path="url(#p72bf0053c1)" d="M 206.080749 151.38685 
C 207.018383 151.38685 207.917741 151.014324 208.580749 150.351316 
C 209.243756 149.688309 209.616283 148.788951 209.616283 147.851316 
C 209.616283 146.913682 209.243756 146.014324 208.580749 145.351316 
C 207.917741 144.688309 207.018383 144.315783 206.080749 144.315783 
C 205.143114 144.315783 204.243756 144.688309 203.580749 145.351316 
C 202.917741 146.014324 202.545215 146.913682 202.545215 147.851316 
C 202.545215 148.788951 202.917741 149.688309 203.580749 150.351316 
C 204.243756 151.014324 205.143114 151.38685 206.080749 151.38685 
z
" style="fill:none;stroke:#e377c2;"/>
   </g>
   <g id="PathCollection_19">
    <path clip-path="url(#p72bf0053c1)" d="M 213.043316 147.238942 
C 213.98095 147.238942 214.880308 146.866416 215.543316 146.203408 
C 216.206323 145.5404 216.578849 144.641043 216.578849 143.703408 
C 216.578849 142.765773 216.206323 141.866416 215.543316 141.203408 
C 214.880308 140.5404 213.98095 140.167874 213.043316 140.167874 
C 212.105681 140.167874 211.206323 140.5404 210.543316 141.203408 
C 209.880308 141.866416 209.507782 142.765773 209.507782 143.703408 
C 209.507782 144.641043 209.880308 145.5404 210.543316 146.203408 
C 211.206323 146.866416 212.105681 147.238942 213.043316 147.238942 
z
" style="fill:none;stroke:#e377c2;"/>
   </g>
   <g id="PathCollection_20">
    <path clip-path="url(#p72bf0053c1)" d="M 220.005882 142.958305 
C 220.943517 142.958305 221.842875 142.585779 222.505882 141.922771 
C 223.16889 141.259764 223.541416 140.360406 223.541416 139.422771 
C 223.541416 138.485137 223.16889 137.585779 222.505882 136.922771 
C 221.842875 136.259764 220.943517 135.887237 220.005882 135.887237 
C 219.068248 135.887237 218.16889 136.259764 217.505882 136.922771 
C 216.842875 137.585779 216.470348 138.485137 216.470348 139.422771 
C 216.470348 140.360406 216.842875 141.259764 217.505882 141.922771 
C 218.16889 142.585779 219.068248 142.958305 220.005882 142.958305 
z
" style="fill:none;stroke:#e377c2;"/>
   </g>
   <g id="PathCollection_21">
    <path clip-path="url(#p72bf0053c1)" d="M 226.968449 138.53669 
C 227.906084 138.53669 228.805441 138.164164 229.468449 137.501156 
C 230.131457 136.838148 230.503983 135.938791 230.503983 135.001156 
C 230.503983 134.063522 230.131457 133.164164 229.468449 132.501156 
C 228.805441 131.838148 227.906084 131.465622 226.968449 131.465622 
C 226.030815 131.465622 225.131457 131.838148 224.468449 132.501156 
C 223.805441 133.164164 223.432915 134.063522 223.432915 135.001156 
C 223.432915 135.938791 223.805441 136.838148 224.468449 137.501156 
C 225.131457 138.164164 226.030815 138.53669 226.968449 138.53669 
z
" style="fill:none;stroke:#e377c2;"/>
   </g>
   <g id="PathCollection_22">
    <path clip-path="url(#p72bf0053c1)" d="M 233.931016 133.966158 
C 234.868651 133.966158 235.768008 133.593632 236.431016 132.930624 
C 237.094024 132.267617 237.46655 131.368259 237.46655 130.430624 
C 237.46655 129.49299 237.094024 128.593632 236.431016 127.930624 
C 235.768008 127.267617 234.868651 126.89509 233.931016 126.89509 
C 232.993381 126.89509 232.094024 127.267617 231.431016 127.930624 
C 230.768008 128.593632 230.395482 129.49299 230.395482 130.430624 
C 230.395482 131.368259 230.768008 132.267617 231.431016 132.930624 
C 232.094024 133.593632 232.993381 133.966158 233.931016 133.966158 
z
" style="fill:none;stroke:#e377c2;"/>
   </g>
   <g id="PathCollection_23">
    <path clip-path="url(#p72bf0053c1)" d="M 240.893583 129.24053 
C 241.831217 129.24053 242.730575 128.868004 243.393583 128.204996 
C 244.056591 127.541988 244.429117 126.642631 244.429117 125.704996 
C 244.429117 124.767362 244.056591 123.868004 243.393583 123.204996 
C 242.730575 122.541988 241.831217 122.169462 240.893583 122.169462 
C 239.955948 122.169462 239.056591 122.541988 238.393583 123.204996 
C 237.730575 123.868004 237.358049 124.767362 237.358049 125.704996 
C 237.358049 126.642631 237.730575 127.541988 238.393583 128.204996 
C 239.056591 128.868004 239.955948 129.24053 240.893583 129.24053 
z
" style="fill:none;stroke:#e377c2;"/>
   </g>
   <g id="PathCollection_24">
    <path clip-path="url(#p72bf0053c1)" d="M 247.85615 124.356824 
C 248.793784 124.356824 249.693142 123.984298 250.35615 123.32129 
C 251.019157 122.658282 251.391684 121.758925 251.391684 120.82129 
C 251.391684 119.883656 251.019157 118.984298 250.35615 118.32129 
C 249.693142 117.658282 248.793784 117.285756 247.85615 117.285756 
C 246.918515 117.285756 246.019157 117.658282 245.35615 118.32129 
C 244.693142 118.984298 244.320616 119.883656 244.320616 120.82129 
C 244.320616 121.758925 244.693142 122.658282 245.35615 123.32129 
C 246.019157 123.984298 246.918515 124.356824 247.85615 124.356824 
z
" style="fill:none;stroke:#e377c2;"/>
   </g>
   <g id="PathCollection_25">
    <path clip-path="url(#p72bf0053c1)" d="M 254.818717 119.316639 
C 255.756351 119.316639 256.655709 118.944113 257.318717 118.281105 
C 257.981724 117.618097 258.35425 116.718739 258.35425 115.781105 
C 258.35425 114.84347 257.981724 113.944113 257.318717 113.281105 
C 256.655709 112.618097 255.756351 112.245571 254.818717 112.245571 
C 253.881082 112.245571 252.981724 112.618097 252.318717 113.281105 
C 251.655709 113.944113 251.283183 114.84347 251.283183 115.781105 
C 251.283183 116.718739 251.655709 117.618097 252.318717 118.281105 
C 252.981724 118.944113 253.881082 119.316639 254.818717 119.316639 
z
" style="fill:none;stroke:#e377c2;"/>
   </g>
   <g id="PathCollection_26">
    <path clip-path="url(#p72bf0053c1)" d="M 261.781283 114.127438 
C 262.718918 114.127438 263.618276 113.754912 264.281283 113.091904 
C 264.944291 112.428896 265.316817 111.529539 265.316817 110.591904 
C 265.316817 109.65427 264.944291 108.754912 264.281283 108.091904 
C 263.618276 107.428896 262.718918 107.05637 261.781283 107.05637 
C 260.843649 107.05637 259.944291 107.428896 259.281283 108.091904 
C 258.618276 108.754912 258.24575 109.65427 258.24575 110.591904 
C 258.24575 111.529539 258.618276 112.428896 259.281283 113.091904 
C 259.944291 113.754912 260.843649 114.127438 261.781283 114.127438 
z
" style="fill:none;stroke:#e377c2;"/>
   </g>
   <g id="PathCollection_27">
    <path clip-path="url(#p72bf0053c1)" d="M 268.74385 108.80369 
C 269.681485 108.80369 270.580843 108.431164 271.24385 107.768157 
C 271.906858 107.105149 272.279384 106.205791 272.279384 105.268157 
C 272.279384 104.330522 271.906858 103.431164 271.24385 102.768157 
C 270.580843 102.105149 269.681485 101.732623 268.74385 101.732623 
C 267.806216 101.732623 266.906858 102.105149 266.24385 102.768157 
C 265.580843 103.431164 265.208316 104.330522 265.208316 105.268157 
C 265.208316 106.205791 265.580843 107.105149 266.24385 107.768157 
C 266.906858 108.431164 267.806216 108.80369 268.74385 108.80369 
z
" style="fill:none;stroke:#e377c2;"/>
   </g>
   <g id="PathCollection_28">
    <path clip-path="url(#p72bf0053c1)" d="M 275.706417 103.367818 
C 276.644052 103.367818 277.543409 102.995292 278.206417 102.332284 
C 278.869425 101.669277 279.241951 100.769919 279.241951 99.832284 
C 279.241951 98.89465 278.869425 97.995292 278.206417 97.332284 
C 277.543409 96.669277 276.644052 96.29675 275.706417 96.29675 
C 274.768783 96.29675 273.869425 96.669277 273.206417 97.332284 
C 272.543409 97.995292 272.170883 98.89465 272.170883 99.832284 
C 272.170883 100.769919 272.543409 101.669277 273.206417 102.332284 
C 273.869425 102.995292 274.768783 103.367818 275.706417 103.367818 
z
" style="fill:none;stroke:#e377c2;"/>
   </g>
   <g id="PathCollection_29">
    <path clip-path="url(#p72bf0053c1)" d="M 282.668984 97.850909 
C 283.606619 97.850909 284.505976 97.478383 285.168984 96.815375 
C 285.831992 96.152367 286.204518 95.25301 286.204518 94.315375 
C 286.204518 93.37774 285.831992 92.478383 285.168984 91.815375 
C 284.505976 91.152367 283.606619 90.779841 282.668984 90.779841 
C 281.731349 90.779841 280.831992 91.152367 280.168984 91.815375 
C 279.505976 92.478383 279.13345 93.37774 279.13345 94.315375 
C 279.13345 95.25301 279.505976 96.152367 280.168984 96.815375 
C 280.831992 97.478383 281.731349 97.850909 282.668984 97.850909 
z
" style="fill:none;stroke:#e377c2;"/>
   </g>
   <g id="PathCollection_30">
    <path clip-path="url(#p72bf0053c1)" d="M 289.631551 92.293148 
C 290.569185 92.293148 291.468543 91.920622 292.131551 91.257614 
C 292.794559 90.594606 293.167085 89.695248 293.167085 88.757614 
C 293.167085 87.819979 292.794559 86.920622 292.131551 86.257614 
C 291.468543 85.594606 290.569185 85.22208 289.631551 85.22208 
C 288.693916 85.22208 287.794559 85.594606 287.131551 86.257614 
C 286.468543 86.920622 286.096017 87.819979 286.096017 88.757614 
C 286.096017 89.695248 286.468543 90.594606 287.131551 91.257614 
C 287.794559 91.920622 288.693916 92.293148 289.631551 92.293148 
z
" style="fill:none;stroke:#e377c2;"/>
   </g>
   <g id="PathCollection_31">
    <path clip-path="url(#p72bf0053c1)" d="M 296.594118 86.743922 
C 297.531752 86.743922 298.43111 86.371396 299.094118 85.708388 
C 299.757125 85.04538 300.129652 84.146023 300.129652 83.208388 
C 300.129652 82.270754 299.757125 81.371396 299.094118 80.708388 
C 298.43111 80.04538 297.531752 79.672854 296.594118 79.672854 
C 295.656483 79.672854 294.757125 80.04538 294.094118 80.708388 
C 293.43111 81.371396 293.058584 82.270754 293.058584 83.208388 
C 293.058584 84.146023 293.43111 85.04538 294.094118 85.708388 
C 294.757125 86.371396 295.656483 86.743922 296.594118 86.743922 
z
" style="fill:none;stroke:#e377c2;"/>
   </g>
   <g id="PathCollection_32">
    <path clip-path="url(#p72bf0053c1)" d="M 303.556684 81.261552 
C 304.494319 81.261552 305.393677 80.889026 306.056684 80.226018 
C 306.719692 79.56301 307.092218 78.663652 307.092218 77.726018 
C 307.092218 76.788383 306.719692 75.889026 306.056684 75.226018 
C 305.393677 74.56301 304.494319 74.190484 303.556684 74.190484 
C 302.61905 74.190484 301.719692 74.56301 301.056684 75.226018 
C 300.393677 75.889026 300.021151 76.788383 300.021151 77.726018 
C 300.021151 78.663652 300.393677 79.56301 301.056684 80.226018 
C 301.719692 80.889026 302.61905 81.261552 303.556684 81.261552 
z
" style="fill:none;stroke:#e377c2;"/>
   </g>
   <g id="PathCollection_33">
    <path clip-path="url(#p72bf0053c1)" d="M 310.519251 75.912605 
C 311.456886 75.912605 312.356244 75.540079 313.019251 74.877072 
C 313.682259 74.214064 314.054785 73.314706 314.054785 72.377072 
C 314.054785 71.439437 313.682259 70.540079 313.019251 69.877072 
C 312.356244 69.214064 311.456886 68.841538 310.519251 68.841538 
C 309.581617 68.841538 308.682259 69.214064 308.019251 69.877072 
C 307.356244 70.540079 306.983717 71.439437 306.983717 72.377072 
C 306.983717 73.314706 307.356244 74.214064 308.019251 74.877072 
C 308.682259 75.540079 309.581617 75.912605 310.519251 75.912605 
z
" style="fill:none;stroke:#e377c2;"/>
   </g>
   <g id="PathCollection_34">
    <path clip-path="url(#p72bf0053c1)" d="M 317.481818 70.770749 
C 318.419453 70.770749 319.31881 70.398223 319.981818 69.735215 
C 320.644826 69.072208 321.017352 68.17285 321.017352 67.235215 
C 321.017352 66.297581 320.644826 65.398223 319.981818 64.735215 
C 319.31881 64.072208 318.419453 63.699681 317.481818 63.699681 
C 316.544184 63.699681 315.644826 64.072208 314.981818 64.735215 
C 314.31881 65.398223 313.946284 66.297581 313.946284 67.235215 
C 313.946284 68.17285 314.31881 69.072208 314.981818 69.735215 
C 315.644826 70.398223 316.544184 70.770749 317.481818 70.770749 
z
" style="fill:none;stroke:#e377c2;"/>
   </g>
   <g id="PathCollection_35">
    <path clip-path="url(#p72bf0053c1)" d="M 324.444385 65.915088 
C 325.38202 65.915088 326.281377 65.542562 326.944385 64.879555 
C 327.607393 64.216547 327.979919 63.317189 327.979919 62.379555 
C 327.979919 61.44192 327.607393 60.542562 326.944385 59.879555 
C 326.281377 59.216547 325.38202 58.844021 324.444385 58.844021 
C 323.50675 58.844021 322.607393 59.216547 321.944385 59.879555 
C 321.281377 60.542562 320.908851 61.44192 320.908851 62.379555 
C 320.908851 63.317189 321.281377 64.216547 321.944385 64.879555 
C 322.607393 65.542562 323.50675 65.915088 324.444385 65.915088 
z
" style="fill:none;stroke:#e377c2;"/>
   </g>
   <g id="PathCollection_36">
    <path clip-path="url(#p72bf0053c1)" d="M 331.406952 61.427957 
C 332.344586 61.427957 333.243944 61.055431 333.906952 60.392423 
C 334.56996 59.729416 334.942486 58.830058 334.942486 57.892423 
C 334.942486 56.954789 334.56996 56.055431 333.906952 55.392423 
C 333.243944 54.729416 332.344586 54.356889 331.406952 54.356889 
C 330.469317 54.356889 329.56996 54.729416 328.906952 55.392423 
C 328.243944 56.055431 327.871418 56.954789 327.871418 57.892423 
C 327.871418 58.830058 328.243944 59.729416 328.906952 60.392423 
C 329.56996 61.055431 330.469317 61.427957 331.406952 61.427957 
z
" style="fill:none;stroke:#e377c2;"/>
   </g>
   <g id="PathCollection_37">
    <path clip-path="url(#p72bf0053c1)" d="M 338.369519 57.392104 
C 339.307153 57.392104 340.206511 57.019578 340.869519 56.35657 
C 341.532526 55.693562 341.905053 54.794205 341.905053 53.85657 
C 341.905053 52.918936 341.532526 52.019578 340.869519 51.35657 
C 340.206511 50.693562 339.307153 50.321036 338.369519 50.321036 
C 337.431884 50.321036 336.532526 50.693562 335.869519 51.35657 
C 335.206511 52.019578 334.833985 52.918936 334.833985 53.85657 
C 334.833985 54.794205 335.206511 55.693562 335.869519 56.35657 
C 336.532526 57.019578 337.431884 57.392104 338.369519 57.392104 
z
" style="fill:none;stroke:#e377c2;"/>
   </g>
   <g id="PathCollection_38">
    <path clip-path="url(#p72bf0053c1)" d="M 345.332086 53.887234 
C 346.26972 53.887234 347.169078 53.514707 347.832086 52.8517 
C 348.495093 52.188692 348.867619 51.289334 348.867619 50.3517 
C 348.867619 49.414065 348.495093 48.514707 347.832086 47.8517 
C 347.169078 47.188692 346.26972 46.816166 345.332086 46.816166 
C 344.394451 46.816166 343.495093 47.188692 342.832086 47.8517 
C 342.169078 48.514707 341.796552 49.414065 341.796552 50.3517 
C 341.796552 51.289334 342.169078 52.188692 342.832086 52.8517 
C 343.495093 53.514707 344.394451 53.887234 345.332086 53.887234 
z
" style="fill:none;stroke:#e377c2;"/>
   </g>
   <g id="PathCollection_39">
    <path clip-path="url(#p72bf0053c1)" d="M 352.294652 50.985862 
C 353.232287 50.985862 354.131645 50.613336 354.794652 49.950328 
C 355.45766 49.28732 355.830186 48.387962 355.830186 47.450328 
C 355.830186 46.512693 355.45766 45.613336 354.794652 44.950328 
C 354.131645 44.28732 353.232287 43.914794 352.294652 43.914794 
C 351.357018 43.914794 350.45766 44.28732 349.794652 44.950328 
C 349.131645 45.613336 348.759119 46.512693 348.759119 47.450328 
C 348.759119 48.387962 349.131645 49.28732 349.794652 49.950328 
C 350.45766 50.613336 351.357018 50.985862 352.294652 50.985862 
z
" style="fill:none;stroke:#e377c2;"/>
   </g>
   <g id="PathCollection_40">
    <path clip-path="url(#p72bf0053c1)" d="M 359.257219 48.748426 
C 360.194854 48.748426 361.094212 48.3759 361.757219 47.712892 
C 362.420227 47.049884 362.792753 46.150527 362.792753 45.212892 
C 362.792753 44.275258 362.420227 43.3759 361.757219 42.712892 
C 361.094212 42.049884 360.194854 41.677358 359.257219 41.677358 
C 358.319585 41.677358 357.420227 42.049884 356.757219 42.712892 
C 356.094212 43.3759 355.721685 44.275258 355.721685 45.212892 
C 355.721685 46.150527 356.094212 47.049884 356.757219 47.712892 
C 357.420227 48.3759 358.319585 48.748426 359.257219 48.748426 
z
" style="fill:none;stroke:#e377c2;"/>
   </g>
   <g id="PathCollection_41">
    <path clip-path="url(#p72bf0053c1)" d="M 366.219786 47.217623 
C 367.157421 47.217623 368.056778 46.845097 368.719786 46.182089 
C 369.382794 45.519082 369.75532 44.619724 369.75532 43.682089 
C 369.75532 42.744455 369.382794 41.845097 368.719786 41.182089 
C 368.056778 40.519082 367.157421 40.146556 366.219786 40.146556 
C 365.282152 40.146556 364.382794 40.519082 363.719786 41.182089 
C 363.056778 41.845097 362.684252 42.744455 362.684252 43.682089 
C 362.684252 44.619724 363.056778 45.519082 363.719786 46.182089 
C 364.382794 46.845097 365.282152 47.217623 366.219786 47.217623 
z
" style="fill:none;stroke:#e377c2;"/>
   </g>
   <g id="PathCollection_42">
    <path clip-path="url(#p72bf0053c1)" d="M 373.182353 46.411914 
C 374.119987 46.411914 375.019345 46.039388 375.682353 45.37638 
C 376.345361 44.713372 376.717887 43.814015 376.717887 42.87638 
C 376.717887 41.938745 376.345361 41.039388 375.682353 40.37638 
C 375.019345 39.713372 374.119987 39.340846 373.182353 39.340846 
C 372.244718 39.340846 371.345361 39.713372 370.682353 40.37638 
C 370.019345 41.039388 369.646819 41.938745 369.646819 42.87638 
C 369.646819 43.814015 370.019345 44.713372 370.682353 45.37638 
C 371.345361 46.039388 372.244718 46.411914 373.182353 46.411914 
z
" style="fill:none;stroke:#e377c2;"/>
   </g>
   <g id="PathCollection_43">
    <path clip-path="url(#p72bf0053c1)" d="M 380.14492 46.318157 
C 381.082554 46.318157 381.981912 45.945631 382.64492 45.282623 
C 383.307928 44.619615 383.680454 43.720258 383.680454 42.782623 
C 383.680454 41.844988 383.307928 40.945631 382.64492 40.282623 
C 381.981912 39.619615 381.082554 39.247089 380.14492 39.247089 
C 379.207285 39.247089 378.307928 39.619615 377.64492 40.282623 
C 376.981912 40.945631 376.609386 41.844988 376.609386 42.782623 
C 376.609386 43.720258 376.981912 44.619615 377.64492 45.282623 
C 378.307928 45.945631 379.207285 46.318157 380.14492 46.318157 
z
" style="fill:none;stroke:#e377c2;"/>
   </g>
   <g id="PathCollection_44">
    <path clip-path="url(#p72bf0053c1)" d="M 387.107487 46.883324 
C 388.045121 46.883324 388.944479 46.510798 389.607487 45.84779 
C 390.270494 45.184783 390.643021 44.285425 390.643021 43.34779 
C 390.643021 42.410156 390.270494 41.510798 389.607487 40.84779 
C 388.944479 40.184783 388.045121 39.812257 387.107487 39.812257 
C 386.169852 39.812257 385.270494 40.184783 384.607487 40.84779 
C 383.944479 41.510798 383.571953 42.410156 383.571953 43.34779 
C 383.571953 44.285425 383.944479 45.184783 384.607487 45.84779 
C 385.270494 46.510798 386.169852 46.883324 387.107487 46.883324 
z
" style="fill:none;stroke:#e377c2;"/>
   </g>
   <g id="PathCollection_45">
    <path clip-path="url(#p72bf0053c1)" d="M 394.070053 48.005254 
C 395.007688 48.005254 395.907046 47.632728 396.570053 46.96972 
C 397.233061 46.306712 397.605587 45.407354 397.605587 44.46972 
C 397.605587 43.532085 397.233061 42.632728 396.570053 41.96972 
C 395.907046 41.306712 395.007688 40.934186 394.070053 40.934186 
C 393.132419 40.934186 392.233061 41.306712 391.570053 41.96972 
C 390.907046 42.632728 390.53452 43.532085 390.53452 44.46972 
C 390.53452 45.407354 390.907046 46.306712 391.570053 46.96972 
C 392.233061 47.632728 393.132419 48.005254 394.070053 48.005254 
z
" style="fill:none;stroke:#e377c2;"/>
   </g>
   <g id="PathCollection_46">
    <path clip-path="url(#p72bf0053c1)" d="M 401.03262 49.522392 
C 401.970255 49.522392 402.869613 49.149866 403.53262 48.486858 
C 404.195628 47.82385 404.568154 46.924493 404.568154 45.986858 
C 404.568154 45.049223 404.195628 44.149866 403.53262 43.486858 
C 402.869613 42.82385 401.970255 42.451324 401.03262 42.451324 
C 400.094986 42.451324 399.195628 42.82385 398.53262 43.486858 
C 397.869613 44.149866 397.497086 45.049223 397.497086 45.986858 
C 397.497086 46.924493 397.869613 47.82385 398.53262 48.486858 
C 399.195628 49.149866 400.094986 49.522392 401.03262 49.522392 
z
" style="fill:none;stroke:#e377c2;"/>
   </g>
   <g id="PathCollection_47">
    <path clip-path="url(#p72bf0053c1)" d="M 407.995187 51.202481 
C 408.932822 51.202481 409.832179 50.829955 410.495187 50.166947 
C 411.158195 49.50394 411.530721 48.604582 411.530721 47.666947 
C 411.530721 46.729313 411.158195 45.829955 410.495187 45.166947 
C 409.832179 44.50394 408.932822 44.131413 407.995187 44.131413 
C 407.057553 44.131413 406.158195 44.50394 405.495187 45.166947 
C 404.832179 45.829955 404.459653 46.729313 404.459653 47.666947 
C 404.459653 48.604582 404.832179 49.50394 405.495187 50.166947 
C 406.158195 50.829955 407.057553 51.202481 407.995187 51.202481 
z
" style="fill:none;stroke:#e377c2;"/>
   </g>
   <g id="PathCollection_48">
    <path clip-path="url(#p72bf0053c1)" d="M 414.957754 52.73015 
C 415.895389 52.73015 416.794746 52.357624 417.457754 51.694616 
C 418.120762 51.031609 418.493288 50.132251 418.493288 49.194616 
C 418.493288 48.256982 418.120762 47.357624 417.457754 46.694616 
C 416.794746 46.031609 415.895389 45.659083 414.957754 45.659083 
C 414.020119 45.659083 413.120762 46.031609 412.457754 46.694616 
C 411.794746 47.357624 411.42222 48.256982 411.42222 49.194616 
C 411.42222 50.132251 411.794746 51.031609 412.457754 51.694616 
C 413.120762 52.357624 414.020119 52.73015 414.957754 52.73015 
z
" style="fill:none;stroke:#e377c2;"/>
   </g>
   <g id="PathCollection_49">
    <path clip-path="url(#p72bf0053c1)" d="M 421.920321 53.693356 
C 422.857955 53.693356 423.757313 53.32083 424.420321 52.657822 
C 425.083329 51.994814 425.455855 51.095456 425.455855 50.157822 
C 425.455855 49.220187 425.083329 48.32083 424.420321 47.657822 
C 423.757313 46.994814 422.857955 46.622288 421.920321 46.622288 
C 420.982686 46.622288 420.083329 46.994814 419.420321 47.657822 
C 418.757313 48.32083 418.384787 49.220187 418.384787 50.157822 
C 418.384787 51.095456 418.757313 51.994814 419.420321 52.657822 
C 420.083329 53.32083 420.982686 53.693356 421.920321 53.693356 
z
" style="fill:none;stroke:#e377c2;"/>
   </g>
   <g id="PathCollection_50">
    <path clip-path="url(#p72bf0053c1)" d="M 428.882888 53.568633 
C 429.820522 53.568633 430.71988 53.196107 431.382888 52.533099 
C 432.045895 51.870091 432.418422 50.970733 432.418422 50.033099 
C 432.418422 49.095464 432.045895 48.196107 431.382888 47.533099 
C 430.71988 46.870091 429.820522 46.497565 428.882888 46.497565 
C 427.945253 46.497565 427.045895 46.870091 426.382888 47.533099 
C 425.71988 48.196107 425.347354 49.095464 425.347354 50.033099 
C 425.347354 50.970733 425.71988 51.870091 426.382888 52.533099 
C 427.045895 53.196107 427.945253 53.568633 428.882888 53.568633 
z
" style="fill:none;stroke:#e377c2;"/>
   </g>
   <g id="PathCollection_51">
    <path clip-path="url(#p72bf0053c1)" d="M 435.845455 51.705112 
C 436.783089 51.705112 437.682447 51.332586 438.345455 50.669578 
C 439.008462 50.006571 439.380988 49.107213 439.380988 48.169578 
C 439.380988 47.231944 439.008462 46.332586 438.345455 45.669578 
C 437.682447 45.006571 436.783089 44.634045 435.845455 44.634045 
C 434.90782 44.634045 434.008462 45.006571 433.345455 45.669578 
C 432.682447 46.332586 432.309921 47.231944 432.309921 48.169578 
C 432.309921 49.107213 432.682447 50.006571 433.345455 50.669578 
C 434.008462 51.332586 434.90782 51.705112 435.845455 51.705112 
z
" style="fill:none;stroke:#e377c2;"/>
   </g>
   <g id="PathCollection_52">
    <defs>
     <path d="M 0 3.535534 
C 0.937635 3.535534 1.836992 3.163008 2.5 2.5 
C 3.163008 1.836992 3.535534 0.937635 3.535534 0 
C 3.535534 -0.937635 3.163008 -1.836992 2.5 -2.5 
C 1.836992 -3.163008 0.937635 -3.535534 0 -3.535534 
C -0.937635 -3.535534 -1.836992 -3.163008 -2.5 -2.5 
C -3.163008 -1.836992 -3.535534 -0.937635 -3.535534 0 
C -3.535534 0.937635 -3.163008 1.836992 -2.5 2.5 
C -1.836992 3.163008 -0.937635 3.535534 0 3.535534 
z
" id="m93cd407a9d" style="stroke:#e377c2;"/>
    </defs>
    <g clip-path="url(#p72bf0053c1)">
     <use style="fill:#e377c2;stroke:#e377c2;" x="87.717112" xlink:href="#m93cd407a9d" y="188.25178"/>
    </g>
   </g>
   <g id="PathCollection_53">
    <g clip-path="url(#p72bf0053c1)">
     <use style="fill:#e377c2;stroke:#e377c2;" x="94.679679" xlink:href="#m93cd407a9d" y="187.874748"/>
    </g>
   </g>
   <g id="PathCollection_54">
    <g clip-path="url(#p72bf0053c1)">
     <use style="fill:#e377c2;stroke:#e377c2;" x="101.642246" xlink:href="#m93cd407a9d" y="187.218808"/>
    </g>
   </g>
   <g id="PathCollection_55">
    <g clip-path="url(#p72bf0053c1)">
     <use style="fill:#e377c2;stroke:#e377c2;" x="108.604813" xlink:href="#m93cd407a9d" y="186.239353"/>
    </g>
   </g>
   <g id="PathCollection_56">
    <g clip-path="url(#p72bf0053c1)">
     <use style="fill:#e377c2;stroke:#e377c2;" x="115.56738" xlink:href="#m93cd407a9d" y="184.920415"/>
    </g>
   </g>
   <g id="PathCollection_57">
    <g clip-path="url(#p72bf0053c1)">
     <use style="fill:#e377c2;stroke:#e377c2;" x="122.529947" xlink:href="#m93cd407a9d" y="183.261953"/>
    </g>
   </g>
   <g id="PathCollection_58">
    <g clip-path="url(#p72bf0053c1)">
     <use style="fill:#e377c2;stroke:#e377c2;" x="129.492513" xlink:href="#m93cd407a9d" y="181.276313"/>
    </g>
   </g>
   <g id="PathCollection_59">
    <g clip-path="url(#p72bf0053c1)">
     <use style="fill:#e377c2;stroke:#e377c2;" x="136.45508" xlink:href="#m93cd407a9d" y="178.984009"/>
    </g>
   </g>
   <g id="PathCollection_60">
    <g clip-path="url(#p72bf0053c1)">
     <use style="fill:#e377c2;stroke:#e377c2;" x="143.417647" xlink:href="#m93cd407a9d" y="176.410193"/>
    </g>
   </g>
   <g id="PathCollection_61">
    <g clip-path="url(#p72bf0053c1)">
     <use style="fill:#e377c2;stroke:#e377c2;" x="150.380214" xlink:href="#m93cd407a9d" y="173.581768"/>
    </g>
   </g>
   <g id="PathCollection_62">
    <g clip-path="url(#p72bf0053c1)">
     <use style="fill:#e377c2;stroke:#e377c2;" x="157.342781" xlink:href="#m93cd407a9d" y="170.525091"/>
    </g>
   </g>
   <g id="PathCollection_63">
    <g clip-path="url(#p72bf0053c1)">
     <use style="fill:#e377c2;stroke:#e377c2;" x="164.305348" xlink:href="#m93cd407a9d" y="167.264227"/>
    </g>
   </g>
   <g id="PathCollection_64">
    <g clip-path="url(#p72bf0053c1)">
     <use style="fill:#e377c2;stroke:#e377c2;" x="171.267914" xlink:href="#m93cd407a9d" y="163.81971"/>
    </g>
   </g>
   <g id="PathCollection_65">
    <g clip-path="url(#p72bf0053c1)">
     <use style="fill:#e377c2;stroke:#e377c2;" x="178.230481" xlink:href="#m93cd407a9d" y="160.207761"/>
    </g>
   </g>
   <g id="PathCollection_66">
    <g clip-path="url(#p72bf0053c1)">
     <use style="fill:#e377c2;stroke:#e377c2;" x="185.193048" xlink:href="#m93cd407a9d" y="156.439918"/>
    </g>
   </g>
   <g id="PathCollection_67">
    <g clip-path="url(#p72bf0053c1)">
     <use style="fill:#e377c2;stroke:#e377c2;" x="192.155615" xlink:href="#m93cd407a9d" y="152.523041"/>
    </g>
   </g>
   <g id="PathCollection_68">
    <g clip-path="url(#p72bf0053c1)">
     <use style="fill:#e377c2;stroke:#e377c2;" x="199.118182" xlink:href="#m93cd407a9d" y="148.459633"/>
    </g>
   </g>
   <g id="PathCollection_69">
    <g clip-path="url(#p72bf0053c1)">
     <use style="fill:#e377c2;stroke:#e377c2;" x="206.080749" xlink:href="#m93cd407a9d" y="144.248445"/>
    </g>
   </g>
   <g id="PathCollection_70">
    <g clip-path="url(#p72bf0053c1)">
     <use style="fill:#e377c2;stroke:#e377c2;" x="213.043316" xlink:href="#m93cd407a9d" y="139.885312"/>
    </g>
   </g>
   <g id="PathCollection_71">
    <g clip-path="url(#p72bf0053c1)">
     <use style="fill:#e377c2;stroke:#e377c2;" x="220.005882" xlink:href="#m93cd407a9d" y="135.36418"/>
    </g>
   </g>
   <g id="PathCollection_72">
    <g clip-path="url(#p72bf0053c1)">
     <use style="fill:#e377c2;stroke:#e377c2;" x="226.968449" xlink:href="#m93cd407a9d" y="130.67827"/>
    </g>
   </g>
   <g id="PathCollection_73">
    <g clip-path="url(#p72bf0053c1)">
     <use style="fill:#e377c2;stroke:#e377c2;" x="233.931016" xlink:href="#m93cd407a9d" y="125.821347"/>
    </g>
   </g>
   <g id="PathCollection_74">
    <g clip-path="url(#p72bf0053c1)">
     <use style="fill:#e377c2;stroke:#e377c2;" x="240.893583" xlink:href="#m93cd407a9d" y="120.789036"/>
    </g>
   </g>
   <g id="PathCollection_75">
    <g clip-path="url(#p72bf0053c1)">
     <use style="fill:#e377c2;stroke:#e377c2;" x="247.85615" xlink:href="#m93cd407a9d" y="115.580147"/>
    </g>
   </g>
   <g id="PathCollection_76">
    <g clip-path="url(#p72bf0053c1)">
     <use style="fill:#e377c2;stroke:#e377c2;" x="254.818717" xlink:href="#m93cd407a9d" y="110.197965"/>
    </g>
   </g>
   <g id="PathCollection_77">
    <g clip-path="url(#p72bf0053c1)">
     <use style="fill:#e377c2;stroke:#e377c2;" x="261.781283" xlink:href="#m93cd407a9d" y="104.651455"/>
    </g>
   </g>
   <g id="PathCollection_78">
    <g clip-path="url(#p72bf0053c1)">
     <use style="fill:#e377c2;stroke:#e377c2;" x="268.74385" xlink:href="#m93cd407a9d" y="98.956334"/>
    </g>
   </g>
   <g id="PathCollection_79">
    <g clip-path="url(#p72bf0053c1)">
     <use style="fill:#e377c2;stroke:#e377c2;" x="275.706417" xlink:href="#m93cd407a9d" y="93.135982"/>
    </g>
   </g>
   <g id="PathCollection_80">
    <g clip-path="url(#p72bf0053c1)">
     <use style="fill:#e377c2;stroke:#e377c2;" x="282.668984" xlink:href="#m93cd407a9d" y="87.22212"/>
    </g>
   </g>
   <g id="PathCollection_81">
    <g clip-path="url(#p72bf0053c1)">
     <use style="fill:#e377c2;stroke:#e377c2;" x="289.631551" xlink:href="#m93cd407a9d" y="81.255237"/>
    </g>
   </g>
   <g id="PathCollection_82">
    <g clip-path="url(#p72bf0053c1)">
     <use style="fill:#e377c2;stroke:#e377c2;" x="296.594118" xlink:href="#m93cd407a9d" y="75.284699"/>
    </g>
   </g>
   <g id="PathCollection_83">
    <g clip-path="url(#p72bf0053c1)">
     <use style="fill:#e377c2;stroke:#e377c2;" x="303.556684" xlink:href="#m93cd407a9d" y="69.368507"/>
    </g>
   </g>
   <g id="PathCollection_84">
    <g clip-path="url(#p72bf0053c1)">
     <use style="fill:#e377c2;stroke:#e377c2;" x="310.519251" xlink:href="#m93cd407a9d" y="63.57266"/>
    </g>
   </g>
   <g id="PathCollection_85">
    <g clip-path="url(#p72bf0053c1)">
     <use style="fill:#e377c2;stroke:#e377c2;" x="317.481818" xlink:href="#m93cd407a9d" y="57.970069"/>
    </g>
   </g>
   <g id="PathCollection_86">
    <g clip-path="url(#p72bf0053c1)">
     <use style="fill:#e377c2;stroke:#e377c2;" x="324.444385" xlink:href="#m93cd407a9d" y="52.63898"/>
    </g>
   </g>
   <g id="PathCollection_87">
    <g clip-path="url(#p72bf0053c1)">
     <use style="fill:#e377c2;stroke:#e377c2;" x="331.406952" xlink:href="#m93cd407a9d" y="47.660867"/>
    </g>
   </g>
   <g id="PathCollection_88">
    <g clip-path="url(#p72bf0053c1)">
     <use style="fill:#e377c2;stroke:#e377c2;" x="338.369519" xlink:href="#m93cd407a9d" y="43.117744"/>
    </g>
   </g>
   <g id="PathCollection_89">
    <g clip-path="url(#p72bf0053c1)">
     <use style="fill:#e377c2;stroke:#e377c2;" x="345.332086" xlink:href="#m93cd407a9d" y="39.088847"/>
    </g>
   </g>
   <g id="PathCollection_90">
    <g clip-path="url(#p72bf0053c1)">
     <use style="fill:#e377c2;stroke:#e377c2;" x="352.294652" xlink:href="#m93cd407a9d" y="35.646653"/>
    </g>
   </g>
   <g id="PathCollection_91">
    <g clip-path="url(#p72bf0053c1)">
     <use style="fill:#e377c2;stroke:#e377c2;" x="359.257219" xlink:href="#m93cd407a9d" y="32.852182"/>
    </g>
   </g>
   <g id="PathCollection_92">
    <g clip-path="url(#p72bf0053c1)">
     <use style="fill:#e377c2;stroke:#e377c2;" x="366.219786" xlink:href="#m93cd407a9d" y="30.749532"/>
    </g>
   </g>
   <g id="PathCollection_93">
    <g clip-path="url(#p72bf0053c1)">
     <use style="fill:#e377c2;stroke:#e377c2;" x="373.182353" xlink:href="#m93cd407a9d" y="29.359615"/>
    </g>
   </g>
   <g id="PathCollection_94">
    <g clip-path="url(#p72bf0053c1)">
     <use style="fill:#e377c2;stroke:#e377c2;" x="380.14492" xlink:href="#m93cd407a9d" y="28.67304"/>
    </g>
   </g>
   <g id="PathCollection_95">
    <g clip-path="url(#p72bf0053c1)">
     <use style="fill:#e377c2;stroke:#e377c2;" x="387.107487" xlink:href="#m93cd407a9d" y="28.642101"/>
    </g>
   </g>
   <g id="PathCollection_96">
    <g clip-path="url(#p72bf0053c1)">
     <use style="fill:#e377c2;stroke:#e377c2;" x="394.070053" xlink:href="#m93cd407a9d" y="29.171822"/>
    </g>
   </g>
   <g id="PathCollection_97">
    <g clip-path="url(#p72bf0053c1)">
     <use style="fill:#e377c2;stroke:#e377c2;" x="401.03262" xlink:href="#m93cd407a9d" y="30.110013"/>
    </g>
   </g>
   <g id="PathCollection_98">
    <g clip-path="url(#p72bf0053c1)">
     <use style="fill:#e377c2;stroke:#e377c2;" x="407.995187" xlink:href="#m93cd407a9d" y="31.236303"/>
    </g>
   </g>
   <g id="PathCollection_99">
    <g clip-path="url(#p72bf0053c1)">
     <use style="fill:#e377c2;stroke:#e377c2;" x="414.957754" xlink:href="#m93cd407a9d" y="32.250086"/>
    </g>
   </g>
   <g id="PathCollection_100">
    <g clip-path="url(#p72bf0053c1)">
     <use style="fill:#e377c2;stroke:#e377c2;" x="421.920321" xlink:href="#m93cd407a9d" y="32.75735"/>
    </g>
   </g>
   <g id="PathCollection_101">
    <g clip-path="url(#p72bf0053c1)">
     <use style="fill:#e377c2;stroke:#e377c2;" x="428.882888" xlink:href="#m93cd407a9d" y="32.256343"/>
    </g>
   </g>
   <g id="PathCollection_102">
    <g clip-path="url(#p72bf0053c1)">
     <use style="fill:#e377c2;stroke:#e377c2;" x="435.845455" xlink:href="#m93cd407a9d" y="30.122015"/>
    </g>
   </g>
   <g id="matplotlib.axis_1"/>
   <g id="matplotlib.axis_2"/>
   <g id="line2d_1">
    <path clip-path="url(#p72bf0053c1)" d="M 80.754545 189 
L 122.123797 188.889569 
L 125.982219 188.57982 
L 129.78262 188.050043 
L 133.699064 187.27815 
L 137.789572 186.243184 
L 142.083155 184.924719 
L 146.608824 183.299146 
L 151.395588 181.34016 
L 156.47246 179.019571 
L 161.926471 176.277797 
L 167.786631 173.078531 
L 174.139973 169.352681 
L 181.131551 164.989542 
L 188.935428 159.850844 
L 197.841711 153.712713 
L 208.488636 146.094438 
L 222.587834 135.713007 
L 268.917914 101.399861 
L 282.697995 91.586016 
L 294.795455 83.235147 
L 303.585695 77.425433 
L 311.099465 72.72217 
L 317.975 68.677674 
L 324.473396 65.110676 
L 330.710695 61.938316 
L 336.77393 59.101733 
L 342.721123 56.563159 
L 348.581283 54.301558 
L 354.412433 52.288727 
L 360.214572 50.520438 
L 366.016711 48.983753 
L 371.847861 47.668967 
L 377.737032 46.569638 
L 383.684225 45.686307 
L 389.718449 45.01563 
L 395.839706 44.558978 
L 402.106016 44.31526 
L 408.51738 44.289398 
L 415.102807 44.486127 
L 421.89131 44.912371 
L 428.911898 45.576889 
L 435.845455 46.441285 
L 435.845455 46.441285 
" style="fill:none;stroke:#e377c2;stroke-dasharray:11.1,4.8;stroke-dashoffset:0;stroke-width:3;"/>
   </g>
   <g id="line2d_2">
    <path clip-path="url(#p72bf0053c1)" d="M 80.754545 189 
L 121.920722 188.890318 
L 125.60508 188.584594 
L 129.231417 188.059857 
L 132.973797 187.290926 
L 136.86123 186.262375 
L 140.922727 184.955702 
L 145.187299 183.348559 
L 149.712968 181.401925 
L 154.499733 179.097597 
L 159.605615 176.389337 
L 165.088636 173.224818 
L 171.006818 169.547565 
L 177.447193 165.279451 
L 184.554813 160.297301 
L 192.561765 154.406004 
L 201.816176 147.311789 
L 213.130348 138.345571 
L 229.376337 125.158364 
L 261.375134 99.150067 
L 275.793449 87.754567 
L 288.529144 77.968296 
L 298.682888 70.424273 
L 306.573797 64.832177 
L 313.594385 60.125704 
L 320.092781 56.032997 
L 326.30107 52.383562 
L 332.277273 49.126424 
L 338.108422 46.200184 
L 343.823529 43.579584 
L 349.480615 41.229972 
L 355.079679 39.144804 
L 360.649733 37.306819 
L 366.219786 35.702227 
L 371.81885 34.320805 
L 377.446925 33.161307 
L 383.133021 32.217151 
L 388.877139 31.488394 
L 394.737299 30.969994 
L 400.684492 30.667337 
L 406.776738 30.580635 
L 413.014037 30.714871 
L 419.425401 31.075664 
L 426.03984 31.670942 
L 432.915374 32.514596 
L 435.845455 32.939904 
L 435.845455 32.939904 
" style="fill:none;stroke:#e377c2;stroke-linecap:square;stroke-width:3;"/>
   </g>
   <g id="patch_3">
    <path d="M 63 189 
L 63 25.92 
" style="fill:none;stroke:#000000;stroke-linecap:square;stroke-linejoin:miter;stroke-width:0.8;"/>
   </g>
   <g id="patch_4">
    <path d="M 453.6 189 
L 453.6 25.92 
" style="fill:none;stroke:#000000;stroke-linecap:square;stroke-linejoin:miter;stroke-width:0.8;"/>
   </g>
   <g id="patch_5">
    <path d="M 63 189 
L 453.6 189 
" style="fill:none;stroke:#000000;stroke-linecap:square;stroke-linejoin:miter;stroke-width:0.8;"/>
   </g>
   <g id="patch_6">
    <path d="M 63 25.92 
L 453.6 25.92 
" style="fill:none;stroke:#000000;stroke-linecap:square;stroke-linejoin:miter;stroke-width:0.8;"/>
   </g>
  </g>
 </g>
 <defs>
  <clipPath id="p72bf0053c1">
   <rect height="163.08" width="390.6" x="63" y="25.92"/>
  </clipPath>
 </defs>
</svg>
