<?xml version="1.0" encoding="utf-8" standalone="no"?>
<!DOCTYPE svg PUBLIC "-//W3C//DTD SVG 1.1//EN"
  "http://www.w3.org/Graphics/SVG/1.1/DTD/svg11.dtd">
<!-- Created with matplotlib (https://matplotlib.org/) -->
<svg height="216pt" version="1.1" viewBox="0 0 504 216" width="504pt" xmlns="http://www.w3.org/2000/svg" xmlns:xlink="http://www.w3.org/1999/xlink">
 <metadata>
  <rdf:RDF xmlns:cc="http://creativecommons.org/ns#" xmlns:dc="http://purl.org/dc/elements/1.1/" xmlns:rdf="http://www.w3.org/1999/02/22-rdf-syntax-ns#">
   <cc:Work>
    <dc:type rdf:resource="http://purl.org/dc/dcmitype/StillImage"/>
    <dc:date>2024-12-18T09:32:13.871770</dc:date>
    <dc:format>image/svg+xml</dc:format>
    <dc:creator>
     <cc:Agent>
      <dc:title>Matplotlib v3.3.2, https://matplotlib.org/</dc:title>
     </cc:Agent>
    </dc:creator>
   </cc:Work>
  </rdf:RDF>
 </metadata>
 <defs>
  <style type="text/css">*{stroke-linecap:butt;stroke-linejoin:round;}</style>
 </defs>
 <g id="figure_1">
  <g id="patch_1">
   <path d="M 0 216 
L 504 216 
L 504 0 
L 0 0 
z
" style="fill:none;"/>
  </g>
  <g id="axes_1">
   <g id="patch_2">
    <path d="M 63 189 
L 453.6 189 
L 453.6 25.92 
L 63 25.92 
z
" style="fill:#ffffff;"/>
   </g>
   <g id="PathCollection_1">
    <path clip-path="url(#p73d02d3778)" d="M 87.717112 191.436535 
C 88.654747 191.436535 89.554105 191.064009 90.217112 190.401001 
C 90.88012 189.737993 91.252646 188.838635 91.252646 187.901001 
C 91.252646 186.963366 90.88012 186.064009 90.217112 185.401001 
C 89.554105 184.737993 88.654747 184.365467 87.717112 184.365467 
C 86.779478 184.365467 85.88012 184.737993 85.217112 185.401001 
C 84.554105 186.064009 84.181578 186.963366 84.181578 187.901001 
C 84.181578 188.838635 84.554105 189.737993 85.217112 190.401001 
C 85.88012 191.064009 86.779478 191.436535 87.717112 191.436535 
z
" style="fill:none;stroke:#d8db8d;"/>
   </g>
   <g id="PathCollection_2">
    <path clip-path="url(#p73d02d3778)" d="M 94.679679 190.663376 
C 95.617314 190.663376 96.516671 190.290849 97.179679 189.627842 
C 97.842687 188.964834 98.215213 188.065476 98.215213 187.127842 
C 98.215213 186.190207 97.842687 185.290849 97.179679 184.627842 
C 96.516671 183.964834 95.617314 183.592308 94.679679 183.592308 
C 93.742045 183.592308 92.842687 183.964834 92.179679 184.627842 
C 91.516671 185.290849 91.144145 186.190207 91.144145 187.127842 
C 91.144145 188.065476 91.516671 188.964834 92.179679 189.627842 
C 92.842687 190.290849 93.742045 190.663376 94.679679 190.663376 
z
" style="fill:none;stroke:#d8db8d;"/>
   </g>
   <g id="PathCollection_3">
    <path clip-path="url(#p73d02d3778)" d="M 101.642246 190.179284 
C 102.579881 190.179284 103.479238 189.806758 104.142246 189.14375 
C 104.805254 188.480742 105.17778 187.581385 105.17778 186.64375 
C 105.17778 185.706115 104.805254 184.806758 104.142246 184.14375 
C 103.479238 183.480742 102.579881 183.108216 101.642246 183.108216 
C 100.704611 183.108216 99.805254 183.480742 99.142246 184.14375 
C 98.479238 184.806758 98.106712 185.706115 98.106712 186.64375 
C 98.106712 187.581385 98.479238 188.480742 99.142246 189.14375 
C 99.805254 189.806758 100.704611 190.179284 101.642246 190.179284 
z
" style="fill:none;stroke:#d8db8d;"/>
   </g>
   <g id="PathCollection_4">
    <path clip-path="url(#p73d02d3778)" d="M 108.604813 189.904065 
C 109.542447 189.904065 110.441805 189.531539 111.104813 188.868531 
C 111.767821 188.205524 112.140347 187.306166 112.140347 186.368531 
C 112.140347 185.430897 111.767821 184.531539 111.104813 183.868531 
C 110.441805 183.205524 109.542447 182.832997 108.604813 182.832997 
C 107.667178 182.832997 106.767821 183.205524 106.104813 183.868531 
C 105.441805 184.531539 105.069279 185.430897 105.069279 186.368531 
C 105.069279 187.306166 105.441805 188.205524 106.104813 188.868531 
C 106.767821 189.531539 107.667178 189.904065 108.604813 189.904065 
z
" style="fill:none;stroke:#d8db8d;"/>
   </g>
   <g id="PathCollection_5">
    <path clip-path="url(#p73d02d3778)" d="M 115.56738 189.776863 
C 116.505014 189.776863 117.404372 189.404337 118.06738 188.741329 
C 118.730387 188.078321 119.102914 187.178963 119.102914 186.241329 
C 119.102914 185.303694 118.730387 184.404337 118.06738 183.741329 
C 117.404372 183.078321 116.505014 182.705795 115.56738 182.705795 
C 114.629745 182.705795 113.730387 183.078321 113.06738 183.741329 
C 112.404372 184.404337 112.031846 185.303694 112.031846 186.241329 
C 112.031846 187.178963 112.404372 188.078321 113.06738 188.741329 
C 113.730387 189.404337 114.629745 189.776863 115.56738 189.776863 
z
" style="fill:none;stroke:#d8db8d;"/>
   </g>
   <g id="PathCollection_6">
    <path clip-path="url(#p73d02d3778)" d="M 122.529947 189.746993 
C 123.467581 189.746993 124.366939 189.374467 125.029947 188.71146 
C 125.692954 188.048452 126.06548 187.149094 126.06548 186.21146 
C 126.06548 185.273825 125.692954 184.374467 125.029947 183.71146 
C 124.366939 183.048452 123.467581 182.675926 122.529947 182.675926 
C 121.592312 182.675926 120.692954 183.048452 120.029947 183.71146 
C 119.366939 184.374467 118.994413 185.273825 118.994413 186.21146 
C 118.994413 187.149094 119.366939 188.048452 120.029947 188.71146 
C 120.692954 189.374467 121.592312 189.746993 122.529947 189.746993 
z
" style="fill:none;stroke:#d8db8d;"/>
   </g>
   <g id="PathCollection_7">
    <path clip-path="url(#p73d02d3778)" d="M 129.492513 189.77386 
C 130.430148 189.77386 131.329506 189.401334 131.992513 188.738326 
C 132.655521 188.075318 133.028047 187.175961 133.028047 186.238326 
C 133.028047 185.300691 132.655521 184.401334 131.992513 183.738326 
C 131.329506 183.075318 130.430148 182.702792 129.492513 182.702792 
C 128.554879 182.702792 127.655521 183.075318 126.992513 183.738326 
C 126.329506 184.401334 125.956979 185.300691 125.956979 186.238326 
C 125.956979 187.175961 126.329506 188.075318 126.992513 188.738326 
C 127.655521 189.401334 128.554879 189.77386 129.492513 189.77386 
z
" style="fill:none;stroke:#d8db8d;"/>
   </g>
   <g id="PathCollection_8">
    <path clip-path="url(#p73d02d3778)" d="M 136.45508 189.825513 
C 137.392715 189.825513 138.292072 189.452986 138.95508 188.789979 
C 139.618088 188.126971 139.990614 187.227613 139.990614 186.289979 
C 139.990614 185.352344 139.618088 184.452986 138.95508 183.789979 
C 138.292072 183.126971 137.392715 182.754445 136.45508 182.754445 
C 135.517446 182.754445 134.618088 183.126971 133.95508 183.789979 
C 133.292072 184.452986 132.919546 185.352344 132.919546 186.289979 
C 132.919546 187.227613 133.292072 188.126971 133.95508 188.789979 
C 134.618088 189.452986 135.517446 189.825513 136.45508 189.825513 
z
" style="fill:none;stroke:#d8db8d;"/>
   </g>
   <g id="PathCollection_9">
    <path clip-path="url(#p73d02d3778)" d="M 143.417647 189.877343 
C 144.355282 189.877343 145.254639 189.504817 145.917647 188.841809 
C 146.580655 188.178802 146.953181 187.279444 146.953181 186.341809 
C 146.953181 185.404175 146.580655 184.504817 145.917647 183.841809 
C 145.254639 183.178802 144.355282 182.806275 143.417647 182.806275 
C 142.480013 182.806275 141.580655 183.178802 140.917647 183.841809 
C 140.254639 184.504817 139.882113 185.404175 139.882113 186.341809 
C 139.882113 187.279444 140.254639 188.178802 140.917647 188.841809 
C 141.580655 189.504817 142.480013 189.877343 143.417647 189.877343 
z
" style="fill:none;stroke:#d8db8d;"/>
   </g>
   <g id="PathCollection_10">
    <path clip-path="url(#p73d02d3778)" d="M 150.380214 189.910908 
C 151.317848 189.910908 152.217206 189.538382 152.880214 188.875374 
C 153.543222 188.212366 153.915748 187.313009 153.915748 186.375374 
C 153.915748 185.43774 153.543222 184.538382 152.880214 183.875374 
C 152.217206 183.212366 151.317848 182.83984 150.380214 182.83984 
C 149.442579 182.83984 148.543222 183.212366 147.880214 183.875374 
C 147.217206 184.538382 146.84468 185.43774 146.84468 186.375374 
C 146.84468 187.313009 147.217206 188.212366 147.880214 188.875374 
C 148.543222 189.538382 149.442579 189.910908 150.380214 189.910908 
z
" style="fill:none;stroke:#d8db8d;"/>
   </g>
   <g id="PathCollection_11">
    <path clip-path="url(#p73d02d3778)" d="M 157.342781 189.912866 
C 158.280415 189.912866 159.179773 189.54034 159.842781 188.877332 
C 160.505788 188.214324 160.878315 187.314967 160.878315 186.377332 
C 160.878315 185.439698 160.505788 184.54034 159.842781 183.877332 
C 159.179773 183.214324 158.280415 182.841798 157.342781 182.841798 
C 156.405146 182.841798 155.505788 183.214324 154.842781 183.877332 
C 154.179773 184.54034 153.807247 185.439698 153.807247 186.377332 
C 153.807247 187.314967 154.179773 188.214324 154.842781 188.877332 
C 155.505788 189.54034 156.405146 189.912866 157.342781 189.912866 
z
" style="fill:none;stroke:#d8db8d;"/>
   </g>
   <g id="PathCollection_12">
    <path clip-path="url(#p73d02d3778)" d="M 164.305348 189.874039 
C 165.242982 189.874039 166.14234 189.501513 166.805348 188.838505 
C 167.468355 188.175498 167.840881 187.27614 167.840881 186.338505 
C 167.840881 185.400871 167.468355 184.501513 166.805348 183.838505 
C 166.14234 183.175498 165.242982 182.802971 164.305348 182.802971 
C 163.367713 182.802971 162.468355 183.175498 161.805348 183.838505 
C 161.14234 184.501513 160.769814 185.400871 160.769814 186.338505 
C 160.769814 187.27614 161.14234 188.175498 161.805348 188.838505 
C 162.468355 189.501513 163.367713 189.874039 164.305348 189.874039 
z
" style="fill:none;stroke:#d8db8d;"/>
   </g>
   <g id="PathCollection_13">
    <path clip-path="url(#p73d02d3778)" d="M 171.267914 189.788577 
C 172.205549 189.788577 173.104907 189.41605 173.767914 188.753043 
C 174.430922 188.090035 174.803448 187.190677 174.803448 186.253043 
C 174.803448 185.315408 174.430922 184.41605 173.767914 183.753043 
C 173.104907 183.090035 172.205549 182.717509 171.267914 182.717509 
C 170.33028 182.717509 169.430922 183.090035 168.767914 183.753043 
C 168.104907 184.41605 167.732381 185.315408 167.732381 186.253043 
C 167.732381 187.190677 168.104907 188.090035 168.767914 188.753043 
C 169.430922 189.41605 170.33028 189.788577 171.267914 189.788577 
z
" style="fill:none;stroke:#d8db8d;"/>
   </g>
   <g id="PathCollection_14">
    <path clip-path="url(#p73d02d3778)" d="M 178.230481 189.653223 
C 179.168116 189.653223 180.067474 189.280697 180.730481 188.617689 
C 181.393489 187.954681 181.766015 187.055324 181.766015 186.117689 
C 181.766015 185.180055 181.393489 184.280697 180.730481 183.617689 
C 180.067474 182.954681 179.168116 182.582155 178.230481 182.582155 
C 177.292847 182.582155 176.393489 182.954681 175.730481 183.617689 
C 175.067474 184.280697 174.694947 185.180055 174.694947 186.117689 
C 174.694947 187.055324 175.067474 187.954681 175.730481 188.617689 
C 176.393489 189.280697 177.292847 189.653223 178.230481 189.653223 
z
" style="fill:none;stroke:#d8db8d;"/>
   </g>
   <g id="PathCollection_15">
    <path clip-path="url(#p73d02d3778)" d="M 185.193048 189.466689 
C 186.130683 189.466689 187.03004 189.094162 187.693048 188.431155 
C 188.356056 187.768147 188.728582 186.868789 188.728582 185.931155 
C 188.728582 184.99352 188.356056 184.094162 187.693048 183.431155 
C 187.03004 182.768147 186.130683 182.395621 185.193048 182.395621 
C 184.255414 182.395621 183.356056 182.768147 182.693048 183.431155 
C 182.03004 184.094162 181.657514 184.99352 181.657514 185.931155 
C 181.657514 186.868789 182.03004 187.768147 182.693048 188.431155 
C 183.356056 189.094162 184.255414 189.466689 185.193048 189.466689 
z
" style="fill:none;stroke:#d8db8d;"/>
   </g>
   <g id="PathCollection_16">
    <path clip-path="url(#p73d02d3778)" d="M 192.155615 189.229104 
C 193.09325 189.229104 193.992607 188.856578 194.655615 188.19357 
C 195.318623 187.530562 195.691149 186.631205 195.691149 185.69357 
C 195.691149 184.755935 195.318623 183.856578 194.655615 183.19357 
C 193.992607 182.530562 193.09325 182.158036 192.155615 182.158036 
C 191.21798 182.158036 190.318623 182.530562 189.655615 183.19357 
C 188.992607 183.856578 188.620081 184.755935 188.620081 185.69357 
C 188.620081 186.631205 188.992607 187.530562 189.655615 188.19357 
C 190.318623 188.856578 191.21798 189.229104 192.155615 189.229104 
z
" style="fill:none;stroke:#d8db8d;"/>
   </g>
   <g id="PathCollection_17">
    <path clip-path="url(#p73d02d3778)" d="M 199.118182 188.941566 
C 200.055816 188.941566 200.955174 188.56904 201.618182 187.906032 
C 202.28119 187.243024 202.653716 186.343666 202.653716 185.406032 
C 202.653716 184.468397 202.28119 183.56904 201.618182 182.906032 
C 200.955174 182.243024 200.055816 181.870498 199.118182 181.870498 
C 198.180547 181.870498 197.28119 182.243024 196.618182 182.906032 
C 195.955174 183.56904 195.582648 184.468397 195.582648 185.406032 
C 195.582648 186.343666 195.955174 187.243024 196.618182 187.906032 
C 197.28119 188.56904 198.180547 188.941566 199.118182 188.941566 
z
" style="fill:none;stroke:#d8db8d;"/>
   </g>
   <g id="PathCollection_18">
    <path clip-path="url(#p73d02d3778)" d="M 206.080749 188.605763 
C 207.018383 188.605763 207.917741 188.233237 208.580749 187.570229 
C 209.243756 186.907221 209.616283 186.007864 209.616283 185.070229 
C 209.616283 184.132594 209.243756 183.233237 208.580749 182.570229 
C 207.917741 181.907221 207.018383 181.534695 206.080749 181.534695 
C 205.143114 181.534695 204.243756 181.907221 203.580749 182.570229 
C 202.917741 183.233237 202.545215 184.132594 202.545215 185.070229 
C 202.545215 186.007864 202.917741 186.907221 203.580749 187.570229 
C 204.243756 188.233237 205.143114 188.605763 206.080749 188.605763 
z
" style="fill:none;stroke:#d8db8d;"/>
   </g>
   <g id="PathCollection_19">
    <path clip-path="url(#p73d02d3778)" d="M 213.043316 188.223672 
C 213.98095 188.223672 214.880308 187.851146 215.543316 187.188138 
C 216.206323 186.52513 216.578849 185.625773 216.578849 184.688138 
C 216.578849 183.750504 216.206323 182.851146 215.543316 182.188138 
C 214.880308 181.52513 213.98095 181.152604 213.043316 181.152604 
C 212.105681 181.152604 211.206323 181.52513 210.543316 182.188138 
C 209.880308 182.851146 209.507782 183.750504 209.507782 184.688138 
C 209.507782 185.625773 209.880308 186.52513 210.543316 187.188138 
C 211.206323 187.851146 212.105681 188.223672 213.043316 188.223672 
z
" style="fill:none;stroke:#d8db8d;"/>
   </g>
   <g id="PathCollection_20">
    <path clip-path="url(#p73d02d3778)" d="M 220.005882 187.797326 
C 220.943517 187.797326 221.842875 187.4248 222.505882 186.761792 
C 223.16889 186.098784 223.541416 185.199426 223.541416 184.261792 
C 223.541416 183.324157 223.16889 182.4248 222.505882 181.761792 
C 221.842875 181.098784 220.943517 180.726258 220.005882 180.726258 
C 219.068248 180.726258 218.16889 181.098784 217.505882 181.761792 
C 216.842875 182.4248 216.470348 183.324157 216.470348 184.261792 
C 216.470348 185.199426 216.842875 186.098784 217.505882 186.761792 
C 218.16889 187.4248 219.068248 187.797326 220.005882 187.797326 
z
" style="fill:none;stroke:#d8db8d;"/>
   </g>
   <g id="PathCollection_21">
    <path clip-path="url(#p73d02d3778)" d="M 226.968449 187.328643 
C 227.906084 187.328643 228.805441 186.956117 229.468449 186.293109 
C 230.131457 185.630102 230.503983 184.730744 230.503983 183.793109 
C 230.503983 182.855475 230.131457 181.956117 229.468449 181.293109 
C 228.805441 180.630102 227.906084 180.257575 226.968449 180.257575 
C 226.030815 180.257575 225.131457 180.630102 224.468449 181.293109 
C 223.805441 181.956117 223.432915 182.855475 223.432915 183.793109 
C 223.432915 184.730744 223.805441 185.630102 224.468449 186.293109 
C 225.131457 186.956117 226.030815 187.328643 226.968449 187.328643 
z
" style="fill:none;stroke:#d8db8d;"/>
   </g>
   <g id="PathCollection_22">
    <path clip-path="url(#p73d02d3778)" d="M 233.931016 186.819314 
C 234.868651 186.819314 235.768008 186.446788 236.431016 185.783781 
C 237.094024 185.120773 237.46655 184.221415 237.46655 183.283781 
C 237.46655 182.346146 237.094024 181.446788 236.431016 180.783781 
C 235.768008 180.120773 234.868651 179.748247 233.931016 179.748247 
C 232.993381 179.748247 232.094024 180.120773 231.431016 180.783781 
C 230.768008 181.446788 230.395482 182.346146 230.395482 183.283781 
C 230.395482 184.221415 230.768008 185.120773 231.431016 185.783781 
C 232.094024 186.446788 232.993381 186.819314 233.931016 186.819314 
z
" style="fill:none;stroke:#d8db8d;"/>
   </g>
   <g id="PathCollection_23">
    <path clip-path="url(#p73d02d3778)" d="M 240.893583 186.270737 
C 241.831217 186.270737 242.730575 185.898211 243.393583 185.235204 
C 244.056591 184.572196 244.429117 183.672838 244.429117 182.735204 
C 244.429117 181.797569 244.056591 180.898211 243.393583 180.235204 
C 242.730575 179.572196 241.831217 179.19967 240.893583 179.19967 
C 239.955948 179.19967 239.056591 179.572196 238.393583 180.235204 
C 237.730575 180.898211 237.358049 181.797569 237.358049 182.735204 
C 237.358049 183.672838 237.730575 184.572196 238.393583 185.235204 
C 239.056591 185.898211 239.955948 186.270737 240.893583 186.270737 
z
" style="fill:none;stroke:#d8db8d;"/>
   </g>
   <g id="PathCollection_24">
    <path clip-path="url(#p73d02d3778)" d="M 247.85615 185.684002 
C 248.793784 185.684002 249.693142 185.311476 250.35615 184.648468 
C 251.019157 183.98546 251.391684 183.086103 251.391684 182.148468 
C 251.391684 181.210834 251.019157 180.311476 250.35615 179.648468 
C 249.693142 178.98546 248.793784 178.612934 247.85615 178.612934 
C 246.918515 178.612934 246.019157 178.98546 245.35615 179.648468 
C 244.693142 180.311476 244.320616 181.210834 244.320616 182.148468 
C 244.320616 183.086103 244.693142 183.98546 245.35615 184.648468 
C 246.019157 185.311476 246.918515 185.684002 247.85615 185.684002 
z
" style="fill:none;stroke:#d8db8d;"/>
   </g>
   <g id="PathCollection_25">
    <path clip-path="url(#p73d02d3778)" d="M 254.818717 185.05991 
C 255.756351 185.05991 256.655709 184.687384 257.318717 184.024376 
C 257.981724 183.361368 258.35425 182.46201 258.35425 181.524376 
C 258.35425 180.586741 257.981724 179.687384 257.318717 179.024376 
C 256.655709 178.361368 255.756351 177.988842 254.818717 177.988842 
C 253.881082 177.988842 252.981724 178.361368 252.318717 179.024376 
C 251.655709 179.687384 251.283183 180.586741 251.283183 181.524376 
C 251.283183 182.46201 251.655709 183.361368 252.318717 184.024376 
C 252.981724 184.687384 253.881082 185.05991 254.818717 185.05991 
z
" style="fill:none;stroke:#d8db8d;"/>
   </g>
   <g id="PathCollection_26">
    <path clip-path="url(#p73d02d3778)" d="M 261.781283 184.399028 
C 262.718918 184.399028 263.618276 184.026502 264.281283 183.363495 
C 264.944291 182.700487 265.316817 181.801129 265.316817 180.863495 
C 265.316817 179.92586 264.944291 179.026502 264.281283 178.363495 
C 263.618276 177.700487 262.718918 177.327961 261.781283 177.327961 
C 260.843649 177.327961 259.944291 177.700487 259.281283 178.363495 
C 258.618276 179.026502 258.24575 179.92586 258.24575 180.863495 
C 258.24575 181.801129 258.618276 182.700487 259.281283 183.363495 
C 259.944291 184.026502 260.843649 184.399028 261.781283 184.399028 
z
" style="fill:none;stroke:#d8db8d;"/>
   </g>
   <g id="PathCollection_27">
    <path clip-path="url(#p73d02d3778)" d="M 268.74385 183.701775 
C 269.681485 183.701775 270.580843 183.329249 271.24385 182.666241 
C 271.906858 182.003233 272.279384 181.103876 272.279384 180.166241 
C 272.279384 179.228607 271.906858 178.329249 271.24385 177.666241 
C 270.580843 177.003233 269.681485 176.630707 268.74385 176.630707 
C 267.806216 176.630707 266.906858 177.003233 266.24385 177.666241 
C 265.580843 178.329249 265.208316 179.228607 265.208316 180.166241 
C 265.208316 181.103876 265.580843 182.003233 266.24385 182.666241 
C 266.906858 183.329249 267.806216 183.701775 268.74385 183.701775 
z
" style="fill:none;stroke:#d8db8d;"/>
   </g>
   <g id="PathCollection_28">
    <path clip-path="url(#p73d02d3778)" d="M 275.706417 182.968519 
C 276.644052 182.968519 277.543409 182.595993 278.206417 181.932986 
C 278.869425 181.269978 279.241951 180.37062 279.241951 179.432986 
C 279.241951 178.495351 278.869425 177.595993 278.206417 176.932986 
C 277.543409 176.269978 276.644052 175.897452 275.706417 175.897452 
C 274.768783 175.897452 273.869425 176.269978 273.206417 176.932986 
C 272.543409 177.595993 272.170883 178.495351 272.170883 179.432986 
C 272.170883 180.37062 272.543409 181.269978 273.206417 181.932986 
C 273.869425 182.595993 274.768783 182.968519 275.706417 182.968519 
z
" style="fill:none;stroke:#d8db8d;"/>
   </g>
   <g id="PathCollection_29">
    <path clip-path="url(#p73d02d3778)" d="M 282.668984 182.199705 
C 283.606619 182.199705 284.505976 181.827178 285.168984 181.164171 
C 285.831992 180.501163 286.204518 179.601805 286.204518 178.664171 
C 286.204518 177.726536 285.831992 176.827178 285.168984 176.164171 
C 284.505976 175.501163 283.606619 175.128637 282.668984 175.128637 
C 281.731349 175.128637 280.831992 175.501163 280.168984 176.164171 
C 279.505976 176.827178 279.13345 177.726536 279.13345 178.664171 
C 279.13345 179.601805 279.505976 180.501163 280.168984 181.164171 
C 280.831992 181.827178 281.731349 182.199705 282.668984 182.199705 
z
" style="fill:none;stroke:#d8db8d;"/>
   </g>
   <g id="PathCollection_30">
    <path clip-path="url(#p73d02d3778)" d="M 289.631551 181.395976 
C 290.569185 181.395976 291.468543 181.02345 292.131551 180.360442 
C 292.794559 179.697435 293.167085 178.798077 293.167085 177.860442 
C 293.167085 176.922808 292.794559 176.02345 292.131551 175.360442 
C 291.468543 174.697435 290.569185 174.324908 289.631551 174.324908 
C 288.693916 174.324908 287.794559 174.697435 287.131551 175.360442 
C 286.468543 176.02345 286.096017 176.922808 286.096017 177.860442 
C 286.096017 178.798077 286.468543 179.697435 287.131551 180.360442 
C 287.794559 181.02345 288.693916 181.395976 289.631551 181.395976 
z
" style="fill:none;stroke:#d8db8d;"/>
   </g>
   <g id="PathCollection_31">
    <path clip-path="url(#p73d02d3778)" d="M 296.594118 180.558317 
C 297.531752 180.558317 298.43111 180.185791 299.094118 179.522783 
C 299.757125 178.859775 300.129652 177.960417 300.129652 177.022783 
C 300.129652 176.085148 299.757125 175.185791 299.094118 174.522783 
C 298.43111 173.859775 297.531752 173.487249 296.594118 173.487249 
C 295.656483 173.487249 294.757125 173.859775 294.094118 174.522783 
C 293.43111 175.185791 293.058584 176.085148 293.058584 177.022783 
C 293.058584 177.960417 293.43111 178.859775 294.094118 179.522783 
C 294.757125 180.185791 295.656483 180.558317 296.594118 180.558317 
z
" style="fill:none;stroke:#d8db8d;"/>
   </g>
   <g id="PathCollection_32">
    <path clip-path="url(#p73d02d3778)" d="M 303.556684 179.688179 
C 304.494319 179.688179 305.393677 179.315653 306.056684 178.652645 
C 306.719692 177.989638 307.092218 177.09028 307.092218 176.152645 
C 307.092218 175.215011 306.719692 174.315653 306.056684 173.652645 
C 305.393677 172.989638 304.494319 172.617111 303.556684 172.617111 
C 302.61905 172.617111 301.719692 172.989638 301.056684 173.652645 
C 300.393677 174.315653 300.021151 175.215011 300.021151 176.152645 
C 300.021151 177.09028 300.393677 177.989638 301.056684 178.652645 
C 301.719692 179.315653 302.61905 179.688179 303.556684 179.688179 
z
" style="fill:none;stroke:#d8db8d;"/>
   </g>
   <g id="PathCollection_33">
    <path clip-path="url(#p73d02d3778)" d="M 310.519251 178.787611 
C 311.456886 178.787611 312.356244 178.415085 313.019251 177.752077 
C 313.682259 177.089069 314.054785 176.189712 314.054785 175.252077 
C 314.054785 174.314443 313.682259 173.415085 313.019251 172.752077 
C 312.356244 172.089069 311.456886 171.716543 310.519251 171.716543 
C 309.581617 171.716543 308.682259 172.089069 308.019251 172.752077 
C 307.356244 173.415085 306.983717 174.314443 306.983717 175.252077 
C 306.983717 176.189712 307.356244 177.089069 308.019251 177.752077 
C 308.682259 178.415085 309.581617 178.787611 310.519251 178.787611 
z
" style="fill:none;stroke:#d8db8d;"/>
   </g>
   <g id="PathCollection_34">
    <path clip-path="url(#p73d02d3778)" d="M 317.481818 177.859367 
C 318.419453 177.859367 319.31881 177.486841 319.981818 176.823833 
C 320.644826 176.160826 321.017352 175.261468 321.017352 174.323833 
C 321.017352 173.386199 320.644826 172.486841 319.981818 171.823833 
C 319.31881 171.160826 318.419453 170.788299 317.481818 170.788299 
C 316.544184 170.788299 315.644826 171.160826 314.981818 171.823833 
C 314.31881 172.486841 313.946284 173.386199 313.946284 174.323833 
C 313.946284 175.261468 314.31881 176.160826 314.981818 176.823833 
C 315.644826 177.486841 316.544184 177.859367 317.481818 177.859367 
z
" style="fill:none;stroke:#d8db8d;"/>
   </g>
   <g id="PathCollection_35">
    <path clip-path="url(#p73d02d3778)" d="M 324.444385 176.907002 
C 325.38202 176.907002 326.281377 176.534476 326.944385 175.871469 
C 327.607393 175.208461 327.979919 174.309103 327.979919 173.371469 
C 327.979919 172.433834 327.607393 171.534476 326.944385 170.871469 
C 326.281377 170.208461 325.38202 169.835935 324.444385 169.835935 
C 323.50675 169.835935 322.607393 170.208461 321.944385 170.871469 
C 321.281377 171.534476 320.908851 172.433834 320.908851 173.371469 
C 320.908851 174.309103 321.281377 175.208461 321.944385 175.871469 
C 322.607393 176.534476 323.50675 176.907002 324.444385 176.907002 
z
" style="fill:none;stroke:#d8db8d;"/>
   </g>
   <g id="PathCollection_36">
    <path clip-path="url(#p73d02d3778)" d="M 331.406952 175.93494 
C 332.344586 175.93494 333.243944 175.562414 333.906952 174.899406 
C 334.56996 174.236399 334.942486 173.337041 334.942486 172.399406 
C 334.942486 171.461772 334.56996 170.562414 333.906952 169.899406 
C 333.243944 169.236399 332.344586 168.863873 331.406952 168.863873 
C 330.469317 168.863873 329.56996 169.236399 328.906952 169.899406 
C 328.243944 170.562414 327.871418 171.461772 327.871418 172.399406 
C 327.871418 173.337041 328.243944 174.236399 328.906952 174.899406 
C 329.56996 175.562414 330.469317 175.93494 331.406952 175.93494 
z
" style="fill:none;stroke:#d8db8d;"/>
   </g>
   <g id="PathCollection_37">
    <path clip-path="url(#p73d02d3778)" d="M 338.369519 174.948509 
C 339.307153 174.948509 340.206511 174.575983 340.869519 173.912975 
C 341.532526 173.249968 341.905053 172.35061 341.905053 171.412975 
C 341.905053 170.475341 341.532526 169.575983 340.869519 168.912975 
C 340.206511 168.249968 339.307153 167.877441 338.369519 167.877441 
C 337.431884 167.877441 336.532526 168.249968 335.869519 168.912975 
C 335.206511 169.575983 334.833985 170.475341 334.833985 171.412975 
C 334.833985 172.35061 335.206511 173.249968 335.869519 173.912975 
C 336.532526 174.575983 337.431884 174.948509 338.369519 174.948509 
z
" style="fill:none;stroke:#d8db8d;"/>
   </g>
   <g id="PathCollection_38">
    <path clip-path="url(#p73d02d3778)" d="M 345.332086 173.953945 
C 346.26972 173.953945 347.169078 173.581419 347.832086 172.918411 
C 348.495093 172.255403 348.867619 171.356046 348.867619 170.418411 
C 348.867619 169.480776 348.495093 168.581419 347.832086 167.918411 
C 347.169078 167.255403 346.26972 166.882877 345.332086 166.882877 
C 344.394451 166.882877 343.495093 167.255403 342.832086 167.918411 
C 342.169078 168.581419 341.796552 169.480776 341.796552 170.418411 
C 341.796552 171.356046 342.169078 172.255403 342.832086 172.918411 
C 343.495093 173.581419 344.394451 173.953945 345.332086 173.953945 
z
" style="fill:none;stroke:#d8db8d;"/>
   </g>
   <g id="PathCollection_39">
    <path clip-path="url(#p73d02d3778)" d="M 352.294652 172.958347 
C 353.232287 172.958347 354.131645 172.585821 354.794652 171.922814 
C 355.45766 171.259806 355.830186 170.360448 355.830186 169.422814 
C 355.830186 168.485179 355.45766 167.585821 354.794652 166.922814 
C 354.131645 166.259806 353.232287 165.88728 352.294652 165.88728 
C 351.357018 165.88728 350.45766 166.259806 349.794652 166.922814 
C 349.131645 167.585821 348.759119 168.485179 348.759119 169.422814 
C 348.759119 170.360448 349.131645 171.259806 349.794652 171.922814 
C 350.45766 172.585821 351.357018 172.958347 352.294652 172.958347 
z
" style="fill:none;stroke:#d8db8d;"/>
   </g>
   <g id="PathCollection_40">
    <path clip-path="url(#p73d02d3778)" d="M 359.257219 171.969592 
C 360.194854 171.969592 361.094212 171.597066 361.757219 170.934058 
C 362.420227 170.27105 362.792753 169.371693 362.792753 168.434058 
C 362.792753 167.496424 362.420227 166.597066 361.757219 165.934058 
C 361.094212 165.27105 360.194854 164.898524 359.257219 164.898524 
C 358.319585 164.898524 357.420227 165.27105 356.757219 165.934058 
C 356.094212 166.597066 355.721685 167.496424 355.721685 168.434058 
C 355.721685 169.371693 356.094212 170.27105 356.757219 170.934058 
C 357.420227 171.597066 358.319585 171.969592 359.257219 171.969592 
z
" style="fill:none;stroke:#d8db8d;"/>
   </g>
   <g id="PathCollection_41">
    <path clip-path="url(#p73d02d3778)" d="M 366.219786 170.996186 
C 367.157421 170.996186 368.056778 170.62366 368.719786 169.960652 
C 369.382794 169.297644 369.75532 168.398287 369.75532 167.460652 
C 369.75532 166.523018 369.382794 165.62366 368.719786 164.960652 
C 368.056778 164.297644 367.157421 163.925118 366.219786 163.925118 
C 365.282152 163.925118 364.382794 164.297644 363.719786 164.960652 
C 363.056778 165.62366 362.684252 166.523018 362.684252 167.460652 
C 362.684252 168.398287 363.056778 169.297644 363.719786 169.960652 
C 364.382794 170.62366 365.282152 170.996186 366.219786 170.996186 
z
" style="fill:none;stroke:#d8db8d;"/>
   </g>
   <g id="PathCollection_42">
    <path clip-path="url(#p73d02d3778)" d="M 373.182353 170.047065 
C 374.119987 170.047065 375.019345 169.674539 375.682353 169.011531 
C 376.345361 168.348523 376.717887 167.449165 376.717887 166.511531 
C 376.717887 165.573896 376.345361 164.674539 375.682353 164.011531 
C 375.019345 163.348523 374.119987 162.975997 373.182353 162.975997 
C 372.244718 162.975997 371.345361 163.348523 370.682353 164.011531 
C 370.019345 164.674539 369.646819 165.573896 369.646819 166.511531 
C 369.646819 167.449165 370.019345 168.348523 370.682353 169.011531 
C 371.345361 169.674539 372.244718 170.047065 373.182353 170.047065 
z
" style="fill:none;stroke:#d8db8d;"/>
   </g>
   <g id="PathCollection_43">
    <path clip-path="url(#p73d02d3778)" d="M 380.14492 169.131321 
C 381.082554 169.131321 381.981912 168.758795 382.64492 168.095787 
C 383.307928 167.432779 383.680454 166.533421 383.680454 165.595787 
C 383.680454 164.658152 383.307928 163.758795 382.64492 163.095787 
C 381.981912 162.432779 381.082554 162.060253 380.14492 162.060253 
C 379.207285 162.060253 378.307928 162.432779 377.64492 163.095787 
C 376.981912 163.758795 376.609386 164.658152 376.609386 165.595787 
C 376.609386 166.533421 376.981912 167.432779 377.64492 168.095787 
C 378.307928 168.758795 379.207285 169.131321 380.14492 169.131321 
z
" style="fill:none;stroke:#d8db8d;"/>
   </g>
   <g id="PathCollection_44">
    <path clip-path="url(#p73d02d3778)" d="M 387.107487 168.257866 
C 388.045121 168.257866 388.944479 167.88534 389.607487 167.222332 
C 390.270494 166.559324 390.643021 165.659966 390.643021 164.722332 
C 390.643021 163.784697 390.270494 162.88534 389.607487 162.222332 
C 388.944479 161.559324 388.045121 161.186798 387.107487 161.186798 
C 386.169852 161.186798 385.270494 161.559324 384.607487 162.222332 
C 383.944479 162.88534 383.571953 163.784697 383.571953 164.722332 
C 383.571953 165.659966 383.944479 166.559324 384.607487 167.222332 
C 385.270494 167.88534 386.169852 168.257866 387.107487 168.257866 
z
" style="fill:none;stroke:#d8db8d;"/>
   </g>
   <g id="PathCollection_45">
    <path clip-path="url(#p73d02d3778)" d="M 394.070053 167.435011 
C 395.007688 167.435011 395.907046 167.062485 396.570053 166.399477 
C 397.233061 165.736469 397.605587 164.837112 397.605587 163.899477 
C 397.605587 162.961843 397.233061 162.062485 396.570053 161.399477 
C 395.907046 160.736469 395.007688 160.363943 394.070053 160.363943 
C 393.132419 160.363943 392.233061 160.736469 391.570053 161.399477 
C 390.907046 162.062485 390.53452 162.961843 390.53452 163.899477 
C 390.53452 164.837112 390.907046 165.736469 391.570053 166.399477 
C 392.233061 167.062485 393.132419 167.435011 394.070053 167.435011 
z
" style="fill:none;stroke:#d8db8d;"/>
   </g>
   <g id="PathCollection_46">
    <path clip-path="url(#p73d02d3778)" d="M 401.03262 166.669966 
C 401.970255 166.669966 402.869613 166.29744 403.53262 165.634432 
C 404.195628 164.971424 404.568154 164.072067 404.568154 163.134432 
C 404.568154 162.196798 404.195628 161.29744 403.53262 160.634432 
C 402.869613 159.971424 401.970255 159.598898 401.03262 159.598898 
C 400.094986 159.598898 399.195628 159.971424 398.53262 160.634432 
C 397.869613 161.29744 397.497086 162.196798 397.497086 163.134432 
C 397.497086 164.072067 397.869613 164.971424 398.53262 165.634432 
C 399.195628 166.29744 400.094986 166.669966 401.03262 166.669966 
z
" style="fill:none;stroke:#d8db8d;"/>
   </g>
   <g id="PathCollection_47">
    <path clip-path="url(#p73d02d3778)" d="M 407.995187 165.968247 
C 408.932822 165.968247 409.832179 165.595721 410.495187 164.932714 
C 411.158195 164.269706 411.530721 163.370348 411.530721 162.432714 
C 411.530721 161.495079 411.158195 160.595721 410.495187 159.932714 
C 409.832179 159.269706 408.932822 158.89718 407.995187 158.89718 
C 407.057553 158.89718 406.158195 159.269706 405.495187 159.932714 
C 404.832179 160.595721 404.459653 161.495079 404.459653 162.432714 
C 404.459653 163.370348 404.832179 164.269706 405.495187 164.932714 
C 406.158195 165.595721 407.057553 165.968247 407.995187 165.968247 
z
" style="fill:none;stroke:#d8db8d;"/>
   </g>
   <g id="PathCollection_48">
    <path clip-path="url(#p73d02d3778)" d="M 414.957754 165.332996 
C 415.895389 165.332996 416.794746 164.96047 417.457754 164.297462 
C 418.120762 163.634454 418.493288 162.735096 418.493288 161.797462 
C 418.493288 160.859827 418.120762 159.96047 417.457754 159.297462 
C 416.794746 158.634454 415.895389 158.261928 414.957754 158.261928 
C 414.020119 158.261928 413.120762 158.634454 412.457754 159.297462 
C 411.794746 159.96047 411.42222 160.859827 411.42222 161.797462 
C 411.42222 162.735096 411.794746 163.634454 412.457754 164.297462 
C 413.120762 164.96047 414.020119 165.332996 414.957754 165.332996 
z
" style="fill:none;stroke:#d8db8d;"/>
   </g>
   <g id="PathCollection_49">
    <path clip-path="url(#p73d02d3778)" d="M 421.920321 164.764189 
C 422.857955 164.764189 423.757313 164.391663 424.420321 163.728655 
C 425.083329 163.065647 425.455855 162.16629 425.455855 161.228655 
C 425.455855 160.291021 425.083329 159.391663 424.420321 158.728655 
C 423.757313 158.065647 422.857955 157.693121 421.920321 157.693121 
C 420.982686 157.693121 420.083329 158.065647 419.420321 158.728655 
C 418.757313 159.391663 418.384787 160.291021 418.384787 161.228655 
C 418.384787 162.16629 418.757313 163.065647 419.420321 163.728655 
C 420.083329 164.391663 420.982686 164.764189 421.920321 164.764189 
z
" style="fill:none;stroke:#d8db8d;"/>
   </g>
   <g id="PathCollection_50">
    <path clip-path="url(#p73d02d3778)" d="M 428.882888 164.257749 
C 429.820522 164.257749 430.71988 163.885223 431.382888 163.222215 
C 432.045895 162.559207 432.418422 161.65985 432.418422 160.722215 
C 432.418422 159.78458 432.045895 158.885223 431.382888 158.222215 
C 430.71988 157.559207 429.820522 157.186681 428.882888 157.186681 
C 427.945253 157.186681 427.045895 157.559207 426.382888 158.222215 
C 425.71988 158.885223 425.347354 159.78458 425.347354 160.722215 
C 425.347354 161.65985 425.71988 162.559207 426.382888 163.222215 
C 427.045895 163.885223 427.945253 164.257749 428.882888 164.257749 
z
" style="fill:none;stroke:#d8db8d;"/>
   </g>
   <g id="PathCollection_51">
    <path clip-path="url(#p73d02d3778)" d="M 435.845455 163.804538 
C 436.783089 163.804538 437.682447 163.432012 438.345455 162.769004 
C 439.008462 162.105997 439.380988 161.206639 439.380988 160.269004 
C 439.380988 159.33137 439.008462 158.432012 438.345455 157.769004 
C 437.682447 157.105997 436.783089 156.73347 435.845455 156.73347 
C 434.90782 156.73347 434.008462 157.105997 433.345455 157.769004 
C 432.682447 158.432012 432.309921 159.33137 432.309921 160.269004 
C 432.309921 161.206639 432.682447 162.105997 433.345455 162.769004 
C 434.008462 163.432012 434.90782 163.804538 435.845455 163.804538 
z
" style="fill:none;stroke:#d8db8d;"/>
   </g>
   <g id="PathCollection_52">
    <defs>
     <path d="M 0 3.535534 
C 0.937635 3.535534 1.836992 3.163008 2.5 2.5 
C 3.163008 1.836992 3.535534 0.937635 3.535534 0 
C 3.535534 -0.937635 3.163008 -1.836992 2.5 -2.5 
C 1.836992 -3.163008 0.937635 -3.535534 0 -3.535534 
C -0.937635 -3.535534 -1.836992 -3.163008 -2.5 -2.5 
C -3.163008 -1.836992 -3.535534 -0.937635 -3.535534 0 
C -3.535534 0.937635 -3.163008 1.836992 -2.5 2.5 
C -1.836992 3.163008 -0.937635 3.535534 0 3.535534 
z
" id="m930a3dc637" style="stroke:#d8db8d;"/>
    </defs>
    <g clip-path="url(#p73d02d3778)">
     <use style="fill:#d8db8d;stroke:#d8db8d;" x="87.717112" xlink:href="#m930a3dc637" y="188.608591"/>
    </g>
   </g>
   <g id="PathCollection_53">
    <g clip-path="url(#p73d02d3778)">
     <use style="fill:#d8db8d;stroke:#d8db8d;" x="94.679679" xlink:href="#m930a3dc637" y="188.256355"/>
    </g>
   </g>
   <g id="PathCollection_54">
    <g clip-path="url(#p73d02d3778)">
     <use style="fill:#d8db8d;stroke:#d8db8d;" x="101.642246" xlink:href="#m930a3dc637" y="187.929957"/>
    </g>
   </g>
   <g id="PathCollection_55">
    <g clip-path="url(#p73d02d3778)">
     <use style="fill:#d8db8d;stroke:#d8db8d;" x="108.604813" xlink:href="#m930a3dc637" y="187.641423"/>
    </g>
   </g>
   <g id="PathCollection_56">
    <g clip-path="url(#p73d02d3778)">
     <use style="fill:#d8db8d;stroke:#d8db8d;" x="115.56738" xlink:href="#m930a3dc637" y="187.395097"/>
    </g>
   </g>
   <g id="PathCollection_57">
    <g clip-path="url(#p73d02d3778)">
     <use style="fill:#d8db8d;stroke:#d8db8d;" x="122.529947" xlink:href="#m930a3dc637" y="187.193368"/>
    </g>
   </g>
   <g id="PathCollection_58">
    <g clip-path="url(#p73d02d3778)">
     <use style="fill:#d8db8d;stroke:#d8db8d;" x="129.492513" xlink:href="#m930a3dc637" y="187.036072"/>
    </g>
   </g>
   <g id="PathCollection_59">
    <g clip-path="url(#p73d02d3778)">
     <use style="fill:#d8db8d;stroke:#d8db8d;" x="136.45508" xlink:href="#m930a3dc637" y="186.920915"/>
    </g>
   </g>
   <g id="PathCollection_60">
    <g clip-path="url(#p73d02d3778)">
     <use style="fill:#d8db8d;stroke:#d8db8d;" x="143.417647" xlink:href="#m930a3dc637" y="186.843858"/>
    </g>
   </g>
   <g id="PathCollection_61">
    <g clip-path="url(#p73d02d3778)">
     <use style="fill:#d8db8d;stroke:#d8db8d;" x="150.380214" xlink:href="#m930a3dc637" y="186.799484"/>
    </g>
   </g>
   <g id="PathCollection_62">
    <g clip-path="url(#p73d02d3778)">
     <use style="fill:#d8db8d;stroke:#d8db8d;" x="157.342781" xlink:href="#m930a3dc637" y="186.781319"/>
    </g>
   </g>
   <g id="PathCollection_63">
    <g clip-path="url(#p73d02d3778)">
     <use style="fill:#d8db8d;stroke:#d8db8d;" x="164.305348" xlink:href="#m930a3dc637" y="186.782144"/>
    </g>
   </g>
   <g id="PathCollection_64">
    <g clip-path="url(#p73d02d3778)">
     <use style="fill:#d8db8d;stroke:#d8db8d;" x="171.267914" xlink:href="#m930a3dc637" y="186.794264"/>
    </g>
   </g>
   <g id="PathCollection_65">
    <g clip-path="url(#p73d02d3778)">
     <use style="fill:#d8db8d;stroke:#d8db8d;" x="178.230481" xlink:href="#m930a3dc637" y="186.809757"/>
    </g>
   </g>
   <g id="PathCollection_66">
    <g clip-path="url(#p73d02d3778)">
     <use style="fill:#d8db8d;stroke:#d8db8d;" x="185.193048" xlink:href="#m930a3dc637" y="186.820702"/>
    </g>
   </g>
   <g id="PathCollection_67">
    <g clip-path="url(#p73d02d3778)">
     <use style="fill:#d8db8d;stroke:#d8db8d;" x="192.155615" xlink:href="#m930a3dc637" y="186.819371"/>
    </g>
   </g>
   <g id="PathCollection_68">
    <g clip-path="url(#p73d02d3778)">
     <use style="fill:#d8db8d;stroke:#d8db8d;" x="199.118182" xlink:href="#m930a3dc637" y="186.798408"/>
    </g>
   </g>
   <g id="PathCollection_69">
    <g clip-path="url(#p73d02d3778)">
     <use style="fill:#d8db8d;stroke:#d8db8d;" x="206.080749" xlink:href="#m930a3dc637" y="186.750981"/>
    </g>
   </g>
   <g id="PathCollection_70">
    <g clip-path="url(#p73d02d3778)">
     <use style="fill:#d8db8d;stroke:#d8db8d;" x="213.043316" xlink:href="#m930a3dc637" y="186.670909"/>
    </g>
   </g>
   <g id="PathCollection_71">
    <g clip-path="url(#p73d02d3778)">
     <use style="fill:#d8db8d;stroke:#d8db8d;" x="220.005882" xlink:href="#m930a3dc637" y="186.552771"/>
    </g>
   </g>
   <g id="PathCollection_72">
    <g clip-path="url(#p73d02d3778)">
     <use style="fill:#d8db8d;stroke:#d8db8d;" x="226.968449" xlink:href="#m930a3dc637" y="186.391998"/>
    </g>
   </g>
   <g id="PathCollection_73">
    <g clip-path="url(#p73d02d3778)">
     <use style="fill:#d8db8d;stroke:#d8db8d;" x="233.931016" xlink:href="#m930a3dc637" y="186.184936"/>
    </g>
   </g>
   <g id="PathCollection_74">
    <g clip-path="url(#p73d02d3778)">
     <use style="fill:#d8db8d;stroke:#d8db8d;" x="240.893583" xlink:href="#m930a3dc637" y="185.9289"/>
    </g>
   </g>
   <g id="PathCollection_75">
    <g clip-path="url(#p73d02d3778)">
     <use style="fill:#d8db8d;stroke:#d8db8d;" x="247.85615" xlink:href="#m930a3dc637" y="185.622206"/>
    </g>
   </g>
   <g id="PathCollection_76">
    <g clip-path="url(#p73d02d3778)">
     <use style="fill:#d8db8d;stroke:#d8db8d;" x="254.818717" xlink:href="#m930a3dc637" y="185.264187"/>
    </g>
   </g>
   <g id="PathCollection_77">
    <g clip-path="url(#p73d02d3778)">
     <use style="fill:#d8db8d;stroke:#d8db8d;" x="261.781283" xlink:href="#m930a3dc637" y="184.855189"/>
    </g>
   </g>
   <g id="PathCollection_78">
    <g clip-path="url(#p73d02d3778)">
     <use style="fill:#d8db8d;stroke:#d8db8d;" x="268.74385" xlink:href="#m930a3dc637" y="184.396563"/>
    </g>
   </g>
   <g id="PathCollection_79">
    <g clip-path="url(#p73d02d3778)">
     <use style="fill:#d8db8d;stroke:#d8db8d;" x="275.706417" xlink:href="#m930a3dc637" y="183.890626"/>
    </g>
   </g>
   <g id="PathCollection_80">
    <g clip-path="url(#p73d02d3778)">
     <use style="fill:#d8db8d;stroke:#d8db8d;" x="282.668984" xlink:href="#m930a3dc637" y="183.340627"/>
    </g>
   </g>
   <g id="PathCollection_81">
    <g clip-path="url(#p73d02d3778)">
     <use style="fill:#d8db8d;stroke:#d8db8d;" x="289.631551" xlink:href="#m930a3dc637" y="182.750685"/>
    </g>
   </g>
   <g id="PathCollection_82">
    <g clip-path="url(#p73d02d3778)">
     <use style="fill:#d8db8d;stroke:#d8db8d;" x="296.594118" xlink:href="#m930a3dc637" y="182.125726"/>
    </g>
   </g>
   <g id="PathCollection_83">
    <g clip-path="url(#p73d02d3778)">
     <use style="fill:#d8db8d;stroke:#d8db8d;" x="303.556684" xlink:href="#m930a3dc637" y="181.471403"/>
    </g>
   </g>
   <g id="PathCollection_84">
    <g clip-path="url(#p73d02d3778)">
     <use style="fill:#d8db8d;stroke:#d8db8d;" x="310.519251" xlink:href="#m930a3dc637" y="180.794011"/>
    </g>
   </g>
   <g id="PathCollection_85">
    <g clip-path="url(#p73d02d3778)">
     <use style="fill:#d8db8d;stroke:#d8db8d;" x="317.481818" xlink:href="#m930a3dc637" y="180.100386"/>
    </g>
   </g>
   <g id="PathCollection_86">
    <g clip-path="url(#p73d02d3778)">
     <use style="fill:#d8db8d;stroke:#d8db8d;" x="324.444385" xlink:href="#m930a3dc637" y="179.397805"/>
    </g>
   </g>
   <g id="PathCollection_87">
    <g clip-path="url(#p73d02d3778)">
     <use style="fill:#d8db8d;stroke:#d8db8d;" x="331.406952" xlink:href="#m930a3dc637" y="178.693871"/>
    </g>
   </g>
   <g id="PathCollection_88">
    <g clip-path="url(#p73d02d3778)">
     <use style="fill:#d8db8d;stroke:#d8db8d;" x="338.369519" xlink:href="#m930a3dc637" y="177.996396"/>
    </g>
   </g>
   <g id="PathCollection_89">
    <g clip-path="url(#p73d02d3778)">
     <use style="fill:#d8db8d;stroke:#d8db8d;" x="345.332086" xlink:href="#m930a3dc637" y="177.313278"/>
    </g>
   </g>
   <g id="PathCollection_90">
    <g clip-path="url(#p73d02d3778)">
     <use style="fill:#d8db8d;stroke:#d8db8d;" x="352.294652" xlink:href="#m930a3dc637" y="176.652369"/>
    </g>
   </g>
   <g id="PathCollection_91">
    <g clip-path="url(#p73d02d3778)">
     <use style="fill:#d8db8d;stroke:#d8db8d;" x="359.257219" xlink:href="#m930a3dc637" y="176.021348"/>
    </g>
   </g>
   <g id="PathCollection_92">
    <g clip-path="url(#p73d02d3778)">
     <use style="fill:#d8db8d;stroke:#d8db8d;" x="366.219786" xlink:href="#m930a3dc637" y="175.427581"/>
    </g>
   </g>
   <g id="PathCollection_93">
    <g clip-path="url(#p73d02d3778)">
     <use style="fill:#d8db8d;stroke:#d8db8d;" x="373.182353" xlink:href="#m930a3dc637" y="174.877988"/>
    </g>
   </g>
   <g id="PathCollection_94">
    <g clip-path="url(#p73d02d3778)">
     <use style="fill:#d8db8d;stroke:#d8db8d;" x="380.14492" xlink:href="#m930a3dc637" y="174.378902"/>
    </g>
   </g>
   <g id="PathCollection_95">
    <g clip-path="url(#p73d02d3778)">
     <use style="fill:#d8db8d;stroke:#d8db8d;" x="387.107487" xlink:href="#m930a3dc637" y="173.935933"/>
    </g>
   </g>
   <g id="PathCollection_96">
    <g clip-path="url(#p73d02d3778)">
     <use style="fill:#d8db8d;stroke:#d8db8d;" x="394.070053" xlink:href="#m930a3dc637" y="173.553825"/>
    </g>
   </g>
   <g id="PathCollection_97">
    <g clip-path="url(#p73d02d3778)">
     <use style="fill:#d8db8d;stroke:#d8db8d;" x="401.03262" xlink:href="#m930a3dc637" y="173.236328"/>
    </g>
   </g>
   <g id="PathCollection_98">
    <g clip-path="url(#p73d02d3778)">
     <use style="fill:#d8db8d;stroke:#d8db8d;" x="407.995187" xlink:href="#m930a3dc637" y="172.986055"/>
    </g>
   </g>
   <g id="PathCollection_99">
    <g clip-path="url(#p73d02d3778)">
     <use style="fill:#d8db8d;stroke:#d8db8d;" x="414.957754" xlink:href="#m930a3dc637" y="172.804358"/>
    </g>
   </g>
   <g id="PathCollection_100">
    <g clip-path="url(#p73d02d3778)">
     <use style="fill:#d8db8d;stroke:#d8db8d;" x="421.920321" xlink:href="#m930a3dc637" y="172.691196"/>
    </g>
   </g>
   <g id="PathCollection_101">
    <g clip-path="url(#p73d02d3778)">
     <use style="fill:#d8db8d;stroke:#d8db8d;" x="428.882888" xlink:href="#m930a3dc637" y="172.64502"/>
    </g>
   </g>
   <g id="PathCollection_102">
    <g clip-path="url(#p73d02d3778)">
     <use style="fill:#d8db8d;stroke:#d8db8d;" x="435.845455" xlink:href="#m930a3dc637" y="172.662649"/>
    </g>
   </g>
   <g id="matplotlib.axis_1"/>
   <g id="matplotlib.axis_2"/>
   <g id="line2d_1">
    <path clip-path="url(#p73d02d3778)" d="M 80.754545 189 
L 128.187032 188.889225 
L 138.369786 188.553467 
L 149.683957 187.953426 
L 162.506684 187.045613 
L 177.563235 185.74945 
L 196.246123 183.907553 
L 223.487166 180.976103 
L 285.279947 174.277506 
L 296.507086 173.232428 
L 306.051604 172.583995 
L 316.350401 172.110468 
L 327.635561 171.817837 
L 340.139171 171.72008 
L 354.26738 171.837303 
L 370.600401 172.201743 
L 390.269652 172.871637 
L 415.944118 173.981999 
L 435.845455 174.940535 
L 435.845455 174.940535 
" style="fill:none;stroke:#d8db8d;stroke-dasharray:11.1,4.8;stroke-dashoffset:0;stroke-width:3;"/>
   </g>
   <g id="line2d_2">
    <path clip-path="url(#p73d02d3778)" d="M 80.754545 189 
L 129.231417 188.889406 
L 140.661631 188.549295 
L 153.513369 187.939424 
L 168.453877 187.000972 
L 186.585561 185.630268 
L 211.15762 183.533142 
L 295.984893 176.121013 
L 306.486765 175.535515 
L 317.945989 175.122891 
L 330.623663 174.892678 
L 344.896925 174.860535 
L 361.345989 175.051996 
L 380.957219 175.510322 
L 406.02246 176.330412 
L 435.845455 177.485423 
L 435.845455 177.485423 
" style="fill:none;stroke:#d8db8d;stroke-linecap:square;stroke-width:3;"/>
   </g>
   <g id="patch_3">
    <path d="M 63 189 
L 63 25.92 
" style="fill:none;stroke:#000000;stroke-linecap:square;stroke-linejoin:miter;stroke-width:0.8;"/>
   </g>
   <g id="patch_4">
    <path d="M 453.6 189 
L 453.6 25.92 
" style="fill:none;stroke:#000000;stroke-linecap:square;stroke-linejoin:miter;stroke-width:0.8;"/>
   </g>
   <g id="patch_5">
    <path d="M 63 189 
L 453.6 189 
" style="fill:none;stroke:#000000;stroke-linecap:square;stroke-linejoin:miter;stroke-width:0.8;"/>
   </g>
   <g id="patch_6">
    <path d="M 63 25.92 
L 453.6 25.92 
" style="fill:none;stroke:#000000;stroke-linecap:square;stroke-linejoin:miter;stroke-width:0.8;"/>
   </g>
  </g>
 </g>
 <defs>
  <clipPath id="p73d02d3778">
   <rect height="163.08" width="390.6" x="63" y="25.92"/>
  </clipPath>
 </defs>
</svg>
