<?xml version="1.0" encoding="utf-8" standalone="no"?>
<!DOCTYPE svg PUBLIC "-//W3C//DTD SVG 1.1//EN"
  "http://www.w3.org/Graphics/SVG/1.1/DTD/svg11.dtd">
<!-- Created with matplotlib (https://matplotlib.org/) -->
<svg height="216pt" version="1.1" viewBox="0 0 504 216" width="504pt" xmlns="http://www.w3.org/2000/svg" xmlns:xlink="http://www.w3.org/1999/xlink">
 <metadata>
  <rdf:RDF xmlns:cc="http://creativecommons.org/ns#" xmlns:dc="http://purl.org/dc/elements/1.1/" xmlns:rdf="http://www.w3.org/1999/02/22-rdf-syntax-ns#">
   <cc:Work>
    <dc:type rdf:resource="http://purl.org/dc/dcmitype/StillImage"/>
    <dc:date>2024-12-18T09:33:01.064726</dc:date>
    <dc:format>image/svg+xml</dc:format>
    <dc:creator>
     <cc:Agent>
      <dc:title>Matplotlib v3.3.2, https://matplotlib.org/</dc:title>
     </cc:Agent>
    </dc:creator>
   </cc:Work>
  </rdf:RDF>
 </metadata>
 <defs>
  <style type="text/css">*{stroke-linecap:butt;stroke-linejoin:round;}</style>
 </defs>
 <g id="figure_1">
  <g id="patch_1">
   <path d="M 0 216 
L 504 216 
L 504 0 
L 0 0 
z
" style="fill:none;"/>
  </g>
  <g id="axes_1">
   <g id="patch_2">
    <path d="M 63 189 
L 453.6 189 
L 453.6 25.92 
L 63 25.92 
z
" style="fill:#ffffff;"/>
   </g>
   <g id="PathCollection_1">
    <path clip-path="url(#pce9678c0e8)" d="M 87.717112 191.86667 
C 88.654747 191.86667 89.554105 191.494144 90.217112 190.831136 
C 90.88012 190.168128 91.252646 189.26877 91.252646 188.331136 
C 91.252646 187.393501 90.88012 186.494144 90.217112 185.831136 
C 89.554105 185.168128 88.654747 184.795602 87.717112 184.795602 
C 86.779478 184.795602 85.88012 185.168128 85.217112 185.831136 
C 84.554105 186.494144 84.181578 187.393501 84.181578 188.331136 
C 84.181578 189.26877 84.554105 190.168128 85.217112 190.831136 
C 85.88012 191.494144 86.779478 191.86667 87.717112 191.86667 
z
" style="fill:none;stroke:#ffbb78;"/>
   </g>
   <g id="PathCollection_2">
    <path clip-path="url(#pce9678c0e8)" d="M 94.679679 191.572604 
C 95.617314 191.572604 96.516671 191.200078 97.179679 190.53707 
C 97.842687 189.874063 98.215213 188.974705 98.215213 188.03707 
C 98.215213 187.099436 97.842687 186.200078 97.179679 185.53707 
C 96.516671 184.874063 95.617314 184.501536 94.679679 184.501536 
C 93.742045 184.501536 92.842687 184.874063 92.179679 185.53707 
C 91.516671 186.200078 91.144145 187.099436 91.144145 188.03707 
C 91.144145 188.974705 91.516671 189.874063 92.179679 190.53707 
C 92.842687 191.200078 93.742045 191.572604 94.679679 191.572604 
z
" style="fill:none;stroke:#ffbb78;"/>
   </g>
   <g id="PathCollection_3">
    <path clip-path="url(#pce9678c0e8)" d="M 101.642246 191.45894 
C 102.579881 191.45894 103.479238 191.086414 104.142246 190.423407 
C 104.805254 189.760399 105.17778 188.861041 105.17778 187.923407 
C 105.17778 186.985772 104.805254 186.086414 104.142246 185.423407 
C 103.479238 184.760399 102.579881 184.387873 101.642246 184.387873 
C 100.704611 184.387873 99.805254 184.760399 99.142246 185.423407 
C 98.479238 186.086414 98.106712 186.985772 98.106712 187.923407 
C 98.106712 188.861041 98.479238 189.760399 99.142246 190.423407 
C 99.805254 191.086414 100.704611 191.45894 101.642246 191.45894 
z
" style="fill:none;stroke:#ffbb78;"/>
   </g>
   <g id="PathCollection_4">
    <path clip-path="url(#pce9678c0e8)" d="M 108.604813 191.318243 
C 109.542447 191.318243 110.441805 190.945717 111.104813 190.282709 
C 111.767821 189.619701 112.140347 188.720343 112.140347 187.782709 
C 112.140347 186.845074 111.767821 185.945717 111.104813 185.282709 
C 110.441805 184.619701 109.542447 184.247175 108.604813 184.247175 
C 107.667178 184.247175 106.767821 184.619701 106.104813 185.282709 
C 105.441805 185.945717 105.069279 186.845074 105.069279 187.782709 
C 105.069279 188.720343 105.441805 189.619701 106.104813 190.282709 
C 106.767821 190.945717 107.667178 191.318243 108.604813 191.318243 
z
" style="fill:none;stroke:#ffbb78;"/>
   </g>
   <g id="PathCollection_5">
    <path clip-path="url(#pce9678c0e8)" d="M 115.56738 190.989846 
C 116.505014 190.989846 117.404372 190.61732 118.06738 189.954312 
C 118.730387 189.291305 119.102914 188.391947 119.102914 187.454312 
C 119.102914 186.516678 118.730387 185.61732 118.06738 184.954312 
C 117.404372 184.291305 116.505014 183.918779 115.56738 183.918779 
C 114.629745 183.918779 113.730387 184.291305 113.06738 184.954312 
C 112.404372 185.61732 112.031846 186.516678 112.031846 187.454312 
C 112.031846 188.391947 112.404372 189.291305 113.06738 189.954312 
C 113.730387 190.61732 114.629745 190.989846 115.56738 190.989846 
z
" style="fill:none;stroke:#ffbb78;"/>
   </g>
   <g id="PathCollection_6">
    <path clip-path="url(#pce9678c0e8)" d="M 122.529947 190.353795 
C 123.467581 190.353795 124.366939 189.981268 125.029947 189.318261 
C 125.692954 188.655253 126.06548 187.755895 126.06548 186.818261 
C 126.06548 185.880626 125.692954 184.981268 125.029947 184.318261 
C 124.366939 183.655253 123.467581 183.282727 122.529947 183.282727 
C 121.592312 183.282727 120.692954 183.655253 120.029947 184.318261 
C 119.366939 184.981268 118.994413 185.880626 118.994413 186.818261 
C 118.994413 187.755895 119.366939 188.655253 120.029947 189.318261 
C 120.692954 189.981268 121.592312 190.353795 122.529947 190.353795 
z
" style="fill:none;stroke:#ffbb78;"/>
   </g>
   <g id="PathCollection_7">
    <path clip-path="url(#pce9678c0e8)" d="M 129.492513 189.325268 
C 130.430148 189.325268 131.329506 188.952742 131.992513 188.289734 
C 132.655521 187.626726 133.028047 186.727369 133.028047 185.789734 
C 133.028047 184.852099 132.655521 183.952742 131.992513 183.289734 
C 131.329506 182.626726 130.430148 182.2542 129.492513 182.2542 
C 128.554879 182.2542 127.655521 182.626726 126.992513 183.289734 
C 126.329506 183.952742 125.956979 184.852099 125.956979 185.789734 
C 125.956979 186.727369 126.329506 187.626726 126.992513 188.289734 
C 127.655521 188.952742 128.554879 189.325268 129.492513 189.325268 
z
" style="fill:none;stroke:#ffbb78;"/>
   </g>
   <g id="PathCollection_8">
    <path clip-path="url(#pce9678c0e8)" d="M 136.45508 187.84948 
C 137.392715 187.84948 138.292072 187.476954 138.95508 186.813946 
C 139.618088 186.150938 139.990614 185.251581 139.990614 184.313946 
C 139.990614 183.376312 139.618088 182.476954 138.95508 181.813946 
C 138.292072 181.150938 137.392715 180.778412 136.45508 180.778412 
C 135.517446 180.778412 134.618088 181.150938 133.95508 181.813946 
C 133.292072 182.476954 132.919546 183.376312 132.919546 184.313946 
C 132.919546 185.251581 133.292072 186.150938 133.95508 186.813946 
C 134.618088 187.476954 135.517446 187.84948 136.45508 187.84948 
z
" style="fill:none;stroke:#ffbb78;"/>
   </g>
   <g id="PathCollection_9">
    <path clip-path="url(#pce9678c0e8)" d="M 143.417647 185.897025 
C 144.355282 185.897025 145.254639 185.524498 145.917647 184.861491 
C 146.580655 184.198483 146.953181 183.299125 146.953181 182.361491 
C 146.953181 181.423856 146.580655 180.524498 145.917647 179.861491 
C 145.254639 179.198483 144.355282 178.825957 143.417647 178.825957 
C 142.480013 178.825957 141.580655 179.198483 140.917647 179.861491 
C 140.254639 180.524498 139.882113 181.423856 139.882113 182.361491 
C 139.882113 183.299125 140.254639 184.198483 140.917647 184.861491 
C 141.580655 185.524498 142.480013 185.897025 143.417647 185.897025 
z
" style="fill:none;stroke:#ffbb78;"/>
   </g>
   <g id="PathCollection_10">
    <path clip-path="url(#pce9678c0e8)" d="M 150.380214 183.459655 
C 151.317848 183.459655 152.217206 183.087129 152.880214 182.424121 
C 153.543222 181.761113 153.915748 180.861755 153.915748 179.924121 
C 153.915748 178.986486 153.543222 178.087129 152.880214 177.424121 
C 152.217206 176.761113 151.317848 176.388587 150.380214 176.388587 
C 149.442579 176.388587 148.543222 176.761113 147.880214 177.424121 
C 147.217206 178.087129 146.84468 178.986486 146.84468 179.924121 
C 146.84468 180.861755 147.217206 181.761113 147.880214 182.424121 
C 148.543222 183.087129 149.442579 183.459655 150.380214 183.459655 
z
" style="fill:none;stroke:#ffbb78;"/>
   </g>
   <g id="PathCollection_11">
    <path clip-path="url(#pce9678c0e8)" d="M 157.342781 180.546469 
C 158.280415 180.546469 159.179773 180.173943 159.842781 179.510935 
C 160.505788 178.847928 160.878315 177.94857 160.878315 177.010935 
C 160.878315 176.073301 160.505788 175.173943 159.842781 174.510935 
C 159.179773 173.847928 158.280415 173.475401 157.342781 173.475401 
C 156.405146 173.475401 155.505788 173.847928 154.842781 174.510935 
C 154.179773 175.173943 153.807247 176.073301 153.807247 177.010935 
C 153.807247 177.94857 154.179773 178.847928 154.842781 179.510935 
C 155.505788 180.173943 156.405146 180.546469 157.342781 180.546469 
z
" style="fill:none;stroke:#ffbb78;"/>
   </g>
   <g id="PathCollection_12">
    <path clip-path="url(#pce9678c0e8)" d="M 164.305348 177.180493 
C 165.242982 177.180493 166.14234 176.807967 166.805348 176.144959 
C 167.468355 175.481952 167.840881 174.582594 167.840881 173.644959 
C 167.840881 172.707325 167.468355 171.807967 166.805348 171.144959 
C 166.14234 170.481952 165.242982 170.109425 164.305348 170.109425 
C 163.367713 170.109425 162.468355 170.481952 161.805348 171.144959 
C 161.14234 171.807967 160.769814 172.707325 160.769814 173.644959 
C 160.769814 174.582594 161.14234 175.481952 161.805348 176.144959 
C 162.468355 176.807967 163.367713 177.180493 164.305348 177.180493 
z
" style="fill:none;stroke:#ffbb78;"/>
   </g>
   <g id="PathCollection_13">
    <path clip-path="url(#pce9678c0e8)" d="M 171.267914 173.395628 
C 172.205549 173.395628 173.104907 173.023101 173.767914 172.360094 
C 174.430922 171.697086 174.803448 170.797728 174.803448 169.860094 
C 174.803448 168.922459 174.430922 168.023101 173.767914 167.360094 
C 173.104907 166.697086 172.205549 166.32456 171.267914 166.32456 
C 170.33028 166.32456 169.430922 166.697086 168.767914 167.360094 
C 168.104907 168.023101 167.732381 168.922459 167.732381 169.860094 
C 167.732381 170.797728 168.104907 171.697086 168.767914 172.360094 
C 169.430922 173.023101 170.33028 173.395628 171.267914 173.395628 
z
" style="fill:none;stroke:#ffbb78;"/>
   </g>
   <g id="PathCollection_14">
    <path clip-path="url(#pce9678c0e8)" d="M 178.230481 169.233951 
C 179.168116 169.233951 180.067474 168.861425 180.730481 168.198417 
C 181.393489 167.53541 181.766015 166.636052 181.766015 165.698417 
C 181.766015 164.760783 181.393489 163.861425 180.730481 163.198417 
C 180.067474 162.53541 179.168116 162.162883 178.230481 162.162883 
C 177.292847 162.162883 176.393489 162.53541 175.730481 163.198417 
C 175.067474 163.861425 174.694947 164.760783 174.694947 165.698417 
C 174.694947 166.636052 175.067474 167.53541 175.730481 168.198417 
C 176.393489 168.861425 177.292847 169.233951 178.230481 169.233951 
z
" style="fill:none;stroke:#ffbb78;"/>
   </g>
   <g id="PathCollection_15">
    <path clip-path="url(#pce9678c0e8)" d="M 185.193048 164.743356 
C 186.130683 164.743356 187.03004 164.37083 187.693048 163.707822 
C 188.356056 163.044814 188.728582 162.145456 188.728582 161.207822 
C 188.728582 160.270187 188.356056 159.37083 187.693048 158.707822 
C 187.03004 158.044814 186.130683 157.672288 185.193048 157.672288 
C 184.255414 157.672288 183.356056 158.044814 182.693048 158.707822 
C 182.03004 159.37083 181.657514 160.270187 181.657514 161.207822 
C 181.657514 162.145456 182.03004 163.044814 182.693048 163.707822 
C 183.356056 164.37083 184.255414 164.743356 185.193048 164.743356 
z
" style="fill:none;stroke:#ffbb78;"/>
   </g>
   <g id="PathCollection_16">
    <path clip-path="url(#pce9678c0e8)" d="M 192.155615 159.97549 
C 193.09325 159.97549 193.992607 159.602964 194.655615 158.939956 
C 195.318623 158.276948 195.691149 157.377591 195.691149 156.439956 
C 195.691149 155.502321 195.318623 154.602964 194.655615 153.939956 
C 193.992607 153.276948 193.09325 152.904422 192.155615 152.904422 
C 191.21798 152.904422 190.318623 153.276948 189.655615 153.939956 
C 188.992607 154.602964 188.620081 155.502321 188.620081 156.439956 
C 188.620081 157.377591 188.992607 158.276948 189.655615 158.939956 
C 190.318623 159.602964 191.21798 159.97549 192.155615 159.97549 
z
" style="fill:none;stroke:#ffbb78;"/>
   </g>
   <g id="PathCollection_17">
    <path clip-path="url(#pce9678c0e8)" d="M 199.118182 154.983999 
C 200.055816 154.983999 200.955174 154.611473 201.618182 153.948465 
C 202.28119 153.285457 202.653716 152.3861 202.653716 151.448465 
C 202.653716 150.51083 202.28119 149.611473 201.618182 148.948465 
C 200.955174 148.285457 200.055816 147.912931 199.118182 147.912931 
C 198.180547 147.912931 197.28119 148.285457 196.618182 148.948465 
C 195.955174 149.611473 195.582648 150.51083 195.582648 151.448465 
C 195.582648 152.3861 195.955174 153.285457 196.618182 153.948465 
C 197.28119 154.611473 198.180547 154.983999 199.118182 154.983999 
z
" style="fill:none;stroke:#ffbb78;"/>
   </g>
   <g id="PathCollection_18">
    <path clip-path="url(#pce9678c0e8)" d="M 206.080749 149.823036 
C 207.018383 149.823036 207.917741 149.45051 208.580749 148.787502 
C 209.243756 148.124494 209.616283 147.225136 209.616283 146.287502 
C 209.616283 145.349867 209.243756 144.45051 208.580749 143.787502 
C 207.917741 143.124494 207.018383 142.751968 206.080749 142.751968 
C 205.143114 142.751968 204.243756 143.124494 203.580749 143.787502 
C 202.917741 144.45051 202.545215 145.349867 202.545215 146.287502 
C 202.545215 147.225136 202.917741 148.124494 203.580749 148.787502 
C 204.243756 149.45051 205.143114 149.823036 206.080749 149.823036 
z
" style="fill:none;stroke:#ffbb78;"/>
   </g>
   <g id="PathCollection_19">
    <path clip-path="url(#pce9678c0e8)" d="M 213.043316 144.546025 
C 213.98095 144.546025 214.880308 144.173499 215.543316 143.510491 
C 216.206323 142.847483 216.578849 141.948125 216.578849 141.010491 
C 216.578849 140.072856 216.206323 139.173499 215.543316 138.510491 
C 214.880308 137.847483 213.98095 137.474957 213.043316 137.474957 
C 212.105681 137.474957 211.206323 137.847483 210.543316 138.510491 
C 209.880308 139.173499 209.507782 140.072856 209.507782 141.010491 
C 209.507782 141.948125 209.880308 142.847483 210.543316 143.510491 
C 211.206323 144.173499 212.105681 144.546025 213.043316 144.546025 
z
" style="fill:none;stroke:#ffbb78;"/>
   </g>
   <g id="PathCollection_20">
    <path clip-path="url(#pce9678c0e8)" d="M 220.005882 139.204659 
C 220.943517 139.204659 221.842875 138.832133 222.505882 138.169125 
C 223.16889 137.506117 223.541416 136.60676 223.541416 135.669125 
C 223.541416 134.73149 223.16889 133.832133 222.505882 133.169125 
C 221.842875 132.506117 220.943517 132.133591 220.005882 132.133591 
C 219.068248 132.133591 218.16889 132.506117 217.505882 133.169125 
C 216.842875 133.832133 216.470348 134.73149 216.470348 135.669125 
C 216.470348 136.60676 216.842875 137.506117 217.505882 138.169125 
C 218.16889 138.832133 219.068248 139.204659 220.005882 139.204659 
z
" style="fill:none;stroke:#ffbb78;"/>
   </g>
   <g id="PathCollection_21">
    <path clip-path="url(#pce9678c0e8)" d="M 226.968449 133.848112 
C 227.906084 133.848112 228.805441 133.475586 229.468449 132.812578 
C 230.131457 132.149571 230.503983 131.250213 230.503983 130.312578 
C 230.503983 129.374944 230.131457 128.475586 229.468449 127.812578 
C 228.805441 127.149571 227.906084 126.777045 226.968449 126.777045 
C 226.030815 126.777045 225.131457 127.149571 224.468449 127.812578 
C 223.805441 128.475586 223.432915 129.374944 223.432915 130.312578 
C 223.432915 131.250213 223.805441 132.149571 224.468449 132.812578 
C 225.131457 133.475586 226.030815 133.848112 226.968449 133.848112 
z
" style="fill:none;stroke:#ffbb78;"/>
   </g>
   <g id="PathCollection_22">
    <path clip-path="url(#pce9678c0e8)" d="M 233.931016 128.522444 
C 234.868651 128.522444 235.768008 128.149918 236.431016 127.48691 
C 237.094024 126.823902 237.46655 125.924545 237.46655 124.98691 
C 237.46655 124.049276 237.094024 123.149918 236.431016 122.48691 
C 235.768008 121.823902 234.868651 121.451376 233.931016 121.451376 
C 232.993381 121.451376 232.094024 121.823902 231.431016 122.48691 
C 230.768008 123.149918 230.395482 124.049276 230.395482 124.98691 
C 230.395482 125.924545 230.768008 126.823902 231.431016 127.48691 
C 232.094024 128.149918 232.993381 128.522444 233.931016 128.522444 
z
" style="fill:none;stroke:#ffbb78;"/>
   </g>
   <g id="PathCollection_23">
    <path clip-path="url(#pce9678c0e8)" d="M 240.893583 123.270178 
C 241.831217 123.270178 242.730575 122.897652 243.393583 122.234644 
C 244.056591 121.571636 244.429117 120.672278 244.429117 119.734644 
C 244.429117 118.797009 244.056591 117.897652 243.393583 117.234644 
C 242.730575 116.571636 241.831217 116.19911 240.893583 116.19911 
C 239.955948 116.19911 239.056591 116.571636 238.393583 117.234644 
C 237.730575 117.897652 237.358049 118.797009 237.358049 119.734644 
C 237.358049 120.672278 237.730575 121.571636 238.393583 122.234644 
C 239.056591 122.897652 239.955948 123.270178 240.893583 123.270178 
z
" style="fill:none;stroke:#ffbb78;"/>
   </g>
   <g id="PathCollection_24">
    <path clip-path="url(#pce9678c0e8)" d="M 247.85615 118.130035 
C 248.793784 118.130035 249.693142 117.757509 250.35615 117.094501 
C 251.019157 116.431494 251.391684 115.532136 251.391684 114.594501 
C 251.391684 113.656867 251.019157 112.757509 250.35615 112.094501 
C 249.693142 111.431494 248.793784 111.058968 247.85615 111.058968 
C 246.918515 111.058968 246.019157 111.431494 245.35615 112.094501 
C 244.693142 112.757509 244.320616 113.656867 244.320616 114.594501 
C 244.320616 115.532136 244.693142 116.431494 245.35615 117.094501 
C 246.019157 117.757509 246.918515 118.130035 247.85615 118.130035 
z
" style="fill:none;stroke:#ffbb78;"/>
   </g>
   <g id="PathCollection_25">
    <path clip-path="url(#pce9678c0e8)" d="M 254.818717 113.136807 
C 255.756351 113.136807 256.655709 112.764281 257.318717 112.101273 
C 257.981724 111.438265 258.35425 110.538908 258.35425 109.601273 
C 258.35425 108.663638 257.981724 107.764281 257.318717 107.101273 
C 256.655709 106.438265 255.756351 106.065739 254.818717 106.065739 
C 253.881082 106.065739 252.981724 106.438265 252.318717 107.101273 
C 251.655709 107.764281 251.283183 108.663638 251.283183 109.601273 
C 251.283183 110.538908 251.655709 111.438265 252.318717 112.101273 
C 252.981724 112.764281 253.881082 113.136807 254.818717 113.136807 
z
" style="fill:none;stroke:#ffbb78;"/>
   </g>
   <g id="PathCollection_26">
    <path clip-path="url(#pce9678c0e8)" d="M 261.781283 108.321332 
C 262.718918 108.321332 263.618276 107.948806 264.281283 107.285798 
C 264.944291 106.62279 265.316817 105.723433 265.316817 104.785798 
C 265.316817 103.848164 264.944291 102.948806 264.281283 102.285798 
C 263.618276 101.62279 262.718918 101.250264 261.781283 101.250264 
C 260.843649 101.250264 259.944291 101.62279 259.281283 102.285798 
C 258.618276 102.948806 258.24575 103.848164 258.24575 104.785798 
C 258.24575 105.723433 258.618276 106.62279 259.281283 107.285798 
C 259.944291 107.948806 260.843649 108.321332 261.781283 108.321332 
z
" style="fill:none;stroke:#ffbb78;"/>
   </g>
   <g id="PathCollection_27">
    <path clip-path="url(#pce9678c0e8)" d="M 268.74385 103.710583 
C 269.681485 103.710583 270.580843 103.338057 271.24385 102.675049 
C 271.906858 102.012041 272.279384 101.112683 272.279384 100.175049 
C 272.279384 99.237414 271.906858 98.338057 271.24385 97.675049 
C 270.580843 97.012041 269.681485 96.639515 268.74385 96.639515 
C 267.806216 96.639515 266.906858 97.012041 266.24385 97.675049 
C 265.580843 98.338057 265.208316 99.237414 265.208316 100.175049 
C 265.208316 101.112683 265.580843 102.012041 266.24385 102.675049 
C 266.906858 103.338057 267.806216 103.710583 268.74385 103.710583 
z
" style="fill:none;stroke:#ffbb78;"/>
   </g>
   <g id="PathCollection_28">
    <path clip-path="url(#pce9678c0e8)" d="M 275.706417 99.327814 
C 276.644052 99.327814 277.543409 98.955287 278.206417 98.29228 
C 278.869425 97.629272 279.241951 96.729914 279.241951 95.79228 
C 279.241951 94.854645 278.869425 93.955287 278.206417 93.29228 
C 277.543409 92.629272 276.644052 92.256746 275.706417 92.256746 
C 274.768783 92.256746 273.869425 92.629272 273.206417 93.29228 
C 272.543409 93.955287 272.170883 94.854645 272.170883 95.79228 
C 272.170883 96.729914 272.543409 97.629272 273.206417 98.29228 
C 273.869425 98.955287 274.768783 99.327814 275.706417 99.327814 
z
" style="fill:none;stroke:#ffbb78;"/>
   </g>
   <g id="PathCollection_29">
    <path clip-path="url(#pce9678c0e8)" d="M 282.668984 95.192778 
C 283.606619 95.192778 284.505976 94.820251 285.168984 94.157244 
C 285.831992 93.494236 286.204518 92.594878 286.204518 91.657244 
C 286.204518 90.719609 285.831992 89.820251 285.168984 89.157244 
C 284.505976 88.494236 283.606619 88.12171 282.668984 88.12171 
C 281.731349 88.12171 280.831992 88.494236 280.168984 89.157244 
C 279.505976 89.820251 279.13345 90.719609 279.13345 91.657244 
C 279.13345 92.594878 279.505976 93.494236 280.168984 94.157244 
C 280.831992 94.820251 281.731349 95.192778 282.668984 95.192778 
z
" style="fill:none;stroke:#ffbb78;"/>
   </g>
   <g id="PathCollection_30">
    <path clip-path="url(#pce9678c0e8)" d="M 289.631551 91.32197 
C 290.569185 91.32197 291.468543 90.949444 292.131551 90.286436 
C 292.794559 89.623429 293.167085 88.724071 293.167085 87.786436 
C 293.167085 86.848802 292.794559 85.949444 292.131551 85.286436 
C 291.468543 84.623429 290.569185 84.250903 289.631551 84.250903 
C 288.693916 84.250903 287.794559 84.623429 287.131551 85.286436 
C 286.468543 85.949444 286.096017 86.848802 286.096017 87.786436 
C 286.096017 88.724071 286.468543 89.623429 287.131551 90.286436 
C 287.794559 90.949444 288.693916 91.32197 289.631551 91.32197 
z
" style="fill:none;stroke:#ffbb78;"/>
   </g>
   <g id="PathCollection_31">
    <path clip-path="url(#pce9678c0e8)" d="M 296.594118 87.728895 
C 297.531752 87.728895 298.43111 87.356369 299.094118 86.693361 
C 299.757125 86.030354 300.129652 85.130996 300.129652 84.193361 
C 300.129652 83.255727 299.757125 82.356369 299.094118 81.693361 
C 298.43111 81.030354 297.531752 80.657827 296.594118 80.657827 
C 295.656483 80.657827 294.757125 81.030354 294.094118 81.693361 
C 293.43111 82.356369 293.058584 83.255727 293.058584 84.193361 
C 293.058584 85.130996 293.43111 86.030354 294.094118 86.693361 
C 294.757125 87.356369 295.656483 87.728895 296.594118 87.728895 
z
" style="fill:none;stroke:#ffbb78;"/>
   </g>
   <g id="PathCollection_32">
    <path clip-path="url(#pce9678c0e8)" d="M 303.556684 84.424325 
C 304.494319 84.424325 305.393677 84.051799 306.056684 83.388791 
C 306.719692 82.725783 307.092218 81.826425 307.092218 80.888791 
C 307.092218 79.951156 306.719692 79.051799 306.056684 78.388791 
C 305.393677 77.725783 304.494319 77.353257 303.556684 77.353257 
C 302.61905 77.353257 301.719692 77.725783 301.056684 78.388791 
C 300.393677 79.051799 300.021151 79.951156 300.021151 80.888791 
C 300.021151 81.826425 300.393677 82.725783 301.056684 83.388791 
C 301.719692 84.051799 302.61905 84.424325 303.556684 84.424325 
z
" style="fill:none;stroke:#ffbb78;"/>
   </g>
   <g id="PathCollection_33">
    <path clip-path="url(#pce9678c0e8)" d="M 310.519251 81.416536 
C 311.456886 81.416536 312.356244 81.04401 313.019251 80.381002 
C 313.682259 79.717995 314.054785 78.818637 314.054785 77.881002 
C 314.054785 76.943368 313.682259 76.04401 313.019251 75.381002 
C 312.356244 74.717995 311.456886 74.345468 310.519251 74.345468 
C 309.581617 74.345468 308.682259 74.717995 308.019251 75.381002 
C 307.356244 76.04401 306.983717 76.943368 306.983717 77.881002 
C 306.983717 78.818637 307.356244 79.717995 308.019251 80.381002 
C 308.682259 81.04401 309.581617 81.416536 310.519251 81.416536 
z
" style="fill:none;stroke:#ffbb78;"/>
   </g>
   <g id="PathCollection_34">
    <path clip-path="url(#pce9678c0e8)" d="M 317.481818 78.711511 
C 318.419453 78.711511 319.31881 78.338985 319.981818 77.675977 
C 320.644826 77.01297 321.017352 76.113612 321.017352 75.175977 
C 321.017352 74.238343 320.644826 73.338985 319.981818 72.675977 
C 319.31881 72.01297 318.419453 71.640443 317.481818 71.640443 
C 316.544184 71.640443 315.644826 72.01297 314.981818 72.675977 
C 314.31881 73.338985 313.946284 74.238343 313.946284 75.175977 
C 313.946284 76.113612 314.31881 77.01297 314.981818 77.675977 
C 315.644826 78.338985 316.544184 78.711511 317.481818 78.711511 
z
" style="fill:none;stroke:#ffbb78;"/>
   </g>
   <g id="PathCollection_35">
    <path clip-path="url(#pce9678c0e8)" d="M 324.444385 76.313066 
C 325.38202 76.313066 326.281377 75.94054 326.944385 75.277532 
C 327.607393 74.614524 327.979919 73.715166 327.979919 72.777532 
C 327.979919 71.839897 327.607393 70.94054 326.944385 70.277532 
C 326.281377 69.614524 325.38202 69.241998 324.444385 69.241998 
C 323.50675 69.241998 322.607393 69.614524 321.944385 70.277532 
C 321.281377 70.94054 320.908851 71.839897 320.908851 72.777532 
C 320.908851 73.715166 321.281377 74.614524 321.944385 75.277532 
C 322.607393 75.94054 323.50675 76.313066 324.444385 76.313066 
z
" style="fill:none;stroke:#ffbb78;"/>
   </g>
   <g id="PathCollection_36">
    <path clip-path="url(#pce9678c0e8)" d="M 331.406952 74.222903 
C 332.344586 74.222903 333.243944 73.850377 333.906952 73.187369 
C 334.56996 72.524362 334.942486 71.625004 334.942486 70.687369 
C 334.942486 69.749735 334.56996 68.850377 333.906952 68.187369 
C 333.243944 67.524362 332.344586 67.151835 331.406952 67.151835 
C 330.469317 67.151835 329.56996 67.524362 328.906952 68.187369 
C 328.243944 68.850377 327.871418 69.749735 327.871418 70.687369 
C 327.871418 71.625004 328.243944 72.524362 328.906952 73.187369 
C 329.56996 73.850377 330.469317 74.222903 331.406952 74.222903 
z
" style="fill:none;stroke:#ffbb78;"/>
   </g>
   <g id="PathCollection_37">
    <path clip-path="url(#pce9678c0e8)" d="M 338.369519 72.440565 
C 339.307153 72.440565 340.206511 72.068039 340.869519 71.405031 
C 341.532526 70.742023 341.905053 69.842666 341.905053 68.905031 
C 341.905053 67.967397 341.532526 67.068039 340.869519 66.405031 
C 340.206511 65.742023 339.307153 65.369497 338.369519 65.369497 
C 337.431884 65.369497 336.532526 65.742023 335.869519 66.405031 
C 335.206511 67.068039 334.833985 67.967397 334.833985 68.905031 
C 334.833985 69.842666 335.206511 70.742023 335.869519 71.405031 
C 336.532526 72.068039 337.431884 72.440565 338.369519 72.440565 
z
" style="fill:none;stroke:#ffbb78;"/>
   </g>
   <g id="PathCollection_38">
    <path clip-path="url(#pce9678c0e8)" d="M 345.332086 70.963258 
C 346.26972 70.963258 347.169078 70.590732 347.832086 69.927724 
C 348.495093 69.264716 348.867619 68.365359 348.867619 67.427724 
C 348.867619 66.490089 348.495093 65.590732 347.832086 64.927724 
C 347.169078 64.264716 346.26972 63.89219 345.332086 63.89219 
C 344.394451 63.89219 343.495093 64.264716 342.832086 64.927724 
C 342.169078 65.590732 341.796552 66.490089 341.796552 67.427724 
C 341.796552 68.365359 342.169078 69.264716 342.832086 69.927724 
C 343.495093 70.590732 344.394451 70.963258 345.332086 70.963258 
z
" style="fill:none;stroke:#ffbb78;"/>
   </g>
   <g id="PathCollection_39">
    <path clip-path="url(#pce9678c0e8)" d="M 352.294652 69.785543 
C 353.232287 69.785543 354.131645 69.413017 354.794652 68.750009 
C 355.45766 68.087001 355.830186 67.187643 355.830186 66.250009 
C 355.830186 65.312374 355.45766 64.413017 354.794652 63.750009 
C 354.131645 63.087001 353.232287 62.714475 352.294652 62.714475 
C 351.357018 62.714475 350.45766 63.087001 349.794652 63.750009 
C 349.131645 64.413017 348.759119 65.312374 348.759119 66.250009 
C 348.759119 67.187643 349.131645 68.087001 349.794652 68.750009 
C 350.45766 69.413017 351.357018 69.785543 352.294652 69.785543 
z
" style="fill:none;stroke:#ffbb78;"/>
   </g>
   <g id="PathCollection_40">
    <path clip-path="url(#pce9678c0e8)" d="M 359.257219 68.898861 
C 360.194854 68.898861 361.094212 68.526335 361.757219 67.863327 
C 362.420227 67.200319 362.792753 66.300962 362.792753 65.363327 
C 362.792753 64.425693 362.420227 63.526335 361.757219 62.863327 
C 361.094212 62.200319 360.194854 61.827793 359.257219 61.827793 
C 358.319585 61.827793 357.420227 62.200319 356.757219 62.863327 
C 356.094212 63.526335 355.721685 64.425693 355.721685 65.363327 
C 355.721685 66.300962 356.094212 67.200319 356.757219 67.863327 
C 357.420227 68.526335 358.319585 68.898861 359.257219 68.898861 
z
" style="fill:none;stroke:#ffbb78;"/>
   </g>
   <g id="PathCollection_41">
    <path clip-path="url(#pce9678c0e8)" d="M 366.219786 68.290883 
C 367.157421 68.290883 368.056778 67.918356 368.719786 67.255349 
C 369.382794 66.592341 369.75532 65.692983 369.75532 64.755349 
C 369.75532 63.817714 369.382794 62.918356 368.719786 62.255349 
C 368.056778 61.592341 367.157421 61.219815 366.219786 61.219815 
C 365.282152 61.219815 364.382794 61.592341 363.719786 62.255349 
C 363.056778 62.918356 362.684252 63.817714 362.684252 64.755349 
C 362.684252 65.692983 363.056778 66.592341 363.719786 67.255349 
C 364.382794 67.918356 365.282152 68.290883 366.219786 68.290883 
z
" style="fill:none;stroke:#ffbb78;"/>
   </g>
   <g id="PathCollection_42">
    <path clip-path="url(#pce9678c0e8)" d="M 373.182353 67.94465 
C 374.119987 67.94465 375.019345 67.572124 375.682353 66.909116 
C 376.345361 66.246109 376.717887 65.346751 376.717887 64.409116 
C 376.717887 63.471482 376.345361 62.572124 375.682353 61.909116 
C 375.019345 61.246109 374.119987 60.873583 373.182353 60.873583 
C 372.244718 60.873583 371.345361 61.246109 370.682353 61.909116 
C 370.019345 62.572124 369.646819 63.471482 369.646819 64.409116 
C 369.646819 65.346751 370.019345 66.246109 370.682353 66.909116 
C 371.345361 67.572124 372.244718 67.94465 373.182353 67.94465 
z
" style="fill:none;stroke:#ffbb78;"/>
   </g>
   <g id="PathCollection_43">
    <path clip-path="url(#pce9678c0e8)" d="M 380.14492 67.837509 
C 381.082554 67.837509 381.981912 67.464983 382.64492 66.801975 
C 383.307928 66.138967 383.680454 65.239609 383.680454 64.301975 
C 383.680454 63.36434 383.307928 62.464983 382.64492 61.801975 
C 381.981912 61.138967 381.082554 60.766441 380.14492 60.766441 
C 379.207285 60.766441 378.307928 61.138967 377.64492 61.801975 
C 376.981912 62.464983 376.609386 63.36434 376.609386 64.301975 
C 376.609386 65.239609 376.981912 66.138967 377.64492 66.801975 
C 378.307928 67.464983 379.207285 67.837509 380.14492 67.837509 
z
" style="fill:none;stroke:#ffbb78;"/>
   </g>
   <g id="PathCollection_44">
    <path clip-path="url(#pce9678c0e8)" d="M 387.107487 67.939791 
C 388.045121 67.939791 388.944479 67.567264 389.607487 66.904257 
C 390.270494 66.241249 390.643021 65.341891 390.643021 64.404257 
C 390.643021 63.466622 390.270494 62.567264 389.607487 61.904257 
C 388.944479 61.241249 388.045121 60.868723 387.107487 60.868723 
C 386.169852 60.868723 385.270494 61.241249 384.607487 61.904257 
C 383.944479 62.567264 383.571953 63.466622 383.571953 64.404257 
C 383.571953 65.341891 383.944479 66.241249 384.607487 66.904257 
C 385.270494 67.567264 386.169852 67.939791 387.107487 67.939791 
z
" style="fill:none;stroke:#ffbb78;"/>
   </g>
   <g id="PathCollection_45">
    <path clip-path="url(#pce9678c0e8)" d="M 394.070053 68.213246 
C 395.007688 68.213246 395.907046 67.84072 396.570053 67.177712 
C 397.233061 66.514704 397.605587 65.615346 397.605587 64.677712 
C 397.605587 63.740077 397.233061 62.84072 396.570053 62.177712 
C 395.907046 61.514704 395.007688 61.142178 394.070053 61.142178 
C 393.132419 61.142178 392.233061 61.514704 391.570053 62.177712 
C 390.907046 62.84072 390.53452 63.740077 390.53452 64.677712 
C 390.53452 65.615346 390.907046 66.514704 391.570053 67.177712 
C 392.233061 67.84072 393.132419 68.213246 394.070053 68.213246 
z
" style="fill:none;stroke:#ffbb78;"/>
   </g>
   <g id="PathCollection_46">
    <path clip-path="url(#pce9678c0e8)" d="M 401.03262 68.609189 
C 401.970255 68.609189 402.869613 68.236663 403.53262 67.573655 
C 404.195628 66.910647 404.568154 66.01129 404.568154 65.073655 
C 404.568154 64.136021 404.195628 63.236663 403.53262 62.573655 
C 402.869613 61.910647 401.970255 61.538121 401.03262 61.538121 
C 400.094986 61.538121 399.195628 61.910647 398.53262 62.573655 
C 397.869613 63.236663 397.497086 64.136021 397.497086 65.073655 
C 397.497086 66.01129 397.869613 66.910647 398.53262 67.573655 
C 399.195628 68.236663 400.094986 68.609189 401.03262 68.609189 
z
" style="fill:none;stroke:#ffbb78;"/>
   </g>
   <g id="PathCollection_47">
    <path clip-path="url(#pce9678c0e8)" d="M 407.995187 69.066352 
C 408.932822 69.066352 409.832179 68.693826 410.495187 68.030818 
C 411.158195 67.36781 411.530721 66.468453 411.530721 65.530818 
C 411.530721 64.593184 411.158195 63.693826 410.495187 63.030818 
C 409.832179 62.36781 408.932822 61.995284 407.995187 61.995284 
C 407.057553 61.995284 406.158195 62.36781 405.495187 63.030818 
C 404.832179 63.693826 404.459653 64.593184 404.459653 65.530818 
C 404.459653 66.468453 404.832179 67.36781 405.495187 68.030818 
C 406.158195 68.693826 407.057553 69.066352 407.995187 69.066352 
z
" style="fill:none;stroke:#ffbb78;"/>
   </g>
   <g id="PathCollection_48">
    <path clip-path="url(#pce9678c0e8)" d="M 414.957754 69.508416 
C 415.895389 69.508416 416.794746 69.13589 417.457754 68.472882 
C 418.120762 67.809874 418.493288 66.910517 418.493288 65.972882 
C 418.493288 65.035248 418.120762 64.13589 417.457754 63.472882 
C 416.794746 62.809874 415.895389 62.437348 414.957754 62.437348 
C 414.020119 62.437348 413.120762 62.809874 412.457754 63.472882 
C 411.794746 64.13589 411.42222 65.035248 411.42222 65.972882 
C 411.42222 66.910517 411.794746 67.809874 412.457754 68.472882 
C 413.120762 69.13589 414.020119 69.508416 414.957754 69.508416 
z
" style="fill:none;stroke:#ffbb78;"/>
   </g>
   <g id="PathCollection_49">
    <path clip-path="url(#pce9678c0e8)" d="M 421.920321 69.841204 
C 422.857955 69.841204 423.757313 69.468678 424.420321 68.80567 
C 425.083329 68.142663 425.455855 67.243305 425.455855 66.30567 
C 425.455855 65.368036 425.083329 64.468678 424.420321 63.80567 
C 423.757313 63.142663 422.857955 62.770136 421.920321 62.770136 
C 420.982686 62.770136 420.083329 63.142663 419.420321 63.80567 
C 418.757313 64.468678 418.384787 65.368036 418.384787 66.30567 
C 418.384787 67.243305 418.757313 68.142663 419.420321 68.80567 
C 420.083329 69.468678 420.982686 69.841204 421.920321 69.841204 
z
" style="fill:none;stroke:#ffbb78;"/>
   </g>
   <g id="PathCollection_50">
    <path clip-path="url(#pce9678c0e8)" d="M 428.882888 69.949521 
C 429.820522 69.949521 430.71988 69.576995 431.382888 68.913987 
C 432.045895 68.25098 432.418422 67.351622 432.418422 66.413987 
C 432.418422 65.476353 432.045895 64.576995 431.382888 63.913987 
C 430.71988 63.25098 429.820522 62.878454 428.882888 62.878454 
C 427.945253 62.878454 427.045895 63.25098 426.382888 63.913987 
C 425.71988 64.576995 425.347354 65.476353 425.347354 66.413987 
C 425.347354 67.351622 425.71988 68.25098 426.382888 68.913987 
C 427.045895 69.576995 427.945253 69.949521 428.882888 69.949521 
z
" style="fill:none;stroke:#ffbb78;"/>
   </g>
   <g id="PathCollection_51">
    <path clip-path="url(#pce9678c0e8)" d="M 435.845455 69.69361 
C 436.783089 69.69361 437.682447 69.321084 438.345455 68.658076 
C 439.008462 67.995069 439.380988 67.095711 439.380988 66.158076 
C 439.380988 65.220442 439.008462 64.321084 438.345455 63.658076 
C 437.682447 62.995069 436.783089 62.622543 435.845455 62.622543 
C 434.90782 62.622543 434.008462 62.995069 433.345455 63.658076 
C 432.682447 64.321084 432.309921 65.220442 432.309921 66.158076 
C 432.309921 67.095711 432.682447 67.995069 433.345455 68.658076 
C 434.008462 69.321084 434.90782 69.69361 435.845455 69.69361 
z
" style="fill:none;stroke:#ffbb78;"/>
   </g>
   <g id="PathCollection_52">
    <defs>
     <path d="M 0 3.535534 
C 0.937635 3.535534 1.836992 3.163008 2.5 2.5 
C 3.163008 1.836992 3.535534 0.937635 3.535534 0 
C 3.535534 -0.937635 3.163008 -1.836992 2.5 -2.5 
C 1.836992 -3.163008 0.937635 -3.535534 0 -3.535534 
C -0.937635 -3.535534 -1.836992 -3.163008 -2.5 -2.5 
C -3.163008 -1.836992 -3.535534 -0.937635 -3.535534 0 
C -3.535534 0.937635 -3.163008 1.836992 -2.5 2.5 
C -1.836992 3.163008 -0.937635 3.535534 0 3.535534 
z
" id="m092dfd3d7e" style="stroke:#ffbb78;"/>
    </defs>
    <g clip-path="url(#pce9678c0e8)">
     <use style="fill:#ffbb78;stroke:#ffbb78;" x="87.717112" xlink:href="#m092dfd3d7e" y="189.082724"/>
    </g>
   </g>
   <g id="PathCollection_53">
    <g clip-path="url(#pce9678c0e8)">
     <use style="fill:#ffbb78;stroke:#ffbb78;" x="94.679679" xlink:href="#m092dfd3d7e" y="188.855069"/>
    </g>
   </g>
   <g id="PathCollection_54">
    <g clip-path="url(#pce9678c0e8)">
     <use style="fill:#ffbb78;stroke:#ffbb78;" x="101.642246" xlink:href="#m092dfd3d7e" y="188.725474"/>
    </g>
   </g>
   <g id="PathCollection_55">
    <g clip-path="url(#pce9678c0e8)">
     <use style="fill:#ffbb78;stroke:#ffbb78;" x="108.604813" xlink:href="#m092dfd3d7e" y="188.479195"/>
    </g>
   </g>
   <g id="PathCollection_56">
    <g clip-path="url(#pce9678c0e8)">
     <use style="fill:#ffbb78;stroke:#ffbb78;" x="115.56738" xlink:href="#m092dfd3d7e" y="187.971036"/>
    </g>
   </g>
   <g id="PathCollection_57">
    <g clip-path="url(#pce9678c0e8)">
     <use style="fill:#ffbb78;stroke:#ffbb78;" x="122.529947" xlink:href="#m092dfd3d7e" y="187.111564"/>
    </g>
   </g>
   <g id="PathCollection_58">
    <g clip-path="url(#pce9678c0e8)">
     <use style="fill:#ffbb78;stroke:#ffbb78;" x="129.492513" xlink:href="#m092dfd3d7e" y="185.85495"/>
    </g>
   </g>
   <g id="PathCollection_59">
    <g clip-path="url(#pce9678c0e8)">
     <use style="fill:#ffbb78;stroke:#ffbb78;" x="136.45508" xlink:href="#m092dfd3d7e" y="184.188339"/>
    </g>
   </g>
   <g id="PathCollection_60">
    <g clip-path="url(#pce9678c0e8)">
     <use style="fill:#ffbb78;stroke:#ffbb78;" x="143.417647" xlink:href="#m092dfd3d7e" y="182.122669"/>
    </g>
   </g>
   <g id="PathCollection_61">
    <g clip-path="url(#pce9678c0e8)">
     <use style="fill:#ffbb78;stroke:#ffbb78;" x="150.380214" xlink:href="#m092dfd3d7e" y="179.684851"/>
    </g>
   </g>
   <g id="PathCollection_62">
    <g clip-path="url(#pce9678c0e8)">
     <use style="fill:#ffbb78;stroke:#ffbb78;" x="157.342781" xlink:href="#m092dfd3d7e" y="176.911228"/>
    </g>
   </g>
   <g id="PathCollection_63">
    <g clip-path="url(#pce9678c0e8)">
     <use style="fill:#ffbb78;stroke:#ffbb78;" x="164.305348" xlink:href="#m092dfd3d7e" y="173.842217"/>
    </g>
   </g>
   <g id="PathCollection_64">
    <g clip-path="url(#pce9678c0e8)">
     <use style="fill:#ffbb78;stroke:#ffbb78;" x="171.267914" xlink:href="#m092dfd3d7e" y="170.518063"/>
    </g>
   </g>
   <g id="PathCollection_65">
    <g clip-path="url(#pce9678c0e8)">
     <use style="fill:#ffbb78;stroke:#ffbb78;" x="178.230481" xlink:href="#m092dfd3d7e" y="166.975599"/>
    </g>
   </g>
   <g id="PathCollection_66">
    <g clip-path="url(#pce9678c0e8)">
     <use style="fill:#ffbb78;stroke:#ffbb78;" x="185.193048" xlink:href="#m092dfd3d7e" y="163.245948"/>
    </g>
   </g>
   <g id="PathCollection_67">
    <g clip-path="url(#pce9678c0e8)">
     <use style="fill:#ffbb78;stroke:#ffbb78;" x="192.155615" xlink:href="#m092dfd3d7e" y="159.353068"/>
    </g>
   </g>
   <g id="PathCollection_68">
    <g clip-path="url(#pce9678c0e8)">
     <use style="fill:#ffbb78;stroke:#ffbb78;" x="199.118182" xlink:href="#m092dfd3d7e" y="155.313047"/>
    </g>
   </g>
   <g id="PathCollection_69">
    <g clip-path="url(#pce9678c0e8)">
     <use style="fill:#ffbb78;stroke:#ffbb78;" x="206.080749" xlink:href="#m092dfd3d7e" y="151.134084"/>
    </g>
   </g>
   <g id="PathCollection_70">
    <g clip-path="url(#pce9678c0e8)">
     <use style="fill:#ffbb78;stroke:#ffbb78;" x="213.043316" xlink:href="#m092dfd3d7e" y="146.817049"/>
    </g>
   </g>
   <g id="PathCollection_71">
    <g clip-path="url(#pce9678c0e8)">
     <use style="fill:#ffbb78;stroke:#ffbb78;" x="220.005882" xlink:href="#m092dfd3d7e" y="142.356545"/>
    </g>
   </g>
   <g id="PathCollection_72">
    <g clip-path="url(#pce9678c0e8)">
     <use style="fill:#ffbb78;stroke:#ffbb78;" x="226.968449" xlink:href="#m092dfd3d7e" y="137.742388"/>
    </g>
   </g>
   <g id="PathCollection_73">
    <g clip-path="url(#pce9678c0e8)">
     <use style="fill:#ffbb78;stroke:#ffbb78;" x="233.931016" xlink:href="#m092dfd3d7e" y="132.961411"/>
    </g>
   </g>
   <g id="PathCollection_74">
    <g clip-path="url(#pce9678c0e8)">
     <use style="fill:#ffbb78;stroke:#ffbb78;" x="240.893583" xlink:href="#m092dfd3d7e" y="127.999513"/>
    </g>
   </g>
   <g id="PathCollection_75">
    <g clip-path="url(#pce9678c0e8)">
     <use style="fill:#ffbb78;stroke:#ffbb78;" x="247.85615" xlink:href="#m092dfd3d7e" y="122.843868"/>
    </g>
   </g>
   <g id="PathCollection_76">
    <g clip-path="url(#pce9678c0e8)">
     <use style="fill:#ffbb78;stroke:#ffbb78;" x="254.818717" xlink:href="#m092dfd3d7e" y="117.485198"/>
    </g>
   </g>
   <g id="PathCollection_77">
    <g clip-path="url(#pce9678c0e8)">
     <use style="fill:#ffbb78;stroke:#ffbb78;" x="261.781283" xlink:href="#m092dfd3d7e" y="111.920035"/>
    </g>
   </g>
   <g id="PathCollection_78">
    <g clip-path="url(#pce9678c0e8)">
     <use style="fill:#ffbb78;stroke:#ffbb78;" x="268.74385" xlink:href="#m092dfd3d7e" y="106.152881"/>
    </g>
   </g>
   <g id="PathCollection_79">
    <g clip-path="url(#pce9678c0e8)">
     <use style="fill:#ffbb78;stroke:#ffbb78;" x="275.706417" xlink:href="#m092dfd3d7e" y="100.198176"/>
    </g>
   </g>
   <g id="PathCollection_80">
    <g clip-path="url(#pce9678c0e8)">
     <use style="fill:#ffbb78;stroke:#ffbb78;" x="282.668984" xlink:href="#m092dfd3d7e" y="94.082003"/>
    </g>
   </g>
   <g id="PathCollection_81">
    <g clip-path="url(#pce9678c0e8)">
     <use style="fill:#ffbb78;stroke:#ffbb78;" x="289.631551" xlink:href="#m092dfd3d7e" y="87.843415"/>
    </g>
   </g>
   <g id="PathCollection_82">
    <g clip-path="url(#pce9678c0e8)">
     <use style="fill:#ffbb78;stroke:#ffbb78;" x="296.594118" xlink:href="#m092dfd3d7e" y="81.535339"/>
    </g>
   </g>
   <g id="PathCollection_83">
    <g clip-path="url(#pce9678c0e8)">
     <use style="fill:#ffbb78;stroke:#ffbb78;" x="303.556684" xlink:href="#m092dfd3d7e" y="75.224928"/>
    </g>
   </g>
   <g id="PathCollection_84">
    <g clip-path="url(#pce9678c0e8)">
     <use style="fill:#ffbb78;stroke:#ffbb78;" x="310.519251" xlink:href="#m092dfd3d7e" y="68.993305"/>
    </g>
   </g>
   <g id="PathCollection_85">
    <g clip-path="url(#pce9678c0e8)">
     <use style="fill:#ffbb78;stroke:#ffbb78;" x="317.481818" xlink:href="#m092dfd3d7e" y="62.934601"/>
    </g>
   </g>
   <g id="PathCollection_86">
    <g clip-path="url(#pce9678c0e8)">
     <use style="fill:#ffbb78;stroke:#ffbb78;" x="324.444385" xlink:href="#m092dfd3d7e" y="57.154206"/>
    </g>
   </g>
   <g id="PathCollection_87">
    <g clip-path="url(#pce9678c0e8)">
     <use style="fill:#ffbb78;stroke:#ffbb78;" x="331.406952" xlink:href="#m092dfd3d7e" y="51.766135"/>
    </g>
   </g>
   <g id="PathCollection_88">
    <g clip-path="url(#pce9678c0e8)">
     <use style="fill:#ffbb78;stroke:#ffbb78;" x="338.369519" xlink:href="#m092dfd3d7e" y="46.889442"/>
    </g>
   </g>
   <g id="PathCollection_89">
    <g clip-path="url(#pce9678c0e8)">
     <use style="fill:#ffbb78;stroke:#ffbb78;" x="345.332086" xlink:href="#m092dfd3d7e" y="42.643577"/>
    </g>
   </g>
   <g id="PathCollection_90">
    <g clip-path="url(#pce9678c0e8)">
     <use style="fill:#ffbb78;stroke:#ffbb78;" x="352.294652" xlink:href="#m092dfd3d7e" y="39.142617"/>
    </g>
   </g>
   <g id="PathCollection_91">
    <g clip-path="url(#pce9678c0e8)">
     <use style="fill:#ffbb78;stroke:#ffbb78;" x="359.257219" xlink:href="#m092dfd3d7e" y="36.488268"/>
    </g>
   </g>
   <g id="PathCollection_92">
    <g clip-path="url(#pce9678c0e8)">
     <use style="fill:#ffbb78;stroke:#ffbb78;" x="366.219786" xlink:href="#m092dfd3d7e" y="34.761564"/>
    </g>
   </g>
   <g id="PathCollection_93">
    <g clip-path="url(#pce9678c0e8)">
     <use style="fill:#ffbb78;stroke:#ffbb78;" x="373.182353" xlink:href="#m092dfd3d7e" y="34.013179"/>
    </g>
   </g>
   <g id="PathCollection_94">
    <g clip-path="url(#pce9678c0e8)">
     <use style="fill:#ffbb78;stroke:#ffbb78;" x="380.14492" xlink:href="#m092dfd3d7e" y="34.252249"/>
    </g>
   </g>
   <g id="PathCollection_95">
    <g clip-path="url(#pce9678c0e8)">
     <use style="fill:#ffbb78;stroke:#ffbb78;" x="387.107487" xlink:href="#m092dfd3d7e" y="35.433637"/>
    </g>
   </g>
   <g id="PathCollection_96">
    <g clip-path="url(#pce9678c0e8)">
     <use style="fill:#ffbb78;stroke:#ffbb78;" x="394.070053" xlink:href="#m092dfd3d7e" y="37.443547"/>
    </g>
   </g>
   <g id="PathCollection_97">
    <g clip-path="url(#pce9678c0e8)">
     <use style="fill:#ffbb78;stroke:#ffbb78;" x="401.03262" xlink:href="#m092dfd3d7e" y="40.083397"/>
    </g>
   </g>
   <g id="PathCollection_98">
    <g clip-path="url(#pce9678c0e8)">
     <use style="fill:#ffbb78;stroke:#ffbb78;" x="407.995187" xlink:href="#m092dfd3d7e" y="43.051874"/>
    </g>
   </g>
   <g id="PathCollection_99">
    <g clip-path="url(#pce9678c0e8)">
     <use style="fill:#ffbb78;stroke:#ffbb78;" x="414.957754" xlink:href="#m092dfd3d7e" y="45.925073"/>
    </g>
   </g>
   <g id="PathCollection_100">
    <g clip-path="url(#pce9678c0e8)">
     <use style="fill:#ffbb78;stroke:#ffbb78;" x="421.920321" xlink:href="#m092dfd3d7e" y="48.134649"/>
    </g>
   </g>
   <g id="PathCollection_101">
    <g clip-path="url(#pce9678c0e8)">
     <use style="fill:#ffbb78;stroke:#ffbb78;" x="428.882888" xlink:href="#m092dfd3d7e" y="48.943883"/>
    </g>
   </g>
   <g id="PathCollection_102">
    <g clip-path="url(#pce9678c0e8)">
     <use style="fill:#ffbb78;stroke:#ffbb78;" x="435.845455" xlink:href="#m092dfd3d7e" y="47.421579"/>
    </g>
   </g>
   <g id="matplotlib.axis_1"/>
   <g id="matplotlib.axis_2"/>
   <g id="line2d_1">
    <path clip-path="url(#pce9678c0e8)" d="M 80.754545 189 
L 122.26885 188.888936 
L 126.214305 188.580192 
L 130.130749 188.05013 
L 134.192246 187.27378 
L 138.427807 186.235355 
L 142.866444 184.916523 
L 147.566176 183.285211 
L 152.556016 181.313614 
L 157.864973 178.972708 
L 163.55107 176.218601 
L 169.701337 172.987938 
L 176.402807 169.211598 
L 183.800535 164.782504 
L 192.126604 159.532504 
L 201.816176 153.151229 
L 213.768583 145.000232 
L 231.523128 132.592283 
L 261.288102 111.796914 
L 276.402674 101.530007 
L 289.660561 92.788689 
L 299.089037 86.810657 
L 306.370722 82.451102 
L 312.869118 78.814866 
L 318.961364 75.658163 
L 324.792513 72.885932 
L 330.449599 70.441808 
L 335.990642 68.28916 
L 341.473663 66.397463 
L 346.898663 64.75963 
L 352.323663 63.35258 
L 357.777674 62.166937 
L 363.289706 61.196519 
L 368.859759 60.441688 
L 374.516845 59.899123 
L 380.289973 59.568573 
L 386.208155 59.45262 
L 392.300401 59.556394 
L 398.595722 59.887225 
L 405.123128 60.45424 
L 411.940642 61.271841 
L 419.077273 62.353985 
L 426.591043 63.720256 
L 434.568984 65.399164 
L 435.845455 65.687782 
L 435.845455 65.687782 
" style="fill:none;stroke:#ffbb78;stroke-dasharray:11.1,4.8;stroke-dashoffset:0;stroke-width:3;"/>
   </g>
   <g id="line2d_2">
    <path clip-path="url(#pce9678c0e8)" d="M 80.754545 189 
L 122.007754 188.889035 
L 125.750134 188.580728 
L 129.434492 188.053012 
L 133.234893 187.281783 
L 137.180348 186.252517 
L 141.328877 184.937649 
L 145.680481 183.322752 
L 150.293182 181.370364 
L 155.166979 179.063623 
L 160.388904 176.342465 
L 165.987968 173.17005 
L 172.051203 169.474478 
L 178.665642 165.1779 
L 186.005348 160.139035 
L 194.302406 154.165492 
L 203.991979 146.905449 
L 216.089439 137.548457 
L 235.265508 122.394256 
L 260.214706 102.737408 
L 274.952139 91.417725 
L 287.890909 81.756375 
L 297.667513 74.707396 
L 304.891176 69.767561 
L 311.244519 65.686908 
L 317.162701 62.147021 
L 322.790775 59.037686 
L 328.215775 56.292024 
L 333.524733 53.852708 
L 338.746658 51.69696 
L 343.910561 49.80438 
L 349.045455 48.157667 
L 354.180348 46.743012 
L 359.344251 45.550279 
L 364.566176 44.573047 
L 369.846123 43.812112 
L 375.213102 43.264585 
L 380.667112 42.932219 
L 386.266176 42.815317 
L 392.010294 42.919586 
L 397.928476 43.251124 
L 404.049733 43.818402 
L 410.403075 44.631819 
L 417.046524 45.708382 
L 424.009091 47.063556 
L 431.377807 48.726705 
L 435.845455 49.839269 
L 435.845455 49.839269 
" style="fill:none;stroke:#ffbb78;stroke-linecap:square;stroke-width:3;"/>
   </g>
   <g id="patch_3">
    <path d="M 63 189 
L 63 25.92 
" style="fill:none;stroke:#000000;stroke-linecap:square;stroke-linejoin:miter;stroke-width:0.8;"/>
   </g>
   <g id="patch_4">
    <path d="M 453.6 189 
L 453.6 25.92 
" style="fill:none;stroke:#000000;stroke-linecap:square;stroke-linejoin:miter;stroke-width:0.8;"/>
   </g>
   <g id="patch_5">
    <path d="M 63 189 
L 453.6 189 
" style="fill:none;stroke:#000000;stroke-linecap:square;stroke-linejoin:miter;stroke-width:0.8;"/>
   </g>
   <g id="patch_6">
    <path d="M 63 25.92 
L 453.6 25.92 
" style="fill:none;stroke:#000000;stroke-linecap:square;stroke-linejoin:miter;stroke-width:0.8;"/>
   </g>
  </g>
 </g>
 <defs>
  <clipPath id="pce9678c0e8">
   <rect height="163.08" width="390.6" x="63" y="25.92"/>
  </clipPath>
 </defs>
</svg>
