<?xml version="1.0" encoding="utf-8" standalone="no"?>
<!DOCTYPE svg PUBLIC "-//W3C//DTD SVG 1.1//EN"
  "http://www.w3.org/Graphics/SVG/1.1/DTD/svg11.dtd">
<!-- Created with matplotlib (https://matplotlib.org/) -->
<svg height="216pt" version="1.1" viewBox="0 0 504 216" width="504pt" xmlns="http://www.w3.org/2000/svg" xmlns:xlink="http://www.w3.org/1999/xlink">
 <metadata>
  <rdf:RDF xmlns:cc="http://creativecommons.org/ns#" xmlns:dc="http://purl.org/dc/elements/1.1/" xmlns:rdf="http://www.w3.org/1999/02/22-rdf-syntax-ns#">
   <cc:Work>
    <dc:type rdf:resource="http://purl.org/dc/dcmitype/StillImage"/>
    <dc:date>2024-12-18T09:33:45.694247</dc:date>
    <dc:format>image/svg+xml</dc:format>
    <dc:creator>
     <cc:Agent>
      <dc:title>Matplotlib v3.3.2, https://matplotlib.org/</dc:title>
     </cc:Agent>
    </dc:creator>
   </cc:Work>
  </rdf:RDF>
 </metadata>
 <defs>
  <style type="text/css">*{stroke-linecap:butt;stroke-linejoin:round;}</style>
 </defs>
 <g id="figure_1">
  <g id="patch_1">
   <path d="M 0 216 
L 504 216 
L 504 0 
L 0 0 
z
" style="fill:none;"/>
  </g>
  <g id="axes_1">
   <g id="patch_2">
    <path d="M 63 189 
L 453.6 189 
L 453.6 25.92 
L 63 25.92 
z
" style="fill:#ffffff;"/>
   </g>
   <g id="PathCollection_1">
    <path clip-path="url(#p9da7c21108)" d="M 87.717112 192.712943 
C 88.654747 192.712943 89.554105 192.340417 90.217112 191.67741 
C 90.88012 191.014402 91.252646 190.115044 91.252646 189.17741 
C 91.252646 188.239775 90.88012 187.340417 90.217112 186.67741 
C 89.554105 186.014402 88.654747 185.641876 87.717112 185.641876 
C 86.779478 185.641876 85.88012 186.014402 85.217112 186.67741 
C 84.554105 187.340417 84.181578 188.239775 84.181578 189.17741 
C 84.181578 190.115044 84.554105 191.014402 85.217112 191.67741 
C 85.88012 192.340417 86.779478 192.712943 87.717112 192.712943 
z
" style="fill:none;stroke:#98bf8a;"/>
   </g>
   <g id="PathCollection_2">
    <path clip-path="url(#p9da7c21108)" d="M 94.679679 193.334489 
C 95.617314 193.334489 96.516671 192.961962 97.179679 192.298955 
C 97.842687 191.635947 98.215213 190.736589 98.215213 189.798955 
C 98.215213 188.86132 97.842687 187.961962 97.179679 187.298955 
C 96.516671 186.635947 95.617314 186.263421 94.679679 186.263421 
C 93.742045 186.263421 92.842687 186.635947 92.179679 187.298955 
C 91.516671 187.961962 91.144145 188.86132 91.144145 189.798955 
C 91.144145 190.736589 91.516671 191.635947 92.179679 192.298955 
C 92.842687 192.961962 93.742045 193.334489 94.679679 193.334489 
z
" style="fill:none;stroke:#98bf8a;"/>
   </g>
   <g id="PathCollection_3">
    <path clip-path="url(#p9da7c21108)" d="M 101.642246 192.615103 
C 102.579881 192.615103 103.479238 192.242577 104.142246 191.579569 
C 104.805254 190.916561 105.17778 190.017204 105.17778 189.079569 
C 105.17778 188.141934 104.805254 187.242577 104.142246 186.579569 
C 103.479238 185.916561 102.579881 185.544035 101.642246 185.544035 
C 100.704611 185.544035 99.805254 185.916561 99.142246 186.579569 
C 98.479238 187.242577 98.106712 188.141934 98.106712 189.079569 
C 98.106712 190.017204 98.479238 190.916561 99.142246 191.579569 
C 99.805254 192.242577 100.704611 192.615103 101.642246 192.615103 
z
" style="fill:none;stroke:#98bf8a;"/>
   </g>
   <g id="PathCollection_4">
    <path clip-path="url(#p9da7c21108)" d="M 108.604813 191.133695 
C 109.542447 191.133695 110.441805 190.761169 111.104813 190.098161 
C 111.767821 189.435153 112.140347 188.535796 112.140347 187.598161 
C 112.140347 186.660527 111.767821 185.761169 111.104813 185.098161 
C 110.441805 184.435153 109.542447 184.062627 108.604813 184.062627 
C 107.667178 184.062627 106.767821 184.435153 106.104813 185.098161 
C 105.441805 185.761169 105.069279 186.660527 105.069279 187.598161 
C 105.069279 188.535796 105.441805 189.435153 106.104813 190.098161 
C 106.767821 190.761169 107.667178 191.133695 108.604813 191.133695 
z
" style="fill:none;stroke:#98bf8a;"/>
   </g>
   <g id="PathCollection_5">
    <path clip-path="url(#p9da7c21108)" d="M 115.56738 189.296937 
C 116.505014 189.296937 117.404372 188.924411 118.06738 188.261403 
C 118.730387 187.598396 119.102914 186.699038 119.102914 185.761403 
C 119.102914 184.823769 118.730387 183.924411 118.06738 183.261403 
C 117.404372 182.598396 116.505014 182.22587 115.56738 182.22587 
C 114.629745 182.22587 113.730387 182.598396 113.06738 183.261403 
C 112.404372 183.924411 112.031846 184.823769 112.031846 185.761403 
C 112.031846 186.699038 112.404372 187.598396 113.06738 188.261403 
C 113.730387 188.924411 114.629745 189.296937 115.56738 189.296937 
z
" style="fill:none;stroke:#98bf8a;"/>
   </g>
   <g id="PathCollection_6">
    <path clip-path="url(#p9da7c21108)" d="M 122.529947 187.370769 
C 123.467581 187.370769 124.366939 186.998243 125.029947 186.335235 
C 125.692954 185.672227 126.06548 184.772869 126.06548 183.835235 
C 126.06548 182.8976 125.692954 181.998243 125.029947 181.335235 
C 124.366939 180.672227 123.467581 180.299701 122.529947 180.299701 
C 121.592312 180.299701 120.692954 180.672227 120.029947 181.335235 
C 119.366939 181.998243 118.994413 182.8976 118.994413 183.835235 
C 118.994413 184.772869 119.366939 185.672227 120.029947 186.335235 
C 120.692954 186.998243 121.592312 187.370769 122.529947 187.370769 
z
" style="fill:none;stroke:#98bf8a;"/>
   </g>
   <g id="PathCollection_7">
    <path clip-path="url(#p9da7c21108)" d="M 129.492513 185.508542 
C 130.430148 185.508542 131.329506 185.136016 131.992513 184.473008 
C 132.655521 183.810001 133.028047 182.910643 133.028047 181.973008 
C 133.028047 181.035374 132.655521 180.136016 131.992513 179.473008 
C 131.329506 178.810001 130.430148 178.437474 129.492513 178.437474 
C 128.554879 178.437474 127.655521 178.810001 126.992513 179.473008 
C 126.329506 180.136016 125.956979 181.035374 125.956979 181.973008 
C 125.956979 182.910643 126.329506 183.810001 126.992513 184.473008 
C 127.655521 185.136016 128.554879 185.508542 129.492513 185.508542 
z
" style="fill:none;stroke:#98bf8a;"/>
   </g>
   <g id="PathCollection_8">
    <path clip-path="url(#p9da7c21108)" d="M 136.45508 183.775988 
C 137.392715 183.775988 138.292072 183.403461 138.95508 182.740454 
C 139.618088 182.077446 139.990614 181.178088 139.990614 180.240454 
C 139.990614 179.302819 139.618088 178.403461 138.95508 177.740454 
C 138.292072 177.077446 137.392715 176.70492 136.45508 176.70492 
C 135.517446 176.70492 134.618088 177.077446 133.95508 177.740454 
C 133.292072 178.403461 132.919546 179.302819 132.919546 180.240454 
C 132.919546 181.178088 133.292072 182.077446 133.95508 182.740454 
C 134.618088 183.403461 135.517446 183.775988 136.45508 183.775988 
z
" style="fill:none;stroke:#98bf8a;"/>
   </g>
   <g id="PathCollection_9">
    <path clip-path="url(#p9da7c21108)" d="M 143.417647 182.173144 
C 144.355282 182.173144 145.254639 181.800618 145.917647 181.13761 
C 146.580655 180.474602 146.953181 179.575244 146.953181 178.63761 
C 146.953181 177.699975 146.580655 176.800618 145.917647 176.13761 
C 145.254639 175.474602 144.355282 175.102076 143.417647 175.102076 
C 142.480013 175.102076 141.580655 175.474602 140.917647 176.13761 
C 140.254639 176.800618 139.882113 177.699975 139.882113 178.63761 
C 139.882113 179.575244 140.254639 180.474602 140.917647 181.13761 
C 141.580655 181.800618 142.480013 182.173144 143.417647 182.173144 
z
" style="fill:none;stroke:#98bf8a;"/>
   </g>
   <g id="PathCollection_10">
    <path clip-path="url(#p9da7c21108)" d="M 150.380214 180.653434 
C 151.317848 180.653434 152.217206 180.280908 152.880214 179.6179 
C 153.543222 178.954892 153.915748 178.055534 153.915748 177.1179 
C 153.915748 176.180265 153.543222 175.280908 152.880214 174.6179 
C 152.217206 173.954892 151.317848 173.582366 150.380214 173.582366 
C 149.442579 173.582366 148.543222 173.954892 147.880214 174.6179 
C 147.217206 175.280908 146.84468 176.180265 146.84468 177.1179 
C 146.84468 178.055534 147.217206 178.954892 147.880214 179.6179 
C 148.543222 180.280908 149.442579 180.653434 150.380214 180.653434 
z
" style="fill:none;stroke:#98bf8a;"/>
   </g>
   <g id="PathCollection_11">
    <path clip-path="url(#p9da7c21108)" d="M 157.342781 179.140042 
C 158.280415 179.140042 159.179773 178.767516 159.842781 178.104508 
C 160.505788 177.4415 160.878315 176.542143 160.878315 175.604508 
C 160.878315 174.666873 160.505788 173.767516 159.842781 173.104508 
C 159.179773 172.4415 158.280415 172.068974 157.342781 172.068974 
C 156.405146 172.068974 155.505788 172.4415 154.842781 173.104508 
C 154.179773 173.767516 153.807247 174.666873 153.807247 175.604508 
C 153.807247 176.542143 154.179773 177.4415 154.842781 178.104508 
C 155.505788 178.767516 156.405146 179.140042 157.342781 179.140042 
z
" style="fill:none;stroke:#98bf8a;"/>
   </g>
   <g id="PathCollection_12">
    <path clip-path="url(#p9da7c21108)" d="M 164.305348 177.539755 
C 165.242982 177.539755 166.14234 177.167229 166.805348 176.504221 
C 167.468355 175.841214 167.840881 174.941856 167.840881 174.004221 
C 167.840881 173.066587 167.468355 172.167229 166.805348 171.504221 
C 166.14234 170.841214 165.242982 170.468687 164.305348 170.468687 
C 163.367713 170.468687 162.468355 170.841214 161.805348 171.504221 
C 161.14234 172.167229 160.769814 173.066587 160.769814 174.004221 
C 160.769814 174.941856 161.14234 175.841214 161.805348 176.504221 
C 162.468355 177.167229 163.367713 177.539755 164.305348 177.539755 
z
" style="fill:none;stroke:#98bf8a;"/>
   </g>
   <g id="PathCollection_13">
    <path clip-path="url(#p9da7c21108)" d="M 171.267914 175.754435 
C 172.205549 175.754435 173.104907 175.381909 173.767914 174.718901 
C 174.430922 174.055894 174.803448 173.156536 174.803448 172.218901 
C 174.803448 171.281267 174.430922 170.381909 173.767914 169.718901 
C 173.104907 169.055894 172.205549 168.683367 171.267914 168.683367 
C 170.33028 168.683367 169.430922 169.055894 168.767914 169.718901 
C 168.104907 170.381909 167.732381 171.281267 167.732381 172.218901 
C 167.732381 173.156536 168.104907 174.055894 168.767914 174.718901 
C 169.430922 175.381909 170.33028 175.754435 171.267914 175.754435 
z
" style="fill:none;stroke:#98bf8a;"/>
   </g>
   <g id="PathCollection_14">
    <path clip-path="url(#p9da7c21108)" d="M 178.230481 173.690287 
C 179.168116 173.690287 180.067474 173.317761 180.730481 172.654753 
C 181.393489 171.991746 181.766015 171.092388 181.766015 170.154753 
C 181.766015 169.217119 181.393489 168.317761 180.730481 167.654753 
C 180.067474 166.991746 179.168116 166.61922 178.230481 166.61922 
C 177.292847 166.61922 176.393489 166.991746 175.730481 167.654753 
C 175.067474 168.317761 174.694947 169.217119 174.694947 170.154753 
C 174.694947 171.092388 175.067474 171.991746 175.730481 172.654753 
C 176.393489 173.317761 177.292847 173.690287 178.230481 173.690287 
z
" style="fill:none;stroke:#98bf8a;"/>
   </g>
   <g id="PathCollection_15">
    <path clip-path="url(#p9da7c21108)" d="M 185.193048 171.265084 
C 186.130683 171.265084 187.03004 170.892557 187.693048 170.22955 
C 188.356056 169.566542 188.728582 168.667184 188.728582 167.72955 
C 188.728582 166.791915 188.356056 165.892557 187.693048 165.22955 
C 187.03004 164.566542 186.130683 164.194016 185.193048 164.194016 
C 184.255414 164.194016 183.356056 164.566542 182.693048 165.22955 
C 182.03004 165.892557 181.657514 166.791915 181.657514 167.72955 
C 181.657514 168.667184 182.03004 169.566542 182.693048 170.22955 
C 183.356056 170.892557 184.255414 171.265084 185.193048 171.265084 
z
" style="fill:none;stroke:#98bf8a;"/>
   </g>
   <g id="PathCollection_16">
    <path clip-path="url(#p9da7c21108)" d="M 192.155615 168.413509 
C 193.09325 168.413509 193.992607 168.040983 194.655615 167.377975 
C 195.318623 166.714967 195.691149 165.81561 195.691149 164.877975 
C 195.691149 163.940341 195.318623 163.040983 194.655615 162.377975 
C 193.992607 161.714967 193.09325 161.342441 192.155615 161.342441 
C 191.21798 161.342441 190.318623 161.714967 189.655615 162.377975 
C 188.992607 163.040983 188.620081 163.940341 188.620081 164.877975 
C 188.620081 165.81561 188.992607 166.714967 189.655615 167.377975 
C 190.318623 168.040983 191.21798 168.413509 192.155615 168.413509 
z
" style="fill:none;stroke:#98bf8a;"/>
   </g>
   <g id="PathCollection_17">
    <path clip-path="url(#p9da7c21108)" d="M 199.118182 165.090794 
C 200.055816 165.090794 200.955174 164.718268 201.618182 164.05526 
C 202.28119 163.392253 202.653716 162.492895 202.653716 161.55526 
C 202.653716 160.617626 202.28119 159.718268 201.618182 159.05526 
C 200.955174 158.392253 200.055816 158.019726 199.118182 158.019726 
C 198.180547 158.019726 197.28119 158.392253 196.618182 159.05526 
C 195.955174 159.718268 195.582648 160.617626 195.582648 161.55526 
C 195.582648 162.492895 195.955174 163.392253 196.618182 164.05526 
C 197.28119 164.718268 198.180547 165.090794 199.118182 165.090794 
z
" style="fill:none;stroke:#98bf8a;"/>
   </g>
   <g id="PathCollection_18">
    <path clip-path="url(#p9da7c21108)" d="M 206.080749 161.274796 
C 207.018383 161.274796 207.917741 160.902269 208.580749 160.239262 
C 209.243756 159.576254 209.616283 158.676896 209.616283 157.739262 
C 209.616283 156.801627 209.243756 155.902269 208.580749 155.239262 
C 207.917741 154.576254 207.018383 154.203728 206.080749 154.203728 
C 205.143114 154.203728 204.243756 154.576254 203.580749 155.239262 
C 202.917741 155.902269 202.545215 156.801627 202.545215 157.739262 
C 202.545215 158.676896 202.917741 159.576254 203.580749 160.239262 
C 204.243756 160.902269 205.143114 161.274796 206.080749 161.274796 
z
" style="fill:none;stroke:#98bf8a;"/>
   </g>
   <g id="PathCollection_19">
    <path clip-path="url(#p9da7c21108)" d="M 213.043316 156.966691 
C 213.98095 156.966691 214.880308 156.594165 215.543316 155.931157 
C 216.206323 155.268149 216.578849 154.368792 216.578849 153.431157 
C 216.578849 152.493523 216.206323 151.594165 215.543316 150.931157 
C 214.880308 150.268149 213.98095 149.895623 213.043316 149.895623 
C 212.105681 149.895623 211.206323 150.268149 210.543316 150.931157 
C 209.880308 151.594165 209.507782 152.493523 209.507782 153.431157 
C 209.507782 154.368792 209.880308 155.268149 210.543316 155.931157 
C 211.206323 156.594165 212.105681 156.966691 213.043316 156.966691 
z
" style="fill:none;stroke:#98bf8a;"/>
   </g>
   <g id="PathCollection_20">
    <path clip-path="url(#p9da7c21108)" d="M 220.005882 152.190449 
C 220.943517 152.190449 221.842875 151.817923 222.505882 151.154915 
C 223.16889 150.491908 223.541416 149.59255 223.541416 148.654915 
C 223.541416 147.717281 223.16889 146.817923 222.505882 146.154915 
C 221.842875 145.491908 220.943517 145.119381 220.005882 145.119381 
C 219.068248 145.119381 218.16889 145.491908 217.505882 146.154915 
C 216.842875 146.817923 216.470348 147.717281 216.470348 148.654915 
C 216.470348 149.59255 216.842875 150.491908 217.505882 151.154915 
C 218.16889 151.817923 219.068248 152.190449 220.005882 152.190449 
z
" style="fill:none;stroke:#98bf8a;"/>
   </g>
   <g id="PathCollection_21">
    <path clip-path="url(#p9da7c21108)" d="M 226.968449 146.991244 
C 227.906084 146.991244 228.805441 146.618718 229.468449 145.95571 
C 230.131457 145.292703 230.503983 144.393345 230.503983 143.45571 
C 230.503983 142.518076 230.131457 141.618718 229.468449 140.95571 
C 228.805441 140.292703 227.906084 139.920176 226.968449 139.920176 
C 226.030815 139.920176 225.131457 140.292703 224.468449 140.95571 
C 223.805441 141.618718 223.432915 142.518076 223.432915 143.45571 
C 223.432915 144.393345 223.805441 145.292703 224.468449 145.95571 
C 225.131457 146.618718 226.030815 146.991244 226.968449 146.991244 
z
" style="fill:none;stroke:#98bf8a;"/>
   </g>
   <g id="PathCollection_22">
    <path clip-path="url(#p9da7c21108)" d="M 233.931016 141.43297 
C 234.868651 141.43297 235.768008 141.060444 236.431016 140.397436 
C 237.094024 139.734428 237.46655 138.835071 237.46655 137.897436 
C 237.46655 136.959802 237.094024 136.060444 236.431016 135.397436 
C 235.768008 134.734428 234.868651 134.361902 233.931016 134.361902 
C 232.993381 134.361902 232.094024 134.734428 231.431016 135.397436 
C 230.768008 136.060444 230.395482 136.959802 230.395482 137.897436 
C 230.395482 138.835071 230.768008 139.734428 231.431016 140.397436 
C 232.094024 141.060444 232.993381 141.43297 233.931016 141.43297 
z
" style="fill:none;stroke:#98bf8a;"/>
   </g>
   <g id="PathCollection_23">
    <path clip-path="url(#p9da7c21108)" d="M 240.893583 135.595027 
C 241.831217 135.595027 242.730575 135.222501 243.393583 134.559493 
C 244.056591 133.896485 244.429117 132.997128 244.429117 132.059493 
C 244.429117 131.121859 244.056591 130.222501 243.393583 129.559493 
C 242.730575 128.896485 241.831217 128.523959 240.893583 128.523959 
C 239.955948 128.523959 239.056591 128.896485 238.393583 129.559493 
C 237.730575 130.222501 237.358049 131.121859 237.358049 132.059493 
C 237.358049 132.997128 237.730575 133.896485 238.393583 134.559493 
C 239.056591 135.222501 239.955948 135.595027 240.893583 135.595027 
z
" style="fill:none;stroke:#98bf8a;"/>
   </g>
   <g id="PathCollection_24">
    <path clip-path="url(#p9da7c21108)" d="M 247.85615 129.56854 
C 248.793784 129.56854 249.693142 129.196014 250.35615 128.533006 
C 251.019157 127.869999 251.391684 126.970641 251.391684 126.033006 
C 251.391684 125.095372 251.019157 124.196014 250.35615 123.533006 
C 249.693142 122.869999 248.793784 122.497472 247.85615 122.497472 
C 246.918515 122.497472 246.019157 122.869999 245.35615 123.533006 
C 244.693142 124.196014 244.320616 125.095372 244.320616 126.033006 
C 244.320616 126.970641 244.693142 127.869999 245.35615 128.533006 
C 246.019157 129.196014 246.918515 129.56854 247.85615 129.56854 
z
" style="fill:none;stroke:#98bf8a;"/>
   </g>
   <g id="PathCollection_25">
    <path clip-path="url(#p9da7c21108)" d="M 254.818717 123.452172 
C 255.756351 123.452172 256.655709 123.079646 257.318717 122.416638 
C 257.981724 121.75363 258.35425 120.854273 258.35425 119.916638 
C 258.35425 118.979004 257.981724 118.079646 257.318717 117.416638 
C 256.655709 116.75363 255.756351 116.381104 254.818717 116.381104 
C 253.881082 116.381104 252.981724 116.75363 252.318717 117.416638 
C 251.655709 118.079646 251.283183 118.979004 251.283183 119.916638 
C 251.283183 120.854273 251.655709 121.75363 252.318717 122.416638 
C 252.981724 123.079646 253.881082 123.452172 254.818717 123.452172 
z
" style="fill:none;stroke:#98bf8a;"/>
   </g>
   <g id="PathCollection_26">
    <path clip-path="url(#p9da7c21108)" d="M 261.781283 117.347697 
C 262.718918 117.347697 263.618276 116.975171 264.281283 116.312163 
C 264.944291 115.649155 265.316817 114.749798 265.316817 113.812163 
C 265.316817 112.874528 264.944291 111.975171 264.281283 111.312163 
C 263.618276 110.649155 262.718918 110.276629 261.781283 110.276629 
C 260.843649 110.276629 259.944291 110.649155 259.281283 111.312163 
C 258.618276 111.975171 258.24575 112.874528 258.24575 113.812163 
C 258.24575 114.749798 258.618276 115.649155 259.281283 116.312163 
C 259.944291 116.975171 260.843649 117.347697 261.781283 117.347697 
z
" style="fill:none;stroke:#98bf8a;"/>
   </g>
   <g id="PathCollection_27">
    <path clip-path="url(#p9da7c21108)" d="M 268.74385 111.355498 
C 269.681485 111.355498 270.580843 110.982972 271.24385 110.319965 
C 271.906858 109.656957 272.279384 108.757599 272.279384 107.819965 
C 272.279384 106.88233 271.906858 105.982972 271.24385 105.319965 
C 270.580843 104.656957 269.681485 104.284431 268.74385 104.284431 
C 267.806216 104.284431 266.906858 104.656957 266.24385 105.319965 
C 265.580843 105.982972 265.208316 106.88233 265.208316 107.819965 
C 265.208316 108.757599 265.580843 109.656957 266.24385 110.319965 
C 266.906858 110.982972 267.806216 111.355498 268.74385 111.355498 
z
" style="fill:none;stroke:#98bf8a;"/>
   </g>
   <g id="PathCollection_28">
    <path clip-path="url(#p9da7c21108)" d="M 275.706417 105.570155 
C 276.644052 105.570155 277.543409 105.197629 278.206417 104.534621 
C 278.869425 103.871614 279.241951 102.972256 279.241951 102.034621 
C 279.241951 101.096987 278.869425 100.197629 278.206417 99.534621 
C 277.543409 98.871614 276.644052 98.499087 275.706417 98.499087 
C 274.768783 98.499087 273.869425 98.871614 273.206417 99.534621 
C 272.543409 100.197629 272.170883 101.096987 272.170883 102.034621 
C 272.170883 102.972256 272.543409 103.871614 273.206417 104.534621 
C 273.869425 105.197629 274.768783 105.570155 275.706417 105.570155 
z
" style="fill:none;stroke:#98bf8a;"/>
   </g>
   <g id="PathCollection_29">
    <path clip-path="url(#p9da7c21108)" d="M 282.668984 100.076278 
C 283.606619 100.076278 284.505976 99.703752 285.168984 99.040744 
C 285.831992 98.377736 286.204518 97.478378 286.204518 96.540744 
C 286.204518 95.603109 285.831992 94.703752 285.168984 94.040744 
C 284.505976 93.377736 283.606619 93.00521 282.668984 93.00521 
C 281.731349 93.00521 280.831992 93.377736 280.168984 94.040744 
C 279.505976 94.703752 279.13345 95.603109 279.13345 96.540744 
C 279.13345 97.478378 279.505976 98.377736 280.168984 99.040744 
C 280.831992 99.703752 281.731349 100.076278 282.668984 100.076278 
z
" style="fill:none;stroke:#98bf8a;"/>
   </g>
   <g id="PathCollection_30">
    <path clip-path="url(#p9da7c21108)" d="M 289.631551 94.94476 
C 290.569185 94.94476 291.468543 94.572234 292.131551 93.909226 
C 292.794559 93.246219 293.167085 92.346861 293.167085 91.409226 
C 293.167085 90.471592 292.794559 89.572234 292.131551 88.909226 
C 291.468543 88.246219 290.569185 87.873693 289.631551 87.873693 
C 288.693916 87.873693 287.794559 88.246219 287.131551 88.909226 
C 286.468543 89.572234 286.096017 90.471592 286.096017 91.409226 
C 286.096017 92.346861 286.468543 93.246219 287.131551 93.909226 
C 287.794559 94.572234 288.693916 94.94476 289.631551 94.94476 
z
" style="fill:none;stroke:#98bf8a;"/>
   </g>
   <g id="PathCollection_31">
    <path clip-path="url(#p9da7c21108)" d="M 296.594118 90.229613 
C 297.531752 90.229613 298.43111 89.857087 299.094118 89.194079 
C 299.757125 88.531071 300.129652 87.631714 300.129652 86.694079 
C 300.129652 85.756444 299.757125 84.857087 299.094118 84.194079 
C 298.43111 83.531071 297.531752 83.158545 296.594118 83.158545 
C 295.656483 83.158545 294.757125 83.531071 294.094118 84.194079 
C 293.43111 84.857087 293.058584 85.756444 293.058584 86.694079 
C 293.058584 87.631714 293.43111 88.531071 294.094118 89.194079 
C 294.757125 89.857087 295.656483 90.229613 296.594118 90.229613 
z
" style="fill:none;stroke:#98bf8a;"/>
   </g>
   <g id="PathCollection_32">
    <path clip-path="url(#p9da7c21108)" d="M 303.556684 85.965535 
C 304.494319 85.965535 305.393677 85.593009 306.056684 84.930001 
C 306.719692 84.266994 307.092218 83.367636 307.092218 82.430001 
C 307.092218 81.492367 306.719692 80.593009 306.056684 79.930001 
C 305.393677 79.266994 304.494319 78.894468 303.556684 78.894468 
C 302.61905 78.894468 301.719692 79.266994 301.056684 79.930001 
C 300.393677 80.593009 300.021151 81.492367 300.021151 82.430001 
C 300.021151 83.367636 300.393677 84.266994 301.056684 84.930001 
C 301.719692 85.593009 302.61905 85.965535 303.556684 85.965535 
z
" style="fill:none;stroke:#98bf8a;"/>
   </g>
   <g id="PathCollection_33">
    <path clip-path="url(#p9da7c21108)" d="M 310.519251 82.166399 
C 311.456886 82.166399 312.356244 81.793873 313.019251 81.130865 
C 313.682259 80.467857 314.054785 79.5685 314.054785 78.630865 
C 314.054785 77.69323 313.682259 76.793873 313.019251 76.130865 
C 312.356244 75.467857 311.456886 75.095331 310.519251 75.095331 
C 309.581617 75.095331 308.682259 75.467857 308.019251 76.130865 
C 307.356244 76.793873 306.983717 77.69323 306.983717 78.630865 
C 306.983717 79.5685 307.356244 80.467857 308.019251 81.130865 
C 308.682259 81.793873 309.581617 82.166399 310.519251 82.166399 
z
" style="fill:none;stroke:#98bf8a;"/>
   </g>
   <g id="PathCollection_34">
    <path clip-path="url(#p9da7c21108)" d="M 317.481818 78.824797 
C 318.419453 78.824797 319.31881 78.452271 319.981818 77.789263 
C 320.644826 77.126255 321.017352 76.226897 321.017352 75.289263 
C 321.017352 74.351628 320.644826 73.452271 319.981818 72.789263 
C 319.31881 72.126255 318.419453 71.753729 317.481818 71.753729 
C 316.544184 71.753729 315.644826 72.126255 314.981818 72.789263 
C 314.31881 73.452271 313.946284 74.351628 313.946284 75.289263 
C 313.946284 76.226897 314.31881 77.126255 314.981818 77.789263 
C 315.644826 78.452271 316.544184 78.824797 317.481818 78.824797 
z
" style="fill:none;stroke:#98bf8a;"/>
   </g>
   <g id="PathCollection_35">
    <path clip-path="url(#p9da7c21108)" d="M 324.444385 75.912833 
C 325.38202 75.912833 326.281377 75.540307 326.944385 74.877299 
C 327.607393 74.214291 327.979919 73.314934 327.979919 72.377299 
C 327.979919 71.439665 327.607393 70.540307 326.944385 69.877299 
C 326.281377 69.214291 325.38202 68.841765 324.444385 68.841765 
C 323.50675 68.841765 322.607393 69.214291 321.944385 69.877299 
C 321.281377 70.540307 320.908851 71.439665 320.908851 72.377299 
C 320.908851 73.314934 321.281377 74.214291 321.944385 74.877299 
C 322.607393 75.540307 323.50675 75.912833 324.444385 75.912833 
z
" style="fill:none;stroke:#98bf8a;"/>
   </g>
   <g id="PathCollection_36">
    <path clip-path="url(#p9da7c21108)" d="M 331.406952 73.384306 
C 332.344586 73.384306 333.243944 73.01178 333.906952 72.348772 
C 334.56996 71.685764 334.942486 70.786406 334.942486 69.848772 
C 334.942486 68.911137 334.56996 68.01178 333.906952 67.348772 
C 333.243944 66.685764 332.344586 66.313238 331.406952 66.313238 
C 330.469317 66.313238 329.56996 66.685764 328.906952 67.348772 
C 328.243944 68.01178 327.871418 68.911137 327.871418 69.848772 
C 327.871418 70.786406 328.243944 71.685764 328.906952 72.348772 
C 329.56996 73.01178 330.469317 73.384306 331.406952 73.384306 
z
" style="fill:none;stroke:#98bf8a;"/>
   </g>
   <g id="PathCollection_37">
    <path clip-path="url(#p9da7c21108)" d="M 338.369519 71.178454 
C 339.307153 71.178454 340.206511 70.805928 340.869519 70.14292 
C 341.532526 69.479912 341.905053 68.580555 341.905053 67.64292 
C 341.905053 66.705286 341.532526 65.805928 340.869519 65.14292 
C 340.206511 64.479912 339.307153 64.107386 338.369519 64.107386 
C 337.431884 64.107386 336.532526 64.479912 335.869519 65.14292 
C 335.206511 65.805928 334.833985 66.705286 334.833985 67.64292 
C 334.833985 68.580555 335.206511 69.479912 335.869519 70.14292 
C 336.532526 70.805928 337.431884 71.178454 338.369519 71.178454 
z
" style="fill:none;stroke:#98bf8a;"/>
   </g>
   <g id="PathCollection_38">
    <path clip-path="url(#p9da7c21108)" d="M 345.332086 69.225431 
C 346.26972 69.225431 347.169078 68.852905 347.832086 68.189898 
C 348.495093 67.52689 348.867619 66.627532 348.867619 65.689898 
C 348.867619 64.752263 348.495093 63.852905 347.832086 63.189898 
C 347.169078 62.52689 346.26972 62.154364 345.332086 62.154364 
C 344.394451 62.154364 343.495093 62.52689 342.832086 63.189898 
C 342.169078 63.852905 341.796552 64.752263 341.796552 65.689898 
C 341.796552 66.627532 342.169078 67.52689 342.832086 68.189898 
C 343.495093 68.852905 344.394451 69.225431 345.332086 69.225431 
z
" style="fill:none;stroke:#98bf8a;"/>
   </g>
   <g id="PathCollection_39">
    <path clip-path="url(#p9da7c21108)" d="M 352.294652 67.453669 
C 353.232287 67.453669 354.131645 67.081143 354.794652 66.418135 
C 355.45766 65.755127 355.830186 64.855769 355.830186 63.918135 
C 355.830186 62.9805 355.45766 62.081143 354.794652 61.418135 
C 354.131645 60.755127 353.232287 60.382601 352.294652 60.382601 
C 351.357018 60.382601 350.45766 60.755127 349.794652 61.418135 
C 349.131645 62.081143 348.759119 62.9805 348.759119 63.918135 
C 348.759119 64.855769 349.131645 65.755127 349.794652 66.418135 
C 350.45766 67.081143 351.357018 67.453669 352.294652 67.453669 
z
" style="fill:none;stroke:#98bf8a;"/>
   </g>
   <g id="PathCollection_40">
    <path clip-path="url(#p9da7c21108)" d="M 359.257219 65.79929 
C 360.194854 65.79929 361.094212 65.426764 361.757219 64.763756 
C 362.420227 64.100749 362.792753 63.201391 362.792753 62.263756 
C 362.792753 61.326122 362.420227 60.426764 361.757219 59.763756 
C 361.094212 59.100749 360.194854 58.728222 359.257219 58.728222 
C 358.319585 58.728222 357.420227 59.100749 356.757219 59.763756 
C 356.094212 60.426764 355.721685 61.326122 355.721685 62.263756 
C 355.721685 63.201391 356.094212 64.100749 356.757219 64.763756 
C 357.420227 65.426764 358.319585 65.79929 359.257219 65.79929 
z
" style="fill:none;stroke:#98bf8a;"/>
   </g>
   <g id="PathCollection_41">
    <path clip-path="url(#p9da7c21108)" d="M 366.219786 64.217748 
C 367.157421 64.217748 368.056778 63.845221 368.719786 63.182214 
C 369.382794 62.519206 369.75532 61.619848 369.75532 60.682214 
C 369.75532 59.744579 369.382794 58.845221 368.719786 58.182214 
C 368.056778 57.519206 367.157421 57.14668 366.219786 57.14668 
C 365.282152 57.14668 364.382794 57.519206 363.719786 58.182214 
C 363.056778 58.845221 362.684252 59.744579 362.684252 60.682214 
C 362.684252 61.619848 363.056778 62.519206 363.719786 63.182214 
C 364.382794 63.845221 365.282152 64.217748 366.219786 64.217748 
z
" style="fill:none;stroke:#98bf8a;"/>
   </g>
   <g id="PathCollection_42">
    <path clip-path="url(#p9da7c21108)" d="M 373.182353 62.697836 
C 374.119987 62.697836 375.019345 62.32531 375.682353 61.662302 
C 376.345361 60.999294 376.717887 60.099937 376.717887 59.162302 
C 376.717887 58.224668 376.345361 57.32531 375.682353 56.662302 
C 375.019345 55.999294 374.119987 55.626768 373.182353 55.626768 
C 372.244718 55.626768 371.345361 55.999294 370.682353 56.662302 
C 370.019345 57.32531 369.646819 58.224668 369.646819 59.162302 
C 369.646819 60.099937 370.019345 60.999294 370.682353 61.662302 
C 371.345361 62.32531 372.244718 62.697836 373.182353 62.697836 
z
" style="fill:none;stroke:#98bf8a;"/>
   </g>
   <g id="PathCollection_43">
    <path clip-path="url(#p9da7c21108)" d="M 380.14492 61.278254 
C 381.082554 61.278254 381.981912 60.905728 382.64492 60.24272 
C 383.307928 59.579712 383.680454 58.680354 383.680454 57.74272 
C 383.680454 56.805085 383.307928 55.905728 382.64492 55.24272 
C 381.981912 54.579712 381.082554 54.207186 380.14492 54.207186 
C 379.207285 54.207186 378.307928 54.579712 377.64492 55.24272 
C 376.981912 55.905728 376.609386 56.805085 376.609386 57.74272 
C 376.609386 58.680354 376.981912 59.579712 377.64492 60.24272 
C 378.307928 60.905728 379.207285 61.278254 380.14492 61.278254 
z
" style="fill:none;stroke:#98bf8a;"/>
   </g>
   <g id="PathCollection_44">
    <path clip-path="url(#p9da7c21108)" d="M 387.107487 60.066872 
C 388.045121 60.066872 388.944479 59.694346 389.607487 59.031338 
C 390.270494 58.36833 390.643021 57.468973 390.643021 56.531338 
C 390.643021 55.593704 390.270494 54.694346 389.607487 54.031338 
C 388.944479 53.36833 388.045121 52.995804 387.107487 52.995804 
C 386.169852 52.995804 385.270494 53.36833 384.607487 54.031338 
C 383.944479 54.694346 383.571953 55.593704 383.571953 56.531338 
C 383.571953 57.468973 383.944479 58.36833 384.607487 59.031338 
C 385.270494 59.694346 386.169852 60.066872 387.107487 60.066872 
z
" style="fill:none;stroke:#98bf8a;"/>
   </g>
   <g id="PathCollection_45">
    <path clip-path="url(#p9da7c21108)" d="M 394.070053 59.262878 
C 395.007688 59.262878 395.907046 58.890351 396.570053 58.227344 
C 397.233061 57.564336 397.605587 56.664978 397.605587 55.727344 
C 397.605587 54.789709 397.233061 53.890351 396.570053 53.227344 
C 395.907046 52.564336 395.007688 52.19181 394.070053 52.19181 
C 393.132419 52.19181 392.233061 52.564336 391.570053 53.227344 
C 390.907046 53.890351 390.53452 54.789709 390.53452 55.727344 
C 390.53452 56.664978 390.907046 57.564336 391.570053 58.227344 
C 392.233061 58.890351 393.132419 59.262878 394.070053 59.262878 
z
" style="fill:none;stroke:#98bf8a;"/>
   </g>
   <g id="PathCollection_46">
    <path clip-path="url(#p9da7c21108)" d="M 401.03262 59.181952 
C 401.970255 59.181952 402.869613 58.809426 403.53262 58.146418 
C 404.195628 57.48341 404.568154 56.584052 404.568154 55.646418 
C 404.568154 54.708783 404.195628 53.809426 403.53262 53.146418 
C 402.869613 52.48341 401.970255 52.110884 401.03262 52.110884 
C 400.094986 52.110884 399.195628 52.48341 398.53262 53.146418 
C 397.869613 53.809426 397.497086 54.708783 397.497086 55.646418 
C 397.497086 56.584052 397.869613 57.48341 398.53262 58.146418 
C 399.195628 58.809426 400.094986 59.181952 401.03262 59.181952 
z
" style="fill:none;stroke:#98bf8a;"/>
   </g>
   <g id="PathCollection_47">
    <path clip-path="url(#p9da7c21108)" d="M 407.995187 60.284649 
C 408.932822 60.284649 409.832179 59.912123 410.495187 59.249115 
C 411.158195 58.586107 411.530721 57.68675 411.530721 56.749115 
C 411.530721 55.811481 411.158195 54.912123 410.495187 54.249115 
C 409.832179 53.586107 408.932822 53.213581 407.995187 53.213581 
C 407.057553 53.213581 406.158195 53.586107 405.495187 54.249115 
C 404.832179 54.912123 404.459653 55.811481 404.459653 56.749115 
C 404.459653 57.68675 404.832179 58.586107 405.495187 59.249115 
C 406.158195 59.912123 407.057553 60.284649 407.995187 60.284649 
z
" style="fill:none;stroke:#98bf8a;"/>
   </g>
   <g id="PathCollection_48">
    <path clip-path="url(#p9da7c21108)" d="M 414.957754 63.208143 
C 415.895389 63.208143 416.794746 62.835617 417.457754 62.172609 
C 418.120762 61.509601 418.493288 60.610243 418.493288 59.672609 
C 418.493288 58.734974 418.120762 57.835617 417.457754 57.172609 
C 416.794746 56.509601 415.895389 56.137075 414.957754 56.137075 
C 414.020119 56.137075 413.120762 56.509601 412.457754 57.172609 
C 411.794746 57.835617 411.42222 58.734974 411.42222 59.672609 
C 411.42222 60.610243 411.794746 61.509601 412.457754 62.172609 
C 413.120762 62.835617 414.020119 63.208143 414.957754 63.208143 
z
" style="fill:none;stroke:#98bf8a;"/>
   </g>
   <g id="PathCollection_49">
    <path clip-path="url(#p9da7c21108)" d="M 421.920321 68.801496 
C 422.857955 68.801496 423.757313 68.428969 424.420321 67.765962 
C 425.083329 67.102954 425.455855 66.203596 425.455855 65.265962 
C 425.455855 64.328327 425.083329 63.428969 424.420321 62.765962 
C 423.757313 62.102954 422.857955 61.730428 421.920321 61.730428 
C 420.982686 61.730428 420.083329 62.102954 419.420321 62.765962 
C 418.757313 63.428969 418.384787 64.328327 418.384787 65.265962 
C 418.384787 66.203596 418.757313 67.102954 419.420321 67.765962 
C 420.083329 68.428969 420.982686 68.801496 421.920321 68.801496 
z
" style="fill:none;stroke:#98bf8a;"/>
   </g>
   <g id="PathCollection_50">
    <path clip-path="url(#p9da7c21108)" d="M 428.882888 78.164624 
C 429.820522 78.164624 430.71988 77.792098 431.382888 77.12909 
C 432.045895 76.466082 432.418422 75.566725 432.418422 74.62909 
C 432.418422 73.691456 432.045895 72.792098 431.382888 72.12909 
C 430.71988 71.466082 429.820522 71.093556 428.882888 71.093556 
C 427.945253 71.093556 427.045895 71.466082 426.382888 72.12909 
C 425.71988 72.792098 425.347354 73.691456 425.347354 74.62909 
C 425.347354 75.566725 425.71988 76.466082 426.382888 77.12909 
C 427.045895 77.792098 427.945253 78.164624 428.882888 78.164624 
z
" style="fill:none;stroke:#98bf8a;"/>
   </g>
   <g id="PathCollection_51">
    <path clip-path="url(#p9da7c21108)" d="M 435.845455 92.691119 
C 436.783089 92.691119 437.682447 92.318593 438.345455 91.655585 
C 439.008462 90.992577 439.380988 90.093219 439.380988 89.155585 
C 439.380988 88.21795 439.008462 87.318593 438.345455 86.655585 
C 437.682447 85.992577 436.783089 85.620051 435.845455 85.620051 
C 434.90782 85.620051 434.008462 85.992577 433.345455 86.655585 
C 432.682447 87.318593 432.309921 88.21795 432.309921 89.155585 
C 432.309921 90.093219 432.682447 90.992577 433.345455 91.655585 
C 434.008462 92.318593 434.90782 92.691119 435.845455 92.691119 
z
" style="fill:none;stroke:#98bf8a;"/>
   </g>
   <g id="PathCollection_52">
    <defs>
     <path d="M 0 3.535534 
C 0.937635 3.535534 1.836992 3.163008 2.5 2.5 
C 3.163008 1.836992 3.535534 0.937635 3.535534 0 
C 3.535534 -0.937635 3.163008 -1.836992 2.5 -2.5 
C 1.836992 -3.163008 0.937635 -3.535534 0 -3.535534 
C -0.937635 -3.535534 -1.836992 -3.163008 -2.5 -2.5 
C -3.163008 -1.836992 -3.535534 -0.937635 -3.535534 0 
C -3.535534 0.937635 -3.163008 1.836992 -2.5 2.5 
C -1.836992 3.163008 -0.937635 3.535534 0 3.535534 
z
" id="m362e38e18b" style="stroke:#98bf8a;"/>
    </defs>
    <g clip-path="url(#p9da7c21108)">
     <use style="fill:#98bf8a;stroke:#98bf8a;" x="87.717112" xlink:href="#m362e38e18b" y="189.086046"/>
    </g>
   </g>
   <g id="PathCollection_53">
    <g clip-path="url(#p9da7c21108)">
     <use style="fill:#98bf8a;stroke:#98bf8a;" x="94.679679" xlink:href="#m362e38e18b" y="189.311827"/>
    </g>
   </g>
   <g id="PathCollection_54">
    <g clip-path="url(#p9da7c21108)">
     <use style="fill:#98bf8a;stroke:#98bf8a;" x="101.642246" xlink:href="#m362e38e18b" y="188.960205"/>
    </g>
   </g>
   <g id="PathCollection_55">
    <g clip-path="url(#p9da7c21108)">
     <use style="fill:#98bf8a;stroke:#98bf8a;" x="108.604813" xlink:href="#m362e38e18b" y="188.161364"/>
    </g>
   </g>
   <g id="PathCollection_56">
    <g clip-path="url(#p9da7c21108)">
     <use style="fill:#98bf8a;stroke:#98bf8a;" x="115.56738" xlink:href="#m362e38e18b" y="187.010424"/>
    </g>
   </g>
   <g id="PathCollection_57">
    <g clip-path="url(#p9da7c21108)">
     <use style="fill:#98bf8a;stroke:#98bf8a;" x="122.529947" xlink:href="#m362e38e18b" y="185.576669"/>
    </g>
   </g>
   <g id="PathCollection_58">
    <g clip-path="url(#p9da7c21108)">
     <use style="fill:#98bf8a;stroke:#98bf8a;" x="129.492513" xlink:href="#m362e38e18b" y="183.902585"/>
    </g>
   </g>
   <g id="PathCollection_59">
    <g clip-path="url(#p9da7c21108)">
     <use style="fill:#98bf8a;stroke:#98bf8a;" x="136.45508" xlink:href="#m362e38e18b" y="182.015083"/>
    </g>
   </g>
   <g id="PathCollection_60">
    <g clip-path="url(#p9da7c21108)">
     <use style="fill:#98bf8a;stroke:#98bf8a;" x="143.417647" xlink:href="#m362e38e18b" y="179.926605"/>
    </g>
   </g>
   <g id="PathCollection_61">
    <g clip-path="url(#p9da7c21108)">
     <use style="fill:#98bf8a;stroke:#98bf8a;" x="150.380214" xlink:href="#m362e38e18b" y="177.639521"/>
    </g>
   </g>
   <g id="PathCollection_62">
    <g clip-path="url(#p9da7c21108)">
     <use style="fill:#98bf8a;stroke:#98bf8a;" x="157.342781" xlink:href="#m362e38e18b" y="175.149405"/>
    </g>
   </g>
   <g id="PathCollection_63">
    <g clip-path="url(#p9da7c21108)">
     <use style="fill:#98bf8a;stroke:#98bf8a;" x="164.305348" xlink:href="#m362e38e18b" y="172.447843"/>
    </g>
   </g>
   <g id="PathCollection_64">
    <g clip-path="url(#p9da7c21108)">
     <use style="fill:#98bf8a;stroke:#98bf8a;" x="171.267914" xlink:href="#m362e38e18b" y="169.524797"/>
    </g>
   </g>
   <g id="PathCollection_65">
    <g clip-path="url(#p9da7c21108)">
     <use style="fill:#98bf8a;stroke:#98bf8a;" x="178.230481" xlink:href="#m362e38e18b" y="166.370569"/>
    </g>
   </g>
   <g id="PathCollection_66">
    <g clip-path="url(#p9da7c21108)">
     <use style="fill:#98bf8a;stroke:#98bf8a;" x="185.193048" xlink:href="#m362e38e18b" y="162.97738"/>
    </g>
   </g>
   <g id="PathCollection_67">
    <g clip-path="url(#p9da7c21108)">
     <use style="fill:#98bf8a;stroke:#98bf8a;" x="192.155615" xlink:href="#m362e38e18b" y="159.340599"/>
    </g>
   </g>
   <g id="PathCollection_68">
    <g clip-path="url(#p9da7c21108)">
     <use style="fill:#98bf8a;stroke:#98bf8a;" x="199.118182" xlink:href="#m362e38e18b" y="155.459655"/>
    </g>
   </g>
   <g id="PathCollection_69">
    <g clip-path="url(#p9da7c21108)">
     <use style="fill:#98bf8a;stroke:#98bf8a;" x="206.080749" xlink:href="#m362e38e18b" y="151.338642"/>
    </g>
   </g>
   <g id="PathCollection_70">
    <g clip-path="url(#p9da7c21108)">
     <use style="fill:#98bf8a;stroke:#98bf8a;" x="213.043316" xlink:href="#m362e38e18b" y="146.986674"/>
    </g>
   </g>
   <g id="PathCollection_71">
    <g clip-path="url(#p9da7c21108)">
     <use style="fill:#98bf8a;stroke:#98bf8a;" x="220.005882" xlink:href="#m362e38e18b" y="142.417998"/>
    </g>
   </g>
   <g id="PathCollection_72">
    <g clip-path="url(#p9da7c21108)">
     <use style="fill:#98bf8a;stroke:#98bf8a;" x="226.968449" xlink:href="#m362e38e18b" y="137.651893"/>
    </g>
   </g>
   <g id="PathCollection_73">
    <g clip-path="url(#p9da7c21108)">
     <use style="fill:#98bf8a;stroke:#98bf8a;" x="233.931016" xlink:href="#m362e38e18b" y="132.712405"/>
    </g>
   </g>
   <g id="PathCollection_74">
    <g clip-path="url(#p9da7c21108)">
     <use style="fill:#98bf8a;stroke:#98bf8a;" x="240.893583" xlink:href="#m362e38e18b" y="127.627915"/>
    </g>
   </g>
   <g id="PathCollection_75">
    <g clip-path="url(#p9da7c21108)">
     <use style="fill:#98bf8a;stroke:#98bf8a;" x="247.85615" xlink:href="#m362e38e18b" y="122.4306"/>
    </g>
   </g>
   <g id="PathCollection_76">
    <g clip-path="url(#p9da7c21108)">
     <use style="fill:#98bf8a;stroke:#98bf8a;" x="254.818717" xlink:href="#m362e38e18b" y="117.155794"/>
    </g>
   </g>
   <g id="PathCollection_77">
    <g clip-path="url(#p9da7c21108)">
     <use style="fill:#98bf8a;stroke:#98bf8a;" x="261.781283" xlink:href="#m362e38e18b" y="111.841286"/>
    </g>
   </g>
   <g id="PathCollection_78">
    <g clip-path="url(#p9da7c21108)">
     <use style="fill:#98bf8a;stroke:#98bf8a;" x="268.74385" xlink:href="#m362e38e18b" y="106.526586"/>
    </g>
   </g>
   <g id="PathCollection_79">
    <g clip-path="url(#p9da7c21108)">
     <use style="fill:#98bf8a;stroke:#98bf8a;" x="275.706417" xlink:href="#m362e38e18b" y="101.25218"/>
    </g>
   </g>
   <g id="PathCollection_80">
    <g clip-path="url(#p9da7c21108)">
     <use style="fill:#98bf8a;stroke:#98bf8a;" x="282.668984" xlink:href="#m362e38e18b" y="96.058812"/>
    </g>
   </g>
   <g id="PathCollection_81">
    <g clip-path="url(#p9da7c21108)">
     <use style="fill:#98bf8a;stroke:#98bf8a;" x="289.631551" xlink:href="#m362e38e18b" y="90.986813"/>
    </g>
   </g>
   <g id="PathCollection_82">
    <g clip-path="url(#p9da7c21108)">
     <use style="fill:#98bf8a;stroke:#98bf8a;" x="296.594118" xlink:href="#m362e38e18b" y="86.075515"/>
    </g>
   </g>
   <g id="PathCollection_83">
    <g clip-path="url(#p9da7c21108)">
     <use style="fill:#98bf8a;stroke:#98bf8a;" x="303.556684" xlink:href="#m362e38e18b" y="81.362769"/>
    </g>
   </g>
   <g id="PathCollection_84">
    <g clip-path="url(#p9da7c21108)">
     <use style="fill:#98bf8a;stroke:#98bf8a;" x="310.519251" xlink:href="#m362e38e18b" y="76.884599"/>
    </g>
   </g>
   <g id="PathCollection_85">
    <g clip-path="url(#p9da7c21108)">
     <use style="fill:#98bf8a;stroke:#98bf8a;" x="317.481818" xlink:href="#m362e38e18b" y="72.67503"/>
    </g>
   </g>
   <g id="PathCollection_86">
    <g clip-path="url(#p9da7c21108)">
     <use style="fill:#98bf8a;stroke:#98bf8a;" x="324.444385" xlink:href="#m362e38e18b" y="68.766103"/>
    </g>
   </g>
   <g id="PathCollection_87">
    <g clip-path="url(#p9da7c21108)">
     <use style="fill:#98bf8a;stroke:#98bf8a;" x="331.406952" xlink:href="#m362e38e18b" y="65.188115"/>
    </g>
   </g>
   <g id="PathCollection_88">
    <g clip-path="url(#p9da7c21108)">
     <use style="fill:#98bf8a;stroke:#98bf8a;" x="338.369519" xlink:href="#m362e38e18b" y="61.970116"/>
    </g>
   </g>
   <g id="PathCollection_89">
    <g clip-path="url(#p9da7c21108)">
     <use style="fill:#98bf8a;stroke:#98bf8a;" x="345.332086" xlink:href="#m362e38e18b" y="59.140678"/>
    </g>
   </g>
   <g id="PathCollection_90">
    <g clip-path="url(#p9da7c21108)">
     <use style="fill:#98bf8a;stroke:#98bf8a;" x="352.294652" xlink:href="#m362e38e18b" y="56.728986"/>
    </g>
   </g>
   <g id="PathCollection_91">
    <g clip-path="url(#p9da7c21108)">
     <use style="fill:#98bf8a;stroke:#98bf8a;" x="359.257219" xlink:href="#m362e38e18b" y="54.766252"/>
    </g>
   </g>
   <g id="PathCollection_92">
    <g clip-path="url(#p9da7c21108)">
     <use style="fill:#98bf8a;stroke:#98bf8a;" x="366.219786" xlink:href="#m362e38e18b" y="53.287512"/>
    </g>
   </g>
   <g id="PathCollection_93">
    <g clip-path="url(#p9da7c21108)">
     <use style="fill:#98bf8a;stroke:#98bf8a;" x="373.182353" xlink:href="#m362e38e18b" y="52.333809"/>
    </g>
   </g>
   <g id="PathCollection_94">
    <g clip-path="url(#p9da7c21108)">
     <use style="fill:#98bf8a;stroke:#98bf8a;" x="380.14492" xlink:href="#m362e38e18b" y="51.9548"/>
    </g>
   </g>
   <g id="PathCollection_95">
    <g clip-path="url(#p9da7c21108)">
     <use style="fill:#98bf8a;stroke:#98bf8a;" x="387.107487" xlink:href="#m362e38e18b" y="52.211824"/>
    </g>
   </g>
   <g id="PathCollection_96">
    <g clip-path="url(#p9da7c21108)">
     <use style="fill:#98bf8a;stroke:#98bf8a;" x="394.070053" xlink:href="#m362e38e18b" y="53.181444"/>
    </g>
   </g>
   <g id="PathCollection_97">
    <g clip-path="url(#p9da7c21108)">
     <use style="fill:#98bf8a;stroke:#98bf8a;" x="401.03262" xlink:href="#m362e38e18b" y="54.959505"/>
    </g>
   </g>
   <g id="PathCollection_98">
    <g clip-path="url(#p9da7c21108)">
     <use style="fill:#98bf8a;stroke:#98bf8a;" x="407.995187" xlink:href="#m362e38e18b" y="57.665728"/>
    </g>
   </g>
   <g id="PathCollection_99">
    <g clip-path="url(#p9da7c21108)">
     <use style="fill:#98bf8a;stroke:#98bf8a;" x="414.957754" xlink:href="#m362e38e18b" y="61.448876"/>
    </g>
   </g>
   <g id="PathCollection_100">
    <g clip-path="url(#p9da7c21108)">
     <use style="fill:#98bf8a;stroke:#98bf8a;" x="421.920321" xlink:href="#m362e38e18b" y="66.492514"/>
    </g>
   </g>
   <g id="PathCollection_101">
    <g clip-path="url(#p9da7c21108)">
     <use style="fill:#98bf8a;stroke:#98bf8a;" x="428.882888" xlink:href="#m362e38e18b" y="73.021393"/>
    </g>
   </g>
   <g id="PathCollection_102">
    <g clip-path="url(#p9da7c21108)">
     <use style="fill:#98bf8a;stroke:#98bf8a;" x="435.845455" xlink:href="#m362e38e18b" y="81.308496"/>
    </g>
   </g>
   <g id="matplotlib.axis_1"/>
   <g id="matplotlib.axis_2"/>
   <g id="line2d_1">
    <path clip-path="url(#p9da7c21108)" d="M 80.754545 189 
L 122.26885 188.88939 
L 126.243316 188.579107 
L 130.18877 188.045484 
L 134.250267 187.270142 
L 138.485829 186.234315 
L 142.953476 184.910459 
L 147.653209 183.283893 
L 152.643048 181.319134 
L 157.952005 178.987342 
L 163.667112 176.230295 
L 169.81738 173.013037 
L 176.547861 169.23671 
L 183.974599 164.809728 
L 192.35869 159.546617 
L 202.106283 153.15633 
L 214.174733 144.965224 
L 232.364439 132.317663 
L 261.114037 112.346284 
L 276.286631 102.095052 
L 289.573529 93.381868 
L 299.002005 87.438102 
L 306.312701 83.088278 
L 312.811096 79.476133 
L 318.903342 76.341207 
L 324.734492 73.588812 
L 330.391578 71.162798 
L 335.93262 69.026672 
L 341.415642 67.150042 
L 346.869652 65.517729 
L 352.323663 64.117288 
L 357.806684 62.93932 
L 363.318717 61.982047 
L 368.917781 61.235645 
L 374.603877 60.702349 
L 380.406016 60.38181 
L 386.353209 60.276489 
L 392.474465 60.391368 
L 398.798797 60.733602 
L 405.355214 61.312113 
L 412.201738 62.141095 
L 419.36738 63.234218 
L 426.939171 64.616467 
L 434.975134 66.311881 
L 435.845455 66.508452 
L 435.845455 66.508452 
" style="fill:none;stroke:#98bf8a;stroke-dasharray:11.1,4.8;stroke-dashoffset:0;stroke-width:3;"/>
   </g>
   <g id="line2d_2">
    <path clip-path="url(#p9da7c21108)" d="M 80.754545 189 
L 122.210829 188.88893 
L 126.127273 188.578593 
L 130.014706 188.044511 
L 134.018182 187.267318 
L 138.195722 186.227285 
L 142.576337 184.905227 
L 147.189037 183.278897 
L 152.091845 181.311195 
L 157.31377 178.971658 
L 162.883824 176.229466 
L 168.918048 173.006377 
L 175.474465 169.247455 
L 182.698128 164.844555 
L 190.792112 159.645075 
L 200.133556 153.372365 
L 211.476738 145.476584 
L 227.374599 134.115086 
L 263.434893 108.27433 
L 278.085294 98.100161 
L 290.995053 89.40018 
L 299.901337 83.641398 
L 307.008957 79.305392 
L 313.39131 75.66798 
L 319.367513 72.513926 
L 325.111631 69.731344 
L 330.681684 67.277908 
L 336.164706 65.104989 
L 341.560695 63.20423 
L 346.927674 61.54789 
L 352.294652 60.123253 
L 357.690642 58.920785 
L 363.115642 57.938899 
L 368.627674 57.167626 
L 374.226738 56.609578 
L 379.941845 56.264663 
L 385.772995 56.135803 
L 391.778209 56.226228 
L 397.986497 56.543772 
L 404.397861 57.095172 
L 411.099332 57.896593 
L 418.090909 58.958092 
L 425.459626 60.303473 
L 433.263503 61.956189 
L 435.845455 62.550096 
L 435.845455 62.550096 
" style="fill:none;stroke:#98bf8a;stroke-linecap:square;stroke-width:3;"/>
   </g>
   <g id="patch_3">
    <path d="M 63 189 
L 63 25.92 
" style="fill:none;stroke:#000000;stroke-linecap:square;stroke-linejoin:miter;stroke-width:0.8;"/>
   </g>
   <g id="patch_4">
    <path d="M 453.6 189 
L 453.6 25.92 
" style="fill:none;stroke:#000000;stroke-linecap:square;stroke-linejoin:miter;stroke-width:0.8;"/>
   </g>
   <g id="patch_5">
    <path d="M 63 189 
L 453.6 189 
" style="fill:none;stroke:#000000;stroke-linecap:square;stroke-linejoin:miter;stroke-width:0.8;"/>
   </g>
   <g id="patch_6">
    <path d="M 63 25.92 
L 453.6 25.92 
" style="fill:none;stroke:#000000;stroke-linecap:square;stroke-linejoin:miter;stroke-width:0.8;"/>
   </g>
  </g>
 </g>
 <defs>
  <clipPath id="p9da7c21108">
   <rect height="163.08" width="390.6" x="63" y="25.92"/>
  </clipPath>
 </defs>
</svg>
