<?xml version="1.0" encoding="utf-8" standalone="no"?>
<!DOCTYPE svg PUBLIC "-//W3C//DTD SVG 1.1//EN"
  "http://www.w3.org/Graphics/SVG/1.1/DTD/svg11.dtd">
<!-- Created with matplotlib (https://matplotlib.org/) -->
<svg height="216pt" version="1.1" viewBox="0 0 504 216" width="504pt" xmlns="http://www.w3.org/2000/svg" xmlns:xlink="http://www.w3.org/1999/xlink">
 <metadata>
  <rdf:RDF xmlns:cc="http://creativecommons.org/ns#" xmlns:dc="http://purl.org/dc/elements/1.1/" xmlns:rdf="http://www.w3.org/1999/02/22-rdf-syntax-ns#">
   <cc:Work>
    <dc:type rdf:resource="http://purl.org/dc/dcmitype/StillImage"/>
    <dc:date>2024-12-18T18:45:16.768253</dc:date>
    <dc:format>image/svg+xml</dc:format>
    <dc:creator>
     <cc:Agent>
      <dc:title>Matplotlib v3.3.2, https://matplotlib.org/</dc:title>
     </cc:Agent>
    </dc:creator>
   </cc:Work>
  </rdf:RDF>
 </metadata>
 <defs>
  <style type="text/css">*{stroke-linecap:butt;stroke-linejoin:round;}</style>
 </defs>
 <g id="figure_1">
  <g id="patch_1">
   <path d="M 0 216 
L 504 216 
L 504 0 
L 0 0 
z
" style="fill:none;"/>
  </g>
  <g id="axes_1">
   <g id="patch_2">
    <path d="M 63 189 
L 453.6 189 
L 453.6 25.92 
L 63 25.92 
z
" style="fill:#ffffff;"/>
   </g>
   <g id="PathCollection_1">
    <path clip-path="url(#pe7e7eafdfd)" d="M 87.717112 192.054821 
C 88.654747 192.054821 89.554105 191.682295 90.217112 191.019287 
C 90.88012 190.35628 91.252646 189.456922 91.252646 188.519287 
C 91.252646 187.581653 90.88012 186.682295 90.217112 186.019287 
C 89.554105 185.35628 88.654747 184.983754 87.717112 184.983754 
C 86.779478 184.983754 85.88012 185.35628 85.217112 186.019287 
C 84.554105 186.682295 84.181578 187.581653 84.181578 188.519287 
C 84.181578 189.456922 84.554105 190.35628 85.217112 191.019287 
C 85.88012 191.682295 86.779478 192.054821 87.717112 192.054821 
z
" style="fill:none;stroke:#bcbd22;"/>
   </g>
   <g id="PathCollection_2">
    <path clip-path="url(#pe7e7eafdfd)" d="M 94.679679 191.837367 
C 95.617314 191.837367 96.516671 191.46484 97.179679 190.801833 
C 97.842687 190.138825 98.215213 189.239467 98.215213 188.301833 
C 98.215213 187.364198 97.842687 186.46484 97.179679 185.801833 
C 96.516671 185.138825 95.617314 184.766299 94.679679 184.766299 
C 93.742045 184.766299 92.842687 185.138825 92.179679 185.801833 
C 91.516671 186.46484 91.144145 187.364198 91.144145 188.301833 
C 91.144145 189.239467 91.516671 190.138825 92.179679 190.801833 
C 92.842687 191.46484 93.742045 191.837367 94.679679 191.837367 
z
" style="fill:none;stroke:#bcbd22;"/>
   </g>
   <g id="PathCollection_3">
    <path clip-path="url(#pe7e7eafdfd)" d="M 101.642246 191.428502 
C 102.579881 191.428502 103.479238 191.055976 104.142246 190.392968 
C 104.805254 189.72996 105.17778 188.830603 105.17778 187.892968 
C 105.17778 186.955333 104.805254 186.055976 104.142246 185.392968 
C 103.479238 184.72996 102.579881 184.357434 101.642246 184.357434 
C 100.704611 184.357434 99.805254 184.72996 99.142246 185.392968 
C 98.479238 186.055976 98.106712 186.955333 98.106712 187.892968 
C 98.106712 188.830603 98.479238 189.72996 99.142246 190.392968 
C 99.805254 191.055976 100.704611 191.428502 101.642246 191.428502 
z
" style="fill:none;stroke:#bcbd22;"/>
   </g>
   <g id="PathCollection_4">
    <path clip-path="url(#pe7e7eafdfd)" d="M 108.604813 190.831383 
C 109.542447 190.831383 110.441805 190.458857 111.104813 189.795849 
C 111.767821 189.132841 112.140347 188.233484 112.140347 187.295849 
C 112.140347 186.358215 111.767821 185.458857 111.104813 184.795849 
C 110.441805 184.132841 109.542447 183.760315 108.604813 183.760315 
C 107.667178 183.760315 106.767821 184.132841 106.104813 184.795849 
C 105.441805 185.458857 105.069279 186.358215 105.069279 187.295849 
C 105.069279 188.233484 105.441805 189.132841 106.104813 189.795849 
C 106.767821 190.458857 107.667178 190.831383 108.604813 190.831383 
z
" style="fill:none;stroke:#bcbd22;"/>
   </g>
   <g id="PathCollection_5">
    <path clip-path="url(#pe7e7eafdfd)" d="M 115.56738 190.053456 
C 116.505014 190.053456 117.404372 189.68093 118.06738 189.017922 
C 118.730387 188.354915 119.102914 187.455557 119.102914 186.517922 
C 119.102914 185.580288 118.730387 184.68093 118.06738 184.017922 
C 117.404372 183.354915 116.505014 182.982388 115.56738 182.982388 
C 114.629745 182.982388 113.730387 183.354915 113.06738 184.017922 
C 112.404372 184.68093 112.031846 185.580288 112.031846 186.517922 
C 112.031846 187.455557 112.404372 188.354915 113.06738 189.017922 
C 113.730387 189.68093 114.629745 190.053456 115.56738 190.053456 
z
" style="fill:none;stroke:#bcbd22;"/>
   </g>
   <g id="PathCollection_6">
    <path clip-path="url(#pe7e7eafdfd)" d="M 122.529947 189.106604 
C 123.467581 189.106604 124.366939 188.734078 125.029947 188.07107 
C 125.692954 187.408062 126.06548 186.508705 126.06548 185.57107 
C 126.06548 184.633436 125.692954 183.734078 125.029947 183.07107 
C 124.366939 182.408062 123.467581 182.035536 122.529947 182.035536 
C 121.592312 182.035536 120.692954 182.408062 120.029947 183.07107 
C 119.366939 183.734078 118.994413 184.633436 118.994413 185.57107 
C 118.994413 186.508705 119.366939 187.408062 120.029947 188.07107 
C 120.692954 188.734078 121.592312 189.106604 122.529947 189.106604 
z
" style="fill:none;stroke:#bcbd22;"/>
   </g>
   <g id="PathCollection_7">
    <path clip-path="url(#pe7e7eafdfd)" d="M 129.492513 188.001796 
C 130.430148 188.001796 131.329506 187.62927 131.992513 186.966262 
C 132.655521 186.303254 133.028047 185.403896 133.028047 184.466262 
C 133.028047 183.528627 132.655521 182.62927 131.992513 181.966262 
C 131.329506 181.303254 130.430148 180.930728 129.492513 180.930728 
C 128.554879 180.930728 127.655521 181.303254 126.992513 181.966262 
C 126.329506 182.62927 125.956979 183.528627 125.956979 184.466262 
C 125.956979 185.403896 126.329506 186.303254 126.992513 186.966262 
C 127.655521 187.62927 128.554879 188.001796 129.492513 188.001796 
z
" style="fill:none;stroke:#bcbd22;"/>
   </g>
   <g id="PathCollection_8">
    <path clip-path="url(#pe7e7eafdfd)" d="M 136.45508 186.751765 
C 137.392715 186.751765 138.292072 186.379239 138.95508 185.716231 
C 139.618088 185.053223 139.990614 184.153865 139.990614 183.216231 
C 139.990614 182.278596 139.618088 181.379239 138.95508 180.716231 
C 138.292072 180.053223 137.392715 179.680697 136.45508 179.680697 
C 135.517446 179.680697 134.618088 180.053223 133.95508 180.716231 
C 133.292072 181.379239 132.919546 182.278596 132.919546 183.216231 
C 132.919546 184.153865 133.292072 185.053223 133.95508 185.716231 
C 134.618088 186.379239 135.517446 186.751765 136.45508 186.751765 
z
" style="fill:none;stroke:#bcbd22;"/>
   </g>
   <g id="PathCollection_9">
    <path clip-path="url(#pe7e7eafdfd)" d="M 143.417647 185.368148 
C 144.355282 185.368148 145.254639 184.995622 145.917647 184.332614 
C 146.580655 183.669606 146.953181 182.770248 146.953181 181.832614 
C 146.953181 180.894979 146.580655 179.995622 145.917647 179.332614 
C 145.254639 178.669606 144.355282 178.29708 143.417647 178.29708 
C 142.480013 178.29708 141.580655 178.669606 140.917647 179.332614 
C 140.254639 179.995622 139.882113 180.894979 139.882113 181.832614 
C 139.882113 182.770248 140.254639 183.669606 140.917647 184.332614 
C 141.580655 184.995622 142.480013 185.368148 143.417647 185.368148 
z
" style="fill:none;stroke:#bcbd22;"/>
   </g>
   <g id="PathCollection_10">
    <path clip-path="url(#pe7e7eafdfd)" d="M 150.380214 183.861196 
C 151.317848 183.861196 152.217206 183.488669 152.880214 182.825662 
C 153.543222 182.162654 153.915748 181.263296 153.915748 180.325662 
C 153.915748 179.388027 153.543222 178.488669 152.880214 177.825662 
C 152.217206 177.162654 151.317848 176.790128 150.380214 176.790128 
C 149.442579 176.790128 148.543222 177.162654 147.880214 177.825662 
C 147.217206 178.488669 146.84468 179.388027 146.84468 180.325662 
C 146.84468 181.263296 147.217206 182.162654 147.880214 182.825662 
C 148.543222 183.488669 149.442579 183.861196 150.380214 183.861196 
z
" style="fill:none;stroke:#bcbd22;"/>
   </g>
   <g id="PathCollection_11">
    <path clip-path="url(#pe7e7eafdfd)" d="M 157.342781 182.239319 
C 158.280415 182.239319 159.179773 181.866793 159.842781 181.203785 
C 160.505788 180.540778 160.878315 179.64142 160.878315 178.703785 
C 160.878315 177.766151 160.505788 176.866793 159.842781 176.203785 
C 159.179773 175.540778 158.280415 175.168251 157.342781 175.168251 
C 156.405146 175.168251 155.505788 175.540778 154.842781 176.203785 
C 154.179773 176.866793 153.807247 177.766151 153.807247 178.703785 
C 153.807247 179.64142 154.179773 180.540778 154.842781 181.203785 
C 155.505788 181.866793 156.405146 182.239319 157.342781 182.239319 
z
" style="fill:none;stroke:#bcbd22;"/>
   </g>
   <g id="PathCollection_12">
    <path clip-path="url(#pe7e7eafdfd)" d="M 164.305348 180.508844 
C 165.242982 180.508844 166.14234 180.136318 166.805348 179.47331 
C 167.468355 178.810302 167.840881 177.910945 167.840881 176.97331 
C 167.840881 176.035676 167.468355 175.136318 166.805348 174.47331 
C 166.14234 173.810302 165.242982 173.437776 164.305348 173.437776 
C 163.367713 173.437776 162.468355 173.810302 161.805348 174.47331 
C 161.14234 175.136318 160.769814 176.035676 160.769814 176.97331 
C 160.769814 177.910945 161.14234 178.810302 161.805348 179.47331 
C 162.468355 180.136318 163.367713 180.508844 164.305348 180.508844 
z
" style="fill:none;stroke:#bcbd22;"/>
   </g>
   <g id="PathCollection_13">
    <path clip-path="url(#pe7e7eafdfd)" d="M 171.267914 178.673948 
C 172.205549 178.673948 173.104907 178.301422 173.767914 177.638414 
C 174.430922 176.975407 174.803448 176.076049 174.803448 175.138414 
C 174.803448 174.20078 174.430922 173.301422 173.767914 172.638414 
C 173.104907 171.975407 172.205549 171.60288 171.267914 171.60288 
C 170.33028 171.60288 169.430922 171.975407 168.767914 172.638414 
C 168.104907 173.301422 167.732381 174.20078 167.732381 175.138414 
C 167.732381 176.076049 168.104907 176.975407 168.767914 177.638414 
C 169.430922 178.301422 170.33028 178.673948 171.267914 178.673948 
z
" style="fill:none;stroke:#bcbd22;"/>
   </g>
   <g id="PathCollection_14">
    <path clip-path="url(#pe7e7eafdfd)" d="M 178.230481 176.736763 
C 179.168116 176.736763 180.067474 176.364237 180.730481 175.701229 
C 181.393489 175.038222 181.766015 174.138864 181.766015 173.201229 
C 181.766015 172.263595 181.393489 171.364237 180.730481 170.701229 
C 180.067474 170.038222 179.168116 169.665695 178.230481 169.665695 
C 177.292847 169.665695 176.393489 170.038222 175.730481 170.701229 
C 175.067474 171.364237 174.694947 172.263595 174.694947 173.201229 
C 174.694947 174.138864 175.067474 175.038222 175.730481 175.701229 
C 176.393489 176.364237 177.292847 176.736763 178.230481 176.736763 
z
" style="fill:none;stroke:#bcbd22;"/>
   </g>
   <g id="PathCollection_15">
    <path clip-path="url(#pe7e7eafdfd)" d="M 185.193048 174.697621 
C 186.130683 174.697621 187.03004 174.325095 187.693048 173.662087 
C 188.356056 172.999079 188.728582 172.099722 188.728582 171.162087 
C 188.728582 170.224453 188.356056 169.325095 187.693048 168.662087 
C 187.03004 167.999079 186.130683 167.626553 185.193048 167.626553 
C 184.255414 167.626553 183.356056 167.999079 182.693048 168.662087 
C 182.03004 169.325095 181.657514 170.224453 181.657514 171.162087 
C 181.657514 172.099722 182.03004 172.999079 182.693048 173.662087 
C 183.356056 174.325095 184.255414 174.697621 185.193048 174.697621 
z
" style="fill:none;stroke:#bcbd22;"/>
   </g>
   <g id="PathCollection_16">
    <path clip-path="url(#pe7e7eafdfd)" d="M 192.155615 172.555421 
C 193.09325 172.555421 193.992607 172.182895 194.655615 171.519887 
C 195.318623 170.856879 195.691149 169.957521 195.691149 169.019887 
C 195.691149 168.082252 195.318623 167.182895 194.655615 166.519887 
C 193.992607 165.856879 193.09325 165.484353 192.155615 165.484353 
C 191.21798 165.484353 190.318623 165.856879 189.655615 166.519887 
C 188.992607 167.182895 188.620081 168.082252 188.620081 169.019887 
C 188.620081 169.957521 188.992607 170.856879 189.655615 171.519887 
C 190.318623 172.182895 191.21798 172.555421 192.155615 172.555421 
z
" style="fill:none;stroke:#bcbd22;"/>
   </g>
   <g id="PathCollection_17">
    <path clip-path="url(#pe7e7eafdfd)" d="M 199.118182 170.308098 
C 200.055816 170.308098 200.955174 169.935572 201.618182 169.272565 
C 202.28119 168.609557 202.653716 167.710199 202.653716 166.772565 
C 202.653716 165.83493 202.28119 164.935572 201.618182 164.272565 
C 200.955174 163.609557 200.055816 163.237031 199.118182 163.237031 
C 198.180547 163.237031 197.28119 163.609557 196.618182 164.272565 
C 195.955174 164.935572 195.582648 165.83493 195.582648 166.772565 
C 195.582648 167.710199 195.955174 168.609557 196.618182 169.272565 
C 197.28119 169.935572 198.180547 170.308098 199.118182 170.308098 
z
" style="fill:none;stroke:#bcbd22;"/>
   </g>
   <g id="PathCollection_18">
    <path clip-path="url(#pe7e7eafdfd)" d="M 206.080749 167.95318 
C 207.018383 167.95318 207.917741 167.580653 208.580749 166.917646 
C 209.243756 166.254638 209.616283 165.35528 209.616283 164.417646 
C 209.616283 163.480011 209.243756 162.580653 208.580749 161.917646 
C 207.917741 161.254638 207.018383 160.882112 206.080749 160.882112 
C 205.143114 160.882112 204.243756 161.254638 203.580749 161.917646 
C 202.917741 162.580653 202.545215 163.480011 202.545215 164.417646 
C 202.545215 165.35528 202.917741 166.254638 203.580749 166.917646 
C 204.243756 167.580653 205.143114 167.95318 206.080749 167.95318 
z
" style="fill:none;stroke:#bcbd22;"/>
   </g>
   <g id="PathCollection_19">
    <path clip-path="url(#pe7e7eafdfd)" d="M 213.043316 165.48839 
C 213.98095 165.48839 214.880308 165.115864 215.543316 164.452856 
C 216.206323 163.789848 216.578849 162.89049 216.578849 161.952856 
C 216.578849 161.015221 216.206323 160.115864 215.543316 159.452856 
C 214.880308 158.789848 213.98095 158.417322 213.043316 158.417322 
C 212.105681 158.417322 211.206323 158.789848 210.543316 159.452856 
C 209.880308 160.115864 209.507782 161.015221 209.507782 161.952856 
C 209.507782 162.89049 209.880308 163.789848 210.543316 164.452856 
C 211.206323 165.115864 212.105681 165.48839 213.043316 165.48839 
z
" style="fill:none;stroke:#bcbd22;"/>
   </g>
   <g id="PathCollection_20">
    <path clip-path="url(#pe7e7eafdfd)" d="M 220.005882 162.912307 
C 220.943517 162.912307 221.842875 162.53978 222.505882 161.876773 
C 223.16889 161.213765 223.541416 160.314407 223.541416 159.376773 
C 223.541416 158.439138 223.16889 157.53978 222.505882 156.876773 
C 221.842875 156.213765 220.943517 155.841239 220.005882 155.841239 
C 219.068248 155.841239 218.16889 156.213765 217.505882 156.876773 
C 216.842875 157.53978 216.470348 158.439138 216.470348 159.376773 
C 216.470348 160.314407 216.842875 161.213765 217.505882 161.876773 
C 218.16889 162.53978 219.068248 162.912307 220.005882 162.912307 
z
" style="fill:none;stroke:#bcbd22;"/>
   </g>
   <g id="PathCollection_21">
    <path clip-path="url(#pe7e7eafdfd)" d="M 226.968449 160.225031 
C 227.906084 160.225031 228.805441 159.852505 229.468449 159.189497 
C 230.131457 158.526489 230.503983 157.627131 230.503983 156.689497 
C 230.503983 155.751862 230.131457 154.852505 229.468449 154.189497 
C 228.805441 153.526489 227.906084 153.153963 226.968449 153.153963 
C 226.030815 153.153963 225.131457 153.526489 224.468449 154.189497 
C 223.805441 154.852505 223.432915 155.751862 223.432915 156.689497 
C 223.432915 157.627131 223.805441 158.526489 224.468449 159.189497 
C 225.131457 159.852505 226.030815 160.225031 226.968449 160.225031 
z
" style="fill:none;stroke:#bcbd22;"/>
   </g>
   <g id="PathCollection_22">
    <path clip-path="url(#pe7e7eafdfd)" d="M 233.931016 157.428855 
C 234.868651 157.428855 235.768008 157.056329 236.431016 156.393321 
C 237.094024 155.730313 237.46655 154.830955 237.46655 153.893321 
C 237.46655 152.955686 237.094024 152.056329 236.431016 151.393321 
C 235.768008 150.730313 234.868651 150.357787 233.931016 150.357787 
C 232.993381 150.357787 232.094024 150.730313 231.431016 151.393321 
C 230.768008 152.056329 230.395482 152.955686 230.395482 153.893321 
C 230.395482 154.830955 230.768008 155.730313 231.431016 156.393321 
C 232.094024 157.056329 232.993381 157.428855 233.931016 157.428855 
z
" style="fill:none;stroke:#bcbd22;"/>
   </g>
   <g id="PathCollection_23">
    <path clip-path="url(#pe7e7eafdfd)" d="M 240.893583 154.528913 
C 241.831217 154.528913 242.730575 154.156387 243.393583 153.493379 
C 244.056591 152.830371 244.429117 151.931013 244.429117 150.993379 
C 244.429117 150.055744 244.056591 149.156387 243.393583 148.493379 
C 242.730575 147.830371 241.831217 147.457845 240.893583 147.457845 
C 239.955948 147.457845 239.056591 147.830371 238.393583 148.493379 
C 237.730575 149.156387 237.358049 150.055744 237.358049 150.993379 
C 237.358049 151.931013 237.730575 152.830371 238.393583 153.493379 
C 239.056591 154.156387 239.955948 154.528913 240.893583 154.528913 
z
" style="fill:none;stroke:#bcbd22;"/>
   </g>
   <g id="PathCollection_24">
    <path clip-path="url(#pe7e7eafdfd)" d="M 247.85615 151.533781 
C 248.793784 151.533781 249.693142 151.161255 250.35615 150.498247 
C 251.019157 149.835239 251.391684 148.935882 251.391684 147.998247 
C 251.391684 147.060612 251.019157 146.161255 250.35615 145.498247 
C 249.693142 144.835239 248.793784 144.462713 247.85615 144.462713 
C 246.918515 144.462713 246.019157 144.835239 245.35615 145.498247 
C 244.693142 146.161255 244.320616 147.060612 244.320616 147.998247 
C 244.320616 148.935882 244.693142 149.835239 245.35615 150.498247 
C 246.019157 151.161255 246.918515 151.533781 247.85615 151.533781 
z
" style="fill:none;stroke:#bcbd22;"/>
   </g>
   <g id="PathCollection_25">
    <path clip-path="url(#pe7e7eafdfd)" d="M 254.818717 148.456022 
C 255.756351 148.456022 256.655709 148.083496 257.318717 147.420488 
C 257.981724 146.75748 258.35425 145.858123 258.35425 144.920488 
C 258.35425 143.982854 257.981724 143.083496 257.318717 142.420488 
C 256.655709 141.75748 255.756351 141.384954 254.818717 141.384954 
C 253.881082 141.384954 252.981724 141.75748 252.318717 142.420488 
C 251.655709 143.083496 251.283183 143.982854 251.283183 144.920488 
C 251.283183 145.858123 251.655709 146.75748 252.318717 147.420488 
C 252.981724 148.083496 253.881082 148.456022 254.818717 148.456022 
z
" style="fill:none;stroke:#bcbd22;"/>
   </g>
   <g id="PathCollection_26">
    <path clip-path="url(#pe7e7eafdfd)" d="M 261.781283 145.312641 
C 262.718918 145.312641 263.618276 144.940114 264.281283 144.277107 
C 264.944291 143.614099 265.316817 142.714741 265.316817 141.777107 
C 265.316817 140.839472 264.944291 139.940114 264.281283 139.277107 
C 263.618276 138.614099 262.718918 138.241573 261.781283 138.241573 
C 260.843649 138.241573 259.944291 138.614099 259.281283 139.277107 
C 258.618276 139.940114 258.24575 140.839472 258.24575 141.777107 
C 258.24575 142.714741 258.618276 143.614099 259.281283 144.277107 
C 259.944291 144.940114 260.843649 145.312641 261.781283 145.312641 
z
" style="fill:none;stroke:#bcbd22;"/>
   </g>
   <g id="PathCollection_27">
    <path clip-path="url(#pe7e7eafdfd)" d="M 268.74385 142.125435 
C 269.681485 142.125435 270.580843 141.752909 271.24385 141.089901 
C 271.906858 140.426893 272.279384 139.527536 272.279384 138.589901 
C 272.279384 137.652267 271.906858 136.752909 271.24385 136.089901 
C 270.580843 135.426893 269.681485 135.054367 268.74385 135.054367 
C 267.806216 135.054367 266.906858 135.426893 266.24385 136.089901 
C 265.580843 136.752909 265.208316 137.652267 265.208316 138.589901 
C 265.208316 139.527536 265.580843 140.426893 266.24385 141.089901 
C 266.906858 141.752909 267.806216 142.125435 268.74385 142.125435 
z
" style="fill:none;stroke:#bcbd22;"/>
   </g>
   <g id="PathCollection_28">
    <path clip-path="url(#pe7e7eafdfd)" d="M 275.706417 138.921224 
C 276.644052 138.921224 277.543409 138.548698 278.206417 137.88569 
C 278.869425 137.222683 279.241951 136.323325 279.241951 135.38569 
C 279.241951 134.448056 278.869425 133.548698 278.206417 132.88569 
C 277.543409 132.222683 276.644052 131.850156 275.706417 131.850156 
C 274.768783 131.850156 273.869425 132.222683 273.206417 132.88569 
C 272.543409 133.548698 272.170883 134.448056 272.170883 135.38569 
C 272.170883 136.323325 272.543409 137.222683 273.206417 137.88569 
C 273.869425 138.548698 274.768783 138.921224 275.706417 138.921224 
z
" style="fill:none;stroke:#bcbd22;"/>
   </g>
   <g id="PathCollection_29">
    <path clip-path="url(#pe7e7eafdfd)" d="M 282.668984 135.731927 
C 283.606619 135.731927 284.505976 135.359401 285.168984 134.696394 
C 285.831992 134.033386 286.204518 133.134028 286.204518 132.196394 
C 286.204518 131.258759 285.831992 130.359401 285.168984 129.696394 
C 284.505976 129.033386 283.606619 128.66086 282.668984 128.66086 
C 281.731349 128.66086 280.831992 129.033386 280.168984 129.696394 
C 279.505976 130.359401 279.13345 131.258759 279.13345 132.196394 
C 279.13345 133.134028 279.505976 134.033386 280.168984 134.696394 
C 280.831992 135.359401 281.731349 135.731927 282.668984 135.731927 
z
" style="fill:none;stroke:#bcbd22;"/>
   </g>
   <g id="PathCollection_30">
    <path clip-path="url(#pe7e7eafdfd)" d="M 289.631551 132.594477 
C 290.569185 132.594477 291.468543 132.221951 292.131551 131.558943 
C 292.794559 130.895936 293.167085 129.996578 293.167085 129.058943 
C 293.167085 128.121309 292.794559 127.221951 292.131551 126.558943 
C 291.468543 125.895936 290.569185 125.523409 289.631551 125.523409 
C 288.693916 125.523409 287.794559 125.895936 287.131551 126.558943 
C 286.468543 127.221951 286.096017 128.121309 286.096017 129.058943 
C 286.096017 129.996578 286.468543 130.895936 287.131551 131.558943 
C 287.794559 132.221951 288.693916 132.594477 289.631551 132.594477 
z
" style="fill:none;stroke:#bcbd22;"/>
   </g>
   <g id="PathCollection_31">
    <path clip-path="url(#pe7e7eafdfd)" d="M 296.594118 129.550547 
C 297.531752 129.550547 298.43111 129.178021 299.094118 128.515013 
C 299.757125 127.852005 300.129652 126.952647 300.129652 126.015013 
C 300.129652 125.077378 299.757125 124.178021 299.094118 123.515013 
C 298.43111 122.852005 297.531752 122.479479 296.594118 122.479479 
C 295.656483 122.479479 294.757125 122.852005 294.094118 123.515013 
C 293.43111 124.178021 293.058584 125.077378 293.058584 126.015013 
C 293.058584 126.952647 293.43111 127.852005 294.094118 128.515013 
C 294.757125 129.178021 295.656483 129.550547 296.594118 129.550547 
z
" style="fill:none;stroke:#bcbd22;"/>
   </g>
   <g id="PathCollection_32">
    <path clip-path="url(#pe7e7eafdfd)" d="M 303.556684 126.646064 
C 304.494319 126.646064 305.393677 126.273538 306.056684 125.61053 
C 306.719692 124.947522 307.092218 124.048164 307.092218 123.11053 
C 307.092218 122.172895 306.719692 121.273538 306.056684 120.61053 
C 305.393677 119.947522 304.494319 119.574996 303.556684 119.574996 
C 302.61905 119.574996 301.719692 119.947522 301.056684 120.61053 
C 300.393677 121.273538 300.021151 122.172895 300.021151 123.11053 
C 300.021151 124.048164 300.393677 124.947522 301.056684 125.61053 
C 301.719692 126.273538 302.61905 126.646064 303.556684 126.646064 
z
" style="fill:none;stroke:#bcbd22;"/>
   </g>
   <g id="PathCollection_33">
    <path clip-path="url(#pe7e7eafdfd)" d="M 310.519251 123.930503 
C 311.456886 123.930503 312.356244 123.557977 313.019251 122.894969 
C 313.682259 122.231961 314.054785 121.332604 314.054785 120.394969 
C 314.054785 119.457335 313.682259 118.557977 313.019251 117.894969 
C 312.356244 117.231961 311.456886 116.859435 310.519251 116.859435 
C 309.581617 116.859435 308.682259 117.231961 308.019251 117.894969 
C 307.356244 118.557977 306.983717 119.457335 306.983717 120.394969 
C 306.983717 121.332604 307.356244 122.231961 308.019251 122.894969 
C 308.682259 123.557977 309.581617 123.930503 310.519251 123.930503 
z
" style="fill:none;stroke:#bcbd22;"/>
   </g>
   <g id="PathCollection_34">
    <path clip-path="url(#pe7e7eafdfd)" d="M 317.481818 121.455921 
C 318.419453 121.455921 319.31881 121.083395 319.981818 120.420387 
C 320.644826 119.75738 321.017352 118.858022 321.017352 117.920387 
C 321.017352 116.982753 320.644826 116.083395 319.981818 115.420387 
C 319.31881 114.75738 318.419453 114.384853 317.481818 114.384853 
C 316.544184 114.384853 315.644826 114.75738 314.981818 115.420387 
C 314.31881 116.083395 313.946284 116.982753 313.946284 117.920387 
C 313.946284 118.858022 314.31881 119.75738 314.981818 120.420387 
C 315.644826 121.083395 316.544184 121.455921 317.481818 121.455921 
z
" style="fill:none;stroke:#bcbd22;"/>
   </g>
   <g id="PathCollection_35">
    <path clip-path="url(#pe7e7eafdfd)" d="M 324.444385 119.275728 
C 325.38202 119.275728 326.281377 118.903202 326.944385 118.240194 
C 327.607393 117.577186 327.979919 116.677829 327.979919 115.740194 
C 327.979919 114.80256 327.607393 113.903202 326.944385 113.240194 
C 326.281377 112.577186 325.38202 112.20466 324.444385 112.20466 
C 323.50675 112.20466 322.607393 112.577186 321.944385 113.240194 
C 321.281377 113.903202 320.908851 114.80256 320.908851 115.740194 
C 320.908851 116.677829 321.281377 117.577186 321.944385 118.240194 
C 322.607393 118.903202 323.50675 119.275728 324.444385 119.275728 
z
" style="fill:none;stroke:#bcbd22;"/>
   </g>
   <g id="PathCollection_36">
    <path clip-path="url(#pe7e7eafdfd)" d="M 331.406952 117.443163 
C 332.344586 117.443163 333.243944 117.070636 333.906952 116.407629 
C 334.56996 115.744621 334.942486 114.845263 334.942486 113.907629 
C 334.942486 112.969994 334.56996 112.070636 333.906952 111.407629 
C 333.243944 110.744621 332.344586 110.372095 331.406952 110.372095 
C 330.469317 110.372095 329.56996 110.744621 328.906952 111.407629 
C 328.243944 112.070636 327.871418 112.969994 327.871418 113.907629 
C 327.871418 114.845263 328.243944 115.744621 328.906952 116.407629 
C 329.56996 117.070636 330.469317 117.443163 331.406952 117.443163 
z
" style="fill:none;stroke:#bcbd22;"/>
   </g>
   <g id="PathCollection_37">
    <path clip-path="url(#pe7e7eafdfd)" d="M 338.369519 116.009459 
C 339.307153 116.009459 340.206511 115.636932 340.869519 114.973925 
C 341.532526 114.310917 341.905053 113.411559 341.905053 112.473925 
C 341.905053 111.53629 341.532526 110.636932 340.869519 109.973925 
C 340.206511 109.310917 339.307153 108.938391 338.369519 108.938391 
C 337.431884 108.938391 336.532526 109.310917 335.869519 109.973925 
C 335.206511 110.636932 334.833985 111.53629 334.833985 112.473925 
C 334.833985 113.411559 335.206511 114.310917 335.869519 114.973925 
C 336.532526 115.636932 337.431884 116.009459 338.369519 116.009459 
z
" style="fill:none;stroke:#bcbd22;"/>
   </g>
   <g id="PathCollection_38">
    <path clip-path="url(#pe7e7eafdfd)" d="M 345.332086 115.021678 
C 346.26972 115.021678 347.169078 114.649152 347.832086 113.986144 
C 348.495093 113.323136 348.867619 112.423778 348.867619 111.486144 
C 348.867619 110.548509 348.495093 109.649152 347.832086 108.986144 
C 347.169078 108.323136 346.26972 107.95061 345.332086 107.95061 
C 344.394451 107.95061 343.495093 108.323136 342.832086 108.986144 
C 342.169078 109.649152 341.796552 110.548509 341.796552 111.486144 
C 341.796552 112.423778 342.169078 113.323136 342.832086 113.986144 
C 343.495093 114.649152 344.394451 115.021678 345.332086 115.021678 
z
" style="fill:none;stroke:#bcbd22;"/>
   </g>
   <g id="PathCollection_39">
    <path clip-path="url(#pe7e7eafdfd)" d="M 352.294652 114.520191 
C 353.232287 114.520191 354.131645 114.147665 354.794652 113.484657 
C 355.45766 112.821649 355.830186 111.922291 355.830186 110.984657 
C 355.830186 110.047022 355.45766 109.147665 354.794652 108.484657 
C 354.131645 107.821649 353.232287 107.449123 352.294652 107.449123 
C 351.357018 107.449123 350.45766 107.821649 349.794652 108.484657 
C 349.131645 109.147665 348.759119 110.047022 348.759119 110.984657 
C 348.759119 111.922291 349.131645 112.821649 349.794652 113.484657 
C 350.45766 114.147665 351.357018 114.520191 352.294652 114.520191 
z
" style="fill:none;stroke:#bcbd22;"/>
   </g>
   <g id="PathCollection_40">
    <path clip-path="url(#pe7e7eafdfd)" d="M 359.257219 114.535783 
C 360.194854 114.535783 361.094212 114.163257 361.757219 113.50025 
C 362.420227 112.837242 362.792753 111.937884 362.792753 111.00025 
C 362.792753 110.062615 362.420227 109.163257 361.757219 108.50025 
C 361.094212 107.837242 360.194854 107.464716 359.257219 107.464716 
C 358.319585 107.464716 357.420227 107.837242 356.757219 108.50025 
C 356.094212 109.163257 355.721685 110.062615 355.721685 111.00025 
C 355.721685 111.937884 356.094212 112.837242 356.757219 113.50025 
C 357.420227 114.163257 358.319585 114.535783 359.257219 114.535783 
z
" style="fill:none;stroke:#bcbd22;"/>
   </g>
   <g id="PathCollection_41">
    <path clip-path="url(#pe7e7eafdfd)" d="M 366.219786 115.086368 
C 367.157421 115.086368 368.056778 114.713842 368.719786 114.050834 
C 369.382794 113.387826 369.75532 112.488468 369.75532 111.550834 
C 369.75532 110.613199 369.382794 109.713842 368.719786 109.050834 
C 368.056778 108.387826 367.157421 108.0153 366.219786 108.0153 
C 365.282152 108.0153 364.382794 108.387826 363.719786 109.050834 
C 363.056778 109.713842 362.684252 110.613199 362.684252 111.550834 
C 362.684252 112.488468 363.056778 113.387826 363.719786 114.050834 
C 364.382794 114.713842 365.282152 115.086368 366.219786 115.086368 
z
" style="fill:none;stroke:#bcbd22;"/>
   </g>
   <g id="PathCollection_42">
    <path clip-path="url(#pe7e7eafdfd)" d="M 373.182353 116.173279 
C 374.119987 116.173279 375.019345 115.800753 375.682353 115.137745 
C 376.345361 114.474738 376.717887 113.57538 376.717887 112.637745 
C 376.717887 111.700111 376.345361 110.800753 375.682353 110.137745 
C 375.019345 109.474738 374.119987 109.102211 373.182353 109.102211 
C 372.244718 109.102211 371.345361 109.474738 370.682353 110.137745 
C 370.019345 110.800753 369.646819 111.700111 369.646819 112.637745 
C 369.646819 113.57538 370.019345 114.474738 370.682353 115.137745 
C 371.345361 115.800753 372.244718 116.173279 373.182353 116.173279 
z
" style="fill:none;stroke:#bcbd22;"/>
   </g>
   <g id="PathCollection_43">
    <path clip-path="url(#pe7e7eafdfd)" d="M 380.14492 117.77714 
C 381.082554 117.77714 381.981912 117.404614 382.64492 116.741606 
C 383.307928 116.078598 383.680454 115.179241 383.680454 114.241606 
C 383.680454 113.303972 383.307928 112.404614 382.64492 111.741606 
C 381.981912 111.078598 381.082554 110.706072 380.14492 110.706072 
C 379.207285 110.706072 378.307928 111.078598 377.64492 111.741606 
C 376.981912 112.404614 376.609386 113.303972 376.609386 114.241606 
C 376.609386 115.179241 376.981912 116.078598 377.64492 116.741606 
C 378.307928 117.404614 379.207285 117.77714 380.14492 117.77714 
z
" style="fill:none;stroke:#bcbd22;"/>
   </g>
   <g id="PathCollection_44">
    <path clip-path="url(#pe7e7eafdfd)" d="M 387.107487 119.85326 
C 388.045121 119.85326 388.944479 119.480734 389.607487 118.817726 
C 390.270494 118.154718 390.643021 117.25536 390.643021 116.317726 
C 390.643021 115.380091 390.270494 114.480734 389.607487 113.817726 
C 388.944479 113.154718 388.045121 112.782192 387.107487 112.782192 
C 386.169852 112.782192 385.270494 113.154718 384.607487 113.817726 
C 383.944479 114.480734 383.571953 115.380091 383.571953 116.317726 
C 383.571953 117.25536 383.944479 118.154718 384.607487 118.817726 
C 385.270494 119.480734 386.169852 119.85326 387.107487 119.85326 
z
" style="fill:none;stroke:#bcbd22;"/>
   </g>
   <g id="PathCollection_45">
    <path clip-path="url(#pe7e7eafdfd)" d="M 394.070053 122.326566 
C 395.007688 122.326566 395.907046 121.95404 396.570053 121.291032 
C 397.233061 120.628025 397.605587 119.728667 397.605587 118.791032 
C 397.605587 117.853398 397.233061 116.95404 396.570053 116.291032 
C 395.907046 115.628025 395.007688 115.255498 394.070053 115.255498 
C 393.132419 115.255498 392.233061 115.628025 391.570053 116.291032 
C 390.907046 116.95404 390.53452 117.853398 390.53452 118.791032 
C 390.53452 119.728667 390.907046 120.628025 391.570053 121.291032 
C 392.233061 121.95404 393.132419 122.326566 394.070053 122.326566 
z
" style="fill:none;stroke:#bcbd22;"/>
   </g>
   <g id="PathCollection_46">
    <path clip-path="url(#pe7e7eafdfd)" d="M 401.03262 125.086033 
C 401.970255 125.086033 402.869613 124.713507 403.53262 124.050499 
C 404.195628 123.387492 404.568154 122.488134 404.568154 121.550499 
C 404.568154 120.612865 404.195628 119.713507 403.53262 119.050499 
C 402.869613 118.387492 401.970255 118.014966 401.03262 118.014966 
C 400.094986 118.014966 399.195628 118.387492 398.53262 119.050499 
C 397.869613 119.713507 397.497086 120.612865 397.497086 121.550499 
C 397.497086 122.488134 397.869613 123.387492 398.53262 124.050499 
C 399.195628 124.713507 400.094986 125.086033 401.03262 125.086033 
z
" style="fill:none;stroke:#bcbd22;"/>
   </g>
   <g id="PathCollection_47">
    <path clip-path="url(#pe7e7eafdfd)" d="M 407.995187 127.978593 
C 408.932822 127.978593 409.832179 127.606067 410.495187 126.943059 
C 411.158195 126.280051 411.530721 125.380693 411.530721 124.443059 
C 411.530721 123.505424 411.158195 122.606067 410.495187 121.943059 
C 409.832179 121.280051 408.932822 120.907525 407.995187 120.907525 
C 407.057553 120.907525 406.158195 121.280051 405.495187 121.943059 
C 404.832179 122.606067 404.459653 123.505424 404.459653 124.443059 
C 404.459653 125.380693 404.832179 126.280051 405.495187 126.943059 
C 406.158195 127.606067 407.057553 127.978593 407.995187 127.978593 
z
" style="fill:none;stroke:#bcbd22;"/>
   </g>
   <g id="PathCollection_48">
    <path clip-path="url(#pe7e7eafdfd)" d="M 414.957754 130.802506 
C 415.895389 130.802506 416.794746 130.42998 417.457754 129.766972 
C 418.120762 129.103964 418.493288 128.204607 418.493288 127.266972 
C 418.493288 126.329338 418.120762 125.42998 417.457754 124.766972 
C 416.794746 124.103964 415.895389 123.731438 414.957754 123.731438 
C 414.020119 123.731438 413.120762 124.103964 412.457754 124.766972 
C 411.794746 125.42998 411.42222 126.329338 411.42222 127.266972 
C 411.42222 128.204607 411.794746 129.103964 412.457754 129.766972 
C 413.120762 130.42998 414.020119 130.802506 414.957754 130.802506 
z
" style="fill:none;stroke:#bcbd22;"/>
   </g>
   <g id="PathCollection_49">
    <path clip-path="url(#pe7e7eafdfd)" d="M 421.920321 133.300175 
C 422.857955 133.300175 423.757313 132.927649 424.420321 132.264641 
C 425.083329 131.601634 425.455855 130.702276 425.455855 129.764641 
C 425.455855 128.827007 425.083329 127.927649 424.420321 127.264641 
C 423.757313 126.601634 422.857955 126.229108 421.920321 126.229108 
C 420.982686 126.229108 420.083329 126.601634 419.420321 127.264641 
C 418.757313 127.927649 418.384787 128.827007 418.384787 129.764641 
C 418.384787 130.702276 418.757313 131.601634 419.420321 132.264641 
C 420.083329 132.927649 420.982686 133.300175 421.920321 133.300175 
z
" style="fill:none;stroke:#bcbd22;"/>
   </g>
   <g id="PathCollection_50">
    <path clip-path="url(#pe7e7eafdfd)" d="M 428.882888 135.150376 
C 429.820522 135.150376 430.71988 134.77785 431.382888 134.114842 
C 432.045895 133.451835 432.418422 132.552477 432.418422 131.614842 
C 432.418422 130.677208 432.045895 129.77785 431.382888 129.114842 
C 430.71988 128.451835 429.820522 128.079309 428.882888 128.079309 
C 427.945253 128.079309 427.045895 128.451835 426.382888 129.114842 
C 425.71988 129.77785 425.347354 130.677208 425.347354 131.614842 
C 425.347354 132.552477 425.71988 133.451835 426.382888 134.114842 
C 427.045895 134.77785 427.945253 135.150376 428.882888 135.150376 
z
" style="fill:none;stroke:#bcbd22;"/>
   </g>
   <g id="PathCollection_51">
    <path clip-path="url(#pe7e7eafdfd)" d="M 435.845455 135.959887 
C 436.783089 135.959887 437.682447 135.587361 438.345455 134.924353 
C 439.008462 134.261346 439.380988 133.361988 439.380988 132.424353 
C 439.380988 131.486719 439.008462 130.587361 438.345455 129.924353 
C 437.682447 129.261346 436.783089 128.888819 435.845455 128.888819 
C 434.90782 128.888819 434.008462 129.261346 433.345455 129.924353 
C 432.682447 130.587361 432.309921 131.486719 432.309921 132.424353 
C 432.309921 133.361988 432.682447 134.261346 433.345455 134.924353 
C 434.008462 135.587361 434.90782 135.959887 435.845455 135.959887 
z
" style="fill:none;stroke:#bcbd22;"/>
   </g>
   <g id="PathCollection_52">
    <defs>
     <path d="M 0 3.535534 
C 0.937635 3.535534 1.836992 3.163008 2.5 2.5 
C 3.163008 1.836992 3.535534 0.937635 3.535534 0 
C 3.535534 -0.937635 3.163008 -1.836992 2.5 -2.5 
C 1.836992 -3.163008 0.937635 -3.535534 0 -3.535534 
C -0.937635 -3.535534 -1.836992 -3.163008 -2.5 -2.5 
C -3.163008 -1.836992 -3.535534 -0.937635 -3.535534 0 
C -3.535534 0.937635 -3.163008 1.836992 -2.5 2.5 
C -1.836992 3.163008 -0.937635 3.535534 0 3.535534 
z
" id="mfdf4697c07" style="stroke:#bcbd22;"/>
    </defs>
    <g clip-path="url(#pe7e7eafdfd)">
     <use style="fill:#bcbd22;stroke:#bcbd22;" x="87.717112" xlink:href="#mfdf4697c07" y="188.687543"/>
    </g>
   </g>
   <g id="PathCollection_53">
    <g clip-path="url(#pe7e7eafdfd)">
     <use style="fill:#bcbd22;stroke:#bcbd22;" x="94.679679" xlink:href="#mfdf4697c07" y="188.358723"/>
    </g>
   </g>
   <g id="PathCollection_54">
    <g clip-path="url(#pe7e7eafdfd)">
     <use style="fill:#bcbd22;stroke:#bcbd22;" x="101.642246" xlink:href="#mfdf4697c07" y="187.846402"/>
    </g>
   </g>
   <g id="PathCollection_55">
    <g clip-path="url(#pe7e7eafdfd)">
     <use style="fill:#bcbd22;stroke:#bcbd22;" x="108.604813" xlink:href="#mfdf4697c07" y="187.193178"/>
    </g>
   </g>
   <g id="PathCollection_56">
    <g clip-path="url(#pe7e7eafdfd)">
     <use style="fill:#bcbd22;stroke:#bcbd22;" x="115.56738" xlink:href="#mfdf4697c07" y="186.429859"/>
    </g>
   </g>
   <g id="PathCollection_57">
    <g clip-path="url(#pe7e7eafdfd)">
     <use style="fill:#bcbd22;stroke:#bcbd22;" x="122.529947" xlink:href="#mfdf4697c07" y="185.584812"/>
    </g>
   </g>
   <g id="PathCollection_58">
    <g clip-path="url(#pe7e7eafdfd)">
     <use style="fill:#bcbd22;stroke:#bcbd22;" x="129.492513" xlink:href="#mfdf4697c07" y="184.669147"/>
    </g>
   </g>
   <g id="PathCollection_59">
    <g clip-path="url(#pe7e7eafdfd)">
     <use style="fill:#bcbd22;stroke:#bcbd22;" x="136.45508" xlink:href="#mfdf4697c07" y="183.693967"/>
    </g>
   </g>
   <g id="PathCollection_60">
    <g clip-path="url(#pe7e7eafdfd)">
     <use style="fill:#bcbd22;stroke:#bcbd22;" x="143.417647" xlink:href="#mfdf4697c07" y="182.663451"/>
    </g>
   </g>
   <g id="PathCollection_61">
    <g clip-path="url(#pe7e7eafdfd)">
     <use style="fill:#bcbd22;stroke:#bcbd22;" x="150.380214" xlink:href="#mfdf4697c07" y="181.577503"/>
    </g>
   </g>
   <g id="PathCollection_62">
    <g clip-path="url(#pe7e7eafdfd)">
     <use style="fill:#bcbd22;stroke:#bcbd22;" x="157.342781" xlink:href="#mfdf4697c07" y="180.432734"/>
    </g>
   </g>
   <g id="PathCollection_63">
    <g clip-path="url(#pe7e7eafdfd)">
     <use style="fill:#bcbd22;stroke:#bcbd22;" x="164.305348" xlink:href="#mfdf4697c07" y="179.223373"/>
    </g>
   </g>
   <g id="PathCollection_64">
    <g clip-path="url(#pe7e7eafdfd)">
     <use style="fill:#bcbd22;stroke:#bcbd22;" x="171.267914" xlink:href="#mfdf4697c07" y="177.942101"/>
    </g>
   </g>
   <g id="PathCollection_65">
    <g clip-path="url(#pe7e7eafdfd)">
     <use style="fill:#bcbd22;stroke:#bcbd22;" x="178.230481" xlink:href="#mfdf4697c07" y="176.580828"/>
    </g>
   </g>
   <g id="PathCollection_66">
    <g clip-path="url(#pe7e7eafdfd)">
     <use style="fill:#bcbd22;stroke:#bcbd22;" x="185.193048" xlink:href="#mfdf4697c07" y="175.131393"/>
    </g>
   </g>
   <g id="PathCollection_67">
    <g clip-path="url(#pe7e7eafdfd)">
     <use style="fill:#bcbd22;stroke:#bcbd22;" x="192.155615" xlink:href="#mfdf4697c07" y="173.586198"/>
    </g>
   </g>
   <g id="PathCollection_68">
    <g clip-path="url(#pe7e7eafdfd)">
     <use style="fill:#bcbd22;stroke:#bcbd22;" x="199.118182" xlink:href="#mfdf4697c07" y="171.938764"/>
    </g>
   </g>
   <g id="PathCollection_69">
    <g clip-path="url(#pe7e7eafdfd)">
     <use style="fill:#bcbd22;stroke:#bcbd22;" x="206.080749" xlink:href="#mfdf4697c07" y="170.18423"/>
    </g>
   </g>
   <g id="PathCollection_70">
    <g clip-path="url(#pe7e7eafdfd)">
     <use style="fill:#bcbd22;stroke:#bcbd22;" x="213.043316" xlink:href="#mfdf4697c07" y="168.319769"/>
    </g>
   </g>
   <g id="PathCollection_71">
    <g clip-path="url(#pe7e7eafdfd)">
     <use style="fill:#bcbd22;stroke:#bcbd22;" x="220.005882" xlink:href="#mfdf4697c07" y="166.344939"/>
    </g>
   </g>
   <g id="PathCollection_72">
    <g clip-path="url(#pe7e7eafdfd)">
     <use style="fill:#bcbd22;stroke:#bcbd22;" x="226.968449" xlink:href="#mfdf4697c07" y="164.261962"/>
    </g>
   </g>
   <g id="PathCollection_73">
    <g clip-path="url(#pe7e7eafdfd)">
     <use style="fill:#bcbd22;stroke:#bcbd22;" x="233.931016" xlink:href="#mfdf4697c07" y="162.075934"/>
    </g>
   </g>
   <g id="PathCollection_74">
    <g clip-path="url(#pe7e7eafdfd)">
     <use style="fill:#bcbd22;stroke:#bcbd22;" x="240.893583" xlink:href="#mfdf4697c07" y="159.794956"/>
    </g>
   </g>
   <g id="PathCollection_75">
    <g clip-path="url(#pe7e7eafdfd)">
     <use style="fill:#bcbd22;stroke:#bcbd22;" x="247.85615" xlink:href="#mfdf4697c07" y="157.430198"/>
    </g>
   </g>
   <g id="PathCollection_76">
    <g clip-path="url(#pe7e7eafdfd)">
     <use style="fill:#bcbd22;stroke:#bcbd22;" x="254.818717" xlink:href="#mfdf4697c07" y="154.995897"/>
    </g>
   </g>
   <g id="PathCollection_77">
    <g clip-path="url(#pe7e7eafdfd)">
     <use style="fill:#bcbd22;stroke:#bcbd22;" x="261.781283" xlink:href="#mfdf4697c07" y="152.509266"/>
    </g>
   </g>
   <g id="PathCollection_78">
    <g clip-path="url(#pe7e7eafdfd)">
     <use style="fill:#bcbd22;stroke:#bcbd22;" x="268.74385" xlink:href="#mfdf4697c07" y="149.990349"/>
    </g>
   </g>
   <g id="PathCollection_79">
    <g clip-path="url(#pe7e7eafdfd)">
     <use style="fill:#bcbd22;stroke:#bcbd22;" x="275.706417" xlink:href="#mfdf4697c07" y="147.461787"/>
    </g>
   </g>
   <g id="PathCollection_80">
    <g clip-path="url(#pe7e7eafdfd)">
     <use style="fill:#bcbd22;stroke:#bcbd22;" x="282.668984" xlink:href="#mfdf4697c07" y="144.94852"/>
    </g>
   </g>
   <g id="PathCollection_81">
    <g clip-path="url(#pe7e7eafdfd)">
     <use style="fill:#bcbd22;stroke:#bcbd22;" x="289.631551" xlink:href="#mfdf4697c07" y="142.477414"/>
    </g>
   </g>
   <g id="PathCollection_82">
    <g clip-path="url(#pe7e7eafdfd)">
     <use style="fill:#bcbd22;stroke:#bcbd22;" x="296.594118" xlink:href="#mfdf4697c07" y="140.076813"/>
    </g>
   </g>
   <g id="PathCollection_83">
    <g clip-path="url(#pe7e7eafdfd)">
     <use style="fill:#bcbd22;stroke:#bcbd22;" x="303.556684" xlink:href="#mfdf4697c07" y="137.776012"/>
    </g>
   </g>
   <g id="PathCollection_84">
    <g clip-path="url(#pe7e7eafdfd)">
     <use style="fill:#bcbd22;stroke:#bcbd22;" x="310.519251" xlink:href="#mfdf4697c07" y="135.604667"/>
    </g>
   </g>
   <g id="PathCollection_85">
    <g clip-path="url(#pe7e7eafdfd)">
     <use style="fill:#bcbd22;stroke:#bcbd22;" x="317.481818" xlink:href="#mfdf4697c07" y="133.592118"/>
    </g>
   </g>
   <g id="PathCollection_86">
    <g clip-path="url(#pe7e7eafdfd)">
     <use style="fill:#bcbd22;stroke:#bcbd22;" x="324.444385" xlink:href="#mfdf4697c07" y="131.766646"/>
    </g>
   </g>
   <g id="PathCollection_87">
    <g clip-path="url(#pe7e7eafdfd)">
     <use style="fill:#bcbd22;stroke:#bcbd22;" x="331.406952" xlink:href="#mfdf4697c07" y="130.154647"/>
    </g>
   </g>
   <g id="PathCollection_88">
    <g clip-path="url(#pe7e7eafdfd)">
     <use style="fill:#bcbd22;stroke:#bcbd22;" x="338.369519" xlink:href="#mfdf4697c07" y="128.779739"/>
    </g>
   </g>
   <g id="PathCollection_89">
    <g clip-path="url(#pe7e7eafdfd)">
     <use style="fill:#bcbd22;stroke:#bcbd22;" x="345.332086" xlink:href="#mfdf4697c07" y="127.661786"/>
    </g>
   </g>
   <g id="PathCollection_90">
    <g clip-path="url(#pe7e7eafdfd)">
     <use style="fill:#bcbd22;stroke:#bcbd22;" x="352.294652" xlink:href="#mfdf4697c07" y="126.81585"/>
    </g>
   </g>
   <g id="PathCollection_91">
    <g clip-path="url(#pe7e7eafdfd)">
     <use style="fill:#bcbd22;stroke:#bcbd22;" x="359.257219" xlink:href="#mfdf4697c07" y="126.251062"/>
    </g>
   </g>
   <g id="PathCollection_92">
    <g clip-path="url(#pe7e7eafdfd)">
     <use style="fill:#bcbd22;stroke:#bcbd22;" x="366.219786" xlink:href="#mfdf4697c07" y="125.969423"/>
    </g>
   </g>
   <g id="PathCollection_93">
    <g clip-path="url(#pe7e7eafdfd)">
     <use style="fill:#bcbd22;stroke:#bcbd22;" x="373.182353" xlink:href="#mfdf4697c07" y="125.964522"/>
    </g>
   </g>
   <g id="PathCollection_94">
    <g clip-path="url(#pe7e7eafdfd)">
     <use style="fill:#bcbd22;stroke:#bcbd22;" x="380.14492" xlink:href="#mfdf4697c07" y="126.220182"/>
    </g>
   </g>
   <g id="PathCollection_95">
    <g clip-path="url(#pe7e7eafdfd)">
     <use style="fill:#bcbd22;stroke:#bcbd22;" x="387.107487" xlink:href="#mfdf4697c07" y="126.709022"/>
    </g>
   </g>
   <g id="PathCollection_96">
    <g clip-path="url(#pe7e7eafdfd)">
     <use style="fill:#bcbd22;stroke:#bcbd22;" x="394.070053" xlink:href="#mfdf4697c07" y="127.390947"/>
    </g>
   </g>
   <g id="PathCollection_97">
    <g clip-path="url(#pe7e7eafdfd)">
     <use style="fill:#bcbd22;stroke:#bcbd22;" x="401.03262" xlink:href="#mfdf4697c07" y="128.211559"/>
    </g>
   </g>
   <g id="PathCollection_98">
    <g clip-path="url(#pe7e7eafdfd)">
     <use style="fill:#bcbd22;stroke:#bcbd22;" x="407.995187" xlink:href="#mfdf4697c07" y="129.100484"/>
    </g>
   </g>
   <g id="PathCollection_99">
    <g clip-path="url(#pe7e7eafdfd)">
     <use style="fill:#bcbd22;stroke:#bcbd22;" x="414.957754" xlink:href="#mfdf4697c07" y="129.969633"/>
    </g>
   </g>
   <g id="PathCollection_100">
    <g clip-path="url(#pe7e7eafdfd)">
     <use style="fill:#bcbd22;stroke:#bcbd22;" x="421.920321" xlink:href="#mfdf4697c07" y="130.711365"/>
    </g>
   </g>
   <g id="PathCollection_101">
    <g clip-path="url(#pe7e7eafdfd)">
     <use style="fill:#bcbd22;stroke:#bcbd22;" x="428.882888" xlink:href="#mfdf4697c07" y="131.196592"/>
    </g>
   </g>
   <g id="PathCollection_102">
    <g clip-path="url(#pe7e7eafdfd)">
     <use style="fill:#bcbd22;stroke:#bcbd22;" x="435.845455" xlink:href="#mfdf4697c07" y="131.272789"/>
    </g>
   </g>
   <g id="matplotlib.axis_1"/>
   <g id="matplotlib.axis_2"/>
   <g id="line2d_1">
    <path clip-path="url(#pe7e7eafdfd)" d="M 80.754545 189 
L 122.936096 188.889415 
L 127.722861 188.575598 
L 132.596658 188.031199 
L 137.70254 187.23471 
L 143.098529 186.165146 
L 148.842647 184.7962 
L 154.963904 183.105821 
L 161.549332 181.05401 
L 168.714973 178.585424 
L 176.605882 175.627885 
L 185.454144 172.069084 
L 195.665909 167.715134 
L 208.082487 162.168233 
L 225.285829 154.218221 
L 267.438369 134.655716 
L 283.945455 127.2951 
L 291.430214 124.138208 
L 296.158957 122.402436 
L 300.85869 120.915632 
L 305.674465 119.626106 
L 310.664305 118.521343 
L 315.828209 117.606076 
L 321.224198 116.876482 
L 326.881283 116.338198 
L 332.799465 115.999775 
L 339.065775 115.866524 
L 345.709225 115.950603 
L 352.787834 116.26538 
L 360.388636 116.828843 
L 368.627674 117.665967 
L 377.65 118.809907 
L 387.687701 120.311106 
L 399.117914 122.251208 
L 412.607888 124.77434 
L 429.753209 128.219758 
L 435.845455 129.484018 
L 435.845455 129.484018 
" style="fill:none;stroke:#bcbd22;stroke-dasharray:11.1,4.8;stroke-dashoffset:0;stroke-width:3;"/>
   </g>
   <g id="line2d_2">
    <path clip-path="url(#pe7e7eafdfd)" d="M 80.754545 189 
L 123.458289 188.889288 
L 128.709225 188.57311 
L 134.105214 188.024074 
L 139.820321 187.216203 
L 145.883556 186.131816 
L 152.381952 184.740536 
L 159.40254 183.006018 
L 167.032353 180.88837 
L 175.474465 178.310086 
L 184.960963 175.175717 
L 196.043048 171.27214 
L 209.678075 166.222712 
L 229.92754 158.459464 
L 265.958824 144.639779 
L 284.032487 137.9696 
L 291.894385 135.242239 
L 297.000267 133.722887 
L 302.13516 132.427205 
L 307.444118 131.317031 
L 312.98516 130.386431 
L 318.787299 129.639311 
L 324.879545 129.081302 
L 331.290909 128.71921 
L 338.079412 128.560189 
L 345.332086 128.615451 
L 353.106952 128.900116 
L 361.520053 129.434087 
L 370.716444 130.244467 
L 380.899198 131.369062 
L 392.445455 132.873659 
L 405.906417 134.859008 
L 422.616578 137.559134 
L 435.845455 139.809342 
L 435.845455 139.809342 
" style="fill:none;stroke:#bcbd22;stroke-linecap:square;stroke-width:3;"/>
   </g>
   <g id="patch_3">
    <path d="M 63 189 
L 63 25.92 
" style="fill:none;stroke:#000000;stroke-linecap:square;stroke-linejoin:miter;stroke-width:0.8;"/>
   </g>
   <g id="patch_4">
    <path d="M 453.6 189 
L 453.6 25.92 
" style="fill:none;stroke:#000000;stroke-linecap:square;stroke-linejoin:miter;stroke-width:0.8;"/>
   </g>
   <g id="patch_5">
    <path d="M 63 189 
L 453.6 189 
" style="fill:none;stroke:#000000;stroke-linecap:square;stroke-linejoin:miter;stroke-width:0.8;"/>
   </g>
   <g id="patch_6">
    <path d="M 63 25.92 
L 453.6 25.92 
" style="fill:none;stroke:#000000;stroke-linecap:square;stroke-linejoin:miter;stroke-width:0.8;"/>
   </g>
  </g>
 </g>
 <defs>
  <clipPath id="pe7e7eafdfd">
   <rect height="163.08" width="390.6" x="63" y="25.92"/>
  </clipPath>
 </defs>
</svg>
