<?xml version="1.0" encoding="utf-8" standalone="no"?>
<!DOCTYPE svg PUBLIC "-//W3C//DTD SVG 1.1//EN"
  "http://www.w3.org/Graphics/SVG/1.1/DTD/svg11.dtd">
<!-- Created with matplotlib (https://matplotlib.org/) -->
<svg height="216pt" version="1.1" viewBox="0 0 504 216" width="504pt" xmlns="http://www.w3.org/2000/svg" xmlns:xlink="http://www.w3.org/1999/xlink">
 <metadata>
  <rdf:RDF xmlns:cc="http://creativecommons.org/ns#" xmlns:dc="http://purl.org/dc/elements/1.1/" xmlns:rdf="http://www.w3.org/1999/02/22-rdf-syntax-ns#">
   <cc:Work>
    <dc:type rdf:resource="http://purl.org/dc/dcmitype/StillImage"/>
    <dc:date>2024-12-18T18:45:41.726192</dc:date>
    <dc:format>image/svg+xml</dc:format>
    <dc:creator>
     <cc:Agent>
      <dc:title>Matplotlib v3.3.2, https://matplotlib.org/</dc:title>
     </cc:Agent>
    </dc:creator>
   </cc:Work>
  </rdf:RDF>
 </metadata>
 <defs>
  <style type="text/css">*{stroke-linecap:butt;stroke-linejoin:round;}</style>
 </defs>
 <g id="figure_1">
  <g id="patch_1">
   <path d="M 0 216 
L 504 216 
L 504 0 
L 0 0 
z
" style="fill:none;"/>
  </g>
  <g id="axes_1">
   <g id="patch_2">
    <path d="M 63 189 
L 453.6 189 
L 453.6 25.92 
L 63 25.92 
z
" style="fill:#ffffff;"/>
   </g>
   <g id="PathCollection_1">
    <path clip-path="url(#pd44105f9dc)" d="M 87.717112 193.152603 
C 88.654747 193.152603 89.554105 192.780077 90.217112 192.117069 
C 90.88012 191.454062 91.252646 190.554704 91.252646 189.617069 
C 91.252646 188.679435 90.88012 187.780077 90.217112 187.117069 
C 89.554105 186.454062 88.654747 186.081535 87.717112 186.081535 
C 86.779478 186.081535 85.88012 186.454062 85.217112 187.117069 
C 84.554105 187.780077 84.181578 188.679435 84.181578 189.617069 
C 84.181578 190.554704 84.554105 191.454062 85.217112 192.117069 
C 85.88012 192.780077 86.779478 193.152603 87.717112 193.152603 
z
" style="fill:none;stroke:#c49c94;"/>
   </g>
   <g id="PathCollection_2">
    <path clip-path="url(#pd44105f9dc)" d="M 94.679679 193.42989 
C 95.617314 193.42989 96.516671 193.057364 97.179679 192.394356 
C 97.842687 191.731349 98.215213 190.831991 98.215213 189.894356 
C 98.215213 188.956722 97.842687 188.057364 97.179679 187.394356 
C 96.516671 186.731349 95.617314 186.358823 94.679679 186.358823 
C 93.742045 186.358823 92.842687 186.731349 92.179679 187.394356 
C 91.516671 188.057364 91.144145 188.956722 91.144145 189.894356 
C 91.144145 190.831991 91.516671 191.731349 92.179679 192.394356 
C 92.842687 193.057364 93.742045 193.42989 94.679679 193.42989 
z
" style="fill:none;stroke:#c49c94;"/>
   </g>
   <g id="PathCollection_3">
    <path clip-path="url(#pd44105f9dc)" d="M 101.642246 193.193827 
C 102.579881 193.193827 103.479238 192.8213 104.142246 192.158293 
C 104.805254 191.495285 105.17778 190.595927 105.17778 189.658293 
C 105.17778 188.720658 104.805254 187.8213 104.142246 187.158293 
C 103.479238 186.495285 102.579881 186.122759 101.642246 186.122759 
C 100.704611 186.122759 99.805254 186.495285 99.142246 187.158293 
C 98.479238 187.8213 98.106712 188.720658 98.106712 189.658293 
C 98.106712 190.595927 98.479238 191.495285 99.142246 192.158293 
C 99.805254 192.8213 100.704611 193.193827 101.642246 193.193827 
z
" style="fill:none;stroke:#c49c94;"/>
   </g>
   <g id="PathCollection_4">
    <path clip-path="url(#pd44105f9dc)" d="M 108.604813 192.570133 
C 109.542447 192.570133 110.441805 192.197607 111.104813 191.534599 
C 111.767821 190.871592 112.140347 189.972234 112.140347 189.034599 
C 112.140347 188.096965 111.767821 187.197607 111.104813 186.534599 
C 110.441805 185.871592 109.542447 185.499065 108.604813 185.499065 
C 107.667178 185.499065 106.767821 185.871592 106.104813 186.534599 
C 105.441805 187.197607 105.069279 188.096965 105.069279 189.034599 
C 105.069279 189.972234 105.441805 190.871592 106.104813 191.534599 
C 106.767821 192.197607 107.667178 192.570133 108.604813 192.570133 
z
" style="fill:none;stroke:#c49c94;"/>
   </g>
   <g id="PathCollection_5">
    <path clip-path="url(#pd44105f9dc)" d="M 115.56738 191.66847 
C 116.505014 191.66847 117.404372 191.295944 118.06738 190.632936 
C 118.730387 189.969929 119.102914 189.070571 119.102914 188.132936 
C 119.102914 187.195302 118.730387 186.295944 118.06738 185.632936 
C 117.404372 184.969929 116.505014 184.597402 115.56738 184.597402 
C 114.629745 184.597402 113.730387 184.969929 113.06738 185.632936 
C 112.404372 186.295944 112.031846 187.195302 112.031846 188.132936 
C 112.031846 189.070571 112.404372 189.969929 113.06738 190.632936 
C 113.730387 191.295944 114.629745 191.66847 115.56738 191.66847 
z
" style="fill:none;stroke:#c49c94;"/>
   </g>
   <g id="PathCollection_6">
    <path clip-path="url(#pd44105f9dc)" d="M 122.529947 190.582563 
C 123.467581 190.582563 124.366939 190.210037 125.029947 189.54703 
C 125.692954 188.884022 126.06548 187.984664 126.06548 187.04703 
C 126.06548 186.109395 125.692954 185.210037 125.029947 184.54703 
C 124.366939 183.884022 123.467581 183.511496 122.529947 183.511496 
C 121.592312 183.511496 120.692954 183.884022 120.029947 184.54703 
C 119.366939 185.210037 118.994413 186.109395 118.994413 187.04703 
C 118.994413 187.984664 119.366939 188.884022 120.029947 189.54703 
C 120.692954 190.210037 121.592312 190.582563 122.529947 190.582563 
z
" style="fill:none;stroke:#c49c94;"/>
   </g>
   <g id="PathCollection_7">
    <path clip-path="url(#pd44105f9dc)" d="M 129.492513 189.390542 
C 130.430148 189.390542 131.329506 189.018016 131.992513 188.355008 
C 132.655521 187.692 133.028047 186.792643 133.028047 185.855008 
C 133.028047 184.917374 132.655521 184.018016 131.992513 183.355008 
C 131.329506 182.692 130.430148 182.319474 129.492513 182.319474 
C 128.554879 182.319474 127.655521 182.692 126.992513 183.355008 
C 126.329506 184.018016 125.956979 184.917374 125.956979 185.855008 
C 125.956979 186.792643 126.329506 187.692 126.992513 188.355008 
C 127.655521 189.018016 128.554879 189.390542 129.492513 189.390542 
z
" style="fill:none;stroke:#c49c94;"/>
   </g>
   <g id="PathCollection_8">
    <path clip-path="url(#pd44105f9dc)" d="M 136.45508 188.155462 
C 137.392715 188.155462 138.292072 187.782936 138.95508 187.119928 
C 139.618088 186.45692 139.990614 185.557562 139.990614 184.619928 
C 139.990614 183.682293 139.618088 182.782936 138.95508 182.119928 
C 138.292072 181.45692 137.392715 181.084394 136.45508 181.084394 
C 135.517446 181.084394 134.618088 181.45692 133.95508 182.119928 
C 133.292072 182.782936 132.919546 183.682293 132.919546 184.619928 
C 132.919546 185.557562 133.292072 186.45692 133.95508 187.119928 
C 134.618088 187.782936 135.517446 188.155462 136.45508 188.155462 
z
" style="fill:none;stroke:#c49c94;"/>
   </g>
   <g id="PathCollection_9">
    <path clip-path="url(#pd44105f9dc)" d="M 143.417647 186.926004 
C 144.355282 186.926004 145.254639 186.553478 145.917647 185.89047 
C 146.580655 185.227462 146.953181 184.328105 146.953181 183.39047 
C 146.953181 182.452835 146.580655 181.553478 145.917647 180.89047 
C 145.254639 180.227462 144.355282 179.854936 143.417647 179.854936 
C 142.480013 179.854936 141.580655 180.227462 140.917647 180.89047 
C 140.254639 181.553478 139.882113 182.452835 139.882113 183.39047 
C 139.882113 184.328105 140.254639 185.227462 140.917647 185.89047 
C 141.580655 186.553478 142.480013 186.926004 143.417647 186.926004 
z
" style="fill:none;stroke:#c49c94;"/>
   </g>
   <g id="PathCollection_10">
    <path clip-path="url(#pd44105f9dc)" d="M 150.380214 185.737322 
C 151.317848 185.737322 152.217206 185.364796 152.880214 184.701788 
C 153.543222 184.03878 153.915748 183.139422 153.915748 182.201788 
C 153.915748 181.264153 153.543222 180.364796 152.880214 179.701788 
C 152.217206 179.03878 151.317848 178.666254 150.380214 178.666254 
C 149.442579 178.666254 148.543222 179.03878 147.880214 179.701788 
C 147.217206 180.364796 146.84468 181.264153 146.84468 182.201788 
C 146.84468 183.139422 147.217206 184.03878 147.880214 184.701788 
C 148.543222 185.364796 149.442579 185.737322 150.380214 185.737322 
z
" style="fill:none;stroke:#c49c94;"/>
   </g>
   <g id="PathCollection_11">
    <path clip-path="url(#pd44105f9dc)" d="M 157.342781 184.612029 
C 158.280415 184.612029 159.179773 184.239502 159.842781 183.576495 
C 160.505788 182.913487 160.878315 182.014129 160.878315 181.076495 
C 160.878315 180.13886 160.505788 179.239502 159.842781 178.576495 
C 159.179773 177.913487 158.280415 177.540961 157.342781 177.540961 
C 156.405146 177.540961 155.505788 177.913487 154.842781 178.576495 
C 154.179773 179.239502 153.807247 180.13886 153.807247 181.076495 
C 153.807247 182.014129 154.179773 182.913487 154.842781 183.576495 
C 155.505788 184.239502 156.405146 184.612029 157.342781 184.612029 
z
" style="fill:none;stroke:#c49c94;"/>
   </g>
   <g id="PathCollection_12">
    <path clip-path="url(#pd44105f9dc)" d="M 164.305348 183.5613 
C 165.242982 183.5613 166.14234 183.188774 166.805348 182.525766 
C 167.468355 181.862758 167.840881 180.963401 167.840881 180.025766 
C 167.840881 179.088131 167.468355 178.188774 166.805348 177.525766 
C 166.14234 176.862758 165.242982 176.490232 164.305348 176.490232 
C 163.367713 176.490232 162.468355 176.862758 161.805348 177.525766 
C 161.14234 178.188774 160.769814 179.088131 160.769814 180.025766 
C 160.769814 180.963401 161.14234 181.862758 161.805348 182.525766 
C 162.468355 183.188774 163.367713 183.5613 164.305348 183.5613 
z
" style="fill:none;stroke:#c49c94;"/>
   </g>
   <g id="PathCollection_13">
    <path clip-path="url(#pd44105f9dc)" d="M 171.267914 182.586076 
C 172.205549 182.586076 173.104907 182.21355 173.767914 181.550542 
C 174.430922 180.887535 174.803448 179.988177 174.803448 179.050542 
C 174.803448 178.112908 174.430922 177.21355 173.767914 176.550542 
C 173.104907 175.887535 172.205549 175.515008 171.267914 175.515008 
C 170.33028 175.515008 169.430922 175.887535 168.767914 176.550542 
C 168.104907 177.21355 167.732381 178.112908 167.732381 179.050542 
C 167.732381 179.988177 168.104907 180.887535 168.767914 181.550542 
C 169.430922 182.21355 170.33028 182.586076 171.267914 182.586076 
z
" style="fill:none;stroke:#c49c94;"/>
   </g>
   <g id="PathCollection_14">
    <path clip-path="url(#pd44105f9dc)" d="M 178.230481 181.678349 
C 179.168116 181.678349 180.067474 181.305823 180.730481 180.642815 
C 181.393489 179.979807 181.766015 179.08045 181.766015 178.142815 
C 181.766015 177.20518 181.393489 176.305823 180.730481 175.642815 
C 180.067474 174.979807 179.168116 174.607281 178.230481 174.607281 
C 177.292847 174.607281 176.393489 174.979807 175.730481 175.642815 
C 175.067474 176.305823 174.694947 177.20518 174.694947 178.142815 
C 174.694947 179.08045 175.067474 179.979807 175.730481 180.642815 
C 176.393489 181.305823 177.292847 181.678349 178.230481 181.678349 
z
" style="fill:none;stroke:#c49c94;"/>
   </g>
   <g id="PathCollection_15">
    <path clip-path="url(#pd44105f9dc)" d="M 185.193048 180.822509 
C 186.130683 180.822509 187.03004 180.449982 187.693048 179.786975 
C 188.356056 179.123967 188.728582 178.224609 188.728582 177.286975 
C 188.728582 176.34934 188.356056 175.449982 187.693048 174.786975 
C 187.03004 174.123967 186.130683 173.751441 185.193048 173.751441 
C 184.255414 173.751441 183.356056 174.123967 182.693048 174.786975 
C 182.03004 175.449982 181.657514 176.34934 181.657514 177.286975 
C 181.657514 178.224609 182.03004 179.123967 182.693048 179.786975 
C 183.356056 180.449982 184.255414 180.822509 185.193048 180.822509 
z
" style="fill:none;stroke:#c49c94;"/>
   </g>
   <g id="PathCollection_16">
    <path clip-path="url(#pd44105f9dc)" d="M 192.155615 179.996741 
C 193.09325 179.996741 193.992607 179.624215 194.655615 178.961207 
C 195.318623 178.2982 195.691149 177.398842 195.691149 176.461207 
C 195.691149 175.523573 195.318623 174.624215 194.655615 173.961207 
C 193.992607 173.2982 193.09325 172.925673 192.155615 172.925673 
C 191.21798 172.925673 190.318623 173.2982 189.655615 173.961207 
C 188.992607 174.624215 188.620081 175.523573 188.620081 176.461207 
C 188.620081 177.398842 188.992607 178.2982 189.655615 178.961207 
C 190.318623 179.624215 191.21798 179.996741 192.155615 179.996741 
z
" style="fill:none;stroke:#c49c94;"/>
   </g>
   <g id="PathCollection_17">
    <path clip-path="url(#pd44105f9dc)" d="M 199.118182 179.174452 
C 200.055816 179.174452 200.955174 178.801926 201.618182 178.138919 
C 202.28119 177.475911 202.653716 176.576553 202.653716 175.638919 
C 202.653716 174.701284 202.28119 173.801926 201.618182 173.138919 
C 200.955174 172.475911 200.055816 172.103385 199.118182 172.103385 
C 198.180547 172.103385 197.28119 172.475911 196.618182 173.138919 
C 195.955174 173.801926 195.582648 174.701284 195.582648 175.638919 
C 195.582648 176.576553 195.955174 177.475911 196.618182 178.138919 
C 197.28119 178.801926 198.180547 179.174452 199.118182 179.174452 
z
" style="fill:none;stroke:#c49c94;"/>
   </g>
   <g id="PathCollection_18">
    <path clip-path="url(#pd44105f9dc)" d="M 206.080749 178.3257 
C 207.018383 178.3257 207.917741 177.953174 208.580749 177.290166 
C 209.243756 176.627158 209.616283 175.7278 209.616283 174.790166 
C 209.616283 173.852531 209.243756 172.953174 208.580749 172.290166 
C 207.917741 171.627158 207.018383 171.254632 206.080749 171.254632 
C 205.143114 171.254632 204.243756 171.627158 203.580749 172.290166 
C 202.917741 172.953174 202.545215 173.852531 202.545215 174.790166 
C 202.545215 175.7278 202.917741 176.627158 203.580749 177.290166 
C 204.243756 177.953174 205.143114 178.3257 206.080749 178.3257 
z
" style="fill:none;stroke:#c49c94;"/>
   </g>
   <g id="PathCollection_19">
    <path clip-path="url(#pd44105f9dc)" d="M 213.043316 177.418623 
C 213.98095 177.418623 214.880308 177.046097 215.543316 176.383089 
C 216.206323 175.720081 216.578849 174.820724 216.578849 173.883089 
C 216.578849 172.945454 216.206323 172.046097 215.543316 171.383089 
C 214.880308 170.720081 213.98095 170.347555 213.043316 170.347555 
C 212.105681 170.347555 211.206323 170.720081 210.543316 171.383089 
C 209.880308 172.046097 209.507782 172.945454 209.507782 173.883089 
C 209.507782 174.820724 209.880308 175.720081 210.543316 176.383089 
C 211.206323 177.046097 212.105681 177.418623 213.043316 177.418623 
z
" style="fill:none;stroke:#c49c94;"/>
   </g>
   <g id="PathCollection_20">
    <path clip-path="url(#pd44105f9dc)" d="M 220.005882 176.420843 
C 220.943517 176.420843 221.842875 176.048317 222.505882 175.385309 
C 223.16889 174.722301 223.541416 173.822944 223.541416 172.885309 
C 223.541416 171.947675 223.16889 171.048317 222.505882 170.385309 
C 221.842875 169.722301 220.943517 169.349775 220.005882 169.349775 
C 219.068248 169.349775 218.16889 169.722301 217.505882 170.385309 
C 216.842875 171.048317 216.470348 171.947675 216.470348 172.885309 
C 216.470348 173.822944 216.842875 174.722301 217.505882 175.385309 
C 218.16889 176.048317 219.068248 176.420843 220.005882 176.420843 
z
" style="fill:none;stroke:#c49c94;"/>
   </g>
   <g id="PathCollection_21">
    <path clip-path="url(#pd44105f9dc)" d="M 226.968449 175.300823 
C 227.906084 175.300823 228.805441 174.928297 229.468449 174.265289 
C 230.131457 173.602281 230.503983 172.702923 230.503983 171.765289 
C 230.503983 170.827654 230.131457 169.928297 229.468449 169.265289 
C 228.805441 168.602281 227.906084 168.229755 226.968449 168.229755 
C 226.030815 168.229755 225.131457 168.602281 224.468449 169.265289 
C 223.805441 169.928297 223.432915 170.827654 223.432915 171.765289 
C 223.432915 172.702923 223.805441 173.602281 224.468449 174.265289 
C 225.131457 174.928297 226.030815 175.300823 226.968449 175.300823 
z
" style="fill:none;stroke:#c49c94;"/>
   </g>
   <g id="PathCollection_22">
    <path clip-path="url(#pd44105f9dc)" d="M 233.931016 174.029163 
C 234.868651 174.029163 235.768008 173.656637 236.431016 172.993629 
C 237.094024 172.330622 237.46655 171.431264 237.46655 170.493629 
C 237.46655 169.555995 237.094024 168.656637 236.431016 167.993629 
C 235.768008 167.330622 234.868651 166.958096 233.931016 166.958096 
C 232.993381 166.958096 232.094024 167.330622 231.431016 167.993629 
C 230.768008 168.656637 230.395482 169.555995 230.395482 170.493629 
C 230.395482 171.431264 230.768008 172.330622 231.431016 172.993629 
C 232.094024 173.656637 232.993381 174.029163 233.931016 174.029163 
z
" style="fill:none;stroke:#c49c94;"/>
   </g>
   <g id="PathCollection_23">
    <path clip-path="url(#pd44105f9dc)" d="M 240.893583 172.579824 
C 241.831217 172.579824 242.730575 172.207298 243.393583 171.54429 
C 244.056591 170.881282 244.429117 169.981925 244.429117 169.04429 
C 244.429117 168.106656 244.056591 167.207298 243.393583 166.54429 
C 242.730575 165.881282 241.831217 165.508756 240.893583 165.508756 
C 239.955948 165.508756 239.056591 165.881282 238.393583 166.54429 
C 237.730575 167.207298 237.358049 168.106656 237.358049 169.04429 
C 237.358049 169.981925 237.730575 170.881282 238.393583 171.54429 
C 239.056591 172.207298 239.955948 172.579824 240.893583 172.579824 
z
" style="fill:none;stroke:#c49c94;"/>
   </g>
   <g id="PathCollection_24">
    <path clip-path="url(#pd44105f9dc)" d="M 247.85615 170.931245 
C 248.793784 170.931245 249.693142 170.558719 250.35615 169.895711 
C 251.019157 169.232703 251.391684 168.333346 251.391684 167.395711 
C 251.391684 166.458077 251.019157 165.558719 250.35615 164.895711 
C 249.693142 164.232703 248.793784 163.860177 247.85615 163.860177 
C 246.918515 163.860177 246.019157 164.232703 245.35615 164.895711 
C 244.693142 165.558719 244.320616 166.458077 244.320616 167.395711 
C 244.320616 168.333346 244.693142 169.232703 245.35615 169.895711 
C 246.019157 170.558719 246.918515 170.931245 247.85615 170.931245 
z
" style="fill:none;stroke:#c49c94;"/>
   </g>
   <g id="PathCollection_25">
    <path clip-path="url(#pd44105f9dc)" d="M 254.818717 169.067353 
C 255.756351 169.067353 256.655709 168.694827 257.318717 168.031819 
C 257.981724 167.368812 258.35425 166.469454 258.35425 165.531819 
C 258.35425 164.594185 257.981724 163.694827 257.318717 163.031819 
C 256.655709 162.368812 255.756351 161.996285 254.818717 161.996285 
C 253.881082 161.996285 252.981724 162.368812 252.318717 163.031819 
C 251.655709 163.694827 251.283183 164.594185 251.283183 165.531819 
C 251.283183 166.469454 251.655709 167.368812 252.318717 168.031819 
C 252.981724 168.694827 253.881082 169.067353 254.818717 169.067353 
z
" style="fill:none;stroke:#c49c94;"/>
   </g>
   <g id="PathCollection_26">
    <path clip-path="url(#pd44105f9dc)" d="M 261.781283 166.97844 
C 262.718918 166.97844 263.618276 166.605913 264.281283 165.942906 
C 264.944291 165.279898 265.316817 164.38054 265.316817 163.442906 
C 265.316817 162.505271 264.944291 161.605913 264.281283 160.942906 
C 263.618276 160.279898 262.718918 159.907372 261.781283 159.907372 
C 260.843649 159.907372 259.944291 160.279898 259.281283 160.942906 
C 258.618276 161.605913 258.24575 162.505271 258.24575 163.442906 
C 258.24575 164.38054 258.618276 165.279898 259.281283 165.942906 
C 259.944291 166.605913 260.843649 166.97844 261.781283 166.97844 
z
" style="fill:none;stroke:#c49c94;"/>
   </g>
   <g id="PathCollection_27">
    <path clip-path="url(#pd44105f9dc)" d="M 268.74385 164.661883 
C 269.681485 164.661883 270.580843 164.289357 271.24385 163.626349 
C 271.906858 162.963341 272.279384 162.063984 272.279384 161.126349 
C 272.279384 160.188715 271.906858 159.289357 271.24385 158.626349 
C 270.580843 157.963341 269.681485 157.590815 268.74385 157.590815 
C 267.806216 157.590815 266.906858 157.963341 266.24385 158.626349 
C 265.580843 159.289357 265.208316 160.188715 265.208316 161.126349 
C 265.208316 162.063984 265.580843 162.963341 266.24385 163.626349 
C 266.906858 164.289357 267.806216 164.661883 268.74385 164.661883 
z
" style="fill:none;stroke:#c49c94;"/>
   </g>
   <g id="PathCollection_28">
    <path clip-path="url(#pd44105f9dc)" d="M 275.706417 162.122707 
C 276.644052 162.122707 277.543409 161.75018 278.206417 161.087173 
C 278.869425 160.424165 279.241951 159.524807 279.241951 158.587173 
C 279.241951 157.649538 278.869425 156.75018 278.206417 156.087173 
C 277.543409 155.424165 276.644052 155.051639 275.706417 155.051639 
C 274.768783 155.051639 273.869425 155.424165 273.206417 156.087173 
C 272.543409 156.75018 272.170883 157.649538 272.170883 158.587173 
C 272.170883 159.524807 272.543409 160.424165 273.206417 161.087173 
C 273.869425 161.75018 274.768783 162.122707 275.706417 162.122707 
z
" style="fill:none;stroke:#c49c94;"/>
   </g>
   <g id="PathCollection_29">
    <path clip-path="url(#pd44105f9dc)" d="M 282.668984 159.37395 
C 283.606619 159.37395 284.505976 159.001424 285.168984 158.338416 
C 285.831992 157.675408 286.204518 156.776051 286.204518 155.838416 
C 286.204518 154.900782 285.831992 154.001424 285.168984 153.338416 
C 284.505976 152.675408 283.606619 152.302882 282.668984 152.302882 
C 281.731349 152.302882 280.831992 152.675408 280.168984 153.338416 
C 279.505976 154.001424 279.13345 154.900782 279.13345 155.838416 
C 279.13345 156.776051 279.505976 157.675408 280.168984 158.338416 
C 280.831992 159.001424 281.731349 159.37395 282.668984 159.37395 
z
" style="fill:none;stroke:#c49c94;"/>
   </g>
   <g id="PathCollection_30">
    <path clip-path="url(#pd44105f9dc)" d="M 289.631551 156.436835 
C 290.569185 156.436835 291.468543 156.064308 292.131551 155.401301 
C 292.794559 154.738293 293.167085 153.838935 293.167085 152.901301 
C 293.167085 151.963666 292.794559 151.064308 292.131551 150.401301 
C 291.468543 149.738293 290.569185 149.365767 289.631551 149.365767 
C 288.693916 149.365767 287.794559 149.738293 287.131551 150.401301 
C 286.468543 151.064308 286.096017 151.963666 286.096017 152.901301 
C 286.096017 153.838935 286.468543 154.738293 287.131551 155.401301 
C 287.794559 156.064308 288.693916 156.436835 289.631551 156.436835 
z
" style="fill:none;stroke:#c49c94;"/>
   </g>
   <g id="PathCollection_31">
    <path clip-path="url(#pd44105f9dc)" d="M 296.594118 153.34071 
C 297.531752 153.34071 298.43111 152.968184 299.094118 152.305176 
C 299.757125 151.642168 300.129652 150.742811 300.129652 149.805176 
C 300.129652 148.867541 299.757125 147.968184 299.094118 147.305176 
C 298.43111 146.642168 297.531752 146.269642 296.594118 146.269642 
C 295.656483 146.269642 294.757125 146.642168 294.094118 147.305176 
C 293.43111 147.968184 293.058584 148.867541 293.058584 149.805176 
C 293.058584 150.742811 293.43111 151.642168 294.094118 152.305176 
C 294.757125 152.968184 295.656483 153.34071 296.594118 153.34071 
z
" style="fill:none;stroke:#c49c94;"/>
   </g>
   <g id="PathCollection_32">
    <path clip-path="url(#pd44105f9dc)" d="M 303.556684 150.122757 
C 304.494319 150.122757 305.393677 149.750231 306.056684 149.087223 
C 306.719692 148.424215 307.092218 147.524857 307.092218 146.587223 
C 307.092218 145.649588 306.719692 144.750231 306.056684 144.087223 
C 305.393677 143.424215 304.494319 143.051689 303.556684 143.051689 
C 302.61905 143.051689 301.719692 143.424215 301.056684 144.087223 
C 300.393677 144.750231 300.021151 145.649588 300.021151 146.587223 
C 300.021151 147.524857 300.393677 148.424215 301.056684 149.087223 
C 301.719692 149.750231 302.61905 150.122757 303.556684 150.122757 
z
" style="fill:none;stroke:#c49c94;"/>
   </g>
   <g id="PathCollection_33">
    <path clip-path="url(#pd44105f9dc)" d="M 310.519251 146.827438 
C 311.456886 146.827438 312.356244 146.454912 313.019251 145.791904 
C 313.682259 145.128896 314.054785 144.229539 314.054785 143.291904 
C 314.054785 142.354269 313.682259 141.454912 313.019251 140.791904 
C 312.356244 140.128896 311.456886 139.75637 310.519251 139.75637 
C 309.581617 139.75637 308.682259 140.128896 308.019251 140.791904 
C 307.356244 141.454912 306.983717 142.354269 306.983717 143.291904 
C 306.983717 144.229539 307.356244 145.128896 308.019251 145.791904 
C 308.682259 146.454912 309.581617 146.827438 310.519251 146.827438 
z
" style="fill:none;stroke:#c49c94;"/>
   </g>
   <g id="PathCollection_34">
    <path clip-path="url(#pd44105f9dc)" d="M 317.481818 143.505668 
C 318.419453 143.505668 319.31881 143.133142 319.981818 142.470134 
C 320.644826 141.807126 321.017352 140.907769 321.017352 139.970134 
C 321.017352 139.032499 320.644826 138.133142 319.981818 137.470134 
C 319.31881 136.807126 318.419453 136.4346 317.481818 136.4346 
C 316.544184 136.4346 315.644826 136.807126 314.981818 137.470134 
C 314.31881 138.133142 313.946284 139.032499 313.946284 139.970134 
C 313.946284 140.907769 314.31881 141.807126 314.981818 142.470134 
C 315.644826 143.133142 316.544184 143.505668 317.481818 143.505668 
z
" style="fill:none;stroke:#c49c94;"/>
   </g>
   <g id="PathCollection_35">
    <path clip-path="url(#pd44105f9dc)" d="M 324.444385 140.213694 
C 325.38202 140.213694 326.281377 139.841167 326.944385 139.17816 
C 327.607393 138.515152 327.979919 137.615794 327.979919 136.67816 
C 327.979919 135.740525 327.607393 134.841167 326.944385 134.17816 
C 326.281377 133.515152 325.38202 133.142626 324.444385 133.142626 
C 323.50675 133.142626 322.607393 133.515152 321.944385 134.17816 
C 321.281377 134.841167 320.908851 135.740525 320.908851 136.67816 
C 320.908851 137.615794 321.281377 138.515152 321.944385 139.17816 
C 322.607393 139.841167 323.50675 140.213694 324.444385 140.213694 
z
" style="fill:none;stroke:#c49c94;"/>
   </g>
   <g id="PathCollection_36">
    <path clip-path="url(#pd44105f9dc)" d="M 331.406952 137.011662 
C 332.344586 137.011662 333.243944 136.639136 333.906952 135.976128 
C 334.56996 135.31312 334.942486 134.413762 334.942486 133.476128 
C 334.942486 132.538493 334.56996 131.639136 333.906952 130.976128 
C 333.243944 130.31312 332.344586 129.940594 331.406952 129.940594 
C 330.469317 129.940594 329.56996 130.31312 328.906952 130.976128 
C 328.243944 131.639136 327.871418 132.538493 327.871418 133.476128 
C 327.871418 134.413762 328.243944 135.31312 328.906952 135.976128 
C 329.56996 136.639136 330.469317 137.011662 331.406952 137.011662 
z
" style="fill:none;stroke:#c49c94;"/>
   </g>
   <g id="PathCollection_37">
    <path clip-path="url(#pd44105f9dc)" d="M 338.369519 133.961857 
C 339.307153 133.961857 340.206511 133.589331 340.869519 132.926324 
C 341.532526 132.263316 341.905053 131.363958 341.905053 130.426324 
C 341.905053 129.488689 341.532526 128.589331 340.869519 127.926324 
C 340.206511 127.263316 339.307153 126.89079 338.369519 126.89079 
C 337.431884 126.89079 336.532526 127.263316 335.869519 127.926324 
C 335.206511 128.589331 334.833985 129.488689 334.833985 130.426324 
C 334.833985 131.363958 335.206511 132.263316 335.869519 132.926324 
C 336.532526 133.589331 337.431884 133.961857 338.369519 133.961857 
z
" style="fill:none;stroke:#c49c94;"/>
   </g>
   <g id="PathCollection_38">
    <path clip-path="url(#pd44105f9dc)" d="M 345.332086 131.126597 
C 346.26972 131.126597 347.169078 130.754071 347.832086 130.091063 
C 348.495093 129.428055 348.867619 128.528698 348.867619 127.591063 
C 348.867619 126.653429 348.495093 125.754071 347.832086 125.091063 
C 347.169078 124.428055 346.26972 124.055529 345.332086 124.055529 
C 344.394451 124.055529 343.495093 124.428055 342.832086 125.091063 
C 342.169078 125.754071 341.796552 126.653429 341.796552 127.591063 
C 341.796552 128.528698 342.169078 129.428055 342.832086 130.091063 
C 343.495093 130.754071 344.394451 131.126597 345.332086 131.126597 
z
" style="fill:none;stroke:#c49c94;"/>
   </g>
   <g id="PathCollection_39">
    <path clip-path="url(#pd44105f9dc)" d="M 352.294652 128.565754 
C 353.232287 128.565754 354.131645 128.193228 354.794652 127.53022 
C 355.45766 126.867213 355.830186 125.967855 355.830186 125.03022 
C 355.830186 124.092586 355.45766 123.193228 354.794652 122.53022 
C 354.131645 121.867213 353.232287 121.494686 352.294652 121.494686 
C 351.357018 121.494686 350.45766 121.867213 349.794652 122.53022 
C 349.131645 123.193228 348.759119 124.092586 348.759119 125.03022 
C 348.759119 125.967855 349.131645 126.867213 349.794652 127.53022 
C 350.45766 128.193228 351.357018 128.565754 352.294652 128.565754 
z
" style="fill:none;stroke:#c49c94;"/>
   </g>
   <g id="PathCollection_40">
    <path clip-path="url(#pd44105f9dc)" d="M 359.257219 126.333906 
C 360.194854 126.333906 361.094212 125.96138 361.757219 125.298372 
C 362.420227 124.635364 362.792753 123.736007 362.792753 122.798372 
C 362.792753 121.860737 362.420227 120.96138 361.757219 120.298372 
C 361.094212 119.635364 360.194854 119.262838 359.257219 119.262838 
C 358.319585 119.262838 357.420227 119.635364 356.757219 120.298372 
C 356.094212 120.96138 355.721685 121.860737 355.721685 122.798372 
C 355.721685 123.736007 356.094212 124.635364 356.757219 125.298372 
C 357.420227 125.96138 358.319585 126.333906 359.257219 126.333906 
z
" style="fill:none;stroke:#c49c94;"/>
   </g>
   <g id="PathCollection_41">
    <path clip-path="url(#pd44105f9dc)" d="M 366.219786 124.477075 
C 367.157421 124.477075 368.056778 124.104549 368.719786 123.441541 
C 369.382794 122.778533 369.75532 121.879176 369.75532 120.941541 
C 369.75532 120.003907 369.382794 119.104549 368.719786 118.441541 
C 368.056778 117.778533 367.157421 117.406007 366.219786 117.406007 
C 365.282152 117.406007 364.382794 117.778533 363.719786 118.441541 
C 363.056778 119.104549 362.684252 120.003907 362.684252 120.941541 
C 362.684252 121.879176 363.056778 122.778533 363.719786 123.441541 
C 364.382794 124.104549 365.282152 124.477075 366.219786 124.477075 
z
" style="fill:none;stroke:#c49c94;"/>
   </g>
   <g id="PathCollection_42">
    <path clip-path="url(#pd44105f9dc)" d="M 373.182353 123.029057 
C 374.119987 123.029057 375.019345 122.656531 375.682353 121.993523 
C 376.345361 121.330516 376.717887 120.431158 376.717887 119.493523 
C 376.717887 118.555889 376.345361 117.656531 375.682353 116.993523 
C 375.019345 116.330516 374.119987 115.95799 373.182353 115.95799 
C 372.244718 115.95799 371.345361 116.330516 370.682353 116.993523 
C 370.019345 117.656531 369.646819 118.555889 369.646819 119.493523 
C 369.646819 120.431158 370.019345 121.330516 370.682353 121.993523 
C 371.345361 122.656531 372.244718 123.029057 373.182353 123.029057 
z
" style="fill:none;stroke:#c49c94;"/>
   </g>
   <g id="PathCollection_43">
    <path clip-path="url(#pd44105f9dc)" d="M 380.14492 122.00731 
C 381.082554 122.00731 381.981912 121.634784 382.64492 120.971776 
C 383.307928 120.308769 383.680454 119.409411 383.680454 118.471776 
C 383.680454 117.534142 383.307928 116.634784 382.64492 115.971776 
C 381.981912 115.308769 381.082554 114.936243 380.14492 114.936243 
C 379.207285 114.936243 378.307928 115.308769 377.64492 115.971776 
C 376.981912 116.634784 376.609386 117.534142 376.609386 118.471776 
C 376.609386 119.409411 376.981912 120.308769 377.64492 120.971776 
C 378.307928 121.634784 379.207285 122.00731 380.14492 122.00731 
z
" style="fill:none;stroke:#c49c94;"/>
   </g>
   <g id="PathCollection_44">
    <path clip-path="url(#pd44105f9dc)" d="M 387.107487 121.408389 
C 388.045121 121.408389 388.944479 121.035862 389.607487 120.372855 
C 390.270494 119.709847 390.643021 118.810489 390.643021 117.872855 
C 390.643021 116.93522 390.270494 116.035862 389.607487 115.372855 
C 388.944479 114.709847 388.045121 114.337321 387.107487 114.337321 
C 386.169852 114.337321 385.270494 114.709847 384.607487 115.372855 
C 383.944479 116.035862 383.571953 116.93522 383.571953 117.872855 
C 383.571953 118.810489 383.944479 119.709847 384.607487 120.372855 
C 385.270494 121.035862 386.169852 121.408389 387.107487 121.408389 
z
" style="fill:none;stroke:#c49c94;"/>
   </g>
   <g id="PathCollection_45">
    <path clip-path="url(#pd44105f9dc)" d="M 394.070053 121.202907 
C 395.007688 121.202907 395.907046 120.830381 396.570053 120.167374 
C 397.233061 119.504366 397.605587 118.605008 397.605587 117.667374 
C 397.605587 116.729739 397.233061 115.830381 396.570053 115.167374 
C 395.907046 114.504366 395.007688 114.13184 394.070053 114.13184 
C 393.132419 114.13184 392.233061 114.504366 391.570053 115.167374 
C 390.907046 115.830381 390.53452 116.729739 390.53452 117.667374 
C 390.53452 118.605008 390.907046 119.504366 391.570053 120.167374 
C 392.233061 120.830381 393.132419 121.202907 394.070053 121.202907 
z
" style="fill:none;stroke:#c49c94;"/>
   </g>
   <g id="PathCollection_46">
    <path clip-path="url(#pd44105f9dc)" d="M 401.03262 121.330016 
C 401.970255 121.330016 402.869613 120.95749 403.53262 120.294482 
C 404.195628 119.631474 404.568154 118.732117 404.568154 117.794482 
C 404.568154 116.856847 404.195628 115.95749 403.53262 115.294482 
C 402.869613 114.631474 401.970255 114.258948 401.03262 114.258948 
C 400.094986 114.258948 399.195628 114.631474 398.53262 115.294482 
C 397.869613 115.95749 397.497086 116.856847 397.497086 117.794482 
C 397.497086 118.732117 397.869613 119.631474 398.53262 120.294482 
C 399.195628 120.95749 400.094986 121.330016 401.03262 121.330016 
z
" style="fill:none;stroke:#c49c94;"/>
   </g>
   <g id="PathCollection_47">
    <path clip-path="url(#pd44105f9dc)" d="M 407.995187 121.691363 
C 408.932822 121.691363 409.832179 121.318837 410.495187 120.655829 
C 411.158195 119.992822 411.530721 119.093464 411.530721 118.155829 
C 411.530721 117.218195 411.158195 116.318837 410.495187 115.655829 
C 409.832179 114.992822 408.932822 114.620296 407.995187 114.620296 
C 407.057553 114.620296 406.158195 114.992822 405.495187 115.655829 
C 404.832179 116.318837 404.459653 117.218195 404.459653 118.155829 
C 404.459653 119.093464 404.832179 119.992822 405.495187 120.655829 
C 406.158195 121.318837 407.057553 121.691363 407.995187 121.691363 
z
" style="fill:none;stroke:#c49c94;"/>
   </g>
   <g id="PathCollection_48">
    <path clip-path="url(#pd44105f9dc)" d="M 414.957754 122.144538 
C 415.895389 122.144538 416.794746 121.772012 417.457754 121.109004 
C 418.120762 120.445996 418.493288 119.546639 418.493288 118.609004 
C 418.493288 117.671369 418.120762 116.772012 417.457754 116.109004 
C 416.794746 115.445996 415.895389 115.07347 414.957754 115.07347 
C 414.020119 115.07347 413.120762 115.445996 412.457754 116.109004 
C 411.794746 116.772012 411.42222 117.671369 411.42222 118.609004 
C 411.42222 119.546639 411.794746 120.445996 412.457754 121.109004 
C 413.120762 121.772012 414.020119 122.144538 414.957754 122.144538 
z
" style="fill:none;stroke:#c49c94;"/>
   </g>
   <g id="PathCollection_49">
    <path clip-path="url(#pd44105f9dc)" d="M 421.920321 122.495965 
C 422.857955 122.495965 423.757313 122.123439 424.420321 121.460431 
C 425.083329 120.797424 425.455855 119.898066 425.455855 118.960431 
C 425.455855 118.022797 425.083329 117.123439 424.420321 116.460431 
C 423.757313 115.797424 422.857955 115.424897 421.920321 115.424897 
C 420.982686 115.424897 420.083329 115.797424 419.420321 116.460431 
C 418.757313 117.123439 418.384787 118.022797 418.384787 118.960431 
C 418.384787 119.898066 418.757313 120.797424 419.420321 121.460431 
C 420.083329 122.123439 420.982686 122.495965 421.920321 122.495965 
z
" style="fill:none;stroke:#c49c94;"/>
   </g>
   <g id="PathCollection_50">
    <path clip-path="url(#pd44105f9dc)" d="M 428.882888 122.493243 
C 429.820522 122.493243 430.71988 122.120717 431.382888 121.457709 
C 432.045895 120.794701 432.418422 119.895343 432.418422 118.957709 
C 432.418422 118.020074 432.045895 117.120717 431.382888 116.457709 
C 430.71988 115.794701 429.820522 115.422175 428.882888 115.422175 
C 427.945253 115.422175 427.045895 115.794701 426.382888 116.457709 
C 425.71988 117.120717 425.347354 118.020074 425.347354 118.957709 
C 425.347354 119.895343 425.71988 120.794701 426.382888 121.457709 
C 427.045895 122.120717 427.945253 122.493243 428.882888 122.493243 
z
" style="fill:none;stroke:#c49c94;"/>
   </g>
   <g id="PathCollection_51">
    <path clip-path="url(#pd44105f9dc)" d="M 435.845455 121.816896 
C 436.783089 121.816896 437.682447 121.444369 438.345455 120.781362 
C 439.008462 120.118354 439.380988 119.218996 439.380988 118.281362 
C 439.380988 117.343727 439.008462 116.444369 438.345455 115.781362 
C 437.682447 115.118354 436.783089 114.745828 435.845455 114.745828 
C 434.90782 114.745828 434.008462 115.118354 433.345455 115.781362 
C 432.682447 116.444369 432.309921 117.343727 432.309921 118.281362 
C 432.309921 119.218996 432.682447 120.118354 433.345455 120.781362 
C 434.008462 121.444369 434.90782 121.816896 435.845455 121.816896 
z
" style="fill:none;stroke:#c49c94;"/>
   </g>
   <g id="PathCollection_52">
    <defs>
     <path d="M 0 3.535534 
C 0.937635 3.535534 1.836992 3.163008 2.5 2.5 
C 3.163008 1.836992 3.535534 0.937635 3.535534 0 
C 3.535534 -0.937635 3.163008 -1.836992 2.5 -2.5 
C 1.836992 -3.163008 0.937635 -3.535534 0 -3.535534 
C -0.937635 -3.535534 -1.836992 -3.163008 -2.5 -2.5 
C -3.163008 -1.836992 -3.535534 -0.937635 -3.535534 0 
C -3.535534 0.937635 -3.163008 1.836992 -2.5 2.5 
C -1.836992 3.163008 -0.937635 3.535534 0 3.535534 
z
" id="m402532cdcc" style="stroke:#c49c94;"/>
    </defs>
    <g clip-path="url(#pd44105f9dc)">
     <use style="fill:#c49c94;stroke:#c49c94;" x="87.717112" xlink:href="#m402532cdcc" y="187.984171"/>
    </g>
   </g>
   <g id="PathCollection_53">
    <g clip-path="url(#pd44105f9dc)">
     <use style="fill:#c49c94;stroke:#c49c94;" x="94.679679" xlink:href="#m402532cdcc" y="187.558781"/>
    </g>
   </g>
   <g id="PathCollection_54">
    <g clip-path="url(#pd44105f9dc)">
     <use style="fill:#c49c94;stroke:#c49c94;" x="101.642246" xlink:href="#m402532cdcc" y="186.883459"/>
    </g>
   </g>
   <g id="PathCollection_55">
    <g clip-path="url(#pd44105f9dc)">
     <use style="fill:#c49c94;stroke:#c49c94;" x="108.604813" xlink:href="#m402532cdcc" y="185.991161"/>
    </g>
   </g>
   <g id="PathCollection_56">
    <g clip-path="url(#pd44105f9dc)">
     <use style="fill:#c49c94;stroke:#c49c94;" x="115.56738" xlink:href="#m402532cdcc" y="184.923287"/>
    </g>
   </g>
   <g id="PathCollection_57">
    <g clip-path="url(#pd44105f9dc)">
     <use style="fill:#c49c94;stroke:#c49c94;" x="122.529947" xlink:href="#m402532cdcc" y="183.725225"/>
    </g>
   </g>
   <g id="PathCollection_58">
    <g clip-path="url(#pd44105f9dc)">
     <use style="fill:#c49c94;stroke:#c49c94;" x="129.492513" xlink:href="#m402532cdcc" y="182.442631"/>
    </g>
   </g>
   <g id="PathCollection_59">
    <g clip-path="url(#pd44105f9dc)">
     <use style="fill:#c49c94;stroke:#c49c94;" x="136.45508" xlink:href="#m402532cdcc" y="181.118403"/>
    </g>
   </g>
   <g id="PathCollection_60">
    <g clip-path="url(#pd44105f9dc)">
     <use style="fill:#c49c94;stroke:#c49c94;" x="143.417647" xlink:href="#m402532cdcc" y="179.790287"/>
    </g>
   </g>
   <g id="PathCollection_61">
    <g clip-path="url(#pd44105f9dc)">
     <use style="fill:#c49c94;stroke:#c49c94;" x="150.380214" xlink:href="#m402532cdcc" y="178.489099"/>
    </g>
   </g>
   <g id="PathCollection_62">
    <g clip-path="url(#pd44105f9dc)">
     <use style="fill:#c49c94;stroke:#c49c94;" x="157.342781" xlink:href="#m402532cdcc" y="177.237478"/>
    </g>
   </g>
   <g id="PathCollection_63">
    <g clip-path="url(#pd44105f9dc)">
     <use style="fill:#c49c94;stroke:#c49c94;" x="164.305348" xlink:href="#m402532cdcc" y="176.049165"/>
    </g>
   </g>
   <g id="PathCollection_64">
    <g clip-path="url(#pd44105f9dc)">
     <use style="fill:#c49c94;stroke:#c49c94;" x="171.267914" xlink:href="#m402532cdcc" y="174.928724"/>
    </g>
   </g>
   <g id="PathCollection_65">
    <g clip-path="url(#pd44105f9dc)">
     <use style="fill:#c49c94;stroke:#c49c94;" x="178.230481" xlink:href="#m402532cdcc" y="173.871692"/>
    </g>
   </g>
   <g id="PathCollection_66">
    <g clip-path="url(#pd44105f9dc)">
     <use style="fill:#c49c94;stroke:#c49c94;" x="185.193048" xlink:href="#m402532cdcc" y="172.865084"/>
    </g>
   </g>
   <g id="PathCollection_67">
    <g clip-path="url(#pd44105f9dc)">
     <use style="fill:#c49c94;stroke:#c49c94;" x="192.155615" xlink:href="#m402532cdcc" y="171.888226"/>
    </g>
   </g>
   <g id="PathCollection_68">
    <g clip-path="url(#pd44105f9dc)">
     <use style="fill:#c49c94;stroke:#c49c94;" x="199.118182" xlink:href="#m402532cdcc" y="170.913868"/>
    </g>
   </g>
   <g id="PathCollection_69">
    <g clip-path="url(#pd44105f9dc)">
     <use style="fill:#c49c94;stroke:#c49c94;" x="206.080749" xlink:href="#m402532cdcc" y="169.909515"/>
    </g>
   </g>
   <g id="PathCollection_70">
    <g clip-path="url(#pd44105f9dc)">
     <use style="fill:#c49c94;stroke:#c49c94;" x="213.043316" xlink:href="#m402532cdcc" y="168.838953"/>
    </g>
   </g>
   <g id="PathCollection_71">
    <g clip-path="url(#pd44105f9dc)">
     <use style="fill:#c49c94;stroke:#c49c94;" x="220.005882" xlink:href="#m402532cdcc" y="167.663908"/>
    </g>
   </g>
   <g id="PathCollection_72">
    <g clip-path="url(#pd44105f9dc)">
     <use style="fill:#c49c94;stroke:#c49c94;" x="226.968449" xlink:href="#m402532cdcc" y="166.345795"/>
    </g>
   </g>
   <g id="PathCollection_73">
    <g clip-path="url(#pd44105f9dc)">
     <use style="fill:#c49c94;stroke:#c49c94;" x="233.931016" xlink:href="#m402532cdcc" y="164.847517"/>
    </g>
   </g>
   <g id="PathCollection_74">
    <g clip-path="url(#pd44105f9dc)">
     <use style="fill:#c49c94;stroke:#c49c94;" x="240.893583" xlink:href="#m402532cdcc" y="163.135258"/>
    </g>
   </g>
   <g id="PathCollection_75">
    <g clip-path="url(#pd44105f9dc)">
     <use style="fill:#c49c94;stroke:#c49c94;" x="247.85615" xlink:href="#m402532cdcc" y="161.18024"/>
    </g>
   </g>
   <g id="PathCollection_76">
    <g clip-path="url(#pd44105f9dc)">
     <use style="fill:#c49c94;stroke:#c49c94;" x="254.818717" xlink:href="#m402532cdcc" y="158.960374"/>
    </g>
   </g>
   <g id="PathCollection_77">
    <g clip-path="url(#pd44105f9dc)">
     <use style="fill:#c49c94;stroke:#c49c94;" x="261.781283" xlink:href="#m402532cdcc" y="156.461782"/>
    </g>
   </g>
   <g id="PathCollection_78">
    <g clip-path="url(#pd44105f9dc)">
     <use style="fill:#c49c94;stroke:#c49c94;" x="268.74385" xlink:href="#m402532cdcc" y="153.680136"/>
    </g>
   </g>
   <g id="PathCollection_79">
    <g clip-path="url(#pd44105f9dc)">
     <use style="fill:#c49c94;stroke:#c49c94;" x="275.706417" xlink:href="#m402532cdcc" y="150.621758"/>
    </g>
   </g>
   <g id="PathCollection_80">
    <g clip-path="url(#pd44105f9dc)">
     <use style="fill:#c49c94;stroke:#c49c94;" x="282.668984" xlink:href="#m402532cdcc" y="147.304453"/>
    </g>
   </g>
   <g id="PathCollection_81">
    <g clip-path="url(#pd44105f9dc)">
     <use style="fill:#c49c94;stroke:#c49c94;" x="289.631551" xlink:href="#m402532cdcc" y="143.758012"/>
    </g>
   </g>
   <g id="PathCollection_82">
    <g clip-path="url(#pd44105f9dc)">
     <use style="fill:#c49c94;stroke:#c49c94;" x="296.594118" xlink:href="#m402532cdcc" y="140.024355"/>
    </g>
   </g>
   <g id="PathCollection_83">
    <g clip-path="url(#pd44105f9dc)">
     <use style="fill:#c49c94;stroke:#c49c94;" x="303.556684" xlink:href="#m402532cdcc" y="136.157251"/>
    </g>
   </g>
   <g id="PathCollection_84">
    <g clip-path="url(#pd44105f9dc)">
     <use style="fill:#c49c94;stroke:#c49c94;" x="310.519251" xlink:href="#m402532cdcc" y="132.221585"/>
    </g>
   </g>
   <g id="PathCollection_85">
    <g clip-path="url(#pd44105f9dc)">
     <use style="fill:#c49c94;stroke:#c49c94;" x="317.481818" xlink:href="#m402532cdcc" y="128.292114"/>
    </g>
   </g>
   <g id="PathCollection_86">
    <g clip-path="url(#pd44105f9dc)">
     <use style="fill:#c49c94;stroke:#c49c94;" x="324.444385" xlink:href="#m402532cdcc" y="124.45167"/>
    </g>
   </g>
   <g id="PathCollection_87">
    <g clip-path="url(#pd44105f9dc)">
     <use style="fill:#c49c94;stroke:#c49c94;" x="331.406952" xlink:href="#m402532cdcc" y="120.788774"/>
    </g>
   </g>
   <g id="PathCollection_88">
    <g clip-path="url(#pd44105f9dc)">
     <use style="fill:#c49c94;stroke:#c49c94;" x="338.369519" xlink:href="#m402532cdcc" y="117.394593"/>
    </g>
   </g>
   <g id="PathCollection_89">
    <g clip-path="url(#pd44105f9dc)">
     <use style="fill:#c49c94;stroke:#c49c94;" x="345.332086" xlink:href="#m402532cdcc" y="114.359213"/>
    </g>
   </g>
   <g id="PathCollection_90">
    <g clip-path="url(#pd44105f9dc)">
     <use style="fill:#c49c94;stroke:#c49c94;" x="352.294652" xlink:href="#m402532cdcc" y="111.767177"/>
    </g>
   </g>
   <g id="PathCollection_91">
    <g clip-path="url(#pd44105f9dc)">
     <use style="fill:#c49c94;stroke:#c49c94;" x="359.257219" xlink:href="#m402532cdcc" y="109.69224"/>
    </g>
   </g>
   <g id="PathCollection_92">
    <g clip-path="url(#pd44105f9dc)">
     <use style="fill:#c49c94;stroke:#c49c94;" x="366.219786" xlink:href="#m402532cdcc" y="108.191291"/>
    </g>
   </g>
   <g id="PathCollection_93">
    <g clip-path="url(#pd44105f9dc)">
     <use style="fill:#c49c94;stroke:#c49c94;" x="373.182353" xlink:href="#m402532cdcc" y="107.297408"/>
    </g>
   </g>
   <g id="PathCollection_94">
    <g clip-path="url(#pd44105f9dc)">
     <use style="fill:#c49c94;stroke:#c49c94;" x="380.14492" xlink:href="#m402532cdcc" y="107.011987"/>
    </g>
   </g>
   <g id="PathCollection_95">
    <g clip-path="url(#pd44105f9dc)">
     <use style="fill:#c49c94;stroke:#c49c94;" x="387.107487" xlink:href="#m402532cdcc" y="107.295909"/>
    </g>
   </g>
   <g id="PathCollection_96">
    <g clip-path="url(#pd44105f9dc)">
     <use style="fill:#c49c94;stroke:#c49c94;" x="394.070053" xlink:href="#m402532cdcc" y="108.05969"/>
    </g>
   </g>
   <g id="PathCollection_97">
    <g clip-path="url(#pd44105f9dc)">
     <use style="fill:#c49c94;stroke:#c49c94;" x="401.03262" xlink:href="#m402532cdcc" y="109.152578"/>
    </g>
   </g>
   <g id="PathCollection_98">
    <g clip-path="url(#pd44105f9dc)">
     <use style="fill:#c49c94;stroke:#c49c94;" x="407.995187" xlink:href="#m402532cdcc" y="110.350539"/>
    </g>
   </g>
   <g id="PathCollection_99">
    <g clip-path="url(#pd44105f9dc)">
     <use style="fill:#c49c94;stroke:#c49c94;" x="414.957754" xlink:href="#m402532cdcc" y="111.343101"/>
    </g>
   </g>
   <g id="PathCollection_100">
    <g clip-path="url(#pd44105f9dc)">
     <use style="fill:#c49c94;stroke:#c49c94;" x="421.920321" xlink:href="#m402532cdcc" y="111.718998"/>
    </g>
   </g>
   <g id="PathCollection_101">
    <g clip-path="url(#pd44105f9dc)">
     <use style="fill:#c49c94;stroke:#c49c94;" x="428.882888" xlink:href="#m402532cdcc" y="110.950565"/>
    </g>
   </g>
   <g id="PathCollection_102">
    <g clip-path="url(#pd44105f9dc)">
     <use style="fill:#c49c94;stroke:#c49c94;" x="435.845455" xlink:href="#m402532cdcc" y="108.376858"/>
    </g>
   </g>
   <g id="matplotlib.axis_1"/>
   <g id="matplotlib.axis_2"/>
   <g id="line2d_1">
    <path clip-path="url(#pd44105f9dc)" d="M 80.754545 189 
L 124.444652 188.889071 
L 130.333824 188.569302 
L 136.484091 188.009634 
L 143.011497 187.189905 
L 150.032086 186.08102 
L 157.632888 184.651722 
L 165.958957 182.855552 
L 175.213369 180.626835 
L 185.744251 177.856036 
L 198.18984 174.343493 
L 214.145722 169.59562 
L 243.939706 160.443214 
L 270.426471 152.415041 
L 289.718583 146.80003 
L 307.821257 141.761241 
L 324.096257 137.45935 
L 339.500936 133.616187 
L 354.441444 130.116988 
L 369.178877 126.893208 
L 383.858289 123.909574 
L 398.595722 121.141185 
L 413.478209 118.57214 
L 428.56377 116.193762 
L 435.845455 115.124621 
L 435.845455 115.124621 
" style="fill:none;stroke:#c49c94;stroke-dasharray:11.1,4.8;stroke-dashoffset:0;stroke-width:3;"/>
   </g>
   <g id="line2d_2">
    <path clip-path="url(#pd44105f9dc)" d="M 80.754545 189 
L 123.92246 188.889221 
L 129.34746 188.570122 
L 134.917513 188.017339 
L 140.806684 187.20735 
L 147.072995 186.119157 
L 153.803476 184.722322 
L 161.114171 182.973926 
L 169.092112 180.833432 
L 177.969385 178.216702 
L 188.065107 175.002807 
L 199.988503 170.965305 
L 215.248128 165.549526 
L 243.968717 155.063165 
L 268.772861 146.120517 
L 286.875535 139.830049 
L 303.962834 134.129676 
L 319.338503 129.231129 
L 333.785829 124.86031 
L 347.710963 120.878482 
L 361.375 117.201684 
L 374.922995 113.785956 
L 388.441979 110.606383 
L 402.047995 107.634929 
L 415.799064 104.860221 
L 429.724198 102.277861 
L 435.845455 101.21311 
L 435.845455 101.21311 
" style="fill:none;stroke:#c49c94;stroke-linecap:square;stroke-width:3;"/>
   </g>
   <g id="patch_3">
    <path d="M 63 189 
L 63 25.92 
" style="fill:none;stroke:#000000;stroke-linecap:square;stroke-linejoin:miter;stroke-width:0.8;"/>
   </g>
   <g id="patch_4">
    <path d="M 453.6 189 
L 453.6 25.92 
" style="fill:none;stroke:#000000;stroke-linecap:square;stroke-linejoin:miter;stroke-width:0.8;"/>
   </g>
   <g id="patch_5">
    <path d="M 63 189 
L 453.6 189 
" style="fill:none;stroke:#000000;stroke-linecap:square;stroke-linejoin:miter;stroke-width:0.8;"/>
   </g>
   <g id="patch_6">
    <path d="M 63 25.92 
L 453.6 25.92 
" style="fill:none;stroke:#000000;stroke-linecap:square;stroke-linejoin:miter;stroke-width:0.8;"/>
   </g>
  </g>
 </g>
 <defs>
  <clipPath id="pd44105f9dc">
   <rect height="163.08" width="390.6" x="63" y="25.92"/>
  </clipPath>
 </defs>
</svg>
