<?xml version="1.0" encoding="utf-8" standalone="no"?>
<!DOCTYPE svg PUBLIC "-//W3C//DTD SVG 1.1//EN"
  "http://www.w3.org/Graphics/SVG/1.1/DTD/svg11.dtd">
<!-- Created with matplotlib (https://matplotlib.org/) -->
<svg height="216pt" version="1.1" viewBox="0 0 504 216" width="504pt" xmlns="http://www.w3.org/2000/svg" xmlns:xlink="http://www.w3.org/1999/xlink">
 <metadata>
  <rdf:RDF xmlns:cc="http://creativecommons.org/ns#" xmlns:dc="http://purl.org/dc/elements/1.1/" xmlns:rdf="http://www.w3.org/1999/02/22-rdf-syntax-ns#">
   <cc:Work>
    <dc:type rdf:resource="http://purl.org/dc/dcmitype/StillImage"/>
    <dc:date>2024-12-18T21:19:21.174498</dc:date>
    <dc:format>image/svg+xml</dc:format>
    <dc:creator>
     <cc:Agent>
      <dc:title>Matplotlib v3.3.2, https://matplotlib.org/</dc:title>
     </cc:Agent>
    </dc:creator>
   </cc:Work>
  </rdf:RDF>
 </metadata>
 <defs>
  <style type="text/css">*{stroke-linecap:butt;stroke-linejoin:round;}</style>
 </defs>
 <g id="figure_1">
  <g id="patch_1">
   <path d="M 0 216 
L 504 216 
L 504 0 
L 0 0 
z
" style="fill:none;"/>
  </g>
  <g id="axes_1">
   <g id="patch_2">
    <path d="M 63 189 
L 453.6 189 
L 453.6 25.92 
L 63 25.92 
z
" style="fill:#ffffff;"/>
   </g>
   <g id="PathCollection_1">
    <path clip-path="url(#p8ec9ff8165)" d="M 87.717112 191.770115 
C 88.654747 191.770115 89.554105 191.397589 90.217112 190.734581 
C 90.88012 190.071573 91.252646 189.172216 91.252646 188.234581 
C 91.252646 187.296947 90.88012 186.397589 90.217112 185.734581 
C 89.554105 185.071573 88.654747 184.699047 87.717112 184.699047 
C 86.779478 184.699047 85.88012 185.071573 85.217112 185.734581 
C 84.554105 186.397589 84.181578 187.296947 84.181578 188.234581 
C 84.181578 189.172216 84.554105 190.071573 85.217112 190.734581 
C 85.88012 191.397589 86.779478 191.770115 87.717112 191.770115 
z
" style="fill:none;stroke:#17becf;"/>
   </g>
   <g id="PathCollection_2">
    <path clip-path="url(#p8ec9ff8165)" d="M 94.679679 191.361659 
C 95.617314 191.361659 96.516671 190.989132 97.179679 190.326125 
C 97.842687 189.663117 98.215213 188.763759 98.215213 187.826125 
C 98.215213 186.88849 97.842687 185.989132 97.179679 185.326125 
C 96.516671 184.663117 95.617314 184.290591 94.679679 184.290591 
C 93.742045 184.290591 92.842687 184.663117 92.179679 185.326125 
C 91.516671 185.989132 91.144145 186.88849 91.144145 187.826125 
C 91.144145 188.763759 91.516671 189.663117 92.179679 190.326125 
C 92.842687 190.989132 93.742045 191.361659 94.679679 191.361659 
z
" style="fill:none;stroke:#17becf;"/>
   </g>
   <g id="PathCollection_3">
    <path clip-path="url(#p8ec9ff8165)" d="M 101.642246 191.111155 
C 102.579881 191.111155 103.479238 190.738629 104.142246 190.075621 
C 104.805254 189.412614 105.17778 188.513256 105.17778 187.575621 
C 105.17778 186.637987 104.805254 185.738629 104.142246 185.075621 
C 103.479238 184.412614 102.579881 184.040088 101.642246 184.040088 
C 100.704611 184.040088 99.805254 184.412614 99.142246 185.075621 
C 98.479238 185.738629 98.106712 186.637987 98.106712 187.575621 
C 98.106712 188.513256 98.479238 189.412614 99.142246 190.075621 
C 99.805254 190.738629 100.704611 191.111155 101.642246 191.111155 
z
" style="fill:none;stroke:#17becf;"/>
   </g>
   <g id="PathCollection_4">
    <path clip-path="url(#p8ec9ff8165)" d="M 108.604813 190.873935 
C 109.542447 190.873935 110.441805 190.501409 111.104813 189.838401 
C 111.767821 189.175394 112.140347 188.276036 112.140347 187.338401 
C 112.140347 186.400767 111.767821 185.501409 111.104813 184.838401 
C 110.441805 184.175394 109.542447 183.802867 108.604813 183.802867 
C 107.667178 183.802867 106.767821 184.175394 106.104813 184.838401 
C 105.441805 185.501409 105.069279 186.400767 105.069279 187.338401 
C 105.069279 188.276036 105.441805 189.175394 106.104813 189.838401 
C 106.767821 190.501409 107.667178 190.873935 108.604813 190.873935 
z
" style="fill:none;stroke:#17becf;"/>
   </g>
   <g id="PathCollection_5">
    <path clip-path="url(#p8ec9ff8165)" d="M 115.56738 190.546779 
C 116.505014 190.546779 117.404372 190.174253 118.06738 189.511245 
C 118.730387 188.848238 119.102914 187.94888 119.102914 187.011245 
C 119.102914 186.073611 118.730387 185.174253 118.06738 184.511245 
C 117.404372 183.848238 116.505014 183.475711 115.56738 183.475711 
C 114.629745 183.475711 113.730387 183.848238 113.06738 184.511245 
C 112.404372 185.174253 112.031846 186.073611 112.031846 187.011245 
C 112.031846 187.94888 112.404372 188.848238 113.06738 189.511245 
C 113.730387 190.174253 114.629745 190.546779 115.56738 190.546779 
z
" style="fill:none;stroke:#17becf;"/>
   </g>
   <g id="PathCollection_6">
    <path clip-path="url(#p8ec9ff8165)" d="M 122.529947 190.060529 
C 123.467581 190.060529 124.366939 189.688003 125.029947 189.024996 
C 125.692954 188.361988 126.06548 187.46263 126.06548 186.524996 
C 126.06548 185.587361 125.692954 184.688003 125.029947 184.024996 
C 124.366939 183.361988 123.467581 182.989462 122.529947 182.989462 
C 121.592312 182.989462 120.692954 183.361988 120.029947 184.024996 
C 119.366939 184.688003 118.994413 185.587361 118.994413 186.524996 
C 118.994413 187.46263 119.366939 188.361988 120.029947 189.024996 
C 120.692954 189.688003 121.592312 190.060529 122.529947 190.060529 
z
" style="fill:none;stroke:#17becf;"/>
   </g>
   <g id="PathCollection_7">
    <path clip-path="url(#p8ec9ff8165)" d="M 129.492513 189.373505 
C 130.430148 189.373505 131.329506 189.000979 131.992513 188.337971 
C 132.655521 187.674963 133.028047 186.775606 133.028047 185.837971 
C 133.028047 184.900337 132.655521 184.000979 131.992513 183.337971 
C 131.329506 182.674963 130.430148 182.302437 129.492513 182.302437 
C 128.554879 182.302437 127.655521 182.674963 126.992513 183.337971 
C 126.329506 184.000979 125.956979 184.900337 125.956979 185.837971 
C 125.956979 186.775606 126.329506 187.674963 126.992513 188.337971 
C 127.655521 189.000979 128.554879 189.373505 129.492513 189.373505 
z
" style="fill:none;stroke:#17becf;"/>
   </g>
   <g id="PathCollection_8">
    <path clip-path="url(#p8ec9ff8165)" d="M 136.45508 188.465679 
C 137.392715 188.465679 138.292072 188.093153 138.95508 187.430145 
C 139.618088 186.767137 139.990614 185.867779 139.990614 184.930145 
C 139.990614 183.99251 139.618088 183.093153 138.95508 182.430145 
C 138.292072 181.767137 137.392715 181.394611 136.45508 181.394611 
C 135.517446 181.394611 134.618088 181.767137 133.95508 182.430145 
C 133.292072 183.093153 132.919546 183.99251 132.919546 184.930145 
C 132.919546 185.867779 133.292072 186.767137 133.95508 187.430145 
C 134.618088 188.093153 135.517446 188.465679 136.45508 188.465679 
z
" style="fill:none;stroke:#17becf;"/>
   </g>
   <g id="PathCollection_9">
    <path clip-path="url(#p8ec9ff8165)" d="M 143.417647 187.333575 
C 144.355282 187.333575 145.254639 186.961049 145.917647 186.298041 
C 146.580655 185.635033 146.953181 184.735675 146.953181 183.798041 
C 146.953181 182.860406 146.580655 181.961049 145.917647 181.298041 
C 145.254639 180.635033 144.355282 180.262507 143.417647 180.262507 
C 142.480013 180.262507 141.580655 180.635033 140.917647 181.298041 
C 140.254639 181.961049 139.882113 182.860406 139.882113 183.798041 
C 139.882113 184.735675 140.254639 185.635033 140.917647 186.298041 
C 141.580655 186.961049 142.480013 187.333575 143.417647 187.333575 
z
" style="fill:none;stroke:#17becf;"/>
   </g>
   <g id="PathCollection_10">
    <path clip-path="url(#p8ec9ff8165)" d="M 150.380214 185.98585 
C 151.317848 185.98585 152.217206 185.613324 152.880214 184.950316 
C 153.543222 184.287309 153.915748 183.387951 153.915748 182.450316 
C 153.915748 181.512682 153.543222 180.613324 152.880214 179.950316 
C 152.217206 179.287309 151.317848 178.914783 150.380214 178.914783 
C 149.442579 178.914783 148.543222 179.287309 147.880214 179.950316 
C 147.217206 180.613324 146.84468 181.512682 146.84468 182.450316 
C 146.84468 183.387951 147.217206 184.287309 147.880214 184.950316 
C 148.543222 185.613324 149.442579 185.98585 150.380214 185.98585 
z
" style="fill:none;stroke:#17becf;"/>
   </g>
   <g id="PathCollection_11">
    <path clip-path="url(#p8ec9ff8165)" d="M 157.342781 184.439514 
C 158.280415 184.439514 159.179773 184.066988 159.842781 183.40398 
C 160.505788 182.740973 160.878315 181.841615 160.878315 180.90398 
C 160.878315 179.966346 160.505788 179.066988 159.842781 178.40398 
C 159.179773 177.740973 158.280415 177.368447 157.342781 177.368447 
C 156.405146 177.368447 155.505788 177.740973 154.842781 178.40398 
C 154.179773 179.066988 153.807247 179.966346 153.807247 180.90398 
C 153.807247 181.841615 154.179773 182.740973 154.842781 183.40398 
C 155.505788 184.066988 156.405146 184.439514 157.342781 184.439514 
z
" style="fill:none;stroke:#17becf;"/>
   </g>
   <g id="PathCollection_12">
    <path clip-path="url(#p8ec9ff8165)" d="M 164.305348 182.71675 
C 165.242982 182.71675 166.14234 182.344224 166.805348 181.681216 
C 167.468355 181.018208 167.840881 180.11885 167.840881 179.181216 
C 167.840881 178.243581 167.468355 177.344224 166.805348 176.681216 
C 166.14234 176.018208 165.242982 175.645682 164.305348 175.645682 
C 163.367713 175.645682 162.468355 176.018208 161.805348 176.681216 
C 161.14234 177.344224 160.769814 178.243581 160.769814 179.181216 
C 160.769814 180.11885 161.14234 181.018208 161.805348 181.681216 
C 162.468355 182.344224 163.367713 182.71675 164.305348 182.71675 
z
" style="fill:none;stroke:#17becf;"/>
   </g>
   <g id="PathCollection_13">
    <path clip-path="url(#p8ec9ff8165)" d="M 171.267914 180.842293 
C 172.205549 180.842293 173.104907 180.469767 173.767914 179.806759 
C 174.430922 179.143751 174.803448 178.244393 174.803448 177.306759 
C 174.803448 176.369124 174.430922 175.469767 173.767914 174.806759 
C 173.104907 174.143751 172.205549 173.771225 171.267914 173.771225 
C 170.33028 173.771225 169.430922 174.143751 168.767914 174.806759 
C 168.104907 175.469767 167.732381 176.369124 167.732381 177.306759 
C 167.732381 178.244393 168.104907 179.143751 168.767914 179.806759 
C 169.430922 180.469767 170.33028 180.842293 171.267914 180.842293 
z
" style="fill:none;stroke:#17becf;"/>
   </g>
   <g id="PathCollection_14">
    <path clip-path="url(#p8ec9ff8165)" d="M 178.230481 178.841333 
C 179.168116 178.841333 180.067474 178.468807 180.730481 177.805799 
C 181.393489 177.142791 181.766015 176.243433 181.766015 175.305799 
C 181.766015 174.368164 181.393489 173.468807 180.730481 172.805799 
C 180.067474 172.142791 179.168116 171.770265 178.230481 171.770265 
C 177.292847 171.770265 176.393489 172.142791 175.730481 172.805799 
C 175.067474 173.468807 174.694947 174.368164 174.694947 175.305799 
C 174.694947 176.243433 175.067474 177.142791 175.730481 177.805799 
C 176.393489 178.468807 177.292847 178.841333 178.230481 178.841333 
z
" style="fill:none;stroke:#17becf;"/>
   </g>
   <g id="PathCollection_15">
    <path clip-path="url(#p8ec9ff8165)" d="M 185.193048 176.73789 
C 186.130683 176.73789 187.03004 176.365364 187.693048 175.702356 
C 188.356056 175.039349 188.728582 174.139991 188.728582 173.202356 
C 188.728582 172.264722 188.356056 171.365364 187.693048 170.702356 
C 187.03004 170.039349 186.130683 169.666822 185.193048 169.666822 
C 184.255414 169.666822 183.356056 170.039349 182.693048 170.702356 
C 182.03004 171.365364 181.657514 172.264722 181.657514 173.202356 
C 181.657514 174.139991 182.03004 175.039349 182.693048 175.702356 
C 183.356056 176.365364 184.255414 176.73789 185.193048 176.73789 
z
" style="fill:none;stroke:#17becf;"/>
   </g>
   <g id="PathCollection_16">
    <path clip-path="url(#p8ec9ff8165)" d="M 192.155615 174.55363 
C 193.09325 174.55363 193.992607 174.181104 194.655615 173.518096 
C 195.318623 172.855089 195.691149 171.955731 195.691149 171.018096 
C 195.691149 170.080462 195.318623 169.181104 194.655615 168.518096 
C 193.992607 167.855089 193.09325 167.482562 192.155615 167.482562 
C 191.21798 167.482562 190.318623 167.855089 189.655615 168.518096 
C 188.992607 169.181104 188.620081 170.080462 188.620081 171.018096 
C 188.620081 171.955731 188.992607 172.855089 189.655615 173.518096 
C 190.318623 174.181104 191.21798 174.55363 192.155615 174.55363 
z
" style="fill:none;stroke:#17becf;"/>
   </g>
   <g id="PathCollection_17">
    <path clip-path="url(#p8ec9ff8165)" d="M 199.118182 172.307079 
C 200.055816 172.307079 200.955174 171.934553 201.618182 171.271545 
C 202.28119 170.608537 202.653716 169.70918 202.653716 168.771545 
C 202.653716 167.833911 202.28119 166.934553 201.618182 166.271545 
C 200.955174 165.608537 200.055816 165.236011 199.118182 165.236011 
C 198.180547 165.236011 197.28119 165.608537 196.618182 166.271545 
C 195.955174 166.934553 195.582648 167.833911 195.582648 168.771545 
C 195.582648 169.70918 195.955174 170.608537 196.618182 171.271545 
C 197.28119 171.934553 198.180547 172.307079 199.118182 172.307079 
z
" style="fill:none;stroke:#17becf;"/>
   </g>
   <g id="PathCollection_18">
    <path clip-path="url(#p8ec9ff8165)" d="M 206.080749 170.01319 
C 207.018383 170.01319 207.917741 169.640664 208.580749 168.977657 
C 209.243756 168.314649 209.616283 167.415291 209.616283 166.477657 
C 209.616283 165.540022 209.243756 164.640664 208.580749 163.977657 
C 207.917741 163.314649 207.018383 162.942123 206.080749 162.942123 
C 205.143114 162.942123 204.243756 163.314649 203.580749 163.977657 
C 202.917741 164.640664 202.545215 165.540022 202.545215 166.477657 
C 202.545215 167.415291 202.917741 168.314649 203.580749 168.977657 
C 204.243756 169.640664 205.143114 170.01319 206.080749 170.01319 
z
" style="fill:none;stroke:#17becf;"/>
   </g>
   <g id="PathCollection_19">
    <path clip-path="url(#p8ec9ff8165)" d="M 213.043316 167.683235 
C 213.98095 167.683235 214.880308 167.310709 215.543316 166.647701 
C 216.206323 165.984693 216.578849 165.085336 216.578849 164.147701 
C 216.578849 163.210066 216.206323 162.310709 215.543316 161.647701 
C 214.880308 160.984693 213.98095 160.612167 213.043316 160.612167 
C 212.105681 160.612167 211.206323 160.984693 210.543316 161.647701 
C 209.880308 162.310709 209.507782 163.210066 209.507782 164.147701 
C 209.507782 165.085336 209.880308 165.984693 210.543316 166.647701 
C 211.206323 167.310709 212.105681 167.683235 213.043316 167.683235 
z
" style="fill:none;stroke:#17becf;"/>
   </g>
   <g id="PathCollection_20">
    <path clip-path="url(#p8ec9ff8165)" d="M 220.005882 165.324958 
C 220.943517 165.324958 221.842875 164.952432 222.505882 164.289425 
C 223.16889 163.626417 223.541416 162.727059 223.541416 161.789425 
C 223.541416 160.85179 223.16889 159.952432 222.505882 159.289425 
C 221.842875 158.626417 220.943517 158.253891 220.005882 158.253891 
C 219.068248 158.253891 218.16889 158.626417 217.505882 159.289425 
C 216.842875 159.952432 216.470348 160.85179 216.470348 161.789425 
C 216.470348 162.727059 216.842875 163.626417 217.505882 164.289425 
C 218.16889 164.952432 219.068248 165.324958 220.005882 165.324958 
z
" style="fill:none;stroke:#17becf;"/>
   </g>
   <g id="PathCollection_21">
    <path clip-path="url(#p8ec9ff8165)" d="M 226.968449 162.942982 
C 227.906084 162.942982 228.805441 162.570456 229.468449 161.907448 
C 230.131457 161.24444 230.503983 160.345082 230.503983 159.407448 
C 230.503983 158.469813 230.131457 157.570456 229.468449 156.907448 
C 228.805441 156.24444 227.906084 155.871914 226.968449 155.871914 
C 226.030815 155.871914 225.131457 156.24444 224.468449 156.907448 
C 223.805441 157.570456 223.432915 158.469813 223.432915 159.407448 
C 223.432915 160.345082 223.805441 161.24444 224.468449 161.907448 
C 225.131457 162.570456 226.030815 162.942982 226.968449 162.942982 
z
" style="fill:none;stroke:#17becf;"/>
   </g>
   <g id="PathCollection_22">
    <path clip-path="url(#p8ec9ff8165)" d="M 233.931016 160.53939 
C 234.868651 160.53939 235.768008 160.166864 236.431016 159.503856 
C 237.094024 158.840848 237.46655 157.941491 237.46655 157.003856 
C 237.46655 156.066221 237.094024 155.166864 236.431016 154.503856 
C 235.768008 153.840848 234.868651 153.468322 233.931016 153.468322 
C 232.993381 153.468322 232.094024 153.840848 231.431016 154.503856 
C 230.768008 155.166864 230.395482 156.066221 230.395482 157.003856 
C 230.395482 157.941491 230.768008 158.840848 231.431016 159.503856 
C 232.094024 160.166864 232.993381 160.53939 233.931016 160.53939 
z
" style="fill:none;stroke:#17becf;"/>
   </g>
   <g id="PathCollection_23">
    <path clip-path="url(#p8ec9ff8165)" d="M 240.893583 158.114481 
C 241.831217 158.114481 242.730575 157.741954 243.393583 157.078947 
C 244.056591 156.415939 244.429117 155.516581 244.429117 154.578947 
C 244.429117 153.641312 244.056591 152.741954 243.393583 152.078947 
C 242.730575 151.415939 241.831217 151.043413 240.893583 151.043413 
C 239.955948 151.043413 239.056591 151.415939 238.393583 152.078947 
C 237.730575 152.741954 237.358049 153.641312 237.358049 154.578947 
C 237.358049 155.516581 237.730575 156.415939 238.393583 157.078947 
C 239.056591 157.741954 239.955948 158.114481 240.893583 158.114481 
z
" style="fill:none;stroke:#17becf;"/>
   </g>
   <g id="PathCollection_24">
    <path clip-path="url(#p8ec9ff8165)" d="M 247.85615 155.66762 
C 248.793784 155.66762 249.693142 155.295094 250.35615 154.632086 
C 251.019157 153.969079 251.391684 153.069721 251.391684 152.132086 
C 251.391684 151.194452 251.019157 150.295094 250.35615 149.632086 
C 249.693142 148.969079 248.793784 148.596552 247.85615 148.596552 
C 246.918515 148.596552 246.019157 148.969079 245.35615 149.632086 
C 244.693142 150.295094 244.320616 151.194452 244.320616 152.132086 
C 244.320616 153.069721 244.693142 153.969079 245.35615 154.632086 
C 246.019157 155.295094 246.918515 155.66762 247.85615 155.66762 
z
" style="fill:none;stroke:#17becf;"/>
   </g>
   <g id="PathCollection_25">
    <path clip-path="url(#p8ec9ff8165)" d="M 254.818717 153.198178 
C 255.756351 153.198178 256.655709 152.825652 257.318717 152.162644 
C 257.981724 151.499636 258.35425 150.600279 258.35425 149.662644 
C 258.35425 148.72501 257.981724 147.825652 257.318717 147.162644 
C 256.655709 146.499636 255.756351 146.12711 254.818717 146.12711 
C 253.881082 146.12711 252.981724 146.499636 252.318717 147.162644 
C 251.655709 147.825652 251.283183 148.72501 251.283183 149.662644 
C 251.283183 150.600279 251.655709 151.499636 252.318717 152.162644 
C 252.981724 152.825652 253.881082 153.198178 254.818717 153.198178 
z
" style="fill:none;stroke:#17becf;"/>
   </g>
   <g id="PathCollection_26">
    <path clip-path="url(#p8ec9ff8165)" d="M 261.781283 150.70649 
C 262.718918 150.70649 263.618276 150.333964 264.281283 149.670956 
C 264.944291 149.007948 265.316817 148.10859 265.316817 147.170956 
C 265.316817 146.233321 264.944291 145.333964 264.281283 144.670956 
C 263.618276 144.007948 262.718918 143.635422 261.781283 143.635422 
C 260.843649 143.635422 259.944291 144.007948 259.281283 144.670956 
C 258.618276 145.333964 258.24575 146.233321 258.24575 147.170956 
C 258.24575 148.10859 258.618276 149.007948 259.281283 149.670956 
C 259.944291 150.333964 260.843649 150.70649 261.781283 150.70649 
z
" style="fill:none;stroke:#17becf;"/>
   </g>
   <g id="PathCollection_27">
    <path clip-path="url(#p8ec9ff8165)" d="M 268.74385 148.194814 
C 269.681485 148.194814 270.580843 147.822288 271.24385 147.15928 
C 271.906858 146.496272 272.279384 145.596915 272.279384 144.65928 
C 272.279384 143.721646 271.906858 142.822288 271.24385 142.15928 
C 270.580843 141.496272 269.681485 141.123746 268.74385 141.123746 
C 267.806216 141.123746 266.906858 141.496272 266.24385 142.15928 
C 265.580843 142.822288 265.208316 143.721646 265.208316 144.65928 
C 265.208316 145.596915 265.580843 146.496272 266.24385 147.15928 
C 266.906858 147.822288 267.806216 148.194814 268.74385 148.194814 
z
" style="fill:none;stroke:#17becf;"/>
   </g>
   <g id="PathCollection_28">
    <path clip-path="url(#p8ec9ff8165)" d="M 275.706417 145.66824 
C 276.644052 145.66824 277.543409 145.295714 278.206417 144.632706 
C 278.869425 143.969699 279.241951 143.070341 279.241951 142.132706 
C 279.241951 141.195072 278.869425 140.295714 278.206417 139.632706 
C 277.543409 138.969699 276.644052 138.597172 275.706417 138.597172 
C 274.768783 138.597172 273.869425 138.969699 273.206417 139.632706 
C 272.543409 140.295714 272.170883 141.195072 272.170883 142.132706 
C 272.170883 143.070341 272.543409 143.969699 273.206417 144.632706 
C 273.869425 145.295714 274.768783 145.66824 275.706417 145.66824 
z
" style="fill:none;stroke:#17becf;"/>
   </g>
   <g id="PathCollection_29">
    <path clip-path="url(#p8ec9ff8165)" d="M 282.668984 143.135507 
C 283.606619 143.135507 284.505976 142.76298 285.168984 142.099973 
C 285.831992 141.436965 286.204518 140.537607 286.204518 139.599973 
C 286.204518 138.662338 285.831992 137.76298 285.168984 137.099973 
C 284.505976 136.436965 283.606619 136.064439 282.668984 136.064439 
C 281.731349 136.064439 280.831992 136.436965 280.168984 137.099973 
C 279.505976 137.76298 279.13345 138.662338 279.13345 139.599973 
C 279.13345 140.537607 279.505976 141.436965 280.168984 142.099973 
C 280.831992 142.76298 281.731349 143.135507 282.668984 143.135507 
z
" style="fill:none;stroke:#17becf;"/>
   </g>
   <g id="PathCollection_30">
    <path clip-path="url(#p8ec9ff8165)" d="M 289.631551 140.609689 
C 290.569185 140.609689 291.468543 140.237163 292.131551 139.574155 
C 292.794559 138.911148 293.167085 138.01179 293.167085 137.074155 
C 293.167085 136.136521 292.794559 135.237163 292.131551 134.574155 
C 291.468543 133.911148 290.569185 133.538622 289.631551 133.538622 
C 288.693916 133.538622 287.794559 133.911148 287.131551 134.574155 
C 286.468543 135.237163 286.096017 136.136521 286.096017 137.074155 
C 286.096017 138.01179 286.468543 138.911148 287.131551 139.574155 
C 287.794559 140.237163 288.693916 140.609689 289.631551 140.609689 
z
" style="fill:none;stroke:#17becf;"/>
   </g>
   <g id="PathCollection_31">
    <path clip-path="url(#p8ec9ff8165)" d="M 296.594118 138.10872 
C 297.531752 138.10872 298.43111 137.736194 299.094118 137.073186 
C 299.757125 136.410178 300.129652 135.510821 300.129652 134.573186 
C 300.129652 133.635551 299.757125 132.736194 299.094118 132.073186 
C 298.43111 131.410178 297.531752 131.037652 296.594118 131.037652 
C 295.656483 131.037652 294.757125 131.410178 294.094118 132.073186 
C 293.43111 132.736194 293.058584 133.635551 293.058584 134.573186 
C 293.058584 135.510821 293.43111 136.410178 294.094118 137.073186 
C 294.757125 137.736194 295.656483 138.10872 296.594118 138.10872 
z
" style="fill:none;stroke:#17becf;"/>
   </g>
   <g id="PathCollection_32">
    <path clip-path="url(#p8ec9ff8165)" d="M 303.556684 135.655694 
C 304.494319 135.655694 305.393677 135.283168 306.056684 134.62016 
C 306.719692 133.957152 307.092218 133.057794 307.092218 132.12016 
C 307.092218 131.182525 306.719692 130.283168 306.056684 129.62016 
C 305.393677 128.957152 304.494319 128.584626 303.556684 128.584626 
C 302.61905 128.584626 301.719692 128.957152 301.056684 129.62016 
C 300.393677 130.283168 300.021151 131.182525 300.021151 132.12016 
C 300.021151 133.057794 300.393677 133.957152 301.056684 134.62016 
C 301.719692 135.283168 302.61905 135.655694 303.556684 135.655694 
z
" style="fill:none;stroke:#17becf;"/>
   </g>
   <g id="PathCollection_33">
    <path clip-path="url(#p8ec9ff8165)" d="M 310.519251 133.278924 
C 311.456886 133.278924 312.356244 132.906398 313.019251 132.24339 
C 313.682259 131.580383 314.054785 130.681025 314.054785 129.74339 
C 314.054785 128.805756 313.682259 127.906398 313.019251 127.24339 
C 312.356244 126.580383 311.456886 126.207857 310.519251 126.207857 
C 309.581617 126.207857 308.682259 126.580383 308.019251 127.24339 
C 307.356244 127.906398 306.983717 128.805756 306.983717 129.74339 
C 306.983717 130.681025 307.356244 131.580383 308.019251 132.24339 
C 308.682259 132.906398 309.581617 133.278924 310.519251 133.278924 
z
" style="fill:none;stroke:#17becf;"/>
   </g>
   <g id="PathCollection_34">
    <path clip-path="url(#p8ec9ff8165)" d="M 317.481818 131.01171 
C 318.419453 131.01171 319.31881 130.639184 319.981818 129.976176 
C 320.644826 129.313168 321.017352 128.413811 321.017352 127.476176 
C 321.017352 126.538541 320.644826 125.639184 319.981818 124.976176 
C 319.31881 124.313168 318.419453 123.940642 317.481818 123.940642 
C 316.544184 123.940642 315.644826 124.313168 314.981818 124.976176 
C 314.31881 125.639184 313.946284 126.538541 313.946284 127.476176 
C 313.946284 128.413811 314.31881 129.313168 314.981818 129.976176 
C 315.644826 130.639184 316.544184 131.01171 317.481818 131.01171 
z
" style="fill:none;stroke:#17becf;"/>
   </g>
   <g id="PathCollection_35">
    <path clip-path="url(#p8ec9ff8165)" d="M 324.444385 128.891761 
C 325.38202 128.891761 326.281377 128.519235 326.944385 127.856227 
C 327.607393 127.19322 327.979919 126.293862 327.979919 125.356227 
C 327.979919 124.418593 327.607393 123.519235 326.944385 122.856227 
C 326.281377 122.19322 325.38202 121.820693 324.444385 121.820693 
C 323.50675 121.820693 322.607393 122.19322 321.944385 122.856227 
C 321.281377 123.519235 320.908851 124.418593 320.908851 125.356227 
C 320.908851 126.293862 321.281377 127.19322 321.944385 127.856227 
C 322.607393 128.519235 323.50675 128.891761 324.444385 128.891761 
z
" style="fill:none;stroke:#17becf;"/>
   </g>
   <g id="PathCollection_36">
    <path clip-path="url(#p8ec9ff8165)" d="M 331.406952 126.960263 
C 332.344586 126.960263 333.243944 126.587737 333.906952 125.924729 
C 334.56996 125.261722 334.942486 124.362364 334.942486 123.424729 
C 334.942486 122.487095 334.56996 121.587737 333.906952 120.924729 
C 333.243944 120.261722 332.344586 119.889195 331.406952 119.889195 
C 330.469317 119.889195 329.56996 120.261722 328.906952 120.924729 
C 328.243944 121.587737 327.871418 122.487095 327.871418 123.424729 
C 327.871418 124.362364 328.243944 125.261722 328.906952 125.924729 
C 329.56996 126.587737 330.469317 126.960263 331.406952 126.960263 
z
" style="fill:none;stroke:#17becf;"/>
   </g>
   <g id="PathCollection_37">
    <path clip-path="url(#p8ec9ff8165)" d="M 338.369519 125.260517 
C 339.307153 125.260517 340.206511 124.887991 340.869519 124.224983 
C 341.532526 123.561976 341.905053 122.662618 341.905053 121.724983 
C 341.905053 120.787349 341.532526 119.887991 340.869519 119.224983 
C 340.206511 118.561976 339.307153 118.189449 338.369519 118.189449 
C 337.431884 118.189449 336.532526 118.561976 335.869519 119.224983 
C 335.206511 119.887991 334.833985 120.787349 334.833985 121.724983 
C 334.833985 122.662618 335.206511 123.561976 335.869519 124.224983 
C 336.532526 124.887991 337.431884 125.260517 338.369519 125.260517 
z
" style="fill:none;stroke:#17becf;"/>
   </g>
   <g id="PathCollection_38">
    <path clip-path="url(#p8ec9ff8165)" d="M 345.332086 123.836133 
C 346.26972 123.836133 347.169078 123.463607 347.832086 122.800599 
C 348.495093 122.137591 348.867619 121.238234 348.867619 120.300599 
C 348.867619 119.362965 348.495093 118.463607 347.832086 117.800599 
C 347.169078 117.137591 346.26972 116.765065 345.332086 116.765065 
C 344.394451 116.765065 343.495093 117.137591 342.832086 117.800599 
C 342.169078 118.463607 341.796552 119.362965 341.796552 120.300599 
C 341.796552 121.238234 342.169078 122.137591 342.832086 122.800599 
C 343.495093 123.463607 344.394451 123.836133 345.332086 123.836133 
z
" style="fill:none;stroke:#17becf;"/>
   </g>
   <g id="PathCollection_39">
    <path clip-path="url(#p8ec9ff8165)" d="M 352.294652 122.728723 
C 353.232287 122.728723 354.131645 122.356197 354.794652 121.693189 
C 355.45766 121.030182 355.830186 120.130824 355.830186 119.193189 
C 355.830186 118.255555 355.45766 117.356197 354.794652 116.693189 
C 354.131645 116.030182 353.232287 115.657656 352.294652 115.657656 
C 351.357018 115.657656 350.45766 116.030182 349.794652 116.693189 
C 349.131645 117.356197 348.759119 118.255555 348.759119 119.193189 
C 348.759119 120.130824 349.131645 121.030182 349.794652 121.693189 
C 350.45766 122.356197 351.357018 122.728723 352.294652 122.728723 
z
" style="fill:none;stroke:#17becf;"/>
   </g>
   <g id="PathCollection_40">
    <path clip-path="url(#p8ec9ff8165)" d="M 359.257219 121.975065 
C 360.194854 121.975065 361.094212 121.602539 361.757219 120.939531 
C 362.420227 120.276523 362.792753 119.377165 362.792753 118.439531 
C 362.792753 117.501896 362.420227 116.602539 361.757219 115.939531 
C 361.094212 115.276523 360.194854 114.903997 359.257219 114.903997 
C 358.319585 114.903997 357.420227 115.276523 356.757219 115.939531 
C 356.094212 116.602539 355.721685 117.501896 355.721685 118.439531 
C 355.721685 119.377165 356.094212 120.276523 356.757219 120.939531 
C 357.420227 121.602539 358.319585 121.975065 359.257219 121.975065 
z
" style="fill:none;stroke:#17becf;"/>
   </g>
   <g id="PathCollection_41">
    <path clip-path="url(#p8ec9ff8165)" d="M 366.219786 121.603683 
C 367.157421 121.603683 368.056778 121.231157 368.719786 120.568149 
C 369.382794 119.905141 369.75532 119.005784 369.75532 118.068149 
C 369.75532 117.130515 369.382794 116.231157 368.719786 115.568149 
C 368.056778 114.905141 367.157421 114.532615 366.219786 114.532615 
C 365.282152 114.532615 364.382794 114.905141 363.719786 115.568149 
C 363.056778 116.231157 362.684252 117.130515 362.684252 118.068149 
C 362.684252 119.005784 363.056778 119.905141 363.719786 120.568149 
C 364.382794 121.231157 365.282152 121.603683 366.219786 121.603683 
z
" style="fill:none;stroke:#17becf;"/>
   </g>
   <g id="PathCollection_42">
    <path clip-path="url(#p8ec9ff8165)" d="M 373.182353 121.630819 
C 374.119987 121.630819 375.019345 121.258293 375.682353 120.595285 
C 376.345361 119.932278 376.717887 119.03292 376.717887 118.095285 
C 376.717887 117.157651 376.345361 116.258293 375.682353 115.595285 
C 375.019345 114.932278 374.119987 114.559751 373.182353 114.559751 
C 372.244718 114.559751 371.345361 114.932278 370.682353 115.595285 
C 370.019345 116.258293 369.646819 117.157651 369.646819 118.095285 
C 369.646819 119.03292 370.019345 119.932278 370.682353 120.595285 
C 371.345361 121.258293 372.244718 121.630819 373.182353 121.630819 
z
" style="fill:none;stroke:#17becf;"/>
   </g>
   <g id="PathCollection_43">
    <path clip-path="url(#p8ec9ff8165)" d="M 380.14492 122.055743 
C 381.082554 122.055743 381.981912 121.683217 382.64492 121.020209 
C 383.307928 120.357201 383.680454 119.457843 383.680454 118.520209 
C 383.680454 117.582574 383.307928 116.683217 382.64492 116.020209 
C 381.981912 115.357201 381.082554 114.984675 380.14492 114.984675 
C 379.207285 114.984675 378.307928 115.357201 377.64492 116.020209 
C 376.981912 116.683217 376.609386 117.582574 376.609386 118.520209 
C 376.609386 119.457843 376.981912 120.357201 377.64492 121.020209 
C 378.307928 121.683217 379.207285 122.055743 380.14492 122.055743 
z
" style="fill:none;stroke:#17becf;"/>
   </g>
   <g id="PathCollection_44">
    <path clip-path="url(#p8ec9ff8165)" d="M 387.107487 122.855365 
C 388.045121 122.855365 388.944479 122.482839 389.607487 121.819831 
C 390.270494 121.156823 390.643021 120.257465 390.643021 119.319831 
C 390.643021 118.382196 390.270494 117.482839 389.607487 116.819831 
C 388.944479 116.156823 388.045121 115.784297 387.107487 115.784297 
C 386.169852 115.784297 385.270494 116.156823 384.607487 116.819831 
C 383.944479 117.482839 383.571953 118.382196 383.571953 119.319831 
C 383.571953 120.257465 383.944479 121.156823 384.607487 121.819831 
C 385.270494 122.482839 386.169852 122.855365 387.107487 122.855365 
z
" style="fill:none;stroke:#17becf;"/>
   </g>
   <g id="PathCollection_45">
    <path clip-path="url(#p8ec9ff8165)" d="M 394.070053 123.978113 
C 395.007688 123.978113 395.907046 123.605586 396.570053 122.942579 
C 397.233061 122.279571 397.605587 121.380213 397.605587 120.442579 
C 397.605587 119.504944 397.233061 118.605586 396.570053 117.942579 
C 395.907046 117.279571 395.007688 116.907045 394.070053 116.907045 
C 393.132419 116.907045 392.233061 117.279571 391.570053 117.942579 
C 390.907046 118.605586 390.53452 119.504944 390.53452 120.442579 
C 390.53452 121.380213 390.907046 122.279571 391.570053 122.942579 
C 392.233061 123.605586 393.132419 123.978113 394.070053 123.978113 
z
" style="fill:none;stroke:#17becf;"/>
   </g>
   <g id="PathCollection_46">
    <path clip-path="url(#p8ec9ff8165)" d="M 401.03262 125.337029 
C 401.970255 125.337029 402.869613 124.964502 403.53262 124.301495 
C 404.195628 123.638487 404.568154 122.739129 404.568154 121.801495 
C 404.568154 120.86386 404.195628 119.964502 403.53262 119.301495 
C 402.869613 118.638487 401.970255 118.265961 401.03262 118.265961 
C 400.094986 118.265961 399.195628 118.638487 398.53262 119.301495 
C 397.869613 119.964502 397.497086 120.86386 397.497086 121.801495 
C 397.497086 122.739129 397.869613 123.638487 398.53262 124.301495 
C 399.195628 124.964502 400.094986 125.337029 401.03262 125.337029 
z
" style="fill:none;stroke:#17becf;"/>
   </g>
   <g id="PathCollection_47">
    <path clip-path="url(#p8ec9ff8165)" d="M 407.995187 126.802047 
C 408.932822 126.802047 409.832179 126.42952 410.495187 125.766513 
C 411.158195 125.103505 411.530721 124.204147 411.530721 123.266513 
C 411.530721 122.328878 411.158195 121.42952 410.495187 120.766513 
C 409.832179 120.103505 408.932822 119.730979 407.995187 119.730979 
C 407.057553 119.730979 406.158195 120.103505 405.495187 120.766513 
C 404.832179 121.42952 404.459653 122.328878 404.459653 123.266513 
C 404.459653 124.204147 404.832179 125.103505 405.495187 125.766513 
C 406.158195 126.42952 407.057553 126.802047 407.995187 126.802047 
z
" style="fill:none;stroke:#17becf;"/>
   </g>
   <g id="PathCollection_48">
    <path clip-path="url(#p8ec9ff8165)" d="M 414.957754 128.19141 
C 415.895389 128.19141 416.794746 127.818884 417.457754 127.155876 
C 418.120762 126.492869 418.493288 125.593511 418.493288 124.655876 
C 418.493288 123.718242 418.120762 122.818884 417.457754 122.155876 
C 416.794746 121.492869 415.895389 121.120342 414.957754 121.120342 
C 414.020119 121.120342 413.120762 121.492869 412.457754 122.155876 
C 411.794746 122.818884 411.42222 123.718242 411.42222 124.655876 
C 411.42222 125.593511 411.794746 126.492869 412.457754 127.155876 
C 413.120762 127.818884 414.020119 128.19141 414.957754 128.19141 
z
" style="fill:none;stroke:#17becf;"/>
   </g>
   <g id="PathCollection_49">
    <path clip-path="url(#p8ec9ff8165)" d="M 421.920321 129.262192 
C 422.857955 129.262192 423.757313 128.889666 424.420321 128.226658 
C 425.083329 127.563651 425.455855 126.664293 425.455855 125.726658 
C 425.455855 124.789024 425.083329 123.889666 424.420321 123.226658 
C 423.757313 122.563651 422.857955 122.191124 421.920321 122.191124 
C 420.982686 122.191124 420.083329 122.563651 419.420321 123.226658 
C 418.757313 123.889666 418.384787 124.789024 418.384787 125.726658 
C 418.384787 126.664293 418.757313 127.563651 419.420321 128.226658 
C 420.083329 128.889666 420.982686 129.262192 421.920321 129.262192 
z
" style="fill:none;stroke:#17becf;"/>
   </g>
   <g id="PathCollection_50">
    <path clip-path="url(#p8ec9ff8165)" d="M 428.882888 129.69987 
C 429.820522 129.69987 430.71988 129.327344 431.382888 128.664336 
C 432.045895 128.001328 432.418422 127.101971 432.418422 126.164336 
C 432.418422 125.226701 432.045895 124.327344 431.382888 123.664336 
C 430.71988 123.001328 429.820522 122.628802 428.882888 122.628802 
C 427.945253 122.628802 427.045895 123.001328 426.382888 123.664336 
C 425.71988 124.327344 425.347354 125.226701 425.347354 126.164336 
C 425.347354 127.101971 425.71988 128.001328 426.382888 128.664336 
C 427.045895 129.327344 427.945253 129.69987 428.882888 129.69987 
z
" style="fill:none;stroke:#17becf;"/>
   </g>
   <g id="PathCollection_51">
    <path clip-path="url(#p8ec9ff8165)" d="M 435.845455 129.106921 
C 436.783089 129.106921 437.682447 128.734395 438.345455 128.071388 
C 439.008462 127.40838 439.380988 126.509022 439.380988 125.571388 
C 439.380988 124.633753 439.008462 123.734395 438.345455 123.071388 
C 437.682447 122.40838 436.783089 122.035854 435.845455 122.035854 
C 434.90782 122.035854 434.008462 122.40838 433.345455 123.071388 
C 432.682447 123.734395 432.309921 124.633753 432.309921 125.571388 
C 432.309921 126.509022 432.682447 127.40838 433.345455 128.071388 
C 434.008462 128.734395 434.90782 129.106921 435.845455 129.106921 
z
" style="fill:none;stroke:#17becf;"/>
   </g>
   <g id="PathCollection_52">
    <defs>
     <path d="M 0 3.535534 
C 0.937635 3.535534 1.836992 3.163008 2.5 2.5 
C 3.163008 1.836992 3.535534 0.937635 3.535534 0 
C 3.535534 -0.937635 3.163008 -1.836992 2.5 -2.5 
C 1.836992 -3.163008 0.937635 -3.535534 0 -3.535534 
C -0.937635 -3.535534 -1.836992 -3.163008 -2.5 -2.5 
C -3.163008 -1.836992 -3.535534 -0.937635 -3.535534 0 
C -3.535534 0.937635 -3.163008 1.836992 -2.5 2.5 
C -1.836992 3.163008 -0.937635 3.535534 0 3.535534 
z
" id="md60e4d8714" style="stroke:#17becf;"/>
    </defs>
    <g clip-path="url(#p8ec9ff8165)">
     <use style="fill:#17becf;stroke:#17becf;" x="87.717112" xlink:href="#md60e4d8714" y="188.756652"/>
    </g>
   </g>
   <g id="PathCollection_53">
    <g clip-path="url(#p8ec9ff8165)">
     <use style="fill:#17becf;stroke:#17becf;" x="94.679679" xlink:href="#md60e4d8714" y="189.016308"/>
    </g>
   </g>
   <g id="PathCollection_54">
    <g clip-path="url(#p8ec9ff8165)">
     <use style="fill:#17becf;stroke:#17becf;" x="101.642246" xlink:href="#md60e4d8714" y="188.889025"/>
    </g>
   </g>
   <g id="PathCollection_55">
    <g clip-path="url(#p8ec9ff8165)">
     <use style="fill:#17becf;stroke:#17becf;" x="108.604813" xlink:href="#md60e4d8714" y="188.458956"/>
    </g>
   </g>
   <g id="PathCollection_56">
    <g clip-path="url(#p8ec9ff8165)">
     <use style="fill:#17becf;stroke:#17becf;" x="115.56738" xlink:href="#md60e4d8714" y="187.791739"/>
    </g>
   </g>
   <g id="PathCollection_57">
    <g clip-path="url(#p8ec9ff8165)">
     <use style="fill:#17becf;stroke:#17becf;" x="122.529947" xlink:href="#md60e4d8714" y="186.936939"/>
    </g>
   </g>
   <g id="PathCollection_58">
    <g clip-path="url(#p8ec9ff8165)">
     <use style="fill:#17becf;stroke:#17becf;" x="129.492513" xlink:href="#md60e4d8714" y="185.930361"/>
    </g>
   </g>
   <g id="PathCollection_59">
    <g clip-path="url(#p8ec9ff8165)">
     <use style="fill:#17becf;stroke:#17becf;" x="136.45508" xlink:href="#md60e4d8714" y="184.7962"/>
    </g>
   </g>
   <g id="PathCollection_60">
    <g clip-path="url(#p8ec9ff8165)">
     <use style="fill:#17becf;stroke:#17becf;" x="143.417647" xlink:href="#md60e4d8714" y="183.549029"/>
    </g>
   </g>
   <g id="PathCollection_61">
    <g clip-path="url(#p8ec9ff8165)">
     <use style="fill:#17becf;stroke:#17becf;" x="150.380214" xlink:href="#md60e4d8714" y="182.195643"/>
    </g>
   </g>
   <g id="PathCollection_62">
    <g clip-path="url(#p8ec9ff8165)">
     <use style="fill:#17becf;stroke:#17becf;" x="157.342781" xlink:href="#md60e4d8714" y="180.736739"/>
    </g>
   </g>
   <g id="PathCollection_63">
    <g clip-path="url(#p8ec9ff8165)">
     <use style="fill:#17becf;stroke:#17becf;" x="164.305348" xlink:href="#md60e4d8714" y="179.168466"/>
    </g>
   </g>
   <g id="PathCollection_64">
    <g clip-path="url(#p8ec9ff8165)">
     <use style="fill:#17becf;stroke:#17becf;" x="171.267914" xlink:href="#md60e4d8714" y="177.483823"/>
    </g>
   </g>
   <g id="PathCollection_65">
    <g clip-path="url(#p8ec9ff8165)">
     <use style="fill:#17becf;stroke:#17becf;" x="178.230481" xlink:href="#md60e4d8714" y="175.673915"/>
    </g>
   </g>
   <g id="PathCollection_66">
    <g clip-path="url(#p8ec9ff8165)">
     <use style="fill:#17becf;stroke:#17becf;" x="185.193048" xlink:href="#md60e4d8714" y="173.729085"/>
    </g>
   </g>
   <g id="PathCollection_67">
    <g clip-path="url(#p8ec9ff8165)">
     <use style="fill:#17becf;stroke:#17becf;" x="192.155615" xlink:href="#md60e4d8714" y="171.639903"/>
    </g>
   </g>
   <g id="PathCollection_68">
    <g clip-path="url(#p8ec9ff8165)">
     <use style="fill:#17becf;stroke:#17becf;" x="199.118182" xlink:href="#md60e4d8714" y="169.39803"/>
    </g>
   </g>
   <g id="PathCollection_69">
    <g clip-path="url(#p8ec9ff8165)">
     <use style="fill:#17becf;stroke:#17becf;" x="206.080749" xlink:href="#md60e4d8714" y="166.996958"/>
    </g>
   </g>
   <g id="PathCollection_70">
    <g clip-path="url(#p8ec9ff8165)">
     <use style="fill:#17becf;stroke:#17becf;" x="213.043316" xlink:href="#md60e4d8714" y="164.432626"/>
    </g>
   </g>
   <g id="PathCollection_71">
    <g clip-path="url(#p8ec9ff8165)">
     <use style="fill:#17becf;stroke:#17becf;" x="220.005882" xlink:href="#md60e4d8714" y="161.70392"/>
    </g>
   </g>
   <g id="PathCollection_72">
    <g clip-path="url(#p8ec9ff8165)">
     <use style="fill:#17becf;stroke:#17becf;" x="226.968449" xlink:href="#md60e4d8714" y="158.813057"/>
    </g>
   </g>
   <g id="PathCollection_73">
    <g clip-path="url(#p8ec9ff8165)">
     <use style="fill:#17becf;stroke:#17becf;" x="233.931016" xlink:href="#md60e4d8714" y="155.765856"/>
    </g>
   </g>
   <g id="PathCollection_74">
    <g clip-path="url(#p8ec9ff8165)">
     <use style="fill:#17becf;stroke:#17becf;" x="240.893583" xlink:href="#md60e4d8714" y="152.571905"/>
    </g>
   </g>
   <g id="PathCollection_75">
    <g clip-path="url(#p8ec9ff8165)">
     <use style="fill:#17becf;stroke:#17becf;" x="247.85615" xlink:href="#md60e4d8714" y="149.244621"/>
    </g>
   </g>
   <g id="PathCollection_76">
    <g clip-path="url(#p8ec9ff8165)">
     <use style="fill:#17becf;stroke:#17becf;" x="254.818717" xlink:href="#md60e4d8714" y="145.801209"/>
    </g>
   </g>
   <g id="PathCollection_77">
    <g clip-path="url(#p8ec9ff8165)">
     <use style="fill:#17becf;stroke:#17becf;" x="261.781283" xlink:href="#md60e4d8714" y="142.262524"/>
    </g>
   </g>
   <g id="PathCollection_78">
    <g clip-path="url(#p8ec9ff8165)">
     <use style="fill:#17becf;stroke:#17becf;" x="268.74385" xlink:href="#md60e4d8714" y="138.652841"/>
    </g>
   </g>
   <g id="PathCollection_79">
    <g clip-path="url(#p8ec9ff8165)">
     <use style="fill:#17becf;stroke:#17becf;" x="275.706417" xlink:href="#md60e4d8714" y="134.999533"/>
    </g>
   </g>
   <g id="PathCollection_80">
    <g clip-path="url(#p8ec9ff8165)">
     <use style="fill:#17becf;stroke:#17becf;" x="282.668984" xlink:href="#md60e4d8714" y="131.332658"/>
    </g>
   </g>
   <g id="PathCollection_81">
    <g clip-path="url(#p8ec9ff8165)">
     <use style="fill:#17becf;stroke:#17becf;" x="289.631551" xlink:href="#md60e4d8714" y="127.684473"/>
    </g>
   </g>
   <g id="PathCollection_82">
    <g clip-path="url(#p8ec9ff8165)">
     <use style="fill:#17becf;stroke:#17becf;" x="296.594118" xlink:href="#md60e4d8714" y="124.088857"/>
    </g>
   </g>
   <g id="PathCollection_83">
    <g clip-path="url(#p8ec9ff8165)">
     <use style="fill:#17becf;stroke:#17becf;" x="303.556684" xlink:href="#md60e4d8714" y="120.580662"/>
    </g>
   </g>
   <g id="PathCollection_84">
    <g clip-path="url(#p8ec9ff8165)">
     <use style="fill:#17becf;stroke:#17becf;" x="310.519251" xlink:href="#md60e4d8714" y="117.194995"/>
    </g>
   </g>
   <g id="PathCollection_85">
    <g clip-path="url(#p8ec9ff8165)">
     <use style="fill:#17becf;stroke:#17becf;" x="317.481818" xlink:href="#md60e4d8714" y="113.966421"/>
    </g>
   </g>
   <g id="PathCollection_86">
    <g clip-path="url(#p8ec9ff8165)">
     <use style="fill:#17becf;stroke:#17becf;" x="324.444385" xlink:href="#md60e4d8714" y="110.92811"/>
    </g>
   </g>
   <g id="PathCollection_87">
    <g clip-path="url(#p8ec9ff8165)">
     <use style="fill:#17becf;stroke:#17becf;" x="331.406952" xlink:href="#md60e4d8714" y="108.110916"/>
    </g>
   </g>
   <g id="PathCollection_88">
    <g clip-path="url(#p8ec9ff8165)">
     <use style="fill:#17becf;stroke:#17becf;" x="338.369519" xlink:href="#md60e4d8714" y="105.542393"/>
    </g>
   </g>
   <g id="PathCollection_89">
    <g clip-path="url(#p8ec9ff8165)">
     <use style="fill:#17becf;stroke:#17becf;" x="345.332086" xlink:href="#md60e4d8714" y="103.24577"/>
    </g>
   </g>
   <g id="PathCollection_90">
    <g clip-path="url(#p8ec9ff8165)">
     <use style="fill:#17becf;stroke:#17becf;" x="352.294652" xlink:href="#md60e4d8714" y="101.238853"/>
    </g>
   </g>
   <g id="PathCollection_91">
    <g clip-path="url(#p8ec9ff8165)">
     <use style="fill:#17becf;stroke:#17becf;" x="359.257219" xlink:href="#md60e4d8714" y="99.532895"/>
    </g>
   </g>
   <g id="PathCollection_92">
    <g clip-path="url(#p8ec9ff8165)">
     <use style="fill:#17becf;stroke:#17becf;" x="366.219786" xlink:href="#md60e4d8714" y="98.131419"/>
    </g>
   </g>
   <g id="PathCollection_93">
    <g clip-path="url(#p8ec9ff8165)">
     <use style="fill:#17becf;stroke:#17becf;" x="373.182353" xlink:href="#md60e4d8714" y="97.028986"/>
    </g>
   </g>
   <g id="PathCollection_94">
    <g clip-path="url(#p8ec9ff8165)">
     <use style="fill:#17becf;stroke:#17becf;" x="380.14492" xlink:href="#md60e4d8714" y="96.209942"/>
    </g>
   </g>
   <g id="PathCollection_95">
    <g clip-path="url(#p8ec9ff8165)">
     <use style="fill:#17becf;stroke:#17becf;" x="387.107487" xlink:href="#md60e4d8714" y="95.647119"/>
    </g>
   </g>
   <g id="PathCollection_96">
    <g clip-path="url(#p8ec9ff8165)">
     <use style="fill:#17becf;stroke:#17becf;" x="394.070053" xlink:href="#md60e4d8714" y="95.30051"/>
    </g>
   </g>
   <g id="PathCollection_97">
    <g clip-path="url(#p8ec9ff8165)">
     <use style="fill:#17becf;stroke:#17becf;" x="401.03262" xlink:href="#md60e4d8714" y="95.115912"/>
    </g>
   </g>
   <g id="PathCollection_98">
    <g clip-path="url(#p8ec9ff8165)">
     <use style="fill:#17becf;stroke:#17becf;" x="407.995187" xlink:href="#md60e4d8714" y="95.02355"/>
    </g>
   </g>
   <g id="PathCollection_99">
    <g clip-path="url(#p8ec9ff8165)">
     <use style="fill:#17becf;stroke:#17becf;" x="414.957754" xlink:href="#md60e4d8714" y="94.936677"/>
    </g>
   </g>
   <g id="PathCollection_100">
    <g clip-path="url(#p8ec9ff8165)">
     <use style="fill:#17becf;stroke:#17becf;" x="421.920321" xlink:href="#md60e4d8714" y="94.750155"/>
    </g>
   </g>
   <g id="PathCollection_101">
    <g clip-path="url(#p8ec9ff8165)">
     <use style="fill:#17becf;stroke:#17becf;" x="428.882888" xlink:href="#md60e4d8714" y="94.339027"/>
    </g>
   </g>
   <g id="PathCollection_102">
    <g clip-path="url(#p8ec9ff8165)">
     <use style="fill:#17becf;stroke:#17becf;" x="435.845455" xlink:href="#md60e4d8714" y="93.557073"/>
    </g>
   </g>
   <g id="matplotlib.axis_1"/>
   <g id="matplotlib.axis_2"/>
   <g id="line2d_1">
    <path clip-path="url(#p8ec9ff8165)" d="M 80.754545 189 
L 123.806417 188.890006 
L 129.144385 188.572178 
L 134.627406 188.019735 
L 140.400535 187.212392 
L 146.550802 186.125312 
L 153.13623 184.732878 
L 160.24385 183.000171 
L 168.018717 180.872264 
L 176.634893 178.278703 
L 186.382487 175.106144 
L 197.78369 171.153386 
L 212.027941 165.967646 
L 234.482219 157.523101 
L 265.755749 145.802346 
L 284.032487 139.199951 
L 299.031016 134.006485 
L 309.532888 130.599335 
L 318.729278 127.84641 
L 327.316444 125.505843 
L 335.584492 123.481832 
L 343.649465 121.735344 
L 351.627406 120.234071 
L 359.605348 118.958755 
L 367.612299 117.903502 
L 375.735294 117.057685 
L 384.003342 116.421405 
L 392.445455 115.99544 
L 401.119652 115.780812 
L 410.112968 115.782164 
L 419.454412 116.007513 
L 429.231016 116.467515 
L 435.845455 116.897958 
L 435.845455 116.897958 
" style="fill:none;stroke:#17becf;stroke-dasharray:11.1,4.8;stroke-dashoffset:0;stroke-width:3;"/>
   </g>
   <g id="line2d_2">
    <path clip-path="url(#p8ec9ff8165)" d="M 80.754545 189 
L 123.255214 188.889798 
L 128.070989 188.575791 
L 132.973797 188.030686 
L 138.10869 187.23336 
L 143.53369 186.163192 
L 149.306818 184.794287 
L 155.486096 183.096505 
L 162.129545 181.037009 
L 169.353209 178.561354 
L 177.33115 175.587366 
L 186.266444 172.014036 
L 196.594251 167.637664 
L 209.184893 162.050815 
L 226.968449 153.89412 
L 266.684091 135.620651 
L 283.365241 128.233912 
L 297.464439 122.223886 
L 307.386096 118.227703 
L 316.002273 114.994018 
L 323.980214 112.23503 
L 331.610027 109.830192 
L 339.036765 107.721962 
L 346.318449 105.884862 
L 353.542112 104.29036 
L 360.765775 102.922704 
L 368.04746 101.77084 
L 375.387166 100.835167 
L 382.842914 100.109296 
L 390.443717 99.593349 
L 398.218583 99.288826 
L 406.225535 99.19849 
L 414.493583 99.328292 
L 423.080749 99.686212 
L 432.074064 100.28539 
L 435.845455 100.600092 
L 435.845455 100.600092 
" style="fill:none;stroke:#17becf;stroke-linecap:square;stroke-width:3;"/>
   </g>
   <g id="patch_3">
    <path d="M 63 189 
L 63 25.92 
" style="fill:none;stroke:#000000;stroke-linecap:square;stroke-linejoin:miter;stroke-width:0.8;"/>
   </g>
   <g id="patch_4">
    <path d="M 453.6 189 
L 453.6 25.92 
" style="fill:none;stroke:#000000;stroke-linecap:square;stroke-linejoin:miter;stroke-width:0.8;"/>
   </g>
   <g id="patch_5">
    <path d="M 63 189 
L 453.6 189 
" style="fill:none;stroke:#000000;stroke-linecap:square;stroke-linejoin:miter;stroke-width:0.8;"/>
   </g>
   <g id="patch_6">
    <path d="M 63 25.92 
L 453.6 25.92 
" style="fill:none;stroke:#000000;stroke-linecap:square;stroke-linejoin:miter;stroke-width:0.8;"/>
   </g>
  </g>
 </g>
 <defs>
  <clipPath id="p8ec9ff8165">
   <rect height="163.08" width="390.6" x="63" y="25.92"/>
  </clipPath>
 </defs>
</svg>
