<?xml version="1.0" encoding="utf-8" standalone="no"?>
<!DOCTYPE svg PUBLIC "-//W3C//DTD SVG 1.1//EN"
  "http://www.w3.org/Graphics/SVG/1.1/DTD/svg11.dtd">
<!-- Created with matplotlib (https://matplotlib.org/) -->
<svg height="216pt" version="1.1" viewBox="0 0 504 216" width="504pt" xmlns="http://www.w3.org/2000/svg" xmlns:xlink="http://www.w3.org/1999/xlink">
 <metadata>
  <rdf:RDF xmlns:cc="http://creativecommons.org/ns#" xmlns:dc="http://purl.org/dc/elements/1.1/" xmlns:rdf="http://www.w3.org/1999/02/22-rdf-syntax-ns#">
   <cc:Work>
    <dc:type rdf:resource="http://purl.org/dc/dcmitype/StillImage"/>
    <dc:date>2024-12-17T10:31:51.873243</dc:date>
    <dc:format>image/svg+xml</dc:format>
    <dc:creator>
     <cc:Agent>
      <dc:title>Matplotlib v3.3.2, https://matplotlib.org/</dc:title>
     </cc:Agent>
    </dc:creator>
   </cc:Work>
  </rdf:RDF>
 </metadata>
 <defs>
  <style type="text/css">*{stroke-linecap:butt;stroke-linejoin:round;}</style>
 </defs>
 <g id="figure_1">
  <g id="patch_1">
   <path d="M 0 216 
L 504 216 
L 504 0 
L 0 0 
z
" style="fill:none;"/>
  </g>
  <g id="axes_1">
   <g id="patch_2">
    <path d="M 63 189 
L 453.6 189 
L 453.6 25.92 
L 63 25.92 
z
" style="fill:#ffffff;"/>
   </g>
   <g id="PathCollection_1">
    <path clip-path="url(#p31ee21dc26)" d="M 87.717112 192.794583 
C 88.654747 192.794583 89.554105 192.422056 90.217112 191.759049 
C 90.88012 191.096041 91.252646 190.196683 91.252646 189.259049 
C 91.252646 188.321414 90.88012 187.422056 90.217112 186.759049 
C 89.554105 186.096041 88.654747 185.723515 87.717112 185.723515 
C 86.779478 185.723515 85.88012 186.096041 85.217112 186.759049 
C 84.554105 187.422056 84.181578 188.321414 84.181578 189.259049 
C 84.181578 190.196683 84.554105 191.096041 85.217112 191.759049 
C 85.88012 192.422056 86.779478 192.794583 87.717112 192.794583 
z
" style="fill:none;stroke:#ff9896;"/>
   </g>
   <g id="PathCollection_2">
    <path clip-path="url(#p31ee21dc26)" d="M 94.679679 194.3453 
C 95.617314 194.3453 96.516671 193.972774 97.179679 193.309766 
C 97.842687 192.646759 98.215213 191.747401 98.215213 190.809766 
C 98.215213 189.872132 97.842687 188.972774 97.179679 188.309766 
C 96.516671 187.646759 95.617314 187.274232 94.679679 187.274232 
C 93.742045 187.274232 92.842687 187.646759 92.179679 188.309766 
C 91.516671 188.972774 91.144145 189.872132 91.144145 190.809766 
C 91.144145 191.747401 91.516671 192.646759 92.179679 193.309766 
C 92.842687 193.972774 93.742045 194.3453 94.679679 194.3453 
z
" style="fill:none;stroke:#ff9896;"/>
   </g>
   <g id="PathCollection_3">
    <path clip-path="url(#p31ee21dc26)" d="M 101.642246 194.474315 
C 102.579881 194.474315 103.479238 194.101789 104.142246 193.438781 
C 104.805254 192.775773 105.17778 191.876416 105.17778 190.938781 
C 105.17778 190.001147 104.805254 189.101789 104.142246 188.438781 
C 103.479238 187.775773 102.579881 187.403247 101.642246 187.403247 
C 100.704611 187.403247 99.805254 187.775773 99.142246 188.438781 
C 98.479238 189.101789 98.106712 190.001147 98.106712 190.938781 
C 98.106712 191.876416 98.479238 192.775773 99.142246 193.438781 
C 99.805254 194.101789 100.704611 194.474315 101.642246 194.474315 
z
" style="fill:none;stroke:#ff9896;"/>
   </g>
   <g id="PathCollection_4">
    <path clip-path="url(#p31ee21dc26)" d="M 108.604813 193.54663 
C 109.542447 193.54663 110.441805 193.174104 111.104813 192.511096 
C 111.767821 191.848088 112.140347 190.948731 112.140347 190.011096 
C 112.140347 189.073461 111.767821 188.174104 111.104813 187.511096 
C 110.441805 186.848088 109.542447 186.475562 108.604813 186.475562 
C 107.667178 186.475562 106.767821 186.848088 106.104813 187.511096 
C 105.441805 188.174104 105.069279 189.073461 105.069279 190.011096 
C 105.069279 190.948731 105.441805 191.848088 106.104813 192.511096 
C 106.767821 193.174104 107.667178 193.54663 108.604813 193.54663 
z
" style="fill:none;stroke:#ff9896;"/>
   </g>
   <g id="PathCollection_5">
    <path clip-path="url(#p31ee21dc26)" d="M 115.56738 191.824837 
C 116.505014 191.824837 117.404372 191.452311 118.06738 190.789303 
C 118.730387 190.126295 119.102914 189.226937 119.102914 188.289303 
C 119.102914 187.351668 118.730387 186.452311 118.06738 185.789303 
C 117.404372 185.126295 116.505014 184.753769 115.56738 184.753769 
C 114.629745 184.753769 113.730387 185.126295 113.06738 185.789303 
C 112.404372 186.452311 112.031846 187.351668 112.031846 188.289303 
C 112.031846 189.226937 112.404372 190.126295 113.06738 190.789303 
C 113.730387 191.452311 114.629745 191.824837 115.56738 191.824837 
z
" style="fill:none;stroke:#ff9896;"/>
   </g>
   <g id="PathCollection_6">
    <path clip-path="url(#p31ee21dc26)" d="M 122.529947 189.483644 
C 123.467581 189.483644 124.366939 189.111118 125.029947 188.44811 
C 125.692954 187.785102 126.06548 186.885745 126.06548 185.94811 
C 126.06548 185.010476 125.692954 184.111118 125.029947 183.44811 
C 124.366939 182.785102 123.467581 182.412576 122.529947 182.412576 
C 121.592312 182.412576 120.692954 182.785102 120.029947 183.44811 
C 119.366939 184.111118 118.994413 185.010476 118.994413 185.94811 
C 118.994413 186.885745 119.366939 187.785102 120.029947 188.44811 
C 120.692954 189.111118 121.592312 189.483644 122.529947 189.483644 
z
" style="fill:none;stroke:#ff9896;"/>
   </g>
   <g id="PathCollection_7">
    <path clip-path="url(#p31ee21dc26)" d="M 129.492513 186.634284 
C 130.430148 186.634284 131.329506 186.261758 131.992513 185.59875 
C 132.655521 184.935743 133.028047 184.036385 133.028047 183.09875 
C 133.028047 182.161116 132.655521 181.261758 131.992513 180.59875 
C 131.329506 179.935743 130.430148 179.563216 129.492513 179.563216 
C 128.554879 179.563216 127.655521 179.935743 126.992513 180.59875 
C 126.329506 181.261758 125.956979 182.161116 125.956979 183.09875 
C 125.956979 184.036385 126.329506 184.935743 126.992513 185.59875 
C 127.655521 186.261758 128.554879 186.634284 129.492513 186.634284 
z
" style="fill:none;stroke:#ff9896;"/>
   </g>
   <g id="PathCollection_8">
    <path clip-path="url(#p31ee21dc26)" d="M 136.45508 183.337645 
C 137.392715 183.337645 138.292072 182.965119 138.95508 182.302111 
C 139.618088 181.639103 139.990614 180.739745 139.990614 179.802111 
C 139.990614 178.864476 139.618088 177.965119 138.95508 177.302111 
C 138.292072 176.639103 137.392715 176.266577 136.45508 176.266577 
C 135.517446 176.266577 134.618088 176.639103 133.95508 177.302111 
C 133.292072 177.965119 132.919546 178.864476 132.919546 179.802111 
C 132.919546 180.739745 133.292072 181.639103 133.95508 182.302111 
C 134.618088 182.965119 135.517446 183.337645 136.45508 183.337645 
z
" style="fill:none;stroke:#ff9896;"/>
   </g>
   <g id="PathCollection_9">
    <path clip-path="url(#p31ee21dc26)" d="M 143.417647 179.618995 
C 144.355282 179.618995 145.254639 179.246468 145.917647 178.583461 
C 146.580655 177.920453 146.953181 177.021095 146.953181 176.083461 
C 146.953181 175.145826 146.580655 174.246468 145.917647 173.583461 
C 145.254639 172.920453 144.355282 172.547927 143.417647 172.547927 
C 142.480013 172.547927 141.580655 172.920453 140.917647 173.583461 
C 140.254639 174.246468 139.882113 175.145826 139.882113 176.083461 
C 139.882113 177.021095 140.254639 177.920453 140.917647 178.583461 
C 141.580655 179.246468 142.480013 179.618995 143.417647 179.618995 
z
" style="fill:none;stroke:#ff9896;"/>
   </g>
   <g id="PathCollection_10">
    <path clip-path="url(#p31ee21dc26)" d="M 150.380214 175.480159 
C 151.317848 175.480159 152.217206 175.107633 152.880214 174.444626 
C 153.543222 173.781618 153.915748 172.88226 153.915748 171.944626 
C 153.915748 171.006991 153.543222 170.107633 152.880214 169.444626 
C 152.217206 168.781618 151.317848 168.409092 150.380214 168.409092 
C 149.442579 168.409092 148.543222 168.781618 147.880214 169.444626 
C 147.217206 170.107633 146.84468 171.006991 146.84468 171.944626 
C 146.84468 172.88226 147.217206 173.781618 147.880214 174.444626 
C 148.543222 175.107633 149.442579 175.480159 150.380214 175.480159 
z
" style="fill:none;stroke:#ff9896;"/>
   </g>
   <g id="PathCollection_11">
    <path clip-path="url(#p31ee21dc26)" d="M 157.342781 170.909871 
C 158.280415 170.909871 159.179773 170.537344 159.842781 169.874337 
C 160.505788 169.211329 160.878315 168.311971 160.878315 167.374337 
C 160.878315 166.436702 160.505788 165.537344 159.842781 164.874337 
C 159.179773 164.211329 158.280415 163.838803 157.342781 163.838803 
C 156.405146 163.838803 155.505788 164.211329 154.842781 164.874337 
C 154.179773 165.537344 153.807247 166.436702 153.807247 167.374337 
C 153.807247 168.311971 154.179773 169.211329 154.842781 169.874337 
C 155.505788 170.537344 156.405146 170.909871 157.342781 170.909871 
z
" style="fill:none;stroke:#ff9896;"/>
   </g>
   <g id="PathCollection_12">
    <path clip-path="url(#p31ee21dc26)" d="M 164.305348 165.892388 
C 165.242982 165.892388 166.14234 165.519862 166.805348 164.856855 
C 167.468355 164.193847 167.840881 163.294489 167.840881 162.356855 
C 167.840881 161.41922 167.468355 160.519862 166.805348 159.856855 
C 166.14234 159.193847 165.242982 158.821321 164.305348 158.821321 
C 163.367713 158.821321 162.468355 159.193847 161.805348 159.856855 
C 161.14234 160.519862 160.769814 161.41922 160.769814 162.356855 
C 160.769814 163.294489 161.14234 164.193847 161.805348 164.856855 
C 162.468355 165.519862 163.367713 165.892388 164.305348 165.892388 
z
" style="fill:none;stroke:#ff9896;"/>
   </g>
   <g id="PathCollection_13">
    <path clip-path="url(#p31ee21dc26)" d="M 171.267914 160.414521 
C 172.205549 160.414521 173.104907 160.041994 173.767914 159.378987 
C 174.430922 158.715979 174.803448 157.816621 174.803448 156.878987 
C 174.803448 155.941352 174.430922 155.041994 173.767914 154.378987 
C 173.104907 153.715979 172.205549 153.343453 171.267914 153.343453 
C 170.33028 153.343453 169.430922 153.715979 168.767914 154.378987 
C 168.104907 155.041994 167.732381 155.941352 167.732381 156.878987 
C 167.732381 157.816621 168.104907 158.715979 168.767914 159.378987 
C 169.430922 160.041994 170.33028 160.414521 171.267914 160.414521 
z
" style="fill:none;stroke:#ff9896;"/>
   </g>
   <g id="PathCollection_14">
    <path clip-path="url(#p31ee21dc26)" d="M 178.230481 154.471134 
C 179.168116 154.471134 180.067474 154.098608 180.730481 153.435601 
C 181.393489 152.772593 181.766015 151.873235 181.766015 150.935601 
C 181.766015 149.997966 181.393489 149.098608 180.730481 148.435601 
C 180.067474 147.772593 179.168116 147.400067 178.230481 147.400067 
C 177.292847 147.400067 176.393489 147.772593 175.730481 148.435601 
C 175.067474 149.098608 174.694947 149.997966 174.694947 150.935601 
C 174.694947 151.873235 175.067474 152.772593 175.730481 153.435601 
C 176.393489 154.098608 177.292847 154.471134 178.230481 154.471134 
z
" style="fill:none;stroke:#ff9896;"/>
   </g>
   <g id="PathCollection_15">
    <path clip-path="url(#p31ee21dc26)" d="M 185.193048 148.069287 
C 186.130683 148.069287 187.03004 147.69676 187.693048 147.033753 
C 188.356056 146.370745 188.728582 145.471387 188.728582 144.533753 
C 188.728582 143.596118 188.356056 142.69676 187.693048 142.033753 
C 187.03004 141.370745 186.130683 140.998219 185.193048 140.998219 
C 184.255414 140.998219 183.356056 141.370745 182.693048 142.033753 
C 182.03004 142.69676 181.657514 143.596118 181.657514 144.533753 
C 181.657514 145.471387 182.03004 146.370745 182.693048 147.033753 
C 183.356056 147.69676 184.255414 148.069287 185.193048 148.069287 
z
" style="fill:none;stroke:#ff9896;"/>
   </g>
   <g id="PathCollection_16">
    <path clip-path="url(#p31ee21dc26)" d="M 192.155615 141.231067 
C 193.09325 141.231067 193.992607 140.858541 194.655615 140.195533 
C 195.318623 139.532525 195.691149 138.633168 195.691149 137.695533 
C 195.691149 136.757898 195.318623 135.858541 194.655615 135.195533 
C 193.992607 134.532525 193.09325 134.159999 192.155615 134.159999 
C 191.21798 134.159999 190.318623 134.532525 189.655615 135.195533 
C 188.992607 135.858541 188.620081 136.757898 188.620081 137.695533 
C 188.620081 138.633168 188.992607 139.532525 189.655615 140.195533 
C 190.318623 140.858541 191.21798 141.231067 192.155615 141.231067 
z
" style="fill:none;stroke:#ff9896;"/>
   </g>
   <g id="PathCollection_17">
    <path clip-path="url(#p31ee21dc26)" d="M 199.118182 133.995277 
C 200.055816 133.995277 200.955174 133.622751 201.618182 132.959744 
C 202.28119 132.296736 202.653716 131.397378 202.653716 130.459744 
C 202.653716 129.522109 202.28119 128.622751 201.618182 127.959744 
C 200.955174 127.296736 200.055816 126.92421 199.118182 126.92421 
C 198.180547 126.92421 197.28119 127.296736 196.618182 127.959744 
C 195.955174 128.622751 195.582648 129.522109 195.582648 130.459744 
C 195.582648 131.397378 195.955174 132.296736 196.618182 132.959744 
C 197.28119 133.622751 198.180547 133.995277 199.118182 133.995277 
z
" style="fill:none;stroke:#ff9896;"/>
   </g>
   <g id="PathCollection_18">
    <path clip-path="url(#p31ee21dc26)" d="M 206.080749 126.418051 
C 207.018383 126.418051 207.917741 126.045525 208.580749 125.382517 
C 209.243756 124.719509 209.616283 123.820152 209.616283 122.882517 
C 209.616283 121.944882 209.243756 121.045525 208.580749 120.382517 
C 207.917741 119.719509 207.018383 119.346983 206.080749 119.346983 
C 205.143114 119.346983 204.243756 119.719509 203.580749 120.382517 
C 202.917741 121.045525 202.545215 121.944882 202.545215 122.882517 
C 202.545215 123.820152 202.917741 124.719509 203.580749 125.382517 
C 204.243756 126.045525 205.143114 126.418051 206.080749 126.418051 
z
" style="fill:none;stroke:#ff9896;"/>
   </g>
   <g id="PathCollection_19">
    <path clip-path="url(#p31ee21dc26)" d="M 213.043316 118.572521 
C 213.98095 118.572521 214.880308 118.199995 215.543316 117.536987 
C 216.206323 116.873979 216.578849 115.974621 216.578849 115.036987 
C 216.578849 114.099352 216.206323 113.199995 215.543316 112.536987 
C 214.880308 111.873979 213.98095 111.501453 213.043316 111.501453 
C 212.105681 111.501453 211.206323 111.873979 210.543316 112.536987 
C 209.880308 113.199995 209.507782 114.099352 209.507782 115.036987 
C 209.507782 115.974621 209.880308 116.873979 210.543316 117.536987 
C 211.206323 118.199995 212.105681 118.572521 213.043316 118.572521 
z
" style="fill:none;stroke:#ff9896;"/>
   </g>
   <g id="PathCollection_20">
    <path clip-path="url(#p31ee21dc26)" d="M 220.005882 110.547652 
C 220.943517 110.547652 221.842875 110.175126 222.505882 109.512118 
C 223.16889 108.849111 223.541416 107.949753 223.541416 107.012118 
C 223.541416 106.074484 223.16889 105.175126 222.505882 104.512118 
C 221.842875 103.849111 220.943517 103.476584 220.005882 103.476584 
C 219.068248 103.476584 218.16889 103.849111 217.505882 104.512118 
C 216.842875 105.175126 216.470348 106.074484 216.470348 107.012118 
C 216.470348 107.949753 216.842875 108.849111 217.505882 109.512118 
C 218.16889 110.175126 219.068248 110.547652 220.005882 110.547652 
z
" style="fill:none;stroke:#ff9896;"/>
   </g>
   <g id="PathCollection_21">
    <path clip-path="url(#p31ee21dc26)" d="M 226.968449 102.446348 
C 227.906084 102.446348 228.805441 102.073822 229.468449 101.410814 
C 230.131457 100.747806 230.503983 99.848448 230.503983 98.910814 
C 230.503983 97.973179 230.131457 97.073822 229.468449 96.410814 
C 228.805441 95.747806 227.906084 95.37528 226.968449 95.37528 
C 226.030815 95.37528 225.131457 95.747806 224.468449 96.410814 
C 223.805441 97.073822 223.432915 97.973179 223.432915 98.910814 
C 223.432915 99.848448 223.805441 100.747806 224.468449 101.410814 
C 225.131457 102.073822 226.030815 102.446348 226.968449 102.446348 
z
" style="fill:none;stroke:#ff9896;"/>
   </g>
   <g id="PathCollection_22">
    <path clip-path="url(#p31ee21dc26)" d="M 233.931016 94.382931 
C 234.868651 94.382931 235.768008 94.010405 236.431016 93.347397 
C 237.094024 92.684389 237.46655 91.785032 237.46655 90.847397 
C 237.46655 89.909763 237.094024 89.010405 236.431016 88.347397 
C 235.768008 87.684389 234.868651 87.311863 233.931016 87.311863 
C 232.993381 87.311863 232.094024 87.684389 231.431016 88.347397 
C 230.768008 89.010405 230.395482 89.909763 230.395482 90.847397 
C 230.395482 91.785032 230.768008 92.684389 231.431016 93.347397 
C 232.094024 94.010405 232.993381 94.382931 233.931016 94.382931 
z
" style="fill:none;stroke:#ff9896;"/>
   </g>
   <g id="PathCollection_23">
    <path clip-path="url(#p31ee21dc26)" d="M 240.893583 86.480128 
C 241.831217 86.480128 242.730575 86.107602 243.393583 85.444594 
C 244.056591 84.781586 244.429117 83.882228 244.429117 82.944594 
C 244.429117 82.006959 244.056591 81.107602 243.393583 80.444594 
C 242.730575 79.781586 241.831217 79.40906 240.893583 79.40906 
C 239.955948 79.40906 239.056591 79.781586 238.393583 80.444594 
C 237.730575 81.107602 237.358049 82.006959 237.358049 82.944594 
C 237.358049 83.882228 237.730575 84.781586 238.393583 85.444594 
C 239.056591 86.107602 239.955948 86.480128 240.893583 86.480128 
z
" style="fill:none;stroke:#ff9896;"/>
   </g>
   <g id="PathCollection_24">
    <path clip-path="url(#p31ee21dc26)" d="M 247.85615 78.865645 
C 248.793784 78.865645 249.693142 78.493119 250.35615 77.830111 
C 251.019157 77.167103 251.391684 76.267746 251.391684 75.330111 
C 251.391684 74.392477 251.019157 73.493119 250.35615 72.830111 
C 249.693142 72.167103 248.793784 71.794577 247.85615 71.794577 
C 246.918515 71.794577 246.019157 72.167103 245.35615 72.830111 
C 244.693142 73.493119 244.320616 74.392477 244.320616 75.330111 
C 244.320616 76.267746 244.693142 77.167103 245.35615 77.830111 
C 246.019157 78.493119 246.918515 78.865645 247.85615 78.865645 
z
" style="fill:none;stroke:#ff9896;"/>
   </g>
   <g id="PathCollection_25">
    <path clip-path="url(#p31ee21dc26)" d="M 254.818717 71.668468 
C 255.756351 71.668468 256.655709 71.295942 257.318717 70.632934 
C 257.981724 69.969926 258.35425 69.070568 258.35425 68.132934 
C 258.35425 67.195299 257.981724 66.295942 257.318717 65.632934 
C 256.655709 64.969926 255.756351 64.5974 254.818717 64.5974 
C 253.881082 64.5974 252.981724 64.969926 252.318717 65.632934 
C 251.655709 66.295942 251.283183 67.195299 251.283183 68.132934 
C 251.283183 69.070568 251.655709 69.969926 252.318717 70.632934 
C 252.981724 71.295942 253.881082 71.668468 254.818717 71.668468 
z
" style="fill:none;stroke:#ff9896;"/>
   </g>
   <g id="PathCollection_26">
    <path clip-path="url(#p31ee21dc26)" d="M 261.781283 65.014974 
C 262.718918 65.014974 263.618276 64.642448 264.281283 63.97944 
C 264.944291 63.316432 265.316817 62.417075 265.316817 61.47944 
C 265.316817 60.541806 264.944291 59.642448 264.281283 58.97944 
C 263.618276 58.316432 262.718918 57.943906 261.781283 57.943906 
C 260.843649 57.943906 259.944291 58.316432 259.281283 58.97944 
C 258.618276 59.642448 258.24575 60.541806 258.24575 61.47944 
C 258.24575 62.417075 258.618276 63.316432 259.281283 63.97944 
C 259.944291 64.642448 260.843649 65.014974 261.781283 65.014974 
z
" style="fill:none;stroke:#ff9896;"/>
   </g>
   <g id="PathCollection_27">
    <path clip-path="url(#p31ee21dc26)" d="M 268.74385 59.024989 
C 269.681485 59.024989 270.580843 58.652463 271.24385 57.989455 
C 271.906858 57.326447 272.279384 56.427089 272.279384 55.489455 
C 272.279384 54.55182 271.906858 53.652463 271.24385 52.989455 
C 270.580843 52.326447 269.681485 51.953921 268.74385 51.953921 
C 267.806216 51.953921 266.906858 52.326447 266.24385 52.989455 
C 265.580843 53.652463 265.208316 54.55182 265.208316 55.489455 
C 265.208316 56.427089 265.580843 57.326447 266.24385 57.989455 
C 266.906858 58.652463 267.806216 59.024989 268.74385 59.024989 
z
" style="fill:none;stroke:#ff9896;"/>
   </g>
   <g id="PathCollection_28">
    <path clip-path="url(#p31ee21dc26)" d="M 275.706417 53.807878 
C 276.644052 53.807878 277.543409 53.435351 278.206417 52.772344 
C 278.869425 52.109336 279.241951 51.209978 279.241951 50.272344 
C 279.241951 49.334709 278.869425 48.435351 278.206417 47.772344 
C 277.543409 47.109336 276.644052 46.73681 275.706417 46.73681 
C 274.768783 46.73681 273.869425 47.109336 273.206417 47.772344 
C 272.543409 48.435351 272.170883 49.334709 272.170883 50.272344 
C 272.170883 51.209978 272.543409 52.109336 273.206417 52.772344 
C 273.869425 53.435351 274.768783 53.807878 275.706417 53.807878 
z
" style="fill:none;stroke:#ff9896;"/>
   </g>
   <g id="PathCollection_29">
    <path clip-path="url(#p31ee21dc26)" d="M 282.668984 49.458797 
C 283.606619 49.458797 284.505976 49.086271 285.168984 48.423263 
C 285.831992 47.760256 286.204518 46.860898 286.204518 45.923263 
C 286.204518 44.985629 285.831992 44.086271 285.168984 43.423263 
C 284.505976 42.760256 283.606619 42.387729 282.668984 42.387729 
C 281.731349 42.387729 280.831992 42.760256 280.168984 43.423263 
C 279.505976 44.086271 279.13345 44.985629 279.13345 45.923263 
C 279.13345 46.860898 279.505976 47.760256 280.168984 48.423263 
C 280.831992 49.086271 281.731349 49.458797 282.668984 49.458797 
z
" style="fill:none;stroke:#ff9896;"/>
   </g>
   <g id="PathCollection_30">
    <path clip-path="url(#p31ee21dc26)" d="M 289.631551 46.055208 
C 290.569185 46.055208 291.468543 45.682682 292.131551 45.019674 
C 292.794559 44.356667 293.167085 43.457309 293.167085 42.519674 
C 293.167085 41.58204 292.794559 40.682682 292.131551 40.019674 
C 291.468543 39.356667 290.569185 38.984141 289.631551 38.984141 
C 288.693916 38.984141 287.794559 39.356667 287.131551 40.019674 
C 286.468543 40.682682 286.096017 41.58204 286.096017 42.519674 
C 286.096017 43.457309 286.468543 44.356667 287.131551 45.019674 
C 287.794559 45.682682 288.693916 46.055208 289.631551 46.055208 
z
" style="fill:none;stroke:#ff9896;"/>
   </g>
   <g id="PathCollection_31">
    <path clip-path="url(#p31ee21dc26)" d="M 296.594118 43.653765 
C 297.531752 43.653765 298.43111 43.281239 299.094118 42.618231 
C 299.757125 41.955223 300.129652 41.055865 300.129652 40.118231 
C 300.129652 39.180596 299.757125 38.281239 299.094118 37.618231 
C 298.43111 36.955223 297.531752 36.582697 296.594118 36.582697 
C 295.656483 36.582697 294.757125 36.955223 294.094118 37.618231 
C 293.43111 38.281239 293.058584 39.180596 293.058584 40.118231 
C 293.058584 41.055865 293.43111 41.955223 294.094118 42.618231 
C 294.757125 43.281239 295.656483 43.653765 296.594118 43.653765 
z
" style="fill:none;stroke:#ff9896;"/>
   </g>
   <g id="PathCollection_32">
    <path clip-path="url(#p31ee21dc26)" d="M 303.556684 42.287687 
C 304.494319 42.287687 305.393677 41.915161 306.056684 41.252153 
C 306.719692 40.589146 307.092218 39.689788 307.092218 38.752153 
C 307.092218 37.814519 306.719692 36.915161 306.056684 36.252153 
C 305.393677 35.589146 304.494319 35.216619 303.556684 35.216619 
C 302.61905 35.216619 301.719692 35.589146 301.056684 36.252153 
C 300.393677 36.915161 300.021151 37.814519 300.021151 38.752153 
C 300.021151 39.689788 300.393677 40.589146 301.056684 41.252153 
C 301.719692 41.915161 302.61905 42.287687 303.556684 42.287687 
z
" style="fill:none;stroke:#ff9896;"/>
   </g>
   <g id="PathCollection_33">
    <path clip-path="url(#p31ee21dc26)" d="M 310.519251 41.964732 
C 311.456886 41.964732 312.356244 41.592206 313.019251 40.929198 
C 313.682259 40.26619 314.054785 39.366833 314.054785 38.429198 
C 314.054785 37.491564 313.682259 36.592206 313.019251 35.929198 
C 312.356244 35.26619 311.456886 34.893664 310.519251 34.893664 
C 309.581617 34.893664 308.682259 35.26619 308.019251 35.929198 
C 307.356244 36.592206 306.983717 37.491564 306.983717 38.429198 
C 306.983717 39.366833 307.356244 40.26619 308.019251 40.929198 
C 308.682259 41.592206 309.581617 41.964732 310.519251 41.964732 
z
" style="fill:none;stroke:#ff9896;"/>
   </g>
   <g id="PathCollection_34">
    <path clip-path="url(#p31ee21dc26)" d="M 317.481818 42.665865 
C 318.419453 42.665865 319.31881 42.293339 319.981818 41.630331 
C 320.644826 40.967323 321.017352 40.067966 321.017352 39.130331 
C 321.017352 38.192696 320.644826 37.293339 319.981818 36.630331 
C 319.31881 35.967323 318.419453 35.594797 317.481818 35.594797 
C 316.544184 35.594797 315.644826 35.967323 314.981818 36.630331 
C 314.31881 37.293339 313.946284 38.192696 313.946284 39.130331 
C 313.946284 40.067966 314.31881 40.967323 314.981818 41.630331 
C 315.644826 42.293339 316.544184 42.665865 317.481818 42.665865 
z
" style="fill:none;stroke:#ff9896;"/>
   </g>
   <g id="PathCollection_35">
    <path clip-path="url(#p31ee21dc26)" d="M 324.444385 44.344751 
C 325.38202 44.344751 326.281377 43.972225 326.944385 43.309217 
C 327.607393 42.646209 327.979919 41.746852 327.979919 40.809217 
C 327.979919 39.871582 327.607393 38.972225 326.944385 38.309217 
C 326.281377 37.646209 325.38202 37.273683 324.444385 37.273683 
C 323.50675 37.273683 322.607393 37.646209 321.944385 38.309217 
C 321.281377 38.972225 320.908851 39.871582 320.908851 40.809217 
C 320.908851 41.746852 321.281377 42.646209 321.944385 43.309217 
C 322.607393 43.972225 323.50675 44.344751 324.444385 44.344751 
z
" style="fill:none;stroke:#ff9896;"/>
   </g>
   <g id="PathCollection_36">
    <path clip-path="url(#p31ee21dc26)" d="M 331.406952 46.928173 
C 332.344586 46.928173 333.243944 46.555647 333.906952 45.892639 
C 334.56996 45.229631 334.942486 44.330274 334.942486 43.392639 
C 334.942486 42.455005 334.56996 41.555647 333.906952 40.892639 
C 333.243944 40.229631 332.344586 39.857105 331.406952 39.857105 
C 330.469317 39.857105 329.56996 40.229631 328.906952 40.892639 
C 328.243944 41.555647 327.871418 42.455005 327.871418 43.392639 
C 327.871418 44.330274 328.243944 45.229631 328.906952 45.892639 
C 329.56996 46.555647 330.469317 46.928173 331.406952 46.928173 
z
" style="fill:none;stroke:#ff9896;"/>
   </g>
   <g id="PathCollection_37">
    <path clip-path="url(#p31ee21dc26)" d="M 338.369519 50.317481 
C 339.307153 50.317481 340.206511 49.944955 340.869519 49.281947 
C 341.532526 48.61894 341.905053 47.719582 341.905053 46.781947 
C 341.905053 45.844313 341.532526 44.944955 340.869519 44.281947 
C 340.206511 43.61894 339.307153 43.246413 338.369519 43.246413 
C 337.431884 43.246413 336.532526 43.61894 335.869519 44.281947 
C 335.206511 44.944955 334.833985 45.844313 334.833985 46.781947 
C 334.833985 47.719582 335.206511 48.61894 335.869519 49.281947 
C 336.532526 49.944955 337.431884 50.317481 338.369519 50.317481 
z
" style="fill:none;stroke:#ff9896;"/>
   </g>
   <g id="PathCollection_38">
    <path clip-path="url(#p31ee21dc26)" d="M 345.332086 54.391194 
C 346.26972 54.391194 347.169078 54.018668 347.832086 53.35566 
C 348.495093 52.692652 348.867619 51.793295 348.867619 50.85566 
C 348.867619 49.918025 348.495093 49.018668 347.832086 48.35566 
C 347.169078 47.692652 346.26972 47.320126 345.332086 47.320126 
C 344.394451 47.320126 343.495093 47.692652 342.832086 48.35566 
C 342.169078 49.018668 341.796552 49.918025 341.796552 50.85566 
C 341.796552 51.793295 342.169078 52.692652 342.832086 53.35566 
C 343.495093 54.018668 344.394451 54.391194 345.332086 54.391194 
z
" style="fill:none;stroke:#ff9896;"/>
   </g>
   <g id="PathCollection_39">
    <path clip-path="url(#p31ee21dc26)" d="M 352.294652 59.008854 
C 353.232287 59.008854 354.131645 58.636328 354.794652 57.97332 
C 355.45766 57.310312 355.830186 56.410954 355.830186 55.47332 
C 355.830186 54.535685 355.45766 53.636328 354.794652 52.97332 
C 354.131645 52.310312 353.232287 51.937786 352.294652 51.937786 
C 351.357018 51.937786 350.45766 52.310312 349.794652 52.97332 
C 349.131645 53.636328 348.759119 54.535685 348.759119 55.47332 
C 348.759119 56.410954 349.131645 57.310312 349.794652 57.97332 
C 350.45766 58.636328 351.357018 59.008854 352.294652 59.008854 
z
" style="fill:none;stroke:#ff9896;"/>
   </g>
   <g id="PathCollection_40">
    <path clip-path="url(#p31ee21dc26)" d="M 359.257219 64.01625 
C 360.194854 64.01625 361.094212 63.643724 361.757219 62.980716 
C 362.420227 62.317708 362.792753 61.418351 362.792753 60.480716 
C 362.792753 59.543081 362.420227 58.643724 361.757219 57.980716 
C 361.094212 57.317708 360.194854 56.945182 359.257219 56.945182 
C 358.319585 56.945182 357.420227 57.317708 356.757219 57.980716 
C 356.094212 58.643724 355.721685 59.543081 355.721685 60.480716 
C 355.721685 61.418351 356.094212 62.317708 356.757219 62.980716 
C 357.420227 63.643724 358.319585 64.01625 359.257219 64.01625 
z
" style="fill:none;stroke:#ff9896;"/>
   </g>
   <g id="PathCollection_41">
    <path clip-path="url(#p31ee21dc26)" d="M 366.219786 69.25212 
C 367.157421 69.25212 368.056778 68.879594 368.719786 68.216586 
C 369.382794 67.553578 369.75532 66.654221 369.75532 65.716586 
C 369.75532 64.778952 369.382794 63.879594 368.719786 63.216586 
C 368.056778 62.553578 367.157421 62.181052 366.219786 62.181052 
C 365.282152 62.181052 364.382794 62.553578 363.719786 63.216586 
C 363.056778 63.879594 362.684252 64.778952 362.684252 65.716586 
C 362.684252 66.654221 363.056778 67.553578 363.719786 68.216586 
C 364.382794 68.879594 365.282152 69.25212 366.219786 69.25212 
z
" style="fill:none;stroke:#ff9896;"/>
   </g>
   <g id="PathCollection_42">
    <path clip-path="url(#p31ee21dc26)" d="M 373.182353 74.556438 
C 374.119987 74.556438 375.019345 74.183912 375.682353 73.520904 
C 376.345361 72.857896 376.717887 71.958538 376.717887 71.020904 
C 376.717887 70.083269 376.345361 69.183912 375.682353 68.520904 
C 375.019345 67.857896 374.119987 67.48537 373.182353 67.48537 
C 372.244718 67.48537 371.345361 67.857896 370.682353 68.520904 
C 370.019345 69.183912 369.646819 70.083269 369.646819 71.020904 
C 369.646819 71.958538 370.019345 72.857896 370.682353 73.520904 
C 371.345361 74.183912 372.244718 74.556438 373.182353 74.556438 
z
" style="fill:none;stroke:#ff9896;"/>
   </g>
   <g id="PathCollection_43">
    <path clip-path="url(#p31ee21dc26)" d="M 380.14492 79.780399 
C 381.082554 79.780399 381.981912 79.407873 382.64492 78.744865 
C 383.307928 78.081858 383.680454 77.1825 383.680454 76.244865 
C 383.680454 75.307231 383.307928 74.407873 382.64492 73.744865 
C 381.981912 73.081858 381.082554 72.709331 380.14492 72.709331 
C 379.207285 72.709331 378.307928 73.081858 377.64492 73.744865 
C 376.981912 74.407873 376.609386 75.307231 376.609386 76.244865 
C 376.609386 77.1825 376.981912 78.081858 377.64492 78.744865 
C 378.307928 79.407873 379.207285 79.780399 380.14492 79.780399 
z
" style="fill:none;stroke:#ff9896;"/>
   </g>
   <g id="PathCollection_44">
    <path clip-path="url(#p31ee21dc26)" d="M 387.107487 84.798218 
C 388.045121 84.798218 388.944479 84.425692 389.607487 83.762684 
C 390.270494 83.099676 390.643021 82.200319 390.643021 81.262684 
C 390.643021 80.325049 390.270494 79.425692 389.607487 78.762684 
C 388.944479 78.099676 388.045121 77.72715 387.107487 77.72715 
C 386.169852 77.72715 385.270494 78.099676 384.607487 78.762684 
C 383.944479 79.425692 383.571953 80.325049 383.571953 81.262684 
C 383.571953 82.200319 383.944479 83.099676 384.607487 83.762684 
C 385.270494 84.425692 386.169852 84.798218 387.107487 84.798218 
z
" style="fill:none;stroke:#ff9896;"/>
   </g>
   <g id="PathCollection_45">
    <path clip-path="url(#p31ee21dc26)" d="M 394.070053 89.520838 
C 395.007688 89.520838 395.907046 89.148312 396.570053 88.485304 
C 397.233061 87.822296 397.605587 86.922939 397.605587 85.985304 
C 397.605587 85.047669 397.233061 84.148312 396.570053 83.485304 
C 395.907046 82.822296 395.007688 82.44977 394.070053 82.44977 
C 393.132419 82.44977 392.233061 82.822296 391.570053 83.485304 
C 390.907046 84.148312 390.53452 85.047669 390.53452 85.985304 
C 390.53452 86.922939 390.907046 87.822296 391.570053 88.485304 
C 392.233061 89.148312 393.132419 89.520838 394.070053 89.520838 
z
" style="fill:none;stroke:#ff9896;"/>
   </g>
   <g id="PathCollection_46">
    <path clip-path="url(#p31ee21dc26)" d="M 401.03262 93.911675 
C 401.970255 93.911675 402.869613 93.539148 403.53262 92.876141 
C 404.195628 92.213133 404.568154 91.313775 404.568154 90.376141 
C 404.568154 89.438506 404.195628 88.539148 403.53262 87.876141 
C 402.869613 87.213133 401.970255 86.840607 401.03262 86.840607 
C 400.094986 86.840607 399.195628 87.213133 398.53262 87.876141 
C 397.869613 88.539148 397.497086 89.438506 397.497086 90.376141 
C 397.497086 91.313775 397.869613 92.213133 398.53262 92.876141 
C 399.195628 93.539148 400.094986 93.911675 401.03262 93.911675 
z
" style="fill:none;stroke:#ff9896;"/>
   </g>
   <g id="PathCollection_47">
    <path clip-path="url(#p31ee21dc26)" d="M 407.995187 98.004498 
C 408.932822 98.004498 409.832179 97.631972 410.495187 96.968964 
C 411.158195 96.305957 411.530721 95.406599 411.530721 94.468964 
C 411.530721 93.53133 411.158195 92.631972 410.495187 91.968964 
C 409.832179 91.305957 408.932822 90.93343 407.995187 90.93343 
C 407.057553 90.93343 406.158195 91.305957 405.495187 91.968964 
C 404.832179 92.631972 404.459653 93.53133 404.459653 94.468964 
C 404.459653 95.406599 404.832179 96.305957 405.495187 96.968964 
C 406.158195 97.631972 407.057553 98.004498 407.995187 98.004498 
z
" style="fill:none;stroke:#ff9896;"/>
   </g>
   <g id="PathCollection_48">
    <path clip-path="url(#p31ee21dc26)" d="M 414.957754 101.923562 
C 415.895389 101.923562 416.794746 101.551036 417.457754 100.888028 
C 418.120762 100.22502 418.493288 99.325662 418.493288 98.388028 
C 418.493288 97.450393 418.120762 96.551036 417.457754 95.888028 
C 416.794746 95.22502 415.895389 94.852494 414.957754 94.852494 
C 414.020119 94.852494 413.120762 95.22502 412.457754 95.888028 
C 411.794746 96.551036 411.42222 97.450393 411.42222 98.388028 
C 411.42222 99.325662 411.794746 100.22502 412.457754 100.888028 
C 413.120762 101.551036 414.020119 101.923562 414.957754 101.923562 
z
" style="fill:none;stroke:#ff9896;"/>
   </g>
   <g id="PathCollection_49">
    <path clip-path="url(#p31ee21dc26)" d="M 421.920321 105.906092 
C 422.857955 105.906092 423.757313 105.533566 424.420321 104.870559 
C 425.083329 104.207551 425.455855 103.308193 425.455855 102.370559 
C 425.455855 101.432924 425.083329 100.533566 424.420321 99.870559 
C 423.757313 99.207551 422.857955 98.835025 421.920321 98.835025 
C 420.982686 98.835025 420.083329 99.207551 419.420321 99.870559 
C 418.757313 100.533566 418.384787 101.432924 418.384787 102.370559 
C 418.384787 103.308193 418.757313 104.207551 419.420321 104.870559 
C 420.083329 105.533566 420.982686 105.906092 421.920321 105.906092 
z
" style="fill:none;stroke:#ff9896;"/>
   </g>
   <g id="PathCollection_50">
    <path clip-path="url(#p31ee21dc26)" d="M 428.882888 110.327251 
C 429.820522 110.327251 430.71988 109.954725 431.382888 109.291717 
C 432.045895 108.628709 432.418422 107.729352 432.418422 106.791717 
C 432.418422 105.854083 432.045895 104.954725 431.382888 104.291717 
C 430.71988 103.628709 429.820522 103.256183 428.882888 103.256183 
C 427.945253 103.256183 427.045895 103.628709 426.382888 104.291717 
C 425.71988 104.954725 425.347354 105.854083 425.347354 106.791717 
C 425.347354 107.729352 425.71988 108.628709 426.382888 109.291717 
C 427.045895 109.954725 427.945253 110.327251 428.882888 110.327251 
z
" style="fill:none;stroke:#ff9896;"/>
   </g>
   <g id="PathCollection_51">
    <path clip-path="url(#p31ee21dc26)" d="M 435.845455 115.727672 
C 436.783089 115.727672 437.682447 115.355145 438.345455 114.692138 
C 439.008462 114.02913 439.380988 113.129772 439.380988 112.192138 
C 439.380988 111.254503 439.008462 110.355145 438.345455 109.692138 
C 437.682447 109.02913 436.783089 108.656604 435.845455 108.656604 
C 434.90782 108.656604 434.008462 109.02913 433.345455 109.692138 
C 432.682447 110.355145 432.309921 111.254503 432.309921 112.192138 
C 432.309921 113.129772 432.682447 114.02913 433.345455 114.692138 
C 434.008462 115.355145 434.90782 115.727672 435.845455 115.727672 
z
" style="fill:none;stroke:#ff9896;"/>
   </g>
   <g id="PathCollection_52">
    <defs>
     <path d="M 0 3.535534 
C 0.937635 3.535534 1.836992 3.163008 2.5 2.5 
C 3.163008 1.836992 3.535534 0.937635 3.535534 0 
C 3.535534 -0.937635 3.163008 -1.836992 2.5 -2.5 
C 1.836992 -3.163008 0.937635 -3.535534 0 -3.535534 
C -0.937635 -3.535534 -1.836992 -3.163008 -2.5 -2.5 
C -3.163008 -1.836992 -3.535534 -0.937635 -3.535534 0 
C -3.535534 0.937635 -3.163008 1.836992 -2.5 2.5 
C -1.836992 3.163008 -0.937635 3.535534 0 3.535534 
z
" id="m52ae793446" style="stroke:#ff9896;"/>
    </defs>
    <g clip-path="url(#p31ee21dc26)">
     <use style="fill:#ff9896;stroke:#ff9896;" x="87.717112" xlink:href="#m52ae793446" y="189.212322"/>
    </g>
   </g>
   <g id="PathCollection_53">
    <g clip-path="url(#p31ee21dc26)">
     <use style="fill:#ff9896;stroke:#ff9896;" x="94.679679" xlink:href="#m52ae793446" y="190.426253"/>
    </g>
   </g>
   <g id="PathCollection_54">
    <g clip-path="url(#p31ee21dc26)">
     <use style="fill:#ff9896;stroke:#ff9896;" x="101.642246" xlink:href="#m52ae793446" y="190.537853"/>
    </g>
   </g>
   <g id="PathCollection_55">
    <g clip-path="url(#p31ee21dc26)">
     <use style="fill:#ff9896;stroke:#ff9896;" x="108.604813" xlink:href="#m52ae793446" y="189.782784"/>
    </g>
   </g>
   <g id="PathCollection_56">
    <g clip-path="url(#p31ee21dc26)">
     <use style="fill:#ff9896;stroke:#ff9896;" x="115.56738" xlink:href="#m52ae793446" y="188.322135"/>
    </g>
   </g>
   <g id="PathCollection_57">
    <g clip-path="url(#p31ee21dc26)">
     <use style="fill:#ff9896;stroke:#ff9896;" x="122.529947" xlink:href="#m52ae793446" y="186.268317"/>
    </g>
   </g>
   <g id="PathCollection_58">
    <g clip-path="url(#p31ee21dc26)">
     <use style="fill:#ff9896;stroke:#ff9896;" x="129.492513" xlink:href="#m52ae793446" y="183.687104"/>
    </g>
   </g>
   <g id="PathCollection_59">
    <g clip-path="url(#p31ee21dc26)">
     <use style="fill:#ff9896;stroke:#ff9896;" x="136.45508" xlink:href="#m52ae793446" y="180.614673"/>
    </g>
   </g>
   <g id="PathCollection_60">
    <g clip-path="url(#p31ee21dc26)">
     <use style="fill:#ff9896;stroke:#ff9896;" x="143.417647" xlink:href="#m52ae793446" y="177.066466"/>
    </g>
   </g>
   <g id="PathCollection_61">
    <g clip-path="url(#p31ee21dc26)">
     <use style="fill:#ff9896;stroke:#ff9896;" x="150.380214" xlink:href="#m52ae793446" y="173.045715"/>
    </g>
   </g>
   <g id="PathCollection_62">
    <g clip-path="url(#p31ee21dc26)">
     <use style="fill:#ff9896;stroke:#ff9896;" x="157.342781" xlink:href="#m52ae793446" y="168.550599"/>
    </g>
   </g>
   <g id="PathCollection_63">
    <g clip-path="url(#p31ee21dc26)">
     <use style="fill:#ff9896;stroke:#ff9896;" x="164.305348" xlink:href="#m52ae793446" y="163.580128"/>
    </g>
   </g>
   <g id="PathCollection_64">
    <g clip-path="url(#p31ee21dc26)">
     <use style="fill:#ff9896;stroke:#ff9896;" x="171.267914" xlink:href="#m52ae793446" y="158.138819"/>
    </g>
   </g>
   <g id="PathCollection_65">
    <g clip-path="url(#p31ee21dc26)">
     <use style="fill:#ff9896;stroke:#ff9896;" x="178.230481" xlink:href="#m52ae793446" y="152.240278"/>
    </g>
   </g>
   <g id="PathCollection_66">
    <g clip-path="url(#p31ee21dc26)">
     <use style="fill:#ff9896;stroke:#ff9896;" x="185.193048" xlink:href="#m52ae793446" y="145.909735"/>
    </g>
   </g>
   <g id="PathCollection_67">
    <g clip-path="url(#p31ee21dc26)">
     <use style="fill:#ff9896;stroke:#ff9896;" x="192.155615" xlink:href="#m52ae793446" y="139.185652"/>
    </g>
   </g>
   <g id="PathCollection_68">
    <g clip-path="url(#p31ee21dc26)">
     <use style="fill:#ff9896;stroke:#ff9896;" x="199.118182" xlink:href="#m52ae793446" y="132.120458"/>
    </g>
   </g>
   <g id="PathCollection_69">
    <g clip-path="url(#p31ee21dc26)">
     <use style="fill:#ff9896;stroke:#ff9896;" x="206.080749" xlink:href="#m52ae793446" y="124.780519"/>
    </g>
   </g>
   <g id="PathCollection_70">
    <g clip-path="url(#p31ee21dc26)">
     <use style="fill:#ff9896;stroke:#ff9896;" x="213.043316" xlink:href="#m52ae793446" y="117.245406"/>
    </g>
   </g>
   <g id="PathCollection_71">
    <g clip-path="url(#p31ee21dc26)">
     <use style="fill:#ff9896;stroke:#ff9896;" x="220.005882" xlink:href="#m52ae793446" y="109.606565"/>
    </g>
   </g>
   <g id="PathCollection_72">
    <g clip-path="url(#p31ee21dc26)">
     <use style="fill:#ff9896;stroke:#ff9896;" x="226.968449" xlink:href="#m52ae793446" y="101.965454"/>
    </g>
   </g>
   <g id="PathCollection_73">
    <g clip-path="url(#p31ee21dc26)">
     <use style="fill:#ff9896;stroke:#ff9896;" x="233.931016" xlink:href="#m52ae793446" y="94.431247"/>
    </g>
   </g>
   <g id="PathCollection_74">
    <g clip-path="url(#p31ee21dc26)">
     <use style="fill:#ff9896;stroke:#ff9896;" x="240.893583" xlink:href="#m52ae793446" y="87.118176"/>
    </g>
   </g>
   <g id="PathCollection_75">
    <g clip-path="url(#p31ee21dc26)">
     <use style="fill:#ff9896;stroke:#ff9896;" x="247.85615" xlink:href="#m52ae793446" y="80.142608"/>
    </g>
   </g>
   <g id="PathCollection_76">
    <g clip-path="url(#p31ee21dc26)">
     <use style="fill:#ff9896;stroke:#ff9896;" x="254.818717" xlink:href="#m52ae793446" y="73.619929"/>
    </g>
   </g>
   <g id="PathCollection_77">
    <g clip-path="url(#p31ee21dc26)">
     <use style="fill:#ff9896;stroke:#ff9896;" x="261.781283" xlink:href="#m52ae793446" y="67.661322"/>
    </g>
   </g>
   <g id="PathCollection_78">
    <g clip-path="url(#p31ee21dc26)">
     <use style="fill:#ff9896;stroke:#ff9896;" x="268.74385" xlink:href="#m52ae793446" y="62.370531"/>
    </g>
   </g>
   <g id="PathCollection_79">
    <g clip-path="url(#p31ee21dc26)">
     <use style="fill:#ff9896;stroke:#ff9896;" x="275.706417" xlink:href="#m52ae793446" y="57.840685"/>
    </g>
   </g>
   <g id="PathCollection_80">
    <g clip-path="url(#p31ee21dc26)">
     <use style="fill:#ff9896;stroke:#ff9896;" x="282.668984" xlink:href="#m52ae793446" y="54.151271"/>
    </g>
   </g>
   <g id="PathCollection_81">
    <g clip-path="url(#p31ee21dc26)">
     <use style="fill:#ff9896;stroke:#ff9896;" x="289.631551" xlink:href="#m52ae793446" y="51.365337"/>
    </g>
   </g>
   <g id="PathCollection_82">
    <g clip-path="url(#p31ee21dc26)">
     <use style="fill:#ff9896;stroke:#ff9896;" x="296.594118" xlink:href="#m52ae793446" y="49.527011"/>
    </g>
   </g>
   <g id="PathCollection_83">
    <g clip-path="url(#p31ee21dc26)">
     <use style="fill:#ff9896;stroke:#ff9896;" x="303.556684" xlink:href="#m52ae793446" y="48.659426"/>
    </g>
   </g>
   <g id="PathCollection_84">
    <g clip-path="url(#p31ee21dc26)">
     <use style="fill:#ff9896;stroke:#ff9896;" x="310.519251" xlink:href="#m52ae793446" y="48.763118"/>
    </g>
   </g>
   <g id="PathCollection_85">
    <g clip-path="url(#p31ee21dc26)">
     <use style="fill:#ff9896;stroke:#ff9896;" x="317.481818" xlink:href="#m52ae793446" y="49.815001"/>
    </g>
   </g>
   <g id="PathCollection_86">
    <g clip-path="url(#p31ee21dc26)">
     <use style="fill:#ff9896;stroke:#ff9896;" x="324.444385" xlink:href="#m52ae793446" y="51.767986"/>
    </g>
   </g>
   <g id="PathCollection_87">
    <g clip-path="url(#p31ee21dc26)">
     <use style="fill:#ff9896;stroke:#ff9896;" x="331.406952" xlink:href="#m52ae793446" y="54.551345"/>
    </g>
   </g>
   <g id="PathCollection_88">
    <g clip-path="url(#p31ee21dc26)">
     <use style="fill:#ff9896;stroke:#ff9896;" x="338.369519" xlink:href="#m52ae793446" y="58.071884"/>
    </g>
   </g>
   <g id="PathCollection_89">
    <g clip-path="url(#p31ee21dc26)">
     <use style="fill:#ff9896;stroke:#ff9896;" x="345.332086" xlink:href="#m52ae793446" y="62.216027"/>
    </g>
   </g>
   <g id="PathCollection_90">
    <g clip-path="url(#p31ee21dc26)">
     <use style="fill:#ff9896;stroke:#ff9896;" x="352.294652" xlink:href="#m52ae793446" y="66.852886"/>
    </g>
   </g>
   <g id="PathCollection_91">
    <g clip-path="url(#p31ee21dc26)">
     <use style="fill:#ff9896;stroke:#ff9896;" x="359.257219" xlink:href="#m52ae793446" y="71.838398"/>
    </g>
   </g>
   <g id="PathCollection_92">
    <g clip-path="url(#p31ee21dc26)">
     <use style="fill:#ff9896;stroke:#ff9896;" x="366.219786" xlink:href="#m52ae793446" y="77.020629"/>
    </g>
   </g>
   <g id="PathCollection_93">
    <g clip-path="url(#p31ee21dc26)">
     <use style="fill:#ff9896;stroke:#ff9896;" x="373.182353" xlink:href="#m52ae793446" y="82.246299"/>
    </g>
   </g>
   <g id="PathCollection_94">
    <g clip-path="url(#p31ee21dc26)">
     <use style="fill:#ff9896;stroke:#ff9896;" x="380.14492" xlink:href="#m52ae793446" y="87.36865"/>
    </g>
   </g>
   <g id="PathCollection_95">
    <g clip-path="url(#p31ee21dc26)">
     <use style="fill:#ff9896;stroke:#ff9896;" x="387.107487" xlink:href="#m52ae793446" y="92.256708"/>
    </g>
   </g>
   <g id="PathCollection_96">
    <g clip-path="url(#p31ee21dc26)">
     <use style="fill:#ff9896;stroke:#ff9896;" x="394.070053" xlink:href="#m52ae793446" y="96.806045"/>
    </g>
   </g>
   <g id="PathCollection_97">
    <g clip-path="url(#p31ee21dc26)">
     <use style="fill:#ff9896;stroke:#ff9896;" x="401.03262" xlink:href="#m52ae793446" y="100.951104"/>
    </g>
   </g>
   <g id="PathCollection_98">
    <g clip-path="url(#p31ee21dc26)">
     <use style="fill:#ff9896;stroke:#ff9896;" x="407.995187" xlink:href="#m52ae793446" y="104.679202"/>
    </g>
   </g>
   <g id="PathCollection_99">
    <g clip-path="url(#p31ee21dc26)">
     <use style="fill:#ff9896;stroke:#ff9896;" x="414.957754" xlink:href="#m52ae793446" y="108.046257"/>
    </g>
   </g>
   <g id="PathCollection_100">
    <g clip-path="url(#p31ee21dc26)">
     <use style="fill:#ff9896;stroke:#ff9896;" x="421.920321" xlink:href="#m52ae793446" y="111.194357"/>
    </g>
   </g>
   <g id="PathCollection_101">
    <g clip-path="url(#p31ee21dc26)">
     <use style="fill:#ff9896;stroke:#ff9896;" x="428.882888" xlink:href="#m52ae793446" y="114.371232"/>
    </g>
   </g>
   <g id="PathCollection_102">
    <g clip-path="url(#p31ee21dc26)">
     <use style="fill:#ff9896;stroke:#ff9896;" x="435.845455" xlink:href="#m52ae793446" y="117.95172"/>
    </g>
   </g>
   <g id="matplotlib.axis_1"/>
   <g id="matplotlib.axis_2"/>
   <g id="line2d_1">
    <path clip-path="url(#p31ee21dc26)" d="M 80.754545 189 
L 121.166444 188.889534 
L 124.676738 188.582585 
L 128.1 188.060193 
L 131.610294 187.299263 
L 135.265642 186.277629 
L 139.066043 184.984016 
L 143.069519 183.384747 
L 147.30508 181.449504 
L 151.772727 179.160373 
L 156.530481 176.468555 
L 161.607353 173.33628 
L 167.061364 169.705552 
L 172.950535 165.514035 
L 179.41992 160.630574 
L 186.585561 154.935222 
L 194.708556 148.184758 
L 204.108021 140.07547 
L 215.944385 129.553041 
L 234.743316 112.495896 
L 259.054278 90.502672 
L 273.414572 77.823812 
L 285.802139 67.177574 
L 290.530882 63.334642 
L 294.215241 60.628496 
L 297.783556 58.280385 
L 301.380882 56.178778 
L 305.007219 54.316678 
L 308.691578 52.67342 
L 312.462968 51.235345 
L 316.32139 50.003694 
L 320.266845 48.978801 
L 324.328342 48.155048 
L 328.505882 47.535693 
L 332.828476 47.120689 
L 337.325134 46.914427 
L 341.995856 46.924362 
L 346.869652 47.157951 
L 352.004545 47.628798 
L 357.400535 48.348534 
L 363.115642 49.33657 
L 369.207888 50.617245 
L 375.764305 52.225907 
L 382.842914 54.194794 
L 390.58877 56.58358 
L 399.204947 59.478355 
L 408.981551 63.003554 
L 420.527807 67.411936 
L 435.23623 73.279455 
L 435.845455 73.526528 
L 435.845455 73.526528 
" style="fill:none;stroke:#ff9896;stroke-dasharray:11.1,4.8;stroke-dashoffset:0;stroke-width:3;"/>
   </g>
   <g id="line2d_2">
    <path clip-path="url(#p31ee21dc26)" d="M 80.754545 189 
L 121.311497 188.89013 
L 124.937834 188.583854 
L 128.50615 188.058658 
L 132.161497 187.295397 
L 135.961898 186.274253 
L 139.965374 184.965274 
L 144.171925 183.352151 
L 148.581551 181.421122 
L 153.281283 179.117079 
L 158.271123 176.419876 
L 163.609091 173.278952 
L 169.382219 169.619659 
L 175.67754 165.36002 
L 182.582086 160.413742 
L 190.29893 154.605844 
L 199.205214 147.614351 
L 209.88115 138.938226 
L 224.241444 126.960767 
L 264.97246 92.845125 
L 278.578476 81.826336 
L 288.674198 73.904974 
L 292.648663 71.071729 
L 296.333021 68.715986 
L 300.01738 66.623379 
L 303.730749 64.768755 
L 307.502139 63.131765 
L 311.360561 61.69854 
L 315.306016 60.469649 
L 319.367513 59.438214 
L 323.545053 58.60776 
L 327.867647 57.977079 
L 332.335294 57.551536 
L 336.977005 57.3342 
L 341.821791 57.33177 
L 346.898663 57.553936 
L 352.236631 58.012725 
L 357.864706 58.721813 
L 363.840909 59.70108 
L 370.223262 60.974539 
L 377.098797 62.57601 
L 384.583556 64.551696 
L 392.822594 66.961382 
L 402.047995 69.897001 
L 412.665909 73.516325 
L 425.488636 78.131995 
L 435.845455 81.987438 
L 435.845455 81.987438 
" style="fill:none;stroke:#ff9896;stroke-linecap:square;stroke-width:3;"/>
   </g>
   <g id="patch_3">
    <path d="M 63 189 
L 63 25.92 
" style="fill:none;stroke:#000000;stroke-linecap:square;stroke-linejoin:miter;stroke-width:0.8;"/>
   </g>
   <g id="patch_4">
    <path d="M 453.6 189 
L 453.6 25.92 
" style="fill:none;stroke:#000000;stroke-linecap:square;stroke-linejoin:miter;stroke-width:0.8;"/>
   </g>
   <g id="patch_5">
    <path d="M 63 189 
L 453.6 189 
" style="fill:none;stroke:#000000;stroke-linecap:square;stroke-linejoin:miter;stroke-width:0.8;"/>
   </g>
   <g id="patch_6">
    <path d="M 63 25.92 
L 453.6 25.92 
" style="fill:none;stroke:#000000;stroke-linecap:square;stroke-linejoin:miter;stroke-width:0.8;"/>
   </g>
  </g>
 </g>
 <defs>
  <clipPath id="p31ee21dc26">
   <rect height="163.08" width="390.6" x="63" y="25.92"/>
  </clipPath>
 </defs>
</svg>
