<?xml version="1.0" encoding="utf-8" standalone="no"?>
<!DOCTYPE svg PUBLIC "-//W3C//DTD SVG 1.1//EN"
  "http://www.w3.org/Graphics/SVG/1.1/DTD/svg11.dtd">
<!-- Created with matplotlib (https://matplotlib.org/) -->
<svg height="216pt" version="1.1" viewBox="0 0 360 216" width="360pt" xmlns="http://www.w3.org/2000/svg" xmlns:xlink="http://www.w3.org/1999/xlink">
 <metadata>
  <rdf:RDF xmlns:cc="http://creativecommons.org/ns#" xmlns:dc="http://purl.org/dc/elements/1.1/" xmlns:rdf="http://www.w3.org/1999/02/22-rdf-syntax-ns#">
   <cc:Work>
    <dc:type rdf:resource="http://purl.org/dc/dcmitype/StillImage"/>
    <dc:date>2024-12-04T13:21:05.844000</dc:date>
    <dc:format>image/svg+xml</dc:format>
    <dc:creator>
     <cc:Agent>
      <dc:title>Matplotlib v3.3.2, https://matplotlib.org/</dc:title>
     </cc:Agent>
    </dc:creator>
   </cc:Work>
  </rdf:RDF>
 </metadata>
 <defs>
  <style type="text/css">*{stroke-linecap:butt;stroke-linejoin:round;}</style>
 </defs>
 <g id="figure_1">
  <g id="patch_1">
   <path d="M 0 216 
L 360 216 
L 360 0 
L 0 0 
z
" style="fill:none;"/>
  </g>
  <g id="axes_1">
   <g id="patch_2">
    <path d="M 45 189 
L 324 189 
L 324 25.92 
L 45 25.92 
z
" style="fill:#ffffff;"/>
   </g>
   <g id="PathCollection_1">
    <path clip-path="url(#p5b5e0f1530)" d="M 62.65508 185.099682 
C 63.592715 185.099682 64.492072 184.727156 65.15508 184.064148 
C 65.818088 183.40114 66.190614 182.501783 66.190614 181.564148 
C 66.190614 180.626514 65.818088 179.727156 65.15508 179.064148 
C 64.492072 178.40114 63.592715 178.028614 62.65508 178.028614 
C 61.717446 178.028614 60.818088 178.40114 60.15508 179.064148 
C 59.492072 179.727156 59.119546 180.626514 59.119546 181.564148 
C 59.119546 182.501783 59.492072 183.40114 60.15508 184.064148 
C 60.818088 184.727156 61.717446 185.099682 62.65508 185.099682 
z
" style="fill:none;stroke:#2ca02c;"/>
   </g>
   <g id="PathCollection_2">
    <path clip-path="url(#p5b5e0f1530)" d="M 67.628342 185.04541 
C 68.565977 185.04541 69.465334 184.672884 70.128342 184.009876 
C 70.79135 183.346868 71.163876 182.447511 71.163876 181.509876 
C 71.163876 180.572241 70.79135 179.672884 70.128342 179.009876 
C 69.465334 178.346868 68.565977 177.974342 67.628342 177.974342 
C 66.690708 177.974342 65.79135 178.346868 65.128342 179.009876 
C 64.465334 179.672884 64.092808 180.572241 64.092808 181.509876 
C 64.092808 182.447511 64.465334 183.346868 65.128342 184.009876 
C 65.79135 184.672884 66.690708 185.04541 67.628342 185.04541 
z
" style="fill:none;stroke:#2ca02c;"/>
   </g>
   <g id="PathCollection_3">
    <path clip-path="url(#p5b5e0f1530)" d="M 72.601604 184.829629 
C 73.539239 184.829629 74.438597 184.457103 75.101604 183.794095 
C 75.764612 183.131087 76.137138 182.23173 76.137138 181.294095 
C 76.137138 180.356461 75.764612 179.457103 75.101604 178.794095 
C 74.438597 178.131087 73.539239 177.758561 72.601604 177.758561 
C 71.66397 177.758561 70.764612 178.131087 70.101604 178.794095 
C 69.438597 179.457103 69.06607 180.356461 69.06607 181.294095 
C 69.06607 182.23173 69.438597 183.131087 70.101604 183.794095 
C 70.764612 184.457103 71.66397 184.829629 72.601604 184.829629 
z
" style="fill:none;stroke:#2ca02c;"/>
   </g>
   <g id="PathCollection_4">
    <path clip-path="url(#p5b5e0f1530)" d="M 77.574866 184.404747 
C 78.512501 184.404747 79.411859 184.032221 80.074866 183.369213 
C 80.737874 182.706206 81.1104 181.806848 81.1104 180.869213 
C 81.1104 179.931579 80.737874 179.032221 80.074866 178.369213 
C 79.411859 177.706206 78.512501 177.333679 77.574866 177.333679 
C 76.637232 177.333679 75.737874 177.706206 75.074866 178.369213 
C 74.411859 179.032221 74.039332 179.931579 74.039332 180.869213 
C 74.039332 181.806848 74.411859 182.706206 75.074866 183.369213 
C 75.737874 184.032221 76.637232 184.404747 77.574866 184.404747 
z
" style="fill:none;stroke:#2ca02c;"/>
   </g>
   <g id="PathCollection_5">
    <path clip-path="url(#p5b5e0f1530)" d="M 82.548128 183.744305 
C 83.485763 183.744305 84.385121 183.371779 85.048128 182.708771 
C 85.711136 182.045763 86.083662 181.146405 86.083662 180.208771 
C 86.083662 179.271136 85.711136 178.371779 85.048128 177.708771 
C 84.385121 177.045763 83.485763 176.673237 82.548128 176.673237 
C 81.610494 176.673237 80.711136 177.045763 80.048128 177.708771 
C 79.385121 178.371779 79.012594 179.271136 79.012594 180.208771 
C 79.012594 181.146405 79.385121 182.045763 80.048128 182.708771 
C 80.711136 183.371779 81.610494 183.744305 82.548128 183.744305 
z
" style="fill:none;stroke:#2ca02c;"/>
   </g>
   <g id="PathCollection_6">
    <path clip-path="url(#p5b5e0f1530)" d="M 87.52139 182.8382 
C 88.459025 182.8382 89.358383 182.465674 90.02139 181.802666 
C 90.684398 181.139659 91.056924 180.240301 91.056924 179.302666 
C 91.056924 178.365032 90.684398 177.465674 90.02139 176.802666 
C 89.358383 176.139659 88.459025 175.767133 87.52139 175.767133 
C 86.583756 175.767133 85.684398 176.139659 85.02139 176.802666 
C 84.358383 177.465674 83.985856 178.365032 83.985856 179.302666 
C 83.985856 180.240301 84.358383 181.139659 85.02139 181.802666 
C 85.684398 182.465674 86.583756 182.8382 87.52139 182.8382 
z
" style="fill:none;stroke:#2ca02c;"/>
   </g>
   <g id="PathCollection_7">
    <path clip-path="url(#p5b5e0f1530)" d="M 92.494652 181.688509 
C 93.432287 181.688509 94.331645 181.315983 94.994652 180.652976 
C 95.65766 179.989968 96.030186 179.09061 96.030186 178.152976 
C 96.030186 177.215341 95.65766 176.315983 94.994652 175.652976 
C 94.331645 174.989968 93.432287 174.617442 92.494652 174.617442 
C 91.557018 174.617442 90.65766 174.989968 89.994652 175.652976 
C 89.331645 176.315983 88.959119 177.215341 88.959119 178.152976 
C 88.959119 179.09061 89.331645 179.989968 89.994652 180.652976 
C 90.65766 181.315983 91.557018 181.688509 92.494652 181.688509 
z
" style="fill:none;stroke:#2ca02c;"/>
   </g>
   <g id="PathCollection_8">
    <path clip-path="url(#p5b5e0f1530)" d="M 97.467914 180.305881 
C 98.405549 180.305881 99.304907 179.933355 99.967914 179.270347 
C 100.630922 178.607339 101.003448 177.707982 101.003448 176.770347 
C 101.003448 175.832713 100.630922 174.933355 99.967914 174.270347 
C 99.304907 173.607339 98.405549 173.234813 97.467914 173.234813 
C 96.53028 173.234813 95.630922 173.607339 94.967914 174.270347 
C 94.304907 174.933355 93.932381 175.832713 93.932381 176.770347 
C 93.932381 177.707982 94.304907 178.607339 94.967914 179.270347 
C 95.630922 179.933355 96.53028 180.305881 97.467914 180.305881 
z
" style="fill:none;stroke:#2ca02c;"/>
   </g>
   <g id="PathCollection_9">
    <path clip-path="url(#p5b5e0f1530)" d="M 102.441176 178.706474 
C 103.378811 178.706474 104.278169 178.333948 104.941176 177.67094 
C 105.604184 177.007933 105.97671 176.108575 105.97671 175.17094 
C 105.97671 174.233306 105.604184 173.333948 104.941176 172.67094 
C 104.278169 172.007933 103.378811 171.635406 102.441176 171.635406 
C 101.503542 171.635406 100.604184 172.007933 99.941176 172.67094 
C 99.278169 173.333948 98.905643 174.233306 98.905643 175.17094 
C 98.905643 176.108575 99.278169 177.007933 99.941176 177.67094 
C 100.604184 178.333948 101.503542 178.706474 102.441176 178.706474 
z
" style="fill:none;stroke:#2ca02c;"/>
   </g>
   <g id="PathCollection_10">
    <path clip-path="url(#p5b5e0f1530)" d="M 107.414439 176.90941 
C 108.352073 176.90941 109.251431 176.536884 109.914439 175.873876 
C 110.577446 175.210869 110.949972 174.311511 110.949972 173.373876 
C 110.949972 172.436242 110.577446 171.536884 109.914439 170.873876 
C 109.251431 170.210869 108.352073 169.838342 107.414439 169.838342 
C 106.476804 169.838342 105.577446 170.210869 104.914439 170.873876 
C 104.251431 171.536884 103.878905 172.436242 103.878905 173.373876 
C 103.878905 174.311511 104.251431 175.210869 104.914439 175.873876 
C 105.577446 176.536884 106.476804 176.90941 107.414439 176.90941 
z
" style="fill:none;stroke:#2ca02c;"/>
   </g>
   <g id="PathCollection_11">
    <path clip-path="url(#p5b5e0f1530)" d="M 112.387701 174.934693 
C 113.325335 174.934693 114.224693 174.562167 114.887701 173.899159 
C 115.550708 173.236151 115.923234 172.336794 115.923234 171.399159 
C 115.923234 170.461525 115.550708 169.562167 114.887701 168.899159 
C 114.224693 168.236151 113.325335 167.863625 112.387701 167.863625 
C 111.450066 167.863625 110.550708 168.236151 109.887701 168.899159 
C 109.224693 169.562167 108.852167 170.461525 108.852167 171.399159 
C 108.852167 172.336794 109.224693 173.236151 109.887701 173.899159 
C 110.550708 174.562167 111.450066 174.934693 112.387701 174.934693 
z
" style="fill:none;stroke:#2ca02c;"/>
   </g>
   <g id="PathCollection_12">
    <path clip-path="url(#p5b5e0f1530)" d="M 117.360963 172.801577 
C 118.298597 172.801577 119.197955 172.429051 119.860963 171.766043 
C 120.52397 171.103035 120.896496 170.203678 120.896496 169.266043 
C 120.896496 168.328409 120.52397 167.429051 119.860963 166.766043 
C 119.197955 166.103035 118.298597 165.730509 117.360963 165.730509 
C 116.423328 165.730509 115.52397 166.103035 114.860963 166.766043 
C 114.197955 167.429051 113.825429 168.328409 113.825429 169.266043 
C 113.825429 170.203678 114.197955 171.103035 114.860963 171.766043 
C 115.52397 172.429051 116.423328 172.801577 117.360963 172.801577 
z
" style="fill:none;stroke:#2ca02c;"/>
   </g>
   <g id="PathCollection_13">
    <path clip-path="url(#p5b5e0f1530)" d="M 122.334225 170.527339 
C 123.271859 170.527339 124.171217 170.154813 124.834225 169.491806 
C 125.497232 168.828798 125.869759 167.92944 125.869759 166.991806 
C 125.869759 166.054171 125.497232 165.154813 124.834225 164.491806 
C 124.171217 163.828798 123.271859 163.456272 122.334225 163.456272 
C 121.39659 163.456272 120.497232 163.828798 119.834225 164.491806 
C 119.171217 165.154813 118.798691 166.054171 118.798691 166.991806 
C 118.798691 167.92944 119.171217 168.828798 119.834225 169.491806 
C 120.497232 170.154813 121.39659 170.527339 122.334225 170.527339 
z
" style="fill:none;stroke:#2ca02c;"/>
   </g>
   <g id="PathCollection_14">
    <path clip-path="url(#p5b5e0f1530)" d="M 127.307487 168.126424 
C 128.245121 168.126424 129.144479 167.753898 129.807487 167.09089 
C 130.470494 166.427882 130.843021 165.528524 130.843021 164.59089 
C 130.843021 163.653255 130.470494 162.753898 129.807487 162.09089 
C 129.144479 161.427882 128.245121 161.055356 127.307487 161.055356 
C 126.369852 161.055356 125.470494 161.427882 124.807487 162.09089 
C 124.144479 162.753898 123.771953 163.653255 123.771953 164.59089 
C 123.771953 165.528524 124.144479 166.427882 124.807487 167.09089 
C 125.470494 167.753898 126.369852 168.126424 127.307487 168.126424 
z
" style="fill:none;stroke:#2ca02c;"/>
   </g>
   <g id="PathCollection_15">
    <path clip-path="url(#p5b5e0f1530)" d="M 132.280749 165.609927 
C 133.218383 165.609927 134.117741 165.237401 134.780749 164.574393 
C 135.443756 163.911385 135.816283 163.012027 135.816283 162.074393 
C 135.816283 161.136758 135.443756 160.237401 134.780749 159.574393 
C 134.117741 158.911385 133.218383 158.538859 132.280749 158.538859 
C 131.343114 158.538859 130.443756 158.911385 129.780749 159.574393 
C 129.117741 160.237401 128.745215 161.136758 128.745215 162.074393 
C 128.745215 163.012027 129.117741 163.911385 129.780749 164.574393 
C 130.443756 165.237401 131.343114 165.609927 132.280749 165.609927 
z
" style="fill:none;stroke:#2ca02c;"/>
   </g>
   <g id="PathCollection_16">
    <path clip-path="url(#p5b5e0f1530)" d="M 137.254011 162.985385 
C 138.191645 162.985385 139.091003 162.612858 139.754011 161.949851 
C 140.417018 161.286843 140.789545 160.387485 140.789545 159.449851 
C 140.789545 158.512216 140.417018 157.612858 139.754011 156.949851 
C 139.091003 156.286843 138.191645 155.914317 137.254011 155.914317 
C 136.316376 155.914317 135.417018 156.286843 134.754011 156.949851 
C 134.091003 157.612858 133.718477 158.512216 133.718477 159.449851 
C 133.718477 160.387485 134.091003 161.286843 134.754011 161.949851 
C 135.417018 162.612858 136.316376 162.985385 137.254011 162.985385 
z
" style="fill:none;stroke:#2ca02c;"/>
   </g>
   <g id="PathCollection_17">
    <path clip-path="url(#p5b5e0f1530)" d="M 142.227273 160.256835 
C 143.164907 160.256835 144.064265 159.884309 144.727273 159.221301 
C 145.39028 158.558294 145.762807 157.658936 145.762807 156.721301 
C 145.762807 155.783667 145.39028 154.884309 144.727273 154.221301 
C 144.064265 153.558294 143.164907 153.185768 142.227273 153.185768 
C 141.289638 153.185768 140.39028 153.558294 139.727273 154.221301 
C 139.064265 154.884309 138.691739 155.783667 138.691739 156.721301 
C 138.691739 157.658936 139.064265 158.558294 139.727273 159.221301 
C 140.39028 159.884309 141.289638 160.256835 142.227273 160.256835 
z
" style="fill:none;stroke:#2ca02c;"/>
   </g>
   <g id="PathCollection_18">
    <path clip-path="url(#p5b5e0f1530)" d="M 147.200535 157.425113 
C 148.138169 157.425113 149.037527 157.052587 149.700535 156.389579 
C 150.363543 155.726571 150.736069 154.827214 150.736069 153.889579 
C 150.736069 152.951945 150.363543 152.052587 149.700535 151.389579 
C 149.037527 150.726571 148.138169 150.354045 147.200535 150.354045 
C 146.2629 150.354045 145.363543 150.726571 144.700535 151.389579 
C 144.037527 152.052587 143.665001 152.951945 143.665001 153.889579 
C 143.665001 154.827214 144.037527 155.726571 144.700535 156.389579 
C 145.363543 157.052587 146.2629 157.425113 147.200535 157.425113 
z
" style="fill:none;stroke:#2ca02c;"/>
   </g>
   <g id="PathCollection_19">
    <path clip-path="url(#p5b5e0f1530)" d="M 152.173797 154.488347 
C 153.111431 154.488347 154.010789 154.115821 154.673797 153.452813 
C 155.336805 152.789805 155.709331 151.890448 155.709331 150.952813 
C 155.709331 150.015179 155.336805 149.115821 154.673797 148.452813 
C 154.010789 147.789805 153.111431 147.417279 152.173797 147.417279 
C 151.236162 147.417279 150.336805 147.789805 149.673797 148.452813 
C 149.010789 149.115821 148.638263 150.015179 148.638263 150.952813 
C 148.638263 151.890448 149.010789 152.789805 149.673797 153.452813 
C 150.336805 154.115821 151.236162 154.488347 152.173797 154.488347 
z
" style="fill:none;stroke:#2ca02c;"/>
   </g>
   <g id="PathCollection_20">
    <path clip-path="url(#p5b5e0f1530)" d="M 157.147059 151.442629 
C 158.084693 151.442629 158.984051 151.070102 159.647059 150.407095 
C 160.310067 149.744087 160.682593 148.844729 160.682593 147.907095 
C 160.682593 146.96946 160.310067 146.070102 159.647059 145.407095 
C 158.984051 144.744087 158.084693 144.371561 157.147059 144.371561 
C 156.209424 144.371561 155.310067 144.744087 154.647059 145.407095 
C 153.984051 146.070102 153.611525 146.96946 153.611525 147.907095 
C 153.611525 148.844729 153.984051 149.744087 154.647059 150.407095 
C 155.310067 151.070102 156.209424 151.442629 157.147059 151.442629 
z
" style="fill:none;stroke:#2ca02c;"/>
   </g>
   <g id="PathCollection_21">
    <path clip-path="url(#p5b5e0f1530)" d="M 162.120321 148.282811 
C 163.057955 148.282811 163.957313 147.910284 164.620321 147.247277 
C 165.283329 146.584269 165.655855 145.684911 165.655855 144.747277 
C 165.655855 143.809642 165.283329 142.910284 164.620321 142.247277 
C 163.957313 141.584269 163.057955 141.211743 162.120321 141.211743 
C 161.182686 141.211743 160.283329 141.584269 159.620321 142.247277 
C 158.957313 142.910284 158.584787 143.809642 158.584787 144.747277 
C 158.584787 145.684911 158.957313 146.584269 159.620321 147.247277 
C 160.283329 147.910284 161.182686 148.282811 162.120321 148.282811 
z
" style="fill:none;stroke:#2ca02c;"/>
   </g>
   <g id="PathCollection_22">
    <path clip-path="url(#p5b5e0f1530)" d="M 167.093583 145.00341 
C 168.031217 145.00341 168.930575 144.630884 169.593583 143.967876 
C 170.256591 143.304868 170.629117 142.405511 170.629117 141.467876 
C 170.629117 140.530241 170.256591 139.630884 169.593583 138.967876 
C 168.930575 138.304868 168.031217 137.932342 167.093583 137.932342 
C 166.155948 137.932342 165.256591 138.304868 164.593583 138.967876 
C 163.930575 139.630884 163.558049 140.530241 163.558049 141.467876 
C 163.558049 142.405511 163.930575 143.304868 164.593583 143.967876 
C 165.256591 144.630884 166.155948 145.00341 167.093583 145.00341 
z
" style="fill:none;stroke:#2ca02c;"/>
   </g>
   <g id="PathCollection_23">
    <path clip-path="url(#p5b5e0f1530)" d="M 172.066845 141.599573 
C 173.004479 141.599573 173.903837 141.227047 174.566845 140.564039 
C 175.229853 139.901031 175.602379 139.001673 175.602379 138.064039 
C 175.602379 137.126404 175.229853 136.227047 174.566845 135.564039 
C 173.903837 134.901031 173.004479 134.528505 172.066845 134.528505 
C 171.12921 134.528505 170.229853 134.901031 169.566845 135.564039 
C 168.903837 136.227047 168.531311 137.126404 168.531311 138.064039 
C 168.531311 139.001673 168.903837 139.901031 169.566845 140.564039 
C 170.229853 141.227047 171.12921 141.599573 172.066845 141.599573 
z
" style="fill:none;stroke:#2ca02c;"/>
   </g>
   <g id="PathCollection_24">
    <path clip-path="url(#p5b5e0f1530)" d="M 177.040107 138.068074 
C 177.977742 138.068074 178.877099 137.695548 179.540107 137.03254 
C 180.203115 136.369532 180.575641 135.470175 180.575641 134.53254 
C 180.575641 133.594905 180.203115 132.695548 179.540107 132.03254 
C 178.877099 131.369532 177.977742 130.997006 177.040107 130.997006 
C 176.102472 130.997006 175.203115 131.369532 174.540107 132.03254 
C 173.877099 132.695548 173.504573 133.594905 173.504573 134.53254 
C 173.504573 135.470175 173.877099 136.369532 174.540107 137.03254 
C 175.203115 137.695548 176.102472 138.068074 177.040107 138.068074 
z
" style="fill:none;stroke:#2ca02c;"/>
   </g>
   <g id="PathCollection_25">
    <path clip-path="url(#p5b5e0f1530)" d="M 182.013369 134.408311 
C 182.951004 134.408311 183.850361 134.035784 184.513369 133.372777 
C 185.176377 132.709769 185.548903 131.810411 185.548903 130.872777 
C 185.548903 129.935142 185.176377 129.035784 184.513369 128.372777 
C 183.850361 127.709769 182.951004 127.337243 182.013369 127.337243 
C 181.075734 127.337243 180.176377 127.709769 179.513369 128.372777 
C 178.850361 129.035784 178.477835 129.935142 178.477835 130.872777 
C 178.477835 131.810411 178.850361 132.709769 179.513369 133.372777 
C 180.176377 134.035784 181.075734 134.408311 182.013369 134.408311 
z
" style="fill:none;stroke:#2ca02c;"/>
   </g>
   <g id="PathCollection_26">
    <path clip-path="url(#p5b5e0f1530)" d="M 186.986631 130.623264 
C 187.924266 130.623264 188.823623 130.250738 189.486631 129.58773 
C 190.149639 128.924723 190.522165 128.025365 190.522165 127.08773 
C 190.522165 126.150096 190.149639 125.250738 189.486631 124.58773 
C 188.823623 123.924723 187.924266 123.552196 186.986631 123.552196 
C 186.048996 123.552196 185.149639 123.924723 184.486631 124.58773 
C 183.823623 125.250738 183.451097 126.150096 183.451097 127.08773 
C 183.451097 128.025365 183.823623 128.924723 184.486631 129.58773 
C 185.149639 130.250738 186.048996 130.623264 186.986631 130.623264 
z
" style="fill:none;stroke:#2ca02c;"/>
   </g>
   <g id="PathCollection_27">
    <path clip-path="url(#p5b5e0f1530)" d="M 191.959893 126.720387 
C 192.897528 126.720387 193.796885 126.347861 194.459893 125.684853 
C 195.122901 125.021845 195.495427 124.122488 195.495427 123.184853 
C 195.495427 122.247218 195.122901 121.347861 194.459893 120.684853 
C 193.796885 120.021845 192.897528 119.649319 191.959893 119.649319 
C 191.022258 119.649319 190.122901 120.021845 189.459893 120.684853 
C 188.796885 121.347861 188.424359 122.247218 188.424359 123.184853 
C 188.424359 124.122488 188.796885 125.021845 189.459893 125.684853 
C 190.122901 126.347861 191.022258 126.720387 191.959893 126.720387 
z
" style="fill:none;stroke:#2ca02c;"/>
   </g>
   <g id="PathCollection_28">
    <path clip-path="url(#p5b5e0f1530)" d="M 196.933155 122.712387 
C 197.87079 122.712387 198.770147 122.339861 199.433155 121.676854 
C 200.096163 121.013846 200.468689 120.114488 200.468689 119.176854 
C 200.468689 118.239219 200.096163 117.339861 199.433155 116.676854 
C 198.770147 116.013846 197.87079 115.64132 196.933155 115.64132 
C 195.995521 115.64132 195.096163 116.013846 194.433155 116.676854 
C 193.770147 117.339861 193.397621 118.239219 193.397621 119.176854 
C 193.397621 120.114488 193.770147 121.013846 194.433155 121.676854 
C 195.096163 122.339861 195.995521 122.712387 196.933155 122.712387 
z
" style="fill:none;stroke:#2ca02c;"/>
   </g>
   <g id="PathCollection_29">
    <path clip-path="url(#p5b5e0f1530)" d="M 201.906417 118.617872 
C 202.844052 118.617872 203.743409 118.245346 204.406417 117.582338 
C 205.069425 116.919331 205.441951 116.019973 205.441951 115.082338 
C 205.441951 114.144704 205.069425 113.245346 204.406417 112.582338 
C 203.743409 111.919331 202.844052 111.546805 201.906417 111.546805 
C 200.968783 111.546805 200.069425 111.919331 199.406417 112.582338 
C 198.743409 113.245346 198.370883 114.144704 198.370883 115.082338 
C 198.370883 116.019973 198.743409 116.919331 199.406417 117.582338 
C 200.069425 118.245346 200.968783 118.617872 201.906417 118.617872 
z
" style="fill:none;stroke:#2ca02c;"/>
   </g>
   <g id="PathCollection_30">
    <path clip-path="url(#p5b5e0f1530)" d="M 206.879679 114.461822 
C 207.817314 114.461822 208.716671 114.089296 209.379679 113.426288 
C 210.042687 112.76328 210.415213 111.863923 210.415213 110.926288 
C 210.415213 109.988654 210.042687 109.089296 209.379679 108.426288 
C 208.716671 107.76328 207.817314 107.390754 206.879679 107.390754 
C 205.942045 107.390754 205.042687 107.76328 204.379679 108.426288 
C 203.716671 109.089296 203.344145 109.988654 203.344145 110.926288 
C 203.344145 111.863923 203.716671 112.76328 204.379679 113.426288 
C 205.042687 114.089296 205.942045 114.461822 206.879679 114.461822 
z
" style="fill:none;stroke:#2ca02c;"/>
   </g>
   <g id="PathCollection_31">
    <path clip-path="url(#p5b5e0f1530)" d="M 211.852941 110.275852 
C 212.790576 110.275852 213.689933 109.903326 214.352941 109.240318 
C 215.015949 108.57731 215.388475 107.677953 215.388475 106.740318 
C 215.388475 105.802684 215.015949 104.903326 214.352941 104.240318 
C 213.689933 103.57731 212.790576 103.204784 211.852941 103.204784 
C 210.915307 103.204784 210.015949 103.57731 209.352941 104.240318 
C 208.689933 104.903326 208.317407 105.802684 208.317407 106.740318 
C 208.317407 107.677953 208.689933 108.57731 209.352941 109.240318 
C 210.015949 109.903326 210.915307 110.275852 211.852941 110.275852 
z
" style="fill:none;stroke:#2ca02c;"/>
   </g>
   <g id="PathCollection_32">
    <path clip-path="url(#p5b5e0f1530)" d="M 216.826203 106.098238 
C 217.763838 106.098238 218.663195 105.725711 219.326203 105.062704 
C 219.989211 104.399696 220.361737 103.500338 220.361737 102.562704 
C 220.361737 101.625069 219.989211 100.725711 219.326203 100.062704 
C 218.663195 99.399696 217.763838 99.02717 216.826203 99.02717 
C 215.888569 99.02717 214.989211 99.399696 214.326203 100.062704 
C 213.663195 100.725711 213.290669 101.625069 213.290669 102.562704 
C 213.290669 103.500338 213.663195 104.399696 214.326203 105.062704 
C 214.989211 105.725711 215.888569 106.098238 216.826203 106.098238 
z
" style="fill:none;stroke:#2ca02c;"/>
   </g>
   <g id="PathCollection_33">
    <path clip-path="url(#p5b5e0f1530)" d="M 221.799465 101.973662 
C 222.7371 101.973662 223.636457 101.601135 224.299465 100.938128 
C 224.962473 100.27512 225.334999 99.375762 225.334999 98.438128 
C 225.334999 97.500493 224.962473 96.601135 224.299465 95.938128 
C 223.636457 95.27512 222.7371 94.902594 221.799465 94.902594 
C 220.861831 94.902594 219.962473 95.27512 219.299465 95.938128 
C 218.636457 96.601135 218.263931 97.500493 218.263931 98.438128 
C 218.263931 99.375762 218.636457 100.27512 219.299465 100.938128 
C 219.962473 101.601135 220.861831 101.973662 221.799465 101.973662 
z
" style="fill:none;stroke:#2ca02c;"/>
   </g>
   <g id="PathCollection_34">
    <path clip-path="url(#p5b5e0f1530)" d="M 226.772727 97.952651 
C 227.710362 97.952651 228.60972 97.580125 229.272727 96.917117 
C 229.935735 96.25411 230.308261 95.354752 230.308261 94.417117 
C 230.308261 93.479483 229.935735 92.580125 229.272727 91.917117 
C 228.60972 91.25411 227.710362 90.881584 226.772727 90.881584 
C 225.835093 90.881584 224.935735 91.25411 224.272727 91.917117 
C 223.60972 92.580125 223.237193 93.479483 223.237193 94.417117 
C 223.237193 95.354752 223.60972 96.25411 224.272727 96.917117 
C 224.935735 97.580125 225.835093 97.952651 226.772727 97.952651 
z
" style="fill:none;stroke:#2ca02c;"/>
   </g>
   <g id="PathCollection_35">
    <path clip-path="url(#p5b5e0f1530)" d="M 231.745989 94.090675 
C 232.683624 94.090675 233.582982 93.718149 234.245989 93.055141 
C 234.908997 92.392133 235.281523 91.492776 235.281523 90.555141 
C 235.281523 89.617507 234.908997 88.718149 234.245989 88.055141 
C 233.582982 87.392133 232.683624 87.019607 231.745989 87.019607 
C 230.808355 87.019607 229.908997 87.392133 229.245989 88.055141 
C 228.582982 88.718149 228.210455 89.617507 228.210455 90.555141 
C 228.210455 91.492776 228.582982 92.392133 229.245989 93.055141 
C 229.908997 93.718149 230.808355 94.090675 231.745989 94.090675 
z
" style="fill:none;stroke:#2ca02c;"/>
   </g>
   <g id="PathCollection_36">
    <path clip-path="url(#p5b5e0f1530)" d="M 236.719251 90.446856 
C 237.656886 90.446856 238.556244 90.07433 239.219251 89.411322 
C 239.882259 88.748315 240.254785 87.848957 240.254785 86.911322 
C 240.254785 85.973688 239.882259 85.07433 239.219251 84.411322 
C 238.556244 83.748315 237.656886 83.375789 236.719251 83.375789 
C 235.781617 83.375789 234.882259 83.748315 234.219251 84.411322 
C 233.556244 85.07433 233.183717 85.973688 233.183717 86.911322 
C 233.183717 87.848957 233.556244 88.748315 234.219251 89.411322 
C 234.882259 90.07433 235.781617 90.446856 236.719251 90.446856 
z
" style="fill:none;stroke:#2ca02c;"/>
   </g>
   <g id="PathCollection_37">
    <path clip-path="url(#p5b5e0f1530)" d="M 241.692513 87.08228 
C 242.630148 87.08228 243.529506 86.709754 244.192513 86.046746 
C 244.855521 85.383738 245.228047 84.48438 245.228047 83.546746 
C 245.228047 82.609111 244.855521 81.709754 244.192513 81.046746 
C 243.529506 80.383738 242.630148 80.011212 241.692513 80.011212 
C 240.754879 80.011212 239.855521 80.383738 239.192513 81.046746 
C 238.529506 81.709754 238.156979 82.609111 238.156979 83.546746 
C 238.156979 84.48438 238.529506 85.383738 239.192513 86.046746 
C 239.855521 86.709754 240.754879 87.08228 241.692513 87.08228 
z
" style="fill:none;stroke:#2ca02c;"/>
   </g>
   <g id="PathCollection_38">
    <path clip-path="url(#p5b5e0f1530)" d="M 246.665775 84.05785 
C 247.60341 84.05785 248.502768 83.685323 249.165775 83.022316 
C 249.828783 82.359308 250.201309 81.45995 250.201309 80.522316 
C 250.201309 79.584681 249.828783 78.685323 249.165775 78.022316 
C 248.502768 77.359308 247.60341 76.986782 246.665775 76.986782 
C 245.728141 76.986782 244.828783 77.359308 244.165775 78.022316 
C 243.502768 78.685323 243.130241 79.584681 243.130241 80.522316 
C 243.130241 81.45995 243.502768 82.359308 244.165775 83.022316 
C 244.828783 83.685323 245.728141 84.05785 246.665775 84.05785 
z
" style="fill:none;stroke:#2ca02c;"/>
   </g>
   <g id="PathCollection_39">
    <path clip-path="url(#p5b5e0f1530)" d="M 251.639037 81.431667 
C 252.576672 81.431667 253.47603 81.059141 254.139037 80.396133 
C 254.802045 79.733125 255.174571 78.833768 255.174571 77.896133 
C 255.174571 76.958499 254.802045 76.059141 254.139037 75.396133 
C 253.47603 74.733125 252.576672 74.360599 251.639037 74.360599 
C 250.701403 74.360599 249.802045 74.733125 249.139037 75.396133 
C 248.47603 76.059141 248.103504 76.958499 248.103504 77.896133 
C 248.103504 78.833768 248.47603 79.733125 249.139037 80.396133 
C 249.802045 81.059141 250.701403 81.431667 251.639037 81.431667 
z
" style="fill:none;stroke:#2ca02c;"/>
   </g>
   <g id="PathCollection_40">
    <path clip-path="url(#p5b5e0f1530)" d="M 256.612299 79.255895 
C 257.549934 79.255895 258.449292 78.883369 259.112299 78.220362 
C 259.775307 77.557354 260.147833 76.657996 260.147833 75.720362 
C 260.147833 74.782727 259.775307 73.883369 259.112299 73.220362 
C 258.449292 72.557354 257.549934 72.184828 256.612299 72.184828 
C 255.674665 72.184828 254.775307 72.557354 254.112299 73.220362 
C 253.449292 73.883369 253.076766 74.782727 253.076766 75.720362 
C 253.076766 76.657996 253.449292 77.557354 254.112299 78.220362 
C 254.775307 78.883369 255.674665 79.255895 256.612299 79.255895 
z
" style="fill:none;stroke:#2ca02c;"/>
   </g>
   <g id="PathCollection_41">
    <path clip-path="url(#p5b5e0f1530)" d="M 261.585561 77.573075 
C 262.523196 77.573075 263.422554 77.200549 264.085561 76.537541 
C 264.748569 75.874533 265.121095 74.975175 265.121095 74.037541 
C 265.121095 73.099906 264.748569 72.200549 264.085561 71.537541 
C 263.422554 70.874533 262.523196 70.502007 261.585561 70.502007 
C 260.647927 70.502007 259.748569 70.874533 259.085561 71.537541 
C 258.422554 72.200549 258.050028 73.099906 258.050028 74.037541 
C 258.050028 74.975175 258.422554 75.874533 259.085561 76.537541 
C 259.748569 77.200549 260.647927 77.573075 261.585561 77.573075 
z
" style="fill:none;stroke:#2ca02c;"/>
   </g>
   <g id="PathCollection_42">
    <path clip-path="url(#p5b5e0f1530)" d="M 266.558824 76.411854 
C 267.496458 76.411854 268.395816 76.039328 269.058824 75.37632 
C 269.721831 74.713312 270.094357 73.813955 270.094357 72.87632 
C 270.094357 71.938686 269.721831 71.039328 269.058824 70.37632 
C 268.395816 69.713312 267.496458 69.340786 266.558824 69.340786 
C 265.621189 69.340786 264.721831 69.713312 264.058824 70.37632 
C 263.395816 71.039328 263.02329 71.938686 263.02329 72.87632 
C 263.02329 73.813955 263.395816 74.713312 264.058824 75.37632 
C 264.721831 76.039328 265.621189 76.411854 266.558824 76.411854 
z
" style="fill:none;stroke:#2ca02c;"/>
   </g>
   <g id="PathCollection_43">
    <path clip-path="url(#p5b5e0f1530)" d="M 271.532086 75.782109 
C 272.46972 75.782109 273.369078 75.409583 274.032086 74.746575 
C 274.695093 74.083568 275.067619 73.18421 275.067619 72.246575 
C 275.067619 71.308941 274.695093 70.409583 274.032086 69.746575 
C 273.369078 69.083568 272.46972 68.711041 271.532086 68.711041 
C 270.594451 68.711041 269.695093 69.083568 269.032086 69.746575 
C 268.369078 70.409583 267.996552 71.308941 267.996552 72.246575 
C 267.996552 73.18421 268.369078 74.083568 269.032086 74.746575 
C 269.695093 75.409583 270.594451 75.782109 271.532086 75.782109 
z
" style="fill:none;stroke:#2ca02c;"/>
   </g>
   <g id="PathCollection_44">
    <path clip-path="url(#p5b5e0f1530)" d="M 276.505348 75.669405 
C 277.442982 75.669405 278.34234 75.296879 279.005348 74.633871 
C 279.668355 73.970864 280.040881 73.071506 280.040881 72.133871 
C 280.040881 71.196237 279.668355 70.296879 279.005348 69.633871 
C 278.34234 68.970864 277.442982 68.598337 276.505348 68.598337 
C 275.567713 68.598337 274.668355 68.970864 274.005348 69.633871 
C 273.34234 70.296879 272.969814 71.196237 272.969814 72.133871 
C 272.969814 73.071506 273.34234 73.970864 274.005348 74.633871 
C 274.668355 75.296879 275.567713 75.669405 276.505348 75.669405 
z
" style="fill:none;stroke:#2ca02c;"/>
   </g>
   <g id="PathCollection_45">
    <path clip-path="url(#p5b5e0f1530)" d="M 281.47861 76.028779 
C 282.416244 76.028779 283.315602 75.656253 283.97861 74.993245 
C 284.641617 74.330237 285.014144 73.43088 285.014144 72.493245 
C 285.014144 71.55561 284.641617 70.656253 283.97861 69.993245 
C 283.315602 69.330237 282.416244 68.957711 281.47861 68.957711 
C 280.540975 68.957711 279.641617 69.330237 278.97861 69.993245 
C 278.315602 70.656253 277.943076 71.55561 277.943076 72.493245 
C 277.943076 73.43088 278.315602 74.330237 278.97861 74.993245 
C 279.641617 75.656253 280.540975 76.028779 281.47861 76.028779 
z
" style="fill:none;stroke:#2ca02c;"/>
   </g>
   <g id="PathCollection_46">
    <path clip-path="url(#p5b5e0f1530)" d="M 286.451872 76.777799 
C 287.389506 76.777799 288.288864 76.405273 288.951872 75.742265 
C 289.614879 75.079258 289.987406 74.1799 289.987406 73.242265 
C 289.987406 72.304631 289.614879 71.405273 288.951872 70.742265 
C 288.288864 70.079258 287.389506 69.706731 286.451872 69.706731 
C 285.514237 69.706731 284.614879 70.079258 283.951872 70.742265 
C 283.288864 71.405273 282.916338 72.304631 282.916338 73.242265 
C 282.916338 74.1799 283.288864 75.079258 283.951872 75.742265 
C 284.614879 76.405273 285.514237 76.777799 286.451872 76.777799 
z
" style="fill:none;stroke:#2ca02c;"/>
   </g>
   <g id="PathCollection_47">
    <path clip-path="url(#p5b5e0f1530)" d="M 291.425134 77.788873 
C 292.362768 77.788873 293.262126 77.416347 293.925134 76.75334 
C 294.588141 76.090332 294.960668 75.190974 294.960668 74.25334 
C 294.960668 73.315705 294.588141 72.416347 293.925134 71.75334 
C 293.262126 71.090332 292.362768 70.717806 291.425134 70.717806 
C 290.487499 70.717806 289.588141 71.090332 288.925134 71.75334 
C 288.262126 72.416347 287.8896 73.315705 287.8896 74.25334 
C 287.8896 75.190974 288.262126 76.090332 288.925134 76.75334 
C 289.588141 77.416347 290.487499 77.788873 291.425134 77.788873 
z
" style="fill:none;stroke:#2ca02c;"/>
   </g>
   <g id="PathCollection_48">
    <path clip-path="url(#p5b5e0f1530)" d="M 296.398396 78.88077 
C 297.33603 78.88077 298.235388 78.508244 298.898396 77.845236 
C 299.561403 77.182228 299.93393 76.282871 299.93393 75.345236 
C 299.93393 74.407602 299.561403 73.508244 298.898396 72.845236 
C 298.235388 72.182228 297.33603 71.809702 296.398396 71.809702 
C 295.460761 71.809702 294.561403 72.182228 293.898396 72.845236 
C 293.235388 73.508244 292.862862 74.407602 292.862862 75.345236 
C 292.862862 76.282871 293.235388 77.182228 293.898396 77.845236 
C 294.561403 78.508244 295.460761 78.88077 296.398396 78.88077 
z
" style="fill:none;stroke:#2ca02c;"/>
   </g>
   <g id="PathCollection_49">
    <path clip-path="url(#p5b5e0f1530)" d="M 301.371658 79.809315 
C 302.309292 79.809315 303.20865 79.436789 303.871658 78.773781 
C 304.534666 78.110773 304.907192 77.211415 304.907192 76.273781 
C 304.907192 75.336146 304.534666 74.436789 303.871658 73.773781 
C 303.20865 73.110773 302.309292 72.738247 301.371658 72.738247 
C 300.434023 72.738247 299.534666 73.110773 298.871658 73.773781 
C 298.20865 74.436789 297.836124 75.336146 297.836124 76.273781 
C 297.836124 77.211415 298.20865 78.110773 298.871658 78.773781 
C 299.534666 79.436789 300.434023 79.809315 301.371658 79.809315 
z
" style="fill:none;stroke:#2ca02c;"/>
   </g>
   <g id="PathCollection_50">
    <path clip-path="url(#p5b5e0f1530)" d="M 306.34492 80.257237 
C 307.282554 80.257237 308.181912 79.88471 308.84492 79.221703 
C 309.507928 78.558695 309.880454 77.659337 309.880454 76.721703 
C 309.880454 75.784068 309.507928 74.88471 308.84492 74.221703 
C 308.181912 73.558695 307.282554 73.186169 306.34492 73.186169 
C 305.407285 73.186169 304.507928 73.558695 303.84492 74.221703 
C 303.181912 74.88471 302.809386 75.784068 302.809386 76.721703 
C 302.809386 77.659337 303.181912 78.558695 303.84492 79.221703 
C 304.507928 79.88471 305.407285 80.257237 306.34492 80.257237 
z
" style="fill:none;stroke:#2ca02c;"/>
   </g>
   <g id="PathCollection_51">
    <path clip-path="url(#p5b5e0f1530)" d="M 311.318182 79.823118 
C 312.255816 79.823118 313.155174 79.450591 313.818182 78.787584 
C 314.48119 78.124576 314.853716 77.225218 314.853716 76.287584 
C 314.853716 75.349949 314.48119 74.450591 313.818182 73.787584 
C 313.155174 73.124576 312.255816 72.75205 311.318182 72.75205 
C 310.380547 72.75205 309.48119 73.124576 308.818182 73.787584 
C 308.155174 74.450591 307.782648 75.349949 307.782648 76.287584 
C 307.782648 77.225218 308.155174 78.124576 308.818182 78.787584 
C 309.48119 79.450591 310.380547 79.823118 311.318182 79.823118 
z
" style="fill:none;stroke:#2ca02c;"/>
   </g>
   <g id="PathCollection_52">
    <defs>
     <path d="M 0 3.535534 
C 0.937635 3.535534 1.836992 3.163008 2.5 2.5 
C 3.163008 1.836992 3.535534 0.937635 3.535534 0 
C 3.535534 -0.937635 3.163008 -1.836992 2.5 -2.5 
C 1.836992 -3.163008 0.937635 -3.535534 0 -3.535534 
C -0.937635 -3.535534 -1.836992 -3.163008 -2.5 -2.5 
C -3.163008 -1.836992 -3.535534 -0.937635 -3.535534 0 
C -3.535534 0.937635 -3.163008 1.836992 -2.5 2.5 
C -1.836992 3.163008 -0.937635 3.535534 0 3.535534 
z
" id="m30322236cb" style="stroke:#2ca02c;"/>
    </defs>
    <g clip-path="url(#p5b5e0f1530)">
     <use style="fill:#2ca02c;stroke:#2ca02c;" x="62.65508" xlink:href="#m30322236cb" y="180.594194"/>
    </g>
   </g>
   <g id="PathCollection_53">
    <g clip-path="url(#p5b5e0f1530)">
     <use style="fill:#2ca02c;stroke:#2ca02c;" x="67.628342" xlink:href="#m30322236cb" y="179.591959"/>
    </g>
   </g>
   <g id="PathCollection_54">
    <g clip-path="url(#p5b5e0f1530)">
     <use style="fill:#2ca02c;stroke:#2ca02c;" x="72.601604" xlink:href="#m30322236cb" y="178.87155"/>
    </g>
   </g>
   <g id="PathCollection_55">
    <g clip-path="url(#p5b5e0f1530)">
     <use style="fill:#2ca02c;stroke:#2ca02c;" x="77.574866" xlink:href="#m30322236cb" y="178.223184"/>
    </g>
   </g>
   <g id="PathCollection_56">
    <g clip-path="url(#p5b5e0f1530)">
     <use style="fill:#2ca02c;stroke:#2ca02c;" x="82.548128" xlink:href="#m30322236cb" y="177.491732"/>
    </g>
   </g>
   <g id="PathCollection_57">
    <g clip-path="url(#p5b5e0f1530)">
     <use style="fill:#2ca02c;stroke:#2ca02c;" x="87.52139" xlink:href="#m30322236cb" y="176.567084"/>
    </g>
   </g>
   <g id="PathCollection_58">
    <g clip-path="url(#p5b5e0f1530)">
     <use style="fill:#2ca02c;stroke:#2ca02c;" x="92.494652" xlink:href="#m30322236cb" y="175.376095"/>
    </g>
   </g>
   <g id="PathCollection_59">
    <g clip-path="url(#p5b5e0f1530)">
     <use style="fill:#2ca02c;stroke:#2ca02c;" x="97.467914" xlink:href="#m30322236cb" y="173.875401"/>
    </g>
   </g>
   <g id="PathCollection_60">
    <g clip-path="url(#p5b5e0f1530)">
     <use style="fill:#2ca02c;stroke:#2ca02c;" x="102.441176" xlink:href="#m30322236cb" y="172.045072"/>
    </g>
   </g>
   <g id="PathCollection_61">
    <g clip-path="url(#p5b5e0f1530)">
     <use style="fill:#2ca02c;stroke:#2ca02c;" x="107.414439" xlink:href="#m30322236cb" y="169.883068"/>
    </g>
   </g>
   <g id="PathCollection_62">
    <g clip-path="url(#p5b5e0f1530)">
     <use style="fill:#2ca02c;stroke:#2ca02c;" x="112.387701" xlink:href="#m30322236cb" y="167.400429"/>
    </g>
   </g>
   <g id="PathCollection_63">
    <g clip-path="url(#p5b5e0f1530)">
     <use style="fill:#2ca02c;stroke:#2ca02c;" x="117.360963" xlink:href="#m30322236cb" y="164.617182"/>
    </g>
   </g>
   <g id="PathCollection_64">
    <g clip-path="url(#p5b5e0f1530)">
     <use style="fill:#2ca02c;stroke:#2ca02c;" x="122.334225" xlink:href="#m30322236cb" y="161.558895"/>
    </g>
   </g>
   <g id="PathCollection_65">
    <g clip-path="url(#p5b5e0f1530)">
     <use style="fill:#2ca02c;stroke:#2ca02c;" x="127.307487" xlink:href="#m30322236cb" y="158.253857"/>
    </g>
   </g>
   <g id="PathCollection_66">
    <g clip-path="url(#p5b5e0f1530)">
     <use style="fill:#2ca02c;stroke:#2ca02c;" x="132.280749" xlink:href="#m30322236cb" y="154.730818"/>
    </g>
   </g>
   <g id="PathCollection_67">
    <g clip-path="url(#p5b5e0f1530)">
     <use style="fill:#2ca02c;stroke:#2ca02c;" x="137.254011" xlink:href="#m30322236cb" y="151.017259"/>
    </g>
   </g>
   <g id="PathCollection_68">
    <g clip-path="url(#p5b5e0f1530)">
     <use style="fill:#2ca02c;stroke:#2ca02c;" x="142.227273" xlink:href="#m30322236cb" y="147.138149"/>
    </g>
   </g>
   <g id="PathCollection_69">
    <g clip-path="url(#p5b5e0f1530)">
     <use style="fill:#2ca02c;stroke:#2ca02c;" x="147.200535" xlink:href="#m30322236cb" y="143.115124"/>
    </g>
   </g>
   <g id="PathCollection_70">
    <g clip-path="url(#p5b5e0f1530)">
     <use style="fill:#2ca02c;stroke:#2ca02c;" x="152.173797" xlink:href="#m30322236cb" y="138.966076"/>
    </g>
   </g>
   <g id="PathCollection_71">
    <g clip-path="url(#p5b5e0f1530)">
     <use style="fill:#2ca02c;stroke:#2ca02c;" x="157.147059" xlink:href="#m30322236cb" y="134.705075"/>
    </g>
   </g>
   <g id="PathCollection_72">
    <g clip-path="url(#p5b5e0f1530)">
     <use style="fill:#2ca02c;stroke:#2ca02c;" x="162.120321" xlink:href="#m30322236cb" y="130.342599"/>
    </g>
   </g>
   <g id="PathCollection_73">
    <g clip-path="url(#p5b5e0f1530)">
     <use style="fill:#2ca02c;stroke:#2ca02c;" x="167.093583" xlink:href="#m30322236cb" y="125.88603"/>
    </g>
   </g>
   <g id="PathCollection_74">
    <g clip-path="url(#p5b5e0f1530)">
     <use style="fill:#2ca02c;stroke:#2ca02c;" x="172.066845" xlink:href="#m30322236cb" y="121.340351"/>
    </g>
   </g>
   <g id="PathCollection_75">
    <g clip-path="url(#p5b5e0f1530)">
     <use style="fill:#2ca02c;stroke:#2ca02c;" x="177.040107" xlink:href="#m30322236cb" y="116.709024"/>
    </g>
   </g>
   <g id="PathCollection_76">
    <g clip-path="url(#p5b5e0f1530)">
     <use style="fill:#2ca02c;stroke:#2ca02c;" x="182.013369" xlink:href="#m30322236cb" y="111.994986"/>
    </g>
   </g>
   <g id="PathCollection_77">
    <g clip-path="url(#p5b5e0f1530)">
     <use style="fill:#2ca02c;stroke:#2ca02c;" x="186.986631" xlink:href="#m30322236cb" y="107.20173"/>
    </g>
   </g>
   <g id="PathCollection_78">
    <g clip-path="url(#p5b5e0f1530)">
     <use style="fill:#2ca02c;stroke:#2ca02c;" x="191.959893" xlink:href="#m30322236cb" y="102.33442"/>
    </g>
   </g>
   <g id="PathCollection_79">
    <g clip-path="url(#p5b5e0f1530)">
     <use style="fill:#2ca02c;stroke:#2ca02c;" x="196.933155" xlink:href="#m30322236cb" y="97.400999"/>
    </g>
   </g>
   <g id="PathCollection_80">
    <g clip-path="url(#p5b5e0f1530)">
     <use style="fill:#2ca02c;stroke:#2ca02c;" x="201.906417" xlink:href="#m30322236cb" y="92.413244"/>
    </g>
   </g>
   <g id="PathCollection_81">
    <g clip-path="url(#p5b5e0f1530)">
     <use style="fill:#2ca02c;stroke:#2ca02c;" x="206.879679" xlink:href="#m30322236cb" y="87.387723"/>
    </g>
   </g>
   <g id="PathCollection_82">
    <g clip-path="url(#p5b5e0f1530)">
     <use style="fill:#2ca02c;stroke:#2ca02c;" x="211.852941" xlink:href="#m30322236cb" y="82.346611"/>
    </g>
   </g>
   <g id="PathCollection_83">
    <g clip-path="url(#p5b5e0f1530)">
     <use style="fill:#2ca02c;stroke:#2ca02c;" x="216.826203" xlink:href="#m30322236cb" y="77.318319"/>
    </g>
   </g>
   <g id="PathCollection_84">
    <g clip-path="url(#p5b5e0f1530)">
     <use style="fill:#2ca02c;stroke:#2ca02c;" x="221.799465" xlink:href="#m30322236cb" y="72.337894"/>
    </g>
   </g>
   <g id="PathCollection_85">
    <g clip-path="url(#p5b5e0f1530)">
     <use style="fill:#2ca02c;stroke:#2ca02c;" x="226.772727" xlink:href="#m30322236cb" y="67.447144"/>
    </g>
   </g>
   <g id="PathCollection_86">
    <g clip-path="url(#p5b5e0f1530)">
     <use style="fill:#2ca02c;stroke:#2ca02c;" x="231.745989" xlink:href="#m30322236cb" y="62.694441"/>
    </g>
   </g>
   <g id="PathCollection_87">
    <g clip-path="url(#p5b5e0f1530)">
     <use style="fill:#2ca02c;stroke:#2ca02c;" x="236.719251" xlink:href="#m30322236cb" y="58.134157"/>
    </g>
   </g>
   <g id="PathCollection_88">
    <g clip-path="url(#p5b5e0f1530)">
     <use style="fill:#2ca02c;stroke:#2ca02c;" x="241.692513" xlink:href="#m30322236cb" y="53.825705"/>
    </g>
   </g>
   <g id="PathCollection_89">
    <g clip-path="url(#p5b5e0f1530)">
     <use style="fill:#2ca02c;stroke:#2ca02c;" x="246.665775" xlink:href="#m30322236cb" y="49.832108"/>
    </g>
   </g>
   <g id="PathCollection_90">
    <g clip-path="url(#p5b5e0f1530)">
     <use style="fill:#2ca02c;stroke:#2ca02c;" x="251.639037" xlink:href="#m30322236cb" y="46.218083"/>
    </g>
   </g>
   <g id="PathCollection_91">
    <g clip-path="url(#p5b5e0f1530)">
     <use style="fill:#2ca02c;stroke:#2ca02c;" x="256.612299" xlink:href="#m30322236cb" y="43.047582"/>
    </g>
   </g>
   <g id="PathCollection_92">
    <g clip-path="url(#p5b5e0f1530)">
     <use style="fill:#2ca02c;stroke:#2ca02c;" x="261.585561" xlink:href="#m30322236cb" y="40.380742"/>
    </g>
   </g>
   <g id="PathCollection_93">
    <g clip-path="url(#p5b5e0f1530)">
     <use style="fill:#2ca02c;stroke:#2ca02c;" x="266.558824" xlink:href="#m30322236cb" y="38.270204"/>
    </g>
   </g>
   <g id="PathCollection_94">
    <g clip-path="url(#p5b5e0f1530)">
     <use style="fill:#2ca02c;stroke:#2ca02c;" x="271.532086" xlink:href="#m30322236cb" y="36.756763"/>
    </g>
   </g>
   <g id="PathCollection_95">
    <g clip-path="url(#p5b5e0f1530)">
     <use style="fill:#2ca02c;stroke:#2ca02c;" x="276.505348" xlink:href="#m30322236cb" y="35.864288"/>
    </g>
   </g>
   <g id="PathCollection_96">
    <g clip-path="url(#p5b5e0f1530)">
     <use style="fill:#2ca02c;stroke:#2ca02c;" x="281.47861" xlink:href="#m30322236cb" y="35.593887"/>
    </g>
   </g>
   <g id="PathCollection_97">
    <g clip-path="url(#p5b5e0f1530)">
     <use style="fill:#2ca02c;stroke:#2ca02c;" x="286.451872" xlink:href="#m30322236cb" y="35.917259"/>
    </g>
   </g>
   <g id="PathCollection_98">
    <g clip-path="url(#p5b5e0f1530)">
     <use style="fill:#2ca02c;stroke:#2ca02c;" x="291.425134" xlink:href="#m30322236cb" y="36.769187"/>
    </g>
   </g>
   <g id="PathCollection_99">
    <g clip-path="url(#p5b5e0f1530)">
     <use style="fill:#2ca02c;stroke:#2ca02c;" x="296.398396" xlink:href="#m30322236cb" y="38.039145"/>
    </g>
   </g>
   <g id="PathCollection_100">
    <g clip-path="url(#p5b5e0f1530)">
     <use style="fill:#2ca02c;stroke:#2ca02c;" x="301.371658" xlink:href="#m30322236cb" y="39.561951"/>
    </g>
   </g>
   <g id="PathCollection_101">
    <g clip-path="url(#p5b5e0f1530)">
     <use style="fill:#2ca02c;stroke:#2ca02c;" x="306.34492" xlink:href="#m30322236cb" y="41.107442"/>
    </g>
   </g>
   <g id="PathCollection_102">
    <g clip-path="url(#p5b5e0f1530)">
     <use style="fill:#2ca02c;stroke:#2ca02c;" x="311.318182" xlink:href="#m30322236cb" y="42.369107"/>
    </g>
   </g>
   <g id="matplotlib.axis_1"/>
   <g id="matplotlib.axis_2">
    <g id="ytick_1">
     <g id="line2d_1">
      <defs>
       <path d="M 0 0 
L -3.5 0 
" id="m2bba3df902" style="stroke:#000000;stroke-width:0.8;"/>
      </defs>
      <g>
       <use style="stroke:#000000;stroke-width:0.8;" x="45" xlink:href="#m2bba3df902" y="181.587273"/>
      </g>
     </g>
     <g id="text_1">
      <!-- 0.00 -->
      <g transform="translate(15.734375 185.386491)scale(0.1 -0.1)">
       <defs>
        <path d="M 31.78125 66.40625 
Q 24.171875 66.40625 20.328125 58.90625 
Q 16.5 51.421875 16.5 36.375 
Q 16.5 21.390625 20.328125 13.890625 
Q 24.171875 6.390625 31.78125 6.390625 
Q 39.453125 6.390625 43.28125 13.890625 
Q 47.125 21.390625 47.125 36.375 
Q 47.125 51.421875 43.28125 58.90625 
Q 39.453125 66.40625 31.78125 66.40625 
z
M 31.78125 74.21875 
Q 44.046875 74.21875 50.515625 64.515625 
Q 56.984375 54.828125 56.984375 36.375 
Q 56.984375 17.96875 50.515625 8.265625 
Q 44.046875 -1.421875 31.78125 -1.421875 
Q 19.53125 -1.421875 13.0625 8.265625 
Q 6.59375 17.96875 6.59375 36.375 
Q 6.59375 54.828125 13.0625 64.515625 
Q 19.53125 74.21875 31.78125 74.21875 
z
" id="DejaVuSans-48"/>
        <path d="M 10.6875 12.40625 
L 21 12.40625 
L 21 0 
L 10.6875 0 
z
" id="DejaVuSans-46"/>
       </defs>
       <use xlink:href="#DejaVuSans-48"/>
       <use x="63.623047" xlink:href="#DejaVuSans-46"/>
       <use x="95.410156" xlink:href="#DejaVuSans-48"/>
       <use x="159.033203" xlink:href="#DejaVuSans-48"/>
      </g>
     </g>
    </g>
    <g id="ytick_2">
     <g id="line2d_2">
      <g>
       <use style="stroke:#000000;stroke-width:0.8;" x="45" xlink:href="#m2bba3df902" y="157.942553"/>
      </g>
     </g>
     <g id="text_2">
      <!-- 0.05 -->
      <g transform="translate(15.734375 161.741771)scale(0.1 -0.1)">
       <defs>
        <path d="M 10.796875 72.90625 
L 49.515625 72.90625 
L 49.515625 64.59375 
L 19.828125 64.59375 
L 19.828125 46.734375 
Q 21.96875 47.46875 24.109375 47.828125 
Q 26.265625 48.1875 28.421875 48.1875 
Q 40.625 48.1875 47.75 41.5 
Q 54.890625 34.8125 54.890625 23.390625 
Q 54.890625 11.625 47.5625 5.09375 
Q 40.234375 -1.421875 26.90625 -1.421875 
Q 22.3125 -1.421875 17.546875 -0.640625 
Q 12.796875 0.140625 7.71875 1.703125 
L 7.71875 11.625 
Q 12.109375 9.234375 16.796875 8.0625 
Q 21.484375 6.890625 26.703125 6.890625 
Q 35.15625 6.890625 40.078125 11.328125 
Q 45.015625 15.765625 45.015625 23.390625 
Q 45.015625 31 40.078125 35.4375 
Q 35.15625 39.890625 26.703125 39.890625 
Q 22.75 39.890625 18.8125 39.015625 
Q 14.890625 38.140625 10.796875 36.28125 
z
" id="DejaVuSans-53"/>
       </defs>
       <use xlink:href="#DejaVuSans-48"/>
       <use x="63.623047" xlink:href="#DejaVuSans-46"/>
       <use x="95.410156" xlink:href="#DejaVuSans-48"/>
       <use x="159.033203" xlink:href="#DejaVuSans-53"/>
      </g>
     </g>
    </g>
    <g id="ytick_3">
     <g id="line2d_3">
      <g>
       <use style="stroke:#000000;stroke-width:0.8;" x="45" xlink:href="#m2bba3df902" y="134.297833"/>
      </g>
     </g>
     <g id="text_3">
      <!-- 0.10 -->
      <g transform="translate(15.734375 138.097051)scale(0.1 -0.1)">
       <defs>
        <path d="M 12.40625 8.296875 
L 28.515625 8.296875 
L 28.515625 63.921875 
L 10.984375 60.40625 
L 10.984375 69.390625 
L 28.421875 72.90625 
L 38.28125 72.90625 
L 38.28125 8.296875 
L 54.390625 8.296875 
L 54.390625 0 
L 12.40625 0 
z
" id="DejaVuSans-49"/>
       </defs>
       <use xlink:href="#DejaVuSans-48"/>
       <use x="63.623047" xlink:href="#DejaVuSans-46"/>
       <use x="95.410156" xlink:href="#DejaVuSans-49"/>
       <use x="159.033203" xlink:href="#DejaVuSans-48"/>
      </g>
     </g>
    </g>
    <g id="ytick_4">
     <g id="line2d_4">
      <g>
       <use style="stroke:#000000;stroke-width:0.8;" x="45" xlink:href="#m2bba3df902" y="110.653113"/>
      </g>
     </g>
     <g id="text_4">
      <!-- 0.15 -->
      <g transform="translate(15.734375 114.452331)scale(0.1 -0.1)">
       <use xlink:href="#DejaVuSans-48"/>
       <use x="63.623047" xlink:href="#DejaVuSans-46"/>
       <use x="95.410156" xlink:href="#DejaVuSans-49"/>
       <use x="159.033203" xlink:href="#DejaVuSans-53"/>
      </g>
     </g>
    </g>
    <g id="ytick_5">
     <g id="line2d_5">
      <g>
       <use style="stroke:#000000;stroke-width:0.8;" x="45" xlink:href="#m2bba3df902" y="87.008393"/>
      </g>
     </g>
     <g id="text_5">
      <!-- 0.20 -->
      <g transform="translate(15.734375 90.807611)scale(0.1 -0.1)">
       <defs>
        <path d="M 19.1875 8.296875 
L 53.609375 8.296875 
L 53.609375 0 
L 7.328125 0 
L 7.328125 8.296875 
Q 12.9375 14.109375 22.625 23.890625 
Q 32.328125 33.6875 34.8125 36.53125 
Q 39.546875 41.84375 41.421875 45.53125 
Q 43.3125 49.21875 43.3125 52.78125 
Q 43.3125 58.59375 39.234375 62.25 
Q 35.15625 65.921875 28.609375 65.921875 
Q 23.96875 65.921875 18.8125 64.3125 
Q 13.671875 62.703125 7.8125 59.421875 
L 7.8125 69.390625 
Q 13.765625 71.78125 18.9375 73 
Q 24.125 74.21875 28.421875 74.21875 
Q 39.75 74.21875 46.484375 68.546875 
Q 53.21875 62.890625 53.21875 53.421875 
Q 53.21875 48.921875 51.53125 44.890625 
Q 49.859375 40.875 45.40625 35.40625 
Q 44.1875 33.984375 37.640625 27.21875 
Q 31.109375 20.453125 19.1875 8.296875 
z
" id="DejaVuSans-50"/>
       </defs>
       <use xlink:href="#DejaVuSans-48"/>
       <use x="63.623047" xlink:href="#DejaVuSans-46"/>
       <use x="95.410156" xlink:href="#DejaVuSans-50"/>
       <use x="159.033203" xlink:href="#DejaVuSans-48"/>
      </g>
     </g>
    </g>
    <g id="ytick_6">
     <g id="line2d_6">
      <g>
       <use style="stroke:#000000;stroke-width:0.8;" x="45" xlink:href="#m2bba3df902" y="63.363672"/>
      </g>
     </g>
     <g id="text_6">
      <!-- 0.25 -->
      <g transform="translate(15.734375 67.162891)scale(0.1 -0.1)">
       <use xlink:href="#DejaVuSans-48"/>
       <use x="63.623047" xlink:href="#DejaVuSans-46"/>
       <use x="95.410156" xlink:href="#DejaVuSans-50"/>
       <use x="159.033203" xlink:href="#DejaVuSans-53"/>
      </g>
     </g>
    </g>
    <g id="ytick_7">
     <g id="line2d_7">
      <g>
       <use style="stroke:#000000;stroke-width:0.8;" x="45" xlink:href="#m2bba3df902" y="39.718952"/>
      </g>
     </g>
     <g id="text_7">
      <!-- 0.30 -->
      <g transform="translate(15.734375 43.518171)scale(0.1 -0.1)">
       <defs>
        <path d="M 40.578125 39.3125 
Q 47.65625 37.796875 51.625 33 
Q 55.609375 28.21875 55.609375 21.1875 
Q 55.609375 10.40625 48.1875 4.484375 
Q 40.765625 -1.421875 27.09375 -1.421875 
Q 22.515625 -1.421875 17.65625 -0.515625 
Q 12.796875 0.390625 7.625 2.203125 
L 7.625 11.71875 
Q 11.71875 9.328125 16.59375 8.109375 
Q 21.484375 6.890625 26.8125 6.890625 
Q 36.078125 6.890625 40.9375 10.546875 
Q 45.796875 14.203125 45.796875 21.1875 
Q 45.796875 27.640625 41.28125 31.265625 
Q 36.765625 34.90625 28.71875 34.90625 
L 20.21875 34.90625 
L 20.21875 43.015625 
L 29.109375 43.015625 
Q 36.375 43.015625 40.234375 45.921875 
Q 44.09375 48.828125 44.09375 54.296875 
Q 44.09375 59.90625 40.109375 62.90625 
Q 36.140625 65.921875 28.71875 65.921875 
Q 24.65625 65.921875 20.015625 65.03125 
Q 15.375 64.15625 9.8125 62.3125 
L 9.8125 71.09375 
Q 15.4375 72.65625 20.34375 73.4375 
Q 25.25 74.21875 29.59375 74.21875 
Q 40.828125 74.21875 47.359375 69.109375 
Q 53.90625 64.015625 53.90625 55.328125 
Q 53.90625 49.265625 50.4375 45.09375 
Q 46.96875 40.921875 40.578125 39.3125 
z
" id="DejaVuSans-51"/>
       </defs>
       <use xlink:href="#DejaVuSans-48"/>
       <use x="63.623047" xlink:href="#DejaVuSans-46"/>
       <use x="95.410156" xlink:href="#DejaVuSans-51"/>
       <use x="159.033203" xlink:href="#DejaVuSans-48"/>
      </g>
     </g>
    </g>
   </g>
   <g id="line2d_8">
    <path clip-path="url(#p5b5e0f1530)" d="M 57.681818 181.587273 
L 87.790775 181.476921 
L 91.541444 181.160054 
L 95.395722 180.609994 
L 99.477941 179.800781 
L 103.850267 178.703256 
L 108.512701 177.301244 
L 113.589572 175.538585 
L 119.143048 173.370259 
L 125.318182 170.7154 
L 132.301471 167.464786 
L 140.486631 163.402964 
L 150.826872 158.008967 
L 167.28008 149.136929 
L 189.618316 137.142588 
L 202.880348 130.286275 
L 208.18516 127.722829 
L 211.894385 126.191542 
L 215.624332 124.891692 
L 219.47861 123.784052 
L 223.477941 122.866327 
L 227.66377 122.135486 
L 232.036096 121.598814 
L 236.657086 121.257673 
L 241.54746 121.121961 
L 246.769385 121.202596 
L 252.364305 121.514219 
L 258.435829 122.07862 
L 265.087567 122.924453 
L 272.485294 124.094139 
L 280.898396 125.655663 
L 290.782754 127.72415 
L 303.215909 130.5651 
L 311.318182 132.502882 
L 311.318182 132.502882 
" style="fill:none;stroke:#2ca02c;stroke-dasharray:11.1,4.8;stroke-dashoffset:0;stroke-width:3;"/>
   </g>
   <g id="line2d_9">
    <path clip-path="url(#p5b5e0f1530)" d="M 57.681818 181.587273 
L 86.278075 181.477641 
L 88.723262 181.173039 
L 91.127005 180.649303 
L 93.613636 179.876579 
L 96.203877 178.835286 
L 98.939171 177.491317 
L 101.819519 175.824565 
L 104.886364 173.78869 
L 108.160428 171.344133 
L 111.683155 168.430426 
L 115.475267 164.999778 
L 119.59893 160.963155 
L 124.137032 156.200888 
L 129.151738 150.606825 
L 134.788102 143.977011 
L 141.274064 135.995888 
L 149.106952 125.992981 
L 159.861631 111.867996 
L 189.908422 72.233685 
L 200.165775 59.185383 
L 206.610294 51.286748 
L 209.490642 48.127011 
L 212.205214 45.474848 
L 214.899064 43.151326 
L 217.592914 41.11941 
L 220.307487 39.349401 
L 223.042781 37.830316 
L 225.819519 36.542582 
L 228.637701 35.480746 
L 231.518048 34.633714 
L 234.460561 34.00007 
L 237.485963 33.575413 
L 240.635695 33.359615 
L 243.889037 33.360341 
L 247.287433 33.583965 
L 250.872326 34.045305 
L 254.643717 34.757364 
L 258.643048 35.741108 
L 262.911765 37.022714 
L 267.512032 38.63984 
L 272.506016 40.635985 
L 277.976604 43.067412 
L 284.048128 46.01443 
L 290.948529 49.61716 
L 299.071524 54.117611 
L 309.349599 60.080256 
L 311.318182 61.244789 
L 311.318182 61.244789 
" style="fill:none;stroke:#2ca02c;stroke-linecap:square;stroke-width:3;"/>
   </g>
   <g id="patch_3">
    <path d="M 45 189 
L 45 25.92 
" style="fill:none;stroke:#000000;stroke-linecap:square;stroke-linejoin:miter;stroke-width:0.8;"/>
   </g>
   <g id="patch_4">
    <path d="M 324 189 
L 324 25.92 
" style="fill:none;stroke:#000000;stroke-linecap:square;stroke-linejoin:miter;stroke-width:0.8;"/>
   </g>
   <g id="patch_5">
    <path d="M 45 189 
L 324 189 
" style="fill:none;stroke:#000000;stroke-linecap:square;stroke-linejoin:miter;stroke-width:0.8;"/>
   </g>
   <g id="patch_6">
    <path d="M 45 25.92 
L 324 25.92 
" style="fill:none;stroke:#000000;stroke-linecap:square;stroke-linejoin:miter;stroke-width:0.8;"/>
   </g>
  </g>
 </g>
 <defs>
  <clipPath id="p5b5e0f1530">
   <rect height="163.08" width="279" x="45" y="25.92"/>
  </clipPath>
 </defs>
</svg>
