<?xml version="1.0" encoding="utf-8" standalone="no"?>
<!DOCTYPE svg PUBLIC "-//W3C//DTD SVG 1.1//EN"
  "http://www.w3.org/Graphics/SVG/1.1/DTD/svg11.dtd">
<!-- Created with matplotlib (https://matplotlib.org/) -->
<svg height="216pt" version="1.1" viewBox="0 0 360 216" width="360pt" xmlns="http://www.w3.org/2000/svg" xmlns:xlink="http://www.w3.org/1999/xlink">
 <metadata>
  <rdf:RDF xmlns:cc="http://creativecommons.org/ns#" xmlns:dc="http://purl.org/dc/elements/1.1/" xmlns:rdf="http://www.w3.org/1999/02/22-rdf-syntax-ns#">
   <cc:Work>
    <dc:type rdf:resource="http://purl.org/dc/dcmitype/StillImage"/>
    <dc:date>2024-12-04T13:20:42.640097</dc:date>
    <dc:format>image/svg+xml</dc:format>
    <dc:creator>
     <cc:Agent>
      <dc:title>Matplotlib v3.3.2, https://matplotlib.org/</dc:title>
     </cc:Agent>
    </dc:creator>
   </cc:Work>
  </rdf:RDF>
 </metadata>
 <defs>
  <style type="text/css">*{stroke-linecap:butt;stroke-linejoin:round;}</style>
 </defs>
 <g id="figure_1">
  <g id="patch_1">
   <path d="M 0 216 
L 360 216 
L 360 0 
L 0 0 
z
" style="fill:none;"/>
  </g>
  <g id="axes_1">
   <g id="patch_2">
    <path d="M 45 189 
L 324 189 
L 324 25.92 
L 45 25.92 
z
" style="fill:#ffffff;"/>
   </g>
   <g id="PathCollection_1">
    <path clip-path="url(#pbc546ee079)" d="M 62.65508 184.841163 
C 63.592715 184.841163 64.492072 184.468636 65.15508 183.805629 
C 65.818088 183.142621 66.190614 182.243263 66.190614 181.305629 
C 66.190614 180.367994 65.818088 179.468636 65.15508 178.805629 
C 64.492072 178.142621 63.592715 177.770095 62.65508 177.770095 
C 61.717446 177.770095 60.818088 178.142621 60.15508 178.805629 
C 59.492072 179.468636 59.119546 180.367994 59.119546 181.305629 
C 59.119546 182.243263 59.492072 183.142621 60.15508 183.805629 
C 60.818088 184.468636 61.717446 184.841163 62.65508 184.841163 
z
" style="fill:none;stroke:#9467bd;"/>
   </g>
   <g id="PathCollection_2">
    <path clip-path="url(#pbc546ee079)" d="M 67.628342 184.955168 
C 68.565977 184.955168 69.465334 184.582641 70.128342 183.919634 
C 70.79135 183.256626 71.163876 182.357268 71.163876 181.419634 
C 71.163876 180.481999 70.79135 179.582641 70.128342 178.919634 
C 69.465334 178.256626 68.565977 177.8841 67.628342 177.8841 
C 66.690708 177.8841 65.79135 178.256626 65.128342 178.919634 
C 64.465334 179.582641 64.092808 180.481999 64.092808 181.419634 
C 64.092808 182.357268 64.465334 183.256626 65.128342 183.919634 
C 65.79135 184.582641 66.690708 184.955168 67.628342 184.955168 
z
" style="fill:none;stroke:#9467bd;"/>
   </g>
   <g id="PathCollection_3">
    <path clip-path="url(#pbc546ee079)" d="M 72.601604 185.122807 
C 73.539239 185.122807 74.438597 184.75028 75.101604 184.087273 
C 75.764612 183.424265 76.137138 182.524907 76.137138 181.587273 
C 76.137138 180.649638 75.764612 179.75028 75.101604 179.087273 
C 74.438597 178.424265 73.539239 178.051739 72.601604 178.051739 
C 71.66397 178.051739 70.764612 178.424265 70.101604 179.087273 
C 69.438597 179.75028 69.06607 180.649638 69.06607 181.587273 
C 69.06607 182.524907 69.438597 183.424265 70.101604 184.087273 
C 70.764612 184.75028 71.66397 185.122807 72.601604 185.122807 
z
" style="fill:none;stroke:#9467bd;"/>
   </g>
   <g id="PathCollection_4">
    <path clip-path="url(#pbc546ee079)" d="M 77.574866 185.104091 
C 78.512501 185.104091 79.411859 184.731565 80.074866 184.068557 
C 80.737874 183.405549 81.1104 182.506191 81.1104 181.568557 
C 81.1104 180.630922 80.737874 179.731565 80.074866 179.068557 
C 79.411859 178.405549 78.512501 178.033023 77.574866 178.033023 
C 76.637232 178.033023 75.737874 178.405549 75.074866 179.068557 
C 74.411859 179.731565 74.039332 180.630922 74.039332 181.568557 
C 74.039332 182.506191 74.411859 183.405549 75.074866 184.068557 
C 75.737874 184.731565 76.637232 185.104091 77.574866 185.104091 
z
" style="fill:none;stroke:#9467bd;"/>
   </g>
   <g id="PathCollection_5">
    <path clip-path="url(#pbc546ee079)" d="M 82.548128 184.734032 
C 83.485763 184.734032 84.385121 184.361506 85.048128 183.698498 
C 85.711136 183.035491 86.083662 182.136133 86.083662 181.198498 
C 86.083662 180.260864 85.711136 179.361506 85.048128 178.698498 
C 84.385121 178.035491 83.485763 177.662965 82.548128 177.662965 
C 81.610494 177.662965 80.711136 178.035491 80.048128 178.698498 
C 79.385121 179.361506 79.012594 180.260864 79.012594 181.198498 
C 79.012594 182.136133 79.385121 183.035491 80.048128 183.698498 
C 80.711136 184.361506 81.610494 184.734032 82.548128 184.734032 
z
" style="fill:none;stroke:#9467bd;"/>
   </g>
   <g id="PathCollection_6">
    <path clip-path="url(#pbc546ee079)" d="M 87.52139 183.909887 
C 88.459025 183.909887 89.358383 183.53736 90.02139 182.874353 
C 90.684398 182.211345 91.056924 181.311987 91.056924 180.374353 
C 91.056924 179.436718 90.684398 178.53736 90.02139 177.874353 
C 89.358383 177.211345 88.459025 176.838819 87.52139 176.838819 
C 86.583756 176.838819 85.684398 177.211345 85.02139 177.874353 
C 84.358383 178.53736 83.985856 179.436718 83.985856 180.374353 
C 83.985856 181.311987 84.358383 182.211345 85.02139 182.874353 
C 85.684398 183.53736 86.583756 183.909887 87.52139 183.909887 
z
" style="fill:none;stroke:#9467bd;"/>
   </g>
   <g id="PathCollection_7">
    <path clip-path="url(#pbc546ee079)" d="M 92.494652 182.579691 
C 93.432287 182.579691 94.331645 182.207164 94.994652 181.544157 
C 95.65766 180.881149 96.030186 179.981791 96.030186 179.044157 
C 96.030186 178.106522 95.65766 177.207164 94.994652 176.544157 
C 94.331645 175.881149 93.432287 175.508623 92.494652 175.508623 
C 91.557018 175.508623 90.65766 175.881149 89.994652 176.544157 
C 89.331645 177.207164 88.959119 178.106522 88.959119 179.044157 
C 88.959119 179.981791 89.331645 180.881149 89.994652 181.544157 
C 90.65766 182.207164 91.557018 182.579691 92.494652 182.579691 
z
" style="fill:none;stroke:#9467bd;"/>
   </g>
   <g id="PathCollection_8">
    <path clip-path="url(#pbc546ee079)" d="M 97.467914 180.731956 
C 98.405549 180.731956 99.304907 180.35943 99.967914 179.696422 
C 100.630922 179.033415 101.003448 178.134057 101.003448 177.196422 
C 101.003448 176.258788 100.630922 175.35943 99.967914 174.696422 
C 99.304907 174.033415 98.405549 173.660888 97.467914 173.660888 
C 96.53028 173.660888 95.630922 174.033415 94.967914 174.696422 
C 94.304907 175.35943 93.932381 176.258788 93.932381 177.196422 
C 93.932381 178.134057 94.304907 179.033415 94.967914 179.696422 
C 95.630922 180.35943 96.53028 180.731956 97.467914 180.731956 
z
" style="fill:none;stroke:#9467bd;"/>
   </g>
   <g id="PathCollection_9">
    <path clip-path="url(#pbc546ee079)" d="M 102.441176 178.386551 
C 103.378811 178.386551 104.278169 178.014024 104.941176 177.351017 
C 105.604184 176.688009 105.97671 175.788651 105.97671 174.851017 
C 105.97671 173.913382 105.604184 173.014024 104.941176 172.351017 
C 104.278169 171.688009 103.378811 171.315483 102.441176 171.315483 
C 101.503542 171.315483 100.604184 171.688009 99.941176 172.351017 
C 99.278169 173.014024 98.905643 173.913382 98.905643 174.851017 
C 98.905643 175.788651 99.278169 176.688009 99.941176 177.351017 
C 100.604184 178.014024 101.503542 178.386551 102.441176 178.386551 
z
" style="fill:none;stroke:#9467bd;"/>
   </g>
   <g id="PathCollection_10">
    <path clip-path="url(#pbc546ee079)" d="M 107.414439 175.586646 
C 108.352073 175.586646 109.251431 175.214119 109.914439 174.551112 
C 110.577446 173.888104 110.949972 172.988746 110.949972 172.051112 
C 110.949972 171.113477 110.577446 170.214119 109.914439 169.551112 
C 109.251431 168.888104 108.352073 168.515578 107.414439 168.515578 
C 106.476804 168.515578 105.577446 168.888104 104.914439 169.551112 
C 104.251431 170.214119 103.878905 171.113477 103.878905 172.051112 
C 103.878905 172.988746 104.251431 173.888104 104.914439 174.551112 
C 105.577446 175.214119 106.476804 175.586646 107.414439 175.586646 
z
" style="fill:none;stroke:#9467bd;"/>
   </g>
   <g id="PathCollection_11">
    <path clip-path="url(#pbc546ee079)" d="M 112.387701 172.391704 
C 113.325335 172.391704 114.224693 172.019178 114.887701 171.35617 
C 115.550708 170.693162 115.923234 169.793805 115.923234 168.85617 
C 115.923234 167.918536 115.550708 167.019178 114.887701 166.35617 
C 114.224693 165.693162 113.325335 165.320636 112.387701 165.320636 
C 111.450066 165.320636 110.550708 165.693162 109.887701 166.35617 
C 109.224693 167.019178 108.852167 167.918536 108.852167 168.85617 
C 108.852167 169.793805 109.224693 170.693162 109.887701 171.35617 
C 110.550708 172.019178 111.450066 172.391704 112.387701 172.391704 
z
" style="fill:none;stroke:#9467bd;"/>
   </g>
   <g id="PathCollection_12">
    <path clip-path="url(#pbc546ee079)" d="M 117.360963 168.871437 
C 118.298597 168.871437 119.197955 168.498911 119.860963 167.835903 
C 120.52397 167.172895 120.896496 166.273538 120.896496 165.335903 
C 120.896496 164.398268 120.52397 163.498911 119.860963 162.835903 
C 119.197955 162.172895 118.298597 161.800369 117.360963 161.800369 
C 116.423328 161.800369 115.52397 162.172895 114.860963 162.835903 
C 114.197955 163.498911 113.825429 164.398268 113.825429 165.335903 
C 113.825429 166.273538 114.197955 167.172895 114.860963 167.835903 
C 115.52397 168.498911 116.423328 168.871437 117.360963 168.871437 
z
" style="fill:none;stroke:#9467bd;"/>
   </g>
   <g id="PathCollection_13">
    <path clip-path="url(#pbc546ee079)" d="M 122.334225 165.100678 
C 123.271859 165.100678 124.171217 164.728151 124.834225 164.065144 
C 125.497232 163.402136 125.869759 162.502778 125.869759 161.565144 
C 125.869759 160.627509 125.497232 159.728151 124.834225 159.065144 
C 124.171217 158.402136 123.271859 158.02961 122.334225 158.02961 
C 121.39659 158.02961 120.497232 158.402136 119.834225 159.065144 
C 119.171217 159.728151 118.798691 160.627509 118.798691 161.565144 
C 118.798691 162.502778 119.171217 163.402136 119.834225 164.065144 
C 120.497232 164.728151 121.39659 165.100678 122.334225 165.100678 
z
" style="fill:none;stroke:#9467bd;"/>
   </g>
   <g id="PathCollection_14">
    <path clip-path="url(#pbc546ee079)" d="M 127.307487 161.155112 
C 128.245121 161.155112 129.144479 160.782586 129.807487 160.119578 
C 130.470494 159.456571 130.843021 158.557213 130.843021 157.619578 
C 130.843021 156.681944 130.470494 155.782586 129.807487 155.119578 
C 129.144479 154.456571 128.245121 154.084044 127.307487 154.084044 
C 126.369852 154.084044 125.470494 154.456571 124.807487 155.119578 
C 124.144479 155.782586 123.771953 156.681944 123.771953 157.619578 
C 123.771953 158.557213 124.144479 159.456571 124.807487 160.119578 
C 125.470494 160.782586 126.369852 161.155112 127.307487 161.155112 
z
" style="fill:none;stroke:#9467bd;"/>
   </g>
   <g id="PathCollection_15">
    <path clip-path="url(#pbc546ee079)" d="M 132.280749 157.107811 
C 133.218383 157.107811 134.117741 156.735285 134.780749 156.072277 
C 135.443756 155.40927 135.816283 154.509912 135.816283 153.572277 
C 135.816283 152.634643 135.443756 151.735285 134.780749 151.072277 
C 134.117741 150.40927 133.218383 150.036744 132.280749 150.036744 
C 131.343114 150.036744 130.443756 150.40927 129.780749 151.072277 
C 129.117741 151.735285 128.745215 152.634643 128.745215 153.572277 
C 128.745215 154.509912 129.117741 155.40927 129.780749 156.072277 
C 130.443756 156.735285 131.343114 157.107811 132.280749 157.107811 
z
" style="fill:none;stroke:#9467bd;"/>
   </g>
   <g id="PathCollection_16">
    <path clip-path="url(#pbc546ee079)" d="M 137.254011 153.026501 
C 138.191645 153.026501 139.091003 152.653975 139.754011 151.990968 
C 140.417018 151.32796 140.789545 150.428602 140.789545 149.490968 
C 140.789545 148.553333 140.417018 147.653975 139.754011 146.990968 
C 139.091003 146.32796 138.191645 145.955434 137.254011 145.955434 
C 136.316376 145.955434 135.417018 146.32796 134.754011 146.990968 
C 134.091003 147.653975 133.718477 148.553333 133.718477 149.490968 
C 133.718477 150.428602 134.091003 151.32796 134.754011 151.990968 
C 135.417018 152.653975 136.316376 153.026501 137.254011 153.026501 
z
" style="fill:none;stroke:#9467bd;"/>
   </g>
   <g id="PathCollection_17">
    <path clip-path="url(#pbc546ee079)" d="M 142.227273 148.971523 
C 143.164907 148.971523 144.064265 148.598997 144.727273 147.935989 
C 145.39028 147.272981 145.762807 146.373624 145.762807 145.435989 
C 145.762807 144.498354 145.39028 143.598997 144.727273 142.935989 
C 144.064265 142.272981 143.164907 141.900455 142.227273 141.900455 
C 141.289638 141.900455 140.39028 142.272981 139.727273 142.935989 
C 139.064265 143.598997 138.691739 144.498354 138.691739 145.435989 
C 138.691739 146.373624 139.064265 147.272981 139.727273 147.935989 
C 140.39028 148.598997 141.289638 148.971523 142.227273 148.971523 
z
" style="fill:none;stroke:#9467bd;"/>
   </g>
   <g id="PathCollection_18">
    <path clip-path="url(#pbc546ee079)" d="M 147.200535 144.994414 
C 148.138169 144.994414 149.037527 144.621887 149.700535 143.95888 
C 150.363543 143.295872 150.736069 142.396514 150.736069 141.45888 
C 150.736069 140.521245 150.363543 139.621887 149.700535 138.95888 
C 149.037527 138.295872 148.138169 137.923346 147.200535 137.923346 
C 146.2629 137.923346 145.363543 138.295872 144.700535 138.95888 
C 144.037527 139.621887 143.665001 140.521245 143.665001 141.45888 
C 143.665001 142.396514 144.037527 143.295872 144.700535 143.95888 
C 145.363543 144.621887 146.2629 144.994414 147.200535 144.994414 
z
" style="fill:none;stroke:#9467bd;"/>
   </g>
   <g id="PathCollection_19">
    <path clip-path="url(#pbc546ee079)" d="M 152.173797 141.137059 
C 153.111431 141.137059 154.010789 140.764533 154.673797 140.101526 
C 155.336805 139.438518 155.709331 138.53916 155.709331 137.601526 
C 155.709331 136.663891 155.336805 135.764533 154.673797 135.101526 
C 154.010789 134.438518 153.111431 134.065992 152.173797 134.065992 
C 151.236162 134.065992 150.336805 134.438518 149.673797 135.101526 
C 149.010789 135.764533 148.638263 136.663891 148.638263 137.601526 
C 148.638263 138.53916 149.010789 139.438518 149.673797 140.101526 
C 150.336805 140.764533 151.236162 141.137059 152.173797 141.137059 
z
" style="fill:none;stroke:#9467bd;"/>
   </g>
   <g id="PathCollection_20">
    <path clip-path="url(#pbc546ee079)" d="M 157.147059 137.431359 
C 158.084693 137.431359 158.984051 137.058833 159.647059 136.395825 
C 160.310067 135.732818 160.682593 134.83346 160.682593 133.895825 
C 160.682593 132.958191 160.310067 132.058833 159.647059 131.395825 
C 158.984051 130.732818 158.084693 130.360291 157.147059 130.360291 
C 156.209424 130.360291 155.310067 130.732818 154.647059 131.395825 
C 153.984051 132.058833 153.611525 132.958191 153.611525 133.895825 
C 153.611525 134.83346 153.984051 135.732818 154.647059 136.395825 
C 155.310067 137.058833 156.209424 137.431359 157.147059 137.431359 
z
" style="fill:none;stroke:#9467bd;"/>
   </g>
   <g id="PathCollection_21">
    <path clip-path="url(#pbc546ee079)" d="M 162.120321 133.899341 
C 163.057955 133.899341 163.957313 133.526815 164.620321 132.863807 
C 165.283329 132.200799 165.655855 131.301442 165.655855 130.363807 
C 165.655855 129.426172 165.283329 128.526815 164.620321 127.863807 
C 163.957313 127.200799 163.057955 126.828273 162.120321 126.828273 
C 161.182686 126.828273 160.283329 127.200799 159.620321 127.863807 
C 158.957313 128.526815 158.584787 129.426172 158.584787 130.363807 
C 158.584787 131.301442 158.957313 132.200799 159.620321 132.863807 
C 160.283329 133.526815 161.182686 133.899341 162.120321 133.899341 
z
" style="fill:none;stroke:#9467bd;"/>
   </g>
   <g id="PathCollection_22">
    <path clip-path="url(#pbc546ee079)" d="M 167.093583 130.553671 
C 168.031217 130.553671 168.930575 130.181144 169.593583 129.518137 
C 170.256591 128.855129 170.629117 127.955771 170.629117 127.018137 
C 170.629117 126.080502 170.256591 125.181144 169.593583 124.518137 
C 168.930575 123.855129 168.031217 123.482603 167.093583 123.482603 
C 166.155948 123.482603 165.256591 123.855129 164.593583 124.518137 
C 163.930575 125.181144 163.558049 126.080502 163.558049 127.018137 
C 163.558049 127.955771 163.930575 128.855129 164.593583 129.518137 
C 165.256591 130.181144 166.155948 130.553671 167.093583 130.553671 
z
" style="fill:none;stroke:#9467bd;"/>
   </g>
   <g id="PathCollection_23">
    <path clip-path="url(#pbc546ee079)" d="M 172.066845 127.398505 
C 173.004479 127.398505 173.903837 127.025979 174.566845 126.362971 
C 175.229853 125.699963 175.602379 124.800605 175.602379 123.862971 
C 175.602379 122.925336 175.229853 122.025979 174.566845 121.362971 
C 173.903837 120.699963 173.004479 120.327437 172.066845 120.327437 
C 171.12921 120.327437 170.229853 120.699963 169.566845 121.362971 
C 168.903837 122.025979 168.531311 122.925336 168.531311 123.862971 
C 168.531311 124.800605 168.903837 125.699963 169.566845 126.362971 
C 170.229853 127.025979 171.12921 127.398505 172.066845 127.398505 
z
" style="fill:none;stroke:#9467bd;"/>
   </g>
   <g id="PathCollection_24">
    <path clip-path="url(#pbc546ee079)" d="M 177.040107 124.430617 
C 177.977742 124.430617 178.877099 124.058091 179.540107 123.395083 
C 180.203115 122.732075 180.575641 121.832717 180.575641 120.895083 
C 180.575641 119.957448 180.203115 119.058091 179.540107 118.395083 
C 178.877099 117.732075 177.977742 117.359549 177.040107 117.359549 
C 176.102472 117.359549 175.203115 117.732075 174.540107 118.395083 
C 173.877099 119.058091 173.504573 119.957448 173.504573 120.895083 
C 173.504573 121.832717 173.877099 122.732075 174.540107 123.395083 
C 175.203115 124.058091 176.102472 124.430617 177.040107 124.430617 
z
" style="fill:none;stroke:#9467bd;"/>
   </g>
   <g id="PathCollection_25">
    <path clip-path="url(#pbc546ee079)" d="M 182.013369 121.64075 
C 182.951004 121.64075 183.850361 121.268224 184.513369 120.605216 
C 185.176377 119.942208 185.548903 119.04285 185.548903 118.105216 
C 185.548903 117.167581 185.176377 116.268224 184.513369 115.605216 
C 183.850361 114.942208 182.951004 114.569682 182.013369 114.569682 
C 181.075734 114.569682 180.176377 114.942208 179.513369 115.605216 
C 178.850361 116.268224 178.477835 117.167581 178.477835 118.105216 
C 178.477835 119.04285 178.850361 119.942208 179.513369 120.605216 
C 180.176377 121.268224 181.075734 121.64075 182.013369 121.64075 
z
" style="fill:none;stroke:#9467bd;"/>
   </g>
   <g id="PathCollection_26">
    <path clip-path="url(#pbc546ee079)" d="M 186.986631 119.01513 
C 187.924266 119.01513 188.823623 118.642603 189.486631 117.979596 
C 190.149639 117.316588 190.522165 116.41723 190.522165 115.479596 
C 190.522165 114.541961 190.149639 113.642603 189.486631 112.979596 
C 188.823623 112.316588 187.924266 111.944062 186.986631 111.944062 
C 186.048996 111.944062 185.149639 112.316588 184.486631 112.979596 
C 183.823623 113.642603 183.451097 114.541961 183.451097 115.479596 
C 183.451097 116.41723 183.823623 117.316588 184.486631 117.979596 
C 185.149639 118.642603 186.048996 119.01513 186.986631 119.01513 
z
" style="fill:none;stroke:#9467bd;"/>
   </g>
   <g id="PathCollection_27">
    <path clip-path="url(#pbc546ee079)" d="M 191.959893 116.537088 
C 192.897528 116.537088 193.796885 116.164562 194.459893 115.501554 
C 195.122901 114.838547 195.495427 113.939189 195.495427 113.001554 
C 195.495427 112.06392 195.122901 111.164562 194.459893 110.501554 
C 193.796885 109.838547 192.897528 109.46602 191.959893 109.46602 
C 191.022258 109.46602 190.122901 109.838547 189.459893 110.501554 
C 188.796885 111.164562 188.424359 112.06392 188.424359 113.001554 
C 188.424359 113.939189 188.796885 114.838547 189.459893 115.501554 
C 190.122901 116.164562 191.022258 116.537088 191.959893 116.537088 
z
" style="fill:none;stroke:#9467bd;"/>
   </g>
   <g id="PathCollection_28">
    <path clip-path="url(#pbc546ee079)" d="M 196.933155 114.188733 
C 197.87079 114.188733 198.770147 113.816207 199.433155 113.153199 
C 200.096163 112.490192 200.468689 111.590834 200.468689 110.653199 
C 200.468689 109.715565 200.096163 108.816207 199.433155 108.153199 
C 198.770147 107.490192 197.87079 107.117665 196.933155 107.117665 
C 195.995521 107.117665 195.096163 107.490192 194.433155 108.153199 
C 193.770147 108.816207 193.397621 109.715565 193.397621 110.653199 
C 193.397621 111.590834 193.770147 112.490192 194.433155 113.153199 
C 195.096163 113.816207 195.995521 114.188733 196.933155 114.188733 
z
" style="fill:none;stroke:#9467bd;"/>
   </g>
   <g id="PathCollection_29">
    <path clip-path="url(#pbc546ee079)" d="M 201.906417 111.95261 
C 202.844052 111.95261 203.743409 111.580083 204.406417 110.917076 
C 205.069425 110.254068 205.441951 109.35471 205.441951 108.417076 
C 205.441951 107.479441 205.069425 106.580083 204.406417 105.917076 
C 203.743409 105.254068 202.844052 104.881542 201.906417 104.881542 
C 200.968783 104.881542 200.069425 105.254068 199.406417 105.917076 
C 198.743409 106.580083 198.370883 107.479441 198.370883 108.417076 
C 198.370883 109.35471 198.743409 110.254068 199.406417 110.917076 
C 200.069425 111.580083 200.968783 111.95261 201.906417 111.95261 
z
" style="fill:none;stroke:#9467bd;"/>
   </g>
   <g id="PathCollection_30">
    <path clip-path="url(#pbc546ee079)" d="M 206.879679 109.813293 
C 207.817314 109.813293 208.716671 109.440767 209.379679 108.777759 
C 210.042687 108.114752 210.415213 107.215394 210.415213 106.277759 
C 210.415213 105.340125 210.042687 104.440767 209.379679 103.777759 
C 208.716671 103.114752 207.817314 102.742225 206.879679 102.742225 
C 205.942045 102.742225 205.042687 103.114752 204.379679 103.777759 
C 203.716671 104.440767 203.344145 105.340125 203.344145 106.277759 
C 203.344145 107.215394 203.716671 108.114752 204.379679 108.777759 
C 205.042687 109.440767 205.942045 109.813293 206.879679 109.813293 
z
" style="fill:none;stroke:#9467bd;"/>
   </g>
   <g id="PathCollection_31">
    <path clip-path="url(#pbc546ee079)" d="M 211.852941 107.758862 
C 212.790576 107.758862 213.689933 107.386335 214.352941 106.723328 
C 215.015949 106.06032 215.388475 105.160962 215.388475 104.223328 
C 215.388475 103.285693 215.015949 102.386335 214.352941 101.723328 
C 213.689933 101.06032 212.790576 100.687794 211.852941 100.687794 
C 210.915307 100.687794 210.015949 101.06032 209.352941 101.723328 
C 208.689933 102.386335 208.317407 103.285693 208.317407 104.223328 
C 208.317407 105.160962 208.689933 106.06032 209.352941 106.723328 
C 210.015949 107.386335 210.915307 107.758862 211.852941 107.758862 
z
" style="fill:none;stroke:#9467bd;"/>
   </g>
   <g id="PathCollection_32">
    <path clip-path="url(#pbc546ee079)" d="M 216.826203 105.78218 
C 217.763838 105.78218 218.663195 105.409654 219.326203 104.746646 
C 219.989211 104.083638 220.361737 103.184281 220.361737 102.246646 
C 220.361737 101.309012 219.989211 100.409654 219.326203 99.746646 
C 218.663195 99.083638 217.763838 98.711112 216.826203 98.711112 
C 215.888569 98.711112 214.989211 99.083638 214.326203 99.746646 
C 213.663195 100.409654 213.290669 101.309012 213.290669 102.246646 
C 213.290669 103.184281 213.663195 104.083638 214.326203 104.746646 
C 214.989211 105.409654 215.888569 105.78218 216.826203 105.78218 
z
" style="fill:none;stroke:#9467bd;"/>
   </g>
   <g id="PathCollection_33">
    <path clip-path="url(#pbc546ee079)" d="M 221.799465 103.881951 
C 222.7371 103.881951 223.636457 103.509425 224.299465 102.846417 
C 224.962473 102.18341 225.334999 101.284052 225.334999 100.346417 
C 225.334999 99.408783 224.962473 98.509425 224.299465 97.846417 
C 223.636457 97.18341 222.7371 96.810883 221.799465 96.810883 
C 220.861831 96.810883 219.962473 97.18341 219.299465 97.846417 
C 218.636457 98.509425 218.263931 99.408783 218.263931 100.346417 
C 218.263931 101.284052 218.636457 102.18341 219.299465 102.846417 
C 219.962473 103.509425 220.861831 103.881951 221.799465 103.881951 
z
" style="fill:none;stroke:#9467bd;"/>
   </g>
   <g id="PathCollection_34">
    <path clip-path="url(#pbc546ee079)" d="M 226.772727 102.063461 
C 227.710362 102.063461 228.60972 101.690934 229.272727 101.027927 
C 229.935735 100.364919 230.308261 99.465561 230.308261 98.527927 
C 230.308261 97.590292 229.935735 96.690934 229.272727 96.027927 
C 228.60972 95.364919 227.710362 94.992393 226.772727 94.992393 
C 225.835093 94.992393 224.935735 95.364919 224.272727 96.027927 
C 223.60972 96.690934 223.237193 97.590292 223.237193 98.527927 
C 223.237193 99.465561 223.60972 100.364919 224.272727 101.027927 
C 224.935735 101.690934 225.835093 102.063461 226.772727 102.063461 
z
" style="fill:none;stroke:#9467bd;"/>
   </g>
   <g id="PathCollection_35">
    <path clip-path="url(#pbc546ee079)" d="M 231.745989 100.338974 
C 232.683624 100.338974 233.582982 99.966448 234.245989 99.30344 
C 234.908997 98.640432 235.281523 97.741074 235.281523 96.80344 
C 235.281523 95.865805 234.908997 94.966448 234.245989 94.30344 
C 233.582982 93.640432 232.683624 93.267906 231.745989 93.267906 
C 230.808355 93.267906 229.908997 93.640432 229.245989 94.30344 
C 228.582982 94.966448 228.210455 95.865805 228.210455 96.80344 
C 228.210455 97.741074 228.582982 98.640432 229.245989 99.30344 
C 229.908997 99.966448 230.808355 100.338974 231.745989 100.338974 
z
" style="fill:none;stroke:#9467bd;"/>
   </g>
   <g id="PathCollection_36">
    <path clip-path="url(#pbc546ee079)" d="M 236.719251 98.727713 
C 237.656886 98.727713 238.556244 98.355187 239.219251 97.69218 
C 239.882259 97.029172 240.254785 96.129814 240.254785 95.19218 
C 240.254785 94.254545 239.882259 93.355187 239.219251 92.69218 
C 238.556244 92.029172 237.656886 91.656646 236.719251 91.656646 
C 235.781617 91.656646 234.882259 92.029172 234.219251 92.69218 
C 233.556244 93.355187 233.183717 94.254545 233.183717 95.19218 
C 233.183717 96.129814 233.556244 97.029172 234.219251 97.69218 
C 234.882259 98.355187 235.781617 98.727713 236.719251 98.727713 
z
" style="fill:none;stroke:#9467bd;"/>
   </g>
   <g id="PathCollection_37">
    <path clip-path="url(#pbc546ee079)" d="M 241.692513 97.25537 
C 242.630148 97.25537 243.529506 96.882844 244.192513 96.219837 
C 244.855521 95.556829 245.228047 94.657471 245.228047 93.719837 
C 245.228047 92.782202 244.855521 91.882844 244.192513 91.219837 
C 243.529506 90.556829 242.630148 90.184303 241.692513 90.184303 
C 240.754879 90.184303 239.855521 90.556829 239.192513 91.219837 
C 238.529506 91.882844 238.156979 92.782202 238.156979 93.719837 
C 238.156979 94.657471 238.529506 95.556829 239.192513 96.219837 
C 239.855521 96.882844 240.754879 97.25537 241.692513 97.25537 
z
" style="fill:none;stroke:#9467bd;"/>
   </g>
   <g id="PathCollection_38">
    <path clip-path="url(#pbc546ee079)" d="M 246.665775 95.953082 
C 247.60341 95.953082 248.502768 95.580556 249.165775 94.917548 
C 249.828783 94.25454 250.201309 93.355183 250.201309 92.417548 
C 250.201309 91.479914 249.828783 90.580556 249.165775 89.917548 
C 248.502768 89.25454 247.60341 88.882014 246.665775 88.882014 
C 245.728141 88.882014 244.828783 89.25454 244.165775 89.917548 
C 243.502768 90.580556 243.130241 91.479914 243.130241 92.417548 
C 243.130241 93.355183 243.502768 94.25454 244.165775 94.917548 
C 244.828783 95.580556 245.728141 95.953082 246.665775 95.953082 
z
" style="fill:none;stroke:#9467bd;"/>
   </g>
   <g id="PathCollection_39">
    <path clip-path="url(#pbc546ee079)" d="M 251.639037 94.855824 
C 252.576672 94.855824 253.47603 94.483298 254.139037 93.82029 
C 254.802045 93.157283 255.174571 92.257925 255.174571 91.32029 
C 255.174571 90.382656 254.802045 89.483298 254.139037 88.82029 
C 253.47603 88.157283 252.576672 87.784756 251.639037 87.784756 
C 250.701403 87.784756 249.802045 88.157283 249.139037 88.82029 
C 248.47603 89.483298 248.103504 90.382656 248.103504 91.32029 
C 248.103504 92.257925 248.47603 93.157283 249.139037 93.82029 
C 249.802045 94.483298 250.701403 94.855824 251.639037 94.855824 
z
" style="fill:none;stroke:#9467bd;"/>
   </g>
   <g id="PathCollection_40">
    <path clip-path="url(#pbc546ee079)" d="M 256.612299 94.000162 
C 257.549934 94.000162 258.449292 93.627636 259.112299 92.964628 
C 259.775307 92.30162 260.147833 91.402263 260.147833 90.464628 
C 260.147833 89.526993 259.775307 88.627636 259.112299 87.964628 
C 258.449292 87.30162 257.549934 86.929094 256.612299 86.929094 
C 255.674665 86.929094 254.775307 87.30162 254.112299 87.964628 
C 253.449292 88.627636 253.076766 89.526993 253.076766 90.464628 
C 253.076766 91.402263 253.449292 92.30162 254.112299 92.964628 
C 254.775307 93.627636 255.674665 94.000162 256.612299 94.000162 
z
" style="fill:none;stroke:#9467bd;"/>
   </g>
   <g id="PathCollection_41">
    <path clip-path="url(#pbc546ee079)" d="M 261.585561 93.421293 
C 262.523196 93.421293 263.422554 93.048766 264.085561 92.385759 
C 264.748569 91.722751 265.121095 90.823393 265.121095 89.885759 
C 265.121095 88.948124 264.748569 88.048766 264.085561 87.385759 
C 263.422554 86.722751 262.523196 86.350225 261.585561 86.350225 
C 260.647927 86.350225 259.748569 86.722751 259.085561 87.385759 
C 258.422554 88.048766 258.050028 88.948124 258.050028 89.885759 
C 258.050028 90.823393 258.422554 91.722751 259.085561 92.385759 
C 259.748569 93.048766 260.647927 93.421293 261.585561 93.421293 
z
" style="fill:none;stroke:#9467bd;"/>
   </g>
   <g id="PathCollection_42">
    <path clip-path="url(#pbc546ee079)" d="M 266.558824 93.149333 
C 267.496458 93.149333 268.395816 92.776807 269.058824 92.113799 
C 269.721831 91.450791 270.094357 90.551434 270.094357 89.613799 
C 270.094357 88.676165 269.721831 87.776807 269.058824 87.113799 
C 268.395816 86.450791 267.496458 86.078265 266.558824 86.078265 
C 265.621189 86.078265 264.721831 86.450791 264.058824 87.113799 
C 263.395816 87.776807 263.02329 88.676165 263.02329 89.613799 
C 263.02329 90.551434 263.395816 91.450791 264.058824 92.113799 
C 264.721831 92.776807 265.621189 93.149333 266.558824 93.149333 
z
" style="fill:none;stroke:#9467bd;"/>
   </g>
   <g id="PathCollection_43">
    <path clip-path="url(#pbc546ee079)" d="M 271.532086 93.204788 
C 272.46972 93.204788 273.369078 92.832262 274.032086 92.169254 
C 274.695093 91.506246 275.067619 90.606888 275.067619 89.669254 
C 275.067619 88.731619 274.695093 87.832262 274.032086 87.169254 
C 273.369078 86.506246 272.46972 86.13372 271.532086 86.13372 
C 270.594451 86.13372 269.695093 86.506246 269.032086 87.169254 
C 268.369078 87.832262 267.996552 88.731619 267.996552 89.669254 
C 267.996552 90.606888 268.369078 91.506246 269.032086 92.169254 
C 269.695093 92.832262 270.594451 93.204788 271.532086 93.204788 
z
" style="fill:none;stroke:#9467bd;"/>
   </g>
   <g id="PathCollection_44">
    <path clip-path="url(#pbc546ee079)" d="M 276.505348 93.593139 
C 277.442982 93.593139 278.34234 93.220613 279.005348 92.557605 
C 279.668355 91.894597 280.040881 90.995239 280.040881 90.057605 
C 280.040881 89.11997 279.668355 88.220613 279.005348 87.557605 
C 278.34234 86.894597 277.442982 86.522071 276.505348 86.522071 
C 275.567713 86.522071 274.668355 86.894597 274.005348 87.557605 
C 273.34234 88.220613 272.969814 89.11997 272.969814 90.057605 
C 272.969814 90.995239 273.34234 91.894597 274.005348 92.557605 
C 274.668355 93.220613 275.567713 93.593139 276.505348 93.593139 
z
" style="fill:none;stroke:#9467bd;"/>
   </g>
   <g id="PathCollection_45">
    <path clip-path="url(#pbc546ee079)" d="M 281.47861 94.298507 
C 282.416244 94.298507 283.315602 93.925981 283.97861 93.262973 
C 284.641617 92.599965 285.014144 91.700607 285.014144 90.762973 
C 285.014144 89.825338 284.641617 88.925981 283.97861 88.262973 
C 283.315602 87.599965 282.416244 87.227439 281.47861 87.227439 
C 280.540975 87.227439 279.641617 87.599965 278.97861 88.262973 
C 278.315602 88.925981 277.943076 89.825338 277.943076 90.762973 
C 277.943076 91.700607 278.315602 92.599965 278.97861 93.262973 
C 279.641617 93.925981 280.540975 94.298507 281.47861 94.298507 
z
" style="fill:none;stroke:#9467bd;"/>
   </g>
   <g id="PathCollection_46">
    <path clip-path="url(#pbc546ee079)" d="M 286.451872 95.276316 
C 287.389506 95.276316 288.288864 94.90379 288.951872 94.240782 
C 289.614879 93.577775 289.987406 92.678417 289.987406 91.740782 
C 289.987406 90.803148 289.614879 89.90379 288.951872 89.240782 
C 288.288864 88.577775 287.389506 88.205248 286.451872 88.205248 
C 285.514237 88.205248 284.614879 88.577775 283.951872 89.240782 
C 283.288864 89.90379 282.916338 90.803148 282.916338 91.740782 
C 282.916338 92.678417 283.288864 93.577775 283.951872 94.240782 
C 284.614879 94.90379 285.514237 95.276316 286.451872 95.276316 
z
" style="fill:none;stroke:#9467bd;"/>
   </g>
   <g id="PathCollection_47">
    <path clip-path="url(#pbc546ee079)" d="M 291.425134 96.444915 
C 292.362768 96.444915 293.262126 96.072389 293.925134 95.409381 
C 294.588141 94.746373 294.960668 93.847016 294.960668 92.909381 
C 294.960668 91.971747 294.588141 91.072389 293.925134 90.409381 
C 293.262126 89.746373 292.362768 89.373847 291.425134 89.373847 
C 290.487499 89.373847 289.588141 89.746373 288.925134 90.409381 
C 288.262126 91.072389 287.8896 91.971747 287.8896 92.909381 
C 287.8896 93.847016 288.262126 94.746373 288.925134 95.409381 
C 289.588141 96.072389 290.487499 96.444915 291.425134 96.444915 
z
" style="fill:none;stroke:#9467bd;"/>
   </g>
   <g id="PathCollection_48">
    <path clip-path="url(#pbc546ee079)" d="M 296.398396 97.676085 
C 297.33603 97.676085 298.235388 97.303559 298.898396 96.640551 
C 299.561403 95.977543 299.93393 95.078186 299.93393 94.140551 
C 299.93393 93.202916 299.561403 92.303559 298.898396 91.640551 
C 298.235388 90.977543 297.33603 90.605017 296.398396 90.605017 
C 295.460761 90.605017 294.561403 90.977543 293.898396 91.640551 
C 293.235388 92.303559 292.862862 93.202916 292.862862 94.140551 
C 292.862862 95.078186 293.235388 95.977543 293.898396 96.640551 
C 294.561403 97.303559 295.460761 97.676085 296.398396 97.676085 
z
" style="fill:none;stroke:#9467bd;"/>
   </g>
   <g id="PathCollection_49">
    <path clip-path="url(#pbc546ee079)" d="M 301.371658 98.784389 
C 302.309292 98.784389 303.20865 98.411863 303.871658 97.748855 
C 304.534666 97.085847 304.907192 96.18649 304.907192 95.248855 
C 304.907192 94.311221 304.534666 93.411863 303.871658 92.748855 
C 303.20865 92.085847 302.309292 91.713321 301.371658 91.713321 
C 300.434023 91.713321 299.534666 92.085847 298.871658 92.748855 
C 298.20865 93.411863 297.836124 94.311221 297.836124 95.248855 
C 297.836124 96.18649 298.20865 97.085847 298.871658 97.748855 
C 299.534666 98.411863 300.434023 98.784389 301.371658 98.784389 
z
" style="fill:none;stroke:#9467bd;"/>
   </g>
   <g id="PathCollection_50">
    <path clip-path="url(#pbc546ee079)" d="M 306.34492 99.515296 
C 307.282554 99.515296 308.181912 99.14277 308.84492 98.479762 
C 309.507928 97.816754 309.880454 96.917396 309.880454 95.979762 
C 309.880454 95.042127 309.507928 94.14277 308.84492 93.479762 
C 308.181912 92.816754 307.282554 92.444228 306.34492 92.444228 
C 305.407285 92.444228 304.507928 92.816754 303.84492 93.479762 
C 303.181912 94.14277 302.809386 95.042127 302.809386 95.979762 
C 302.809386 96.917396 303.181912 97.816754 303.84492 98.479762 
C 304.507928 99.14277 305.407285 99.515296 306.34492 99.515296 
z
" style="fill:none;stroke:#9467bd;"/>
   </g>
   <g id="PathCollection_51">
    <path clip-path="url(#pbc546ee079)" d="M 311.318182 99.532023 
C 312.255816 99.532023 313.155174 99.159497 313.818182 98.496489 
C 314.48119 97.833482 314.853716 96.934124 314.853716 95.996489 
C 314.853716 95.058855 314.48119 94.159497 313.818182 93.496489 
C 313.155174 92.833482 312.255816 92.460955 311.318182 92.460955 
C 310.380547 92.460955 309.48119 92.833482 308.818182 93.496489 
C 308.155174 94.159497 307.782648 95.058855 307.782648 95.996489 
C 307.782648 96.934124 308.155174 97.833482 308.818182 98.496489 
C 309.48119 99.159497 310.380547 99.532023 311.318182 99.532023 
z
" style="fill:none;stroke:#9467bd;"/>
   </g>
   <g id="PathCollection_52">
    <defs>
     <path d="M 0 3.535534 
C 0.937635 3.535534 1.836992 3.163008 2.5 2.5 
C 3.163008 1.836992 3.535534 0.937635 3.535534 0 
C 3.535534 -0.937635 3.163008 -1.836992 2.5 -2.5 
C 1.836992 -3.163008 0.937635 -3.535534 0 -3.535534 
C -0.937635 -3.535534 -1.836992 -3.163008 -2.5 -2.5 
C -3.163008 -1.836992 -3.535534 -0.937635 -3.535534 0 
C -3.535534 0.937635 -3.163008 1.836992 -2.5 2.5 
C -1.836992 3.163008 -0.937635 3.535534 0 3.535534 
z
" id="m9fe0074947" style="stroke:#9467bd;"/>
    </defs>
    <g clip-path="url(#pbc546ee079)">
     <use style="fill:#9467bd;stroke:#9467bd;" x="62.65508" xlink:href="#m9fe0074947" y="179.817001"/>
    </g>
   </g>
   <g id="PathCollection_53">
    <g clip-path="url(#pbc546ee079)">
     <use style="fill:#9467bd;stroke:#9467bd;" x="67.628342" xlink:href="#m9fe0074947" y="180.077707"/>
    </g>
   </g>
   <g id="PathCollection_54">
    <g clip-path="url(#pbc546ee079)">
     <use style="fill:#9467bd;stroke:#9467bd;" x="72.601604" xlink:href="#m9fe0074947" y="179.54459"/>
    </g>
   </g>
   <g id="PathCollection_55">
    <g clip-path="url(#pbc546ee079)">
     <use style="fill:#9467bd;stroke:#9467bd;" x="77.574866" xlink:href="#m9fe0074947" y="178.324748"/>
    </g>
   </g>
   <g id="PathCollection_56">
    <g clip-path="url(#pbc546ee079)">
     <use style="fill:#9467bd;stroke:#9467bd;" x="82.548128" xlink:href="#m9fe0074947" y="176.499418"/>
    </g>
   </g>
   <g id="PathCollection_57">
    <g clip-path="url(#pbc546ee079)">
     <use style="fill:#9467bd;stroke:#9467bd;" x="87.52139" xlink:href="#m9fe0074947" y="174.150781"/>
    </g>
   </g>
   <g id="PathCollection_58">
    <g clip-path="url(#pbc546ee079)">
     <use style="fill:#9467bd;stroke:#9467bd;" x="92.494652" xlink:href="#m9fe0074947" y="171.322029"/>
    </g>
   </g>
   <g id="PathCollection_59">
    <g clip-path="url(#pbc546ee079)">
     <use style="fill:#9467bd;stroke:#9467bd;" x="97.467914" xlink:href="#m9fe0074947" y="168.065008"/>
    </g>
   </g>
   <g id="PathCollection_60">
    <g clip-path="url(#pbc546ee079)">
     <use style="fill:#9467bd;stroke:#9467bd;" x="102.441176" xlink:href="#m9fe0074947" y="164.421194"/>
    </g>
   </g>
   <g id="PathCollection_61">
    <g clip-path="url(#pbc546ee079)">
     <use style="fill:#9467bd;stroke:#9467bd;" x="107.414439" xlink:href="#m9fe0074947" y="160.428603"/>
    </g>
   </g>
   <g id="PathCollection_62">
    <g clip-path="url(#pbc546ee079)">
     <use style="fill:#9467bd;stroke:#9467bd;" x="112.387701" xlink:href="#m9fe0074947" y="156.123808"/>
    </g>
   </g>
   <g id="PathCollection_63">
    <g clip-path="url(#pbc546ee079)">
     <use style="fill:#9467bd;stroke:#9467bd;" x="117.360963" xlink:href="#m9fe0074947" y="151.543512"/>
    </g>
   </g>
   <g id="PathCollection_64">
    <g clip-path="url(#pbc546ee079)">
     <use style="fill:#9467bd;stroke:#9467bd;" x="122.334225" xlink:href="#m9fe0074947" y="146.725713"/>
    </g>
   </g>
   <g id="PathCollection_65">
    <g clip-path="url(#pbc546ee079)">
     <use style="fill:#9467bd;stroke:#9467bd;" x="127.307487" xlink:href="#m9fe0074947" y="141.710481"/>
    </g>
   </g>
   <g id="PathCollection_66">
    <g clip-path="url(#pbc546ee079)">
     <use style="fill:#9467bd;stroke:#9467bd;" x="132.280749" xlink:href="#m9fe0074947" y="136.540395"/>
    </g>
   </g>
   <g id="PathCollection_67">
    <g clip-path="url(#pbc546ee079)">
     <use style="fill:#9467bd;stroke:#9467bd;" x="137.254011" xlink:href="#m9fe0074947" y="131.260675"/>
    </g>
   </g>
   <g id="PathCollection_68">
    <g clip-path="url(#pbc546ee079)">
     <use style="fill:#9467bd;stroke:#9467bd;" x="142.227273" xlink:href="#m9fe0074947" y="125.919031"/>
    </g>
   </g>
   <g id="PathCollection_69">
    <g clip-path="url(#pbc546ee079)">
     <use style="fill:#9467bd;stroke:#9467bd;" x="147.200535" xlink:href="#m9fe0074947" y="120.56527"/>
    </g>
   </g>
   <g id="PathCollection_70">
    <g clip-path="url(#pbc546ee079)">
     <use style="fill:#9467bd;stroke:#9467bd;" x="152.173797" xlink:href="#m9fe0074947" y="115.250699"/>
    </g>
   </g>
   <g id="PathCollection_71">
    <g clip-path="url(#pbc546ee079)">
     <use style="fill:#9467bd;stroke:#9467bd;" x="157.147059" xlink:href="#m9fe0074947" y="110.027353"/>
    </g>
   </g>
   <g id="PathCollection_72">
    <g clip-path="url(#pbc546ee079)">
     <use style="fill:#9467bd;stroke:#9467bd;" x="162.120321" xlink:href="#m9fe0074947" y="104.947079"/>
    </g>
   </g>
   <g id="PathCollection_73">
    <g clip-path="url(#pbc546ee079)">
     <use style="fill:#9467bd;stroke:#9467bd;" x="167.093583" xlink:href="#m9fe0074947" y="100.060522"/>
    </g>
   </g>
   <g id="PathCollection_74">
    <g clip-path="url(#pbc546ee079)">
     <use style="fill:#9467bd;stroke:#9467bd;" x="172.066845" xlink:href="#m9fe0074947" y="95.41603"/>
    </g>
   </g>
   <g id="PathCollection_75">
    <g clip-path="url(#pbc546ee079)">
     <use style="fill:#9467bd;stroke:#9467bd;" x="177.040107" xlink:href="#m9fe0074947" y="91.058533"/>
    </g>
   </g>
   <g id="PathCollection_76">
    <g clip-path="url(#pbc546ee079)">
     <use style="fill:#9467bd;stroke:#9467bd;" x="182.013369" xlink:href="#m9fe0074947" y="87.028405"/>
    </g>
   </g>
   <g id="PathCollection_77">
    <g clip-path="url(#pbc546ee079)">
     <use style="fill:#9467bd;stroke:#9467bd;" x="186.986631" xlink:href="#m9fe0074947" y="83.360369"/>
    </g>
   </g>
   <g id="PathCollection_78">
    <g clip-path="url(#pbc546ee079)">
     <use style="fill:#9467bd;stroke:#9467bd;" x="191.959893" xlink:href="#m9fe0074947" y="80.08246"/>
    </g>
   </g>
   <g id="PathCollection_79">
    <g clip-path="url(#pbc546ee079)">
     <use style="fill:#9467bd;stroke:#9467bd;" x="196.933155" xlink:href="#m9fe0074947" y="77.215087"/>
    </g>
   </g>
   <g id="PathCollection_80">
    <g clip-path="url(#pbc546ee079)">
     <use style="fill:#9467bd;stroke:#9467bd;" x="201.906417" xlink:href="#m9fe0074947" y="74.770233"/>
    </g>
   </g>
   <g id="PathCollection_81">
    <g clip-path="url(#pbc546ee079)">
     <use style="fill:#9467bd;stroke:#9467bd;" x="206.879679" xlink:href="#m9fe0074947" y="72.750813"/>
    </g>
   </g>
   <g id="PathCollection_82">
    <g clip-path="url(#pbc546ee079)">
     <use style="fill:#9467bd;stroke:#9467bd;" x="211.852941" xlink:href="#m9fe0074947" y="71.150244"/>
    </g>
   </g>
   <g id="PathCollection_83">
    <g clip-path="url(#pbc546ee079)">
     <use style="fill:#9467bd;stroke:#9467bd;" x="216.826203" xlink:href="#m9fe0074947" y="69.952243"/>
    </g>
   </g>
   <g id="PathCollection_84">
    <g clip-path="url(#pbc546ee079)">
     <use style="fill:#9467bd;stroke:#9467bd;" x="221.799465" xlink:href="#m9fe0074947" y="69.130896"/>
    </g>
   </g>
   <g id="PathCollection_85">
    <g clip-path="url(#pbc546ee079)">
     <use style="fill:#9467bd;stroke:#9467bd;" x="226.772727" xlink:href="#m9fe0074947" y="68.651031"/>
    </g>
   </g>
   <g id="PathCollection_86">
    <g clip-path="url(#pbc546ee079)">
     <use style="fill:#9467bd;stroke:#9467bd;" x="231.745989" xlink:href="#m9fe0074947" y="68.468926"/>
    </g>
   </g>
   <g id="PathCollection_87">
    <g clip-path="url(#pbc546ee079)">
     <use style="fill:#9467bd;stroke:#9467bd;" x="236.719251" xlink:href="#m9fe0074947" y="68.533396"/>
    </g>
   </g>
   <g id="PathCollection_88">
    <g clip-path="url(#pbc546ee079)">
     <use style="fill:#9467bd;stroke:#9467bd;" x="241.692513" xlink:href="#m9fe0074947" y="68.787278"/>
    </g>
   </g>
   <g id="PathCollection_89">
    <g clip-path="url(#pbc546ee079)">
     <use style="fill:#9467bd;stroke:#9467bd;" x="246.665775" xlink:href="#m9fe0074947" y="69.169358"/>
    </g>
   </g>
   <g id="PathCollection_90">
    <g clip-path="url(#pbc546ee079)">
     <use style="fill:#9467bd;stroke:#9467bd;" x="251.639037" xlink:href="#m9fe0074947" y="69.616771"/>
    </g>
   </g>
   <g id="PathCollection_91">
    <g clip-path="url(#pbc546ee079)">
     <use style="fill:#9467bd;stroke:#9467bd;" x="256.612299" xlink:href="#m9fe0074947" y="70.067916"/>
    </g>
   </g>
   <g id="PathCollection_92">
    <g clip-path="url(#pbc546ee079)">
     <use style="fill:#9467bd;stroke:#9467bd;" x="261.585561" xlink:href="#m9fe0074947" y="70.465903"/>
    </g>
   </g>
   <g id="PathCollection_93">
    <g clip-path="url(#pbc546ee079)">
     <use style="fill:#9467bd;stroke:#9467bd;" x="266.558824" xlink:href="#m9fe0074947" y="70.76258"/>
    </g>
   </g>
   <g id="PathCollection_94">
    <g clip-path="url(#pbc546ee079)">
     <use style="fill:#9467bd;stroke:#9467bd;" x="271.532086" xlink:href="#m9fe0074947" y="70.923178"/>
    </g>
   </g>
   <g id="PathCollection_95">
    <g clip-path="url(#pbc546ee079)">
     <use style="fill:#9467bd;stroke:#9467bd;" x="276.505348" xlink:href="#m9fe0074947" y="70.931585"/>
    </g>
   </g>
   <g id="PathCollection_96">
    <g clip-path="url(#pbc546ee079)">
     <use style="fill:#9467bd;stroke:#9467bd;" x="281.47861" xlink:href="#m9fe0074947" y="70.796314"/>
    </g>
   </g>
   <g id="PathCollection_97">
    <g clip-path="url(#pbc546ee079)">
     <use style="fill:#9467bd;stroke:#9467bd;" x="286.451872" xlink:href="#m9fe0074947" y="70.557174"/>
    </g>
   </g>
   <g id="PathCollection_98">
    <g clip-path="url(#pbc546ee079)">
     <use style="fill:#9467bd;stroke:#9467bd;" x="291.425134" xlink:href="#m9fe0074947" y="70.292689"/>
    </g>
   </g>
   <g id="PathCollection_99">
    <g clip-path="url(#pbc546ee079)">
     <use style="fill:#9467bd;stroke:#9467bd;" x="296.398396" xlink:href="#m9fe0074947" y="70.128303"/>
    </g>
   </g>
   <g id="PathCollection_100">
    <g clip-path="url(#pbc546ee079)">
     <use style="fill:#9467bd;stroke:#9467bd;" x="301.371658" xlink:href="#m9fe0074947" y="70.245394"/>
    </g>
   </g>
   <g id="PathCollection_101">
    <g clip-path="url(#pbc546ee079)">
     <use style="fill:#9467bd;stroke:#9467bd;" x="306.34492" xlink:href="#m9fe0074947" y="70.891139"/>
    </g>
   </g>
   <g id="PathCollection_102">
    <g clip-path="url(#pbc546ee079)">
     <use style="fill:#9467bd;stroke:#9467bd;" x="311.318182" xlink:href="#m9fe0074947" y="72.389263"/>
    </g>
   </g>
   <g id="matplotlib.axis_1"/>
   <g id="matplotlib.axis_2">
    <g id="ytick_1">
     <g id="line2d_1">
      <defs>
       <path d="M 0 0 
L -3.5 0 
" id="m71d280492e" style="stroke:#000000;stroke-width:0.8;"/>
      </defs>
      <g>
       <use style="stroke:#000000;stroke-width:0.8;" x="45" xlink:href="#m71d280492e" y="181.221477"/>
      </g>
     </g>
     <g id="text_1">
      <!-- 0.0 -->
      <g transform="translate(22.096875 185.020696)scale(0.1 -0.1)">
       <defs>
        <path d="M 31.78125 66.40625 
Q 24.171875 66.40625 20.328125 58.90625 
Q 16.5 51.421875 16.5 36.375 
Q 16.5 21.390625 20.328125 13.890625 
Q 24.171875 6.390625 31.78125 6.390625 
Q 39.453125 6.390625 43.28125 13.890625 
Q 47.125 21.390625 47.125 36.375 
Q 47.125 51.421875 43.28125 58.90625 
Q 39.453125 66.40625 31.78125 66.40625 
z
M 31.78125 74.21875 
Q 44.046875 74.21875 50.515625 64.515625 
Q 56.984375 54.828125 56.984375 36.375 
Q 56.984375 17.96875 50.515625 8.265625 
Q 44.046875 -1.421875 31.78125 -1.421875 
Q 19.53125 -1.421875 13.0625 8.265625 
Q 6.59375 17.96875 6.59375 36.375 
Q 6.59375 54.828125 13.0625 64.515625 
Q 19.53125 74.21875 31.78125 74.21875 
z
" id="DejaVuSans-48"/>
        <path d="M 10.6875 12.40625 
L 21 12.40625 
L 21 0 
L 10.6875 0 
z
" id="DejaVuSans-46"/>
       </defs>
       <use xlink:href="#DejaVuSans-48"/>
       <use x="63.623047" xlink:href="#DejaVuSans-46"/>
       <use x="95.410156" xlink:href="#DejaVuSans-48"/>
      </g>
     </g>
    </g>
    <g id="ytick_2">
     <g id="line2d_2">
      <g>
       <use style="stroke:#000000;stroke-width:0.8;" x="45" xlink:href="#m71d280492e" y="151.14467"/>
      </g>
     </g>
     <g id="text_2">
      <!-- 0.1 -->
      <g transform="translate(22.096875 154.943889)scale(0.1 -0.1)">
       <defs>
        <path d="M 12.40625 8.296875 
L 28.515625 8.296875 
L 28.515625 63.921875 
L 10.984375 60.40625 
L 10.984375 69.390625 
L 28.421875 72.90625 
L 38.28125 72.90625 
L 38.28125 8.296875 
L 54.390625 8.296875 
L 54.390625 0 
L 12.40625 0 
z
" id="DejaVuSans-49"/>
       </defs>
       <use xlink:href="#DejaVuSans-48"/>
       <use x="63.623047" xlink:href="#DejaVuSans-46"/>
       <use x="95.410156" xlink:href="#DejaVuSans-49"/>
      </g>
     </g>
    </g>
    <g id="ytick_3">
     <g id="line2d_3">
      <g>
       <use style="stroke:#000000;stroke-width:0.8;" x="45" xlink:href="#m71d280492e" y="121.067864"/>
      </g>
     </g>
     <g id="text_3">
      <!-- 0.2 -->
      <g transform="translate(22.096875 124.867082)scale(0.1 -0.1)">
       <defs>
        <path d="M 19.1875 8.296875 
L 53.609375 8.296875 
L 53.609375 0 
L 7.328125 0 
L 7.328125 8.296875 
Q 12.9375 14.109375 22.625 23.890625 
Q 32.328125 33.6875 34.8125 36.53125 
Q 39.546875 41.84375 41.421875 45.53125 
Q 43.3125 49.21875 43.3125 52.78125 
Q 43.3125 58.59375 39.234375 62.25 
Q 35.15625 65.921875 28.609375 65.921875 
Q 23.96875 65.921875 18.8125 64.3125 
Q 13.671875 62.703125 7.8125 59.421875 
L 7.8125 69.390625 
Q 13.765625 71.78125 18.9375 73 
Q 24.125 74.21875 28.421875 74.21875 
Q 39.75 74.21875 46.484375 68.546875 
Q 53.21875 62.890625 53.21875 53.421875 
Q 53.21875 48.921875 51.53125 44.890625 
Q 49.859375 40.875 45.40625 35.40625 
Q 44.1875 33.984375 37.640625 27.21875 
Q 31.109375 20.453125 19.1875 8.296875 
z
" id="DejaVuSans-50"/>
       </defs>
       <use xlink:href="#DejaVuSans-48"/>
       <use x="63.623047" xlink:href="#DejaVuSans-46"/>
       <use x="95.410156" xlink:href="#DejaVuSans-50"/>
      </g>
     </g>
    </g>
    <g id="ytick_4">
     <g id="line2d_4">
      <g>
       <use style="stroke:#000000;stroke-width:0.8;" x="45" xlink:href="#m71d280492e" y="90.991057"/>
      </g>
     </g>
     <g id="text_4">
      <!-- 0.3 -->
      <g transform="translate(22.096875 94.790276)scale(0.1 -0.1)">
       <defs>
        <path d="M 40.578125 39.3125 
Q 47.65625 37.796875 51.625 33 
Q 55.609375 28.21875 55.609375 21.1875 
Q 55.609375 10.40625 48.1875 4.484375 
Q 40.765625 -1.421875 27.09375 -1.421875 
Q 22.515625 -1.421875 17.65625 -0.515625 
Q 12.796875 0.390625 7.625 2.203125 
L 7.625 11.71875 
Q 11.71875 9.328125 16.59375 8.109375 
Q 21.484375 6.890625 26.8125 6.890625 
Q 36.078125 6.890625 40.9375 10.546875 
Q 45.796875 14.203125 45.796875 21.1875 
Q 45.796875 27.640625 41.28125 31.265625 
Q 36.765625 34.90625 28.71875 34.90625 
L 20.21875 34.90625 
L 20.21875 43.015625 
L 29.109375 43.015625 
Q 36.375 43.015625 40.234375 45.921875 
Q 44.09375 48.828125 44.09375 54.296875 
Q 44.09375 59.90625 40.109375 62.90625 
Q 36.140625 65.921875 28.71875 65.921875 
Q 24.65625 65.921875 20.015625 65.03125 
Q 15.375 64.15625 9.8125 62.3125 
L 9.8125 71.09375 
Q 15.4375 72.65625 20.34375 73.4375 
Q 25.25 74.21875 29.59375 74.21875 
Q 40.828125 74.21875 47.359375 69.109375 
Q 53.90625 64.015625 53.90625 55.328125 
Q 53.90625 49.265625 50.4375 45.09375 
Q 46.96875 40.921875 40.578125 39.3125 
z
" id="DejaVuSans-51"/>
       </defs>
       <use xlink:href="#DejaVuSans-48"/>
       <use x="63.623047" xlink:href="#DejaVuSans-46"/>
       <use x="95.410156" xlink:href="#DejaVuSans-51"/>
      </g>
     </g>
    </g>
    <g id="ytick_5">
     <g id="line2d_5">
      <g>
       <use style="stroke:#000000;stroke-width:0.8;" x="45" xlink:href="#m71d280492e" y="60.91425"/>
      </g>
     </g>
     <g id="text_5">
      <!-- 0.4 -->
      <g transform="translate(22.096875 64.713469)scale(0.1 -0.1)">
       <defs>
        <path d="M 37.796875 64.3125 
L 12.890625 25.390625 
L 37.796875 25.390625 
z
M 35.203125 72.90625 
L 47.609375 72.90625 
L 47.609375 25.390625 
L 58.015625 25.390625 
L 58.015625 17.1875 
L 47.609375 17.1875 
L 47.609375 0 
L 37.796875 0 
L 37.796875 17.1875 
L 4.890625 17.1875 
L 4.890625 26.703125 
z
" id="DejaVuSans-52"/>
       </defs>
       <use xlink:href="#DejaVuSans-48"/>
       <use x="63.623047" xlink:href="#DejaVuSans-46"/>
       <use x="95.410156" xlink:href="#DejaVuSans-52"/>
      </g>
     </g>
    </g>
    <g id="ytick_6">
     <g id="line2d_6">
      <g>
       <use style="stroke:#000000;stroke-width:0.8;" x="45" xlink:href="#m71d280492e" y="30.837444"/>
      </g>
     </g>
     <g id="text_6">
      <!-- 0.5 -->
      <g transform="translate(22.096875 34.636662)scale(0.1 -0.1)">
       <defs>
        <path d="M 10.796875 72.90625 
L 49.515625 72.90625 
L 49.515625 64.59375 
L 19.828125 64.59375 
L 19.828125 46.734375 
Q 21.96875 47.46875 24.109375 47.828125 
Q 26.265625 48.1875 28.421875 48.1875 
Q 40.625 48.1875 47.75 41.5 
Q 54.890625 34.8125 54.890625 23.390625 
Q 54.890625 11.625 47.5625 5.09375 
Q 40.234375 -1.421875 26.90625 -1.421875 
Q 22.3125 -1.421875 17.546875 -0.640625 
Q 12.796875 0.140625 7.71875 1.703125 
L 7.71875 11.625 
Q 12.109375 9.234375 16.796875 8.0625 
Q 21.484375 6.890625 26.703125 6.890625 
Q 35.15625 6.890625 40.078125 11.328125 
Q 45.015625 15.765625 45.015625 23.390625 
Q 45.015625 31 40.078125 35.4375 
Q 35.15625 39.890625 26.703125 39.890625 
Q 22.75 39.890625 18.8125 39.015625 
Q 14.890625 38.140625 10.796875 36.28125 
z
" id="DejaVuSans-53"/>
       </defs>
       <use xlink:href="#DejaVuSans-48"/>
       <use x="63.623047" xlink:href="#DejaVuSans-46"/>
       <use x="95.410156" xlink:href="#DejaVuSans-53"/>
      </g>
     </g>
    </g>
   </g>
   <g id="line2d_7">
    <path clip-path="url(#pbc546ee079)" d="M 57.681818 181.221477 
L 87.210561 181.111393 
L 90.463904 180.795867 
L 93.737968 180.252249 
L 97.157086 179.457703 
L 100.783422 178.383765 
L 104.637701 177.006832 
L 108.782086 175.284556 
L 113.216578 173.19707 
L 118.065508 170.66299 
L 123.391043 167.622094 
L 129.338235 163.962478 
L 136.135027 159.509105 
L 144.112968 154.007699 
L 154.453209 146.590344 
L 175.817513 130.90275 
L 191.110294 119.836823 
L 202.859626 111.609293 
L 207.729278 108.39445 
L 211.044786 106.48547 
L 214.31885 104.856222 
L 217.65508 103.444198 
L 221.074198 102.238347 
L 224.596925 101.231652 
L 228.243984 100.421076 
L 232.036096 99.806999 
L 235.993984 99.392599 
L 240.138369 99.183234 
L 244.510695 99.186335 
L 249.152406 99.414111 
L 254.104947 99.882253 
L 259.430481 100.611793 
L 265.211898 101.631513 
L 271.573529 102.983888 
L 278.660428 104.722648 
L 286.762701 106.945557 
L 296.398396 109.828279 
L 308.852273 113.800363 
L 311.318182 114.607326 
L 311.318182 114.607326 
" style="fill:none;stroke:#9467bd;stroke-dasharray:11.1,4.8;stroke-dashoffset:0;stroke-width:3;"/>
   </g>
   <g id="line2d_8">
    <path clip-path="url(#pbc546ee079)" d="M 57.681818 181.221477 
L 86.298797 181.110557 
L 88.764706 180.802293 
L 91.168449 180.277481 
L 93.65508 179.504481 
L 96.245321 178.463604 
L 98.980615 177.120784 
L 101.860963 175.45598 
L 104.927807 173.422989 
L 108.201872 170.982286 
L 111.724599 168.073589 
L 115.516711 164.649208 
L 119.640374 160.620326 
L 124.178476 155.86757 
L 129.193182 150.285061 
L 134.850267 143.644457 
L 141.33623 135.679667 
L 149.18984 125.671291 
L 160.027406 111.467585 
L 189.659759 72.463584 
L 200.020722 59.306103 
L 206.589572 51.268049 
L 209.46992 48.113378 
L 212.184492 45.465161 
L 214.878342 43.144913 
L 217.572193 41.115693 
L 220.286765 39.347857 
L 223.022059 37.830448 
L 225.798797 36.543922 
L 228.616979 35.482838 
L 231.497326 34.636115 
L 234.43984 34.002342 
L 237.485963 33.574958 
L 240.635695 33.359595 
L 243.909759 33.360918 
L 247.328877 33.587251 
L 250.91377 34.049914 
L 254.68516 34.762556 
L 258.705214 35.751761 
L 262.994652 37.040157 
L 267.59492 38.657336 
L 272.588904 40.652331 
L 278.059492 43.081242 
L 284.151738 46.034574 
L 291.072861 49.643059 
L 299.237299 54.159461 
L 309.57754 60.147673 
L 311.318182 61.175102 
L 311.318182 61.175102 
" style="fill:none;stroke:#9467bd;stroke-linecap:square;stroke-width:3;"/>
   </g>
   <g id="patch_3">
    <path d="M 45 189 
L 45 25.92 
" style="fill:none;stroke:#000000;stroke-linecap:square;stroke-linejoin:miter;stroke-width:0.8;"/>
   </g>
   <g id="patch_4">
    <path d="M 324 189 
L 324 25.92 
" style="fill:none;stroke:#000000;stroke-linecap:square;stroke-linejoin:miter;stroke-width:0.8;"/>
   </g>
   <g id="patch_5">
    <path d="M 45 189 
L 324 189 
" style="fill:none;stroke:#000000;stroke-linecap:square;stroke-linejoin:miter;stroke-width:0.8;"/>
   </g>
   <g id="patch_6">
    <path d="M 45 25.92 
L 324 25.92 
" style="fill:none;stroke:#000000;stroke-linecap:square;stroke-linejoin:miter;stroke-width:0.8;"/>
   </g>
  </g>
 </g>
 <defs>
  <clipPath id="pbc546ee079">
   <rect height="163.08" width="279" x="45" y="25.92"/>
  </clipPath>
 </defs>
</svg>
