<?xml version="1.0" encoding="utf-8" standalone="no"?>
<!DOCTYPE svg PUBLIC "-//W3C//DTD SVG 1.1//EN"
  "http://www.w3.org/Graphics/SVG/1.1/DTD/svg11.dtd">
<!-- Created with matplotlib (https://matplotlib.org/) -->
<svg height="216pt" version="1.1" viewBox="0 0 360 216" width="360pt" xmlns="http://www.w3.org/2000/svg" xmlns:xlink="http://www.w3.org/1999/xlink">
 <metadata>
  <rdf:RDF xmlns:cc="http://creativecommons.org/ns#" xmlns:dc="http://purl.org/dc/elements/1.1/" xmlns:rdf="http://www.w3.org/1999/02/22-rdf-syntax-ns#">
   <cc:Work>
    <dc:type rdf:resource="http://purl.org/dc/dcmitype/StillImage"/>
    <dc:date>2024-12-04T13:20:18.716506</dc:date>
    <dc:format>image/svg+xml</dc:format>
    <dc:creator>
     <cc:Agent>
      <dc:title>Matplotlib v3.3.2, https://matplotlib.org/</dc:title>
     </cc:Agent>
    </dc:creator>
   </cc:Work>
  </rdf:RDF>
 </metadata>
 <defs>
  <style type="text/css">*{stroke-linecap:butt;stroke-linejoin:round;}</style>
 </defs>
 <g id="figure_1">
  <g id="patch_1">
   <path d="M 0 216 
L 360 216 
L 360 0 
L 0 0 
z
" style="fill:none;"/>
  </g>
  <g id="axes_1">
   <g id="patch_2">
    <path d="M 45 189 
L 324 189 
L 324 25.92 
L 45 25.92 
z
" style="fill:#ffffff;"/>
   </g>
   <g id="PathCollection_1">
    <path clip-path="url(#p04118c8b3c)" d="M 62.65508 183.756734 
C 63.592715 183.756734 64.492072 183.384208 65.15508 182.7212 
C 65.818088 182.058192 66.190614 181.158834 66.190614 180.2212 
C 66.190614 179.283565 65.818088 178.384208 65.15508 177.7212 
C 64.492072 177.058192 63.592715 176.685666 62.65508 176.685666 
C 61.717446 176.685666 60.818088 177.058192 60.15508 177.7212 
C 59.492072 178.384208 59.119546 179.283565 59.119546 180.2212 
C 59.119546 181.158834 59.492072 182.058192 60.15508 182.7212 
C 60.818088 183.384208 61.717446 183.756734 62.65508 183.756734 
z
" style="fill:none;stroke:#ff9896;"/>
   </g>
   <g id="PathCollection_2">
    <path clip-path="url(#p04118c8b3c)" d="M 67.628342 185.017883 
C 68.565977 185.017883 69.465334 184.645357 70.128342 183.982349 
C 70.79135 183.319341 71.163876 182.419984 71.163876 181.482349 
C 71.163876 180.544714 70.79135 179.645357 70.128342 178.982349 
C 69.465334 178.319341 68.565977 177.946815 67.628342 177.946815 
C 66.690708 177.946815 65.79135 178.319341 65.128342 178.982349 
C 64.465334 179.645357 64.092808 180.544714 64.092808 181.482349 
C 64.092808 182.419984 64.465334 183.319341 65.128342 183.982349 
C 65.79135 184.645357 66.690708 185.017883 67.628342 185.017883 
z
" style="fill:none;stroke:#ff9896;"/>
   </g>
   <g id="PathCollection_3">
    <path clip-path="url(#p04118c8b3c)" d="M 72.601604 185.122807 
C 73.539239 185.122807 74.438597 184.75028 75.101604 184.087273 
C 75.764612 183.424265 76.137138 182.524907 76.137138 181.587273 
C 76.137138 180.649638 75.764612 179.75028 75.101604 179.087273 
C 74.438597 178.424265 73.539239 178.051739 72.601604 178.051739 
C 71.66397 178.051739 70.764612 178.424265 70.101604 179.087273 
C 69.438597 179.75028 69.06607 180.649638 69.06607 181.587273 
C 69.06607 182.524907 69.438597 183.424265 70.101604 184.087273 
C 70.764612 184.75028 71.66397 185.122807 72.601604 185.122807 
z
" style="fill:none;stroke:#ff9896;"/>
   </g>
   <g id="PathCollection_4">
    <path clip-path="url(#p04118c8b3c)" d="M 77.574866 184.36835 
C 78.512501 184.36835 79.411859 183.995824 80.074866 183.332816 
C 80.737874 182.669808 81.1104 181.770451 81.1104 180.832816 
C 81.1104 179.895181 80.737874 178.995824 80.074866 178.332816 
C 79.411859 177.669808 78.512501 177.297282 77.574866 177.297282 
C 76.637232 177.297282 75.737874 177.669808 75.074866 178.332816 
C 74.411859 178.995824 74.039332 179.895181 74.039332 180.832816 
C 74.039332 181.770451 74.411859 182.669808 75.074866 183.332816 
C 75.737874 183.995824 76.637232 184.36835 77.574866 184.36835 
z
" style="fill:none;stroke:#ff9896;"/>
   </g>
   <g id="PathCollection_5">
    <path clip-path="url(#p04118c8b3c)" d="M 82.548128 182.96807 
C 83.485763 182.96807 84.385121 182.595544 85.048128 181.932537 
C 85.711136 181.269529 86.083662 180.370171 86.083662 179.432537 
C 86.083662 178.494902 85.711136 177.595544 85.048128 176.932537 
C 84.385121 176.269529 83.485763 175.897003 82.548128 175.897003 
C 81.610494 175.897003 80.711136 176.269529 80.048128 176.932537 
C 79.385121 177.595544 79.012594 178.494902 79.012594 179.432537 
C 79.012594 180.370171 79.385121 181.269529 80.048128 181.932537 
C 80.711136 182.595544 81.610494 182.96807 82.548128 182.96807 
z
" style="fill:none;stroke:#ff9896;"/>
   </g>
   <g id="PathCollection_6">
    <path clip-path="url(#p04118c8b3c)" d="M 87.52139 181.064053 
C 88.459025 181.064053 89.358383 180.691527 90.02139 180.028519 
C 90.684398 179.365511 91.056924 178.466154 91.056924 177.528519 
C 91.056924 176.590885 90.684398 175.691527 90.02139 175.028519 
C 89.358383 174.365511 88.459025 173.992985 87.52139 173.992985 
C 86.583756 173.992985 85.684398 174.365511 85.02139 175.028519 
C 84.358383 175.691527 83.985856 176.590885 83.985856 177.528519 
C 83.985856 178.466154 84.358383 179.365511 85.02139 180.028519 
C 85.684398 180.691527 86.583756 181.064053 87.52139 181.064053 
z
" style="fill:none;stroke:#ff9896;"/>
   </g>
   <g id="PathCollection_7">
    <path clip-path="url(#p04118c8b3c)" d="M 92.494652 178.74676 
C 93.432287 178.74676 94.331645 178.374233 94.994652 177.711226 
C 95.65766 177.048218 96.030186 176.14886 96.030186 175.211226 
C 96.030186 174.273591 95.65766 173.374233 94.994652 172.711226 
C 94.331645 172.048218 93.432287 171.675692 92.494652 171.675692 
C 91.557018 171.675692 90.65766 172.048218 89.994652 172.711226 
C 89.331645 173.374233 88.959119 174.273591 88.959119 175.211226 
C 88.959119 176.14886 89.331645 177.048218 89.994652 177.711226 
C 90.65766 178.374233 91.557018 178.74676 92.494652 178.74676 
z
" style="fill:none;stroke:#ff9896;"/>
   </g>
   <g id="PathCollection_8">
    <path clip-path="url(#p04118c8b3c)" d="M 97.467914 176.065708 
C 98.405549 176.065708 99.304907 175.693182 99.967914 175.030174 
C 100.630922 174.367166 101.003448 173.467808 101.003448 172.530174 
C 101.003448 171.592539 100.630922 170.693182 99.967914 170.030174 
C 99.304907 169.367166 98.405549 168.99464 97.467914 168.99464 
C 96.53028 168.99464 95.630922 169.367166 94.967914 170.030174 
C 94.304907 170.693182 93.932381 171.592539 93.932381 172.530174 
C 93.932381 173.467808 94.304907 174.367166 94.967914 175.030174 
C 95.630922 175.693182 96.53028 176.065708 97.467914 176.065708 
z
" style="fill:none;stroke:#ff9896;"/>
   </g>
   <g id="PathCollection_9">
    <path clip-path="url(#p04118c8b3c)" d="M 102.441176 173.041448 
C 103.378811 173.041448 104.278169 172.668922 104.941176 172.005914 
C 105.604184 171.342906 105.97671 170.443549 105.97671 169.505914 
C 105.97671 168.56828 105.604184 167.668922 104.941176 167.005914 
C 104.278169 166.342906 103.378811 165.97038 102.441176 165.97038 
C 101.503542 165.97038 100.604184 166.342906 99.941176 167.005914 
C 99.278169 167.668922 98.905643 168.56828 98.905643 169.505914 
C 98.905643 170.443549 99.278169 171.342906 99.941176 172.005914 
C 100.604184 172.668922 101.503542 173.041448 102.441176 173.041448 
z
" style="fill:none;stroke:#ff9896;"/>
   </g>
   <g id="PathCollection_10">
    <path clip-path="url(#p04118c8b3c)" d="M 107.414439 169.675466 
C 108.352073 169.675466 109.251431 169.302939 109.914439 168.639932 
C 110.577446 167.976924 110.949972 167.077566 110.949972 166.139932 
C 110.949972 165.202297 110.577446 164.302939 109.914439 163.639932 
C 109.251431 162.976924 108.352073 162.604398 107.414439 162.604398 
C 106.476804 162.604398 105.577446 162.976924 104.914439 163.639932 
C 104.251431 164.302939 103.878905 165.202297 103.878905 166.139932 
C 103.878905 167.077566 104.251431 167.976924 104.914439 168.639932 
C 105.577446 169.302939 106.476804 169.675466 107.414439 169.675466 
z
" style="fill:none;stroke:#ff9896;"/>
   </g>
   <g id="PathCollection_11">
    <path clip-path="url(#p04118c8b3c)" d="M 112.387701 165.958595 
C 113.325335 165.958595 114.224693 165.586069 114.887701 164.923061 
C 115.550708 164.260054 115.923234 163.360696 115.923234 162.423061 
C 115.923234 161.485427 115.550708 160.586069 114.887701 159.923061 
C 114.224693 159.260054 113.325335 158.887528 112.387701 158.887528 
C 111.450066 158.887528 110.550708 159.260054 109.887701 159.923061 
C 109.224693 160.586069 108.852167 161.485427 108.852167 162.423061 
C 108.852167 163.360696 109.224693 164.260054 109.887701 164.923061 
C 110.550708 165.586069 111.450066 165.958595 112.387701 165.958595 
z
" style="fill:none;stroke:#ff9896;"/>
   </g>
   <g id="PathCollection_12">
    <path clip-path="url(#p04118c8b3c)" d="M 117.360963 161.878037 
C 118.298597 161.878037 119.197955 161.505511 119.860963 160.842503 
C 120.52397 160.179496 120.896496 159.280138 120.896496 158.342503 
C 120.896496 157.404869 120.52397 156.505511 119.860963 155.842503 
C 119.197955 155.179496 118.298597 154.806969 117.360963 154.806969 
C 116.423328 154.806969 115.52397 155.179496 114.860963 155.842503 
C 114.197955 156.505511 113.825429 157.404869 113.825429 158.342503 
C 113.825429 159.280138 114.197955 160.179496 114.860963 160.842503 
C 115.52397 161.505511 116.423328 161.878037 117.360963 161.878037 
z
" style="fill:none;stroke:#ff9896;"/>
   </g>
   <g id="PathCollection_13">
    <path clip-path="url(#p04118c8b3c)" d="M 122.334225 157.423062 
C 123.271859 157.423062 124.171217 157.050536 124.834225 156.387528 
C 125.497232 155.72452 125.869759 154.825163 125.869759 153.887528 
C 125.869759 152.949893 125.497232 152.050536 124.834225 151.387528 
C 124.171217 150.72452 123.271859 150.351994 122.334225 150.351994 
C 121.39659 150.351994 120.497232 150.72452 119.834225 151.387528 
C 119.171217 152.050536 118.798691 152.949893 118.798691 153.887528 
C 118.798691 154.825163 119.171217 155.72452 119.834225 156.387528 
C 120.497232 157.050536 121.39659 157.423062 122.334225 157.423062 
z
" style="fill:none;stroke:#ff9896;"/>
   </g>
   <g id="PathCollection_14">
    <path clip-path="url(#p04118c8b3c)" d="M 127.307487 152.589496 
C 128.245121 152.589496 129.144479 152.216969 129.807487 151.553962 
C 130.470494 150.890954 130.843021 149.991596 130.843021 149.053962 
C 130.843021 148.116327 130.470494 147.216969 129.807487 146.553962 
C 129.144479 145.890954 128.245121 145.518428 127.307487 145.518428 
C 126.369852 145.518428 125.470494 145.890954 124.807487 146.553962 
C 124.144479 147.216969 123.771953 148.116327 123.771953 149.053962 
C 123.771953 149.991596 124.144479 150.890954 124.807487 151.553962 
C 125.470494 152.216969 126.369852 152.589496 127.307487 152.589496 
z
" style="fill:none;stroke:#ff9896;"/>
   </g>
   <g id="PathCollection_15">
    <path clip-path="url(#p04118c8b3c)" d="M 132.280749 147.383077 
C 133.218383 147.383077 134.117741 147.010551 134.780749 146.347543 
C 135.443756 145.684535 135.816283 144.785177 135.816283 143.847543 
C 135.816283 142.909908 135.443756 142.010551 134.780749 141.347543 
C 134.117741 140.684535 133.218383 140.312009 132.280749 140.312009 
C 131.343114 140.312009 130.443756 140.684535 129.780749 141.347543 
C 129.117741 142.010551 128.745215 142.909908 128.745215 143.847543 
C 128.745215 144.785177 129.117741 145.684535 129.780749 146.347543 
C 130.443756 147.010551 131.343114 147.383077 132.280749 147.383077 
z
" style="fill:none;stroke:#ff9896;"/>
   </g>
   <g id="PathCollection_16">
    <path clip-path="url(#p04118c8b3c)" d="M 137.254011 141.821771 
C 138.191645 141.821771 139.091003 141.449245 139.754011 140.786237 
C 140.417018 140.123229 140.789545 139.223871 140.789545 138.286237 
C 140.789545 137.348602 140.417018 136.449245 139.754011 135.786237 
C 139.091003 135.123229 138.191645 134.750703 137.254011 134.750703 
C 136.316376 134.750703 135.417018 135.123229 134.754011 135.786237 
C 134.091003 136.449245 133.718477 137.348602 133.718477 138.286237 
C 133.718477 139.223871 134.091003 140.123229 134.754011 140.786237 
C 135.417018 141.449245 136.316376 141.821771 137.254011 141.821771 
z
" style="fill:none;stroke:#ff9896;"/>
   </g>
   <g id="PathCollection_17">
    <path clip-path="url(#p04118c8b3c)" d="M 142.227273 135.937134 
C 143.164907 135.937134 144.064265 135.564608 144.727273 134.9016 
C 145.39028 134.238592 145.762807 133.339235 145.762807 132.4016 
C 145.762807 131.463965 145.39028 130.564608 144.727273 129.9016 
C 144.064265 129.238592 143.164907 128.866066 142.227273 128.866066 
C 141.289638 128.866066 140.39028 129.238592 139.727273 129.9016 
C 139.064265 130.564608 138.691739 131.463965 138.691739 132.4016 
C 138.691739 133.339235 139.064265 134.238592 139.727273 134.9016 
C 140.39028 135.564608 141.289638 135.937134 142.227273 135.937134 
z
" style="fill:none;stroke:#ff9896;"/>
   </g>
   <g id="PathCollection_18">
    <path clip-path="url(#p04118c8b3c)" d="M 147.200535 129.774817 
C 148.138169 129.774817 149.037527 129.402291 149.700535 128.739283 
C 150.363543 128.076276 150.736069 127.176918 150.736069 126.239283 
C 150.736069 125.301649 150.363543 124.402291 149.700535 123.739283 
C 149.037527 123.076276 148.138169 122.703749 147.200535 122.703749 
C 146.2629 122.703749 145.363543 123.076276 144.700535 123.739283 
C 144.037527 124.402291 143.665001 125.301649 143.665001 126.239283 
C 143.665001 127.176918 144.037527 128.076276 144.700535 128.739283 
C 145.363543 129.402291 146.2629 129.774817 147.200535 129.774817 
z
" style="fill:none;stroke:#ff9896;"/>
   </g>
   <g id="PathCollection_19">
    <path clip-path="url(#p04118c8b3c)" d="M 152.173797 123.394298 
C 153.111431 123.394298 154.010789 123.021772 154.673797 122.358764 
C 155.336805 121.695756 155.709331 120.796398 155.709331 119.858764 
C 155.709331 118.921129 155.336805 118.021772 154.673797 117.358764 
C 154.010789 116.695756 153.111431 116.32323 152.173797 116.32323 
C 151.236162 116.32323 150.336805 116.695756 149.673797 117.358764 
C 149.010789 118.021772 148.638263 118.921129 148.638263 119.858764 
C 148.638263 120.796398 149.010789 121.695756 149.673797 122.358764 
C 150.336805 123.021772 151.236162 123.394298 152.173797 123.394298 
z
" style="fill:none;stroke:#ff9896;"/>
   </g>
   <g id="PathCollection_20">
    <path clip-path="url(#p04118c8b3c)" d="M 157.147059 116.867928 
C 158.084693 116.867928 158.984051 116.495402 159.647059 115.832394 
C 160.310067 115.169386 160.682593 114.270029 160.682593 113.332394 
C 160.682593 112.39476 160.310067 111.495402 159.647059 110.832394 
C 158.984051 110.169386 158.084693 109.79686 157.147059 109.79686 
C 156.209424 109.79686 155.310067 110.169386 154.647059 110.832394 
C 153.984051 111.495402 153.611525 112.39476 153.611525 113.332394 
C 153.611525 114.270029 153.984051 115.169386 154.647059 115.832394 
C 155.310067 116.495402 156.209424 116.867928 157.147059 116.867928 
z
" style="fill:none;stroke:#ff9896;"/>
   </g>
   <g id="PathCollection_21">
    <path clip-path="url(#p04118c8b3c)" d="M 162.120321 110.279395 
C 163.057955 110.279395 163.957313 109.906869 164.620321 109.243862 
C 165.283329 108.580854 165.655855 107.681496 165.655855 106.743862 
C 165.655855 105.806227 165.283329 104.906869 164.620321 104.243862 
C 163.957313 103.580854 163.057955 103.208328 162.120321 103.208328 
C 161.182686 103.208328 160.283329 103.580854 159.620321 104.243862 
C 158.957313 104.906869 158.584787 105.806227 158.584787 106.743862 
C 158.584787 107.681496 158.957313 108.580854 159.620321 109.243862 
C 160.283329 109.906869 161.182686 110.279395 162.120321 110.279395 
z
" style="fill:none;stroke:#ff9896;"/>
   </g>
   <g id="PathCollection_22">
    <path clip-path="url(#p04118c8b3c)" d="M 167.093583 103.721676 
C 168.031217 103.721676 168.930575 103.34915 169.593583 102.686142 
C 170.256591 102.023134 170.629117 101.123777 170.629117 100.186142 
C 170.629117 99.248507 170.256591 98.34915 169.593583 97.686142 
C 168.930575 97.023134 168.031217 96.650608 167.093583 96.650608 
C 166.155948 96.650608 165.256591 97.023134 164.593583 97.686142 
C 163.930575 98.34915 163.558049 99.248507 163.558049 100.186142 
C 163.558049 101.123777 163.930575 102.023134 164.593583 102.686142 
C 165.256591 103.34915 166.155948 103.721676 167.093583 103.721676 
z
" style="fill:none;stroke:#ff9896;"/>
   </g>
   <g id="PathCollection_23">
    <path clip-path="url(#p04118c8b3c)" d="M 172.066845 97.294578 
C 173.004479 97.294578 173.903837 96.922052 174.566845 96.259044 
C 175.229853 95.596036 175.602379 94.696679 175.602379 93.759044 
C 175.602379 92.82141 175.229853 91.922052 174.566845 91.259044 
C 173.903837 90.596036 173.004479 90.22351 172.066845 90.22351 
C 171.12921 90.22351 170.229853 90.596036 169.566845 91.259044 
C 168.903837 91.922052 168.531311 92.82141 168.531311 93.759044 
C 168.531311 94.696679 168.903837 95.596036 169.566845 96.259044 
C 170.229853 96.922052 171.12921 97.294578 172.066845 97.294578 
z
" style="fill:none;stroke:#ff9896;"/>
   </g>
   <g id="PathCollection_24">
    <path clip-path="url(#p04118c8b3c)" d="M 177.040107 91.101962 
C 177.977742 91.101962 178.877099 90.729436 179.540107 90.066428 
C 180.203115 89.40342 180.575641 88.504063 180.575641 87.566428 
C 180.575641 86.628793 180.203115 85.729436 179.540107 85.066428 
C 178.877099 84.40342 177.977742 84.030894 177.040107 84.030894 
C 176.102472 84.030894 175.203115 84.40342 174.540107 85.066428 
C 173.877099 85.729436 173.504573 86.628793 173.504573 87.566428 
C 173.504573 88.504063 173.877099 89.40342 174.540107 90.066428 
C 175.203115 90.729436 176.102472 91.101962 177.040107 91.101962 
z
" style="fill:none;stroke:#ff9896;"/>
   </g>
   <g id="PathCollection_25">
    <path clip-path="url(#p04118c8b3c)" d="M 182.013369 85.248727 
C 182.951004 85.248727 183.850361 84.876201 184.513369 84.213193 
C 185.176377 83.550185 185.548903 82.650828 185.548903 81.713193 
C 185.548903 80.775559 185.176377 79.876201 184.513369 79.213193 
C 183.850361 78.550185 182.951004 78.177659 182.013369 78.177659 
C 181.075734 78.177659 180.176377 78.550185 179.513369 79.213193 
C 178.850361 79.876201 178.477835 80.775559 178.477835 81.713193 
C 178.477835 82.650828 178.850361 83.550185 179.513369 84.213193 
C 180.176377 84.876201 181.075734 85.248727 182.013369 85.248727 
z
" style="fill:none;stroke:#ff9896;"/>
   </g>
   <g id="PathCollection_26">
    <path clip-path="url(#p04118c8b3c)" d="M 186.986631 79.837653 
C 187.924266 79.837653 188.823623 79.465127 189.486631 78.802119 
C 190.149639 78.139111 190.522165 77.239753 190.522165 76.302119 
C 190.522165 75.364484 190.149639 74.465127 189.486631 73.802119 
C 188.823623 73.139111 187.924266 72.766585 186.986631 72.766585 
C 186.048996 72.766585 185.149639 73.139111 184.486631 73.802119 
C 183.823623 74.465127 183.451097 75.364484 183.451097 76.302119 
C 183.451097 77.239753 183.823623 78.139111 184.486631 78.802119 
C 185.149639 79.465127 186.048996 79.837653 186.986631 79.837653 
z
" style="fill:none;stroke:#ff9896;"/>
   </g>
   <g id="PathCollection_27">
    <path clip-path="url(#p04118c8b3c)" d="M 191.959893 74.966189 
C 192.897528 74.966189 193.796885 74.593663 194.459893 73.930655 
C 195.122901 73.267647 195.495427 72.36829 195.495427 71.430655 
C 195.495427 70.49302 195.122901 69.593663 194.459893 68.930655 
C 193.796885 68.267647 192.897528 67.895121 191.959893 67.895121 
C 191.022258 67.895121 190.122901 68.267647 189.459893 68.930655 
C 188.796885 69.593663 188.424359 70.49302 188.424359 71.430655 
C 188.424359 72.36829 188.796885 73.267647 189.459893 73.930655 
C 190.122901 74.593663 191.022258 74.966189 191.959893 74.966189 
z
" style="fill:none;stroke:#ff9896;"/>
   </g>
   <g id="PathCollection_28">
    <path clip-path="url(#p04118c8b3c)" d="M 196.933155 70.723279 
C 197.87079 70.723279 198.770147 70.350753 199.433155 69.687745 
C 200.096163 69.024737 200.468689 68.125379 200.468689 67.187745 
C 200.468689 66.25011 200.096163 65.350753 199.433155 64.687745 
C 198.770147 64.024737 197.87079 63.652211 196.933155 63.652211 
C 195.995521 63.652211 195.096163 64.024737 194.433155 64.687745 
C 193.770147 65.350753 193.397621 66.25011 193.397621 67.187745 
C 193.397621 68.125379 193.770147 69.024737 194.433155 69.687745 
C 195.096163 70.350753 195.995521 70.723279 196.933155 70.723279 
z
" style="fill:none;stroke:#ff9896;"/>
   </g>
   <g id="PathCollection_29">
    <path clip-path="url(#p04118c8b3c)" d="M 201.906417 67.18631 
C 202.844052 67.18631 203.743409 66.813784 204.406417 66.150776 
C 205.069425 65.487769 205.441951 64.588411 205.441951 63.650776 
C 205.441951 62.713142 205.069425 61.813784 204.406417 61.150776 
C 203.743409 60.487769 202.844052 60.115243 201.906417 60.115243 
C 200.968783 60.115243 200.069425 60.487769 199.406417 61.150776 
C 198.743409 61.813784 198.370883 62.713142 198.370883 63.650776 
C 198.370883 64.588411 198.743409 65.487769 199.406417 66.150776 
C 200.069425 66.813784 200.968783 67.18631 201.906417 67.18631 
z
" style="fill:none;stroke:#ff9896;"/>
   </g>
   <g id="PathCollection_30">
    <path clip-path="url(#p04118c8b3c)" d="M 206.879679 64.41828 
C 207.817314 64.41828 208.716671 64.045754 209.379679 63.382746 
C 210.042687 62.719738 210.415213 61.820381 210.415213 60.882746 
C 210.415213 59.945112 210.042687 59.045754 209.379679 58.382746 
C 208.716671 57.719738 207.817314 57.347212 206.879679 57.347212 
C 205.942045 57.347212 205.042687 57.719738 204.379679 58.382746 
C 203.716671 59.045754 203.344145 59.945112 203.344145 60.882746 
C 203.344145 61.820381 203.716671 62.719738 204.379679 63.382746 
C 205.042687 64.045754 205.942045 64.41828 206.879679 64.41828 
z
" style="fill:none;stroke:#ff9896;"/>
   </g>
   <g id="PathCollection_31">
    <path clip-path="url(#p04118c8b3c)" d="M 211.852941 62.465263 
C 212.790576 62.465263 213.689933 62.092736 214.352941 61.429729 
C 215.015949 60.766721 215.388475 59.867363 215.388475 58.929729 
C 215.388475 57.992094 215.015949 57.092736 214.352941 56.429729 
C 213.689933 55.766721 212.790576 55.394195 211.852941 55.394195 
C 210.915307 55.394195 210.015949 55.766721 209.352941 56.429729 
C 208.689933 57.092736 208.317407 57.992094 208.317407 58.929729 
C 208.317407 59.867363 208.689933 60.766721 209.352941 61.429729 
C 210.015949 62.092736 210.915307 62.465263 211.852941 62.465263 
z
" style="fill:none;stroke:#ff9896;"/>
   </g>
   <g id="PathCollection_32">
    <path clip-path="url(#p04118c8b3c)" d="M 216.826203 61.354275 
C 217.763838 61.354275 218.663195 60.981749 219.326203 60.318741 
C 219.989211 59.655734 220.361737 58.756376 220.361737 57.818741 
C 220.361737 56.881107 219.989211 55.981749 219.326203 55.318741 
C 218.663195 54.655734 217.763838 54.283207 216.826203 54.283207 
C 215.888569 54.283207 214.989211 54.655734 214.326203 55.318741 
C 213.663195 55.981749 213.290669 56.881107 213.290669 57.818741 
C 213.290669 58.756376 213.663195 59.655734 214.326203 60.318741 
C 214.989211 60.981749 215.888569 61.354275 216.826203 61.354275 
z
" style="fill:none;stroke:#ff9896;"/>
   </g>
   <g id="PathCollection_33">
    <path clip-path="url(#p04118c8b3c)" d="M 221.799465 61.091626 
C 222.7371 61.091626 223.636457 60.7191 224.299465 60.056092 
C 224.962473 59.393085 225.334999 58.493727 225.334999 57.556092 
C 225.334999 56.618458 224.962473 55.7191 224.299465 55.056092 
C 223.636457 54.393085 222.7371 54.020558 221.799465 54.020558 
C 220.861831 54.020558 219.962473 54.393085 219.299465 55.056092 
C 218.636457 55.7191 218.263931 56.618458 218.263931 57.556092 
C 218.263931 58.493727 218.636457 59.393085 219.299465 60.056092 
C 219.962473 60.7191 220.861831 61.091626 221.799465 61.091626 
z
" style="fill:none;stroke:#ff9896;"/>
   </g>
   <g id="PathCollection_34">
    <path clip-path="url(#p04118c8b3c)" d="M 226.772727 61.661835 
C 227.710362 61.661835 228.60972 61.289309 229.272727 60.626301 
C 229.935735 59.963293 230.308261 59.063936 230.308261 58.126301 
C 230.308261 57.188667 229.935735 56.289309 229.272727 55.626301 
C 228.60972 54.963293 227.710362 54.590767 226.772727 54.590767 
C 225.835093 54.590767 224.935735 54.963293 224.272727 55.626301 
C 223.60972 56.289309 223.237193 57.188667 223.237193 58.126301 
C 223.237193 59.063936 223.60972 59.963293 224.272727 60.626301 
C 224.935735 61.289309 225.835093 61.661835 226.772727 61.661835 
z
" style="fill:none;stroke:#ff9896;"/>
   </g>
   <g id="PathCollection_35">
    <path clip-path="url(#p04118c8b3c)" d="M 231.745989 63.02722 
C 232.683624 63.02722 233.582982 62.654693 234.245989 61.991686 
C 234.908997 61.328678 235.281523 60.42932 235.281523 59.491686 
C 235.281523 58.554051 234.908997 57.654693 234.245989 56.991686 
C 233.582982 56.328678 232.683624 55.956152 231.745989 55.956152 
C 230.808355 55.956152 229.908997 56.328678 229.245989 56.991686 
C 228.582982 57.654693 228.210455 58.554051 228.210455 59.491686 
C 228.210455 60.42932 228.582982 61.328678 229.245989 61.991686 
C 229.908997 62.654693 230.808355 63.02722 231.745989 63.02722 
z
" style="fill:none;stroke:#ff9896;"/>
   </g>
   <g id="PathCollection_36">
    <path clip-path="url(#p04118c8b3c)" d="M 236.719251 65.128234 
C 237.656886 65.128234 238.556244 64.755708 239.219251 64.0927 
C 239.882259 63.429693 240.254785 62.530335 240.254785 61.5927 
C 240.254785 60.655066 239.882259 59.755708 239.219251 59.0927 
C 238.556244 58.429693 237.656886 58.057167 236.719251 58.057167 
C 235.781617 58.057167 234.882259 58.429693 234.219251 59.0927 
C 233.556244 59.755708 233.183717 60.655066 233.183717 61.5927 
C 233.183717 62.530335 233.556244 63.429693 234.219251 64.0927 
C 234.882259 64.755708 235.781617 65.128234 236.719251 65.128234 
z
" style="fill:none;stroke:#ff9896;"/>
   </g>
   <g id="PathCollection_37">
    <path clip-path="url(#p04118c8b3c)" d="M 241.692513 67.884651 
C 242.630148 67.884651 243.529506 67.512125 244.192513 66.849117 
C 244.855521 66.186109 245.228047 65.286751 245.228047 64.349117 
C 245.228047 63.411482 244.855521 62.512125 244.192513 61.849117 
C 243.529506 61.186109 242.630148 60.813583 241.692513 60.813583 
C 240.754879 60.813583 239.855521 61.186109 239.192513 61.849117 
C 238.529506 62.512125 238.156979 63.411482 238.156979 64.349117 
C 238.156979 65.286751 238.529506 66.186109 239.192513 66.849117 
C 239.855521 67.512125 240.754879 67.884651 241.692513 67.884651 
z
" style="fill:none;stroke:#ff9896;"/>
   </g>
   <g id="PathCollection_38">
    <path clip-path="url(#p04118c8b3c)" d="M 246.665775 71.197671 
C 247.60341 71.197671 248.502768 70.825145 249.165775 70.162137 
C 249.828783 69.49913 250.201309 68.599772 250.201309 67.662137 
C 250.201309 66.724503 249.828783 65.825145 249.165775 65.162137 
C 248.502768 64.49913 247.60341 64.126603 246.665775 64.126603 
C 245.728141 64.126603 244.828783 64.49913 244.165775 65.162137 
C 243.502768 65.825145 243.130241 66.724503 243.130241 67.662137 
C 243.130241 68.599772 243.502768 69.49913 244.165775 70.162137 
C 244.828783 70.825145 245.728141 71.197671 246.665775 71.197671 
z
" style="fill:none;stroke:#ff9896;"/>
   </g>
   <g id="PathCollection_39">
    <path clip-path="url(#p04118c8b3c)" d="M 251.639037 74.953067 
C 252.576672 74.953067 253.47603 74.580541 254.139037 73.917533 
C 254.802045 73.254525 255.174571 72.355167 255.174571 71.417533 
C 255.174571 70.479898 254.802045 69.580541 254.139037 68.917533 
C 253.47603 68.254525 252.576672 67.881999 251.639037 67.881999 
C 250.701403 67.881999 249.802045 68.254525 249.139037 68.917533 
C 248.47603 69.580541 248.103504 70.479898 248.103504 71.417533 
C 248.103504 72.355167 248.47603 73.254525 249.139037 73.917533 
C 249.802045 74.580541 250.701403 74.953067 251.639037 74.953067 
z
" style="fill:none;stroke:#ff9896;"/>
   </g>
   <g id="PathCollection_40">
    <path clip-path="url(#p04118c8b3c)" d="M 256.612299 79.025422 
C 257.549934 79.025422 258.449292 78.652896 259.112299 77.989888 
C 259.775307 77.326881 260.147833 76.427523 260.147833 75.489888 
C 260.147833 74.552254 259.775307 73.652896 259.112299 72.989888 
C 258.449292 72.326881 257.549934 71.954355 256.612299 71.954355 
C 255.674665 71.954355 254.775307 72.326881 254.112299 72.989888 
C 253.449292 73.652896 253.076766 74.552254 253.076766 75.489888 
C 253.076766 76.427523 253.449292 77.326881 254.112299 77.989888 
C 254.775307 78.652896 255.674665 79.025422 256.612299 79.025422 
z
" style="fill:none;stroke:#ff9896;"/>
   </g>
   <g id="PathCollection_41">
    <path clip-path="url(#p04118c8b3c)" d="M 261.585561 83.283589 
C 262.523196 83.283589 263.422554 82.911063 264.085561 82.248055 
C 264.748569 81.585047 265.121095 80.685689 265.121095 79.748055 
C 265.121095 78.81042 264.748569 77.911063 264.085561 77.248055 
C 263.422554 76.585047 262.523196 76.212521 261.585561 76.212521 
C 260.647927 76.212521 259.748569 76.585047 259.085561 77.248055 
C 258.422554 77.911063 258.050028 78.81042 258.050028 79.748055 
C 258.050028 80.685689 258.422554 81.585047 259.085561 82.248055 
C 259.748569 82.911063 260.647927 83.283589 261.585561 83.283589 
z
" style="fill:none;stroke:#ff9896;"/>
   </g>
   <g id="PathCollection_42">
    <path clip-path="url(#p04118c8b3c)" d="M 266.558824 87.597421 
C 267.496458 87.597421 268.395816 87.224895 269.058824 86.561887 
C 269.721831 85.898879 270.094357 84.999522 270.094357 84.061887 
C 270.094357 83.124253 269.721831 82.224895 269.058824 81.561887 
C 268.395816 80.898879 267.496458 80.526353 266.558824 80.526353 
C 265.621189 80.526353 264.721831 80.898879 264.058824 81.561887 
C 263.395816 82.224895 263.02329 83.124253 263.02329 84.061887 
C 263.02329 84.999522 263.395816 85.898879 264.058824 86.561887 
C 264.721831 87.224895 265.621189 87.597421 266.558824 87.597421 
z
" style="fill:none;stroke:#ff9896;"/>
   </g>
   <g id="PathCollection_43">
    <path clip-path="url(#p04118c8b3c)" d="M 271.532086 91.845902 
C 272.46972 91.845902 273.369078 91.473376 274.032086 90.810368 
C 274.695093 90.147361 275.067619 89.248003 275.067619 88.310368 
C 275.067619 87.372734 274.695093 86.473376 274.032086 85.810368 
C 273.369078 85.147361 272.46972 84.774835 271.532086 84.774835 
C 270.594451 84.774835 269.695093 85.147361 269.032086 85.810368 
C 268.369078 86.473376 267.996552 87.372734 267.996552 88.310368 
C 267.996552 89.248003 268.369078 90.147361 269.032086 90.810368 
C 269.695093 91.473376 270.594451 91.845902 271.532086 91.845902 
z
" style="fill:none;stroke:#ff9896;"/>
   </g>
   <g id="PathCollection_44">
    <path clip-path="url(#p04118c8b3c)" d="M 276.505348 95.926734 
C 277.442982 95.926734 278.34234 95.554208 279.005348 94.8912 
C 279.668355 94.228193 280.040881 93.328835 280.040881 92.3912 
C 280.040881 91.453566 279.668355 90.554208 279.005348 89.8912 
C 278.34234 89.228193 277.442982 88.855666 276.505348 88.855666 
C 275.567713 88.855666 274.668355 89.228193 274.005348 89.8912 
C 273.34234 90.554208 272.969814 91.453566 272.969814 92.3912 
C 272.969814 93.328835 273.34234 94.228193 274.005348 94.8912 
C 274.668355 95.554208 275.567713 95.926734 276.505348 95.926734 
z
" style="fill:none;stroke:#ff9896;"/>
   </g>
   <g id="PathCollection_45">
    <path clip-path="url(#p04118c8b3c)" d="M 281.47861 99.767491 
C 282.416244 99.767491 283.315602 99.394964 283.97861 98.731957 
C 284.641617 98.068949 285.014144 97.169591 285.014144 96.231957 
C 285.014144 95.294322 284.641617 94.394964 283.97861 93.731957 
C 283.315602 93.068949 282.416244 92.696423 281.47861 92.696423 
C 280.540975 92.696423 279.641617 93.068949 278.97861 93.731957 
C 278.315602 94.394964 277.943076 95.294322 277.943076 96.231957 
C 277.943076 97.169591 278.315602 98.068949 278.97861 98.731957 
C 279.641617 99.394964 280.540975 99.767491 281.47861 99.767491 
z
" style="fill:none;stroke:#ff9896;"/>
   </g>
   <g id="PathCollection_46">
    <path clip-path="url(#p04118c8b3c)" d="M 286.451872 103.338418 
C 287.389506 103.338418 288.288864 102.965892 288.951872 102.302884 
C 289.614879 101.639876 289.987406 100.740519 289.987406 99.802884 
C 289.987406 98.86525 289.614879 97.965892 288.951872 97.302884 
C 288.288864 96.639876 287.389506 96.26735 286.451872 96.26735 
C 285.514237 96.26735 284.614879 96.639876 283.951872 97.302884 
C 283.288864 97.965892 282.916338 98.86525 282.916338 99.802884 
C 282.916338 100.740519 283.288864 101.639876 283.951872 102.302884 
C 284.614879 102.965892 285.514237 103.338418 286.451872 103.338418 
z
" style="fill:none;stroke:#ff9896;"/>
   </g>
   <g id="PathCollection_47">
    <path clip-path="url(#p04118c8b3c)" d="M 291.425134 106.666981 
C 292.362768 106.666981 293.262126 106.294455 293.925134 105.631447 
C 294.588141 104.968439 294.960668 104.069082 294.960668 103.131447 
C 294.960668 102.193812 294.588141 101.294455 293.925134 100.631447 
C 293.262126 99.968439 292.362768 99.595913 291.425134 99.595913 
C 290.487499 99.595913 289.588141 99.968439 288.925134 100.631447 
C 288.262126 101.294455 287.8896 102.193812 287.8896 103.131447 
C 287.8896 104.069082 288.262126 104.968439 288.925134 105.631447 
C 289.588141 106.294455 290.487499 106.666981 291.425134 106.666981 
z
" style="fill:none;stroke:#ff9896;"/>
   </g>
   <g id="PathCollection_48">
    <path clip-path="url(#p04118c8b3c)" d="M 296.398396 109.85423 
C 297.33603 109.85423 298.235388 109.481704 298.898396 108.818696 
C 299.561403 108.155689 299.93393 107.256331 299.93393 106.318696 
C 299.93393 105.381062 299.561403 104.481704 298.898396 103.818696 
C 298.235388 103.155689 297.33603 102.783163 296.398396 102.783163 
C 295.460761 102.783163 294.561403 103.155689 293.898396 103.818696 
C 293.235388 104.481704 292.862862 105.381062 292.862862 106.318696 
C 292.862862 107.256331 293.235388 108.155689 293.898396 108.818696 
C 294.561403 109.481704 295.460761 109.85423 296.398396 109.85423 
z
" style="fill:none;stroke:#ff9896;"/>
   </g>
   <g id="PathCollection_49">
    <path clip-path="url(#p04118c8b3c)" d="M 301.371658 113.093096 
C 302.309292 113.093096 303.20865 112.720569 303.871658 112.057562 
C 304.534666 111.394554 304.907192 110.495196 304.907192 109.557562 
C 304.907192 108.619927 304.534666 107.720569 303.871658 107.057562 
C 303.20865 106.394554 302.309292 106.022028 301.371658 106.022028 
C 300.434023 106.022028 299.534666 106.394554 298.871658 107.057562 
C 298.20865 107.720569 297.836124 108.619927 297.836124 109.557562 
C 297.836124 110.495196 298.20865 111.394554 298.871658 112.057562 
C 299.534666 112.720569 300.434023 113.093096 301.371658 113.093096 
z
" style="fill:none;stroke:#ff9896;"/>
   </g>
   <g id="PathCollection_50">
    <path clip-path="url(#p04118c8b3c)" d="M 306.34492 116.688683 
C 307.282554 116.688683 308.181912 116.316157 308.84492 115.653149 
C 309.507928 114.990141 309.880454 114.090783 309.880454 113.153149 
C 309.880454 112.215514 309.507928 111.316157 308.84492 110.653149 
C 308.181912 109.990141 307.282554 109.617615 306.34492 109.617615 
C 305.407285 109.617615 304.507928 109.990141 303.84492 110.653149 
C 303.181912 111.316157 302.809386 112.215514 302.809386 113.153149 
C 302.809386 114.090783 303.181912 114.990141 303.84492 115.653149 
C 304.507928 116.316157 305.407285 116.688683 306.34492 116.688683 
z
" style="fill:none;stroke:#ff9896;"/>
   </g>
   <g id="PathCollection_51">
    <path clip-path="url(#p04118c8b3c)" d="M 311.318182 121.080673 
C 312.255816 121.080673 313.155174 120.708147 313.818182 120.045139 
C 314.48119 119.382131 314.853716 118.482773 314.853716 117.545139 
C 314.853716 116.607504 314.48119 115.708147 313.818182 115.045139 
C 313.155174 114.382131 312.255816 114.009605 311.318182 114.009605 
C 310.380547 114.009605 309.48119 114.382131 308.818182 115.045139 
C 308.155174 115.708147 307.782648 116.607504 307.782648 117.545139 
C 307.782648 118.482773 308.155174 119.382131 308.818182 120.045139 
C 309.48119 120.708147 310.380547 121.080673 311.318182 121.080673 
z
" style="fill:none;stroke:#ff9896;"/>
   </g>
   <g id="PathCollection_52">
    <defs>
     <path d="M 0 3.535534 
C 0.937635 3.535534 1.836992 3.163008 2.5 2.5 
C 3.163008 1.836992 3.535534 0.937635 3.535534 0 
C 3.535534 -0.937635 3.163008 -1.836992 2.5 -2.5 
C 1.836992 -3.163008 0.937635 -3.535534 0 -3.535534 
C -0.937635 -3.535534 -1.836992 -3.163008 -2.5 -2.5 
C -3.163008 -1.836992 -3.535534 -0.937635 -3.535534 0 
C -3.535534 0.937635 -3.163008 1.836992 -2.5 2.5 
C -1.836992 3.163008 -0.937635 3.535534 0 3.535534 
z
" id="mbbb0c64338" style="stroke:#ff9896;"/>
    </defs>
    <g clip-path="url(#p04118c8b3c)">
     <use style="fill:#ff9896;stroke:#ff9896;" x="62.65508" xlink:href="#mbbb0c64338" y="180.183199"/>
    </g>
   </g>
   <g id="PathCollection_53">
    <g clip-path="url(#p04118c8b3c)">
     <use style="fill:#ff9896;stroke:#ff9896;" x="67.628342" xlink:href="#mbbb0c64338" y="181.17045"/>
    </g>
   </g>
   <g id="PathCollection_54">
    <g clip-path="url(#p04118c8b3c)">
     <use style="fill:#ff9896;stroke:#ff9896;" x="72.601604" xlink:href="#mbbb0c64338" y="181.261211"/>
    </g>
   </g>
   <g id="PathCollection_55">
    <g clip-path="url(#p04118c8b3c)">
     <use style="fill:#ff9896;stroke:#ff9896;" x="77.574866" xlink:href="#mbbb0c64338" y="180.647137"/>
    </g>
   </g>
   <g id="PathCollection_56">
    <g clip-path="url(#p04118c8b3c)">
     <use style="fill:#ff9896;stroke:#ff9896;" x="82.548128" xlink:href="#mbbb0c64338" y="179.459238"/>
    </g>
   </g>
   <g id="PathCollection_57">
    <g clip-path="url(#p04118c8b3c)">
     <use style="fill:#ff9896;stroke:#ff9896;" x="87.52139" xlink:href="#mbbb0c64338" y="177.788933"/>
    </g>
   </g>
   <g id="PathCollection_58">
    <g clip-path="url(#p04118c8b3c)">
     <use style="fill:#ff9896;stroke:#ff9896;" x="92.494652" xlink:href="#mbbb0c64338" y="175.689715"/>
    </g>
   </g>
   <g id="PathCollection_59">
    <g clip-path="url(#p04118c8b3c)">
     <use style="fill:#ff9896;stroke:#ff9896;" x="97.467914" xlink:href="#mbbb0c64338" y="173.191005"/>
    </g>
   </g>
   <g id="PathCollection_60">
    <g clip-path="url(#p04118c8b3c)">
     <use style="fill:#ff9896;stroke:#ff9896;" x="102.441176" xlink:href="#mbbb0c64338" y="170.305361"/>
    </g>
   </g>
   <g id="PathCollection_61">
    <g clip-path="url(#p04118c8b3c)">
     <use style="fill:#ff9896;stroke:#ff9896;" x="107.414439" xlink:href="#mbbb0c64338" y="167.035412"/>
    </g>
   </g>
   <g id="PathCollection_62">
    <g clip-path="url(#p04118c8b3c)">
     <use style="fill:#ff9896;stroke:#ff9896;" x="112.387701" xlink:href="#mbbb0c64338" y="163.379678"/>
    </g>
   </g>
   <g id="PathCollection_63">
    <g clip-path="url(#p04118c8b3c)">
     <use style="fill:#ff9896;stroke:#ff9896;" x="117.360963" xlink:href="#mbbb0c64338" y="159.337352"/>
    </g>
   </g>
   <g id="PathCollection_64">
    <g clip-path="url(#p04118c8b3c)">
     <use style="fill:#ff9896;stroke:#ff9896;" x="122.334225" xlink:href="#mbbb0c64338" y="154.91211"/>
    </g>
   </g>
   <g id="PathCollection_65">
    <g clip-path="url(#p04118c8b3c)">
     <use style="fill:#ff9896;stroke:#ff9896;" x="127.307487" xlink:href="#mbbb0c64338" y="150.115014"/>
    </g>
   </g>
   <g id="PathCollection_66">
    <g clip-path="url(#p04118c8b3c)">
     <use style="fill:#ff9896;stroke:#ff9896;" x="132.280749" xlink:href="#mbbb0c64338" y="144.966586"/>
    </g>
   </g>
   <g id="PathCollection_67">
    <g clip-path="url(#p04118c8b3c)">
     <use style="fill:#ff9896;stroke:#ff9896;" x="137.254011" xlink:href="#mbbb0c64338" y="139.498103"/>
    </g>
   </g>
   <g id="PathCollection_68">
    <g clip-path="url(#p04118c8b3c)">
     <use style="fill:#ff9896;stroke:#ff9896;" x="142.227273" xlink:href="#mbbb0c64338" y="133.752206"/>
    </g>
   </g>
   <g id="PathCollection_69">
    <g clip-path="url(#p04118c8b3c)">
     <use style="fill:#ff9896;stroke:#ff9896;" x="147.200535" xlink:href="#mbbb0c64338" y="127.782868"/>
    </g>
   </g>
   <g id="PathCollection_70">
    <g clip-path="url(#p04118c8b3c)">
     <use style="fill:#ff9896;stroke:#ff9896;" x="152.173797" xlink:href="#mbbb0c64338" y="121.654801"/>
    </g>
   </g>
   <g id="PathCollection_71">
    <g clip-path="url(#p04118c8b3c)">
     <use style="fill:#ff9896;stroke:#ff9896;" x="157.147059" xlink:href="#mbbb0c64338" y="115.442375"/>
    </g>
   </g>
   <g id="PathCollection_72">
    <g clip-path="url(#p04118c8b3c)">
     <use style="fill:#ff9896;stroke:#ff9896;" x="162.120321" xlink:href="#mbbb0c64338" y="109.228103"/>
    </g>
   </g>
   <g id="PathCollection_73">
    <g clip-path="url(#p04118c8b3c)">
     <use style="fill:#ff9896;stroke:#ff9896;" x="167.093583" xlink:href="#mbbb0c64338" y="103.100772"/>
    </g>
   </g>
   <g id="PathCollection_74">
    <g clip-path="url(#p04118c8b3c)">
     <use style="fill:#ff9896;stroke:#ff9896;" x="172.066845" xlink:href="#mbbb0c64338" y="97.153285"/>
    </g>
   </g>
   <g id="PathCollection_75">
    <g clip-path="url(#p04118c8b3c)">
     <use style="fill:#ff9896;stroke:#ff9896;" x="177.040107" xlink:href="#mbbb0c64338" y="91.480278"/>
    </g>
   </g>
   <g id="PathCollection_76">
    <g clip-path="url(#p04118c8b3c)">
     <use style="fill:#ff9896;stroke:#ff9896;" x="182.013369" xlink:href="#mbbb0c64338" y="86.175591"/>
    </g>
   </g>
   <g id="PathCollection_77">
    <g clip-path="url(#p04118c8b3c)">
     <use style="fill:#ff9896;stroke:#ff9896;" x="186.986631" xlink:href="#mbbb0c64338" y="81.329646"/>
    </g>
   </g>
   <g id="PathCollection_78">
    <g clip-path="url(#p04118c8b3c)">
     <use style="fill:#ff9896;stroke:#ff9896;" x="191.959893" xlink:href="#mbbb0c64338" y="77.026815"/>
    </g>
   </g>
   <g id="PathCollection_79">
    <g clip-path="url(#p04118c8b3c)">
     <use style="fill:#ff9896;stroke:#ff9896;" x="196.933155" xlink:href="#mbbb0c64338" y="73.342836"/>
    </g>
   </g>
   <g id="PathCollection_80">
    <g clip-path="url(#p04118c8b3c)">
     <use style="fill:#ff9896;stroke:#ff9896;" x="201.906417" xlink:href="#mbbb0c64338" y="70.342353"/>
    </g>
   </g>
   <g id="PathCollection_81">
    <g clip-path="url(#p04118c8b3c)">
     <use style="fill:#ff9896;stroke:#ff9896;" x="206.879679" xlink:href="#mbbb0c64338" y="68.076641"/>
    </g>
   </g>
   <g id="PathCollection_82">
    <g clip-path="url(#p04118c8b3c)">
     <use style="fill:#ff9896;stroke:#ff9896;" x="211.852941" xlink:href="#mbbb0c64338" y="66.581589"/>
    </g>
   </g>
   <g id="PathCollection_83">
    <g clip-path="url(#p04118c8b3c)">
     <use style="fill:#ff9896;stroke:#ff9896;" x="216.826203" xlink:href="#mbbb0c64338" y="65.87601"/>
    </g>
   </g>
   <g id="PathCollection_84">
    <g clip-path="url(#p04118c8b3c)">
     <use style="fill:#ff9896;stroke:#ff9896;" x="221.799465" xlink:href="#mbbb0c64338" y="65.96034"/>
    </g>
   </g>
   <g id="PathCollection_85">
    <g clip-path="url(#p04118c8b3c)">
     <use style="fill:#ff9896;stroke:#ff9896;" x="226.772727" xlink:href="#mbbb0c64338" y="66.815802"/>
    </g>
   </g>
   <g id="PathCollection_86">
    <g clip-path="url(#p04118c8b3c)">
     <use style="fill:#ff9896;stroke:#ff9896;" x="231.745989" xlink:href="#mbbb0c64338" y="68.404103"/>
    </g>
   </g>
   <g id="PathCollection_87">
    <g clip-path="url(#p04118c8b3c)">
     <use style="fill:#ff9896;stroke:#ff9896;" x="236.719251" xlink:href="#mbbb0c64338" y="70.66772"/>
    </g>
   </g>
   <g id="PathCollection_88">
    <g clip-path="url(#p04118c8b3c)">
     <use style="fill:#ff9896;stroke:#ff9896;" x="241.692513" xlink:href="#mbbb0c64338" y="73.530862"/>
    </g>
   </g>
   <g id="PathCollection_89">
    <g clip-path="url(#p04118c8b3c)">
     <use style="fill:#ff9896;stroke:#ff9896;" x="246.665775" xlink:href="#mbbb0c64338" y="76.901162"/>
    </g>
   </g>
   <g id="PathCollection_90">
    <g clip-path="url(#p04118c8b3c)">
     <use style="fill:#ff9896;stroke:#ff9896;" x="251.639037" xlink:href="#mbbb0c64338" y="80.672171"/>
    </g>
   </g>
   <g id="PathCollection_91">
    <g clip-path="url(#p04118c8b3c)">
     <use style="fill:#ff9896;stroke:#ff9896;" x="256.612299" xlink:href="#mbbb0c64338" y="84.726729"/>
    </g>
   </g>
   <g id="PathCollection_92">
    <g clip-path="url(#p04118c8b3c)">
     <use style="fill:#ff9896;stroke:#ff9896;" x="261.585561" xlink:href="#mbbb0c64338" y="88.941272"/>
    </g>
   </g>
   <g id="PathCollection_93">
    <g clip-path="url(#p04118c8b3c)">
     <use style="fill:#ff9896;stroke:#ff9896;" x="266.558824" xlink:href="#mbbb0c64338" y="93.191143"/>
    </g>
   </g>
   <g id="PathCollection_94">
    <g clip-path="url(#p04118c8b3c)">
     <use style="fill:#ff9896;stroke:#ff9896;" x="271.532086" xlink:href="#mbbb0c64338" y="97.356988"/>
    </g>
   </g>
   <g id="PathCollection_95">
    <g clip-path="url(#p04118c8b3c)">
     <use style="fill:#ff9896;stroke:#ff9896;" x="276.505348" xlink:href="#mbbb0c64338" y="101.33229"/>
    </g>
   </g>
   <g id="PathCollection_96">
    <g clip-path="url(#p04118c8b3c)">
     <use style="fill:#ff9896;stroke:#ff9896;" x="281.47861" xlink:href="#mbbb0c64338" y="105.03212"/>
    </g>
   </g>
   <g id="PathCollection_97">
    <g clip-path="url(#p04118c8b3c)">
     <use style="fill:#ff9896;stroke:#ff9896;" x="286.451872" xlink:href="#mbbb0c64338" y="108.403165"/>
    </g>
   </g>
   <g id="PathCollection_98">
    <g clip-path="url(#p04118c8b3c)">
     <use style="fill:#ff9896;stroke:#ff9896;" x="291.425134" xlink:href="#mbbb0c64338" y="111.435108"/>
    </g>
   </g>
   <g id="PathCollection_99">
    <g clip-path="url(#p04118c8b3c)">
     <use style="fill:#ff9896;stroke:#ff9896;" x="296.398396" xlink:href="#mbbb0c64338" y="114.173426"/>
    </g>
   </g>
   <g id="PathCollection_100">
    <g clip-path="url(#p04118c8b3c)">
     <use style="fill:#ff9896;stroke:#ff9896;" x="301.371658" xlink:href="#mbbb0c64338" y="116.733676"/>
    </g>
   </g>
   <g id="PathCollection_101">
    <g clip-path="url(#p04118c8b3c)">
     <use style="fill:#ff9896;stroke:#ff9896;" x="306.34492" xlink:href="#mbbb0c64338" y="119.317326"/>
    </g>
   </g>
   <g id="PathCollection_102">
    <g clip-path="url(#p04118c8b3c)">
     <use style="fill:#ff9896;stroke:#ff9896;" x="311.318182" xlink:href="#mbbb0c64338" y="122.229224"/>
    </g>
   </g>
   <g id="matplotlib.axis_1"/>
   <g id="matplotlib.axis_2">
    <g id="ytick_1">
     <g id="line2d_1">
      <defs>
       <path d="M 0 0 
L -3.5 0 
" id="m1fb076fd3d" style="stroke:#000000;stroke-width:0.8;"/>
      </defs>
      <g>
       <use style="stroke:#000000;stroke-width:0.8;" x="45" xlink:href="#m1fb076fd3d" y="180.010524"/>
      </g>
     </g>
     <g id="text_1">
      <!-- 0.0 -->
      <g transform="translate(22.096875 183.809743)scale(0.1 -0.1)">
       <defs>
        <path d="M 31.78125 66.40625 
Q 24.171875 66.40625 20.328125 58.90625 
Q 16.5 51.421875 16.5 36.375 
Q 16.5 21.390625 20.328125 13.890625 
Q 24.171875 6.390625 31.78125 6.390625 
Q 39.453125 6.390625 43.28125 13.890625 
Q 47.125 21.390625 47.125 36.375 
Q 47.125 51.421875 43.28125 58.90625 
Q 39.453125 66.40625 31.78125 66.40625 
z
M 31.78125 74.21875 
Q 44.046875 74.21875 50.515625 64.515625 
Q 56.984375 54.828125 56.984375 36.375 
Q 56.984375 17.96875 50.515625 8.265625 
Q 44.046875 -1.421875 31.78125 -1.421875 
Q 19.53125 -1.421875 13.0625 8.265625 
Q 6.59375 17.96875 6.59375 36.375 
Q 6.59375 54.828125 13.0625 64.515625 
Q 19.53125 74.21875 31.78125 74.21875 
z
" id="DejaVuSans-48"/>
        <path d="M 10.6875 12.40625 
L 21 12.40625 
L 21 0 
L 10.6875 0 
z
" id="DejaVuSans-46"/>
       </defs>
       <use xlink:href="#DejaVuSans-48"/>
       <use x="63.623047" xlink:href="#DejaVuSans-46"/>
       <use x="95.410156" xlink:href="#DejaVuSans-48"/>
      </g>
     </g>
    </g>
    <g id="ytick_2">
     <g id="line2d_2">
      <g>
       <use style="stroke:#000000;stroke-width:0.8;" x="45" xlink:href="#m1fb076fd3d" y="153.484971"/>
      </g>
     </g>
     <g id="text_2">
      <!-- 0.1 -->
      <g transform="translate(22.096875 157.28419)scale(0.1 -0.1)">
       <defs>
        <path d="M 12.40625 8.296875 
L 28.515625 8.296875 
L 28.515625 63.921875 
L 10.984375 60.40625 
L 10.984375 69.390625 
L 28.421875 72.90625 
L 38.28125 72.90625 
L 38.28125 8.296875 
L 54.390625 8.296875 
L 54.390625 0 
L 12.40625 0 
z
" id="DejaVuSans-49"/>
       </defs>
       <use xlink:href="#DejaVuSans-48"/>
       <use x="63.623047" xlink:href="#DejaVuSans-46"/>
       <use x="95.410156" xlink:href="#DejaVuSans-49"/>
      </g>
     </g>
    </g>
    <g id="ytick_3">
     <g id="line2d_3">
      <g>
       <use style="stroke:#000000;stroke-width:0.8;" x="45" xlink:href="#m1fb076fd3d" y="126.959418"/>
      </g>
     </g>
     <g id="text_3">
      <!-- 0.2 -->
      <g transform="translate(22.096875 130.758637)scale(0.1 -0.1)">
       <defs>
        <path d="M 19.1875 8.296875 
L 53.609375 8.296875 
L 53.609375 0 
L 7.328125 0 
L 7.328125 8.296875 
Q 12.9375 14.109375 22.625 23.890625 
Q 32.328125 33.6875 34.8125 36.53125 
Q 39.546875 41.84375 41.421875 45.53125 
Q 43.3125 49.21875 43.3125 52.78125 
Q 43.3125 58.59375 39.234375 62.25 
Q 35.15625 65.921875 28.609375 65.921875 
Q 23.96875 65.921875 18.8125 64.3125 
Q 13.671875 62.703125 7.8125 59.421875 
L 7.8125 69.390625 
Q 13.765625 71.78125 18.9375 73 
Q 24.125 74.21875 28.421875 74.21875 
Q 39.75 74.21875 46.484375 68.546875 
Q 53.21875 62.890625 53.21875 53.421875 
Q 53.21875 48.921875 51.53125 44.890625 
Q 49.859375 40.875 45.40625 35.40625 
Q 44.1875 33.984375 37.640625 27.21875 
Q 31.109375 20.453125 19.1875 8.296875 
z
" id="DejaVuSans-50"/>
       </defs>
       <use xlink:href="#DejaVuSans-48"/>
       <use x="63.623047" xlink:href="#DejaVuSans-46"/>
       <use x="95.410156" xlink:href="#DejaVuSans-50"/>
      </g>
     </g>
    </g>
    <g id="ytick_4">
     <g id="line2d_4">
      <g>
       <use style="stroke:#000000;stroke-width:0.8;" x="45" xlink:href="#m1fb076fd3d" y="100.433866"/>
      </g>
     </g>
     <g id="text_4">
      <!-- 0.3 -->
      <g transform="translate(22.096875 104.233084)scale(0.1 -0.1)">
       <defs>
        <path d="M 40.578125 39.3125 
Q 47.65625 37.796875 51.625 33 
Q 55.609375 28.21875 55.609375 21.1875 
Q 55.609375 10.40625 48.1875 4.484375 
Q 40.765625 -1.421875 27.09375 -1.421875 
Q 22.515625 -1.421875 17.65625 -0.515625 
Q 12.796875 0.390625 7.625 2.203125 
L 7.625 11.71875 
Q 11.71875 9.328125 16.59375 8.109375 
Q 21.484375 6.890625 26.8125 6.890625 
Q 36.078125 6.890625 40.9375 10.546875 
Q 45.796875 14.203125 45.796875 21.1875 
Q 45.796875 27.640625 41.28125 31.265625 
Q 36.765625 34.90625 28.71875 34.90625 
L 20.21875 34.90625 
L 20.21875 43.015625 
L 29.109375 43.015625 
Q 36.375 43.015625 40.234375 45.921875 
Q 44.09375 48.828125 44.09375 54.296875 
Q 44.09375 59.90625 40.109375 62.90625 
Q 36.140625 65.921875 28.71875 65.921875 
Q 24.65625 65.921875 20.015625 65.03125 
Q 15.375 64.15625 9.8125 62.3125 
L 9.8125 71.09375 
Q 15.4375 72.65625 20.34375 73.4375 
Q 25.25 74.21875 29.59375 74.21875 
Q 40.828125 74.21875 47.359375 69.109375 
Q 53.90625 64.015625 53.90625 55.328125 
Q 53.90625 49.265625 50.4375 45.09375 
Q 46.96875 40.921875 40.578125 39.3125 
z
" id="DejaVuSans-51"/>
       </defs>
       <use xlink:href="#DejaVuSans-48"/>
       <use x="63.623047" xlink:href="#DejaVuSans-46"/>
       <use x="95.410156" xlink:href="#DejaVuSans-51"/>
      </g>
     </g>
    </g>
    <g id="ytick_5">
     <g id="line2d_5">
      <g>
       <use style="stroke:#000000;stroke-width:0.8;" x="45" xlink:href="#m1fb076fd3d" y="73.908313"/>
      </g>
     </g>
     <g id="text_5">
      <!-- 0.4 -->
      <g transform="translate(22.096875 77.707532)scale(0.1 -0.1)">
       <defs>
        <path d="M 37.796875 64.3125 
L 12.890625 25.390625 
L 37.796875 25.390625 
z
M 35.203125 72.90625 
L 47.609375 72.90625 
L 47.609375 25.390625 
L 58.015625 25.390625 
L 58.015625 17.1875 
L 47.609375 17.1875 
L 47.609375 0 
L 37.796875 0 
L 37.796875 17.1875 
L 4.890625 17.1875 
L 4.890625 26.703125 
z
" id="DejaVuSans-52"/>
       </defs>
       <use xlink:href="#DejaVuSans-48"/>
       <use x="63.623047" xlink:href="#DejaVuSans-46"/>
       <use x="95.410156" xlink:href="#DejaVuSans-52"/>
      </g>
     </g>
    </g>
    <g id="ytick_6">
     <g id="line2d_6">
      <g>
       <use style="stroke:#000000;stroke-width:0.8;" x="45" xlink:href="#m1fb076fd3d" y="47.38276"/>
      </g>
     </g>
     <g id="text_6">
      <!-- 0.5 -->
      <g transform="translate(22.096875 51.181979)scale(0.1 -0.1)">
       <defs>
        <path d="M 10.796875 72.90625 
L 49.515625 72.90625 
L 49.515625 64.59375 
L 19.828125 64.59375 
L 19.828125 46.734375 
Q 21.96875 47.46875 24.109375 47.828125 
Q 26.265625 48.1875 28.421875 48.1875 
Q 40.625 48.1875 47.75 41.5 
Q 54.890625 34.8125 54.890625 23.390625 
Q 54.890625 11.625 47.5625 5.09375 
Q 40.234375 -1.421875 26.90625 -1.421875 
Q 22.3125 -1.421875 17.546875 -0.640625 
Q 12.796875 0.140625 7.71875 1.703125 
L 7.71875 11.625 
Q 12.109375 9.234375 16.796875 8.0625 
Q 21.484375 6.890625 26.703125 6.890625 
Q 35.15625 6.890625 40.078125 11.328125 
Q 45.015625 15.765625 45.015625 23.390625 
Q 45.015625 31 40.078125 35.4375 
Q 35.15625 39.890625 26.703125 39.890625 
Q 22.75 39.890625 18.8125 39.015625 
Q 14.890625 38.140625 10.796875 36.28125 
z
" id="DejaVuSans-53"/>
       </defs>
       <use xlink:href="#DejaVuSans-48"/>
       <use x="63.623047" xlink:href="#DejaVuSans-46"/>
       <use x="95.410156" xlink:href="#DejaVuSans-53"/>
      </g>
     </g>
    </g>
   </g>
   <g id="line2d_7">
    <path clip-path="url(#p04118c8b3c)" d="M 57.681818 180.010524 
L 88.16377 179.899673 
L 92.266711 179.578267 
L 96.535428 179.016799 
L 101.052807 178.195826 
L 105.901738 177.085921 
L 111.165107 175.648161 
L 116.925802 173.839626 
L 123.349599 171.583381 
L 130.622995 168.785778 
L 139.18115 165.245824 
L 149.915107 160.551188 
L 166.699866 152.936372 
L 190.840909 142.021487 
L 204.641711 136.039372 
L 209.179813 134.260409 
L 213.179144 132.937116 
L 217.261364 131.8218 
L 221.509358 130.89261 
L 225.964572 130.147574 
L 230.647727 129.592016 
L 235.600267 129.230799 
L 240.863636 129.072222 
L 246.5 129.127371 
L 252.592246 129.412494 
L 259.243984 129.950337 
L 266.600267 130.772901 
L 274.868316 131.926019 
L 284.462567 133.495333 
L 296.129011 135.63846 
L 311.318182 138.657038 
L 311.318182 138.657038 
" style="fill:none;stroke:#ff9896;stroke-dasharray:11.1,4.8;stroke-dashoffset:0;stroke-width:3;"/>
   </g>
   <g id="line2d_8">
    <path clip-path="url(#p04118c8b3c)" d="M 57.681818 180.010524 
L 86.298797 179.900518 
L 88.764706 179.594798 
L 91.189171 179.068865 
L 93.675802 178.300337 
L 96.286765 177.256983 
L 99.022059 175.921564 
L 101.923128 174.254084 
L 105.010695 172.218099 
L 108.305481 169.774466 
L 111.84893 166.8637 
L 115.682487 163.419297 
L 119.847594 159.369874 
L 124.385695 154.642055 
L 129.462567 149.021583 
L 135.181818 142.345933 
L 141.750668 134.326725 
L 149.811497 124.117022 
L 160.81484 109.794543 
L 188.582219 73.521469 
L 199.088235 60.251898 
L 206.299465 51.454896 
L 209.221257 48.248894 
L 211.956551 45.57445 
L 214.650401 43.247998 
L 217.344251 41.211612 
L 220.058824 39.43574 
L 222.794118 37.909486 
L 225.570856 36.613278 
L 228.389037 35.541707 
L 231.269385 34.683637 
L 234.23262 34.033914 
L 237.278743 33.594861 
L 240.428476 33.366764 
L 243.70254 33.354207 
L 247.121658 33.565422 
L 250.706551 34.011635 
L 254.498663 34.710811 
L 258.518717 35.681563 
L 262.808155 36.949614 
L 267.408422 38.544355 
L 272.402406 40.514422 
L 277.872995 42.915521 
L 283.965241 45.83747 
L 290.886364 49.410038 
L 299.03008 53.872418 
L 309.328877 59.782789 
L 311.318182 60.947031 
L 311.318182 60.947031 
" style="fill:none;stroke:#ff9896;stroke-linecap:square;stroke-width:3;"/>
   </g>
   <g id="patch_3">
    <path d="M 45 189 
L 45 25.92 
" style="fill:none;stroke:#000000;stroke-linecap:square;stroke-linejoin:miter;stroke-width:0.8;"/>
   </g>
   <g id="patch_4">
    <path d="M 324 189 
L 324 25.92 
" style="fill:none;stroke:#000000;stroke-linecap:square;stroke-linejoin:miter;stroke-width:0.8;"/>
   </g>
   <g id="patch_5">
    <path d="M 45 189 
L 324 189 
" style="fill:none;stroke:#000000;stroke-linecap:square;stroke-linejoin:miter;stroke-width:0.8;"/>
   </g>
   <g id="patch_6">
    <path d="M 45 25.92 
L 324 25.92 
" style="fill:none;stroke:#000000;stroke-linecap:square;stroke-linejoin:miter;stroke-width:0.8;"/>
   </g>
  </g>
 </g>
 <defs>
  <clipPath id="p04118c8b3c">
   <rect height="163.08" width="279" x="45" y="25.92"/>
  </clipPath>
 </defs>
</svg>
