<?xml version="1.0" encoding="utf-8" standalone="no"?>
<!DOCTYPE svg PUBLIC "-//W3C//DTD SVG 1.1//EN"
  "http://www.w3.org/Graphics/SVG/1.1/DTD/svg11.dtd">
<!-- Created with matplotlib (https://matplotlib.org/) -->
<svg height="216pt" version="1.1" viewBox="0 0 360 216" width="360pt" xmlns="http://www.w3.org/2000/svg" xmlns:xlink="http://www.w3.org/1999/xlink">
 <metadata>
  <rdf:RDF xmlns:cc="http://creativecommons.org/ns#" xmlns:dc="http://purl.org/dc/elements/1.1/" xmlns:rdf="http://www.w3.org/1999/02/22-rdf-syntax-ns#">
   <cc:Work>
    <dc:type rdf:resource="http://purl.org/dc/dcmitype/StillImage"/>
    <dc:date>2024-12-09T16:07:36.716896</dc:date>
    <dc:format>image/svg+xml</dc:format>
    <dc:creator>
     <cc:Agent>
      <dc:title>Matplotlib v3.3.2, https://matplotlib.org/</dc:title>
     </cc:Agent>
    </dc:creator>
   </cc:Work>
  </rdf:RDF>
 </metadata>
 <defs>
  <style type="text/css">*{stroke-linecap:butt;stroke-linejoin:round;}</style>
 </defs>
 <g id="figure_1">
  <g id="patch_1">
   <path d="M 0 216 
L 360 216 
L 360 0 
L 0 0 
z
" style="fill:none;"/>
  </g>
  <g id="axes_1">
   <g id="patch_2">
    <path d="M 45 189 
L 324 189 
L 324 25.92 
L 45 25.92 
z
" style="fill:#ffffff;"/>
   </g>
   <g id="PathCollection_1">
    <path clip-path="url(#p0cb470728e)" d="M 62.65508 184.75368 
C 63.592715 184.75368 64.492072 184.381154 65.15508 183.718146 
C 65.818088 183.055138 66.190614 182.155781 66.190614 181.218146 
C 66.190614 180.280511 65.818088 179.381154 65.15508 178.718146 
C 64.492072 178.055138 63.592715 177.682612 62.65508 177.682612 
C 61.717446 177.682612 60.818088 178.055138 60.15508 178.718146 
C 59.492072 179.381154 59.119546 180.280511 59.119546 181.218146 
C 59.119546 182.155781 59.492072 183.055138 60.15508 183.718146 
C 60.818088 184.381154 61.717446 184.75368 62.65508 184.75368 
z
" style="fill:none;stroke:#9467bd;"/>
   </g>
   <g id="PathCollection_2">
    <path clip-path="url(#p0cb470728e)" d="M 67.628342 184.903096 
C 68.565977 184.903096 69.465334 184.53057 70.128342 183.867562 
C 70.79135 183.204555 71.163876 182.305197 71.163876 181.367562 
C 71.163876 180.429928 70.79135 179.53057 70.128342 178.867562 
C 69.465334 178.204555 68.565977 177.832029 67.628342 177.832029 
C 66.690708 177.832029 65.79135 178.204555 65.128342 178.867562 
C 64.465334 179.53057 64.092808 180.429928 64.092808 181.367562 
C 64.092808 182.305197 64.465334 183.204555 65.128342 183.867562 
C 65.79135 184.53057 66.690708 184.903096 67.628342 184.903096 
z
" style="fill:none;stroke:#9467bd;"/>
   </g>
   <g id="PathCollection_3">
    <path clip-path="url(#p0cb470728e)" d="M 72.601604 185.122807 
C 73.539239 185.122807 74.438597 184.75028 75.101604 184.087273 
C 75.764612 183.424265 76.137138 182.524907 76.137138 181.587273 
C 76.137138 180.649638 75.764612 179.75028 75.101604 179.087273 
C 74.438597 178.424265 73.539239 178.051739 72.601604 178.051739 
C 71.66397 178.051739 70.764612 178.424265 70.101604 179.087273 
C 69.438597 179.75028 69.06607 180.649638 69.06607 181.587273 
C 69.06607 182.524907 69.438597 183.424265 70.101604 184.087273 
C 70.764612 184.75028 71.66397 185.122807 72.601604 185.122807 
z
" style="fill:none;stroke:#9467bd;"/>
   </g>
   <g id="PathCollection_4">
    <path clip-path="url(#p0cb470728e)" d="M 77.574866 185.098277 
C 78.512501 185.098277 79.411859 184.725751 80.074866 184.062743 
C 80.737874 183.399736 81.1104 182.500378 81.1104 181.562743 
C 81.1104 180.625109 80.737874 179.725751 80.074866 179.062743 
C 79.411859 178.399736 78.512501 178.027209 77.574866 178.027209 
C 76.637232 178.027209 75.737874 178.399736 75.074866 179.062743 
C 74.411859 179.725751 74.039332 180.625109 74.039332 181.562743 
C 74.039332 182.500378 74.411859 183.399736 75.074866 184.062743 
C 75.737874 184.725751 76.637232 185.098277 77.574866 185.098277 
z
" style="fill:none;stroke:#9467bd;"/>
   </g>
   <g id="PathCollection_5">
    <path clip-path="url(#p0cb470728e)" d="M 82.548128 184.613273 
C 83.485763 184.613273 84.385121 184.240747 85.048128 183.577739 
C 85.711136 182.914732 86.083662 182.015374 86.083662 181.077739 
C 86.083662 180.140105 85.711136 179.240747 85.048128 178.577739 
C 84.385121 177.914732 83.485763 177.542206 82.548128 177.542206 
C 81.610494 177.542206 80.711136 177.914732 80.048128 178.577739 
C 79.385121 179.240747 79.012594 180.140105 79.012594 181.077739 
C 79.012594 182.015374 79.385121 182.914732 80.048128 183.577739 
C 80.711136 184.240747 81.610494 184.613273 82.548128 184.613273 
z
" style="fill:none;stroke:#9467bd;"/>
   </g>
   <g id="PathCollection_6">
    <path clip-path="url(#p0cb470728e)" d="M 87.52139 183.533136 
C 88.459025 183.533136 89.358383 183.16061 90.02139 182.497602 
C 90.684398 181.834594 91.056924 180.935237 91.056924 179.997602 
C 91.056924 179.059968 90.684398 178.16061 90.02139 177.497602 
C 89.358383 176.834594 88.459025 176.462068 87.52139 176.462068 
C 86.583756 176.462068 85.684398 176.834594 85.02139 177.497602 
C 84.358383 178.16061 83.985856 179.059968 83.985856 179.997602 
C 83.985856 180.935237 84.358383 181.834594 85.02139 182.497602 
C 85.684398 183.16061 86.583756 183.533136 87.52139 183.533136 
z
" style="fill:none;stroke:#9467bd;"/>
   </g>
   <g id="PathCollection_7">
    <path clip-path="url(#p0cb470728e)" d="M 92.494652 181.789762 
C 93.432287 181.789762 94.331645 181.417236 94.994652 180.754228 
C 95.65766 180.09122 96.030186 179.191862 96.030186 178.254228 
C 96.030186 177.316593 95.65766 176.417236 94.994652 175.754228 
C 94.331645 175.09122 93.432287 174.718694 92.494652 174.718694 
C 91.557018 174.718694 90.65766 175.09122 89.994652 175.754228 
C 89.331645 176.417236 88.959119 177.316593 88.959119 178.254228 
C 88.959119 179.191862 89.331645 180.09122 89.994652 180.754228 
C 90.65766 181.417236 91.557018 181.789762 92.494652 181.789762 
z
" style="fill:none;stroke:#9467bd;"/>
   </g>
   <g id="PathCollection_8">
    <path clip-path="url(#p0cb470728e)" d="M 97.467914 179.368094 
C 98.405549 179.368094 99.304907 178.995568 99.967914 178.33256 
C 100.630922 177.669553 101.003448 176.770195 101.003448 175.83256 
C 101.003448 174.894926 100.630922 173.995568 99.967914 173.33256 
C 99.304907 172.669553 98.405549 172.297027 97.467914 172.297027 
C 96.53028 172.297027 95.630922 172.669553 94.967914 173.33256 
C 94.304907 173.995568 93.932381 174.894926 93.932381 175.83256 
C 93.932381 176.770195 94.304907 177.669553 94.967914 178.33256 
C 95.630922 178.995568 96.53028 179.368094 97.467914 179.368094 
z
" style="fill:none;stroke:#9467bd;"/>
   </g>
   <g id="PathCollection_9">
    <path clip-path="url(#p0cb470728e)" d="M 102.441176 176.294172 
C 103.378811 176.294172 104.278169 175.921646 104.941176 175.258638 
C 105.604184 174.59563 105.97671 173.696272 105.97671 172.758638 
C 105.97671 171.821003 105.604184 170.921646 104.941176 170.258638 
C 104.278169 169.59563 103.378811 169.223104 102.441176 169.223104 
C 101.503542 169.223104 100.604184 169.59563 99.941176 170.258638 
C 99.278169 170.921646 98.905643 171.821003 98.905643 172.758638 
C 98.905643 173.696272 99.278169 174.59563 99.941176 175.258638 
C 100.604184 175.921646 101.503542 176.294172 102.441176 176.294172 
z
" style="fill:none;stroke:#9467bd;"/>
   </g>
   <g id="PathCollection_10">
    <path clip-path="url(#p0cb470728e)" d="M 107.414439 172.624576 
C 108.352073 172.624576 109.251431 172.25205 109.914439 171.589042 
C 110.577446 170.926034 110.949972 170.026676 110.949972 169.089042 
C 110.949972 168.151407 110.577446 167.25205 109.914439 166.589042 
C 109.251431 165.926034 108.352073 165.553508 107.414439 165.553508 
C 106.476804 165.553508 105.577446 165.926034 104.914439 166.589042 
C 104.251431 167.25205 103.878905 168.151407 103.878905 169.089042 
C 103.878905 170.026676 104.251431 170.926034 104.914439 171.589042 
C 105.577446 172.25205 106.476804 172.624576 107.414439 172.624576 
z
" style="fill:none;stroke:#9467bd;"/>
   </g>
   <g id="PathCollection_11">
    <path clip-path="url(#p0cb470728e)" d="M 112.387701 168.437239 
C 113.325335 168.437239 114.224693 168.064713 114.887701 167.401705 
C 115.550708 166.738697 115.923234 165.83934 115.923234 164.901705 
C 115.923234 163.964071 115.550708 163.064713 114.887701 162.401705 
C 114.224693 161.738697 113.325335 161.366171 112.387701 161.366171 
C 111.450066 161.366171 110.550708 161.738697 109.887701 162.401705 
C 109.224693 163.064713 108.852167 163.964071 108.852167 164.901705 
C 108.852167 165.83934 109.224693 166.738697 109.887701 167.401705 
C 110.550708 168.064713 111.450066 168.437239 112.387701 168.437239 
z
" style="fill:none;stroke:#9467bd;"/>
   </g>
   <g id="PathCollection_12">
    <path clip-path="url(#p0cb470728e)" d="M 117.360963 163.823526 
C 118.298597 163.823526 119.197955 163.451 119.860963 162.787992 
C 120.52397 162.124984 120.896496 161.225627 120.896496 160.287992 
C 120.896496 159.350357 120.52397 158.451 119.860963 157.787992 
C 119.197955 157.124984 118.298597 156.752458 117.360963 156.752458 
C 116.423328 156.752458 115.52397 157.124984 114.860963 157.787992 
C 114.197955 158.451 113.825429 159.350357 113.825429 160.287992 
C 113.825429 161.225627 114.197955 162.124984 114.860963 162.787992 
C 115.52397 163.451 116.423328 163.823526 117.360963 163.823526 
z
" style="fill:none;stroke:#9467bd;"/>
   </g>
   <g id="PathCollection_13">
    <path clip-path="url(#p0cb470728e)" d="M 122.334225 158.881514 
C 123.271859 158.881514 124.171217 158.508988 124.834225 157.84598 
C 125.497232 157.182972 125.869759 156.283615 125.869759 155.34598 
C 125.869759 154.408346 125.497232 153.508988 124.834225 152.84598 
C 124.171217 152.182972 123.271859 151.810446 122.334225 151.810446 
C 121.39659 151.810446 120.497232 152.182972 119.834225 152.84598 
C 119.171217 153.508988 118.798691 154.408346 118.798691 155.34598 
C 118.798691 156.283615 119.171217 157.182972 119.834225 157.84598 
C 120.497232 158.508988 121.39659 158.881514 122.334225 158.881514 
z
" style="fill:none;stroke:#9467bd;"/>
   </g>
   <g id="PathCollection_14">
    <path clip-path="url(#p0cb470728e)" d="M 127.307487 153.710399 
C 128.245121 153.710399 129.144479 153.337873 129.807487 152.674865 
C 130.470494 152.011857 130.843021 151.112499 130.843021 150.174865 
C 130.843021 149.23723 130.470494 148.337873 129.807487 147.674865 
C 129.144479 147.011857 128.245121 146.639331 127.307487 146.639331 
C 126.369852 146.639331 125.470494 147.011857 124.807487 147.674865 
C 124.144479 148.337873 123.771953 149.23723 123.771953 150.174865 
C 123.771953 151.112499 124.144479 152.011857 124.807487 152.674865 
C 125.470494 153.337873 126.369852 153.710399 127.307487 153.710399 
z
" style="fill:none;stroke:#9467bd;"/>
   </g>
   <g id="PathCollection_15">
    <path clip-path="url(#p0cb470728e)" d="M 132.280749 148.405948 
C 133.218383 148.405948 134.117741 148.033422 134.780749 147.370414 
C 135.443756 146.707406 135.816283 145.808048 135.816283 144.870414 
C 135.816283 143.932779 135.443756 143.033422 134.780749 142.370414 
C 134.117741 141.707406 133.218383 141.33488 132.280749 141.33488 
C 131.343114 141.33488 130.443756 141.707406 129.780749 142.370414 
C 129.117741 143.033422 128.745215 143.932779 128.745215 144.870414 
C 128.745215 145.808048 129.117741 146.707406 129.780749 147.370414 
C 130.443756 148.033422 131.343114 148.405948 132.280749 148.405948 
z
" style="fill:none;stroke:#9467bd;"/>
   </g>
   <g id="PathCollection_16">
    <path clip-path="url(#p0cb470728e)" d="M 137.254011 143.056924 
C 138.191645 143.056924 139.091003 142.684398 139.754011 142.02139 
C 140.417018 141.358382 140.789545 140.459024 140.789545 139.52139 
C 140.789545 138.583755 140.417018 137.684398 139.754011 137.02139 
C 139.091003 136.358382 138.191645 135.985856 137.254011 135.985856 
C 136.316376 135.985856 135.417018 136.358382 134.754011 137.02139 
C 134.091003 137.684398 133.718477 138.583755 133.718477 139.52139 
C 133.718477 140.459024 134.091003 141.358382 134.754011 142.02139 
C 135.417018 142.684398 136.316376 143.056924 137.254011 143.056924 
z
" style="fill:none;stroke:#9467bd;"/>
   </g>
   <g id="PathCollection_17">
    <path clip-path="url(#p0cb470728e)" d="M 142.227273 137.74241 
C 143.164907 137.74241 144.064265 137.369884 144.727273 136.706876 
C 145.39028 136.043868 145.762807 135.144511 145.762807 134.206876 
C 145.762807 133.269242 145.39028 132.369884 144.727273 131.706876 
C 144.064265 131.043868 143.164907 130.671342 142.227273 130.671342 
C 141.289638 130.671342 140.39028 131.043868 139.727273 131.706876 
C 139.064265 132.369884 138.691739 133.269242 138.691739 134.206876 
C 138.691739 135.144511 139.064265 136.043868 139.727273 136.706876 
C 140.39028 137.369884 141.289638 137.74241 142.227273 137.74241 
z
" style="fill:none;stroke:#9467bd;"/>
   </g>
   <g id="PathCollection_18">
    <path clip-path="url(#p0cb470728e)" d="M 147.200535 132.529953 
C 148.138169 132.529953 149.037527 132.157427 149.700535 131.494419 
C 150.363543 130.831411 150.736069 129.932054 150.736069 128.994419 
C 150.736069 128.056784 150.363543 127.157427 149.700535 126.494419 
C 149.037527 125.831411 148.138169 125.458885 147.200535 125.458885 
C 146.2629 125.458885 145.363543 125.831411 144.700535 126.494419 
C 144.037527 127.157427 143.665001 128.056784 143.665001 128.994419 
C 143.665001 129.932054 144.037527 130.831411 144.700535 131.494419 
C 145.363543 132.157427 146.2629 132.529953 147.200535 132.529953 
z
" style="fill:none;stroke:#9467bd;"/>
   </g>
   <g id="PathCollection_19">
    <path clip-path="url(#p0cb470728e)" d="M 152.173797 127.474449 
C 153.111431 127.474449 154.010789 127.101923 154.673797 126.438915 
C 155.336805 125.775907 155.709331 124.876549 155.709331 123.938915 
C 155.709331 123.00128 155.336805 122.101923 154.673797 121.438915 
C 154.010789 120.775907 153.111431 120.403381 152.173797 120.403381 
C 151.236162 120.403381 150.336805 120.775907 149.673797 121.438915 
C 149.010789 122.101923 148.638263 123.00128 148.638263 123.938915 
C 148.638263 124.876549 149.010789 125.775907 149.673797 126.438915 
C 150.336805 127.101923 151.236162 127.474449 152.173797 127.474449 
z
" style="fill:none;stroke:#9467bd;"/>
   </g>
   <g id="PathCollection_20">
    <path clip-path="url(#p0cb470728e)" d="M 157.147059 122.617704 
C 158.084693 122.617704 158.984051 122.245178 159.647059 121.58217 
C 160.310067 120.919163 160.682593 120.019805 160.682593 119.08217 
C 160.682593 118.144536 160.310067 117.245178 159.647059 116.58217 
C 158.984051 115.919163 158.084693 115.546637 157.147059 115.546637 
C 156.209424 115.546637 155.310067 115.919163 154.647059 116.58217 
C 153.984051 117.245178 153.611525 118.144536 153.611525 119.08217 
C 153.611525 120.019805 153.984051 120.919163 154.647059 121.58217 
C 155.310067 122.245178 156.209424 122.617704 157.147059 122.617704 
z
" style="fill:none;stroke:#9467bd;"/>
   </g>
   <g id="PathCollection_21">
    <path clip-path="url(#p0cb470728e)" d="M 162.120321 117.98859 
C 163.057955 117.98859 163.957313 117.616064 164.620321 116.953056 
C 165.283329 116.290048 165.655855 115.390691 165.655855 114.453056 
C 165.655855 113.515421 165.283329 112.616064 164.620321 111.953056 
C 163.957313 111.290048 163.057955 110.917522 162.120321 110.917522 
C 161.182686 110.917522 160.283329 111.290048 159.620321 111.953056 
C 158.957313 112.616064 158.584787 113.515421 158.584787 114.453056 
C 158.584787 115.390691 158.957313 116.290048 159.620321 116.953056 
C 160.283329 117.616064 161.182686 117.98859 162.120321 117.98859 
z
" style="fill:none;stroke:#9467bd;"/>
   </g>
   <g id="PathCollection_22">
    <path clip-path="url(#p0cb470728e)" d="M 167.093583 113.603706 
C 168.031217 113.603706 168.930575 113.23118 169.593583 112.568172 
C 170.256591 111.905164 170.629117 111.005807 170.629117 110.068172 
C 170.629117 109.130537 170.256591 108.23118 169.593583 107.568172 
C 168.930575 106.905164 168.031217 106.532638 167.093583 106.532638 
C 166.155948 106.532638 165.256591 106.905164 164.593583 107.568172 
C 163.930575 108.23118 163.558049 109.130537 163.558049 110.068172 
C 163.558049 111.005807 163.930575 111.905164 164.593583 112.568172 
C 165.256591 113.23118 166.155948 113.603706 167.093583 113.603706 
z
" style="fill:none;stroke:#9467bd;"/>
   </g>
   <g id="PathCollection_23">
    <path clip-path="url(#p0cb470728e)" d="M 172.066845 109.4685 
C 173.004479 109.4685 173.903837 109.095974 174.566845 108.432966 
C 175.229853 107.769958 175.602379 106.8706 175.602379 105.932966 
C 175.602379 104.995331 175.229853 104.095974 174.566845 103.432966 
C 173.903837 102.769958 173.004479 102.397432 172.066845 102.397432 
C 171.12921 102.397432 170.229853 102.769958 169.566845 103.432966 
C 168.903837 104.095974 168.531311 104.995331 168.531311 105.932966 
C 168.531311 106.8706 168.903837 107.769958 169.566845 108.432966 
C 170.229853 109.095974 171.12921 109.4685 172.066845 109.4685 
z
" style="fill:none;stroke:#9467bd;"/>
   </g>
   <g id="PathCollection_24">
    <path clip-path="url(#p0cb470728e)" d="M 177.040107 105.578743 
C 177.977742 105.578743 178.877099 105.206217 179.540107 104.543209 
C 180.203115 103.880201 180.575641 102.980844 180.575641 102.043209 
C 180.575641 101.105574 180.203115 100.206217 179.540107 99.543209 
C 178.877099 98.880201 177.977742 98.507675 177.040107 98.507675 
C 176.102472 98.507675 175.203115 98.880201 174.540107 99.543209 
C 173.877099 100.206217 173.504573 101.105574 173.504573 102.043209 
C 173.504573 102.980844 173.877099 103.880201 174.540107 104.543209 
C 175.203115 105.206217 176.102472 105.578743 177.040107 105.578743 
z
" style="fill:none;stroke:#9467bd;"/>
   </g>
   <g id="PathCollection_25">
    <path clip-path="url(#p0cb470728e)" d="M 182.013369 101.922303 
C 182.951004 101.922303 183.850361 101.549776 184.513369 100.886769 
C 185.176377 100.223761 185.548903 99.324403 185.548903 98.386769 
C 185.548903 97.449134 185.176377 96.549776 184.513369 95.886769 
C 183.850361 95.223761 182.951004 94.851235 182.013369 94.851235 
C 181.075734 94.851235 180.176377 95.223761 179.513369 95.886769 
C 178.850361 96.549776 178.477835 97.449134 178.477835 98.386769 
C 178.477835 99.324403 178.850361 100.223761 179.513369 100.886769 
C 180.176377 101.549776 181.075734 101.922303 182.013369 101.922303 
z
" style="fill:none;stroke:#9467bd;"/>
   </g>
   <g id="PathCollection_26">
    <path clip-path="url(#p0cb470728e)" d="M 186.986631 98.481127 
C 187.924266 98.481127 188.823623 98.108601 189.486631 97.445593 
C 190.149639 96.782585 190.522165 95.883227 190.522165 94.945593 
C 190.522165 94.007958 190.149639 93.108601 189.486631 92.445593 
C 188.823623 91.782585 187.924266 91.410059 186.986631 91.410059 
C 186.048996 91.410059 185.149639 91.782585 184.486631 92.445593 
C 183.823623 93.108601 183.451097 94.007958 183.451097 94.945593 
C 183.451097 95.883227 183.823623 96.782585 184.486631 97.445593 
C 185.149639 98.108601 186.048996 98.481127 186.986631 98.481127 
z
" style="fill:none;stroke:#9467bd;"/>
   </g>
   <g id="PathCollection_27">
    <path clip-path="url(#p0cb470728e)" d="M 191.959893 95.23337 
C 192.897528 95.23337 193.796885 94.860844 194.459893 94.197836 
C 195.122901 93.534828 195.495427 92.635471 195.495427 91.697836 
C 195.495427 90.760201 195.122901 89.860844 194.459893 89.197836 
C 193.796885 88.534828 192.897528 88.162302 191.959893 88.162302 
C 191.022258 88.162302 190.122901 88.534828 189.459893 89.197836 
C 188.796885 89.860844 188.424359 90.760201 188.424359 91.697836 
C 188.424359 92.635471 188.796885 93.534828 189.459893 94.197836 
C 190.122901 94.860844 191.022258 95.23337 191.959893 95.23337 
z
" style="fill:none;stroke:#9467bd;"/>
   </g>
   <g id="PathCollection_28">
    <path clip-path="url(#p0cb470728e)" d="M 196.933155 92.155582 
C 197.87079 92.155582 198.770147 91.783056 199.433155 91.120048 
C 200.096163 90.45704 200.468689 89.557682 200.468689 88.620048 
C 200.468689 87.682413 200.096163 86.783056 199.433155 86.120048 
C 198.770147 85.45704 197.87079 85.084514 196.933155 85.084514 
C 195.995521 85.084514 195.096163 85.45704 194.433155 86.120048 
C 193.770147 86.783056 193.397621 87.682413 193.397621 88.620048 
C 193.397621 89.557682 193.770147 90.45704 194.433155 91.120048 
C 195.096163 91.783056 195.995521 92.155582 196.933155 92.155582 
z
" style="fill:none;stroke:#9467bd;"/>
   </g>
   <g id="PathCollection_29">
    <path clip-path="url(#p0cb470728e)" d="M 201.906417 89.224886 
C 202.844052 89.224886 203.743409 88.85236 204.406417 88.189352 
C 205.069425 87.526344 205.441951 86.626986 205.441951 85.689352 
C 205.441951 84.751717 205.069425 83.85236 204.406417 83.189352 
C 203.743409 82.526344 202.844052 82.153818 201.906417 82.153818 
C 200.968783 82.153818 200.069425 82.526344 199.406417 83.189352 
C 198.743409 83.85236 198.370883 84.751717 198.370883 85.689352 
C 198.370883 86.626986 198.743409 87.526344 199.406417 88.189352 
C 200.069425 88.85236 200.968783 89.224886 201.906417 89.224886 
z
" style="fill:none;stroke:#9467bd;"/>
   </g>
   <g id="PathCollection_30">
    <path clip-path="url(#p0cb470728e)" d="M 206.879679 86.421067 
C 207.817314 86.421067 208.716671 86.048541 209.379679 85.385533 
C 210.042687 84.722525 210.415213 83.823167 210.415213 82.885533 
C 210.415213 81.947898 210.042687 81.048541 209.379679 80.385533 
C 208.716671 79.722525 207.817314 79.349999 206.879679 79.349999 
C 205.942045 79.349999 205.042687 79.722525 204.379679 80.385533 
C 203.716671 81.048541 203.344145 81.947898 203.344145 82.885533 
C 203.344145 83.823167 203.716671 84.722525 204.379679 85.385533 
C 205.042687 86.048541 205.942045 86.421067 206.879679 86.421067 
z
" style="fill:none;stroke:#9467bd;"/>
   </g>
   <g id="PathCollection_31">
    <path clip-path="url(#p0cb470728e)" d="M 211.852941 83.728499 
C 212.790576 83.728499 213.689933 83.355972 214.352941 82.692965 
C 215.015949 82.029957 215.388475 81.130599 215.388475 80.192965 
C 215.388475 79.25533 215.015949 78.355972 214.352941 77.692965 
C 213.689933 77.029957 212.790576 76.657431 211.852941 76.657431 
C 210.915307 76.657431 210.015949 77.029957 209.352941 77.692965 
C 208.689933 78.355972 208.317407 79.25533 208.317407 80.192965 
C 208.317407 81.130599 208.689933 82.029957 209.352941 82.692965 
C 210.015949 83.355972 210.915307 83.728499 211.852941 83.728499 
z
" style="fill:none;stroke:#9467bd;"/>
   </g>
   <g id="PathCollection_32">
    <path clip-path="url(#p0cb470728e)" d="M 216.826203 81.137831 
C 217.763838 81.137831 218.663195 80.765305 219.326203 80.102297 
C 219.989211 79.43929 220.361737 78.539932 220.361737 77.602297 
C 220.361737 76.664663 219.989211 75.765305 219.326203 75.102297 
C 218.663195 74.43929 217.763838 74.066764 216.826203 74.066764 
C 215.888569 74.066764 214.989211 74.43929 214.326203 75.102297 
C 213.663195 75.765305 213.290669 76.664663 213.290669 77.602297 
C 213.290669 78.539932 213.663195 79.43929 214.326203 80.102297 
C 214.989211 80.765305 215.888569 81.137831 216.826203 81.137831 
z
" style="fill:none;stroke:#9467bd;"/>
   </g>
   <g id="PathCollection_33">
    <path clip-path="url(#p0cb470728e)" d="M 221.799465 78.647364 
C 222.7371 78.647364 223.636457 78.274838 224.299465 77.61183 
C 224.962473 76.948822 225.334999 76.049464 225.334999 75.11183 
C 225.334999 74.174195 224.962473 73.274838 224.299465 72.61183 
C 223.636457 71.948822 222.7371 71.576296 221.799465 71.576296 
C 220.861831 71.576296 219.962473 71.948822 219.299465 72.61183 
C 218.636457 73.274838 218.263931 74.174195 218.263931 75.11183 
C 218.263931 76.049464 218.636457 76.948822 219.299465 77.61183 
C 219.962473 78.274838 220.861831 78.647364 221.799465 78.647364 
z
" style="fill:none;stroke:#9467bd;"/>
   </g>
   <g id="PathCollection_34">
    <path clip-path="url(#p0cb470728e)" d="M 226.772727 76.264024 
C 227.710362 76.264024 228.60972 75.891497 229.272727 75.22849 
C 229.935735 74.565482 230.308261 73.666124 230.308261 72.72849 
C 230.308261 71.790855 229.935735 70.891497 229.272727 70.22849 
C 228.60972 69.565482 227.710362 69.192956 226.772727 69.192956 
C 225.835093 69.192956 224.935735 69.565482 224.272727 70.22849 
C 223.60972 70.891497 223.237193 71.790855 223.237193 72.72849 
C 223.237193 73.666124 223.60972 74.565482 224.272727 75.22849 
C 224.935735 75.891497 225.835093 76.264024 226.772727 76.264024 
z
" style="fill:none;stroke:#9467bd;"/>
   </g>
   <g id="PathCollection_35">
    <path clip-path="url(#p0cb470728e)" d="M 231.745989 74.003886 
C 232.683624 74.003886 233.582982 73.63136 234.245989 72.968352 
C 234.908997 72.305345 235.281523 71.405987 235.281523 70.468352 
C 235.281523 69.530718 234.908997 68.63136 234.245989 67.968352 
C 233.582982 67.305345 232.683624 66.932818 231.745989 66.932818 
C 230.808355 66.932818 229.908997 67.305345 229.245989 67.968352 
C 228.582982 68.63136 228.210455 69.530718 228.210455 70.468352 
C 228.210455 71.405987 228.582982 72.305345 229.245989 72.968352 
C 229.908997 73.63136 230.808355 74.003886 231.745989 74.003886 
z
" style="fill:none;stroke:#9467bd;"/>
   </g>
   <g id="PathCollection_36">
    <path clip-path="url(#p0cb470728e)" d="M 236.719251 71.892145 
C 237.656886 71.892145 238.556244 71.519619 239.219251 70.856611 
C 239.882259 70.193603 240.254785 69.294246 240.254785 68.356611 
C 240.254785 67.418977 239.882259 66.519619 239.219251 65.856611 
C 238.556244 65.193603 237.656886 64.821077 236.719251 64.821077 
C 235.781617 64.821077 234.882259 65.193603 234.219251 65.856611 
C 233.556244 66.519619 233.183717 67.418977 233.183717 68.356611 
C 233.183717 69.294246 233.556244 70.193603 234.219251 70.856611 
C 234.882259 71.519619 235.781617 71.892145 236.719251 71.892145 
z
" style="fill:none;stroke:#9467bd;"/>
   </g>
   <g id="PathCollection_37">
    <path clip-path="url(#p0cb470728e)" d="M 241.692513 69.962471 
C 242.630148 69.962471 243.529506 69.589945 244.192513 68.926937 
C 244.855521 68.263929 245.228047 67.364572 245.228047 66.426937 
C 245.228047 65.489303 244.855521 64.589945 244.192513 63.926937 
C 243.529506 63.263929 242.630148 62.891403 241.692513 62.891403 
C 240.754879 62.891403 239.855521 63.263929 239.192513 63.926937 
C 238.529506 64.589945 238.156979 65.489303 238.156979 66.426937 
C 238.156979 67.364572 238.529506 68.263929 239.192513 68.926937 
C 239.855521 69.589945 240.754879 69.962471 241.692513 69.962471 
z
" style="fill:none;stroke:#9467bd;"/>
   </g>
   <g id="PathCollection_38">
    <path clip-path="url(#p0cb470728e)" d="M 246.665775 68.255673 
C 247.60341 68.255673 248.502768 67.883147 249.165775 67.220139 
C 249.828783 66.557131 250.201309 65.657774 250.201309 64.720139 
C 250.201309 63.782504 249.828783 62.883147 249.165775 62.220139 
C 248.502768 61.557131 247.60341 61.184605 246.665775 61.184605 
C 245.728141 61.184605 244.828783 61.557131 244.165775 62.220139 
C 243.502768 62.883147 243.130241 63.782504 243.130241 64.720139 
C 243.130241 65.657774 243.502768 66.557131 244.165775 67.220139 
C 244.828783 67.883147 245.728141 68.255673 246.665775 68.255673 
z
" style="fill:none;stroke:#9467bd;"/>
   </g>
   <g id="PathCollection_39">
    <path clip-path="url(#p0cb470728e)" d="M 251.639037 66.817591 
C 252.576672 66.817591 253.47603 66.445065 254.139037 65.782057 
C 254.802045 65.119049 255.174571 64.219692 255.174571 63.282057 
C 255.174571 62.344422 254.802045 61.445065 254.139037 60.782057 
C 253.47603 60.119049 252.576672 59.746523 251.639037 59.746523 
C 250.701403 59.746523 249.802045 60.119049 249.139037 60.782057 
C 248.47603 61.445065 248.103504 62.344422 248.103504 63.282057 
C 248.103504 64.219692 248.47603 65.119049 249.139037 65.782057 
C 249.802045 66.445065 250.701403 66.817591 251.639037 66.817591 
z
" style="fill:none;stroke:#9467bd;"/>
   </g>
   <g id="PathCollection_40">
    <path clip-path="url(#p0cb470728e)" d="M 256.612299 65.696147 
C 257.549934 65.696147 258.449292 65.323621 259.112299 64.660614 
C 259.775307 63.997606 260.147833 63.098248 260.147833 62.160614 
C 260.147833 61.222979 259.775307 60.323621 259.112299 59.660614 
C 258.449292 58.997606 257.549934 58.62508 256.612299 58.62508 
C 255.674665 58.62508 254.775307 58.997606 254.112299 59.660614 
C 253.449292 60.323621 253.076766 61.222979 253.076766 62.160614 
C 253.076766 63.098248 253.449292 63.997606 254.112299 64.660614 
C 254.775307 65.323621 255.674665 65.696147 256.612299 65.696147 
z
" style="fill:none;stroke:#9467bd;"/>
   </g>
   <g id="PathCollection_41">
    <path clip-path="url(#p0cb470728e)" d="M 261.585561 64.937473 
C 262.523196 64.937473 263.422554 64.564947 264.085561 63.901939 
C 264.748569 63.238931 265.121095 62.339574 265.121095 61.401939 
C 265.121095 60.464304 264.748569 59.564947 264.085561 58.901939 
C 263.422554 58.238931 262.523196 57.866405 261.585561 57.866405 
C 260.647927 57.866405 259.748569 58.238931 259.085561 58.901939 
C 258.422554 59.564947 258.050028 60.464304 258.050028 61.401939 
C 258.050028 62.339574 258.422554 63.238931 259.085561 63.901939 
C 259.748569 64.564947 260.647927 64.937473 261.585561 64.937473 
z
" style="fill:none;stroke:#9467bd;"/>
   </g>
   <g id="PathCollection_42">
    <path clip-path="url(#p0cb470728e)" d="M 266.558824 64.581039 
C 267.496458 64.581039 268.395816 64.208513 269.058824 63.545505 
C 269.721831 62.882497 270.094357 61.983139 270.094357 61.045505 
C 270.094357 60.10787 269.721831 59.208513 269.058824 58.545505 
C 268.395816 57.882497 267.496458 57.509971 266.558824 57.509971 
C 265.621189 57.509971 264.721831 57.882497 264.058824 58.545505 
C 263.395816 59.208513 263.02329 60.10787 263.02329 61.045505 
C 263.02329 61.983139 263.395816 62.882497 264.058824 63.545505 
C 264.721831 64.208513 265.621189 64.581039 266.558824 64.581039 
z
" style="fill:none;stroke:#9467bd;"/>
   </g>
   <g id="PathCollection_43">
    <path clip-path="url(#p0cb470728e)" d="M 271.532086 64.653718 
C 272.46972 64.653718 273.369078 64.281192 274.032086 63.618185 
C 274.695093 62.955177 275.067619 62.055819 275.067619 61.118185 
C 275.067619 60.18055 274.695093 59.281192 274.032086 58.618185 
C 273.369078 57.955177 272.46972 57.582651 271.532086 57.582651 
C 270.594451 57.582651 269.695093 57.955177 269.032086 58.618185 
C 268.369078 59.281192 267.996552 60.18055 267.996552 61.118185 
C 267.996552 62.055819 268.369078 62.955177 269.032086 63.618185 
C 269.695093 64.281192 270.594451 64.653718 271.532086 64.653718 
z
" style="fill:none;stroke:#9467bd;"/>
   </g>
   <g id="PathCollection_44">
    <path clip-path="url(#p0cb470728e)" d="M 276.505348 65.162697 
C 277.442982 65.162697 278.34234 64.790171 279.005348 64.127163 
C 279.668355 63.464155 280.040881 62.564798 280.040881 61.627163 
C 280.040881 60.689529 279.668355 59.790171 279.005348 59.127163 
C 278.34234 58.464155 277.442982 58.091629 276.505348 58.091629 
C 275.567713 58.091629 274.668355 58.464155 274.005348 59.127163 
C 273.34234 59.790171 272.969814 60.689529 272.969814 61.627163 
C 272.969814 62.564798 273.34234 63.464155 274.005348 64.127163 
C 274.668355 64.790171 275.567713 65.162697 276.505348 65.162697 
z
" style="fill:none;stroke:#9467bd;"/>
   </g>
   <g id="PathCollection_45">
    <path clip-path="url(#p0cb470728e)" d="M 281.47861 66.087162 
C 282.416244 66.087162 283.315602 65.714636 283.97861 65.051629 
C 284.641617 64.388621 285.014144 63.489263 285.014144 62.551629 
C 285.014144 61.613994 284.641617 60.714636 283.97861 60.051629 
C 283.315602 59.388621 282.416244 59.016095 281.47861 59.016095 
C 280.540975 59.016095 279.641617 59.388621 278.97861 60.051629 
C 278.315602 60.714636 277.943076 61.613994 277.943076 62.551629 
C 277.943076 63.489263 278.315602 64.388621 278.97861 65.051629 
C 279.641617 65.714636 280.540975 66.087162 281.47861 66.087162 
z
" style="fill:none;stroke:#9467bd;"/>
   </g>
   <g id="PathCollection_46">
    <path clip-path="url(#p0cb470728e)" d="M 286.451872 67.368694 
C 287.389506 67.368694 288.288864 66.996168 288.951872 66.33316 
C 289.614879 65.670152 289.987406 64.770795 289.987406 63.83316 
C 289.987406 62.895525 289.614879 61.996168 288.951872 61.33316 
C 288.288864 60.670152 287.389506 60.297626 286.451872 60.297626 
C 285.514237 60.297626 284.614879 60.670152 283.951872 61.33316 
C 283.288864 61.996168 282.916338 62.895525 282.916338 63.83316 
C 282.916338 64.770795 283.288864 65.670152 283.951872 66.33316 
C 284.614879 66.996168 285.514237 67.368694 286.451872 67.368694 
z
" style="fill:none;stroke:#9467bd;"/>
   </g>
   <g id="PathCollection_47">
    <path clip-path="url(#p0cb470728e)" d="M 291.425134 68.900277 
C 292.362768 68.900277 293.262126 68.52775 293.925134 67.864743 
C 294.588141 67.201735 294.960668 66.302377 294.960668 65.364743 
C 294.960668 64.427108 294.588141 63.52775 293.925134 62.864743 
C 293.262126 62.201735 292.362768 61.829209 291.425134 61.829209 
C 290.487499 61.829209 289.588141 62.201735 288.925134 62.864743 
C 288.262126 63.52775 287.8896 64.427108 287.8896 65.364743 
C 287.8896 66.302377 288.262126 67.201735 288.925134 67.864743 
C 289.588141 68.52775 290.487499 68.900277 291.425134 68.900277 
z
" style="fill:none;stroke:#9467bd;"/>
   </g>
   <g id="PathCollection_48">
    <path clip-path="url(#p0cb470728e)" d="M 296.398396 70.513865 
C 297.33603 70.513865 298.235388 70.141339 298.898396 69.478332 
C 299.561403 68.815324 299.93393 67.915966 299.93393 66.978332 
C 299.93393 66.040697 299.561403 65.141339 298.898396 64.478332 
C 298.235388 63.815324 297.33603 63.442798 296.398396 63.442798 
C 295.460761 63.442798 294.561403 63.815324 293.898396 64.478332 
C 293.235388 65.141339 292.862862 66.040697 292.862862 66.978332 
C 292.862862 67.915966 293.235388 68.815324 293.898396 69.478332 
C 294.561403 70.141339 295.460761 70.513865 296.398396 70.513865 
z
" style="fill:none;stroke:#9467bd;"/>
   </g>
   <g id="PathCollection_49">
    <path clip-path="url(#p0cb470728e)" d="M 301.371658 71.966425 
C 302.309292 71.966425 303.20865 71.593899 303.871658 70.930891 
C 304.534666 70.267883 304.907192 69.368526 304.907192 68.430891 
C 304.907192 67.493256 304.534666 66.593899 303.871658 65.930891 
C 303.20865 65.267883 302.309292 64.895357 301.371658 64.895357 
C 300.434023 64.895357 299.534666 65.267883 298.871658 65.930891 
C 298.20865 66.593899 297.836124 67.493256 297.836124 68.430891 
C 297.836124 69.368526 298.20865 70.267883 298.871658 70.930891 
C 299.534666 71.593899 300.434023 71.966425 301.371658 71.966425 
z
" style="fill:none;stroke:#9467bd;"/>
   </g>
   <g id="PathCollection_50">
    <path clip-path="url(#p0cb470728e)" d="M 306.34492 72.924362 
C 307.282554 72.924362 308.181912 72.551836 308.84492 71.888828 
C 309.507928 71.22582 309.880454 70.326462 309.880454 69.388828 
C 309.880454 68.451193 309.507928 67.551836 308.84492 66.888828 
C 308.181912 66.22582 307.282554 65.853294 306.34492 65.853294 
C 305.407285 65.853294 304.507928 66.22582 303.84492 66.888828 
C 303.181912 67.551836 302.809386 68.451193 302.809386 69.388828 
C 302.809386 70.326462 303.181912 71.22582 303.84492 71.888828 
C 304.507928 72.551836 305.407285 72.924362 306.34492 72.924362 
z
" style="fill:none;stroke:#9467bd;"/>
   </g>
   <g id="PathCollection_51">
    <path clip-path="url(#p0cb470728e)" d="M 311.318182 72.946285 
C 312.255816 72.946285 313.155174 72.573759 313.818182 71.910751 
C 314.48119 71.247744 314.853716 70.348386 314.853716 69.410751 
C 314.853716 68.473117 314.48119 67.573759 313.818182 66.910751 
C 313.155174 66.247744 312.255816 65.875217 311.318182 65.875217 
C 310.380547 65.875217 309.48119 66.247744 308.818182 66.910751 
C 308.155174 67.573759 307.782648 68.473117 307.782648 69.410751 
C 307.782648 70.348386 308.155174 71.247744 308.818182 71.910751 
C 309.48119 72.573759 310.380547 72.946285 311.318182 72.946285 
z
" style="fill:none;stroke:#9467bd;"/>
   </g>
   <g id="PathCollection_52">
    <defs>
     <path d="M 0 3.535534 
C 0.937635 3.535534 1.836992 3.163008 2.5 2.5 
C 3.163008 1.836992 3.535534 0.937635 3.535534 0 
C 3.535534 -0.937635 3.163008 -1.836992 2.5 -2.5 
C 1.836992 -3.163008 0.937635 -3.535534 0 -3.535534 
C -0.937635 -3.535534 -1.836992 -3.163008 -2.5 -2.5 
C -3.163008 -1.836992 -3.535534 -0.937635 -3.535534 0 
C -3.535534 0.937635 -3.163008 1.836992 -2.5 2.5 
C -1.836992 3.163008 -0.937635 3.535534 0 3.535534 
z
" id="m56b461592c" style="stroke:#9467bd;"/>
    </defs>
    <g clip-path="url(#p0cb470728e)">
     <use style="fill:#9467bd;stroke:#9467bd;" x="62.65508" xlink:href="#m56b461592c" y="179.267128"/>
    </g>
   </g>
   <g id="PathCollection_53">
    <g clip-path="url(#p0cb470728e)">
     <use style="fill:#9467bd;stroke:#9467bd;" x="67.628342" xlink:href="#m56b461592c" y="179.608814"/>
    </g>
   </g>
   <g id="PathCollection_54">
    <g clip-path="url(#p0cb470728e)">
     <use style="fill:#9467bd;stroke:#9467bd;" x="72.601604" xlink:href="#m56b461592c" y="178.910103"/>
    </g>
   </g>
   <g id="PathCollection_55">
    <g clip-path="url(#p0cb470728e)">
     <use style="fill:#9467bd;stroke:#9467bd;" x="77.574866" xlink:href="#m56b461592c" y="177.31136"/>
    </g>
   </g>
   <g id="PathCollection_56">
    <g clip-path="url(#p0cb470728e)">
     <use style="fill:#9467bd;stroke:#9467bd;" x="82.548128" xlink:href="#m56b461592c" y="174.919057"/>
    </g>
   </g>
   <g id="PathCollection_57">
    <g clip-path="url(#p0cb470728e)">
     <use style="fill:#9467bd;stroke:#9467bd;" x="87.52139" xlink:href="#m56b461592c" y="171.840899"/>
    </g>
   </g>
   <g id="PathCollection_58">
    <g clip-path="url(#p0cb470728e)">
     <use style="fill:#9467bd;stroke:#9467bd;" x="92.494652" xlink:href="#m56b461592c" y="168.133496"/>
    </g>
   </g>
   <g id="PathCollection_59">
    <g clip-path="url(#p0cb470728e)">
     <use style="fill:#9467bd;stroke:#9467bd;" x="97.467914" xlink:href="#m56b461592c" y="163.864797"/>
    </g>
   </g>
   <g id="PathCollection_60">
    <g clip-path="url(#p0cb470728e)">
     <use style="fill:#9467bd;stroke:#9467bd;" x="102.441176" xlink:href="#m56b461592c" y="159.089161"/>
    </g>
   </g>
   <g id="PathCollection_61">
    <g clip-path="url(#p0cb470728e)">
     <use style="fill:#9467bd;stroke:#9467bd;" x="107.414439" xlink:href="#m56b461592c" y="153.856414"/>
    </g>
   </g>
   <g id="PathCollection_62">
    <g clip-path="url(#p0cb470728e)">
     <use style="fill:#9467bd;stroke:#9467bd;" x="112.387701" xlink:href="#m56b461592c" y="148.214486"/>
    </g>
   </g>
   <g id="PathCollection_63">
    <g clip-path="url(#p0cb470728e)">
     <use style="fill:#9467bd;stroke:#9467bd;" x="117.360963" xlink:href="#m56b461592c" y="142.211485"/>
    </g>
   </g>
   <g id="PathCollection_64">
    <g clip-path="url(#p0cb470728e)">
     <use style="fill:#9467bd;stroke:#9467bd;" x="122.334225" xlink:href="#m56b461592c" y="135.897208"/>
    </g>
   </g>
   <g id="PathCollection_65">
    <g clip-path="url(#p0cb470728e)">
     <use style="fill:#9467bd;stroke:#9467bd;" x="127.307487" xlink:href="#m56b461592c" y="129.324171"/>
    </g>
   </g>
   <g id="PathCollection_66">
    <g clip-path="url(#p0cb470728e)">
     <use style="fill:#9467bd;stroke:#9467bd;" x="132.280749" xlink:href="#m56b461592c" y="122.548181"/>
    </g>
   </g>
   <g id="PathCollection_67">
    <g clip-path="url(#p0cb470728e)">
     <use style="fill:#9467bd;stroke:#9467bd;" x="137.254011" xlink:href="#m56b461592c" y="115.628505"/>
    </g>
   </g>
   <g id="PathCollection_68">
    <g clip-path="url(#p0cb470728e)">
     <use style="fill:#9467bd;stroke:#9467bd;" x="142.227273" xlink:href="#m56b461592c" y="108.627668"/>
    </g>
   </g>
   <g id="PathCollection_69">
    <g clip-path="url(#p0cb470728e)">
     <use style="fill:#9467bd;stroke:#9467bd;" x="147.200535" xlink:href="#m56b461592c" y="101.610952"/>
    </g>
   </g>
   <g id="PathCollection_70">
    <g clip-path="url(#p0cb470728e)">
     <use style="fill:#9467bd;stroke:#9467bd;" x="152.173797" xlink:href="#m56b461592c" y="94.645598"/>
    </g>
   </g>
   <g id="PathCollection_71">
    <g clip-path="url(#p0cb470728e)">
     <use style="fill:#9467bd;stroke:#9467bd;" x="157.147059" xlink:href="#m56b461592c" y="87.799805"/>
    </g>
   </g>
   <g id="PathCollection_72">
    <g clip-path="url(#p0cb470728e)">
     <use style="fill:#9467bd;stroke:#9467bd;" x="162.120321" xlink:href="#m56b461592c" y="81.141524"/>
    </g>
   </g>
   <g id="PathCollection_73">
    <g clip-path="url(#p0cb470728e)">
     <use style="fill:#9467bd;stroke:#9467bd;" x="167.093583" xlink:href="#m56b461592c" y="74.737131"/>
    </g>
   </g>
   <g id="PathCollection_74">
    <g clip-path="url(#p0cb470728e)">
     <use style="fill:#9467bd;stroke:#9467bd;" x="172.066845" xlink:href="#m56b461592c" y="68.649993"/>
    </g>
   </g>
   <g id="PathCollection_75">
    <g clip-path="url(#p0cb470728e)">
     <use style="fill:#9467bd;stroke:#9467bd;" x="177.040107" xlink:href="#m56b461592c" y="62.938994"/>
    </g>
   </g>
   <g id="PathCollection_76">
    <g clip-path="url(#p0cb470728e)">
     <use style="fill:#9467bd;stroke:#9467bd;" x="182.013369" xlink:href="#m56b461592c" y="57.65705"/>
    </g>
   </g>
   <g id="PathCollection_77">
    <g clip-path="url(#p0cb470728e)">
     <use style="fill:#9467bd;stroke:#9467bd;" x="186.986631" xlink:href="#m56b461592c" y="52.849669"/>
    </g>
   </g>
   <g id="PathCollection_78">
    <g clip-path="url(#p0cb470728e)">
     <use style="fill:#9467bd;stroke:#9467bd;" x="191.959893" xlink:href="#m56b461592c" y="48.553594"/>
    </g>
   </g>
   <g id="PathCollection_79">
    <g clip-path="url(#p0cb470728e)">
     <use style="fill:#9467bd;stroke:#9467bd;" x="196.933155" xlink:href="#m56b461592c" y="44.795573"/>
    </g>
   </g>
   <g id="PathCollection_80">
    <g clip-path="url(#p0cb470728e)">
     <use style="fill:#9467bd;stroke:#9467bd;" x="201.906417" xlink:href="#m56b461592c" y="41.591312"/>
    </g>
   </g>
   <g id="PathCollection_81">
    <g clip-path="url(#p0cb470728e)">
     <use style="fill:#9467bd;stroke:#9467bd;" x="206.879679" xlink:href="#m56b461592c" y="38.94463"/>
    </g>
   </g>
   <g id="PathCollection_82">
    <g clip-path="url(#p0cb470728e)">
     <use style="fill:#9467bd;stroke:#9467bd;" x="211.852941" xlink:href="#m56b461592c" y="36.846902"/>
    </g>
   </g>
   <g id="PathCollection_83">
    <g clip-path="url(#p0cb470728e)">
     <use style="fill:#9467bd;stroke:#9467bd;" x="216.826203" xlink:href="#m56b461592c" y="35.276785"/>
    </g>
   </g>
   <g id="PathCollection_84">
    <g clip-path="url(#p0cb470728e)">
     <use style="fill:#9467bd;stroke:#9467bd;" x="221.799465" xlink:href="#m56b461592c" y="34.200316"/>
    </g>
   </g>
   <g id="PathCollection_85">
    <g clip-path="url(#p0cb470728e)">
     <use style="fill:#9467bd;stroke:#9467bd;" x="226.772727" xlink:href="#m56b461592c" y="33.571397"/>
    </g>
   </g>
   <g id="PathCollection_86">
    <g clip-path="url(#p0cb470728e)">
     <use style="fill:#9467bd;stroke:#9467bd;" x="231.745989" xlink:href="#m56b461592c" y="33.332727"/>
    </g>
   </g>
   <g id="PathCollection_87">
    <g clip-path="url(#p0cb470728e)">
     <use style="fill:#9467bd;stroke:#9467bd;" x="236.719251" xlink:href="#m56b461592c" y="33.417223"/>
    </g>
   </g>
   <g id="PathCollection_88">
    <g clip-path="url(#p0cb470728e)">
     <use style="fill:#9467bd;stroke:#9467bd;" x="241.692513" xlink:href="#m56b461592c" y="33.749965"/>
    </g>
   </g>
   <g id="PathCollection_89">
    <g clip-path="url(#p0cb470728e)">
     <use style="fill:#9467bd;stroke:#9467bd;" x="246.665775" xlink:href="#m56b461592c" y="34.250724"/>
    </g>
   </g>
   <g id="PathCollection_90">
    <g clip-path="url(#p0cb470728e)">
     <use style="fill:#9467bd;stroke:#9467bd;" x="251.639037" xlink:href="#m56b461592c" y="34.83711"/>
    </g>
   </g>
   <g id="PathCollection_91">
    <g clip-path="url(#p0cb470728e)">
     <use style="fill:#9467bd;stroke:#9467bd;" x="256.612299" xlink:href="#m56b461592c" y="35.428388"/>
    </g>
   </g>
   <g id="PathCollection_92">
    <g clip-path="url(#p0cb470728e)">
     <use style="fill:#9467bd;stroke:#9467bd;" x="261.585561" xlink:href="#m56b461592c" y="35.949994"/>
    </g>
   </g>
   <g id="PathCollection_93">
    <g clip-path="url(#p0cb470728e)">
     <use style="fill:#9467bd;stroke:#9467bd;" x="266.558824" xlink:href="#m56b461592c" y="36.338824"/>
    </g>
   </g>
   <g id="PathCollection_94">
    <g clip-path="url(#p0cb470728e)">
     <use style="fill:#9467bd;stroke:#9467bd;" x="271.532086" xlink:href="#m56b461592c" y="36.549306"/>
    </g>
   </g>
   <g id="PathCollection_95">
    <g clip-path="url(#p0cb470728e)">
     <use style="fill:#9467bd;stroke:#9467bd;" x="276.505348" xlink:href="#m56b461592c" y="36.560324"/>
    </g>
   </g>
   <g id="PathCollection_96">
    <g clip-path="url(#p0cb470728e)">
     <use style="fill:#9467bd;stroke:#9467bd;" x="281.47861" xlink:href="#m56b461592c" y="36.383037"/>
    </g>
   </g>
   <g id="PathCollection_97">
    <g clip-path="url(#p0cb470728e)">
     <use style="fill:#9467bd;stroke:#9467bd;" x="286.451872" xlink:href="#m56b461592c" y="36.069615"/>
    </g>
   </g>
   <g id="PathCollection_98">
    <g clip-path="url(#p0cb470728e)">
     <use style="fill:#9467bd;stroke:#9467bd;" x="291.425134" xlink:href="#m56b461592c" y="35.722978"/>
    </g>
   </g>
   <g id="PathCollection_99">
    <g clip-path="url(#p0cb470728e)">
     <use style="fill:#9467bd;stroke:#9467bd;" x="296.398396" xlink:href="#m56b461592c" y="35.507531"/>
    </g>
   </g>
   <g id="PathCollection_100">
    <g clip-path="url(#p0cb470728e)">
     <use style="fill:#9467bd;stroke:#9467bd;" x="301.371658" xlink:href="#m56b461592c" y="35.660992"/>
    </g>
   </g>
   <g id="PathCollection_101">
    <g clip-path="url(#p0cb470728e)">
     <use style="fill:#9467bd;stroke:#9467bd;" x="306.34492" xlink:href="#m56b461592c" y="36.507315"/>
    </g>
   </g>
   <g id="PathCollection_102">
    <g clip-path="url(#p0cb470728e)">
     <use style="fill:#9467bd;stroke:#9467bd;" x="311.318182" xlink:href="#m56b461592c" y="38.470779"/>
    </g>
   </g>
   <g id="matplotlib.axis_1"/>
   <g id="matplotlib.axis_2">
    <g id="ytick_1">
     <g id="line2d_1">
      <defs>
       <path d="M 0 0 
L -3.5 0 
" id="m0e6a67efb0" style="stroke:#000000;stroke-width:0.8;"/>
      </defs>
      <g>
       <use style="stroke:#000000;stroke-width:0.8;" x="45" xlink:href="#m0e6a67efb0" y="181.107856"/>
      </g>
     </g>
     <g id="text_1">
      <!-- 0.0 -->
      <g transform="translate(22.096875 184.907074)scale(0.1 -0.1)">
       <defs>
        <path d="M 31.78125 66.40625 
Q 24.171875 66.40625 20.328125 58.90625 
Q 16.5 51.421875 16.5 36.375 
Q 16.5 21.390625 20.328125 13.890625 
Q 24.171875 6.390625 31.78125 6.390625 
Q 39.453125 6.390625 43.28125 13.890625 
Q 47.125 21.390625 47.125 36.375 
Q 47.125 51.421875 43.28125 58.90625 
Q 39.453125 66.40625 31.78125 66.40625 
z
M 31.78125 74.21875 
Q 44.046875 74.21875 50.515625 64.515625 
Q 56.984375 54.828125 56.984375 36.375 
Q 56.984375 17.96875 50.515625 8.265625 
Q 44.046875 -1.421875 31.78125 -1.421875 
Q 19.53125 -1.421875 13.0625 8.265625 
Q 6.59375 17.96875 6.59375 36.375 
Q 6.59375 54.828125 13.0625 64.515625 
Q 19.53125 74.21875 31.78125 74.21875 
z
" id="DejaVuSans-48"/>
        <path d="M 10.6875 12.40625 
L 21 12.40625 
L 21 0 
L 10.6875 0 
z
" id="DejaVuSans-46"/>
       </defs>
       <use xlink:href="#DejaVuSans-48"/>
       <use x="63.623047" xlink:href="#DejaVuSans-46"/>
       <use x="95.410156" xlink:href="#DejaVuSans-48"/>
      </g>
     </g>
    </g>
    <g id="ytick_2">
     <g id="line2d_2">
      <g>
       <use style="stroke:#000000;stroke-width:0.8;" x="45" xlink:href="#m0e6a67efb0" y="141.688757"/>
      </g>
     </g>
     <g id="text_2">
      <!-- 0.1 -->
      <g transform="translate(22.096875 145.487976)scale(0.1 -0.1)">
       <defs>
        <path d="M 12.40625 8.296875 
L 28.515625 8.296875 
L 28.515625 63.921875 
L 10.984375 60.40625 
L 10.984375 69.390625 
L 28.421875 72.90625 
L 38.28125 72.90625 
L 38.28125 8.296875 
L 54.390625 8.296875 
L 54.390625 0 
L 12.40625 0 
z
" id="DejaVuSans-49"/>
       </defs>
       <use xlink:href="#DejaVuSans-48"/>
       <use x="63.623047" xlink:href="#DejaVuSans-46"/>
       <use x="95.410156" xlink:href="#DejaVuSans-49"/>
      </g>
     </g>
    </g>
    <g id="ytick_3">
     <g id="line2d_3">
      <g>
       <use style="stroke:#000000;stroke-width:0.8;" x="45" xlink:href="#m0e6a67efb0" y="102.269658"/>
      </g>
     </g>
     <g id="text_3">
      <!-- 0.2 -->
      <g transform="translate(22.096875 106.068877)scale(0.1 -0.1)">
       <defs>
        <path d="M 19.1875 8.296875 
L 53.609375 8.296875 
L 53.609375 0 
L 7.328125 0 
L 7.328125 8.296875 
Q 12.9375 14.109375 22.625 23.890625 
Q 32.328125 33.6875 34.8125 36.53125 
Q 39.546875 41.84375 41.421875 45.53125 
Q 43.3125 49.21875 43.3125 52.78125 
Q 43.3125 58.59375 39.234375 62.25 
Q 35.15625 65.921875 28.609375 65.921875 
Q 23.96875 65.921875 18.8125 64.3125 
Q 13.671875 62.703125 7.8125 59.421875 
L 7.8125 69.390625 
Q 13.765625 71.78125 18.9375 73 
Q 24.125 74.21875 28.421875 74.21875 
Q 39.75 74.21875 46.484375 68.546875 
Q 53.21875 62.890625 53.21875 53.421875 
Q 53.21875 48.921875 51.53125 44.890625 
Q 49.859375 40.875 45.40625 35.40625 
Q 44.1875 33.984375 37.640625 27.21875 
Q 31.109375 20.453125 19.1875 8.296875 
z
" id="DejaVuSans-50"/>
       </defs>
       <use xlink:href="#DejaVuSans-48"/>
       <use x="63.623047" xlink:href="#DejaVuSans-46"/>
       <use x="95.410156" xlink:href="#DejaVuSans-50"/>
      </g>
     </g>
    </g>
    <g id="ytick_4">
     <g id="line2d_4">
      <g>
       <use style="stroke:#000000;stroke-width:0.8;" x="45" xlink:href="#m0e6a67efb0" y="62.850559"/>
      </g>
     </g>
     <g id="text_4">
      <!-- 0.3 -->
      <g transform="translate(22.096875 66.649778)scale(0.1 -0.1)">
       <defs>
        <path d="M 40.578125 39.3125 
Q 47.65625 37.796875 51.625 33 
Q 55.609375 28.21875 55.609375 21.1875 
Q 55.609375 10.40625 48.1875 4.484375 
Q 40.765625 -1.421875 27.09375 -1.421875 
Q 22.515625 -1.421875 17.65625 -0.515625 
Q 12.796875 0.390625 7.625 2.203125 
L 7.625 11.71875 
Q 11.71875 9.328125 16.59375 8.109375 
Q 21.484375 6.890625 26.8125 6.890625 
Q 36.078125 6.890625 40.9375 10.546875 
Q 45.796875 14.203125 45.796875 21.1875 
Q 45.796875 27.640625 41.28125 31.265625 
Q 36.765625 34.90625 28.71875 34.90625 
L 20.21875 34.90625 
L 20.21875 43.015625 
L 29.109375 43.015625 
Q 36.375 43.015625 40.234375 45.921875 
Q 44.09375 48.828125 44.09375 54.296875 
Q 44.09375 59.90625 40.109375 62.90625 
Q 36.140625 65.921875 28.71875 65.921875 
Q 24.65625 65.921875 20.015625 65.03125 
Q 15.375 64.15625 9.8125 62.3125 
L 9.8125 71.09375 
Q 15.4375 72.65625 20.34375 73.4375 
Q 25.25 74.21875 29.59375 74.21875 
Q 40.828125 74.21875 47.359375 69.109375 
Q 53.90625 64.015625 53.90625 55.328125 
Q 53.90625 49.265625 50.4375 45.09375 
Q 46.96875 40.921875 40.578125 39.3125 
z
" id="DejaVuSans-51"/>
       </defs>
       <use xlink:href="#DejaVuSans-48"/>
       <use x="63.623047" xlink:href="#DejaVuSans-46"/>
       <use x="95.410156" xlink:href="#DejaVuSans-51"/>
      </g>
     </g>
    </g>
   </g>
   <g id="line2d_5">
    <path clip-path="url(#p0cb470728e)" d="M 57.681818 181.107856 
L 86.360963 180.997246 
L 88.868316 180.69058 
L 91.334225 180.164304 
L 93.862299 179.397252 
L 96.514706 178.35856 
L 99.312166 177.021186 
L 102.275401 175.354039 
L 105.445856 173.308731 
L 108.802807 170.874236 
L 112.408422 167.981669 
L 116.304144 164.567769 
L 120.531417 160.564752 
L 125.214572 155.816332 
L 130.395053 150.239741 
L 136.28008 143.568386 
L 143.097594 135.494595 
L 151.614305 125.044133 
L 164.171791 109.239055 
L 186.178476 81.528081 
L 197.09893 68.166894 
L 205.677807 58.002102 
L 208.744652 54.696477 
L 211.52139 52.029123 
L 214.256684 49.708566 
L 216.991979 47.678454 
L 219.747995 45.909401 
L 222.524733 44.390209 
L 225.342914 43.101173 
L 228.20254 42.036505 
L 231.124332 41.184831 
L 234.129011 40.540652 
L 237.216578 40.105793 
L 240.428476 39.879318 
L 243.764706 39.868728 
L 247.245989 40.081401 
L 250.91377 40.530754 
L 254.78877 41.232821 
L 258.891711 42.204767 
L 263.284759 43.477128 
L 268.009358 45.080325 
L 273.148396 47.06296 
L 278.784759 49.47972 
L 285.084225 52.427599 
L 292.295455 56.054439 
L 300.895053 60.638531 
L 311.318182 66.43856 
L 311.318182 66.43856 
" style="fill:none;stroke:#9467bd;stroke-dasharray:11.1,4.8;stroke-dashoffset:0;stroke-width:3;"/>
   </g>
   <g id="line2d_6">
    <path clip-path="url(#p0cb470728e)" d="M 57.681818 181.107856 
L 86.360963 180.997279 
L 88.868316 180.690705 
L 91.334225 180.164588 
L 93.862299 179.397766 
L 96.514706 178.359385 
L 99.312166 177.022411 
L 102.275401 175.355763 
L 105.445856 173.311068 
L 108.802807 170.877301 
L 112.408422 167.9856 
L 116.304144 164.572721 
L 120.531417 160.570902 
L 125.214572 155.823904 
L 130.395053 150.248981 
L 136.28008 143.579622 
L 143.097594 135.508248 
L 151.614305 125.060912 
L 164.15107 109.286817 
L 186.199198 81.532198 
L 197.09893 68.20069 
L 205.677807 58.038939 
L 208.744652 54.734301 
L 211.52139 52.067745 
L 214.256684 49.747882 
L 216.991979 47.718377 
L 219.747995 45.949853 
L 222.524733 44.431115 
L 225.342914 43.142465 
L 228.20254 42.078115 
L 231.124332 41.226695 
L 234.129011 40.582709 
L 237.216578 40.147979 
L 240.428476 39.921571 
L 243.764706 39.910985 
L 247.245989 40.123594 
L 250.91377 40.572812 
L 254.78877 41.274669 
L 258.891711 42.246324 
L 263.284759 43.518304 
L 268.009358 45.121021 
L 273.148396 47.103063 
L 278.805481 49.528395 
L 285.125668 52.486229 
L 292.336898 56.113335 
L 300.936497 60.697184 
L 311.318182 66.472866 
L 311.318182 66.472866 
" style="fill:none;stroke:#9467bd;stroke-linecap:square;stroke-width:3;"/>
   </g>
   <g id="patch_3">
    <path d="M 45 189 
L 45 25.92 
" style="fill:none;stroke:#000000;stroke-linecap:square;stroke-linejoin:miter;stroke-width:0.8;"/>
   </g>
   <g id="patch_4">
    <path d="M 324 189 
L 324 25.92 
" style="fill:none;stroke:#000000;stroke-linecap:square;stroke-linejoin:miter;stroke-width:0.8;"/>
   </g>
   <g id="patch_5">
    <path d="M 45 189 
L 324 189 
" style="fill:none;stroke:#000000;stroke-linecap:square;stroke-linejoin:miter;stroke-width:0.8;"/>
   </g>
   <g id="patch_6">
    <path d="M 45 25.92 
L 324 25.92 
" style="fill:none;stroke:#000000;stroke-linecap:square;stroke-linejoin:miter;stroke-width:0.8;"/>
   </g>
  </g>
 </g>
 <defs>
  <clipPath id="p0cb470728e">
   <rect height="163.08" width="279" x="45" y="25.92"/>
  </clipPath>
 </defs>
</svg>
