<?xml version="1.0" encoding="utf-8" standalone="no"?>
<!DOCTYPE svg PUBLIC "-//W3C//DTD SVG 1.1//EN"
  "http://www.w3.org/Graphics/SVG/1.1/DTD/svg11.dtd">
<!-- Created with matplotlib (https://matplotlib.org/) -->
<svg height="216pt" version="1.1" viewBox="0 0 360 216" width="360pt" xmlns="http://www.w3.org/2000/svg" xmlns:xlink="http://www.w3.org/1999/xlink">
 <metadata>
  <rdf:RDF xmlns:cc="http://creativecommons.org/ns#" xmlns:dc="http://purl.org/dc/elements/1.1/" xmlns:rdf="http://www.w3.org/1999/02/22-rdf-syntax-ns#">
   <cc:Work>
    <dc:type rdf:resource="http://purl.org/dc/dcmitype/StillImage"/>
    <dc:date>2024-12-09T16:08:30.386111</dc:date>
    <dc:format>image/svg+xml</dc:format>
    <dc:creator>
     <cc:Agent>
      <dc:title>Matplotlib v3.3.2, https://matplotlib.org/</dc:title>
     </cc:Agent>
    </dc:creator>
   </cc:Work>
  </rdf:RDF>
 </metadata>
 <defs>
  <style type="text/css">*{stroke-linecap:butt;stroke-linejoin:round;}</style>
 </defs>
 <g id="figure_1">
  <g id="patch_1">
   <path d="M 0 216 
L 360 216 
L 360 0 
L 0 0 
z
" style="fill:none;"/>
  </g>
  <g id="axes_1">
   <g id="patch_2">
    <path d="M 45 189 
L 324 189 
L 324 25.92 
L 45 25.92 
z
" style="fill:#ffffff;"/>
   </g>
   <g id="PathCollection_1">
    <path clip-path="url(#p591651ceae)" d="M 62.65508 183.537715 
C 63.592715 183.537715 64.492072 183.165188 65.15508 182.502181 
C 65.818088 181.839173 66.190614 180.939815 66.190614 180.002181 
C 66.190614 179.064546 65.818088 178.165188 65.15508 177.502181 
C 64.492072 176.839173 63.592715 176.466647 62.65508 176.466647 
C 61.717446 176.466647 60.818088 176.839173 60.15508 177.502181 
C 59.492072 178.165188 59.119546 179.064546 59.119546 180.002181 
C 59.119546 180.939815 59.492072 181.839173 60.15508 182.502181 
C 60.818088 183.165188 61.717446 183.537715 62.65508 183.537715 
z
" style="fill:none;stroke:#ff9896;"/>
   </g>
   <g id="PathCollection_2">
    <path clip-path="url(#p591651ceae)" d="M 67.628342 185.001061 
C 68.565977 185.001061 69.465334 184.628535 70.128342 183.965527 
C 70.79135 183.302519 71.163876 182.403161 71.163876 181.465527 
C 71.163876 180.527892 70.79135 179.628535 70.128342 178.965527 
C 69.465334 178.302519 68.565977 177.929993 67.628342 177.929993 
C 66.690708 177.929993 65.79135 178.302519 65.128342 178.965527 
C 64.465334 179.628535 64.092808 180.527892 64.092808 181.465527 
C 64.092808 182.403161 64.465334 183.302519 65.128342 183.965527 
C 65.79135 184.628535 66.690708 185.001061 67.628342 185.001061 
z
" style="fill:none;stroke:#ff9896;"/>
   </g>
   <g id="PathCollection_3">
    <path clip-path="url(#p591651ceae)" d="M 72.601604 185.122807 
C 73.539239 185.122807 74.438597 184.75028 75.101604 184.087273 
C 75.764612 183.424265 76.137138 182.524907 76.137138 181.587273 
C 76.137138 180.649638 75.764612 179.75028 75.101604 179.087273 
C 74.438597 178.424265 73.539239 178.051739 72.601604 178.051739 
C 71.66397 178.051739 70.764612 178.424265 70.101604 179.087273 
C 69.438597 179.75028 69.06607 180.649638 69.06607 181.587273 
C 69.06607 182.524907 69.438597 183.424265 70.101604 184.087273 
C 70.764612 184.75028 71.66397 185.122807 72.601604 185.122807 
z
" style="fill:none;stroke:#ff9896;"/>
   </g>
   <g id="PathCollection_4">
    <path clip-path="url(#p591651ceae)" d="M 77.574866 184.24739 
C 78.512501 184.24739 79.411859 183.874864 80.074866 183.211856 
C 80.737874 182.548848 81.1104 181.64949 81.1104 180.711856 
C 81.1104 179.774221 80.737874 178.874864 80.074866 178.211856 
C 79.411859 177.548848 78.512501 177.176322 77.574866 177.176322 
C 76.637232 177.176322 75.737874 177.548848 75.074866 178.211856 
C 74.411859 178.874864 74.039332 179.774221 74.039332 180.711856 
C 74.039332 181.64949 74.411859 182.548848 75.074866 183.211856 
C 75.737874 183.874864 76.637232 184.24739 77.574866 184.24739 
z
" style="fill:none;stroke:#ff9896;"/>
   </g>
   <g id="PathCollection_5">
    <path clip-path="url(#p591651ceae)" d="M 82.548128 182.622607 
C 83.485763 182.622607 84.385121 182.250081 85.048128 181.587073 
C 85.711136 180.924065 86.083662 180.024707 86.083662 179.087073 
C 86.083662 178.149438 85.711136 177.250081 85.048128 176.587073 
C 84.385121 175.924065 83.485763 175.551539 82.548128 175.551539 
C 81.610494 175.551539 80.711136 175.924065 80.048128 176.587073 
C 79.385121 177.250081 79.012594 178.149438 79.012594 179.087073 
C 79.012594 180.024707 79.385121 180.924065 80.048128 181.587073 
C 80.711136 182.250081 81.610494 182.622607 82.548128 182.622607 
z
" style="fill:none;stroke:#ff9896;"/>
   </g>
   <g id="PathCollection_6">
    <path clip-path="url(#p591651ceae)" d="M 87.52139 180.413323 
C 88.459025 180.413323 89.358383 180.040797 90.02139 179.377789 
C 90.684398 178.714781 91.056924 177.815424 91.056924 176.877789 
C 91.056924 175.940154 90.684398 175.040797 90.02139 174.377789 
C 89.358383 173.714781 88.459025 173.342255 87.52139 173.342255 
C 86.583756 173.342255 85.684398 173.714781 85.02139 174.377789 
C 84.358383 175.040797 83.985856 175.940154 83.985856 176.877789 
C 83.985856 177.815424 84.358383 178.714781 85.02139 179.377789 
C 85.684398 180.040797 86.583756 180.413323 87.52139 180.413323 
z
" style="fill:none;stroke:#ff9896;"/>
   </g>
   <g id="PathCollection_7">
    <path clip-path="url(#p591651ceae)" d="M 92.494652 177.724503 
C 93.432287 177.724503 94.331645 177.351977 94.994652 176.688969 
C 95.65766 176.025962 96.030186 175.126604 96.030186 174.188969 
C 96.030186 173.251335 95.65766 172.351977 94.994652 171.688969 
C 94.331645 171.025962 93.432287 170.653436 92.494652 170.653436 
C 91.557018 170.653436 90.65766 171.025962 89.994652 171.688969 
C 89.331645 172.351977 88.959119 173.251335 88.959119 174.188969 
C 88.959119 175.126604 89.331645 176.025962 89.994652 176.688969 
C 90.65766 177.351977 91.557018 177.724503 92.494652 177.724503 
z
" style="fill:none;stroke:#ff9896;"/>
   </g>
   <g id="PathCollection_8">
    <path clip-path="url(#p591651ceae)" d="M 97.467914 174.613605 
C 98.405549 174.613605 99.304907 174.241079 99.967914 173.578071 
C 100.630922 172.915064 101.003448 172.015706 101.003448 171.078071 
C 101.003448 170.140437 100.630922 169.241079 99.967914 168.578071 
C 99.304907 167.915064 98.405549 167.542537 97.467914 167.542537 
C 96.53028 167.542537 95.630922 167.915064 94.967914 168.578071 
C 94.304907 169.241079 93.932381 170.140437 93.932381 171.078071 
C 93.932381 172.015706 94.304907 172.915064 94.967914 173.578071 
C 95.630922 174.241079 96.53028 174.613605 97.467914 174.613605 
z
" style="fill:none;stroke:#ff9896;"/>
   </g>
   <g id="PathCollection_9">
    <path clip-path="url(#p591651ceae)" d="M 102.441176 171.104473 
C 103.378811 171.104473 104.278169 170.731947 104.941176 170.068939 
C 105.604184 169.405932 105.97671 168.506574 105.97671 167.568939 
C 105.97671 166.631305 105.604184 165.731947 104.941176 165.068939 
C 104.278169 164.405932 103.378811 164.033405 102.441176 164.033405 
C 101.503542 164.033405 100.604184 164.405932 99.941176 165.068939 
C 99.278169 165.731947 98.905643 166.631305 98.905643 167.568939 
C 98.905643 168.506574 99.278169 169.405932 99.941176 170.068939 
C 100.604184 170.731947 101.503542 171.104473 102.441176 171.104473 
z
" style="fill:none;stroke:#ff9896;"/>
   </g>
   <g id="PathCollection_10">
    <path clip-path="url(#p591651ceae)" d="M 107.414439 167.198831 
C 108.352073 167.198831 109.251431 166.826305 109.914439 166.163297 
C 110.577446 165.500289 110.949972 164.600931 110.949972 163.663297 
C 110.949972 162.725662 110.577446 161.826305 109.914439 161.163297 
C 109.251431 160.500289 108.352073 160.127763 107.414439 160.127763 
C 106.476804 160.127763 105.577446 160.500289 104.914439 161.163297 
C 104.251431 161.826305 103.878905 162.725662 103.878905 163.663297 
C 103.878905 164.600931 104.251431 165.500289 104.914439 166.163297 
C 105.577446 166.826305 106.476804 167.198831 107.414439 167.198831 
z
" style="fill:none;stroke:#ff9896;"/>
   </g>
   <g id="PathCollection_11">
    <path clip-path="url(#p591651ceae)" d="M 112.387701 162.886044 
C 113.325335 162.886044 114.224693 162.513518 114.887701 161.85051 
C 115.550708 161.187502 115.923234 160.288144 115.923234 159.35051 
C 115.923234 158.412875 115.550708 157.513518 114.887701 156.85051 
C 114.224693 156.187502 113.325335 155.814976 112.387701 155.814976 
C 111.450066 155.814976 110.550708 156.187502 109.887701 156.85051 
C 109.224693 157.513518 108.852167 158.412875 108.852167 159.35051 
C 108.852167 160.288144 109.224693 161.187502 109.887701 161.85051 
C 110.550708 162.513518 111.450066 162.886044 112.387701 162.886044 
z
" style="fill:none;stroke:#ff9896;"/>
   </g>
   <g id="PathCollection_12">
    <path clip-path="url(#p591651ceae)" d="M 117.360963 158.15126 
C 118.298597 158.15126 119.197955 157.778734 119.860963 157.115726 
C 120.52397 156.452718 120.896496 155.55336 120.896496 154.615726 
C 120.896496 153.678091 120.52397 152.778734 119.860963 152.115726 
C 119.197955 151.452718 118.298597 151.080192 117.360963 151.080192 
C 116.423328 151.080192 115.52397 151.452718 114.860963 152.115726 
C 114.197955 152.778734 113.825429 153.678091 113.825429 154.615726 
C 113.825429 155.55336 114.197955 156.452718 114.860963 157.115726 
C 115.52397 157.778734 116.423328 158.15126 117.360963 158.15126 
z
" style="fill:none;stroke:#ff9896;"/>
   </g>
   <g id="PathCollection_13">
    <path clip-path="url(#p591651ceae)" d="M 122.334225 152.982029 
C 123.271859 152.982029 124.171217 152.609503 124.834225 151.946495 
C 125.497232 151.283487 125.869759 150.38413 125.869759 149.446495 
C 125.869759 148.50886 125.497232 147.609503 124.834225 146.946495 
C 124.171217 146.283487 123.271859 145.910961 122.334225 145.910961 
C 121.39659 145.910961 120.497232 146.283487 119.834225 146.946495 
C 119.171217 147.609503 118.798691 148.50886 118.798691 149.446495 
C 118.798691 150.38413 119.171217 151.283487 119.834225 151.946495 
C 120.497232 152.609503 121.39659 152.982029 122.334225 152.982029 
z
" style="fill:none;stroke:#ff9896;"/>
   </g>
   <g id="PathCollection_14">
    <path clip-path="url(#p591651ceae)" d="M 127.307487 147.373509 
C 128.245121 147.373509 129.144479 147.000982 129.807487 146.337975 
C 130.470494 145.674967 130.843021 144.775609 130.843021 143.837975 
C 130.843021 142.90034 130.470494 142.000982 129.807487 141.337975 
C 129.144479 140.674967 128.245121 140.302441 127.307487 140.302441 
C 126.369852 140.302441 125.470494 140.674967 124.807487 141.337975 
C 124.144479 142.000982 123.771953 142.90034 123.771953 143.837975 
C 123.771953 144.775609 124.144479 145.674967 124.807487 146.337975 
C 125.470494 147.000982 126.369852 147.373509 127.307487 147.373509 
z
" style="fill:none;stroke:#ff9896;"/>
   </g>
   <g id="PathCollection_15">
    <path clip-path="url(#p591651ceae)" d="M 132.280749 141.332357 
C 133.218383 141.332357 134.117741 140.959831 134.780749 140.296823 
C 135.443756 139.633816 135.816283 138.734458 135.816283 137.796823 
C 135.816283 136.859189 135.443756 135.959831 134.780749 135.296823 
C 134.117741 134.633816 133.218383 134.26129 132.280749 134.26129 
C 131.343114 134.26129 130.443756 134.633816 129.780749 135.296823 
C 129.117741 135.959831 128.745215 136.859189 128.745215 137.796823 
C 128.745215 138.734458 129.117741 139.633816 129.780749 140.296823 
C 130.443756 140.959831 131.343114 141.332357 132.280749 141.332357 
z
" style="fill:none;stroke:#ff9896;"/>
   </g>
   <g id="PathCollection_16">
    <path clip-path="url(#p591651ceae)" d="M 137.254011 134.879421 
C 138.191645 134.879421 139.091003 134.506894 139.754011 133.843887 
C 140.417018 133.180879 140.789545 132.281521 140.789545 131.343887 
C 140.789545 130.406252 140.417018 129.506894 139.754011 128.843887 
C 139.091003 128.180879 138.191645 127.808353 137.254011 127.808353 
C 136.316376 127.808353 135.417018 128.180879 134.754011 128.843887 
C 134.091003 129.506894 133.718477 130.406252 133.718477 131.343887 
C 133.718477 132.281521 134.091003 133.180879 134.754011 133.843887 
C 135.417018 134.506894 136.316376 134.879421 137.254011 134.879421 
z
" style="fill:none;stroke:#ff9896;"/>
   </g>
   <g id="PathCollection_17">
    <path clip-path="url(#p591651ceae)" d="M 142.227273 128.051314 
C 143.164907 128.051314 144.064265 127.678788 144.727273 127.01578 
C 145.39028 126.352773 145.762807 125.453415 145.762807 124.51578 
C 145.762807 123.578146 145.39028 122.678788 144.727273 122.01578 
C 144.064265 121.352773 143.164907 120.980246 142.227273 120.980246 
C 141.289638 120.980246 140.39028 121.352773 139.727273 122.01578 
C 139.064265 122.678788 138.691739 123.578146 138.691739 124.51578 
C 138.691739 125.453415 139.064265 126.352773 139.727273 127.01578 
C 140.39028 127.678788 141.289638 128.051314 142.227273 128.051314 
z
" style="fill:none;stroke:#ff9896;"/>
   </g>
   <g id="PathCollection_18">
    <path clip-path="url(#p591651ceae)" d="M 147.200535 120.901008 
C 148.138169 120.901008 149.037527 120.528482 149.700535 119.865474 
C 150.363543 119.202467 150.736069 118.303109 150.736069 117.365474 
C 150.736069 116.42784 150.363543 115.528482 149.700535 114.865474 
C 149.037527 114.202467 148.138169 113.82994 147.200535 113.82994 
C 146.2629 113.82994 145.363543 114.202467 144.700535 114.865474 
C 144.037527 115.528482 143.665001 116.42784 143.665001 117.365474 
C 143.665001 118.303109 144.037527 119.202467 144.700535 119.865474 
C 145.363543 120.528482 146.2629 120.901008 147.200535 120.901008 
z
" style="fill:none;stroke:#ff9896;"/>
   </g>
   <g id="PathCollection_19">
    <path clip-path="url(#p591651ceae)" d="M 152.173797 113.497515 
C 153.111431 113.497515 154.010789 113.124989 154.673797 112.461982 
C 155.336805 111.798974 155.709331 110.899616 155.709331 109.961982 
C 155.709331 109.024347 155.336805 108.124989 154.673797 107.461982 
C 154.010789 106.798974 153.111431 106.426448 152.173797 106.426448 
C 151.236162 106.426448 150.336805 106.798974 149.673797 107.461982 
C 149.010789 108.124989 148.638263 109.024347 148.638263 109.961982 
C 148.638263 110.899616 149.010789 111.798974 149.673797 112.461982 
C 150.336805 113.124989 151.236162 113.497515 152.173797 113.497515 
z
" style="fill:none;stroke:#ff9896;"/>
   </g>
   <g id="PathCollection_20">
    <path clip-path="url(#p591651ceae)" d="M 157.147059 105.924789 
C 158.084693 105.924789 158.984051 105.552263 159.647059 104.889255 
C 160.310067 104.226247 160.682593 103.32689 160.682593 102.389255 
C 160.682593 101.45162 160.310067 100.552263 159.647059 99.889255 
C 158.984051 99.226247 158.084693 98.853721 157.147059 98.853721 
C 156.209424 98.853721 155.310067 99.226247 154.647059 99.889255 
C 153.984051 100.552263 153.611525 101.45162 153.611525 102.389255 
C 153.611525 103.32689 153.984051 104.226247 154.647059 104.889255 
C 155.310067 105.552263 156.209424 105.924789 157.147059 105.924789 
z
" style="fill:none;stroke:#ff9896;"/>
   </g>
   <g id="PathCollection_21">
    <path clip-path="url(#p591651ceae)" d="M 162.120321 98.279933 
C 163.057955 98.279933 163.957313 97.907407 164.620321 97.244399 
C 165.283329 96.581391 165.655855 95.682033 165.655855 94.744399 
C 165.655855 93.806764 165.283329 92.907407 164.620321 92.244399 
C 163.957313 91.581391 163.057955 91.208865 162.120321 91.208865 
C 161.182686 91.208865 160.283329 91.581391 159.620321 92.244399 
C 158.957313 92.907407 158.584787 93.806764 158.584787 94.744399 
C 158.584787 95.682033 158.957313 96.581391 159.620321 97.244399 
C 160.283329 97.907407 161.182686 98.279933 162.120321 98.279933 
z
" style="fill:none;stroke:#ff9896;"/>
   </g>
   <g id="PathCollection_22">
    <path clip-path="url(#p591651ceae)" d="M 167.093583 90.67083 
C 168.031217 90.67083 168.930575 90.298304 169.593583 89.635296 
C 170.256591 88.972288 170.629117 88.072931 170.629117 87.135296 
C 170.629117 86.197661 170.256591 85.298304 169.593583 84.635296 
C 168.930575 83.972288 168.031217 83.599762 167.093583 83.599762 
C 166.155948 83.599762 165.256591 83.972288 164.593583 84.635296 
C 163.930575 85.298304 163.558049 86.197661 163.558049 87.135296 
C 163.558049 88.072931 163.930575 88.972288 164.593583 89.635296 
C 165.256591 90.298304 166.155948 90.67083 167.093583 90.67083 
z
" style="fill:none;stroke:#ff9896;"/>
   </g>
   <g id="PathCollection_23">
    <path clip-path="url(#p591651ceae)" d="M 172.066845 83.213291 
C 173.004479 83.213291 173.903837 82.840765 174.566845 82.177757 
C 175.229853 81.514749 175.602379 80.615392 175.602379 79.677757 
C 175.602379 78.740122 175.229853 77.840765 174.566845 77.177757 
C 173.903837 76.514749 173.004479 76.142223 172.066845 76.142223 
C 171.12921 76.142223 170.229853 76.514749 169.566845 77.177757 
C 168.903837 77.840765 168.531311 78.740122 168.531311 79.677757 
C 168.531311 80.615392 168.903837 81.514749 169.566845 82.177757 
C 170.229853 82.840765 171.12921 83.213291 172.066845 83.213291 
z
" style="fill:none;stroke:#ff9896;"/>
   </g>
   <g id="PathCollection_24">
    <path clip-path="url(#p591651ceae)" d="M 177.040107 76.027828 
C 177.977742 76.027828 178.877099 75.655302 179.540107 74.992294 
C 180.203115 74.329286 180.575641 73.429928 180.575641 72.492294 
C 180.575641 71.554659 180.203115 70.655302 179.540107 69.992294 
C 178.877099 69.329286 177.977742 68.95676 177.040107 68.95676 
C 176.102472 68.95676 175.203115 69.329286 174.540107 69.992294 
C 173.877099 70.655302 173.504573 71.554659 173.504573 72.492294 
C 173.504573 73.429928 173.877099 74.329286 174.540107 74.992294 
C 175.203115 75.655302 176.102472 76.027828 177.040107 76.027828 
z
" style="fill:none;stroke:#ff9896;"/>
   </g>
   <g id="PathCollection_25">
    <path clip-path="url(#p591651ceae)" d="M 182.013369 69.236158 
C 182.951004 69.236158 183.850361 68.863632 184.513369 68.200624 
C 185.176377 67.537616 185.548903 66.638259 185.548903 65.700624 
C 185.548903 64.76299 185.176377 63.863632 184.513369 63.200624 
C 183.850361 62.537616 182.951004 62.16509 182.013369 62.16509 
C 181.075734 62.16509 180.176377 62.537616 179.513369 63.200624 
C 178.850361 63.863632 178.477835 64.76299 178.477835 65.700624 
C 178.477835 66.638259 178.850361 67.537616 179.513369 68.200624 
C 180.176377 68.863632 181.075734 69.236158 182.013369 69.236158 
z
" style="fill:none;stroke:#ff9896;"/>
   </g>
   <g id="PathCollection_26">
    <path clip-path="url(#p591651ceae)" d="M 186.986631 62.957539 
C 187.924266 62.957539 188.823623 62.585013 189.486631 61.922005 
C 190.149639 61.258998 190.522165 60.35964 190.522165 59.422005 
C 190.522165 58.484371 190.149639 57.585013 189.486631 56.922005 
C 188.823623 56.258998 187.924266 55.886472 186.986631 55.886472 
C 186.048996 55.886472 185.149639 56.258998 184.486631 56.922005 
C 183.823623 57.585013 183.451097 58.484371 183.451097 59.422005 
C 183.451097 60.35964 183.823623 61.258998 184.486631 61.922005 
C 185.149639 62.585013 186.048996 62.957539 186.986631 62.957539 
z
" style="fill:none;stroke:#ff9896;"/>
   </g>
   <g id="PathCollection_27">
    <path clip-path="url(#p591651ceae)" d="M 191.959893 57.305045 
C 192.897528 57.305045 193.796885 56.932519 194.459893 56.269511 
C 195.122901 55.606504 195.495427 54.707146 195.495427 53.769511 
C 195.495427 52.831877 195.122901 51.932519 194.459893 51.269511 
C 193.796885 50.606504 192.897528 50.233978 191.959893 50.233978 
C 191.022258 50.233978 190.122901 50.606504 189.459893 51.269511 
C 188.796885 51.932519 188.424359 52.831877 188.424359 53.769511 
C 188.424359 54.707146 188.796885 55.606504 189.459893 56.269511 
C 190.122901 56.932519 191.022258 57.305045 191.959893 57.305045 
z
" style="fill:none;stroke:#ff9896;"/>
   </g>
   <g id="PathCollection_28">
    <path clip-path="url(#p591651ceae)" d="M 196.933155 52.38188 
C 197.87079 52.38188 198.770147 52.009354 199.433155 51.346346 
C 200.096163 50.683338 200.468689 49.78398 200.468689 48.846346 
C 200.468689 47.908711 200.096163 47.009354 199.433155 46.346346 
C 198.770147 45.683338 197.87079 45.310812 196.933155 45.310812 
C 195.995521 45.310812 195.096163 45.683338 194.433155 46.346346 
C 193.770147 47.009354 193.397621 47.908711 193.397621 48.846346 
C 193.397621 49.78398 193.770147 50.683338 194.433155 51.346346 
C 195.096163 52.009354 195.995521 52.38188 196.933155 52.38188 
z
" style="fill:none;stroke:#ff9896;"/>
   </g>
   <g id="PathCollection_29">
    <path clip-path="url(#p591651ceae)" d="M 201.906417 48.277838 
C 202.844052 48.277838 203.743409 47.905312 204.406417 47.242304 
C 205.069425 46.579296 205.441951 45.679938 205.441951 44.742304 
C 205.441951 43.804669 205.069425 42.905312 204.406417 42.242304 
C 203.743409 41.579296 202.844052 41.20677 201.906417 41.20677 
C 200.968783 41.20677 200.069425 41.579296 199.406417 42.242304 
C 198.743409 42.905312 198.370883 43.804669 198.370883 44.742304 
C 198.370883 45.679938 198.743409 46.579296 199.406417 47.242304 
C 200.069425 47.905312 200.968783 48.277838 201.906417 48.277838 
z
" style="fill:none;stroke:#ff9896;"/>
   </g>
   <g id="PathCollection_30">
    <path clip-path="url(#p591651ceae)" d="M 206.879679 45.066016 
C 207.817314 45.066016 208.716671 44.69349 209.379679 44.030482 
C 210.042687 43.367474 210.415213 42.468117 210.415213 41.530482 
C 210.415213 40.592847 210.042687 39.69349 209.379679 39.030482 
C 208.716671 38.367474 207.817314 37.994948 206.879679 37.994948 
C 205.942045 37.994948 205.042687 38.367474 204.379679 39.030482 
C 203.716671 39.69349 203.344145 40.592847 203.344145 41.530482 
C 203.344145 42.468117 203.716671 43.367474 204.379679 44.030482 
C 205.042687 44.69349 205.942045 45.066016 206.879679 45.066016 
z
" style="fill:none;stroke:#ff9896;"/>
   </g>
   <g id="PathCollection_31">
    <path clip-path="url(#p591651ceae)" d="M 211.852941 42.799876 
C 212.790576 42.799876 213.689933 42.42735 214.352941 41.764342 
C 215.015949 41.101334 215.388475 40.201976 215.388475 39.264342 
C 215.388475 38.326707 215.015949 37.42735 214.352941 36.764342 
C 213.689933 36.101334 212.790576 35.728808 211.852941 35.728808 
C 210.915307 35.728808 210.015949 36.101334 209.352941 36.764342 
C 208.689933 37.42735 208.317407 38.326707 208.317407 39.264342 
C 208.317407 40.201976 208.689933 41.101334 209.352941 41.764342 
C 210.015949 42.42735 210.915307 42.799876 211.852941 42.799876 
z
" style="fill:none;stroke:#ff9896;"/>
   </g>
   <g id="PathCollection_32">
    <path clip-path="url(#p591651ceae)" d="M 216.826203 41.510767 
C 217.763838 41.510767 218.663195 41.13824 219.326203 40.475233 
C 219.989211 39.812225 220.361737 38.912867 220.361737 37.975233 
C 220.361737 37.037598 219.989211 36.13824 219.326203 35.475233 
C 218.663195 34.812225 217.763838 34.439699 216.826203 34.439699 
C 215.888569 34.439699 214.989211 34.812225 214.326203 35.475233 
C 213.663195 36.13824 213.290669 37.037598 213.290669 37.975233 
C 213.290669 38.912867 213.663195 39.812225 214.326203 40.475233 
C 214.989211 41.13824 215.888569 41.510767 216.826203 41.510767 
z
" style="fill:none;stroke:#ff9896;"/>
   </g>
   <g id="PathCollection_33">
    <path clip-path="url(#p591651ceae)" d="M 221.799465 41.206008 
C 222.7371 41.206008 223.636457 40.833481 224.299465 40.170474 
C 224.962473 39.507466 225.334999 38.608108 225.334999 37.670474 
C 225.334999 36.732839 224.962473 35.833481 224.299465 35.170474 
C 223.636457 34.507466 222.7371 34.13494 221.799465 34.13494 
C 220.861831 34.13494 219.962473 34.507466 219.299465 35.170474 
C 218.636457 35.833481 218.263931 36.732839 218.263931 37.670474 
C 218.263931 38.608108 218.636457 39.507466 219.299465 40.170474 
C 219.962473 40.833481 220.861831 41.206008 221.799465 41.206008 
z
" style="fill:none;stroke:#ff9896;"/>
   </g>
   <g id="PathCollection_34">
    <path clip-path="url(#p591651ceae)" d="M 226.772727 41.867637 
C 227.710362 41.867637 228.60972 41.495111 229.272727 40.832103 
C 229.935735 40.169095 230.308261 39.269737 230.308261 38.332103 
C 230.308261 37.394468 229.935735 36.495111 229.272727 35.832103 
C 228.60972 35.169095 227.710362 34.796569 226.772727 34.796569 
C 225.835093 34.796569 224.935735 35.169095 224.272727 35.832103 
C 223.60972 36.495111 223.237193 37.394468 223.237193 38.332103 
C 223.237193 39.269737 223.60972 40.169095 224.272727 40.832103 
C 224.935735 41.495111 225.835093 41.867637 226.772727 41.867637 
z
" style="fill:none;stroke:#ff9896;"/>
   </g>
   <g id="PathCollection_35">
    <path clip-path="url(#p591651ceae)" d="M 231.745989 43.45193 
C 232.683624 43.45193 233.582982 43.079404 234.245989 42.416396 
C 234.908997 41.753388 235.281523 40.854031 235.281523 39.916396 
C 235.281523 38.978762 234.908997 38.079404 234.245989 37.416396 
C 233.582982 36.753388 232.683624 36.380862 231.745989 36.380862 
C 230.808355 36.380862 229.908997 36.753388 229.245989 37.416396 
C 228.582982 38.079404 228.210455 38.978762 228.210455 39.916396 
C 228.210455 40.854031 228.582982 41.753388 229.245989 42.416396 
C 229.908997 43.079404 230.808355 43.45193 231.745989 43.45193 
z
" style="fill:none;stroke:#ff9896;"/>
   </g>
   <g id="PathCollection_36">
    <path clip-path="url(#p591651ceae)" d="M 236.719251 45.889795 
C 237.656886 45.889795 238.556244 45.517269 239.219251 44.854262 
C 239.882259 44.191254 240.254785 43.291896 240.254785 42.354262 
C 240.254785 41.416627 239.882259 40.517269 239.219251 39.854262 
C 238.556244 39.191254 237.656886 38.818728 236.719251 38.818728 
C 235.781617 38.818728 234.882259 39.191254 234.219251 39.854262 
C 233.556244 40.517269 233.183717 41.416627 233.183717 42.354262 
C 233.183717 43.291896 233.556244 44.191254 234.219251 44.854262 
C 234.882259 45.517269 235.781617 45.889795 236.719251 45.889795 
z
" style="fill:none;stroke:#ff9896;"/>
   </g>
   <g id="PathCollection_37">
    <path clip-path="url(#p591651ceae)" d="M 241.692513 49.088141 
C 242.630148 49.088141 243.529506 48.715615 244.192513 48.052607 
C 244.855521 47.3896 245.228047 46.490242 245.228047 45.552607 
C 245.228047 44.614973 244.855521 43.715615 244.192513 43.052607 
C 243.529506 42.3896 242.630148 42.017074 241.692513 42.017074 
C 240.754879 42.017074 239.855521 42.3896 239.192513 43.052607 
C 238.529506 43.715615 238.156979 44.614973 238.156979 45.552607 
C 238.156979 46.490242 238.529506 47.3896 239.192513 48.052607 
C 239.855521 48.715615 240.754879 49.088141 241.692513 49.088141 
z
" style="fill:none;stroke:#ff9896;"/>
   </g>
   <g id="PathCollection_38">
    <path clip-path="url(#p591651ceae)" d="M 246.665775 52.93233 
C 247.60341 52.93233 248.502768 52.559804 249.165775 51.896797 
C 249.828783 51.233789 250.201309 50.334431 250.201309 49.396797 
C 250.201309 48.459162 249.828783 47.559804 249.165775 46.896797 
C 248.502768 46.233789 247.60341 45.861263 246.665775 45.861263 
C 245.728141 45.861263 244.828783 46.233789 244.165775 46.896797 
C 243.502768 47.559804 243.130241 48.459162 243.130241 49.396797 
C 243.130241 50.334431 243.502768 51.233789 244.165775 51.896797 
C 244.828783 52.559804 245.728141 52.93233 246.665775 52.93233 
z
" style="fill:none;stroke:#ff9896;"/>
   </g>
   <g id="PathCollection_39">
    <path clip-path="url(#p591651ceae)" d="M 251.639037 57.289819 
C 252.576672 57.289819 253.47603 56.917293 254.139037 56.254285 
C 254.802045 55.591278 255.174571 54.69192 255.174571 53.754285 
C 255.174571 52.816651 254.802045 51.917293 254.139037 51.254285 
C 253.47603 50.591278 252.576672 50.218752 251.639037 50.218752 
C 250.701403 50.218752 249.802045 50.591278 249.139037 51.254285 
C 248.47603 51.917293 248.103504 52.816651 248.103504 53.754285 
C 248.103504 54.69192 248.47603 55.591278 249.139037 56.254285 
C 249.802045 56.917293 250.701403 57.289819 251.639037 57.289819 
z
" style="fill:none;stroke:#ff9896;"/>
   </g>
   <g id="PathCollection_40">
    <path clip-path="url(#p591651ceae)" d="M 256.612299 62.015086 
C 257.549934 62.015086 258.449292 61.64256 259.112299 60.979552 
C 259.775307 60.316544 260.147833 59.417187 260.147833 58.479552 
C 260.147833 57.541917 259.775307 56.64256 259.112299 55.979552 
C 258.449292 55.316544 257.549934 54.944018 256.612299 54.944018 
C 255.674665 54.944018 254.775307 55.316544 254.112299 55.979552 
C 253.449292 56.64256 253.076766 57.541917 253.076766 58.479552 
C 253.076766 59.417187 253.449292 60.316544 254.112299 60.979552 
C 254.775307 61.64256 255.674665 62.015086 256.612299 62.015086 
z
" style="fill:none;stroke:#ff9896;"/>
   </g>
   <g id="PathCollection_41">
    <path clip-path="url(#p591651ceae)" d="M 261.585561 66.955954 
C 262.523196 66.955954 263.422554 66.583428 264.085561 65.92042 
C 264.748569 65.257412 265.121095 64.358054 265.121095 63.42042 
C 265.121095 62.482785 264.748569 61.583428 264.085561 60.92042 
C 263.422554 60.257412 262.523196 59.884886 261.585561 59.884886 
C 260.647927 59.884886 259.748569 60.257412 259.085561 60.92042 
C 258.422554 61.583428 258.050028 62.482785 258.050028 63.42042 
C 258.050028 64.358054 258.422554 65.257412 259.085561 65.92042 
C 259.748569 66.583428 260.647927 66.955954 261.585561 66.955954 
z
" style="fill:none;stroke:#ff9896;"/>
   </g>
   <g id="PathCollection_42">
    <path clip-path="url(#p591651ceae)" d="M 266.558824 71.961412 
C 267.496458 71.961412 268.395816 71.588886 269.058824 70.925878 
C 269.721831 70.262871 270.094357 69.363513 270.094357 68.425878 
C 270.094357 67.488244 269.721831 66.588886 269.058824 65.925878 
C 268.395816 65.262871 267.496458 64.890345 266.558824 64.890345 
C 265.621189 64.890345 264.721831 65.262871 264.058824 65.925878 
C 263.395816 66.588886 263.02329 67.488244 263.02329 68.425878 
C 263.02329 69.363513 263.395816 70.262871 264.058824 70.925878 
C 264.721831 71.588886 265.621189 71.961412 266.558824 71.961412 
z
" style="fill:none;stroke:#ff9896;"/>
   </g>
   <g id="PathCollection_43">
    <path clip-path="url(#p591651ceae)" d="M 271.532086 76.891042 
C 272.46972 76.891042 273.369078 76.518516 274.032086 75.855508 
C 274.695093 75.192501 275.067619 74.293143 275.067619 73.355508 
C 275.067619 72.417874 274.695093 71.518516 274.032086 70.855508 
C 273.369078 70.192501 272.46972 69.819975 271.532086 69.819975 
C 270.594451 69.819975 269.695093 70.192501 269.032086 70.855508 
C 268.369078 71.518516 267.996552 72.417874 267.996552 73.355508 
C 267.996552 74.293143 268.369078 75.192501 269.032086 75.855508 
C 269.695093 76.518516 270.594451 76.891042 271.532086 76.891042 
z
" style="fill:none;stroke:#ff9896;"/>
   </g>
   <g id="PathCollection_44">
    <path clip-path="url(#p591651ceae)" d="M 276.505348 81.626144 
C 277.442982 81.626144 278.34234 81.253618 279.005348 80.59061 
C 279.668355 79.927603 280.040881 79.028245 280.040881 78.09061 
C 280.040881 77.152976 279.668355 76.253618 279.005348 75.59061 
C 278.34234 74.927603 277.442982 74.555076 276.505348 74.555076 
C 275.567713 74.555076 274.668355 74.927603 274.005348 75.59061 
C 273.34234 76.253618 272.969814 77.152976 272.969814 78.09061 
C 272.969814 79.028245 273.34234 79.927603 274.005348 80.59061 
C 274.668355 81.253618 275.567713 81.626144 276.505348 81.626144 
z
" style="fill:none;stroke:#ff9896;"/>
   </g>
   <g id="PathCollection_45">
    <path clip-path="url(#p591651ceae)" d="M 281.47861 86.08268 
C 282.416244 86.08268 283.315602 85.710153 283.97861 85.047146 
C 284.641617 84.384138 285.014144 83.48478 285.014144 82.547146 
C 285.014144 81.609511 284.641617 80.710153 283.97861 80.047146 
C 283.315602 79.384138 282.416244 79.011612 281.47861 79.011612 
C 280.540975 79.011612 279.641617 79.384138 278.97861 80.047146 
C 278.315602 80.710153 277.943076 81.609511 277.943076 82.547146 
C 277.943076 83.48478 278.315602 84.384138 278.97861 85.047146 
C 279.641617 85.710153 280.540975 86.08268 281.47861 86.08268 
z
" style="fill:none;stroke:#ff9896;"/>
   </g>
   <g id="PathCollection_46">
    <path clip-path="url(#p591651ceae)" d="M 286.451872 90.226125 
C 287.389506 90.226125 288.288864 89.853599 288.951872 89.190591 
C 289.614879 88.527584 289.987406 87.628226 289.987406 86.690591 
C 289.987406 85.752957 289.614879 84.853599 288.951872 84.190591 
C 288.288864 83.527584 287.389506 83.155057 286.451872 83.155057 
C 285.514237 83.155057 284.614879 83.527584 283.951872 84.190591 
C 283.288864 84.853599 282.916338 85.752957 282.916338 86.690591 
C 282.916338 87.628226 283.288864 88.527584 283.951872 89.190591 
C 284.614879 89.853599 285.514237 90.226125 286.451872 90.226125 
z
" style="fill:none;stroke:#ff9896;"/>
   </g>
   <g id="PathCollection_47">
    <path clip-path="url(#p591651ceae)" d="M 291.425134 94.088349 
C 292.362768 94.088349 293.262126 93.715822 293.925134 93.052815 
C 294.588141 92.389807 294.960668 91.490449 294.960668 90.552815 
C 294.960668 89.61518 294.588141 88.715822 293.925134 88.052815 
C 293.262126 87.389807 292.362768 87.017281 291.425134 87.017281 
C 290.487499 87.017281 289.588141 87.389807 288.925134 88.052815 
C 288.262126 88.715822 287.8896 89.61518 287.8896 90.552815 
C 287.8896 91.490449 288.262126 92.389807 288.925134 93.052815 
C 289.588141 93.715822 290.487499 94.088349 291.425134 94.088349 
z
" style="fill:none;stroke:#ff9896;"/>
   </g>
   <g id="PathCollection_48">
    <path clip-path="url(#p591651ceae)" d="M 296.398396 97.786602 
C 297.33603 97.786602 298.235388 97.414076 298.898396 96.751068 
C 299.561403 96.08806 299.93393 95.188703 299.93393 94.251068 
C 299.93393 93.313433 299.561403 92.414076 298.898396 91.751068 
C 298.235388 91.08806 297.33603 90.715534 296.398396 90.715534 
C 295.460761 90.715534 294.561403 91.08806 293.898396 91.751068 
C 293.235388 92.414076 292.862862 93.313433 292.862862 94.251068 
C 292.862862 95.188703 293.235388 96.08806 293.898396 96.751068 
C 294.561403 97.414076 295.460761 97.786602 296.398396 97.786602 
z
" style="fill:none;stroke:#ff9896;"/>
   </g>
   <g id="PathCollection_49">
    <path clip-path="url(#p591651ceae)" d="M 301.371658 101.544747 
C 302.309292 101.544747 303.20865 101.17222 303.871658 100.509213 
C 304.534666 99.846205 304.907192 98.946847 304.907192 98.009213 
C 304.907192 97.071578 304.534666 96.17222 303.871658 95.509213 
C 303.20865 94.846205 302.309292 94.473679 301.371658 94.473679 
C 300.434023 94.473679 299.534666 94.846205 298.871658 95.509213 
C 298.20865 96.17222 297.836124 97.071578 297.836124 98.009213 
C 297.836124 98.946847 298.20865 99.846205 298.871658 100.509213 
C 299.534666 101.17222 300.434023 101.544747 301.371658 101.544747 
z
" style="fill:none;stroke:#ff9896;"/>
   </g>
   <g id="PathCollection_50">
    <path clip-path="url(#p591651ceae)" d="M 306.34492 105.716806 
C 307.282554 105.716806 308.181912 105.344279 308.84492 104.681272 
C 309.507928 104.018264 309.880454 103.118906 309.880454 102.181272 
C 309.880454 101.243637 309.507928 100.344279 308.84492 99.681272 
C 308.181912 99.018264 307.282554 98.645738 306.34492 98.645738 
C 305.407285 98.645738 304.507928 99.018264 303.84492 99.681272 
C 303.181912 100.344279 302.809386 101.243637 302.809386 102.181272 
C 302.809386 103.118906 303.181912 104.018264 303.84492 104.681272 
C 304.507928 105.344279 305.407285 105.716806 306.34492 105.716806 
z
" style="fill:none;stroke:#ff9896;"/>
   </g>
   <g id="PathCollection_51">
    <path clip-path="url(#p591651ceae)" d="M 311.318182 110.812953 
C 312.255816 110.812953 313.155174 110.440426 313.818182 109.777419 
C 314.48119 109.114411 314.853716 108.215053 314.853716 107.277419 
C 314.853716 106.339784 314.48119 105.440426 313.818182 104.777419 
C 313.155174 104.114411 312.255816 103.741885 311.318182 103.741885 
C 310.380547 103.741885 309.48119 104.114411 308.818182 104.777419 
C 308.155174 105.440426 307.782648 106.339784 307.782648 107.277419 
C 307.782648 108.215053 308.155174 109.114411 308.818182 109.777419 
C 309.48119 110.440426 310.380547 110.812953 311.318182 110.812953 
z
" style="fill:none;stroke:#ff9896;"/>
   </g>
   <g id="PathCollection_52">
    <defs>
     <path d="M 0 3.535534 
C 0.937635 3.535534 1.836992 3.163008 2.5 2.5 
C 3.163008 1.836992 3.535534 0.937635 3.535534 0 
C 3.535534 -0.937635 3.163008 -1.836992 2.5 -2.5 
C 1.836992 -3.163008 0.937635 -3.535534 0 -3.535534 
C -0.937635 -3.535534 -1.836992 -3.163008 -2.5 -2.5 
C -3.163008 -1.836992 -3.535534 -0.937635 -3.535534 0 
C -3.535534 0.937635 -3.163008 1.836992 -2.5 2.5 
C -1.836992 3.163008 -0.937635 3.535534 0 3.535534 
z
" id="ma03ea0f268" style="stroke:#ff9896;"/>
    </defs>
    <g clip-path="url(#p591651ceae)">
     <use style="fill:#ff9896;stroke:#ff9896;" x="62.65508" xlink:href="#ma03ea0f268" y="179.958087"/>
    </g>
   </g>
   <g id="PathCollection_53">
    <g clip-path="url(#p591651ceae)">
     <use style="fill:#ff9896;stroke:#ff9896;" x="67.628342" xlink:href="#ma03ea0f268" y="181.103622"/>
    </g>
   </g>
   <g id="PathCollection_54">
    <g clip-path="url(#p591651ceae)">
     <use style="fill:#ff9896;stroke:#ff9896;" x="72.601604" xlink:href="#ma03ea0f268" y="181.208934"/>
    </g>
   </g>
   <g id="PathCollection_55">
    <g clip-path="url(#p591651ceae)">
     <use style="fill:#ff9896;stroke:#ff9896;" x="77.574866" xlink:href="#ma03ea0f268" y="180.496407"/>
    </g>
   </g>
   <g id="PathCollection_56">
    <g clip-path="url(#p591651ceae)">
     <use style="fill:#ff9896;stroke:#ff9896;" x="82.548128" xlink:href="#ma03ea0f268" y="179.118055"/>
    </g>
   </g>
   <g id="PathCollection_57">
    <g clip-path="url(#p591651ceae)">
     <use style="fill:#ff9896;stroke:#ff9896;" x="87.52139" xlink:href="#ma03ea0f268" y="177.179955"/>
    </g>
   </g>
   <g id="PathCollection_58">
    <g clip-path="url(#p591651ceae)">
     <use style="fill:#ff9896;stroke:#ff9896;" x="92.494652" xlink:href="#ma03ea0f268" y="174.744174"/>
    </g>
   </g>
   <g id="PathCollection_59">
    <g clip-path="url(#p591651ceae)">
     <use style="fill:#ff9896;stroke:#ff9896;" x="97.467914" xlink:href="#ma03ea0f268" y="171.844851"/>
    </g>
   </g>
   <g id="PathCollection_60">
    <g clip-path="url(#p591651ceae)">
     <use style="fill:#ff9896;stroke:#ff9896;" x="102.441176" xlink:href="#ma03ea0f268" y="168.496559"/>
    </g>
   </g>
   <g id="PathCollection_61">
    <g clip-path="url(#p591651ceae)">
     <use style="fill:#ff9896;stroke:#ff9896;" x="107.414439" xlink:href="#ma03ea0f268" y="164.702348"/>
    </g>
   </g>
   <g id="PathCollection_62">
    <g clip-path="url(#p591651ceae)">
     <use style="fill:#ff9896;stroke:#ff9896;" x="112.387701" xlink:href="#ma03ea0f268" y="160.460499"/>
    </g>
   </g>
   <g id="PathCollection_63">
    <g clip-path="url(#p591651ceae)">
     <use style="fill:#ff9896;stroke:#ff9896;" x="117.360963" xlink:href="#ma03ea0f268" y="155.770077"/>
    </g>
   </g>
   <g id="PathCollection_64">
    <g clip-path="url(#p591651ceae)">
     <use style="fill:#ff9896;stroke:#ff9896;" x="122.334225" xlink:href="#ma03ea0f268" y="150.635346"/>
    </g>
   </g>
   <g id="PathCollection_65">
    <g clip-path="url(#p591651ceae)">
     <use style="fill:#ff9896;stroke:#ff9896;" x="127.307487" xlink:href="#ma03ea0f268" y="145.069143"/>
    </g>
   </g>
   <g id="PathCollection_66">
    <g clip-path="url(#p591651ceae)">
     <use style="fill:#ff9896;stroke:#ff9896;" x="132.280749" xlink:href="#ma03ea0f268" y="139.09528"/>
    </g>
   </g>
   <g id="PathCollection_67">
    <g clip-path="url(#p591651ceae)">
     <use style="fill:#ff9896;stroke:#ff9896;" x="137.254011" xlink:href="#ma03ea0f268" y="132.750049"/>
    </g>
   </g>
   <g id="PathCollection_68">
    <g clip-path="url(#p591651ceae)">
     <use style="fill:#ff9896;stroke:#ff9896;" x="142.227273" xlink:href="#ma03ea0f268" y="126.082926"/>
    </g>
   </g>
   <g id="PathCollection_69">
    <g clip-path="url(#p591651ceae)">
     <use style="fill:#ff9896;stroke:#ff9896;" x="147.200535" xlink:href="#ma03ea0f268" y="119.156538"/>
    </g>
   </g>
   <g id="PathCollection_70">
    <g clip-path="url(#p591651ceae)">
     <use style="fill:#ff9896;stroke:#ff9896;" x="152.173797" xlink:href="#ma03ea0f268" y="112.045973"/>
    </g>
   </g>
   <g id="PathCollection_71">
    <g clip-path="url(#p591651ceae)">
     <use style="fill:#ff9896;stroke:#ff9896;" x="157.147059" xlink:href="#ma03ea0f268" y="104.837524"/>
    </g>
   </g>
   <g id="PathCollection_72">
    <g clip-path="url(#p591651ceae)">
     <use style="fill:#ff9896;stroke:#ff9896;" x="162.120321" xlink:href="#ma03ea0f268" y="97.626933"/>
    </g>
   </g>
   <g id="PathCollection_73">
    <g clip-path="url(#p591651ceae)">
     <use style="fill:#ff9896;stroke:#ff9896;" x="167.093583" xlink:href="#ma03ea0f268" y="90.517222"/>
    </g>
   </g>
   <g id="PathCollection_74">
    <g clip-path="url(#p591651ceae)">
     <use style="fill:#ff9896;stroke:#ff9896;" x="172.066845" xlink:href="#ma03ea0f268" y="83.616188"/>
    </g>
   </g>
   <g id="PathCollection_75">
    <g clip-path="url(#p591651ceae)">
     <use style="fill:#ff9896;stroke:#ff9896;" x="177.040107" xlink:href="#ma03ea0f268" y="77.033642"/>
    </g>
   </g>
   <g id="PathCollection_76">
    <g clip-path="url(#p591651ceae)">
     <use style="fill:#ff9896;stroke:#ff9896;" x="182.013369" xlink:href="#ma03ea0f268" y="70.878468"/>
    </g>
   </g>
   <g id="PathCollection_77">
    <g clip-path="url(#p591651ceae)">
     <use style="fill:#ff9896;stroke:#ff9896;" x="186.986631" xlink:href="#ma03ea0f268" y="65.255584"/>
    </g>
   </g>
   <g id="PathCollection_78">
    <g clip-path="url(#p591651ceae)">
     <use style="fill:#ff9896;stroke:#ff9896;" x="191.959893" xlink:href="#ma03ea0f268" y="60.26289"/>
    </g>
   </g>
   <g id="PathCollection_79">
    <g clip-path="url(#p591651ceae)">
     <use style="fill:#ff9896;stroke:#ff9896;" x="196.933155" xlink:href="#ma03ea0f268" y="55.988267"/>
    </g>
   </g>
   <g id="PathCollection_80">
    <g clip-path="url(#p591651ceae)">
     <use style="fill:#ff9896;stroke:#ff9896;" x="201.906417" xlink:href="#ma03ea0f268" y="52.506725"/>
    </g>
   </g>
   <g id="PathCollection_81">
    <g clip-path="url(#p591651ceae)">
     <use style="fill:#ff9896;stroke:#ff9896;" x="206.879679" xlink:href="#ma03ea0f268" y="49.877757"/>
    </g>
   </g>
   <g id="PathCollection_82">
    <g clip-path="url(#p591651ceae)">
     <use style="fill:#ff9896;stroke:#ff9896;" x="211.852941" xlink:href="#ma03ea0f268" y="48.143007"/>
    </g>
   </g>
   <g id="PathCollection_83">
    <g clip-path="url(#p591651ceae)">
     <use style="fill:#ff9896;stroke:#ff9896;" x="216.826203" xlink:href="#ma03ea0f268" y="47.324304"/>
    </g>
   </g>
   <g id="PathCollection_84">
    <g clip-path="url(#p591651ceae)">
     <use style="fill:#ff9896;stroke:#ff9896;" x="221.799465" xlink:href="#ma03ea0f268" y="47.422154"/>
    </g>
   </g>
   <g id="PathCollection_85">
    <g clip-path="url(#p591651ceae)">
     <use style="fill:#ff9896;stroke:#ff9896;" x="226.772727" xlink:href="#ma03ea0f268" y="48.414771"/>
    </g>
   </g>
   <g id="PathCollection_86">
    <g clip-path="url(#p591651ceae)">
     <use style="fill:#ff9896;stroke:#ff9896;" x="231.745989" xlink:href="#ma03ea0f268" y="50.25772"/>
    </g>
   </g>
   <g id="PathCollection_87">
    <g clip-path="url(#p591651ceae)">
     <use style="fill:#ff9896;stroke:#ff9896;" x="236.719251" xlink:href="#ma03ea0f268" y="52.884257"/>
    </g>
   </g>
   <g id="PathCollection_88">
    <g clip-path="url(#p591651ceae)">
     <use style="fill:#ff9896;stroke:#ff9896;" x="241.692513" xlink:href="#ma03ea0f268" y="56.20644"/>
    </g>
   </g>
   <g id="PathCollection_89">
    <g clip-path="url(#p591651ceae)">
     <use style="fill:#ff9896;stroke:#ff9896;" x="246.665775" xlink:href="#ma03ea0f268" y="60.117091"/>
    </g>
   </g>
   <g id="PathCollection_90">
    <g clip-path="url(#p591651ceae)">
     <use style="fill:#ff9896;stroke:#ff9896;" x="251.639037" xlink:href="#ma03ea0f268" y="64.492697"/>
    </g>
   </g>
   <g id="PathCollection_91">
    <g clip-path="url(#p591651ceae)">
     <use style="fill:#ff9896;stroke:#ff9896;" x="256.612299" xlink:href="#ma03ea0f268" y="69.197313"/>
    </g>
   </g>
   <g id="PathCollection_92">
    <g clip-path="url(#p591651ceae)">
     <use style="fill:#ff9896;stroke:#ff9896;" x="261.585561" xlink:href="#ma03ea0f268" y="74.087563"/>
    </g>
   </g>
   <g id="PathCollection_93">
    <g clip-path="url(#p591651ceae)">
     <use style="fill:#ff9896;stroke:#ff9896;" x="266.558824" xlink:href="#ma03ea0f268" y="79.018806"/>
    </g>
   </g>
   <g id="PathCollection_94">
    <g clip-path="url(#p591651ceae)">
     <use style="fill:#ff9896;stroke:#ff9896;" x="271.532086" xlink:href="#ma03ea0f268" y="83.85255"/>
    </g>
   </g>
   <g id="PathCollection_95">
    <g clip-path="url(#p591651ceae)">
     <use style="fill:#ff9896;stroke:#ff9896;" x="276.505348" xlink:href="#ma03ea0f268" y="88.465203"/>
    </g>
   </g>
   <g id="PathCollection_96">
    <g clip-path="url(#p591651ceae)">
     <use style="fill:#ff9896;stroke:#ff9896;" x="281.47861" xlink:href="#ma03ea0f268" y="92.758218"/>
    </g>
   </g>
   <g id="PathCollection_97">
    <g clip-path="url(#p591651ceae)">
     <use style="fill:#ff9896;stroke:#ff9896;" x="286.451872" xlink:href="#ma03ea0f268" y="96.669734"/>
    </g>
   </g>
   <g id="PathCollection_98">
    <g clip-path="url(#p591651ceae)">
     <use style="fill:#ff9896;stroke:#ff9896;" x="291.425134" xlink:href="#ma03ea0f268" y="100.187781"/>
    </g>
   </g>
   <g id="PathCollection_99">
    <g clip-path="url(#p591651ceae)">
     <use style="fill:#ff9896;stroke:#ff9896;" x="296.398396" xlink:href="#ma03ea0f268" y="103.365128"/>
    </g>
   </g>
   <g id="PathCollection_100">
    <g clip-path="url(#p591651ceae)">
     <use style="fill:#ff9896;stroke:#ff9896;" x="301.371658" xlink:href="#ma03ea0f268" y="106.335856"/>
    </g>
   </g>
   <g id="PathCollection_101">
    <g clip-path="url(#p591651ceae)">
     <use style="fill:#ff9896;stroke:#ff9896;" x="306.34492" xlink:href="#ma03ea0f268" y="109.333737"/>
    </g>
   </g>
   <g id="PathCollection_102">
    <g clip-path="url(#p591651ceae)">
     <use style="fill:#ff9896;stroke:#ff9896;" x="311.318182" xlink:href="#ma03ea0f268" y="112.712491"/>
    </g>
   </g>
   <g id="matplotlib.axis_1"/>
   <g id="matplotlib.axis_2">
    <g id="ytick_1">
     <g id="line2d_1">
      <defs>
       <path d="M 0 0 
L -3.5 0 
" id="m6ee456bc5a" style="stroke:#000000;stroke-width:0.8;"/>
      </defs>
      <g>
       <use style="stroke:#000000;stroke-width:0.8;" x="45" xlink:href="#m6ee456bc5a" y="179.757728"/>
      </g>
     </g>
     <g id="text_1">
      <!-- 0.0 -->
      <g transform="translate(22.096875 183.556946)scale(0.1 -0.1)">
       <defs>
        <path d="M 31.78125 66.40625 
Q 24.171875 66.40625 20.328125 58.90625 
Q 16.5 51.421875 16.5 36.375 
Q 16.5 21.390625 20.328125 13.890625 
Q 24.171875 6.390625 31.78125 6.390625 
Q 39.453125 6.390625 43.28125 13.890625 
Q 47.125 21.390625 47.125 36.375 
Q 47.125 51.421875 43.28125 58.90625 
Q 39.453125 66.40625 31.78125 66.40625 
z
M 31.78125 74.21875 
Q 44.046875 74.21875 50.515625 64.515625 
Q 56.984375 54.828125 56.984375 36.375 
Q 56.984375 17.96875 50.515625 8.265625 
Q 44.046875 -1.421875 31.78125 -1.421875 
Q 19.53125 -1.421875 13.0625 8.265625 
Q 6.59375 17.96875 6.59375 36.375 
Q 6.59375 54.828125 13.0625 64.515625 
Q 19.53125 74.21875 31.78125 74.21875 
z
" id="DejaVuSans-48"/>
        <path d="M 10.6875 12.40625 
L 21 12.40625 
L 21 0 
L 10.6875 0 
z
" id="DejaVuSans-46"/>
       </defs>
       <use xlink:href="#DejaVuSans-48"/>
       <use x="63.623047" xlink:href="#DejaVuSans-46"/>
       <use x="95.410156" xlink:href="#DejaVuSans-48"/>
      </g>
     </g>
    </g>
    <g id="ytick_2">
     <g id="line2d_2">
      <g>
       <use style="stroke:#000000;stroke-width:0.8;" x="45" xlink:href="#m6ee456bc5a" y="148.979397"/>
      </g>
     </g>
     <g id="text_2">
      <!-- 0.1 -->
      <g transform="translate(22.096875 152.778616)scale(0.1 -0.1)">
       <defs>
        <path d="M 12.40625 8.296875 
L 28.515625 8.296875 
L 28.515625 63.921875 
L 10.984375 60.40625 
L 10.984375 69.390625 
L 28.421875 72.90625 
L 38.28125 72.90625 
L 38.28125 8.296875 
L 54.390625 8.296875 
L 54.390625 0 
L 12.40625 0 
z
" id="DejaVuSans-49"/>
       </defs>
       <use xlink:href="#DejaVuSans-48"/>
       <use x="63.623047" xlink:href="#DejaVuSans-46"/>
       <use x="95.410156" xlink:href="#DejaVuSans-49"/>
      </g>
     </g>
    </g>
    <g id="ytick_3">
     <g id="line2d_3">
      <g>
       <use style="stroke:#000000;stroke-width:0.8;" x="45" xlink:href="#m6ee456bc5a" y="118.201067"/>
      </g>
     </g>
     <g id="text_3">
      <!-- 0.2 -->
      <g transform="translate(22.096875 122.000286)scale(0.1 -0.1)">
       <defs>
        <path d="M 19.1875 8.296875 
L 53.609375 8.296875 
L 53.609375 0 
L 7.328125 0 
L 7.328125 8.296875 
Q 12.9375 14.109375 22.625 23.890625 
Q 32.328125 33.6875 34.8125 36.53125 
Q 39.546875 41.84375 41.421875 45.53125 
Q 43.3125 49.21875 43.3125 52.78125 
Q 43.3125 58.59375 39.234375 62.25 
Q 35.15625 65.921875 28.609375 65.921875 
Q 23.96875 65.921875 18.8125 64.3125 
Q 13.671875 62.703125 7.8125 59.421875 
L 7.8125 69.390625 
Q 13.765625 71.78125 18.9375 73 
Q 24.125 74.21875 28.421875 74.21875 
Q 39.75 74.21875 46.484375 68.546875 
Q 53.21875 62.890625 53.21875 53.421875 
Q 53.21875 48.921875 51.53125 44.890625 
Q 49.859375 40.875 45.40625 35.40625 
Q 44.1875 33.984375 37.640625 27.21875 
Q 31.109375 20.453125 19.1875 8.296875 
z
" id="DejaVuSans-50"/>
       </defs>
       <use xlink:href="#DejaVuSans-48"/>
       <use x="63.623047" xlink:href="#DejaVuSans-46"/>
       <use x="95.410156" xlink:href="#DejaVuSans-50"/>
      </g>
     </g>
    </g>
    <g id="ytick_4">
     <g id="line2d_4">
      <g>
       <use style="stroke:#000000;stroke-width:0.8;" x="45" xlink:href="#m6ee456bc5a" y="87.422737"/>
      </g>
     </g>
     <g id="text_4">
      <!-- 0.3 -->
      <g transform="translate(22.096875 91.221955)scale(0.1 -0.1)">
       <defs>
        <path d="M 40.578125 39.3125 
Q 47.65625 37.796875 51.625 33 
Q 55.609375 28.21875 55.609375 21.1875 
Q 55.609375 10.40625 48.1875 4.484375 
Q 40.765625 -1.421875 27.09375 -1.421875 
Q 22.515625 -1.421875 17.65625 -0.515625 
Q 12.796875 0.390625 7.625 2.203125 
L 7.625 11.71875 
Q 11.71875 9.328125 16.59375 8.109375 
Q 21.484375 6.890625 26.8125 6.890625 
Q 36.078125 6.890625 40.9375 10.546875 
Q 45.796875 14.203125 45.796875 21.1875 
Q 45.796875 27.640625 41.28125 31.265625 
Q 36.765625 34.90625 28.71875 34.90625 
L 20.21875 34.90625 
L 20.21875 43.015625 
L 29.109375 43.015625 
Q 36.375 43.015625 40.234375 45.921875 
Q 44.09375 48.828125 44.09375 54.296875 
Q 44.09375 59.90625 40.109375 62.90625 
Q 36.140625 65.921875 28.71875 65.921875 
Q 24.65625 65.921875 20.015625 65.03125 
Q 15.375 64.15625 9.8125 62.3125 
L 9.8125 71.09375 
Q 15.4375 72.65625 20.34375 73.4375 
Q 25.25 74.21875 29.59375 74.21875 
Q 40.828125 74.21875 47.359375 69.109375 
Q 53.90625 64.015625 53.90625 55.328125 
Q 53.90625 49.265625 50.4375 45.09375 
Q 46.96875 40.921875 40.578125 39.3125 
z
" id="DejaVuSans-51"/>
       </defs>
       <use xlink:href="#DejaVuSans-48"/>
       <use x="63.623047" xlink:href="#DejaVuSans-46"/>
       <use x="95.410156" xlink:href="#DejaVuSans-51"/>
      </g>
     </g>
    </g>
    <g id="ytick_5">
     <g id="line2d_5">
      <g>
       <use style="stroke:#000000;stroke-width:0.8;" x="45" xlink:href="#m6ee456bc5a" y="56.644406"/>
      </g>
     </g>
     <g id="text_5">
      <!-- 0.4 -->
      <g transform="translate(22.096875 60.443625)scale(0.1 -0.1)">
       <defs>
        <path d="M 37.796875 64.3125 
L 12.890625 25.390625 
L 37.796875 25.390625 
z
M 35.203125 72.90625 
L 47.609375 72.90625 
L 47.609375 25.390625 
L 58.015625 25.390625 
L 58.015625 17.1875 
L 47.609375 17.1875 
L 47.609375 0 
L 37.796875 0 
L 37.796875 17.1875 
L 4.890625 17.1875 
L 4.890625 26.703125 
z
" id="DejaVuSans-52"/>
       </defs>
       <use xlink:href="#DejaVuSans-48"/>
       <use x="63.623047" xlink:href="#DejaVuSans-46"/>
       <use x="95.410156" xlink:href="#DejaVuSans-52"/>
      </g>
     </g>
    </g>
   </g>
   <g id="line2d_6">
    <path clip-path="url(#p591651ceae)" d="M 57.681818 179.757728 
L 86.298797 179.646986 
L 88.764706 179.340652 
L 91.189171 178.814453 
L 93.675802 178.046098 
L 96.286765 177.003417 
L 99.022059 175.669214 
L 101.923128 174.00355 
L 105.010695 171.970071 
L 108.305481 169.529686 
L 111.869652 166.605213 
L 115.703209 163.164299 
L 119.868316 159.119543 
L 124.406417 154.397711 
L 129.483289 148.784955 
L 135.223262 142.094379 
L 141.812834 134.06071 
L 149.915107 123.812599 
L 160.980615 109.430503 
L 188.685829 73.306057 
L 199.129679 60.141018 
L 206.320187 51.387926 
L 209.241979 48.191138 
L 211.977273 45.524924 
L 214.671123 43.205907 
L 217.364973 41.176264 
L 220.079545 39.406513 
L 222.81484 37.885782 
L 225.591578 36.594557 
L 228.409759 35.527439 
L 231.290107 34.673334 
L 234.253342 34.027109 
L 237.299465 33.591082 
L 240.449198 33.365545 
L 243.723262 33.355084 
L 247.14238 33.567919 
L 250.727273 34.015256 
L 254.519385 34.715038 
L 258.539439 35.685837 
L 262.828877 36.95333 
L 267.449866 38.55453 
L 272.464572 40.532219 
L 277.955882 42.941774 
L 284.06885 45.8726 
L 291.010695 49.453922 
L 299.195856 53.935749 
L 309.57754 59.88817 
L 311.318182 60.905454 
L 311.318182 60.905454 
" style="fill:none;stroke:#ff9896;stroke-dasharray:11.1,4.8;stroke-dashoffset:0;stroke-width:3;"/>
   </g>
   <g id="line2d_7">
    <path clip-path="url(#p591651ceae)" d="M 57.681818 179.757728 
L 86.381684 179.647202 
L 88.909759 179.341508 
L 91.39639 178.817831 
L 93.965909 178.048642 
L 96.659759 177.007433 
L 99.498663 175.668027 
L 102.503342 174.000528 
L 105.694519 171.971785 
L 109.113636 169.529913 
L 112.781417 166.632585 
L 116.739305 163.21882 
L 121.070187 159.183318 
L 125.815508 154.451937 
L 131.141043 148.818189 
L 137.129679 142.151913 
L 144.216578 133.917715 
L 153.127005 123.201584 
L 167.404412 105.623412 
L 186.157754 82.610452 
L 197.140374 69.50134 
L 205.719251 59.587993 
L 208.786096 56.369129 
L 211.562834 53.77298 
L 214.31885 51.498889 
L 217.074866 49.512016 
L 219.851604 47.78338 
L 222.649064 46.301726 
L 225.487968 45.047623 
L 228.389037 44.008558 
L 231.352273 43.183075 
L 234.398396 42.565453 
L 237.548128 42.15502 
L 240.801471 41.956052 
L 244.199866 41.972715 
L 247.743316 42.213655 
L 251.473262 42.691591 
L 255.43115 43.425976 
L 259.637701 44.436157 
L 264.134358 45.747853 
L 268.983289 47.397063 
L 274.26738 49.432793 
L 280.110963 51.927589 
L 286.659091 54.970737 
L 294.222594 58.738682 
L 303.360963 63.549994 
L 311.318182 67.888879 
L 311.318182 67.888879 
" style="fill:none;stroke:#ff9896;stroke-linecap:square;stroke-width:3;"/>
   </g>
   <g id="patch_3">
    <path d="M 45 189 
L 45 25.92 
" style="fill:none;stroke:#000000;stroke-linecap:square;stroke-linejoin:miter;stroke-width:0.8;"/>
   </g>
   <g id="patch_4">
    <path d="M 324 189 
L 324 25.92 
" style="fill:none;stroke:#000000;stroke-linecap:square;stroke-linejoin:miter;stroke-width:0.8;"/>
   </g>
   <g id="patch_5">
    <path d="M 45 189 
L 324 189 
" style="fill:none;stroke:#000000;stroke-linecap:square;stroke-linejoin:miter;stroke-width:0.8;"/>
   </g>
   <g id="patch_6">
    <path d="M 45 25.92 
L 324 25.92 
" style="fill:none;stroke:#000000;stroke-linecap:square;stroke-linejoin:miter;stroke-width:0.8;"/>
   </g>
  </g>
 </g>
 <defs>
  <clipPath id="p591651ceae">
   <rect height="163.08" width="279" x="45" y="25.92"/>
  </clipPath>
 </defs>
</svg>
