<?xml version="1.0" encoding="utf-8" standalone="no"?>
<!DOCTYPE svg PUBLIC "-//W3C//DTD SVG 1.1//EN"
  "http://www.w3.org/Graphics/SVG/1.1/DTD/svg11.dtd">
<!-- Created with matplotlib (https://matplotlib.org/) -->
<svg height="216pt" version="1.1" viewBox="0 0 360 216" width="360pt" xmlns="http://www.w3.org/2000/svg" xmlns:xlink="http://www.w3.org/1999/xlink">
 <metadata>
  <rdf:RDF xmlns:cc="http://creativecommons.org/ns#" xmlns:dc="http://purl.org/dc/elements/1.1/" xmlns:rdf="http://www.w3.org/1999/02/22-rdf-syntax-ns#">
   <cc:Work>
    <dc:type rdf:resource="http://purl.org/dc/dcmitype/StillImage"/>
    <dc:date>2024-12-12T14:07:55.547330</dc:date>
    <dc:format>image/svg+xml</dc:format>
    <dc:creator>
     <cc:Agent>
      <dc:title>Matplotlib v3.3.2, https://matplotlib.org/</dc:title>
     </cc:Agent>
    </dc:creator>
   </cc:Work>
  </rdf:RDF>
 </metadata>
 <defs>
  <style type="text/css">*{stroke-linecap:butt;stroke-linejoin:round;}</style>
 </defs>
 <g id="figure_1">
  <g id="patch_1">
   <path d="M 0 216 
L 360 216 
L 360 0 
L 0 0 
z
" style="fill:none;"/>
  </g>
  <g id="axes_1">
   <g id="patch_2">
    <path d="M 45 189 
L 324 189 
L 324 25.92 
L 45 25.92 
z
" style="fill:#ffffff;"/>
   </g>
   <g id="PathCollection_1">
    <path clip-path="url(#p46518269eb)" d="M 62.65508 184.773634 
C 63.592715 184.773634 64.492072 184.401108 65.15508 183.7381 
C 65.818088 183.075093 66.190614 182.175735 66.190614 181.2381 
C 66.190614 180.300466 65.818088 179.401108 65.15508 178.7381 
C 64.492072 178.075093 63.592715 177.702567 62.65508 177.702567 
C 61.717446 177.702567 60.818088 178.075093 60.15508 178.7381 
C 59.492072 179.401108 59.119546 180.300466 59.119546 181.2381 
C 59.119546 182.175735 59.492072 183.075093 60.15508 183.7381 
C 60.818088 184.401108 61.717446 184.773634 62.65508 184.773634 
z
" style="fill:none;stroke:#9467bd;"/>
   </g>
   <g id="PathCollection_2">
    <path clip-path="url(#p46518269eb)" d="M 67.628342 184.914974 
C 68.565977 184.914974 69.465334 184.542447 70.128342 183.87944 
C 70.79135 183.216432 71.163876 182.317074 71.163876 181.37944 
C 71.163876 180.441805 70.79135 179.542447 70.128342 178.87944 
C 69.465334 178.216432 68.565977 177.843906 67.628342 177.843906 
C 66.690708 177.843906 65.79135 178.216432 65.128342 178.87944 
C 64.465334 179.542447 64.092808 180.441805 64.092808 181.37944 
C 64.092808 182.317074 64.465334 183.216432 65.128342 183.87944 
C 65.79135 184.542447 66.690708 184.914974 67.628342 184.914974 
z
" style="fill:none;stroke:#9467bd;"/>
   </g>
   <g id="PathCollection_3">
    <path clip-path="url(#p46518269eb)" d="M 72.601604 185.122807 
C 73.539239 185.122807 74.438597 184.75028 75.101604 184.087273 
C 75.764612 183.424265 76.137138 182.524907 76.137138 181.587273 
C 76.137138 180.649638 75.764612 179.75028 75.101604 179.087273 
C 74.438597 178.424265 73.539239 178.051739 72.601604 178.051739 
C 71.66397 178.051739 70.764612 178.424265 70.101604 179.087273 
C 69.438597 179.75028 69.06607 180.649638 69.06607 181.587273 
C 69.06607 182.524907 69.438597 183.424265 70.101604 184.087273 
C 70.764612 184.75028 71.66397 185.122807 72.601604 185.122807 
z
" style="fill:none;stroke:#9467bd;"/>
   </g>
   <g id="PathCollection_4">
    <path clip-path="url(#p46518269eb)" d="M 77.574866 185.099603 
C 78.512501 185.099603 79.411859 184.727077 80.074866 184.064069 
C 80.737874 183.401062 81.1104 182.501704 81.1104 181.564069 
C 81.1104 180.626435 80.737874 179.727077 80.074866 179.064069 
C 79.411859 178.401062 78.512501 178.028536 77.574866 178.028536 
C 76.637232 178.028536 75.737874 178.401062 75.074866 179.064069 
C 74.411859 179.727077 74.039332 180.626435 74.039332 181.564069 
C 74.039332 182.501704 74.411859 183.401062 75.074866 184.064069 
C 75.737874 184.727077 76.637232 185.099603 77.574866 185.099603 
z
" style="fill:none;stroke:#9467bd;"/>
   </g>
   <g id="PathCollection_5">
    <path clip-path="url(#p46518269eb)" d="M 82.548128 184.640818 
C 83.485763 184.640818 84.385121 184.268292 85.048128 183.605284 
C 85.711136 182.942276 86.083662 182.042919 86.083662 181.105284 
C 86.083662 180.16765 85.711136 179.268292 85.048128 178.605284 
C 84.385121 177.942276 83.485763 177.56975 82.548128 177.56975 
C 81.610494 177.56975 80.711136 177.942276 80.048128 178.605284 
C 79.385121 179.268292 79.012594 180.16765 79.012594 181.105284 
C 79.012594 182.042919 79.385121 182.942276 80.048128 183.605284 
C 80.711136 184.268292 81.610494 184.640818 82.548128 184.640818 
z
" style="fill:none;stroke:#9467bd;"/>
   </g>
   <g id="PathCollection_6">
    <path clip-path="url(#p46518269eb)" d="M 87.52139 183.619072 
C 88.459025 183.619072 89.358383 183.246545 90.02139 182.583538 
C 90.684398 181.92053 91.056924 181.021172 91.056924 180.083538 
C 91.056924 179.145903 90.684398 178.246545 90.02139 177.583538 
C 89.358383 176.92053 88.459025 176.548004 87.52139 176.548004 
C 86.583756 176.548004 85.684398 176.92053 85.02139 177.583538 
C 84.358383 178.246545 83.985856 179.145903 83.985856 180.083538 
C 83.985856 181.021172 84.358383 181.92053 85.02139 182.583538 
C 85.684398 183.246545 86.583756 183.619072 87.52139 183.619072 
z
" style="fill:none;stroke:#9467bd;"/>
   </g>
   <g id="PathCollection_7">
    <path clip-path="url(#p46518269eb)" d="M 92.494652 181.969942 
C 93.432287 181.969942 94.331645 181.597415 94.994652 180.934408 
C 95.65766 180.2714 96.030186 179.372042 96.030186 178.434408 
C 96.030186 177.496773 95.65766 176.597415 94.994652 175.934408 
C 94.331645 175.2714 93.432287 174.898874 92.494652 174.898874 
C 91.557018 174.898874 90.65766 175.2714 89.994652 175.934408 
C 89.331645 176.597415 88.959119 177.496773 88.959119 178.434408 
C 88.959119 179.372042 89.331645 180.2714 89.994652 180.934408 
C 90.65766 181.597415 91.557018 181.969942 92.494652 181.969942 
z
" style="fill:none;stroke:#9467bd;"/>
   </g>
   <g id="PathCollection_8">
    <path clip-path="url(#p46518269eb)" d="M 97.467914 179.679186 
C 98.405549 179.679186 99.304907 179.30666 99.967914 178.643652 
C 100.630922 177.980645 101.003448 177.081287 101.003448 176.143652 
C 101.003448 175.206018 100.630922 174.30666 99.967914 173.643652 
C 99.304907 172.980645 98.405549 172.608118 97.467914 172.608118 
C 96.53028 172.608118 95.630922 172.980645 94.967914 173.643652 
C 94.304907 174.30666 93.932381 175.206018 93.932381 176.143652 
C 93.932381 177.081287 94.304907 177.980645 94.967914 178.643652 
C 95.630922 179.30666 96.53028 179.679186 97.467914 179.679186 
z
" style="fill:none;stroke:#9467bd;"/>
   </g>
   <g id="PathCollection_9">
    <path clip-path="url(#p46518269eb)" d="M 102.441176 176.771436 
C 103.378811 176.771436 104.278169 176.39891 104.941176 175.735902 
C 105.604184 175.072894 105.97671 174.173536 105.97671 173.235902 
C 105.97671 172.298267 105.604184 171.39891 104.941176 170.735902 
C 104.278169 170.072894 103.378811 169.700368 102.441176 169.700368 
C 101.503542 169.700368 100.604184 170.072894 99.941176 170.735902 
C 99.278169 171.39891 98.905643 172.298267 98.905643 173.235902 
C 98.905643 174.173536 99.278169 175.072894 99.941176 175.735902 
C 100.604184 176.39891 101.503542 176.771436 102.441176 176.771436 
z
" style="fill:none;stroke:#9467bd;"/>
   </g>
   <g id="PathCollection_10">
    <path clip-path="url(#p46518269eb)" d="M 107.414439 173.300213 
C 108.352073 173.300213 109.251431 172.927687 109.914439 172.264679 
C 110.577446 171.601671 110.949972 170.702314 110.949972 169.764679 
C 110.949972 168.827045 110.577446 167.927687 109.914439 167.264679 
C 109.251431 166.601671 108.352073 166.229145 107.414439 166.229145 
C 106.476804 166.229145 105.577446 166.601671 104.914439 167.264679 
C 104.251431 167.927687 103.878905 168.827045 103.878905 169.764679 
C 103.878905 170.702314 104.251431 171.601671 104.914439 172.264679 
C 105.577446 172.927687 106.476804 173.300213 107.414439 173.300213 
z
" style="fill:none;stroke:#9467bd;"/>
   </g>
   <g id="PathCollection_11">
    <path clip-path="url(#p46518269eb)" d="M 112.387701 169.339238 
C 113.325335 169.339238 114.224693 168.966712 114.887701 168.303704 
C 115.550708 167.640696 115.923234 166.741339 115.923234 165.803704 
C 115.923234 164.86607 115.550708 163.966712 114.887701 163.303704 
C 114.224693 162.640696 113.325335 162.26817 112.387701 162.26817 
C 111.450066 162.26817 110.550708 162.640696 109.887701 163.303704 
C 109.224693 163.966712 108.852167 164.86607 108.852167 165.803704 
C 108.852167 166.741339 109.224693 167.640696 109.887701 168.303704 
C 110.550708 168.966712 111.450066 169.339238 112.387701 169.339238 
z
" style="fill:none;stroke:#9467bd;"/>
   </g>
   <g id="PathCollection_12">
    <path clip-path="url(#p46518269eb)" d="M 117.360963 164.974936 
C 118.298597 164.974936 119.197955 164.60241 119.860963 163.939402 
C 120.52397 163.276394 120.896496 162.377037 120.896496 161.439402 
C 120.896496 160.501768 120.52397 159.60241 119.860963 158.939402 
C 119.197955 158.276394 118.298597 157.903868 117.360963 157.903868 
C 116.423328 157.903868 115.52397 158.276394 114.860963 158.939402 
C 114.197955 159.60241 113.825429 160.501768 113.825429 161.439402 
C 113.825429 162.377037 114.197955 163.276394 114.860963 163.939402 
C 115.52397 164.60241 116.423328 164.974936 117.360963 164.974936 
z
" style="fill:none;stroke:#9467bd;"/>
   </g>
   <g id="PathCollection_13">
    <path clip-path="url(#p46518269eb)" d="M 122.334225 160.300083 
C 123.271859 160.300083 124.171217 159.927556 124.834225 159.264549 
C 125.497232 158.601541 125.869759 157.702183 125.869759 156.764549 
C 125.869759 155.826914 125.497232 154.927556 124.834225 154.264549 
C 124.171217 153.601541 123.271859 153.229015 122.334225 153.229015 
C 121.39659 153.229015 120.497232 153.601541 119.834225 154.264549 
C 119.171217 154.927556 118.798691 155.826914 118.798691 156.764549 
C 118.798691 157.702183 119.171217 158.601541 119.834225 159.264549 
C 120.497232 159.927556 121.39659 160.300083 122.334225 160.300083 
z
" style="fill:none;stroke:#9467bd;"/>
   </g>
   <g id="PathCollection_14">
    <path clip-path="url(#p46518269eb)" d="M 127.307487 155.408511 
C 128.245121 155.408511 129.144479 155.035985 129.807487 154.372977 
C 130.470494 153.709969 130.843021 152.810611 130.843021 151.872977 
C 130.843021 150.935342 130.470494 150.035985 129.807487 149.372977 
C 129.144479 148.709969 128.245121 148.337443 127.307487 148.337443 
C 126.369852 148.337443 125.470494 148.709969 124.807487 149.372977 
C 124.144479 150.035985 123.771953 150.935342 123.771953 151.872977 
C 123.771953 152.810611 124.144479 153.709969 124.807487 154.372977 
C 125.470494 155.035985 126.369852 155.408511 127.307487 155.408511 
z
" style="fill:none;stroke:#9467bd;"/>
   </g>
   <g id="PathCollection_15">
    <path clip-path="url(#p46518269eb)" d="M 132.280749 150.390811 
C 133.218383 150.390811 134.117741 150.018285 134.780749 149.355277 
C 135.443756 148.692269 135.816283 147.792912 135.816283 146.855277 
C 135.816283 145.917643 135.443756 145.018285 134.780749 144.355277 
C 134.117741 143.692269 133.218383 143.319743 132.280749 143.319743 
C 131.343114 143.319743 130.443756 143.692269 129.780749 144.355277 
C 129.117741 145.018285 128.745215 145.917643 128.745215 146.855277 
C 128.745215 147.792912 129.117741 148.692269 129.780749 149.355277 
C 130.443756 150.018285 131.343114 150.390811 132.280749 150.390811 
z
" style="fill:none;stroke:#9467bd;"/>
   </g>
   <g id="PathCollection_16">
    <path clip-path="url(#p46518269eb)" d="M 137.254011 145.330948 
C 138.191645 145.330948 139.091003 144.958422 139.754011 144.295414 
C 140.417018 143.632406 140.789545 142.733049 140.789545 141.795414 
C 140.789545 140.85778 140.417018 139.958422 139.754011 139.295414 
C 139.091003 138.632406 138.191645 138.25988 137.254011 138.25988 
C 136.316376 138.25988 135.417018 138.632406 134.754011 139.295414 
C 134.091003 139.958422 133.718477 140.85778 133.718477 141.795414 
C 133.718477 142.733049 134.091003 143.632406 134.754011 144.295414 
C 135.417018 144.958422 136.316376 145.330948 137.254011 145.330948 
z
" style="fill:none;stroke:#9467bd;"/>
   </g>
   <g id="PathCollection_17">
    <path clip-path="url(#p46518269eb)" d="M 142.227273 140.30373 
C 143.164907 140.30373 144.064265 139.931204 144.727273 139.268196 
C 145.39028 138.605188 145.762807 137.70583 145.762807 136.768196 
C 145.762807 135.830561 145.39028 134.931204 144.727273 134.268196 
C 144.064265 133.605188 143.164907 133.232662 142.227273 133.232662 
C 141.289638 133.232662 140.39028 133.605188 139.727273 134.268196 
C 139.064265 134.931204 138.691739 135.830561 138.691739 136.768196 
C 138.691739 137.70583 139.064265 138.605188 139.727273 139.268196 
C 140.39028 139.931204 141.289638 140.30373 142.227273 140.30373 
z
" style="fill:none;stroke:#9467bd;"/>
   </g>
   <g id="PathCollection_18">
    <path clip-path="url(#p46518269eb)" d="M 147.200535 135.373051 
C 148.138169 135.373051 149.037527 135.000525 149.700535 134.337517 
C 150.363543 133.674509 150.736069 132.775152 150.736069 131.837517 
C 150.736069 130.899882 150.363543 130.000525 149.700535 129.337517 
C 149.037527 128.674509 148.138169 128.301983 147.200535 128.301983 
C 146.2629 128.301983 145.363543 128.674509 144.700535 129.337517 
C 144.037527 130.000525 143.665001 130.899882 143.665001 131.837517 
C 143.665001 132.775152 144.037527 133.674509 144.700535 134.337517 
C 145.363543 135.000525 146.2629 135.373051 147.200535 135.373051 
z
" style="fill:none;stroke:#9467bd;"/>
   </g>
   <g id="PathCollection_19">
    <path clip-path="url(#p46518269eb)" d="M 152.173797 130.59084 
C 153.111431 130.59084 154.010789 130.218314 154.673797 129.555307 
C 155.336805 128.892299 155.709331 127.992941 155.709331 127.055307 
C 155.709331 126.117672 155.336805 125.218314 154.673797 124.555307 
C 154.010789 123.892299 153.111431 123.519773 152.173797 123.519773 
C 151.236162 123.519773 150.336805 123.892299 149.673797 124.555307 
C 149.010789 125.218314 148.638263 126.117672 148.638263 127.055307 
C 148.638263 127.992941 149.010789 128.892299 149.673797 129.555307 
C 150.336805 130.218314 151.236162 130.59084 152.173797 130.59084 
z
" style="fill:none;stroke:#9467bd;"/>
   </g>
   <g id="PathCollection_20">
    <path clip-path="url(#p46518269eb)" d="M 157.147059 125.996645 
C 158.084693 125.996645 158.984051 125.624119 159.647059 124.961111 
C 160.310067 124.298103 160.682593 123.398746 160.682593 122.461111 
C 160.682593 121.523477 160.310067 120.624119 159.647059 119.961111 
C 158.984051 119.298103 158.084693 118.925577 157.147059 118.925577 
C 156.209424 118.925577 155.310067 119.298103 154.647059 119.961111 
C 153.984051 120.624119 153.611525 121.523477 153.611525 122.461111 
C 153.611525 123.398746 153.984051 124.298103 154.647059 124.961111 
C 155.310067 125.624119 156.209424 125.996645 157.147059 125.996645 
z
" style="fill:none;stroke:#9467bd;"/>
   </g>
   <g id="PathCollection_21">
    <path clip-path="url(#p46518269eb)" d="M 162.120321 121.617774 
C 163.057955 121.617774 163.957313 121.245248 164.620321 120.58224 
C 165.283329 119.919233 165.655855 119.019875 165.655855 118.08224 
C 165.655855 117.144606 165.283329 116.245248 164.620321 115.58224 
C 163.957313 114.919233 163.057955 114.546706 162.120321 114.546706 
C 161.182686 114.546706 160.283329 114.919233 159.620321 115.58224 
C 158.957313 116.245248 158.584787 117.144606 158.584787 118.08224 
C 158.584787 119.019875 158.957313 119.919233 159.620321 120.58224 
C 160.283329 121.245248 161.182686 121.617774 162.120321 121.617774 
z
" style="fill:none;stroke:#9467bd;"/>
   </g>
   <g id="PathCollection_22">
    <path clip-path="url(#p46518269eb)" d="M 167.093583 117.469931 
C 168.031217 117.469931 168.930575 117.097405 169.593583 116.434397 
C 170.256591 115.771389 170.629117 114.872032 170.629117 113.934397 
C 170.629117 112.996763 170.256591 112.097405 169.593583 111.434397 
C 168.930575 110.771389 168.031217 110.398863 167.093583 110.398863 
C 166.155948 110.398863 165.256591 110.771389 164.593583 111.434397 
C 163.930575 112.097405 163.558049 112.996763 163.558049 113.934397 
C 163.558049 114.872032 163.930575 115.771389 164.593583 116.434397 
C 165.256591 117.097405 166.155948 117.469931 167.093583 117.469931 
z
" style="fill:none;stroke:#9467bd;"/>
   </g>
   <g id="PathCollection_23">
    <path clip-path="url(#p46518269eb)" d="M 172.066845 113.558269 
C 173.004479 113.558269 173.903837 113.185742 174.566845 112.522735 
C 175.229853 111.859727 175.602379 110.960369 175.602379 110.022735 
C 175.602379 109.0851 175.229853 108.185742 174.566845 107.522735 
C 173.903837 106.859727 173.004479 106.487201 172.066845 106.487201 
C 171.12921 106.487201 170.229853 106.859727 169.566845 107.522735 
C 168.903837 108.185742 168.531311 109.0851 168.531311 110.022735 
C 168.531311 110.960369 168.903837 111.859727 169.566845 112.522735 
C 170.229853 113.185742 171.12921 113.558269 172.066845 113.558269 
z
" style="fill:none;stroke:#9467bd;"/>
   </g>
   <g id="PathCollection_24">
    <path clip-path="url(#p46518269eb)" d="M 177.040107 109.878787 
C 177.977742 109.878787 178.877099 109.50626 179.540107 108.843253 
C 180.203115 108.180245 180.575641 107.280887 180.575641 106.343253 
C 180.575641 105.405618 180.203115 104.50626 179.540107 103.843253 
C 178.877099 103.180245 177.977742 102.807719 177.040107 102.807719 
C 176.102472 102.807719 175.203115 103.180245 174.540107 103.843253 
C 173.877099 104.50626 173.504573 105.405618 173.504573 106.343253 
C 173.504573 107.280887 173.877099 108.180245 174.540107 108.843253 
C 175.203115 109.50626 176.102472 109.878787 177.040107 109.878787 
z
" style="fill:none;stroke:#9467bd;"/>
   </g>
   <g id="PathCollection_25">
    <path clip-path="url(#p46518269eb)" d="M 182.013369 106.420008 
C 182.951004 106.420008 183.850361 106.047482 184.513369 105.384475 
C 185.176377 104.721467 185.548903 103.822109 185.548903 102.884475 
C 185.548903 101.94684 185.176377 101.047482 184.513369 100.384475 
C 183.850361 99.721467 182.951004 99.348941 182.013369 99.348941 
C 181.075734 99.348941 180.176377 99.721467 179.513369 100.384475 
C 178.850361 101.047482 178.477835 101.94684 178.477835 102.884475 
C 178.477835 103.822109 178.850361 104.721467 179.513369 105.384475 
C 180.176377 106.047482 181.075734 106.420008 182.013369 106.420008 
z
" style="fill:none;stroke:#9467bd;"/>
   </g>
   <g id="PathCollection_26">
    <path clip-path="url(#p46518269eb)" d="M 186.986631 103.164858 
C 187.924266 103.164858 188.823623 102.792332 189.486631 102.129324 
C 190.149639 101.466316 190.522165 100.566959 190.522165 99.629324 
C 190.522165 98.69169 190.149639 97.792332 189.486631 97.129324 
C 188.823623 96.466316 187.924266 96.09379 186.986631 96.09379 
C 186.048996 96.09379 185.149639 96.466316 184.486631 97.129324 
C 183.823623 97.792332 183.451097 98.69169 183.451097 99.629324 
C 183.451097 100.566959 183.823623 101.466316 184.486631 102.129324 
C 185.149639 102.792332 186.048996 103.164858 186.986631 103.164858 
z
" style="fill:none;stroke:#9467bd;"/>
   </g>
   <g id="PathCollection_27">
    <path clip-path="url(#p46518269eb)" d="M 191.959893 100.09267 
C 192.897528 100.09267 193.796885 99.720144 194.459893 99.057136 
C 195.122901 98.394129 195.495427 97.494771 195.495427 96.557136 
C 195.495427 95.619502 195.122901 94.720144 194.459893 94.057136 
C 193.796885 93.394129 192.897528 93.021603 191.959893 93.021603 
C 191.022258 93.021603 190.122901 93.394129 189.459893 94.057136 
C 188.796885 94.720144 188.424359 95.619502 188.424359 96.557136 
C 188.424359 97.494771 188.796885 98.394129 189.459893 99.057136 
C 190.122901 99.720144 191.022258 100.09267 191.959893 100.09267 
z
" style="fill:none;stroke:#9467bd;"/>
   </g>
   <g id="PathCollection_28">
    <path clip-path="url(#p46518269eb)" d="M 196.933155 97.181263 
C 197.87079 97.181263 198.770147 96.808737 199.433155 96.145729 
C 200.096163 95.482722 200.468689 94.583364 200.468689 93.645729 
C 200.468689 92.708095 200.096163 91.808737 199.433155 91.145729 
C 198.770147 90.482722 197.87079 90.110196 196.933155 90.110196 
C 195.995521 90.110196 195.096163 90.482722 194.433155 91.145729 
C 193.770147 91.808737 193.397621 92.708095 193.397621 93.645729 
C 193.397621 94.583364 193.770147 95.482722 194.433155 96.145729 
C 195.096163 96.808737 195.995521 97.181263 196.933155 97.181263 
z
" style="fill:none;stroke:#9467bd;"/>
   </g>
   <g id="PathCollection_29">
    <path clip-path="url(#p46518269eb)" d="M 201.906417 94.408997 
C 202.844052 94.408997 203.743409 94.036471 204.406417 93.373463 
C 205.069425 92.710455 205.441951 91.811097 205.441951 90.873463 
C 205.441951 89.935828 205.069425 89.036471 204.406417 88.373463 
C 203.743409 87.710455 202.844052 87.337929 201.906417 87.337929 
C 200.968783 87.337929 200.069425 87.710455 199.406417 88.373463 
C 198.743409 89.036471 198.370883 89.935828 198.370883 90.873463 
C 198.370883 91.811097 198.743409 92.710455 199.406417 93.373463 
C 200.069425 94.036471 200.968783 94.408997 201.906417 94.408997 
z
" style="fill:none;stroke:#9467bd;"/>
   </g>
   <g id="PathCollection_30">
    <path clip-path="url(#p46518269eb)" d="M 206.879679 91.756748 
C 207.817314 91.756748 208.716671 91.384222 209.379679 90.721214 
C 210.042687 90.058207 210.415213 89.158849 210.415213 88.221214 
C 210.415213 87.28358 210.042687 86.384222 209.379679 85.721214 
C 208.716671 85.058207 207.817314 84.685681 206.879679 84.685681 
C 205.942045 84.685681 205.042687 85.058207 204.379679 85.721214 
C 203.716671 86.384222 203.344145 87.28358 203.344145 88.221214 
C 203.344145 89.158849 203.716671 90.058207 204.379679 90.721214 
C 205.042687 91.384222 205.942045 91.756748 206.879679 91.756748 
z
" style="fill:none;stroke:#9467bd;"/>
   </g>
   <g id="PathCollection_31">
    <path clip-path="url(#p46518269eb)" d="M 211.852941 89.209737 
C 212.790576 89.209737 213.689933 88.837211 214.352941 88.174203 
C 215.015949 87.511195 215.388475 86.611838 215.388475 85.674203 
C 215.388475 84.736568 215.015949 83.837211 214.352941 83.174203 
C 213.689933 82.511195 212.790576 82.138669 211.852941 82.138669 
C 210.915307 82.138669 210.015949 82.511195 209.352941 83.174203 
C 208.689933 83.837211 208.317407 84.736568 208.317407 85.674203 
C 208.317407 86.611838 208.689933 87.511195 209.352941 88.174203 
C 210.015949 88.837211 210.915307 89.209737 211.852941 89.209737 
z
" style="fill:none;stroke:#9467bd;"/>
   </g>
   <g id="PathCollection_32">
    <path clip-path="url(#p46518269eb)" d="M 216.826203 86.759117 
C 217.763838 86.759117 218.663195 86.386591 219.326203 85.723584 
C 219.989211 85.060576 220.361737 84.161218 220.361737 83.223584 
C 220.361737 82.285949 219.989211 81.386591 219.326203 80.723584 
C 218.663195 80.060576 217.763838 79.68805 216.826203 79.68805 
C 215.888569 79.68805 214.989211 80.060576 214.326203 80.723584 
C 213.663195 81.386591 213.290669 82.285949 213.290669 83.223584 
C 213.290669 84.161218 213.663195 85.060576 214.326203 85.723584 
C 214.989211 86.386591 215.888569 86.759117 216.826203 86.759117 
z
" style="fill:none;stroke:#9467bd;"/>
   </g>
   <g id="PathCollection_33">
    <path clip-path="url(#p46518269eb)" d="M 221.799465 84.403281 
C 222.7371 84.403281 223.636457 84.030755 224.299465 83.367747 
C 224.962473 82.70474 225.334999 81.805382 225.334999 80.867747 
C 225.334999 79.930113 224.962473 79.030755 224.299465 78.367747 
C 223.636457 77.70474 222.7371 77.332213 221.799465 77.332213 
C 220.861831 77.332213 219.962473 77.70474 219.299465 78.367747 
C 218.636457 79.030755 218.263931 79.930113 218.263931 80.867747 
C 218.263931 81.805382 218.636457 82.70474 219.299465 83.367747 
C 219.962473 84.030755 220.861831 84.403281 221.799465 84.403281 
z
" style="fill:none;stroke:#9467bd;"/>
   </g>
   <g id="PathCollection_34">
    <path clip-path="url(#p46518269eb)" d="M 226.772727 82.148781 
C 227.710362 82.148781 228.60972 81.776255 229.272727 81.113247 
C 229.935735 80.450239 230.308261 79.550882 230.308261 78.613247 
C 230.308261 77.675613 229.935735 76.776255 229.272727 76.113247 
C 228.60972 75.450239 227.710362 75.077713 226.772727 75.077713 
C 225.835093 75.077713 224.935735 75.450239 224.272727 76.113247 
C 223.60972 76.776255 223.237193 77.675613 223.237193 78.613247 
C 223.237193 79.550882 223.60972 80.450239 224.272727 81.113247 
C 224.935735 81.776255 225.835093 82.148781 226.772727 82.148781 
z
" style="fill:none;stroke:#9467bd;"/>
   </g>
   <g id="PathCollection_35">
    <path clip-path="url(#p46518269eb)" d="M 231.745989 80.010824 
C 232.683624 80.010824 233.582982 79.638298 234.245989 78.97529 
C 234.908997 78.312282 235.281523 77.412924 235.281523 76.47529 
C 235.281523 75.537655 234.908997 74.638298 234.245989 73.97529 
C 233.582982 73.312282 232.683624 72.939756 231.745989 72.939756 
C 230.808355 72.939756 229.908997 73.312282 229.245989 73.97529 
C 228.582982 74.638298 228.210455 75.537655 228.210455 76.47529 
C 228.210455 77.412924 228.582982 78.312282 229.245989 78.97529 
C 229.908997 79.638298 230.808355 80.010824 231.745989 80.010824 
z
" style="fill:none;stroke:#9467bd;"/>
   </g>
   <g id="PathCollection_36">
    <path clip-path="url(#p46518269eb)" d="M 236.719251 78.013241 
C 237.656886 78.013241 238.556244 77.640714 239.219251 76.977707 
C 239.882259 76.314699 240.254785 75.415341 240.254785 74.477707 
C 240.254785 73.540072 239.882259 72.640714 239.219251 71.977707 
C 238.556244 71.314699 237.656886 70.942173 236.719251 70.942173 
C 235.781617 70.942173 234.882259 71.314699 234.219251 71.977707 
C 233.556244 72.640714 233.183717 73.540072 233.183717 74.477707 
C 233.183717 75.415341 233.556244 76.314699 234.219251 76.977707 
C 234.882259 77.640714 235.781617 78.013241 236.719251 78.013241 
z
" style="fill:none;stroke:#9467bd;"/>
   </g>
   <g id="PathCollection_37">
    <path clip-path="url(#p46518269eb)" d="M 241.692513 76.187882 
C 242.630148 76.187882 243.529506 75.815356 244.192513 75.152348 
C 244.855521 74.48934 245.228047 73.589983 245.228047 72.652348 
C 245.228047 71.714714 244.855521 70.815356 244.192513 70.152348 
C 243.529506 69.48934 242.630148 69.116814 241.692513 69.116814 
C 240.754879 69.116814 239.855521 69.48934 239.192513 70.152348 
C 238.529506 70.815356 238.156979 71.714714 238.156979 72.652348 
C 238.156979 73.589983 238.529506 74.48934 239.192513 75.152348 
C 239.855521 75.815356 240.754879 76.187882 241.692513 76.187882 
z
" style="fill:none;stroke:#9467bd;"/>
   </g>
   <g id="PathCollection_38">
    <path clip-path="url(#p46518269eb)" d="M 246.665775 74.573351 
C 247.60341 74.573351 248.502768 74.200825 249.165775 73.537817 
C 249.828783 72.874809 250.201309 71.975452 250.201309 71.037817 
C 250.201309 70.100183 249.828783 69.200825 249.165775 68.537817 
C 248.502768 67.874809 247.60341 67.502283 246.665775 67.502283 
C 245.728141 67.502283 244.828783 67.874809 244.165775 68.537817 
C 243.502768 69.200825 243.130241 70.100183 243.130241 71.037817 
C 243.130241 71.975452 243.502768 72.874809 244.165775 73.537817 
C 244.828783 74.200825 245.728141 74.573351 246.665775 74.573351 
z
" style="fill:none;stroke:#9467bd;"/>
   </g>
   <g id="PathCollection_39">
    <path clip-path="url(#p46518269eb)" d="M 251.639037 73.21301 
C 252.576672 73.21301 253.47603 72.840484 254.139037 72.177476 
C 254.802045 71.514468 255.174571 70.61511 255.174571 69.677476 
C 255.174571 68.739841 254.802045 67.840484 254.139037 67.177476 
C 253.47603 66.514468 252.576672 66.141942 251.639037 66.141942 
C 250.701403 66.141942 249.802045 66.514468 249.139037 67.177476 
C 248.47603 67.840484 248.103504 68.739841 248.103504 69.677476 
C 248.103504 70.61511 248.47603 71.514468 249.139037 72.177476 
C 249.802045 72.840484 250.701403 73.21301 251.639037 73.21301 
z
" style="fill:none;stroke:#9467bd;"/>
   </g>
   <g id="PathCollection_40">
    <path clip-path="url(#p46518269eb)" d="M 256.612299 72.15219 
C 257.549934 72.15219 258.449292 71.779664 259.112299 71.116656 
C 259.775307 70.453648 260.147833 69.554291 260.147833 68.616656 
C 260.147833 67.679022 259.775307 66.779664 259.112299 66.116656 
C 258.449292 65.453648 257.549934 65.081122 256.612299 65.081122 
C 255.674665 65.081122 254.775307 65.453648 254.112299 66.116656 
C 253.449292 66.779664 253.076766 67.679022 253.076766 68.616656 
C 253.076766 69.554291 253.449292 70.453648 254.112299 71.116656 
C 254.775307 71.779664 255.674665 72.15219 256.612299 72.15219 
z
" style="fill:none;stroke:#9467bd;"/>
   </g>
   <g id="PathCollection_41">
    <path clip-path="url(#p46518269eb)" d="M 261.585561 71.434528 
C 262.523196 71.434528 263.422554 71.062002 264.085561 70.398995 
C 264.748569 69.735987 265.121095 68.836629 265.121095 67.898995 
C 265.121095 66.96136 264.748569 66.062002 264.085561 65.398995 
C 263.422554 64.735987 262.523196 64.363461 261.585561 64.363461 
C 260.647927 64.363461 259.748569 64.735987 259.085561 65.398995 
C 258.422554 66.062002 258.050028 66.96136 258.050028 67.898995 
C 258.050028 68.836629 258.422554 69.735987 259.085561 70.398995 
C 259.748569 71.062002 260.647927 71.434528 261.585561 71.434528 
z
" style="fill:none;stroke:#9467bd;"/>
   </g>
   <g id="PathCollection_42">
    <path clip-path="url(#p46518269eb)" d="M 266.558824 71.097363 
C 267.496458 71.097363 268.395816 70.724836 269.058824 70.061829 
C 269.721831 69.398821 270.094357 68.499463 270.094357 67.561829 
C 270.094357 66.624194 269.721831 65.724836 269.058824 65.061829 
C 268.395816 64.398821 267.496458 64.026295 266.558824 64.026295 
C 265.621189 64.026295 264.721831 64.398821 264.058824 65.061829 
C 263.395816 65.724836 263.02329 66.624194 263.02329 67.561829 
C 263.02329 68.499463 263.395816 69.398821 264.058824 70.061829 
C 264.721831 70.724836 265.621189 71.097363 266.558824 71.097363 
z
" style="fill:none;stroke:#9467bd;"/>
   </g>
   <g id="PathCollection_43">
    <path clip-path="url(#p46518269eb)" d="M 271.532086 71.166113 
C 272.46972 71.166113 273.369078 70.793587 274.032086 70.130579 
C 274.695093 69.467572 275.067619 68.568214 275.067619 67.630579 
C 275.067619 66.692945 274.695093 65.793587 274.032086 65.130579 
C 273.369078 64.467572 272.46972 64.095046 271.532086 64.095046 
C 270.594451 64.095046 269.695093 64.467572 269.032086 65.130579 
C 268.369078 65.793587 267.996552 66.692945 267.996552 67.630579 
C 267.996552 68.568214 268.369078 69.467572 269.032086 70.130579 
C 269.695093 70.793587 270.594451 71.166113 271.532086 71.166113 
z
" style="fill:none;stroke:#9467bd;"/>
   </g>
   <g id="PathCollection_44">
    <path clip-path="url(#p46518269eb)" d="M 276.505348 71.647577 
C 277.442982 71.647577 278.34234 71.275051 279.005348 70.612043 
C 279.668355 69.949036 280.040881 69.049678 280.040881 68.112043 
C 280.040881 67.174409 279.668355 66.275051 279.005348 65.612043 
C 278.34234 64.949036 277.442982 64.576509 276.505348 64.576509 
C 275.567713 64.576509 274.668355 64.949036 274.005348 65.612043 
C 273.34234 66.275051 272.969814 67.174409 272.969814 68.112043 
C 272.969814 69.049678 273.34234 69.949036 274.005348 70.612043 
C 274.668355 71.275051 275.567713 71.647577 276.505348 71.647577 
z
" style="fill:none;stroke:#9467bd;"/>
   </g>
   <g id="PathCollection_45">
    <path clip-path="url(#p46518269eb)" d="M 281.47861 72.522067 
C 282.416244 72.522067 283.315602 72.149541 283.97861 71.486533 
C 284.641617 70.823526 285.014144 69.924168 285.014144 68.986533 
C 285.014144 68.048899 284.641617 67.149541 283.97861 66.486533 
C 283.315602 65.823526 282.416244 65.451 281.47861 65.451 
C 280.540975 65.451 279.641617 65.823526 278.97861 66.486533 
C 278.315602 67.149541 277.943076 68.048899 277.943076 68.986533 
C 277.943076 69.924168 278.315602 70.823526 278.97861 71.486533 
C 279.641617 72.149541 280.540975 72.522067 281.47861 72.522067 
z
" style="fill:none;stroke:#9467bd;"/>
   </g>
   <g id="PathCollection_46">
    <path clip-path="url(#p46518269eb)" d="M 286.451872 73.734321 
C 287.389506 73.734321 288.288864 73.361795 288.951872 72.698787 
C 289.614879 72.035779 289.987406 71.136422 289.987406 70.198787 
C 289.987406 69.261152 289.614879 68.361795 288.951872 67.698787 
C 288.288864 67.035779 287.389506 66.663253 286.451872 66.663253 
C 285.514237 66.663253 284.614879 67.035779 283.951872 67.698787 
C 283.288864 68.361795 282.916338 69.261152 282.916338 70.198787 
C 282.916338 71.136422 283.288864 72.035779 283.951872 72.698787 
C 284.614879 73.361795 285.514237 73.734321 286.451872 73.734321 
z
" style="fill:none;stroke:#9467bd;"/>
   </g>
   <g id="PathCollection_47">
    <path clip-path="url(#p46518269eb)" d="M 291.425134 75.183108 
C 292.362768 75.183108 293.262126 74.810582 293.925134 74.147574 
C 294.588141 73.484567 294.960668 72.585209 294.960668 71.647574 
C 294.960668 70.70994 294.588141 69.810582 293.925134 69.147574 
C 293.262126 68.484567 292.362768 68.11204 291.425134 68.11204 
C 290.487499 68.11204 289.588141 68.484567 288.925134 69.147574 
C 288.262126 69.810582 287.8896 70.70994 287.8896 71.647574 
C 287.8896 72.585209 288.262126 73.484567 288.925134 74.147574 
C 289.588141 74.810582 290.487499 75.183108 291.425134 75.183108 
z
" style="fill:none;stroke:#9467bd;"/>
   </g>
   <g id="PathCollection_48">
    <path clip-path="url(#p46518269eb)" d="M 296.398396 76.709469 
C 297.33603 76.709469 298.235388 76.336943 298.898396 75.673935 
C 299.561403 75.010927 299.93393 74.111569 299.93393 73.173935 
C 299.93393 72.2363 299.561403 71.336943 298.898396 70.673935 
C 298.235388 70.010927 297.33603 69.638401 296.398396 69.638401 
C 295.460761 69.638401 294.561403 70.010927 293.898396 70.673935 
C 293.235388 71.336943 292.862862 72.2363 292.862862 73.173935 
C 292.862862 74.111569 293.235388 75.010927 293.898396 75.673935 
C 294.561403 76.336943 295.460761 76.709469 296.398396 76.709469 
z
" style="fill:none;stroke:#9467bd;"/>
   </g>
   <g id="PathCollection_49">
    <path clip-path="url(#p46518269eb)" d="M 301.371658 78.083505 
C 302.309292 78.083505 303.20865 77.710979 303.871658 77.047971 
C 304.534666 76.384963 304.907192 75.485605 304.907192 74.547971 
C 304.907192 73.610336 304.534666 72.710979 303.871658 72.047971 
C 303.20865 71.384963 302.309292 71.012437 301.371658 71.012437 
C 300.434023 71.012437 299.534666 71.384963 298.871658 72.047971 
C 298.20865 72.710979 297.836124 73.610336 297.836124 74.547971 
C 297.836124 75.485605 298.20865 76.384963 298.871658 77.047971 
C 299.534666 77.710979 300.434023 78.083505 301.371658 78.083505 
z
" style="fill:none;stroke:#9467bd;"/>
   </g>
   <g id="PathCollection_50">
    <path clip-path="url(#p46518269eb)" d="M 306.34492 78.989657 
C 307.282554 78.989657 308.181912 78.617131 308.84492 77.954123 
C 309.507928 77.291115 309.880454 76.391758 309.880454 75.454123 
C 309.880454 74.516489 309.507928 73.617131 308.84492 72.954123 
C 308.181912 72.291115 307.282554 71.918589 306.34492 71.918589 
C 305.407285 71.918589 304.507928 72.291115 303.84492 72.954123 
C 303.181912 73.617131 302.809386 74.516489 302.809386 75.454123 
C 302.809386 76.391758 303.181912 77.291115 303.84492 77.954123 
C 304.507928 78.617131 305.407285 78.989657 306.34492 78.989657 
z
" style="fill:none;stroke:#9467bd;"/>
   </g>
   <g id="PathCollection_51">
    <path clip-path="url(#p46518269eb)" d="M 311.318182 79.010395 
C 312.255816 79.010395 313.155174 78.637869 313.818182 77.974861 
C 314.48119 77.311853 314.853716 76.412496 314.853716 75.474861 
C 314.853716 74.537227 314.48119 73.637869 313.818182 72.974861 
C 313.155174 72.311853 312.255816 71.939327 311.318182 71.939327 
C 310.380547 71.939327 309.48119 72.311853 308.818182 72.974861 
C 308.155174 73.637869 307.782648 74.537227 307.782648 75.474861 
C 307.782648 76.412496 308.155174 77.311853 308.818182 77.974861 
C 309.48119 78.637869 310.380547 79.010395 311.318182 79.010395 
z
" style="fill:none;stroke:#9467bd;"/>
   </g>
   <g id="PathCollection_52">
    <defs>
     <path d="M 0 3.535534 
C 0.937635 3.535534 1.836992 3.163008 2.5 2.5 
C 3.163008 1.836992 3.535534 0.937635 3.535534 0 
C 3.535534 -0.937635 3.163008 -1.836992 2.5 -2.5 
C 1.836992 -3.163008 0.937635 -3.535534 0 -3.535534 
C -0.937635 -3.535534 -1.836992 -3.163008 -2.5 -2.5 
C -3.163008 -1.836992 -3.535534 -0.937635 -3.535534 0 
C -3.535534 0.937635 -3.163008 1.836992 -2.5 2.5 
C -1.836992 3.163008 -0.937635 3.535534 0 3.535534 
z
" id="m33192ea11b" style="stroke:#9467bd;"/>
    </defs>
    <g clip-path="url(#p46518269eb)">
     <use style="fill:#9467bd;stroke:#9467bd;" x="62.65508" xlink:href="#m33192ea11b" y="179.392552"/>
    </g>
   </g>
   <g id="PathCollection_53">
    <g clip-path="url(#p46518269eb)">
     <use style="fill:#9467bd;stroke:#9467bd;" x="67.628342" xlink:href="#m33192ea11b" y="179.715767"/>
    </g>
   </g>
   <g id="PathCollection_54">
    <g clip-path="url(#p46518269eb)">
     <use style="fill:#9467bd;stroke:#9467bd;" x="72.601604" xlink:href="#m33192ea11b" y="179.054827"/>
    </g>
   </g>
   <g id="PathCollection_55">
    <g clip-path="url(#p46518269eb)">
     <use style="fill:#9467bd;stroke:#9467bd;" x="77.574866" xlink:href="#m33192ea11b" y="177.54251"/>
    </g>
   </g>
   <g id="PathCollection_56">
    <g clip-path="url(#p46518269eb)">
     <use style="fill:#9467bd;stroke:#9467bd;" x="82.548128" xlink:href="#m33192ea11b" y="175.279532"/>
    </g>
   </g>
   <g id="PathCollection_57">
    <g clip-path="url(#p46518269eb)">
     <use style="fill:#9467bd;stroke:#9467bd;" x="87.52139" xlink:href="#m33192ea11b" y="172.367775"/>
    </g>
   </g>
   <g id="PathCollection_58">
    <g clip-path="url(#p46518269eb)">
     <use style="fill:#9467bd;stroke:#9467bd;" x="92.494652" xlink:href="#m33192ea11b" y="168.860789"/>
    </g>
   </g>
   <g id="PathCollection_59">
    <g clip-path="url(#p46518269eb)">
     <use style="fill:#9467bd;stroke:#9467bd;" x="97.467914" xlink:href="#m33192ea11b" y="164.82285"/>
    </g>
   </g>
   <g id="PathCollection_60">
    <g clip-path="url(#p46518269eb)">
     <use style="fill:#9467bd;stroke:#9467bd;" x="102.441176" xlink:href="#m33192ea11b" y="160.305379"/>
    </g>
   </g>
   <g id="PathCollection_61">
    <g clip-path="url(#p46518269eb)">
     <use style="fill:#9467bd;stroke:#9467bd;" x="107.414439" xlink:href="#m33192ea11b" y="155.355506"/>
    </g>
   </g>
   <g id="PathCollection_62">
    <g clip-path="url(#p46518269eb)">
     <use style="fill:#9467bd;stroke:#9467bd;" x="112.387701" xlink:href="#m33192ea11b" y="150.018574"/>
    </g>
   </g>
   <g id="PathCollection_63">
    <g clip-path="url(#p46518269eb)">
     <use style="fill:#9467bd;stroke:#9467bd;" x="117.360963" xlink:href="#m33192ea11b" y="144.340086"/>
    </g>
   </g>
   <g id="PathCollection_64">
    <g clip-path="url(#p46518269eb)">
     <use style="fill:#9467bd;stroke:#9467bd;" x="122.334225" xlink:href="#m33192ea11b" y="138.36715"/>
    </g>
   </g>
   <g id="PathCollection_65">
    <g clip-path="url(#p46518269eb)">
     <use style="fill:#9467bd;stroke:#9467bd;" x="127.307487" xlink:href="#m33192ea11b" y="132.149443"/>
    </g>
   </g>
   <g id="PathCollection_66">
    <g clip-path="url(#p46518269eb)">
     <use style="fill:#9467bd;stroke:#9467bd;" x="132.280749" xlink:href="#m33192ea11b" y="125.739754"/>
    </g>
   </g>
   <g id="PathCollection_67">
    <g clip-path="url(#p46518269eb)">
     <use style="fill:#9467bd;stroke:#9467bd;" x="137.254011" xlink:href="#m33192ea11b" y="119.194146"/>
    </g>
   </g>
   <g id="PathCollection_68">
    <g clip-path="url(#p46518269eb)">
     <use style="fill:#9467bd;stroke:#9467bd;" x="142.227273" xlink:href="#m33192ea11b" y="112.571765"/>
    </g>
   </g>
   <g id="PathCollection_69">
    <g clip-path="url(#p46518269eb)">
     <use style="fill:#9467bd;stroke:#9467bd;" x="147.200535" xlink:href="#m33192ea11b" y="105.934363"/>
    </g>
   </g>
   <g id="PathCollection_70">
    <g clip-path="url(#p46518269eb)">
     <use style="fill:#9467bd;stroke:#9467bd;" x="152.173797" xlink:href="#m33192ea11b" y="99.345547"/>
    </g>
   </g>
   <g id="PathCollection_71">
    <g clip-path="url(#p46518269eb)">
     <use style="fill:#9467bd;stroke:#9467bd;" x="157.147059" xlink:href="#m33192ea11b" y="92.869827"/>
    </g>
   </g>
   <g id="PathCollection_72">
    <g clip-path="url(#p46518269eb)">
     <use style="fill:#9467bd;stroke:#9467bd;" x="162.120321" xlink:href="#m33192ea11b" y="86.571485"/>
    </g>
   </g>
   <g id="PathCollection_73">
    <g clip-path="url(#p46518269eb)">
     <use style="fill:#9467bd;stroke:#9467bd;" x="167.093583" xlink:href="#m33192ea11b" y="80.513304"/>
    </g>
   </g>
   <g id="PathCollection_74">
    <g clip-path="url(#p46518269eb)">
     <use style="fill:#9467bd;stroke:#9467bd;" x="172.066845" xlink:href="#m33192ea11b" y="74.755229"/>
    </g>
   </g>
   <g id="PathCollection_75">
    <g clip-path="url(#p46518269eb)">
     <use style="fill:#9467bd;stroke:#9467bd;" x="177.040107" xlink:href="#m33192ea11b" y="69.352958"/>
    </g>
   </g>
   <g id="PathCollection_76">
    <g clip-path="url(#p46518269eb)">
     <use style="fill:#9467bd;stroke:#9467bd;" x="182.013369" xlink:href="#m33192ea11b" y="64.356549"/>
    </g>
   </g>
   <g id="PathCollection_77">
    <g clip-path="url(#p46518269eb)">
     <use style="fill:#9467bd;stroke:#9467bd;" x="186.986631" xlink:href="#m33192ea11b" y="59.809048"/>
    </g>
   </g>
   <g id="PathCollection_78">
    <g clip-path="url(#p46518269eb)">
     <use style="fill:#9467bd;stroke:#9467bd;" x="191.959893" xlink:href="#m33192ea11b" y="55.745213"/>
    </g>
   </g>
   <g id="PathCollection_79">
    <g clip-path="url(#p46518269eb)">
     <use style="fill:#9467bd;stroke:#9467bd;" x="196.933155" xlink:href="#m33192ea11b" y="52.190346"/>
    </g>
   </g>
   <g id="PathCollection_80">
    <g clip-path="url(#p46518269eb)">
     <use style="fill:#9467bd;stroke:#9467bd;" x="201.906417" xlink:href="#m33192ea11b" y="49.159303"/>
    </g>
   </g>
   <g id="PathCollection_81">
    <g clip-path="url(#p46518269eb)">
     <use style="fill:#9467bd;stroke:#9467bd;" x="206.879679" xlink:href="#m33192ea11b" y="46.655697"/>
    </g>
   </g>
   <g id="PathCollection_82">
    <g clip-path="url(#p46518269eb)">
     <use style="fill:#9467bd;stroke:#9467bd;" x="211.852941" xlink:href="#m33192ea11b" y="44.671369"/>
    </g>
   </g>
   <g id="PathCollection_83">
    <g clip-path="url(#p46518269eb)">
     <use style="fill:#9467bd;stroke:#9467bd;" x="216.826203" xlink:href="#m33192ea11b" y="43.186131"/>
    </g>
   </g>
   <g id="PathCollection_84">
    <g clip-path="url(#p46518269eb)">
     <use style="fill:#9467bd;stroke:#9467bd;" x="221.799465" xlink:href="#m33192ea11b" y="42.167854"/>
    </g>
   </g>
   <g id="PathCollection_85">
    <g clip-path="url(#p46518269eb)">
     <use style="fill:#9467bd;stroke:#9467bd;" x="226.772727" xlink:href="#m33192ea11b" y="41.572933"/>
    </g>
   </g>
   <g id="PathCollection_86">
    <g clip-path="url(#p46518269eb)">
     <use style="fill:#9467bd;stroke:#9467bd;" x="231.745989" xlink:href="#m33192ea11b" y="41.347166"/>
    </g>
   </g>
   <g id="PathCollection_87">
    <g clip-path="url(#p46518269eb)">
     <use style="fill:#9467bd;stroke:#9467bd;" x="236.719251" xlink:href="#m33192ea11b" y="41.427094"/>
    </g>
   </g>
   <g id="PathCollection_88">
    <g clip-path="url(#p46518269eb)">
     <use style="fill:#9467bd;stroke:#9467bd;" x="241.692513" xlink:href="#m33192ea11b" y="41.741849"/>
    </g>
   </g>
   <g id="PathCollection_89">
    <g clip-path="url(#p46518269eb)">
     <use style="fill:#9467bd;stroke:#9467bd;" x="246.665775" xlink:href="#m33192ea11b" y="42.215537"/>
    </g>
   </g>
   <g id="PathCollection_90">
    <g clip-path="url(#p46518269eb)">
     <use style="fill:#9467bd;stroke:#9467bd;" x="251.639037" xlink:href="#m33192ea11b" y="42.770224"/>
    </g>
   </g>
   <g id="PathCollection_91">
    <g clip-path="url(#p46518269eb)">
     <use style="fill:#9467bd;stroke:#9467bd;" x="256.612299" xlink:href="#m33192ea11b" y="43.329538"/>
    </g>
   </g>
   <g id="PathCollection_92">
    <g clip-path="url(#p46518269eb)">
     <use style="fill:#9467bd;stroke:#9467bd;" x="261.585561" xlink:href="#m33192ea11b" y="43.822947"/>
    </g>
   </g>
   <g id="PathCollection_93">
    <g clip-path="url(#p46518269eb)">
     <use style="fill:#9467bd;stroke:#9467bd;" x="266.558824" xlink:href="#m33192ea11b" y="44.190758"/>
    </g>
   </g>
   <g id="PathCollection_94">
    <g clip-path="url(#p46518269eb)">
     <use style="fill:#9467bd;stroke:#9467bd;" x="271.532086" xlink:href="#m33192ea11b" y="44.389861"/>
    </g>
   </g>
   <g id="PathCollection_95">
    <g clip-path="url(#p46518269eb)">
     <use style="fill:#9467bd;stroke:#9467bd;" x="276.505348" xlink:href="#m33192ea11b" y="44.400284"/>
    </g>
   </g>
   <g id="PathCollection_96">
    <g clip-path="url(#p46518269eb)">
     <use style="fill:#9467bd;stroke:#9467bd;" x="281.47861" xlink:href="#m33192ea11b" y="44.23258"/>
    </g>
   </g>
   <g id="PathCollection_97">
    <g clip-path="url(#p46518269eb)">
     <use style="fill:#9467bd;stroke:#9467bd;" x="286.451872" xlink:href="#m33192ea11b" y="43.936102"/>
    </g>
   </g>
   <g id="PathCollection_98">
    <g clip-path="url(#p46518269eb)">
     <use style="fill:#9467bd;stroke:#9467bd;" x="291.425134" xlink:href="#m33192ea11b" y="43.608203"/>
    </g>
   </g>
   <g id="PathCollection_99">
    <g clip-path="url(#p46518269eb)">
     <use style="fill:#9467bd;stroke:#9467bd;" x="296.398396" xlink:href="#m33192ea11b" y="43.404403"/>
    </g>
   </g>
   <g id="PathCollection_100">
    <g clip-path="url(#p46518269eb)">
     <use style="fill:#9467bd;stroke:#9467bd;" x="301.371658" xlink:href="#m33192ea11b" y="43.549568"/>
    </g>
   </g>
   <g id="PathCollection_101">
    <g clip-path="url(#p46518269eb)">
     <use style="fill:#9467bd;stroke:#9467bd;" x="306.34492" xlink:href="#m33192ea11b" y="44.35014"/>
    </g>
   </g>
   <g id="PathCollection_102">
    <g clip-path="url(#p46518269eb)">
     <use style="fill:#9467bd;stroke:#9467bd;" x="311.318182" xlink:href="#m33192ea11b" y="46.207461"/>
    </g>
   </g>
   <g id="matplotlib.axis_1"/>
   <g id="matplotlib.axis_2">
    <g id="ytick_1">
     <g id="line2d_1">
      <defs>
       <path d="M 0 0 
L -3.5 0 
" id="me0ee14c510" style="stroke:#000000;stroke-width:0.8;"/>
      </defs>
      <g>
       <use style="stroke:#000000;stroke-width:0.8;" x="45" xlink:href="#me0ee14c510" y="181.133772"/>
      </g>
     </g>
     <g id="text_1">
      <!-- 0.0 -->
      <g transform="translate(22.096875 184.932991)scale(0.1 -0.1)">
       <defs>
        <path d="M 31.78125 66.40625 
Q 24.171875 66.40625 20.328125 58.90625 
Q 16.5 51.421875 16.5 36.375 
Q 16.5 21.390625 20.328125 13.890625 
Q 24.171875 6.390625 31.78125 6.390625 
Q 39.453125 6.390625 43.28125 13.890625 
Q 47.125 21.390625 47.125 36.375 
Q 47.125 51.421875 43.28125 58.90625 
Q 39.453125 66.40625 31.78125 66.40625 
z
M 31.78125 74.21875 
Q 44.046875 74.21875 50.515625 64.515625 
Q 56.984375 54.828125 56.984375 36.375 
Q 56.984375 17.96875 50.515625 8.265625 
Q 44.046875 -1.421875 31.78125 -1.421875 
Q 19.53125 -1.421875 13.0625 8.265625 
Q 6.59375 17.96875 6.59375 36.375 
Q 6.59375 54.828125 13.0625 64.515625 
Q 19.53125 74.21875 31.78125 74.21875 
z
" id="DejaVuSans-48"/>
        <path d="M 10.6875 12.40625 
L 21 12.40625 
L 21 0 
L 10.6875 0 
z
" id="DejaVuSans-46"/>
       </defs>
       <use xlink:href="#DejaVuSans-48"/>
       <use x="63.623047" xlink:href="#DejaVuSans-46"/>
       <use x="95.410156" xlink:href="#DejaVuSans-48"/>
      </g>
     </g>
    </g>
    <g id="ytick_2">
     <g id="line2d_2">
      <g>
       <use style="stroke:#000000;stroke-width:0.8;" x="45" xlink:href="#me0ee14c510" y="143.845616"/>
      </g>
     </g>
     <g id="text_2">
      <!-- 0.1 -->
      <g transform="translate(22.096875 147.644835)scale(0.1 -0.1)">
       <defs>
        <path d="M 12.40625 8.296875 
L 28.515625 8.296875 
L 28.515625 63.921875 
L 10.984375 60.40625 
L 10.984375 69.390625 
L 28.421875 72.90625 
L 38.28125 72.90625 
L 38.28125 8.296875 
L 54.390625 8.296875 
L 54.390625 0 
L 12.40625 0 
z
" id="DejaVuSans-49"/>
       </defs>
       <use xlink:href="#DejaVuSans-48"/>
       <use x="63.623047" xlink:href="#DejaVuSans-46"/>
       <use x="95.410156" xlink:href="#DejaVuSans-49"/>
      </g>
     </g>
    </g>
    <g id="ytick_3">
     <g id="line2d_3">
      <g>
       <use style="stroke:#000000;stroke-width:0.8;" x="45" xlink:href="#me0ee14c510" y="106.55746"/>
      </g>
     </g>
     <g id="text_3">
      <!-- 0.2 -->
      <g transform="translate(22.096875 110.356679)scale(0.1 -0.1)">
       <defs>
        <path d="M 19.1875 8.296875 
L 53.609375 8.296875 
L 53.609375 0 
L 7.328125 0 
L 7.328125 8.296875 
Q 12.9375 14.109375 22.625 23.890625 
Q 32.328125 33.6875 34.8125 36.53125 
Q 39.546875 41.84375 41.421875 45.53125 
Q 43.3125 49.21875 43.3125 52.78125 
Q 43.3125 58.59375 39.234375 62.25 
Q 35.15625 65.921875 28.609375 65.921875 
Q 23.96875 65.921875 18.8125 64.3125 
Q 13.671875 62.703125 7.8125 59.421875 
L 7.8125 69.390625 
Q 13.765625 71.78125 18.9375 73 
Q 24.125 74.21875 28.421875 74.21875 
Q 39.75 74.21875 46.484375 68.546875 
Q 53.21875 62.890625 53.21875 53.421875 
Q 53.21875 48.921875 51.53125 44.890625 
Q 49.859375 40.875 45.40625 35.40625 
Q 44.1875 33.984375 37.640625 27.21875 
Q 31.109375 20.453125 19.1875 8.296875 
z
" id="DejaVuSans-50"/>
       </defs>
       <use xlink:href="#DejaVuSans-48"/>
       <use x="63.623047" xlink:href="#DejaVuSans-46"/>
       <use x="95.410156" xlink:href="#DejaVuSans-50"/>
      </g>
     </g>
    </g>
    <g id="ytick_4">
     <g id="line2d_4">
      <g>
       <use style="stroke:#000000;stroke-width:0.8;" x="45" xlink:href="#me0ee14c510" y="69.269304"/>
      </g>
     </g>
     <g id="text_4">
      <!-- 0.3 -->
      <g transform="translate(22.096875 73.068523)scale(0.1 -0.1)">
       <defs>
        <path d="M 40.578125 39.3125 
Q 47.65625 37.796875 51.625 33 
Q 55.609375 28.21875 55.609375 21.1875 
Q 55.609375 10.40625 48.1875 4.484375 
Q 40.765625 -1.421875 27.09375 -1.421875 
Q 22.515625 -1.421875 17.65625 -0.515625 
Q 12.796875 0.390625 7.625 2.203125 
L 7.625 11.71875 
Q 11.71875 9.328125 16.59375 8.109375 
Q 21.484375 6.890625 26.8125 6.890625 
Q 36.078125 6.890625 40.9375 10.546875 
Q 45.796875 14.203125 45.796875 21.1875 
Q 45.796875 27.640625 41.28125 31.265625 
Q 36.765625 34.90625 28.71875 34.90625 
L 20.21875 34.90625 
L 20.21875 43.015625 
L 29.109375 43.015625 
Q 36.375 43.015625 40.234375 45.921875 
Q 44.09375 48.828125 44.09375 54.296875 
Q 44.09375 59.90625 40.109375 62.90625 
Q 36.140625 65.921875 28.71875 65.921875 
Q 24.65625 65.921875 20.015625 65.03125 
Q 15.375 64.15625 9.8125 62.3125 
L 9.8125 71.09375 
Q 15.4375 72.65625 20.34375 73.4375 
Q 25.25 74.21875 29.59375 74.21875 
Q 40.828125 74.21875 47.359375 69.109375 
Q 53.90625 64.015625 53.90625 55.328125 
Q 53.90625 49.265625 50.4375 45.09375 
Q 46.96875 40.921875 40.578125 39.3125 
z
" id="DejaVuSans-51"/>
       </defs>
       <use xlink:href="#DejaVuSans-48"/>
       <use x="63.623047" xlink:href="#DejaVuSans-46"/>
       <use x="95.410156" xlink:href="#DejaVuSans-51"/>
      </g>
     </g>
    </g>
    <g id="ytick_5">
     <g id="line2d_5">
      <g>
       <use style="stroke:#000000;stroke-width:0.8;" x="45" xlink:href="#me0ee14c510" y="31.981148"/>
      </g>
     </g>
     <g id="text_5">
      <!-- 0.4 -->
      <g transform="translate(22.096875 35.780367)scale(0.1 -0.1)">
       <defs>
        <path d="M 37.796875 64.3125 
L 12.890625 25.390625 
L 37.796875 25.390625 
z
M 35.203125 72.90625 
L 47.609375 72.90625 
L 47.609375 25.390625 
L 58.015625 25.390625 
L 58.015625 17.1875 
L 47.609375 17.1875 
L 47.609375 0 
L 37.796875 0 
L 37.796875 17.1875 
L 4.890625 17.1875 
L 4.890625 26.703125 
z
" id="DejaVuSans-52"/>
       </defs>
       <use xlink:href="#DejaVuSans-48"/>
       <use x="63.623047" xlink:href="#DejaVuSans-46"/>
       <use x="95.410156" xlink:href="#DejaVuSans-52"/>
      </g>
     </g>
    </g>
   </g>
   <g id="line2d_6">
    <path clip-path="url(#p46518269eb)" d="M 57.681818 181.133772 
L 86.796123 181.023808 
L 89.489973 180.716871 
L 92.163102 180.18768 
L 94.93984 179.407997 
L 97.840909 178.359309 
L 100.887032 177.020268 
L 104.140374 175.343326 
L 107.600936 173.305121 
L 111.31016 170.858076 
L 115.309492 167.948595 
L 119.640374 164.519069 
L 124.427139 160.437476 
L 129.731952 155.613339 
L 135.74131 149.837902 
L 142.745321 142.785404 
L 151.324198 133.817584 
L 163.798797 120.425928 
L 187.463235 95.004325 
L 198.570187 83.439551 
L 206.506684 75.464437 
L 209.573529 72.703897 
L 212.453877 70.408802 
L 215.313503 68.412612 
L 218.19385 66.670987 
L 221.115642 65.162673 
L 224.099599 63.872987 
L 227.145722 62.799814 
L 230.254011 61.940241 
L 233.465909 61.283566 
L 236.781417 60.833695 
L 240.221257 60.592147 
L 243.80615 60.563907 
L 247.57754 60.758432 
L 251.55615 61.189102 
L 255.762701 61.870398 
L 260.259358 62.826964 
L 265.087567 64.084748 
L 270.330214 65.684535 
L 276.070187 67.67312 
L 282.45254 70.124496 
L 289.725936 73.163045 
L 298.304813 76.997072 
L 309.183824 82.116066 
L 311.318182 83.142254 
L 311.318182 83.142254 
" style="fill:none;stroke:#9467bd;stroke-dasharray:11.1,4.8;stroke-dashoffset:0;stroke-width:3;"/>
   </g>
   <g id="line2d_7">
    <path clip-path="url(#p46518269eb)" d="M 57.681818 181.133772 
L 86.506016 181.023406 
L 88.971925 180.716581 
L 91.375668 180.19345 
L 93.862299 179.422314 
L 96.45254 178.383452 
L 99.187834 177.042781 
L 102.068182 175.380287 
L 105.135027 173.349877 
L 108.409091 170.911884 
L 111.931818 168.006191 
L 115.72393 164.58509 
L 119.847594 160.559838 
L 124.385695 155.811049 
L 129.400401 150.232977 
L 135.057487 143.597431 
L 141.564171 135.612414 
L 149.438503 125.583235 
L 160.27607 111.387644 
L 189.742647 72.622232 
L 200.062166 59.519577 
L 206.77607 51.302251 
L 209.677139 48.123567 
L 212.391711 45.474822 
L 215.085561 43.153917 
L 217.779412 41.123974 
L 220.493984 39.355363 
L 223.229278 37.837131 
L 226.006016 36.549729 
L 228.824198 35.48772 
L 231.704545 34.640018 
L 234.647059 34.005213 
L 237.693182 33.576731 
L 240.842914 33.360202 
L 244.116979 33.360288 
L 247.536096 33.585305 
L 251.120989 34.046565 
L 254.89238 34.757711 
L 258.912433 35.745303 
L 263.201872 37.031966 
L 267.802139 38.647275 
L 272.796123 40.640236 
L 278.266711 43.066922 
L 284.358957 46.01779 
L 291.28008 49.623505 
L 299.444519 54.136694 
L 309.784759 60.120945 
L 311.318182 61.025272 
L 311.318182 61.025272 
" style="fill:none;stroke:#9467bd;stroke-linecap:square;stroke-width:3;"/>
   </g>
   <g id="patch_3">
    <path d="M 45 189 
L 45 25.92 
" style="fill:none;stroke:#000000;stroke-linecap:square;stroke-linejoin:miter;stroke-width:0.8;"/>
   </g>
   <g id="patch_4">
    <path d="M 324 189 
L 324 25.92 
" style="fill:none;stroke:#000000;stroke-linecap:square;stroke-linejoin:miter;stroke-width:0.8;"/>
   </g>
   <g id="patch_5">
    <path d="M 45 189 
L 324 189 
" style="fill:none;stroke:#000000;stroke-linecap:square;stroke-linejoin:miter;stroke-width:0.8;"/>
   </g>
   <g id="patch_6">
    <path d="M 45 25.92 
L 324 25.92 
" style="fill:none;stroke:#000000;stroke-linecap:square;stroke-linejoin:miter;stroke-width:0.8;"/>
   </g>
  </g>
 </g>
 <defs>
  <clipPath id="p46518269eb">
   <rect height="163.08" width="279" x="45" y="25.92"/>
  </clipPath>
 </defs>
</svg>
