<?xml version="1.0" encoding="utf-8" standalone="no"?>
<!DOCTYPE svg PUBLIC "-//W3C//DTD SVG 1.1//EN"
  "http://www.w3.org/Graphics/SVG/1.1/DTD/svg11.dtd">
<!-- Created with matplotlib (https://matplotlib.org/) -->
<svg height="216pt" version="1.1" viewBox="0 0 504 216" width="504pt" xmlns="http://www.w3.org/2000/svg" xmlns:xlink="http://www.w3.org/1999/xlink">
 <metadata>
  <rdf:RDF xmlns:cc="http://creativecommons.org/ns#" xmlns:dc="http://purl.org/dc/elements/1.1/" xmlns:rdf="http://www.w3.org/1999/02/22-rdf-syntax-ns#">
   <cc:Work>
    <dc:type rdf:resource="http://purl.org/dc/dcmitype/StillImage"/>
    <dc:date>2024-11-24T08:42:29.471187</dc:date>
    <dc:format>image/svg+xml</dc:format>
    <dc:creator>
     <cc:Agent>
      <dc:title>Matplotlib v3.3.2, https://matplotlib.org/</dc:title>
     </cc:Agent>
    </dc:creator>
   </cc:Work>
  </rdf:RDF>
 </metadata>
 <defs>
  <style type="text/css">*{stroke-linecap:butt;stroke-linejoin:round;}</style>
 </defs>
 <g id="figure_1">
  <g id="patch_1">
   <path d="M 0 216 
L 504 216 
L 504 0 
L 0 0 
z
" style="fill:none;"/>
  </g>
  <g id="axes_1">
   <g id="patch_2">
    <path d="M 63 189 
L 453.6 189 
L 453.6 25.92 
L 63 25.92 
z
" style="fill:#ffffff;"/>
   </g>
   <g id="PathCollection_1">
    <path clip-path="url(#p6d43d035d8)" d="M 70.658824 193.742986 
C 71.984839 193.742986 73.256723 193.216154 74.194357 192.27852 
C 75.131992 191.340885 75.658824 190.069001 75.658824 188.742986 
C 75.658824 187.41697 75.131992 186.145087 74.194357 185.207452 
C 73.256723 184.269817 71.984839 183.742986 70.658824 183.742986 
C 69.332808 183.742986 68.060924 184.269817 67.12329 185.207452 
C 66.185655 186.145087 65.658824 187.41697 65.658824 188.742986 
C 65.658824 190.069001 66.185655 191.340885 67.12329 192.27852 
C 68.060924 193.216154 69.332808 193.742986 70.658824 193.742986 
z
" style="fill:none;stroke:#1f77b4;"/>
   </g>
   <g id="PathCollection_2">
    <path clip-path="url(#p6d43d035d8)" d="M 78.317647 193.489819 
C 79.643663 193.489819 80.915546 192.962988 81.853181 192.025353 
C 82.790816 191.087719 83.317647 189.815835 83.317647 188.489819 
C 83.317647 187.163804 82.790816 185.89192 81.853181 184.954285 
C 80.915546 184.016651 79.643663 183.489819 78.317647 183.489819 
C 76.991632 183.489819 75.719748 184.016651 74.782113 184.954285 
C 73.844479 185.89192 73.317647 187.163804 73.317647 188.489819 
C 73.317647 189.815835 73.844479 191.087719 74.782113 192.025353 
C 75.719748 192.962988 76.991632 193.489819 78.317647 193.489819 
z
" style="fill:none;stroke:#1f77b4;"/>
   </g>
   <g id="PathCollection_3">
    <path clip-path="url(#p6d43d035d8)" d="M 85.976471 193.238104 
C 87.302486 193.238104 88.57437 192.711272 89.512004 191.773638 
C 90.449639 190.836003 90.976471 189.564119 90.976471 188.238104 
C 90.976471 186.912088 90.449639 185.640204 89.512004 184.70257 
C 88.57437 183.764935 87.302486 183.238104 85.976471 183.238104 
C 84.650455 183.238104 83.378571 183.764935 82.440937 184.70257 
C 81.503302 185.640204 80.976471 186.912088 80.976471 188.238104 
C 80.976471 189.564119 81.503302 190.836003 82.440937 191.773638 
C 83.378571 192.711272 84.650455 193.238104 85.976471 193.238104 
z
" style="fill:none;stroke:#1f77b4;"/>
   </g>
   <g id="PathCollection_4">
    <path clip-path="url(#p6d43d035d8)" d="M 93.635294 192.93061 
C 94.96131 192.93061 96.233193 192.403779 97.170828 191.466144 
C 98.108463 190.528509 98.635294 189.256626 98.635294 187.93061 
C 98.635294 186.604595 98.108463 185.332711 97.170828 184.395076 
C 96.233193 183.457442 94.96131 182.93061 93.635294 182.93061 
C 92.309279 182.93061 91.037395 183.457442 90.09976 184.395076 
C 89.162126 185.332711 88.635294 186.604595 88.635294 187.93061 
C 88.635294 189.256626 89.162126 190.528509 90.09976 191.466144 
C 91.037395 192.403779 92.309279 192.93061 93.635294 192.93061 
z
" style="fill:none;stroke:#1f77b4;"/>
   </g>
   <g id="PathCollection_5">
    <path clip-path="url(#p6d43d035d8)" d="M 101.294118 192.527722 
C 102.620133 192.527722 103.892017 192.000891 104.829652 191.063256 
C 105.767286 190.125622 106.294118 188.853738 106.294118 187.527722 
C 106.294118 186.201707 105.767286 184.929823 104.829652 183.992188 
C 103.892017 183.054554 102.620133 182.527722 101.294118 182.527722 
C 99.968102 182.527722 98.696218 183.054554 97.758584 183.992188 
C 96.820949 184.929823 96.294118 186.201707 96.294118 187.527722 
C 96.294118 188.853738 96.820949 190.125622 97.758584 191.063256 
C 98.696218 192.000891 99.968102 192.527722 101.294118 192.527722 
z
" style="fill:none;stroke:#1f77b4;"/>
   </g>
   <g id="PathCollection_6">
    <path clip-path="url(#p6d43d035d8)" d="M 108.952941 192.004323 
C 110.278957 192.004323 111.550841 191.477491 112.488475 190.539856 
C 113.42611 189.602222 113.952941 188.330338 113.952941 187.004323 
C 113.952941 185.678307 113.42611 184.406423 112.488475 183.468789 
C 111.550841 182.531154 110.278957 182.004323 108.952941 182.004323 
C 107.626926 182.004323 106.355042 182.531154 105.417407 183.468789 
C 104.479773 184.406423 103.952941 185.678307 103.952941 187.004323 
C 103.952941 188.330338 104.479773 189.602222 105.417407 190.539856 
C 106.355042 191.477491 107.626926 192.004323 108.952941 192.004323 
z
" style="fill:none;stroke:#1f77b4;"/>
   </g>
   <g id="PathCollection_7">
    <path clip-path="url(#p6d43d035d8)" d="M 116.611765 191.34693 
C 117.93778 191.34693 119.209664 190.820098 120.147299 189.882464 
C 121.084933 188.944829 121.611765 187.672945 121.611765 186.34693 
C 121.611765 185.020914 121.084933 183.74903 120.147299 182.811396 
C 119.209664 181.873761 117.93778 181.34693 116.611765 181.34693 
C 115.285749 181.34693 114.013865 181.873761 113.076231 182.811396 
C 112.138596 183.74903 111.611765 185.020914 111.611765 186.34693 
C 111.611765 187.672945 112.138596 188.944829 113.076231 189.882464 
C 114.013865 190.820098 115.285749 191.34693 116.611765 191.34693 
z
" style="fill:none;stroke:#1f77b4;"/>
   </g>
   <g id="PathCollection_8">
    <path clip-path="url(#p6d43d035d8)" d="M 124.270588 190.551165 
C 125.596604 190.551165 126.868488 190.024333 127.806122 189.086698 
C 128.743757 188.149064 129.270588 186.87718 129.270588 185.551165 
C 129.270588 184.225149 128.743757 182.953265 127.806122 182.015631 
C 126.868488 181.077996 125.596604 180.551165 124.270588 180.551165 
C 122.944573 180.551165 121.672689 181.077996 120.735054 182.015631 
C 119.79742 182.953265 119.270588 184.225149 119.270588 185.551165 
C 119.270588 186.87718 119.79742 188.149064 120.735054 189.086698 
C 121.672689 190.024333 122.944573 190.551165 124.270588 190.551165 
z
" style="fill:none;stroke:#1f77b4;"/>
   </g>
   <g id="PathCollection_9">
    <path clip-path="url(#p6d43d035d8)" d="M 131.929412 189.619524 
C 133.255427 189.619524 134.527311 189.092693 135.464946 188.155058 
C 136.40258 187.217423 136.929412 185.94554 136.929412 184.619524 
C 136.929412 183.293509 136.40258 182.021625 135.464946 181.08399 
C 134.527311 180.146356 133.255427 179.619524 131.929412 179.619524 
C 130.603396 179.619524 129.331512 180.146356 128.393878 181.08399 
C 127.456243 182.021625 126.929412 183.293509 126.929412 184.619524 
C 126.929412 185.94554 127.456243 187.217423 128.393878 188.155058 
C 129.331512 189.092693 130.603396 189.619524 131.929412 189.619524 
z
" style="fill:none;stroke:#1f77b4;"/>
   </g>
   <g id="PathCollection_10">
    <path clip-path="url(#p6d43d035d8)" d="M 139.588235 188.559453 
C 140.914251 188.559453 142.186135 188.032622 143.123769 187.094987 
C 144.061404 186.157353 144.588235 184.885469 144.588235 183.559453 
C 144.588235 182.233438 144.061404 180.961554 143.123769 180.023919 
C 142.186135 179.086285 140.914251 178.559453 139.588235 178.559453 
C 138.26222 178.559453 136.990336 179.086285 136.052701 180.023919 
C 135.115067 180.961554 134.588235 182.233438 134.588235 183.559453 
C 134.588235 184.885469 135.115067 186.157353 136.052701 187.094987 
C 136.990336 188.032622 138.26222 188.559453 139.588235 188.559453 
z
" style="fill:none;stroke:#1f77b4;"/>
   </g>
   <g id="PathCollection_11">
    <path clip-path="url(#p6d43d035d8)" d="M 147.247059 187.381691 
C 148.573074 187.381691 149.844958 186.85486 150.782593 185.917225 
C 151.720227 184.979591 152.247059 183.707707 152.247059 182.381691 
C 152.247059 181.055676 151.720227 179.783792 150.782593 178.846158 
C 149.844958 177.908523 148.573074 177.381691 147.247059 177.381691 
C 145.921043 177.381691 144.649159 177.908523 143.711525 178.846158 
C 142.77389 179.783792 142.247059 181.055676 142.247059 182.381691 
C 142.247059 183.707707 142.77389 184.979591 143.711525 185.917225 
C 144.649159 186.85486 145.921043 187.381691 147.247059 187.381691 
z
" style="fill:none;stroke:#1f77b4;"/>
   </g>
   <g id="PathCollection_12">
    <path clip-path="url(#p6d43d035d8)" d="M 154.905882 186.098881 
C 156.231898 186.098881 157.503782 185.572049 158.441416 184.634415 
C 159.379051 183.69678 159.905882 182.424896 159.905882 181.098881 
C 159.905882 179.772865 159.379051 178.500982 158.441416 177.563347 
C 157.503782 176.625713 156.231898 176.098881 154.905882 176.098881 
C 153.579867 176.098881 152.307983 176.625713 151.370348 177.563347 
C 150.432714 178.500982 149.905882 179.772865 149.905882 181.098881 
C 149.905882 182.424896 150.432714 183.69678 151.370348 184.634415 
C 152.307983 185.572049 153.579867 186.098881 154.905882 186.098881 
z
" style="fill:none;stroke:#1f77b4;"/>
   </g>
   <g id="PathCollection_13">
    <path clip-path="url(#p6d43d035d8)" d="M 162.564706 184.724416 
C 163.890721 184.724416 165.162605 184.197585 166.10024 183.25995 
C 167.037874 182.322316 167.564706 181.050432 167.564706 179.724416 
C 167.564706 178.398401 167.037874 177.126517 166.10024 176.188882 
C 165.162605 175.251248 163.890721 174.724416 162.564706 174.724416 
C 161.23869 174.724416 159.966807 175.251248 159.029172 176.188882 
C 158.091537 177.126517 157.564706 178.398401 157.564706 179.724416 
C 157.564706 181.050432 158.091537 182.322316 159.029172 183.25995 
C 159.966807 184.197585 161.23869 184.724416 162.564706 184.724416 
z
" style="fill:none;stroke:#1f77b4;"/>
   </g>
   <g id="PathCollection_14">
    <path clip-path="url(#p6d43d035d8)" d="M 170.223529 183.271523 
C 171.549545 183.271523 172.821429 182.744692 173.759063 181.807057 
C 174.696698 180.869423 175.223529 179.597539 175.223529 178.271523 
C 175.223529 176.945508 174.696698 175.673624 173.759063 174.735989 
C 172.821429 173.798355 171.549545 173.271523 170.223529 173.271523 
C 168.897514 173.271523 167.62563 173.798355 166.687996 174.735989 
C 165.750361 175.673624 165.223529 176.945508 165.223529 178.271523 
C 165.223529 179.597539 165.750361 180.869423 166.687996 181.807057 
C 167.62563 182.744692 168.897514 183.271523 170.223529 183.271523 
z
" style="fill:none;stroke:#1f77b4;"/>
   </g>
   <g id="PathCollection_15">
    <path clip-path="url(#p6d43d035d8)" d="M 177.882353 181.752544 
C 179.208368 181.752544 180.480252 181.225712 181.417887 180.288078 
C 182.355521 179.350443 182.882353 178.078559 182.882353 176.752544 
C 182.882353 175.426528 182.355521 174.154644 181.417887 173.21701 
C 180.480252 172.279375 179.208368 171.752544 177.882353 171.752544 
C 176.556337 171.752544 175.284454 172.279375 174.346819 173.21701 
C 173.409184 174.154644 172.882353 175.426528 172.882353 176.752544 
C 172.882353 178.078559 173.409184 179.350443 174.346819 180.288078 
C 175.284454 181.225712 176.556337 181.752544 177.882353 181.752544 
z
" style="fill:none;stroke:#1f77b4;"/>
   </g>
   <g id="PathCollection_16">
    <path clip-path="url(#p6d43d035d8)" d="M 185.541176 180.178416 
C 186.867192 180.178416 188.139076 179.651584 189.07671 178.71395 
C 190.014345 177.776315 190.541176 176.504431 190.541176 175.178416 
C 190.541176 173.8524 190.014345 172.580517 189.07671 171.642882 
C 188.139076 170.705247 186.867192 170.178416 185.541176 170.178416 
C 184.215161 170.178416 182.943277 170.705247 182.005643 171.642882 
C 181.068008 172.580517 180.541176 173.8524 180.541176 175.178416 
C 180.541176 176.504431 181.068008 177.776315 182.005643 178.71395 
C 182.943277 179.651584 184.215161 180.178416 185.541176 180.178416 
z
" style="fill:none;stroke:#1f77b4;"/>
   </g>
   <g id="PathCollection_17">
    <path clip-path="url(#p6d43d035d8)" d="M 193.2 178.558328 
C 194.526016 178.558328 195.797899 178.031496 196.735534 177.093862 
C 197.673168 176.156227 198.2 174.884343 198.2 173.558328 
C 198.2 172.232312 197.673168 170.960429 196.735534 170.022794 
C 195.797899 169.085159 194.526016 168.558328 193.2 168.558328 
C 191.873985 168.558328 190.602101 169.085159 189.664466 170.022794 
C 188.726832 170.960429 188.2 172.232312 188.2 173.558328 
C 188.2 174.884343 188.726832 176.156227 189.664466 177.093862 
C 190.602101 178.031496 191.873985 178.558328 193.2 178.558328 
z
" style="fill:none;stroke:#1f77b4;"/>
   </g>
   <g id="PathCollection_18">
    <path clip-path="url(#p6d43d035d8)" d="M 200.858824 176.899532 
C 202.184839 176.899532 203.456723 176.372701 204.394357 175.435066 
C 205.331992 174.497432 205.858824 173.225548 205.858824 171.899532 
C 205.858824 170.573517 205.331992 169.301633 204.394357 168.363998 
C 203.456723 167.426364 202.184839 166.899532 200.858824 166.899532 
C 199.532808 166.899532 198.260924 167.426364 197.32329 168.363998 
C 196.385655 169.301633 195.858824 170.573517 195.858824 171.899532 
C 195.858824 173.225548 196.385655 174.497432 197.32329 175.435066 
C 198.260924 176.372701 199.532808 176.899532 200.858824 176.899532 
z
" style="fill:none;stroke:#1f77b4;"/>
   </g>
   <g id="PathCollection_19">
    <path clip-path="url(#p6d43d035d8)" d="M 208.517647 175.207299 
C 209.843663 175.207299 211.115546 174.680468 212.053181 173.742833 
C 212.990816 172.805199 213.517647 171.533315 213.517647 170.207299 
C 213.517647 168.881284 212.990816 167.6094 212.053181 166.671766 
C 211.115546 165.734131 209.843663 165.207299 208.517647 165.207299 
C 207.191632 165.207299 205.919748 165.734131 204.982113 166.671766 
C 204.044479 167.6094 203.517647 168.881284 203.517647 170.207299 
C 203.517647 171.533315 204.044479 172.805199 204.982113 173.742833 
C 205.919748 174.680468 207.191632 175.207299 208.517647 175.207299 
z
" style="fill:none;stroke:#1f77b4;"/>
   </g>
   <g id="PathCollection_20">
    <path clip-path="url(#p6d43d035d8)" d="M 216.176471 173.484997 
C 217.502486 173.484997 218.77437 172.958165 219.712004 172.020531 
C 220.649639 171.082896 221.176471 169.811012 221.176471 168.484997 
C 221.176471 167.158981 220.649639 165.887098 219.712004 164.949463 
C 218.77437 164.011828 217.502486 163.484997 216.176471 163.484997 
C 214.850455 163.484997 213.578571 164.011828 212.640937 164.949463 
C 211.703302 165.887098 211.176471 167.158981 211.176471 168.484997 
C 211.176471 169.811012 211.703302 171.082896 212.640937 172.020531 
C 213.578571 172.958165 214.850455 173.484997 216.176471 173.484997 
z
" style="fill:none;stroke:#1f77b4;"/>
   </g>
   <g id="PathCollection_21">
    <path clip-path="url(#p6d43d035d8)" d="M 223.835294 171.734278 
C 225.16131 171.734278 226.433193 171.207446 227.370828 170.269812 
C 228.308463 169.332177 228.835294 168.060293 228.835294 166.734278 
C 228.835294 165.408262 228.308463 164.136378 227.370828 163.198744 
C 226.433193 162.261109 225.16131 161.734278 223.835294 161.734278 
C 222.509279 161.734278 221.237395 162.261109 220.29976 163.198744 
C 219.362126 164.136378 218.835294 165.408262 218.835294 166.734278 
C 218.835294 168.060293 219.362126 169.332177 220.29976 170.269812 
C 221.237395 171.207446 222.509279 171.734278 223.835294 171.734278 
z
" style="fill:none;stroke:#1f77b4;"/>
   </g>
   <g id="PathCollection_22">
    <path clip-path="url(#p6d43d035d8)" d="M 231.494118 169.955357 
C 232.820133 169.955357 234.092017 169.428526 235.029652 168.490891 
C 235.967286 167.553257 236.494118 166.281373 236.494118 164.955357 
C 236.494118 163.629342 235.967286 162.357458 235.029652 161.419823 
C 234.092017 160.482189 232.820133 159.955357 231.494118 159.955357 
C 230.168102 159.955357 228.896218 160.482189 227.958584 161.419823 
C 227.020949 162.357458 226.494118 163.629342 226.494118 164.955357 
C 226.494118 166.281373 227.020949 167.553257 227.958584 168.490891 
C 228.896218 169.428526 230.168102 169.955357 231.494118 169.955357 
z
" style="fill:none;stroke:#1f77b4;"/>
   </g>
   <g id="PathCollection_23">
    <path clip-path="url(#p6d43d035d8)" d="M 239.152941 168.147366 
C 240.478957 168.147366 241.750841 167.620535 242.688475 166.6829 
C 243.62611 165.745266 244.152941 164.473382 244.152941 163.147366 
C 244.152941 161.821351 243.62611 160.549467 242.688475 159.611832 
C 241.750841 158.674198 240.478957 158.147366 239.152941 158.147366 
C 237.826926 158.147366 236.555042 158.674198 235.617407 159.611832 
C 234.679773 160.549467 234.152941 161.821351 234.152941 163.147366 
C 234.152941 164.473382 234.679773 165.745266 235.617407 166.6829 
C 236.555042 167.620535 237.826926 168.147366 239.152941 168.147366 
z
" style="fill:none;stroke:#1f77b4;"/>
   </g>
   <g id="PathCollection_24">
    <path clip-path="url(#p6d43d035d8)" d="M 246.811765 166.308757 
C 248.13778 166.308757 249.409664 165.781926 250.347299 164.844291 
C 251.284933 163.906657 251.811765 162.634773 251.811765 161.308757 
C 251.811765 159.982742 251.284933 158.710858 250.347299 157.773223 
C 249.409664 156.835589 248.13778 156.308757 246.811765 156.308757 
C 245.485749 156.308757 244.213865 156.835589 243.276231 157.773223 
C 242.338596 158.710858 241.811765 159.982742 241.811765 161.308757 
C 241.811765 162.634773 242.338596 163.906657 243.276231 164.844291 
C 244.213865 165.781926 245.485749 166.308757 246.811765 166.308757 
z
" style="fill:none;stroke:#1f77b4;"/>
   </g>
   <g id="PathCollection_25">
    <path clip-path="url(#p6d43d035d8)" d="M 254.470588 164.437756 
C 255.796604 164.437756 257.068488 163.910925 258.006122 162.97329 
C 258.943757 162.035656 259.470588 160.763772 259.470588 159.437756 
C 259.470588 158.111741 258.943757 156.839857 258.006122 155.902223 
C 257.068488 154.964588 255.796604 154.437756 254.470588 154.437756 
C 253.144573 154.437756 251.872689 154.964588 250.935054 155.902223 
C 249.99742 156.839857 249.470588 158.111741 249.470588 159.437756 
C 249.470588 160.763772 249.99742 162.035656 250.935054 162.97329 
C 251.872689 163.910925 253.144573 164.437756 254.470588 164.437756 
z
" style="fill:none;stroke:#1f77b4;"/>
   </g>
   <g id="PathCollection_26">
    <path clip-path="url(#p6d43d035d8)" d="M 262.129412 162.532832 
C 263.455427 162.532832 264.727311 162.006 265.664946 161.068366 
C 266.60258 160.130731 267.129412 158.858847 267.129412 157.532832 
C 267.129412 156.206816 266.60258 154.934932 265.664946 153.997298 
C 264.727311 153.059663 263.455427 152.532832 262.129412 152.532832 
C 260.803396 152.532832 259.531512 153.059663 258.593878 153.997298 
C 257.656243 154.934932 257.129412 156.206816 257.129412 157.532832 
C 257.129412 158.858847 257.656243 160.130731 258.593878 161.068366 
C 259.531512 162.006 260.803396 162.532832 262.129412 162.532832 
z
" style="fill:none;stroke:#1f77b4;"/>
   </g>
   <g id="PathCollection_27">
    <path clip-path="url(#p6d43d035d8)" d="M 269.788235 160.593173 
C 271.114251 160.593173 272.386135 160.066342 273.323769 159.128707 
C 274.261404 158.191073 274.788235 156.919189 274.788235 155.593173 
C 274.788235 154.267158 274.261404 152.995274 273.323769 152.057639 
C 272.386135 151.120005 271.114251 150.593173 269.788235 150.593173 
C 268.46222 150.593173 267.190336 151.120005 266.252701 152.057639 
C 265.315067 152.995274 264.788235 154.267158 264.788235 155.593173 
C 264.788235 156.919189 265.315067 158.191073 266.252701 159.128707 
C 267.190336 160.066342 268.46222 160.593173 269.788235 160.593173 
z
" style="fill:none;stroke:#1f77b4;"/>
   </g>
   <g id="PathCollection_28">
    <path clip-path="url(#p6d43d035d8)" d="M 277.447059 158.61916 
C 278.773074 158.61916 280.044958 158.092328 280.982593 157.154694 
C 281.920227 156.217059 282.447059 154.945175 282.447059 153.61916 
C 282.447059 152.293144 281.920227 151.02126 280.982593 150.083626 
C 280.044958 149.145991 278.773074 148.61916 277.447059 148.61916 
C 276.121043 148.61916 274.849159 149.145991 273.911525 150.083626 
C 272.97389 151.02126 272.447059 152.293144 272.447059 153.61916 
C 272.447059 154.945175 272.97389 156.217059 273.911525 157.154694 
C 274.849159 158.092328 276.121043 158.61916 277.447059 158.61916 
z
" style="fill:none;stroke:#1f77b4;"/>
   </g>
   <g id="PathCollection_29">
    <path clip-path="url(#p6d43d035d8)" d="M 285.105882 156.612795 
C 286.431898 156.612795 287.703782 156.085964 288.641416 155.148329 
C 289.579051 154.210695 290.105882 152.938811 290.105882 151.612795 
C 290.105882 150.28678 289.579051 149.014896 288.641416 148.077261 
C 287.703782 147.139627 286.431898 146.612795 285.105882 146.612795 
C 283.779867 146.612795 282.507983 147.139627 281.570348 148.077261 
C 280.632714 149.014896 280.105882 150.28678 280.105882 151.612795 
C 280.105882 152.938811 280.632714 154.210695 281.570348 155.148329 
C 282.507983 156.085964 283.779867 156.612795 285.105882 156.612795 
z
" style="fill:none;stroke:#1f77b4;"/>
   </g>
   <g id="PathCollection_30">
    <path clip-path="url(#p6d43d035d8)" d="M 292.764706 154.578107 
C 294.090721 154.578107 295.362605 154.051276 296.30024 153.113641 
C 297.237874 152.176007 297.764706 150.904123 297.764706 149.578107 
C 297.764706 148.252092 297.237874 146.980208 296.30024 146.042573 
C 295.362605 145.104939 294.090721 144.578107 292.764706 144.578107 
C 291.43869 144.578107 290.166807 145.104939 289.229172 146.042573 
C 288.291537 146.980208 287.764706 148.252092 287.764706 149.578107 
C 287.764706 150.904123 288.291537 152.176007 289.229172 153.113641 
C 290.166807 154.051276 291.43869 154.578107 292.764706 154.578107 
z
" style="fill:none;stroke:#1f77b4;"/>
   </g>
   <g id="PathCollection_31">
    <path clip-path="url(#p6d43d035d8)" d="M 300.423529 152.521477 
C 301.749545 152.521477 303.021429 151.994645 303.959063 151.057011 
C 304.896698 150.119376 305.423529 148.847492 305.423529 147.521477 
C 305.423529 146.195461 304.896698 144.923577 303.959063 143.985943 
C 303.021429 143.048308 301.749545 142.521477 300.423529 142.521477 
C 299.097514 142.521477 297.82563 143.048308 296.887996 143.985943 
C 295.950361 144.923577 295.423529 146.195461 295.423529 147.521477 
C 295.423529 148.847492 295.950361 150.119376 296.887996 151.057011 
C 297.82563 151.994645 299.097514 152.521477 300.423529 152.521477 
z
" style="fill:none;stroke:#1f77b4;"/>
   </g>
   <g id="PathCollection_32">
    <path clip-path="url(#p6d43d035d8)" d="M 308.082353 150.451892 
C 309.408368 150.451892 310.680252 149.92506 311.617887 148.987426 
C 312.555521 148.049791 313.082353 146.777907 313.082353 145.451892 
C 313.082353 144.125876 312.555521 142.853992 311.617887 141.916358 
C 310.680252 140.978723 309.408368 140.451892 308.082353 140.451892 
C 306.756337 140.451892 305.484454 140.978723 304.546819 141.916358 
C 303.609184 142.853992 303.082353 144.125876 303.082353 145.451892 
C 303.082353 146.777907 303.609184 148.049791 304.546819 148.987426 
C 305.484454 149.92506 306.756337 150.451892 308.082353 150.451892 
z
" style="fill:none;stroke:#1f77b4;"/>
   </g>
   <g id="PathCollection_33">
    <path clip-path="url(#p6d43d035d8)" d="M 315.741176 148.381108 
C 317.067192 148.381108 318.339076 147.854276 319.27671 146.916642 
C 320.214345 145.979007 320.741176 144.707123 320.741176 143.381108 
C 320.741176 142.055092 320.214345 140.783208 319.27671 139.845574 
C 318.339076 138.907939 317.067192 138.381108 315.741176 138.381108 
C 314.415161 138.381108 313.143277 138.907939 312.205643 139.845574 
C 311.268008 140.783208 310.741176 142.055092 310.741176 143.381108 
C 310.741176 144.707123 311.268008 145.979007 312.205643 146.916642 
C 313.143277 147.854276 314.415161 148.381108 315.741176 148.381108 
z
" style="fill:none;stroke:#1f77b4;"/>
   </g>
   <g id="PathCollection_34">
    <path clip-path="url(#p6d43d035d8)" d="M 323.4 146.323691 
C 324.726016 146.323691 325.997899 145.79686 326.935534 144.859225 
C 327.873168 143.921591 328.4 142.649707 328.4 141.323691 
C 328.4 139.997676 327.873168 138.725792 326.935534 137.788158 
C 325.997899 136.850523 324.726016 136.323691 323.4 136.323691 
C 322.073985 136.323691 320.802101 136.850523 319.864466 137.788158 
C 318.926832 138.725792 318.4 139.997676 318.4 141.323691 
C 318.4 142.649707 318.926832 143.921591 319.864466 144.859225 
C 320.802101 145.79686 322.073985 146.323691 323.4 146.323691 
z
" style="fill:none;stroke:#1f77b4;"/>
   </g>
   <g id="PathCollection_35">
    <path clip-path="url(#p6d43d035d8)" d="M 331.058824 144.296938 
C 332.384839 144.296938 333.656723 143.770107 334.594357 142.832472 
C 335.531992 141.894838 336.058824 140.622954 336.058824 139.296938 
C 336.058824 137.970923 335.531992 136.699039 334.594357 135.761405 
C 333.656723 134.82377 332.384839 134.296938 331.058824 134.296938 
C 329.732808 134.296938 328.460924 134.82377 327.52329 135.761405 
C 326.585655 136.699039 326.058824 137.970923 326.058824 139.296938 
C 326.058824 140.622954 326.585655 141.894838 327.52329 142.832472 
C 328.460924 143.770107 329.732808 144.296938 331.058824 144.296938 
z
" style="fill:none;stroke:#1f77b4;"/>
   </g>
   <g id="PathCollection_36">
    <path clip-path="url(#p6d43d035d8)" d="M 338.717647 142.320643 
C 340.043663 142.320643 341.315546 141.793811 342.253181 140.856177 
C 343.190816 139.918542 343.717647 138.646658 343.717647 137.320643 
C 343.717647 135.994627 343.190816 134.722743 342.253181 133.785109 
C 341.315546 132.847474 340.043663 132.320643 338.717647 132.320643 
C 337.391632 132.320643 336.119748 132.847474 335.182113 133.785109 
C 334.244479 134.722743 333.717647 135.994627 333.717647 137.320643 
C 333.717647 138.646658 334.244479 139.918542 335.182113 140.856177 
C 336.119748 141.793811 337.391632 142.320643 338.717647 142.320643 
z
" style="fill:none;stroke:#1f77b4;"/>
   </g>
   <g id="PathCollection_37">
    <path clip-path="url(#p6d43d035d8)" d="M 346.376471 140.416703 
C 347.702486 140.416703 348.97437 139.889871 349.912004 138.952237 
C 350.849639 138.014602 351.376471 136.742718 351.376471 135.416703 
C 351.376471 134.090687 350.849639 132.818804 349.912004 131.881169 
C 348.97437 130.943535 347.702486 130.416703 346.376471 130.416703 
C 345.050455 130.416703 343.778571 130.943535 342.840937 131.881169 
C 341.903302 132.818804 341.376471 134.090687 341.376471 135.416703 
C 341.376471 136.742718 341.903302 138.014602 342.840937 138.952237 
C 343.778571 139.889871 345.050455 140.416703 346.376471 140.416703 
z
" style="fill:none;stroke:#1f77b4;"/>
   </g>
   <g id="PathCollection_38">
    <path clip-path="url(#p6d43d035d8)" d="M 354.035294 138.608549 
C 355.36131 138.608549 356.633193 138.081718 357.570828 137.144083 
C 358.508463 136.206449 359.035294 134.934565 359.035294 133.608549 
C 359.035294 132.282534 358.508463 131.01065 357.570828 130.073015 
C 356.633193 129.135381 355.36131 128.608549 354.035294 128.608549 
C 352.709279 128.608549 351.437395 129.135381 350.49976 130.073015 
C 349.562126 131.01065 349.035294 132.282534 349.035294 133.608549 
C 349.035294 134.934565 349.562126 136.206449 350.49976 137.144083 
C 351.437395 138.081718 352.709279 138.608549 354.035294 138.608549 
z
" style="fill:none;stroke:#1f77b4;"/>
   </g>
   <g id="PathCollection_39">
    <path clip-path="url(#p6d43d035d8)" d="M 361.694118 136.920371 
C 363.020133 136.920371 364.292017 136.39354 365.229652 135.455905 
C 366.167286 134.518271 366.694118 133.246387 366.694118 131.920371 
C 366.694118 130.594356 366.167286 129.322472 365.229652 128.384838 
C 364.292017 127.447203 363.020133 126.920371 361.694118 126.920371 
C 360.368102 126.920371 359.096218 127.447203 358.158584 128.384838 
C 357.220949 129.322472 356.694118 130.594356 356.694118 131.920371 
C 356.694118 133.246387 357.220949 134.518271 358.158584 135.455905 
C 359.096218 136.39354 360.368102 136.920371 361.694118 136.920371 
z
" style="fill:none;stroke:#1f77b4;"/>
   </g>
   <g id="PathCollection_40">
    <path clip-path="url(#p6d43d035d8)" d="M 369.352941 135.376134 
C 370.678957 135.376134 371.950841 134.849303 372.888475 133.911668 
C 373.82611 132.974034 374.352941 131.70215 374.352941 130.376134 
C 374.352941 129.050119 373.82611 127.778235 372.888475 126.8406 
C 371.950841 125.902966 370.678957 125.376134 369.352941 125.376134 
C 368.026926 125.376134 366.755042 125.902966 365.817407 126.8406 
C 364.879773 127.778235 364.352941 129.050119 364.352941 130.376134 
C 364.352941 131.70215 364.879773 132.974034 365.817407 133.911668 
C 366.755042 134.849303 368.026926 135.376134 369.352941 135.376134 
z
" style="fill:none;stroke:#1f77b4;"/>
   </g>
   <g id="PathCollection_41">
    <path clip-path="url(#p6d43d035d8)" d="M 377.011765 133.998362 
C 378.33778 133.998362 379.609664 133.47153 380.547299 132.533896 
C 381.484933 131.596261 382.011765 130.324377 382.011765 128.998362 
C 382.011765 127.672346 381.484933 126.400462 380.547299 125.462828 
C 379.609664 124.525193 378.33778 123.998362 377.011765 123.998362 
C 375.685749 123.998362 374.413865 124.525193 373.476231 125.462828 
C 372.538596 126.400462 372.011765 127.672346 372.011765 128.998362 
C 372.011765 130.324377 372.538596 131.596261 373.476231 132.533896 
C 374.413865 133.47153 375.685749 133.998362 377.011765 133.998362 
z
" style="fill:none;stroke:#1f77b4;"/>
   </g>
   <g id="PathCollection_42">
    <path clip-path="url(#p6d43d035d8)" d="M 384.670588 132.806671 
C 385.996604 132.806671 387.268488 132.279839 388.206122 131.342205 
C 389.143757 130.40457 389.670588 129.132686 389.670588 127.806671 
C 389.670588 126.480655 389.143757 125.208772 388.206122 124.271137 
C 387.268488 123.333503 385.996604 122.806671 384.670588 122.806671 
C 383.344573 122.806671 382.072689 123.333503 381.135054 124.271137 
C 380.19742 125.208772 379.670588 126.480655 379.670588 127.806671 
C 379.670588 129.132686 380.19742 130.40457 381.135054 131.342205 
C 382.072689 132.279839 383.344573 132.806671 384.670588 132.806671 
z
" style="fill:none;stroke:#1f77b4;"/>
   </g>
   <g id="PathCollection_43">
    <path clip-path="url(#p6d43d035d8)" d="M 392.329412 131.816044 
C 393.655427 131.816044 394.927311 131.289213 395.864946 130.351578 
C 396.80258 129.413943 397.329412 128.14206 397.329412 126.816044 
C 397.329412 125.490029 396.80258 124.218145 395.864946 123.28051 
C 394.927311 122.342876 393.655427 121.816044 392.329412 121.816044 
C 391.003396 121.816044 389.731512 122.342876 388.793878 123.28051 
C 387.856243 124.218145 387.329412 125.490029 387.329412 126.816044 
C 387.329412 128.14206 387.856243 129.413943 388.793878 130.351578 
C 389.731512 131.289213 391.003396 131.816044 392.329412 131.816044 
z
" style="fill:none;stroke:#1f77b4;"/>
   </g>
   <g id="PathCollection_44">
    <path clip-path="url(#p6d43d035d8)" d="M 399.988235 131.034817 
C 401.314251 131.034817 402.586135 130.507985 403.523769 129.57035 
C 404.461404 128.632716 404.988235 127.360832 404.988235 126.034817 
C 404.988235 124.708801 404.461404 123.436917 403.523769 122.499283 
C 402.586135 121.561648 401.314251 121.034817 399.988235 121.034817 
C 398.66222 121.034817 397.390336 121.561648 396.452701 122.499283 
C 395.515067 123.436917 394.988235 124.708801 394.988235 126.034817 
C 394.988235 127.360832 395.515067 128.632716 396.452701 129.57035 
C 397.390336 130.507985 398.66222 131.034817 399.988235 131.034817 
z
" style="fill:none;stroke:#1f77b4;"/>
   </g>
   <g id="PathCollection_45">
    <path clip-path="url(#p6d43d035d8)" d="M 407.647059 130.462367 
C 408.973074 130.462367 410.244958 129.935535 411.182593 128.997901 
C 412.120227 128.060266 412.647059 126.788382 412.647059 125.462367 
C 412.647059 124.136351 412.120227 122.864467 411.182593 121.926833 
C 410.244958 120.989198 408.973074 120.462367 407.647059 120.462367 
C 406.321043 120.462367 405.049159 120.989198 404.111525 121.926833 
C 403.17389 122.864467 402.647059 124.136351 402.647059 125.462367 
C 402.647059 126.788382 403.17389 128.060266 404.111525 128.997901 
C 405.049159 129.935535 406.321043 130.462367 407.647059 130.462367 
z
" style="fill:none;stroke:#1f77b4;"/>
   </g>
   <g id="PathCollection_46">
    <path clip-path="url(#p6d43d035d8)" d="M 415.305882 130.086489 
C 416.631898 130.086489 417.903782 129.559657 418.841416 128.622023 
C 419.779051 127.684388 420.305882 126.412504 420.305882 125.086489 
C 420.305882 123.760473 419.779051 122.488589 418.841416 121.550955 
C 417.903782 120.61332 416.631898 120.086489 415.305882 120.086489 
C 413.979867 120.086489 412.707983 120.61332 411.770348 121.550955 
C 410.832714 122.488589 410.305882 123.760473 410.305882 125.086489 
C 410.305882 126.412504 410.832714 127.684388 411.770348 128.622023 
C 412.707983 129.559657 413.979867 130.086489 415.305882 130.086489 
z
" style="fill:none;stroke:#1f77b4;"/>
   </g>
   <g id="PathCollection_47">
    <path clip-path="url(#p6d43d035d8)" d="M 422.964706 129.880436 
C 424.290721 129.880436 425.562605 129.353604 426.50024 128.415969 
C 427.437874 127.478335 427.964706 126.206451 427.964706 124.880436 
C 427.964706 123.55442 427.437874 122.282536 426.50024 121.344902 
C 425.562605 120.407267 424.290721 119.880436 422.964706 119.880436 
C 421.63869 119.880436 420.366807 120.407267 419.429172 121.344902 
C 418.491537 122.282536 417.964706 123.55442 417.964706 124.880436 
C 417.964706 126.206451 418.491537 127.478335 419.429172 128.415969 
C 420.366807 129.353604 421.63869 129.880436 422.964706 129.880436 
z
" style="fill:none;stroke:#1f77b4;"/>
   </g>
   <g id="PathCollection_48">
    <path clip-path="url(#p6d43d035d8)" d="M 430.623529 129.799608 
C 431.949545 129.799608 433.221429 129.272777 434.159063 128.335142 
C 435.096698 127.397508 435.623529 126.125624 435.623529 124.799608 
C 435.623529 123.473593 435.096698 122.201709 434.159063 121.264074 
C 433.221429 120.32644 431.949545 119.799608 430.623529 119.799608 
C 429.297514 119.799608 428.02563 120.32644 427.087996 121.264074 
C 426.150361 122.201709 425.623529 123.473593 425.623529 124.799608 
C 425.623529 126.125624 426.150361 127.397508 427.087996 128.335142 
C 428.02563 129.272777 429.297514 129.799608 430.623529 129.799608 
z
" style="fill:none;stroke:#1f77b4;"/>
   </g>
   <g id="PathCollection_49">
    <path clip-path="url(#p6d43d035d8)" d="M 438.282353 129.777881 
C 439.608368 129.777881 440.880252 129.251049 441.817887 128.313415 
C 442.755521 127.37578 443.282353 126.103896 443.282353 124.777881 
C 443.282353 123.451865 442.755521 122.179981 441.817887 121.242347 
C 440.880252 120.304712 439.608368 119.777881 438.282353 119.777881 
C 436.956337 119.777881 435.684454 120.304712 434.746819 121.242347 
C 433.809184 122.179981 433.282353 123.451865 433.282353 124.777881 
C 433.282353 126.103896 433.809184 127.37578 434.746819 128.313415 
C 435.684454 129.251049 436.956337 129.777881 438.282353 129.777881 
z
" style="fill:none;stroke:#1f77b4;"/>
   </g>
   <g id="PathCollection_50">
    <path clip-path="url(#p6d43d035d8)" d="M 445.941176 129.723542 
C 447.267192 129.723542 448.539076 129.196711 449.47671 128.259076 
C 450.414345 127.321442 450.941176 126.049558 450.941176 124.723542 
C 450.941176 123.397527 450.414345 122.125643 449.47671 121.188009 
C 448.539076 120.250374 447.267192 119.723542 445.941176 119.723542 
C 444.615161 119.723542 443.343277 120.250374 442.405643 121.188009 
C 441.468008 122.125643 440.941176 123.397527 440.941176 124.723542 
C 440.941176 126.049558 441.468008 127.321442 442.405643 128.259076 
C 443.343277 129.196711 444.615161 129.723542 445.941176 129.723542 
z
" style="fill:none;stroke:#1f77b4;"/>
   </g>
   <g id="PathCollection_51">
    <path clip-path="url(#p6d43d035d8)" d="M 453.6 129.514836 
C 454.926016 129.514836 456.197899 128.988005 457.135534 128.05037 
C 458.073168 127.112736 458.6 125.840852 458.6 124.514836 
C 458.6 123.188821 458.073168 121.916937 457.135534 120.979302 
C 456.197899 120.041668 454.926016 119.514836 453.6 119.514836 
C 452.273985 119.514836 451.002101 120.041668 450.064466 120.979302 
C 449.126832 121.916937 448.6 123.188821 448.6 124.514836 
C 448.6 125.840852 449.126832 127.112736 450.064466 128.05037 
C 451.002101 128.988005 452.273985 129.514836 453.6 129.514836 
z
" style="fill:none;stroke:#1f77b4;"/>
   </g>
   <g id="PathCollection_52">
    <defs>
     <path d="M 0 5 
C 1.326016 5 2.597899 4.473168 3.535534 3.535534 
C 4.473168 2.597899 5 1.326016 5 0 
C 5 -1.326016 4.473168 -2.597899 3.535534 -3.535534 
C 2.597899 -4.473168 1.326016 -5 0 -5 
C -1.326016 -5 -2.597899 -4.473168 -3.535534 -3.535534 
C -4.473168 -2.597899 -5 -1.326016 -5 0 
C -5 1.326016 -4.473168 2.597899 -3.535534 3.535534 
C -2.597899 4.473168 -1.326016 5 0 5 
z
" id="m1a20c28495" style="stroke:#1f77b4;"/>
    </defs>
    <g clip-path="url(#p6d43d035d8)">
     <use style="fill:#1f77b4;stroke:#1f77b4;" x="70.658824" xlink:href="#m1a20c28495" y="188.976158"/>
    </g>
   </g>
   <g id="PathCollection_53">
    <g clip-path="url(#p6d43d035d8)">
     <use style="fill:#1f77b4;stroke:#1f77b4;" x="78.317647" xlink:href="#m1a20c28495" y="188.941628"/>
    </g>
   </g>
   <g id="PathCollection_54">
    <g clip-path="url(#p6d43d035d8)">
     <use style="fill:#1f77b4;stroke:#1f77b4;" x="85.976471" xlink:href="#m1a20c28495" y="188.772198"/>
    </g>
   </g>
   <g id="PathCollection_55">
    <g clip-path="url(#p6d43d035d8)">
     <use style="fill:#1f77b4;stroke:#1f77b4;" x="93.635294" xlink:href="#m1a20c28495" y="188.448909"/>
    </g>
   </g>
   <g id="PathCollection_56">
    <g clip-path="url(#p6d43d035d8)">
     <use style="fill:#1f77b4;stroke:#1f77b4;" x="101.294118" xlink:href="#m1a20c28495" y="187.963083"/>
    </g>
   </g>
   <g id="PathCollection_57">
    <g clip-path="url(#p6d43d035d8)">
     <use style="fill:#1f77b4;stroke:#1f77b4;" x="108.952941" xlink:href="#m1a20c28495" y="187.313675"/>
    </g>
   </g>
   <g id="PathCollection_58">
    <g clip-path="url(#p6d43d035d8)">
     <use style="fill:#1f77b4;stroke:#1f77b4;" x="116.611765" xlink:href="#m1a20c28495" y="186.504982"/>
    </g>
   </g>
   <g id="PathCollection_59">
    <g clip-path="url(#p6d43d035d8)">
     <use style="fill:#1f77b4;stroke:#1f77b4;" x="124.270588" xlink:href="#m1a20c28495" y="185.544709"/>
    </g>
   </g>
   <g id="PathCollection_60">
    <g clip-path="url(#p6d43d035d8)">
     <use style="fill:#1f77b4;stroke:#1f77b4;" x="131.929412" xlink:href="#m1a20c28495" y="184.442344"/>
    </g>
   </g>
   <g id="PathCollection_61">
    <g clip-path="url(#p6d43d035d8)">
     <use style="fill:#1f77b4;stroke:#1f77b4;" x="139.588235" xlink:href="#m1a20c28495" y="183.207847"/>
    </g>
   </g>
   <g id="PathCollection_62">
    <g clip-path="url(#p6d43d035d8)">
     <use style="fill:#1f77b4;stroke:#1f77b4;" x="147.247059" xlink:href="#m1a20c28495" y="181.850607"/>
    </g>
   </g>
   <g id="PathCollection_63">
    <g clip-path="url(#p6d43d035d8)">
     <use style="fill:#1f77b4;stroke:#1f77b4;" x="154.905882" xlink:href="#m1a20c28495" y="180.378668"/>
    </g>
   </g>
   <g id="PathCollection_64">
    <g clip-path="url(#p6d43d035d8)">
     <use style="fill:#1f77b4;stroke:#1f77b4;" x="162.564706" xlink:href="#m1a20c28495" y="178.79819"/>
    </g>
   </g>
   <g id="PathCollection_65">
    <g clip-path="url(#p6d43d035d8)">
     <use style="fill:#1f77b4;stroke:#1f77b4;" x="170.223529" xlink:href="#m1a20c28495" y="177.113123"/>
    </g>
   </g>
   <g id="PathCollection_66">
    <g clip-path="url(#p6d43d035d8)">
     <use style="fill:#1f77b4;stroke:#1f77b4;" x="177.882353" xlink:href="#m1a20c28495" y="175.325084"/>
    </g>
   </g>
   <g id="PathCollection_67">
    <g clip-path="url(#p6d43d035d8)">
     <use style="fill:#1f77b4;stroke:#1f77b4;" x="185.541176" xlink:href="#m1a20c28495" y="173.433404"/>
    </g>
   </g>
   <g id="PathCollection_68">
    <g clip-path="url(#p6d43d035d8)">
     <use style="fill:#1f77b4;stroke:#1f77b4;" x="193.2" xlink:href="#m1a20c28495" y="171.435329"/>
    </g>
   </g>
   <g id="PathCollection_69">
    <g clip-path="url(#p6d43d035d8)">
     <use style="fill:#1f77b4;stroke:#1f77b4;" x="200.858824" xlink:href="#m1a20c28495" y="169.326357"/>
    </g>
   </g>
   <g id="PathCollection_70">
    <g clip-path="url(#p6d43d035d8)">
     <use style="fill:#1f77b4;stroke:#1f77b4;" x="208.517647" xlink:href="#m1a20c28495" y="167.100685"/>
    </g>
   </g>
   <g id="PathCollection_71">
    <g clip-path="url(#p6d43d035d8)">
     <use style="fill:#1f77b4;stroke:#1f77b4;" x="216.176471" xlink:href="#m1a20c28495" y="164.751746"/>
    </g>
   </g>
   <g id="PathCollection_72">
    <g clip-path="url(#p6d43d035d8)">
     <use style="fill:#1f77b4;stroke:#1f77b4;" x="223.835294" xlink:href="#m1a20c28495" y="162.272815"/>
    </g>
   </g>
   <g id="PathCollection_73">
    <g clip-path="url(#p6d43d035d8)">
     <use style="fill:#1f77b4;stroke:#1f77b4;" x="231.494118" xlink:href="#m1a20c28495" y="159.657664"/>
    </g>
   </g>
   <g id="PathCollection_74">
    <g clip-path="url(#p6d43d035d8)">
     <use style="fill:#1f77b4;stroke:#1f77b4;" x="239.152941" xlink:href="#m1a20c28495" y="156.90125"/>
    </g>
   </g>
   <g id="PathCollection_75">
    <g clip-path="url(#p6d43d035d8)">
     <use style="fill:#1f77b4;stroke:#1f77b4;" x="246.811765" xlink:href="#m1a20c28495" y="154.000396"/>
    </g>
   </g>
   <g id="PathCollection_76">
    <g clip-path="url(#p6d43d035d8)">
     <use style="fill:#1f77b4;stroke:#1f77b4;" x="254.470588" xlink:href="#m1a20c28495" y="150.954473"/>
    </g>
   </g>
   <g id="PathCollection_77">
    <g clip-path="url(#p6d43d035d8)">
     <use style="fill:#1f77b4;stroke:#1f77b4;" x="262.129412" xlink:href="#m1a20c28495" y="147.766036"/>
    </g>
   </g>
   <g id="PathCollection_78">
    <g clip-path="url(#p6d43d035d8)">
     <use style="fill:#1f77b4;stroke:#1f77b4;" x="269.788235" xlink:href="#m1a20c28495" y="144.441405"/>
    </g>
   </g>
   <g id="PathCollection_79">
    <g clip-path="url(#p6d43d035d8)">
     <use style="fill:#1f77b4;stroke:#1f77b4;" x="277.447059" xlink:href="#m1a20c28495" y="140.991171"/>
    </g>
   </g>
   <g id="PathCollection_80">
    <g clip-path="url(#p6d43d035d8)">
     <use style="fill:#1f77b4;stroke:#1f77b4;" x="285.105882" xlink:href="#m1a20c28495" y="137.430598"/>
    </g>
   </g>
   <g id="PathCollection_81">
    <g clip-path="url(#p6d43d035d8)">
     <use style="fill:#1f77b4;stroke:#1f77b4;" x="292.764706" xlink:href="#m1a20c28495" y="133.779913"/>
    </g>
   </g>
   <g id="PathCollection_82">
    <g clip-path="url(#p6d43d035d8)">
     <use style="fill:#1f77b4;stroke:#1f77b4;" x="300.423529" xlink:href="#m1a20c28495" y="130.064445"/>
    </g>
   </g>
   <g id="PathCollection_83">
    <g clip-path="url(#p6d43d035d8)">
     <use style="fill:#1f77b4;stroke:#1f77b4;" x="308.082353" xlink:href="#m1a20c28495" y="126.314607"/>
    </g>
   </g>
   <g id="PathCollection_84">
    <g clip-path="url(#p6d43d035d8)">
     <use style="fill:#1f77b4;stroke:#1f77b4;" x="315.741176" xlink:href="#m1a20c28495" y="122.565698"/>
    </g>
   </g>
   <g id="PathCollection_85">
    <g clip-path="url(#p6d43d035d8)">
     <use style="fill:#1f77b4;stroke:#1f77b4;" x="323.4" xlink:href="#m1a20c28495" y="118.857493"/>
    </g>
   </g>
   <g id="PathCollection_86">
    <g clip-path="url(#p6d43d035d8)">
     <use style="fill:#1f77b4;stroke:#1f77b4;" x="331.058824" xlink:href="#m1a20c28495" y="115.233614"/>
    </g>
   </g>
   <g id="PathCollection_87">
    <g clip-path="url(#p6d43d035d8)">
     <use style="fill:#1f77b4;stroke:#1f77b4;" x="338.717647" xlink:href="#m1a20c28495" y="111.74065"/>
    </g>
   </g>
   <g id="PathCollection_88">
    <g clip-path="url(#p6d43d035d8)">
     <use style="fill:#1f77b4;stroke:#1f77b4;" x="346.376471" xlink:href="#m1a20c28495" y="108.427014"/>
    </g>
   </g>
   <g id="PathCollection_89">
    <g clip-path="url(#p6d43d035d8)">
     <use style="fill:#1f77b4;stroke:#1f77b4;" x="354.035294" xlink:href="#m1a20c28495" y="105.341505"/>
    </g>
   </g>
   <g id="PathCollection_90">
    <g clip-path="url(#p6d43d035d8)">
     <use style="fill:#1f77b4;stroke:#1f77b4;" x="361.694118" xlink:href="#m1a20c28495" y="102.531567"/>
    </g>
   </g>
   <g id="PathCollection_91">
    <g clip-path="url(#p6d43d035d8)">
     <use style="fill:#1f77b4;stroke:#1f77b4;" x="369.352941" xlink:href="#m1a20c28495" y="100.041214"/>
    </g>
   </g>
   <g id="PathCollection_92">
    <g clip-path="url(#p6d43d035d8)">
     <use style="fill:#1f77b4;stroke:#1f77b4;" x="377.011765" xlink:href="#m1a20c28495" y="97.908601"/>
    </g>
   </g>
   <g id="PathCollection_93">
    <g clip-path="url(#p6d43d035d8)">
     <use style="fill:#1f77b4;stroke:#1f77b4;" x="384.670588" xlink:href="#m1a20c28495" y="96.163229"/>
    </g>
   </g>
   <g id="PathCollection_94">
    <g clip-path="url(#p6d43d035d8)">
     <use style="fill:#1f77b4;stroke:#1f77b4;" x="392.329412" xlink:href="#m1a20c28495" y="94.822744"/>
    </g>
   </g>
   <g id="PathCollection_95">
    <g clip-path="url(#p6d43d035d8)">
     <use style="fill:#1f77b4;stroke:#1f77b4;" x="399.988235" xlink:href="#m1a20c28495" y="93.889336"/>
    </g>
   </g>
   <g id="PathCollection_96">
    <g clip-path="url(#p6d43d035d8)">
     <use style="fill:#1f77b4;stroke:#1f77b4;" x="407.647059" xlink:href="#m1a20c28495" y="93.34569"/>
    </g>
   </g>
   <g id="PathCollection_97">
    <g clip-path="url(#p6d43d035d8)">
     <use style="fill:#1f77b4;stroke:#1f77b4;" x="415.305882" xlink:href="#m1a20c28495" y="93.150484"/>
    </g>
   </g>
   <g id="PathCollection_98">
    <g clip-path="url(#p6d43d035d8)">
     <use style="fill:#1f77b4;stroke:#1f77b4;" x="422.964706" xlink:href="#m1a20c28495" y="93.233412"/>
    </g>
   </g>
   <g id="PathCollection_99">
    <g clip-path="url(#p6d43d035d8)">
     <use style="fill:#1f77b4;stroke:#1f77b4;" x="430.623529" xlink:href="#m1a20c28495" y="93.489698"/>
    </g>
   </g>
   <g id="PathCollection_100">
    <g clip-path="url(#p6d43d035d8)">
     <use style="fill:#1f77b4;stroke:#1f77b4;" x="438.282353" xlink:href="#m1a20c28495" y="93.774101"/>
    </g>
   </g>
   <g id="PathCollection_101">
    <g clip-path="url(#p6d43d035d8)">
     <use style="fill:#1f77b4;stroke:#1f77b4;" x="445.941176" xlink:href="#m1a20c28495" y="93.894372"/>
    </g>
   </g>
   <g id="PathCollection_102">
    <g clip-path="url(#p6d43d035d8)">
     <use style="fill:#1f77b4;stroke:#1f77b4;" x="453.6" xlink:href="#m1a20c28495" y="93.604149"/>
    </g>
   </g>
   <g id="matplotlib.axis_1"/>
   <g id="matplotlib.axis_2"/>
   <g id="line2d_1">
    <path clip-path="url(#p6d43d035d8)" d="M 63 189 
L 109.527353 188.889957 
L 115.175735 188.57423 
L 120.951765 188.027559 
L 127.046912 187.225521 
L 133.493088 186.151689 
L 140.417941 184.769356 
L 147.821471 183.062357 
L 155.863235 180.977649 
L 164.702794 178.453026 
L 174.595441 175.391625 
L 185.924118 171.64727 
L 199.550441 166.900751 
L 217.803971 160.29165 
L 273.521912 139.972844 
L 290.881912 133.949195 
L 296.785588 132.109103 
L 302.2425 130.644143 
L 307.827059 129.37703 
L 313.603088 128.29556 
L 319.634412 127.394095 
L 325.921029 126.68013 
L 332.526765 126.154671 
L 339.515441 125.824276 
L 346.918971 125.699934 
L 354.801176 125.793024 
L 363.257794 126.118721 
L 372.384559 126.696011 
L 382.341029 127.551682 
L 393.3825 128.727842 
L 405.86 130.285897 
L 420.411765 132.334257 
L 438.378088 135.098362 
L 453.6 137.563858 
L 453.6 137.563858 
" style="fill:none;stroke:#1f77b4;stroke-dasharray:11.1,4.8;stroke-dashoffset:0;stroke-width:3;"/>
   </g>
   <g id="line2d_2">
    <path clip-path="url(#p6d43d035d8)" d="M 63 189 
L 109.016765 188.889013 
L 114.186471 188.574375 
L 119.451912 188.02779 
L 124.940735 187.231649 
L 130.716765 186.167261 
L 136.843824 184.810004 
L 143.385735 183.130205 
L 150.438235 181.085188 
L 158.065147 178.637253 
L 166.426029 175.714949 
L 175.744265 172.216189 
L 186.370882 167.981073 
L 198.944118 162.72279 
L 215.506324 155.538774 
L 276.011029 129.075382 
L 291.360588 122.707453 
L 296.721765 120.70998 
L 301.731912 119.081616 
L 306.837794 117.657048 
L 312.103235 116.420254 
L 317.560147 115.368497 
L 323.240441 114.502314 
L 329.144118 113.828235 
L 335.335 113.34678 
L 341.845 113.065746 
L 348.706029 112.994084 
L 355.981912 113.142368 
L 363.768382 113.526576 
L 372.129265 114.165189 
L 381.192206 115.084052 
L 391.116765 116.317368 
L 402.190147 117.922225 
L 414.827206 119.984697 
L 429.793824 122.660816 
L 449.036618 126.34055 
L 453.6 127.237688 
L 453.6 127.237688 
" style="fill:none;stroke:#1f77b4;stroke-linecap:square;stroke-width:3;"/>
   </g>
   <g id="patch_3">
    <path d="M 63 189 
L 63 25.92 
" style="fill:none;stroke:#000000;stroke-linecap:square;stroke-linejoin:miter;stroke-width:0.8;"/>
   </g>
   <g id="patch_4">
    <path d="M 453.6 189 
L 453.6 25.92 
" style="fill:none;stroke:#000000;stroke-linecap:square;stroke-linejoin:miter;stroke-width:0.8;"/>
   </g>
   <g id="patch_5">
    <path d="M 63 189 
L 453.6 189 
" style="fill:none;stroke:#000000;stroke-linecap:square;stroke-linejoin:miter;stroke-width:0.8;"/>
   </g>
   <g id="patch_6">
    <path d="M 63 25.92 
L 453.6 25.92 
" style="fill:none;stroke:#000000;stroke-linecap:square;stroke-linejoin:miter;stroke-width:0.8;"/>
   </g>
  </g>
 </g>
 <defs>
  <clipPath id="p6d43d035d8">
   <rect height="163.08" width="390.6" x="63" y="25.92"/>
  </clipPath>
 </defs>
</svg>
