<?xml version="1.0" encoding="utf-8" standalone="no"?>
<!DOCTYPE svg PUBLIC "-//W3C//DTD SVG 1.1//EN"
  "http://www.w3.org/Graphics/SVG/1.1/DTD/svg11.dtd">
<!-- Created with matplotlib (https://matplotlib.org/) -->
<svg height="216pt" version="1.1" viewBox="0 0 504 216" width="504pt" xmlns="http://www.w3.org/2000/svg" xmlns:xlink="http://www.w3.org/1999/xlink">
 <metadata>
  <rdf:RDF xmlns:cc="http://creativecommons.org/ns#" xmlns:dc="http://purl.org/dc/elements/1.1/" xmlns:rdf="http://www.w3.org/1999/02/22-rdf-syntax-ns#">
   <cc:Work>
    <dc:type rdf:resource="http://purl.org/dc/dcmitype/StillImage"/>
    <dc:date>2024-11-24T08:43:47.272534</dc:date>
    <dc:format>image/svg+xml</dc:format>
    <dc:creator>
     <cc:Agent>
      <dc:title>Matplotlib v3.3.2, https://matplotlib.org/</dc:title>
     </cc:Agent>
    </dc:creator>
   </cc:Work>
  </rdf:RDF>
 </metadata>
 <defs>
  <style type="text/css">*{stroke-linecap:butt;stroke-linejoin:round;}</style>
 </defs>
 <g id="figure_1">
  <g id="patch_1">
   <path d="M 0 216 
L 504 216 
L 504 0 
L 0 0 
z
" style="fill:none;"/>
  </g>
  <g id="axes_1">
   <g id="patch_2">
    <path d="M 63 189 
L 453.6 189 
L 453.6 25.92 
L 63 25.92 
z
" style="fill:#ffffff;"/>
   </g>
   <g id="PathCollection_1">
    <path clip-path="url(#pb7e773e233)" d="M 70.658824 193.032985 
C 71.984839 193.032985 73.256723 192.506153 74.194357 191.568518 
C 75.131992 190.630884 75.658824 189.359 75.658824 188.032985 
C 75.658824 186.706969 75.131992 185.435085 74.194357 184.497451 
C 73.256723 183.559816 71.984839 183.032985 70.658824 183.032985 
C 69.332808 183.032985 68.060924 183.559816 67.12329 184.497451 
C 66.185655 185.435085 65.658824 186.706969 65.658824 188.032985 
C 65.658824 189.359 66.185655 190.630884 67.12329 191.568518 
C 68.060924 192.506153 69.332808 193.032985 70.658824 193.032985 
z
" style="fill:none;stroke:#aec7e8;"/>
   </g>
   <g id="PathCollection_2">
    <path clip-path="url(#pb7e773e233)" d="M 78.317647 192.586652 
C 79.643663 192.586652 80.915546 192.05982 81.853181 191.122186 
C 82.790816 190.184551 83.317647 188.912667 83.317647 187.586652 
C 83.317647 186.260636 82.790816 184.988752 81.853181 184.051118 
C 80.915546 183.113483 79.643663 182.586652 78.317647 182.586652 
C 76.991632 182.586652 75.719748 183.113483 74.782113 184.051118 
C 73.844479 184.988752 73.317647 186.260636 73.317647 187.586652 
C 73.317647 188.912667 73.844479 190.184551 74.782113 191.122186 
C 75.719748 192.05982 76.991632 192.586652 78.317647 192.586652 
z
" style="fill:none;stroke:#aec7e8;"/>
   </g>
   <g id="PathCollection_3">
    <path clip-path="url(#pb7e773e233)" d="M 85.976471 191.845947 
C 87.302486 191.845947 88.57437 191.319115 89.512004 190.381481 
C 90.449639 189.443846 90.976471 188.171962 90.976471 186.845947 
C 90.976471 185.519931 90.449639 184.248047 89.512004 183.310413 
C 88.57437 182.372778 87.302486 181.845947 85.976471 181.845947 
C 84.650455 181.845947 83.378571 182.372778 82.440937 183.310413 
C 81.503302 184.248047 80.976471 185.519931 80.976471 186.845947 
C 80.976471 188.171962 81.503302 189.443846 82.440937 190.381481 
C 83.378571 191.319115 84.650455 191.845947 85.976471 191.845947 
z
" style="fill:none;stroke:#aec7e8;"/>
   </g>
   <g id="PathCollection_4">
    <path clip-path="url(#pb7e773e233)" d="M 93.635294 190.876931 
C 94.96131 190.876931 96.233193 190.3501 97.170828 189.412465 
C 98.108463 188.474831 98.635294 187.202947 98.635294 185.876931 
C 98.635294 184.550916 98.108463 183.279032 97.170828 182.341397 
C 96.233193 181.403763 94.96131 180.876931 93.635294 180.876931 
C 92.309279 180.876931 91.037395 181.403763 90.09976 182.341397 
C 89.162126 183.279032 88.635294 184.550916 88.635294 185.876931 
C 88.635294 187.202947 89.162126 188.474831 90.09976 189.412465 
C 91.037395 190.3501 92.309279 190.876931 93.635294 190.876931 
z
" style="fill:none;stroke:#aec7e8;"/>
   </g>
   <g id="PathCollection_5">
    <path clip-path="url(#pb7e773e233)" d="M 101.294118 189.735147 
C 102.620133 189.735147 103.892017 189.208315 104.829652 188.27068 
C 105.767286 187.333046 106.294118 186.061162 106.294118 184.735147 
C 106.294118 183.409131 105.767286 182.137247 104.829652 181.199613 
C 103.892017 180.261978 102.620133 179.735147 101.294118 179.735147 
C 99.968102 179.735147 98.696218 180.261978 97.758584 181.199613 
C 96.820949 182.137247 96.294118 183.409131 96.294118 184.735147 
C 96.294118 186.061162 96.820949 187.333046 97.758584 188.27068 
C 98.696218 189.208315 99.968102 189.735147 101.294118 189.735147 
z
" style="fill:none;stroke:#aec7e8;"/>
   </g>
   <g id="PathCollection_6">
    <path clip-path="url(#pb7e773e233)" d="M 108.952941 188.46631 
C 110.278957 188.46631 111.550841 187.939478 112.488475 187.001844 
C 113.42611 186.064209 113.952941 184.792325 113.952941 183.46631 
C 113.952941 182.140294 113.42611 180.86841 112.488475 179.930776 
C 111.550841 178.993141 110.278957 178.46631 108.952941 178.46631 
C 107.626926 178.46631 106.355042 178.993141 105.417407 179.930776 
C 104.479773 180.86841 103.952941 182.140294 103.952941 183.46631 
C 103.952941 184.792325 104.479773 186.064209 105.417407 187.001844 
C 106.355042 187.939478 107.626926 188.46631 108.952941 188.46631 
z
" style="fill:none;stroke:#aec7e8;"/>
   </g>
   <g id="PathCollection_7">
    <path clip-path="url(#pb7e773e233)" d="M 116.611765 187.107062 
C 117.93778 187.107062 119.209664 186.58023 120.147299 185.642596 
C 121.084933 184.704961 121.611765 183.433077 121.611765 182.107062 
C 121.611765 180.781046 121.084933 179.509162 120.147299 178.571528 
C 119.209664 177.633893 117.93778 177.107062 116.611765 177.107062 
C 115.285749 177.107062 114.013865 177.633893 113.076231 178.571528 
C 112.138596 179.509162 111.611765 180.781046 111.611765 182.107062 
C 111.611765 183.433077 112.138596 184.704961 113.076231 185.642596 
C 114.013865 186.58023 115.285749 187.107062 116.611765 187.107062 
z
" style="fill:none;stroke:#aec7e8;"/>
   </g>
   <g id="PathCollection_8">
    <path clip-path="url(#pb7e773e233)" d="M 124.270588 185.685758 
C 125.596604 185.685758 126.868488 185.158926 127.806122 184.221292 
C 128.743757 183.283657 129.270588 182.011773 129.270588 180.685758 
C 129.270588 179.359742 128.743757 178.087859 127.806122 177.150224 
C 126.868488 176.212589 125.596604 175.685758 124.270588 175.685758 
C 122.944573 175.685758 121.672689 176.212589 120.735054 177.150224 
C 119.79742 178.087859 119.270588 179.359742 119.270588 180.685758 
C 119.270588 182.011773 119.79742 183.283657 120.735054 184.221292 
C 121.672689 185.158926 122.944573 185.685758 124.270588 185.685758 
z
" style="fill:none;stroke:#aec7e8;"/>
   </g>
   <g id="PathCollection_9">
    <path clip-path="url(#pb7e773e233)" d="M 131.929412 184.223294 
C 133.255427 184.223294 134.527311 183.696462 135.464946 182.758828 
C 136.40258 181.821193 136.929412 180.549309 136.929412 179.223294 
C 136.929412 177.897278 136.40258 176.625394 135.464946 175.68776 
C 134.527311 174.750125 133.255427 174.223294 131.929412 174.223294 
C 130.603396 174.223294 129.331512 174.750125 128.393878 175.68776 
C 127.456243 176.625394 126.929412 177.897278 126.929412 179.223294 
C 126.929412 180.549309 127.456243 181.821193 128.393878 182.758828 
C 129.331512 183.696462 130.603396 184.223294 131.929412 184.223294 
z
" style="fill:none;stroke:#aec7e8;"/>
   </g>
   <g id="PathCollection_10">
    <path clip-path="url(#pb7e773e233)" d="M 139.588235 182.733956 
C 140.914251 182.733956 142.186135 182.207124 143.123769 181.26949 
C 144.061404 180.331855 144.588235 179.059971 144.588235 177.733956 
C 144.588235 176.40794 144.061404 175.136056 143.123769 174.198422 
C 142.186135 173.260787 140.914251 172.733956 139.588235 172.733956 
C 138.26222 172.733956 136.990336 173.260787 136.052701 174.198422 
C 135.115067 175.136056 134.588235 176.40794 134.588235 177.733956 
C 134.588235 179.059971 135.115067 180.331855 136.052701 181.26949 
C 136.990336 182.207124 138.26222 182.733956 139.588235 182.733956 
z
" style="fill:none;stroke:#aec7e8;"/>
   </g>
   <g id="PathCollection_11">
    <path clip-path="url(#pb7e773e233)" d="M 147.247059 181.226293 
C 148.573074 181.226293 149.844958 180.699462 150.782593 179.761827 
C 151.720227 178.824193 152.247059 177.552309 152.247059 176.226293 
C 152.247059 174.900278 151.720227 173.628394 150.782593 172.690759 
C 149.844958 171.753125 148.573074 171.226293 147.247059 171.226293 
C 145.921043 171.226293 144.649159 171.753125 143.711525 172.690759 
C 142.77389 173.628394 142.247059 174.900278 142.247059 176.226293 
C 142.247059 177.552309 142.77389 178.824193 143.711525 179.761827 
C 144.649159 180.699462 145.921043 181.226293 147.247059 181.226293 
z
" style="fill:none;stroke:#aec7e8;"/>
   </g>
   <g id="PathCollection_12">
    <path clip-path="url(#pb7e773e233)" d="M 154.905882 179.703998 
C 156.231898 179.703998 157.503782 179.177166 158.441416 178.239531 
C 159.379051 177.301897 159.905882 176.030013 159.905882 174.703998 
C 159.905882 173.377982 159.379051 172.106098 158.441416 171.168464 
C 157.503782 170.230829 156.231898 169.703998 154.905882 169.703998 
C 153.579867 169.703998 152.307983 170.230829 151.370348 171.168464 
C 150.432714 172.106098 149.905882 173.377982 149.905882 174.703998 
C 149.905882 176.030013 150.432714 177.301897 151.370348 178.239531 
C 152.307983 179.177166 153.579867 179.703998 154.905882 179.703998 
z
" style="fill:none;stroke:#aec7e8;"/>
   </g>
   <g id="PathCollection_13">
    <path clip-path="url(#pb7e773e233)" d="M 162.564706 178.166784 
C 163.890721 178.166784 165.162605 177.639952 166.10024 176.702318 
C 167.037874 175.764683 167.564706 174.492799 167.564706 173.166784 
C 167.564706 171.840768 167.037874 170.568885 166.10024 169.63125 
C 165.162605 168.693615 163.890721 168.166784 162.564706 168.166784 
C 161.23869 168.166784 159.966807 168.693615 159.029172 169.63125 
C 158.091537 170.568885 157.564706 171.840768 157.564706 173.166784 
C 157.564706 174.492799 158.091537 175.764683 159.029172 176.702318 
C 159.966807 177.639952 161.23869 178.166784 162.564706 178.166784 
z
" style="fill:none;stroke:#aec7e8;"/>
   </g>
   <g id="PathCollection_14">
    <path clip-path="url(#pb7e773e233)" d="M 170.223529 176.61127 
C 171.549545 176.61127 172.821429 176.084439 173.759063 175.146804 
C 174.696698 174.209169 175.223529 172.937286 175.223529 171.61127 
C 175.223529 170.285255 174.696698 169.013371 173.759063 168.075736 
C 172.821429 167.138102 171.549545 166.61127 170.223529 166.61127 
C 168.897514 166.61127 167.62563 167.138102 166.687996 168.075736 
C 165.750361 169.013371 165.223529 170.285255 165.223529 171.61127 
C 165.223529 172.937286 165.750361 174.209169 166.687996 175.146804 
C 167.62563 176.084439 168.897514 176.61127 170.223529 176.61127 
z
" style="fill:none;stroke:#aec7e8;"/>
   </g>
   <g id="PathCollection_15">
    <path clip-path="url(#pb7e773e233)" d="M 177.882353 175.031836 
C 179.208368 175.031836 180.480252 174.505005 181.417887 173.56737 
C 182.355521 172.629735 182.882353 171.357852 182.882353 170.031836 
C 182.882353 168.705821 182.355521 167.433937 181.417887 166.496302 
C 180.480252 165.558668 179.208368 165.031836 177.882353 165.031836 
C 176.556337 165.031836 175.284454 165.558668 174.346819 166.496302 
C 173.409184 167.433937 172.882353 168.705821 172.882353 170.031836 
C 172.882353 171.357852 173.409184 172.629735 174.346819 173.56737 
C 175.284454 174.505005 176.556337 175.031836 177.882353 175.031836 
z
" style="fill:none;stroke:#aec7e8;"/>
   </g>
   <g id="PathCollection_16">
    <path clip-path="url(#pb7e773e233)" d="M 185.541176 173.421464 
C 186.867192 173.421464 188.139076 172.894633 189.07671 171.956998 
C 190.014345 171.019364 190.541176 169.74748 190.541176 168.421464 
C 190.541176 167.095449 190.014345 165.823565 189.07671 164.88593 
C 188.139076 163.948296 186.867192 163.421464 185.541176 163.421464 
C 184.215161 163.421464 182.943277 163.948296 182.005643 164.88593 
C 181.068008 165.823565 180.541176 167.095449 180.541176 168.421464 
C 180.541176 169.74748 181.068008 171.019364 182.005643 171.956998 
C 182.943277 172.894633 184.215161 173.421464 185.541176 173.421464 
z
" style="fill:none;stroke:#aec7e8;"/>
   </g>
   <g id="PathCollection_17">
    <path clip-path="url(#pb7e773e233)" d="M 193.2 171.772549 
C 194.526016 171.772549 195.797899 171.245717 196.735534 170.308082 
C 197.673168 169.370448 198.2 168.098564 198.2 166.772549 
C 198.2 165.446533 197.673168 164.174649 196.735534 163.237015 
C 195.797899 162.29938 194.526016 161.772549 193.2 161.772549 
C 191.873985 161.772549 190.602101 162.29938 189.664466 163.237015 
C 188.726832 164.174649 188.2 165.446533 188.2 166.772549 
C 188.2 168.098564 188.726832 169.370448 189.664466 170.308082 
C 190.602101 171.245717 191.873985 171.772549 193.2 171.772549 
z
" style="fill:none;stroke:#aec7e8;"/>
   </g>
   <g id="PathCollection_18">
    <path clip-path="url(#pb7e773e233)" d="M 200.858824 170.077665 
C 202.184839 170.077665 203.456723 169.550834 204.394357 168.613199 
C 205.331992 167.675565 205.858824 166.403681 205.858824 165.077665 
C 205.858824 163.75165 205.331992 162.479766 204.394357 161.542131 
C 203.456723 160.604497 202.184839 160.077665 200.858824 160.077665 
C 199.532808 160.077665 198.260924 160.604497 197.32329 161.542131 
C 196.385655 162.479766 195.858824 163.75165 195.858824 165.077665 
C 195.858824 166.403681 196.385655 167.675565 197.32329 168.613199 
C 198.260924 169.550834 199.532808 170.077665 200.858824 170.077665 
z
" style="fill:none;stroke:#aec7e8;"/>
   </g>
   <g id="PathCollection_19">
    <path clip-path="url(#pb7e773e233)" d="M 208.517647 168.330295 
C 209.843663 168.330295 211.115546 167.803463 212.053181 166.865829 
C 212.990816 165.928194 213.517647 164.65631 213.517647 163.330295 
C 213.517647 162.004279 212.990816 160.732395 212.053181 159.794761 
C 211.115546 158.857126 209.843663 158.330295 208.517647 158.330295 
C 207.191632 158.330295 205.919748 158.857126 204.982113 159.794761 
C 204.044479 160.732395 203.517647 162.004279 203.517647 163.330295 
C 203.517647 164.65631 204.044479 165.928194 204.982113 166.865829 
C 205.919748 167.803463 207.191632 168.330295 208.517647 168.330295 
z
" style="fill:none;stroke:#aec7e8;"/>
   </g>
   <g id="PathCollection_20">
    <path clip-path="url(#pb7e773e233)" d="M 216.176471 166.52549 
C 217.502486 166.52549 218.77437 165.998658 219.712004 165.061024 
C 220.649639 164.123389 221.176471 162.851505 221.176471 161.52549 
C 221.176471 160.199474 220.649639 158.92759 219.712004 157.989956 
C 218.77437 157.052321 217.502486 156.52549 216.176471 156.52549 
C 214.850455 156.52549 213.578571 157.052321 212.640937 157.989956 
C 211.703302 158.92759 211.176471 160.199474 211.176471 161.52549 
C 211.176471 162.851505 211.703302 164.123389 212.640937 165.061024 
C 213.578571 165.998658 214.850455 166.52549 216.176471 166.52549 
z
" style="fill:none;stroke:#aec7e8;"/>
   </g>
   <g id="PathCollection_21">
    <path clip-path="url(#pb7e773e233)" d="M 223.835294 164.660481 
C 225.16131 164.660481 226.433193 164.13365 227.370828 163.196015 
C 228.308463 162.258381 228.835294 160.986497 228.835294 159.660481 
C 228.835294 158.334466 228.308463 157.062582 227.370828 156.124947 
C 226.433193 155.187313 225.16131 154.660481 223.835294 154.660481 
C 222.509279 154.660481 221.237395 155.187313 220.29976 156.124947 
C 219.362126 157.062582 218.835294 158.334466 218.835294 159.660481 
C 218.835294 160.986497 219.362126 162.258381 220.29976 163.196015 
C 221.237395 164.13365 222.509279 164.660481 223.835294 164.660481 
z
" style="fill:none;stroke:#aec7e8;"/>
   </g>
   <g id="PathCollection_22">
    <path clip-path="url(#pb7e773e233)" d="M 231.494118 162.735211 
C 232.820133 162.735211 234.092017 162.20838 235.029652 161.270745 
C 235.967286 160.333111 236.494118 159.061227 236.494118 157.735211 
C 236.494118 156.409196 235.967286 155.137312 235.029652 154.199678 
C 234.092017 153.262043 232.820133 152.735211 231.494118 152.735211 
C 230.168102 152.735211 228.896218 153.262043 227.958584 154.199678 
C 227.020949 155.137312 226.494118 156.409196 226.494118 157.735211 
C 226.494118 159.061227 227.020949 160.333111 227.958584 161.270745 
C 228.896218 162.20838 230.168102 162.735211 231.494118 162.735211 
z
" style="fill:none;stroke:#aec7e8;"/>
   </g>
   <g id="PathCollection_23">
    <path clip-path="url(#pb7e773e233)" d="M 239.152941 160.752786 
C 240.478957 160.752786 241.750841 160.225954 242.688475 159.28832 
C 243.62611 158.350685 244.152941 157.078801 244.152941 155.752786 
C 244.152941 154.42677 243.62611 153.154886 242.688475 152.217252 
C 241.750841 151.279617 240.478957 150.752786 239.152941 150.752786 
C 237.826926 150.752786 236.555042 151.279617 235.617407 152.217252 
C 234.679773 153.154886 234.152941 154.42677 234.152941 155.752786 
C 234.152941 157.078801 234.679773 158.350685 235.617407 159.28832 
C 236.555042 160.225954 237.826926 160.752786 239.152941 160.752786 
z
" style="fill:none;stroke:#aec7e8;"/>
   </g>
   <g id="PathCollection_24">
    <path clip-path="url(#pb7e773e233)" d="M 246.811765 158.719841 
C 248.13778 158.719841 249.409664 158.19301 250.347299 157.255375 
C 251.284933 156.317741 251.811765 155.045857 251.811765 153.719841 
C 251.811765 152.393826 251.284933 151.121942 250.347299 150.184307 
C 249.409664 149.246673 248.13778 148.719841 246.811765 148.719841 
C 245.485749 148.719841 244.213865 149.246673 243.276231 150.184307 
C 242.338596 151.121942 241.811765 152.393826 241.811765 153.719841 
C 241.811765 155.045857 242.338596 156.317741 243.276231 157.255375 
C 244.213865 158.19301 245.485749 158.719841 246.811765 158.719841 
z
" style="fill:none;stroke:#aec7e8;"/>
   </g>
   <g id="PathCollection_25">
    <path clip-path="url(#pb7e773e233)" d="M 254.470588 156.646815 
C 255.796604 156.646815 257.068488 156.119983 258.006122 155.182349 
C 258.943757 154.244714 259.470588 152.97283 259.470588 151.646815 
C 259.470588 150.320799 258.943757 149.048916 258.006122 148.111281 
C 257.068488 147.173647 255.796604 146.646815 254.470588 146.646815 
C 253.144573 146.646815 251.872689 147.173647 250.935054 148.111281 
C 249.99742 149.048916 249.470588 150.320799 249.470588 151.646815 
C 249.470588 152.97283 249.99742 154.244714 250.935054 155.182349 
C 251.872689 156.119983 253.144573 156.646815 254.470588 156.646815 
z
" style="fill:none;stroke:#aec7e8;"/>
   </g>
   <g id="PathCollection_26">
    <path clip-path="url(#pb7e773e233)" d="M 262.129412 154.548111 
C 263.455427 154.548111 264.727311 154.02128 265.664946 153.083645 
C 266.60258 152.14601 267.129412 150.874127 267.129412 149.548111 
C 267.129412 148.222096 266.60258 146.950212 265.664946 146.012577 
C 264.727311 145.074943 263.455427 144.548111 262.129412 144.548111 
C 260.803396 144.548111 259.531512 145.074943 258.593878 146.012577 
C 257.656243 146.950212 257.129412 148.222096 257.129412 149.548111 
C 257.129412 150.874127 257.656243 152.14601 258.593878 153.083645 
C 259.531512 154.02128 260.803396 154.548111 262.129412 154.548111 
z
" style="fill:none;stroke:#aec7e8;"/>
   </g>
   <g id="PathCollection_27">
    <path clip-path="url(#pb7e773e233)" d="M 269.788235 152.442153 
C 271.114251 152.442153 272.386135 151.915322 273.323769 150.977687 
C 274.261404 150.040053 274.788235 148.768169 274.788235 147.442153 
C 274.788235 146.116138 274.261404 144.844254 273.323769 143.906619 
C 272.386135 142.968985 271.114251 142.442153 269.788235 142.442153 
C 268.46222 142.442153 267.190336 142.968985 266.252701 143.906619 
C 265.315067 144.844254 264.788235 146.116138 264.788235 147.442153 
C 264.788235 148.768169 265.315067 150.040053 266.252701 150.977687 
C 267.190336 151.915322 268.46222 152.442153 269.788235 152.442153 
z
" style="fill:none;stroke:#aec7e8;"/>
   </g>
   <g id="PathCollection_28">
    <path clip-path="url(#pb7e773e233)" d="M 277.447059 150.351318 
C 278.773074 150.351318 280.044958 149.824487 280.982593 148.886852 
C 281.920227 147.949218 282.447059 146.677334 282.447059 145.351318 
C 282.447059 144.025303 281.920227 142.753419 280.982593 141.815784 
C 280.044958 140.87815 278.773074 140.351318 277.447059 140.351318 
C 276.121043 140.351318 274.849159 140.87815 273.911525 141.815784 
C 272.97389 142.753419 272.447059 144.025303 272.447059 145.351318 
C 272.447059 146.677334 272.97389 147.949218 273.911525 148.886852 
C 274.849159 149.824487 276.121043 150.351318 277.447059 150.351318 
z
" style="fill:none;stroke:#aec7e8;"/>
   </g>
   <g id="PathCollection_29">
    <path clip-path="url(#pb7e773e233)" d="M 285.105882 148.301741 
C 286.431898 148.301741 287.703782 147.77491 288.641416 146.837275 
C 289.579051 145.899641 290.105882 144.627757 290.105882 143.301741 
C 290.105882 141.975726 289.579051 140.703842 288.641416 139.766207 
C 287.703782 138.828573 286.431898 138.301741 285.105882 138.301741 
C 283.779867 138.301741 282.507983 138.828573 281.570348 139.766207 
C 280.632714 140.703842 280.105882 141.975726 280.105882 143.301741 
C 280.105882 144.627757 280.632714 145.899641 281.570348 146.837275 
C 282.507983 147.77491 283.779867 148.301741 285.105882 148.301741 
z
" style="fill:none;stroke:#aec7e8;"/>
   </g>
   <g id="PathCollection_30">
    <path clip-path="url(#pb7e773e233)" d="M 292.764706 146.322984 
C 294.090721 146.322984 295.362605 145.796152 296.30024 144.858518 
C 297.237874 143.920883 297.764706 142.648999 297.764706 141.322984 
C 297.764706 139.996968 297.237874 138.725084 296.30024 137.78745 
C 295.362605 136.849815 294.090721 136.322984 292.764706 136.322984 
C 291.43869 136.322984 290.166807 136.849815 289.229172 137.78745 
C 288.291537 138.725084 287.764706 139.996968 287.764706 141.322984 
C 287.764706 142.648999 288.291537 143.920883 289.229172 144.858518 
C 290.166807 145.796152 291.43869 146.322984 292.764706 146.322984 
z
" style="fill:none;stroke:#aec7e8;"/>
   </g>
   <g id="PathCollection_31">
    <path clip-path="url(#pb7e773e233)" d="M 300.423529 144.447555 
C 301.749545 144.447555 303.021429 143.920723 303.959063 142.983089 
C 304.896698 142.045454 305.423529 140.77357 305.423529 139.447555 
C 305.423529 138.121539 304.896698 136.849656 303.959063 135.912021 
C 303.021429 134.974386 301.749545 134.447555 300.423529 134.447555 
C 299.097514 134.447555 297.82563 134.974386 296.887996 135.912021 
C 295.950361 136.849656 295.423529 138.121539 295.423529 139.447555 
C 295.423529 140.77357 295.950361 142.045454 296.887996 142.983089 
C 297.82563 143.920723 299.097514 144.447555 300.423529 144.447555 
z
" style="fill:none;stroke:#aec7e8;"/>
   </g>
   <g id="PathCollection_32">
    <path clip-path="url(#pb7e773e233)" d="M 308.082353 142.710284 
C 309.408368 142.710284 310.680252 142.183452 311.617887 141.245817 
C 312.555521 140.308183 313.082353 139.036299 313.082353 137.710284 
C 313.082353 136.384268 312.555521 135.112384 311.617887 134.17475 
C 310.680252 133.237115 309.408368 132.710284 308.082353 132.710284 
C 306.756337 132.710284 305.484454 133.237115 304.546819 134.17475 
C 303.609184 135.112384 303.082353 136.384268 303.082353 137.710284 
C 303.082353 139.036299 303.609184 140.308183 304.546819 141.245817 
C 305.484454 142.183452 306.756337 142.710284 308.082353 142.710284 
z
" style="fill:none;stroke:#aec7e8;"/>
   </g>
   <g id="PathCollection_33">
    <path clip-path="url(#pb7e773e233)" d="M 315.741176 141.147526 
C 317.067192 141.147526 318.339076 140.620695 319.27671 139.68306 
C 320.214345 138.745425 320.741176 137.473542 320.741176 136.147526 
C 320.741176 134.821511 320.214345 133.549627 319.27671 132.611992 
C 318.339076 131.674358 317.067192 131.147526 315.741176 131.147526 
C 314.415161 131.147526 313.143277 131.674358 312.205643 132.611992 
C 311.268008 133.549627 310.741176 134.821511 310.741176 136.147526 
C 310.741176 137.473542 311.268008 138.745425 312.205643 139.68306 
C 313.143277 140.620695 314.415161 141.147526 315.741176 141.147526 
z
" style="fill:none;stroke:#aec7e8;"/>
   </g>
   <g id="PathCollection_34">
    <path clip-path="url(#pb7e773e233)" d="M 323.4 139.796205 
C 324.726016 139.796205 325.997899 139.269374 326.935534 138.331739 
C 327.873168 137.394105 328.4 136.122221 328.4 134.796205 
C 328.4 133.47019 327.873168 132.198306 326.935534 131.260672 
C 325.997899 130.323037 324.726016 129.796205 323.4 129.796205 
C 322.073985 129.796205 320.802101 130.323037 319.864466 131.260672 
C 318.926832 132.198306 318.4 133.47019 318.4 134.796205 
C 318.4 136.122221 318.926832 137.394105 319.864466 138.331739 
C 320.802101 139.269374 322.073985 139.796205 323.4 139.796205 
z
" style="fill:none;stroke:#aec7e8;"/>
   </g>
   <g id="PathCollection_35">
    <path clip-path="url(#pb7e773e233)" d="M 331.058824 138.692672 
C 332.384839 138.692672 333.656723 138.165841 334.594357 137.228206 
C 335.531992 136.290571 336.058824 135.018688 336.058824 133.692672 
C 336.058824 132.366657 335.531992 131.094773 334.594357 130.157138 
C 333.656723 129.219504 332.384839 128.692672 331.058824 128.692672 
C 329.732808 128.692672 328.460924 129.219504 327.52329 130.157138 
C 326.585655 131.094773 326.058824 132.366657 326.058824 133.692672 
C 326.058824 135.018688 326.585655 136.290571 327.52329 137.228206 
C 328.460924 138.165841 329.732808 138.692672 331.058824 138.692672 
z
" style="fill:none;stroke:#aec7e8;"/>
   </g>
   <g id="PathCollection_36">
    <path clip-path="url(#pb7e773e233)" d="M 338.717647 137.871383 
C 340.043663 137.871383 341.315546 137.344551 342.253181 136.406917 
C 343.190816 135.469282 343.717647 134.197398 343.717647 132.871383 
C 343.717647 131.545367 343.190816 130.273483 342.253181 129.335849 
C 341.315546 128.398214 340.043663 127.871383 338.717647 127.871383 
C 337.391632 127.871383 336.119748 128.398214 335.182113 129.335849 
C 334.244479 130.273483 333.717647 131.545367 333.717647 132.871383 
C 333.717647 134.197398 334.244479 135.469282 335.182113 136.406917 
C 336.119748 137.344551 337.391632 137.871383 338.717647 137.871383 
z
" style="fill:none;stroke:#aec7e8;"/>
   </g>
   <g id="PathCollection_37">
    <path clip-path="url(#pb7e773e233)" d="M 346.376471 137.363379 
C 347.702486 137.363379 348.97437 136.836547 349.912004 135.898913 
C 350.849639 134.961278 351.376471 133.689394 351.376471 132.363379 
C 351.376471 131.037363 350.849639 129.765479 349.912004 128.827845 
C 348.97437 127.89021 347.702486 127.363379 346.376471 127.363379 
C 345.050455 127.363379 343.778571 127.89021 342.840937 128.827845 
C 341.903302 129.765479 341.376471 131.037363 341.376471 132.363379 
C 341.376471 133.689394 341.903302 134.961278 342.840937 135.898913 
C 343.778571 136.836547 345.050455 137.363379 346.376471 137.363379 
z
" style="fill:none;stroke:#aec7e8;"/>
   </g>
   <g id="PathCollection_38">
    <path clip-path="url(#pb7e773e233)" d="M 354.035294 137.194569 
C 355.36131 137.194569 356.633193 136.667738 357.570828 135.730103 
C 358.508463 134.792469 359.035294 133.520585 359.035294 132.194569 
C 359.035294 130.868554 358.508463 129.59667 357.570828 128.659035 
C 356.633193 127.721401 355.36131 127.194569 354.035294 127.194569 
C 352.709279 127.194569 351.437395 127.721401 350.49976 128.659035 
C 349.562126 129.59667 349.035294 130.868554 349.035294 132.194569 
C 349.035294 133.520585 349.562126 134.792469 350.49976 135.730103 
C 351.437395 136.667738 352.709279 137.194569 354.035294 137.194569 
z
" style="fill:none;stroke:#aec7e8;"/>
   </g>
   <g id="PathCollection_39">
    <path clip-path="url(#pb7e773e233)" d="M 361.694118 137.3838 
C 363.020133 137.3838 364.292017 136.856969 365.229652 135.919334 
C 366.167286 134.9817 366.694118 133.709816 366.694118 132.3838 
C 366.694118 131.057785 366.167286 129.785901 365.229652 128.848266 
C 364.292017 127.910632 363.020133 127.3838 361.694118 127.3838 
C 360.368102 127.3838 359.096218 127.910632 358.158584 128.848266 
C 357.220949 129.785901 356.694118 131.057785 356.694118 132.3838 
C 356.694118 133.709816 357.220949 134.9817 358.158584 135.919334 
C 359.096218 136.856969 360.368102 137.3838 361.694118 137.3838 
z
" style="fill:none;stroke:#aec7e8;"/>
   </g>
   <g id="PathCollection_40">
    <path clip-path="url(#pb7e773e233)" d="M 369.352941 137.940704 
C 370.678957 137.940704 371.950841 137.413872 372.888475 136.476238 
C 373.82611 135.538603 374.352941 134.266719 374.352941 132.940704 
C 374.352941 131.614688 373.82611 130.342804 372.888475 129.40517 
C 371.950841 128.467535 370.678957 127.940704 369.352941 127.940704 
C 368.026926 127.940704 366.755042 128.467535 365.817407 129.40517 
C 364.879773 130.342804 364.352941 131.614688 364.352941 132.940704 
C 364.352941 134.266719 364.879773 135.538603 365.817407 136.476238 
C 366.755042 137.413872 368.026926 137.940704 369.352941 137.940704 
z
" style="fill:none;stroke:#aec7e8;"/>
   </g>
   <g id="PathCollection_41">
    <path clip-path="url(#pb7e773e233)" d="M 377.011765 138.863326 
C 378.33778 138.863326 379.609664 138.336494 380.547299 137.39886 
C 381.484933 136.461225 382.011765 135.189341 382.011765 133.863326 
C 382.011765 132.53731 381.484933 131.265426 380.547299 130.327792 
C 379.609664 129.390157 378.33778 128.863326 377.011765 128.863326 
C 375.685749 128.863326 374.413865 129.390157 373.476231 130.327792 
C 372.538596 131.265426 372.011765 132.53731 372.011765 133.863326 
C 372.011765 135.189341 372.538596 136.461225 373.476231 137.39886 
C 374.413865 138.336494 375.685749 138.863326 377.011765 138.863326 
z
" style="fill:none;stroke:#aec7e8;"/>
   </g>
   <g id="PathCollection_42">
    <path clip-path="url(#pb7e773e233)" d="M 384.670588 140.135516 
C 385.996604 140.135516 387.268488 139.608684 388.206122 138.671049 
C 389.143757 137.733415 389.670588 136.461531 389.670588 135.135516 
C 389.670588 133.8095 389.143757 132.537616 388.206122 131.599982 
C 387.268488 130.662347 385.996604 130.135516 384.670588 130.135516 
C 383.344573 130.135516 382.072689 130.662347 381.135054 131.599982 
C 380.19742 132.537616 379.670588 133.8095 379.670588 135.135516 
C 379.670588 136.461531 380.19742 137.733415 381.135054 138.671049 
C 382.072689 139.608684 383.344573 140.135516 384.670588 140.135516 
z
" style="fill:none;stroke:#aec7e8;"/>
   </g>
   <g id="PathCollection_43">
    <path clip-path="url(#pb7e773e233)" d="M 392.329412 141.724072 
C 393.655427 141.724072 394.927311 141.19724 395.864946 140.259606 
C 396.80258 139.321971 397.329412 138.050087 397.329412 136.724072 
C 397.329412 135.398056 396.80258 134.126173 395.864946 133.188538 
C 394.927311 132.250903 393.655427 131.724072 392.329412 131.724072 
C 391.003396 131.724072 389.731512 132.250903 388.793878 133.188538 
C 387.856243 134.126173 387.329412 135.398056 387.329412 136.724072 
C 387.329412 138.050087 387.856243 139.321971 388.793878 140.259606 
C 389.731512 141.19724 391.003396 141.724072 392.329412 141.724072 
z
" style="fill:none;stroke:#aec7e8;"/>
   </g>
   <g id="PathCollection_44">
    <path clip-path="url(#pb7e773e233)" d="M 399.988235 143.575641 
C 401.314251 143.575641 402.586135 143.048809 403.523769 142.111174 
C 404.461404 141.17354 404.988235 139.901656 404.988235 138.575641 
C 404.988235 137.249625 404.461404 135.977741 403.523769 135.040107 
C 402.586135 134.102472 401.314251 133.575641 399.988235 133.575641 
C 398.66222 133.575641 397.390336 134.102472 396.452701 135.040107 
C 395.515067 135.977741 394.988235 137.249625 394.988235 138.575641 
C 394.988235 139.901656 395.515067 141.17354 396.452701 142.111174 
C 397.390336 143.048809 398.66222 143.575641 399.988235 143.575641 
z
" style="fill:none;stroke:#aec7e8;"/>
   </g>
   <g id="PathCollection_45">
    <path clip-path="url(#pb7e773e233)" d="M 407.647059 145.613351 
C 408.973074 145.613351 410.244958 145.086519 411.182593 144.148884 
C 412.120227 143.21125 412.647059 141.939366 412.647059 140.613351 
C 412.647059 139.287335 412.120227 138.015451 411.182593 137.077817 
C 410.244958 136.140182 408.973074 135.613351 407.647059 135.613351 
C 406.321043 135.613351 405.049159 136.140182 404.111525 137.077817 
C 403.17389 138.015451 402.647059 139.287335 402.647059 140.613351 
C 402.647059 141.939366 403.17389 143.21125 404.111525 144.148884 
C 405.049159 145.086519 406.321043 145.613351 407.647059 145.613351 
z
" style="fill:none;stroke:#aec7e8;"/>
   </g>
   <g id="PathCollection_46">
    <path clip-path="url(#pb7e773e233)" d="M 415.305882 147.733185 
C 416.631898 147.733185 417.903782 147.206353 418.841416 146.268719 
C 419.779051 145.331084 420.305882 144.0592 420.305882 142.733185 
C 420.305882 141.407169 419.779051 140.135285 418.841416 139.197651 
C 417.903782 138.260016 416.631898 137.733185 415.305882 137.733185 
C 413.979867 137.733185 412.707983 138.260016 411.770348 139.197651 
C 410.832714 140.135285 410.305882 141.407169 410.305882 142.733185 
C 410.305882 144.0592 410.832714 145.331084 411.770348 146.268719 
C 412.707983 147.206353 413.979867 147.733185 415.305882 147.733185 
z
" style="fill:none;stroke:#aec7e8;"/>
   </g>
   <g id="PathCollection_47">
    <path clip-path="url(#pb7e773e233)" d="M 422.964706 149.800073 
C 424.290721 149.800073 425.562605 149.273242 426.50024 148.335607 
C 427.437874 147.397973 427.964706 146.126089 427.964706 144.800073 
C 427.964706 143.474058 427.437874 142.202174 426.50024 141.264539 
C 425.562605 140.326905 424.290721 139.800073 422.964706 139.800073 
C 421.63869 139.800073 420.366807 140.326905 419.429172 141.264539 
C 418.491537 142.202174 417.964706 143.474058 417.964706 144.800073 
C 417.964706 146.126089 418.491537 147.397973 419.429172 148.335607 
C 420.366807 149.273242 421.63869 149.800073 422.964706 149.800073 
z
" style="fill:none;stroke:#aec7e8;"/>
   </g>
   <g id="PathCollection_48">
    <path clip-path="url(#pb7e773e233)" d="M 430.623529 151.643705 
C 431.949545 151.643705 433.221429 151.116873 434.159063 150.179239 
C 435.096698 149.241604 435.623529 147.96972 435.623529 146.643705 
C 435.623529 145.317689 435.096698 144.045806 434.159063 143.108171 
C 433.221429 142.170536 431.949545 141.643705 430.623529 141.643705 
C 429.297514 141.643705 428.02563 142.170536 427.087996 143.108171 
C 426.150361 144.045806 425.623529 145.317689 425.623529 146.643705 
C 425.623529 147.96972 426.150361 149.241604 427.087996 150.179239 
C 428.02563 151.116873 429.297514 151.643705 430.623529 151.643705 
z
" style="fill:none;stroke:#aec7e8;"/>
   </g>
   <g id="PathCollection_49">
    <path clip-path="url(#pb7e773e233)" d="M 438.282353 153.054045 
C 439.608368 153.054045 440.880252 152.527213 441.817887 151.589579 
C 442.755521 150.651944 443.282353 149.38006 443.282353 148.054045 
C 443.282353 146.728029 442.755521 145.456145 441.817887 144.518511 
C 440.880252 143.580876 439.608368 143.054045 438.282353 143.054045 
C 436.956337 143.054045 435.684454 143.580876 434.746819 144.518511 
C 433.809184 145.456145 433.282353 146.728029 433.282353 148.054045 
C 433.282353 149.38006 433.809184 150.651944 434.746819 151.589579 
C 435.684454 152.527213 436.956337 153.054045 438.282353 153.054045 
z
" style="fill:none;stroke:#aec7e8;"/>
   </g>
   <g id="PathCollection_50">
    <path clip-path="url(#pb7e773e233)" d="M 445.941176 153.776554 
C 447.267192 153.776554 448.539076 153.249723 449.47671 152.312088 
C 450.414345 151.374453 450.941176 150.10257 450.941176 148.776554 
C 450.941176 147.450539 450.414345 146.178655 449.47671 145.24102 
C 448.539076 144.303386 447.267192 143.776554 445.941176 143.776554 
C 444.615161 143.776554 443.343277 144.303386 442.405643 145.24102 
C 441.468008 146.178655 440.941176 147.450539 440.941176 148.776554 
C 440.941176 150.10257 441.468008 151.374453 442.405643 152.312088 
C 443.343277 153.249723 444.615161 153.776554 445.941176 153.776554 
z
" style="fill:none;stroke:#aec7e8;"/>
   </g>
   <g id="PathCollection_51">
    <path clip-path="url(#pb7e773e233)" d="M 453.6 153.5071 
C 454.926016 153.5071 456.197899 152.980268 457.135534 152.042634 
C 458.073168 151.104999 458.6 149.833115 458.6 148.5071 
C 458.6 147.181084 458.073168 145.9092 457.135534 144.971566 
C 456.197899 144.033931 454.926016 143.5071 453.6 143.5071 
C 452.273985 143.5071 451.002101 144.033931 450.064466 144.971566 
C 449.126832 145.9092 448.6 147.181084 448.6 148.5071 
C 448.6 149.833115 449.126832 151.104999 450.064466 152.042634 
C 451.002101 152.980268 452.273985 153.5071 453.6 153.5071 
z
" style="fill:none;stroke:#aec7e8;"/>
   </g>
   <g id="PathCollection_52">
    <defs>
     <path d="M 0 5 
C 1.326016 5 2.597899 4.473168 3.535534 3.535534 
C 4.473168 2.597899 5 1.326016 5 0 
C 5 -1.326016 4.473168 -2.597899 3.535534 -3.535534 
C 2.597899 -4.473168 1.326016 -5 0 -5 
C -1.326016 -5 -2.597899 -4.473168 -3.535534 -3.535534 
C -4.473168 -2.597899 -5 -1.326016 -5 0 
C -5 1.326016 -4.473168 2.597899 -3.535534 3.535534 
C -2.597899 4.473168 -1.326016 5 0 5 
z
" id="mbafd1d704d" style="stroke:#aec7e8;"/>
    </defs>
    <g clip-path="url(#pb7e773e233)">
     <use style="fill:#aec7e8;stroke:#aec7e8;" x="70.658824" xlink:href="#mbafd1d704d" y="188.725257"/>
    </g>
   </g>
   <g id="PathCollection_53">
    <g clip-path="url(#pb7e773e233)">
     <use style="fill:#aec7e8;stroke:#aec7e8;" x="78.317647" xlink:href="#mbafd1d704d" y="188.71569"/>
    </g>
   </g>
   <g id="PathCollection_54">
    <g clip-path="url(#pb7e773e233)">
     <use style="fill:#aec7e8;stroke:#aec7e8;" x="85.976471" xlink:href="#mbafd1d704d" y="188.611965"/>
    </g>
   </g>
   <g id="PathCollection_55">
    <g clip-path="url(#pb7e773e233)">
     <use style="fill:#aec7e8;stroke:#aec7e8;" x="93.635294" xlink:href="#mbafd1d704d" y="188.383648"/>
    </g>
   </g>
   <g id="PathCollection_56">
    <g clip-path="url(#pb7e773e233)">
     <use style="fill:#aec7e8;stroke:#aec7e8;" x="101.294118" xlink:href="#mbafd1d704d" y="188.015355"/>
    </g>
   </g>
   <g id="PathCollection_57">
    <g clip-path="url(#pb7e773e233)">
     <use style="fill:#aec7e8;stroke:#aec7e8;" x="108.952941" xlink:href="#mbafd1d704d" y="187.503448"/>
    </g>
   </g>
   <g id="PathCollection_58">
    <g clip-path="url(#pb7e773e233)">
     <use style="fill:#aec7e8;stroke:#aec7e8;" x="116.611765" xlink:href="#mbafd1d704d" y="186.853114"/>
    </g>
   </g>
   <g id="PathCollection_59">
    <g clip-path="url(#pb7e773e233)">
     <use style="fill:#aec7e8;stroke:#aec7e8;" x="124.270588" xlink:href="#mbafd1d704d" y="186.075835"/>
    </g>
   </g>
   <g id="PathCollection_60">
    <g clip-path="url(#pb7e773e233)">
     <use style="fill:#aec7e8;stroke:#aec7e8;" x="131.929412" xlink:href="#mbafd1d704d" y="185.187201"/>
    </g>
   </g>
   <g id="PathCollection_61">
    <g clip-path="url(#pb7e773e233)">
     <use style="fill:#aec7e8;stroke:#aec7e8;" x="139.588235" xlink:href="#mbafd1d704d" y="184.205062"/>
    </g>
   </g>
   <g id="PathCollection_62">
    <g clip-path="url(#pb7e773e233)">
     <use style="fill:#aec7e8;stroke:#aec7e8;" x="147.247059" xlink:href="#mbafd1d704d" y="183.14799"/>
    </g>
   </g>
   <g id="PathCollection_63">
    <g clip-path="url(#pb7e773e233)">
     <use style="fill:#aec7e8;stroke:#aec7e8;" x="154.905882" xlink:href="#mbafd1d704d" y="182.034039"/>
    </g>
   </g>
   <g id="PathCollection_64">
    <g clip-path="url(#pb7e773e233)">
     <use style="fill:#aec7e8;stroke:#aec7e8;" x="162.564706" xlink:href="#mbafd1d704d" y="180.879769"/>
    </g>
   </g>
   <g id="PathCollection_65">
    <g clip-path="url(#pb7e773e233)">
     <use style="fill:#aec7e8;stroke:#aec7e8;" x="170.223529" xlink:href="#mbafd1d704d" y="179.699525"/>
    </g>
   </g>
   <g id="PathCollection_66">
    <g clip-path="url(#pb7e773e233)">
     <use style="fill:#aec7e8;stroke:#aec7e8;" x="177.882353" xlink:href="#mbafd1d704d" y="178.50495"/>
    </g>
   </g>
   <g id="PathCollection_67">
    <g clip-path="url(#pb7e773e233)">
     <use style="fill:#aec7e8;stroke:#aec7e8;" x="185.541176" xlink:href="#mbafd1d704d" y="177.304698"/>
    </g>
   </g>
   <g id="PathCollection_68">
    <g clip-path="url(#pb7e773e233)">
     <use style="fill:#aec7e8;stroke:#aec7e8;" x="193.2" xlink:href="#mbafd1d704d" y="176.104344"/>
    </g>
   </g>
   <g id="PathCollection_69">
    <g clip-path="url(#pb7e773e233)">
     <use style="fill:#aec7e8;stroke:#aec7e8;" x="200.858824" xlink:href="#mbafd1d704d" y="174.906459"/>
    </g>
   </g>
   <g id="PathCollection_70">
    <g clip-path="url(#pb7e773e233)">
     <use style="fill:#aec7e8;stroke:#aec7e8;" x="208.517647" xlink:href="#mbafd1d704d" y="173.710832"/>
    </g>
   </g>
   <g id="PathCollection_71">
    <g clip-path="url(#pb7e773e233)">
     <use style="fill:#aec7e8;stroke:#aec7e8;" x="216.176471" xlink:href="#mbafd1d704d" y="172.514818"/>
    </g>
   </g>
   <g id="PathCollection_72">
    <g clip-path="url(#pb7e773e233)">
     <use style="fill:#aec7e8;stroke:#aec7e8;" x="223.835294" xlink:href="#mbafd1d704d" y="171.313794"/>
    </g>
   </g>
   <g id="PathCollection_73">
    <g clip-path="url(#pb7e773e233)">
     <use style="fill:#aec7e8;stroke:#aec7e8;" x="231.494118" xlink:href="#mbafd1d704d" y="170.1017"/>
    </g>
   </g>
   <g id="PathCollection_74">
    <g clip-path="url(#pb7e773e233)">
     <use style="fill:#aec7e8;stroke:#aec7e8;" x="239.152941" xlink:href="#mbafd1d704d" y="168.871638"/>
    </g>
   </g>
   <g id="PathCollection_75">
    <g clip-path="url(#pb7e773e233)">
     <use style="fill:#aec7e8;stroke:#aec7e8;" x="246.811765" xlink:href="#mbafd1d704d" y="167.616526"/>
    </g>
   </g>
   <g id="PathCollection_76">
    <g clip-path="url(#pb7e773e233)">
     <use style="fill:#aec7e8;stroke:#aec7e8;" x="254.470588" xlink:href="#mbafd1d704d" y="166.329767"/>
    </g>
   </g>
   <g id="PathCollection_77">
    <g clip-path="url(#pb7e773e233)">
     <use style="fill:#aec7e8;stroke:#aec7e8;" x="262.129412" xlink:href="#mbafd1d704d" y="165.00592"/>
    </g>
   </g>
   <g id="PathCollection_78">
    <g clip-path="url(#pb7e773e233)">
     <use style="fill:#aec7e8;stroke:#aec7e8;" x="269.788235" xlink:href="#mbafd1d704d" y="163.641354"/>
    </g>
   </g>
   <g id="PathCollection_79">
    <g clip-path="url(#pb7e773e233)">
     <use style="fill:#aec7e8;stroke:#aec7e8;" x="277.447059" xlink:href="#mbafd1d704d" y="162.234867"/>
    </g>
   </g>
   <g id="PathCollection_80">
    <g clip-path="url(#pb7e773e233)">
     <use style="fill:#aec7e8;stroke:#aec7e8;" x="285.105882" xlink:href="#mbafd1d704d" y="160.78824"/>
    </g>
   </g>
   <g id="PathCollection_81">
    <g clip-path="url(#pb7e773e233)">
     <use style="fill:#aec7e8;stroke:#aec7e8;" x="292.764706" xlink:href="#mbafd1d704d" y="159.306708"/>
    </g>
   </g>
   <g id="PathCollection_82">
    <g clip-path="url(#pb7e773e233)">
     <use style="fill:#aec7e8;stroke:#aec7e8;" x="300.423529" xlink:href="#mbafd1d704d" y="157.799335"/>
    </g>
   </g>
   <g id="PathCollection_83">
    <g clip-path="url(#pb7e773e233)">
     <use style="fill:#aec7e8;stroke:#aec7e8;" x="308.082353" xlink:href="#mbafd1d704d" y="156.27927"/>
    </g>
   </g>
   <g id="PathCollection_84">
    <g clip-path="url(#pb7e773e233)">
     <use style="fill:#aec7e8;stroke:#aec7e8;" x="315.741176" xlink:href="#mbafd1d704d" y="154.763845"/>
    </g>
   </g>
   <g id="PathCollection_85">
    <g clip-path="url(#pb7e773e233)">
     <use style="fill:#aec7e8;stroke:#aec7e8;" x="323.4" xlink:href="#mbafd1d704d" y="153.274527"/>
    </g>
   </g>
   <g id="PathCollection_86">
    <g clip-path="url(#pb7e773e233)">
     <use style="fill:#aec7e8;stroke:#aec7e8;" x="331.058824" xlink:href="#mbafd1d704d" y="151.836678"/>
    </g>
   </g>
   <g id="PathCollection_87">
    <g clip-path="url(#pb7e773e233)">
     <use style="fill:#aec7e8;stroke:#aec7e8;" x="338.717647" xlink:href="#mbafd1d704d" y="150.479104"/>
    </g>
   </g>
   <g id="PathCollection_88">
    <g clip-path="url(#pb7e773e233)">
     <use style="fill:#aec7e8;stroke:#aec7e8;" x="346.376471" xlink:href="#mbafd1d704d" y="149.233391"/>
    </g>
   </g>
   <g id="PathCollection_89">
    <g clip-path="url(#pb7e773e233)">
     <use style="fill:#aec7e8;stroke:#aec7e8;" x="354.035294" xlink:href="#mbafd1d704d" y="148.132983"/>
    </g>
   </g>
   <g id="PathCollection_90">
    <g clip-path="url(#pb7e773e233)">
     <use style="fill:#aec7e8;stroke:#aec7e8;" x="361.694118" xlink:href="#mbafd1d704d" y="147.211999"/>
    </g>
   </g>
   <g id="PathCollection_91">
    <g clip-path="url(#pb7e773e233)">
     <use style="fill:#aec7e8;stroke:#aec7e8;" x="369.352941" xlink:href="#mbafd1d704d" y="146.503762"/>
    </g>
   </g>
   <g id="PathCollection_92">
    <g clip-path="url(#pb7e773e233)">
     <use style="fill:#aec7e8;stroke:#aec7e8;" x="377.011765" xlink:href="#mbafd1d704d" y="146.039015"/>
    </g>
   </g>
   <g id="PathCollection_93">
    <g clip-path="url(#pb7e773e233)">
     <use style="fill:#aec7e8;stroke:#aec7e8;" x="384.670588" xlink:href="#mbafd1d704d" y="145.843811"/>
    </g>
   </g>
   <g id="PathCollection_94">
    <g clip-path="url(#pb7e773e233)">
     <use style="fill:#aec7e8;stroke:#aec7e8;" x="392.329412" xlink:href="#mbafd1d704d" y="145.937056"/>
    </g>
   </g>
   <g id="PathCollection_95">
    <g clip-path="url(#pb7e773e233)">
     <use style="fill:#aec7e8;stroke:#aec7e8;" x="399.988235" xlink:href="#mbafd1d704d" y="146.32767"/>
    </g>
   </g>
   <g id="PathCollection_96">
    <g clip-path="url(#pb7e773e233)">
     <use style="fill:#aec7e8;stroke:#aec7e8;" x="407.647059" xlink:href="#mbafd1d704d" y="147.011369"/>
    </g>
   </g>
   <g id="PathCollection_97">
    <g clip-path="url(#pb7e773e233)">
     <use style="fill:#aec7e8;stroke:#aec7e8;" x="415.305882" xlink:href="#mbafd1d704d" y="147.967031"/>
    </g>
   </g>
   <g id="PathCollection_98">
    <g clip-path="url(#pb7e773e233)">
     <use style="fill:#aec7e8;stroke:#aec7e8;" x="422.964706" xlink:href="#mbafd1d704d" y="149.15262"/>
    </g>
   </g>
   <g id="PathCollection_99">
    <g clip-path="url(#pb7e773e233)">
     <use style="fill:#aec7e8;stroke:#aec7e8;" x="430.623529" xlink:href="#mbafd1d704d" y="150.500671"/>
    </g>
   </g>
   <g id="PathCollection_100">
    <g clip-path="url(#pb7e773e233)">
     <use style="fill:#aec7e8;stroke:#aec7e8;" x="438.282353" xlink:href="#mbafd1d704d" y="151.91329"/>
    </g>
   </g>
   <g id="PathCollection_101">
    <g clip-path="url(#pb7e773e233)">
     <use style="fill:#aec7e8;stroke:#aec7e8;" x="445.941176" xlink:href="#mbafd1d704d" y="153.256661"/>
    </g>
   </g>
   <g id="PathCollection_102">
    <g clip-path="url(#pb7e773e233)">
     <use style="fill:#aec7e8;stroke:#aec7e8;" x="453.6" xlink:href="#mbafd1d704d" y="154.355037"/>
    </g>
   </g>
   <g id="matplotlib.axis_1"/>
   <g id="matplotlib.axis_2"/>
   <g id="line2d_1">
    <path clip-path="url(#pb7e773e233)" d="M 63 189 
L 110.899559 188.889367 
L 117.856324 188.566136 
L 125.132206 188.002896 
L 132.918676 187.174872 
L 141.343382 186.052155 
L 150.565882 184.593974 
L 160.745735 182.754458 
L 172.265882 180.440756 
L 185.700735 177.508044 
L 202.390588 173.6261 
L 227.760441 167.467497 
L 270.107353 157.194723 
L 291.456324 152.256121 
L 298.381176 150.857383 
L 305.050735 149.741089 
L 311.975588 148.809349 
L 319.283382 148.052867 
L 327.006029 147.479547 
L 335.207353 147.095921 
L 343.983088 146.910537 
L 353.428971 146.935944 
L 363.704559 147.188994 
L 375.001324 147.69313 
L 387.638382 148.484253 
L 402.094412 149.618017 
L 419.262941 151.195563 
L 441.250147 153.451634 
L 453.6 154.786525 
L 453.6 154.786525 
" style="fill:none;stroke:#aec7e8;stroke-dasharray:11.1,4.8;stroke-dashoffset:0;stroke-width:3;"/>
   </g>
   <g id="line2d_2">
    <path clip-path="url(#pb7e773e233)" d="M 63 189 
L 110.261324 188.889372 
L 116.579853 188.56994 
L 123.153676 188.012206 
L 130.110441 187.196867 
L 137.577794 186.095124 
L 145.651471 184.675189 
L 154.427206 182.902547 
L 164.160294 180.704789 
L 175.137941 177.991935 
L 187.902647 174.601188 
L 203.698971 170.164841 
L 227.313676 163.276205 
L 267.905441 151.436487 
L 288.839559 145.579775 
L 296.051618 143.732651 
L 302.114853 142.416374 
L 308.337647 141.295428 
L 314.815735 140.356129 
L 321.612941 139.596807 
L 328.793088 139.021063 
L 336.388088 138.637951 
L 344.461765 138.455907 
L 353.109853 138.486102 
L 362.428088 138.743612 
L 372.576029 139.249227 
L 383.808971 140.0359 
L 396.414118 141.146862 
L 410.933971 142.655941 
L 428.485441 144.712675 
L 451.9725 147.704601 
L 453.6 147.917926 
L 453.6 147.917926 
" style="fill:none;stroke:#aec7e8;stroke-linecap:square;stroke-width:3;"/>
   </g>
   <g id="patch_3">
    <path d="M 63 189 
L 63 25.92 
" style="fill:none;stroke:#000000;stroke-linecap:square;stroke-linejoin:miter;stroke-width:0.8;"/>
   </g>
   <g id="patch_4">
    <path d="M 453.6 189 
L 453.6 25.92 
" style="fill:none;stroke:#000000;stroke-linecap:square;stroke-linejoin:miter;stroke-width:0.8;"/>
   </g>
   <g id="patch_5">
    <path d="M 63 189 
L 453.6 189 
" style="fill:none;stroke:#000000;stroke-linecap:square;stroke-linejoin:miter;stroke-width:0.8;"/>
   </g>
   <g id="patch_6">
    <path d="M 63 25.92 
L 453.6 25.92 
" style="fill:none;stroke:#000000;stroke-linecap:square;stroke-linejoin:miter;stroke-width:0.8;"/>
   </g>
  </g>
 </g>
 <defs>
  <clipPath id="pb7e773e233">
   <rect height="163.08" width="390.6" x="63" y="25.92"/>
  </clipPath>
 </defs>
</svg>
