<?xml version="1.0" encoding="utf-8" standalone="no"?>
<!DOCTYPE svg PUBLIC "-//W3C//DTD SVG 1.1//EN"
  "http://www.w3.org/Graphics/SVG/1.1/DTD/svg11.dtd">
<!-- Created with matplotlib (https://matplotlib.org/) -->
<svg height="216pt" version="1.1" viewBox="0 0 504 216" width="504pt" xmlns="http://www.w3.org/2000/svg" xmlns:xlink="http://www.w3.org/1999/xlink">
 <metadata>
  <rdf:RDF xmlns:cc="http://creativecommons.org/ns#" xmlns:dc="http://purl.org/dc/elements/1.1/" xmlns:rdf="http://www.w3.org/1999/02/22-rdf-syntax-ns#">
   <cc:Work>
    <dc:type rdf:resource="http://purl.org/dc/dcmitype/StillImage"/>
    <dc:date>2024-11-24T08:45:55.200028</dc:date>
    <dc:format>image/svg+xml</dc:format>
    <dc:creator>
     <cc:Agent>
      <dc:title>Matplotlib v3.3.2, https://matplotlib.org/</dc:title>
     </cc:Agent>
    </dc:creator>
   </cc:Work>
  </rdf:RDF>
 </metadata>
 <defs>
  <style type="text/css">*{stroke-linecap:butt;stroke-linejoin:round;}</style>
 </defs>
 <g id="figure_1">
  <g id="patch_1">
   <path d="M 0 216 
L 504 216 
L 504 0 
L 0 0 
z
" style="fill:none;"/>
  </g>
  <g id="axes_1">
   <g id="patch_2">
    <path d="M 63 189 
L 453.6 189 
L 453.6 25.92 
L 63 25.92 
z
" style="fill:#ffffff;"/>
   </g>
   <g id="PathCollection_1">
    <path clip-path="url(#p613435e484)" d="M 70.658824 194.003457 
C 71.984839 194.003457 73.256723 193.476626 74.194357 192.538991 
C 75.131992 191.601357 75.658824 190.329473 75.658824 189.003457 
C 75.658824 187.677442 75.131992 186.405558 74.194357 185.467923 
C 73.256723 184.530289 71.984839 184.003457 70.658824 184.003457 
C 69.332808 184.003457 68.060924 184.530289 67.12329 185.467923 
C 66.185655 186.405558 65.658824 187.677442 65.658824 189.003457 
C 65.658824 190.329473 66.185655 191.601357 67.12329 192.538991 
C 68.060924 193.476626 69.332808 194.003457 70.658824 194.003457 
z
" style="fill:none;stroke:#ff7f0e;"/>
   </g>
   <g id="PathCollection_2">
    <path clip-path="url(#p613435e484)" d="M 78.317647 193.852925 
C 79.643663 193.852925 80.915546 193.326093 81.853181 192.388459 
C 82.790816 191.450824 83.317647 190.17894 83.317647 188.852925 
C 83.317647 187.526909 82.790816 186.255025 81.853181 185.317391 
C 80.915546 184.379756 79.643663 183.852925 78.317647 183.852925 
C 76.991632 183.852925 75.719748 184.379756 74.782113 185.317391 
C 73.844479 186.255025 73.317647 187.526909 73.317647 188.852925 
C 73.317647 190.17894 73.844479 191.450824 74.782113 192.388459 
C 75.719748 193.326093 76.991632 193.852925 78.317647 193.852925 
z
" style="fill:none;stroke:#ff7f0e;"/>
   </g>
   <g id="PathCollection_3">
    <path clip-path="url(#p613435e484)" d="M 85.976471 193.668503 
C 87.302486 193.668503 88.57437 193.141671 89.512004 192.204037 
C 90.449639 191.266402 90.976471 189.994518 90.976471 188.668503 
C 90.976471 187.342487 90.449639 186.070603 89.512004 185.132969 
C 88.57437 184.195334 87.302486 183.668503 85.976471 183.668503 
C 84.650455 183.668503 83.378571 184.195334 82.440937 185.132969 
C 81.503302 186.070603 80.976471 187.342487 80.976471 188.668503 
C 80.976471 189.994518 81.503302 191.266402 82.440937 192.204037 
C 83.378571 193.141671 84.650455 193.668503 85.976471 193.668503 
z
" style="fill:none;stroke:#ff7f0e;"/>
   </g>
   <g id="PathCollection_4">
    <path clip-path="url(#p613435e484)" d="M 93.635294 193.419441 
C 94.96131 193.419441 96.233193 192.89261 97.170828 191.954975 
C 98.108463 191.017341 98.635294 189.745457 98.635294 188.419441 
C 98.635294 187.093426 98.108463 185.821542 97.170828 184.883907 
C 96.233193 183.946273 94.96131 183.419441 93.635294 183.419441 
C 92.309279 183.419441 91.037395 183.946273 90.09976 184.883907 
C 89.162126 185.821542 88.635294 187.093426 88.635294 188.419441 
C 88.635294 189.745457 89.162126 191.017341 90.09976 191.954975 
C 91.037395 192.89261 92.309279 193.419441 93.635294 193.419441 
z
" style="fill:none;stroke:#ff7f0e;"/>
   </g>
   <g id="PathCollection_5">
    <path clip-path="url(#p613435e484)" d="M 101.294118 193.084426 
C 102.620133 193.084426 103.892017 192.557594 104.829652 191.61996 
C 105.767286 190.682325 106.294118 189.410441 106.294118 188.084426 
C 106.294118 186.75841 105.767286 185.486526 104.829652 184.548892 
C 103.892017 183.611257 102.620133 183.084426 101.294118 183.084426 
C 99.968102 183.084426 98.696218 183.611257 97.758584 184.548892 
C 96.820949 185.486526 96.294118 186.75841 96.294118 188.084426 
C 96.294118 189.410441 96.820949 190.682325 97.758584 191.61996 
C 98.696218 192.557594 99.968102 193.084426 101.294118 193.084426 
z
" style="fill:none;stroke:#ff7f0e;"/>
   </g>
   <g id="PathCollection_6">
    <path clip-path="url(#p613435e484)" d="M 108.952941 192.650008 
C 110.278957 192.650008 111.550841 192.123176 112.488475 191.185542 
C 113.42611 190.247907 113.952941 188.976023 113.952941 187.650008 
C 113.952941 186.323992 113.42611 185.052108 112.488475 184.114474 
C 111.550841 183.176839 110.278957 182.650008 108.952941 182.650008 
C 107.626926 182.650008 106.355042 183.176839 105.417407 184.114474 
C 104.479773 185.052108 103.952941 186.323992 103.952941 187.650008 
C 103.952941 188.976023 104.479773 190.247907 105.417407 191.185542 
C 106.355042 192.123176 107.626926 192.650008 108.952941 192.650008 
z
" style="fill:none;stroke:#ff7f0e;"/>
   </g>
   <g id="PathCollection_7">
    <path clip-path="url(#p613435e484)" d="M 116.611765 192.109181 
C 117.93778 192.109181 119.209664 191.582349 120.147299 190.644715 
C 121.084933 189.70708 121.611765 188.435197 121.611765 187.109181 
C 121.611765 185.783166 121.084933 184.511282 120.147299 183.573647 
C 119.209664 182.636013 117.93778 182.109181 116.611765 182.109181 
C 115.285749 182.109181 114.013865 182.636013 113.076231 183.573647 
C 112.138596 184.511282 111.611765 185.783166 111.611765 187.109181 
C 111.611765 188.435197 112.138596 189.70708 113.076231 190.644715 
C 114.013865 191.582349 115.285749 192.109181 116.611765 192.109181 
z
" style="fill:none;stroke:#ff7f0e;"/>
   </g>
   <g id="PathCollection_8">
    <path clip-path="url(#p613435e484)" d="M 124.270588 191.460109 
C 125.596604 191.460109 126.868488 190.933278 127.806122 189.995643 
C 128.743757 189.058009 129.270588 187.786125 129.270588 186.460109 
C 129.270588 185.134094 128.743757 183.86221 127.806122 182.924575 
C 126.868488 181.986941 125.596604 181.460109 124.270588 181.460109 
C 122.944573 181.460109 121.672689 181.986941 120.735054 182.924575 
C 119.79742 183.86221 119.270588 185.134094 119.270588 186.460109 
C 119.270588 187.786125 119.79742 189.058009 120.735054 189.995643 
C 121.672689 190.933278 122.944573 191.460109 124.270588 191.460109 
z
" style="fill:none;stroke:#ff7f0e;"/>
   </g>
   <g id="PathCollection_9">
    <path clip-path="url(#p613435e484)" d="M 131.929412 190.705002 
C 133.255427 190.705002 134.527311 190.17817 135.464946 189.240536 
C 136.40258 188.302901 136.929412 187.031017 136.929412 185.705002 
C 136.929412 184.378986 136.40258 183.107103 135.464946 182.169468 
C 134.527311 181.231833 133.255427 180.705002 131.929412 180.705002 
C 130.603396 180.705002 129.331512 181.231833 128.393878 182.169468 
C 127.456243 183.107103 126.929412 184.378986 126.929412 185.705002 
C 126.929412 187.031017 127.456243 188.302901 128.393878 189.240536 
C 129.331512 190.17817 130.603396 190.705002 131.929412 190.705002 
z
" style="fill:none;stroke:#ff7f0e;"/>
   </g>
   <g id="PathCollection_10">
    <path clip-path="url(#p613435e484)" d="M 139.588235 189.849123 
C 140.914251 189.849123 142.186135 189.322292 143.123769 188.384657 
C 144.061404 187.447022 144.588235 186.175139 144.588235 184.849123 
C 144.588235 183.523108 144.061404 182.251224 143.123769 181.313589 
C 142.186135 180.375955 140.914251 179.849123 139.588235 179.849123 
C 138.26222 179.849123 136.990336 180.375955 136.052701 181.313589 
C 135.115067 182.251224 134.588235 183.523108 134.588235 184.849123 
C 134.588235 186.175139 135.115067 187.447022 136.052701 188.384657 
C 136.990336 189.322292 138.26222 189.849123 139.588235 189.849123 
z
" style="fill:none;stroke:#ff7f0e;"/>
   </g>
   <g id="PathCollection_11">
    <path clip-path="url(#p613435e484)" d="M 147.247059 188.899934 
C 148.573074 188.899934 149.844958 188.373103 150.782593 187.435468 
C 151.720227 186.497834 152.247059 185.22595 152.247059 183.899934 
C 152.247059 182.573919 151.720227 181.302035 150.782593 180.3644 
C 149.844958 179.426766 148.573074 178.899934 147.247059 178.899934 
C 145.921043 178.899934 144.649159 179.426766 143.711525 180.3644 
C 142.77389 181.302035 142.247059 182.573919 142.247059 183.899934 
C 142.247059 185.22595 142.77389 186.497834 143.711525 187.435468 
C 144.649159 188.373103 145.921043 188.899934 147.247059 188.899934 
z
" style="fill:none;stroke:#ff7f0e;"/>
   </g>
   <g id="PathCollection_12">
    <path clip-path="url(#p613435e484)" d="M 154.905882 187.866358 
C 156.231898 187.866358 157.503782 187.339526 158.441416 186.401892 
C 159.379051 185.464257 159.905882 184.192374 159.905882 182.866358 
C 159.905882 181.540343 159.379051 180.268459 158.441416 179.330824 
C 157.503782 178.39319 156.231898 177.866358 154.905882 177.866358 
C 153.579867 177.866358 152.307983 178.39319 151.370348 179.330824 
C 150.432714 180.268459 149.905882 181.540343 149.905882 182.866358 
C 149.905882 184.192374 150.432714 185.464257 151.370348 186.401892 
C 152.307983 187.339526 153.579867 187.866358 154.905882 187.866358 
z
" style="fill:none;stroke:#ff7f0e;"/>
   </g>
   <g id="PathCollection_13">
    <path clip-path="url(#p613435e484)" d="M 162.564706 186.758156 
C 163.890721 186.758156 165.162605 186.231324 166.10024 185.29369 
C 167.037874 184.356055 167.564706 183.084171 167.564706 181.758156 
C 167.564706 180.43214 167.037874 179.160256 166.10024 178.222622 
C 165.162605 177.284987 163.890721 176.758156 162.564706 176.758156 
C 161.23869 176.758156 159.966807 177.284987 159.029172 178.222622 
C 158.091537 179.160256 157.564706 180.43214 157.564706 181.758156 
C 157.564706 183.084171 158.091537 184.356055 159.029172 185.29369 
C 159.966807 186.231324 161.23869 186.758156 162.564706 186.758156 
z
" style="fill:none;stroke:#ff7f0e;"/>
   </g>
   <g id="PathCollection_14">
    <path clip-path="url(#p613435e484)" d="M 170.223529 185.585413 
C 171.549545 185.585413 172.821429 185.058582 173.759063 184.120947 
C 174.696698 183.183313 175.223529 181.911429 175.223529 180.585413 
C 175.223529 179.259398 174.696698 177.987514 173.759063 177.049879 
C 172.821429 176.112245 171.549545 175.585413 170.223529 175.585413 
C 168.897514 175.585413 167.62563 176.112245 166.687996 177.049879 
C 165.750361 177.987514 165.223529 179.259398 165.223529 180.585413 
C 165.223529 181.911429 165.750361 183.183313 166.687996 184.120947 
C 167.62563 185.058582 168.897514 185.585413 170.223529 185.585413 
z
" style="fill:none;stroke:#ff7f0e;"/>
   </g>
   <g id="PathCollection_15">
    <path clip-path="url(#p613435e484)" d="M 177.882353 184.358128 
C 179.208368 184.358128 180.480252 183.831296 181.417887 182.893662 
C 182.355521 181.956027 182.882353 180.684143 182.882353 179.358128 
C 182.882353 178.032112 182.355521 176.760229 181.417887 175.822594 
C 180.480252 174.884959 179.208368 174.358128 177.882353 174.358128 
C 176.556337 174.358128 175.284454 174.884959 174.346819 175.822594 
C 173.409184 176.760229 172.882353 178.032112 172.882353 179.358128 
C 172.882353 180.684143 173.409184 181.956027 174.346819 182.893662 
C 175.284454 183.831296 176.556337 184.358128 177.882353 184.358128 
z
" style="fill:none;stroke:#ff7f0e;"/>
   </g>
   <g id="PathCollection_16">
    <path clip-path="url(#p613435e484)" d="M 185.541176 183.085884 
C 186.867192 183.085884 188.139076 182.559053 189.07671 181.621418 
C 190.014345 180.683783 190.541176 179.4119 190.541176 178.085884 
C 190.541176 176.759869 190.014345 175.487985 189.07671 174.55035 
C 188.139076 173.612716 186.867192 173.085884 185.541176 173.085884 
C 184.215161 173.085884 182.943277 173.612716 182.005643 174.55035 
C 181.068008 175.487985 180.541176 176.759869 180.541176 178.085884 
C 180.541176 179.4119 181.068008 180.683783 182.005643 181.621418 
C 182.943277 182.559053 184.215161 183.085884 185.541176 183.085884 
z
" style="fill:none;stroke:#ff7f0e;"/>
   </g>
   <g id="PathCollection_17">
    <path clip-path="url(#p613435e484)" d="M 193.2 181.777616 
C 194.526016 181.777616 195.797899 181.250785 196.735534 180.31315 
C 197.673168 179.375516 198.2 178.103632 198.2 176.777616 
C 198.2 175.451601 197.673168 174.179717 196.735534 173.242082 
C 195.797899 172.304448 194.526016 171.777616 193.2 171.777616 
C 191.873985 171.777616 190.602101 172.304448 189.664466 173.242082 
C 188.726832 174.179717 188.2 175.451601 188.2 176.777616 
C 188.2 178.103632 188.726832 179.375516 189.664466 180.31315 
C 190.602101 181.250785 191.873985 181.777616 193.2 181.777616 
z
" style="fill:none;stroke:#ff7f0e;"/>
   </g>
   <g id="PathCollection_18">
    <path clip-path="url(#p613435e484)" d="M 200.858824 180.441448 
C 202.184839 180.441448 203.456723 179.914616 204.394357 178.976981 
C 205.331992 178.039347 205.858824 176.767463 205.858824 175.441448 
C 205.858824 174.115432 205.331992 172.843548 204.394357 171.905914 
C 203.456723 170.968279 202.184839 170.441448 200.858824 170.441448 
C 199.532808 170.441448 198.260924 170.968279 197.32329 171.905914 
C 196.385655 172.843548 195.858824 174.115432 195.858824 175.441448 
C 195.858824 176.767463 196.385655 178.039347 197.32329 178.976981 
C 198.260924 179.914616 199.532808 180.441448 200.858824 180.441448 
z
" style="fill:none;stroke:#ff7f0e;"/>
   </g>
   <g id="PathCollection_19">
    <path clip-path="url(#p613435e484)" d="M 208.517647 179.084599 
C 209.843663 179.084599 211.115546 178.557767 212.053181 177.620133 
C 212.990816 176.682498 213.517647 175.410614 213.517647 174.084599 
C 213.517647 172.758583 212.990816 171.486699 212.053181 170.549065 
C 211.115546 169.61143 209.843663 169.084599 208.517647 169.084599 
C 207.191632 169.084599 205.919748 169.61143 204.982113 170.549065 
C 204.044479 171.486699 203.517647 172.758583 203.517647 174.084599 
C 203.517647 175.410614 204.044479 176.682498 204.982113 177.620133 
C 205.919748 178.557767 207.191632 179.084599 208.517647 179.084599 
z
" style="fill:none;stroke:#ff7f0e;"/>
   </g>
   <g id="PathCollection_20">
    <path clip-path="url(#p613435e484)" d="M 216.176471 177.713358 
C 217.502486 177.713358 218.77437 177.186526 219.712004 176.248892 
C 220.649639 175.311257 221.176471 174.039373 221.176471 172.713358 
C 221.176471 171.387342 220.649639 170.115458 219.712004 169.177824 
C 218.77437 168.240189 217.502486 167.713358 216.176471 167.713358 
C 214.850455 167.713358 213.578571 168.240189 212.640937 169.177824 
C 211.703302 170.115458 211.176471 171.387342 211.176471 172.713358 
C 211.176471 174.039373 211.703302 175.311257 212.640937 176.248892 
C 213.578571 177.186526 214.850455 177.713358 216.176471 177.713358 
z
" style="fill:none;stroke:#ff7f0e;"/>
   </g>
   <g id="PathCollection_21">
    <path clip-path="url(#p613435e484)" d="M 223.835294 176.333104 
C 225.16131 176.333104 226.433193 175.806273 227.370828 174.868638 
C 228.308463 173.931004 228.835294 172.65912 228.835294 171.333104 
C 228.835294 170.007089 228.308463 168.735205 227.370828 167.79757 
C 226.433193 166.859936 225.16131 166.333104 223.835294 166.333104 
C 222.509279 166.333104 221.237395 166.859936 220.29976 167.79757 
C 219.362126 168.735205 218.835294 170.007089 218.835294 171.333104 
C 218.835294 172.65912 219.362126 173.931004 220.29976 174.868638 
C 221.237395 175.806273 222.509279 176.333104 223.835294 176.333104 
z
" style="fill:none;stroke:#ff7f0e;"/>
   </g>
   <g id="PathCollection_22">
    <path clip-path="url(#p613435e484)" d="M 231.494118 174.948381 
C 232.820133 174.948381 234.092017 174.42155 235.029652 173.483915 
C 235.967286 172.546281 236.494118 171.274397 236.494118 169.948381 
C 236.494118 168.622366 235.967286 167.350482 235.029652 166.412847 
C 234.092017 165.475213 232.820133 164.948381 231.494118 164.948381 
C 230.168102 164.948381 228.896218 165.475213 227.958584 166.412847 
C 227.020949 167.350482 226.494118 168.622366 226.494118 169.948381 
C 226.494118 171.274397 227.020949 172.546281 227.958584 173.483915 
C 228.896218 174.42155 230.168102 174.948381 231.494118 174.948381 
z
" style="fill:none;stroke:#ff7f0e;"/>
   </g>
   <g id="PathCollection_23">
    <path clip-path="url(#p613435e484)" d="M 239.152941 173.563004 
C 240.478957 173.563004 241.750841 173.036173 242.688475 172.098538 
C 243.62611 171.160904 244.152941 169.88902 244.152941 168.563004 
C 244.152941 167.236989 243.62611 165.965105 242.688475 165.02747 
C 241.750841 164.089836 240.478957 163.563004 239.152941 163.563004 
C 237.826926 163.563004 236.555042 164.089836 235.617407 165.02747 
C 234.679773 165.965105 234.152941 167.236989 234.152941 168.563004 
C 234.152941 169.88902 234.679773 171.160904 235.617407 172.098538 
C 236.555042 173.036173 237.826926 173.563004 239.152941 173.563004 
z
" style="fill:none;stroke:#ff7f0e;"/>
   </g>
   <g id="PathCollection_24">
    <path clip-path="url(#p613435e484)" d="M 246.811765 172.180204 
C 248.13778 172.180204 249.409664 171.653372 250.347299 170.715738 
C 251.284933 169.778103 251.811765 168.506219 251.811765 167.180204 
C 251.811765 165.854188 251.284933 164.582305 250.347299 163.64467 
C 249.409664 162.707035 248.13778 162.180204 246.811765 162.180204 
C 245.485749 162.180204 244.213865 162.707035 243.276231 163.64467 
C 242.338596 164.582305 241.811765 165.854188 241.811765 167.180204 
C 241.811765 168.506219 242.338596 169.778103 243.276231 170.715738 
C 244.213865 171.653372 245.485749 172.180204 246.811765 172.180204 
z
" style="fill:none;stroke:#ff7f0e;"/>
   </g>
   <g id="PathCollection_25">
    <path clip-path="url(#p613435e484)" d="M 254.470588 170.802791 
C 255.796604 170.802791 257.068488 170.27596 258.006122 169.338325 
C 258.943757 168.40069 259.470588 167.128807 259.470588 165.802791 
C 259.470588 164.476776 258.943757 163.204892 258.006122 162.267257 
C 257.068488 161.329623 255.796604 160.802791 254.470588 160.802791 
C 253.144573 160.802791 251.872689 161.329623 250.935054 162.267257 
C 249.99742 163.204892 249.470588 164.476776 249.470588 165.802791 
C 249.470588 167.128807 249.99742 168.40069 250.935054 169.338325 
C 251.872689 170.27596 253.144573 170.802791 254.470588 170.802791 
z
" style="fill:none;stroke:#ff7f0e;"/>
   </g>
   <g id="PathCollection_26">
    <path clip-path="url(#p613435e484)" d="M 262.129412 169.433339 
C 263.455427 169.433339 264.727311 168.906507 265.664946 167.968873 
C 266.60258 167.031238 267.129412 165.759354 267.129412 164.433339 
C 267.129412 163.107323 266.60258 161.835439 265.664946 160.897805 
C 264.727311 159.96017 263.455427 159.433339 262.129412 159.433339 
C 260.803396 159.433339 259.531512 159.96017 258.593878 160.897805 
C 257.656243 161.835439 257.129412 163.107323 257.129412 164.433339 
C 257.129412 165.759354 257.656243 167.031238 258.593878 167.968873 
C 259.531512 168.906507 260.803396 169.433339 262.129412 169.433339 
z
" style="fill:none;stroke:#ff7f0e;"/>
   </g>
   <g id="PathCollection_27">
    <path clip-path="url(#p613435e484)" d="M 269.788235 168.074374 
C 271.114251 168.074374 272.386135 167.547542 273.323769 166.609908 
C 274.261404 165.672273 274.788235 164.400389 274.788235 163.074374 
C 274.788235 161.748358 274.261404 160.476475 273.323769 159.53884 
C 272.386135 158.601206 271.114251 158.074374 269.788235 158.074374 
C 268.46222 158.074374 267.190336 158.601206 266.252701 159.53884 
C 265.315067 160.476475 264.788235 161.748358 264.788235 163.074374 
C 264.788235 164.400389 265.315067 165.672273 266.252701 166.609908 
C 267.190336 167.547542 268.46222 168.074374 269.788235 168.074374 
z
" style="fill:none;stroke:#ff7f0e;"/>
   </g>
   <g id="PathCollection_28">
    <path clip-path="url(#p613435e484)" d="M 277.447059 166.728567 
C 278.773074 166.728567 280.044958 166.201736 280.982593 165.264101 
C 281.920227 164.326467 282.447059 163.054583 282.447059 161.728567 
C 282.447059 160.402552 281.920227 159.130668 280.982593 158.193033 
C 280.044958 157.255399 278.773074 156.728567 277.447059 156.728567 
C 276.121043 156.728567 274.849159 157.255399 273.911525 158.193033 
C 272.97389 159.130668 272.447059 160.402552 272.447059 161.728567 
C 272.447059 163.054583 272.97389 164.326467 273.911525 165.264101 
C 274.849159 166.201736 276.121043 166.728567 277.447059 166.728567 
z
" style="fill:none;stroke:#ff7f0e;"/>
   </g>
   <g id="PathCollection_29">
    <path clip-path="url(#p613435e484)" d="M 285.105882 165.398922 
C 286.431898 165.398922 287.703782 164.87209 288.641416 163.934456 
C 289.579051 162.996821 290.105882 161.724937 290.105882 160.398922 
C 290.105882 159.072906 289.579051 157.801022 288.641416 156.863388 
C 287.703782 155.925753 286.431898 155.398922 285.105882 155.398922 
C 283.779867 155.398922 282.507983 155.925753 281.570348 156.863388 
C 280.632714 157.801022 280.105882 159.072906 280.105882 160.398922 
C 280.105882 161.724937 280.632714 162.996821 281.570348 163.934456 
C 282.507983 164.87209 283.779867 165.398922 285.105882 165.398922 
z
" style="fill:none;stroke:#ff7f0e;"/>
   </g>
   <g id="PathCollection_30">
    <path clip-path="url(#p613435e484)" d="M 292.764706 164.088941 
C 294.090721 164.088941 295.362605 163.56211 296.30024 162.624475 
C 297.237874 161.68684 297.764706 160.414957 297.764706 159.088941 
C 297.764706 157.762926 297.237874 156.491042 296.30024 155.553407 
C 295.362605 154.615773 294.090721 154.088941 292.764706 154.088941 
C 291.43869 154.088941 290.166807 154.615773 289.229172 155.553407 
C 288.291537 156.491042 287.764706 157.762926 287.764706 159.088941 
C 287.764706 160.414957 288.291537 161.68684 289.229172 162.624475 
C 290.166807 163.56211 291.43869 164.088941 292.764706 164.088941 
z
" style="fill:none;stroke:#ff7f0e;"/>
   </g>
   <g id="PathCollection_31">
    <path clip-path="url(#p613435e484)" d="M 300.423529 162.802784 
C 301.749545 162.802784 303.021429 162.275952 303.959063 161.338318 
C 304.896698 160.400683 305.423529 159.128799 305.423529 157.802784 
C 305.423529 156.476768 304.896698 155.204885 303.959063 154.26725 
C 303.021429 153.329615 301.749545 152.802784 300.423529 152.802784 
C 299.097514 152.802784 297.82563 153.329615 296.887996 154.26725 
C 295.950361 155.204885 295.423529 156.476768 295.423529 157.802784 
C 295.423529 159.128799 295.950361 160.400683 296.887996 161.338318 
C 297.82563 162.275952 299.097514 162.802784 300.423529 162.802784 
z
" style="fill:none;stroke:#ff7f0e;"/>
   </g>
   <g id="PathCollection_32">
    <path clip-path="url(#p613435e484)" d="M 308.082353 161.545381 
C 309.408368 161.545381 310.680252 161.018549 311.617887 160.080915 
C 312.555521 159.14328 313.082353 157.871396 313.082353 156.545381 
C 313.082353 155.219365 312.555521 153.947481 311.617887 153.009847 
C 310.680252 152.072212 309.408368 151.545381 308.082353 151.545381 
C 306.756337 151.545381 305.484454 152.072212 304.546819 153.009847 
C 303.609184 153.947481 303.082353 155.219365 303.082353 156.545381 
C 303.082353 157.871396 303.609184 159.14328 304.546819 160.080915 
C 305.484454 161.018549 306.756337 161.545381 308.082353 161.545381 
z
" style="fill:none;stroke:#ff7f0e;"/>
   </g>
   <g id="PathCollection_33">
    <path clip-path="url(#p613435e484)" d="M 315.741176 160.322521 
C 317.067192 160.322521 318.339076 159.79569 319.27671 158.858055 
C 320.214345 157.920421 320.741176 156.648537 320.741176 155.322521 
C 320.741176 153.996506 320.214345 152.724622 319.27671 151.786988 
C 318.339076 150.849353 317.067192 150.322521 315.741176 150.322521 
C 314.415161 150.322521 313.143277 150.849353 312.205643 151.786988 
C 311.268008 152.724622 310.741176 153.996506 310.741176 155.322521 
C 310.741176 156.648537 311.268008 157.920421 312.205643 158.858055 
C 313.143277 159.79569 314.415161 160.322521 315.741176 160.322521 
z
" style="fill:none;stroke:#ff7f0e;"/>
   </g>
   <g id="PathCollection_34">
    <path clip-path="url(#p613435e484)" d="M 323.4 159.140894 
C 324.726016 159.140894 325.997899 158.614063 326.935534 157.676428 
C 327.873168 156.738794 328.4 155.46691 328.4 154.140894 
C 328.4 152.814879 327.873168 151.542995 326.935534 150.60536 
C 325.997899 149.667726 324.726016 149.140894 323.4 149.140894 
C 322.073985 149.140894 320.802101 149.667726 319.864466 150.60536 
C 318.926832 151.542995 318.4 152.814879 318.4 154.140894 
C 318.4 155.46691 318.926832 156.738794 319.864466 157.676428 
C 320.802101 158.614063 322.073985 159.140894 323.4 159.140894 
z
" style="fill:none;stroke:#ff7f0e;"/>
   </g>
   <g id="PathCollection_35">
    <path clip-path="url(#p613435e484)" d="M 331.058824 158.008076 
C 332.384839 158.008076 333.656723 157.481244 334.594357 156.54361 
C 335.531992 155.605975 336.058824 154.334091 336.058824 153.008076 
C 336.058824 151.68206 335.531992 150.410176 334.594357 149.472542 
C 333.656723 148.534907 332.384839 148.008076 331.058824 148.008076 
C 329.732808 148.008076 328.460924 148.534907 327.52329 149.472542 
C 326.585655 150.410176 326.058824 151.68206 326.058824 153.008076 
C 326.058824 154.334091 326.585655 155.605975 327.52329 156.54361 
C 328.460924 157.481244 329.732808 158.008076 331.058824 158.008076 
z
" style="fill:none;stroke:#ff7f0e;"/>
   </g>
   <g id="PathCollection_36">
    <path clip-path="url(#p613435e484)" d="M 338.717647 156.932457 
C 340.043663 156.932457 341.315546 156.405625 342.253181 155.467991 
C 343.190816 154.530356 343.717647 153.258472 343.717647 151.932457 
C 343.717647 150.606441 343.190816 149.334557 342.253181 148.396923 
C 341.315546 147.459288 340.043663 146.932457 338.717647 146.932457 
C 337.391632 146.932457 336.119748 147.459288 335.182113 148.396923 
C 334.244479 149.334557 333.717647 150.606441 333.717647 151.932457 
C 333.717647 153.258472 334.244479 154.530356 335.182113 155.467991 
C 336.119748 156.405625 337.391632 156.932457 338.717647 156.932457 
z
" style="fill:none;stroke:#ff7f0e;"/>
   </g>
   <g id="PathCollection_37">
    <path clip-path="url(#p613435e484)" d="M 346.376471 155.923109 
C 347.702486 155.923109 348.97437 155.396277 349.912004 154.458643 
C 350.849639 153.521008 351.376471 152.249124 351.376471 150.923109 
C 351.376471 149.597093 350.849639 148.325209 349.912004 147.387575 
C 348.97437 146.44994 347.702486 145.923109 346.376471 145.923109 
C 345.050455 145.923109 343.778571 146.44994 342.840937 147.387575 
C 341.903302 148.325209 341.376471 149.597093 341.376471 150.923109 
C 341.376471 152.249124 341.903302 153.521008 342.840937 154.458643 
C 343.778571 155.396277 345.050455 155.923109 346.376471 155.923109 
z
" style="fill:none;stroke:#ff7f0e;"/>
   </g>
   <g id="PathCollection_38">
    <path clip-path="url(#p613435e484)" d="M 354.035294 154.989568 
C 355.36131 154.989568 356.633193 154.462736 357.570828 153.525102 
C 358.508463 152.587467 359.035294 151.315583 359.035294 149.989568 
C 359.035294 148.663552 358.508463 147.391669 357.570828 146.454034 
C 356.633193 145.5164 355.36131 144.989568 354.035294 144.989568 
C 352.709279 144.989568 351.437395 145.5164 350.49976 146.454034 
C 349.562126 147.391669 349.035294 148.663552 349.035294 149.989568 
C 349.035294 151.315583 349.562126 152.587467 350.49976 153.525102 
C 351.437395 154.462736 352.709279 154.989568 354.035294 154.989568 
z
" style="fill:none;stroke:#ff7f0e;"/>
   </g>
   <g id="PathCollection_39">
    <path clip-path="url(#p613435e484)" d="M 361.694118 154.141543 
C 363.020133 154.141543 364.292017 153.614712 365.229652 152.677077 
C 366.167286 151.739443 366.694118 150.467559 366.694118 149.141543 
C 366.694118 147.815528 366.167286 146.543644 365.229652 145.606009 
C 364.292017 144.668375 363.020133 144.141543 361.694118 144.141543 
C 360.368102 144.141543 359.096218 144.668375 358.158584 145.606009 
C 357.220949 146.543644 356.694118 147.815528 356.694118 149.141543 
C 356.694118 150.467559 357.220949 151.739443 358.158584 152.677077 
C 359.096218 153.614712 360.368102 154.141543 361.694118 154.141543 
z
" style="fill:none;stroke:#ff7f0e;"/>
   </g>
   <g id="PathCollection_40">
    <path clip-path="url(#p613435e484)" d="M 369.352941 153.388531 
C 370.678957 153.388531 371.950841 152.8617 372.888475 151.924065 
C 373.82611 150.986431 374.352941 149.714547 374.352941 148.388531 
C 374.352941 147.062516 373.82611 145.790632 372.888475 144.852997 
C 371.950841 143.915363 370.678957 143.388531 369.352941 143.388531 
C 368.026926 143.388531 366.755042 143.915363 365.817407 144.852997 
C 364.879773 145.790632 364.352941 147.062516 364.352941 148.388531 
C 364.352941 149.714547 364.879773 150.986431 365.817407 151.924065 
C 366.755042 152.8617 368.026926 153.388531 369.352941 153.388531 
z
" style="fill:none;stroke:#ff7f0e;"/>
   </g>
   <g id="PathCollection_41">
    <path clip-path="url(#p613435e484)" d="M 377.011765 152.739336 
C 378.33778 152.739336 379.609664 152.212504 380.547299 151.27487 
C 381.484933 150.337235 382.011765 149.065351 382.011765 147.739336 
C 382.011765 146.41332 381.484933 145.141436 380.547299 144.203802 
C 379.609664 143.266167 378.33778 142.739336 377.011765 142.739336 
C 375.685749 142.739336 374.413865 143.266167 373.476231 144.203802 
C 372.538596 145.141436 372.011765 146.41332 372.011765 147.739336 
C 372.011765 149.065351 372.538596 150.337235 373.476231 151.27487 
C 374.413865 152.212504 375.685749 152.739336 377.011765 152.739336 
z
" style="fill:none;stroke:#ff7f0e;"/>
   </g>
   <g id="PathCollection_42">
    <path clip-path="url(#p613435e484)" d="M 384.670588 152.201479 
C 385.996604 152.201479 387.268488 151.674648 388.206122 150.737013 
C 389.143757 149.799379 389.670588 148.527495 389.670588 147.201479 
C 389.670588 145.875464 389.143757 144.60358 388.206122 143.665945 
C 387.268488 142.728311 385.996604 142.201479 384.670588 142.201479 
C 383.344573 142.201479 382.072689 142.728311 381.135054 143.665945 
C 380.19742 144.60358 379.670588 145.875464 379.670588 147.201479 
C 379.670588 148.527495 380.19742 149.799379 381.135054 150.737013 
C 382.072689 151.674648 383.344573 152.201479 384.670588 152.201479 
z
" style="fill:none;stroke:#ff7f0e;"/>
   </g>
   <g id="PathCollection_43">
    <path clip-path="url(#p613435e484)" d="M 392.329412 151.780508 
C 393.655427 151.780508 394.927311 151.253677 395.864946 150.316042 
C 396.80258 149.378407 397.329412 148.106524 397.329412 146.780508 
C 397.329412 145.454493 396.80258 144.182609 395.864946 143.244974 
C 394.927311 142.30734 393.655427 141.780508 392.329412 141.780508 
C 391.003396 141.780508 389.731512 142.30734 388.793878 143.244974 
C 387.856243 144.182609 387.329412 145.454493 387.329412 146.780508 
C 387.329412 148.106524 387.856243 149.378407 388.793878 150.316042 
C 389.731512 151.253677 391.003396 151.780508 392.329412 151.780508 
z
" style="fill:none;stroke:#ff7f0e;"/>
   </g>
   <g id="PathCollection_44">
    <path clip-path="url(#p613435e484)" d="M 399.988235 151.479172 
C 401.314251 151.479172 402.586135 150.95234 403.523769 150.014706 
C 404.461404 149.077071 404.988235 147.805187 404.988235 146.479172 
C 404.988235 145.153156 404.461404 143.881272 403.523769 142.943638 
C 402.586135 142.006003 401.314251 141.479172 399.988235 141.479172 
C 398.66222 141.479172 397.390336 142.006003 396.452701 142.943638 
C 395.515067 143.881272 394.988235 145.153156 394.988235 146.479172 
C 394.988235 147.805187 395.515067 149.077071 396.452701 150.014706 
C 397.390336 150.95234 398.66222 151.479172 399.988235 151.479172 
z
" style="fill:none;stroke:#ff7f0e;"/>
   </g>
   <g id="PathCollection_45">
    <path clip-path="url(#p613435e484)" d="M 407.647059 151.296477 
C 408.973074 151.296477 410.244958 150.769646 411.182593 149.832011 
C 412.120227 148.894377 412.647059 147.622493 412.647059 146.296477 
C 412.647059 144.970462 412.120227 143.698578 411.182593 142.760943 
C 410.244958 141.823309 408.973074 141.296477 407.647059 141.296477 
C 406.321043 141.296477 405.049159 141.823309 404.111525 142.760943 
C 403.17389 143.698578 402.647059 144.970462 402.647059 146.296477 
C 402.647059 147.622493 403.17389 148.894377 404.111525 149.832011 
C 405.049159 150.769646 406.321043 151.296477 407.647059 151.296477 
z
" style="fill:none;stroke:#ff7f0e;"/>
   </g>
   <g id="PathCollection_46">
    <path clip-path="url(#p613435e484)" d="M 415.305882 151.226609 
C 416.631898 151.226609 417.903782 150.699777 418.841416 149.762143 
C 419.779051 148.824508 420.305882 147.552624 420.305882 146.226609 
C 420.305882 144.900593 419.779051 143.628709 418.841416 142.691075 
C 417.903782 141.75344 416.631898 141.226609 415.305882 141.226609 
C 413.979867 141.226609 412.707983 141.75344 411.770348 142.691075 
C 410.832714 143.628709 410.305882 144.900593 410.305882 146.226609 
C 410.305882 147.552624 410.832714 148.824508 411.770348 149.762143 
C 412.707983 150.699777 413.979867 151.226609 415.305882 151.226609 
z
" style="fill:none;stroke:#ff7f0e;"/>
   </g>
   <g id="PathCollection_47">
    <path clip-path="url(#p613435e484)" d="M 422.964706 151.257703 
C 424.290721 151.257703 425.562605 150.730871 426.50024 149.793237 
C 427.437874 148.855602 427.964706 147.583718 427.964706 146.257703 
C 427.964706 144.931687 427.437874 143.659804 426.50024 142.722169 
C 425.562605 141.784535 424.290721 141.257703 422.964706 141.257703 
C 421.63869 141.257703 420.366807 141.784535 419.429172 142.722169 
C 418.491537 143.659804 417.964706 144.931687 417.964706 146.257703 
C 417.964706 147.583718 418.491537 148.855602 419.429172 149.793237 
C 420.366807 150.730871 421.63869 151.257703 422.964706 151.257703 
z
" style="fill:none;stroke:#ff7f0e;"/>
   </g>
   <g id="PathCollection_48">
    <path clip-path="url(#p613435e484)" d="M 430.623529 151.370477 
C 431.949545 151.370477 433.221429 150.843645 434.159063 149.906011 
C 435.096698 148.968376 435.623529 147.696492 435.623529 146.370477 
C 435.623529 145.044461 435.096698 143.772577 434.159063 142.834943 
C 433.221429 141.897308 431.949545 141.370477 430.623529 141.370477 
C 429.297514 141.370477 428.02563 141.897308 427.087996 142.834943 
C 426.150361 143.772577 425.623529 145.044461 425.623529 146.370477 
C 425.623529 147.696492 426.150361 148.968376 427.087996 149.906011 
C 428.02563 150.843645 429.297514 151.370477 430.623529 151.370477 
z
" style="fill:none;stroke:#ff7f0e;"/>
   </g>
   <g id="PathCollection_49">
    <path clip-path="url(#p613435e484)" d="M 438.282353 151.536693 
C 439.608368 151.536693 440.880252 151.009862 441.817887 150.072227 
C 442.755521 149.134592 443.282353 147.862709 443.282353 146.536693 
C 443.282353 145.210678 442.755521 143.938794 441.817887 143.001159 
C 440.880252 142.063525 439.608368 141.536693 438.282353 141.536693 
C 436.956337 141.536693 435.684454 142.063525 434.746819 143.001159 
C 433.809184 143.938794 433.282353 145.210678 433.282353 146.536693 
C 433.282353 147.862709 433.809184 149.134592 434.746819 150.072227 
C 435.684454 151.009862 436.956337 151.536693 438.282353 151.536693 
z
" style="fill:none;stroke:#ff7f0e;"/>
   </g>
   <g id="PathCollection_50">
    <path clip-path="url(#p613435e484)" d="M 445.941176 151.717466 
C 447.267192 151.717466 448.539076 151.190634 449.47671 150.253 
C 450.414345 149.315365 450.941176 148.043481 450.941176 146.717466 
C 450.941176 145.39145 450.414345 144.119567 449.47671 143.181932 
C 448.539076 142.244297 447.267192 141.717466 445.941176 141.717466 
C 444.615161 141.717466 443.343277 142.244297 442.405643 143.181932 
C 441.468008 144.119567 440.941176 145.39145 440.941176 146.717466 
C 440.941176 148.043481 441.468008 149.315365 442.405643 150.253 
C 443.343277 151.190634 444.615161 151.717466 445.941176 151.717466 
z
" style="fill:none;stroke:#ff7f0e;"/>
   </g>
   <g id="PathCollection_51">
    <path clip-path="url(#p613435e484)" d="M 453.6 151.86139 
C 454.926016 151.86139 456.197899 151.334559 457.135534 150.396924 
C 458.073168 149.45929 458.6 148.187406 458.6 146.86139 
C 458.6 145.535375 458.073168 144.263491 457.135534 143.325856 
C 456.197899 142.388222 454.926016 141.86139 453.6 141.86139 
C 452.273985 141.86139 451.002101 142.388222 450.064466 143.325856 
C 449.126832 144.263491 448.6 145.535375 448.6 146.86139 
C 448.6 148.187406 449.126832 149.45929 450.064466 150.396924 
C 451.002101 151.334559 452.273985 151.86139 453.6 151.86139 
z
" style="fill:none;stroke:#ff7f0e;"/>
   </g>
   <g id="PathCollection_52">
    <defs>
     <path d="M 0 5 
C 1.326016 5 2.597899 4.473168 3.535534 3.535534 
C 4.473168 2.597899 5 1.326016 5 0 
C 5 -1.326016 4.473168 -2.597899 3.535534 -3.535534 
C 2.597899 -4.473168 1.326016 -5 0 -5 
C -1.326016 -5 -2.597899 -4.473168 -3.535534 -3.535534 
C -4.473168 -2.597899 -5 -1.326016 -5 0 
C -5 1.326016 -4.473168 2.597899 -3.535534 3.535534 
C -2.597899 4.473168 -1.326016 5 0 5 
z
" id="m0110fef5d9" style="stroke:#ff7f0e;"/>
    </defs>
    <g clip-path="url(#p613435e484)">
     <use style="fill:#ff7f0e;stroke:#ff7f0e;" x="70.658824" xlink:href="#m0110fef5d9" y="188.373773"/>
    </g>
   </g>
   <g id="PathCollection_53">
    <g clip-path="url(#p613435e484)">
     <use style="fill:#ff7f0e;stroke:#ff7f0e;" x="78.317647" xlink:href="#m0110fef5d9" y="188.005001"/>
    </g>
   </g>
   <g id="PathCollection_54">
    <g clip-path="url(#p613435e484)">
     <use style="fill:#ff7f0e;stroke:#ff7f0e;" x="85.976471" xlink:href="#m0110fef5d9" y="187.699167"/>
    </g>
   </g>
   <g id="PathCollection_55">
    <g clip-path="url(#p613435e484)">
     <use style="fill:#ff7f0e;stroke:#ff7f0e;" x="93.635294" xlink:href="#m0110fef5d9" y="187.383745"/>
    </g>
   </g>
   <g id="PathCollection_56">
    <g clip-path="url(#p613435e484)">
     <use style="fill:#ff7f0e;stroke:#ff7f0e;" x="101.294118" xlink:href="#m0110fef5d9" y="187.009072"/>
    </g>
   </g>
   <g id="PathCollection_57">
    <g clip-path="url(#p613435e484)">
     <use style="fill:#ff7f0e;stroke:#ff7f0e;" x="108.952941" xlink:href="#m0110fef5d9" y="186.543109"/>
    </g>
   </g>
   <g id="PathCollection_58">
    <g clip-path="url(#p613435e484)">
     <use style="fill:#ff7f0e;stroke:#ff7f0e;" x="116.611765" xlink:href="#m0110fef5d9" y="185.967876"/>
    </g>
   </g>
   <g id="PathCollection_59">
    <g clip-path="url(#p613435e484)">
     <use style="fill:#ff7f0e;stroke:#ff7f0e;" x="124.270588" xlink:href="#m0110fef5d9" y="185.276302"/>
    </g>
   </g>
   <g id="PathCollection_60">
    <g clip-path="url(#p613435e484)">
     <use style="fill:#ff7f0e;stroke:#ff7f0e;" x="131.929412" xlink:href="#m0110fef5d9" y="184.46949"/>
    </g>
   </g>
   <g id="PathCollection_61">
    <g clip-path="url(#p613435e484)">
     <use style="fill:#ff7f0e;stroke:#ff7f0e;" x="139.588235" xlink:href="#m0110fef5d9" y="183.554362"/>
    </g>
   </g>
   <g id="PathCollection_62">
    <g clip-path="url(#p613435e484)">
     <use style="fill:#ff7f0e;stroke:#ff7f0e;" x="147.247059" xlink:href="#m0110fef5d9" y="182.541667"/>
    </g>
   </g>
   <g id="PathCollection_63">
    <g clip-path="url(#p613435e484)">
     <use style="fill:#ff7f0e;stroke:#ff7f0e;" x="154.905882" xlink:href="#m0110fef5d9" y="181.444314"/>
    </g>
   </g>
   <g id="PathCollection_64">
    <g clip-path="url(#p613435e484)">
     <use style="fill:#ff7f0e;stroke:#ff7f0e;" x="162.564706" xlink:href="#m0110fef5d9" y="180.276031"/>
    </g>
   </g>
   <g id="PathCollection_65">
    <g clip-path="url(#p613435e484)">
     <use style="fill:#ff7f0e;stroke:#ff7f0e;" x="170.223529" xlink:href="#m0110fef5d9" y="179.050298"/>
    </g>
   </g>
   <g id="PathCollection_66">
    <g clip-path="url(#p613435e484)">
     <use style="fill:#ff7f0e;stroke:#ff7f0e;" x="177.882353" xlink:href="#m0110fef5d9" y="177.779558"/>
    </g>
   </g>
   <g id="PathCollection_67">
    <g clip-path="url(#p613435e484)">
     <use style="fill:#ff7f0e;stroke:#ff7f0e;" x="185.541176" xlink:href="#m0110fef5d9" y="176.47466"/>
    </g>
   </g>
   <g id="PathCollection_68">
    <g clip-path="url(#p613435e484)">
     <use style="fill:#ff7f0e;stroke:#ff7f0e;" x="193.2" xlink:href="#m0110fef5d9" y="175.144523"/>
    </g>
   </g>
   <g id="PathCollection_69">
    <g clip-path="url(#p613435e484)">
     <use style="fill:#ff7f0e;stroke:#ff7f0e;" x="200.858824" xlink:href="#m0110fef5d9" y="173.795996"/>
    </g>
   </g>
   <g id="PathCollection_70">
    <g clip-path="url(#p613435e484)">
     <use style="fill:#ff7f0e;stroke:#ff7f0e;" x="208.517647" xlink:href="#m0110fef5d9" y="172.433882"/>
    </g>
   </g>
   <g id="PathCollection_71">
    <g clip-path="url(#p613435e484)">
     <use style="fill:#ff7f0e;stroke:#ff7f0e;" x="216.176471" xlink:href="#m0110fef5d9" y="171.061119"/>
    </g>
   </g>
   <g id="PathCollection_72">
    <g clip-path="url(#p613435e484)">
     <use style="fill:#ff7f0e;stroke:#ff7f0e;" x="223.835294" xlink:href="#m0110fef5d9" y="169.679076"/>
    </g>
   </g>
   <g id="PathCollection_73">
    <g clip-path="url(#p613435e484)">
     <use style="fill:#ff7f0e;stroke:#ff7f0e;" x="231.494118" xlink:href="#m0110fef5d9" y="168.287953"/>
    </g>
   </g>
   <g id="PathCollection_74">
    <g clip-path="url(#p613435e484)">
     <use style="fill:#ff7f0e;stroke:#ff7f0e;" x="239.152941" xlink:href="#m0110fef5d9" y="166.887255"/>
    </g>
   </g>
   <g id="PathCollection_75">
    <g clip-path="url(#p613435e484)">
     <use style="fill:#ff7f0e;stroke:#ff7f0e;" x="246.811765" xlink:href="#m0110fef5d9" y="165.476321"/>
    </g>
   </g>
   <g id="PathCollection_76">
    <g clip-path="url(#p613435e484)">
     <use style="fill:#ff7f0e;stroke:#ff7f0e;" x="254.470588" xlink:href="#m0110fef5d9" y="164.054881"/>
    </g>
   </g>
   <g id="PathCollection_77">
    <g clip-path="url(#p613435e484)">
     <use style="fill:#ff7f0e;stroke:#ff7f0e;" x="262.129412" xlink:href="#m0110fef5d9" y="162.623619"/>
    </g>
   </g>
   <g id="PathCollection_78">
    <g clip-path="url(#p613435e484)">
     <use style="fill:#ff7f0e;stroke:#ff7f0e;" x="269.788235" xlink:href="#m0110fef5d9" y="161.184718"/>
    </g>
   </g>
   <g id="PathCollection_79">
    <g clip-path="url(#p613435e484)">
     <use style="fill:#ff7f0e;stroke:#ff7f0e;" x="277.447059" xlink:href="#m0110fef5d9" y="159.742366"/>
    </g>
   </g>
   <g id="PathCollection_80">
    <g clip-path="url(#p613435e484)">
     <use style="fill:#ff7f0e;stroke:#ff7f0e;" x="285.105882" xlink:href="#m0110fef5d9" y="158.303189"/>
    </g>
   </g>
   <g id="PathCollection_81">
    <g clip-path="url(#p613435e484)">
     <use style="fill:#ff7f0e;stroke:#ff7f0e;" x="292.764706" xlink:href="#m0110fef5d9" y="156.876608"/>
    </g>
   </g>
   <g id="PathCollection_82">
    <g clip-path="url(#p613435e484)">
     <use style="fill:#ff7f0e;stroke:#ff7f0e;" x="300.423529" xlink:href="#m0110fef5d9" y="155.475071"/>
    </g>
   </g>
   <g id="PathCollection_83">
    <g clip-path="url(#p613435e484)">
     <use style="fill:#ff7f0e;stroke:#ff7f0e;" x="308.082353" xlink:href="#m0110fef5d9" y="154.114159"/>
    </g>
   </g>
   <g id="PathCollection_84">
    <g clip-path="url(#p613435e484)">
     <use style="fill:#ff7f0e;stroke:#ff7f0e;" x="315.741176" xlink:href="#m0110fef5d9" y="152.81253"/>
    </g>
   </g>
   <g id="PathCollection_85">
    <g clip-path="url(#p613435e484)">
     <use style="fill:#ff7f0e;stroke:#ff7f0e;" x="323.4" xlink:href="#m0110fef5d9" y="151.591676"/>
    </g>
   </g>
   <g id="PathCollection_86">
    <g clip-path="url(#p613435e484)">
     <use style="fill:#ff7f0e;stroke:#ff7f0e;" x="331.058824" xlink:href="#m0110fef5d9" y="150.475477"/>
    </g>
   </g>
   <g id="PathCollection_87">
    <g clip-path="url(#p613435e484)">
     <use style="fill:#ff7f0e;stroke:#ff7f0e;" x="338.717647" xlink:href="#m0110fef5d9" y="149.48953"/>
    </g>
   </g>
   <g id="PathCollection_88">
    <g clip-path="url(#p613435e484)">
     <use style="fill:#ff7f0e;stroke:#ff7f0e;" x="346.376471" xlink:href="#m0110fef5d9" y="148.660215"/>
    </g>
   </g>
   <g id="PathCollection_89">
    <g clip-path="url(#p613435e484)">
     <use style="fill:#ff7f0e;stroke:#ff7f0e;" x="354.035294" xlink:href="#m0110fef5d9" y="148.01349"/>
    </g>
   </g>
   <g id="PathCollection_90">
    <g clip-path="url(#p613435e484)">
     <use style="fill:#ff7f0e;stroke:#ff7f0e;" x="361.694118" xlink:href="#m0110fef5d9" y="147.573385"/>
    </g>
   </g>
   <g id="PathCollection_91">
    <g clip-path="url(#p613435e484)">
     <use style="fill:#ff7f0e;stroke:#ff7f0e;" x="369.352941" xlink:href="#m0110fef5d9" y="147.36017"/>
    </g>
   </g>
   <g id="PathCollection_92">
    <g clip-path="url(#p613435e484)">
     <use style="fill:#ff7f0e;stroke:#ff7f0e;" x="377.011765" xlink:href="#m0110fef5d9" y="147.388176"/>
    </g>
   </g>
   <g id="PathCollection_93">
    <g clip-path="url(#p613435e484)">
     <use style="fill:#ff7f0e;stroke:#ff7f0e;" x="384.670588" xlink:href="#m0110fef5d9" y="147.66325"/>
    </g>
   </g>
   <g id="PathCollection_94">
    <g clip-path="url(#p613435e484)">
     <use style="fill:#ff7f0e;stroke:#ff7f0e;" x="392.329412" xlink:href="#m0110fef5d9" y="148.179801"/>
    </g>
   </g>
   <g id="PathCollection_95">
    <g clip-path="url(#p613435e484)">
     <use style="fill:#ff7f0e;stroke:#ff7f0e;" x="399.988235" xlink:href="#m0110fef5d9" y="148.917447"/>
    </g>
   </g>
   <g id="PathCollection_96">
    <g clip-path="url(#p613435e484)">
     <use style="fill:#ff7f0e;stroke:#ff7f0e;" x="407.647059" xlink:href="#m0110fef5d9" y="149.837202"/>
    </g>
   </g>
   <g id="PathCollection_97">
    <g clip-path="url(#p613435e484)">
     <use style="fill:#ff7f0e;stroke:#ff7f0e;" x="415.305882" xlink:href="#m0110fef5d9" y="150.877213"/>
    </g>
   </g>
   <g id="PathCollection_98">
    <g clip-path="url(#p613435e484)">
     <use style="fill:#ff7f0e;stroke:#ff7f0e;" x="422.964706" xlink:href="#m0110fef5d9" y="151.947993"/>
    </g>
   </g>
   <g id="PathCollection_99">
    <g clip-path="url(#p613435e484)">
     <use style="fill:#ff7f0e;stroke:#ff7f0e;" x="430.623529" xlink:href="#m0110fef5d9" y="152.927158"/>
    </g>
   </g>
   <g id="PathCollection_100">
    <g clip-path="url(#p613435e484)">
     <use style="fill:#ff7f0e;stroke:#ff7f0e;" x="438.282353" xlink:href="#m0110fef5d9" y="153.653609"/>
    </g>
   </g>
   <g id="PathCollection_101">
    <g clip-path="url(#p613435e484)">
     <use style="fill:#ff7f0e;stroke:#ff7f0e;" x="445.941176" xlink:href="#m0110fef5d9" y="153.921175"/>
    </g>
   </g>
   <g id="PathCollection_102">
    <g clip-path="url(#p613435e484)">
     <use style="fill:#ff7f0e;stroke:#ff7f0e;" x="453.6" xlink:href="#m0110fef5d9" y="153.471651"/>
    </g>
   </g>
   <g id="matplotlib.axis_1"/>
   <g id="matplotlib.axis_2"/>
   <g id="line2d_1">
    <path clip-path="url(#p613435e484)" d="M 63 189 
L 111.473971 188.889501 
L 119.005147 188.564312 
L 126.951176 187.99611 
L 135.535441 187.156322 
L 144.9175 186.010392 
L 155.256912 184.518594 
L 166.872794 182.612955 
L 180.307647 180.177777 
L 196.710294 176.970268 
L 219.942059 172.179375 
L 276.649265 160.409601 
L 294.487941 156.945049 
L 301.636176 155.804666 
L 308.943971 154.866341 
L 316.634706 154.104566 
L 324.804118 153.520818 
L 333.516029 153.123458 
L 342.866176 152.921829 
L 353.014118 152.928785 
L 364.0875 153.162047 
L 376.373529 153.647256 
L 390.255147 154.423135 
L 406.370588 155.5528 
L 426.092059 157.167527 
L 453.248971 159.631873 
L 453.6 159.664759 
L 453.6 159.664759 
" style="fill:none;stroke:#ff7f0e;stroke-dasharray:11.1,4.8;stroke-dashoffset:0;stroke-width:3;"/>
   </g>
   <g id="line2d_2">
    <path clip-path="url(#p613435e484)" d="M 63 189 
L 110.803824 188.889072 
L 117.664853 188.565468 
L 124.813088 188.003434 
L 132.471912 187.175729 
L 140.705147 186.060272 
L 149.704265 184.613288 
L 159.628824 182.788278 
L 170.797941 180.503311 
L 183.722206 177.626288 
L 199.614265 173.850397 
L 222.143971 168.248068 
L 272.819853 155.595376 
L 292.413676 150.957042 
L 299.115147 149.592316 
L 305.688971 148.48289 
L 312.55 147.5521 
L 319.762059 146.799579 
L 327.388971 146.229051 
L 335.494559 145.847757 
L 344.174559 145.665028 
L 353.492794 145.693836 
L 363.640735 145.95117 
L 374.777941 146.460156 
L 387.191618 147.254588 
L 401.360441 148.389981 
L 418.114118 149.963454 
L 439.367353 152.194985 
L 453.6 153.775507 
L 453.6 153.775507 
" style="fill:none;stroke:#ff7f0e;stroke-linecap:square;stroke-width:3;"/>
   </g>
   <g id="patch_3">
    <path d="M 63 189 
L 63 25.92 
" style="fill:none;stroke:#000000;stroke-linecap:square;stroke-linejoin:miter;stroke-width:0.8;"/>
   </g>
   <g id="patch_4">
    <path d="M 453.6 189 
L 453.6 25.92 
" style="fill:none;stroke:#000000;stroke-linecap:square;stroke-linejoin:miter;stroke-width:0.8;"/>
   </g>
   <g id="patch_5">
    <path d="M 63 189 
L 453.6 189 
" style="fill:none;stroke:#000000;stroke-linecap:square;stroke-linejoin:miter;stroke-width:0.8;"/>
   </g>
   <g id="patch_6">
    <path d="M 63 25.92 
L 453.6 25.92 
" style="fill:none;stroke:#000000;stroke-linecap:square;stroke-linejoin:miter;stroke-width:0.8;"/>
   </g>
  </g>
 </g>
 <defs>
  <clipPath id="p613435e484">
   <rect height="163.08" width="390.6" x="63" y="25.92"/>
  </clipPath>
 </defs>
</svg>
