<?xml version="1.0" encoding="utf-8" standalone="no"?>
<!DOCTYPE svg PUBLIC "-//W3C//DTD SVG 1.1//EN"
  "http://www.w3.org/Graphics/SVG/1.1/DTD/svg11.dtd">
<!-- Created with matplotlib (https://matplotlib.org/) -->
<svg height="216pt" version="1.1" viewBox="0 0 504 216" width="504pt" xmlns="http://www.w3.org/2000/svg" xmlns:xlink="http://www.w3.org/1999/xlink">
 <metadata>
  <rdf:RDF xmlns:cc="http://creativecommons.org/ns#" xmlns:dc="http://purl.org/dc/elements/1.1/" xmlns:rdf="http://www.w3.org/1999/02/22-rdf-syntax-ns#">
   <cc:Work>
    <dc:type rdf:resource="http://purl.org/dc/dcmitype/StillImage"/>
    <dc:date>2024-11-24T08:47:15.376885</dc:date>
    <dc:format>image/svg+xml</dc:format>
    <dc:creator>
     <cc:Agent>
      <dc:title>Matplotlib v3.3.2, https://matplotlib.org/</dc:title>
     </cc:Agent>
    </dc:creator>
   </cc:Work>
  </rdf:RDF>
 </metadata>
 <defs>
  <style type="text/css">*{stroke-linecap:butt;stroke-linejoin:round;}</style>
 </defs>
 <g id="figure_1">
  <g id="patch_1">
   <path d="M 0 216 
L 504 216 
L 504 0 
L 0 0 
z
" style="fill:none;"/>
  </g>
  <g id="axes_1">
   <g id="patch_2">
    <path d="M 63 189 
L 453.6 189 
L 453.6 25.92 
L 63 25.92 
z
" style="fill:#ffffff;"/>
   </g>
   <g id="PathCollection_1">
    <path clip-path="url(#pb62e09df90)" d="M 70.658824 193.984051 
C 71.984839 193.984051 73.256723 193.457219 74.194357 192.519585 
C 75.131992 191.58195 75.658824 190.310066 75.658824 188.984051 
C 75.658824 187.658035 75.131992 186.386151 74.194357 185.448517 
C 73.256723 184.510882 71.984839 183.984051 70.658824 183.984051 
C 69.332808 183.984051 68.060924 184.510882 67.12329 185.448517 
C 66.185655 186.386151 65.658824 187.658035 65.658824 188.984051 
C 65.658824 190.310066 66.185655 191.58195 67.12329 192.519585 
C 68.060924 193.457219 69.332808 193.984051 70.658824 193.984051 
z
" style="fill:none;stroke:#2ca02c;"/>
   </g>
   <g id="PathCollection_2">
    <path clip-path="url(#pb62e09df90)" d="M 78.317647 193.946619 
C 79.643663 193.946619 80.915546 193.419787 81.853181 192.482153 
C 82.790816 191.544518 83.317647 190.272634 83.317647 188.946619 
C 83.317647 187.620603 82.790816 186.348719 81.853181 185.411085 
C 80.915546 184.47345 79.643663 183.946619 78.317647 183.946619 
C 76.991632 183.946619 75.719748 184.47345 74.782113 185.411085 
C 73.844479 186.348719 73.317647 187.620603 73.317647 188.946619 
C 73.317647 190.272634 73.844479 191.544518 74.782113 192.482153 
C 75.719748 193.419787 76.991632 193.946619 78.317647 193.946619 
z
" style="fill:none;stroke:#2ca02c;"/>
   </g>
   <g id="PathCollection_3">
    <path clip-path="url(#pb62e09df90)" d="M 85.976471 193.797793 
C 87.302486 193.797793 88.57437 193.270961 89.512004 192.333326 
C 90.449639 191.395692 90.976471 190.123808 90.976471 188.797793 
C 90.976471 187.471777 90.449639 186.199893 89.512004 185.262259 
C 88.57437 184.324624 87.302486 183.797793 85.976471 183.797793 
C 84.650455 183.797793 83.378571 184.324624 82.440937 185.262259 
C 81.503302 186.199893 80.976471 187.471777 80.976471 188.797793 
C 80.976471 190.123808 81.503302 191.395692 82.440937 192.333326 
C 83.378571 193.270961 84.650455 193.797793 85.976471 193.797793 
z
" style="fill:none;stroke:#2ca02c;"/>
   </g>
   <g id="PathCollection_4">
    <path clip-path="url(#pb62e09df90)" d="M 93.635294 193.504747 
C 94.96131 193.504747 96.233193 192.977916 97.170828 192.040281 
C 98.108463 191.102647 98.635294 189.830763 98.635294 188.504747 
C 98.635294 187.178732 98.108463 185.906848 97.170828 184.969213 
C 96.233193 184.031579 94.96131 183.504747 93.635294 183.504747 
C 92.309279 183.504747 91.037395 184.031579 90.09976 184.969213 
C 89.162126 185.906848 88.635294 187.178732 88.635294 188.504747 
C 88.635294 189.830763 89.162126 191.102647 90.09976 192.040281 
C 91.037395 192.977916 92.309279 193.504747 93.635294 193.504747 
z
" style="fill:none;stroke:#2ca02c;"/>
   </g>
   <g id="PathCollection_5">
    <path clip-path="url(#pb62e09df90)" d="M 101.294118 193.049233 
C 102.620133 193.049233 103.892017 192.522402 104.829652 191.584767 
C 105.767286 190.647133 106.294118 189.375249 106.294118 188.049233 
C 106.294118 186.723218 105.767286 185.451334 104.829652 184.5137 
C 103.892017 183.576065 102.620133 183.049233 101.294118 183.049233 
C 99.968102 183.049233 98.696218 183.576065 97.758584 184.5137 
C 96.820949 185.451334 96.294118 186.723218 96.294118 188.049233 
C 96.294118 189.375249 96.820949 190.647133 97.758584 191.584767 
C 98.696218 192.522402 99.968102 193.049233 101.294118 193.049233 
z
" style="fill:none;stroke:#2ca02c;"/>
   </g>
   <g id="PathCollection_6">
    <path clip-path="url(#pb62e09df90)" d="M 108.952941 192.424284 
C 110.278957 192.424284 111.550841 191.897453 112.488475 190.959818 
C 113.42611 190.022184 113.952941 188.7503 113.952941 187.424284 
C 113.952941 186.098269 113.42611 184.826385 112.488475 183.88875 
C 111.550841 182.951116 110.278957 182.424284 108.952941 182.424284 
C 107.626926 182.424284 106.355042 182.951116 105.417407 183.88875 
C 104.479773 184.826385 103.952941 186.098269 103.952941 187.424284 
C 103.952941 188.7503 104.479773 190.022184 105.417407 190.959818 
C 106.355042 191.897453 107.626926 192.424284 108.952941 192.424284 
z
" style="fill:none;stroke:#2ca02c;"/>
   </g>
   <g id="PathCollection_7">
    <path clip-path="url(#pb62e09df90)" d="M 116.611765 191.631331 
C 117.93778 191.631331 119.209664 191.104499 120.147299 190.166865 
C 121.084933 189.22923 121.611765 187.957346 121.611765 186.631331 
C 121.611765 185.305315 121.084933 184.033431 120.147299 183.095797 
C 119.209664 182.158162 117.93778 181.631331 116.611765 181.631331 
C 115.285749 181.631331 114.013865 182.158162 113.076231 183.095797 
C 112.138596 184.033431 111.611765 185.305315 111.611765 186.631331 
C 111.611765 187.957346 112.138596 189.22923 113.076231 190.166865 
C 114.013865 191.104499 115.285749 191.631331 116.611765 191.631331 
z
" style="fill:none;stroke:#2ca02c;"/>
   </g>
   <g id="PathCollection_8">
    <path clip-path="url(#pb62e09df90)" d="M 124.270588 190.677718 
C 125.596604 190.677718 126.868488 190.150887 127.806122 189.213252 
C 128.743757 188.275618 129.270588 187.003734 129.270588 185.677718 
C 129.270588 184.351703 128.743757 183.079819 127.806122 182.142184 
C 126.868488 181.20455 125.596604 180.677718 124.270588 180.677718 
C 122.944573 180.677718 121.672689 181.20455 120.735054 182.142184 
C 119.79742 183.079819 119.270588 184.351703 119.270588 185.677718 
C 119.270588 187.003734 119.79742 188.275618 120.735054 189.213252 
C 121.672689 190.150887 122.944573 190.677718 124.270588 190.677718 
z
" style="fill:none;stroke:#2ca02c;"/>
   </g>
   <g id="PathCollection_9">
    <path clip-path="url(#pb62e09df90)" d="M 131.929412 189.574591 
C 133.255427 189.574591 134.527311 189.04776 135.464946 188.110125 
C 136.40258 187.172491 136.929412 185.900607 136.929412 184.574591 
C 136.929412 183.248576 136.40258 181.976692 135.464946 181.039057 
C 134.527311 180.101423 133.255427 179.574591 131.929412 179.574591 
C 130.603396 179.574591 129.331512 180.101423 128.393878 181.039057 
C 127.456243 181.976692 126.929412 183.248576 126.929412 184.574591 
C 126.929412 185.900607 127.456243 187.172491 128.393878 188.110125 
C 129.331512 189.04776 130.603396 189.574591 131.929412 189.574591 
z
" style="fill:none;stroke:#2ca02c;"/>
   </g>
   <g id="PathCollection_10">
    <path clip-path="url(#pb62e09df90)" d="M 139.588235 188.335138 
C 140.914251 188.335138 142.186135 187.808307 143.123769 186.870672 
C 144.061404 185.933038 144.588235 184.661154 144.588235 183.335138 
C 144.588235 182.009123 144.061404 180.737239 143.123769 179.799604 
C 142.186135 178.86197 140.914251 178.335138 139.588235 178.335138 
C 138.26222 178.335138 136.990336 178.86197 136.052701 179.799604 
C 135.115067 180.737239 134.588235 182.009123 134.588235 183.335138 
C 134.588235 184.661154 135.115067 185.933038 136.052701 186.870672 
C 136.990336 187.808307 138.26222 188.335138 139.588235 188.335138 
z
" style="fill:none;stroke:#2ca02c;"/>
   </g>
   <g id="PathCollection_11">
    <path clip-path="url(#pb62e09df90)" d="M 147.247059 186.973156 
C 148.573074 186.973156 149.844958 186.446325 150.782593 185.50869 
C 151.720227 184.571055 152.247059 183.299172 152.247059 181.973156 
C 152.247059 180.647141 151.720227 179.375257 150.782593 178.437622 
C 149.844958 177.499988 148.573074 176.973156 147.247059 176.973156 
C 145.921043 176.973156 144.649159 177.499988 143.711525 178.437622 
C 142.77389 179.375257 142.247059 180.647141 142.247059 181.973156 
C 142.247059 183.299172 142.77389 184.571055 143.711525 185.50869 
C 144.649159 186.446325 145.921043 186.973156 147.247059 186.973156 
z
" style="fill:none;stroke:#2ca02c;"/>
   </g>
   <g id="PathCollection_12">
    <path clip-path="url(#pb62e09df90)" d="M 154.905882 185.501925 
C 156.231898 185.501925 157.503782 184.975093 158.441416 184.037459 
C 159.379051 183.099824 159.905882 181.82794 159.905882 180.501925 
C 159.905882 179.175909 159.379051 177.904025 158.441416 176.966391 
C 157.503782 176.028756 156.231898 175.501925 154.905882 175.501925 
C 153.579867 175.501925 152.307983 176.028756 151.370348 176.966391 
C 150.432714 177.904025 149.905882 179.175909 149.905882 180.501925 
C 149.905882 181.82794 150.432714 183.099824 151.370348 184.037459 
C 152.307983 184.975093 153.579867 185.501925 154.905882 185.501925 
z
" style="fill:none;stroke:#2ca02c;"/>
   </g>
   <g id="PathCollection_13">
    <path clip-path="url(#pb62e09df90)" d="M 162.564706 183.93336 
C 163.890721 183.93336 165.162605 183.406529 166.10024 182.468894 
C 167.037874 181.53126 167.564706 180.259376 167.564706 178.93336 
C 167.564706 177.607345 167.037874 176.335461 166.10024 175.397826 
C 165.162605 174.460192 163.890721 173.93336 162.564706 173.93336 
C 161.23869 173.93336 159.966807 174.460192 159.029172 175.397826 
C 158.091537 176.335461 157.564706 177.607345 157.564706 178.93336 
C 157.564706 180.259376 158.091537 181.53126 159.029172 182.468894 
C 159.966807 183.406529 161.23869 183.93336 162.564706 183.93336 
z
" style="fill:none;stroke:#2ca02c;"/>
   </g>
   <g id="PathCollection_14">
    <path clip-path="url(#pb62e09df90)" d="M 170.223529 182.277425 
C 171.549545 182.277425 172.821429 181.750593 173.759063 180.812959 
C 174.696698 179.875324 175.223529 178.60344 175.223529 177.277425 
C 175.223529 175.951409 174.696698 174.679525 173.759063 173.741891 
C 172.821429 172.804256 171.549545 172.277425 170.223529 172.277425 
C 168.897514 172.277425 167.62563 172.804256 166.687996 173.741891 
C 165.750361 174.679525 165.223529 175.951409 165.223529 177.277425 
C 165.223529 178.60344 165.750361 179.875324 166.687996 180.812959 
C 167.62563 181.750593 168.897514 182.277425 170.223529 182.277425 
z
" style="fill:none;stroke:#2ca02c;"/>
   </g>
   <g id="PathCollection_15">
    <path clip-path="url(#pb62e09df90)" d="M 177.882353 180.541771 
C 179.208368 180.541771 180.480252 180.01494 181.417887 179.077305 
C 182.355521 178.139671 182.882353 176.867787 182.882353 175.541771 
C 182.882353 174.215756 182.355521 172.943872 181.417887 172.006238 
C 180.480252 171.068603 179.208368 170.541771 177.882353 170.541771 
C 176.556337 170.541771 175.284454 171.068603 174.346819 172.006238 
C 173.409184 172.943872 172.882353 174.215756 172.882353 175.541771 
C 172.882353 176.867787 173.409184 178.139671 174.346819 179.077305 
C 175.284454 180.01494 176.556337 180.541771 177.882353 180.541771 
z
" style="fill:none;stroke:#2ca02c;"/>
   </g>
   <g id="PathCollection_16">
    <path clip-path="url(#pb62e09df90)" d="M 185.541176 178.731598 
C 186.867192 178.731598 188.139076 178.204767 189.07671 177.267132 
C 190.014345 176.329498 190.541176 175.057614 190.541176 173.731598 
C 190.541176 172.405583 190.014345 171.133699 189.07671 170.196065 
C 188.139076 169.25843 186.867192 168.731598 185.541176 168.731598 
C 184.215161 168.731598 182.943277 169.25843 182.005643 170.196065 
C 181.068008 171.133699 180.541176 172.405583 180.541176 173.731598 
C 180.541176 175.057614 181.068008 176.329498 182.005643 177.267132 
C 182.943277 178.204767 184.215161 178.731598 185.541176 178.731598 
z
" style="fill:none;stroke:#2ca02c;"/>
   </g>
   <g id="PathCollection_17">
    <path clip-path="url(#pb62e09df90)" d="M 193.2 176.849691 
C 194.526016 176.849691 195.797899 176.322859 196.735534 175.385225 
C 197.673168 174.44759 198.2 173.175706 198.2 171.849691 
C 198.2 170.523675 197.673168 169.251791 196.735534 168.314157 
C 195.797899 167.376522 194.526016 166.849691 193.2 166.849691 
C 191.873985 166.849691 190.602101 167.376522 189.664466 168.314157 
C 188.726832 169.251791 188.2 170.523675 188.2 171.849691 
C 188.2 173.175706 188.726832 174.44759 189.664466 175.385225 
C 190.602101 176.322859 191.873985 176.849691 193.2 176.849691 
z
" style="fill:none;stroke:#2ca02c;"/>
   </g>
   <g id="PathCollection_18">
    <path clip-path="url(#pb62e09df90)" d="M 200.858824 174.896624 
C 202.184839 174.896624 203.456723 174.369792 204.394357 173.432157 
C 205.331992 172.494523 205.858824 171.222639 205.858824 169.896624 
C 205.858824 168.570608 205.331992 167.298724 204.394357 166.36109 
C 203.456723 165.423455 202.184839 164.896624 200.858824 164.896624 
C 199.532808 164.896624 198.260924 165.423455 197.32329 166.36109 
C 196.385655 167.298724 195.858824 168.570608 195.858824 169.896624 
C 195.858824 171.222639 196.385655 172.494523 197.32329 173.432157 
C 198.260924 174.369792 199.532808 174.896624 200.858824 174.896624 
z
" style="fill:none;stroke:#2ca02c;"/>
   </g>
   <g id="PathCollection_19">
    <path clip-path="url(#pb62e09df90)" d="M 208.517647 172.871107 
C 209.843663 172.871107 211.115546 172.344275 212.053181 171.406641 
C 212.990816 170.469006 213.517647 169.197122 213.517647 167.871107 
C 213.517647 166.545091 212.990816 165.273207 212.053181 164.335573 
C 211.115546 163.397938 209.843663 162.871107 208.517647 162.871107 
C 207.191632 162.871107 205.919748 163.397938 204.982113 164.335573 
C 204.044479 165.273207 203.517647 166.545091 203.517647 167.871107 
C 203.517647 169.197122 204.044479 170.469006 204.982113 171.406641 
C 205.919748 172.344275 207.191632 172.871107 208.517647 172.871107 
z
" style="fill:none;stroke:#2ca02c;"/>
   </g>
   <g id="PathCollection_20">
    <path clip-path="url(#pb62e09df90)" d="M 216.176471 170.770444 
C 217.502486 170.770444 218.77437 170.243613 219.712004 169.305978 
C 220.649639 168.368344 221.176471 167.09646 221.176471 165.770444 
C 221.176471 164.444429 220.649639 163.172545 219.712004 162.23491 
C 218.77437 161.297276 217.502486 160.770444 216.176471 160.770444 
C 214.850455 160.770444 213.578571 161.297276 212.640937 162.23491 
C 211.703302 163.172545 211.176471 164.444429 211.176471 165.770444 
C 211.176471 167.09646 211.703302 168.368344 212.640937 169.305978 
C 213.578571 170.243613 214.850455 170.770444 216.176471 170.770444 
z
" style="fill:none;stroke:#2ca02c;"/>
   </g>
   <g id="PathCollection_21">
    <path clip-path="url(#pb62e09df90)" d="M 223.835294 168.591086 
C 225.16131 168.591086 226.433193 168.064255 227.370828 167.12662 
C 228.308463 166.188985 228.835294 164.917102 228.835294 163.591086 
C 228.835294 162.265071 228.308463 160.993187 227.370828 160.055552 
C 226.433193 159.117918 225.16131 158.591086 223.835294 158.591086 
C 222.509279 158.591086 221.237395 159.117918 220.29976 160.055552 
C 219.362126 160.993187 218.835294 162.265071 218.835294 163.591086 
C 218.835294 164.917102 219.362126 166.188985 220.29976 167.12662 
C 221.237395 168.064255 222.509279 168.591086 223.835294 168.591086 
z
" style="fill:none;stroke:#2ca02c;"/>
   </g>
   <g id="PathCollection_22">
    <path clip-path="url(#pb62e09df90)" d="M 231.494118 166.329251 
C 232.820133 166.329251 234.092017 165.802419 235.029652 164.864785 
C 235.967286 163.92715 236.494118 162.655266 236.494118 161.329251 
C 236.494118 160.003235 235.967286 158.731351 235.029652 157.793717 
C 234.092017 156.856082 232.820133 156.329251 231.494118 156.329251 
C 230.168102 156.329251 228.896218 156.856082 227.958584 157.793717 
C 227.020949 158.731351 226.494118 160.003235 226.494118 161.329251 
C 226.494118 162.655266 227.020949 163.92715 227.958584 164.864785 
C 228.896218 165.802419 230.168102 166.329251 231.494118 166.329251 
z
" style="fill:none;stroke:#2ca02c;"/>
   </g>
   <g id="PathCollection_23">
    <path clip-path="url(#pb62e09df90)" d="M 239.152941 163.98159 
C 240.478957 163.98159 241.750841 163.454759 242.688475 162.517124 
C 243.62611 161.579489 244.152941 160.307606 244.152941 158.98159 
C 244.152941 157.655575 243.62611 156.383691 242.688475 155.446056 
C 241.750841 154.508422 240.478957 153.98159 239.152941 153.98159 
C 237.826926 153.98159 236.555042 154.508422 235.617407 155.446056 
C 234.679773 156.383691 234.152941 157.655575 234.152941 158.98159 
C 234.152941 160.307606 234.679773 161.579489 235.617407 162.517124 
C 236.555042 163.454759 237.826926 163.98159 239.152941 163.98159 
z
" style="fill:none;stroke:#2ca02c;"/>
   </g>
   <g id="PathCollection_24">
    <path clip-path="url(#pb62e09df90)" d="M 246.811765 161.54588 
C 248.13778 161.54588 249.409664 161.019049 250.347299 160.081414 
C 251.284933 159.143779 251.811765 157.871896 251.811765 156.54588 
C 251.811765 155.219865 251.284933 153.947981 250.347299 153.010346 
C 249.409664 152.072712 248.13778 151.54588 246.811765 151.54588 
C 245.485749 151.54588 244.213865 152.072712 243.276231 153.010346 
C 242.338596 153.947981 241.811765 155.219865 241.811765 156.54588 
C 241.811765 157.871896 242.338596 159.143779 243.276231 160.081414 
C 244.213865 161.019049 245.485749 161.54588 246.811765 161.54588 
z
" style="fill:none;stroke:#2ca02c;"/>
   </g>
   <g id="PathCollection_25">
    <path clip-path="url(#pb62e09df90)" d="M 254.470588 159.021705 
C 255.796604 159.021705 257.068488 158.494873 258.006122 157.557239 
C 258.943757 156.619604 259.470588 155.34772 259.470588 154.021705 
C 259.470588 152.695689 258.943757 151.423805 258.006122 150.486171 
C 257.068488 149.548536 255.796604 149.021705 254.470588 149.021705 
C 253.144573 149.021705 251.872689 149.548536 250.935054 150.486171 
C 249.99742 151.423805 249.470588 152.695689 249.470588 154.021705 
C 249.470588 155.34772 249.99742 156.619604 250.935054 157.557239 
C 251.872689 158.494873 253.144573 159.021705 254.470588 159.021705 
z
" style="fill:none;stroke:#2ca02c;"/>
   </g>
   <g id="PathCollection_26">
    <path clip-path="url(#pb62e09df90)" d="M 262.129412 156.41112 
C 263.455427 156.41112 264.727311 155.884289 265.664946 154.946654 
C 266.60258 154.00902 267.129412 152.737136 267.129412 151.41112 
C 267.129412 150.085105 266.60258 148.813221 265.664946 147.875586 
C 264.727311 146.937952 263.455427 146.41112 262.129412 146.41112 
C 260.803396 146.41112 259.531512 146.937952 258.593878 147.875586 
C 257.656243 148.813221 257.129412 150.085105 257.129412 151.41112 
C 257.129412 152.737136 257.656243 154.00902 258.593878 154.946654 
C 259.531512 155.884289 260.803396 156.41112 262.129412 156.41112 
z
" style="fill:none;stroke:#2ca02c;"/>
   </g>
   <g id="PathCollection_27">
    <path clip-path="url(#pb62e09df90)" d="M 269.788235 153.719267 
C 271.114251 153.719267 272.386135 153.192435 273.323769 152.254801 
C 274.261404 151.317166 274.788235 150.045282 274.788235 148.719267 
C 274.788235 147.393251 274.261404 146.121367 273.323769 145.183733 
C 272.386135 144.246098 271.114251 143.719267 269.788235 143.719267 
C 268.46222 143.719267 267.190336 144.246098 266.252701 145.183733 
C 265.315067 146.121367 264.788235 147.393251 264.788235 148.719267 
C 264.788235 150.045282 265.315067 151.317166 266.252701 152.254801 
C 267.190336 153.192435 268.46222 153.719267 269.788235 153.719267 
z
" style="fill:none;stroke:#2ca02c;"/>
   </g>
   <g id="PathCollection_28">
    <path clip-path="url(#pb62e09df90)" d="M 277.447059 150.954909 
C 278.773074 150.954909 280.044958 150.428078 280.982593 149.490443 
C 281.920227 148.552809 282.447059 147.280925 282.447059 145.954909 
C 282.447059 144.628894 281.920227 143.35701 280.982593 142.419376 
C 280.044958 141.481741 278.773074 140.954909 277.447059 140.954909 
C 276.121043 140.954909 274.849159 141.481741 273.911525 142.419376 
C 272.97389 143.35701 272.447059 144.628894 272.447059 145.954909 
C 272.447059 147.280925 272.97389 148.552809 273.911525 149.490443 
C 274.849159 150.428078 276.121043 150.954909 277.447059 150.954909 
z
" style="fill:none;stroke:#2ca02c;"/>
   </g>
   <g id="PathCollection_29">
    <path clip-path="url(#pb62e09df90)" d="M 285.105882 148.130881 
C 286.431898 148.130881 287.703782 147.60405 288.641416 146.666415 
C 289.579051 145.728781 290.105882 144.456897 290.105882 143.130881 
C 290.105882 141.804866 289.579051 140.532982 288.641416 139.595348 
C 287.703782 138.657713 286.431898 138.130881 285.105882 138.130881 
C 283.779867 138.130881 282.507983 138.657713 281.570348 139.595348 
C 280.632714 140.532982 280.105882 141.804866 280.105882 143.130881 
C 280.105882 144.456897 280.632714 145.728781 281.570348 146.666415 
C 282.507983 147.60405 283.779867 148.130881 285.105882 148.130881 
z
" style="fill:none;stroke:#2ca02c;"/>
   </g>
   <g id="PathCollection_30">
    <path clip-path="url(#pb62e09df90)" d="M 292.764706 145.264412 
C 294.090721 145.264412 295.362605 144.73758 296.30024 143.799946 
C 297.237874 142.862311 297.764706 141.590427 297.764706 140.264412 
C 297.764706 138.938396 297.237874 137.666513 296.30024 136.728878 
C 295.362605 135.791243 294.090721 135.264412 292.764706 135.264412 
C 291.43869 135.264412 290.166807 135.791243 289.229172 136.728878 
C 288.291537 137.666513 287.764706 138.938396 287.764706 140.264412 
C 287.764706 141.590427 288.291537 142.862311 289.229172 143.799946 
C 290.166807 144.73758 291.43869 145.264412 292.764706 145.264412 
z
" style="fill:none;stroke:#2ca02c;"/>
   </g>
   <g id="PathCollection_31">
    <path clip-path="url(#pb62e09df90)" d="M 300.423529 142.377306 
C 301.749545 142.377306 303.021429 141.850475 303.959063 140.91284 
C 304.896698 139.975206 305.423529 138.703322 305.423529 137.377306 
C 305.423529 136.051291 304.896698 134.779407 303.959063 133.841773 
C 303.021429 132.904138 301.749545 132.377306 300.423529 132.377306 
C 299.097514 132.377306 297.82563 132.904138 296.887996 133.841773 
C 295.950361 134.779407 295.423529 136.051291 295.423529 137.377306 
C 295.423529 138.703322 295.950361 139.975206 296.887996 140.91284 
C 297.82563 141.850475 299.097514 142.377306 300.423529 142.377306 
z
" style="fill:none;stroke:#2ca02c;"/>
   </g>
   <g id="PathCollection_32">
    <path clip-path="url(#pb62e09df90)" d="M 308.082353 139.495964 
C 309.408368 139.495964 310.680252 138.969133 311.617887 138.031498 
C 312.555521 137.093863 313.082353 135.82198 313.082353 134.495964 
C 313.082353 133.169949 312.555521 131.898065 311.617887 130.96043 
C 310.680252 130.022796 309.408368 129.495964 308.082353 129.495964 
C 306.756337 129.495964 305.484454 130.022796 304.546819 130.96043 
C 303.609184 131.898065 303.082353 133.169949 303.082353 134.495964 
C 303.082353 135.82198 303.609184 137.093863 304.546819 138.031498 
C 305.484454 138.969133 306.756337 139.495964 308.082353 139.495964 
z
" style="fill:none;stroke:#2ca02c;"/>
   </g>
   <g id="PathCollection_33">
    <path clip-path="url(#pb62e09df90)" d="M 315.741176 136.651203 
C 317.067192 136.651203 318.339076 136.124371 319.27671 135.186737 
C 320.214345 134.249102 320.741176 132.977218 320.741176 131.651203 
C 320.741176 130.325187 320.214345 129.053303 319.27671 128.115669 
C 318.339076 127.178034 317.067192 126.651203 315.741176 126.651203 
C 314.415161 126.651203 313.143277 127.178034 312.205643 128.115669 
C 311.268008 129.053303 310.741176 130.325187 310.741176 131.651203 
C 310.741176 132.977218 311.268008 134.249102 312.205643 135.186737 
C 313.143277 136.124371 314.415161 136.651203 315.741176 136.651203 
z
" style="fill:none;stroke:#2ca02c;"/>
   </g>
   <g id="PathCollection_34">
    <path clip-path="url(#pb62e09df90)" d="M 323.4 133.877872 
C 324.726016 133.877872 325.997899 133.35104 326.935534 132.413406 
C 327.873168 131.475771 328.4 130.203887 328.4 128.877872 
C 328.4 127.551856 327.873168 126.279972 326.935534 125.342338 
C 325.997899 124.404703 324.726016 123.877872 323.4 123.877872 
C 322.073985 123.877872 320.802101 124.404703 319.864466 125.342338 
C 318.926832 126.279972 318.4 127.551856 318.4 128.877872 
C 318.4 130.203887 318.926832 131.475771 319.864466 132.413406 
C 320.802101 133.35104 322.073985 133.877872 323.4 133.877872 
z
" style="fill:none;stroke:#2ca02c;"/>
   </g>
   <g id="PathCollection_35">
    <path clip-path="url(#pb62e09df90)" d="M 331.058824 131.214228 
C 332.384839 131.214228 333.656723 130.687397 334.594357 129.749762 
C 335.531992 128.812127 336.058824 127.540244 336.058824 126.214228 
C 336.058824 124.888213 335.531992 123.616329 334.594357 122.678694 
C 333.656723 121.74106 332.384839 121.214228 331.058824 121.214228 
C 329.732808 121.214228 328.460924 121.74106 327.52329 122.678694 
C 326.585655 123.616329 326.058824 124.888213 326.058824 126.214228 
C 326.058824 127.540244 326.585655 128.812127 327.52329 129.749762 
C 328.460924 130.687397 329.732808 131.214228 331.058824 131.214228 
z
" style="fill:none;stroke:#2ca02c;"/>
   </g>
   <g id="PathCollection_36">
    <path clip-path="url(#pb62e09df90)" d="M 338.717647 128.70105 
C 340.043663 128.70105 341.315546 128.174218 342.253181 127.236584 
C 343.190816 126.298949 343.717647 125.027065 343.717647 123.70105 
C 343.717647 122.375034 343.190816 121.10315 342.253181 120.165516 
C 341.315546 119.227881 340.043663 118.70105 338.717647 118.70105 
C 337.391632 118.70105 336.119748 119.227881 335.182113 120.165516 
C 334.244479 121.10315 333.717647 122.375034 333.717647 123.70105 
C 333.717647 125.027065 334.244479 126.298949 335.182113 127.236584 
C 336.119748 128.174218 337.391632 128.70105 338.717647 128.70105 
z
" style="fill:none;stroke:#2ca02c;"/>
   </g>
   <g id="PathCollection_37">
    <path clip-path="url(#pb62e09df90)" d="M 346.376471 126.380468 
C 347.702486 126.380468 348.97437 125.853636 349.912004 124.916002 
C 350.849639 123.978367 351.376471 122.706483 351.376471 121.380468 
C 351.376471 120.054452 350.849639 118.782568 349.912004 117.844934 
C 348.97437 116.907299 347.702486 116.380468 346.376471 116.380468 
C 345.050455 116.380468 343.778571 116.907299 342.840937 117.844934 
C 341.903302 118.782568 341.376471 120.054452 341.376471 121.380468 
C 341.376471 122.706483 341.903302 123.978367 342.840937 124.916002 
C 343.778571 125.853636 345.050455 126.380468 346.376471 126.380468 
z
" style="fill:none;stroke:#2ca02c;"/>
   </g>
   <g id="PathCollection_38">
    <path clip-path="url(#pb62e09df90)" d="M 354.035294 124.294488 
C 355.36131 124.294488 356.633193 123.767656 357.570828 122.830022 
C 358.508463 121.892387 359.035294 120.620503 359.035294 119.294488 
C 359.035294 117.968472 358.508463 116.696589 357.570828 115.758954 
C 356.633193 114.821319 355.36131 114.294488 354.035294 114.294488 
C 352.709279 114.294488 351.437395 114.821319 350.49976 115.758954 
C 349.562126 116.696589 349.035294 117.968472 349.035294 119.294488 
C 349.035294 120.620503 349.562126 121.892387 350.49976 122.830022 
C 351.437395 123.767656 352.709279 124.294488 354.035294 124.294488 
z
" style="fill:none;stroke:#2ca02c;"/>
   </g>
   <g id="PathCollection_39">
    <path clip-path="url(#pb62e09df90)" d="M 361.694118 122.483183 
C 363.020133 122.483183 364.292017 121.956352 365.229652 121.018717 
C 366.167286 120.081083 366.694118 118.809199 366.694118 117.483183 
C 366.694118 116.157168 366.167286 114.885284 365.229652 113.94765 
C 364.292017 113.010015 363.020133 112.483183 361.694118 112.483183 
C 360.368102 112.483183 359.096218 113.010015 358.158584 113.94765 
C 357.220949 114.885284 356.694118 116.157168 356.694118 117.483183 
C 356.694118 118.809199 357.220949 120.081083 358.158584 121.018717 
C 359.096218 121.956352 360.368102 122.483183 361.694118 122.483183 
z
" style="fill:none;stroke:#2ca02c;"/>
   </g>
   <g id="PathCollection_40">
    <path clip-path="url(#pb62e09df90)" d="M 369.352941 120.982532 
C 370.678957 120.982532 371.950841 120.455701 372.888475 119.518066 
C 373.82611 118.580431 374.352941 117.308548 374.352941 115.982532 
C 374.352941 114.656517 373.82611 113.384633 372.888475 112.446998 
C 371.950841 111.509364 370.678957 110.982532 369.352941 110.982532 
C 368.026926 110.982532 366.755042 111.509364 365.817407 112.446998 
C 364.879773 113.384633 364.352941 114.656517 364.352941 115.982532 
C 364.352941 117.308548 364.879773 118.580431 365.817407 119.518066 
C 366.755042 120.455701 368.026926 120.982532 369.352941 120.982532 
z
" style="fill:none;stroke:#2ca02c;"/>
   </g>
   <g id="PathCollection_41">
    <path clip-path="url(#pb62e09df90)" d="M 377.011765 119.821874 
C 378.33778 119.821874 379.609664 119.295042 380.547299 118.357408 
C 381.484933 117.419773 382.011765 116.147889 382.011765 114.821874 
C 382.011765 113.495858 381.484933 112.223974 380.547299 111.28634 
C 379.609664 110.348705 378.33778 109.821874 377.011765 109.821874 
C 375.685749 109.821874 374.413865 110.348705 373.476231 111.28634 
C 372.538596 112.223974 372.011765 113.495858 372.011765 114.821874 
C 372.011765 116.147889 372.538596 117.419773 373.476231 118.357408 
C 374.413865 119.295042 375.685749 119.821874 377.011765 119.821874 
z
" style="fill:none;stroke:#2ca02c;"/>
   </g>
   <g id="PathCollection_42">
    <path clip-path="url(#pb62e09df90)" d="M 384.670588 119.020968 
C 385.996604 119.020968 387.268488 118.494137 388.206122 117.556502 
C 389.143757 116.618868 389.670588 115.346984 389.670588 114.020968 
C 389.670588 112.694953 389.143757 111.423069 388.206122 110.485434 
C 387.268488 109.5478 385.996604 109.020968 384.670588 109.020968 
C 383.344573 109.020968 382.072689 109.5478 381.135054 110.485434 
C 380.19742 111.423069 379.670588 112.694953 379.670588 114.020968 
C 379.670588 115.346984 380.19742 116.618868 381.135054 117.556502 
C 382.072689 118.494137 383.344573 119.020968 384.670588 119.020968 
z
" style="fill:none;stroke:#2ca02c;"/>
   </g>
   <g id="PathCollection_43">
    <path clip-path="url(#pb62e09df90)" d="M 392.329412 118.586627 
C 393.655427 118.586627 394.927311 118.059795 395.864946 117.122161 
C 396.80258 116.184526 397.329412 114.912642 397.329412 113.586627 
C 397.329412 112.260611 396.80258 110.988728 395.864946 110.051093 
C 394.927311 109.113458 393.655427 108.586627 392.329412 108.586627 
C 391.003396 108.586627 389.731512 109.113458 388.793878 110.051093 
C 387.856243 110.988728 387.329412 112.260611 387.329412 113.586627 
C 387.329412 114.912642 387.856243 116.184526 388.793878 117.122161 
C 389.731512 118.059795 391.003396 118.586627 392.329412 118.586627 
z
" style="fill:none;stroke:#2ca02c;"/>
   </g>
   <g id="PathCollection_44">
    <path clip-path="url(#pb62e09df90)" d="M 399.988235 118.508894 
C 401.314251 118.508894 402.586135 117.982062 403.523769 117.044428 
C 404.461404 116.106793 404.988235 114.834909 404.988235 113.508894 
C 404.988235 112.182878 404.461404 110.910995 403.523769 109.97336 
C 402.586135 109.035725 401.314251 108.508894 399.988235 108.508894 
C 398.66222 108.508894 397.390336 109.035725 396.452701 109.97336 
C 395.515067 110.910995 394.988235 112.182878 394.988235 113.508894 
C 394.988235 114.834909 395.515067 116.106793 396.452701 117.044428 
C 397.390336 117.982062 398.66222 118.508894 399.988235 118.508894 
z
" style="fill:none;stroke:#2ca02c;"/>
   </g>
   <g id="PathCollection_45">
    <path clip-path="url(#pb62e09df90)" d="M 407.647059 118.756758 
C 408.973074 118.756758 410.244958 118.229926 411.182593 117.292291 
C 412.120227 116.354657 412.647059 115.082773 412.647059 113.756758 
C 412.647059 112.430742 412.120227 111.158858 411.182593 110.221224 
C 410.244958 109.283589 408.973074 108.756758 407.647059 108.756758 
C 406.321043 108.756758 405.049159 109.283589 404.111525 110.221224 
C 403.17389 111.158858 402.647059 112.430742 402.647059 113.756758 
C 402.647059 115.082773 403.17389 116.354657 404.111525 117.292291 
C 405.049159 118.229926 406.321043 118.756758 407.647059 118.756758 
z
" style="fill:none;stroke:#2ca02c;"/>
   </g>
   <g id="PathCollection_46">
    <path clip-path="url(#pb62e09df90)" d="M 415.305882 119.273364 
C 416.631898 119.273364 417.903782 118.746533 418.841416 117.808898 
C 419.779051 116.871264 420.305882 115.59938 420.305882 114.273364 
C 420.305882 112.947349 419.779051 111.675465 418.841416 110.73783 
C 417.903782 109.800196 416.631898 109.273364 415.305882 109.273364 
C 413.979867 109.273364 412.707983 109.800196 411.770348 110.73783 
C 410.832714 111.675465 410.305882 112.947349 410.305882 114.273364 
C 410.305882 115.59938 410.832714 116.871264 411.770348 117.808898 
C 412.707983 118.746533 413.979867 119.273364 415.305882 119.273364 
z
" style="fill:none;stroke:#2ca02c;"/>
   </g>
   <g id="PathCollection_47">
    <path clip-path="url(#pb62e09df90)" d="M 422.964706 119.970712 
C 424.290721 119.970712 425.562605 119.443881 426.50024 118.506246 
C 427.437874 117.568612 427.964706 116.296728 427.964706 114.970712 
C 427.964706 113.644697 427.437874 112.372813 426.50024 111.435178 
C 425.562605 110.497544 424.290721 109.970712 422.964706 109.970712 
C 421.63869 109.970712 420.366807 110.497544 419.429172 111.435178 
C 418.491537 112.372813 417.964706 113.644697 417.964706 114.970712 
C 417.964706 116.296728 418.491537 117.568612 419.429172 118.506246 
C 420.366807 119.443881 421.63869 119.970712 422.964706 119.970712 
z
" style="fill:none;stroke:#2ca02c;"/>
   </g>
   <g id="PathCollection_48">
    <path clip-path="url(#pb62e09df90)" d="M 430.623529 120.723804 
C 431.949545 120.723804 433.221429 120.196973 434.159063 119.259338 
C 435.096698 118.321704 435.623529 117.04982 435.623529 115.723804 
C 435.623529 114.397789 435.096698 113.125905 434.159063 112.18827 
C 433.221429 111.250636 431.949545 110.723804 430.623529 110.723804 
C 429.297514 110.723804 428.02563 111.250636 427.087996 112.18827 
C 426.150361 113.125905 425.623529 114.397789 425.623529 115.723804 
C 425.623529 117.04982 426.150361 118.321704 427.087996 119.259338 
C 428.02563 120.196973 429.297514 120.723804 430.623529 120.723804 
z
" style="fill:none;stroke:#2ca02c;"/>
   </g>
   <g id="PathCollection_49">
    <path clip-path="url(#pb62e09df90)" d="M 438.282353 121.364231 
C 439.608368 121.364231 440.880252 120.837399 441.817887 119.899765 
C 442.755521 118.96213 443.282353 117.690246 443.282353 116.364231 
C 443.282353 115.038215 442.755521 113.766332 441.817887 112.828697 
C 440.880252 111.891062 439.608368 111.364231 438.282353 111.364231 
C 436.956337 111.364231 435.684454 111.891062 434.746819 112.828697 
C 433.809184 113.766332 433.282353 115.038215 433.282353 116.364231 
C 433.282353 117.690246 433.809184 118.96213 434.746819 119.899765 
C 435.684454 120.837399 436.956337 121.364231 438.282353 121.364231 
z
" style="fill:none;stroke:#2ca02c;"/>
   </g>
   <g id="PathCollection_50">
    <path clip-path="url(#pb62e09df90)" d="M 445.941176 121.673167 
C 447.267192 121.673167 448.539076 121.146336 449.47671 120.208701 
C 450.414345 119.271066 450.941176 117.999183 450.941176 116.673167 
C 450.941176 115.347152 450.414345 114.075268 449.47671 113.137633 
C 448.539076 112.199999 447.267192 111.673167 445.941176 111.673167 
C 444.615161 111.673167 443.343277 112.199999 442.405643 113.137633 
C 441.468008 114.075268 440.941176 115.347152 440.941176 116.673167 
C 440.941176 117.999183 441.468008 119.271066 442.405643 120.208701 
C 443.343277 121.146336 444.615161 121.673167 445.941176 121.673167 
z
" style="fill:none;stroke:#2ca02c;"/>
   </g>
   <g id="PathCollection_51">
    <path clip-path="url(#pb62e09df90)" d="M 453.6 121.373751 
C 454.926016 121.373751 456.197899 120.846919 457.135534 119.909285 
C 458.073168 118.97165 458.6 117.699766 458.6 116.373751 
C 458.6 115.047735 458.073168 113.775852 457.135534 112.838217 
C 456.197899 111.900582 454.926016 111.373751 453.6 111.373751 
C 452.273985 111.373751 451.002101 111.900582 450.064466 112.838217 
C 449.126832 113.775852 448.6 115.047735 448.6 116.373751 
C 448.6 117.699766 449.126832 118.97165 450.064466 119.909285 
C 451.002101 120.846919 452.273985 121.373751 453.6 121.373751 
z
" style="fill:none;stroke:#2ca02c;"/>
   </g>
   <g id="PathCollection_52">
    <defs>
     <path d="M 0 5 
C 1.326016 5 2.597899 4.473168 3.535534 3.535534 
C 4.473168 2.597899 5 1.326016 5 0 
C 5 -1.326016 4.473168 -2.597899 3.535534 -3.535534 
C 2.597899 -4.473168 1.326016 -5 0 -5 
C -1.326016 -5 -2.597899 -4.473168 -3.535534 -3.535534 
C -4.473168 -2.597899 -5 -1.326016 -5 0 
C -5 1.326016 -4.473168 2.597899 -3.535534 3.535534 
C -2.597899 4.473168 -1.326016 5 0 5 
z
" id="mcf60daee62" style="stroke:#2ca02c;"/>
    </defs>
    <g clip-path="url(#pb62e09df90)">
     <use style="fill:#2ca02c;stroke:#2ca02c;" x="70.658824" xlink:href="#mcf60daee62" y="188.315064"/>
    </g>
   </g>
   <g id="PathCollection_53">
    <g clip-path="url(#pb62e09df90)">
     <use style="fill:#2ca02c;stroke:#2ca02c;" x="78.317647" xlink:href="#mcf60daee62" y="187.623812"/>
    </g>
   </g>
   <g id="PathCollection_54">
    <g clip-path="url(#pb62e09df90)">
     <use style="fill:#2ca02c;stroke:#2ca02c;" x="85.976471" xlink:href="#mcf60daee62" y="187.126939"/>
    </g>
   </g>
   <g id="PathCollection_55">
    <g clip-path="url(#pb62e09df90)">
     <use style="fill:#2ca02c;stroke:#2ca02c;" x="93.635294" xlink:href="#mcf60daee62" y="186.679755"/>
    </g>
   </g>
   <g id="PathCollection_56">
    <g clip-path="url(#pb62e09df90)">
     <use style="fill:#2ca02c;stroke:#2ca02c;" x="101.294118" xlink:href="#mcf60daee62" y="186.175264"/>
    </g>
   </g>
   <g id="PathCollection_57">
    <g clip-path="url(#pb62e09df90)">
     <use style="fill:#2ca02c;stroke:#2ca02c;" x="108.952941" xlink:href="#mcf60daee62" y="185.537526"/>
    </g>
   </g>
   <g id="PathCollection_58">
    <g clip-path="url(#pb62e09df90)">
     <use style="fill:#2ca02c;stroke:#2ca02c;" x="116.611765" xlink:href="#mcf60daee62" y="184.716089"/>
    </g>
   </g>
   <g id="PathCollection_59">
    <g clip-path="url(#pb62e09df90)">
     <use style="fill:#2ca02c;stroke:#2ca02c;" x="124.270588" xlink:href="#mcf60daee62" y="183.681045"/>
    </g>
   </g>
   <g id="PathCollection_60">
    <g clip-path="url(#pb62e09df90)">
     <use style="fill:#2ca02c;stroke:#2ca02c;" x="131.929412" xlink:href="#mcf60daee62" y="182.418649"/>
    </g>
   </g>
   <g id="PathCollection_61">
    <g clip-path="url(#pb62e09df90)">
     <use style="fill:#2ca02c;stroke:#2ca02c;" x="139.588235" xlink:href="#mcf60daee62" y="180.927493"/>
    </g>
   </g>
   <g id="PathCollection_62">
    <g clip-path="url(#pb62e09df90)">
     <use style="fill:#2ca02c;stroke:#2ca02c;" x="147.247059" xlink:href="#mcf60daee62" y="179.215192"/>
    </g>
   </g>
   <g id="PathCollection_63">
    <g clip-path="url(#pb62e09df90)">
     <use style="fill:#2ca02c;stroke:#2ca02c;" x="154.905882" xlink:href="#mcf60daee62" y="177.295559"/>
    </g>
   </g>
   <g id="PathCollection_64">
    <g clip-path="url(#pb62e09df90)">
     <use style="fill:#2ca02c;stroke:#2ca02c;" x="162.564706" xlink:href="#mcf60daee62" y="175.186228"/>
    </g>
   </g>
   <g id="PathCollection_65">
    <g clip-path="url(#pb62e09df90)">
     <use style="fill:#2ca02c;stroke:#2ca02c;" x="170.223529" xlink:href="#mcf60daee62" y="172.90671"/>
    </g>
   </g>
   <g id="PathCollection_66">
    <g clip-path="url(#pb62e09df90)">
     <use style="fill:#2ca02c;stroke:#2ca02c;" x="177.882353" xlink:href="#mcf60daee62" y="170.476834"/>
    </g>
   </g>
   <g id="PathCollection_67">
    <g clip-path="url(#pb62e09df90)">
     <use style="fill:#2ca02c;stroke:#2ca02c;" x="185.541176" xlink:href="#mcf60daee62" y="167.915556"/>
    </g>
   </g>
   <g id="PathCollection_68">
    <g clip-path="url(#pb62e09df90)">
     <use style="fill:#2ca02c;stroke:#2ca02c;" x="193.2" xlink:href="#mcf60daee62" y="165.240095"/>
    </g>
   </g>
   <g id="PathCollection_69">
    <g clip-path="url(#pb62e09df90)">
     <use style="fill:#2ca02c;stroke:#2ca02c;" x="200.858824" xlink:href="#mcf60daee62" y="162.465374"/>
    </g>
   </g>
   <g id="PathCollection_70">
    <g clip-path="url(#pb62e09df90)">
     <use style="fill:#2ca02c;stroke:#2ca02c;" x="208.517647" xlink:href="#mcf60daee62" y="159.603734"/>
    </g>
   </g>
   <g id="PathCollection_71">
    <g clip-path="url(#pb62e09df90)">
     <use style="fill:#2ca02c;stroke:#2ca02c;" x="216.176471" xlink:href="#mcf60daee62" y="156.664879"/>
    </g>
   </g>
   <g id="PathCollection_72">
    <g clip-path="url(#pb62e09df90)">
     <use style="fill:#2ca02c;stroke:#2ca02c;" x="223.835294" xlink:href="#mcf60daee62" y="153.656036"/>
    </g>
   </g>
   <g id="PathCollection_73">
    <g clip-path="url(#pb62e09df90)">
     <use style="fill:#2ca02c;stroke:#2ca02c;" x="231.494118" xlink:href="#mcf60daee62" y="150.582296"/>
    </g>
   </g>
   <g id="PathCollection_74">
    <g clip-path="url(#pb62e09df90)">
     <use style="fill:#2ca02c;stroke:#2ca02c;" x="239.152941" xlink:href="#mcf60daee62" y="147.447095"/>
    </g>
   </g>
   <g id="PathCollection_75">
    <g clip-path="url(#pb62e09df90)">
     <use style="fill:#2ca02c;stroke:#2ca02c;" x="246.811765" xlink:href="#mcf60daee62" y="144.252823"/>
    </g>
   </g>
   <g id="PathCollection_76">
    <g clip-path="url(#pb62e09df90)">
     <use style="fill:#2ca02c;stroke:#2ca02c;" x="254.470588" xlink:href="#mcf60daee62" y="141.001504"/>
    </g>
   </g>
   <g id="PathCollection_77">
    <g clip-path="url(#pb62e09df90)">
     <use style="fill:#2ca02c;stroke:#2ca02c;" x="262.129412" xlink:href="#mcf60daee62" y="137.695547"/>
    </g>
   </g>
   <g id="PathCollection_78">
    <g clip-path="url(#pb62e09df90)">
     <use style="fill:#2ca02c;stroke:#2ca02c;" x="269.788235" xlink:href="#mcf60daee62" y="134.338515"/>
    </g>
   </g>
   <g id="PathCollection_79">
    <g clip-path="url(#pb62e09df90)">
     <use style="fill:#2ca02c;stroke:#2ca02c;" x="277.447059" xlink:href="#mcf60daee62" y="130.935885"/>
    </g>
   </g>
   <g id="PathCollection_80">
    <g clip-path="url(#pb62e09df90)">
     <use style="fill:#2ca02c;stroke:#2ca02c;" x="285.105882" xlink:href="#mcf60daee62" y="127.49578"/>
    </g>
   </g>
   <g id="PathCollection_81">
    <g clip-path="url(#pb62e09df90)">
     <use style="fill:#2ca02c;stroke:#2ca02c;" x="292.764706" xlink:href="#mcf60daee62" y="124.029628"/>
    </g>
   </g>
   <g id="PathCollection_82">
    <g clip-path="url(#pb62e09df90)">
     <use style="fill:#2ca02c;stroke:#2ca02c;" x="300.423529" xlink:href="#mcf60daee62" y="120.552723"/>
    </g>
   </g>
   <g id="PathCollection_83">
    <g clip-path="url(#pb62e09df90)">
     <use style="fill:#2ca02c;stroke:#2ca02c;" x="308.082353" xlink:href="#mcf60daee62" y="117.084659"/>
    </g>
   </g>
   <g id="PathCollection_84">
    <g clip-path="url(#pb62e09df90)">
     <use style="fill:#2ca02c;stroke:#2ca02c;" x="315.741176" xlink:href="#mcf60daee62" y="113.64961"/>
    </g>
   </g>
   <g id="PathCollection_85">
    <g clip-path="url(#pb62e09df90)">
     <use style="fill:#2ca02c;stroke:#2ca02c;" x="323.4" xlink:href="#mcf60daee62" y="110.276411"/>
    </g>
   </g>
   <g id="PathCollection_86">
    <g clip-path="url(#pb62e09df90)">
     <use style="fill:#2ca02c;stroke:#2ca02c;" x="331.058824" xlink:href="#mcf60daee62" y="106.998424"/>
    </g>
   </g>
   <g id="PathCollection_87">
    <g clip-path="url(#pb62e09df90)">
     <use style="fill:#2ca02c;stroke:#2ca02c;" x="338.717647" xlink:href="#mcf60daee62" y="103.853151"/>
    </g>
   </g>
   <g id="PathCollection_88">
    <g clip-path="url(#pb62e09df90)">
     <use style="fill:#2ca02c;stroke:#2ca02c;" x="346.376471" xlink:href="#mcf60daee62" y="100.881569"/>
    </g>
   </g>
   <g id="PathCollection_89">
    <g clip-path="url(#pb62e09df90)">
     <use style="fill:#2ca02c;stroke:#2ca02c;" x="354.035294" xlink:href="#mcf60daee62" y="98.127144"/>
    </g>
   </g>
   <g id="PathCollection_90">
    <g clip-path="url(#pb62e09df90)">
     <use style="fill:#2ca02c;stroke:#2ca02c;" x="361.694118" xlink:href="#mcf60daee62" y="95.634515"/>
    </g>
   </g>
   <g id="PathCollection_91">
    <g clip-path="url(#pb62e09df90)">
     <use style="fill:#2ca02c;stroke:#2ca02c;" x="369.352941" xlink:href="#mcf60daee62" y="93.447789"/>
    </g>
   </g>
   <g id="PathCollection_92">
    <g clip-path="url(#pb62e09df90)">
     <use style="fill:#2ca02c;stroke:#2ca02c;" x="377.011765" xlink:href="#mcf60daee62" y="91.608443"/>
    </g>
   </g>
   <g id="PathCollection_93">
    <g clip-path="url(#pb62e09df90)">
     <use style="fill:#2ca02c;stroke:#2ca02c;" x="384.670588" xlink:href="#mcf60daee62" y="90.152784"/>
    </g>
   </g>
   <g id="PathCollection_94">
    <g clip-path="url(#pb62e09df90)">
     <use style="fill:#2ca02c;stroke:#2ca02c;" x="392.329412" xlink:href="#mcf60daee62" y="89.108948"/>
    </g>
   </g>
   <g id="PathCollection_95">
    <g clip-path="url(#pb62e09df90)">
     <use style="fill:#2ca02c;stroke:#2ca02c;" x="399.988235" xlink:href="#mcf60daee62" y="88.493399"/>
    </g>
   </g>
   <g id="PathCollection_96">
    <g clip-path="url(#pb62e09df90)">
     <use style="fill:#2ca02c;stroke:#2ca02c;" x="407.647059" xlink:href="#mcf60daee62" y="88.306901"/>
    </g>
   </g>
   <g id="PathCollection_97">
    <g clip-path="url(#pb62e09df90)">
     <use style="fill:#2ca02c;stroke:#2ca02c;" x="415.305882" xlink:href="#mcf60daee62" y="88.529934"/>
    </g>
   </g>
   <g id="PathCollection_98">
    <g clip-path="url(#pb62e09df90)">
     <use style="fill:#2ca02c;stroke:#2ca02c;" x="422.964706" xlink:href="#mcf60daee62" y="89.117517"/>
    </g>
   </g>
   <g id="PathCollection_99">
    <g clip-path="url(#pb62e09df90)">
     <use style="fill:#2ca02c;stroke:#2ca02c;" x="430.623529" xlink:href="#mcf60daee62" y="89.99342"/>
    </g>
   </g>
   <g id="PathCollection_100">
    <g clip-path="url(#pb62e09df90)">
     <use style="fill:#2ca02c;stroke:#2ca02c;" x="438.282353" xlink:href="#mcf60daee62" y="91.043715"/>
    </g>
   </g>
   <g id="PathCollection_101">
    <g clip-path="url(#pb62e09df90)">
     <use style="fill:#2ca02c;stroke:#2ca02c;" x="445.941176" xlink:href="#mcf60daee62" y="92.109655"/>
    </g>
   </g>
   <g id="PathCollection_102">
    <g clip-path="url(#pb62e09df90)">
     <use style="fill:#2ca02c;stroke:#2ca02c;" x="453.6" xlink:href="#mcf60daee62" y="92.979838"/>
    </g>
   </g>
   <g id="matplotlib.axis_1"/>
   <g id="matplotlib.axis_2"/>
   <g id="line2d_1">
    <path clip-path="url(#pb62e09df90)" d="M 63 189 
L 109.144412 188.889458 
L 114.441765 188.574357 
L 119.834853 188.028174 
L 125.483235 187.229846 
L 131.450735 186.158782 
L 137.801176 184.789097 
L 144.566471 183.099242 
L 151.842353 181.049736 
L 159.756471 178.586017 
L 168.468382 175.63682 
L 178.233382 172.091267 
L 189.466324 167.770202 
L 203.156471 162.255469 
L 222.143971 154.347643 
L 267.713971 135.296686 
L 285.744118 128.049456 
L 294.232647 124.817414 
L 299.402353 123.106646 
L 304.572059 121.631621 
L 309.869412 120.352089 
L 315.358235 119.255583 
L 321.070441 118.342296 
L 327.037941 117.615282 
L 333.260735 117.082125 
L 339.802647 116.745686 
L 346.7275 116.614351 
L 354.067206 116.699973 
L 361.885588 117.015598 
L 370.310294 117.581383 
L 379.437059 118.420824 
L 389.425441 119.566311 
L 400.562647 121.071923 
L 413.263529 123.019569 
L 428.262059 125.552324 
L 447.472941 129.035049 
L 453.6 130.180645 
L 453.6 130.180645 
" style="fill:none;stroke:#2ca02c;stroke-dasharray:11.1,4.8;stroke-dashoffset:0;stroke-width:3;"/>
   </g>
   <g id="line2d_2">
    <path clip-path="url(#pb62e09df90)" d="M 63 189 
L 108.633824 188.889686 
L 113.484412 188.577134 
L 118.366912 188.037617 
L 123.440882 187.251498 
L 128.770147 186.198888 
L 134.386618 184.861373 
L 140.354118 183.209613 
L 146.704559 181.219515 
L 153.565588 178.83278 
L 160.969118 176.0189 
L 169.106618 172.684316 
L 178.137647 168.739591 
L 188.477059 163.975326 
L 200.826912 158.030628 
L 217.197647 149.885253 
L 272.628382 122.114328 
L 288.807647 114.367462 
L 294.6475 111.756919 
L 299.402353 109.877989 
L 304.157206 108.238815 
L 309.007794 106.802006 
L 314.017941 105.550682 
L 319.187647 104.48928 
L 324.548824 103.616087 
L 330.133382 102.932947 
L 335.973235 102.444676 
L 342.068382 102.159388 
L 348.482647 102.082915 
L 355.279853 102.226657 
L 362.491912 102.604163 
L 370.214559 103.234411 
L 378.511618 104.137729 
L 387.542647 105.348319 
L 397.467206 106.906891 
L 408.604412 108.886145 
L 421.401029 111.392427 
L 436.846324 114.653088 
L 453.6 118.372244 
L 453.6 118.372244 
" style="fill:none;stroke:#2ca02c;stroke-linecap:square;stroke-width:3;"/>
   </g>
   <g id="patch_3">
    <path d="M 63 189 
L 63 25.92 
" style="fill:none;stroke:#000000;stroke-linecap:square;stroke-linejoin:miter;stroke-width:0.8;"/>
   </g>
   <g id="patch_4">
    <path d="M 453.6 189 
L 453.6 25.92 
" style="fill:none;stroke:#000000;stroke-linecap:square;stroke-linejoin:miter;stroke-width:0.8;"/>
   </g>
   <g id="patch_5">
    <path d="M 63 189 
L 453.6 189 
" style="fill:none;stroke:#000000;stroke-linecap:square;stroke-linejoin:miter;stroke-width:0.8;"/>
   </g>
   <g id="patch_6">
    <path d="M 63 25.92 
L 453.6 25.92 
" style="fill:none;stroke:#000000;stroke-linecap:square;stroke-linejoin:miter;stroke-width:0.8;"/>
   </g>
  </g>
 </g>
 <defs>
  <clipPath id="pb62e09df90">
   <rect height="163.08" width="390.6" x="63" y="25.92"/>
  </clipPath>
 </defs>
</svg>
