<?xml version="1.0" encoding="utf-8" standalone="no"?>
<!DOCTYPE svg PUBLIC "-//W3C//DTD SVG 1.1//EN"
  "http://www.w3.org/Graphics/SVG/1.1/DTD/svg11.dtd">
<!-- Created with matplotlib (https://matplotlib.org/) -->
<svg height="216pt" version="1.1" viewBox="0 0 504 216" width="504pt" xmlns="http://www.w3.org/2000/svg" xmlns:xlink="http://www.w3.org/1999/xlink">
 <metadata>
  <rdf:RDF xmlns:cc="http://creativecommons.org/ns#" xmlns:dc="http://purl.org/dc/elements/1.1/" xmlns:rdf="http://www.w3.org/1999/02/22-rdf-syntax-ns#">
   <cc:Work>
    <dc:type rdf:resource="http://purl.org/dc/dcmitype/StillImage"/>
    <dc:date>2024-11-24T08:48:20.520986</dc:date>
    <dc:format>image/svg+xml</dc:format>
    <dc:creator>
     <cc:Agent>
      <dc:title>Matplotlib v3.3.2, https://matplotlib.org/</dc:title>
     </cc:Agent>
    </dc:creator>
   </cc:Work>
  </rdf:RDF>
 </metadata>
 <defs>
  <style type="text/css">*{stroke-linecap:butt;stroke-linejoin:round;}</style>
 </defs>
 <g id="figure_1">
  <g id="patch_1">
   <path d="M 0 216 
L 504 216 
L 504 0 
L 0 0 
z
" style="fill:none;"/>
  </g>
  <g id="axes_1">
   <g id="patch_2">
    <path d="M 63 189 
L 453.6 189 
L 453.6 25.92 
L 63 25.92 
z
" style="fill:#ffffff;"/>
   </g>
   <g id="PathCollection_1">
    <path clip-path="url(#p97aea15abd)" d="M 70.658824 193.700911 
C 71.984839 193.700911 73.256723 193.17408 74.194357 192.236445 
C 75.131992 191.298811 75.658824 190.026927 75.658824 188.700911 
C 75.658824 187.374896 75.131992 186.103012 74.194357 185.165377 
C 73.256723 184.227743 71.984839 183.700911 70.658824 183.700911 
C 69.332808 183.700911 68.060924 184.227743 67.12329 185.165377 
C 66.185655 186.103012 65.658824 187.374896 65.658824 188.700911 
C 65.658824 190.026927 66.185655 191.298811 67.12329 192.236445 
C 68.060924 193.17408 69.332808 193.700911 70.658824 193.700911 
z
" style="fill:none;stroke:#d62728;"/>
   </g>
   <g id="PathCollection_2">
    <path clip-path="url(#p97aea15abd)" d="M 78.317647 193.358746 
C 79.643663 193.358746 80.915546 192.831914 81.853181 191.89428 
C 82.790816 190.956645 83.317647 189.684761 83.317647 188.358746 
C 83.317647 187.03273 82.790816 185.760847 81.853181 184.823212 
C 80.915546 183.885577 79.643663 183.358746 78.317647 183.358746 
C 76.991632 183.358746 75.719748 183.885577 74.782113 184.823212 
C 73.844479 185.760847 73.317647 187.03273 73.317647 188.358746 
C 73.317647 189.684761 73.844479 190.956645 74.782113 191.89428 
C 75.719748 192.831914 76.991632 193.358746 78.317647 193.358746 
z
" style="fill:none;stroke:#d62728;"/>
   </g>
   <g id="PathCollection_3">
    <path clip-path="url(#p97aea15abd)" d="M 85.976471 192.955586 
C 87.302486 192.955586 88.57437 192.428755 89.512004 191.49112 
C 90.449639 190.553485 90.976471 189.281602 90.976471 187.955586 
C 90.976471 186.629571 90.449639 185.357687 89.512004 184.420052 
C 88.57437 183.482418 87.302486 182.955586 85.976471 182.955586 
C 84.650455 182.955586 83.378571 183.482418 82.440937 184.420052 
C 81.503302 185.357687 80.976471 186.629571 80.976471 187.955586 
C 80.976471 189.281602 81.503302 190.553485 82.440937 191.49112 
C 83.378571 192.428755 84.650455 192.955586 85.976471 192.955586 
z
" style="fill:none;stroke:#d62728;"/>
   </g>
   <g id="PathCollection_4">
    <path clip-path="url(#p97aea15abd)" d="M 93.635294 192.490956 
C 94.96131 192.490956 96.233193 191.964124 97.170828 191.026489 
C 98.108463 190.088855 98.635294 188.816971 98.635294 187.490956 
C 98.635294 186.16494 98.108463 184.893056 97.170828 183.955422 
C 96.233193 183.017787 94.96131 182.490956 93.635294 182.490956 
C 92.309279 182.490956 91.037395 183.017787 90.09976 183.955422 
C 89.162126 184.893056 88.635294 186.16494 88.635294 187.490956 
C 88.635294 188.816971 89.162126 190.088855 90.09976 191.026489 
C 91.037395 191.964124 92.309279 192.490956 93.635294 192.490956 
z
" style="fill:none;stroke:#d62728;"/>
   </g>
   <g id="PathCollection_5">
    <path clip-path="url(#p97aea15abd)" d="M 101.294118 191.961077 
C 102.620133 191.961077 103.892017 191.434245 104.829652 190.496611 
C 105.767286 189.558976 106.294118 188.287092 106.294118 186.961077 
C 106.294118 185.635061 105.767286 184.363177 104.829652 183.425543 
C 103.892017 182.487908 102.620133 181.961077 101.294118 181.961077 
C 99.968102 181.961077 98.696218 182.487908 97.758584 183.425543 
C 96.820949 184.363177 96.294118 185.635061 96.294118 186.961077 
C 96.294118 188.287092 96.820949 189.558976 97.758584 190.496611 
C 98.696218 191.434245 99.968102 191.961077 101.294118 191.961077 
z
" style="fill:none;stroke:#d62728;"/>
   </g>
   <g id="PathCollection_6">
    <path clip-path="url(#p97aea15abd)" d="M 108.952941 191.359887 
C 110.278957 191.359887 111.550841 190.833055 112.488475 189.895421 
C 113.42611 188.957786 113.952941 187.685902 113.952941 186.359887 
C 113.952941 185.033871 113.42611 183.761987 112.488475 182.824353 
C 111.550841 181.886718 110.278957 181.359887 108.952941 181.359887 
C 107.626926 181.359887 106.355042 181.886718 105.417407 182.824353 
C 104.479773 183.761987 103.952941 185.033871 103.952941 186.359887 
C 103.952941 187.685902 104.479773 188.957786 105.417407 189.895421 
C 106.355042 190.833055 107.626926 191.359887 108.952941 191.359887 
z
" style="fill:none;stroke:#d62728;"/>
   </g>
   <g id="PathCollection_7">
    <path clip-path="url(#p97aea15abd)" d="M 116.611765 190.679907 
C 117.93778 190.679907 119.209664 190.153076 120.147299 189.215441 
C 121.084933 188.277806 121.611765 187.005923 121.611765 185.679907 
C 121.611765 184.353892 121.084933 183.082008 120.147299 182.144373 
C 119.209664 181.206739 117.93778 180.679907 116.611765 180.679907 
C 115.285749 180.679907 114.013865 181.206739 113.076231 182.144373 
C 112.138596 183.082008 111.611765 184.353892 111.611765 185.679907 
C 111.611765 187.005923 112.138596 188.277806 113.076231 189.215441 
C 114.013865 190.153076 115.285749 190.679907 116.611765 190.679907 
z
" style="fill:none;stroke:#d62728;"/>
   </g>
   <g id="PathCollection_8">
    <path clip-path="url(#p97aea15abd)" d="M 124.270588 189.913014 
C 125.596604 189.913014 126.868488 189.386183 127.806122 188.448548 
C 128.743757 187.510914 129.270588 186.23903 129.270588 184.913014 
C 129.270588 183.586999 128.743757 182.315115 127.806122 181.37748 
C 126.868488 180.439846 125.596604 179.913014 124.270588 179.913014 
C 122.944573 179.913014 121.672689 180.439846 120.735054 181.37748 
C 119.79742 182.315115 119.270588 183.586999 119.270588 184.913014 
C 119.270588 186.23903 119.79742 187.510914 120.735054 188.448548 
C 121.672689 189.386183 122.944573 189.913014 124.270588 189.913014 
z
" style="fill:none;stroke:#d62728;"/>
   </g>
   <g id="PathCollection_9">
    <path clip-path="url(#p97aea15abd)" d="M 131.929412 189.051115 
C 133.255427 189.051115 134.527311 188.524283 135.464946 187.586649 
C 136.40258 186.649014 136.929412 185.37713 136.929412 184.051115 
C 136.929412 182.725099 136.40258 181.453216 135.464946 180.515581 
C 134.527311 179.577947 133.255427 179.051115 131.929412 179.051115 
C 130.603396 179.051115 129.331512 179.577947 128.393878 180.515581 
C 127.456243 181.453216 126.929412 182.725099 126.929412 184.051115 
C 126.929412 185.37713 127.456243 186.649014 128.393878 187.586649 
C 129.331512 188.524283 130.603396 189.051115 131.929412 189.051115 
z
" style="fill:none;stroke:#d62728;"/>
   </g>
   <g id="PathCollection_10">
    <path clip-path="url(#p97aea15abd)" d="M 139.588235 188.086734 
C 140.914251 188.086734 142.186135 187.559903 143.123769 186.622268 
C 144.061404 185.684634 144.588235 184.41275 144.588235 183.086734 
C 144.588235 181.760719 144.061404 180.488835 143.123769 179.5512 
C 142.186135 178.613566 140.914251 178.086734 139.588235 178.086734 
C 138.26222 178.086734 136.990336 178.613566 136.052701 179.5512 
C 135.115067 180.488835 134.588235 181.760719 134.588235 183.086734 
C 134.588235 184.41275 135.115067 185.684634 136.052701 186.622268 
C 136.990336 187.559903 138.26222 188.086734 139.588235 188.086734 
z
" style="fill:none;stroke:#d62728;"/>
   </g>
   <g id="PathCollection_11">
    <path clip-path="url(#p97aea15abd)" d="M 147.247059 187.013509 
C 148.573074 187.013509 149.844958 186.486678 150.782593 185.549043 
C 151.720227 184.611409 152.247059 183.339525 152.247059 182.013509 
C 152.247059 180.687494 151.720227 179.41561 150.782593 178.477975 
C 149.844958 177.540341 148.573074 177.013509 147.247059 177.013509 
C 145.921043 177.013509 144.649159 177.540341 143.711525 178.477975 
C 142.77389 179.41561 142.247059 180.687494 142.247059 182.013509 
C 142.247059 183.339525 142.77389 184.611409 143.711525 185.549043 
C 144.649159 186.486678 145.921043 187.013509 147.247059 187.013509 
z
" style="fill:none;stroke:#d62728;"/>
   </g>
   <g id="PathCollection_12">
    <path clip-path="url(#p97aea15abd)" d="M 154.905882 185.826607 
C 156.231898 185.826607 157.503782 185.299775 158.441416 184.36214 
C 159.379051 183.424506 159.905882 182.152622 159.905882 180.826607 
C 159.905882 179.500591 159.379051 178.228707 158.441416 177.291073 
C 157.503782 176.353438 156.231898 175.826607 154.905882 175.826607 
C 153.579867 175.826607 152.307983 176.353438 151.370348 177.291073 
C 150.432714 178.228707 149.905882 179.500591 149.905882 180.826607 
C 149.905882 182.152622 150.432714 183.424506 151.370348 184.36214 
C 152.307983 185.299775 153.579867 185.826607 154.905882 185.826607 
z
" style="fill:none;stroke:#d62728;"/>
   </g>
   <g id="PathCollection_13">
    <path clip-path="url(#p97aea15abd)" d="M 162.564706 184.523054 
C 163.890721 184.523054 165.162605 183.996222 166.10024 183.058588 
C 167.037874 182.120953 167.564706 180.849069 167.564706 179.523054 
C 167.564706 178.197038 167.037874 176.925155 166.10024 175.98752 
C 165.162605 175.049885 163.890721 174.523054 162.564706 174.523054 
C 161.23869 174.523054 159.966807 175.049885 159.029172 175.98752 
C 158.091537 176.925155 157.564706 178.197038 157.564706 179.523054 
C 157.564706 180.849069 158.091537 182.120953 159.029172 183.058588 
C 159.966807 183.996222 161.23869 184.523054 162.564706 184.523054 
z
" style="fill:none;stroke:#d62728;"/>
   </g>
   <g id="PathCollection_14">
    <path clip-path="url(#p97aea15abd)" d="M 170.223529 183.101998 
C 171.549545 183.101998 172.821429 182.575166 173.759063 181.637532 
C 174.696698 180.699897 175.223529 179.428013 175.223529 178.101998 
C 175.223529 176.775982 174.696698 175.504099 173.759063 174.566464 
C 172.821429 173.62883 171.549545 173.101998 170.223529 173.101998 
C 168.897514 173.101998 167.62563 173.62883 166.687996 174.566464 
C 165.750361 175.504099 165.223529 176.775982 165.223529 178.101998 
C 165.223529 179.428013 165.750361 180.699897 166.687996 181.637532 
C 167.62563 182.575166 168.897514 183.101998 170.223529 183.101998 
z
" style="fill:none;stroke:#d62728;"/>
   </g>
   <g id="PathCollection_15">
    <path clip-path="url(#p97aea15abd)" d="M 177.882353 181.564887 
C 179.208368 181.564887 180.480252 181.038055 181.417887 180.100421 
C 182.355521 179.162786 182.882353 177.890902 182.882353 176.564887 
C 182.882353 175.238871 182.355521 173.966987 181.417887 173.029353 
C 180.480252 172.091718 179.208368 171.564887 177.882353 171.564887 
C 176.556337 171.564887 175.284454 172.091718 174.346819 173.029353 
C 173.409184 173.966987 172.882353 175.238871 172.882353 176.564887 
C 172.882353 177.890902 173.409184 179.162786 174.346819 180.100421 
C 175.284454 181.038055 176.556337 181.564887 177.882353 181.564887 
z
" style="fill:none;stroke:#d62728;"/>
   </g>
   <g id="PathCollection_16">
    <path clip-path="url(#p97aea15abd)" d="M 185.541176 179.915587 
C 186.867192 179.915587 188.139076 179.388755 189.07671 178.451121 
C 190.014345 177.513486 190.541176 176.241602 190.541176 174.915587 
C 190.541176 173.589571 190.014345 172.317688 189.07671 171.380053 
C 188.139076 170.442419 186.867192 169.915587 185.541176 169.915587 
C 184.215161 169.915587 182.943277 170.442419 182.005643 171.380053 
C 181.068008 172.317688 180.541176 173.589571 180.541176 174.915587 
C 180.541176 176.241602 181.068008 177.513486 182.005643 178.451121 
C 182.943277 179.388755 184.215161 179.915587 185.541176 179.915587 
z
" style="fill:none;stroke:#d62728;"/>
   </g>
   <g id="PathCollection_17">
    <path clip-path="url(#p97aea15abd)" d="M 193.2 178.16043 
C 194.526016 178.16043 195.797899 177.633598 196.735534 176.695964 
C 197.673168 175.758329 198.2 174.486445 198.2 173.16043 
C 198.2 171.834414 197.673168 170.56253 196.735534 169.624896 
C 195.797899 168.687261 194.526016 168.16043 193.2 168.16043 
C 191.873985 168.16043 190.602101 168.687261 189.664466 169.624896 
C 188.726832 170.56253 188.2 171.834414 188.2 173.16043 
C 188.2 174.486445 188.726832 175.758329 189.664466 176.695964 
C 190.602101 177.633598 191.873985 178.16043 193.2 178.16043 
z
" style="fill:none;stroke:#d62728;"/>
   </g>
   <g id="PathCollection_18">
    <path clip-path="url(#p97aea15abd)" d="M 200.858824 176.308199 
C 202.184839 176.308199 203.456723 175.781367 204.394357 174.843733 
C 205.331992 173.906098 205.858824 172.634214 205.858824 171.308199 
C 205.858824 169.982183 205.331992 168.710299 204.394357 167.772665 
C 203.456723 166.83503 202.184839 166.308199 200.858824 166.308199 
C 199.532808 166.308199 198.260924 166.83503 197.32329 167.772665 
C 196.385655 168.710299 195.858824 169.982183 195.858824 171.308199 
C 195.858824 172.634214 196.385655 173.906098 197.32329 174.843733 
C 198.260924 175.781367 199.532808 176.308199 200.858824 176.308199 
z
" style="fill:none;stroke:#d62728;"/>
   </g>
   <g id="PathCollection_19">
    <path clip-path="url(#p97aea15abd)" d="M 208.517647 174.370058 
C 209.843663 174.370058 211.115546 173.843227 212.053181 172.905592 
C 212.990816 171.967957 213.517647 170.696074 213.517647 169.370058 
C 213.517647 168.044043 212.990816 166.772159 212.053181 165.834524 
C 211.115546 164.89689 209.843663 164.370058 208.517647 164.370058 
C 207.191632 164.370058 205.919748 164.89689 204.982113 165.834524 
C 204.044479 166.772159 203.517647 168.044043 203.517647 169.370058 
C 203.517647 170.696074 204.044479 171.967957 204.982113 172.905592 
C 205.919748 173.843227 207.191632 174.370058 208.517647 174.370058 
z
" style="fill:none;stroke:#d62728;"/>
   </g>
   <g id="PathCollection_20">
    <path clip-path="url(#p97aea15abd)" d="M 216.176471 172.359424 
C 217.502486 172.359424 218.77437 171.832592 219.712004 170.894958 
C 220.649639 169.957323 221.176471 168.685439 221.176471 167.359424 
C 221.176471 166.033408 220.649639 164.761525 219.712004 163.82389 
C 218.77437 162.886255 217.502486 162.359424 216.176471 162.359424 
C 214.850455 162.359424 213.578571 162.886255 212.640937 163.82389 
C 211.703302 164.761525 211.176471 166.033408 211.176471 167.359424 
C 211.176471 168.685439 211.703302 169.957323 212.640937 170.894958 
C 213.578571 171.832592 214.850455 172.359424 216.176471 172.359424 
z
" style="fill:none;stroke:#d62728;"/>
   </g>
   <g id="PathCollection_21">
    <path clip-path="url(#p97aea15abd)" d="M 223.835294 170.291787 
C 225.16131 170.291787 226.433193 169.764956 227.370828 168.827321 
C 228.308463 167.889686 228.835294 166.617803 228.835294 165.291787 
C 228.835294 163.965772 228.308463 162.693888 227.370828 161.756253 
C 226.433193 160.818619 225.16131 160.291787 223.835294 160.291787 
C 222.509279 160.291787 221.237395 160.818619 220.29976 161.756253 
C 219.362126 162.693888 218.835294 163.965772 218.835294 165.291787 
C 218.835294 166.617803 219.362126 167.889686 220.29976 168.827321 
C 221.237395 169.764956 222.509279 170.291787 223.835294 170.291787 
z
" style="fill:none;stroke:#d62728;"/>
   </g>
   <g id="PathCollection_22">
    <path clip-path="url(#p97aea15abd)" d="M 231.494118 168.184486 
C 232.820133 168.184486 234.092017 167.657655 235.029652 166.72002 
C 235.967286 165.782386 236.494118 164.510502 236.494118 163.184486 
C 236.494118 161.858471 235.967286 160.586587 235.029652 159.648952 
C 234.092017 158.711318 232.820133 158.184486 231.494118 158.184486 
C 230.168102 158.184486 228.896218 158.711318 227.958584 159.648952 
C 227.020949 160.586587 226.494118 161.858471 226.494118 163.184486 
C 226.494118 164.510502 227.020949 165.782386 227.958584 166.72002 
C 228.896218 167.657655 230.168102 168.184486 231.494118 168.184486 
z
" style="fill:none;stroke:#d62728;"/>
   </g>
   <g id="PathCollection_23">
    <path clip-path="url(#p97aea15abd)" d="M 239.152941 166.056438 
C 240.478957 166.056438 241.750841 165.529606 242.688475 164.591972 
C 243.62611 163.654337 244.152941 162.382453 244.152941 161.056438 
C 244.152941 159.730422 243.62611 158.458538 242.688475 157.520904 
C 241.750841 156.583269 240.478957 156.056438 239.152941 156.056438 
C 237.826926 156.056438 236.555042 156.583269 235.617407 157.520904 
C 234.679773 158.458538 234.152941 159.730422 234.152941 161.056438 
C 234.152941 162.382453 234.679773 163.654337 235.617407 164.591972 
C 236.555042 165.529606 237.826926 166.056438 239.152941 166.056438 
z
" style="fill:none;stroke:#d62728;"/>
   </g>
   <g id="PathCollection_24">
    <path clip-path="url(#p97aea15abd)" d="M 246.811765 163.927824 
C 248.13778 163.927824 249.409664 163.400992 250.347299 162.463358 
C 251.284933 161.525723 251.811765 160.253839 251.811765 158.927824 
C 251.811765 157.601808 251.284933 156.329924 250.347299 155.39229 
C 249.409664 154.454655 248.13778 153.927824 246.811765 153.927824 
C 245.485749 153.927824 244.213865 154.454655 243.276231 155.39229 
C 242.338596 156.329924 241.811765 157.601808 241.811765 158.927824 
C 241.811765 160.253839 242.338596 161.525723 243.276231 162.463358 
C 244.213865 163.400992 245.485749 163.927824 246.811765 163.927824 
z
" style="fill:none;stroke:#d62728;"/>
   </g>
   <g id="PathCollection_25">
    <path clip-path="url(#p97aea15abd)" d="M 254.470588 161.819744 
C 255.796604 161.819744 257.068488 161.292913 258.006122 160.355278 
C 258.943757 159.417644 259.470588 158.14576 259.470588 156.819744 
C 259.470588 155.493729 258.943757 154.221845 258.006122 153.28421 
C 257.068488 152.346576 255.796604 151.819744 254.470588 151.819744 
C 253.144573 151.819744 251.872689 152.346576 250.935054 153.28421 
C 249.99742 154.221845 249.470588 155.493729 249.470588 156.819744 
C 249.470588 158.14576 249.99742 159.417644 250.935054 160.355278 
C 251.872689 161.292913 253.144573 161.819744 254.470588 161.819744 
z
" style="fill:none;stroke:#d62728;"/>
   </g>
   <g id="PathCollection_26">
    <path clip-path="url(#p97aea15abd)" d="M 262.129412 159.753837 
C 263.455427 159.753837 264.727311 159.227005 265.664946 158.289371 
C 266.60258 157.351736 267.129412 156.079852 267.129412 154.753837 
C 267.129412 153.427821 266.60258 152.155938 265.664946 151.218303 
C 264.727311 150.280669 263.455427 149.753837 262.129412 149.753837 
C 260.803396 149.753837 259.531512 150.280669 258.593878 151.218303 
C 257.656243 152.155938 257.129412 153.427821 257.129412 154.753837 
C 257.129412 156.079852 257.656243 157.351736 258.593878 158.289371 
C 259.531512 159.227005 260.803396 159.753837 262.129412 159.753837 
z
" style="fill:none;stroke:#d62728;"/>
   </g>
   <g id="PathCollection_27">
    <path clip-path="url(#p97aea15abd)" d="M 269.788235 157.751864 
C 271.114251 157.751864 272.386135 157.225032 273.323769 156.287398 
C 274.261404 155.349763 274.788235 154.077879 274.788235 152.751864 
C 274.788235 151.425848 274.261404 150.153965 273.323769 149.21633 
C 272.386135 148.278696 271.114251 147.751864 269.788235 147.751864 
C 268.46222 147.751864 267.190336 148.278696 266.252701 149.21633 
C 265.315067 150.153965 264.788235 151.425848 264.788235 152.751864 
C 264.788235 154.077879 265.315067 155.349763 266.252701 156.287398 
C 267.190336 157.225032 268.46222 157.751864 269.788235 157.751864 
z
" style="fill:none;stroke:#d62728;"/>
   </g>
   <g id="PathCollection_28">
    <path clip-path="url(#p97aea15abd)" d="M 277.447059 155.835276 
C 278.773074 155.835276 280.044958 155.308445 280.982593 154.37081 
C 281.920227 153.433175 282.447059 152.161292 282.447059 150.835276 
C 282.447059 149.509261 281.920227 148.237377 280.982593 147.299742 
C 280.044958 146.362108 278.773074 145.835276 277.447059 145.835276 
C 276.121043 145.835276 274.849159 146.362108 273.911525 147.299742 
C 272.97389 148.237377 272.447059 149.509261 272.447059 150.835276 
C 272.447059 152.161292 272.97389 153.433175 273.911525 154.37081 
C 274.849159 155.308445 276.121043 155.835276 277.447059 155.835276 
z
" style="fill:none;stroke:#d62728;"/>
   </g>
   <g id="PathCollection_29">
    <path clip-path="url(#p97aea15abd)" d="M 285.105882 154.024752 
C 286.431898 154.024752 287.703782 153.497921 288.641416 152.560286 
C 289.579051 151.622652 290.105882 150.350768 290.105882 149.024752 
C 290.105882 147.698737 289.579051 146.426853 288.641416 145.489219 
C 287.703782 144.551584 286.431898 144.024752 285.105882 144.024752 
C 283.779867 144.024752 282.507983 144.551584 281.570348 145.489219 
C 280.632714 146.426853 280.105882 147.698737 280.105882 149.024752 
C 280.105882 150.350768 280.632714 151.622652 281.570348 152.560286 
C 282.507983 153.497921 283.779867 154.024752 285.105882 154.024752 
z
" style="fill:none;stroke:#d62728;"/>
   </g>
   <g id="PathCollection_30">
    <path clip-path="url(#p97aea15abd)" d="M 292.764706 152.33972 
C 294.090721 152.33972 295.362605 151.812889 296.30024 150.875254 
C 297.237874 149.93762 297.764706 148.665736 297.764706 147.33972 
C 297.764706 146.013705 297.237874 144.741821 296.30024 143.804186 
C 295.362605 142.866552 294.090721 142.33972 292.764706 142.33972 
C 291.43869 142.33972 290.166807 142.866552 289.229172 143.804186 
C 288.291537 144.741821 287.764706 146.013705 287.764706 147.33972 
C 287.764706 148.665736 288.291537 149.93762 289.229172 150.875254 
C 290.166807 151.812889 291.43869 152.33972 292.764706 152.33972 
z
" style="fill:none;stroke:#d62728;"/>
   </g>
   <g id="PathCollection_31">
    <path clip-path="url(#p97aea15abd)" d="M 300.423529 150.797863 
C 301.749545 150.797863 303.021429 150.271032 303.959063 149.333397 
C 304.896698 148.395763 305.423529 147.123879 305.423529 145.797863 
C 305.423529 144.471848 304.896698 143.199964 303.959063 142.262329 
C 303.021429 141.324695 301.749545 140.797863 300.423529 140.797863 
C 299.097514 140.797863 297.82563 141.324695 296.887996 142.262329 
C 295.950361 143.199964 295.423529 144.471848 295.423529 145.797863 
C 295.423529 147.123879 295.950361 148.395763 296.887996 149.333397 
C 297.82563 150.271032 299.097514 150.797863 300.423529 150.797863 
z
" style="fill:none;stroke:#d62728;"/>
   </g>
   <g id="PathCollection_32">
    <path clip-path="url(#p97aea15abd)" d="M 308.082353 149.414614 
C 309.408368 149.414614 310.680252 148.887782 311.617887 147.950148 
C 312.555521 147.012513 313.082353 145.740629 313.082353 144.414614 
C 313.082353 143.088598 312.555521 141.816715 311.617887 140.87908 
C 310.680252 139.941445 309.408368 139.414614 308.082353 139.414614 
C 306.756337 139.414614 305.484454 139.941445 304.546819 140.87908 
C 303.609184 141.816715 303.082353 143.088598 303.082353 144.414614 
C 303.082353 145.740629 303.609184 147.012513 304.546819 147.950148 
C 305.484454 148.887782 306.756337 149.414614 308.082353 149.414614 
z
" style="fill:none;stroke:#d62728;"/>
   </g>
   <g id="PathCollection_33">
    <path clip-path="url(#p97aea15abd)" d="M 315.741176 148.202639 
C 317.067192 148.202639 318.339076 147.675807 319.27671 146.738173 
C 320.214345 145.800538 320.741176 144.528654 320.741176 143.202639 
C 320.741176 141.876623 320.214345 140.60474 319.27671 139.667105 
C 318.339076 138.72947 317.067192 138.202639 315.741176 138.202639 
C 314.415161 138.202639 313.143277 138.72947 312.205643 139.667105 
C 311.268008 140.60474 310.741176 141.876623 310.741176 143.202639 
C 310.741176 144.528654 311.268008 145.800538 312.205643 146.738173 
C 313.143277 147.675807 314.415161 148.202639 315.741176 148.202639 
z
" style="fill:none;stroke:#d62728;"/>
   </g>
   <g id="PathCollection_34">
    <path clip-path="url(#p97aea15abd)" d="M 323.4 147.171322 
C 324.726016 147.171322 325.997899 146.644491 326.935534 145.706856 
C 327.873168 144.769222 328.4 143.497338 328.4 142.171322 
C 328.4 140.845307 327.873168 139.573423 326.935534 138.635788 
C 325.997899 137.698154 324.726016 137.171322 323.4 137.171322 
C 322.073985 137.171322 320.802101 137.698154 319.864466 138.635788 
C 318.926832 139.573423 318.4 140.845307 318.4 142.171322 
C 318.4 143.497338 318.926832 144.769222 319.864466 145.706856 
C 320.802101 146.644491 322.073985 147.171322 323.4 147.171322 
z
" style="fill:none;stroke:#d62728;"/>
   </g>
   <g id="PathCollection_35">
    <path clip-path="url(#p97aea15abd)" d="M 331.058824 146.326245 
C 332.384839 146.326245 333.656723 145.799414 334.594357 144.861779 
C 335.531992 143.924145 336.058824 142.652261 336.058824 141.326245 
C 336.058824 140.00023 335.531992 138.728346 334.594357 137.790711 
C 333.656723 136.853077 332.384839 136.326245 331.058824 136.326245 
C 329.732808 136.326245 328.460924 136.853077 327.52329 137.790711 
C 326.585655 138.728346 326.058824 140.00023 326.058824 141.326245 
C 326.058824 142.652261 326.585655 143.924145 327.52329 144.861779 
C 328.460924 145.799414 329.732808 146.326245 331.058824 146.326245 
z
" style="fill:none;stroke:#d62728;"/>
   </g>
   <g id="PathCollection_36">
    <path clip-path="url(#p97aea15abd)" d="M 338.717647 145.668669 
C 340.043663 145.668669 341.315546 145.141837 342.253181 144.204203 
C 343.190816 143.266568 343.717647 141.994684 343.717647 140.668669 
C 343.717647 139.342653 343.190816 138.070769 342.253181 137.133135 
C 341.315546 136.1955 340.043663 135.668669 338.717647 135.668669 
C 337.391632 135.668669 336.119748 136.1955 335.182113 137.133135 
C 334.244479 138.070769 333.717647 139.342653 333.717647 140.668669 
C 333.717647 141.994684 334.244479 143.266568 335.182113 144.204203 
C 336.119748 145.141837 337.391632 145.668669 338.717647 145.668669 
z
" style="fill:none;stroke:#d62728;"/>
   </g>
   <g id="PathCollection_37">
    <path clip-path="url(#p97aea15abd)" d="M 346.376471 145.195024 
C 347.702486 145.195024 348.97437 144.668192 349.912004 143.730558 
C 350.849639 142.792923 351.376471 141.521039 351.376471 140.195024 
C 351.376471 138.869008 350.849639 137.597124 349.912004 136.65949 
C 348.97437 135.721855 347.702486 135.195024 346.376471 135.195024 
C 345.050455 135.195024 343.778571 135.721855 342.840937 136.65949 
C 341.903302 137.597124 341.376471 138.869008 341.376471 140.195024 
C 341.376471 141.521039 341.903302 142.792923 342.840937 143.730558 
C 343.778571 144.668192 345.050455 145.195024 346.376471 145.195024 
z
" style="fill:none;stroke:#d62728;"/>
   </g>
   <g id="PathCollection_38">
    <path clip-path="url(#p97aea15abd)" d="M 354.035294 144.89641 
C 355.36131 144.89641 356.633193 144.369579 357.570828 143.431944 
C 358.508463 142.49431 359.035294 141.222426 359.035294 139.89641 
C 359.035294 138.570395 358.508463 137.298511 357.570828 136.360877 
C 356.633193 135.423242 355.36131 134.89641 354.035294 134.89641 
C 352.709279 134.89641 351.437395 135.423242 350.49976 136.360877 
C 349.562126 137.298511 349.035294 138.570395 349.035294 139.89641 
C 349.035294 141.222426 349.562126 142.49431 350.49976 143.431944 
C 351.437395 144.369579 352.709279 144.89641 354.035294 144.89641 
z
" style="fill:none;stroke:#d62728;"/>
   </g>
   <g id="PathCollection_39">
    <path clip-path="url(#p97aea15abd)" d="M 361.694118 144.758111 
C 363.020133 144.758111 364.292017 144.231279 365.229652 143.293645 
C 366.167286 142.35601 366.694118 141.084126 366.694118 139.758111 
C 366.694118 138.432095 366.167286 137.160211 365.229652 136.222577 
C 364.292017 135.284942 363.020133 134.758111 361.694118 134.758111 
C 360.368102 134.758111 359.096218 135.284942 358.158584 136.222577 
C 357.220949 137.160211 356.694118 138.432095 356.694118 139.758111 
C 356.694118 141.084126 357.220949 142.35601 358.158584 143.293645 
C 359.096218 144.231279 360.368102 144.758111 361.694118 144.758111 
z
" style="fill:none;stroke:#d62728;"/>
   </g>
   <g id="PathCollection_40">
    <path clip-path="url(#p97aea15abd)" d="M 369.352941 144.75912 
C 370.678957 144.75912 371.950841 144.232288 372.888475 143.294654 
C 373.82611 142.357019 374.352941 141.085135 374.352941 139.75912 
C 374.352941 138.433104 373.82611 137.161221 372.888475 136.223586 
C 371.950841 135.285951 370.678957 134.75912 369.352941 134.75912 
C 368.026926 134.75912 366.755042 135.285951 365.817407 136.223586 
C 364.879773 137.161221 364.352941 138.433104 364.352941 139.75912 
C 364.352941 141.085135 364.879773 142.357019 365.817407 143.294654 
C 366.755042 144.232288 368.026926 144.75912 369.352941 144.75912 
z
" style="fill:none;stroke:#d62728;"/>
   </g>
   <g id="PathCollection_41">
    <path clip-path="url(#p97aea15abd)" d="M 377.011765 144.871695 
C 378.33778 144.871695 379.609664 144.344863 380.547299 143.407229 
C 381.484933 142.469594 382.011765 141.197711 382.011765 139.871695 
C 382.011765 138.54568 381.484933 137.273796 380.547299 136.336161 
C 379.609664 135.398527 378.33778 134.871695 377.011765 134.871695 
C 375.685749 134.871695 374.413865 135.398527 373.476231 136.336161 
C 372.538596 137.273796 372.011765 138.54568 372.011765 139.871695 
C 372.011765 141.197711 372.538596 142.469594 373.476231 143.407229 
C 374.413865 144.344863 375.685749 144.871695 377.011765 144.871695 
z
" style="fill:none;stroke:#d62728;"/>
   </g>
   <g id="PathCollection_42">
    <path clip-path="url(#p97aea15abd)" d="M 384.670588 145.060932 
C 385.996604 145.060932 387.268488 144.534101 388.206122 143.596466 
C 389.143757 142.658831 389.670588 141.386948 389.670588 140.060932 
C 389.670588 138.734917 389.143757 137.463033 388.206122 136.525398 
C 387.268488 135.587764 385.996604 135.060932 384.670588 135.060932 
C 383.344573 135.060932 382.072689 135.587764 381.135054 136.525398 
C 380.19742 137.463033 379.670588 138.734917 379.670588 140.060932 
C 379.670588 141.386948 380.19742 142.658831 381.135054 143.596466 
C 382.072689 144.534101 383.344573 145.060932 384.670588 145.060932 
z
" style="fill:none;stroke:#d62728;"/>
   </g>
   <g id="PathCollection_43">
    <path clip-path="url(#p97aea15abd)" d="M 392.329412 145.284368 
C 393.655427 145.284368 394.927311 144.757536 395.864946 143.819902 
C 396.80258 142.882267 397.329412 141.610383 397.329412 140.284368 
C 397.329412 138.958352 396.80258 137.686469 395.864946 136.748834 
C 394.927311 135.8112 393.655427 135.284368 392.329412 135.284368 
C 391.003396 135.284368 389.731512 135.8112 388.793878 136.748834 
C 387.856243 137.686469 387.329412 138.958352 387.329412 140.284368 
C 387.329412 141.610383 387.856243 142.882267 388.793878 143.819902 
C 389.731512 144.757536 391.003396 145.284368 392.329412 145.284368 
z
" style="fill:none;stroke:#d62728;"/>
   </g>
   <g id="PathCollection_44">
    <path clip-path="url(#p97aea15abd)" d="M 399.988235 145.491616 
C 401.314251 145.491616 402.586135 144.964784 403.523769 144.027149 
C 404.461404 143.089515 404.988235 141.817631 404.988235 140.491616 
C 404.988235 139.1656 404.461404 137.893716 403.523769 136.956082 
C 402.586135 136.018447 401.314251 135.491616 399.988235 135.491616 
C 398.66222 135.491616 397.390336 136.018447 396.452701 136.956082 
C 395.515067 137.893716 394.988235 139.1656 394.988235 140.491616 
C 394.988235 141.817631 395.515067 143.089515 396.452701 144.027149 
C 397.390336 144.964784 398.66222 145.491616 399.988235 145.491616 
z
" style="fill:none;stroke:#d62728;"/>
   </g>
   <g id="PathCollection_45">
    <path clip-path="url(#p97aea15abd)" d="M 407.647059 145.624034 
C 408.973074 145.624034 410.244958 145.097202 411.182593 144.159568 
C 412.120227 143.221933 412.647059 141.950049 412.647059 140.624034 
C 412.647059 139.298018 412.120227 138.026134 411.182593 137.0885 
C 410.244958 136.150865 408.973074 135.624034 407.647059 135.624034 
C 406.321043 135.624034 405.049159 136.150865 404.111525 137.0885 
C 403.17389 138.026134 402.647059 139.298018 402.647059 140.624034 
C 402.647059 141.950049 403.17389 143.221933 404.111525 144.159568 
C 405.049159 145.097202 406.321043 145.624034 407.647059 145.624034 
z
" style="fill:none;stroke:#d62728;"/>
   </g>
   <g id="PathCollection_46">
    <path clip-path="url(#p97aea15abd)" d="M 415.305882 145.614435 
C 416.631898 145.614435 417.903782 145.087603 418.841416 144.149969 
C 419.779051 143.212334 420.305882 141.94045 420.305882 140.614435 
C 420.305882 139.288419 419.779051 138.016535 418.841416 137.078901 
C 417.903782 136.141266 416.631898 135.614435 415.305882 135.614435 
C 413.979867 135.614435 412.707983 136.141266 411.770348 137.078901 
C 410.832714 138.016535 410.305882 139.288419 410.305882 140.614435 
C 410.305882 141.94045 410.832714 143.212334 411.770348 144.149969 
C 412.707983 145.087603 413.979867 145.614435 415.305882 145.614435 
z
" style="fill:none;stroke:#d62728;"/>
   </g>
   <g id="PathCollection_47">
    <path clip-path="url(#p97aea15abd)" d="M 422.964706 145.386837 
C 424.290721 145.386837 425.562605 144.860005 426.50024 143.922371 
C 427.437874 142.984736 427.964706 141.712852 427.964706 140.386837 
C 427.964706 139.060821 427.437874 137.788937 426.50024 136.851303 
C 425.562605 135.913668 424.290721 135.386837 422.964706 135.386837 
C 421.63869 135.386837 420.366807 135.913668 419.429172 136.851303 
C 418.491537 137.788937 417.964706 139.060821 417.964706 140.386837 
C 417.964706 141.712852 418.491537 142.984736 419.429172 143.922371 
C 420.366807 144.860005 421.63869 145.386837 422.964706 145.386837 
z
" style="fill:none;stroke:#d62728;"/>
   </g>
   <g id="PathCollection_48">
    <path clip-path="url(#p97aea15abd)" d="M 430.623529 144.85626 
C 431.949545 144.85626 433.221429 144.329428 434.159063 143.391794 
C 435.096698 142.454159 435.623529 141.182275 435.623529 139.85626 
C 435.623529 138.530244 435.096698 137.25836 434.159063 136.320726 
C 433.221429 135.383091 431.949545 134.85626 430.623529 134.85626 
C 429.297514 134.85626 428.02563 135.383091 427.087996 136.320726 
C 426.150361 137.25836 425.623529 138.530244 425.623529 139.85626 
C 425.623529 141.182275 426.150361 142.454159 427.087996 143.391794 
C 428.02563 144.329428 429.297514 144.85626 430.623529 144.85626 
z
" style="fill:none;stroke:#d62728;"/>
   </g>
   <g id="PathCollection_49">
    <path clip-path="url(#p97aea15abd)" d="M 438.282353 143.928572 
C 439.608368 143.928572 440.880252 143.401741 441.817887 142.464106 
C 442.755521 141.526471 443.282353 140.254588 443.282353 138.928572 
C 443.282353 137.602557 442.755521 136.330673 441.817887 135.393038 
C 440.880252 134.455404 439.608368 133.928572 438.282353 133.928572 
C 436.956337 133.928572 435.684454 134.455404 434.746819 135.393038 
C 433.809184 136.330673 433.282353 137.602557 433.282353 138.928572 
C 433.282353 140.254588 433.809184 141.526471 434.746819 142.464106 
C 435.684454 143.401741 436.956337 143.928572 438.282353 143.928572 
z
" style="fill:none;stroke:#d62728;"/>
   </g>
   <g id="PathCollection_50">
    <path clip-path="url(#p97aea15abd)" d="M 445.941176 142.50039 
C 447.267192 142.50039 448.539076 141.973559 449.47671 141.035924 
C 450.414345 140.09829 450.941176 138.826406 450.941176 137.50039 
C 450.941176 136.174375 450.414345 134.902491 449.47671 133.964856 
C 448.539076 133.027222 447.267192 132.50039 445.941176 132.50039 
C 444.615161 132.50039 443.343277 133.027222 442.405643 133.964856 
C 441.468008 134.902491 440.941176 136.174375 440.941176 137.50039 
C 440.941176 138.826406 441.468008 140.09829 442.405643 141.035924 
C 443.343277 141.973559 444.615161 142.50039 445.941176 142.50039 
z
" style="fill:none;stroke:#d62728;"/>
   </g>
   <g id="PathCollection_51">
    <path clip-path="url(#p97aea15abd)" d="M 453.6 140.459035 
C 454.926016 140.459035 456.197899 139.932204 457.135534 138.994569 
C 458.073168 138.056935 458.6 136.785051 458.6 135.459035 
C 458.6 134.13302 458.073168 132.861136 457.135534 131.923501 
C 456.197899 130.985867 454.926016 130.459035 453.6 130.459035 
C 452.273985 130.459035 451.002101 130.985867 450.064466 131.923501 
C 449.126832 132.861136 448.6 134.13302 448.6 135.459035 
C 448.6 136.785051 449.126832 138.056935 450.064466 138.994569 
C 451.002101 139.932204 452.273985 140.459035 453.6 140.459035 
z
" style="fill:none;stroke:#d62728;"/>
   </g>
   <g id="PathCollection_52">
    <defs>
     <path d="M 0 5 
C 1.326016 5 2.597899 4.473168 3.535534 3.535534 
C 4.473168 2.597899 5 1.326016 5 0 
C 5 -1.326016 4.473168 -2.597899 3.535534 -3.535534 
C 2.597899 -4.473168 1.326016 -5 0 -5 
C -1.326016 -5 -2.597899 -4.473168 -3.535534 -3.535534 
C -4.473168 -2.597899 -5 -1.326016 -5 0 
C -5 1.326016 -4.473168 2.597899 -3.535534 3.535534 
C -2.597899 4.473168 -1.326016 5 0 5 
z
" id="m6f94800156" style="stroke:#d62728;"/>
    </defs>
    <g clip-path="url(#p97aea15abd)">
     <use style="fill:#d62728;stroke:#d62728;" x="70.658824" xlink:href="#m6f94800156" y="188.704825"/>
    </g>
   </g>
   <g id="PathCollection_53">
    <g clip-path="url(#p97aea15abd)">
     <use style="fill:#d62728;stroke:#d62728;" x="78.317647" xlink:href="#m6f94800156" y="188.803876"/>
    </g>
   </g>
   <g id="PathCollection_54">
    <g clip-path="url(#p97aea15abd)">
     <use style="fill:#d62728;stroke:#d62728;" x="85.976471" xlink:href="#m6f94800156" y="188.608702"/>
    </g>
   </g>
   <g id="PathCollection_55">
    <g clip-path="url(#p97aea15abd)">
     <use style="fill:#d62728;stroke:#d62728;" x="93.635294" xlink:href="#m6f94800156" y="188.177488"/>
    </g>
   </g>
   <g id="PathCollection_56">
    <g clip-path="url(#p97aea15abd)">
     <use style="fill:#d62728;stroke:#d62728;" x="101.294118" xlink:href="#m6f94800156" y="187.557383"/>
    </g>
   </g>
   <g id="PathCollection_57">
    <g clip-path="url(#p97aea15abd)">
     <use style="fill:#d62728;stroke:#d62728;" x="108.952941" xlink:href="#m6f94800156" y="186.785679"/>
    </g>
   </g>
   <g id="PathCollection_58">
    <g clip-path="url(#p97aea15abd)">
     <use style="fill:#d62728;stroke:#d62728;" x="116.611765" xlink:href="#m6f94800156" y="185.890874"/>
    </g>
   </g>
   <g id="PathCollection_59">
    <g clip-path="url(#p97aea15abd)">
     <use style="fill:#d62728;stroke:#d62728;" x="124.270588" xlink:href="#m6f94800156" y="184.893731"/>
    </g>
   </g>
   <g id="PathCollection_60">
    <g clip-path="url(#p97aea15abd)">
     <use style="fill:#d62728;stroke:#d62728;" x="131.929412" xlink:href="#m6f94800156" y="183.808305"/>
    </g>
   </g>
   <g id="PathCollection_61">
    <g clip-path="url(#p97aea15abd)">
     <use style="fill:#d62728;stroke:#d62728;" x="139.588235" xlink:href="#m6f94800156" y="182.642953"/>
    </g>
   </g>
   <g id="PathCollection_62">
    <g clip-path="url(#p97aea15abd)">
     <use style="fill:#d62728;stroke:#d62728;" x="147.247059" xlink:href="#m6f94800156" y="181.401309"/>
    </g>
   </g>
   <g id="PathCollection_63">
    <g clip-path="url(#p97aea15abd)">
     <use style="fill:#d62728;stroke:#d62728;" x="154.905882" xlink:href="#m6f94800156" y="180.083229"/>
    </g>
   </g>
   <g id="PathCollection_64">
    <g clip-path="url(#p97aea15abd)">
     <use style="fill:#d62728;stroke:#d62728;" x="162.564706" xlink:href="#m6f94800156" y="178.685698"/>
    </g>
   </g>
   <g id="PathCollection_65">
    <g clip-path="url(#p97aea15abd)">
     <use style="fill:#d62728;stroke:#d62728;" x="170.223529" xlink:href="#m6f94800156" y="177.203698"/>
    </g>
   </g>
   <g id="PathCollection_66">
    <g clip-path="url(#p97aea15abd)">
     <use style="fill:#d62728;stroke:#d62728;" x="177.882353" xlink:href="#m6f94800156" y="175.631016"/>
    </g>
   </g>
   <g id="PathCollection_67">
    <g clip-path="url(#p97aea15abd)">
     <use style="fill:#d62728;stroke:#d62728;" x="185.541176" xlink:href="#m6f94800156" y="173.961025"/>
    </g>
   </g>
   <g id="PathCollection_68">
    <g clip-path="url(#p97aea15abd)">
     <use style="fill:#d62728;stroke:#d62728;" x="193.2" xlink:href="#m6f94800156" y="172.187388"/>
    </g>
   </g>
   <g id="PathCollection_69">
    <g clip-path="url(#p97aea15abd)">
     <use style="fill:#d62728;stroke:#d62728;" x="200.858824" xlink:href="#m6f94800156" y="170.30472"/>
    </g>
   </g>
   <g id="PathCollection_70">
    <g clip-path="url(#p97aea15abd)">
     <use style="fill:#d62728;stroke:#d62728;" x="208.517647" xlink:href="#m6f94800156" y="168.309174"/>
    </g>
   </g>
   <g id="PathCollection_71">
    <g clip-path="url(#p97aea15abd)">
     <use style="fill:#d62728;stroke:#d62728;" x="216.176471" xlink:href="#m6f94800156" y="166.198972"/>
    </g>
   </g>
   <g id="PathCollection_72">
    <g clip-path="url(#p97aea15abd)">
     <use style="fill:#d62728;stroke:#d62728;" x="223.835294" xlink:href="#m6f94800156" y="163.974853"/>
    </g>
   </g>
   <g id="PathCollection_73">
    <g clip-path="url(#p97aea15abd)">
     <use style="fill:#d62728;stroke:#d62728;" x="231.494118" xlink:href="#m6f94800156" y="161.640458"/>
    </g>
   </g>
   <g id="PathCollection_74">
    <g clip-path="url(#p97aea15abd)">
     <use style="fill:#d62728;stroke:#d62728;" x="239.152941" xlink:href="#m6f94800156" y="159.202622"/>
    </g>
   </g>
   <g id="PathCollection_75">
    <g clip-path="url(#p97aea15abd)">
     <use style="fill:#d62728;stroke:#d62728;" x="246.811765" xlink:href="#m6f94800156" y="156.671594"/>
    </g>
   </g>
   <g id="PathCollection_76">
    <g clip-path="url(#p97aea15abd)">
     <use style="fill:#d62728;stroke:#d62728;" x="254.470588" xlink:href="#m6f94800156" y="154.061161"/>
    </g>
   </g>
   <g id="PathCollection_77">
    <g clip-path="url(#p97aea15abd)">
     <use style="fill:#d62728;stroke:#d62728;" x="262.129412" xlink:href="#m6f94800156" y="151.388683"/>
    </g>
   </g>
   <g id="PathCollection_78">
    <g clip-path="url(#p97aea15abd)">
     <use style="fill:#d62728;stroke:#d62728;" x="269.788235" xlink:href="#m6f94800156" y="148.675032"/>
    </g>
   </g>
   <g id="PathCollection_79">
    <g clip-path="url(#p97aea15abd)">
     <use style="fill:#d62728;stroke:#d62728;" x="277.447059" xlink:href="#m6f94800156" y="145.944426"/>
    </g>
   </g>
   <g id="PathCollection_80">
    <g clip-path="url(#p97aea15abd)">
     <use style="fill:#d62728;stroke:#d62728;" x="285.105882" xlink:href="#m6f94800156" y="143.224166"/>
    </g>
   </g>
   <g id="PathCollection_81">
    <g clip-path="url(#p97aea15abd)">
     <use style="fill:#d62728;stroke:#d62728;" x="292.764706" xlink:href="#m6f94800156" y="140.544256"/>
    </g>
   </g>
   <g id="PathCollection_82">
    <g clip-path="url(#p97aea15abd)">
     <use style="fill:#d62728;stroke:#d62728;" x="300.423529" xlink:href="#m6f94800156" y="137.936914"/>
    </g>
   </g>
   <g id="PathCollection_83">
    <g clip-path="url(#p97aea15abd)">
     <use style="fill:#d62728;stroke:#d62728;" x="308.082353" xlink:href="#m6f94800156" y="135.435965"/>
    </g>
   </g>
   <g id="PathCollection_84">
    <g clip-path="url(#p97aea15abd)">
     <use style="fill:#d62728;stroke:#d62728;" x="315.741176" xlink:href="#m6f94800156" y="133.076109"/>
    </g>
   </g>
   <g id="PathCollection_85">
    <g clip-path="url(#p97aea15abd)">
     <use style="fill:#d62728;stroke:#d62728;" x="323.4" xlink:href="#m6f94800156" y="130.892072"/>
    </g>
   </g>
   <g id="PathCollection_86">
    <g clip-path="url(#p97aea15abd)">
     <use style="fill:#d62728;stroke:#d62728;" x="331.058824" xlink:href="#m6f94800156" y="128.917612"/>
    </g>
   </g>
   <g id="PathCollection_87">
    <g clip-path="url(#p97aea15abd)">
     <use style="fill:#d62728;stroke:#d62728;" x="338.717647" xlink:href="#m6f94800156" y="127.184408"/>
    </g>
   </g>
   <g id="PathCollection_88">
    <g clip-path="url(#p97aea15abd)">
     <use style="fill:#d62728;stroke:#d62728;" x="346.376471" xlink:href="#m6f94800156" y="125.720797"/>
    </g>
   </g>
   <g id="PathCollection_89">
    <g clip-path="url(#p97aea15abd)">
     <use style="fill:#d62728;stroke:#d62728;" x="354.035294" xlink:href="#m6f94800156" y="124.550372"/>
    </g>
   </g>
   <g id="PathCollection_90">
    <g clip-path="url(#p97aea15abd)">
     <use style="fill:#d62728;stroke:#d62728;" x="361.694118" xlink:href="#m6f94800156" y="123.690441"/>
    </g>
   </g>
   <g id="PathCollection_91">
    <g clip-path="url(#p97aea15abd)">
     <use style="fill:#d62728;stroke:#d62728;" x="369.352941" xlink:href="#m6f94800156" y="123.150321"/>
    </g>
   </g>
   <g id="PathCollection_92">
    <g clip-path="url(#p97aea15abd)">
     <use style="fill:#d62728;stroke:#d62728;" x="377.011765" xlink:href="#m6f94800156" y="122.929487"/>
    </g>
   </g>
   <g id="PathCollection_93">
    <g clip-path="url(#p97aea15abd)">
     <use style="fill:#d62728;stroke:#d62728;" x="384.670588" xlink:href="#m6f94800156" y="123.01556"/>
    </g>
   </g>
   <g id="PathCollection_94">
    <g clip-path="url(#p97aea15abd)">
     <use style="fill:#d62728;stroke:#d62728;" x="392.329412" xlink:href="#m6f94800156" y="123.382124"/>
    </g>
   </g>
   <g id="PathCollection_95">
    <g clip-path="url(#p97aea15abd)">
     <use style="fill:#d62728;stroke:#d62728;" x="399.988235" xlink:href="#m6f94800156" y="123.98639"/>
    </g>
   </g>
   <g id="PathCollection_96">
    <g clip-path="url(#p97aea15abd)">
     <use style="fill:#d62728;stroke:#d62728;" x="407.647059" xlink:href="#m6f94800156" y="124.766667"/>
    </g>
   </g>
   <g id="PathCollection_97">
    <g clip-path="url(#p97aea15abd)">
     <use style="fill:#d62728;stroke:#d62728;" x="415.305882" xlink:href="#m6f94800156" y="125.639679"/>
    </g>
   </g>
   <g id="PathCollection_98">
    <g clip-path="url(#p97aea15abd)">
     <use style="fill:#d62728;stroke:#d62728;" x="422.964706" xlink:href="#m6f94800156" y="126.497685"/>
    </g>
   </g>
   <g id="PathCollection_99">
    <g clip-path="url(#p97aea15abd)">
     <use style="fill:#d62728;stroke:#d62728;" x="430.623529" xlink:href="#m6f94800156" y="127.20542"/>
    </g>
   </g>
   <g id="PathCollection_100">
    <g clip-path="url(#p97aea15abd)">
     <use style="fill:#d62728;stroke:#d62728;" x="438.282353" xlink:href="#m6f94800156" y="127.596849"/>
    </g>
   </g>
   <g id="PathCollection_101">
    <g clip-path="url(#p97aea15abd)">
     <use style="fill:#d62728;stroke:#d62728;" x="445.941176" xlink:href="#m6f94800156" y="127.471725"/>
    </g>
   </g>
   <g id="PathCollection_102">
    <g clip-path="url(#p97aea15abd)">
     <use style="fill:#d62728;stroke:#d62728;" x="453.6" xlink:href="#m6f94800156" y="126.59195"/>
    </g>
   </g>
   <g id="matplotlib.axis_1"/>
   <g id="matplotlib.axis_2"/>
   <g id="line2d_1">
    <path clip-path="url(#p97aea15abd)" d="M 63 189 
L 110.1975 188.889811 
L 116.484118 188.569931 
L 122.994118 188.013394 
L 129.887059 187.199173 
L 137.290588 186.09763 
L 145.268529 184.682147 
L 153.980441 182.905836 
L 163.553971 180.722821 
L 174.340147 178.030335 
L 186.849559 174.672102 
L 202.262941 170.293293 
L 224.696912 163.663419 
L 269.245735 150.47203 
L 289.637353 144.693647 
L 296.466471 142.938802 
L 302.497794 141.624444 
L 308.688676 140.50546 
L 315.134853 139.567983 
L 321.900147 138.810525 
L 329.016471 138.23901 
L 336.547647 137.858847 
L 344.5575 137.678946 
L 353.141765 137.711009 
L 362.396176 137.970699 
L 372.480294 138.479501 
L 383.585588 139.26614 
L 396.063088 140.377867 
L 410.423382 141.887015 
L 427.687647 143.933497 
L 450.632206 146.892556 
L 453.6 147.287123 
L 453.6 147.287123 
" style="fill:none;stroke:#d62728;stroke-dasharray:11.1,4.8;stroke-dashoffset:0;stroke-width:3;"/>
   </g>
   <g id="line2d_2">
    <path clip-path="url(#p97aea15abd)" d="M 63 189 
L 109.623088 188.889427 
L 115.335294 188.573576 
L 121.207059 188.024697 
L 127.397941 187.220668 
L 133.971765 186.140372 
L 140.992353 184.759138 
L 148.587353 183.034211 
L 156.820588 180.932427 
L 165.915441 178.3762 
L 176.127206 175.268504 
L 187.902647 171.445044 
L 202.199118 166.559944 
L 222.431176 159.389132 
L 269.086176 142.792558 
L 288.201324 136.274592 
L 295.19 134.060926 
L 300.710735 132.552488 
L 306.295294 131.257375 
L 312.103235 130.140411 
L 318.134559 129.208112 
L 324.453088 128.458039 
L 331.090735 127.896276 
L 338.079412 127.530122 
L 345.482941 127.36723 
L 353.365147 127.418741 
L 361.821765 127.699448 
L 370.948529 128.227995 
L 380.905 129.030557 
L 391.914559 130.14469 
L 404.360147 131.632889 
L 418.816176 133.592238 
L 436.559118 136.2312 
L 453.6 138.912965 
L 453.6 138.912965 
" style="fill:none;stroke:#d62728;stroke-linecap:square;stroke-width:3;"/>
   </g>
   <g id="patch_3">
    <path d="M 63 189 
L 63 25.92 
" style="fill:none;stroke:#000000;stroke-linecap:square;stroke-linejoin:miter;stroke-width:0.8;"/>
   </g>
   <g id="patch_4">
    <path d="M 453.6 189 
L 453.6 25.92 
" style="fill:none;stroke:#000000;stroke-linecap:square;stroke-linejoin:miter;stroke-width:0.8;"/>
   </g>
   <g id="patch_5">
    <path d="M 63 189 
L 453.6 189 
" style="fill:none;stroke:#000000;stroke-linecap:square;stroke-linejoin:miter;stroke-width:0.8;"/>
   </g>
   <g id="patch_6">
    <path d="M 63 25.92 
L 453.6 25.92 
" style="fill:none;stroke:#000000;stroke-linecap:square;stroke-linejoin:miter;stroke-width:0.8;"/>
   </g>
  </g>
 </g>
 <defs>
  <clipPath id="p97aea15abd">
   <rect height="163.08" width="390.6" x="63" y="25.92"/>
  </clipPath>
 </defs>
</svg>
