<?xml version="1.0" encoding="utf-8" standalone="no"?>
<!DOCTYPE svg PUBLIC "-//W3C//DTD SVG 1.1//EN"
  "http://www.w3.org/Graphics/SVG/1.1/DTD/svg11.dtd">
<!-- Created with matplotlib (https://matplotlib.org/) -->
<svg height="216pt" version="1.1" viewBox="0 0 504 216" width="504pt" xmlns="http://www.w3.org/2000/svg" xmlns:xlink="http://www.w3.org/1999/xlink">
 <metadata>
  <rdf:RDF xmlns:cc="http://creativecommons.org/ns#" xmlns:dc="http://purl.org/dc/elements/1.1/" xmlns:rdf="http://www.w3.org/1999/02/22-rdf-syntax-ns#">
   <cc:Work>
    <dc:type rdf:resource="http://purl.org/dc/dcmitype/StillImage"/>
    <dc:date>2024-11-24T08:49:27.863654</dc:date>
    <dc:format>image/svg+xml</dc:format>
    <dc:creator>
     <cc:Agent>
      <dc:title>Matplotlib v3.3.2, https://matplotlib.org/</dc:title>
     </cc:Agent>
    </dc:creator>
   </cc:Work>
  </rdf:RDF>
 </metadata>
 <defs>
  <style type="text/css">*{stroke-linecap:butt;stroke-linejoin:round;}</style>
 </defs>
 <g id="figure_1">
  <g id="patch_1">
   <path d="M 0 216 
L 504 216 
L 504 0 
L 0 0 
z
" style="fill:none;"/>
  </g>
  <g id="axes_1">
   <g id="patch_2">
    <path d="M 63 189 
L 453.6 189 
L 453.6 25.92 
L 63 25.92 
z
" style="fill:#ffffff;"/>
   </g>
   <g id="PathCollection_1">
    <path clip-path="url(#pd0f656d6e9)" d="M 70.658824 194.091256 
C 71.984839 194.091256 73.256723 193.564424 74.194357 192.62679 
C 75.131992 191.689155 75.658824 190.417271 75.658824 189.091256 
C 75.658824 187.76524 75.131992 186.493357 74.194357 185.555722 
C 73.256723 184.618088 71.984839 184.091256 70.658824 184.091256 
C 69.332808 184.091256 68.060924 184.618088 67.12329 185.555722 
C 66.185655 186.493357 65.658824 187.76524 65.658824 189.091256 
C 65.658824 190.417271 66.185655 191.689155 67.12329 192.62679 
C 68.060924 193.564424 69.332808 194.091256 70.658824 194.091256 
z
" style="fill:none;stroke:#9467bd;"/>
   </g>
   <g id="PathCollection_2">
    <path clip-path="url(#pd0f656d6e9)" d="M 78.317647 194.214886 
C 79.643663 194.214886 80.915546 193.688054 81.853181 192.75042 
C 82.790816 191.812785 83.317647 190.540901 83.317647 189.214886 
C 83.317647 187.88887 82.790816 186.616986 81.853181 185.679352 
C 80.915546 184.741717 79.643663 184.214886 78.317647 184.214886 
C 76.991632 184.214886 75.719748 184.741717 74.782113 185.679352 
C 73.844479 186.616986 73.317647 187.88887 73.317647 189.214886 
C 73.317647 190.540901 73.844479 191.812785 74.782113 192.75042 
C 75.719748 193.688054 76.991632 194.214886 78.317647 194.214886 
z
" style="fill:none;stroke:#9467bd;"/>
   </g>
   <g id="PathCollection_3">
    <path clip-path="url(#pd0f656d6e9)" d="M 85.976471 194.396677 
C 87.302486 194.396677 88.57437 193.869846 89.512004 192.932211 
C 90.449639 191.994577 90.976471 190.722693 90.976471 189.396677 
C 90.976471 188.070662 90.449639 186.798778 89.512004 185.861144 
C 88.57437 184.923509 87.302486 184.396677 85.976471 184.396677 
C 84.650455 184.396677 83.378571 184.923509 82.440937 185.861144 
C 81.503302 186.798778 80.976471 188.070662 80.976471 189.396677 
C 80.976471 190.722693 81.503302 191.994577 82.440937 192.932211 
C 83.378571 193.869846 84.650455 194.396677 85.976471 194.396677 
z
" style="fill:none;stroke:#9467bd;"/>
   </g>
   <g id="PathCollection_4">
    <path clip-path="url(#pd0f656d6e9)" d="M 93.635294 194.376381 
C 94.96131 194.376381 96.233193 193.84955 97.170828 192.911915 
C 98.108463 191.974281 98.635294 190.702397 98.635294 189.376381 
C 98.635294 188.050366 98.108463 186.778482 97.170828 185.840848 
C 96.233193 184.903213 94.96131 184.376381 93.635294 184.376381 
C 92.309279 184.376381 91.037395 184.903213 90.09976 185.840848 
C 89.162126 186.778482 88.635294 188.050366 88.635294 189.376381 
C 88.635294 190.702397 89.162126 191.974281 90.09976 192.911915 
C 91.037395 193.84955 92.309279 194.376381 93.635294 194.376381 
z
" style="fill:none;stroke:#9467bd;"/>
   </g>
   <g id="PathCollection_5">
    <path clip-path="url(#pd0f656d6e9)" d="M 101.294118 193.975081 
C 102.620133 193.975081 103.892017 193.44825 104.829652 192.510615 
C 105.767286 191.572981 106.294118 190.301097 106.294118 188.975081 
C 106.294118 187.649066 105.767286 186.377182 104.829652 185.439547 
C 103.892017 184.501913 102.620133 183.975081 101.294118 183.975081 
C 99.968102 183.975081 98.696218 184.501913 97.758584 185.439547 
C 96.820949 186.377182 96.294118 187.649066 96.294118 188.975081 
C 96.294118 190.301097 96.820949 191.572981 97.758584 192.510615 
C 98.696218 193.44825 99.968102 193.975081 101.294118 193.975081 
z
" style="fill:none;stroke:#9467bd;"/>
   </g>
   <g id="PathCollection_6">
    <path clip-path="url(#pd0f656d6e9)" d="M 108.952941 193.081358 
C 110.278957 193.081358 111.550841 192.554527 112.488475 191.616892 
C 113.42611 190.679258 113.952941 189.407374 113.952941 188.081358 
C 113.952941 186.755343 113.42611 185.483459 112.488475 184.545824 
C 111.550841 183.60819 110.278957 183.081358 108.952941 183.081358 
C 107.626926 183.081358 106.355042 183.60819 105.417407 184.545824 
C 104.479773 185.483459 103.952941 186.755343 103.952941 188.081358 
C 103.952941 189.407374 104.479773 190.679258 105.417407 191.616892 
C 106.355042 192.554527 107.626926 193.081358 108.952941 193.081358 
z
" style="fill:none;stroke:#9467bd;"/>
   </g>
   <g id="PathCollection_7">
    <path clip-path="url(#pd0f656d6e9)" d="M 116.611765 191.638862 
C 117.93778 191.638862 119.209664 191.112031 120.147299 190.174396 
C 121.084933 189.236762 121.611765 187.964878 121.611765 186.638862 
C 121.611765 185.312847 121.084933 184.040963 120.147299 183.103328 
C 119.209664 182.165694 117.93778 181.638862 116.611765 181.638862 
C 115.285749 181.638862 114.013865 182.165694 113.076231 183.103328 
C 112.138596 184.040963 111.611765 185.312847 111.611765 186.638862 
C 111.611765 187.964878 112.138596 189.236762 113.076231 190.174396 
C 114.013865 191.112031 115.285749 191.638862 116.611765 191.638862 
z
" style="fill:none;stroke:#9467bd;"/>
   </g>
   <g id="PathCollection_8">
    <path clip-path="url(#pd0f656d6e9)" d="M 124.270588 189.635135 
C 125.596604 189.635135 126.868488 189.108304 127.806122 188.170669 
C 128.743757 187.233035 129.270588 185.961151 129.270588 184.635135 
C 129.270588 183.30912 128.743757 182.037236 127.806122 181.099602 
C 126.868488 180.161967 125.596604 179.635135 124.270588 179.635135 
C 122.944573 179.635135 121.672689 180.161967 120.735054 181.099602 
C 119.79742 182.037236 119.270588 183.30912 119.270588 184.635135 
C 119.270588 185.961151 119.79742 187.233035 120.735054 188.170669 
C 121.672689 189.108304 122.944573 189.635135 124.270588 189.635135 
z
" style="fill:none;stroke:#9467bd;"/>
   </g>
   <g id="PathCollection_9">
    <path clip-path="url(#pd0f656d6e9)" d="M 131.929412 187.091722 
C 133.255427 187.091722 134.527311 186.564891 135.464946 185.627256 
C 136.40258 184.689621 136.929412 183.417738 136.929412 182.091722 
C 136.929412 180.765707 136.40258 179.493823 135.464946 178.556188 
C 134.527311 177.618554 133.255427 177.091722 131.929412 177.091722 
C 130.603396 177.091722 129.331512 177.618554 128.393878 178.556188 
C 127.456243 179.493823 126.929412 180.765707 126.929412 182.091722 
C 126.929412 183.417738 127.456243 184.689621 128.393878 185.627256 
C 129.331512 186.564891 130.603396 187.091722 131.929412 187.091722 
z
" style="fill:none;stroke:#9467bd;"/>
   </g>
   <g id="PathCollection_10">
    <path clip-path="url(#pd0f656d6e9)" d="M 139.588235 184.055439 
C 140.914251 184.055439 142.186135 183.528607 143.123769 182.590973 
C 144.061404 181.653338 144.588235 180.381455 144.588235 179.055439 
C 144.588235 177.729424 144.061404 176.45754 143.123769 175.519905 
C 142.186135 174.582271 140.914251 174.055439 139.588235 174.055439 
C 138.26222 174.055439 136.990336 174.582271 136.052701 175.519905 
C 135.115067 176.45754 134.588235 177.729424 134.588235 179.055439 
C 134.588235 180.381455 135.115067 181.653338 136.052701 182.590973 
C 136.990336 183.528607 138.26222 184.055439 139.588235 184.055439 
z
" style="fill:none;stroke:#9467bd;"/>
   </g>
   <g id="PathCollection_11">
    <path clip-path="url(#pd0f656d6e9)" d="M 147.247059 180.590769 
C 148.573074 180.590769 149.844958 180.063937 150.782593 179.126303 
C 151.720227 178.188668 152.247059 176.916784 152.247059 175.590769 
C 152.247059 174.264753 151.720227 172.992869 150.782593 172.055235 
C 149.844958 171.1176 148.573074 170.590769 147.247059 170.590769 
C 145.921043 170.590769 144.649159 171.1176 143.711525 172.055235 
C 142.77389 172.992869 142.247059 174.264753 142.247059 175.590769 
C 142.247059 176.916784 142.77389 178.188668 143.711525 179.126303 
C 144.649159 180.063937 145.921043 180.590769 147.247059 180.590769 
z
" style="fill:none;stroke:#9467bd;"/>
   </g>
   <g id="PathCollection_12">
    <path clip-path="url(#pd0f656d6e9)" d="M 154.905882 176.773308 
C 156.231898 176.773308 157.503782 176.246477 158.441416 175.308842 
C 159.379051 174.371207 159.905882 173.099324 159.905882 171.773308 
C 159.905882 170.447293 159.379051 169.175409 158.441416 168.237774 
C 157.503782 167.30014 156.231898 166.773308 154.905882 166.773308 
C 153.579867 166.773308 152.307983 167.30014 151.370348 168.237774 
C 150.432714 169.175409 149.905882 170.447293 149.905882 171.773308 
C 149.905882 173.099324 150.432714 174.371207 151.370348 175.308842 
C 152.307983 176.246477 153.579867 176.773308 154.905882 176.773308 
z
" style="fill:none;stroke:#9467bd;"/>
   </g>
   <g id="PathCollection_13">
    <path clip-path="url(#pd0f656d6e9)" d="M 162.564706 172.684208 
C 163.890721 172.684208 165.162605 172.157376 166.10024 171.219741 
C 167.037874 170.282107 167.564706 169.010223 167.564706 167.684208 
C 167.564706 166.358192 167.037874 165.086308 166.10024 164.148674 
C 165.162605 163.211039 163.890721 162.684208 162.564706 162.684208 
C 161.23869 162.684208 159.966807 163.211039 159.029172 164.148674 
C 158.091537 165.086308 157.564706 166.358192 157.564706 167.684208 
C 157.564706 169.010223 158.091537 170.282107 159.029172 171.219741 
C 159.966807 172.157376 161.23869 172.684208 162.564706 172.684208 
z
" style="fill:none;stroke:#9467bd;"/>
   </g>
   <g id="PathCollection_14">
    <path clip-path="url(#pd0f656d6e9)" d="M 170.223529 168.405543 
C 171.549545 168.405543 172.821429 167.878712 173.759063 166.941077 
C 174.696698 166.003442 175.223529 164.731559 175.223529 163.405543 
C 175.223529 162.079528 174.696698 160.807644 173.759063 159.870009 
C 172.821429 158.932375 171.549545 158.405543 170.223529 158.405543 
C 168.897514 158.405543 167.62563 158.932375 166.687996 159.870009 
C 165.750361 160.807644 165.223529 162.079528 165.223529 163.405543 
C 165.223529 164.731559 165.750361 166.003442 166.687996 166.941077 
C 167.62563 167.878712 168.897514 168.405543 170.223529 168.405543 
z
" style="fill:none;stroke:#9467bd;"/>
   </g>
   <g id="PathCollection_15">
    <path clip-path="url(#pd0f656d6e9)" d="M 177.882353 164.016554 
C 179.208368 164.016554 180.480252 163.489723 181.417887 162.552088 
C 182.355521 161.614454 182.882353 160.34257 182.882353 159.016554 
C 182.882353 157.690539 182.355521 156.418655 181.417887 155.481021 
C 180.480252 154.543386 179.208368 154.016554 177.882353 154.016554 
C 176.556337 154.016554 175.284454 154.543386 174.346819 155.481021 
C 173.409184 156.418655 172.882353 157.690539 172.882353 159.016554 
C 172.882353 160.34257 173.409184 161.614454 174.346819 162.552088 
C 175.284454 163.489723 176.556337 164.016554 177.882353 164.016554 
z
" style="fill:none;stroke:#9467bd;"/>
   </g>
   <g id="PathCollection_16">
    <path clip-path="url(#pd0f656d6e9)" d="M 185.541176 159.590686 
C 186.867192 159.590686 188.139076 159.063854 189.07671 158.126219 
C 190.014345 157.188585 190.541176 155.916701 190.541176 154.590686 
C 190.541176 153.26467 190.014345 151.992786 189.07671 151.055152 
C 188.139076 150.117517 186.867192 149.590686 185.541176 149.590686 
C 184.215161 149.590686 182.943277 150.117517 182.005643 151.055152 
C 181.068008 151.992786 180.541176 153.26467 180.541176 154.590686 
C 180.541176 155.916701 181.068008 157.188585 182.005643 158.126219 
C 182.943277 159.063854 184.215161 159.590686 185.541176 159.590686 
z
" style="fill:none;stroke:#9467bd;"/>
   </g>
   <g id="PathCollection_17">
    <path clip-path="url(#pd0f656d6e9)" d="M 193.2 155.193371 
C 194.526016 155.193371 195.797899 154.666539 196.735534 153.728905 
C 197.673168 152.79127 198.2 151.519387 198.2 150.193371 
C 198.2 148.867356 197.673168 147.595472 196.735534 146.657837 
C 195.797899 145.720203 194.526016 145.193371 193.2 145.193371 
C 191.873985 145.193371 190.602101 145.720203 189.664466 146.657837 
C 188.726832 147.595472 188.2 148.867356 188.2 150.193371 
C 188.2 151.519387 188.726832 152.79127 189.664466 153.728905 
C 190.602101 154.666539 191.873985 155.193371 193.2 155.193371 
z
" style="fill:none;stroke:#9467bd;"/>
   </g>
   <g id="PathCollection_18">
    <path clip-path="url(#pd0f656d6e9)" d="M 200.858824 150.8805 
C 202.184839 150.8805 203.456723 150.353668 204.394357 149.416033 
C 205.331992 148.478399 205.858824 147.206515 205.858824 145.8805 
C 205.858824 144.554484 205.331992 143.2826 204.394357 142.344966 
C 203.456723 141.407331 202.184839 140.8805 200.858824 140.8805 
C 199.532808 140.8805 198.260924 141.407331 197.32329 142.344966 
C 196.385655 143.2826 195.858824 144.554484 195.858824 145.8805 
C 195.858824 147.206515 196.385655 148.478399 197.32329 149.416033 
C 198.260924 150.353668 199.532808 150.8805 200.858824 150.8805 
z
" style="fill:none;stroke:#9467bd;"/>
   </g>
   <g id="PathCollection_19">
    <path clip-path="url(#pd0f656d6e9)" d="M 208.517647 146.697494 
C 209.843663 146.697494 211.115546 146.170662 212.053181 145.233028 
C 212.990816 144.295393 213.517647 143.023509 213.517647 141.697494 
C 213.517647 140.371478 212.990816 139.099594 212.053181 138.16196 
C 211.115546 137.224325 209.843663 136.697494 208.517647 136.697494 
C 207.191632 136.697494 205.919748 137.224325 204.982113 138.16196 
C 204.044479 139.099594 203.517647 140.371478 203.517647 141.697494 
C 203.517647 143.023509 204.044479 144.295393 204.982113 145.233028 
C 205.919748 146.170662 207.191632 146.697494 208.517647 146.697494 
z
" style="fill:none;stroke:#9467bd;"/>
   </g>
   <g id="PathCollection_20">
    <path clip-path="url(#pd0f656d6e9)" d="M 216.176471 142.678945 
C 217.502486 142.678945 218.77437 142.152113 219.712004 141.214479 
C 220.649639 140.276844 221.176471 139.00496 221.176471 137.678945 
C 221.176471 136.352929 220.649639 135.081045 219.712004 134.143411 
C 218.77437 133.205776 217.502486 132.678945 216.176471 132.678945 
C 214.850455 132.678945 213.578571 133.205776 212.640937 134.143411 
C 211.703302 135.081045 211.176471 136.352929 211.176471 137.678945 
C 211.176471 139.00496 211.703302 140.276844 212.640937 141.214479 
C 213.578571 142.152113 214.850455 142.678945 216.176471 142.678945 
z
" style="fill:none;stroke:#9467bd;"/>
   </g>
   <g id="PathCollection_21">
    <path clip-path="url(#pd0f656d6e9)" d="M 223.835294 138.848741 
C 225.16131 138.848741 226.433193 138.321909 227.370828 137.384275 
C 228.308463 136.44664 228.835294 135.174756 228.835294 133.848741 
C 228.835294 132.522725 228.308463 131.250841 227.370828 130.313207 
C 226.433193 129.375572 225.16131 128.848741 223.835294 128.848741 
C 222.509279 128.848741 221.237395 129.375572 220.29976 130.313207 
C 219.362126 131.250841 218.835294 132.522725 218.835294 133.848741 
C 218.835294 135.174756 219.362126 136.44664 220.29976 137.384275 
C 221.237395 138.321909 222.509279 138.848741 223.835294 138.848741 
z
" style="fill:none;stroke:#9467bd;"/>
   </g>
   <g id="PathCollection_22">
    <path clip-path="url(#pd0f656d6e9)" d="M 231.494118 135.220617 
C 232.820133 135.220617 234.092017 134.693785 235.029652 133.756151 
C 235.967286 132.818516 236.494118 131.546632 236.494118 130.220617 
C 236.494118 128.894601 235.967286 127.622717 235.029652 126.685083 
C 234.092017 125.747448 232.820133 125.220617 231.494118 125.220617 
C 230.168102 125.220617 228.896218 125.747448 227.958584 126.685083 
C 227.020949 127.622717 226.494118 128.894601 226.494118 130.220617 
C 226.494118 131.546632 227.020949 132.818516 227.958584 133.756151 
C 228.896218 134.693785 230.168102 135.220617 231.494118 135.220617 
z
" style="fill:none;stroke:#9467bd;"/>
   </g>
   <g id="PathCollection_23">
    <path clip-path="url(#pd0f656d6e9)" d="M 239.152941 131.79908 
C 240.478957 131.79908 241.750841 131.272249 242.688475 130.334614 
C 243.62611 129.39698 244.152941 128.125096 244.152941 126.79908 
C 244.152941 125.473065 243.62611 124.201181 242.688475 123.263546 
C 241.750841 122.325912 240.478957 121.79908 239.152941 121.79908 
C 237.826926 121.79908 236.555042 122.325912 235.617407 123.263546 
C 234.679773 124.201181 234.152941 125.473065 234.152941 126.79908 
C 234.152941 128.125096 234.679773 129.39698 235.617407 130.334614 
C 236.555042 131.272249 237.826926 131.79908 239.152941 131.79908 
z
" style="fill:none;stroke:#9467bd;"/>
   </g>
   <g id="PathCollection_24">
    <path clip-path="url(#pd0f656d6e9)" d="M 246.811765 128.580632 
C 248.13778 128.580632 249.409664 128.053801 250.347299 127.116166 
C 251.284933 126.178532 251.811765 124.906648 251.811765 123.580632 
C 251.811765 122.254617 251.284933 120.982733 250.347299 120.045099 
C 249.409664 119.107464 248.13778 118.580632 246.811765 118.580632 
C 245.485749 118.580632 244.213865 119.107464 243.276231 120.045099 
C 242.338596 120.982733 241.811765 122.254617 241.811765 123.580632 
C 241.811765 124.906648 242.338596 126.178532 243.276231 127.116166 
C 244.213865 128.053801 245.485749 128.580632 246.811765 128.580632 
z
" style="fill:none;stroke:#9467bd;"/>
   </g>
   <g id="PathCollection_25">
    <path clip-path="url(#pd0f656d6e9)" d="M 254.470588 125.555235 
C 255.796604 125.555235 257.068488 125.028403 258.006122 124.090769 
C 258.943757 123.153134 259.470588 121.88125 259.470588 120.555235 
C 259.470588 119.229219 258.943757 117.957335 258.006122 117.019701 
C 257.068488 116.082066 255.796604 115.555235 254.470588 115.555235 
C 253.144573 115.555235 251.872689 116.082066 250.935054 117.019701 
C 249.99742 117.957335 249.470588 119.229219 249.470588 120.555235 
C 249.470588 121.88125 249.99742 123.153134 250.935054 124.090769 
C 251.872689 125.028403 253.144573 125.555235 254.470588 125.555235 
z
" style="fill:none;stroke:#9467bd;"/>
   </g>
   <g id="PathCollection_26">
    <path clip-path="url(#pd0f656d6e9)" d="M 262.129412 122.70795 
C 263.455427 122.70795 264.727311 122.181119 265.664946 121.243484 
C 266.60258 120.305849 267.129412 119.033966 267.129412 117.70795 
C 267.129412 116.381935 266.60258 115.110051 265.664946 114.172416 
C 264.727311 113.234782 263.455427 112.70795 262.129412 112.70795 
C 260.803396 112.70795 259.531512 113.234782 258.593878 114.172416 
C 257.656243 115.110051 257.129412 116.381935 257.129412 117.70795 
C 257.129412 119.033966 257.656243 120.305849 258.593878 121.243484 
C 259.531512 122.181119 260.803396 122.70795 262.129412 122.70795 
z
" style="fill:none;stroke:#9467bd;"/>
   </g>
   <g id="PathCollection_27">
    <path clip-path="url(#pd0f656d6e9)" d="M 269.788235 120.020704 
C 271.114251 120.020704 272.386135 119.493872 273.323769 118.556237 
C 274.261404 117.618603 274.788235 116.346719 274.788235 115.020704 
C 274.788235 113.694688 274.261404 112.422804 273.323769 111.48517 
C 272.386135 110.547535 271.114251 110.020704 269.788235 110.020704 
C 268.46222 110.020704 267.190336 110.547535 266.252701 111.48517 
C 265.315067 112.422804 264.788235 113.694688 264.788235 115.020704 
C 264.788235 116.346719 265.315067 117.618603 266.252701 118.556237 
C 267.190336 119.493872 268.46222 120.020704 269.788235 120.020704 
z
" style="fill:none;stroke:#9467bd;"/>
   </g>
   <g id="PathCollection_28">
    <path clip-path="url(#pd0f656d6e9)" d="M 277.447059 117.474092 
C 278.773074 117.474092 280.044958 116.94726 280.982593 116.009626 
C 281.920227 115.071991 282.447059 113.800107 282.447059 112.474092 
C 282.447059 111.148076 281.920227 109.876193 280.982593 108.938558 
C 280.044958 108.000923 278.773074 107.474092 277.447059 107.474092 
C 276.121043 107.474092 274.849159 108.000923 273.911525 108.938558 
C 272.97389 109.876193 272.447059 111.148076 272.447059 112.474092 
C 272.447059 113.800107 272.97389 115.071991 273.911525 116.009626 
C 274.849159 116.94726 276.121043 117.474092 277.447059 117.474092 
z
" style="fill:none;stroke:#9467bd;"/>
   </g>
   <g id="PathCollection_29">
    <path clip-path="url(#pd0f656d6e9)" d="M 285.105882 115.049187 
C 286.431898 115.049187 287.703782 114.522355 288.641416 113.58472 
C 289.579051 112.647086 290.105882 111.375202 290.105882 110.049187 
C 290.105882 108.723171 289.579051 107.451287 288.641416 106.513653 
C 287.703782 105.576018 286.431898 105.049187 285.105882 105.049187 
C 283.779867 105.049187 282.507983 105.576018 281.570348 106.513653 
C 280.632714 107.451287 280.105882 108.723171 280.105882 110.049187 
C 280.105882 111.375202 280.632714 112.647086 281.570348 113.58472 
C 282.507983 114.522355 283.779867 115.049187 285.105882 115.049187 
z
" style="fill:none;stroke:#9467bd;"/>
   </g>
   <g id="PathCollection_30">
    <path clip-path="url(#pd0f656d6e9)" d="M 292.764706 112.729261 
C 294.090721 112.729261 295.362605 112.20243 296.30024 111.264795 
C 297.237874 110.327161 297.764706 109.055277 297.764706 107.729261 
C 297.764706 106.403246 297.237874 105.131362 296.30024 104.193727 
C 295.362605 103.256093 294.090721 102.729261 292.764706 102.729261 
C 291.43869 102.729261 290.166807 103.256093 289.229172 104.193727 
C 288.291537 105.131362 287.764706 106.403246 287.764706 107.729261 
C 287.764706 109.055277 288.291537 110.327161 289.229172 111.264795 
C 290.166807 112.20243 291.43869 112.729261 292.764706 112.729261 
z
" style="fill:none;stroke:#9467bd;"/>
   </g>
   <g id="PathCollection_31">
    <path clip-path="url(#pd0f656d6e9)" d="M 300.423529 110.501387 
C 301.749545 110.501387 303.021429 109.974555 303.959063 109.036921 
C 304.896698 108.099286 305.423529 106.827403 305.423529 105.501387 
C 305.423529 104.175372 304.896698 102.903488 303.959063 101.965853 
C 303.021429 101.028219 301.749545 100.501387 300.423529 100.501387 
C 299.097514 100.501387 297.82563 101.028219 296.887996 101.965853 
C 295.950361 102.903488 295.423529 104.175372 295.423529 105.501387 
C 295.423529 106.827403 295.950361 108.099286 296.887996 109.036921 
C 297.82563 109.974555 299.097514 110.501387 300.423529 110.501387 
z
" style="fill:none;stroke:#9467bd;"/>
   </g>
   <g id="PathCollection_32">
    <path clip-path="url(#pd0f656d6e9)" d="M 308.082353 108.357827 
C 309.408368 108.357827 310.680252 107.830995 311.617887 106.893361 
C 312.555521 105.955726 313.082353 104.683842 313.082353 103.357827 
C 313.082353 102.031811 312.555521 100.759928 311.617887 99.822293 
C 310.680252 98.884659 309.408368 98.357827 308.082353 98.357827 
C 306.756337 98.357827 305.484454 98.884659 304.546819 99.822293 
C 303.609184 100.759928 303.082353 102.031811 303.082353 103.357827 
C 303.082353 104.683842 303.609184 105.955726 304.546819 106.893361 
C 305.484454 107.830995 306.756337 108.357827 308.082353 108.357827 
z
" style="fill:none;stroke:#9467bd;"/>
   </g>
   <g id="PathCollection_33">
    <path clip-path="url(#pd0f656d6e9)" d="M 315.741176 106.297174 
C 317.067192 106.297174 318.339076 105.770342 319.27671 104.832708 
C 320.214345 103.895073 320.741176 102.623189 320.741176 101.297174 
C 320.741176 99.971158 320.214345 98.699275 319.27671 97.76164 
C 318.339076 96.824005 317.067192 96.297174 315.741176 96.297174 
C 314.415161 96.297174 313.143277 96.824005 312.205643 97.76164 
C 311.268008 98.699275 310.741176 99.971158 310.741176 101.297174 
C 310.741176 102.623189 311.268008 103.895073 312.205643 104.832708 
C 313.143277 105.770342 314.415161 106.297174 315.741176 106.297174 
z
" style="fill:none;stroke:#9467bd;"/>
   </g>
   <g id="PathCollection_34">
    <path clip-path="url(#pd0f656d6e9)" d="M 323.4 104.32516 
C 324.726016 104.32516 325.997899 103.798328 326.935534 102.860694 
C 327.873168 101.923059 328.4 100.651175 328.4 99.32516 
C 328.4 97.999144 327.873168 96.72726 326.935534 95.789626 
C 325.997899 94.851991 324.726016 94.32516 323.4 94.32516 
C 322.073985 94.32516 320.802101 94.851991 319.864466 95.789626 
C 318.926832 96.72726 318.4 97.999144 318.4 99.32516 
C 318.4 100.651175 318.926832 101.923059 319.864466 102.860694 
C 320.802101 103.798328 322.073985 104.32516 323.4 104.32516 
z
" style="fill:none;stroke:#9467bd;"/>
   </g>
   <g id="PathCollection_35">
    <path clip-path="url(#pd0f656d6e9)" d="M 331.058824 102.455085 
C 332.384839 102.455085 333.656723 101.928254 334.594357 100.990619 
C 335.531992 100.052985 336.058824 98.781101 336.058824 97.455085 
C 336.058824 96.12907 335.531992 94.857186 334.594357 93.919551 
C 333.656723 92.981917 332.384839 92.455085 331.058824 92.455085 
C 329.732808 92.455085 328.460924 92.981917 327.52329 93.919551 
C 326.585655 94.857186 326.058824 96.12907 326.058824 97.455085 
C 326.058824 98.781101 326.585655 100.052985 327.52329 100.990619 
C 328.460924 101.928254 329.732808 102.455085 331.058824 102.455085 
z
" style="fill:none;stroke:#9467bd;"/>
   </g>
   <g id="PathCollection_36">
    <path clip-path="url(#pd0f656d6e9)" d="M 338.717647 100.707797 
C 340.043663 100.707797 341.315546 100.180965 342.253181 99.243331 
C 343.190816 98.305696 343.717647 97.033812 343.717647 95.707797 
C 343.717647 94.381781 343.190816 93.109897 342.253181 92.172263 
C 341.315546 91.234628 340.043663 90.707797 338.717647 90.707797 
C 337.391632 90.707797 336.119748 91.234628 335.182113 92.172263 
C 334.244479 93.109897 333.717647 94.381781 333.717647 95.707797 
C 333.717647 97.033812 334.244479 98.305696 335.182113 99.243331 
C 336.119748 100.180965 337.391632 100.707797 338.717647 100.707797 
z
" style="fill:none;stroke:#9467bd;"/>
   </g>
   <g id="PathCollection_37">
    <path clip-path="url(#pd0f656d6e9)" d="M 346.376471 99.111153 
C 347.702486 99.111153 348.97437 98.584322 349.912004 97.646687 
C 350.849639 96.709052 351.376471 95.437169 351.376471 94.111153 
C 351.376471 92.785138 350.849639 91.513254 349.912004 90.575619 
C 348.97437 89.637985 347.702486 89.111153 346.376471 89.111153 
C 345.050455 89.111153 343.778571 89.637985 342.840937 90.575619 
C 341.903302 91.513254 341.376471 92.785138 341.376471 94.111153 
C 341.376471 95.437169 341.903302 96.709052 342.840937 97.646687 
C 343.778571 98.584322 345.050455 99.111153 346.376471 99.111153 
z
" style="fill:none;stroke:#9467bd;"/>
   </g>
   <g id="PathCollection_38">
    <path clip-path="url(#pd0f656d6e9)" d="M 354.035294 97.698921 
C 355.36131 97.698921 356.633193 97.172089 357.570828 96.234455 
C 358.508463 95.29682 359.035294 94.024936 359.035294 92.698921 
C 359.035294 91.372905 358.508463 90.101021 357.570828 89.163387 
C 356.633193 88.225752 355.36131 87.698921 354.035294 87.698921 
C 352.709279 87.698921 351.437395 88.225752 350.49976 89.163387 
C 349.562126 90.101021 349.035294 91.372905 349.035294 92.698921 
C 349.035294 94.024936 349.562126 95.29682 350.49976 96.234455 
C 351.437395 97.172089 352.709279 97.698921 354.035294 97.698921 
z
" style="fill:none;stroke:#9467bd;"/>
   </g>
   <g id="PathCollection_39">
    <path clip-path="url(#pd0f656d6e9)" d="M 361.694118 96.509028 
C 363.020133 96.509028 364.292017 95.982197 365.229652 95.044562 
C 366.167286 94.106928 366.694118 92.835044 366.694118 91.509028 
C 366.694118 90.183013 366.167286 88.911129 365.229652 87.973495 
C 364.292017 87.03586 363.020133 86.509028 361.694118 86.509028 
C 360.368102 86.509028 359.096218 87.03586 358.158584 87.973495 
C 357.220949 88.911129 356.694118 90.183013 356.694118 91.509028 
C 356.694118 92.835044 357.220949 94.106928 358.158584 95.044562 
C 359.096218 95.982197 360.368102 96.509028 361.694118 96.509028 
z
" style="fill:none;stroke:#9467bd;"/>
   </g>
   <g id="PathCollection_40">
    <path clip-path="url(#pd0f656d6e9)" d="M 369.352941 95.581128 
C 370.678957 95.581128 371.950841 95.054296 372.888475 94.116662 
C 373.82611 93.179027 374.352941 91.907144 374.352941 90.581128 
C 374.352941 89.255113 373.82611 87.983229 372.888475 87.045594 
C 371.950841 86.10796 370.678957 85.581128 369.352941 85.581128 
C 368.026926 85.581128 366.755042 86.10796 365.817407 87.045594 
C 364.879773 87.983229 364.352941 89.255113 364.352941 90.581128 
C 364.352941 91.907144 364.879773 93.179027 365.817407 94.116662 
C 366.755042 95.054296 368.026926 95.581128 369.352941 95.581128 
z
" style="fill:none;stroke:#9467bd;"/>
   </g>
   <g id="PathCollection_41">
    <path clip-path="url(#pd0f656d6e9)" d="M 377.011765 94.953388 
C 378.33778 94.953388 379.609664 94.426557 380.547299 93.488922 
C 381.484933 92.551288 382.011765 91.279404 382.011765 89.953388 
C 382.011765 88.627373 381.484933 87.355489 380.547299 86.417855 
C 379.609664 85.48022 378.33778 84.953388 377.011765 84.953388 
C 375.685749 84.953388 374.413865 85.48022 373.476231 86.417855 
C 372.538596 87.355489 372.011765 88.627373 372.011765 89.953388 
C 372.011765 91.279404 372.538596 92.551288 373.476231 93.488922 
C 374.413865 94.426557 375.685749 94.953388 377.011765 94.953388 
z
" style="fill:none;stroke:#9467bd;"/>
   </g>
   <g id="PathCollection_42">
    <path clip-path="url(#pd0f656d6e9)" d="M 384.670588 94.658469 
C 385.996604 94.658469 387.268488 94.131637 388.206122 93.194003 
C 389.143757 92.256368 389.670588 90.984485 389.670588 89.658469 
C 389.670588 88.332454 389.143757 87.06057 388.206122 86.122935 
C 387.268488 85.185301 385.996604 84.658469 384.670588 84.658469 
C 383.344573 84.658469 382.072689 85.185301 381.135054 86.122935 
C 380.19742 87.06057 379.670588 88.332454 379.670588 89.658469 
C 379.670588 90.984485 380.19742 92.256368 381.135054 93.194003 
C 382.072689 94.131637 383.344573 94.658469 384.670588 94.658469 
z
" style="fill:none;stroke:#9467bd;"/>
   </g>
   <g id="PathCollection_43">
    <path clip-path="url(#pd0f656d6e9)" d="M 392.329412 94.718605 
C 393.655427 94.718605 394.927311 94.191774 395.864946 93.254139 
C 396.80258 92.316505 397.329412 91.044621 397.329412 89.718605 
C 397.329412 88.39259 396.80258 87.120706 395.864946 86.183071 
C 394.927311 85.245437 393.655427 84.718605 392.329412 84.718605 
C 391.003396 84.718605 389.731512 85.245437 388.793878 86.183071 
C 387.856243 87.120706 387.329412 88.39259 387.329412 89.718605 
C 387.329412 91.044621 387.856243 92.316505 388.793878 93.254139 
C 389.731512 94.191774 391.003396 94.718605 392.329412 94.718605 
z
" style="fill:none;stroke:#9467bd;"/>
   </g>
   <g id="PathCollection_44">
    <path clip-path="url(#pd0f656d6e9)" d="M 399.988235 95.139743 
C 401.314251 95.139743 402.586135 94.612911 403.523769 93.675276 
C 404.461404 92.737642 404.988235 91.465758 404.988235 90.139743 
C 404.988235 88.813727 404.461404 87.541843 403.523769 86.604209 
C 402.586135 85.666574 401.314251 85.139743 399.988235 85.139743 
C 398.66222 85.139743 397.390336 85.666574 396.452701 86.604209 
C 395.515067 87.541843 394.988235 88.813727 394.988235 90.139743 
C 394.988235 91.465758 395.515067 92.737642 396.452701 93.675276 
C 397.390336 94.612911 398.66222 95.139743 399.988235 95.139743 
z
" style="fill:none;stroke:#9467bd;"/>
   </g>
   <g id="PathCollection_45">
    <path clip-path="url(#pd0f656d6e9)" d="M 407.647059 95.90466 
C 408.973074 95.90466 410.244958 95.377829 411.182593 94.440194 
C 412.120227 93.50256 412.647059 92.230676 412.647059 90.90466 
C 412.647059 89.578645 412.120227 88.306761 411.182593 87.369126 
C 410.244958 86.431492 408.973074 85.90466 407.647059 85.90466 
C 406.321043 85.90466 405.049159 86.431492 404.111525 87.369126 
C 403.17389 88.306761 402.647059 89.578645 402.647059 90.90466 
C 402.647059 92.230676 403.17389 93.50256 404.111525 94.440194 
C 405.049159 95.377829 406.321043 95.90466 407.647059 95.90466 
z
" style="fill:none;stroke:#9467bd;"/>
   </g>
   <g id="PathCollection_46">
    <path clip-path="url(#pd0f656d6e9)" d="M 415.305882 96.96502 
C 416.631898 96.96502 417.903782 96.438188 418.841416 95.500554 
C 419.779051 94.562919 420.305882 93.291036 420.305882 91.96502 
C 420.305882 90.639005 419.779051 89.367121 418.841416 88.429486 
C 417.903782 87.491852 416.631898 86.96502 415.305882 86.96502 
C 413.979867 86.96502 412.707983 87.491852 411.770348 88.429486 
C 410.832714 89.367121 410.305882 90.639005 410.305882 91.96502 
C 410.305882 93.291036 410.832714 94.562919 411.770348 95.500554 
C 412.707983 96.438188 413.979867 96.96502 415.305882 96.96502 
z
" style="fill:none;stroke:#9467bd;"/>
   </g>
   <g id="PathCollection_47">
    <path clip-path="url(#pd0f656d6e9)" d="M 422.964706 98.232276 
C 424.290721 98.232276 425.562605 97.705445 426.50024 96.76781 
C 427.437874 95.830176 427.964706 94.558292 427.964706 93.232276 
C 427.964706 91.906261 427.437874 90.634377 426.50024 89.696742 
C 425.562605 88.759108 424.290721 88.232276 422.964706 88.232276 
C 421.63869 88.232276 420.366807 88.759108 419.429172 89.696742 
C 418.491537 90.634377 417.964706 91.906261 417.964706 93.232276 
C 417.964706 94.558292 418.491537 95.830176 419.429172 96.76781 
C 420.366807 97.705445 421.63869 98.232276 422.964706 98.232276 
z
" style="fill:none;stroke:#9467bd;"/>
   </g>
   <g id="PathCollection_48">
    <path clip-path="url(#pd0f656d6e9)" d="M 430.623529 99.567386 
C 431.949545 99.567386 433.221429 99.040554 434.159063 98.10292 
C 435.096698 97.165285 435.623529 95.893401 435.623529 94.567386 
C 435.623529 93.24137 435.096698 91.969486 434.159063 91.031852 
C 433.221429 90.094217 431.949545 89.567386 430.623529 89.567386 
C 429.297514 89.567386 428.02563 90.094217 427.087996 91.031852 
C 426.150361 91.969486 425.623529 93.24137 425.623529 94.567386 
C 425.623529 95.893401 426.150361 97.165285 427.087996 98.10292 
C 428.02563 99.040554 429.297514 99.567386 430.623529 99.567386 
z
" style="fill:none;stroke:#9467bd;"/>
   </g>
   <g id="PathCollection_49">
    <path clip-path="url(#pd0f656d6e9)" d="M 438.282353 100.769257 
C 439.608368 100.769257 440.880252 100.242425 441.817887 99.304791 
C 442.755521 98.367156 443.282353 97.095272 443.282353 95.769257 
C 443.282353 94.443241 442.755521 93.171358 441.817887 92.233723 
C 440.880252 91.296089 439.608368 90.769257 438.282353 90.769257 
C 436.956337 90.769257 435.684454 91.296089 434.746819 92.233723 
C 433.809184 93.171358 433.282353 94.443241 433.282353 95.769257 
C 433.282353 97.095272 433.809184 98.367156 434.746819 99.304791 
C 435.684454 100.242425 436.956337 100.769257 438.282353 100.769257 
z
" style="fill:none;stroke:#9467bd;"/>
   </g>
   <g id="PathCollection_50">
    <path clip-path="url(#pd0f656d6e9)" d="M 445.941176 101.561869 
C 447.267192 101.561869 448.539076 101.035038 449.47671 100.097403 
C 450.414345 99.159769 450.941176 97.887885 450.941176 96.561869 
C 450.941176 95.235854 450.414345 93.96397 449.47671 93.026336 
C 448.539076 92.088701 447.267192 91.561869 445.941176 91.561869 
C 444.615161 91.561869 443.343277 92.088701 442.405643 93.026336 
C 441.468008 93.96397 440.941176 95.235854 440.941176 96.561869 
C 440.941176 97.887885 441.468008 99.159769 442.405643 100.097403 
C 443.343277 101.035038 444.615161 101.561869 445.941176 101.561869 
z
" style="fill:none;stroke:#9467bd;"/>
   </g>
   <g id="PathCollection_51">
    <path clip-path="url(#pd0f656d6e9)" d="M 453.6 101.580009 
C 454.926016 101.580009 456.197899 101.053178 457.135534 100.115543 
C 458.073168 99.177909 458.6 97.906025 458.6 96.580009 
C 458.6 95.253994 458.073168 93.98211 457.135534 93.044475 
C 456.197899 92.106841 454.926016 91.580009 453.6 91.580009 
C 452.273985 91.580009 451.002101 92.106841 450.064466 93.044475 
C 449.126832 93.98211 448.6 95.253994 448.6 96.580009 
C 448.6 97.906025 449.126832 99.177909 450.064466 100.115543 
C 451.002101 101.053178 452.273985 101.580009 453.6 101.580009 
z
" style="fill:none;stroke:#9467bd;"/>
   </g>
   <g id="PathCollection_52">
    <defs>
     <path d="M 0 5 
C 1.326016 5 2.597899 4.473168 3.535534 3.535534 
C 4.473168 2.597899 5 1.326016 5 0 
C 5 -1.326016 4.473168 -2.597899 3.535534 -3.535534 
C 2.597899 -4.473168 1.326016 -5 0 -5 
C -1.326016 -5 -2.597899 -4.473168 -3.535534 -3.535534 
C -4.473168 -2.597899 -5 -1.326016 -5 0 
C -5 1.326016 -4.473168 2.597899 -3.535534 3.535534 
C -2.597899 4.473168 -1.326016 5 0 5 
z
" id="m0f0559de8a" style="stroke:#9467bd;"/>
    </defs>
    <g clip-path="url(#pd0f656d6e9)">
     <use style="fill:#9467bd;stroke:#9467bd;" x="70.658824" xlink:href="#m0f0559de8a" y="187.476953"/>
    </g>
   </g>
   <g id="PathCollection_53">
    <g clip-path="url(#pd0f656d6e9)">
     <use style="fill:#9467bd;stroke:#9467bd;" x="78.317647" xlink:href="#m0f0559de8a" y="187.759669"/>
    </g>
   </g>
   <g id="PathCollection_54">
    <g clip-path="url(#pd0f656d6e9)">
     <use style="fill:#9467bd;stroke:#9467bd;" x="85.976471" xlink:href="#m0f0559de8a" y="187.181544"/>
    </g>
   </g>
   <g id="PathCollection_55">
    <g clip-path="url(#pd0f656d6e9)">
     <use style="fill:#9467bd;stroke:#9467bd;" x="93.635294" xlink:href="#m0f0559de8a" y="185.858718"/>
    </g>
   </g>
   <g id="PathCollection_56">
    <g clip-path="url(#pd0f656d6e9)">
     <use style="fill:#9467bd;stroke:#9467bd;" x="101.294118" xlink:href="#m0f0559de8a" y="183.879288"/>
    </g>
   </g>
   <g id="PathCollection_57">
    <g clip-path="url(#pd0f656d6e9)">
     <use style="fill:#9467bd;stroke:#9467bd;" x="108.952941" xlink:href="#m0f0559de8a" y="181.33237"/>
    </g>
   </g>
   <g id="PathCollection_58">
    <g clip-path="url(#pd0f656d6e9)">
     <use style="fill:#9467bd;stroke:#9467bd;" x="116.611765" xlink:href="#m0f0559de8a" y="178.264805"/>
    </g>
   </g>
   <g id="PathCollection_59">
    <g clip-path="url(#pd0f656d6e9)">
     <use style="fill:#9467bd;stroke:#9467bd;" x="124.270588" xlink:href="#m0f0559de8a" y="174.732814"/>
    </g>
   </g>
   <g id="PathCollection_60">
    <g clip-path="url(#pd0f656d6e9)">
     <use style="fill:#9467bd;stroke:#9467bd;" x="131.929412" xlink:href="#m0f0559de8a" y="170.781376"/>
    </g>
   </g>
   <g id="PathCollection_61">
    <g clip-path="url(#pd0f656d6e9)">
     <use style="fill:#9467bd;stroke:#9467bd;" x="139.588235" xlink:href="#m0f0559de8a" y="166.451716"/>
    </g>
   </g>
   <g id="PathCollection_62">
    <g clip-path="url(#pd0f656d6e9)">
     <use style="fill:#9467bd;stroke:#9467bd;" x="147.247059" xlink:href="#m0f0559de8a" y="161.783494"/>
    </g>
   </g>
   <g id="PathCollection_63">
    <g clip-path="url(#pd0f656d6e9)">
     <use style="fill:#9467bd;stroke:#9467bd;" x="154.905882" xlink:href="#m0f0559de8a" y="156.816514"/>
    </g>
   </g>
   <g id="PathCollection_64">
    <g clip-path="url(#pd0f656d6e9)">
     <use style="fill:#9467bd;stroke:#9467bd;" x="162.564706" xlink:href="#m0f0559de8a" y="151.591979"/>
    </g>
   </g>
   <g id="PathCollection_65">
    <g clip-path="url(#pd0f656d6e9)">
     <use style="fill:#9467bd;stroke:#9467bd;" x="170.223529" xlink:href="#m0f0559de8a" y="146.153342"/>
    </g>
   </g>
   <g id="PathCollection_66">
    <g clip-path="url(#pd0f656d6e9)">
     <use style="fill:#9467bd;stroke:#9467bd;" x="177.882353" xlink:href="#m0f0559de8a" y="140.546778"/>
    </g>
   </g>
   <g id="PathCollection_67">
    <g clip-path="url(#pd0f656d6e9)">
     <use style="fill:#9467bd;stroke:#9467bd;" x="185.541176" xlink:href="#m0f0559de8a" y="134.821326"/>
    </g>
   </g>
   <g id="PathCollection_68">
    <g clip-path="url(#pd0f656d6e9)">
     <use style="fill:#9467bd;stroke:#9467bd;" x="193.2" xlink:href="#m0f0559de8a" y="129.028721"/>
    </g>
   </g>
   <g id="PathCollection_69">
    <g clip-path="url(#pd0f656d6e9)">
     <use style="fill:#9467bd;stroke:#9467bd;" x="200.858824" xlink:href="#m0f0559de8a" y="123.222976"/>
    </g>
   </g>
   <g id="PathCollection_70">
    <g clip-path="url(#pd0f656d6e9)">
     <use style="fill:#9467bd;stroke:#9467bd;" x="208.517647" xlink:href="#m0f0559de8a" y="117.45973"/>
    </g>
   </g>
   <g id="PathCollection_71">
    <g clip-path="url(#pd0f656d6e9)">
     <use style="fill:#9467bd;stroke:#9467bd;" x="216.176471" xlink:href="#m0f0559de8a" y="111.795409"/>
    </g>
   </g>
   <g id="PathCollection_72">
    <g clip-path="url(#pd0f656d6e9)">
     <use style="fill:#9467bd;stroke:#9467bd;" x="223.835294" xlink:href="#m0f0559de8a" y="106.286241"/>
    </g>
   </g>
   <g id="PathCollection_73">
    <g clip-path="url(#pd0f656d6e9)">
     <use style="fill:#9467bd;stroke:#9467bd;" x="231.494118" xlink:href="#m0f0559de8a" y="100.987142"/>
    </g>
   </g>
   <g id="PathCollection_74">
    <g clip-path="url(#pd0f656d6e9)">
     <use style="fill:#9467bd;stroke:#9467bd;" x="239.152941" xlink:href="#m0f0559de8a" y="95.950546"/>
    </g>
   </g>
   <g id="PathCollection_75">
    <g clip-path="url(#pd0f656d6e9)">
     <use style="fill:#9467bd;stroke:#9467bd;" x="246.811765" xlink:href="#m0f0559de8a" y="91.225172"/>
    </g>
   </g>
   <g id="PathCollection_76">
    <g clip-path="url(#pd0f656d6e9)">
     <use style="fill:#9467bd;stroke:#9467bd;" x="254.470588" xlink:href="#m0f0559de8a" y="86.854806"/>
    </g>
   </g>
   <g id="PathCollection_77">
    <g clip-path="url(#pd0f656d6e9)">
     <use style="fill:#9467bd;stroke:#9467bd;" x="262.129412" xlink:href="#m0f0559de8a" y="82.877102"/>
    </g>
   </g>
   <g id="PathCollection_78">
    <g clip-path="url(#pd0f656d6e9)">
     <use style="fill:#9467bd;stroke:#9467bd;" x="269.788235" xlink:href="#m0f0559de8a" y="79.32246"/>
    </g>
   </g>
   <g id="PathCollection_79">
    <g clip-path="url(#pd0f656d6e9)">
     <use style="fill:#9467bd;stroke:#9467bd;" x="277.447059" xlink:href="#m0f0559de8a" y="76.213013"/>
    </g>
   </g>
   <g id="PathCollection_80">
    <g clip-path="url(#pd0f656d6e9)">
     <use style="fill:#9467bd;stroke:#9467bd;" x="285.105882" xlink:href="#m0f0559de8a" y="73.561755"/>
    </g>
   </g>
   <g id="PathCollection_81">
    <g clip-path="url(#pd0f656d6e9)">
     <use style="fill:#9467bd;stroke:#9467bd;" x="292.764706" xlink:href="#m0f0559de8a" y="71.371848"/>
    </g>
   </g>
   <g id="PathCollection_82">
    <g clip-path="url(#pd0f656d6e9)">
     <use style="fill:#9467bd;stroke:#9467bd;" x="300.423529" xlink:href="#m0f0559de8a" y="69.636154"/>
    </g>
   </g>
   <g id="PathCollection_83">
    <g clip-path="url(#pd0f656d6e9)">
     <use style="fill:#9467bd;stroke:#9467bd;" x="308.082353" xlink:href="#m0f0559de8a" y="68.337013"/>
    </g>
   </g>
   <g id="PathCollection_84">
    <g clip-path="url(#pd0f656d6e9)">
     <use style="fill:#9467bd;stroke:#9467bd;" x="315.741176" xlink:href="#m0f0559de8a" y="67.446325"/>
    </g>
   </g>
   <g id="PathCollection_85">
    <g clip-path="url(#pd0f656d6e9)">
     <use style="fill:#9467bd;stroke:#9467bd;" x="323.4" xlink:href="#m0f0559de8a" y="66.925947"/>
    </g>
   </g>
   <g id="PathCollection_86">
    <g clip-path="url(#pd0f656d6e9)">
     <use style="fill:#9467bd;stroke:#9467bd;" x="331.058824" xlink:href="#m0f0559de8a" y="66.728469"/>
    </g>
   </g>
   <g id="PathCollection_87">
    <g clip-path="url(#pd0f656d6e9)">
     <use style="fill:#9467bd;stroke:#9467bd;" x="338.717647" xlink:href="#m0f0559de8a" y="66.798382"/>
    </g>
   </g>
   <g id="PathCollection_88">
    <g clip-path="url(#pd0f656d6e9)">
     <use style="fill:#9467bd;stroke:#9467bd;" x="346.376471" xlink:href="#m0f0559de8a" y="67.073698"/>
    </g>
   </g>
   <g id="PathCollection_89">
    <g clip-path="url(#pd0f656d6e9)">
     <use style="fill:#9467bd;stroke:#9467bd;" x="354.035294" xlink:href="#m0f0559de8a" y="67.488034"/>
    </g>
   </g>
   <g id="PathCollection_90">
    <g clip-path="url(#pd0f656d6e9)">
     <use style="fill:#9467bd;stroke:#9467bd;" x="361.694118" xlink:href="#m0f0559de8a" y="67.973219"/>
    </g>
   </g>
   <g id="PathCollection_91">
    <g clip-path="url(#pd0f656d6e9)">
     <use style="fill:#9467bd;stroke:#9467bd;" x="369.352941" xlink:href="#m0f0559de8a" y="68.462452"/>
    </g>
   </g>
   <g id="PathCollection_92">
    <g clip-path="url(#pd0f656d6e9)">
     <use style="fill:#9467bd;stroke:#9467bd;" x="377.011765" xlink:href="#m0f0559de8a" y="68.894038"/>
    </g>
   </g>
   <g id="PathCollection_93">
    <g clip-path="url(#pd0f656d6e9)">
     <use style="fill:#9467bd;stroke:#9467bd;" x="384.670588" xlink:href="#m0f0559de8a" y="69.215762"/>
    </g>
   </g>
   <g id="PathCollection_94">
    <g clip-path="url(#pd0f656d6e9)">
     <use style="fill:#9467bd;stroke:#9467bd;" x="392.329412" xlink:href="#m0f0559de8a" y="69.389918"/>
    </g>
   </g>
   <g id="PathCollection_95">
    <g clip-path="url(#pd0f656d6e9)">
     <use style="fill:#9467bd;stroke:#9467bd;" x="399.988235" xlink:href="#m0f0559de8a" y="69.399035"/>
    </g>
   </g>
   <g id="PathCollection_96">
    <g clip-path="url(#pd0f656d6e9)">
     <use style="fill:#9467bd;stroke:#9467bd;" x="407.647059" xlink:href="#m0f0559de8a" y="69.252344"/>
    </g>
   </g>
   <g id="PathCollection_97">
    <g clip-path="url(#pd0f656d6e9)">
     <use style="fill:#9467bd;stroke:#9467bd;" x="415.305882" xlink:href="#m0f0559de8a" y="68.993014"/>
    </g>
   </g>
   <g id="PathCollection_98">
    <g clip-path="url(#pd0f656d6e9)">
     <use style="fill:#9467bd;stroke:#9467bd;" x="422.964706" xlink:href="#m0f0559de8a" y="68.7062"/>
    </g>
   </g>
   <g id="PathCollection_99">
    <g clip-path="url(#pd0f656d6e9)">
     <use style="fill:#9467bd;stroke:#9467bd;" x="430.623529" xlink:href="#m0f0559de8a" y="68.527936"/>
    </g>
   </g>
   <g id="PathCollection_100">
    <g clip-path="url(#pd0f656d6e9)">
     <use style="fill:#9467bd;stroke:#9467bd;" x="438.282353" xlink:href="#m0f0559de8a" y="68.654912"/>
    </g>
   </g>
   <g id="PathCollection_101">
    <g clip-path="url(#pd0f656d6e9)">
     <use style="fill:#9467bd;stroke:#9467bd;" x="445.941176" xlink:href="#m0f0559de8a" y="69.355174"/>
    </g>
   </g>
   <g id="PathCollection_102">
    <g clip-path="url(#pd0f656d6e9)">
     <use style="fill:#9467bd;stroke:#9467bd;" x="453.6" xlink:href="#m0f0559de8a" y="70.979775"/>
    </g>
   </g>
   <g id="matplotlib.axis_1"/>
   <g id="matplotlib.axis_2"/>
   <g id="line2d_1">
    <path clip-path="url(#pd0f656d6e9)" d="M 63 189 
L 108.123235 188.889263 
L 112.527059 188.578767 
L 116.930882 188.042024 
L 121.462353 187.263085 
L 126.185294 186.223798 
L 131.163529 184.897755 
L 136.397059 183.270878 
L 141.917794 181.320834 
L 147.821471 178.99737 
L 154.14 176.268891 
L 160.969118 173.074193 
L 168.404559 169.346943 
L 176.637794 164.966366 
L 185.892206 159.785597 
L 196.678382 153.485662 
L 210.208971 145.309963 
L 231.366471 132.225482 
L 260.214706 114.426042 
L 276.840735 104.436515 
L 290.530882 96.457189 
L 295.381471 93.858821 
L 299.753382 91.770305 
L 304.093382 89.942782 
L 308.529118 88.316446 
L 313.060588 86.891623 
L 317.719706 85.659447 
L 322.538382 84.616106 
L 327.516618 83.767055 
L 332.686324 83.112833 
L 338.0475 82.659726 
L 343.663971 82.410502 
L 349.535735 82.37473 
L 355.694706 82.560805 
L 362.204706 82.981231 
L 369.129559 83.653356 
L 376.533088 84.597987 
L 384.511029 85.843298 
L 393.191029 87.427195 
L 402.732647 89.398352 
L 413.423088 91.838382 
L 425.772941 94.891912 
L 440.739559 98.831233 
L 453.6 102.349823 
L 453.6 102.349823 
" style="fill:none;stroke:#9467bd;stroke-dasharray:11.1,4.8;stroke-dashoffset:0;stroke-width:3;"/>
   </g>
   <g id="line2d_2">
    <path clip-path="url(#pd0f656d6e9)" d="M 63 189 
L 107.676471 188.889969 
L 111.729265 188.581916 
L 115.718235 188.053922 
L 119.802941 187.28773 
L 124.047206 186.264403 
L 128.514853 184.955122 
L 133.173971 183.356091 
L 138.088382 181.432508 
L 143.29 179.155754 
L 148.842647 176.479005 
L 154.778235 173.366645 
L 161.1925 169.746673 
L 168.117353 165.579365 
L 175.776176 160.704929 
L 184.360441 154.969497 
L 194.125441 148.171443 
L 205.932794 139.671004 
L 222.175882 127.67938 
L 263.852647 96.802829 
L 278.915 85.987529 
L 290.977647 77.578132 
L 295.445294 74.719645 
L 299.498088 72.388781 
L 303.550882 70.314838 
L 307.635588 68.474049 
L 311.816029 66.834917 
L 316.092206 65.398859 
L 320.464118 64.166235 
L 324.963676 63.129971 
L 329.590882 62.293344 
L 334.377647 61.654876 
L 339.323971 61.21965 
L 344.493676 60.989649 
L 349.886765 60.974519 
L 355.535147 61.183321 
L 361.470735 61.627396 
L 367.757353 62.32377 
L 374.426912 63.289408 
L 381.543235 64.547086 
L 389.202059 66.129086 
L 397.531029 68.079701 
L 406.721618 70.464996 
L 417.029118 73.3756 
L 428.900294 76.965434 
L 443.324412 81.569121 
L 453.6 84.954204 
L 453.6 84.954204 
" style="fill:none;stroke:#9467bd;stroke-linecap:square;stroke-width:3;"/>
   </g>
   <g id="patch_3">
    <path d="M 63 189 
L 63 25.92 
" style="fill:none;stroke:#000000;stroke-linecap:square;stroke-linejoin:miter;stroke-width:0.8;"/>
   </g>
   <g id="patch_4">
    <path d="M 453.6 189 
L 453.6 25.92 
" style="fill:none;stroke:#000000;stroke-linecap:square;stroke-linejoin:miter;stroke-width:0.8;"/>
   </g>
   <g id="patch_5">
    <path d="M 63 189 
L 453.6 189 
" style="fill:none;stroke:#000000;stroke-linecap:square;stroke-linejoin:miter;stroke-width:0.8;"/>
   </g>
   <g id="patch_6">
    <path d="M 63 25.92 
L 453.6 25.92 
" style="fill:none;stroke:#000000;stroke-linecap:square;stroke-linejoin:miter;stroke-width:0.8;"/>
   </g>
  </g>
 </g>
 <defs>
  <clipPath id="pd0f656d6e9">
   <rect height="163.08" width="390.6" x="63" y="25.92"/>
  </clipPath>
 </defs>
</svg>
