<?xml version="1.0" encoding="utf-8" standalone="no"?>
<!DOCTYPE svg PUBLIC "-//W3C//DTD SVG 1.1//EN"
  "http://www.w3.org/Graphics/SVG/1.1/DTD/svg11.dtd">
<!-- Created with matplotlib (https://matplotlib.org/) -->
<svg height="216pt" version="1.1" viewBox="0 0 504 216" width="504pt" xmlns="http://www.w3.org/2000/svg" xmlns:xlink="http://www.w3.org/1999/xlink">
 <metadata>
  <rdf:RDF xmlns:cc="http://creativecommons.org/ns#" xmlns:dc="http://purl.org/dc/elements/1.1/" xmlns:rdf="http://www.w3.org/1999/02/22-rdf-syntax-ns#">
   <cc:Work>
    <dc:type rdf:resource="http://purl.org/dc/dcmitype/StillImage"/>
    <dc:date>2024-11-24T08:50:25.503052</dc:date>
    <dc:format>image/svg+xml</dc:format>
    <dc:creator>
     <cc:Agent>
      <dc:title>Matplotlib v3.3.2, https://matplotlib.org/</dc:title>
     </cc:Agent>
    </dc:creator>
   </cc:Work>
  </rdf:RDF>
 </metadata>
 <defs>
  <style type="text/css">*{stroke-linecap:butt;stroke-linejoin:round;}</style>
 </defs>
 <g id="figure_1">
  <g id="patch_1">
   <path d="M 0 216 
L 504 216 
L 504 0 
L 0 0 
z
" style="fill:none;"/>
  </g>
  <g id="axes_1">
   <g id="patch_2">
    <path d="M 63 189 
L 453.6 189 
L 453.6 25.92 
L 63 25.92 
z
" style="fill:#ffffff;"/>
   </g>
   <g id="PathCollection_1">
    <path clip-path="url(#p6b40a277d1)" d="M 70.658824 193.412283 
C 71.984839 193.412283 73.256723 192.885452 74.194357 191.947817 
C 75.131992 191.010183 75.658824 189.738299 75.658824 188.412283 
C 75.658824 187.086268 75.131992 185.814384 74.194357 184.876749 
C 73.256723 183.939115 71.984839 183.412283 70.658824 183.412283 
C 69.332808 183.412283 68.060924 183.939115 67.12329 184.876749 
C 66.185655 185.814384 65.658824 187.086268 65.658824 188.412283 
C 65.658824 189.738299 66.185655 191.010183 67.12329 191.947817 
C 68.060924 192.885452 69.332808 193.412283 70.658824 193.412283 
z
" style="fill:none;stroke:#8c564b;"/>
   </g>
   <g id="PathCollection_2">
    <path clip-path="url(#p6b40a277d1)" d="M 78.317647 192.694211 
C 79.643663 192.694211 80.915546 192.167379 81.853181 191.229745 
C 82.790816 190.29211 83.317647 189.020226 83.317647 187.694211 
C 83.317647 186.368195 82.790816 185.096311 81.853181 184.158677 
C 80.915546 183.221042 79.643663 182.694211 78.317647 182.694211 
C 76.991632 182.694211 75.719748 183.221042 74.782113 184.158677 
C 73.844479 185.096311 73.317647 186.368195 73.317647 187.694211 
C 73.317647 189.020226 73.844479 190.29211 74.782113 191.229745 
C 75.719748 192.167379 76.991632 192.694211 78.317647 192.694211 
z
" style="fill:none;stroke:#8c564b;"/>
   </g>
   <g id="PathCollection_3">
    <path clip-path="url(#p6b40a277d1)" d="M 85.976471 192.197123 
C 87.302486 192.197123 88.57437 191.670291 89.512004 190.732656 
C 90.449639 189.795022 90.976471 188.523138 90.976471 187.197123 
C 90.976471 185.871107 90.449639 184.599223 89.512004 183.661589 
C 88.57437 182.723954 87.302486 182.197123 85.976471 182.197123 
C 84.650455 182.197123 83.378571 182.723954 82.440937 183.661589 
C 81.503302 184.599223 80.976471 185.871107 80.976471 187.197123 
C 80.976471 188.523138 81.503302 189.795022 82.440937 190.732656 
C 83.378571 191.670291 84.650455 192.197123 85.976471 192.197123 
z
" style="fill:none;stroke:#8c564b;"/>
   </g>
   <g id="PathCollection_4">
    <path clip-path="url(#p6b40a277d1)" d="M 93.635294 191.820704 
C 94.96131 191.820704 96.233193 191.293873 97.170828 190.356238 
C 98.108463 189.418604 98.635294 188.14672 98.635294 186.820704 
C 98.635294 185.494689 98.108463 184.222805 97.170828 183.28517 
C 96.233193 182.347536 94.96131 181.820704 93.635294 181.820704 
C 92.309279 181.820704 91.037395 182.347536 90.09976 183.28517 
C 89.162126 184.222805 88.635294 185.494689 88.635294 186.820704 
C 88.635294 188.14672 89.162126 189.418604 90.09976 190.356238 
C 91.037395 191.293873 92.309279 191.820704 93.635294 191.820704 
z
" style="fill:none;stroke:#8c564b;"/>
   </g>
   <g id="PathCollection_5">
    <path clip-path="url(#p6b40a277d1)" d="M 101.294118 191.488568 
C 102.620133 191.488568 103.892017 190.961736 104.829652 190.024102 
C 105.767286 189.086467 106.294118 187.814583 106.294118 186.488568 
C 106.294118 185.162552 105.767286 183.890669 104.829652 182.953034 
C 103.892017 182.0154 102.620133 181.488568 101.294118 181.488568 
C 99.968102 181.488568 98.696218 182.0154 97.758584 182.953034 
C 96.820949 183.890669 96.294118 185.162552 96.294118 186.488568 
C 96.294118 187.814583 96.820949 189.086467 97.758584 190.024102 
C 98.696218 190.961736 99.968102 191.488568 101.294118 191.488568 
z
" style="fill:none;stroke:#8c564b;"/>
   </g>
   <g id="PathCollection_6">
    <path clip-path="url(#p6b40a277d1)" d="M 108.952941 191.147631 
C 110.278957 191.147631 111.550841 190.6208 112.488475 189.683165 
C 113.42611 188.745531 113.952941 187.473647 113.952941 186.147631 
C 113.952941 184.821616 113.42611 183.549732 112.488475 182.612097 
C 111.550841 181.674463 110.278957 181.147631 108.952941 181.147631 
C 107.626926 181.147631 106.355042 181.674463 105.417407 182.612097 
C 104.479773 183.549732 103.952941 184.821616 103.952941 186.147631 
C 103.952941 187.473647 104.479773 188.745531 105.417407 189.683165 
C 106.355042 190.6208 107.626926 191.147631 108.952941 191.147631 
z
" style="fill:none;stroke:#8c564b;"/>
   </g>
   <g id="PathCollection_7">
    <path clip-path="url(#p6b40a277d1)" d="M 116.611765 190.758041 
C 117.93778 190.758041 119.209664 190.231209 120.147299 189.293575 
C 121.084933 188.35594 121.611765 187.084057 121.611765 185.758041 
C 121.611765 184.432026 121.084933 183.160142 120.147299 182.222507 
C 119.209664 181.284873 117.93778 180.758041 116.611765 180.758041 
C 115.285749 180.758041 114.013865 181.284873 113.076231 182.222507 
C 112.138596 183.160142 111.611765 184.432026 111.611765 185.758041 
C 111.611765 187.084057 112.138596 188.35594 113.076231 189.293575 
C 114.013865 190.231209 115.285749 190.758041 116.611765 190.758041 
z
" style="fill:none;stroke:#8c564b;"/>
   </g>
   <g id="PathCollection_8">
    <path clip-path="url(#p6b40a277d1)" d="M 124.270588 190.296565 
C 125.596604 190.296565 126.868488 189.769734 127.806122 188.832099 
C 128.743757 187.894464 129.270588 186.622581 129.270588 185.296565 
C 129.270588 183.97055 128.743757 182.698666 127.806122 181.761031 
C 126.868488 180.823397 125.596604 180.296565 124.270588 180.296565 
C 122.944573 180.296565 121.672689 180.823397 120.735054 181.761031 
C 119.79742 182.698666 119.270588 183.97055 119.270588 185.296565 
C 119.270588 186.622581 119.79742 187.894464 120.735054 188.832099 
C 121.672689 189.769734 122.944573 190.296565 124.270588 190.296565 
z
" style="fill:none;stroke:#8c564b;"/>
   </g>
   <g id="PathCollection_9">
    <path clip-path="url(#p6b40a277d1)" d="M 131.929412 189.750497 
C 133.255427 189.750497 134.527311 189.223665 135.464946 188.28603 
C 136.40258 187.348396 136.929412 186.076512 136.929412 184.750497 
C 136.929412 183.424481 136.40258 182.152597 135.464946 181.214963 
C 134.527311 180.277328 133.255427 179.750497 131.929412 179.750497 
C 130.603396 179.750497 129.331512 180.277328 128.393878 181.214963 
C 127.456243 182.152597 126.929412 183.424481 126.929412 184.750497 
C 126.929412 186.076512 127.456243 187.348396 128.393878 188.28603 
C 129.331512 189.223665 130.603396 189.750497 131.929412 189.750497 
z
" style="fill:none;stroke:#8c564b;"/>
   </g>
   <g id="PathCollection_10">
    <path clip-path="url(#p6b40a277d1)" d="M 139.588235 189.115813 
C 140.914251 189.115813 142.186135 188.588982 143.123769 187.651347 
C 144.061404 186.713713 144.588235 185.441829 144.588235 184.115813 
C 144.588235 182.789798 144.061404 181.517914 143.123769 180.580279 
C 142.186135 179.642645 140.914251 179.115813 139.588235 179.115813 
C 138.26222 179.115813 136.990336 179.642645 136.052701 180.580279 
C 135.115067 181.517914 134.588235 182.789798 134.588235 184.115813 
C 134.588235 185.441829 135.115067 186.713713 136.052701 187.651347 
C 136.990336 188.588982 138.26222 189.115813 139.588235 189.115813 
z
" style="fill:none;stroke:#8c564b;"/>
   </g>
   <g id="PathCollection_11">
    <path clip-path="url(#p6b40a277d1)" d="M 147.247059 188.394994 
C 148.573074 188.394994 149.844958 187.868163 150.782593 186.930528 
C 151.720227 185.992894 152.247059 184.72101 152.247059 183.394994 
C 152.247059 182.068979 151.720227 180.797095 150.782593 179.85946 
C 149.844958 178.921826 148.573074 178.394994 147.247059 178.394994 
C 145.921043 178.394994 144.649159 178.921826 143.711525 179.85946 
C 142.77389 180.797095 142.247059 182.068979 142.247059 183.394994 
C 142.247059 184.72101 142.77389 185.992894 143.711525 186.930528 
C 144.649159 187.868163 145.921043 188.394994 147.247059 188.394994 
z
" style="fill:none;stroke:#8c564b;"/>
   </g>
   <g id="PathCollection_12">
    <path clip-path="url(#p6b40a277d1)" d="M 154.905882 187.595125 
C 156.231898 187.595125 157.503782 187.068293 158.441416 186.130659 
C 159.379051 185.193024 159.905882 183.92114 159.905882 182.595125 
C 159.905882 181.269109 159.379051 179.997225 158.441416 179.059591 
C 157.503782 178.121956 156.231898 177.595125 154.905882 177.595125 
C 153.579867 177.595125 152.307983 178.121956 151.370348 179.059591 
C 150.432714 179.997225 149.905882 181.269109 149.905882 182.595125 
C 149.905882 183.92114 150.432714 185.193024 151.370348 186.130659 
C 152.307983 187.068293 153.579867 187.595125 154.905882 187.595125 
z
" style="fill:none;stroke:#8c564b;"/>
   </g>
   <g id="PathCollection_13">
    <path clip-path="url(#p6b40a277d1)" d="M 162.564706 186.72628 
C 163.890721 186.72628 165.162605 186.199449 166.10024 185.261814 
C 167.037874 184.324179 167.564706 183.052296 167.564706 181.72628 
C 167.564706 180.400265 167.037874 179.128381 166.10024 178.190746 
C 165.162605 177.253112 163.890721 176.72628 162.564706 176.72628 
C 161.23869 176.72628 159.966807 177.253112 159.029172 178.190746 
C 158.091537 179.128381 157.564706 180.400265 157.564706 181.72628 
C 157.564706 183.052296 158.091537 184.324179 159.029172 185.261814 
C 159.966807 186.199449 161.23869 186.72628 162.564706 186.72628 
z
" style="fill:none;stroke:#8c564b;"/>
   </g>
   <g id="PathCollection_14">
    <path clip-path="url(#p6b40a277d1)" d="M 170.223529 185.800166 
C 171.549545 185.800166 172.821429 185.273335 173.759063 184.3357 
C 174.696698 183.398066 175.223529 182.126182 175.223529 180.800166 
C 175.223529 179.474151 174.696698 178.202267 173.759063 177.264632 
C 172.821429 176.326998 171.549545 175.800166 170.223529 175.800166 
C 168.897514 175.800166 167.62563 176.326998 166.687996 177.264632 
C 165.750361 178.202267 165.223529 179.474151 165.223529 180.800166 
C 165.223529 182.126182 165.750361 183.398066 166.687996 184.3357 
C 167.62563 185.273335 168.897514 185.800166 170.223529 185.800166 
z
" style="fill:none;stroke:#8c564b;"/>
   </g>
   <g id="PathCollection_15">
    <path clip-path="url(#p6b40a277d1)" d="M 177.882353 184.829001 
C 179.208368 184.829001 180.480252 184.30217 181.417887 183.364535 
C 182.355521 182.426901 182.882353 181.155017 182.882353 179.829001 
C 182.882353 178.502986 182.355521 177.231102 181.417887 176.293467 
C 180.480252 175.355833 179.208368 174.829001 177.882353 174.829001 
C 176.556337 174.829001 175.284454 175.355833 174.346819 176.293467 
C 173.409184 177.231102 172.882353 178.502986 172.882353 179.829001 
C 172.882353 181.155017 173.409184 182.426901 174.346819 183.364535 
C 175.284454 184.30217 176.556337 184.829001 177.882353 184.829001 
z
" style="fill:none;stroke:#8c564b;"/>
   </g>
   <g id="PathCollection_16">
    <path clip-path="url(#p6b40a277d1)" d="M 185.541176 183.824623 
C 186.867192 183.824623 188.139076 183.297792 189.07671 182.360157 
C 190.014345 181.422523 190.541176 180.150639 190.541176 178.824623 
C 190.541176 177.498608 190.014345 176.226724 189.07671 175.289089 
C 188.139076 174.351455 186.867192 173.824623 185.541176 173.824623 
C 184.215161 173.824623 182.943277 174.351455 182.005643 175.289089 
C 181.068008 176.226724 180.541176 177.498608 180.541176 178.824623 
C 180.541176 180.150639 181.068008 181.422523 182.005643 182.360157 
C 182.943277 183.297792 184.215161 183.824623 185.541176 183.824623 
z
" style="fill:none;stroke:#8c564b;"/>
   </g>
   <g id="PathCollection_17">
    <path clip-path="url(#p6b40a277d1)" d="M 193.2 182.797807 
C 194.526016 182.797807 195.797899 182.270976 196.735534 181.333341 
C 197.673168 180.395706 198.2 179.123823 198.2 177.797807 
C 198.2 176.471792 197.673168 175.199908 196.735534 174.262273 
C 195.797899 173.324639 194.526016 172.797807 193.2 172.797807 
C 191.873985 172.797807 190.602101 173.324639 189.664466 174.262273 
C 188.726832 175.199908 188.2 176.471792 188.2 177.797807 
C 188.2 179.123823 188.726832 180.395706 189.664466 181.333341 
C 190.602101 182.270976 191.873985 182.797807 193.2 182.797807 
z
" style="fill:none;stroke:#8c564b;"/>
   </g>
   <g id="PathCollection_18">
    <path clip-path="url(#p6b40a277d1)" d="M 200.858824 181.75777 
C 202.184839 181.75777 203.456723 181.230939 204.394357 180.293304 
C 205.331992 179.35567 205.858824 178.083786 205.858824 176.75777 
C 205.858824 175.431755 205.331992 174.159871 204.394357 173.222236 
C 203.456723 172.284602 202.184839 171.75777 200.858824 171.75777 
C 199.532808 171.75777 198.260924 172.284602 197.32329 173.222236 
C 196.385655 174.159871 195.858824 175.431755 195.858824 176.75777 
C 195.858824 178.083786 196.385655 179.35567 197.32329 180.293304 
C 198.260924 181.230939 199.532808 181.75777 200.858824 181.75777 
z
" style="fill:none;stroke:#8c564b;"/>
   </g>
   <g id="PathCollection_19">
    <path clip-path="url(#p6b40a277d1)" d="M 208.517647 180.711855 
C 209.843663 180.711855 211.115546 180.185023 212.053181 179.247389 
C 212.990816 178.309754 213.517647 177.03787 213.517647 175.711855 
C 213.517647 174.385839 212.990816 173.113955 212.053181 172.176321 
C 211.115546 171.238686 209.843663 170.711855 208.517647 170.711855 
C 207.191632 170.711855 205.919748 171.238686 204.982113 172.176321 
C 204.044479 173.113955 203.517647 174.385839 203.517647 175.711855 
C 203.517647 177.03787 204.044479 178.309754 204.982113 179.247389 
C 205.919748 180.185023 207.191632 180.711855 208.517647 180.711855 
z
" style="fill:none;stroke:#8c564b;"/>
   </g>
   <g id="PathCollection_20">
    <path clip-path="url(#p6b40a277d1)" d="M 216.176471 179.665367 
C 217.502486 179.665367 218.77437 179.138535 219.712004 178.200901 
C 220.649639 177.263266 221.176471 175.991382 221.176471 174.665367 
C 221.176471 173.339351 220.649639 172.067467 219.712004 171.129833 
C 218.77437 170.192198 217.502486 169.665367 216.176471 169.665367 
C 214.850455 169.665367 213.578571 170.192198 212.640937 171.129833 
C 211.703302 172.067467 211.176471 173.339351 211.176471 174.665367 
C 211.176471 175.991382 211.703302 177.263266 212.640937 178.200901 
C 213.578571 179.138535 214.850455 179.665367 216.176471 179.665367 
z
" style="fill:none;stroke:#8c564b;"/>
   </g>
   <g id="PathCollection_21">
    <path clip-path="url(#p6b40a277d1)" d="M 223.835294 178.621557 
C 225.16131 178.621557 226.433193 178.094725 227.370828 177.157091 
C 228.308463 176.219456 228.835294 174.947572 228.835294 173.621557 
C 228.835294 172.295541 228.308463 171.023658 227.370828 170.086023 
C 226.433193 169.148389 225.16131 168.621557 223.835294 168.621557 
C 222.509279 168.621557 221.237395 169.148389 220.29976 170.086023 
C 219.362126 171.023658 218.835294 172.295541 218.835294 173.621557 
C 218.835294 174.947572 219.362126 176.219456 220.29976 177.157091 
C 221.237395 178.094725 222.509279 178.621557 223.835294 178.621557 
z
" style="fill:none;stroke:#8c564b;"/>
   </g>
   <g id="PathCollection_22">
    <path clip-path="url(#p6b40a277d1)" d="M 231.494118 177.581725 
C 232.820133 177.581725 234.092017 177.054893 235.029652 176.117259 
C 235.967286 175.179624 236.494118 173.90774 236.494118 172.581725 
C 236.494118 171.255709 235.967286 169.983825 235.029652 169.046191 
C 234.092017 168.108556 232.820133 167.581725 231.494118 167.581725 
C 230.168102 167.581725 228.896218 168.108556 227.958584 169.046191 
C 227.020949 169.983825 226.494118 171.255709 226.494118 172.581725 
C 226.494118 173.90774 227.020949 175.179624 227.958584 176.117259 
C 228.896218 177.054893 230.168102 177.581725 231.494118 177.581725 
z
" style="fill:none;stroke:#8c564b;"/>
   </g>
   <g id="PathCollection_23">
    <path clip-path="url(#p6b40a277d1)" d="M 239.152941 176.545431 
C 240.478957 176.545431 241.750841 176.0186 242.688475 175.080965 
C 243.62611 174.143331 244.152941 172.871447 244.152941 171.545431 
C 244.152941 170.219416 243.62611 168.947532 242.688475 168.009897 
C 241.750841 167.072263 240.478957 166.545431 239.152941 166.545431 
C 237.826926 166.545431 236.555042 167.072263 235.617407 168.009897 
C 234.679773 168.947532 234.152941 170.219416 234.152941 171.545431 
C 234.152941 172.871447 234.679773 174.143331 235.617407 175.080965 
C 236.555042 176.0186 237.826926 176.545431 239.152941 176.545431 
z
" style="fill:none;stroke:#8c564b;"/>
   </g>
   <g id="PathCollection_24">
    <path clip-path="url(#p6b40a277d1)" d="M 246.811765 175.510801 
C 248.13778 175.510801 249.409664 174.983969 250.347299 174.046335 
C 251.284933 173.1087 251.811765 171.836816 251.811765 170.510801 
C 251.811765 169.184785 251.284933 167.912901 250.347299 166.975267 
C 249.409664 166.037632 248.13778 165.510801 246.811765 165.510801 
C 245.485749 165.510801 244.213865 166.037632 243.276231 166.975267 
C 242.338596 167.912901 241.811765 169.184785 241.811765 170.510801 
C 241.811765 171.836816 242.338596 173.1087 243.276231 174.046335 
C 244.213865 174.983969 245.485749 175.510801 246.811765 175.510801 
z
" style="fill:none;stroke:#8c564b;"/>
   </g>
   <g id="PathCollection_25">
    <path clip-path="url(#p6b40a277d1)" d="M 254.470588 174.474899 
C 255.796604 174.474899 257.068488 173.948067 258.006122 173.010433 
C 258.943757 172.072798 259.470588 170.800914 259.470588 169.474899 
C 259.470588 168.148883 258.943757 166.877 258.006122 165.939365 
C 257.068488 165.001731 255.796604 164.474899 254.470588 164.474899 
C 253.144573 164.474899 251.872689 165.001731 250.935054 165.939365 
C 249.99742 166.877 249.470588 168.148883 249.470588 169.474899 
C 249.470588 170.800914 249.99742 172.072798 250.935054 173.010433 
C 251.872689 173.948067 253.144573 174.474899 254.470588 174.474899 
z
" style="fill:none;stroke:#8c564b;"/>
   </g>
   <g id="PathCollection_26">
    <path clip-path="url(#p6b40a277d1)" d="M 262.129412 173.434165 
C 263.455427 173.434165 264.727311 172.907333 265.664946 171.969698 
C 266.60258 171.032064 267.129412 169.76018 267.129412 168.434165 
C 267.129412 167.108149 266.60258 165.836265 265.664946 164.898631 
C 264.727311 163.960996 263.455427 163.434165 262.129412 163.434165 
C 260.803396 163.434165 259.531512 163.960996 258.593878 164.898631 
C 257.656243 165.836265 257.129412 167.108149 257.129412 168.434165 
C 257.129412 169.76018 257.656243 171.032064 258.593878 171.969698 
C 259.531512 172.907333 260.803396 173.434165 262.129412 173.434165 
z
" style="fill:none;stroke:#8c564b;"/>
   </g>
   <g id="PathCollection_27">
    <path clip-path="url(#p6b40a277d1)" d="M 269.788235 172.384883 
C 271.114251 172.384883 272.386135 171.858052 273.323769 170.920417 
C 274.261404 169.982783 274.788235 168.710899 274.788235 167.384883 
C 274.788235 166.058868 274.261404 164.786984 273.323769 163.849349 
C 272.386135 162.911715 271.114251 162.384883 269.788235 162.384883 
C 268.46222 162.384883 267.190336 162.911715 266.252701 163.849349 
C 265.315067 164.786984 264.788235 166.058868 264.788235 167.384883 
C 264.788235 168.710899 265.315067 169.982783 266.252701 170.920417 
C 267.190336 171.858052 268.46222 172.384883 269.788235 172.384883 
z
" style="fill:none;stroke:#8c564b;"/>
   </g>
   <g id="PathCollection_28">
    <path clip-path="url(#p6b40a277d1)" d="M 277.447059 171.323688 
C 278.773074 171.323688 280.044958 170.796856 280.982593 169.859221 
C 281.920227 168.921587 282.447059 167.649703 282.447059 166.323688 
C 282.447059 164.997672 281.920227 163.725788 280.982593 162.788154 
C 280.044958 161.850519 278.773074 161.323688 277.447059 161.323688 
C 276.121043 161.323688 274.849159 161.850519 273.911525 162.788154 
C 272.97389 163.725788 272.447059 164.997672 272.447059 166.323688 
C 272.447059 167.649703 272.97389 168.921587 273.911525 169.859221 
C 274.849159 170.796856 276.121043 171.323688 277.447059 171.323688 
z
" style="fill:none;stroke:#8c564b;"/>
   </g>
   <g id="PathCollection_29">
    <path clip-path="url(#p6b40a277d1)" d="M 285.105882 170.248057 
C 286.431898 170.248057 287.703782 169.721225 288.641416 168.783591 
C 289.579051 167.845956 290.105882 166.574072 290.105882 165.248057 
C 290.105882 163.922041 289.579051 162.650157 288.641416 161.712523 
C 287.703782 160.774888 286.431898 160.248057 285.105882 160.248057 
C 283.779867 160.248057 282.507983 160.774888 281.570348 161.712523 
C 280.632714 162.650157 280.105882 163.922041 280.105882 165.248057 
C 280.105882 166.574072 280.632714 167.845956 281.570348 168.783591 
C 282.507983 169.721225 283.779867 170.248057 285.105882 170.248057 
z
" style="fill:none;stroke:#8c564b;"/>
   </g>
   <g id="PathCollection_30">
    <path clip-path="url(#p6b40a277d1)" d="M 292.764706 169.156814 
C 294.090721 169.156814 295.362605 168.629982 296.30024 167.692348 
C 297.237874 166.754713 297.764706 165.482829 297.764706 164.156814 
C 297.764706 162.830798 297.237874 161.558915 296.30024 160.62128 
C 295.362605 159.683645 294.090721 159.156814 292.764706 159.156814 
C 291.43869 159.156814 290.166807 159.683645 289.229172 160.62128 
C 288.291537 161.558915 287.764706 162.830798 287.764706 164.156814 
C 287.764706 165.482829 288.291537 166.754713 289.229172 167.692348 
C 290.166807 168.629982 291.43869 169.156814 292.764706 169.156814 
z
" style="fill:none;stroke:#8c564b;"/>
   </g>
   <g id="PathCollection_31">
    <path clip-path="url(#p6b40a277d1)" d="M 300.423529 168.050591 
C 301.749545 168.050591 303.021429 167.523759 303.959063 166.586125 
C 304.896698 165.64849 305.423529 164.376606 305.423529 163.050591 
C 305.423529 161.724575 304.896698 160.452691 303.959063 159.515057 
C 303.021429 158.577422 301.749545 158.050591 300.423529 158.050591 
C 299.097514 158.050591 297.82563 158.577422 296.887996 159.515057 
C 295.950361 160.452691 295.423529 161.724575 295.423529 163.050591 
C 295.423529 164.376606 295.950361 165.64849 296.887996 166.586125 
C 297.82563 167.523759 299.097514 168.050591 300.423529 168.050591 
z
" style="fill:none;stroke:#8c564b;"/>
   </g>
   <g id="PathCollection_32">
    <path clip-path="url(#p6b40a277d1)" d="M 308.082353 166.932251 
C 309.408368 166.932251 310.680252 166.40542 311.617887 165.467785 
C 312.555521 164.530151 313.082353 163.258267 313.082353 161.932251 
C 313.082353 160.606236 312.555521 159.334352 311.617887 158.396717 
C 310.680252 157.459083 309.408368 156.932251 308.082353 156.932251 
C 306.756337 156.932251 305.484454 157.459083 304.546819 158.396717 
C 303.609184 159.334352 303.082353 160.606236 303.082353 161.932251 
C 303.082353 163.258267 303.609184 164.530151 304.546819 165.467785 
C 305.484454 166.40542 306.756337 166.932251 308.082353 166.932251 
z
" style="fill:none;stroke:#8c564b;"/>
   </g>
   <g id="PathCollection_33">
    <path clip-path="url(#p6b40a277d1)" d="M 315.741176 165.807256 
C 317.067192 165.807256 318.339076 165.280424 319.27671 164.34279 
C 320.214345 163.405155 320.741176 162.133271 320.741176 160.807256 
C 320.741176 159.48124 320.214345 158.209356 319.27671 157.271722 
C 318.339076 156.334087 317.067192 155.807256 315.741176 155.807256 
C 314.415161 155.807256 313.143277 156.334087 312.205643 157.271722 
C 311.268008 158.209356 310.741176 159.48124 310.741176 160.807256 
C 310.741176 162.133271 311.268008 163.405155 312.205643 164.34279 
C 313.143277 165.280424 314.415161 165.807256 315.741176 165.807256 
z
" style="fill:none;stroke:#8c564b;"/>
   </g>
   <g id="PathCollection_34">
    <path clip-path="url(#p6b40a277d1)" d="M 323.4 164.683943 
C 324.726016 164.683943 325.997899 164.157112 326.935534 163.219477 
C 327.873168 162.281842 328.4 161.009959 328.4 159.683943 
C 328.4 158.357928 327.873168 157.086044 326.935534 156.148409 
C 325.997899 155.210775 324.726016 154.683943 323.4 154.683943 
C 322.073985 154.683943 320.802101 155.210775 319.864466 156.148409 
C 318.926832 157.086044 318.4 158.357928 318.4 159.683943 
C 318.4 161.009959 318.926832 162.281842 319.864466 163.219477 
C 320.802101 164.157112 322.073985 164.683943 323.4 164.683943 
z
" style="fill:none;stroke:#8c564b;"/>
   </g>
   <g id="PathCollection_35">
    <path clip-path="url(#p6b40a277d1)" d="M 331.058824 163.573725 
C 332.384839 163.573725 333.656723 163.046894 334.594357 162.109259 
C 335.531992 161.171624 336.058824 159.899741 336.058824 158.573725 
C 336.058824 157.24771 335.531992 155.975826 334.594357 155.038191 
C 333.656723 154.100557 332.384839 153.573725 331.058824 153.573725 
C 329.732808 153.573725 328.460924 154.100557 327.52329 155.038191 
C 326.585655 155.975826 326.058824 157.24771 326.058824 158.573725 
C 326.058824 159.899741 326.585655 161.171624 327.52329 162.109259 
C 328.460924 163.046894 329.732808 163.573725 331.058824 163.573725 
z
" style="fill:none;stroke:#8c564b;"/>
   </g>
   <g id="PathCollection_36">
    <path clip-path="url(#p6b40a277d1)" d="M 338.717647 162.491164 
C 340.043663 162.491164 341.315546 161.964332 342.253181 161.026698 
C 343.190816 160.089063 343.717647 158.817179 343.717647 157.491164 
C 343.717647 156.165148 343.190816 154.893264 342.253181 153.95563 
C 341.315546 153.017995 340.043663 152.491164 338.717647 152.491164 
C 337.391632 152.491164 336.119748 153.017995 335.182113 153.95563 
C 334.244479 154.893264 333.717647 156.165148 333.717647 157.491164 
C 333.717647 158.817179 334.244479 160.089063 335.182113 161.026698 
C 336.119748 161.964332 337.391632 162.491164 338.717647 162.491164 
z
" style="fill:none;stroke:#8c564b;"/>
   </g>
   <g id="PathCollection_37">
    <path clip-path="url(#p6b40a277d1)" d="M 346.376471 161.453927 
C 347.702486 161.453927 348.97437 160.927096 349.912004 159.989461 
C 350.849639 159.051827 351.376471 157.779943 351.376471 156.453927 
C 351.376471 155.127912 350.849639 153.856028 349.912004 152.918393 
C 348.97437 151.980759 347.702486 151.453927 346.376471 151.453927 
C 345.050455 151.453927 343.778571 151.980759 342.840937 152.918393 
C 341.903302 153.856028 341.376471 155.127912 341.376471 156.453927 
C 341.376471 157.779943 341.903302 159.051827 342.840937 159.989461 
C 343.778571 160.927096 345.050455 161.453927 346.376471 161.453927 
z
" style="fill:none;stroke:#8c564b;"/>
   </g>
   <g id="PathCollection_38">
    <path clip-path="url(#p6b40a277d1)" d="M 354.035294 160.482595 
C 355.36131 160.482595 356.633193 159.955764 357.570828 159.018129 
C 358.508463 158.080495 359.035294 156.808611 359.035294 155.482595 
C 359.035294 154.15658 358.508463 152.884696 357.570828 151.947061 
C 356.633193 151.009427 355.36131 150.482595 354.035294 150.482595 
C 352.709279 150.482595 351.437395 151.009427 350.49976 151.947061 
C 349.562126 152.884696 349.035294 154.15658 349.035294 155.482595 
C 349.035294 156.808611 349.562126 158.080495 350.49976 159.018129 
C 351.437395 159.955764 352.709279 160.482595 354.035294 160.482595 
z
" style="fill:none;stroke:#8c564b;"/>
   </g>
   <g id="PathCollection_39">
    <path clip-path="url(#p6b40a277d1)" d="M 361.694118 159.600307 
C 363.020133 159.600307 364.292017 159.073475 365.229652 158.135841 
C 366.167286 157.198206 366.694118 155.926322 366.694118 154.600307 
C 366.694118 153.274291 366.167286 152.002408 365.229652 151.064773 
C 364.292017 150.127138 363.020133 149.600307 361.694118 149.600307 
C 360.368102 149.600307 359.096218 150.127138 358.158584 151.064773 
C 357.220949 152.002408 356.694118 153.274291 356.694118 154.600307 
C 356.694118 155.926322 357.220949 157.198206 358.158584 158.135841 
C 359.096218 159.073475 360.368102 159.600307 361.694118 159.600307 
z
" style="fill:none;stroke:#8c564b;"/>
   </g>
   <g id="PathCollection_40">
    <path clip-path="url(#p6b40a277d1)" d="M 369.352941 158.83223 
C 370.678957 158.83223 371.950841 158.305398 372.888475 157.367764 
C 373.82611 156.430129 374.352941 155.158245 374.352941 153.83223 
C 374.352941 152.506214 373.82611 151.23433 372.888475 150.296696 
C 371.950841 149.359061 370.678957 148.83223 369.352941 148.83223 
C 368.026926 148.83223 366.755042 149.359061 365.817407 150.296696 
C 364.879773 151.23433 364.352941 152.506214 364.352941 153.83223 
C 364.352941 155.158245 364.879773 156.430129 365.817407 157.367764 
C 366.755042 158.305398 368.026926 158.83223 369.352941 158.83223 
z
" style="fill:none;stroke:#8c564b;"/>
   </g>
   <g id="PathCollection_41">
    <path clip-path="url(#p6b40a277d1)" d="M 377.011765 158.204834 
C 378.33778 158.204834 379.609664 157.678002 380.547299 156.740368 
C 381.484933 155.802733 382.011765 154.530849 382.011765 153.204834 
C 382.011765 151.878818 381.484933 150.606934 380.547299 149.6693 
C 379.609664 148.731665 378.33778 148.204834 377.011765 148.204834 
C 375.685749 148.204834 374.413865 148.731665 373.476231 149.6693 
C 372.538596 150.606934 372.011765 151.878818 372.011765 153.204834 
C 372.011765 154.530849 372.538596 155.802733 373.476231 156.740368 
C 374.413865 157.678002 375.685749 158.204834 377.011765 158.204834 
z
" style="fill:none;stroke:#8c564b;"/>
   </g>
   <g id="PathCollection_42">
    <path clip-path="url(#p6b40a277d1)" d="M 384.670588 157.744952 
C 385.996604 157.744952 387.268488 157.21812 388.206122 156.280486 
C 389.143757 155.342851 389.670588 154.070967 389.670588 152.744952 
C 389.670588 151.418936 389.143757 150.147053 388.206122 149.209418 
C 387.268488 148.271784 385.996604 147.744952 384.670588 147.744952 
C 383.344573 147.744952 382.072689 148.271784 381.135054 149.209418 
C 380.19742 150.147053 379.670588 151.418936 379.670588 152.744952 
C 379.670588 154.070967 380.19742 155.342851 381.135054 156.280486 
C 382.072689 157.21812 383.344573 157.744952 384.670588 157.744952 
z
" style="fill:none;stroke:#8c564b;"/>
   </g>
   <g id="PathCollection_43">
    <path clip-path="url(#p6b40a277d1)" d="M 392.329412 157.478618 
C 393.655427 157.478618 394.927311 156.951786 395.864946 156.014152 
C 396.80258 155.076517 397.329412 153.804633 397.329412 152.478618 
C 397.329412 151.152602 396.80258 149.880719 395.864946 148.943084 
C 394.927311 148.005449 393.655427 147.478618 392.329412 147.478618 
C 391.003396 147.478618 389.731512 148.005449 388.793878 148.943084 
C 387.856243 149.880719 387.329412 151.152602 387.329412 152.478618 
C 387.329412 153.804633 387.856243 155.076517 388.793878 156.014152 
C 389.731512 156.951786 391.003396 157.478618 392.329412 157.478618 
z
" style="fill:none;stroke:#8c564b;"/>
   </g>
   <g id="PathCollection_44">
    <path clip-path="url(#p6b40a277d1)" d="M 399.988235 157.42965 
C 401.314251 157.42965 402.586135 156.902818 403.523769 155.965184 
C 404.461404 155.027549 404.988235 153.755665 404.988235 152.42965 
C 404.988235 151.103634 404.461404 149.831751 403.523769 148.894116 
C 402.586135 147.956481 401.314251 147.42965 399.988235 147.42965 
C 398.66222 147.42965 397.390336 147.956481 396.452701 148.894116 
C 395.515067 149.831751 394.988235 151.103634 394.988235 152.42965 
C 394.988235 153.755665 395.515067 155.027549 396.452701 155.965184 
C 397.390336 156.902818 398.66222 157.42965 399.988235 157.42965 
z
" style="fill:none;stroke:#8c564b;"/>
   </g>
   <g id="PathCollection_45">
    <path clip-path="url(#p6b40a277d1)" d="M 407.647059 157.617981 
C 408.973074 157.617981 410.244958 157.09115 411.182593 156.153515 
C 412.120227 155.215881 412.647059 153.943997 412.647059 152.617981 
C 412.647059 151.291966 412.120227 150.020082 411.182593 149.082448 
C 410.244958 148.144813 408.973074 147.617981 407.647059 147.617981 
C 406.321043 147.617981 405.049159 148.144813 404.111525 149.082448 
C 403.17389 150.020082 402.647059 151.291966 402.647059 152.617981 
C 402.647059 153.943997 403.17389 155.215881 404.111525 156.153515 
C 405.049159 157.09115 406.321043 157.617981 407.647059 157.617981 
z
" style="fill:none;stroke:#8c564b;"/>
   </g>
   <g id="PathCollection_46">
    <path clip-path="url(#p6b40a277d1)" d="M 415.305882 158.057706 
C 416.631898 158.057706 417.903782 157.530875 418.841416 156.59324 
C 419.779051 155.655606 420.305882 154.383722 420.305882 153.057706 
C 420.305882 151.731691 419.779051 150.459807 418.841416 149.522173 
C 417.903782 148.584538 416.631898 148.057706 415.305882 148.057706 
C 413.979867 148.057706 412.707983 148.584538 411.770348 149.522173 
C 410.832714 150.459807 410.305882 151.731691 410.305882 153.057706 
C 410.305882 154.383722 410.832714 155.655606 411.770348 156.59324 
C 412.707983 157.530875 413.979867 158.057706 415.305882 158.057706 
z
" style="fill:none;stroke:#8c564b;"/>
   </g>
   <g id="PathCollection_47">
    <path clip-path="url(#p6b40a277d1)" d="M 422.964706 158.754832 
C 424.290721 158.754832 425.562605 158.228001 426.50024 157.290366 
C 427.437874 156.352732 427.964706 155.080848 427.964706 153.754832 
C 427.964706 152.428817 427.437874 151.156933 426.50024 150.219298 
C 425.562605 149.281664 424.290721 148.754832 422.964706 148.754832 
C 421.63869 148.754832 420.366807 149.281664 419.429172 150.219298 
C 418.491537 151.156933 417.964706 152.428817 417.964706 153.754832 
C 417.964706 155.080848 418.491537 156.352732 419.429172 157.290366 
C 420.366807 158.228001 421.63869 158.754832 422.964706 158.754832 
z
" style="fill:none;stroke:#8c564b;"/>
   </g>
   <g id="PathCollection_48">
    <path clip-path="url(#p6b40a277d1)" d="M 430.623529 159.70472 
C 431.949545 159.70472 433.221429 159.177888 434.159063 158.240254 
C 435.096698 157.302619 435.623529 156.030735 435.623529 154.70472 
C 435.623529 153.378704 435.096698 152.106821 434.159063 151.169186 
C 433.221429 150.231551 431.949545 149.70472 430.623529 149.70472 
C 429.297514 149.70472 428.02563 150.231551 427.087996 151.169186 
C 426.150361 152.106821 425.623529 153.378704 425.623529 154.70472 
C 425.623529 156.030735 426.150361 157.302619 427.087996 158.240254 
C 428.02563 159.177888 429.297514 159.70472 430.623529 159.70472 
z
" style="fill:none;stroke:#8c564b;"/>
   </g>
   <g id="PathCollection_49">
    <path clip-path="url(#p6b40a277d1)" d="M 438.282353 160.889194 
C 439.608368 160.889194 440.880252 160.362363 441.817887 159.424728 
C 442.755521 158.487093 443.282353 157.21521 443.282353 155.889194 
C 443.282353 154.563179 442.755521 153.291295 441.817887 152.35366 
C 440.880252 151.416026 439.608368 150.889194 438.282353 150.889194 
C 436.956337 150.889194 435.684454 151.416026 434.746819 152.35366 
C 433.809184 153.291295 433.282353 154.563179 433.282353 155.889194 
C 433.282353 157.21521 433.809184 158.487093 434.746819 159.424728 
C 435.684454 160.362363 436.956337 160.889194 438.282353 160.889194 
z
" style="fill:none;stroke:#8c564b;"/>
   </g>
   <g id="PathCollection_50">
    <path clip-path="url(#p6b40a277d1)" d="M 445.941176 162.273308 
C 447.267192 162.273308 448.539076 161.746476 449.47671 160.808842 
C 450.414345 159.871207 450.941176 158.599323 450.941176 157.273308 
C 450.941176 155.947292 450.414345 154.675409 449.47671 153.737774 
C 448.539076 152.800139 447.267192 152.273308 445.941176 152.273308 
C 444.615161 152.273308 443.343277 152.800139 442.405643 153.737774 
C 441.468008 154.675409 440.941176 155.947292 440.941176 157.273308 
C 440.941176 158.599323 441.468008 159.871207 442.405643 160.808842 
C 443.343277 161.746476 444.615161 162.273308 445.941176 162.273308 
z
" style="fill:none;stroke:#8c564b;"/>
   </g>
   <g id="PathCollection_51">
    <path clip-path="url(#p6b40a277d1)" d="M 453.6 163.801744 
C 454.926016 163.801744 456.197899 163.274913 457.135534 162.337278 
C 458.073168 161.399644 458.6 160.12776 458.6 158.801744 
C 458.6 157.475729 458.073168 156.203845 457.135534 155.266211 
C 456.197899 154.328576 454.926016 153.801744 453.6 153.801744 
C 452.273985 153.801744 451.002101 154.328576 450.064466 155.266211 
C 449.126832 156.203845 448.6 157.475729 448.6 158.801744 
C 448.6 160.12776 449.126832 161.399644 450.064466 162.337278 
C 451.002101 163.274913 452.273985 163.801744 453.6 163.801744 
z
" style="fill:none;stroke:#8c564b;"/>
   </g>
   <g id="PathCollection_52">
    <defs>
     <path d="M 0 5 
C 1.326016 5 2.597899 4.473168 3.535534 3.535534 
C 4.473168 2.597899 5 1.326016 5 0 
C 5 -1.326016 4.473168 -2.597899 3.535534 -3.535534 
C 2.597899 -4.473168 1.326016 -5 0 -5 
C -1.326016 -5 -2.597899 -4.473168 -3.535534 -3.535534 
C -4.473168 -2.597899 -5 -1.326016 -5 0 
C -5 1.326016 -4.473168 2.597899 -3.535534 3.535534 
C -2.597899 4.473168 -1.326016 5 0 5 
z
" id="mbb460f34e2" style="stroke:#8c564b;"/>
    </defs>
    <g clip-path="url(#p6b40a277d1)">
     <use style="fill:#8c564b;stroke:#8c564b;" x="70.658824" xlink:href="#mbb460f34e2" y="188.33473"/>
    </g>
   </g>
   <g id="PathCollection_53">
    <g clip-path="url(#p6b40a277d1)">
     <use style="fill:#8c564b;stroke:#8c564b;" x="78.317647" xlink:href="#mbb460f34e2" y="187.738623"/>
    </g>
   </g>
   <g id="PathCollection_54">
    <g clip-path="url(#p6b40a277d1)">
     <use style="fill:#8c564b;stroke:#8c564b;" x="85.976471" xlink:href="#mbb460f34e2" y="187.367675"/>
    </g>
   </g>
   <g id="PathCollection_55">
    <g clip-path="url(#p6b40a277d1)">
     <use style="fill:#8c564b;stroke:#8c564b;" x="93.635294" xlink:href="#mbb460f34e2" y="187.116875"/>
    </g>
   </g>
   <g id="PathCollection_56">
    <g clip-path="url(#p6b40a277d1)">
     <use style="fill:#8c564b;stroke:#8c564b;" x="101.294118" xlink:href="#mbb460f34e2" y="186.906053"/>
    </g>
   </g>
   <g id="PathCollection_57">
    <g clip-path="url(#p6b40a277d1)">
     <use style="fill:#8c564b;stroke:#8c564b;" x="108.952941" xlink:href="#mbb460f34e2" y="186.681857"/>
    </g>
   </g>
   <g id="PathCollection_58">
    <g clip-path="url(#p6b40a277d1)">
     <use style="fill:#8c564b;stroke:#8c564b;" x="116.611765" xlink:href="#mbb460f34e2" y="186.401687"/>
    </g>
   </g>
   <g id="PathCollection_59">
    <g clip-path="url(#p6b40a277d1)">
     <use style="fill:#8c564b;stroke:#8c564b;" x="124.270588" xlink:href="#mbb460f34e2" y="186.042622"/>
    </g>
   </g>
   <g id="PathCollection_60">
    <g clip-path="url(#p6b40a277d1)">
     <use style="fill:#8c564b;stroke:#8c564b;" x="131.929412" xlink:href="#mbb460f34e2" y="185.592264"/>
    </g>
   </g>
   <g id="PathCollection_61">
    <g clip-path="url(#p6b40a277d1)">
     <use style="fill:#8c564b;stroke:#8c564b;" x="139.588235" xlink:href="#mbb460f34e2" y="185.047315"/>
    </g>
   </g>
   <g id="PathCollection_62">
    <g clip-path="url(#p6b40a277d1)">
     <use style="fill:#8c564b;stroke:#8c564b;" x="147.247059" xlink:href="#mbb460f34e2" y="184.411261"/>
    </g>
   </g>
   <g id="PathCollection_63">
    <g clip-path="url(#p6b40a277d1)">
     <use style="fill:#8c564b;stroke:#8c564b;" x="154.905882" xlink:href="#mbb460f34e2" y="183.692369"/>
    </g>
   </g>
   <g id="PathCollection_64">
    <g clip-path="url(#p6b40a277d1)">
     <use style="fill:#8c564b;stroke:#8c564b;" x="162.564706" xlink:href="#mbb460f34e2" y="182.901974"/>
    </g>
   </g>
   <g id="PathCollection_65">
    <g clip-path="url(#p6b40a277d1)">
     <use style="fill:#8c564b;stroke:#8c564b;" x="170.223529" xlink:href="#mbb460f34e2" y="182.053055"/>
    </g>
   </g>
   <g id="PathCollection_66">
    <g clip-path="url(#p6b40a277d1)">
     <use style="fill:#8c564b;stroke:#8c564b;" x="177.882353" xlink:href="#mbb460f34e2" y="181.159056"/>
    </g>
   </g>
   <g id="PathCollection_67">
    <g clip-path="url(#p6b40a277d1)">
     <use style="fill:#8c564b;stroke:#8c564b;" x="185.541176" xlink:href="#mbb460f34e2" y="180.232959"/>
    </g>
   </g>
   <g id="PathCollection_68">
    <g clip-path="url(#p6b40a277d1)">
     <use style="fill:#8c564b;stroke:#8c564b;" x="193.2" xlink:href="#mbb460f34e2" y="179.286567"/>
    </g>
   </g>
   <g id="PathCollection_69">
    <g clip-path="url(#p6b40a277d1)">
     <use style="fill:#8c564b;stroke:#8c564b;" x="200.858824" xlink:href="#mbb460f34e2" y="178.329998"/>
    </g>
   </g>
   <g id="PathCollection_70">
    <g clip-path="url(#p6b40a277d1)">
     <use style="fill:#8c564b;stroke:#8c564b;" x="208.517647" xlink:href="#mbb460f34e2" y="177.371355"/>
    </g>
   </g>
   <g id="PathCollection_71">
    <g clip-path="url(#p6b40a277d1)">
     <use style="fill:#8c564b;stroke:#8c564b;" x="216.176471" xlink:href="#mbb460f34e2" y="176.416563"/>
    </g>
   </g>
   <g id="PathCollection_72">
    <g clip-path="url(#p6b40a277d1)">
     <use style="fill:#8c564b;stroke:#8c564b;" x="223.835294" xlink:href="#mbb460f34e2" y="175.469356"/>
    </g>
   </g>
   <g id="PathCollection_73">
    <g clip-path="url(#p6b40a277d1)">
     <use style="fill:#8c564b;stroke:#8c564b;" x="231.494118" xlink:href="#mbb460f34e2" y="174.531381"/>
    </g>
   </g>
   <g id="PathCollection_74">
    <g clip-path="url(#p6b40a277d1)">
     <use style="fill:#8c564b;stroke:#8c564b;" x="239.152941" xlink:href="#mbb460f34e2" y="173.60242"/>
    </g>
   </g>
   <g id="PathCollection_75">
    <g clip-path="url(#p6b40a277d1)">
     <use style="fill:#8c564b;stroke:#8c564b;" x="246.811765" xlink:href="#mbb460f34e2" y="172.680696"/>
    </g>
   </g>
   <g id="PathCollection_76">
    <g clip-path="url(#p6b40a277d1)">
     <use style="fill:#8c564b;stroke:#8c564b;" x="254.470588" xlink:href="#mbb460f34e2" y="171.763248"/>
    </g>
   </g>
   <g id="PathCollection_77">
    <g clip-path="url(#p6b40a277d1)">
     <use style="fill:#8c564b;stroke:#8c564b;" x="262.129412" xlink:href="#mbb460f34e2" y="170.846364"/>
    </g>
   </g>
   <g id="PathCollection_78">
    <g clip-path="url(#p6b40a277d1)">
     <use style="fill:#8c564b;stroke:#8c564b;" x="269.788235" xlink:href="#mbb460f34e2" y="169.926038"/>
    </g>
   </g>
   <g id="PathCollection_79">
    <g clip-path="url(#p6b40a277d1)">
     <use style="fill:#8c564b;stroke:#8c564b;" x="277.447059" xlink:href="#mbb460f34e2" y="168.998451"/>
    </g>
   </g>
   <g id="PathCollection_80">
    <g clip-path="url(#p6b40a277d1)">
     <use style="fill:#8c564b;stroke:#8c564b;" x="285.105882" xlink:href="#mbb460f34e2" y="168.060437"/>
    </g>
   </g>
   <g id="PathCollection_81">
    <g clip-path="url(#p6b40a277d1)">
     <use style="fill:#8c564b;stroke:#8c564b;" x="292.764706" xlink:href="#mbb460f34e2" y="167.109936"/>
    </g>
   </g>
   <g id="PathCollection_82">
    <g clip-path="url(#p6b40a277d1)">
     <use style="fill:#8c564b;stroke:#8c564b;" x="300.423529" xlink:href="#mbb460f34e2" y="166.146392"/>
    </g>
   </g>
   <g id="PathCollection_83">
    <g clip-path="url(#p6b40a277d1)">
     <use style="fill:#8c564b;stroke:#8c564b;" x="308.082353" xlink:href="#mbb460f34e2" y="165.171106"/>
    </g>
   </g>
   <g id="PathCollection_84">
    <g clip-path="url(#p6b40a277d1)">
     <use style="fill:#8c564b;stroke:#8c564b;" x="315.741176" xlink:href="#mbb460f34e2" y="164.187492"/>
    </g>
   </g>
   <g id="PathCollection_85">
    <g clip-path="url(#p6b40a277d1)">
     <use style="fill:#8c564b;stroke:#8c564b;" x="323.4" xlink:href="#mbb460f34e2" y="163.201248"/>
    </g>
   </g>
   <g id="PathCollection_86">
    <g clip-path="url(#p6b40a277d1)">
     <use style="fill:#8c564b;stroke:#8c564b;" x="331.058824" xlink:href="#mbb460f34e2" y="162.220401"/>
    </g>
   </g>
   <g id="PathCollection_87">
    <g clip-path="url(#p6b40a277d1)">
     <use style="fill:#8c564b;stroke:#8c564b;" x="338.717647" xlink:href="#mbb460f34e2" y="161.255222"/>
    </g>
   </g>
   <g id="PathCollection_88">
    <g clip-path="url(#p6b40a277d1)">
     <use style="fill:#8c564b;stroke:#8c564b;" x="346.376471" xlink:href="#mbb460f34e2" y="160.317978"/>
    </g>
   </g>
   <g id="PathCollection_89">
    <g clip-path="url(#p6b40a277d1)">
     <use style="fill:#8c564b;stroke:#8c564b;" x="354.035294" xlink:href="#mbb460f34e2" y="159.422519"/>
    </g>
   </g>
   <g id="PathCollection_90">
    <g clip-path="url(#p6b40a277d1)">
     <use style="fill:#8c564b;stroke:#8c564b;" x="361.694118" xlink:href="#mbb460f34e2" y="158.583665"/>
    </g>
   </g>
   <g id="PathCollection_91">
    <g clip-path="url(#p6b40a277d1)">
     <use style="fill:#8c564b;stroke:#8c564b;" x="369.352941" xlink:href="#mbb460f34e2" y="157.816388"/>
    </g>
   </g>
   <g id="PathCollection_92">
    <g clip-path="url(#p6b40a277d1)">
     <use style="fill:#8c564b;stroke:#8c564b;" x="377.011765" xlink:href="#mbb460f34e2" y="157.134759"/>
    </g>
   </g>
   <g id="PathCollection_93">
    <g clip-path="url(#p6b40a277d1)">
     <use style="fill:#8c564b;stroke:#8c564b;" x="384.670588" xlink:href="#mbb460f34e2" y="156.550645"/>
    </g>
   </g>
   <g id="PathCollection_94">
    <g clip-path="url(#p6b40a277d1)">
     <use style="fill:#8c564b;stroke:#8c564b;" x="392.329412" xlink:href="#mbb460f34e2" y="156.072146"/>
    </g>
   </g>
   <g id="PathCollection_95">
    <g clip-path="url(#p6b40a277d1)">
     <use style="fill:#8c564b;stroke:#8c564b;" x="399.988235" xlink:href="#mbb460f34e2" y="155.701736"/>
    </g>
   </g>
   <g id="PathCollection_96">
    <g clip-path="url(#p6b40a277d1)">
     <use style="fill:#8c564b;stroke:#8c564b;" x="407.647059" xlink:href="#mbb460f34e2" y="155.434102"/>
    </g>
   </g>
   <g id="PathCollection_97">
    <g clip-path="url(#p6b40a277d1)">
     <use style="fill:#8c564b;stroke:#8c564b;" x="415.305882" xlink:href="#mbb460f34e2" y="155.253664"/>
    </g>
   </g>
   <g id="PathCollection_98">
    <g clip-path="url(#p6b40a277d1)">
     <use style="fill:#8c564b;stroke:#8c564b;" x="422.964706" xlink:href="#mbb460f34e2" y="155.131744"/>
    </g>
   </g>
   <g id="PathCollection_99">
    <g clip-path="url(#p6b40a277d1)">
     <use style="fill:#8c564b;stroke:#8c564b;" x="430.623529" xlink:href="#mbb460f34e2" y="155.023377"/>
    </g>
   </g>
   <g id="PathCollection_100">
    <g clip-path="url(#p6b40a277d1)">
     <use style="fill:#8c564b;stroke:#8c564b;" x="438.282353" xlink:href="#mbb460f34e2" y="154.863742"/>
    </g>
   </g>
   <g id="PathCollection_101">
    <g clip-path="url(#p6b40a277d1)">
     <use style="fill:#8c564b;stroke:#8c564b;" x="445.941176" xlink:href="#mbb460f34e2" y="154.564194"/>
    </g>
   </g>
   <g id="PathCollection_102">
    <g clip-path="url(#p6b40a277d1)">
     <use style="fill:#8c564b;stroke:#8c564b;" x="453.6" xlink:href="#mbb460f34e2" y="154.007874"/>
    </g>
   </g>
   <g id="matplotlib.axis_1"/>
   <g id="matplotlib.axis_2"/>
   <g id="line2d_1">
    <path clip-path="url(#p6b40a277d1)" d="M 63 189 
L 112.431324 188.888903 
L 120.919853 188.559965 
L 130.014706 187.981849 
L 139.939265 187.125046 
L 150.916912 185.950677 
L 163.3625 184.389852 
L 177.786618 182.350485 
L 195.657206 179.588347 
L 221.250441 175.386024 
L 278.532059 165.931041 
L 295.923971 163.275236 
L 303.901912 162.313351 
L 312.230882 161.53605 
L 321.102353 160.934312 
L 330.612059 160.515118 
L 340.887647 160.287964 
L 352.088676 160.266194 
L 364.470441 160.468822 
L 378.352059 160.923233 
L 394.307941 161.673825 
L 413.423088 162.80405 
L 438.186618 164.504424 
L 453.6 165.638062 
L 453.6 165.638062 
" style="fill:none;stroke:#8c564b;stroke-dasharray:11.1,4.8;stroke-dashoffset:0;stroke-width:3;"/>
   </g>
   <g id="line2d_2">
    <path clip-path="url(#p6b40a277d1)" d="M 63 189 
L 111.665441 188.889065 
L 119.356176 188.563831 
L 127.525588 187.992907 
L 136.365147 187.148659 
L 146.0025 186.001443 
L 156.692941 184.500813 
L 168.819412 182.567973 
L 182.956324 180.08252 
L 200.635441 176.736809 
L 227.505147 171.396557 
L 272.660294 162.428112 
L 293.498676 158.514996 
L 300.870294 157.363218 
L 308.305735 156.429505 
L 316.156029 155.670326 
L 324.485 155.090742 
L 333.388382 154.696906 
L 342.961912 154.499068 
L 353.333235 154.510121 
L 364.725735 154.748606 
L 377.394706 155.241081 
L 391.755 156.027315 
L 408.5725 157.177921 
L 429.410882 158.836994 
L 453.6 160.94799 
L 453.6 160.94799 
" style="fill:none;stroke:#8c564b;stroke-linecap:square;stroke-width:3;"/>
   </g>
   <g id="patch_3">
    <path d="M 63 189 
L 63 25.92 
" style="fill:none;stroke:#000000;stroke-linecap:square;stroke-linejoin:miter;stroke-width:0.8;"/>
   </g>
   <g id="patch_4">
    <path d="M 453.6 189 
L 453.6 25.92 
" style="fill:none;stroke:#000000;stroke-linecap:square;stroke-linejoin:miter;stroke-width:0.8;"/>
   </g>
   <g id="patch_5">
    <path d="M 63 189 
L 453.6 189 
" style="fill:none;stroke:#000000;stroke-linecap:square;stroke-linejoin:miter;stroke-width:0.8;"/>
   </g>
   <g id="patch_6">
    <path d="M 63 25.92 
L 453.6 25.92 
" style="fill:none;stroke:#000000;stroke-linecap:square;stroke-linejoin:miter;stroke-width:0.8;"/>
   </g>
  </g>
 </g>
 <defs>
  <clipPath id="p6b40a277d1">
   <rect height="163.08" width="390.6" x="63" y="25.92"/>
  </clipPath>
 </defs>
</svg>
