<?xml version="1.0" encoding="utf-8" standalone="no"?>
<!DOCTYPE svg PUBLIC "-//W3C//DTD SVG 1.1//EN"
  "http://www.w3.org/Graphics/SVG/1.1/DTD/svg11.dtd">
<!-- Created with matplotlib (https://matplotlib.org/) -->
<svg height="216pt" version="1.1" viewBox="0 0 504 216" width="504pt" xmlns="http://www.w3.org/2000/svg" xmlns:xlink="http://www.w3.org/1999/xlink">
 <metadata>
  <rdf:RDF xmlns:cc="http://creativecommons.org/ns#" xmlns:dc="http://purl.org/dc/elements/1.1/" xmlns:rdf="http://www.w3.org/1999/02/22-rdf-syntax-ns#">
   <cc:Work>
    <dc:type rdf:resource="http://purl.org/dc/dcmitype/StillImage"/>
    <dc:date>2024-11-24T08:51:14.260103</dc:date>
    <dc:format>image/svg+xml</dc:format>
    <dc:creator>
     <cc:Agent>
      <dc:title>Matplotlib v3.3.2, https://matplotlib.org/</dc:title>
     </cc:Agent>
    </dc:creator>
   </cc:Work>
  </rdf:RDF>
 </metadata>
 <defs>
  <style type="text/css">*{stroke-linecap:butt;stroke-linejoin:round;}</style>
 </defs>
 <g id="figure_1">
  <g id="patch_1">
   <path d="M 0 216 
L 504 216 
L 504 0 
L 0 0 
z
" style="fill:none;"/>
  </g>
  <g id="axes_1">
   <g id="patch_2">
    <path d="M 63 189 
L 453.6 189 
L 453.6 25.92 
L 63 25.92 
z
" style="fill:#ffffff;"/>
   </g>
   <g id="PathCollection_1">
    <path clip-path="url(#p652ce6c2fd)" d="M 70.658824 193.635034 
C 71.984839 193.635034 73.256723 193.108202 74.194357 192.170568 
C 75.131992 191.232933 75.658824 189.961049 75.658824 188.635034 
C 75.658824 187.309018 75.131992 186.037134 74.194357 185.0995 
C 73.256723 184.161865 71.984839 183.635034 70.658824 183.635034 
C 69.332808 183.635034 68.060924 184.161865 67.12329 185.0995 
C 66.185655 186.037134 65.658824 187.309018 65.658824 188.635034 
C 65.658824 189.961049 66.185655 191.232933 67.12329 192.170568 
C 68.060924 193.108202 69.332808 193.635034 70.658824 193.635034 
z
" style="fill:none;stroke:#e377c2;"/>
   </g>
   <g id="PathCollection_2">
    <path clip-path="url(#p652ce6c2fd)" d="M 78.317647 193.969635 
C 79.643663 193.969635 80.915546 193.442803 81.853181 192.505168 
C 82.790816 191.567534 83.317647 190.29565 83.317647 188.969635 
C 83.317647 187.643619 82.790816 186.371735 81.853181 185.434101 
C 80.915546 184.496466 79.643663 183.969635 78.317647 183.969635 
C 76.991632 183.969635 75.719748 184.496466 74.782113 185.434101 
C 73.844479 186.371735 73.317647 187.643619 73.317647 188.969635 
C 73.317647 190.29565 73.844479 191.567534 74.782113 192.505168 
C 75.719748 193.442803 76.991632 193.969635 78.317647 193.969635 
z
" style="fill:none;stroke:#e377c2;"/>
   </g>
   <g id="PathCollection_3">
    <path clip-path="url(#p652ce6c2fd)" d="M 85.976471 193.841436 
C 87.302486 193.841436 88.57437 193.314605 89.512004 192.37697 
C 90.449639 191.439336 90.976471 190.167452 90.976471 188.841436 
C 90.976471 187.515421 90.449639 186.243537 89.512004 185.305902 
C 88.57437 184.368268 87.302486 183.841436 85.976471 183.841436 
C 84.650455 183.841436 83.378571 184.368268 82.440937 185.305902 
C 81.503302 186.243537 80.976471 187.515421 80.976471 188.841436 
C 80.976471 190.167452 81.503302 191.439336 82.440937 192.37697 
C 83.378571 193.314605 84.650455 193.841436 85.976471 193.841436 
z
" style="fill:none;stroke:#e377c2;"/>
   </g>
   <g id="PathCollection_4">
    <path clip-path="url(#p652ce6c2fd)" d="M 93.635294 193.246197 
C 94.96131 193.246197 96.233193 192.719365 97.170828 191.781731 
C 98.108463 190.844096 98.635294 189.572212 98.635294 188.246197 
C 98.635294 186.920181 98.108463 185.648298 97.170828 184.710663 
C 96.233193 183.773028 94.96131 183.246197 93.635294 183.246197 
C 92.309279 183.246197 91.037395 183.773028 90.09976 184.710663 
C 89.162126 185.648298 88.635294 186.920181 88.635294 188.246197 
C 88.635294 189.572212 89.162126 190.844096 90.09976 191.781731 
C 91.037395 192.719365 92.309279 193.246197 93.635294 193.246197 
z
" style="fill:none;stroke:#e377c2;"/>
   </g>
   <g id="PathCollection_5">
    <path clip-path="url(#p652ce6c2fd)" d="M 101.294118 192.198189 
C 102.620133 192.198189 103.892017 191.671358 104.829652 190.733723 
C 105.767286 189.796089 106.294118 188.524205 106.294118 187.198189 
C 106.294118 185.872174 105.767286 184.60029 104.829652 183.662656 
C 103.892017 182.725021 102.620133 182.198189 101.294118 182.198189 
C 99.968102 182.198189 98.696218 182.725021 97.758584 183.662656 
C 96.820949 184.60029 96.294118 185.872174 96.294118 187.198189 
C 96.294118 188.524205 96.820949 189.796089 97.758584 190.733723 
C 98.696218 191.671358 99.968102 192.198189 101.294118 192.198189 
z
" style="fill:none;stroke:#e377c2;"/>
   </g>
   <g id="PathCollection_6">
    <path clip-path="url(#p652ce6c2fd)" d="M 108.952941 190.724777 
C 110.278957 190.724777 111.550841 190.197946 112.488475 189.260311 
C 113.42611 188.322677 113.952941 187.050793 113.952941 185.724777 
C 113.952941 184.398762 113.42611 183.126878 112.488475 182.189243 
C 111.550841 181.251609 110.278957 180.724777 108.952941 180.724777 
C 107.626926 180.724777 106.355042 181.251609 105.417407 182.189243 
C 104.479773 183.126878 103.952941 184.398762 103.952941 185.724777 
C 103.952941 187.050793 104.479773 188.322677 105.417407 189.260311 
C 106.355042 190.197946 107.626926 190.724777 108.952941 190.724777 
z
" style="fill:none;stroke:#e377c2;"/>
   </g>
   <g id="PathCollection_7">
    <path clip-path="url(#p652ce6c2fd)" d="M 116.611765 188.861827 
C 117.93778 188.861827 119.209664 188.334995 120.147299 187.397361 
C 121.084933 186.459726 121.611765 185.187842 121.611765 183.861827 
C 121.611765 182.535811 121.084933 181.263927 120.147299 180.326293 
C 119.209664 179.388658 117.93778 178.861827 116.611765 178.861827 
C 115.285749 178.861827 114.013865 179.388658 113.076231 180.326293 
C 112.138596 181.263927 111.611765 182.535811 111.611765 183.861827 
C 111.611765 185.187842 112.138596 186.459726 113.076231 187.397361 
C 114.013865 188.334995 115.285749 188.861827 116.611765 188.861827 
z
" style="fill:none;stroke:#e377c2;"/>
   </g>
   <g id="PathCollection_8">
    <path clip-path="url(#p652ce6c2fd)" d="M 124.270588 186.649824 
C 125.596604 186.649824 126.868488 186.122993 127.806122 185.185358 
C 128.743757 184.247724 129.270588 182.97584 129.270588 181.649824 
C 129.270588 180.323809 128.743757 179.051925 127.806122 178.11429 
C 126.868488 177.176656 125.596604 176.649824 124.270588 176.649824 
C 122.944573 176.649824 121.672689 177.176656 120.735054 178.11429 
C 119.79742 179.051925 119.270588 180.323809 119.270588 181.649824 
C 119.270588 182.97584 119.79742 184.247724 120.735054 185.185358 
C 121.672689 186.122993 122.944573 186.649824 124.270588 186.649824 
z
" style="fill:none;stroke:#e377c2;"/>
   </g>
   <g id="PathCollection_9">
    <path clip-path="url(#p652ce6c2fd)" d="M 131.929412 184.13067 
C 133.255427 184.13067 134.527311 183.603839 135.464946 182.666204 
C 136.40258 181.728569 136.929412 180.456686 136.929412 179.13067 
C 136.929412 177.804655 136.40258 176.532771 135.464946 175.595136 
C 134.527311 174.657502 133.255427 174.13067 131.929412 174.13067 
C 130.603396 174.13067 129.331512 174.657502 128.393878 175.595136 
C 127.456243 176.532771 126.929412 177.804655 126.929412 179.13067 
C 126.929412 180.456686 127.456243 181.728569 128.393878 182.666204 
C 129.331512 183.603839 130.603396 184.13067 131.929412 184.13067 
z
" style="fill:none;stroke:#e377c2;"/>
   </g>
   <g id="PathCollection_10">
    <path clip-path="url(#p652ce6c2fd)" d="M 139.588235 181.345098 
C 140.914251 181.345098 142.186135 180.818267 143.123769 179.880632 
C 144.061404 178.942998 144.588235 177.671114 144.588235 176.345098 
C 144.588235 175.019083 144.061404 173.747199 143.123769 172.809564 
C 142.186135 171.87193 140.914251 171.345098 139.588235 171.345098 
C 138.26222 171.345098 136.990336 171.87193 136.052701 172.809564 
C 135.115067 173.747199 134.588235 175.019083 134.588235 176.345098 
C 134.588235 177.671114 135.115067 178.942998 136.052701 179.880632 
C 136.990336 180.818267 138.26222 181.345098 139.588235 181.345098 
z
" style="fill:none;stroke:#e377c2;"/>
   </g>
   <g id="PathCollection_11">
    <path clip-path="url(#p652ce6c2fd)" d="M 147.247059 178.33068 
C 148.573074 178.33068 149.844958 177.803848 150.782593 176.866214 
C 151.720227 175.928579 152.247059 174.656695 152.247059 173.33068 
C 152.247059 172.004664 151.720227 170.73278 150.782593 169.795146 
C 149.844958 168.857511 148.573074 168.33068 147.247059 168.33068 
C 145.921043 168.33068 144.649159 168.857511 143.711525 169.795146 
C 142.77389 170.73278 142.247059 172.004664 142.247059 173.33068 
C 142.247059 174.656695 142.77389 175.928579 143.711525 176.866214 
C 144.649159 177.803848 145.921043 178.33068 147.247059 178.33068 
z
" style="fill:none;stroke:#e377c2;"/>
   </g>
   <g id="PathCollection_12">
    <path clip-path="url(#p652ce6c2fd)" d="M 154.905882 175.120362 
C 156.231898 175.120362 157.503782 174.593531 158.441416 173.655896 
C 159.379051 172.718261 159.905882 171.446378 159.905882 170.120362 
C 159.905882 168.794347 159.379051 167.522463 158.441416 166.584828 
C 157.503782 165.647194 156.231898 165.120362 154.905882 165.120362 
C 153.579867 165.120362 152.307983 165.647194 151.370348 166.584828 
C 150.432714 167.522463 149.905882 168.794347 149.905882 170.120362 
C 149.905882 171.446378 150.432714 172.718261 151.370348 173.655896 
C 152.307983 174.593531 153.579867 175.120362 154.905882 175.120362 
z
" style="fill:none;stroke:#e377c2;"/>
   </g>
   <g id="PathCollection_13">
    <path clip-path="url(#p652ce6c2fd)" d="M 162.564706 171.741501 
C 163.890721 171.741501 165.162605 171.21467 166.10024 170.277035 
C 167.037874 169.3394 167.564706 168.067517 167.564706 166.741501 
C 167.564706 165.415486 167.037874 164.143602 166.10024 163.205967 
C 165.162605 162.268333 163.890721 161.741501 162.564706 161.741501 
C 161.23869 161.741501 159.966807 162.268333 159.029172 163.205967 
C 158.091537 164.143602 157.564706 165.415486 157.564706 166.741501 
C 157.564706 168.067517 158.091537 169.3394 159.029172 170.277035 
C 159.966807 171.21467 161.23869 171.741501 162.564706 171.741501 
z
" style="fill:none;stroke:#e377c2;"/>
   </g>
   <g id="PathCollection_14">
    <path clip-path="url(#p652ce6c2fd)" d="M 170.223529 168.215339 
C 171.549545 168.215339 172.821429 167.688508 173.759063 166.750873 
C 174.696698 165.813239 175.223529 164.541355 175.223529 163.215339 
C 175.223529 161.889324 174.696698 160.61744 173.759063 159.679805 
C 172.821429 158.742171 171.549545 158.215339 170.223529 158.215339 
C 168.897514 158.215339 167.62563 158.742171 166.687996 159.679805 
C 165.750361 160.61744 165.223529 161.889324 165.223529 163.215339 
C 165.223529 164.541355 165.750361 165.813239 166.687996 166.750873 
C 167.62563 167.688508 168.897514 168.215339 170.223529 168.215339 
z
" style="fill:none;stroke:#e377c2;"/>
   </g>
   <g id="PathCollection_15">
    <path clip-path="url(#p652ce6c2fd)" d="M 177.882353 164.556883 
C 179.208368 164.556883 180.480252 164.030052 181.417887 163.092417 
C 182.355521 162.154783 182.882353 160.882899 182.882353 159.556883 
C 182.882353 158.230868 182.355521 156.958984 181.417887 156.021349 
C 180.480252 155.083715 179.208368 154.556883 177.882353 154.556883 
C 176.556337 154.556883 175.284454 155.083715 174.346819 156.021349 
C 173.409184 156.958984 172.882353 158.230868 172.882353 159.556883 
C 172.882353 160.882899 173.409184 162.154783 174.346819 163.092417 
C 175.284454 164.030052 176.556337 164.556883 177.882353 164.556883 
z
" style="fill:none;stroke:#e377c2;"/>
   </g>
   <g id="PathCollection_16">
    <path clip-path="url(#p652ce6c2fd)" d="M 185.541176 160.775138 
C 186.867192 160.775138 188.139076 160.248306 189.07671 159.310672 
C 190.014345 158.373037 190.541176 157.101153 190.541176 155.775138 
C 190.541176 154.449122 190.014345 153.177239 189.07671 152.239604 
C 188.139076 151.301969 186.867192 150.775138 185.541176 150.775138 
C 184.215161 150.775138 182.943277 151.301969 182.005643 152.239604 
C 181.068008 153.177239 180.541176 154.449122 180.541176 155.775138 
C 180.541176 157.101153 181.068008 158.373037 182.005643 159.310672 
C 182.943277 160.248306 184.215161 160.775138 185.541176 160.775138 
z
" style="fill:none;stroke:#e377c2;"/>
   </g>
   <g id="PathCollection_17">
    <path clip-path="url(#p652ce6c2fd)" d="M 193.2 156.87365 
C 194.526016 156.87365 195.797899 156.346819 196.735534 155.409184 
C 197.673168 154.47155 198.2 153.199666 198.2 151.87365 
C 198.2 150.547635 197.673168 149.275751 196.735534 148.338117 
C 195.797899 147.400482 194.526016 146.87365 193.2 146.87365 
C 191.873985 146.87365 190.602101 147.400482 189.664466 148.338117 
C 188.726832 149.275751 188.2 150.547635 188.2 151.87365 
C 188.2 153.199666 188.726832 154.47155 189.664466 155.409184 
C 190.602101 156.346819 191.873985 156.87365 193.2 156.87365 
z
" style="fill:none;stroke:#e377c2;"/>
   </g>
   <g id="PathCollection_18">
    <path clip-path="url(#p652ce6c2fd)" d="M 200.858824 152.851316 
C 202.184839 152.851316 203.456723 152.324485 204.394357 151.38685 
C 205.331992 150.449216 205.858824 149.177332 205.858824 147.851316 
C 205.858824 146.525301 205.331992 145.253417 204.394357 144.315783 
C 203.456723 143.378148 202.184839 142.851316 200.858824 142.851316 
C 199.532808 142.851316 198.260924 143.378148 197.32329 144.315783 
C 196.385655 145.253417 195.858824 146.525301 195.858824 147.851316 
C 195.858824 149.177332 196.385655 150.449216 197.32329 151.38685 
C 198.260924 152.324485 199.532808 152.851316 200.858824 152.851316 
z
" style="fill:none;stroke:#e377c2;"/>
   </g>
   <g id="PathCollection_19">
    <path clip-path="url(#p652ce6c2fd)" d="M 208.517647 148.703408 
C 209.843663 148.703408 211.115546 148.176576 212.053181 147.238942 
C 212.990816 146.301307 213.517647 145.029424 213.517647 143.703408 
C 213.517647 142.377393 212.990816 141.105509 212.053181 140.167874 
C 211.115546 139.23024 209.843663 138.703408 208.517647 138.703408 
C 207.191632 138.703408 205.919748 139.23024 204.982113 140.167874 
C 204.044479 141.105509 203.517647 142.377393 203.517647 143.703408 
C 203.517647 145.029424 204.044479 146.301307 204.982113 147.238942 
C 205.919748 148.176576 207.191632 148.703408 208.517647 148.703408 
z
" style="fill:none;stroke:#e377c2;"/>
   </g>
   <g id="PathCollection_20">
    <path clip-path="url(#p652ce6c2fd)" d="M 216.176471 144.422771 
C 217.502486 144.422771 218.77437 143.89594 219.712004 142.958305 
C 220.649639 142.020671 221.176471 140.748787 221.176471 139.422771 
C 221.176471 138.096756 220.649639 136.824872 219.712004 135.887237 
C 218.77437 134.949603 217.502486 134.422771 216.176471 134.422771 
C 214.850455 134.422771 213.578571 134.949603 212.640937 135.887237 
C 211.703302 136.824872 211.176471 138.096756 211.176471 139.422771 
C 211.176471 140.748787 211.703302 142.020671 212.640937 142.958305 
C 213.578571 143.89594 214.850455 144.422771 216.176471 144.422771 
z
" style="fill:none;stroke:#e377c2;"/>
   </g>
   <g id="PathCollection_21">
    <path clip-path="url(#p652ce6c2fd)" d="M 223.835294 140.001156 
C 225.16131 140.001156 226.433193 139.474325 227.370828 138.53669 
C 228.308463 137.599056 228.835294 136.327172 228.835294 135.001156 
C 228.835294 133.675141 228.308463 132.403257 227.370828 131.465622 
C 226.433193 130.527988 225.16131 130.001156 223.835294 130.001156 
C 222.509279 130.001156 221.237395 130.527988 220.29976 131.465622 
C 219.362126 132.403257 218.835294 133.675141 218.835294 135.001156 
C 218.835294 136.327172 219.362126 137.599056 220.29976 138.53669 
C 221.237395 139.474325 222.509279 140.001156 223.835294 140.001156 
z
" style="fill:none;stroke:#e377c2;"/>
   </g>
   <g id="PathCollection_22">
    <path clip-path="url(#p652ce6c2fd)" d="M 231.494118 135.430624 
C 232.820133 135.430624 234.092017 134.903793 235.029652 133.966158 
C 235.967286 133.028524 236.494118 131.75664 236.494118 130.430624 
C 236.494118 129.104609 235.967286 127.832725 235.029652 126.89509 
C 234.092017 125.957456 232.820133 125.430624 231.494118 125.430624 
C 230.168102 125.430624 228.896218 125.957456 227.958584 126.89509 
C 227.020949 127.832725 226.494118 129.104609 226.494118 130.430624 
C 226.494118 131.75664 227.020949 133.028524 227.958584 133.966158 
C 228.896218 134.903793 230.168102 135.430624 231.494118 135.430624 
z
" style="fill:none;stroke:#e377c2;"/>
   </g>
   <g id="PathCollection_23">
    <path clip-path="url(#p652ce6c2fd)" d="M 239.152941 130.704996 
C 240.478957 130.704996 241.750841 130.178165 242.688475 129.24053 
C 243.62611 128.302895 244.152941 127.031012 244.152941 125.704996 
C 244.152941 124.378981 243.62611 123.107097 242.688475 122.169462 
C 241.750841 121.231828 240.478957 120.704996 239.152941 120.704996 
C 237.826926 120.704996 236.555042 121.231828 235.617407 122.169462 
C 234.679773 123.107097 234.152941 124.378981 234.152941 125.704996 
C 234.152941 127.031012 234.679773 128.302895 235.617407 129.24053 
C 236.555042 130.178165 237.826926 130.704996 239.152941 130.704996 
z
" style="fill:none;stroke:#e377c2;"/>
   </g>
   <g id="PathCollection_24">
    <path clip-path="url(#p652ce6c2fd)" d="M 246.811765 125.82129 
C 248.13778 125.82129 249.409664 125.294459 250.347299 124.356824 
C 251.284933 123.41919 251.811765 122.147306 251.811765 120.82129 
C 251.811765 119.495275 251.284933 118.223391 250.347299 117.285756 
C 249.409664 116.348122 248.13778 115.82129 246.811765 115.82129 
C 245.485749 115.82129 244.213865 116.348122 243.276231 117.285756 
C 242.338596 118.223391 241.811765 119.495275 241.811765 120.82129 
C 241.811765 122.147306 242.338596 123.41919 243.276231 124.356824 
C 244.213865 125.294459 245.485749 125.82129 246.811765 125.82129 
z
" style="fill:none;stroke:#e377c2;"/>
   </g>
   <g id="PathCollection_25">
    <path clip-path="url(#p652ce6c2fd)" d="M 254.470588 120.781105 
C 255.796604 120.781105 257.068488 120.254273 258.006122 119.316639 
C 258.943757 118.379004 259.470588 117.10712 259.470588 115.781105 
C 259.470588 114.455089 258.943757 113.183205 258.006122 112.245571 
C 257.068488 111.307936 255.796604 110.781105 254.470588 110.781105 
C 253.144573 110.781105 251.872689 111.307936 250.935054 112.245571 
C 249.99742 113.183205 249.470588 114.455089 249.470588 115.781105 
C 249.470588 117.10712 249.99742 118.379004 250.935054 119.316639 
C 251.872689 120.254273 253.144573 120.781105 254.470588 120.781105 
z
" style="fill:none;stroke:#e377c2;"/>
   </g>
   <g id="PathCollection_26">
    <path clip-path="url(#p652ce6c2fd)" d="M 262.129412 115.591904 
C 263.455427 115.591904 264.727311 115.065073 265.664946 114.127438 
C 266.60258 113.189803 267.129412 111.91792 267.129412 110.591904 
C 267.129412 109.265889 266.60258 107.994005 265.664946 107.05637 
C 264.727311 106.118736 263.455427 105.591904 262.129412 105.591904 
C 260.803396 105.591904 259.531512 106.118736 258.593878 107.05637 
C 257.656243 107.994005 257.129412 109.265889 257.129412 110.591904 
C 257.129412 111.91792 257.656243 113.189803 258.593878 114.127438 
C 259.531512 115.065073 260.803396 115.591904 262.129412 115.591904 
z
" style="fill:none;stroke:#e377c2;"/>
   </g>
   <g id="PathCollection_27">
    <path clip-path="url(#p652ce6c2fd)" d="M 269.788235 110.268157 
C 271.114251 110.268157 272.386135 109.741325 273.323769 108.80369 
C 274.261404 107.866056 274.788235 106.594172 274.788235 105.268157 
C 274.788235 103.942141 274.261404 102.670257 273.323769 101.732623 
C 272.386135 100.794988 271.114251 100.268157 269.788235 100.268157 
C 268.46222 100.268157 267.190336 100.794988 266.252701 101.732623 
C 265.315067 102.670257 264.788235 103.942141 264.788235 105.268157 
C 264.788235 106.594172 265.315067 107.866056 266.252701 108.80369 
C 267.190336 109.741325 268.46222 110.268157 269.788235 110.268157 
z
" style="fill:none;stroke:#e377c2;"/>
   </g>
   <g id="PathCollection_28">
    <path clip-path="url(#p652ce6c2fd)" d="M 277.447059 104.832284 
C 278.773074 104.832284 280.044958 104.305453 280.982593 103.367818 
C 281.920227 102.430184 282.447059 101.1583 282.447059 99.832284 
C 282.447059 98.506269 281.920227 97.234385 280.982593 96.29675 
C 280.044958 95.359116 278.773074 94.832284 277.447059 94.832284 
C 276.121043 94.832284 274.849159 95.359116 273.911525 96.29675 
C 272.97389 97.234385 272.447059 98.506269 272.447059 99.832284 
C 272.447059 101.1583 272.97389 102.430184 273.911525 103.367818 
C 274.849159 104.305453 276.121043 104.832284 277.447059 104.832284 
z
" style="fill:none;stroke:#e377c2;"/>
   </g>
   <g id="PathCollection_29">
    <path clip-path="url(#p652ce6c2fd)" d="M 285.105882 99.315375 
C 286.431898 99.315375 287.703782 98.788543 288.641416 97.850909 
C 289.579051 96.913274 290.105882 95.64139 290.105882 94.315375 
C 290.105882 92.989359 289.579051 91.717476 288.641416 90.779841 
C 287.703782 89.842207 286.431898 89.315375 285.105882 89.315375 
C 283.779867 89.315375 282.507983 89.842207 281.570348 90.779841 
C 280.632714 91.717476 280.105882 92.989359 280.105882 94.315375 
C 280.105882 95.64139 280.632714 96.913274 281.570348 97.850909 
C 282.507983 98.788543 283.779867 99.315375 285.105882 99.315375 
z
" style="fill:none;stroke:#e377c2;"/>
   </g>
   <g id="PathCollection_30">
    <path clip-path="url(#p652ce6c2fd)" d="M 292.764706 93.757614 
C 294.090721 93.757614 295.362605 93.230782 296.30024 92.293148 
C 297.237874 91.355513 297.764706 90.083629 297.764706 88.757614 
C 297.764706 87.431598 297.237874 86.159714 296.30024 85.22208 
C 295.362605 84.284445 294.090721 83.757614 292.764706 83.757614 
C 291.43869 83.757614 290.166807 84.284445 289.229172 85.22208 
C 288.291537 86.159714 287.764706 87.431598 287.764706 88.757614 
C 287.764706 90.083629 288.291537 91.355513 289.229172 92.293148 
C 290.166807 93.230782 291.43869 93.757614 292.764706 93.757614 
z
" style="fill:none;stroke:#e377c2;"/>
   </g>
   <g id="PathCollection_31">
    <path clip-path="url(#p652ce6c2fd)" d="M 300.423529 88.208388 
C 301.749545 88.208388 303.021429 87.681557 303.959063 86.743922 
C 304.896698 85.806288 305.423529 84.534404 305.423529 83.208388 
C 305.423529 81.882373 304.896698 80.610489 303.959063 79.672854 
C 303.021429 78.73522 301.749545 78.208388 300.423529 78.208388 
C 299.097514 78.208388 297.82563 78.73522 296.887996 79.672854 
C 295.950361 80.610489 295.423529 81.882373 295.423529 83.208388 
C 295.423529 84.534404 295.950361 85.806288 296.887996 86.743922 
C 297.82563 87.681557 299.097514 88.208388 300.423529 88.208388 
z
" style="fill:none;stroke:#e377c2;"/>
   </g>
   <g id="PathCollection_32">
    <path clip-path="url(#p652ce6c2fd)" d="M 308.082353 82.726018 
C 309.408368 82.726018 310.680252 82.199186 311.617887 81.261552 
C 312.555521 80.323917 313.082353 79.052033 313.082353 77.726018 
C 313.082353 76.400002 312.555521 75.128119 311.617887 74.190484 
C 310.680252 73.252849 309.408368 72.726018 308.082353 72.726018 
C 306.756337 72.726018 305.484454 73.252849 304.546819 74.190484 
C 303.609184 75.128119 303.082353 76.400002 303.082353 77.726018 
C 303.082353 79.052033 303.609184 80.323917 304.546819 81.261552 
C 305.484454 82.199186 306.756337 82.726018 308.082353 82.726018 
z
" style="fill:none;stroke:#e377c2;"/>
   </g>
   <g id="PathCollection_33">
    <path clip-path="url(#p652ce6c2fd)" d="M 315.741176 77.377072 
C 317.067192 77.377072 318.339076 76.85024 319.27671 75.912605 
C 320.214345 74.974971 320.741176 73.703087 320.741176 72.377072 
C 320.741176 71.051056 320.214345 69.779172 319.27671 68.841538 
C 318.339076 67.903903 317.067192 67.377072 315.741176 67.377072 
C 314.415161 67.377072 313.143277 67.903903 312.205643 68.841538 
C 311.268008 69.779172 310.741176 71.051056 310.741176 72.377072 
C 310.741176 73.703087 311.268008 74.974971 312.205643 75.912605 
C 313.143277 76.85024 314.415161 77.377072 315.741176 77.377072 
z
" style="fill:none;stroke:#e377c2;"/>
   </g>
   <g id="PathCollection_34">
    <path clip-path="url(#p652ce6c2fd)" d="M 323.4 72.235215 
C 324.726016 72.235215 325.997899 71.708384 326.935534 70.770749 
C 327.873168 69.833115 328.4 68.561231 328.4 67.235215 
C 328.4 65.9092 327.873168 64.637316 326.935534 63.699681 
C 325.997899 62.762047 324.726016 62.235215 323.4 62.235215 
C 322.073985 62.235215 320.802101 62.762047 319.864466 63.699681 
C 318.926832 64.637316 318.4 65.9092 318.4 67.235215 
C 318.4 68.561231 318.926832 69.833115 319.864466 70.770749 
C 320.802101 71.708384 322.073985 72.235215 323.4 72.235215 
z
" style="fill:none;stroke:#e377c2;"/>
   </g>
   <g id="PathCollection_35">
    <path clip-path="url(#p652ce6c2fd)" d="M 331.058824 67.379555 
C 332.384839 67.379555 333.656723 66.852723 334.594357 65.915088 
C 335.531992 64.977454 336.058824 63.70557 336.058824 62.379555 
C 336.058824 61.053539 335.531992 59.781655 334.594357 58.844021 
C 333.656723 57.906386 332.384839 57.379555 331.058824 57.379555 
C 329.732808 57.379555 328.460924 57.906386 327.52329 58.844021 
C 326.585655 59.781655 326.058824 61.053539 326.058824 62.379555 
C 326.058824 63.70557 326.585655 64.977454 327.52329 65.915088 
C 328.460924 66.852723 329.732808 67.379555 331.058824 67.379555 
z
" style="fill:none;stroke:#e377c2;"/>
   </g>
   <g id="PathCollection_36">
    <path clip-path="url(#p652ce6c2fd)" d="M 338.717647 62.892423 
C 340.043663 62.892423 341.315546 62.365592 342.253181 61.427957 
C 343.190816 60.490323 343.717647 59.218439 343.717647 57.892423 
C 343.717647 56.566408 343.190816 55.294524 342.253181 54.356889 
C 341.315546 53.419255 340.043663 52.892423 338.717647 52.892423 
C 337.391632 52.892423 336.119748 53.419255 335.182113 54.356889 
C 334.244479 55.294524 333.717647 56.566408 333.717647 57.892423 
C 333.717647 59.218439 334.244479 60.490323 335.182113 61.427957 
C 336.119748 62.365592 337.391632 62.892423 338.717647 62.892423 
z
" style="fill:none;stroke:#e377c2;"/>
   </g>
   <g id="PathCollection_37">
    <path clip-path="url(#p652ce6c2fd)" d="M 346.376471 58.85657 
C 347.702486 58.85657 348.97437 58.329739 349.912004 57.392104 
C 350.849639 56.454469 351.376471 55.182586 351.376471 53.85657 
C 351.376471 52.530555 350.849639 51.258671 349.912004 50.321036 
C 348.97437 49.383402 347.702486 48.85657 346.376471 48.85657 
C 345.050455 48.85657 343.778571 49.383402 342.840937 50.321036 
C 341.903302 51.258671 341.376471 52.530555 341.376471 53.85657 
C 341.376471 55.182586 341.903302 56.454469 342.840937 57.392104 
C 343.778571 58.329739 345.050455 58.85657 346.376471 58.85657 
z
" style="fill:none;stroke:#e377c2;"/>
   </g>
   <g id="PathCollection_38">
    <path clip-path="url(#p652ce6c2fd)" d="M 354.035294 55.3517 
C 355.36131 55.3517 356.633193 54.824868 357.570828 53.887234 
C 358.508463 52.949599 359.035294 51.677715 359.035294 50.3517 
C 359.035294 49.025684 358.508463 47.7538 357.570828 46.816166 
C 356.633193 45.878531 355.36131 45.3517 354.035294 45.3517 
C 352.709279 45.3517 351.437395 45.878531 350.49976 46.816166 
C 349.562126 47.7538 349.035294 49.025684 349.035294 50.3517 
C 349.035294 51.677715 349.562126 52.949599 350.49976 53.887234 
C 351.437395 54.824868 352.709279 55.3517 354.035294 55.3517 
z
" style="fill:none;stroke:#e377c2;"/>
   </g>
   <g id="PathCollection_39">
    <path clip-path="url(#p652ce6c2fd)" d="M 361.694118 52.450328 
C 363.020133 52.450328 364.292017 51.923496 365.229652 50.985862 
C 366.167286 50.048227 366.694118 48.776343 366.694118 47.450328 
C 366.694118 46.124312 366.167286 44.852428 365.229652 43.914794 
C 364.292017 42.977159 363.020133 42.450328 361.694118 42.450328 
C 360.368102 42.450328 359.096218 42.977159 358.158584 43.914794 
C 357.220949 44.852428 356.694118 46.124312 356.694118 47.450328 
C 356.694118 48.776343 357.220949 50.048227 358.158584 50.985862 
C 359.096218 51.923496 360.368102 52.450328 361.694118 52.450328 
z
" style="fill:none;stroke:#e377c2;"/>
   </g>
   <g id="PathCollection_40">
    <path clip-path="url(#p652ce6c2fd)" d="M 369.352941 50.212892 
C 370.678957 50.212892 371.950841 49.686061 372.888475 48.748426 
C 373.82611 47.810791 374.352941 46.538908 374.352941 45.212892 
C 374.352941 43.886877 373.82611 42.614993 372.888475 41.677358 
C 371.950841 40.739724 370.678957 40.212892 369.352941 40.212892 
C 368.026926 40.212892 366.755042 40.739724 365.817407 41.677358 
C 364.879773 42.614993 364.352941 43.886877 364.352941 45.212892 
C 364.352941 46.538908 364.879773 47.810791 365.817407 48.748426 
C 366.755042 49.686061 368.026926 50.212892 369.352941 50.212892 
z
" style="fill:none;stroke:#e377c2;"/>
   </g>
   <g id="PathCollection_41">
    <path clip-path="url(#p652ce6c2fd)" d="M 377.011765 48.682089 
C 378.33778 48.682089 379.609664 48.155258 380.547299 47.217623 
C 381.484933 46.279989 382.011765 45.008105 382.011765 43.682089 
C 382.011765 42.356074 381.484933 41.08419 380.547299 40.146556 
C 379.609664 39.208921 378.33778 38.682089 377.011765 38.682089 
C 375.685749 38.682089 374.413865 39.208921 373.476231 40.146556 
C 372.538596 41.08419 372.011765 42.356074 372.011765 43.682089 
C 372.011765 45.008105 372.538596 46.279989 373.476231 47.217623 
C 374.413865 48.155258 375.685749 48.682089 377.011765 48.682089 
z
" style="fill:none;stroke:#e377c2;"/>
   </g>
   <g id="PathCollection_42">
    <path clip-path="url(#p652ce6c2fd)" d="M 384.670588 47.87638 
C 385.996604 47.87638 387.268488 47.349548 388.206122 46.411914 
C 389.143757 45.474279 389.670588 44.202395 389.670588 42.87638 
C 389.670588 41.550364 389.143757 40.278481 388.206122 39.340846 
C 387.268488 38.403212 385.996604 37.87638 384.670588 37.87638 
C 383.344573 37.87638 382.072689 38.403212 381.135054 39.340846 
C 380.19742 40.278481 379.670588 41.550364 379.670588 42.87638 
C 379.670588 44.202395 380.19742 45.474279 381.135054 46.411914 
C 382.072689 47.349548 383.344573 47.87638 384.670588 47.87638 
z
" style="fill:none;stroke:#e377c2;"/>
   </g>
   <g id="PathCollection_43">
    <path clip-path="url(#p652ce6c2fd)" d="M 392.329412 47.782623 
C 393.655427 47.782623 394.927311 47.255791 395.864946 46.318157 
C 396.80258 45.380522 397.329412 44.108639 397.329412 42.782623 
C 397.329412 41.456608 396.80258 40.184724 395.864946 39.247089 
C 394.927311 38.309455 393.655427 37.782623 392.329412 37.782623 
C 391.003396 37.782623 389.731512 38.309455 388.793878 39.247089 
C 387.856243 40.184724 387.329412 41.456608 387.329412 42.782623 
C 387.329412 44.108639 387.856243 45.380522 388.793878 46.318157 
C 389.731512 47.255791 391.003396 47.782623 392.329412 47.782623 
z
" style="fill:none;stroke:#e377c2;"/>
   </g>
   <g id="PathCollection_44">
    <path clip-path="url(#p652ce6c2fd)" d="M 399.988235 48.34779 
C 401.314251 48.34779 402.586135 47.820959 403.523769 46.883324 
C 404.461404 45.94569 404.988235 44.673806 404.988235 43.34779 
C 404.988235 42.021775 404.461404 40.749891 403.523769 39.812257 
C 402.586135 38.874622 401.314251 38.34779 399.988235 38.34779 
C 398.66222 38.34779 397.390336 38.874622 396.452701 39.812257 
C 395.515067 40.749891 394.988235 42.021775 394.988235 43.34779 
C 394.988235 44.673806 395.515067 45.94569 396.452701 46.883324 
C 397.390336 47.820959 398.66222 48.34779 399.988235 48.34779 
z
" style="fill:none;stroke:#e377c2;"/>
   </g>
   <g id="PathCollection_45">
    <path clip-path="url(#p652ce6c2fd)" d="M 407.647059 49.46972 
C 408.973074 49.46972 410.244958 48.942888 411.182593 48.005254 
C 412.120227 47.067619 412.647059 45.795735 412.647059 44.46972 
C 412.647059 43.143704 412.120227 41.871821 411.182593 40.934186 
C 410.244958 39.996551 408.973074 39.46972 407.647059 39.46972 
C 406.321043 39.46972 405.049159 39.996551 404.111525 40.934186 
C 403.17389 41.871821 402.647059 43.143704 402.647059 44.46972 
C 402.647059 45.795735 403.17389 47.067619 404.111525 48.005254 
C 405.049159 48.942888 406.321043 49.46972 407.647059 49.46972 
z
" style="fill:none;stroke:#e377c2;"/>
   </g>
   <g id="PathCollection_46">
    <path clip-path="url(#p652ce6c2fd)" d="M 415.305882 50.986858 
C 416.631898 50.986858 417.903782 50.460026 418.841416 49.522392 
C 419.779051 48.584757 420.305882 47.312873 420.305882 45.986858 
C 420.305882 44.660842 419.779051 43.388959 418.841416 42.451324 
C 417.903782 41.51369 416.631898 40.986858 415.305882 40.986858 
C 413.979867 40.986858 412.707983 41.51369 411.770348 42.451324 
C 410.832714 43.388959 410.305882 44.660842 410.305882 45.986858 
C 410.305882 47.312873 410.832714 48.584757 411.770348 49.522392 
C 412.707983 50.460026 413.979867 50.986858 415.305882 50.986858 
z
" style="fill:none;stroke:#e377c2;"/>
   </g>
   <g id="PathCollection_47">
    <path clip-path="url(#p652ce6c2fd)" d="M 422.964706 52.666947 
C 424.290721 52.666947 425.562605 52.140116 426.50024 51.202481 
C 427.437874 50.264847 427.964706 48.992963 427.964706 47.666947 
C 427.964706 46.340932 427.437874 45.069048 426.50024 44.131413 
C 425.562605 43.193779 424.290721 42.666947 422.964706 42.666947 
C 421.63869 42.666947 420.366807 43.193779 419.429172 44.131413 
C 418.491537 45.069048 417.964706 46.340932 417.964706 47.666947 
C 417.964706 48.992963 418.491537 50.264847 419.429172 51.202481 
C 420.366807 52.140116 421.63869 52.666947 422.964706 52.666947 
z
" style="fill:none;stroke:#e377c2;"/>
   </g>
   <g id="PathCollection_48">
    <path clip-path="url(#p652ce6c2fd)" d="M 430.623529 54.194616 
C 431.949545 54.194616 433.221429 53.667785 434.159063 52.73015 
C 435.096698 51.792516 435.623529 50.520632 435.623529 49.194616 
C 435.623529 47.868601 435.096698 46.596717 434.159063 45.659083 
C 433.221429 44.721448 431.949545 44.194616 430.623529 44.194616 
C 429.297514 44.194616 428.02563 44.721448 427.087996 45.659083 
C 426.150361 46.596717 425.623529 47.868601 425.623529 49.194616 
C 425.623529 50.520632 426.150361 51.792516 427.087996 52.73015 
C 428.02563 53.667785 429.297514 54.194616 430.623529 54.194616 
z
" style="fill:none;stroke:#e377c2;"/>
   </g>
   <g id="PathCollection_49">
    <path clip-path="url(#p652ce6c2fd)" d="M 438.282353 55.157822 
C 439.608368 55.157822 440.880252 54.63099 441.817887 53.693356 
C 442.755521 52.755721 443.282353 51.483837 443.282353 50.157822 
C 443.282353 48.831806 442.755521 47.559922 441.817887 46.622288 
C 440.880252 45.684653 439.608368 45.157822 438.282353 45.157822 
C 436.956337 45.157822 435.684454 45.684653 434.746819 46.622288 
C 433.809184 47.559922 433.282353 48.831806 433.282353 50.157822 
C 433.282353 51.483837 433.809184 52.755721 434.746819 53.693356 
C 435.684454 54.63099 436.956337 55.157822 438.282353 55.157822 
z
" style="fill:none;stroke:#e377c2;"/>
   </g>
   <g id="PathCollection_50">
    <path clip-path="url(#p652ce6c2fd)" d="M 445.941176 55.033099 
C 447.267192 55.033099 448.539076 54.506267 449.47671 53.568633 
C 450.414345 52.630998 450.941176 51.359114 450.941176 50.033099 
C 450.941176 48.707083 450.414345 47.435199 449.47671 46.497565 
C 448.539076 45.55993 447.267192 45.033099 445.941176 45.033099 
C 444.615161 45.033099 443.343277 45.55993 442.405643 46.497565 
C 441.468008 47.435199 440.941176 48.707083 440.941176 50.033099 
C 440.941176 51.359114 441.468008 52.630998 442.405643 53.568633 
C 443.343277 54.506267 444.615161 55.033099 445.941176 55.033099 
z
" style="fill:none;stroke:#e377c2;"/>
   </g>
   <g id="PathCollection_51">
    <path clip-path="url(#p652ce6c2fd)" d="M 453.6 53.169578 
C 454.926016 53.169578 456.197899 52.642747 457.135534 51.705112 
C 458.073168 50.767478 458.6 49.495594 458.6 48.169578 
C 458.6 46.843563 458.073168 45.571679 457.135534 44.634045 
C 456.197899 43.69641 454.926016 43.169578 453.6 43.169578 
C 452.273985 43.169578 451.002101 43.69641 450.064466 44.634045 
C 449.126832 45.571679 448.6 46.843563 448.6 48.169578 
C 448.6 49.495594 449.126832 50.767478 450.064466 51.705112 
C 451.002101 52.642747 452.273985 53.169578 453.6 53.169578 
z
" style="fill:none;stroke:#e377c2;"/>
   </g>
   <g id="PathCollection_52">
    <defs>
     <path d="M 0 5 
C 1.326016 5 2.597899 4.473168 3.535534 3.535534 
C 4.473168 2.597899 5 1.326016 5 0 
C 5 -1.326016 4.473168 -2.597899 3.535534 -3.535534 
C 2.597899 -4.473168 1.326016 -5 0 -5 
C -1.326016 -5 -2.597899 -4.473168 -3.535534 -3.535534 
C -4.473168 -2.597899 -5 -1.326016 -5 0 
C -5 1.326016 -4.473168 2.597899 -3.535534 3.535534 
C -2.597899 4.473168 -1.326016 5 0 5 
z
" id="m44f362c223" style="stroke:#e377c2;"/>
    </defs>
    <g clip-path="url(#p652ce6c2fd)">
     <use style="fill:#e377c2;stroke:#e377c2;" x="70.658824" xlink:href="#m44f362c223" y="188.25178"/>
    </g>
   </g>
   <g id="PathCollection_53">
    <g clip-path="url(#p652ce6c2fd)">
     <use style="fill:#e377c2;stroke:#e377c2;" x="78.317647" xlink:href="#m44f362c223" y="187.874748"/>
    </g>
   </g>
   <g id="PathCollection_54">
    <g clip-path="url(#p652ce6c2fd)">
     <use style="fill:#e377c2;stroke:#e377c2;" x="85.976471" xlink:href="#m44f362c223" y="187.218808"/>
    </g>
   </g>
   <g id="PathCollection_55">
    <g clip-path="url(#p652ce6c2fd)">
     <use style="fill:#e377c2;stroke:#e377c2;" x="93.635294" xlink:href="#m44f362c223" y="186.239353"/>
    </g>
   </g>
   <g id="PathCollection_56">
    <g clip-path="url(#p652ce6c2fd)">
     <use style="fill:#e377c2;stroke:#e377c2;" x="101.294118" xlink:href="#m44f362c223" y="184.920415"/>
    </g>
   </g>
   <g id="PathCollection_57">
    <g clip-path="url(#p652ce6c2fd)">
     <use style="fill:#e377c2;stroke:#e377c2;" x="108.952941" xlink:href="#m44f362c223" y="183.261953"/>
    </g>
   </g>
   <g id="PathCollection_58">
    <g clip-path="url(#p652ce6c2fd)">
     <use style="fill:#e377c2;stroke:#e377c2;" x="116.611765" xlink:href="#m44f362c223" y="181.276313"/>
    </g>
   </g>
   <g id="PathCollection_59">
    <g clip-path="url(#p652ce6c2fd)">
     <use style="fill:#e377c2;stroke:#e377c2;" x="124.270588" xlink:href="#m44f362c223" y="178.984009"/>
    </g>
   </g>
   <g id="PathCollection_60">
    <g clip-path="url(#p652ce6c2fd)">
     <use style="fill:#e377c2;stroke:#e377c2;" x="131.929412" xlink:href="#m44f362c223" y="176.410193"/>
    </g>
   </g>
   <g id="PathCollection_61">
    <g clip-path="url(#p652ce6c2fd)">
     <use style="fill:#e377c2;stroke:#e377c2;" x="139.588235" xlink:href="#m44f362c223" y="173.581768"/>
    </g>
   </g>
   <g id="PathCollection_62">
    <g clip-path="url(#p652ce6c2fd)">
     <use style="fill:#e377c2;stroke:#e377c2;" x="147.247059" xlink:href="#m44f362c223" y="170.525091"/>
    </g>
   </g>
   <g id="PathCollection_63">
    <g clip-path="url(#p652ce6c2fd)">
     <use style="fill:#e377c2;stroke:#e377c2;" x="154.905882" xlink:href="#m44f362c223" y="167.264227"/>
    </g>
   </g>
   <g id="PathCollection_64">
    <g clip-path="url(#p652ce6c2fd)">
     <use style="fill:#e377c2;stroke:#e377c2;" x="162.564706" xlink:href="#m44f362c223" y="163.81971"/>
    </g>
   </g>
   <g id="PathCollection_65">
    <g clip-path="url(#p652ce6c2fd)">
     <use style="fill:#e377c2;stroke:#e377c2;" x="170.223529" xlink:href="#m44f362c223" y="160.207761"/>
    </g>
   </g>
   <g id="PathCollection_66">
    <g clip-path="url(#p652ce6c2fd)">
     <use style="fill:#e377c2;stroke:#e377c2;" x="177.882353" xlink:href="#m44f362c223" y="156.439918"/>
    </g>
   </g>
   <g id="PathCollection_67">
    <g clip-path="url(#p652ce6c2fd)">
     <use style="fill:#e377c2;stroke:#e377c2;" x="185.541176" xlink:href="#m44f362c223" y="152.523041"/>
    </g>
   </g>
   <g id="PathCollection_68">
    <g clip-path="url(#p652ce6c2fd)">
     <use style="fill:#e377c2;stroke:#e377c2;" x="193.2" xlink:href="#m44f362c223" y="148.459633"/>
    </g>
   </g>
   <g id="PathCollection_69">
    <g clip-path="url(#p652ce6c2fd)">
     <use style="fill:#e377c2;stroke:#e377c2;" x="200.858824" xlink:href="#m44f362c223" y="144.248445"/>
    </g>
   </g>
   <g id="PathCollection_70">
    <g clip-path="url(#p652ce6c2fd)">
     <use style="fill:#e377c2;stroke:#e377c2;" x="208.517647" xlink:href="#m44f362c223" y="139.885312"/>
    </g>
   </g>
   <g id="PathCollection_71">
    <g clip-path="url(#p652ce6c2fd)">
     <use style="fill:#e377c2;stroke:#e377c2;" x="216.176471" xlink:href="#m44f362c223" y="135.36418"/>
    </g>
   </g>
   <g id="PathCollection_72">
    <g clip-path="url(#p652ce6c2fd)">
     <use style="fill:#e377c2;stroke:#e377c2;" x="223.835294" xlink:href="#m44f362c223" y="130.67827"/>
    </g>
   </g>
   <g id="PathCollection_73">
    <g clip-path="url(#p652ce6c2fd)">
     <use style="fill:#e377c2;stroke:#e377c2;" x="231.494118" xlink:href="#m44f362c223" y="125.821347"/>
    </g>
   </g>
   <g id="PathCollection_74">
    <g clip-path="url(#p652ce6c2fd)">
     <use style="fill:#e377c2;stroke:#e377c2;" x="239.152941" xlink:href="#m44f362c223" y="120.789036"/>
    </g>
   </g>
   <g id="PathCollection_75">
    <g clip-path="url(#p652ce6c2fd)">
     <use style="fill:#e377c2;stroke:#e377c2;" x="246.811765" xlink:href="#m44f362c223" y="115.580147"/>
    </g>
   </g>
   <g id="PathCollection_76">
    <g clip-path="url(#p652ce6c2fd)">
     <use style="fill:#e377c2;stroke:#e377c2;" x="254.470588" xlink:href="#m44f362c223" y="110.197965"/>
    </g>
   </g>
   <g id="PathCollection_77">
    <g clip-path="url(#p652ce6c2fd)">
     <use style="fill:#e377c2;stroke:#e377c2;" x="262.129412" xlink:href="#m44f362c223" y="104.651455"/>
    </g>
   </g>
   <g id="PathCollection_78">
    <g clip-path="url(#p652ce6c2fd)">
     <use style="fill:#e377c2;stroke:#e377c2;" x="269.788235" xlink:href="#m44f362c223" y="98.956334"/>
    </g>
   </g>
   <g id="PathCollection_79">
    <g clip-path="url(#p652ce6c2fd)">
     <use style="fill:#e377c2;stroke:#e377c2;" x="277.447059" xlink:href="#m44f362c223" y="93.135982"/>
    </g>
   </g>
   <g id="PathCollection_80">
    <g clip-path="url(#p652ce6c2fd)">
     <use style="fill:#e377c2;stroke:#e377c2;" x="285.105882" xlink:href="#m44f362c223" y="87.22212"/>
    </g>
   </g>
   <g id="PathCollection_81">
    <g clip-path="url(#p652ce6c2fd)">
     <use style="fill:#e377c2;stroke:#e377c2;" x="292.764706" xlink:href="#m44f362c223" y="81.255237"/>
    </g>
   </g>
   <g id="PathCollection_82">
    <g clip-path="url(#p652ce6c2fd)">
     <use style="fill:#e377c2;stroke:#e377c2;" x="300.423529" xlink:href="#m44f362c223" y="75.284699"/>
    </g>
   </g>
   <g id="PathCollection_83">
    <g clip-path="url(#p652ce6c2fd)">
     <use style="fill:#e377c2;stroke:#e377c2;" x="308.082353" xlink:href="#m44f362c223" y="69.368507"/>
    </g>
   </g>
   <g id="PathCollection_84">
    <g clip-path="url(#p652ce6c2fd)">
     <use style="fill:#e377c2;stroke:#e377c2;" x="315.741176" xlink:href="#m44f362c223" y="63.57266"/>
    </g>
   </g>
   <g id="PathCollection_85">
    <g clip-path="url(#p652ce6c2fd)">
     <use style="fill:#e377c2;stroke:#e377c2;" x="323.4" xlink:href="#m44f362c223" y="57.970069"/>
    </g>
   </g>
   <g id="PathCollection_86">
    <g clip-path="url(#p652ce6c2fd)">
     <use style="fill:#e377c2;stroke:#e377c2;" x="331.058824" xlink:href="#m44f362c223" y="52.63898"/>
    </g>
   </g>
   <g id="PathCollection_87">
    <g clip-path="url(#p652ce6c2fd)">
     <use style="fill:#e377c2;stroke:#e377c2;" x="338.717647" xlink:href="#m44f362c223" y="47.660867"/>
    </g>
   </g>
   <g id="PathCollection_88">
    <g clip-path="url(#p652ce6c2fd)">
     <use style="fill:#e377c2;stroke:#e377c2;" x="346.376471" xlink:href="#m44f362c223" y="43.117744"/>
    </g>
   </g>
   <g id="PathCollection_89">
    <g clip-path="url(#p652ce6c2fd)">
     <use style="fill:#e377c2;stroke:#e377c2;" x="354.035294" xlink:href="#m44f362c223" y="39.088847"/>
    </g>
   </g>
   <g id="PathCollection_90">
    <g clip-path="url(#p652ce6c2fd)">
     <use style="fill:#e377c2;stroke:#e377c2;" x="361.694118" xlink:href="#m44f362c223" y="35.646653"/>
    </g>
   </g>
   <g id="PathCollection_91">
    <g clip-path="url(#p652ce6c2fd)">
     <use style="fill:#e377c2;stroke:#e377c2;" x="369.352941" xlink:href="#m44f362c223" y="32.852182"/>
    </g>
   </g>
   <g id="PathCollection_92">
    <g clip-path="url(#p652ce6c2fd)">
     <use style="fill:#e377c2;stroke:#e377c2;" x="377.011765" xlink:href="#m44f362c223" y="30.749532"/>
    </g>
   </g>
   <g id="PathCollection_93">
    <g clip-path="url(#p652ce6c2fd)">
     <use style="fill:#e377c2;stroke:#e377c2;" x="384.670588" xlink:href="#m44f362c223" y="29.359615"/>
    </g>
   </g>
   <g id="PathCollection_94">
    <g clip-path="url(#p652ce6c2fd)">
     <use style="fill:#e377c2;stroke:#e377c2;" x="392.329412" xlink:href="#m44f362c223" y="28.67304"/>
    </g>
   </g>
   <g id="PathCollection_95">
    <g clip-path="url(#p652ce6c2fd)">
     <use style="fill:#e377c2;stroke:#e377c2;" x="399.988235" xlink:href="#m44f362c223" y="28.642101"/>
    </g>
   </g>
   <g id="PathCollection_96">
    <g clip-path="url(#p652ce6c2fd)">
     <use style="fill:#e377c2;stroke:#e377c2;" x="407.647059" xlink:href="#m44f362c223" y="29.171822"/>
    </g>
   </g>
   <g id="PathCollection_97">
    <g clip-path="url(#p652ce6c2fd)">
     <use style="fill:#e377c2;stroke:#e377c2;" x="415.305882" xlink:href="#m44f362c223" y="30.110013"/>
    </g>
   </g>
   <g id="PathCollection_98">
    <g clip-path="url(#p652ce6c2fd)">
     <use style="fill:#e377c2;stroke:#e377c2;" x="422.964706" xlink:href="#m44f362c223" y="31.236303"/>
    </g>
   </g>
   <g id="PathCollection_99">
    <g clip-path="url(#p652ce6c2fd)">
     <use style="fill:#e377c2;stroke:#e377c2;" x="430.623529" xlink:href="#m44f362c223" y="32.250086"/>
    </g>
   </g>
   <g id="PathCollection_100">
    <g clip-path="url(#p652ce6c2fd)">
     <use style="fill:#e377c2;stroke:#e377c2;" x="438.282353" xlink:href="#m44f362c223" y="32.75735"/>
    </g>
   </g>
   <g id="PathCollection_101">
    <g clip-path="url(#p652ce6c2fd)">
     <use style="fill:#e377c2;stroke:#e377c2;" x="445.941176" xlink:href="#m44f362c223" y="32.256343"/>
    </g>
   </g>
   <g id="PathCollection_102">
    <g clip-path="url(#p652ce6c2fd)">
     <use style="fill:#e377c2;stroke:#e377c2;" x="453.6" xlink:href="#m44f362c223" y="30.122015"/>
    </g>
   </g>
   <g id="matplotlib.axis_1"/>
   <g id="matplotlib.axis_2"/>
   <g id="line2d_1">
    <path clip-path="url(#p652ce6c2fd)" d="M 63 189 
L 107.676471 188.889994 
L 111.729265 188.581997 
L 115.718235 188.054089 
L 119.802941 187.288015 
L 124.047206 186.264841 
L 128.514853 184.955752 
L 133.173971 183.356952 
L 138.088382 181.433645 
L 143.29 179.157215 
L 148.842647 176.480843 
L 154.778235 173.36892 
L 161.1925 169.749454 
L 168.117353 165.582727 
L 175.776176 160.708967 
L 184.360441 154.974329 
L 194.125441 148.177214 
L 205.932794 139.677945 
L 222.175882 127.687969 
L 263.852647 96.815649 
L 278.915 86.001827 
L 290.977647 77.593577 
L 295.445294 74.735477 
L 299.498088 72.404928 
L 303.550882 70.331264 
L 307.635588 68.490722 
L 311.816029 66.851811 
L 316.092206 65.415944 
L 320.464118 64.183484 
L 324.963676 63.147358 
L 329.590882 62.310841 
L 334.377647 61.672456 
L 339.323971 61.237286 
L 344.493676 61.007311 
L 349.886765 60.992179 
L 355.535147 61.200948 
L 361.470735 61.644958 
L 367.757353 62.341232 
L 374.426912 63.306734 
L 381.543235 64.564235 
L 389.202059 66.146013 
L 397.531029 68.096356 
L 406.721618 70.481319 
L 417.029118 73.391519 
L 428.900294 76.980856 
L 443.324412 81.583907 
L 453.6 84.968522 
L 453.6 84.968522 
" style="fill:none;stroke:#e377c2;stroke-dasharray:11.1,4.8;stroke-dashoffset:0;stroke-width:3;"/>
   </g>
   <g id="line2d_2">
    <path clip-path="url(#p652ce6c2fd)" d="M 63 189 
L 107.293529 188.889053 
L 111.027206 188.581703 
L 114.665147 188.057337 
L 118.366912 187.297865 
L 122.228235 186.27494 
L 126.249118 184.975238 
L 130.429559 183.38806 
L 134.833382 181.475493 
L 139.460588 179.221109 
L 144.375 176.576142 
L 149.576618 173.521396 
L 155.129265 170.000713 
L 161.128676 165.929247 
L 167.606765 161.260266 
L 174.723088 155.851519 
L 182.573382 149.601602 
L 191.508676 142.1976 
L 202.039559 133.173428 
L 215.538235 121.295086 
L 243.397206 96.388502 
L 262.608088 79.396073 
L 277.255588 66.737305 
L 289.701176 56.264322 
L 294.264559 52.669221 
L 298.125882 49.910104 
L 301.891471 47.490352 
L 305.688971 45.314224 
L 309.518382 43.375442 
L 313.411618 41.653057 
L 317.368676 40.144639 
L 321.421471 38.83781 
L 325.57 37.73437 
L 329.814265 36.835212 
L 334.186176 36.136051 
L 338.717647 35.637962 
L 343.408676 35.347985 
L 348.259265 35.271505 
L 353.333235 35.415405 
L 358.630588 35.789608 
L 364.183235 36.405717 
L 370.055 37.282917 
L 376.277794 38.439937 
L 382.915441 39.903388 
L 390.031765 41.703307 
L 397.7225 43.880925 
L 406.147206 46.501291 
L 415.497353 49.646686 
L 426.155882 53.473187 
L 438.729118 58.231474 
L 453.6 64.083469 
L 453.6 64.083469 
" style="fill:none;stroke:#e377c2;stroke-linecap:square;stroke-width:3;"/>
   </g>
   <g id="patch_3">
    <path d="M 63 189 
L 63 25.92 
" style="fill:none;stroke:#000000;stroke-linecap:square;stroke-linejoin:miter;stroke-width:0.8;"/>
   </g>
   <g id="patch_4">
    <path d="M 453.6 189 
L 453.6 25.92 
" style="fill:none;stroke:#000000;stroke-linecap:square;stroke-linejoin:miter;stroke-width:0.8;"/>
   </g>
   <g id="patch_5">
    <path d="M 63 189 
L 453.6 189 
" style="fill:none;stroke:#000000;stroke-linecap:square;stroke-linejoin:miter;stroke-width:0.8;"/>
   </g>
   <g id="patch_6">
    <path d="M 63 25.92 
L 453.6 25.92 
" style="fill:none;stroke:#000000;stroke-linecap:square;stroke-linejoin:miter;stroke-width:0.8;"/>
   </g>
  </g>
 </g>
 <defs>
  <clipPath id="p652ce6c2fd">
   <rect height="163.08" width="390.6" x="63" y="25.92"/>
  </clipPath>
 </defs>
</svg>
