<?xml version="1.0" encoding="utf-8" standalone="no"?>
<!DOCTYPE svg PUBLIC "-//W3C//DTD SVG 1.1//EN"
  "http://www.w3.org/Graphics/SVG/1.1/DTD/svg11.dtd">
<!-- Created with matplotlib (https://matplotlib.org/) -->
<svg height="216pt" version="1.1" viewBox="0 0 504 216" width="504pt" xmlns="http://www.w3.org/2000/svg" xmlns:xlink="http://www.w3.org/1999/xlink">
 <metadata>
  <rdf:RDF xmlns:cc="http://creativecommons.org/ns#" xmlns:dc="http://purl.org/dc/elements/1.1/" xmlns:rdf="http://www.w3.org/1999/02/22-rdf-syntax-ns#">
   <cc:Work>
    <dc:type rdf:resource="http://purl.org/dc/dcmitype/StillImage"/>
    <dc:date>2024-11-24T08:52:15.643557</dc:date>
    <dc:format>image/svg+xml</dc:format>
    <dc:creator>
     <cc:Agent>
      <dc:title>Matplotlib v3.3.2, https://matplotlib.org/</dc:title>
     </cc:Agent>
    </dc:creator>
   </cc:Work>
  </rdf:RDF>
 </metadata>
 <defs>
  <style type="text/css">*{stroke-linecap:butt;stroke-linejoin:round;}</style>
 </defs>
 <g id="figure_1">
  <g id="patch_1">
   <path d="M 0 216 
L 504 216 
L 504 0 
L 0 0 
z
" style="fill:none;"/>
  </g>
  <g id="axes_1">
   <g id="patch_2">
    <path d="M 63 189 
L 453.6 189 
L 453.6 25.92 
L 63 25.92 
z
" style="fill:#ffffff;"/>
   </g>
   <g id="PathCollection_1">
    <path clip-path="url(#pa9be3f1806)" d="M 70.658824 192.901001 
C 71.984839 192.901001 73.256723 192.374169 74.194357 191.436535 
C 75.131992 190.4989 75.658824 189.227016 75.658824 187.901001 
C 75.658824 186.574985 75.131992 185.303102 74.194357 184.365467 
C 73.256723 183.427832 71.984839 182.901001 70.658824 182.901001 
C 69.332808 182.901001 68.060924 183.427832 67.12329 184.365467 
C 66.185655 185.303102 65.658824 186.574985 65.658824 187.901001 
C 65.658824 189.227016 66.185655 190.4989 67.12329 191.436535 
C 68.060924 192.374169 69.332808 192.901001 70.658824 192.901001 
z
" style="fill:none;stroke:#d8db8d;"/>
   </g>
   <g id="PathCollection_2">
    <path clip-path="url(#pa9be3f1806)" d="M 78.317647 192.127842 
C 79.643663 192.127842 80.915546 191.60101 81.853181 190.663376 
C 82.790816 189.725741 83.317647 188.453857 83.317647 187.127842 
C 83.317647 185.801826 82.790816 184.529942 81.853181 183.592308 
C 80.915546 182.654673 79.643663 182.127842 78.317647 182.127842 
C 76.991632 182.127842 75.719748 182.654673 74.782113 183.592308 
C 73.844479 184.529942 73.317647 185.801826 73.317647 187.127842 
C 73.317647 188.453857 73.844479 189.725741 74.782113 190.663376 
C 75.719748 191.60101 76.991632 192.127842 78.317647 192.127842 
z
" style="fill:none;stroke:#d8db8d;"/>
   </g>
   <g id="PathCollection_3">
    <path clip-path="url(#pa9be3f1806)" d="M 85.976471 191.64375 
C 87.302486 191.64375 88.57437 191.116918 89.512004 190.179284 
C 90.449639 189.241649 90.976471 187.969766 90.976471 186.64375 
C 90.976471 185.317735 90.449639 184.045851 89.512004 183.108216 
C 88.57437 182.170582 87.302486 181.64375 85.976471 181.64375 
C 84.650455 181.64375 83.378571 182.170582 82.440937 183.108216 
C 81.503302 184.045851 80.976471 185.317735 80.976471 186.64375 
C 80.976471 187.969766 81.503302 189.241649 82.440937 190.179284 
C 83.378571 191.116918 84.650455 191.64375 85.976471 191.64375 
z
" style="fill:none;stroke:#d8db8d;"/>
   </g>
   <g id="PathCollection_4">
    <path clip-path="url(#pa9be3f1806)" d="M 93.635294 191.368531 
C 94.96131 191.368531 96.233193 190.8417 97.170828 189.904065 
C 98.108463 188.966431 98.635294 187.694547 98.635294 186.368531 
C 98.635294 185.042516 98.108463 183.770632 97.170828 182.832997 
C 96.233193 181.895363 94.96131 181.368531 93.635294 181.368531 
C 92.309279 181.368531 91.037395 181.895363 90.09976 182.832997 
C 89.162126 183.770632 88.635294 185.042516 88.635294 186.368531 
C 88.635294 187.694547 89.162126 188.966431 90.09976 189.904065 
C 91.037395 190.8417 92.309279 191.368531 93.635294 191.368531 
z
" style="fill:none;stroke:#d8db8d;"/>
   </g>
   <g id="PathCollection_5">
    <path clip-path="url(#pa9be3f1806)" d="M 101.294118 191.241329 
C 102.620133 191.241329 103.892017 190.714497 104.829652 189.776863 
C 105.767286 188.839228 106.294118 187.567344 106.294118 186.241329 
C 106.294118 184.915313 105.767286 183.64343 104.829652 182.705795 
C 103.892017 181.76816 102.620133 181.241329 101.294118 181.241329 
C 99.968102 181.241329 98.696218 181.76816 97.758584 182.705795 
C 96.820949 183.64343 96.294118 184.915313 96.294118 186.241329 
C 96.294118 187.567344 96.820949 188.839228 97.758584 189.776863 
C 98.696218 190.714497 99.968102 191.241329 101.294118 191.241329 
z
" style="fill:none;stroke:#d8db8d;"/>
   </g>
   <g id="PathCollection_6">
    <path clip-path="url(#pa9be3f1806)" d="M 108.952941 191.21146 
C 110.278957 191.21146 111.550841 190.684628 112.488475 189.746993 
C 113.42611 188.809359 113.952941 187.537475 113.952941 186.21146 
C 113.952941 184.885444 113.42611 183.61356 112.488475 182.675926 
C 111.550841 181.738291 110.278957 181.21146 108.952941 181.21146 
C 107.626926 181.21146 106.355042 181.738291 105.417407 182.675926 
C 104.479773 183.61356 103.952941 184.885444 103.952941 186.21146 
C 103.952941 187.537475 104.479773 188.809359 105.417407 189.746993 
C 106.355042 190.684628 107.626926 191.21146 108.952941 191.21146 
z
" style="fill:none;stroke:#d8db8d;"/>
   </g>
   <g id="PathCollection_7">
    <path clip-path="url(#pa9be3f1806)" d="M 116.611765 191.238326 
C 117.93778 191.238326 119.209664 190.711494 120.147299 189.77386 
C 121.084933 188.836225 121.611765 187.564341 121.611765 186.238326 
C 121.611765 184.91231 121.084933 183.640427 120.147299 182.702792 
C 119.209664 181.765158 117.93778 181.238326 116.611765 181.238326 
C 115.285749 181.238326 114.013865 181.765158 113.076231 182.702792 
C 112.138596 183.640427 111.611765 184.91231 111.611765 186.238326 
C 111.611765 187.564341 112.138596 188.836225 113.076231 189.77386 
C 114.013865 190.711494 115.285749 191.238326 116.611765 191.238326 
z
" style="fill:none;stroke:#d8db8d;"/>
   </g>
   <g id="PathCollection_8">
    <path clip-path="url(#pa9be3f1806)" d="M 124.270588 191.289979 
C 125.596604 191.289979 126.868488 190.763147 127.806122 189.825513 
C 128.743757 188.887878 129.270588 187.615994 129.270588 186.289979 
C 129.270588 184.963963 128.743757 183.692079 127.806122 182.754445 
C 126.868488 181.81681 125.596604 181.289979 124.270588 181.289979 
C 122.944573 181.289979 121.672689 181.81681 120.735054 182.754445 
C 119.79742 183.692079 119.270588 184.963963 119.270588 186.289979 
C 119.270588 187.615994 119.79742 188.887878 120.735054 189.825513 
C 121.672689 190.763147 122.944573 191.289979 124.270588 191.289979 
z
" style="fill:none;stroke:#d8db8d;"/>
   </g>
   <g id="PathCollection_9">
    <path clip-path="url(#pa9be3f1806)" d="M 131.929412 191.341809 
C 133.255427 191.341809 134.527311 190.814978 135.464946 189.877343 
C 136.40258 188.939709 136.929412 187.667825 136.929412 186.341809 
C 136.929412 185.015794 136.40258 183.74391 135.464946 182.806275 
C 134.527311 181.868641 133.255427 181.341809 131.929412 181.341809 
C 130.603396 181.341809 129.331512 181.868641 128.393878 182.806275 
C 127.456243 183.74391 126.929412 185.015794 126.929412 186.341809 
C 126.929412 187.667825 127.456243 188.939709 128.393878 189.877343 
C 129.331512 190.814978 130.603396 191.341809 131.929412 191.341809 
z
" style="fill:none;stroke:#d8db8d;"/>
   </g>
   <g id="PathCollection_10">
    <path clip-path="url(#pa9be3f1806)" d="M 139.588235 191.375374 
C 140.914251 191.375374 142.186135 190.848543 143.123769 189.910908 
C 144.061404 188.973274 144.588235 187.70139 144.588235 186.375374 
C 144.588235 185.049359 144.061404 183.777475 143.123769 182.83984 
C 142.186135 181.902206 140.914251 181.375374 139.588235 181.375374 
C 138.26222 181.375374 136.990336 181.902206 136.052701 182.83984 
C 135.115067 183.777475 134.588235 185.049359 134.588235 186.375374 
C 134.588235 187.70139 135.115067 188.973274 136.052701 189.910908 
C 136.990336 190.848543 138.26222 191.375374 139.588235 191.375374 
z
" style="fill:none;stroke:#d8db8d;"/>
   </g>
   <g id="PathCollection_11">
    <path clip-path="url(#pa9be3f1806)" d="M 147.247059 191.377332 
C 148.573074 191.377332 149.844958 190.850501 150.782593 189.912866 
C 151.720227 188.975231 152.247059 187.703348 152.247059 186.377332 
C 152.247059 185.051317 151.720227 183.779433 150.782593 182.841798 
C 149.844958 181.904164 148.573074 181.377332 147.247059 181.377332 
C 145.921043 181.377332 144.649159 181.904164 143.711525 182.841798 
C 142.77389 183.779433 142.247059 185.051317 142.247059 186.377332 
C 142.247059 187.703348 142.77389 188.975231 143.711525 189.912866 
C 144.649159 190.850501 145.921043 191.377332 147.247059 191.377332 
z
" style="fill:none;stroke:#d8db8d;"/>
   </g>
   <g id="PathCollection_12">
    <path clip-path="url(#pa9be3f1806)" d="M 154.905882 191.338505 
C 156.231898 191.338505 157.503782 190.811674 158.441416 189.874039 
C 159.379051 188.936405 159.905882 187.664521 159.905882 186.338505 
C 159.905882 185.01249 159.379051 183.740606 158.441416 182.802971 
C 157.503782 181.865337 156.231898 181.338505 154.905882 181.338505 
C 153.579867 181.338505 152.307983 181.865337 151.370348 182.802971 
C 150.432714 183.740606 149.905882 185.01249 149.905882 186.338505 
C 149.905882 187.664521 150.432714 188.936405 151.370348 189.874039 
C 152.307983 190.811674 153.579867 191.338505 154.905882 191.338505 
z
" style="fill:none;stroke:#d8db8d;"/>
   </g>
   <g id="PathCollection_13">
    <path clip-path="url(#pa9be3f1806)" d="M 162.564706 191.253043 
C 163.890721 191.253043 165.162605 190.726211 166.10024 189.788577 
C 167.037874 188.850942 167.564706 187.579058 167.564706 186.253043 
C 167.564706 184.927027 167.037874 183.655143 166.10024 182.717509 
C 165.162605 181.779874 163.890721 181.253043 162.564706 181.253043 
C 161.23869 181.253043 159.966807 181.779874 159.029172 182.717509 
C 158.091537 183.655143 157.564706 184.927027 157.564706 186.253043 
C 157.564706 187.579058 158.091537 188.850942 159.029172 189.788577 
C 159.966807 190.726211 161.23869 191.253043 162.564706 191.253043 
z
" style="fill:none;stroke:#d8db8d;"/>
   </g>
   <g id="PathCollection_14">
    <path clip-path="url(#pa9be3f1806)" d="M 170.223529 191.117689 
C 171.549545 191.117689 172.821429 190.590858 173.759063 189.653223 
C 174.696698 188.715589 175.223529 187.443705 175.223529 186.117689 
C 175.223529 184.791674 174.696698 183.51979 173.759063 182.582155 
C 172.821429 181.644521 171.549545 181.117689 170.223529 181.117689 
C 168.897514 181.117689 167.62563 181.644521 166.687996 182.582155 
C 165.750361 183.51979 165.223529 184.791674 165.223529 186.117689 
C 165.223529 187.443705 165.750361 188.715589 166.687996 189.653223 
C 167.62563 190.590858 168.897514 191.117689 170.223529 191.117689 
z
" style="fill:none;stroke:#d8db8d;"/>
   </g>
   <g id="PathCollection_15">
    <path clip-path="url(#pa9be3f1806)" d="M 177.882353 190.931155 
C 179.208368 190.931155 180.480252 190.404323 181.417887 189.466689 
C 182.355521 188.529054 182.882353 187.25717 182.882353 185.931155 
C 182.882353 184.605139 182.355521 183.333255 181.417887 182.395621 
C 180.480252 181.457986 179.208368 180.931155 177.882353 180.931155 
C 176.556337 180.931155 175.284454 181.457986 174.346819 182.395621 
C 173.409184 183.333255 172.882353 184.605139 172.882353 185.931155 
C 172.882353 187.25717 173.409184 188.529054 174.346819 189.466689 
C 175.284454 190.404323 176.556337 190.931155 177.882353 190.931155 
z
" style="fill:none;stroke:#d8db8d;"/>
   </g>
   <g id="PathCollection_16">
    <path clip-path="url(#pa9be3f1806)" d="M 185.541176 190.69357 
C 186.867192 190.69357 188.139076 190.166738 189.07671 189.229104 
C 190.014345 188.291469 190.541176 187.019585 190.541176 185.69357 
C 190.541176 184.367554 190.014345 183.095671 189.07671 182.158036 
C 188.139076 181.220402 186.867192 180.69357 185.541176 180.69357 
C 184.215161 180.69357 182.943277 181.220402 182.005643 182.158036 
C 181.068008 183.095671 180.541176 184.367554 180.541176 185.69357 
C 180.541176 187.019585 181.068008 188.291469 182.005643 189.229104 
C 182.943277 190.166738 184.215161 190.69357 185.541176 190.69357 
z
" style="fill:none;stroke:#d8db8d;"/>
   </g>
   <g id="PathCollection_17">
    <path clip-path="url(#pa9be3f1806)" d="M 193.2 190.406032 
C 194.526016 190.406032 195.797899 189.8792 196.735534 188.941566 
C 197.673168 188.003931 198.2 186.732047 198.2 185.406032 
C 198.2 184.080016 197.673168 182.808133 196.735534 181.870498 
C 195.797899 180.932863 194.526016 180.406032 193.2 180.406032 
C 191.873985 180.406032 190.602101 180.932863 189.664466 181.870498 
C 188.726832 182.808133 188.2 184.080016 188.2 185.406032 
C 188.2 186.732047 188.726832 188.003931 189.664466 188.941566 
C 190.602101 189.8792 191.873985 190.406032 193.2 190.406032 
z
" style="fill:none;stroke:#d8db8d;"/>
   </g>
   <g id="PathCollection_18">
    <path clip-path="url(#pa9be3f1806)" d="M 200.858824 190.070229 
C 202.184839 190.070229 203.456723 189.543397 204.394357 188.605763 
C 205.331992 187.668128 205.858824 186.396244 205.858824 185.070229 
C 205.858824 183.744213 205.331992 182.47233 204.394357 181.534695 
C 203.456723 180.59706 202.184839 180.070229 200.858824 180.070229 
C 199.532808 180.070229 198.260924 180.59706 197.32329 181.534695 
C 196.385655 182.47233 195.858824 183.744213 195.858824 185.070229 
C 195.858824 186.396244 196.385655 187.668128 197.32329 188.605763 
C 198.260924 189.543397 199.532808 190.070229 200.858824 190.070229 
z
" style="fill:none;stroke:#d8db8d;"/>
   </g>
   <g id="PathCollection_19">
    <path clip-path="url(#pa9be3f1806)" d="M 208.517647 189.688138 
C 209.843663 189.688138 211.115546 189.161307 212.053181 188.223672 
C 212.990816 187.286037 213.517647 186.014154 213.517647 184.688138 
C 213.517647 183.362123 212.990816 182.090239 212.053181 181.152604 
C 211.115546 180.21497 209.843663 179.688138 208.517647 179.688138 
C 207.191632 179.688138 205.919748 180.21497 204.982113 181.152604 
C 204.044479 182.090239 203.517647 183.362123 203.517647 184.688138 
C 203.517647 186.014154 204.044479 187.286037 204.982113 188.223672 
C 205.919748 189.161307 207.191632 189.688138 208.517647 189.688138 
z
" style="fill:none;stroke:#d8db8d;"/>
   </g>
   <g id="PathCollection_20">
    <path clip-path="url(#pa9be3f1806)" d="M 216.176471 189.261792 
C 217.502486 189.261792 218.77437 188.73496 219.712004 187.797326 
C 220.649639 186.859691 221.176471 185.587807 221.176471 184.261792 
C 221.176471 182.935776 220.649639 181.663892 219.712004 180.726258 
C 218.77437 179.788623 217.502486 179.261792 216.176471 179.261792 
C 214.850455 179.261792 213.578571 179.788623 212.640937 180.726258 
C 211.703302 181.663892 211.176471 182.935776 211.176471 184.261792 
C 211.176471 185.587807 211.703302 186.859691 212.640937 187.797326 
C 213.578571 188.73496 214.850455 189.261792 216.176471 189.261792 
z
" style="fill:none;stroke:#d8db8d;"/>
   </g>
   <g id="PathCollection_21">
    <path clip-path="url(#pa9be3f1806)" d="M 223.835294 188.793109 
C 225.16131 188.793109 226.433193 188.266278 227.370828 187.328643 
C 228.308463 186.391009 228.835294 185.119125 228.835294 183.793109 
C 228.835294 182.467094 228.308463 181.19521 227.370828 180.257575 
C 226.433193 179.319941 225.16131 178.793109 223.835294 178.793109 
C 222.509279 178.793109 221.237395 179.319941 220.29976 180.257575 
C 219.362126 181.19521 218.835294 182.467094 218.835294 183.793109 
C 218.835294 185.119125 219.362126 186.391009 220.29976 187.328643 
C 221.237395 188.266278 222.509279 188.793109 223.835294 188.793109 
z
" style="fill:none;stroke:#d8db8d;"/>
   </g>
   <g id="PathCollection_22">
    <path clip-path="url(#pa9be3f1806)" d="M 231.494118 188.283781 
C 232.820133 188.283781 234.092017 187.756949 235.029652 186.819314 
C 235.967286 185.88168 236.494118 184.609796 236.494118 183.283781 
C 236.494118 181.957765 235.967286 180.685881 235.029652 179.748247 
C 234.092017 178.810612 232.820133 178.283781 231.494118 178.283781 
C 230.168102 178.283781 228.896218 178.810612 227.958584 179.748247 
C 227.020949 180.685881 226.494118 181.957765 226.494118 183.283781 
C 226.494118 184.609796 227.020949 185.88168 227.958584 186.819314 
C 228.896218 187.756949 230.168102 188.283781 231.494118 188.283781 
z
" style="fill:none;stroke:#d8db8d;"/>
   </g>
   <g id="PathCollection_23">
    <path clip-path="url(#pa9be3f1806)" d="M 239.152941 187.735204 
C 240.478957 187.735204 241.750841 187.208372 242.688475 186.270737 
C 243.62611 185.333103 244.152941 184.061219 244.152941 182.735204 
C 244.152941 181.409188 243.62611 180.137304 242.688475 179.19967 
C 241.750841 178.262035 240.478957 177.735204 239.152941 177.735204 
C 237.826926 177.735204 236.555042 178.262035 235.617407 179.19967 
C 234.679773 180.137304 234.152941 181.409188 234.152941 182.735204 
C 234.152941 184.061219 234.679773 185.333103 235.617407 186.270737 
C 236.555042 187.208372 237.826926 187.735204 239.152941 187.735204 
z
" style="fill:none;stroke:#d8db8d;"/>
   </g>
   <g id="PathCollection_24">
    <path clip-path="url(#pa9be3f1806)" d="M 246.811765 187.148468 
C 248.13778 187.148468 249.409664 186.621637 250.347299 185.684002 
C 251.284933 184.746367 251.811765 183.474484 251.811765 182.148468 
C 251.811765 180.822453 251.284933 179.550569 250.347299 178.612934 
C 249.409664 177.6753 248.13778 177.148468 246.811765 177.148468 
C 245.485749 177.148468 244.213865 177.6753 243.276231 178.612934 
C 242.338596 179.550569 241.811765 180.822453 241.811765 182.148468 
C 241.811765 183.474484 242.338596 184.746367 243.276231 185.684002 
C 244.213865 186.621637 245.485749 187.148468 246.811765 187.148468 
z
" style="fill:none;stroke:#d8db8d;"/>
   </g>
   <g id="PathCollection_25">
    <path clip-path="url(#pa9be3f1806)" d="M 254.470588 186.524376 
C 255.796604 186.524376 257.068488 185.997544 258.006122 185.05991 
C 258.943757 184.122275 259.470588 182.850391 259.470588 181.524376 
C 259.470588 180.19836 258.943757 178.926477 258.006122 177.988842 
C 257.068488 177.051207 255.796604 176.524376 254.470588 176.524376 
C 253.144573 176.524376 251.872689 177.051207 250.935054 177.988842 
C 249.99742 178.926477 249.470588 180.19836 249.470588 181.524376 
C 249.470588 182.850391 249.99742 184.122275 250.935054 185.05991 
C 251.872689 185.997544 253.144573 186.524376 254.470588 186.524376 
z
" style="fill:none;stroke:#d8db8d;"/>
   </g>
   <g id="PathCollection_26">
    <path clip-path="url(#pa9be3f1806)" d="M 262.129412 185.863495 
C 263.455427 185.863495 264.727311 185.336663 265.664946 184.399028 
C 266.60258 183.461394 267.129412 182.18951 267.129412 180.863495 
C 267.129412 179.537479 266.60258 178.265595 265.664946 177.327961 
C 264.727311 176.390326 263.455427 175.863495 262.129412 175.863495 
C 260.803396 175.863495 259.531512 176.390326 258.593878 177.327961 
C 257.656243 178.265595 257.129412 179.537479 257.129412 180.863495 
C 257.129412 182.18951 257.656243 183.461394 258.593878 184.399028 
C 259.531512 185.336663 260.803396 185.863495 262.129412 185.863495 
z
" style="fill:none;stroke:#d8db8d;"/>
   </g>
   <g id="PathCollection_27">
    <path clip-path="url(#pa9be3f1806)" d="M 269.788235 185.166241 
C 271.114251 185.166241 272.386135 184.63941 273.323769 183.701775 
C 274.261404 182.76414 274.788235 181.492257 274.788235 180.166241 
C 274.788235 178.840226 274.261404 177.568342 273.323769 176.630707 
C 272.386135 175.693073 271.114251 175.166241 269.788235 175.166241 
C 268.46222 175.166241 267.190336 175.693073 266.252701 176.630707 
C 265.315067 177.568342 264.788235 178.840226 264.788235 180.166241 
C 264.788235 181.492257 265.315067 182.76414 266.252701 183.701775 
C 267.190336 184.63941 268.46222 185.166241 269.788235 185.166241 
z
" style="fill:none;stroke:#d8db8d;"/>
   </g>
   <g id="PathCollection_28">
    <path clip-path="url(#pa9be3f1806)" d="M 277.447059 184.432986 
C 278.773074 184.432986 280.044958 183.906154 280.982593 182.968519 
C 281.920227 182.030885 282.447059 180.759001 282.447059 179.432986 
C 282.447059 178.10697 281.920227 176.835086 280.982593 175.897452 
C 280.044958 174.959817 278.773074 174.432986 277.447059 174.432986 
C 276.121043 174.432986 274.849159 174.959817 273.911525 175.897452 
C 272.97389 176.835086 272.447059 178.10697 272.447059 179.432986 
C 272.447059 180.759001 272.97389 182.030885 273.911525 182.968519 
C 274.849159 183.906154 276.121043 184.432986 277.447059 184.432986 
z
" style="fill:none;stroke:#d8db8d;"/>
   </g>
   <g id="PathCollection_29">
    <path clip-path="url(#pa9be3f1806)" d="M 285.105882 183.664171 
C 286.431898 183.664171 287.703782 183.137339 288.641416 182.199705 
C 289.579051 181.26207 290.105882 179.990186 290.105882 178.664171 
C 290.105882 177.338155 289.579051 176.066271 288.641416 175.128637 
C 287.703782 174.191002 286.431898 173.664171 285.105882 173.664171 
C 283.779867 173.664171 282.507983 174.191002 281.570348 175.128637 
C 280.632714 176.066271 280.105882 177.338155 280.105882 178.664171 
C 280.105882 179.990186 280.632714 181.26207 281.570348 182.199705 
C 282.507983 183.137339 283.779867 183.664171 285.105882 183.664171 
z
" style="fill:none;stroke:#d8db8d;"/>
   </g>
   <g id="PathCollection_30">
    <path clip-path="url(#pa9be3f1806)" d="M 292.764706 182.860442 
C 294.090721 182.860442 295.362605 182.333611 296.30024 181.395976 
C 297.237874 180.458342 297.764706 179.186458 297.764706 177.860442 
C 297.764706 176.534427 297.237874 175.262543 296.30024 174.324908 
C 295.362605 173.387274 294.090721 172.860442 292.764706 172.860442 
C 291.43869 172.860442 290.166807 173.387274 289.229172 174.324908 
C 288.291537 175.262543 287.764706 176.534427 287.764706 177.860442 
C 287.764706 179.186458 288.291537 180.458342 289.229172 181.395976 
C 290.166807 182.333611 291.43869 182.860442 292.764706 182.860442 
z
" style="fill:none;stroke:#d8db8d;"/>
   </g>
   <g id="PathCollection_31">
    <path clip-path="url(#pa9be3f1806)" d="M 300.423529 182.022783 
C 301.749545 182.022783 303.021429 181.495951 303.959063 180.558317 
C 304.896698 179.620682 305.423529 178.348798 305.423529 177.022783 
C 305.423529 175.696767 304.896698 174.424883 303.959063 173.487249 
C 303.021429 172.549614 301.749545 172.022783 300.423529 172.022783 
C 299.097514 172.022783 297.82563 172.549614 296.887996 173.487249 
C 295.950361 174.424883 295.423529 175.696767 295.423529 177.022783 
C 295.423529 178.348798 295.950361 179.620682 296.887996 180.558317 
C 297.82563 181.495951 299.097514 182.022783 300.423529 182.022783 
z
" style="fill:none;stroke:#d8db8d;"/>
   </g>
   <g id="PathCollection_32">
    <path clip-path="url(#pa9be3f1806)" d="M 308.082353 181.152645 
C 309.408368 181.152645 310.680252 180.625814 311.617887 179.688179 
C 312.555521 178.750545 313.082353 177.478661 313.082353 176.152645 
C 313.082353 174.82663 312.555521 173.554746 311.617887 172.617111 
C 310.680252 171.679477 309.408368 171.152645 308.082353 171.152645 
C 306.756337 171.152645 305.484454 171.679477 304.546819 172.617111 
C 303.609184 173.554746 303.082353 174.82663 303.082353 176.152645 
C 303.082353 177.478661 303.609184 178.750545 304.546819 179.688179 
C 305.484454 180.625814 306.756337 181.152645 308.082353 181.152645 
z
" style="fill:none;stroke:#d8db8d;"/>
   </g>
   <g id="PathCollection_33">
    <path clip-path="url(#pa9be3f1806)" d="M 315.741176 180.252077 
C 317.067192 180.252077 318.339076 179.725246 319.27671 178.787611 
C 320.214345 177.849976 320.741176 176.578093 320.741176 175.252077 
C 320.741176 173.926062 320.214345 172.654178 319.27671 171.716543 
C 318.339076 170.778909 317.067192 170.252077 315.741176 170.252077 
C 314.415161 170.252077 313.143277 170.778909 312.205643 171.716543 
C 311.268008 172.654178 310.741176 173.926062 310.741176 175.252077 
C 310.741176 176.578093 311.268008 177.849976 312.205643 178.787611 
C 313.143277 179.725246 314.415161 180.252077 315.741176 180.252077 
z
" style="fill:none;stroke:#d8db8d;"/>
   </g>
   <g id="PathCollection_34">
    <path clip-path="url(#pa9be3f1806)" d="M 323.4 179.323833 
C 324.726016 179.323833 325.997899 178.797002 326.935534 177.859367 
C 327.873168 176.921733 328.4 175.649849 328.4 174.323833 
C 328.4 172.997818 327.873168 171.725934 326.935534 170.788299 
C 325.997899 169.850665 324.726016 169.323833 323.4 169.323833 
C 322.073985 169.323833 320.802101 169.850665 319.864466 170.788299 
C 318.926832 171.725934 318.4 172.997818 318.4 174.323833 
C 318.4 175.649849 318.926832 176.921733 319.864466 177.859367 
C 320.802101 178.797002 322.073985 179.323833 323.4 179.323833 
z
" style="fill:none;stroke:#d8db8d;"/>
   </g>
   <g id="PathCollection_35">
    <path clip-path="url(#pa9be3f1806)" d="M 331.058824 178.371469 
C 332.384839 178.371469 333.656723 177.844637 334.594357 176.907002 
C 335.531992 175.969368 336.058824 174.697484 336.058824 173.371469 
C 336.058824 172.045453 335.531992 170.773569 334.594357 169.835935 
C 333.656723 168.8983 332.384839 168.371469 331.058824 168.371469 
C 329.732808 168.371469 328.460924 168.8983 327.52329 169.835935 
C 326.585655 170.773569 326.058824 172.045453 326.058824 173.371469 
C 326.058824 174.697484 326.585655 175.969368 327.52329 176.907002 
C 328.460924 177.844637 329.732808 178.371469 331.058824 178.371469 
z
" style="fill:none;stroke:#d8db8d;"/>
   </g>
   <g id="PathCollection_36">
    <path clip-path="url(#pa9be3f1806)" d="M 338.717647 177.399406 
C 340.043663 177.399406 341.315546 176.872575 342.253181 175.93494 
C 343.190816 174.997306 343.717647 173.725422 343.717647 172.399406 
C 343.717647 171.073391 343.190816 169.801507 342.253181 168.863873 
C 341.315546 167.926238 340.043663 167.399406 338.717647 167.399406 
C 337.391632 167.399406 336.119748 167.926238 335.182113 168.863873 
C 334.244479 169.801507 333.717647 171.073391 333.717647 172.399406 
C 333.717647 173.725422 334.244479 174.997306 335.182113 175.93494 
C 336.119748 176.872575 337.391632 177.399406 338.717647 177.399406 
z
" style="fill:none;stroke:#d8db8d;"/>
   </g>
   <g id="PathCollection_37">
    <path clip-path="url(#pa9be3f1806)" d="M 346.376471 176.412975 
C 347.702486 176.412975 348.97437 175.886144 349.912004 174.948509 
C 350.849639 174.010875 351.376471 172.738991 351.376471 171.412975 
C 351.376471 170.08696 350.849639 168.815076 349.912004 167.877441 
C 348.97437 166.939807 347.702486 166.412975 346.376471 166.412975 
C 345.050455 166.412975 343.778571 166.939807 342.840937 167.877441 
C 341.903302 168.815076 341.376471 170.08696 341.376471 171.412975 
C 341.376471 172.738991 341.903302 174.010875 342.840937 174.948509 
C 343.778571 175.886144 345.050455 176.412975 346.376471 176.412975 
z
" style="fill:none;stroke:#d8db8d;"/>
   </g>
   <g id="PathCollection_38">
    <path clip-path="url(#pa9be3f1806)" d="M 354.035294 175.418411 
C 355.36131 175.418411 356.633193 174.89158 357.570828 173.953945 
C 358.508463 173.01631 359.035294 171.744427 359.035294 170.418411 
C 359.035294 169.092396 358.508463 167.820512 357.570828 166.882877 
C 356.633193 165.945243 355.36131 165.418411 354.035294 165.418411 
C 352.709279 165.418411 351.437395 165.945243 350.49976 166.882877 
C 349.562126 167.820512 349.035294 169.092396 349.035294 170.418411 
C 349.035294 171.744427 349.562126 173.01631 350.49976 173.953945 
C 351.437395 174.89158 352.709279 175.418411 354.035294 175.418411 
z
" style="fill:none;stroke:#d8db8d;"/>
   </g>
   <g id="PathCollection_39">
    <path clip-path="url(#pa9be3f1806)" d="M 361.694118 174.422814 
C 363.020133 174.422814 364.292017 173.895982 365.229652 172.958347 
C 366.167286 172.020713 366.694118 170.748829 366.694118 169.422814 
C 366.694118 168.096798 366.167286 166.824914 365.229652 165.88728 
C 364.292017 164.949645 363.020133 164.422814 361.694118 164.422814 
C 360.368102 164.422814 359.096218 164.949645 358.158584 165.88728 
C 357.220949 166.824914 356.694118 168.096798 356.694118 169.422814 
C 356.694118 170.748829 357.220949 172.020713 358.158584 172.958347 
C 359.096218 173.895982 360.368102 174.422814 361.694118 174.422814 
z
" style="fill:none;stroke:#d8db8d;"/>
   </g>
   <g id="PathCollection_40">
    <path clip-path="url(#pa9be3f1806)" d="M 369.352941 173.434058 
C 370.678957 173.434058 371.950841 172.907227 372.888475 171.969592 
C 373.82611 171.031958 374.352941 169.760074 374.352941 168.434058 
C 374.352941 167.108043 373.82611 165.836159 372.888475 164.898524 
C 371.950841 163.96089 370.678957 163.434058 369.352941 163.434058 
C 368.026926 163.434058 366.755042 163.96089 365.817407 164.898524 
C 364.879773 165.836159 364.352941 167.108043 364.352941 168.434058 
C 364.352941 169.760074 364.879773 171.031958 365.817407 171.969592 
C 366.755042 172.907227 368.026926 173.434058 369.352941 173.434058 
z
" style="fill:none;stroke:#d8db8d;"/>
   </g>
   <g id="PathCollection_41">
    <path clip-path="url(#pa9be3f1806)" d="M 377.011765 172.460652 
C 378.33778 172.460652 379.609664 171.933821 380.547299 170.996186 
C 381.484933 170.058552 382.011765 168.786668 382.011765 167.460652 
C 382.011765 166.134637 381.484933 164.862753 380.547299 163.925118 
C 379.609664 162.987484 378.33778 162.460652 377.011765 162.460652 
C 375.685749 162.460652 374.413865 162.987484 373.476231 163.925118 
C 372.538596 164.862753 372.011765 166.134637 372.011765 167.460652 
C 372.011765 168.786668 372.538596 170.058552 373.476231 170.996186 
C 374.413865 171.933821 375.685749 172.460652 377.011765 172.460652 
z
" style="fill:none;stroke:#d8db8d;"/>
   </g>
   <g id="PathCollection_42">
    <path clip-path="url(#pa9be3f1806)" d="M 384.670588 171.511531 
C 385.996604 171.511531 387.268488 170.984699 388.206122 170.047065 
C 389.143757 169.10943 389.670588 167.837546 389.670588 166.511531 
C 389.670588 165.185515 389.143757 163.913632 388.206122 162.975997 
C 387.268488 162.038362 385.996604 161.511531 384.670588 161.511531 
C 383.344573 161.511531 382.072689 162.038362 381.135054 162.975997 
C 380.19742 163.913632 379.670588 165.185515 379.670588 166.511531 
C 379.670588 167.837546 380.19742 169.10943 381.135054 170.047065 
C 382.072689 170.984699 383.344573 171.511531 384.670588 171.511531 
z
" style="fill:none;stroke:#d8db8d;"/>
   </g>
   <g id="PathCollection_43">
    <path clip-path="url(#pa9be3f1806)" d="M 392.329412 170.595787 
C 393.655427 170.595787 394.927311 170.068955 395.864946 169.131321 
C 396.80258 168.193686 397.329412 166.921802 397.329412 165.595787 
C 397.329412 164.269771 396.80258 162.997887 395.864946 162.060253 
C 394.927311 161.122618 393.655427 160.595787 392.329412 160.595787 
C 391.003396 160.595787 389.731512 161.122618 388.793878 162.060253 
C 387.856243 162.997887 387.329412 164.269771 387.329412 165.595787 
C 387.329412 166.921802 387.856243 168.193686 388.793878 169.131321 
C 389.731512 170.068955 391.003396 170.595787 392.329412 170.595787 
z
" style="fill:none;stroke:#d8db8d;"/>
   </g>
   <g id="PathCollection_44">
    <path clip-path="url(#pa9be3f1806)" d="M 399.988235 169.722332 
C 401.314251 169.722332 402.586135 169.1955 403.523769 168.257866 
C 404.461404 167.320231 404.988235 166.048347 404.988235 164.722332 
C 404.988235 163.396316 404.461404 162.124433 403.523769 161.186798 
C 402.586135 160.249163 401.314251 159.722332 399.988235 159.722332 
C 398.66222 159.722332 397.390336 160.249163 396.452701 161.186798 
C 395.515067 162.124433 394.988235 163.396316 394.988235 164.722332 
C 394.988235 166.048347 395.515067 167.320231 396.452701 168.257866 
C 397.390336 169.1955 398.66222 169.722332 399.988235 169.722332 
z
" style="fill:none;stroke:#d8db8d;"/>
   </g>
   <g id="PathCollection_45">
    <path clip-path="url(#pa9be3f1806)" d="M 407.647059 168.899477 
C 408.973074 168.899477 410.244958 168.372646 411.182593 167.435011 
C 412.120227 166.497377 412.647059 165.225493 412.647059 163.899477 
C 412.647059 162.573462 412.120227 161.301578 411.182593 160.363943 
C 410.244958 159.426309 408.973074 158.899477 407.647059 158.899477 
C 406.321043 158.899477 405.049159 159.426309 404.111525 160.363943 
C 403.17389 161.301578 402.647059 162.573462 402.647059 163.899477 
C 402.647059 165.225493 403.17389 166.497377 404.111525 167.435011 
C 405.049159 168.372646 406.321043 168.899477 407.647059 168.899477 
z
" style="fill:none;stroke:#d8db8d;"/>
   </g>
   <g id="PathCollection_46">
    <path clip-path="url(#pa9be3f1806)" d="M 415.305882 168.134432 
C 416.631898 168.134432 417.903782 167.607601 418.841416 166.669966 
C 419.779051 165.732331 420.305882 164.460448 420.305882 163.134432 
C 420.305882 161.808417 419.779051 160.536533 418.841416 159.598898 
C 417.903782 158.661264 416.631898 158.134432 415.305882 158.134432 
C 413.979867 158.134432 412.707983 158.661264 411.770348 159.598898 
C 410.832714 160.536533 410.305882 161.808417 410.305882 163.134432 
C 410.305882 164.460448 410.832714 165.732331 411.770348 166.669966 
C 412.707983 167.607601 413.979867 168.134432 415.305882 168.134432 
z
" style="fill:none;stroke:#d8db8d;"/>
   </g>
   <g id="PathCollection_47">
    <path clip-path="url(#pa9be3f1806)" d="M 422.964706 167.432714 
C 424.290721 167.432714 425.562605 166.905882 426.50024 165.968247 
C 427.437874 165.030613 427.964706 163.758729 427.964706 162.432714 
C 427.964706 161.106698 427.437874 159.834814 426.50024 158.89718 
C 425.562605 157.959545 424.290721 157.432714 422.964706 157.432714 
C 421.63869 157.432714 420.366807 157.959545 419.429172 158.89718 
C 418.491537 159.834814 417.964706 161.106698 417.964706 162.432714 
C 417.964706 163.758729 418.491537 165.030613 419.429172 165.968247 
C 420.366807 166.905882 421.63869 167.432714 422.964706 167.432714 
z
" style="fill:none;stroke:#d8db8d;"/>
   </g>
   <g id="PathCollection_48">
    <path clip-path="url(#pa9be3f1806)" d="M 430.623529 166.797462 
C 431.949545 166.797462 433.221429 166.27063 434.159063 165.332996 
C 435.096698 164.395361 435.623529 163.123477 435.623529 161.797462 
C 435.623529 160.471446 435.096698 159.199562 434.159063 158.261928 
C 433.221429 157.324293 431.949545 156.797462 430.623529 156.797462 
C 429.297514 156.797462 428.02563 157.324293 427.087996 158.261928 
C 426.150361 159.199562 425.623529 160.471446 425.623529 161.797462 
C 425.623529 163.123477 426.150361 164.395361 427.087996 165.332996 
C 428.02563 166.27063 429.297514 166.797462 430.623529 166.797462 
z
" style="fill:none;stroke:#d8db8d;"/>
   </g>
   <g id="PathCollection_49">
    <path clip-path="url(#pa9be3f1806)" d="M 438.282353 166.228655 
C 439.608368 166.228655 440.880252 165.701824 441.817887 164.764189 
C 442.755521 163.826554 443.282353 162.554671 443.282353 161.228655 
C 443.282353 159.90264 442.755521 158.630756 441.817887 157.693121 
C 440.880252 156.755487 439.608368 156.228655 438.282353 156.228655 
C 436.956337 156.228655 435.684454 156.755487 434.746819 157.693121 
C 433.809184 158.630756 433.282353 159.90264 433.282353 161.228655 
C 433.282353 162.554671 433.809184 163.826554 434.746819 164.764189 
C 435.684454 165.701824 436.956337 166.228655 438.282353 166.228655 
z
" style="fill:none;stroke:#d8db8d;"/>
   </g>
   <g id="PathCollection_50">
    <path clip-path="url(#pa9be3f1806)" d="M 445.941176 165.722215 
C 447.267192 165.722215 448.539076 165.195383 449.47671 164.257749 
C 450.414345 163.320114 450.941176 162.048231 450.941176 160.722215 
C 450.941176 159.3962 450.414345 158.124316 449.47671 157.186681 
C 448.539076 156.249047 447.267192 155.722215 445.941176 155.722215 
C 444.615161 155.722215 443.343277 156.249047 442.405643 157.186681 
C 441.468008 158.124316 440.941176 159.3962 440.941176 160.722215 
C 440.941176 162.048231 441.468008 163.320114 442.405643 164.257749 
C 443.343277 165.195383 444.615161 165.722215 445.941176 165.722215 
z
" style="fill:none;stroke:#d8db8d;"/>
   </g>
   <g id="PathCollection_51">
    <path clip-path="url(#pa9be3f1806)" d="M 453.6 165.269004 
C 454.926016 165.269004 456.197899 164.742173 457.135534 163.804538 
C 458.073168 162.866904 458.6 161.59502 458.6 160.269004 
C 458.6 158.942989 458.073168 157.671105 457.135534 156.73347 
C 456.197899 155.795836 454.926016 155.269004 453.6 155.269004 
C 452.273985 155.269004 451.002101 155.795836 450.064466 156.73347 
C 449.126832 157.671105 448.6 158.942989 448.6 160.269004 
C 448.6 161.59502 449.126832 162.866904 450.064466 163.804538 
C 451.002101 164.742173 452.273985 165.269004 453.6 165.269004 
z
" style="fill:none;stroke:#d8db8d;"/>
   </g>
   <g id="PathCollection_52">
    <defs>
     <path d="M 0 5 
C 1.326016 5 2.597899 4.473168 3.535534 3.535534 
C 4.473168 2.597899 5 1.326016 5 0 
C 5 -1.326016 4.473168 -2.597899 3.535534 -3.535534 
C 2.597899 -4.473168 1.326016 -5 0 -5 
C -1.326016 -5 -2.597899 -4.473168 -3.535534 -3.535534 
C -4.473168 -2.597899 -5 -1.326016 -5 0 
C -5 1.326016 -4.473168 2.597899 -3.535534 3.535534 
C -2.597899 4.473168 -1.326016 5 0 5 
z
" id="m909be44914" style="stroke:#d8db8d;"/>
    </defs>
    <g clip-path="url(#pa9be3f1806)">
     <use style="fill:#d8db8d;stroke:#d8db8d;" x="70.658824" xlink:href="#m909be44914" y="188.608591"/>
    </g>
   </g>
   <g id="PathCollection_53">
    <g clip-path="url(#pa9be3f1806)">
     <use style="fill:#d8db8d;stroke:#d8db8d;" x="78.317647" xlink:href="#m909be44914" y="188.256355"/>
    </g>
   </g>
   <g id="PathCollection_54">
    <g clip-path="url(#pa9be3f1806)">
     <use style="fill:#d8db8d;stroke:#d8db8d;" x="85.976471" xlink:href="#m909be44914" y="187.929957"/>
    </g>
   </g>
   <g id="PathCollection_55">
    <g clip-path="url(#pa9be3f1806)">
     <use style="fill:#d8db8d;stroke:#d8db8d;" x="93.635294" xlink:href="#m909be44914" y="187.641423"/>
    </g>
   </g>
   <g id="PathCollection_56">
    <g clip-path="url(#pa9be3f1806)">
     <use style="fill:#d8db8d;stroke:#d8db8d;" x="101.294118" xlink:href="#m909be44914" y="187.395097"/>
    </g>
   </g>
   <g id="PathCollection_57">
    <g clip-path="url(#pa9be3f1806)">
     <use style="fill:#d8db8d;stroke:#d8db8d;" x="108.952941" xlink:href="#m909be44914" y="187.193368"/>
    </g>
   </g>
   <g id="PathCollection_58">
    <g clip-path="url(#pa9be3f1806)">
     <use style="fill:#d8db8d;stroke:#d8db8d;" x="116.611765" xlink:href="#m909be44914" y="187.036072"/>
    </g>
   </g>
   <g id="PathCollection_59">
    <g clip-path="url(#pa9be3f1806)">
     <use style="fill:#d8db8d;stroke:#d8db8d;" x="124.270588" xlink:href="#m909be44914" y="186.920915"/>
    </g>
   </g>
   <g id="PathCollection_60">
    <g clip-path="url(#pa9be3f1806)">
     <use style="fill:#d8db8d;stroke:#d8db8d;" x="131.929412" xlink:href="#m909be44914" y="186.843858"/>
    </g>
   </g>
   <g id="PathCollection_61">
    <g clip-path="url(#pa9be3f1806)">
     <use style="fill:#d8db8d;stroke:#d8db8d;" x="139.588235" xlink:href="#m909be44914" y="186.799484"/>
    </g>
   </g>
   <g id="PathCollection_62">
    <g clip-path="url(#pa9be3f1806)">
     <use style="fill:#d8db8d;stroke:#d8db8d;" x="147.247059" xlink:href="#m909be44914" y="186.781319"/>
    </g>
   </g>
   <g id="PathCollection_63">
    <g clip-path="url(#pa9be3f1806)">
     <use style="fill:#d8db8d;stroke:#d8db8d;" x="154.905882" xlink:href="#m909be44914" y="186.782144"/>
    </g>
   </g>
   <g id="PathCollection_64">
    <g clip-path="url(#pa9be3f1806)">
     <use style="fill:#d8db8d;stroke:#d8db8d;" x="162.564706" xlink:href="#m909be44914" y="186.794264"/>
    </g>
   </g>
   <g id="PathCollection_65">
    <g clip-path="url(#pa9be3f1806)">
     <use style="fill:#d8db8d;stroke:#d8db8d;" x="170.223529" xlink:href="#m909be44914" y="186.809757"/>
    </g>
   </g>
   <g id="PathCollection_66">
    <g clip-path="url(#pa9be3f1806)">
     <use style="fill:#d8db8d;stroke:#d8db8d;" x="177.882353" xlink:href="#m909be44914" y="186.820702"/>
    </g>
   </g>
   <g id="PathCollection_67">
    <g clip-path="url(#pa9be3f1806)">
     <use style="fill:#d8db8d;stroke:#d8db8d;" x="185.541176" xlink:href="#m909be44914" y="186.819371"/>
    </g>
   </g>
   <g id="PathCollection_68">
    <g clip-path="url(#pa9be3f1806)">
     <use style="fill:#d8db8d;stroke:#d8db8d;" x="193.2" xlink:href="#m909be44914" y="186.798408"/>
    </g>
   </g>
   <g id="PathCollection_69">
    <g clip-path="url(#pa9be3f1806)">
     <use style="fill:#d8db8d;stroke:#d8db8d;" x="200.858824" xlink:href="#m909be44914" y="186.750981"/>
    </g>
   </g>
   <g id="PathCollection_70">
    <g clip-path="url(#pa9be3f1806)">
     <use style="fill:#d8db8d;stroke:#d8db8d;" x="208.517647" xlink:href="#m909be44914" y="186.670909"/>
    </g>
   </g>
   <g id="PathCollection_71">
    <g clip-path="url(#pa9be3f1806)">
     <use style="fill:#d8db8d;stroke:#d8db8d;" x="216.176471" xlink:href="#m909be44914" y="186.552771"/>
    </g>
   </g>
   <g id="PathCollection_72">
    <g clip-path="url(#pa9be3f1806)">
     <use style="fill:#d8db8d;stroke:#d8db8d;" x="223.835294" xlink:href="#m909be44914" y="186.391998"/>
    </g>
   </g>
   <g id="PathCollection_73">
    <g clip-path="url(#pa9be3f1806)">
     <use style="fill:#d8db8d;stroke:#d8db8d;" x="231.494118" xlink:href="#m909be44914" y="186.184936"/>
    </g>
   </g>
   <g id="PathCollection_74">
    <g clip-path="url(#pa9be3f1806)">
     <use style="fill:#d8db8d;stroke:#d8db8d;" x="239.152941" xlink:href="#m909be44914" y="185.9289"/>
    </g>
   </g>
   <g id="PathCollection_75">
    <g clip-path="url(#pa9be3f1806)">
     <use style="fill:#d8db8d;stroke:#d8db8d;" x="246.811765" xlink:href="#m909be44914" y="185.622206"/>
    </g>
   </g>
   <g id="PathCollection_76">
    <g clip-path="url(#pa9be3f1806)">
     <use style="fill:#d8db8d;stroke:#d8db8d;" x="254.470588" xlink:href="#m909be44914" y="185.264187"/>
    </g>
   </g>
   <g id="PathCollection_77">
    <g clip-path="url(#pa9be3f1806)">
     <use style="fill:#d8db8d;stroke:#d8db8d;" x="262.129412" xlink:href="#m909be44914" y="184.855189"/>
    </g>
   </g>
   <g id="PathCollection_78">
    <g clip-path="url(#pa9be3f1806)">
     <use style="fill:#d8db8d;stroke:#d8db8d;" x="269.788235" xlink:href="#m909be44914" y="184.396563"/>
    </g>
   </g>
   <g id="PathCollection_79">
    <g clip-path="url(#pa9be3f1806)">
     <use style="fill:#d8db8d;stroke:#d8db8d;" x="277.447059" xlink:href="#m909be44914" y="183.890626"/>
    </g>
   </g>
   <g id="PathCollection_80">
    <g clip-path="url(#pa9be3f1806)">
     <use style="fill:#d8db8d;stroke:#d8db8d;" x="285.105882" xlink:href="#m909be44914" y="183.340627"/>
    </g>
   </g>
   <g id="PathCollection_81">
    <g clip-path="url(#pa9be3f1806)">
     <use style="fill:#d8db8d;stroke:#d8db8d;" x="292.764706" xlink:href="#m909be44914" y="182.750685"/>
    </g>
   </g>
   <g id="PathCollection_82">
    <g clip-path="url(#pa9be3f1806)">
     <use style="fill:#d8db8d;stroke:#d8db8d;" x="300.423529" xlink:href="#m909be44914" y="182.125726"/>
    </g>
   </g>
   <g id="PathCollection_83">
    <g clip-path="url(#pa9be3f1806)">
     <use style="fill:#d8db8d;stroke:#d8db8d;" x="308.082353" xlink:href="#m909be44914" y="181.471403"/>
    </g>
   </g>
   <g id="PathCollection_84">
    <g clip-path="url(#pa9be3f1806)">
     <use style="fill:#d8db8d;stroke:#d8db8d;" x="315.741176" xlink:href="#m909be44914" y="180.794011"/>
    </g>
   </g>
   <g id="PathCollection_85">
    <g clip-path="url(#pa9be3f1806)">
     <use style="fill:#d8db8d;stroke:#d8db8d;" x="323.4" xlink:href="#m909be44914" y="180.100386"/>
    </g>
   </g>
   <g id="PathCollection_86">
    <g clip-path="url(#pa9be3f1806)">
     <use style="fill:#d8db8d;stroke:#d8db8d;" x="331.058824" xlink:href="#m909be44914" y="179.397805"/>
    </g>
   </g>
   <g id="PathCollection_87">
    <g clip-path="url(#pa9be3f1806)">
     <use style="fill:#d8db8d;stroke:#d8db8d;" x="338.717647" xlink:href="#m909be44914" y="178.693871"/>
    </g>
   </g>
   <g id="PathCollection_88">
    <g clip-path="url(#pa9be3f1806)">
     <use style="fill:#d8db8d;stroke:#d8db8d;" x="346.376471" xlink:href="#m909be44914" y="177.996396"/>
    </g>
   </g>
   <g id="PathCollection_89">
    <g clip-path="url(#pa9be3f1806)">
     <use style="fill:#d8db8d;stroke:#d8db8d;" x="354.035294" xlink:href="#m909be44914" y="177.313278"/>
    </g>
   </g>
   <g id="PathCollection_90">
    <g clip-path="url(#pa9be3f1806)">
     <use style="fill:#d8db8d;stroke:#d8db8d;" x="361.694118" xlink:href="#m909be44914" y="176.652369"/>
    </g>
   </g>
   <g id="PathCollection_91">
    <g clip-path="url(#pa9be3f1806)">
     <use style="fill:#d8db8d;stroke:#d8db8d;" x="369.352941" xlink:href="#m909be44914" y="176.021348"/>
    </g>
   </g>
   <g id="PathCollection_92">
    <g clip-path="url(#pa9be3f1806)">
     <use style="fill:#d8db8d;stroke:#d8db8d;" x="377.011765" xlink:href="#m909be44914" y="175.427581"/>
    </g>
   </g>
   <g id="PathCollection_93">
    <g clip-path="url(#pa9be3f1806)">
     <use style="fill:#d8db8d;stroke:#d8db8d;" x="384.670588" xlink:href="#m909be44914" y="174.877988"/>
    </g>
   </g>
   <g id="PathCollection_94">
    <g clip-path="url(#pa9be3f1806)">
     <use style="fill:#d8db8d;stroke:#d8db8d;" x="392.329412" xlink:href="#m909be44914" y="174.378902"/>
    </g>
   </g>
   <g id="PathCollection_95">
    <g clip-path="url(#pa9be3f1806)">
     <use style="fill:#d8db8d;stroke:#d8db8d;" x="399.988235" xlink:href="#m909be44914" y="173.935933"/>
    </g>
   </g>
   <g id="PathCollection_96">
    <g clip-path="url(#pa9be3f1806)">
     <use style="fill:#d8db8d;stroke:#d8db8d;" x="407.647059" xlink:href="#m909be44914" y="173.553825"/>
    </g>
   </g>
   <g id="PathCollection_97">
    <g clip-path="url(#pa9be3f1806)">
     <use style="fill:#d8db8d;stroke:#d8db8d;" x="415.305882" xlink:href="#m909be44914" y="173.236328"/>
    </g>
   </g>
   <g id="PathCollection_98">
    <g clip-path="url(#pa9be3f1806)">
     <use style="fill:#d8db8d;stroke:#d8db8d;" x="422.964706" xlink:href="#m909be44914" y="172.986055"/>
    </g>
   </g>
   <g id="PathCollection_99">
    <g clip-path="url(#pa9be3f1806)">
     <use style="fill:#d8db8d;stroke:#d8db8d;" x="430.623529" xlink:href="#m909be44914" y="172.804358"/>
    </g>
   </g>
   <g id="PathCollection_100">
    <g clip-path="url(#pa9be3f1806)">
     <use style="fill:#d8db8d;stroke:#d8db8d;" x="438.282353" xlink:href="#m909be44914" y="172.691196"/>
    </g>
   </g>
   <g id="PathCollection_101">
    <g clip-path="url(#pa9be3f1806)">
     <use style="fill:#d8db8d;stroke:#d8db8d;" x="445.941176" xlink:href="#m909be44914" y="172.64502"/>
    </g>
   </g>
   <g id="PathCollection_102">
    <g clip-path="url(#pa9be3f1806)">
     <use style="fill:#d8db8d;stroke:#d8db8d;" x="453.6" xlink:href="#m909be44914" y="172.662649"/>
    </g>
   </g>
   <g id="matplotlib.axis_1"/>
   <g id="matplotlib.axis_2"/>
   <g id="line2d_1">
    <path clip-path="url(#pa9be3f1806)" d="M 63 189 
L 116.324559 188.889155 
L 129.185 188.548369 
L 143.704853 187.936179 
L 160.618088 186.994504 
L 181.424559 185.603613 
L 210.368529 183.426476 
L 296.849412 176.797133 
L 308.497206 176.185878 
L 321.134265 175.749236 
L 335.143529 175.492244 
L 350.876029 175.430981 
L 369.001912 175.589133 
L 390.574265 176.007627 
L 418.018382 176.774144 
L 453.6 177.970737 
L 453.6 177.970737 
" style="fill:none;stroke:#d8db8d;stroke-dasharray:11.1,4.8;stroke-dashoffset:0;stroke-width:3;"/>
   </g>
   <g id="line2d_2">
    <path clip-path="url(#pa9be3f1806)" d="M 63 189 
L 115.239559 188.889127 
L 126.823529 188.551653 
L 139.715882 187.94934 
L 154.459118 187.032185 
L 171.914853 185.715317 
L 194.061618 183.808888 
L 228.909265 180.556026 
L 284.627206 175.376062 
L 299.753382 174.139554 
L 310.539559 173.510694 
L 322.219265 173.055627 
L 335.047794 172.781719 
L 349.344265 172.703222 
L 365.555441 172.841801 
L 384.479118 173.232872 
L 407.583235 173.942125 
L 438.792941 175.138729 
L 453.6 175.756533 
L 453.6 175.756533 
" style="fill:none;stroke:#d8db8d;stroke-linecap:square;stroke-width:3;"/>
   </g>
   <g id="patch_3">
    <path d="M 63 189 
L 63 25.92 
" style="fill:none;stroke:#000000;stroke-linecap:square;stroke-linejoin:miter;stroke-width:0.8;"/>
   </g>
   <g id="patch_4">
    <path d="M 453.6 189 
L 453.6 25.92 
" style="fill:none;stroke:#000000;stroke-linecap:square;stroke-linejoin:miter;stroke-width:0.8;"/>
   </g>
   <g id="patch_5">
    <path d="M 63 189 
L 453.6 189 
" style="fill:none;stroke:#000000;stroke-linecap:square;stroke-linejoin:miter;stroke-width:0.8;"/>
   </g>
   <g id="patch_6">
    <path d="M 63 25.92 
L 453.6 25.92 
" style="fill:none;stroke:#000000;stroke-linecap:square;stroke-linejoin:miter;stroke-width:0.8;"/>
   </g>
  </g>
 </g>
 <defs>
  <clipPath id="pa9be3f1806">
   <rect height="163.08" width="390.6" x="63" y="25.92"/>
  </clipPath>
 </defs>
</svg>
