<?xml version="1.0" encoding="utf-8" standalone="no"?>
<!DOCTYPE svg PUBLIC "-//W3C//DTD SVG 1.1//EN"
  "http://www.w3.org/Graphics/SVG/1.1/DTD/svg11.dtd">
<!-- Created with matplotlib (https://matplotlib.org/) -->
<svg height="216pt" version="1.1" viewBox="0 0 504 216" width="504pt" xmlns="http://www.w3.org/2000/svg" xmlns:xlink="http://www.w3.org/1999/xlink">
 <metadata>
  <rdf:RDF xmlns:cc="http://creativecommons.org/ns#" xmlns:dc="http://purl.org/dc/elements/1.1/" xmlns:rdf="http://www.w3.org/1999/02/22-rdf-syntax-ns#">
   <cc:Work>
    <dc:type rdf:resource="http://purl.org/dc/dcmitype/StillImage"/>
    <dc:date>2024-11-24T08:53:08.364693</dc:date>
    <dc:format>image/svg+xml</dc:format>
    <dc:creator>
     <cc:Agent>
      <dc:title>Matplotlib v3.3.2, https://matplotlib.org/</dc:title>
     </cc:Agent>
    </dc:creator>
   </cc:Work>
  </rdf:RDF>
 </metadata>
 <defs>
  <style type="text/css">*{stroke-linecap:butt;stroke-linejoin:round;}</style>
 </defs>
 <g id="figure_1">
  <g id="patch_1">
   <path d="M 0 216 
L 504 216 
L 504 0 
L 0 0 
z
" style="fill:none;"/>
  </g>
  <g id="axes_1">
   <g id="patch_2">
    <path d="M 63 189 
L 453.6 189 
L 453.6 25.92 
L 63 25.92 
z
" style="fill:#ffffff;"/>
   </g>
   <g id="PathCollection_1">
    <path clip-path="url(#p7a86695bee)" d="M 70.658824 193.331136 
C 71.984839 193.331136 73.256723 192.804304 74.194357 191.86667 
C 75.131992 190.929035 75.658824 189.657151 75.658824 188.331136 
C 75.658824 187.00512 75.131992 185.733237 74.194357 184.795602 
C 73.256723 183.857967 71.984839 183.331136 70.658824 183.331136 
C 69.332808 183.331136 68.060924 183.857967 67.12329 184.795602 
C 66.185655 185.733237 65.658824 187.00512 65.658824 188.331136 
C 65.658824 189.657151 66.185655 190.929035 67.12329 191.86667 
C 68.060924 192.804304 69.332808 193.331136 70.658824 193.331136 
z
" style="fill:none;stroke:#ffbb78;"/>
   </g>
   <g id="PathCollection_2">
    <path clip-path="url(#p7a86695bee)" d="M 78.317647 193.03707 
C 79.643663 193.03707 80.915546 192.510239 81.853181 191.572604 
C 82.790816 190.63497 83.317647 189.363086 83.317647 188.03707 
C 83.317647 186.711055 82.790816 185.439171 81.853181 184.501536 
C 80.915546 183.563902 79.643663 183.03707 78.317647 183.03707 
C 76.991632 183.03707 75.719748 183.563902 74.782113 184.501536 
C 73.844479 185.439171 73.317647 186.711055 73.317647 188.03707 
C 73.317647 189.363086 73.844479 190.63497 74.782113 191.572604 
C 75.719748 192.510239 76.991632 193.03707 78.317647 193.03707 
z
" style="fill:none;stroke:#ffbb78;"/>
   </g>
   <g id="PathCollection_3">
    <path clip-path="url(#p7a86695bee)" d="M 85.976471 192.923407 
C 87.302486 192.923407 88.57437 192.396575 89.512004 191.45894 
C 90.449639 190.521306 90.976471 189.249422 90.976471 187.923407 
C 90.976471 186.597391 90.449639 185.325507 89.512004 184.387873 
C 88.57437 183.450238 87.302486 182.923407 85.976471 182.923407 
C 84.650455 182.923407 83.378571 183.450238 82.440937 184.387873 
C 81.503302 185.325507 80.976471 186.597391 80.976471 187.923407 
C 80.976471 189.249422 81.503302 190.521306 82.440937 191.45894 
C 83.378571 192.396575 84.650455 192.923407 85.976471 192.923407 
z
" style="fill:none;stroke:#ffbb78;"/>
   </g>
   <g id="PathCollection_4">
    <path clip-path="url(#p7a86695bee)" d="M 93.635294 192.782709 
C 94.96131 192.782709 96.233193 192.255877 97.170828 191.318243 
C 98.108463 190.380608 98.635294 189.108724 98.635294 187.782709 
C 98.635294 186.456693 98.108463 185.18481 97.170828 184.247175 
C 96.233193 183.30954 94.96131 182.782709 93.635294 182.782709 
C 92.309279 182.782709 91.037395 183.30954 90.09976 184.247175 
C 89.162126 185.18481 88.635294 186.456693 88.635294 187.782709 
C 88.635294 189.108724 89.162126 190.380608 90.09976 191.318243 
C 91.037395 192.255877 92.309279 192.782709 93.635294 192.782709 
z
" style="fill:none;stroke:#ffbb78;"/>
   </g>
   <g id="PathCollection_5">
    <path clip-path="url(#p7a86695bee)" d="M 101.294118 192.454312 
C 102.620133 192.454312 103.892017 191.927481 104.829652 190.989846 
C 105.767286 190.052212 106.294118 188.780328 106.294118 187.454312 
C 106.294118 186.128297 105.767286 184.856413 104.829652 183.918779 
C 103.892017 182.981144 102.620133 182.454312 101.294118 182.454312 
C 99.968102 182.454312 98.696218 182.981144 97.758584 183.918779 
C 96.820949 184.856413 96.294118 186.128297 96.294118 187.454312 
C 96.294118 188.780328 96.820949 190.052212 97.758584 190.989846 
C 98.696218 191.927481 99.968102 192.454312 101.294118 192.454312 
z
" style="fill:none;stroke:#ffbb78;"/>
   </g>
   <g id="PathCollection_6">
    <path clip-path="url(#p7a86695bee)" d="M 108.952941 191.818261 
C 110.278957 191.818261 111.550841 191.291429 112.488475 190.353795 
C 113.42611 189.41616 113.952941 188.144276 113.952941 186.818261 
C 113.952941 185.492245 113.42611 184.220361 112.488475 183.282727 
C 111.550841 182.345092 110.278957 181.818261 108.952941 181.818261 
C 107.626926 181.818261 106.355042 182.345092 105.417407 183.282727 
C 104.479773 184.220361 103.952941 185.492245 103.952941 186.818261 
C 103.952941 188.144276 104.479773 189.41616 105.417407 190.353795 
C 106.355042 191.291429 107.626926 191.818261 108.952941 191.818261 
z
" style="fill:none;stroke:#ffbb78;"/>
   </g>
   <g id="PathCollection_7">
    <path clip-path="url(#p7a86695bee)" d="M 116.611765 190.789734 
C 117.93778 190.789734 119.209664 190.262902 120.147299 189.325268 
C 121.084933 188.387633 121.611765 187.115749 121.611765 185.789734 
C 121.611765 184.463718 121.084933 183.191835 120.147299 182.2542 
C 119.209664 181.316566 117.93778 180.789734 116.611765 180.789734 
C 115.285749 180.789734 114.013865 181.316566 113.076231 182.2542 
C 112.138596 183.191835 111.611765 184.463718 111.611765 185.789734 
C 111.611765 187.115749 112.138596 188.387633 113.076231 189.325268 
C 114.013865 190.262902 115.285749 190.789734 116.611765 190.789734 
z
" style="fill:none;stroke:#ffbb78;"/>
   </g>
   <g id="PathCollection_8">
    <path clip-path="url(#p7a86695bee)" d="M 124.270588 189.313946 
C 125.596604 189.313946 126.868488 188.787115 127.806122 187.84948 
C 128.743757 186.911845 129.270588 185.639962 129.270588 184.313946 
C 129.270588 182.987931 128.743757 181.716047 127.806122 180.778412 
C 126.868488 179.840778 125.596604 179.313946 124.270588 179.313946 
C 122.944573 179.313946 121.672689 179.840778 120.735054 180.778412 
C 119.79742 181.716047 119.270588 182.987931 119.270588 184.313946 
C 119.270588 185.639962 119.79742 186.911845 120.735054 187.84948 
C 121.672689 188.787115 122.944573 189.313946 124.270588 189.313946 
z
" style="fill:none;stroke:#ffbb78;"/>
   </g>
   <g id="PathCollection_9">
    <path clip-path="url(#p7a86695bee)" d="M 131.929412 187.361491 
C 133.255427 187.361491 134.527311 186.834659 135.464946 185.897025 
C 136.40258 184.95939 136.929412 183.687506 136.929412 182.361491 
C 136.929412 181.035475 136.40258 179.763591 135.464946 178.825957 
C 134.527311 177.888322 133.255427 177.361491 131.929412 177.361491 
C 130.603396 177.361491 129.331512 177.888322 128.393878 178.825957 
C 127.456243 179.763591 126.929412 181.035475 126.929412 182.361491 
C 126.929412 183.687506 127.456243 184.95939 128.393878 185.897025 
C 129.331512 186.834659 130.603396 187.361491 131.929412 187.361491 
z
" style="fill:none;stroke:#ffbb78;"/>
   </g>
   <g id="PathCollection_10">
    <path clip-path="url(#p7a86695bee)" d="M 139.588235 184.924121 
C 140.914251 184.924121 142.186135 184.397289 143.123769 183.459655 
C 144.061404 182.52202 144.588235 181.250136 144.588235 179.924121 
C 144.588235 178.598105 144.061404 177.326221 143.123769 176.388587 
C 142.186135 175.450952 140.914251 174.924121 139.588235 174.924121 
C 138.26222 174.924121 136.990336 175.450952 136.052701 176.388587 
C 135.115067 177.326221 134.588235 178.598105 134.588235 179.924121 
C 134.588235 181.250136 135.115067 182.52202 136.052701 183.459655 
C 136.990336 184.397289 138.26222 184.924121 139.588235 184.924121 
z
" style="fill:none;stroke:#ffbb78;"/>
   </g>
   <g id="PathCollection_11">
    <path clip-path="url(#p7a86695bee)" d="M 147.247059 182.010935 
C 148.573074 182.010935 149.844958 181.484104 150.782593 180.546469 
C 151.720227 179.608835 152.247059 178.336951 152.247059 177.010935 
C 152.247059 175.68492 151.720227 174.413036 150.782593 173.475401 
C 149.844958 172.537767 148.573074 172.010935 147.247059 172.010935 
C 145.921043 172.010935 144.649159 172.537767 143.711525 173.475401 
C 142.77389 174.413036 142.247059 175.68492 142.247059 177.010935 
C 142.247059 178.336951 142.77389 179.608835 143.711525 180.546469 
C 144.649159 181.484104 145.921043 182.010935 147.247059 182.010935 
z
" style="fill:none;stroke:#ffbb78;"/>
   </g>
   <g id="PathCollection_12">
    <path clip-path="url(#p7a86695bee)" d="M 154.905882 178.644959 
C 156.231898 178.644959 157.503782 178.118128 158.441416 177.180493 
C 159.379051 176.242859 159.905882 174.970975 159.905882 173.644959 
C 159.905882 172.318944 159.379051 171.04706 158.441416 170.109425 
C 157.503782 169.171791 156.231898 168.644959 154.905882 168.644959 
C 153.579867 168.644959 152.307983 169.171791 151.370348 170.109425 
C 150.432714 171.04706 149.905882 172.318944 149.905882 173.644959 
C 149.905882 174.970975 150.432714 176.242859 151.370348 177.180493 
C 152.307983 178.118128 153.579867 178.644959 154.905882 178.644959 
z
" style="fill:none;stroke:#ffbb78;"/>
   </g>
   <g id="PathCollection_13">
    <path clip-path="url(#p7a86695bee)" d="M 162.564706 174.860094 
C 163.890721 174.860094 165.162605 174.333262 166.10024 173.395628 
C 167.037874 172.457993 167.564706 171.186109 167.564706 169.860094 
C 167.564706 168.534078 167.037874 167.262194 166.10024 166.32456 
C 165.162605 165.386925 163.890721 164.860094 162.564706 164.860094 
C 161.23869 164.860094 159.966807 165.386925 159.029172 166.32456 
C 158.091537 167.262194 157.564706 168.534078 157.564706 169.860094 
C 157.564706 171.186109 158.091537 172.457993 159.029172 173.395628 
C 159.966807 174.333262 161.23869 174.860094 162.564706 174.860094 
z
" style="fill:none;stroke:#ffbb78;"/>
   </g>
   <g id="PathCollection_14">
    <path clip-path="url(#p7a86695bee)" d="M 170.223529 170.698417 
C 171.549545 170.698417 172.821429 170.171586 173.759063 169.233951 
C 174.696698 168.296317 175.223529 167.024433 175.223529 165.698417 
C 175.223529 164.372402 174.696698 163.100518 173.759063 162.162883 
C 172.821429 161.225249 171.549545 160.698417 170.223529 160.698417 
C 168.897514 160.698417 167.62563 161.225249 166.687996 162.162883 
C 165.750361 163.100518 165.223529 164.372402 165.223529 165.698417 
C 165.223529 167.024433 165.750361 168.296317 166.687996 169.233951 
C 167.62563 170.171586 168.897514 170.698417 170.223529 170.698417 
z
" style="fill:none;stroke:#ffbb78;"/>
   </g>
   <g id="PathCollection_15">
    <path clip-path="url(#p7a86695bee)" d="M 177.882353 166.207822 
C 179.208368 166.207822 180.480252 165.68099 181.417887 164.743356 
C 182.355521 163.805721 182.882353 162.533837 182.882353 161.207822 
C 182.882353 159.881806 182.355521 158.609923 181.417887 157.672288 
C 180.480252 156.734653 179.208368 156.207822 177.882353 156.207822 
C 176.556337 156.207822 175.284454 156.734653 174.346819 157.672288 
C 173.409184 158.609923 172.882353 159.881806 172.882353 161.207822 
C 172.882353 162.533837 173.409184 163.805721 174.346819 164.743356 
C 175.284454 165.68099 176.556337 166.207822 177.882353 166.207822 
z
" style="fill:none;stroke:#ffbb78;"/>
   </g>
   <g id="PathCollection_16">
    <path clip-path="url(#p7a86695bee)" d="M 185.541176 161.439956 
C 186.867192 161.439956 188.139076 160.913124 189.07671 159.97549 
C 190.014345 159.037855 190.541176 157.765972 190.541176 156.439956 
C 190.541176 155.113941 190.014345 153.842057 189.07671 152.904422 
C 188.139076 151.966788 186.867192 151.439956 185.541176 151.439956 
C 184.215161 151.439956 182.943277 151.966788 182.005643 152.904422 
C 181.068008 153.842057 180.541176 155.113941 180.541176 156.439956 
C 180.541176 157.765972 181.068008 159.037855 182.005643 159.97549 
C 182.943277 160.913124 184.215161 161.439956 185.541176 161.439956 
z
" style="fill:none;stroke:#ffbb78;"/>
   </g>
   <g id="PathCollection_17">
    <path clip-path="url(#p7a86695bee)" d="M 193.2 156.448465 
C 194.526016 156.448465 195.797899 155.921633 196.735534 154.983999 
C 197.673168 154.046364 198.2 152.774481 198.2 151.448465 
C 198.2 150.12245 197.673168 148.850566 196.735534 147.912931 
C 195.797899 146.975297 194.526016 146.448465 193.2 146.448465 
C 191.873985 146.448465 190.602101 146.975297 189.664466 147.912931 
C 188.726832 148.850566 188.2 150.12245 188.2 151.448465 
C 188.2 152.774481 188.726832 154.046364 189.664466 154.983999 
C 190.602101 155.921633 191.873985 156.448465 193.2 156.448465 
z
" style="fill:none;stroke:#ffbb78;"/>
   </g>
   <g id="PathCollection_18">
    <path clip-path="url(#p7a86695bee)" d="M 200.858824 151.287502 
C 202.184839 151.287502 203.456723 150.76067 204.394357 149.823036 
C 205.331992 148.885401 205.858824 147.613517 205.858824 146.287502 
C 205.858824 144.961486 205.331992 143.689603 204.394357 142.751968 
C 203.456723 141.814333 202.184839 141.287502 200.858824 141.287502 
C 199.532808 141.287502 198.260924 141.814333 197.32329 142.751968 
C 196.385655 143.689603 195.858824 144.961486 195.858824 146.287502 
C 195.858824 147.613517 196.385655 148.885401 197.32329 149.823036 
C 198.260924 150.76067 199.532808 151.287502 200.858824 151.287502 
z
" style="fill:none;stroke:#ffbb78;"/>
   </g>
   <g id="PathCollection_19">
    <path clip-path="url(#p7a86695bee)" d="M 208.517647 146.010491 
C 209.843663 146.010491 211.115546 145.483659 212.053181 144.546025 
C 212.990816 143.60839 213.517647 142.336506 213.517647 141.010491 
C 213.517647 139.684475 212.990816 138.412591 212.053181 137.474957 
C 211.115546 136.537322 209.843663 136.010491 208.517647 136.010491 
C 207.191632 136.010491 205.919748 136.537322 204.982113 137.474957 
C 204.044479 138.412591 203.517647 139.684475 203.517647 141.010491 
C 203.517647 142.336506 204.044479 143.60839 204.982113 144.546025 
C 205.919748 145.483659 207.191632 146.010491 208.517647 146.010491 
z
" style="fill:none;stroke:#ffbb78;"/>
   </g>
   <g id="PathCollection_20">
    <path clip-path="url(#p7a86695bee)" d="M 216.176471 140.669125 
C 217.502486 140.669125 218.77437 140.142293 219.712004 139.204659 
C 220.649639 138.267024 221.176471 136.995141 221.176471 135.669125 
C 221.176471 134.34311 220.649639 133.071226 219.712004 132.133591 
C 218.77437 131.195957 217.502486 130.669125 216.176471 130.669125 
C 214.850455 130.669125 213.578571 131.195957 212.640937 132.133591 
C 211.703302 133.071226 211.176471 134.34311 211.176471 135.669125 
C 211.176471 136.995141 211.703302 138.267024 212.640937 139.204659 
C 213.578571 140.142293 214.850455 140.669125 216.176471 140.669125 
z
" style="fill:none;stroke:#ffbb78;"/>
   </g>
   <g id="PathCollection_21">
    <path clip-path="url(#p7a86695bee)" d="M 223.835294 135.312578 
C 225.16131 135.312578 226.433193 134.785747 227.370828 133.848112 
C 228.308463 132.910478 228.835294 131.638594 228.835294 130.312578 
C 228.835294 128.986563 228.308463 127.714679 227.370828 126.777045 
C 226.433193 125.83941 225.16131 125.312578 223.835294 125.312578 
C 222.509279 125.312578 221.237395 125.83941 220.29976 126.777045 
C 219.362126 127.714679 218.835294 128.986563 218.835294 130.312578 
C 218.835294 131.638594 219.362126 132.910478 220.29976 133.848112 
C 221.237395 134.785747 222.509279 135.312578 223.835294 135.312578 
z
" style="fill:none;stroke:#ffbb78;"/>
   </g>
   <g id="PathCollection_22">
    <path clip-path="url(#p7a86695bee)" d="M 231.494118 129.98691 
C 232.820133 129.98691 234.092017 129.460079 235.029652 128.522444 
C 235.967286 127.58481 236.494118 126.312926 236.494118 124.98691 
C 236.494118 123.660895 235.967286 122.389011 235.029652 121.451376 
C 234.092017 120.513742 232.820133 119.98691 231.494118 119.98691 
C 230.168102 119.98691 228.896218 120.513742 227.958584 121.451376 
C 227.020949 122.389011 226.494118 123.660895 226.494118 124.98691 
C 226.494118 126.312926 227.020949 127.58481 227.958584 128.522444 
C 228.896218 129.460079 230.168102 129.98691 231.494118 129.98691 
z
" style="fill:none;stroke:#ffbb78;"/>
   </g>
   <g id="PathCollection_23">
    <path clip-path="url(#p7a86695bee)" d="M 239.152941 124.734644 
C 240.478957 124.734644 241.750841 124.207812 242.688475 123.270178 
C 243.62611 122.332543 244.152941 121.060659 244.152941 119.734644 
C 244.152941 118.408628 243.62611 117.136744 242.688475 116.19911 
C 241.750841 115.261475 240.478957 114.734644 239.152941 114.734644 
C 237.826926 114.734644 236.555042 115.261475 235.617407 116.19911 
C 234.679773 117.136744 234.152941 118.408628 234.152941 119.734644 
C 234.152941 121.060659 234.679773 122.332543 235.617407 123.270178 
C 236.555042 124.207812 237.826926 124.734644 239.152941 124.734644 
z
" style="fill:none;stroke:#ffbb78;"/>
   </g>
   <g id="PathCollection_24">
    <path clip-path="url(#p7a86695bee)" d="M 246.811765 119.594501 
C 248.13778 119.594501 249.409664 119.06767 250.347299 118.130035 
C 251.284933 117.192401 251.811765 115.920517 251.811765 114.594501 
C 251.811765 113.268486 251.284933 111.996602 250.347299 111.058968 
C 249.409664 110.121333 248.13778 109.594501 246.811765 109.594501 
C 245.485749 109.594501 244.213865 110.121333 243.276231 111.058968 
C 242.338596 111.996602 241.811765 113.268486 241.811765 114.594501 
C 241.811765 115.920517 242.338596 117.192401 243.276231 118.130035 
C 244.213865 119.06767 245.485749 119.594501 246.811765 119.594501 
z
" style="fill:none;stroke:#ffbb78;"/>
   </g>
   <g id="PathCollection_25">
    <path clip-path="url(#p7a86695bee)" d="M 254.470588 114.601273 
C 255.796604 114.601273 257.068488 114.074441 258.006122 113.136807 
C 258.943757 112.199172 259.470588 110.927289 259.470588 109.601273 
C 259.470588 108.275258 258.943757 107.003374 258.006122 106.065739 
C 257.068488 105.128105 255.796604 104.601273 254.470588 104.601273 
C 253.144573 104.601273 251.872689 105.128105 250.935054 106.065739 
C 249.99742 107.003374 249.470588 108.275258 249.470588 109.601273 
C 249.470588 110.927289 249.99742 112.199172 250.935054 113.136807 
C 251.872689 114.074441 253.144573 114.601273 254.470588 114.601273 
z
" style="fill:none;stroke:#ffbb78;"/>
   </g>
   <g id="PathCollection_26">
    <path clip-path="url(#p7a86695bee)" d="M 262.129412 109.785798 
C 263.455427 109.785798 264.727311 109.258967 265.664946 108.321332 
C 266.60258 107.383698 267.129412 106.111814 267.129412 104.785798 
C 267.129412 103.459783 266.60258 102.187899 265.664946 101.250264 
C 264.727311 100.31263 263.455427 99.785798 262.129412 99.785798 
C 260.803396 99.785798 259.531512 100.31263 258.593878 101.250264 
C 257.656243 102.187899 257.129412 103.459783 257.129412 104.785798 
C 257.129412 106.111814 257.656243 107.383698 258.593878 108.321332 
C 259.531512 109.258967 260.803396 109.785798 262.129412 109.785798 
z
" style="fill:none;stroke:#ffbb78;"/>
   </g>
   <g id="PathCollection_27">
    <path clip-path="url(#p7a86695bee)" d="M 269.788235 105.175049 
C 271.114251 105.175049 272.386135 104.648217 273.323769 103.710583 
C 274.261404 102.772948 274.788235 101.501064 274.788235 100.175049 
C 274.788235 98.849033 274.261404 97.577149 273.323769 96.639515 
C 272.386135 95.70188 271.114251 95.175049 269.788235 95.175049 
C 268.46222 95.175049 267.190336 95.70188 266.252701 96.639515 
C 265.315067 97.577149 264.788235 98.849033 264.788235 100.175049 
C 264.788235 101.501064 265.315067 102.772948 266.252701 103.710583 
C 267.190336 104.648217 268.46222 105.175049 269.788235 105.175049 
z
" style="fill:none;stroke:#ffbb78;"/>
   </g>
   <g id="PathCollection_28">
    <path clip-path="url(#p7a86695bee)" d="M 277.447059 100.79228 
C 278.773074 100.79228 280.044958 100.265448 280.982593 99.327814 
C 281.920227 98.390179 282.447059 97.118295 282.447059 95.79228 
C 282.447059 94.466264 281.920227 93.19438 280.982593 92.256746 
C 280.044958 91.319111 278.773074 90.79228 277.447059 90.79228 
C 276.121043 90.79228 274.849159 91.319111 273.911525 92.256746 
C 272.97389 93.19438 272.447059 94.466264 272.447059 95.79228 
C 272.447059 97.118295 272.97389 98.390179 273.911525 99.327814 
C 274.849159 100.265448 276.121043 100.79228 277.447059 100.79228 
z
" style="fill:none;stroke:#ffbb78;"/>
   </g>
   <g id="PathCollection_29">
    <path clip-path="url(#p7a86695bee)" d="M 285.105882 96.657244 
C 286.431898 96.657244 287.703782 96.130412 288.641416 95.192778 
C 289.579051 94.255143 290.105882 92.983259 290.105882 91.657244 
C 290.105882 90.331228 289.579051 89.059344 288.641416 88.12171 
C 287.703782 87.184075 286.431898 86.657244 285.105882 86.657244 
C 283.779867 86.657244 282.507983 87.184075 281.570348 88.12171 
C 280.632714 89.059344 280.105882 90.331228 280.105882 91.657244 
C 280.105882 92.983259 280.632714 94.255143 281.570348 95.192778 
C 282.507983 96.130412 283.779867 96.657244 285.105882 96.657244 
z
" style="fill:none;stroke:#ffbb78;"/>
   </g>
   <g id="PathCollection_30">
    <path clip-path="url(#p7a86695bee)" d="M 292.764706 92.786436 
C 294.090721 92.786436 295.362605 92.259605 296.30024 91.32197 
C 297.237874 90.384336 297.764706 89.112452 297.764706 87.786436 
C 297.764706 86.460421 297.237874 85.188537 296.30024 84.250903 
C 295.362605 83.313268 294.090721 82.786436 292.764706 82.786436 
C 291.43869 82.786436 290.166807 83.313268 289.229172 84.250903 
C 288.291537 85.188537 287.764706 86.460421 287.764706 87.786436 
C 287.764706 89.112452 288.291537 90.384336 289.229172 91.32197 
C 290.166807 92.259605 291.43869 92.786436 292.764706 92.786436 
z
" style="fill:none;stroke:#ffbb78;"/>
   </g>
   <g id="PathCollection_31">
    <path clip-path="url(#p7a86695bee)" d="M 300.423529 89.193361 
C 301.749545 89.193361 303.021429 88.66653 303.959063 87.728895 
C 304.896698 86.791261 305.423529 85.519377 305.423529 84.193361 
C 305.423529 82.867346 304.896698 81.595462 303.959063 80.657827 
C 303.021429 79.720193 301.749545 79.193361 300.423529 79.193361 
C 299.097514 79.193361 297.82563 79.720193 296.887996 80.657827 
C 295.950361 81.595462 295.423529 82.867346 295.423529 84.193361 
C 295.423529 85.519377 295.950361 86.791261 296.887996 87.728895 
C 297.82563 88.66653 299.097514 89.193361 300.423529 89.193361 
z
" style="fill:none;stroke:#ffbb78;"/>
   </g>
   <g id="PathCollection_32">
    <path clip-path="url(#p7a86695bee)" d="M 308.082353 85.888791 
C 309.408368 85.888791 310.680252 85.361959 311.617887 84.424325 
C 312.555521 83.48669 313.082353 82.214806 313.082353 80.888791 
C 313.082353 79.562775 312.555521 78.290891 311.617887 77.353257 
C 310.680252 76.415622 309.408368 75.888791 308.082353 75.888791 
C 306.756337 75.888791 305.484454 76.415622 304.546819 77.353257 
C 303.609184 78.290891 303.082353 79.562775 303.082353 80.888791 
C 303.082353 82.214806 303.609184 83.48669 304.546819 84.424325 
C 305.484454 85.361959 306.756337 85.888791 308.082353 85.888791 
z
" style="fill:none;stroke:#ffbb78;"/>
   </g>
   <g id="PathCollection_33">
    <path clip-path="url(#p7a86695bee)" d="M 315.741176 82.881002 
C 317.067192 82.881002 318.339076 82.354171 319.27671 81.416536 
C 320.214345 80.478902 320.741176 79.207018 320.741176 77.881002 
C 320.741176 76.554987 320.214345 75.283103 319.27671 74.345468 
C 318.339076 73.407834 317.067192 72.881002 315.741176 72.881002 
C 314.415161 72.881002 313.143277 73.407834 312.205643 74.345468 
C 311.268008 75.283103 310.741176 76.554987 310.741176 77.881002 
C 310.741176 79.207018 311.268008 80.478902 312.205643 81.416536 
C 313.143277 82.354171 314.415161 82.881002 315.741176 82.881002 
z
" style="fill:none;stroke:#ffbb78;"/>
   </g>
   <g id="PathCollection_34">
    <path clip-path="url(#p7a86695bee)" d="M 323.4 80.175977 
C 324.726016 80.175977 325.997899 79.649146 326.935534 78.711511 
C 327.873168 77.773877 328.4 76.501993 328.4 75.175977 
C 328.4 73.849962 327.873168 72.578078 326.935534 71.640443 
C 325.997899 70.702809 324.726016 70.175977 323.4 70.175977 
C 322.073985 70.175977 320.802101 70.702809 319.864466 71.640443 
C 318.926832 72.578078 318.4 73.849962 318.4 75.175977 
C 318.4 76.501993 318.926832 77.773877 319.864466 78.711511 
C 320.802101 79.649146 322.073985 80.175977 323.4 80.175977 
z
" style="fill:none;stroke:#ffbb78;"/>
   </g>
   <g id="PathCollection_35">
    <path clip-path="url(#p7a86695bee)" d="M 331.058824 77.777532 
C 332.384839 77.777532 333.656723 77.2507 334.594357 76.313066 
C 335.531992 75.375431 336.058824 74.103547 336.058824 72.777532 
C 336.058824 71.451516 335.531992 70.179632 334.594357 69.241998 
C 333.656723 68.304363 332.384839 67.777532 331.058824 67.777532 
C 329.732808 67.777532 328.460924 68.304363 327.52329 69.241998 
C 326.585655 70.179632 326.058824 71.451516 326.058824 72.777532 
C 326.058824 74.103547 326.585655 75.375431 327.52329 76.313066 
C 328.460924 77.2507 329.732808 77.777532 331.058824 77.777532 
z
" style="fill:none;stroke:#ffbb78;"/>
   </g>
   <g id="PathCollection_36">
    <path clip-path="url(#p7a86695bee)" d="M 338.717647 75.687369 
C 340.043663 75.687369 341.315546 75.160538 342.253181 74.222903 
C 343.190816 73.285269 343.717647 72.013385 343.717647 70.687369 
C 343.717647 69.361354 343.190816 68.08947 342.253181 67.151835 
C 341.315546 66.214201 340.043663 65.687369 338.717647 65.687369 
C 337.391632 65.687369 336.119748 66.214201 335.182113 67.151835 
C 334.244479 68.08947 333.717647 69.361354 333.717647 70.687369 
C 333.717647 72.013385 334.244479 73.285269 335.182113 74.222903 
C 336.119748 75.160538 337.391632 75.687369 338.717647 75.687369 
z
" style="fill:none;stroke:#ffbb78;"/>
   </g>
   <g id="PathCollection_37">
    <path clip-path="url(#p7a86695bee)" d="M 346.376471 73.905031 
C 347.702486 73.905031 348.97437 73.3782 349.912004 72.440565 
C 350.849639 71.502931 351.376471 70.231047 351.376471 68.905031 
C 351.376471 67.579016 350.849639 66.307132 349.912004 65.369497 
C 348.97437 64.431863 347.702486 63.905031 346.376471 63.905031 
C 345.050455 63.905031 343.778571 64.431863 342.840937 65.369497 
C 341.903302 66.307132 341.376471 67.579016 341.376471 68.905031 
C 341.376471 70.231047 341.903302 71.502931 342.840937 72.440565 
C 343.778571 73.3782 345.050455 73.905031 346.376471 73.905031 
z
" style="fill:none;stroke:#ffbb78;"/>
   </g>
   <g id="PathCollection_38">
    <path clip-path="url(#p7a86695bee)" d="M 354.035294 72.427724 
C 355.36131 72.427724 356.633193 71.900892 357.570828 70.963258 
C 358.508463 70.025623 359.035294 68.75374 359.035294 67.427724 
C 359.035294 66.101709 358.508463 64.829825 357.570828 63.89219 
C 356.633193 62.954556 355.36131 62.427724 354.035294 62.427724 
C 352.709279 62.427724 351.437395 62.954556 350.49976 63.89219 
C 349.562126 64.829825 349.035294 66.101709 349.035294 67.427724 
C 349.035294 68.75374 349.562126 70.025623 350.49976 70.963258 
C 351.437395 71.900892 352.709279 72.427724 354.035294 72.427724 
z
" style="fill:none;stroke:#ffbb78;"/>
   </g>
   <g id="PathCollection_39">
    <path clip-path="url(#p7a86695bee)" d="M 361.694118 71.250009 
C 363.020133 71.250009 364.292017 70.723177 365.229652 69.785543 
C 366.167286 68.847908 366.694118 67.576024 366.694118 66.250009 
C 366.694118 64.923993 366.167286 63.65211 365.229652 62.714475 
C 364.292017 61.77684 363.020133 61.250009 361.694118 61.250009 
C 360.368102 61.250009 359.096218 61.77684 358.158584 62.714475 
C 357.220949 63.65211 356.694118 64.923993 356.694118 66.250009 
C 356.694118 67.576024 357.220949 68.847908 358.158584 69.785543 
C 359.096218 70.723177 360.368102 71.250009 361.694118 71.250009 
z
" style="fill:none;stroke:#ffbb78;"/>
   </g>
   <g id="PathCollection_40">
    <path clip-path="url(#p7a86695bee)" d="M 369.352941 70.363327 
C 370.678957 70.363327 371.950841 69.836496 372.888475 68.898861 
C 373.82611 67.961227 374.352941 66.689343 374.352941 65.363327 
C 374.352941 64.037312 373.82611 62.765428 372.888475 61.827793 
C 371.950841 60.890159 370.678957 60.363327 369.352941 60.363327 
C 368.026926 60.363327 366.755042 60.890159 365.817407 61.827793 
C 364.879773 62.765428 364.352941 64.037312 364.352941 65.363327 
C 364.352941 66.689343 364.879773 67.961227 365.817407 68.898861 
C 366.755042 69.836496 368.026926 70.363327 369.352941 70.363327 
z
" style="fill:none;stroke:#ffbb78;"/>
   </g>
   <g id="PathCollection_41">
    <path clip-path="url(#p7a86695bee)" d="M 377.011765 69.755349 
C 378.33778 69.755349 379.609664 69.228517 380.547299 68.290883 
C 381.484933 67.353248 382.011765 66.081364 382.011765 64.755349 
C 382.011765 63.429333 381.484933 62.157449 380.547299 61.219815 
C 379.609664 60.28218 378.33778 59.755349 377.011765 59.755349 
C 375.685749 59.755349 374.413865 60.28218 373.476231 61.219815 
C 372.538596 62.157449 372.011765 63.429333 372.011765 64.755349 
C 372.011765 66.081364 372.538596 67.353248 373.476231 68.290883 
C 374.413865 69.228517 375.685749 69.755349 377.011765 69.755349 
z
" style="fill:none;stroke:#ffbb78;"/>
   </g>
   <g id="PathCollection_42">
    <path clip-path="url(#p7a86695bee)" d="M 384.670588 69.409116 
C 385.996604 69.409116 387.268488 68.882285 388.206122 67.94465 
C 389.143757 67.007016 389.670588 65.735132 389.670588 64.409116 
C 389.670588 63.083101 389.143757 61.811217 388.206122 60.873583 
C 387.268488 59.935948 385.996604 59.409116 384.670588 59.409116 
C 383.344573 59.409116 382.072689 59.935948 381.135054 60.873583 
C 380.19742 61.811217 379.670588 63.083101 379.670588 64.409116 
C 379.670588 65.735132 380.19742 67.007016 381.135054 67.94465 
C 382.072689 68.882285 383.344573 69.409116 384.670588 69.409116 
z
" style="fill:none;stroke:#ffbb78;"/>
   </g>
   <g id="PathCollection_43">
    <path clip-path="url(#p7a86695bee)" d="M 392.329412 69.301975 
C 393.655427 69.301975 394.927311 68.775143 395.864946 67.837509 
C 396.80258 66.899874 397.329412 65.62799 397.329412 64.301975 
C 397.329412 62.975959 396.80258 61.704076 395.864946 60.766441 
C 394.927311 59.828806 393.655427 59.301975 392.329412 59.301975 
C 391.003396 59.301975 389.731512 59.828806 388.793878 60.766441 
C 387.856243 61.704076 387.329412 62.975959 387.329412 64.301975 
C 387.329412 65.62799 387.856243 66.899874 388.793878 67.837509 
C 389.731512 68.775143 391.003396 69.301975 392.329412 69.301975 
z
" style="fill:none;stroke:#ffbb78;"/>
   </g>
   <g id="PathCollection_44">
    <path clip-path="url(#p7a86695bee)" d="M 399.988235 69.404257 
C 401.314251 69.404257 402.586135 68.877425 403.523769 67.939791 
C 404.461404 67.002156 404.988235 65.730272 404.988235 64.404257 
C 404.988235 63.078241 404.461404 61.806357 403.523769 60.868723 
C 402.586135 59.931088 401.314251 59.404257 399.988235 59.404257 
C 398.66222 59.404257 397.390336 59.931088 396.452701 60.868723 
C 395.515067 61.806357 394.988235 63.078241 394.988235 64.404257 
C 394.988235 65.730272 395.515067 67.002156 396.452701 67.939791 
C 397.390336 68.877425 398.66222 69.404257 399.988235 69.404257 
z
" style="fill:none;stroke:#ffbb78;"/>
   </g>
   <g id="PathCollection_45">
    <path clip-path="url(#p7a86695bee)" d="M 407.647059 69.677712 
C 408.973074 69.677712 410.244958 69.15088 411.182593 68.213246 
C 412.120227 67.275611 412.647059 66.003727 412.647059 64.677712 
C 412.647059 63.351696 412.120227 62.079812 411.182593 61.142178 
C 410.244958 60.204543 408.973074 59.677712 407.647059 59.677712 
C 406.321043 59.677712 405.049159 60.204543 404.111525 61.142178 
C 403.17389 62.079812 402.647059 63.351696 402.647059 64.677712 
C 402.647059 66.003727 403.17389 67.275611 404.111525 68.213246 
C 405.049159 69.15088 406.321043 69.677712 407.647059 69.677712 
z
" style="fill:none;stroke:#ffbb78;"/>
   </g>
   <g id="PathCollection_46">
    <path clip-path="url(#p7a86695bee)" d="M 415.305882 70.073655 
C 416.631898 70.073655 417.903782 69.546824 418.841416 68.609189 
C 419.779051 67.671554 420.305882 66.399671 420.305882 65.073655 
C 420.305882 63.74764 419.779051 62.475756 418.841416 61.538121 
C 417.903782 60.600487 416.631898 60.073655 415.305882 60.073655 
C 413.979867 60.073655 412.707983 60.600487 411.770348 61.538121 
C 410.832714 62.475756 410.305882 63.74764 410.305882 65.073655 
C 410.305882 66.399671 410.832714 67.671554 411.770348 68.609189 
C 412.707983 69.546824 413.979867 70.073655 415.305882 70.073655 
z
" style="fill:none;stroke:#ffbb78;"/>
   </g>
   <g id="PathCollection_47">
    <path clip-path="url(#p7a86695bee)" d="M 422.964706 70.530818 
C 424.290721 70.530818 425.562605 70.003987 426.50024 69.066352 
C 427.437874 68.128718 427.964706 66.856834 427.964706 65.530818 
C 427.964706 64.204803 427.437874 62.932919 426.50024 61.995284 
C 425.562605 61.05765 424.290721 60.530818 422.964706 60.530818 
C 421.63869 60.530818 420.366807 61.05765 419.429172 61.995284 
C 418.491537 62.932919 417.964706 64.204803 417.964706 65.530818 
C 417.964706 66.856834 418.491537 68.128718 419.429172 69.066352 
C 420.366807 70.003987 421.63869 70.530818 422.964706 70.530818 
z
" style="fill:none;stroke:#ffbb78;"/>
   </g>
   <g id="PathCollection_48">
    <path clip-path="url(#p7a86695bee)" d="M 430.623529 70.972882 
C 431.949545 70.972882 433.221429 70.446051 434.159063 69.508416 
C 435.096698 68.570781 435.623529 67.298898 435.623529 65.972882 
C 435.623529 64.646867 435.096698 63.374983 434.159063 62.437348 
C 433.221429 61.499714 431.949545 60.972882 430.623529 60.972882 
C 429.297514 60.972882 428.02563 61.499714 427.087996 62.437348 
C 426.150361 63.374983 425.623529 64.646867 425.623529 65.972882 
C 425.623529 67.298898 426.150361 68.570781 427.087996 69.508416 
C 428.02563 70.446051 429.297514 70.972882 430.623529 70.972882 
z
" style="fill:none;stroke:#ffbb78;"/>
   </g>
   <g id="PathCollection_49">
    <path clip-path="url(#p7a86695bee)" d="M 438.282353 71.30567 
C 439.608368 71.30567 440.880252 70.778839 441.817887 69.841204 
C 442.755521 68.90357 443.282353 67.631686 443.282353 66.30567 
C 443.282353 64.979655 442.755521 63.707771 441.817887 62.770136 
C 440.880252 61.832502 439.608368 61.30567 438.282353 61.30567 
C 436.956337 61.30567 435.684454 61.832502 434.746819 62.770136 
C 433.809184 63.707771 433.282353 64.979655 433.282353 66.30567 
C 433.282353 67.631686 433.809184 68.90357 434.746819 69.841204 
C 435.684454 70.778839 436.956337 71.30567 438.282353 71.30567 
z
" style="fill:none;stroke:#ffbb78;"/>
   </g>
   <g id="PathCollection_50">
    <path clip-path="url(#p7a86695bee)" d="M 445.941176 71.413987 
C 447.267192 71.413987 448.539076 70.887156 449.47671 69.949521 
C 450.414345 69.011887 450.941176 67.740003 450.941176 66.413987 
C 450.941176 65.087972 450.414345 63.816088 449.47671 62.878454 
C 448.539076 61.940819 447.267192 61.413987 445.941176 61.413987 
C 444.615161 61.413987 443.343277 61.940819 442.405643 62.878454 
C 441.468008 63.816088 440.941176 65.087972 440.941176 66.413987 
C 440.941176 67.740003 441.468008 69.011887 442.405643 69.949521 
C 443.343277 70.887156 444.615161 71.413987 445.941176 71.413987 
z
" style="fill:none;stroke:#ffbb78;"/>
   </g>
   <g id="PathCollection_51">
    <path clip-path="url(#p7a86695bee)" d="M 453.6 71.158076 
C 454.926016 71.158076 456.197899 70.631245 457.135534 69.69361 
C 458.073168 68.755976 458.6 67.484092 458.6 66.158076 
C 458.6 64.832061 458.073168 63.560177 457.135534 62.622543 
C 456.197899 61.684908 454.926016 61.158076 453.6 61.158076 
C 452.273985 61.158076 451.002101 61.684908 450.064466 62.622543 
C 449.126832 63.560177 448.6 64.832061 448.6 66.158076 
C 448.6 67.484092 449.126832 68.755976 450.064466 69.69361 
C 451.002101 70.631245 452.273985 71.158076 453.6 71.158076 
z
" style="fill:none;stroke:#ffbb78;"/>
   </g>
   <g id="PathCollection_52">
    <defs>
     <path d="M 0 5 
C 1.326016 5 2.597899 4.473168 3.535534 3.535534 
C 4.473168 2.597899 5 1.326016 5 0 
C 5 -1.326016 4.473168 -2.597899 3.535534 -3.535534 
C 2.597899 -4.473168 1.326016 -5 0 -5 
C -1.326016 -5 -2.597899 -4.473168 -3.535534 -3.535534 
C -4.473168 -2.597899 -5 -1.326016 -5 0 
C -5 1.326016 -4.473168 2.597899 -3.535534 3.535534 
C -2.597899 4.473168 -1.326016 5 0 5 
z
" id="m828c5bdd22" style="stroke:#ffbb78;"/>
    </defs>
    <g clip-path="url(#p7a86695bee)">
     <use style="fill:#ffbb78;stroke:#ffbb78;" x="70.658824" xlink:href="#m828c5bdd22" y="189.082724"/>
    </g>
   </g>
   <g id="PathCollection_53">
    <g clip-path="url(#p7a86695bee)">
     <use style="fill:#ffbb78;stroke:#ffbb78;" x="78.317647" xlink:href="#m828c5bdd22" y="188.855069"/>
    </g>
   </g>
   <g id="PathCollection_54">
    <g clip-path="url(#p7a86695bee)">
     <use style="fill:#ffbb78;stroke:#ffbb78;" x="85.976471" xlink:href="#m828c5bdd22" y="188.725474"/>
    </g>
   </g>
   <g id="PathCollection_55">
    <g clip-path="url(#p7a86695bee)">
     <use style="fill:#ffbb78;stroke:#ffbb78;" x="93.635294" xlink:href="#m828c5bdd22" y="188.479195"/>
    </g>
   </g>
   <g id="PathCollection_56">
    <g clip-path="url(#p7a86695bee)">
     <use style="fill:#ffbb78;stroke:#ffbb78;" x="101.294118" xlink:href="#m828c5bdd22" y="187.971036"/>
    </g>
   </g>
   <g id="PathCollection_57">
    <g clip-path="url(#p7a86695bee)">
     <use style="fill:#ffbb78;stroke:#ffbb78;" x="108.952941" xlink:href="#m828c5bdd22" y="187.111564"/>
    </g>
   </g>
   <g id="PathCollection_58">
    <g clip-path="url(#p7a86695bee)">
     <use style="fill:#ffbb78;stroke:#ffbb78;" x="116.611765" xlink:href="#m828c5bdd22" y="185.85495"/>
    </g>
   </g>
   <g id="PathCollection_59">
    <g clip-path="url(#p7a86695bee)">
     <use style="fill:#ffbb78;stroke:#ffbb78;" x="124.270588" xlink:href="#m828c5bdd22" y="184.188339"/>
    </g>
   </g>
   <g id="PathCollection_60">
    <g clip-path="url(#p7a86695bee)">
     <use style="fill:#ffbb78;stroke:#ffbb78;" x="131.929412" xlink:href="#m828c5bdd22" y="182.122669"/>
    </g>
   </g>
   <g id="PathCollection_61">
    <g clip-path="url(#p7a86695bee)">
     <use style="fill:#ffbb78;stroke:#ffbb78;" x="139.588235" xlink:href="#m828c5bdd22" y="179.684851"/>
    </g>
   </g>
   <g id="PathCollection_62">
    <g clip-path="url(#p7a86695bee)">
     <use style="fill:#ffbb78;stroke:#ffbb78;" x="147.247059" xlink:href="#m828c5bdd22" y="176.911228"/>
    </g>
   </g>
   <g id="PathCollection_63">
    <g clip-path="url(#p7a86695bee)">
     <use style="fill:#ffbb78;stroke:#ffbb78;" x="154.905882" xlink:href="#m828c5bdd22" y="173.842217"/>
    </g>
   </g>
   <g id="PathCollection_64">
    <g clip-path="url(#p7a86695bee)">
     <use style="fill:#ffbb78;stroke:#ffbb78;" x="162.564706" xlink:href="#m828c5bdd22" y="170.518063"/>
    </g>
   </g>
   <g id="PathCollection_65">
    <g clip-path="url(#p7a86695bee)">
     <use style="fill:#ffbb78;stroke:#ffbb78;" x="170.223529" xlink:href="#m828c5bdd22" y="166.975599"/>
    </g>
   </g>
   <g id="PathCollection_66">
    <g clip-path="url(#p7a86695bee)">
     <use style="fill:#ffbb78;stroke:#ffbb78;" x="177.882353" xlink:href="#m828c5bdd22" y="163.245948"/>
    </g>
   </g>
   <g id="PathCollection_67">
    <g clip-path="url(#p7a86695bee)">
     <use style="fill:#ffbb78;stroke:#ffbb78;" x="185.541176" xlink:href="#m828c5bdd22" y="159.353068"/>
    </g>
   </g>
   <g id="PathCollection_68">
    <g clip-path="url(#p7a86695bee)">
     <use style="fill:#ffbb78;stroke:#ffbb78;" x="193.2" xlink:href="#m828c5bdd22" y="155.313047"/>
    </g>
   </g>
   <g id="PathCollection_69">
    <g clip-path="url(#p7a86695bee)">
     <use style="fill:#ffbb78;stroke:#ffbb78;" x="200.858824" xlink:href="#m828c5bdd22" y="151.134084"/>
    </g>
   </g>
   <g id="PathCollection_70">
    <g clip-path="url(#p7a86695bee)">
     <use style="fill:#ffbb78;stroke:#ffbb78;" x="208.517647" xlink:href="#m828c5bdd22" y="146.817049"/>
    </g>
   </g>
   <g id="PathCollection_71">
    <g clip-path="url(#p7a86695bee)">
     <use style="fill:#ffbb78;stroke:#ffbb78;" x="216.176471" xlink:href="#m828c5bdd22" y="142.356545"/>
    </g>
   </g>
   <g id="PathCollection_72">
    <g clip-path="url(#p7a86695bee)">
     <use style="fill:#ffbb78;stroke:#ffbb78;" x="223.835294" xlink:href="#m828c5bdd22" y="137.742388"/>
    </g>
   </g>
   <g id="PathCollection_73">
    <g clip-path="url(#p7a86695bee)">
     <use style="fill:#ffbb78;stroke:#ffbb78;" x="231.494118" xlink:href="#m828c5bdd22" y="132.961411"/>
    </g>
   </g>
   <g id="PathCollection_74">
    <g clip-path="url(#p7a86695bee)">
     <use style="fill:#ffbb78;stroke:#ffbb78;" x="239.152941" xlink:href="#m828c5bdd22" y="127.999513"/>
    </g>
   </g>
   <g id="PathCollection_75">
    <g clip-path="url(#p7a86695bee)">
     <use style="fill:#ffbb78;stroke:#ffbb78;" x="246.811765" xlink:href="#m828c5bdd22" y="122.843868"/>
    </g>
   </g>
   <g id="PathCollection_76">
    <g clip-path="url(#p7a86695bee)">
     <use style="fill:#ffbb78;stroke:#ffbb78;" x="254.470588" xlink:href="#m828c5bdd22" y="117.485198"/>
    </g>
   </g>
   <g id="PathCollection_77">
    <g clip-path="url(#p7a86695bee)">
     <use style="fill:#ffbb78;stroke:#ffbb78;" x="262.129412" xlink:href="#m828c5bdd22" y="111.920035"/>
    </g>
   </g>
   <g id="PathCollection_78">
    <g clip-path="url(#p7a86695bee)">
     <use style="fill:#ffbb78;stroke:#ffbb78;" x="269.788235" xlink:href="#m828c5bdd22" y="106.152881"/>
    </g>
   </g>
   <g id="PathCollection_79">
    <g clip-path="url(#p7a86695bee)">
     <use style="fill:#ffbb78;stroke:#ffbb78;" x="277.447059" xlink:href="#m828c5bdd22" y="100.198176"/>
    </g>
   </g>
   <g id="PathCollection_80">
    <g clip-path="url(#p7a86695bee)">
     <use style="fill:#ffbb78;stroke:#ffbb78;" x="285.105882" xlink:href="#m828c5bdd22" y="94.082003"/>
    </g>
   </g>
   <g id="PathCollection_81">
    <g clip-path="url(#p7a86695bee)">
     <use style="fill:#ffbb78;stroke:#ffbb78;" x="292.764706" xlink:href="#m828c5bdd22" y="87.843415"/>
    </g>
   </g>
   <g id="PathCollection_82">
    <g clip-path="url(#p7a86695bee)">
     <use style="fill:#ffbb78;stroke:#ffbb78;" x="300.423529" xlink:href="#m828c5bdd22" y="81.535339"/>
    </g>
   </g>
   <g id="PathCollection_83">
    <g clip-path="url(#p7a86695bee)">
     <use style="fill:#ffbb78;stroke:#ffbb78;" x="308.082353" xlink:href="#m828c5bdd22" y="75.224928"/>
    </g>
   </g>
   <g id="PathCollection_84">
    <g clip-path="url(#p7a86695bee)">
     <use style="fill:#ffbb78;stroke:#ffbb78;" x="315.741176" xlink:href="#m828c5bdd22" y="68.993305"/>
    </g>
   </g>
   <g id="PathCollection_85">
    <g clip-path="url(#p7a86695bee)">
     <use style="fill:#ffbb78;stroke:#ffbb78;" x="323.4" xlink:href="#m828c5bdd22" y="62.934601"/>
    </g>
   </g>
   <g id="PathCollection_86">
    <g clip-path="url(#p7a86695bee)">
     <use style="fill:#ffbb78;stroke:#ffbb78;" x="331.058824" xlink:href="#m828c5bdd22" y="57.154206"/>
    </g>
   </g>
   <g id="PathCollection_87">
    <g clip-path="url(#p7a86695bee)">
     <use style="fill:#ffbb78;stroke:#ffbb78;" x="338.717647" xlink:href="#m828c5bdd22" y="51.766135"/>
    </g>
   </g>
   <g id="PathCollection_88">
    <g clip-path="url(#p7a86695bee)">
     <use style="fill:#ffbb78;stroke:#ffbb78;" x="346.376471" xlink:href="#m828c5bdd22" y="46.889442"/>
    </g>
   </g>
   <g id="PathCollection_89">
    <g clip-path="url(#p7a86695bee)">
     <use style="fill:#ffbb78;stroke:#ffbb78;" x="354.035294" xlink:href="#m828c5bdd22" y="42.643577"/>
    </g>
   </g>
   <g id="PathCollection_90">
    <g clip-path="url(#p7a86695bee)">
     <use style="fill:#ffbb78;stroke:#ffbb78;" x="361.694118" xlink:href="#m828c5bdd22" y="39.142617"/>
    </g>
   </g>
   <g id="PathCollection_91">
    <g clip-path="url(#p7a86695bee)">
     <use style="fill:#ffbb78;stroke:#ffbb78;" x="369.352941" xlink:href="#m828c5bdd22" y="36.488268"/>
    </g>
   </g>
   <g id="PathCollection_92">
    <g clip-path="url(#p7a86695bee)">
     <use style="fill:#ffbb78;stroke:#ffbb78;" x="377.011765" xlink:href="#m828c5bdd22" y="34.761564"/>
    </g>
   </g>
   <g id="PathCollection_93">
    <g clip-path="url(#p7a86695bee)">
     <use style="fill:#ffbb78;stroke:#ffbb78;" x="384.670588" xlink:href="#m828c5bdd22" y="34.013179"/>
    </g>
   </g>
   <g id="PathCollection_94">
    <g clip-path="url(#p7a86695bee)">
     <use style="fill:#ffbb78;stroke:#ffbb78;" x="392.329412" xlink:href="#m828c5bdd22" y="34.252249"/>
    </g>
   </g>
   <g id="PathCollection_95">
    <g clip-path="url(#p7a86695bee)">
     <use style="fill:#ffbb78;stroke:#ffbb78;" x="399.988235" xlink:href="#m828c5bdd22" y="35.433637"/>
    </g>
   </g>
   <g id="PathCollection_96">
    <g clip-path="url(#p7a86695bee)">
     <use style="fill:#ffbb78;stroke:#ffbb78;" x="407.647059" xlink:href="#m828c5bdd22" y="37.443547"/>
    </g>
   </g>
   <g id="PathCollection_97">
    <g clip-path="url(#p7a86695bee)">
     <use style="fill:#ffbb78;stroke:#ffbb78;" x="415.305882" xlink:href="#m828c5bdd22" y="40.083397"/>
    </g>
   </g>
   <g id="PathCollection_98">
    <g clip-path="url(#p7a86695bee)">
     <use style="fill:#ffbb78;stroke:#ffbb78;" x="422.964706" xlink:href="#m828c5bdd22" y="43.051874"/>
    </g>
   </g>
   <g id="PathCollection_99">
    <g clip-path="url(#p7a86695bee)">
     <use style="fill:#ffbb78;stroke:#ffbb78;" x="430.623529" xlink:href="#m828c5bdd22" y="45.925073"/>
    </g>
   </g>
   <g id="PathCollection_100">
    <g clip-path="url(#p7a86695bee)">
     <use style="fill:#ffbb78;stroke:#ffbb78;" x="438.282353" xlink:href="#m828c5bdd22" y="48.134649"/>
    </g>
   </g>
   <g id="PathCollection_101">
    <g clip-path="url(#p7a86695bee)">
     <use style="fill:#ffbb78;stroke:#ffbb78;" x="445.941176" xlink:href="#m828c5bdd22" y="48.943883"/>
    </g>
   </g>
   <g id="PathCollection_102">
    <g clip-path="url(#p7a86695bee)">
     <use style="fill:#ffbb78;stroke:#ffbb78;" x="453.6" xlink:href="#m828c5bdd22" y="47.421579"/>
    </g>
   </g>
   <g id="matplotlib.axis_1"/>
   <g id="matplotlib.axis_2"/>
   <g id="line2d_1">
    <path clip-path="url(#p7a86695bee)" d="M 63 189 
L 107.836029 188.889926 
L 112.016471 188.581239 
L 116.133088 188.05374 
L 120.377353 187.284602 
L 124.813088 186.252135 
L 129.440294 184.944818 
L 134.322794 183.331203 
L 139.460588 181.396616 
L 144.9175 179.101501 
L 150.757353 176.399485 
L 157.012059 173.255906 
L 163.777353 169.602247 
L 171.180882 165.345329 
L 179.350294 160.386584 
L 188.668529 154.461854 
L 199.550441 147.26956 
L 213.240588 137.942202 
L 237.110588 121.360211 
L 260.565735 105.16914 
L 276.617353 94.359422 
L 290.084118 85.549196 
L 294.870882 82.646027 
L 299.051324 80.370266 
L 303.199853 78.364625 
L 307.412206 76.57596 
L 311.688382 75.001098 
L 316.092206 73.61708 
L 320.591765 72.436002 
L 325.250882 71.444411 
L 330.037647 70.653533 
L 335.015882 70.057967 
L 340.185588 69.665507 
L 345.578676 69.481542 
L 351.195147 69.513658 
L 357.098824 69.771018 
L 363.321618 70.26622 
L 369.927353 71.016995 
L 376.979853 72.045273 
L 384.542941 73.3757 
L 392.744265 75.047835 
L 401.711471 77.106721 
L 411.699853 79.632764 
L 423.092353 82.749508 
L 436.591029 86.681235 
L 453.6 91.87213 
L 453.6 91.87213 
" style="fill:none;stroke:#ffbb78;stroke-dasharray:11.1,4.8;stroke-dashoffset:0;stroke-width:3;"/>
   </g>
   <g id="line2d_2">
    <path clip-path="url(#p7a86695bee)" d="M 63 189 
L 107.421176 188.890058 
L 111.250588 188.585446 
L 115.016176 188.061645 
L 118.845588 187.30408 
L 122.834559 186.286726 
L 126.983088 184.997996 
L 131.323088 183.416273 
L 135.918382 181.501495 
L 140.768971 179.235289 
L 145.906765 176.585048 
L 151.363676 173.516672 
L 157.203529 169.974976 
L 163.490147 165.899903 
L 170.351176 161.183536 
L 177.914265 155.709688 
L 186.434706 149.260291 
L 196.199706 141.581966 
L 208.102794 131.927568 
L 225.079853 117.840177 
L 260.47 88.417672 
L 275.66 76.123494 
L 288.871471 65.710637 
L 293.817794 62.030937 
L 297.806765 59.343149 
L 301.668088 57.008161 
L 305.561324 54.913715 
L 309.486471 53.053328 
L 313.507353 51.394403 
L 317.592059 49.949813 
L 321.7725 48.707142 
L 326.048676 47.667202 
L 330.4525 46.824626 
L 335.015882 46.179416 
L 339.738824 45.73855 
L 344.621324 45.507369 
L 349.695294 45.490146 
L 355.024559 45.696625 
L 360.609118 46.138237 
L 366.480882 46.827875 
L 372.703676 47.78546 
L 379.309412 49.029447 
L 386.393824 50.592917 
L 394.052647 52.514999 
L 402.381618 54.838287 
L 411.604118 57.646221 
L 422.007353 61.051654 
L 434.165735 65.273585 
L 449.291912 70.773369 
L 453.6 72.37302 
L 453.6 72.37302 
" style="fill:none;stroke:#ffbb78;stroke-linecap:square;stroke-width:3;"/>
   </g>
   <g id="patch_3">
    <path d="M 63 189 
L 63 25.92 
" style="fill:none;stroke:#000000;stroke-linecap:square;stroke-linejoin:miter;stroke-width:0.8;"/>
   </g>
   <g id="patch_4">
    <path d="M 453.6 189 
L 453.6 25.92 
" style="fill:none;stroke:#000000;stroke-linecap:square;stroke-linejoin:miter;stroke-width:0.8;"/>
   </g>
   <g id="patch_5">
    <path d="M 63 189 
L 453.6 189 
" style="fill:none;stroke:#000000;stroke-linecap:square;stroke-linejoin:miter;stroke-width:0.8;"/>
   </g>
   <g id="patch_6">
    <path d="M 63 25.92 
L 453.6 25.92 
" style="fill:none;stroke:#000000;stroke-linecap:square;stroke-linejoin:miter;stroke-width:0.8;"/>
   </g>
  </g>
 </g>
 <defs>
  <clipPath id="p7a86695bee">
   <rect height="163.08" width="390.6" x="63" y="25.92"/>
  </clipPath>
 </defs>
</svg>
