<?xml version="1.0" encoding="utf-8" standalone="no"?>
<!DOCTYPE svg PUBLIC "-//W3C//DTD SVG 1.1//EN"
  "http://www.w3.org/Graphics/SVG/1.1/DTD/svg11.dtd">
<!-- Created with matplotlib (https://matplotlib.org/) -->
<svg height="216pt" version="1.1" viewBox="0 0 504 216" width="504pt" xmlns="http://www.w3.org/2000/svg" xmlns:xlink="http://www.w3.org/1999/xlink">
 <metadata>
  <rdf:RDF xmlns:cc="http://creativecommons.org/ns#" xmlns:dc="http://purl.org/dc/elements/1.1/" xmlns:rdf="http://www.w3.org/1999/02/22-rdf-syntax-ns#">
   <cc:Work>
    <dc:type rdf:resource="http://purl.org/dc/dcmitype/StillImage"/>
    <dc:date>2024-11-24T08:53:55.552138</dc:date>
    <dc:format>image/svg+xml</dc:format>
    <dc:creator>
     <cc:Agent>
      <dc:title>Matplotlib v3.3.2, https://matplotlib.org/</dc:title>
     </cc:Agent>
    </dc:creator>
   </cc:Work>
  </rdf:RDF>
 </metadata>
 <defs>
  <style type="text/css">*{stroke-linecap:butt;stroke-linejoin:round;}</style>
 </defs>
 <g id="figure_1">
  <g id="patch_1">
   <path d="M 0 216 
L 504 216 
L 504 0 
L 0 0 
z
" style="fill:none;"/>
  </g>
  <g id="axes_1">
   <g id="patch_2">
    <path d="M 63 189 
L 453.6 189 
L 453.6 25.92 
L 63 25.92 
z
" style="fill:#ffffff;"/>
   </g>
   <g id="PathCollection_1">
    <path clip-path="url(#p78cbadbf86)" d="M 70.658824 194.17741 
C 71.984839 194.17741 73.256723 193.650578 74.194357 192.712943 
C 75.131992 191.775309 75.658824 190.503425 75.658824 189.17741 
C 75.658824 187.851394 75.131992 186.57951 74.194357 185.641876 
C 73.256723 184.704241 71.984839 184.17741 70.658824 184.17741 
C 69.332808 184.17741 68.060924 184.704241 67.12329 185.641876 
C 66.185655 186.57951 65.658824 187.851394 65.658824 189.17741 
C 65.658824 190.503425 66.185655 191.775309 67.12329 192.712943 
C 68.060924 193.650578 69.332808 194.17741 70.658824 194.17741 
z
" style="fill:none;stroke:#98bf8a;"/>
   </g>
   <g id="PathCollection_2">
    <path clip-path="url(#p78cbadbf86)" d="M 78.317647 194.798955 
C 79.643663 194.798955 80.915546 194.272123 81.853181 193.334489 
C 82.790816 192.396854 83.317647 191.12497 83.317647 189.798955 
C 83.317647 188.472939 82.790816 187.201055 81.853181 186.263421 
C 80.915546 185.325786 79.643663 184.798955 78.317647 184.798955 
C 76.991632 184.798955 75.719748 185.325786 74.782113 186.263421 
C 73.844479 187.201055 73.317647 188.472939 73.317647 189.798955 
C 73.317647 191.12497 73.844479 192.396854 74.782113 193.334489 
C 75.719748 194.272123 76.991632 194.798955 78.317647 194.798955 
z
" style="fill:none;stroke:#98bf8a;"/>
   </g>
   <g id="PathCollection_3">
    <path clip-path="url(#p78cbadbf86)" d="M 85.976471 194.079569 
C 87.302486 194.079569 88.57437 193.552737 89.512004 192.615103 
C 90.449639 191.677468 90.976471 190.405585 90.976471 189.079569 
C 90.976471 187.753554 90.449639 186.48167 89.512004 185.544035 
C 88.57437 184.606401 87.302486 184.079569 85.976471 184.079569 
C 84.650455 184.079569 83.378571 184.606401 82.440937 185.544035 
C 81.503302 186.48167 80.976471 187.753554 80.976471 189.079569 
C 80.976471 190.405585 81.503302 191.677468 82.440937 192.615103 
C 83.378571 193.552737 84.650455 194.079569 85.976471 194.079569 
z
" style="fill:none;stroke:#98bf8a;"/>
   </g>
   <g id="PathCollection_4">
    <path clip-path="url(#p78cbadbf86)" d="M 93.635294 192.598161 
C 94.96131 192.598161 96.233193 192.07133 97.170828 191.133695 
C 98.108463 190.19606 98.635294 188.924177 98.635294 187.598161 
C 98.635294 186.272146 98.108463 185.000262 97.170828 184.062627 
C 96.233193 183.124993 94.96131 182.598161 93.635294 182.598161 
C 92.309279 182.598161 91.037395 183.124993 90.09976 184.062627 
C 89.162126 185.000262 88.635294 186.272146 88.635294 187.598161 
C 88.635294 188.924177 89.162126 190.19606 90.09976 191.133695 
C 91.037395 192.07133 92.309279 192.598161 93.635294 192.598161 
z
" style="fill:none;stroke:#98bf8a;"/>
   </g>
   <g id="PathCollection_5">
    <path clip-path="url(#p78cbadbf86)" d="M 101.294118 190.761403 
C 102.620133 190.761403 103.892017 190.234572 104.829652 189.296937 
C 105.767286 188.359303 106.294118 187.087419 106.294118 185.761403 
C 106.294118 184.435388 105.767286 183.163504 104.829652 182.22587 
C 103.892017 181.288235 102.620133 180.761403 101.294118 180.761403 
C 99.968102 180.761403 98.696218 181.288235 97.758584 182.22587 
C 96.820949 183.163504 96.294118 184.435388 96.294118 185.761403 
C 96.294118 187.087419 96.820949 188.359303 97.758584 189.296937 
C 98.696218 190.234572 99.968102 190.761403 101.294118 190.761403 
z
" style="fill:none;stroke:#98bf8a;"/>
   </g>
   <g id="PathCollection_6">
    <path clip-path="url(#p78cbadbf86)" d="M 108.952941 188.835235 
C 110.278957 188.835235 111.550841 188.308403 112.488475 187.370769 
C 113.42611 186.433134 113.952941 185.16125 113.952941 183.835235 
C 113.952941 182.509219 113.42611 181.237336 112.488475 180.299701 
C 111.550841 179.362066 110.278957 178.835235 108.952941 178.835235 
C 107.626926 178.835235 106.355042 179.362066 105.417407 180.299701 
C 104.479773 181.237336 103.952941 182.509219 103.952941 183.835235 
C 103.952941 185.16125 104.479773 186.433134 105.417407 187.370769 
C 106.355042 188.308403 107.626926 188.835235 108.952941 188.835235 
z
" style="fill:none;stroke:#98bf8a;"/>
   </g>
   <g id="PathCollection_7">
    <path clip-path="url(#p78cbadbf86)" d="M 116.611765 186.973008 
C 117.93778 186.973008 119.209664 186.446177 120.147299 185.508542 
C 121.084933 184.570908 121.611765 183.299024 121.611765 181.973008 
C 121.611765 180.646993 121.084933 179.375109 120.147299 178.437474 
C 119.209664 177.49984 117.93778 176.973008 116.611765 176.973008 
C 115.285749 176.973008 114.013865 177.49984 113.076231 178.437474 
C 112.138596 179.375109 111.611765 180.646993 111.611765 181.973008 
C 111.611765 183.299024 112.138596 184.570908 113.076231 185.508542 
C 114.013865 186.446177 115.285749 186.973008 116.611765 186.973008 
z
" style="fill:none;stroke:#98bf8a;"/>
   </g>
   <g id="PathCollection_8">
    <path clip-path="url(#p78cbadbf86)" d="M 124.270588 185.240454 
C 125.596604 185.240454 126.868488 184.713622 127.806122 183.775988 
C 128.743757 182.838353 129.270588 181.566469 129.270588 180.240454 
C 129.270588 178.914438 128.743757 177.642554 127.806122 176.70492 
C 126.868488 175.767285 125.596604 175.240454 124.270588 175.240454 
C 122.944573 175.240454 121.672689 175.767285 120.735054 176.70492 
C 119.79742 177.642554 119.270588 178.914438 119.270588 180.240454 
C 119.270588 181.566469 119.79742 182.838353 120.735054 183.775988 
C 121.672689 184.713622 122.944573 185.240454 124.270588 185.240454 
z
" style="fill:none;stroke:#98bf8a;"/>
   </g>
   <g id="PathCollection_9">
    <path clip-path="url(#p78cbadbf86)" d="M 131.929412 183.63761 
C 133.255427 183.63761 134.527311 183.110778 135.464946 182.173144 
C 136.40258 181.235509 136.929412 179.963625 136.929412 178.63761 
C 136.929412 177.311594 136.40258 176.03971 135.464946 175.102076 
C 134.527311 174.164441 133.255427 173.63761 131.929412 173.63761 
C 130.603396 173.63761 129.331512 174.164441 128.393878 175.102076 
C 127.456243 176.03971 126.929412 177.311594 126.929412 178.63761 
C 126.929412 179.963625 127.456243 181.235509 128.393878 182.173144 
C 129.331512 183.110778 130.603396 183.63761 131.929412 183.63761 
z
" style="fill:none;stroke:#98bf8a;"/>
   </g>
   <g id="PathCollection_10">
    <path clip-path="url(#p78cbadbf86)" d="M 139.588235 182.1179 
C 140.914251 182.1179 142.186135 181.591068 143.123769 180.653434 
C 144.061404 179.715799 144.588235 178.443915 144.588235 177.1179 
C 144.588235 175.791884 144.061404 174.520001 143.123769 173.582366 
C 142.186135 172.644731 140.914251 172.1179 139.588235 172.1179 
C 138.26222 172.1179 136.990336 172.644731 136.052701 173.582366 
C 135.115067 174.520001 134.588235 175.791884 134.588235 177.1179 
C 134.588235 178.443915 135.115067 179.715799 136.052701 180.653434 
C 136.990336 181.591068 138.26222 182.1179 139.588235 182.1179 
z
" style="fill:none;stroke:#98bf8a;"/>
   </g>
   <g id="PathCollection_11">
    <path clip-path="url(#p78cbadbf86)" d="M 147.247059 180.604508 
C 148.573074 180.604508 149.844958 180.077676 150.782593 179.140042 
C 151.720227 178.202407 152.247059 176.930524 152.247059 175.604508 
C 152.247059 174.278493 151.720227 173.006609 150.782593 172.068974 
C 149.844958 171.13134 148.573074 170.604508 147.247059 170.604508 
C 145.921043 170.604508 144.649159 171.13134 143.711525 172.068974 
C 142.77389 173.006609 142.247059 174.278493 142.247059 175.604508 
C 142.247059 176.930524 142.77389 178.202407 143.711525 179.140042 
C 144.649159 180.077676 145.921043 180.604508 147.247059 180.604508 
z
" style="fill:none;stroke:#98bf8a;"/>
   </g>
   <g id="PathCollection_12">
    <path clip-path="url(#p78cbadbf86)" d="M 154.905882 179.004221 
C 156.231898 179.004221 157.503782 178.47739 158.441416 177.539755 
C 159.379051 176.602121 159.905882 175.330237 159.905882 174.004221 
C 159.905882 172.678206 159.379051 171.406322 158.441416 170.468687 
C 157.503782 169.531053 156.231898 169.004221 154.905882 169.004221 
C 153.579867 169.004221 152.307983 169.531053 151.370348 170.468687 
C 150.432714 171.406322 149.905882 172.678206 149.905882 174.004221 
C 149.905882 175.330237 150.432714 176.602121 151.370348 177.539755 
C 152.307983 178.47739 153.579867 179.004221 154.905882 179.004221 
z
" style="fill:none;stroke:#98bf8a;"/>
   </g>
   <g id="PathCollection_13">
    <path clip-path="url(#p78cbadbf86)" d="M 162.564706 177.218901 
C 163.890721 177.218901 165.162605 176.69207 166.10024 175.754435 
C 167.037874 174.816801 167.564706 173.544917 167.564706 172.218901 
C 167.564706 170.892886 167.037874 169.621002 166.10024 168.683367 
C 165.162605 167.745733 163.890721 167.218901 162.564706 167.218901 
C 161.23869 167.218901 159.966807 167.745733 159.029172 168.683367 
C 158.091537 169.621002 157.564706 170.892886 157.564706 172.218901 
C 157.564706 173.544917 158.091537 174.816801 159.029172 175.754435 
C 159.966807 176.69207 161.23869 177.218901 162.564706 177.218901 
z
" style="fill:none;stroke:#98bf8a;"/>
   </g>
   <g id="PathCollection_14">
    <path clip-path="url(#p78cbadbf86)" d="M 170.223529 175.154753 
C 171.549545 175.154753 172.821429 174.627922 173.759063 173.690287 
C 174.696698 172.752653 175.223529 171.480769 175.223529 170.154753 
C 175.223529 168.828738 174.696698 167.556854 173.759063 166.61922 
C 172.821429 165.681585 171.549545 165.154753 170.223529 165.154753 
C 168.897514 165.154753 167.62563 165.681585 166.687996 166.61922 
C 165.750361 167.556854 165.223529 168.828738 165.223529 170.154753 
C 165.223529 171.480769 165.750361 172.752653 166.687996 173.690287 
C 167.62563 174.627922 168.897514 175.154753 170.223529 175.154753 
z
" style="fill:none;stroke:#98bf8a;"/>
   </g>
   <g id="PathCollection_15">
    <path clip-path="url(#p78cbadbf86)" d="M 177.882353 172.72955 
C 179.208368 172.72955 180.480252 172.202718 181.417887 171.265084 
C 182.355521 170.327449 182.882353 169.055565 182.882353 167.72955 
C 182.882353 166.403534 182.355521 165.13165 181.417887 164.194016 
C 180.480252 163.256381 179.208368 162.72955 177.882353 162.72955 
C 176.556337 162.72955 175.284454 163.256381 174.346819 164.194016 
C 173.409184 165.13165 172.882353 166.403534 172.882353 167.72955 
C 172.882353 169.055565 173.409184 170.327449 174.346819 171.265084 
C 175.284454 172.202718 176.556337 172.72955 177.882353 172.72955 
z
" style="fill:none;stroke:#98bf8a;"/>
   </g>
   <g id="PathCollection_16">
    <path clip-path="url(#p78cbadbf86)" d="M 185.541176 169.877975 
C 186.867192 169.877975 188.139076 169.351144 189.07671 168.413509 
C 190.014345 167.475875 190.541176 166.203991 190.541176 164.877975 
C 190.541176 163.55196 190.014345 162.280076 189.07671 161.342441 
C 188.139076 160.404807 186.867192 159.877975 185.541176 159.877975 
C 184.215161 159.877975 182.943277 160.404807 182.005643 161.342441 
C 181.068008 162.280076 180.541176 163.55196 180.541176 164.877975 
C 180.541176 166.203991 181.068008 167.475875 182.005643 168.413509 
C 182.943277 169.351144 184.215161 169.877975 185.541176 169.877975 
z
" style="fill:none;stroke:#98bf8a;"/>
   </g>
   <g id="PathCollection_17">
    <path clip-path="url(#p78cbadbf86)" d="M 193.2 166.55526 
C 194.526016 166.55526 195.797899 166.028429 196.735534 165.090794 
C 197.673168 164.15316 198.2 162.881276 198.2 161.55526 
C 198.2 160.229245 197.673168 158.957361 196.735534 158.019726 
C 195.797899 157.082092 194.526016 156.55526 193.2 156.55526 
C 191.873985 156.55526 190.602101 157.082092 189.664466 158.019726 
C 188.726832 158.957361 188.2 160.229245 188.2 161.55526 
C 188.2 162.881276 188.726832 164.15316 189.664466 165.090794 
C 190.602101 166.028429 191.873985 166.55526 193.2 166.55526 
z
" style="fill:none;stroke:#98bf8a;"/>
   </g>
   <g id="PathCollection_18">
    <path clip-path="url(#p78cbadbf86)" d="M 200.858824 162.739262 
C 202.184839 162.739262 203.456723 162.21243 204.394357 161.274796 
C 205.331992 160.337161 205.858824 159.065277 205.858824 157.739262 
C 205.858824 156.413246 205.331992 155.141362 204.394357 154.203728 
C 203.456723 153.266093 202.184839 152.739262 200.858824 152.739262 
C 199.532808 152.739262 198.260924 153.266093 197.32329 154.203728 
C 196.385655 155.141362 195.858824 156.413246 195.858824 157.739262 
C 195.858824 159.065277 196.385655 160.337161 197.32329 161.274796 
C 198.260924 162.21243 199.532808 162.739262 200.858824 162.739262 
z
" style="fill:none;stroke:#98bf8a;"/>
   </g>
   <g id="PathCollection_19">
    <path clip-path="url(#p78cbadbf86)" d="M 208.517647 158.431157 
C 209.843663 158.431157 211.115546 157.904326 212.053181 156.966691 
C 212.990816 156.029056 213.517647 154.757173 213.517647 153.431157 
C 213.517647 152.105142 212.990816 150.833258 212.053181 149.895623 
C 211.115546 148.957989 209.843663 148.431157 208.517647 148.431157 
C 207.191632 148.431157 205.919748 148.957989 204.982113 149.895623 
C 204.044479 150.833258 203.517647 152.105142 203.517647 153.431157 
C 203.517647 154.757173 204.044479 156.029056 204.982113 156.966691 
C 205.919748 157.904326 207.191632 158.431157 208.517647 158.431157 
z
" style="fill:none;stroke:#98bf8a;"/>
   </g>
   <g id="PathCollection_20">
    <path clip-path="url(#p78cbadbf86)" d="M 216.176471 153.654915 
C 217.502486 153.654915 218.77437 153.128084 219.712004 152.190449 
C 220.649639 151.252815 221.176471 149.980931 221.176471 148.654915 
C 221.176471 147.3289 220.649639 146.057016 219.712004 145.119381 
C 218.77437 144.181747 217.502486 143.654915 216.176471 143.654915 
C 214.850455 143.654915 213.578571 144.181747 212.640937 145.119381 
C 211.703302 146.057016 211.176471 147.3289 211.176471 148.654915 
C 211.176471 149.980931 211.703302 151.252815 212.640937 152.190449 
C 213.578571 153.128084 214.850455 153.654915 216.176471 153.654915 
z
" style="fill:none;stroke:#98bf8a;"/>
   </g>
   <g id="PathCollection_21">
    <path clip-path="url(#p78cbadbf86)" d="M 223.835294 148.45571 
C 225.16131 148.45571 226.433193 147.928879 227.370828 146.991244 
C 228.308463 146.05361 228.835294 144.781726 228.835294 143.45571 
C 228.835294 142.129695 228.308463 140.857811 227.370828 139.920176 
C 226.433193 138.982542 225.16131 138.45571 223.835294 138.45571 
C 222.509279 138.45571 221.237395 138.982542 220.29976 139.920176 
C 219.362126 140.857811 218.835294 142.129695 218.835294 143.45571 
C 218.835294 144.781726 219.362126 146.05361 220.29976 146.991244 
C 221.237395 147.928879 222.509279 148.45571 223.835294 148.45571 
z
" style="fill:none;stroke:#98bf8a;"/>
   </g>
   <g id="PathCollection_22">
    <path clip-path="url(#p78cbadbf86)" d="M 231.494118 142.897436 
C 232.820133 142.897436 234.092017 142.370605 235.029652 141.43297 
C 235.967286 140.495335 236.494118 139.223452 236.494118 137.897436 
C 236.494118 136.571421 235.967286 135.299537 235.029652 134.361902 
C 234.092017 133.424268 232.820133 132.897436 231.494118 132.897436 
C 230.168102 132.897436 228.896218 133.424268 227.958584 134.361902 
C 227.020949 135.299537 226.494118 136.571421 226.494118 137.897436 
C 226.494118 139.223452 227.020949 140.495335 227.958584 141.43297 
C 228.896218 142.370605 230.168102 142.897436 231.494118 142.897436 
z
" style="fill:none;stroke:#98bf8a;"/>
   </g>
   <g id="PathCollection_23">
    <path clip-path="url(#p78cbadbf86)" d="M 239.152941 137.059493 
C 240.478957 137.059493 241.750841 136.532662 242.688475 135.595027 
C 243.62611 134.657392 244.152941 133.385509 244.152941 132.059493 
C 244.152941 130.733478 243.62611 129.461594 242.688475 128.523959 
C 241.750841 127.586325 240.478957 127.059493 239.152941 127.059493 
C 237.826926 127.059493 236.555042 127.586325 235.617407 128.523959 
C 234.679773 129.461594 234.152941 130.733478 234.152941 132.059493 
C 234.152941 133.385509 234.679773 134.657392 235.617407 135.595027 
C 236.555042 136.532662 237.826926 137.059493 239.152941 137.059493 
z
" style="fill:none;stroke:#98bf8a;"/>
   </g>
   <g id="PathCollection_24">
    <path clip-path="url(#p78cbadbf86)" d="M 246.811765 131.033006 
C 248.13778 131.033006 249.409664 130.506175 250.347299 129.56854 
C 251.284933 128.630906 251.811765 127.359022 251.811765 126.033006 
C 251.811765 124.706991 251.284933 123.435107 250.347299 122.497472 
C 249.409664 121.559838 248.13778 121.033006 246.811765 121.033006 
C 245.485749 121.033006 244.213865 121.559838 243.276231 122.497472 
C 242.338596 123.435107 241.811765 124.706991 241.811765 126.033006 
C 241.811765 127.359022 242.338596 128.630906 243.276231 129.56854 
C 244.213865 130.506175 245.485749 131.033006 246.811765 131.033006 
z
" style="fill:none;stroke:#98bf8a;"/>
   </g>
   <g id="PathCollection_25">
    <path clip-path="url(#p78cbadbf86)" d="M 254.470588 124.916638 
C 255.796604 124.916638 257.068488 124.389807 258.006122 123.452172 
C 258.943757 122.514537 259.470588 121.242654 259.470588 119.916638 
C 259.470588 118.590623 258.943757 117.318739 258.006122 116.381104 
C 257.068488 115.44347 255.796604 114.916638 254.470588 114.916638 
C 253.144573 114.916638 251.872689 115.44347 250.935054 116.381104 
C 249.99742 117.318739 249.470588 118.590623 249.470588 119.916638 
C 249.470588 121.242654 249.99742 122.514537 250.935054 123.452172 
C 251.872689 124.389807 253.144573 124.916638 254.470588 124.916638 
z
" style="fill:none;stroke:#98bf8a;"/>
   </g>
   <g id="PathCollection_26">
    <path clip-path="url(#p78cbadbf86)" d="M 262.129412 118.812163 
C 263.455427 118.812163 264.727311 118.285331 265.664946 117.347697 
C 266.60258 116.410062 267.129412 115.138179 267.129412 113.812163 
C 267.129412 112.486148 266.60258 111.214264 265.664946 110.276629 
C 264.727311 109.338995 263.455427 108.812163 262.129412 108.812163 
C 260.803396 108.812163 259.531512 109.338995 258.593878 110.276629 
C 257.656243 111.214264 257.129412 112.486148 257.129412 113.812163 
C 257.129412 115.138179 257.656243 116.410062 258.593878 117.347697 
C 259.531512 118.285331 260.803396 118.812163 262.129412 118.812163 
z
" style="fill:none;stroke:#98bf8a;"/>
   </g>
   <g id="PathCollection_27">
    <path clip-path="url(#p78cbadbf86)" d="M 269.788235 112.819965 
C 271.114251 112.819965 272.386135 112.293133 273.323769 111.355498 
C 274.261404 110.417864 274.788235 109.14598 274.788235 107.819965 
C 274.788235 106.493949 274.261404 105.222065 273.323769 104.284431 
C 272.386135 103.346796 271.114251 102.819965 269.788235 102.819965 
C 268.46222 102.819965 267.190336 103.346796 266.252701 104.284431 
C 265.315067 105.222065 264.788235 106.493949 264.788235 107.819965 
C 264.788235 109.14598 265.315067 110.417864 266.252701 111.355498 
C 267.190336 112.293133 268.46222 112.819965 269.788235 112.819965 
z
" style="fill:none;stroke:#98bf8a;"/>
   </g>
   <g id="PathCollection_28">
    <path clip-path="url(#p78cbadbf86)" d="M 277.447059 107.034621 
C 278.773074 107.034621 280.044958 106.50779 280.982593 105.570155 
C 281.920227 104.632521 282.447059 103.360637 282.447059 102.034621 
C 282.447059 100.708606 281.920227 99.436722 280.982593 98.499087 
C 280.044958 97.561453 278.773074 97.034621 277.447059 97.034621 
C 276.121043 97.034621 274.849159 97.561453 273.911525 98.499087 
C 272.97389 99.436722 272.447059 100.708606 272.447059 102.034621 
C 272.447059 103.360637 272.97389 104.632521 273.911525 105.570155 
C 274.849159 106.50779 276.121043 107.034621 277.447059 107.034621 
z
" style="fill:none;stroke:#98bf8a;"/>
   </g>
   <g id="PathCollection_29">
    <path clip-path="url(#p78cbadbf86)" d="M 285.105882 101.540744 
C 286.431898 101.540744 287.703782 101.013912 288.641416 100.076278 
C 289.579051 99.138643 290.105882 97.866759 290.105882 96.540744 
C 290.105882 95.214728 289.579051 93.942844 288.641416 93.00521 
C 287.703782 92.067575 286.431898 91.540744 285.105882 91.540744 
C 283.779867 91.540744 282.507983 92.067575 281.570348 93.00521 
C 280.632714 93.942844 280.105882 95.214728 280.105882 96.540744 
C 280.105882 97.866759 280.632714 99.138643 281.570348 100.076278 
C 282.507983 101.013912 283.779867 101.540744 285.105882 101.540744 
z
" style="fill:none;stroke:#98bf8a;"/>
   </g>
   <g id="PathCollection_30">
    <path clip-path="url(#p78cbadbf86)" d="M 292.764706 96.409226 
C 294.090721 96.409226 295.362605 95.882395 296.30024 94.94476 
C 297.237874 94.007126 297.764706 92.735242 297.764706 91.409226 
C 297.764706 90.083211 297.237874 88.811327 296.30024 87.873693 
C 295.362605 86.936058 294.090721 86.409226 292.764706 86.409226 
C 291.43869 86.409226 290.166807 86.936058 289.229172 87.873693 
C 288.291537 88.811327 287.764706 90.083211 287.764706 91.409226 
C 287.764706 92.735242 288.291537 94.007126 289.229172 94.94476 
C 290.166807 95.882395 291.43869 96.409226 292.764706 96.409226 
z
" style="fill:none;stroke:#98bf8a;"/>
   </g>
   <g id="PathCollection_31">
    <path clip-path="url(#p78cbadbf86)" d="M 300.423529 91.694079 
C 301.749545 91.694079 303.021429 91.167247 303.959063 90.229613 
C 304.896698 89.291978 305.423529 88.020095 305.423529 86.694079 
C 305.423529 85.368064 304.896698 84.09618 303.959063 83.158545 
C 303.021429 82.220911 301.749545 81.694079 300.423529 81.694079 
C 299.097514 81.694079 297.82563 82.220911 296.887996 83.158545 
C 295.950361 84.09618 295.423529 85.368064 295.423529 86.694079 
C 295.423529 88.020095 295.950361 89.291978 296.887996 90.229613 
C 297.82563 91.167247 299.097514 91.694079 300.423529 91.694079 
z
" style="fill:none;stroke:#98bf8a;"/>
   </g>
   <g id="PathCollection_32">
    <path clip-path="url(#p78cbadbf86)" d="M 308.082353 87.430001 
C 309.408368 87.430001 310.680252 86.90317 311.617887 85.965535 
C 312.555521 85.027901 313.082353 83.756017 313.082353 82.430001 
C 313.082353 81.103986 312.555521 79.832102 311.617887 78.894468 
C 310.680252 77.956833 309.408368 77.430001 308.082353 77.430001 
C 306.756337 77.430001 305.484454 77.956833 304.546819 78.894468 
C 303.609184 79.832102 303.082353 81.103986 303.082353 82.430001 
C 303.082353 83.756017 303.609184 85.027901 304.546819 85.965535 
C 305.484454 86.90317 306.756337 87.430001 308.082353 87.430001 
z
" style="fill:none;stroke:#98bf8a;"/>
   </g>
   <g id="PathCollection_33">
    <path clip-path="url(#p78cbadbf86)" d="M 315.741176 83.630865 
C 317.067192 83.630865 318.339076 83.104033 319.27671 82.166399 
C 320.214345 81.228764 320.741176 79.956881 320.741176 78.630865 
C 320.741176 77.30485 320.214345 76.032966 319.27671 75.095331 
C 318.339076 74.157697 317.067192 73.630865 315.741176 73.630865 
C 314.415161 73.630865 313.143277 74.157697 312.205643 75.095331 
C 311.268008 76.032966 310.741176 77.30485 310.741176 78.630865 
C 310.741176 79.956881 311.268008 81.228764 312.205643 82.166399 
C 313.143277 83.104033 314.415161 83.630865 315.741176 83.630865 
z
" style="fill:none;stroke:#98bf8a;"/>
   </g>
   <g id="PathCollection_34">
    <path clip-path="url(#p78cbadbf86)" d="M 323.4 80.289263 
C 324.726016 80.289263 325.997899 79.762431 326.935534 78.824797 
C 327.873168 77.887162 328.4 76.615278 328.4 75.289263 
C 328.4 73.963247 327.873168 72.691364 326.935534 71.753729 
C 325.997899 70.816094 324.726016 70.289263 323.4 70.289263 
C 322.073985 70.289263 320.802101 70.816094 319.864466 71.753729 
C 318.926832 72.691364 318.4 73.963247 318.4 75.289263 
C 318.4 76.615278 318.926832 77.887162 319.864466 78.824797 
C 320.802101 79.762431 322.073985 80.289263 323.4 80.289263 
z
" style="fill:none;stroke:#98bf8a;"/>
   </g>
   <g id="PathCollection_35">
    <path clip-path="url(#p78cbadbf86)" d="M 331.058824 77.377299 
C 332.384839 77.377299 333.656723 76.850468 334.594357 75.912833 
C 335.531992 74.975199 336.058824 73.703315 336.058824 72.377299 
C 336.058824 71.051284 335.531992 69.7794 334.594357 68.841765 
C 333.656723 67.904131 332.384839 67.377299 331.058824 67.377299 
C 329.732808 67.377299 328.460924 67.904131 327.52329 68.841765 
C 326.585655 69.7794 326.058824 71.051284 326.058824 72.377299 
C 326.058824 73.703315 326.585655 74.975199 327.52329 75.912833 
C 328.460924 76.850468 329.732808 77.377299 331.058824 77.377299 
z
" style="fill:none;stroke:#98bf8a;"/>
   </g>
   <g id="PathCollection_36">
    <path clip-path="url(#p78cbadbf86)" d="M 338.717647 74.848772 
C 340.043663 74.848772 341.315546 74.32194 342.253181 73.384306 
C 343.190816 72.446671 343.717647 71.174787 343.717647 69.848772 
C 343.717647 68.522756 343.190816 67.250873 342.253181 66.313238 
C 341.315546 65.375603 340.043663 64.848772 338.717647 64.848772 
C 337.391632 64.848772 336.119748 65.375603 335.182113 66.313238 
C 334.244479 67.250873 333.717647 68.522756 333.717647 69.848772 
C 333.717647 71.174787 334.244479 72.446671 335.182113 73.384306 
C 336.119748 74.32194 337.391632 74.848772 338.717647 74.848772 
z
" style="fill:none;stroke:#98bf8a;"/>
   </g>
   <g id="PathCollection_37">
    <path clip-path="url(#p78cbadbf86)" d="M 346.376471 72.64292 
C 347.702486 72.64292 348.97437 72.116089 349.912004 71.178454 
C 350.849639 70.240819 351.376471 68.968936 351.376471 67.64292 
C 351.376471 66.316905 350.849639 65.045021 349.912004 64.107386 
C 348.97437 63.169752 347.702486 62.64292 346.376471 62.64292 
C 345.050455 62.64292 343.778571 63.169752 342.840937 64.107386 
C 341.903302 65.045021 341.376471 66.316905 341.376471 67.64292 
C 341.376471 68.968936 341.903302 70.240819 342.840937 71.178454 
C 343.778571 72.116089 345.050455 72.64292 346.376471 72.64292 
z
" style="fill:none;stroke:#98bf8a;"/>
   </g>
   <g id="PathCollection_38">
    <path clip-path="url(#p78cbadbf86)" d="M 354.035294 70.689898 
C 355.36131 70.689898 356.633193 70.163066 357.570828 69.225431 
C 358.508463 68.287797 359.035294 67.015913 359.035294 65.689898 
C 359.035294 64.363882 358.508463 63.091998 357.570828 62.154364 
C 356.633193 61.216729 355.36131 60.689898 354.035294 60.689898 
C 352.709279 60.689898 351.437395 61.216729 350.49976 62.154364 
C 349.562126 63.091998 349.035294 64.363882 349.035294 65.689898 
C 349.035294 67.015913 349.562126 68.287797 350.49976 69.225431 
C 351.437395 70.163066 352.709279 70.689898 354.035294 70.689898 
z
" style="fill:none;stroke:#98bf8a;"/>
   </g>
   <g id="PathCollection_39">
    <path clip-path="url(#p78cbadbf86)" d="M 361.694118 68.918135 
C 363.020133 68.918135 364.292017 68.391303 365.229652 67.453669 
C 366.167286 66.516034 366.694118 65.24415 366.694118 63.918135 
C 366.694118 62.592119 366.167286 61.320235 365.229652 60.382601 
C 364.292017 59.444966 363.020133 58.918135 361.694118 58.918135 
C 360.368102 58.918135 359.096218 59.444966 358.158584 60.382601 
C 357.220949 61.320235 356.694118 62.592119 356.694118 63.918135 
C 356.694118 65.24415 357.220949 66.516034 358.158584 67.453669 
C 359.096218 68.391303 360.368102 68.918135 361.694118 68.918135 
z
" style="fill:none;stroke:#98bf8a;"/>
   </g>
   <g id="PathCollection_40">
    <path clip-path="url(#p78cbadbf86)" d="M 369.352941 67.263756 
C 370.678957 67.263756 371.950841 66.736925 372.888475 65.79929 
C 373.82611 64.861656 374.352941 63.589772 374.352941 62.263756 
C 374.352941 60.937741 373.82611 59.665857 372.888475 58.728222 
C 371.950841 57.790588 370.678957 57.263756 369.352941 57.263756 
C 368.026926 57.263756 366.755042 57.790588 365.817407 58.728222 
C 364.879773 59.665857 364.352941 60.937741 364.352941 62.263756 
C 364.352941 63.589772 364.879773 64.861656 365.817407 65.79929 
C 366.755042 66.736925 368.026926 67.263756 369.352941 67.263756 
z
" style="fill:none;stroke:#98bf8a;"/>
   </g>
   <g id="PathCollection_41">
    <path clip-path="url(#p78cbadbf86)" d="M 377.011765 65.682214 
C 378.33778 65.682214 379.609664 65.155382 380.547299 64.217748 
C 381.484933 63.280113 382.011765 62.008229 382.011765 60.682214 
C 382.011765 59.356198 381.484933 58.084314 380.547299 57.14668 
C 379.609664 56.209045 378.33778 55.682214 377.011765 55.682214 
C 375.685749 55.682214 374.413865 56.209045 373.476231 57.14668 
C 372.538596 58.084314 372.011765 59.356198 372.011765 60.682214 
C 372.011765 62.008229 372.538596 63.280113 373.476231 64.217748 
C 374.413865 65.155382 375.685749 65.682214 377.011765 65.682214 
z
" style="fill:none;stroke:#98bf8a;"/>
   </g>
   <g id="PathCollection_42">
    <path clip-path="url(#p78cbadbf86)" d="M 384.670588 64.162302 
C 385.996604 64.162302 387.268488 63.635471 388.206122 62.697836 
C 389.143757 61.760202 389.670588 60.488318 389.670588 59.162302 
C 389.670588 57.836287 389.143757 56.564403 388.206122 55.626768 
C 387.268488 54.689134 385.996604 54.162302 384.670588 54.162302 
C 383.344573 54.162302 382.072689 54.689134 381.135054 55.626768 
C 380.19742 56.564403 379.670588 57.836287 379.670588 59.162302 
C 379.670588 60.488318 380.19742 61.760202 381.135054 62.697836 
C 382.072689 63.635471 383.344573 64.162302 384.670588 64.162302 
z
" style="fill:none;stroke:#98bf8a;"/>
   </g>
   <g id="PathCollection_43">
    <path clip-path="url(#p78cbadbf86)" d="M 392.329412 62.74272 
C 393.655427 62.74272 394.927311 62.215888 395.864946 61.278254 
C 396.80258 60.340619 397.329412 59.068735 397.329412 57.74272 
C 397.329412 56.416704 396.80258 55.14482 395.864946 54.207186 
C 394.927311 53.269551 393.655427 52.74272 392.329412 52.74272 
C 391.003396 52.74272 389.731512 53.269551 388.793878 54.207186 
C 387.856243 55.14482 387.329412 56.416704 387.329412 57.74272 
C 387.329412 59.068735 387.856243 60.340619 388.793878 61.278254 
C 389.731512 62.215888 391.003396 62.74272 392.329412 62.74272 
z
" style="fill:none;stroke:#98bf8a;"/>
   </g>
   <g id="PathCollection_44">
    <path clip-path="url(#p78cbadbf86)" d="M 399.988235 61.531338 
C 401.314251 61.531338 402.586135 61.004507 403.523769 60.066872 
C 404.461404 59.129237 404.988235 57.857354 404.988235 56.531338 
C 404.988235 55.205323 404.461404 53.933439 403.523769 52.995804 
C 402.586135 52.05817 401.314251 51.531338 399.988235 51.531338 
C 398.66222 51.531338 397.390336 52.05817 396.452701 52.995804 
C 395.515067 53.933439 394.988235 55.205323 394.988235 56.531338 
C 394.988235 57.857354 395.515067 59.129237 396.452701 60.066872 
C 397.390336 61.004507 398.66222 61.531338 399.988235 61.531338 
z
" style="fill:none;stroke:#98bf8a;"/>
   </g>
   <g id="PathCollection_45">
    <path clip-path="url(#p78cbadbf86)" d="M 407.647059 60.727344 
C 408.973074 60.727344 410.244958 60.200512 411.182593 59.262878 
C 412.120227 58.325243 412.647059 57.053359 412.647059 55.727344 
C 412.647059 54.401328 412.120227 53.129444 411.182593 52.19181 
C 410.244958 51.254175 408.973074 50.727344 407.647059 50.727344 
C 406.321043 50.727344 405.049159 51.254175 404.111525 52.19181 
C 403.17389 53.129444 402.647059 54.401328 402.647059 55.727344 
C 402.647059 57.053359 403.17389 58.325243 404.111525 59.262878 
C 405.049159 60.200512 406.321043 60.727344 407.647059 60.727344 
z
" style="fill:none;stroke:#98bf8a;"/>
   </g>
   <g id="PathCollection_46">
    <path clip-path="url(#p78cbadbf86)" d="M 415.305882 60.646418 
C 416.631898 60.646418 417.903782 60.119586 418.841416 59.181952 
C 419.779051 58.244317 420.305882 56.972433 420.305882 55.646418 
C 420.305882 54.320402 419.779051 53.048518 418.841416 52.110884 
C 417.903782 51.173249 416.631898 50.646418 415.305882 50.646418 
C 413.979867 50.646418 412.707983 51.173249 411.770348 52.110884 
C 410.832714 53.048518 410.305882 54.320402 410.305882 55.646418 
C 410.305882 56.972433 410.832714 58.244317 411.770348 59.181952 
C 412.707983 60.119586 413.979867 60.646418 415.305882 60.646418 
z
" style="fill:none;stroke:#98bf8a;"/>
   </g>
   <g id="PathCollection_47">
    <path clip-path="url(#p78cbadbf86)" d="M 422.964706 61.749115 
C 424.290721 61.749115 425.562605 61.222284 426.50024 60.284649 
C 427.437874 59.347015 427.964706 58.075131 427.964706 56.749115 
C 427.964706 55.4231 427.437874 54.151216 426.50024 53.213581 
C 425.562605 52.275947 424.290721 51.749115 422.964706 51.749115 
C 421.63869 51.749115 420.366807 52.275947 419.429172 53.213581 
C 418.491537 54.151216 417.964706 55.4231 417.964706 56.749115 
C 417.964706 58.075131 418.491537 59.347015 419.429172 60.284649 
C 420.366807 61.222284 421.63869 61.749115 422.964706 61.749115 
z
" style="fill:none;stroke:#98bf8a;"/>
   </g>
   <g id="PathCollection_48">
    <path clip-path="url(#p78cbadbf86)" d="M 430.623529 64.672609 
C 431.949545 64.672609 433.221429 64.145777 434.159063 63.208143 
C 435.096698 62.270508 435.623529 60.998624 435.623529 59.672609 
C 435.623529 58.346593 435.096698 57.07471 434.159063 56.137075 
C 433.221429 55.19944 431.949545 54.672609 430.623529 54.672609 
C 429.297514 54.672609 428.02563 55.19944 427.087996 56.137075 
C 426.150361 57.07471 425.623529 58.346593 425.623529 59.672609 
C 425.623529 60.998624 426.150361 62.270508 427.087996 63.208143 
C 428.02563 64.145777 429.297514 64.672609 430.623529 64.672609 
z
" style="fill:none;stroke:#98bf8a;"/>
   </g>
   <g id="PathCollection_49">
    <path clip-path="url(#p78cbadbf86)" d="M 438.282353 70.265962 
C 439.608368 70.265962 440.880252 69.73913 441.817887 68.801496 
C 442.755521 67.863861 443.282353 66.591977 443.282353 65.265962 
C 443.282353 63.939946 442.755521 62.668062 441.817887 61.730428 
C 440.880252 60.792793 439.608368 60.265962 438.282353 60.265962 
C 436.956337 60.265962 435.684454 60.792793 434.746819 61.730428 
C 433.809184 62.668062 433.282353 63.939946 433.282353 65.265962 
C 433.282353 66.591977 433.809184 67.863861 434.746819 68.801496 
C 435.684454 69.73913 436.956337 70.265962 438.282353 70.265962 
z
" style="fill:none;stroke:#98bf8a;"/>
   </g>
   <g id="PathCollection_50">
    <path clip-path="url(#p78cbadbf86)" d="M 445.941176 79.62909 
C 447.267192 79.62909 448.539076 79.102259 449.47671 78.164624 
C 450.414345 77.22699 450.941176 75.955106 450.941176 74.62909 
C 450.941176 73.303075 450.414345 72.031191 449.47671 71.093556 
C 448.539076 70.155922 447.267192 69.62909 445.941176 69.62909 
C 444.615161 69.62909 443.343277 70.155922 442.405643 71.093556 
C 441.468008 72.031191 440.941176 73.303075 440.941176 74.62909 
C 440.941176 75.955106 441.468008 77.22699 442.405643 78.164624 
C 443.343277 79.102259 444.615161 79.62909 445.941176 79.62909 
z
" style="fill:none;stroke:#98bf8a;"/>
   </g>
   <g id="PathCollection_51">
    <path clip-path="url(#p78cbadbf86)" d="M 453.6 94.155585 
C 454.926016 94.155585 456.197899 93.628753 457.135534 92.691119 
C 458.073168 91.753484 458.6 90.4816 458.6 89.155585 
C 458.6 87.829569 458.073168 86.557685 457.135534 85.620051 
C 456.197899 84.682416 454.926016 84.155585 453.6 84.155585 
C 452.273985 84.155585 451.002101 84.682416 450.064466 85.620051 
C 449.126832 86.557685 448.6 87.829569 448.6 89.155585 
C 448.6 90.4816 449.126832 91.753484 450.064466 92.691119 
C 451.002101 93.628753 452.273985 94.155585 453.6 94.155585 
z
" style="fill:none;stroke:#98bf8a;"/>
   </g>
   <g id="PathCollection_52">
    <defs>
     <path d="M 0 5 
C 1.326016 5 2.597899 4.473168 3.535534 3.535534 
C 4.473168 2.597899 5 1.326016 5 0 
C 5 -1.326016 4.473168 -2.597899 3.535534 -3.535534 
C 2.597899 -4.473168 1.326016 -5 0 -5 
C -1.326016 -5 -2.597899 -4.473168 -3.535534 -3.535534 
C -4.473168 -2.597899 -5 -1.326016 -5 0 
C -5 1.326016 -4.473168 2.597899 -3.535534 3.535534 
C -2.597899 4.473168 -1.326016 5 0 5 
z
" id="ma3ffcdb062" style="stroke:#98bf8a;"/>
    </defs>
    <g clip-path="url(#p78cbadbf86)">
     <use style="fill:#98bf8a;stroke:#98bf8a;" x="70.658824" xlink:href="#ma3ffcdb062" y="189.086046"/>
    </g>
   </g>
   <g id="PathCollection_53">
    <g clip-path="url(#p78cbadbf86)">
     <use style="fill:#98bf8a;stroke:#98bf8a;" x="78.317647" xlink:href="#ma3ffcdb062" y="189.311827"/>
    </g>
   </g>
   <g id="PathCollection_54">
    <g clip-path="url(#p78cbadbf86)">
     <use style="fill:#98bf8a;stroke:#98bf8a;" x="85.976471" xlink:href="#ma3ffcdb062" y="188.960205"/>
    </g>
   </g>
   <g id="PathCollection_55">
    <g clip-path="url(#p78cbadbf86)">
     <use style="fill:#98bf8a;stroke:#98bf8a;" x="93.635294" xlink:href="#ma3ffcdb062" y="188.161364"/>
    </g>
   </g>
   <g id="PathCollection_56">
    <g clip-path="url(#p78cbadbf86)">
     <use style="fill:#98bf8a;stroke:#98bf8a;" x="101.294118" xlink:href="#ma3ffcdb062" y="187.010424"/>
    </g>
   </g>
   <g id="PathCollection_57">
    <g clip-path="url(#p78cbadbf86)">
     <use style="fill:#98bf8a;stroke:#98bf8a;" x="108.952941" xlink:href="#ma3ffcdb062" y="185.576669"/>
    </g>
   </g>
   <g id="PathCollection_58">
    <g clip-path="url(#p78cbadbf86)">
     <use style="fill:#98bf8a;stroke:#98bf8a;" x="116.611765" xlink:href="#ma3ffcdb062" y="183.902585"/>
    </g>
   </g>
   <g id="PathCollection_59">
    <g clip-path="url(#p78cbadbf86)">
     <use style="fill:#98bf8a;stroke:#98bf8a;" x="124.270588" xlink:href="#ma3ffcdb062" y="182.015083"/>
    </g>
   </g>
   <g id="PathCollection_60">
    <g clip-path="url(#p78cbadbf86)">
     <use style="fill:#98bf8a;stroke:#98bf8a;" x="131.929412" xlink:href="#ma3ffcdb062" y="179.926605"/>
    </g>
   </g>
   <g id="PathCollection_61">
    <g clip-path="url(#p78cbadbf86)">
     <use style="fill:#98bf8a;stroke:#98bf8a;" x="139.588235" xlink:href="#ma3ffcdb062" y="177.639521"/>
    </g>
   </g>
   <g id="PathCollection_62">
    <g clip-path="url(#p78cbadbf86)">
     <use style="fill:#98bf8a;stroke:#98bf8a;" x="147.247059" xlink:href="#ma3ffcdb062" y="175.149405"/>
    </g>
   </g>
   <g id="PathCollection_63">
    <g clip-path="url(#p78cbadbf86)">
     <use style="fill:#98bf8a;stroke:#98bf8a;" x="154.905882" xlink:href="#ma3ffcdb062" y="172.447843"/>
    </g>
   </g>
   <g id="PathCollection_64">
    <g clip-path="url(#p78cbadbf86)">
     <use style="fill:#98bf8a;stroke:#98bf8a;" x="162.564706" xlink:href="#ma3ffcdb062" y="169.524797"/>
    </g>
   </g>
   <g id="PathCollection_65">
    <g clip-path="url(#p78cbadbf86)">
     <use style="fill:#98bf8a;stroke:#98bf8a;" x="170.223529" xlink:href="#ma3ffcdb062" y="166.370569"/>
    </g>
   </g>
   <g id="PathCollection_66">
    <g clip-path="url(#p78cbadbf86)">
     <use style="fill:#98bf8a;stroke:#98bf8a;" x="177.882353" xlink:href="#ma3ffcdb062" y="162.97738"/>
    </g>
   </g>
   <g id="PathCollection_67">
    <g clip-path="url(#p78cbadbf86)">
     <use style="fill:#98bf8a;stroke:#98bf8a;" x="185.541176" xlink:href="#ma3ffcdb062" y="159.340599"/>
    </g>
   </g>
   <g id="PathCollection_68">
    <g clip-path="url(#p78cbadbf86)">
     <use style="fill:#98bf8a;stroke:#98bf8a;" x="193.2" xlink:href="#ma3ffcdb062" y="155.459655"/>
    </g>
   </g>
   <g id="PathCollection_69">
    <g clip-path="url(#p78cbadbf86)">
     <use style="fill:#98bf8a;stroke:#98bf8a;" x="200.858824" xlink:href="#ma3ffcdb062" y="151.338642"/>
    </g>
   </g>
   <g id="PathCollection_70">
    <g clip-path="url(#p78cbadbf86)">
     <use style="fill:#98bf8a;stroke:#98bf8a;" x="208.517647" xlink:href="#ma3ffcdb062" y="146.986674"/>
    </g>
   </g>
   <g id="PathCollection_71">
    <g clip-path="url(#p78cbadbf86)">
     <use style="fill:#98bf8a;stroke:#98bf8a;" x="216.176471" xlink:href="#ma3ffcdb062" y="142.417998"/>
    </g>
   </g>
   <g id="PathCollection_72">
    <g clip-path="url(#p78cbadbf86)">
     <use style="fill:#98bf8a;stroke:#98bf8a;" x="223.835294" xlink:href="#ma3ffcdb062" y="137.651893"/>
    </g>
   </g>
   <g id="PathCollection_73">
    <g clip-path="url(#p78cbadbf86)">
     <use style="fill:#98bf8a;stroke:#98bf8a;" x="231.494118" xlink:href="#ma3ffcdb062" y="132.712405"/>
    </g>
   </g>
   <g id="PathCollection_74">
    <g clip-path="url(#p78cbadbf86)">
     <use style="fill:#98bf8a;stroke:#98bf8a;" x="239.152941" xlink:href="#ma3ffcdb062" y="127.627915"/>
    </g>
   </g>
   <g id="PathCollection_75">
    <g clip-path="url(#p78cbadbf86)">
     <use style="fill:#98bf8a;stroke:#98bf8a;" x="246.811765" xlink:href="#ma3ffcdb062" y="122.4306"/>
    </g>
   </g>
   <g id="PathCollection_76">
    <g clip-path="url(#p78cbadbf86)">
     <use style="fill:#98bf8a;stroke:#98bf8a;" x="254.470588" xlink:href="#ma3ffcdb062" y="117.155794"/>
    </g>
   </g>
   <g id="PathCollection_77">
    <g clip-path="url(#p78cbadbf86)">
     <use style="fill:#98bf8a;stroke:#98bf8a;" x="262.129412" xlink:href="#ma3ffcdb062" y="111.841286"/>
    </g>
   </g>
   <g id="PathCollection_78">
    <g clip-path="url(#p78cbadbf86)">
     <use style="fill:#98bf8a;stroke:#98bf8a;" x="269.788235" xlink:href="#ma3ffcdb062" y="106.526586"/>
    </g>
   </g>
   <g id="PathCollection_79">
    <g clip-path="url(#p78cbadbf86)">
     <use style="fill:#98bf8a;stroke:#98bf8a;" x="277.447059" xlink:href="#ma3ffcdb062" y="101.25218"/>
    </g>
   </g>
   <g id="PathCollection_80">
    <g clip-path="url(#p78cbadbf86)">
     <use style="fill:#98bf8a;stroke:#98bf8a;" x="285.105882" xlink:href="#ma3ffcdb062" y="96.058812"/>
    </g>
   </g>
   <g id="PathCollection_81">
    <g clip-path="url(#p78cbadbf86)">
     <use style="fill:#98bf8a;stroke:#98bf8a;" x="292.764706" xlink:href="#ma3ffcdb062" y="90.986813"/>
    </g>
   </g>
   <g id="PathCollection_82">
    <g clip-path="url(#p78cbadbf86)">
     <use style="fill:#98bf8a;stroke:#98bf8a;" x="300.423529" xlink:href="#ma3ffcdb062" y="86.075515"/>
    </g>
   </g>
   <g id="PathCollection_83">
    <g clip-path="url(#p78cbadbf86)">
     <use style="fill:#98bf8a;stroke:#98bf8a;" x="308.082353" xlink:href="#ma3ffcdb062" y="81.362769"/>
    </g>
   </g>
   <g id="PathCollection_84">
    <g clip-path="url(#p78cbadbf86)">
     <use style="fill:#98bf8a;stroke:#98bf8a;" x="315.741176" xlink:href="#ma3ffcdb062" y="76.884599"/>
    </g>
   </g>
   <g id="PathCollection_85">
    <g clip-path="url(#p78cbadbf86)">
     <use style="fill:#98bf8a;stroke:#98bf8a;" x="323.4" xlink:href="#ma3ffcdb062" y="72.67503"/>
    </g>
   </g>
   <g id="PathCollection_86">
    <g clip-path="url(#p78cbadbf86)">
     <use style="fill:#98bf8a;stroke:#98bf8a;" x="331.058824" xlink:href="#ma3ffcdb062" y="68.766103"/>
    </g>
   </g>
   <g id="PathCollection_87">
    <g clip-path="url(#p78cbadbf86)">
     <use style="fill:#98bf8a;stroke:#98bf8a;" x="338.717647" xlink:href="#ma3ffcdb062" y="65.188115"/>
    </g>
   </g>
   <g id="PathCollection_88">
    <g clip-path="url(#p78cbadbf86)">
     <use style="fill:#98bf8a;stroke:#98bf8a;" x="346.376471" xlink:href="#ma3ffcdb062" y="61.970116"/>
    </g>
   </g>
   <g id="PathCollection_89">
    <g clip-path="url(#p78cbadbf86)">
     <use style="fill:#98bf8a;stroke:#98bf8a;" x="354.035294" xlink:href="#ma3ffcdb062" y="59.140678"/>
    </g>
   </g>
   <g id="PathCollection_90">
    <g clip-path="url(#p78cbadbf86)">
     <use style="fill:#98bf8a;stroke:#98bf8a;" x="361.694118" xlink:href="#ma3ffcdb062" y="56.728986"/>
    </g>
   </g>
   <g id="PathCollection_91">
    <g clip-path="url(#p78cbadbf86)">
     <use style="fill:#98bf8a;stroke:#98bf8a;" x="369.352941" xlink:href="#ma3ffcdb062" y="54.766252"/>
    </g>
   </g>
   <g id="PathCollection_92">
    <g clip-path="url(#p78cbadbf86)">
     <use style="fill:#98bf8a;stroke:#98bf8a;" x="377.011765" xlink:href="#ma3ffcdb062" y="53.287512"/>
    </g>
   </g>
   <g id="PathCollection_93">
    <g clip-path="url(#p78cbadbf86)">
     <use style="fill:#98bf8a;stroke:#98bf8a;" x="384.670588" xlink:href="#ma3ffcdb062" y="52.333809"/>
    </g>
   </g>
   <g id="PathCollection_94">
    <g clip-path="url(#p78cbadbf86)">
     <use style="fill:#98bf8a;stroke:#98bf8a;" x="392.329412" xlink:href="#ma3ffcdb062" y="51.9548"/>
    </g>
   </g>
   <g id="PathCollection_95">
    <g clip-path="url(#p78cbadbf86)">
     <use style="fill:#98bf8a;stroke:#98bf8a;" x="399.988235" xlink:href="#ma3ffcdb062" y="52.211824"/>
    </g>
   </g>
   <g id="PathCollection_96">
    <g clip-path="url(#p78cbadbf86)">
     <use style="fill:#98bf8a;stroke:#98bf8a;" x="407.647059" xlink:href="#ma3ffcdb062" y="53.181444"/>
    </g>
   </g>
   <g id="PathCollection_97">
    <g clip-path="url(#p78cbadbf86)">
     <use style="fill:#98bf8a;stroke:#98bf8a;" x="415.305882" xlink:href="#ma3ffcdb062" y="54.959505"/>
    </g>
   </g>
   <g id="PathCollection_98">
    <g clip-path="url(#p78cbadbf86)">
     <use style="fill:#98bf8a;stroke:#98bf8a;" x="422.964706" xlink:href="#ma3ffcdb062" y="57.665728"/>
    </g>
   </g>
   <g id="PathCollection_99">
    <g clip-path="url(#p78cbadbf86)">
     <use style="fill:#98bf8a;stroke:#98bf8a;" x="430.623529" xlink:href="#ma3ffcdb062" y="61.448876"/>
    </g>
   </g>
   <g id="PathCollection_100">
    <g clip-path="url(#p78cbadbf86)">
     <use style="fill:#98bf8a;stroke:#98bf8a;" x="438.282353" xlink:href="#ma3ffcdb062" y="66.492514"/>
    </g>
   </g>
   <g id="PathCollection_101">
    <g clip-path="url(#p78cbadbf86)">
     <use style="fill:#98bf8a;stroke:#98bf8a;" x="445.941176" xlink:href="#ma3ffcdb062" y="73.021393"/>
    </g>
   </g>
   <g id="PathCollection_102">
    <g clip-path="url(#p78cbadbf86)">
     <use style="fill:#98bf8a;stroke:#98bf8a;" x="453.6" xlink:href="#ma3ffcdb062" y="81.308496"/>
    </g>
   </g>
   <g id="matplotlib.axis_1"/>
   <g id="matplotlib.axis_2"/>
   <g id="line2d_1">
    <path clip-path="url(#p78cbadbf86)" d="M 63 189 
L 107.963676 188.890062 
L 112.239853 188.58208 
L 116.484118 188.052497 
L 120.887941 187.275454 
L 125.451324 186.242304 
L 130.238088 184.928605 
L 135.280147 183.312073 
L 140.609412 181.367445 
L 146.257794 179.067877 
L 152.289118 176.370803 
L 158.799118 173.213021 
L 165.883529 169.524795 
L 173.67 165.214311 
L 182.381912 160.129666 
L 192.274559 154.092593 
L 204.177647 146.559106 
L 220.325 136.054015 
L 266.724706 105.725756 
L 282.233824 95.94399 
L 292.445588 89.728927 
L 296.881324 87.305121 
L 301.125588 85.239509 
L 305.401765 83.40675 
L 309.741765 81.78835 
L 314.209412 80.36095 
L 318.772794 79.136461 
L 323.495735 78.100643 
L 328.378235 77.25972 
L 333.420294 76.61834 
L 338.653824 76.177565 
L 344.110735 75.942013 
L 349.822941 75.919233 
L 355.822353 76.119072 
L 362.172794 76.555747 
L 368.906176 77.244792 
L 376.086324 78.206293 
L 383.808971 79.468596 
L 392.169853 81.064367 
L 401.328529 83.042548 
L 411.540294 85.480176 
L 423.22 88.503058 
L 437.133529 92.342433 
L 453.6 97.100457 
L 453.6 97.100457 
" style="fill:none;stroke:#98bf8a;stroke-dasharray:11.1,4.8;stroke-dashoffset:0;stroke-width:3;"/>
   </g>
   <g id="line2d_2">
    <path clip-path="url(#p78cbadbf86)" d="M 63 189 
L 107.548824 188.889748 
L 111.473971 188.584307 
L 115.335294 188.060527 
L 119.292353 187.298316 
L 123.408971 186.276918 
L 127.717059 184.975713 
L 132.248529 183.370087 
L 137.003382 181.445509 
L 142.013529 179.17486 
L 147.310882 176.528857 
L 152.991176 173.44034 
L 159.118235 169.85045 
L 165.723971 165.717713 
L 172.967941 160.917431 
L 180.977794 155.337178 
L 190.072647 148.722537 
L 200.699265 140.711057 
L 214.325588 130.141894 
L 239.440147 110.311597 
L 261.044412 93.387153 
L 276.425882 81.621143 
L 289.605441 71.813039 
L 294.360294 68.504454 
L 298.381176 65.978113 
L 302.338235 63.754801 
L 306.327206 61.769709 
L 310.38 60.002515 
L 314.496618 58.450076 
L 318.708971 57.099159 
L 323.017059 55.950464 
L 327.452794 54.997771 
L 332.016176 54.244721 
L 336.739118 53.690714 
L 341.653529 53.339631 
L 346.759412 53.19942 
L 352.088676 53.277132 
L 357.673235 53.582785 
L 363.545 54.128701 
L 369.767794 54.933493 
L 376.373529 56.01516 
L 383.426029 57.39811 
L 391.021029 59.116901 
L 399.286176 61.218754 
L 408.412941 63.773954 
L 418.656618 66.878597 
L 430.495882 70.706431 
L 444.951912 75.624545 
L 453.6 78.650973 
L 453.6 78.650973 
" style="fill:none;stroke:#98bf8a;stroke-linecap:square;stroke-width:3;"/>
   </g>
   <g id="patch_3">
    <path d="M 63 189 
L 63 25.92 
" style="fill:none;stroke:#000000;stroke-linecap:square;stroke-linejoin:miter;stroke-width:0.8;"/>
   </g>
   <g id="patch_4">
    <path d="M 453.6 189 
L 453.6 25.92 
" style="fill:none;stroke:#000000;stroke-linecap:square;stroke-linejoin:miter;stroke-width:0.8;"/>
   </g>
   <g id="patch_5">
    <path d="M 63 189 
L 453.6 189 
" style="fill:none;stroke:#000000;stroke-linecap:square;stroke-linejoin:miter;stroke-width:0.8;"/>
   </g>
   <g id="patch_6">
    <path d="M 63 25.92 
L 453.6 25.92 
" style="fill:none;stroke:#000000;stroke-linecap:square;stroke-linejoin:miter;stroke-width:0.8;"/>
   </g>
  </g>
 </g>
 <defs>
  <clipPath id="p78cbadbf86">
   <rect height="163.08" width="390.6" x="63" y="25.92"/>
  </clipPath>
 </defs>
</svg>
