<?xml version="1.0" encoding="utf-8" standalone="no"?>
<!DOCTYPE svg PUBLIC "-//W3C//DTD SVG 1.1//EN"
  "http://www.w3.org/Graphics/SVG/1.1/DTD/svg11.dtd">
<!-- Created with matplotlib (https://matplotlib.org/) -->
<svg height="216pt" version="1.1" viewBox="0 0 504 216" width="504pt" xmlns="http://www.w3.org/2000/svg" xmlns:xlink="http://www.w3.org/1999/xlink">
 <metadata>
  <rdf:RDF xmlns:cc="http://creativecommons.org/ns#" xmlns:dc="http://purl.org/dc/elements/1.1/" xmlns:rdf="http://www.w3.org/1999/02/22-rdf-syntax-ns#">
   <cc:Work>
    <dc:type rdf:resource="http://purl.org/dc/dcmitype/StillImage"/>
    <dc:date>2024-11-24T08:54:58.973592</dc:date>
    <dc:format>image/svg+xml</dc:format>
    <dc:creator>
     <cc:Agent>
      <dc:title>Matplotlib v3.3.2, https://matplotlib.org/</dc:title>
     </cc:Agent>
    </dc:creator>
   </cc:Work>
  </rdf:RDF>
 </metadata>
 <defs>
  <style type="text/css">*{stroke-linecap:butt;stroke-linejoin:round;}</style>
 </defs>
 <g id="figure_1">
  <g id="patch_1">
   <path d="M 0 216 
L 504 216 
L 504 0 
L 0 0 
z
" style="fill:none;"/>
  </g>
  <g id="axes_1">
   <g id="patch_2">
    <path d="M 63 189 
L 453.6 189 
L 453.6 25.92 
L 63 25.92 
z
" style="fill:#ffffff;"/>
   </g>
   <g id="PathCollection_1">
    <path clip-path="url(#p30f824ce40)" d="M 70.658824 194.617069 
C 71.984839 194.617069 73.256723 194.090238 74.194357 193.152603 
C 75.131992 192.214969 75.658824 190.943085 75.658824 189.617069 
C 75.658824 188.291054 75.131992 187.01917 74.194357 186.081535 
C 73.256723 185.143901 71.984839 184.617069 70.658824 184.617069 
C 69.332808 184.617069 68.060924 185.143901 67.12329 186.081535 
C 66.185655 187.01917 65.658824 188.291054 65.658824 189.617069 
C 65.658824 190.943085 66.185655 192.214969 67.12329 193.152603 
C 68.060924 194.090238 69.332808 194.617069 70.658824 194.617069 
z
" style="fill:none;stroke:#c49c94;"/>
   </g>
   <g id="PathCollection_2">
    <path clip-path="url(#p30f824ce40)" d="M 78.317647 194.894356 
C 79.643663 194.894356 80.915546 194.367525 81.853181 193.42989 
C 82.790816 192.492256 83.317647 191.220372 83.317647 189.894356 
C 83.317647 188.568341 82.790816 187.296457 81.853181 186.358823 
C 80.915546 185.421188 79.643663 184.894356 78.317647 184.894356 
C 76.991632 184.894356 75.719748 185.421188 74.782113 186.358823 
C 73.844479 187.296457 73.317647 188.568341 73.317647 189.894356 
C 73.317647 191.220372 73.844479 192.492256 74.782113 193.42989 
C 75.719748 194.367525 76.991632 194.894356 78.317647 194.894356 
z
" style="fill:none;stroke:#c49c94;"/>
   </g>
   <g id="PathCollection_3">
    <path clip-path="url(#p30f824ce40)" d="M 85.976471 194.658293 
C 87.302486 194.658293 88.57437 194.131461 89.512004 193.193827 
C 90.449639 192.256192 90.976471 190.984308 90.976471 189.658293 
C 90.976471 188.332277 90.449639 187.060393 89.512004 186.122759 
C 88.57437 185.185124 87.302486 184.658293 85.976471 184.658293 
C 84.650455 184.658293 83.378571 185.185124 82.440937 186.122759 
C 81.503302 187.060393 80.976471 188.332277 80.976471 189.658293 
C 80.976471 190.984308 81.503302 192.256192 82.440937 193.193827 
C 83.378571 194.131461 84.650455 194.658293 85.976471 194.658293 
z
" style="fill:none;stroke:#c49c94;"/>
   </g>
   <g id="PathCollection_4">
    <path clip-path="url(#p30f824ce40)" d="M 93.635294 194.034599 
C 94.96131 194.034599 96.233193 193.507768 97.170828 192.570133 
C 98.108463 191.632499 98.635294 190.360615 98.635294 189.034599 
C 98.635294 187.708584 98.108463 186.4367 97.170828 185.499065 
C 96.233193 184.561431 94.96131 184.034599 93.635294 184.034599 
C 92.309279 184.034599 91.037395 184.561431 90.09976 185.499065 
C 89.162126 186.4367 88.635294 187.708584 88.635294 189.034599 
C 88.635294 190.360615 89.162126 191.632499 90.09976 192.570133 
C 91.037395 193.507768 92.309279 194.034599 93.635294 194.034599 
z
" style="fill:none;stroke:#c49c94;"/>
   </g>
   <g id="PathCollection_5">
    <path clip-path="url(#p30f824ce40)" d="M 101.294118 193.132936 
C 102.620133 193.132936 103.892017 192.606105 104.829652 191.66847 
C 105.767286 190.730836 106.294118 189.458952 106.294118 188.132936 
C 106.294118 186.806921 105.767286 185.535037 104.829652 184.597402 
C 103.892017 183.659768 102.620133 183.132936 101.294118 183.132936 
C 99.968102 183.132936 98.696218 183.659768 97.758584 184.597402 
C 96.820949 185.535037 96.294118 186.806921 96.294118 188.132936 
C 96.294118 189.458952 96.820949 190.730836 97.758584 191.66847 
C 98.696218 192.606105 99.968102 193.132936 101.294118 193.132936 
z
" style="fill:none;stroke:#c49c94;"/>
   </g>
   <g id="PathCollection_6">
    <path clip-path="url(#p30f824ce40)" d="M 108.952941 192.04703 
C 110.278957 192.04703 111.550841 191.520198 112.488475 190.582563 
C 113.42611 189.644929 113.952941 188.373045 113.952941 187.04703 
C 113.952941 185.721014 113.42611 184.44913 112.488475 183.511496 
C 111.550841 182.573861 110.278957 182.04703 108.952941 182.04703 
C 107.626926 182.04703 106.355042 182.573861 105.417407 183.511496 
C 104.479773 184.44913 103.952941 185.721014 103.952941 187.04703 
C 103.952941 188.373045 104.479773 189.644929 105.417407 190.582563 
C 106.355042 191.520198 107.626926 192.04703 108.952941 192.04703 
z
" style="fill:none;stroke:#c49c94;"/>
   </g>
   <g id="PathCollection_7">
    <path clip-path="url(#p30f824ce40)" d="M 116.611765 190.855008 
C 117.93778 190.855008 119.209664 190.328177 120.147299 189.390542 
C 121.084933 188.452907 121.611765 187.181024 121.611765 185.855008 
C 121.611765 184.528993 121.084933 183.257109 120.147299 182.319474 
C 119.209664 181.38184 117.93778 180.855008 116.611765 180.855008 
C 115.285749 180.855008 114.013865 181.38184 113.076231 182.319474 
C 112.138596 183.257109 111.611765 184.528993 111.611765 185.855008 
C 111.611765 187.181024 112.138596 188.452907 113.076231 189.390542 
C 114.013865 190.328177 115.285749 190.855008 116.611765 190.855008 
z
" style="fill:none;stroke:#c49c94;"/>
   </g>
   <g id="PathCollection_8">
    <path clip-path="url(#p30f824ce40)" d="M 124.270588 189.619928 
C 125.596604 189.619928 126.868488 189.093096 127.806122 188.155462 
C 128.743757 187.217827 129.270588 185.945943 129.270588 184.619928 
C 129.270588 183.293912 128.743757 182.022029 127.806122 181.084394 
C 126.868488 180.146759 125.596604 179.619928 124.270588 179.619928 
C 122.944573 179.619928 121.672689 180.146759 120.735054 181.084394 
C 119.79742 182.022029 119.270588 183.293912 119.270588 184.619928 
C 119.270588 185.945943 119.79742 187.217827 120.735054 188.155462 
C 121.672689 189.093096 122.944573 189.619928 124.270588 189.619928 
z
" style="fill:none;stroke:#c49c94;"/>
   </g>
   <g id="PathCollection_9">
    <path clip-path="url(#p30f824ce40)" d="M 131.929412 188.39047 
C 133.255427 188.39047 134.527311 187.863639 135.464946 186.926004 
C 136.40258 185.988369 136.929412 184.716486 136.929412 183.39047 
C 136.929412 182.064455 136.40258 180.792571 135.464946 179.854936 
C 134.527311 178.917302 133.255427 178.39047 131.929412 178.39047 
C 130.603396 178.39047 129.331512 178.917302 128.393878 179.854936 
C 127.456243 180.792571 126.929412 182.064455 126.929412 183.39047 
C 126.929412 184.716486 127.456243 185.988369 128.393878 186.926004 
C 129.331512 187.863639 130.603396 188.39047 131.929412 188.39047 
z
" style="fill:none;stroke:#c49c94;"/>
   </g>
   <g id="PathCollection_10">
    <path clip-path="url(#p30f824ce40)" d="M 139.588235 187.201788 
C 140.914251 187.201788 142.186135 186.674956 143.123769 185.737322 
C 144.061404 184.799687 144.588235 183.527803 144.588235 182.201788 
C 144.588235 180.875772 144.061404 179.603888 143.123769 178.666254 
C 142.186135 177.728619 140.914251 177.201788 139.588235 177.201788 
C 138.26222 177.201788 136.990336 177.728619 136.052701 178.666254 
C 135.115067 179.603888 134.588235 180.875772 134.588235 182.201788 
C 134.588235 183.527803 135.115067 184.799687 136.052701 185.737322 
C 136.990336 186.674956 138.26222 187.201788 139.588235 187.201788 
z
" style="fill:none;stroke:#c49c94;"/>
   </g>
   <g id="PathCollection_11">
    <path clip-path="url(#p30f824ce40)" d="M 147.247059 186.076495 
C 148.573074 186.076495 149.844958 185.549663 150.782593 184.612029 
C 151.720227 183.674394 152.247059 182.40251 152.247059 181.076495 
C 152.247059 179.750479 151.720227 178.478595 150.782593 177.540961 
C 149.844958 176.603326 148.573074 176.076495 147.247059 176.076495 
C 145.921043 176.076495 144.649159 176.603326 143.711525 177.540961 
C 142.77389 178.478595 142.247059 179.750479 142.247059 181.076495 
C 142.247059 182.40251 142.77389 183.674394 143.711525 184.612029 
C 144.649159 185.549663 145.921043 186.076495 147.247059 186.076495 
z
" style="fill:none;stroke:#c49c94;"/>
   </g>
   <g id="PathCollection_12">
    <path clip-path="url(#p30f824ce40)" d="M 154.905882 185.025766 
C 156.231898 185.025766 157.503782 184.498934 158.441416 183.5613 
C 159.379051 182.623665 159.905882 181.351781 159.905882 180.025766 
C 159.905882 178.69975 159.379051 177.427867 158.441416 176.490232 
C 157.503782 175.552598 156.231898 175.025766 154.905882 175.025766 
C 153.579867 175.025766 152.307983 175.552598 151.370348 176.490232 
C 150.432714 177.427867 149.905882 178.69975 149.905882 180.025766 
C 149.905882 181.351781 150.432714 182.623665 151.370348 183.5613 
C 152.307983 184.498934 153.579867 185.025766 154.905882 185.025766 
z
" style="fill:none;stroke:#c49c94;"/>
   </g>
   <g id="PathCollection_13">
    <path clip-path="url(#p30f824ce40)" d="M 162.564706 184.050542 
C 163.890721 184.050542 165.162605 183.523711 166.10024 182.586076 
C 167.037874 181.648442 167.564706 180.376558 167.564706 179.050542 
C 167.564706 177.724527 167.037874 176.452643 166.10024 175.515008 
C 165.162605 174.577374 163.890721 174.050542 162.564706 174.050542 
C 161.23869 174.050542 159.966807 174.577374 159.029172 175.515008 
C 158.091537 176.452643 157.564706 177.724527 157.564706 179.050542 
C 157.564706 180.376558 158.091537 181.648442 159.029172 182.586076 
C 159.966807 183.523711 161.23869 184.050542 162.564706 184.050542 
z
" style="fill:none;stroke:#c49c94;"/>
   </g>
   <g id="PathCollection_14">
    <path clip-path="url(#p30f824ce40)" d="M 170.223529 183.142815 
C 171.549545 183.142815 172.821429 182.615983 173.759063 181.678349 
C 174.696698 180.740714 175.223529 179.46883 175.223529 178.142815 
C 175.223529 176.816799 174.696698 175.544916 173.759063 174.607281 
C 172.821429 173.669646 171.549545 173.142815 170.223529 173.142815 
C 168.897514 173.142815 167.62563 173.669646 166.687996 174.607281 
C 165.750361 175.544916 165.223529 176.816799 165.223529 178.142815 
C 165.223529 179.46883 165.750361 180.740714 166.687996 181.678349 
C 167.62563 182.615983 168.897514 183.142815 170.223529 183.142815 
z
" style="fill:none;stroke:#c49c94;"/>
   </g>
   <g id="PathCollection_15">
    <path clip-path="url(#p30f824ce40)" d="M 177.882353 182.286975 
C 179.208368 182.286975 180.480252 181.760143 181.417887 180.822509 
C 182.355521 179.884874 182.882353 178.61299 182.882353 177.286975 
C 182.882353 175.960959 182.355521 174.689075 181.417887 173.751441 
C 180.480252 172.813806 179.208368 172.286975 177.882353 172.286975 
C 176.556337 172.286975 175.284454 172.813806 174.346819 173.751441 
C 173.409184 174.689075 172.882353 175.960959 172.882353 177.286975 
C 172.882353 178.61299 173.409184 179.884874 174.346819 180.822509 
C 175.284454 181.760143 176.556337 182.286975 177.882353 182.286975 
z
" style="fill:none;stroke:#c49c94;"/>
   </g>
   <g id="PathCollection_16">
    <path clip-path="url(#p30f824ce40)" d="M 185.541176 181.461207 
C 186.867192 181.461207 188.139076 180.934376 189.07671 179.996741 
C 190.014345 179.059107 190.541176 177.787223 190.541176 176.461207 
C 190.541176 175.135192 190.014345 173.863308 189.07671 172.925673 
C 188.139076 171.988039 186.867192 171.461207 185.541176 171.461207 
C 184.215161 171.461207 182.943277 171.988039 182.005643 172.925673 
C 181.068008 173.863308 180.541176 175.135192 180.541176 176.461207 
C 180.541176 177.787223 181.068008 179.059107 182.005643 179.996741 
C 182.943277 180.934376 184.215161 181.461207 185.541176 181.461207 
z
" style="fill:none;stroke:#c49c94;"/>
   </g>
   <g id="PathCollection_17">
    <path clip-path="url(#p30f824ce40)" d="M 193.2 180.638919 
C 194.526016 180.638919 195.797899 180.112087 196.735534 179.174452 
C 197.673168 178.236818 198.2 176.964934 198.2 175.638919 
C 198.2 174.312903 197.673168 173.041019 196.735534 172.103385 
C 195.797899 171.16575 194.526016 170.638919 193.2 170.638919 
C 191.873985 170.638919 190.602101 171.16575 189.664466 172.103385 
C 188.726832 173.041019 188.2 174.312903 188.2 175.638919 
C 188.2 176.964934 188.726832 178.236818 189.664466 179.174452 
C 190.602101 180.112087 191.873985 180.638919 193.2 180.638919 
z
" style="fill:none;stroke:#c49c94;"/>
   </g>
   <g id="PathCollection_18">
    <path clip-path="url(#p30f824ce40)" d="M 200.858824 179.790166 
C 202.184839 179.790166 203.456723 179.263334 204.394357 178.3257 
C 205.331992 177.388065 205.858824 176.116181 205.858824 174.790166 
C 205.858824 173.46415 205.331992 172.192266 204.394357 171.254632 
C 203.456723 170.316997 202.184839 169.790166 200.858824 169.790166 
C 199.532808 169.790166 198.260924 170.316997 197.32329 171.254632 
C 196.385655 172.192266 195.858824 173.46415 195.858824 174.790166 
C 195.858824 176.116181 196.385655 177.388065 197.32329 178.3257 
C 198.260924 179.263334 199.532808 179.790166 200.858824 179.790166 
z
" style="fill:none;stroke:#c49c94;"/>
   </g>
   <g id="PathCollection_19">
    <path clip-path="url(#p30f824ce40)" d="M 208.517647 178.883089 
C 209.843663 178.883089 211.115546 178.356257 212.053181 177.418623 
C 212.990816 176.480988 213.517647 175.209105 213.517647 173.883089 
C 213.517647 172.557074 212.990816 171.28519 212.053181 170.347555 
C 211.115546 169.409921 209.843663 168.883089 208.517647 168.883089 
C 207.191632 168.883089 205.919748 169.409921 204.982113 170.347555 
C 204.044479 171.28519 203.517647 172.557074 203.517647 173.883089 
C 203.517647 175.209105 204.044479 176.480988 204.982113 177.418623 
C 205.919748 178.356257 207.191632 178.883089 208.517647 178.883089 
z
" style="fill:none;stroke:#c49c94;"/>
   </g>
   <g id="PathCollection_20">
    <path clip-path="url(#p30f824ce40)" d="M 216.176471 177.885309 
C 217.502486 177.885309 218.77437 177.358478 219.712004 176.420843 
C 220.649639 175.483209 221.176471 174.211325 221.176471 172.885309 
C 221.176471 171.559294 220.649639 170.28741 219.712004 169.349775 
C 218.77437 168.412141 217.502486 167.885309 216.176471 167.885309 
C 214.850455 167.885309 213.578571 168.412141 212.640937 169.349775 
C 211.703302 170.28741 211.176471 171.559294 211.176471 172.885309 
C 211.176471 174.211325 211.703302 175.483209 212.640937 176.420843 
C 213.578571 177.358478 214.850455 177.885309 216.176471 177.885309 
z
" style="fill:none;stroke:#c49c94;"/>
   </g>
   <g id="PathCollection_21">
    <path clip-path="url(#p30f824ce40)" d="M 223.835294 176.765289 
C 225.16131 176.765289 226.433193 176.238457 227.370828 175.300823 
C 228.308463 174.363188 228.835294 173.091304 228.835294 171.765289 
C 228.835294 170.439273 228.308463 169.167389 227.370828 168.229755 
C 226.433193 167.29212 225.16131 166.765289 223.835294 166.765289 
C 222.509279 166.765289 221.237395 167.29212 220.29976 168.229755 
C 219.362126 169.167389 218.835294 170.439273 218.835294 171.765289 
C 218.835294 173.091304 219.362126 174.363188 220.29976 175.300823 
C 221.237395 176.238457 222.509279 176.765289 223.835294 176.765289 
z
" style="fill:none;stroke:#c49c94;"/>
   </g>
   <g id="PathCollection_22">
    <path clip-path="url(#p30f824ce40)" d="M 231.494118 175.493629 
C 232.820133 175.493629 234.092017 174.966798 235.029652 174.029163 
C 235.967286 173.091529 236.494118 171.819645 236.494118 170.493629 
C 236.494118 169.167614 235.967286 167.89573 235.029652 166.958096 
C 234.092017 166.020461 232.820133 165.493629 231.494118 165.493629 
C 230.168102 165.493629 228.896218 166.020461 227.958584 166.958096 
C 227.020949 167.89573 226.494118 169.167614 226.494118 170.493629 
C 226.494118 171.819645 227.020949 173.091529 227.958584 174.029163 
C 228.896218 174.966798 230.168102 175.493629 231.494118 175.493629 
z
" style="fill:none;stroke:#c49c94;"/>
   </g>
   <g id="PathCollection_23">
    <path clip-path="url(#p30f824ce40)" d="M 239.152941 174.04429 
C 240.478957 174.04429 241.750841 173.517459 242.688475 172.579824 
C 243.62611 171.64219 244.152941 170.370306 244.152941 169.04429 
C 244.152941 167.718275 243.62611 166.446391 242.688475 165.508756 
C 241.750841 164.571122 240.478957 164.04429 239.152941 164.04429 
C 237.826926 164.04429 236.555042 164.571122 235.617407 165.508756 
C 234.679773 166.446391 234.152941 167.718275 234.152941 169.04429 
C 234.152941 170.370306 234.679773 171.64219 235.617407 172.579824 
C 236.555042 173.517459 237.826926 174.04429 239.152941 174.04429 
z
" style="fill:none;stroke:#c49c94;"/>
   </g>
   <g id="PathCollection_24">
    <path clip-path="url(#p30f824ce40)" d="M 246.811765 172.395711 
C 248.13778 172.395711 249.409664 171.86888 250.347299 170.931245 
C 251.284933 169.993611 251.811765 168.721727 251.811765 167.395711 
C 251.811765 166.069696 251.284933 164.797812 250.347299 163.860177 
C 249.409664 162.922543 248.13778 162.395711 246.811765 162.395711 
C 245.485749 162.395711 244.213865 162.922543 243.276231 163.860177 
C 242.338596 164.797812 241.811765 166.069696 241.811765 167.395711 
C 241.811765 168.721727 242.338596 169.993611 243.276231 170.931245 
C 244.213865 171.86888 245.485749 172.395711 246.811765 172.395711 
z
" style="fill:none;stroke:#c49c94;"/>
   </g>
   <g id="PathCollection_25">
    <path clip-path="url(#p30f824ce40)" d="M 254.470588 170.531819 
C 255.796604 170.531819 257.068488 170.004988 258.006122 169.067353 
C 258.943757 168.129719 259.470588 166.857835 259.470588 165.531819 
C 259.470588 164.205804 258.943757 162.93392 258.006122 161.996285 
C 257.068488 161.058651 255.796604 160.531819 254.470588 160.531819 
C 253.144573 160.531819 251.872689 161.058651 250.935054 161.996285 
C 249.99742 162.93392 249.470588 164.205804 249.470588 165.531819 
C 249.470588 166.857835 249.99742 168.129719 250.935054 169.067353 
C 251.872689 170.004988 253.144573 170.531819 254.470588 170.531819 
z
" style="fill:none;stroke:#c49c94;"/>
   </g>
   <g id="PathCollection_26">
    <path clip-path="url(#p30f824ce40)" d="M 262.129412 168.442906 
C 263.455427 168.442906 264.727311 167.916074 265.664946 166.97844 
C 266.60258 166.040805 267.129412 164.768921 267.129412 163.442906 
C 267.129412 162.11689 266.60258 160.845006 265.664946 159.907372 
C 264.727311 158.969737 263.455427 158.442906 262.129412 158.442906 
C 260.803396 158.442906 259.531512 158.969737 258.593878 159.907372 
C 257.656243 160.845006 257.129412 162.11689 257.129412 163.442906 
C 257.129412 164.768921 257.656243 166.040805 258.593878 166.97844 
C 259.531512 167.916074 260.803396 168.442906 262.129412 168.442906 
z
" style="fill:none;stroke:#c49c94;"/>
   </g>
   <g id="PathCollection_27">
    <path clip-path="url(#p30f824ce40)" d="M 269.788235 166.126349 
C 271.114251 166.126349 272.386135 165.599518 273.323769 164.661883 
C 274.261404 163.724248 274.788235 162.452365 274.788235 161.126349 
C 274.788235 159.800334 274.261404 158.52845 273.323769 157.590815 
C 272.386135 156.653181 271.114251 156.126349 269.788235 156.126349 
C 268.46222 156.126349 267.190336 156.653181 266.252701 157.590815 
C 265.315067 158.52845 264.788235 159.800334 264.788235 161.126349 
C 264.788235 162.452365 265.315067 163.724248 266.252701 164.661883 
C 267.190336 165.599518 268.46222 166.126349 269.788235 166.126349 
z
" style="fill:none;stroke:#c49c94;"/>
   </g>
   <g id="PathCollection_28">
    <path clip-path="url(#p30f824ce40)" d="M 277.447059 163.587173 
C 278.773074 163.587173 280.044958 163.060341 280.982593 162.122707 
C 281.920227 161.185072 282.447059 159.913188 282.447059 158.587173 
C 282.447059 157.261157 281.920227 155.989273 280.982593 155.051639 
C 280.044958 154.114004 278.773074 153.587173 277.447059 153.587173 
C 276.121043 153.587173 274.849159 154.114004 273.911525 155.051639 
C 272.97389 155.989273 272.447059 157.261157 272.447059 158.587173 
C 272.447059 159.913188 272.97389 161.185072 273.911525 162.122707 
C 274.849159 163.060341 276.121043 163.587173 277.447059 163.587173 
z
" style="fill:none;stroke:#c49c94;"/>
   </g>
   <g id="PathCollection_29">
    <path clip-path="url(#p30f824ce40)" d="M 285.105882 160.838416 
C 286.431898 160.838416 287.703782 160.311585 288.641416 159.37395 
C 289.579051 158.436316 290.105882 157.164432 290.105882 155.838416 
C 290.105882 154.512401 289.579051 153.240517 288.641416 152.302882 
C 287.703782 151.365248 286.431898 150.838416 285.105882 150.838416 
C 283.779867 150.838416 282.507983 151.365248 281.570348 152.302882 
C 280.632714 153.240517 280.105882 154.512401 280.105882 155.838416 
C 280.105882 157.164432 280.632714 158.436316 281.570348 159.37395 
C 282.507983 160.311585 283.779867 160.838416 285.105882 160.838416 
z
" style="fill:none;stroke:#c49c94;"/>
   </g>
   <g id="PathCollection_30">
    <path clip-path="url(#p30f824ce40)" d="M 292.764706 157.901301 
C 294.090721 157.901301 295.362605 157.374469 296.30024 156.436835 
C 297.237874 155.4992 297.764706 154.227316 297.764706 152.901301 
C 297.764706 151.575285 297.237874 150.303401 296.30024 149.365767 
C 295.362605 148.428132 294.090721 147.901301 292.764706 147.901301 
C 291.43869 147.901301 290.166807 148.428132 289.229172 149.365767 
C 288.291537 150.303401 287.764706 151.575285 287.764706 152.901301 
C 287.764706 154.227316 288.291537 155.4992 289.229172 156.436835 
C 290.166807 157.374469 291.43869 157.901301 292.764706 157.901301 
z
" style="fill:none;stroke:#c49c94;"/>
   </g>
   <g id="PathCollection_31">
    <path clip-path="url(#p30f824ce40)" d="M 300.423529 154.805176 
C 301.749545 154.805176 303.021429 154.278344 303.959063 153.34071 
C 304.896698 152.403075 305.423529 151.131192 305.423529 149.805176 
C 305.423529 148.479161 304.896698 147.207277 303.959063 146.269642 
C 303.021429 145.332008 301.749545 144.805176 300.423529 144.805176 
C 299.097514 144.805176 297.82563 145.332008 296.887996 146.269642 
C 295.950361 147.207277 295.423529 148.479161 295.423529 149.805176 
C 295.423529 151.131192 295.950361 152.403075 296.887996 153.34071 
C 297.82563 154.278344 299.097514 154.805176 300.423529 154.805176 
z
" style="fill:none;stroke:#c49c94;"/>
   </g>
   <g id="PathCollection_32">
    <path clip-path="url(#p30f824ce40)" d="M 308.082353 151.587223 
C 309.408368 151.587223 310.680252 151.060391 311.617887 150.122757 
C 312.555521 149.185122 313.082353 147.913238 313.082353 146.587223 
C 313.082353 145.261207 312.555521 143.989323 311.617887 143.051689 
C 310.680252 142.114054 309.408368 141.587223 308.082353 141.587223 
C 306.756337 141.587223 305.484454 142.114054 304.546819 143.051689 
C 303.609184 143.989323 303.082353 145.261207 303.082353 146.587223 
C 303.082353 147.913238 303.609184 149.185122 304.546819 150.122757 
C 305.484454 151.060391 306.756337 151.587223 308.082353 151.587223 
z
" style="fill:none;stroke:#c49c94;"/>
   </g>
   <g id="PathCollection_33">
    <path clip-path="url(#p30f824ce40)" d="M 315.741176 148.291904 
C 317.067192 148.291904 318.339076 147.765072 319.27671 146.827438 
C 320.214345 145.889803 320.741176 144.61792 320.741176 143.291904 
C 320.741176 141.965889 320.214345 140.694005 319.27671 139.75637 
C 318.339076 138.818736 317.067192 138.291904 315.741176 138.291904 
C 314.415161 138.291904 313.143277 138.818736 312.205643 139.75637 
C 311.268008 140.694005 310.741176 141.965889 310.741176 143.291904 
C 310.741176 144.61792 311.268008 145.889803 312.205643 146.827438 
C 313.143277 147.765072 314.415161 148.291904 315.741176 148.291904 
z
" style="fill:none;stroke:#c49c94;"/>
   </g>
   <g id="PathCollection_34">
    <path clip-path="url(#p30f824ce40)" d="M 323.4 144.970134 
C 324.726016 144.970134 325.997899 144.443302 326.935534 143.505668 
C 327.873168 142.568033 328.4 141.29615 328.4 139.970134 
C 328.4 138.644119 327.873168 137.372235 326.935534 136.4346 
C 325.997899 135.496966 324.726016 134.970134 323.4 134.970134 
C 322.073985 134.970134 320.802101 135.496966 319.864466 136.4346 
C 318.926832 137.372235 318.4 138.644119 318.4 139.970134 
C 318.4 141.29615 318.926832 142.568033 319.864466 143.505668 
C 320.802101 144.443302 322.073985 144.970134 323.4 144.970134 
z
" style="fill:none;stroke:#c49c94;"/>
   </g>
   <g id="PathCollection_35">
    <path clip-path="url(#p30f824ce40)" d="M 331.058824 141.67816 
C 332.384839 141.67816 333.656723 141.151328 334.594357 140.213694 
C 335.531992 139.276059 336.058824 138.004175 336.058824 136.67816 
C 336.058824 135.352144 335.531992 134.08026 334.594357 133.142626 
C 333.656723 132.204991 332.384839 131.67816 331.058824 131.67816 
C 329.732808 131.67816 328.460924 132.204991 327.52329 133.142626 
C 326.585655 134.08026 326.058824 135.352144 326.058824 136.67816 
C 326.058824 138.004175 326.585655 139.276059 327.52329 140.213694 
C 328.460924 141.151328 329.732808 141.67816 331.058824 141.67816 
z
" style="fill:none;stroke:#c49c94;"/>
   </g>
   <g id="PathCollection_36">
    <path clip-path="url(#p30f824ce40)" d="M 338.717647 138.476128 
C 340.043663 138.476128 341.315546 137.949296 342.253181 137.011662 
C 343.190816 136.074027 343.717647 134.802143 343.717647 133.476128 
C 343.717647 132.150112 343.190816 130.878229 342.253181 129.940594 
C 341.315546 129.002959 340.043663 128.476128 338.717647 128.476128 
C 337.391632 128.476128 336.119748 129.002959 335.182113 129.940594 
C 334.244479 130.878229 333.717647 132.150112 333.717647 133.476128 
C 333.717647 134.802143 334.244479 136.074027 335.182113 137.011662 
C 336.119748 137.949296 337.391632 138.476128 338.717647 138.476128 
z
" style="fill:none;stroke:#c49c94;"/>
   </g>
   <g id="PathCollection_37">
    <path clip-path="url(#p30f824ce40)" d="M 346.376471 135.426324 
C 347.702486 135.426324 348.97437 134.899492 349.912004 133.961857 
C 350.849639 133.024223 351.376471 131.752339 351.376471 130.426324 
C 351.376471 129.100308 350.849639 127.828424 349.912004 126.89079 
C 348.97437 125.953155 347.702486 125.426324 346.376471 125.426324 
C 345.050455 125.426324 343.778571 125.953155 342.840937 126.89079 
C 341.903302 127.828424 341.376471 129.100308 341.376471 130.426324 
C 341.376471 131.752339 341.903302 133.024223 342.840937 133.961857 
C 343.778571 134.899492 345.050455 135.426324 346.376471 135.426324 
z
" style="fill:none;stroke:#c49c94;"/>
   </g>
   <g id="PathCollection_38">
    <path clip-path="url(#p30f824ce40)" d="M 354.035294 132.591063 
C 355.36131 132.591063 356.633193 132.064232 357.570828 131.126597 
C 358.508463 130.188963 359.035294 128.917079 359.035294 127.591063 
C 359.035294 126.265048 358.508463 124.993164 357.570828 124.055529 
C 356.633193 123.117895 355.36131 122.591063 354.035294 122.591063 
C 352.709279 122.591063 351.437395 123.117895 350.49976 124.055529 
C 349.562126 124.993164 349.035294 126.265048 349.035294 127.591063 
C 349.035294 128.917079 349.562126 130.188963 350.49976 131.126597 
C 351.437395 132.064232 352.709279 132.591063 354.035294 132.591063 
z
" style="fill:none;stroke:#c49c94;"/>
   </g>
   <g id="PathCollection_39">
    <path clip-path="url(#p30f824ce40)" d="M 361.694118 130.03022 
C 363.020133 130.03022 364.292017 129.503389 365.229652 128.565754 
C 366.167286 127.62812 366.694118 126.356236 366.694118 125.03022 
C 366.694118 123.704205 366.167286 122.432321 365.229652 121.494686 
C 364.292017 120.557052 363.020133 120.03022 361.694118 120.03022 
C 360.368102 120.03022 359.096218 120.557052 358.158584 121.494686 
C 357.220949 122.432321 356.694118 123.704205 356.694118 125.03022 
C 356.694118 126.356236 357.220949 127.62812 358.158584 128.565754 
C 359.096218 129.503389 360.368102 130.03022 361.694118 130.03022 
z
" style="fill:none;stroke:#c49c94;"/>
   </g>
   <g id="PathCollection_40">
    <path clip-path="url(#p30f824ce40)" d="M 369.352941 127.798372 
C 370.678957 127.798372 371.950841 127.27154 372.888475 126.333906 
C 373.82611 125.396271 374.352941 124.124387 374.352941 122.798372 
C 374.352941 121.472356 373.82611 120.200473 372.888475 119.262838 
C 371.950841 118.325204 370.678957 117.798372 369.352941 117.798372 
C 368.026926 117.798372 366.755042 118.325204 365.817407 119.262838 
C 364.879773 120.200473 364.352941 121.472356 364.352941 122.798372 
C 364.352941 124.124387 364.879773 125.396271 365.817407 126.333906 
C 366.755042 127.27154 368.026926 127.798372 369.352941 127.798372 
z
" style="fill:none;stroke:#c49c94;"/>
   </g>
   <g id="PathCollection_41">
    <path clip-path="url(#p30f824ce40)" d="M 377.011765 125.941541 
C 378.33778 125.941541 379.609664 125.41471 380.547299 124.477075 
C 381.484933 123.53944 382.011765 122.267557 382.011765 120.941541 
C 382.011765 119.615526 381.484933 118.343642 380.547299 117.406007 
C 379.609664 116.468373 378.33778 115.941541 377.011765 115.941541 
C 375.685749 115.941541 374.413865 116.468373 373.476231 117.406007 
C 372.538596 118.343642 372.011765 119.615526 372.011765 120.941541 
C 372.011765 122.267557 372.538596 123.53944 373.476231 124.477075 
C 374.413865 125.41471 375.685749 125.941541 377.011765 125.941541 
z
" style="fill:none;stroke:#c49c94;"/>
   </g>
   <g id="PathCollection_42">
    <path clip-path="url(#p30f824ce40)" d="M 384.670588 124.493523 
C 385.996604 124.493523 387.268488 123.966692 388.206122 123.029057 
C 389.143757 122.091423 389.670588 120.819539 389.670588 119.493523 
C 389.670588 118.167508 389.143757 116.895624 388.206122 115.95799 
C 387.268488 115.020355 385.996604 114.493523 384.670588 114.493523 
C 383.344573 114.493523 382.072689 115.020355 381.135054 115.95799 
C 380.19742 116.895624 379.670588 118.167508 379.670588 119.493523 
C 379.670588 120.819539 380.19742 122.091423 381.135054 123.029057 
C 382.072689 123.966692 383.344573 124.493523 384.670588 124.493523 
z
" style="fill:none;stroke:#c49c94;"/>
   </g>
   <g id="PathCollection_43">
    <path clip-path="url(#p30f824ce40)" d="M 392.329412 123.471776 
C 393.655427 123.471776 394.927311 122.944945 395.864946 122.00731 
C 396.80258 121.069676 397.329412 119.797792 397.329412 118.471776 
C 397.329412 117.145761 396.80258 115.873877 395.864946 114.936243 
C 394.927311 113.998608 393.655427 113.471776 392.329412 113.471776 
C 391.003396 113.471776 389.731512 113.998608 388.793878 114.936243 
C 387.856243 115.873877 387.329412 117.145761 387.329412 118.471776 
C 387.329412 119.797792 387.856243 121.069676 388.793878 122.00731 
C 389.731512 122.944945 391.003396 123.471776 392.329412 123.471776 
z
" style="fill:none;stroke:#c49c94;"/>
   </g>
   <g id="PathCollection_44">
    <path clip-path="url(#p30f824ce40)" d="M 399.988235 122.872855 
C 401.314251 122.872855 402.586135 122.346023 403.523769 121.408389 
C 404.461404 120.470754 404.988235 119.19887 404.988235 117.872855 
C 404.988235 116.546839 404.461404 115.274955 403.523769 114.337321 
C 402.586135 113.399686 401.314251 112.872855 399.988235 112.872855 
C 398.66222 112.872855 397.390336 113.399686 396.452701 114.337321 
C 395.515067 115.274955 394.988235 116.546839 394.988235 117.872855 
C 394.988235 119.19887 395.515067 120.470754 396.452701 121.408389 
C 397.390336 122.346023 398.66222 122.872855 399.988235 122.872855 
z
" style="fill:none;stroke:#c49c94;"/>
   </g>
   <g id="PathCollection_45">
    <path clip-path="url(#p30f824ce40)" d="M 407.647059 122.667374 
C 408.973074 122.667374 410.244958 122.140542 411.182593 121.202907 
C 412.120227 120.265273 412.647059 118.993389 412.647059 117.667374 
C 412.647059 116.341358 412.120227 115.069474 411.182593 114.13184 
C 410.244958 113.194205 408.973074 112.667374 407.647059 112.667374 
C 406.321043 112.667374 405.049159 113.194205 404.111525 114.13184 
C 403.17389 115.069474 402.647059 116.341358 402.647059 117.667374 
C 402.647059 118.993389 403.17389 120.265273 404.111525 121.202907 
C 405.049159 122.140542 406.321043 122.667374 407.647059 122.667374 
z
" style="fill:none;stroke:#c49c94;"/>
   </g>
   <g id="PathCollection_46">
    <path clip-path="url(#p30f824ce40)" d="M 415.305882 122.794482 
C 416.631898 122.794482 417.903782 122.26765 418.841416 121.330016 
C 419.779051 120.392381 420.305882 119.120498 420.305882 117.794482 
C 420.305882 116.468467 419.779051 115.196583 418.841416 114.258948 
C 417.903782 113.321314 416.631898 112.794482 415.305882 112.794482 
C 413.979867 112.794482 412.707983 113.321314 411.770348 114.258948 
C 410.832714 115.196583 410.305882 116.468467 410.305882 117.794482 
C 410.305882 119.120498 410.832714 120.392381 411.770348 121.330016 
C 412.707983 122.26765 413.979867 122.794482 415.305882 122.794482 
z
" style="fill:none;stroke:#c49c94;"/>
   </g>
   <g id="PathCollection_47">
    <path clip-path="url(#p30f824ce40)" d="M 422.964706 123.155829 
C 424.290721 123.155829 425.562605 122.628998 426.50024 121.691363 
C 427.437874 120.753729 427.964706 119.481845 427.964706 118.155829 
C 427.964706 116.829814 427.437874 115.55793 426.50024 114.620296 
C 425.562605 113.682661 424.290721 113.155829 422.964706 113.155829 
C 421.63869 113.155829 420.366807 113.682661 419.429172 114.620296 
C 418.491537 115.55793 417.964706 116.829814 417.964706 118.155829 
C 417.964706 119.481845 418.491537 120.753729 419.429172 121.691363 
C 420.366807 122.628998 421.63869 123.155829 422.964706 123.155829 
z
" style="fill:none;stroke:#c49c94;"/>
   </g>
   <g id="PathCollection_48">
    <path clip-path="url(#p30f824ce40)" d="M 430.623529 123.609004 
C 431.949545 123.609004 433.221429 123.082172 434.159063 122.144538 
C 435.096698 121.206903 435.623529 119.935019 435.623529 118.609004 
C 435.623529 117.282988 435.096698 116.011105 434.159063 115.07347 
C 433.221429 114.135836 431.949545 113.609004 430.623529 113.609004 
C 429.297514 113.609004 428.02563 114.135836 427.087996 115.07347 
C 426.150361 116.011105 425.623529 117.282988 425.623529 118.609004 
C 425.623529 119.935019 426.150361 121.206903 427.087996 122.144538 
C 428.02563 123.082172 429.297514 123.609004 430.623529 123.609004 
z
" style="fill:none;stroke:#c49c94;"/>
   </g>
   <g id="PathCollection_49">
    <path clip-path="url(#p30f824ce40)" d="M 438.282353 123.960431 
C 439.608368 123.960431 440.880252 123.4336 441.817887 122.495965 
C 442.755521 121.558331 443.282353 120.286447 443.282353 118.960431 
C 443.282353 117.634416 442.755521 116.362532 441.817887 115.424897 
C 440.880252 114.487263 439.608368 113.960431 438.282353 113.960431 
C 436.956337 113.960431 435.684454 114.487263 434.746819 115.424897 
C 433.809184 116.362532 433.282353 117.634416 433.282353 118.960431 
C 433.282353 120.286447 433.809184 121.558331 434.746819 122.495965 
C 435.684454 123.4336 436.956337 123.960431 438.282353 123.960431 
z
" style="fill:none;stroke:#c49c94;"/>
   </g>
   <g id="PathCollection_50">
    <path clip-path="url(#p30f824ce40)" d="M 445.941176 123.957709 
C 447.267192 123.957709 448.539076 123.430877 449.47671 122.493243 
C 450.414345 121.555608 450.941176 120.283724 450.941176 118.957709 
C 450.941176 117.631693 450.414345 116.359809 449.47671 115.422175 
C 448.539076 114.48454 447.267192 113.957709 445.941176 113.957709 
C 444.615161 113.957709 443.343277 114.48454 442.405643 115.422175 
C 441.468008 116.359809 440.941176 117.631693 440.941176 118.957709 
C 440.941176 120.283724 441.468008 121.555608 442.405643 122.493243 
C 443.343277 123.430877 444.615161 123.957709 445.941176 123.957709 
z
" style="fill:none;stroke:#c49c94;"/>
   </g>
   <g id="PathCollection_51">
    <path clip-path="url(#p30f824ce40)" d="M 453.6 123.281362 
C 454.926016 123.281362 456.197899 122.75453 457.135534 121.816896 
C 458.073168 120.879261 458.6 119.607377 458.6 118.281362 
C 458.6 116.955346 458.073168 115.683462 457.135534 114.745828 
C 456.197899 113.808193 454.926016 113.281362 453.6 113.281362 
C 452.273985 113.281362 451.002101 113.808193 450.064466 114.745828 
C 449.126832 115.683462 448.6 116.955346 448.6 118.281362 
C 448.6 119.607377 449.126832 120.879261 450.064466 121.816896 
C 451.002101 122.75453 452.273985 123.281362 453.6 123.281362 
z
" style="fill:none;stroke:#c49c94;"/>
   </g>
   <g id="PathCollection_52">
    <defs>
     <path d="M 0 5 
C 1.326016 5 2.597899 4.473168 3.535534 3.535534 
C 4.473168 2.597899 5 1.326016 5 0 
C 5 -1.326016 4.473168 -2.597899 3.535534 -3.535534 
C 2.597899 -4.473168 1.326016 -5 0 -5 
C -1.326016 -5 -2.597899 -4.473168 -3.535534 -3.535534 
C -4.473168 -2.597899 -5 -1.326016 -5 0 
C -5 1.326016 -4.473168 2.597899 -3.535534 3.535534 
C -2.597899 4.473168 -1.326016 5 0 5 
z
" id="m512a6aaa52" style="stroke:#c49c94;"/>
    </defs>
    <g clip-path="url(#p30f824ce40)">
     <use style="fill:#c49c94;stroke:#c49c94;" x="70.658824" xlink:href="#m512a6aaa52" y="187.984171"/>
    </g>
   </g>
   <g id="PathCollection_53">
    <g clip-path="url(#p30f824ce40)">
     <use style="fill:#c49c94;stroke:#c49c94;" x="78.317647" xlink:href="#m512a6aaa52" y="187.558781"/>
    </g>
   </g>
   <g id="PathCollection_54">
    <g clip-path="url(#p30f824ce40)">
     <use style="fill:#c49c94;stroke:#c49c94;" x="85.976471" xlink:href="#m512a6aaa52" y="186.883459"/>
    </g>
   </g>
   <g id="PathCollection_55">
    <g clip-path="url(#p30f824ce40)">
     <use style="fill:#c49c94;stroke:#c49c94;" x="93.635294" xlink:href="#m512a6aaa52" y="185.991161"/>
    </g>
   </g>
   <g id="PathCollection_56">
    <g clip-path="url(#p30f824ce40)">
     <use style="fill:#c49c94;stroke:#c49c94;" x="101.294118" xlink:href="#m512a6aaa52" y="184.923287"/>
    </g>
   </g>
   <g id="PathCollection_57">
    <g clip-path="url(#p30f824ce40)">
     <use style="fill:#c49c94;stroke:#c49c94;" x="108.952941" xlink:href="#m512a6aaa52" y="183.725225"/>
    </g>
   </g>
   <g id="PathCollection_58">
    <g clip-path="url(#p30f824ce40)">
     <use style="fill:#c49c94;stroke:#c49c94;" x="116.611765" xlink:href="#m512a6aaa52" y="182.442631"/>
    </g>
   </g>
   <g id="PathCollection_59">
    <g clip-path="url(#p30f824ce40)">
     <use style="fill:#c49c94;stroke:#c49c94;" x="124.270588" xlink:href="#m512a6aaa52" y="181.118403"/>
    </g>
   </g>
   <g id="PathCollection_60">
    <g clip-path="url(#p30f824ce40)">
     <use style="fill:#c49c94;stroke:#c49c94;" x="131.929412" xlink:href="#m512a6aaa52" y="179.790287"/>
    </g>
   </g>
   <g id="PathCollection_61">
    <g clip-path="url(#p30f824ce40)">
     <use style="fill:#c49c94;stroke:#c49c94;" x="139.588235" xlink:href="#m512a6aaa52" y="178.489099"/>
    </g>
   </g>
   <g id="PathCollection_62">
    <g clip-path="url(#p30f824ce40)">
     <use style="fill:#c49c94;stroke:#c49c94;" x="147.247059" xlink:href="#m512a6aaa52" y="177.237478"/>
    </g>
   </g>
   <g id="PathCollection_63">
    <g clip-path="url(#p30f824ce40)">
     <use style="fill:#c49c94;stroke:#c49c94;" x="154.905882" xlink:href="#m512a6aaa52" y="176.049165"/>
    </g>
   </g>
   <g id="PathCollection_64">
    <g clip-path="url(#p30f824ce40)">
     <use style="fill:#c49c94;stroke:#c49c94;" x="162.564706" xlink:href="#m512a6aaa52" y="174.928724"/>
    </g>
   </g>
   <g id="PathCollection_65">
    <g clip-path="url(#p30f824ce40)">
     <use style="fill:#c49c94;stroke:#c49c94;" x="170.223529" xlink:href="#m512a6aaa52" y="173.871692"/>
    </g>
   </g>
   <g id="PathCollection_66">
    <g clip-path="url(#p30f824ce40)">
     <use style="fill:#c49c94;stroke:#c49c94;" x="177.882353" xlink:href="#m512a6aaa52" y="172.865084"/>
    </g>
   </g>
   <g id="PathCollection_67">
    <g clip-path="url(#p30f824ce40)">
     <use style="fill:#c49c94;stroke:#c49c94;" x="185.541176" xlink:href="#m512a6aaa52" y="171.888226"/>
    </g>
   </g>
   <g id="PathCollection_68">
    <g clip-path="url(#p30f824ce40)">
     <use style="fill:#c49c94;stroke:#c49c94;" x="193.2" xlink:href="#m512a6aaa52" y="170.913868"/>
    </g>
   </g>
   <g id="PathCollection_69">
    <g clip-path="url(#p30f824ce40)">
     <use style="fill:#c49c94;stroke:#c49c94;" x="200.858824" xlink:href="#m512a6aaa52" y="169.909515"/>
    </g>
   </g>
   <g id="PathCollection_70">
    <g clip-path="url(#p30f824ce40)">
     <use style="fill:#c49c94;stroke:#c49c94;" x="208.517647" xlink:href="#m512a6aaa52" y="168.838953"/>
    </g>
   </g>
   <g id="PathCollection_71">
    <g clip-path="url(#p30f824ce40)">
     <use style="fill:#c49c94;stroke:#c49c94;" x="216.176471" xlink:href="#m512a6aaa52" y="167.663908"/>
    </g>
   </g>
   <g id="PathCollection_72">
    <g clip-path="url(#p30f824ce40)">
     <use style="fill:#c49c94;stroke:#c49c94;" x="223.835294" xlink:href="#m512a6aaa52" y="166.345795"/>
    </g>
   </g>
   <g id="PathCollection_73">
    <g clip-path="url(#p30f824ce40)">
     <use style="fill:#c49c94;stroke:#c49c94;" x="231.494118" xlink:href="#m512a6aaa52" y="164.847517"/>
    </g>
   </g>
   <g id="PathCollection_74">
    <g clip-path="url(#p30f824ce40)">
     <use style="fill:#c49c94;stroke:#c49c94;" x="239.152941" xlink:href="#m512a6aaa52" y="163.135258"/>
    </g>
   </g>
   <g id="PathCollection_75">
    <g clip-path="url(#p30f824ce40)">
     <use style="fill:#c49c94;stroke:#c49c94;" x="246.811765" xlink:href="#m512a6aaa52" y="161.18024"/>
    </g>
   </g>
   <g id="PathCollection_76">
    <g clip-path="url(#p30f824ce40)">
     <use style="fill:#c49c94;stroke:#c49c94;" x="254.470588" xlink:href="#m512a6aaa52" y="158.960374"/>
    </g>
   </g>
   <g id="PathCollection_77">
    <g clip-path="url(#p30f824ce40)">
     <use style="fill:#c49c94;stroke:#c49c94;" x="262.129412" xlink:href="#m512a6aaa52" y="156.461782"/>
    </g>
   </g>
   <g id="PathCollection_78">
    <g clip-path="url(#p30f824ce40)">
     <use style="fill:#c49c94;stroke:#c49c94;" x="269.788235" xlink:href="#m512a6aaa52" y="153.680136"/>
    </g>
   </g>
   <g id="PathCollection_79">
    <g clip-path="url(#p30f824ce40)">
     <use style="fill:#c49c94;stroke:#c49c94;" x="277.447059" xlink:href="#m512a6aaa52" y="150.621758"/>
    </g>
   </g>
   <g id="PathCollection_80">
    <g clip-path="url(#p30f824ce40)">
     <use style="fill:#c49c94;stroke:#c49c94;" x="285.105882" xlink:href="#m512a6aaa52" y="147.304453"/>
    </g>
   </g>
   <g id="PathCollection_81">
    <g clip-path="url(#p30f824ce40)">
     <use style="fill:#c49c94;stroke:#c49c94;" x="292.764706" xlink:href="#m512a6aaa52" y="143.758012"/>
    </g>
   </g>
   <g id="PathCollection_82">
    <g clip-path="url(#p30f824ce40)">
     <use style="fill:#c49c94;stroke:#c49c94;" x="300.423529" xlink:href="#m512a6aaa52" y="140.024355"/>
    </g>
   </g>
   <g id="PathCollection_83">
    <g clip-path="url(#p30f824ce40)">
     <use style="fill:#c49c94;stroke:#c49c94;" x="308.082353" xlink:href="#m512a6aaa52" y="136.157251"/>
    </g>
   </g>
   <g id="PathCollection_84">
    <g clip-path="url(#p30f824ce40)">
     <use style="fill:#c49c94;stroke:#c49c94;" x="315.741176" xlink:href="#m512a6aaa52" y="132.221585"/>
    </g>
   </g>
   <g id="PathCollection_85">
    <g clip-path="url(#p30f824ce40)">
     <use style="fill:#c49c94;stroke:#c49c94;" x="323.4" xlink:href="#m512a6aaa52" y="128.292114"/>
    </g>
   </g>
   <g id="PathCollection_86">
    <g clip-path="url(#p30f824ce40)">
     <use style="fill:#c49c94;stroke:#c49c94;" x="331.058824" xlink:href="#m512a6aaa52" y="124.45167"/>
    </g>
   </g>
   <g id="PathCollection_87">
    <g clip-path="url(#p30f824ce40)">
     <use style="fill:#c49c94;stroke:#c49c94;" x="338.717647" xlink:href="#m512a6aaa52" y="120.788774"/>
    </g>
   </g>
   <g id="PathCollection_88">
    <g clip-path="url(#p30f824ce40)">
     <use style="fill:#c49c94;stroke:#c49c94;" x="346.376471" xlink:href="#m512a6aaa52" y="117.394593"/>
    </g>
   </g>
   <g id="PathCollection_89">
    <g clip-path="url(#p30f824ce40)">
     <use style="fill:#c49c94;stroke:#c49c94;" x="354.035294" xlink:href="#m512a6aaa52" y="114.359213"/>
    </g>
   </g>
   <g id="PathCollection_90">
    <g clip-path="url(#p30f824ce40)">
     <use style="fill:#c49c94;stroke:#c49c94;" x="361.694118" xlink:href="#m512a6aaa52" y="111.767177"/>
    </g>
   </g>
   <g id="PathCollection_91">
    <g clip-path="url(#p30f824ce40)">
     <use style="fill:#c49c94;stroke:#c49c94;" x="369.352941" xlink:href="#m512a6aaa52" y="109.69224"/>
    </g>
   </g>
   <g id="PathCollection_92">
    <g clip-path="url(#p30f824ce40)">
     <use style="fill:#c49c94;stroke:#c49c94;" x="377.011765" xlink:href="#m512a6aaa52" y="108.191291"/>
    </g>
   </g>
   <g id="PathCollection_93">
    <g clip-path="url(#p30f824ce40)">
     <use style="fill:#c49c94;stroke:#c49c94;" x="384.670588" xlink:href="#m512a6aaa52" y="107.297408"/>
    </g>
   </g>
   <g id="PathCollection_94">
    <g clip-path="url(#p30f824ce40)">
     <use style="fill:#c49c94;stroke:#c49c94;" x="392.329412" xlink:href="#m512a6aaa52" y="107.011987"/>
    </g>
   </g>
   <g id="PathCollection_95">
    <g clip-path="url(#p30f824ce40)">
     <use style="fill:#c49c94;stroke:#c49c94;" x="399.988235" xlink:href="#m512a6aaa52" y="107.295909"/>
    </g>
   </g>
   <g id="PathCollection_96">
    <g clip-path="url(#p30f824ce40)">
     <use style="fill:#c49c94;stroke:#c49c94;" x="407.647059" xlink:href="#m512a6aaa52" y="108.05969"/>
    </g>
   </g>
   <g id="PathCollection_97">
    <g clip-path="url(#p30f824ce40)">
     <use style="fill:#c49c94;stroke:#c49c94;" x="415.305882" xlink:href="#m512a6aaa52" y="109.152578"/>
    </g>
   </g>
   <g id="PathCollection_98">
    <g clip-path="url(#p30f824ce40)">
     <use style="fill:#c49c94;stroke:#c49c94;" x="422.964706" xlink:href="#m512a6aaa52" y="110.350539"/>
    </g>
   </g>
   <g id="PathCollection_99">
    <g clip-path="url(#p30f824ce40)">
     <use style="fill:#c49c94;stroke:#c49c94;" x="430.623529" xlink:href="#m512a6aaa52" y="111.343101"/>
    </g>
   </g>
   <g id="PathCollection_100">
    <g clip-path="url(#p30f824ce40)">
     <use style="fill:#c49c94;stroke:#c49c94;" x="438.282353" xlink:href="#m512a6aaa52" y="111.718998"/>
    </g>
   </g>
   <g id="PathCollection_101">
    <g clip-path="url(#p30f824ce40)">
     <use style="fill:#c49c94;stroke:#c49c94;" x="445.941176" xlink:href="#m512a6aaa52" y="110.950565"/>
    </g>
   </g>
   <g id="PathCollection_102">
    <g clip-path="url(#p30f824ce40)">
     <use style="fill:#c49c94;stroke:#c49c94;" x="453.6" xlink:href="#m512a6aaa52" y="108.376858"/>
    </g>
   </g>
   <g id="matplotlib.axis_1"/>
   <g id="matplotlib.axis_2"/>
   <g id="line2d_1">
    <path clip-path="url(#p30f824ce40)" d="M 63 189 
L 109.782647 188.889827 
L 115.654412 188.573508 
L 121.717647 188.021943 
L 128.131912 187.211859 
L 134.961029 186.121503 
L 142.268824 184.725869 
L 150.151029 182.990949 
L 158.767206 180.862856 
L 168.308824 178.272596 
L 179.126912 175.099128 
L 191.795882 171.142687 
L 207.656029 165.945603 
L 233.408824 157.237565 
L 265.895 146.307811 
L 285.935588 139.804723 
L 294.838971 137.08859 
L 300.519265 135.608282 
L 306.263382 134.342755 
L 312.198971 133.263265 
L 318.421765 132.359461 
L 324.931765 131.64083 
L 331.760882 131.112094 
L 338.972941 130.778072 
L 346.631765 130.64769 
L 354.801176 130.732746 
L 363.608824 131.049673 
L 373.150441 131.618602 
L 383.6175 132.468878 
L 395.297206 133.645392 
L 408.604412 135.215133 
L 424.336912 137.30246 
L 444.409412 140.20239 
L 453.6 141.583671 
L 453.6 141.583671 
" style="fill:none;stroke:#c49c94;stroke-dasharray:11.1,4.8;stroke-dashoffset:0;stroke-width:3;"/>
   </g>
   <g id="line2d_2">
    <path clip-path="url(#p30f824ce40)" d="M 63 189 
L 109.240147 188.889387 
L 114.633235 188.572886 
L 120.122059 188.02519 
L 125.866176 187.226493 
L 131.961324 186.151229 
L 138.439412 184.779001 
L 145.332353 183.089689 
L 152.799706 181.027613 
L 160.937206 178.545636 
L 169.904412 175.574143 
L 180.052353 171.970632 
L 191.795882 167.557598 
L 206.283824 161.866138 
L 228.207206 152.984761 
L 264.650441 138.231032 
L 283.542206 130.844867 
L 293.913529 126.982601 
L 299.178971 125.283772 
L 304.4125 123.829953 
L 309.805588 122.564293 
L 315.390147 121.483732 
L 321.198088 120.587915 
L 327.261324 119.879277 
L 333.611765 119.362531 
L 340.281324 119.044082 
L 347.333824 118.931388 
L 354.833088 119.036044 
L 362.842941 119.372492 
L 371.459118 119.959221 
L 380.841176 120.824259 
L 391.148676 122.001591 
L 402.700735 123.549866 
L 415.944118 125.555343 
L 431.804265 128.190217 
L 452.770294 131.913694 
L 453.6 132.064505 
L 453.6 132.064505 
" style="fill:none;stroke:#c49c94;stroke-linecap:square;stroke-width:3;"/>
   </g>
   <g id="patch_3">
    <path d="M 63 189 
L 63 25.92 
" style="fill:none;stroke:#000000;stroke-linecap:square;stroke-linejoin:miter;stroke-width:0.8;"/>
   </g>
   <g id="patch_4">
    <path d="M 453.6 189 
L 453.6 25.92 
" style="fill:none;stroke:#000000;stroke-linecap:square;stroke-linejoin:miter;stroke-width:0.8;"/>
   </g>
   <g id="patch_5">
    <path d="M 63 189 
L 453.6 189 
" style="fill:none;stroke:#000000;stroke-linecap:square;stroke-linejoin:miter;stroke-width:0.8;"/>
   </g>
   <g id="patch_6">
    <path d="M 63 25.92 
L 453.6 25.92 
" style="fill:none;stroke:#000000;stroke-linecap:square;stroke-linejoin:miter;stroke-width:0.8;"/>
   </g>
  </g>
 </g>
 <defs>
  <clipPath id="p30f824ce40">
   <rect height="163.08" width="390.6" x="63" y="25.92"/>
  </clipPath>
 </defs>
</svg>
