<?xml version="1.0" encoding="utf-8" standalone="no"?>
<!DOCTYPE svg PUBLIC "-//W3C//DTD SVG 1.1//EN"
  "http://www.w3.org/Graphics/SVG/1.1/DTD/svg11.dtd">
<!-- Created with matplotlib (https://matplotlib.org/) -->
<svg height="216pt" version="1.1" viewBox="0 0 504 216" width="504pt" xmlns="http://www.w3.org/2000/svg" xmlns:xlink="http://www.w3.org/1999/xlink">
 <metadata>
  <rdf:RDF xmlns:cc="http://creativecommons.org/ns#" xmlns:dc="http://purl.org/dc/elements/1.1/" xmlns:rdf="http://www.w3.org/1999/02/22-rdf-syntax-ns#">
   <cc:Work>
    <dc:type rdf:resource="http://purl.org/dc/dcmitype/StillImage"/>
    <dc:date>2024-11-24T08:55:50.716200</dc:date>
    <dc:format>image/svg+xml</dc:format>
    <dc:creator>
     <cc:Agent>
      <dc:title>Matplotlib v3.3.2, https://matplotlib.org/</dc:title>
     </cc:Agent>
    </dc:creator>
   </cc:Work>
  </rdf:RDF>
 </metadata>
 <defs>
  <style type="text/css">*{stroke-linecap:butt;stroke-linejoin:round;}</style>
 </defs>
 <g id="figure_1">
  <g id="patch_1">
   <path d="M 0 216 
L 504 216 
L 504 0 
L 0 0 
z
" style="fill:none;"/>
  </g>
  <g id="axes_1">
   <g id="patch_2">
    <path d="M 63 189 
L 453.6 189 
L 453.6 25.92 
L 63 25.92 
z
" style="fill:#ffffff;"/>
   </g>
   <g id="PathCollection_1">
    <path clip-path="url(#pe655e938cb)" d="M 70.658824 193.234581 
C 71.984839 193.234581 73.256723 192.70775 74.194357 191.770115 
C 75.131992 190.83248 75.658824 189.560597 75.658824 188.234581 
C 75.658824 186.908566 75.131992 185.636682 74.194357 184.699047 
C 73.256723 183.761413 71.984839 183.234581 70.658824 183.234581 
C 69.332808 183.234581 68.060924 183.761413 67.12329 184.699047 
C 66.185655 185.636682 65.658824 186.908566 65.658824 188.234581 
C 65.658824 189.560597 66.185655 190.83248 67.12329 191.770115 
C 68.060924 192.70775 69.332808 193.234581 70.658824 193.234581 
z
" style="fill:none;stroke:#17becf;"/>
   </g>
   <g id="PathCollection_2">
    <path clip-path="url(#pe655e938cb)" d="M 78.317647 192.826125 
C 79.643663 192.826125 80.915546 192.299293 81.853181 191.361659 
C 82.790816 190.424024 83.317647 189.15214 83.317647 187.826125 
C 83.317647 186.500109 82.790816 185.228225 81.853181 184.290591 
C 80.915546 183.352956 79.643663 182.826125 78.317647 182.826125 
C 76.991632 182.826125 75.719748 183.352956 74.782113 184.290591 
C 73.844479 185.228225 73.317647 186.500109 73.317647 187.826125 
C 73.317647 189.15214 73.844479 190.424024 74.782113 191.361659 
C 75.719748 192.299293 76.991632 192.826125 78.317647 192.826125 
z
" style="fill:none;stroke:#17becf;"/>
   </g>
   <g id="PathCollection_3">
    <path clip-path="url(#pe655e938cb)" d="M 85.976471 192.575621 
C 87.302486 192.575621 88.57437 192.04879 89.512004 191.111155 
C 90.449639 190.173521 90.976471 188.901637 90.976471 187.575621 
C 90.976471 186.249606 90.449639 184.977722 89.512004 184.040088 
C 88.57437 183.102453 87.302486 182.575621 85.976471 182.575621 
C 84.650455 182.575621 83.378571 183.102453 82.440937 184.040088 
C 81.503302 184.977722 80.976471 186.249606 80.976471 187.575621 
C 80.976471 188.901637 81.503302 190.173521 82.440937 191.111155 
C 83.378571 192.04879 84.650455 192.575621 85.976471 192.575621 
z
" style="fill:none;stroke:#17becf;"/>
   </g>
   <g id="PathCollection_4">
    <path clip-path="url(#pe655e938cb)" d="M 93.635294 192.338401 
C 94.96131 192.338401 96.233193 191.81157 97.170828 190.873935 
C 98.108463 189.936301 98.635294 188.664417 98.635294 187.338401 
C 98.635294 186.012386 98.108463 184.740502 97.170828 183.802867 
C 96.233193 182.865233 94.96131 182.338401 93.635294 182.338401 
C 92.309279 182.338401 91.037395 182.865233 90.09976 183.802867 
C 89.162126 184.740502 88.635294 186.012386 88.635294 187.338401 
C 88.635294 188.664417 89.162126 189.936301 90.09976 190.873935 
C 91.037395 191.81157 92.309279 192.338401 93.635294 192.338401 
z
" style="fill:none;stroke:#17becf;"/>
   </g>
   <g id="PathCollection_5">
    <path clip-path="url(#pe655e938cb)" d="M 101.294118 192.011245 
C 102.620133 192.011245 103.892017 191.484414 104.829652 190.546779 
C 105.767286 189.609145 106.294118 188.337261 106.294118 187.011245 
C 106.294118 185.68523 105.767286 184.413346 104.829652 183.475711 
C 103.892017 182.538077 102.620133 182.011245 101.294118 182.011245 
C 99.968102 182.011245 98.696218 182.538077 97.758584 183.475711 
C 96.820949 184.413346 96.294118 185.68523 96.294118 187.011245 
C 96.294118 188.337261 96.820949 189.609145 97.758584 190.546779 
C 98.696218 191.484414 99.968102 192.011245 101.294118 192.011245 
z
" style="fill:none;stroke:#17becf;"/>
   </g>
   <g id="PathCollection_6">
    <path clip-path="url(#pe655e938cb)" d="M 108.952941 191.524996 
C 110.278957 191.524996 111.550841 190.998164 112.488475 190.060529 
C 113.42611 189.122895 113.952941 187.851011 113.952941 186.524996 
C 113.952941 185.19898 113.42611 183.927096 112.488475 182.989462 
C 111.550841 182.051827 110.278957 181.524996 108.952941 181.524996 
C 107.626926 181.524996 106.355042 182.051827 105.417407 182.989462 
C 104.479773 183.927096 103.952941 185.19898 103.952941 186.524996 
C 103.952941 187.851011 104.479773 189.122895 105.417407 190.060529 
C 106.355042 190.998164 107.626926 191.524996 108.952941 191.524996 
z
" style="fill:none;stroke:#17becf;"/>
   </g>
   <g id="PathCollection_7">
    <path clip-path="url(#pe655e938cb)" d="M 116.611765 190.837971 
C 117.93778 190.837971 119.209664 190.31114 120.147299 189.373505 
C 121.084933 188.43587 121.611765 187.163987 121.611765 185.837971 
C 121.611765 184.511956 121.084933 183.240072 120.147299 182.302437 
C 119.209664 181.364803 117.93778 180.837971 116.611765 180.837971 
C 115.285749 180.837971 114.013865 181.364803 113.076231 182.302437 
C 112.138596 183.240072 111.611765 184.511956 111.611765 185.837971 
C 111.611765 187.163987 112.138596 188.43587 113.076231 189.373505 
C 114.013865 190.31114 115.285749 190.837971 116.611765 190.837971 
z
" style="fill:none;stroke:#17becf;"/>
   </g>
   <g id="PathCollection_8">
    <path clip-path="url(#pe655e938cb)" d="M 124.270588 189.930145 
C 125.596604 189.930145 126.868488 189.403313 127.806122 188.465679 
C 128.743757 187.528044 129.270588 186.25616 129.270588 184.930145 
C 129.270588 183.604129 128.743757 182.332246 127.806122 181.394611 
C 126.868488 180.456976 125.596604 179.930145 124.270588 179.930145 
C 122.944573 179.930145 121.672689 180.456976 120.735054 181.394611 
C 119.79742 182.332246 119.270588 183.604129 119.270588 184.930145 
C 119.270588 186.25616 119.79742 187.528044 120.735054 188.465679 
C 121.672689 189.403313 122.944573 189.930145 124.270588 189.930145 
z
" style="fill:none;stroke:#17becf;"/>
   </g>
   <g id="PathCollection_9">
    <path clip-path="url(#pe655e938cb)" d="M 131.929412 188.798041 
C 133.255427 188.798041 134.527311 188.271209 135.464946 187.333575 
C 136.40258 186.39594 136.929412 185.124056 136.929412 183.798041 
C 136.929412 182.472025 136.40258 181.200142 135.464946 180.262507 
C 134.527311 179.324872 133.255427 178.798041 131.929412 178.798041 
C 130.603396 178.798041 129.331512 179.324872 128.393878 180.262507 
C 127.456243 181.200142 126.929412 182.472025 126.929412 183.798041 
C 126.929412 185.124056 127.456243 186.39594 128.393878 187.333575 
C 129.331512 188.271209 130.603396 188.798041 131.929412 188.798041 
z
" style="fill:none;stroke:#17becf;"/>
   </g>
   <g id="PathCollection_10">
    <path clip-path="url(#pe655e938cb)" d="M 139.588235 187.450316 
C 140.914251 187.450316 142.186135 186.923485 143.123769 185.98585 
C 144.061404 185.048216 144.588235 183.776332 144.588235 182.450316 
C 144.588235 181.124301 144.061404 179.852417 143.123769 178.914783 
C 142.186135 177.977148 140.914251 177.450316 139.588235 177.450316 
C 138.26222 177.450316 136.990336 177.977148 136.052701 178.914783 
C 135.115067 179.852417 134.588235 181.124301 134.588235 182.450316 
C 134.588235 183.776332 135.115067 185.048216 136.052701 185.98585 
C 136.990336 186.923485 138.26222 187.450316 139.588235 187.450316 
z
" style="fill:none;stroke:#17becf;"/>
   </g>
   <g id="PathCollection_11">
    <path clip-path="url(#pe655e938cb)" d="M 147.247059 185.90398 
C 148.573074 185.90398 149.844958 185.377149 150.782593 184.439514 
C 151.720227 183.50188 152.247059 182.229996 152.247059 180.90398 
C 152.247059 179.577965 151.720227 178.306081 150.782593 177.368447 
C 149.844958 176.430812 148.573074 175.90398 147.247059 175.90398 
C 145.921043 175.90398 144.649159 176.430812 143.711525 177.368447 
C 142.77389 178.306081 142.247059 179.577965 142.247059 180.90398 
C 142.247059 182.229996 142.77389 183.50188 143.711525 184.439514 
C 144.649159 185.377149 145.921043 185.90398 147.247059 185.90398 
z
" style="fill:none;stroke:#17becf;"/>
   </g>
   <g id="PathCollection_12">
    <path clip-path="url(#pe655e938cb)" d="M 154.905882 184.181216 
C 156.231898 184.181216 157.503782 183.654384 158.441416 182.71675 
C 159.379051 181.779115 159.905882 180.507231 159.905882 179.181216 
C 159.905882 177.8552 159.379051 176.583316 158.441416 175.645682 
C 157.503782 174.708047 156.231898 174.181216 154.905882 174.181216 
C 153.579867 174.181216 152.307983 174.708047 151.370348 175.645682 
C 150.432714 176.583316 149.905882 177.8552 149.905882 179.181216 
C 149.905882 180.507231 150.432714 181.779115 151.370348 182.71675 
C 152.307983 183.654384 153.579867 184.181216 154.905882 184.181216 
z
" style="fill:none;stroke:#17becf;"/>
   </g>
   <g id="PathCollection_13">
    <path clip-path="url(#pe655e938cb)" d="M 162.564706 182.306759 
C 163.890721 182.306759 165.162605 181.779927 166.10024 180.842293 
C 167.037874 179.904658 167.564706 178.632774 167.564706 177.306759 
C 167.564706 175.980743 167.037874 174.70886 166.10024 173.771225 
C 165.162605 172.83359 163.890721 172.306759 162.564706 172.306759 
C 161.23869 172.306759 159.966807 172.83359 159.029172 173.771225 
C 158.091537 174.70886 157.564706 175.980743 157.564706 177.306759 
C 157.564706 178.632774 158.091537 179.904658 159.029172 180.842293 
C 159.966807 181.779927 161.23869 182.306759 162.564706 182.306759 
z
" style="fill:none;stroke:#17becf;"/>
   </g>
   <g id="PathCollection_14">
    <path clip-path="url(#pe655e938cb)" d="M 170.223529 180.305799 
C 171.549545 180.305799 172.821429 179.778967 173.759063 178.841333 
C 174.696698 177.903698 175.223529 176.631814 175.223529 175.305799 
C 175.223529 173.979783 174.696698 172.7079 173.759063 171.770265 
C 172.821429 170.83263 171.549545 170.305799 170.223529 170.305799 
C 168.897514 170.305799 167.62563 170.83263 166.687996 171.770265 
C 165.750361 172.7079 165.223529 173.979783 165.223529 175.305799 
C 165.223529 176.631814 165.750361 177.903698 166.687996 178.841333 
C 167.62563 179.778967 168.897514 180.305799 170.223529 180.305799 
z
" style="fill:none;stroke:#17becf;"/>
   </g>
   <g id="PathCollection_15">
    <path clip-path="url(#pe655e938cb)" d="M 177.882353 178.202356 
C 179.208368 178.202356 180.480252 177.675525 181.417887 176.73789 
C 182.355521 175.800256 182.882353 174.528372 182.882353 173.202356 
C 182.882353 171.876341 182.355521 170.604457 181.417887 169.666822 
C 180.480252 168.729188 179.208368 168.202356 177.882353 168.202356 
C 176.556337 168.202356 175.284454 168.729188 174.346819 169.666822 
C 173.409184 170.604457 172.882353 171.876341 172.882353 173.202356 
C 172.882353 174.528372 173.409184 175.800256 174.346819 176.73789 
C 175.284454 177.675525 176.556337 178.202356 177.882353 178.202356 
z
" style="fill:none;stroke:#17becf;"/>
   </g>
   <g id="PathCollection_16">
    <path clip-path="url(#pe655e938cb)" d="M 185.541176 176.018096 
C 186.867192 176.018096 188.139076 175.491265 189.07671 174.55363 
C 190.014345 173.615996 190.541176 172.344112 190.541176 171.018096 
C 190.541176 169.692081 190.014345 168.420197 189.07671 167.482562 
C 188.139076 166.544928 186.867192 166.018096 185.541176 166.018096 
C 184.215161 166.018096 182.943277 166.544928 182.005643 167.482562 
C 181.068008 168.420197 180.541176 169.692081 180.541176 171.018096 
C 180.541176 172.344112 181.068008 173.615996 182.005643 174.55363 
C 182.943277 175.491265 184.215161 176.018096 185.541176 176.018096 
z
" style="fill:none;stroke:#17becf;"/>
   </g>
   <g id="PathCollection_17">
    <path clip-path="url(#pe655e938cb)" d="M 193.2 173.771545 
C 194.526016 173.771545 195.797899 173.244714 196.735534 172.307079 
C 197.673168 171.369444 198.2 170.097561 198.2 168.771545 
C 198.2 167.44553 197.673168 166.173646 196.735534 165.236011 
C 195.797899 164.298377 194.526016 163.771545 193.2 163.771545 
C 191.873985 163.771545 190.602101 164.298377 189.664466 165.236011 
C 188.726832 166.173646 188.2 167.44553 188.2 168.771545 
C 188.2 170.097561 188.726832 171.369444 189.664466 172.307079 
C 190.602101 173.244714 191.873985 173.771545 193.2 173.771545 
z
" style="fill:none;stroke:#17becf;"/>
   </g>
   <g id="PathCollection_18">
    <path clip-path="url(#pe655e938cb)" d="M 200.858824 171.477657 
C 202.184839 171.477657 203.456723 170.950825 204.394357 170.01319 
C 205.331992 169.075556 205.858824 167.803672 205.858824 166.477657 
C 205.858824 165.151641 205.331992 163.879757 204.394357 162.942123 
C 203.456723 162.004488 202.184839 161.477657 200.858824 161.477657 
C 199.532808 161.477657 198.260924 162.004488 197.32329 162.942123 
C 196.385655 163.879757 195.858824 165.151641 195.858824 166.477657 
C 195.858824 167.803672 196.385655 169.075556 197.32329 170.01319 
C 198.260924 170.950825 199.532808 171.477657 200.858824 171.477657 
z
" style="fill:none;stroke:#17becf;"/>
   </g>
   <g id="PathCollection_19">
    <path clip-path="url(#pe655e938cb)" d="M 208.517647 169.147701 
C 209.843663 169.147701 211.115546 168.620869 212.053181 167.683235 
C 212.990816 166.7456 213.517647 165.473716 213.517647 164.147701 
C 213.517647 162.821685 212.990816 161.549802 212.053181 160.612167 
C 211.115546 159.674533 209.843663 159.147701 208.517647 159.147701 
C 207.191632 159.147701 205.919748 159.674533 204.982113 160.612167 
C 204.044479 161.549802 203.517647 162.821685 203.517647 164.147701 
C 203.517647 165.473716 204.044479 166.7456 204.982113 167.683235 
C 205.919748 168.620869 207.191632 169.147701 208.517647 169.147701 
z
" style="fill:none;stroke:#17becf;"/>
   </g>
   <g id="PathCollection_20">
    <path clip-path="url(#pe655e938cb)" d="M 216.176471 166.789425 
C 217.502486 166.789425 218.77437 166.262593 219.712004 165.324958 
C 220.649639 164.387324 221.176471 163.11544 221.176471 161.789425 
C 221.176471 160.463409 220.649639 159.191525 219.712004 158.253891 
C 218.77437 157.316256 217.502486 156.789425 216.176471 156.789425 
C 214.850455 156.789425 213.578571 157.316256 212.640937 158.253891 
C 211.703302 159.191525 211.176471 160.463409 211.176471 161.789425 
C 211.176471 163.11544 211.703302 164.387324 212.640937 165.324958 
C 213.578571 166.262593 214.850455 166.789425 216.176471 166.789425 
z
" style="fill:none;stroke:#17becf;"/>
   </g>
   <g id="PathCollection_21">
    <path clip-path="url(#pe655e938cb)" d="M 223.835294 164.407448 
C 225.16131 164.407448 226.433193 163.880616 227.370828 162.942982 
C 228.308463 162.005347 228.835294 160.733463 228.835294 159.407448 
C 228.835294 158.081432 228.308463 156.809548 227.370828 155.871914 
C 226.433193 154.934279 225.16131 154.407448 223.835294 154.407448 
C 222.509279 154.407448 221.237395 154.934279 220.29976 155.871914 
C 219.362126 156.809548 218.835294 158.081432 218.835294 159.407448 
C 218.835294 160.733463 219.362126 162.005347 220.29976 162.942982 
C 221.237395 163.880616 222.509279 164.407448 223.835294 164.407448 
z
" style="fill:none;stroke:#17becf;"/>
   </g>
   <g id="PathCollection_22">
    <path clip-path="url(#pe655e938cb)" d="M 231.494118 162.003856 
C 232.820133 162.003856 234.092017 161.477024 235.029652 160.53939 
C 235.967286 159.601755 236.494118 158.329871 236.494118 157.003856 
C 236.494118 155.67784 235.967286 154.405957 235.029652 153.468322 
C 234.092017 152.530688 232.820133 152.003856 231.494118 152.003856 
C 230.168102 152.003856 228.896218 152.530688 227.958584 153.468322 
C 227.020949 154.405957 226.494118 155.67784 226.494118 157.003856 
C 226.494118 158.329871 227.020949 159.601755 227.958584 160.53939 
C 228.896218 161.477024 230.168102 162.003856 231.494118 162.003856 
z
" style="fill:none;stroke:#17becf;"/>
   </g>
   <g id="PathCollection_23">
    <path clip-path="url(#pe655e938cb)" d="M 239.152941 159.578947 
C 240.478957 159.578947 241.750841 159.052115 242.688475 158.114481 
C 243.62611 157.176846 244.152941 155.904962 244.152941 154.578947 
C 244.152941 153.252931 243.62611 151.981047 242.688475 151.043413 
C 241.750841 150.105778 240.478957 149.578947 239.152941 149.578947 
C 237.826926 149.578947 236.555042 150.105778 235.617407 151.043413 
C 234.679773 151.981047 234.152941 153.252931 234.152941 154.578947 
C 234.152941 155.904962 234.679773 157.176846 235.617407 158.114481 
C 236.555042 159.052115 237.826926 159.578947 239.152941 159.578947 
z
" style="fill:none;stroke:#17becf;"/>
   </g>
   <g id="PathCollection_24">
    <path clip-path="url(#pe655e938cb)" d="M 246.811765 157.132086 
C 248.13778 157.132086 249.409664 156.605255 250.347299 155.66762 
C 251.284933 154.729986 251.811765 153.458102 251.811765 152.132086 
C 251.811765 150.806071 251.284933 149.534187 250.347299 148.596552 
C 249.409664 147.658918 248.13778 147.132086 246.811765 147.132086 
C 245.485749 147.132086 244.213865 147.658918 243.276231 148.596552 
C 242.338596 149.534187 241.811765 150.806071 241.811765 152.132086 
C 241.811765 153.458102 242.338596 154.729986 243.276231 155.66762 
C 244.213865 156.605255 245.485749 157.132086 246.811765 157.132086 
z
" style="fill:none;stroke:#17becf;"/>
   </g>
   <g id="PathCollection_25">
    <path clip-path="url(#pe655e938cb)" d="M 254.470588 154.662644 
C 255.796604 154.662644 257.068488 154.135813 258.006122 153.198178 
C 258.943757 152.260543 259.470588 150.98866 259.470588 149.662644 
C 259.470588 148.336629 258.943757 147.064745 258.006122 146.12711 
C 257.068488 145.189476 255.796604 144.662644 254.470588 144.662644 
C 253.144573 144.662644 251.872689 145.189476 250.935054 146.12711 
C 249.99742 147.064745 249.470588 148.336629 249.470588 149.662644 
C 249.470588 150.98866 249.99742 152.260543 250.935054 153.198178 
C 251.872689 154.135813 253.144573 154.662644 254.470588 154.662644 
z
" style="fill:none;stroke:#17becf;"/>
   </g>
   <g id="PathCollection_26">
    <path clip-path="url(#pe655e938cb)" d="M 262.129412 152.170956 
C 263.455427 152.170956 264.727311 151.644124 265.664946 150.70649 
C 266.60258 149.768855 267.129412 148.496971 267.129412 147.170956 
C 267.129412 145.84494 266.60258 144.573057 265.664946 143.635422 
C 264.727311 142.697787 263.455427 142.170956 262.129412 142.170956 
C 260.803396 142.170956 259.531512 142.697787 258.593878 143.635422 
C 257.656243 144.573057 257.129412 145.84494 257.129412 147.170956 
C 257.129412 148.496971 257.656243 149.768855 258.593878 150.70649 
C 259.531512 151.644124 260.803396 152.170956 262.129412 152.170956 
z
" style="fill:none;stroke:#17becf;"/>
   </g>
   <g id="PathCollection_27">
    <path clip-path="url(#pe655e938cb)" d="M 269.788235 149.65928 
C 271.114251 149.65928 272.386135 149.132449 273.323769 148.194814 
C 274.261404 147.25718 274.788235 145.985296 274.788235 144.65928 
C 274.788235 143.333265 274.261404 142.061381 273.323769 141.123746 
C 272.386135 140.186112 271.114251 139.65928 269.788235 139.65928 
C 268.46222 139.65928 267.190336 140.186112 266.252701 141.123746 
C 265.315067 142.061381 264.788235 143.333265 264.788235 144.65928 
C 264.788235 145.985296 265.315067 147.25718 266.252701 148.194814 
C 267.190336 149.132449 268.46222 149.65928 269.788235 149.65928 
z
" style="fill:none;stroke:#17becf;"/>
   </g>
   <g id="PathCollection_28">
    <path clip-path="url(#pe655e938cb)" d="M 277.447059 147.132706 
C 278.773074 147.132706 280.044958 146.605875 280.982593 145.66824 
C 281.920227 144.730606 282.447059 143.458722 282.447059 142.132706 
C 282.447059 140.806691 281.920227 139.534807 280.982593 138.597172 
C 280.044958 137.659538 278.773074 137.132706 277.447059 137.132706 
C 276.121043 137.132706 274.849159 137.659538 273.911525 138.597172 
C 272.97389 139.534807 272.447059 140.806691 272.447059 142.132706 
C 272.447059 143.458722 272.97389 144.730606 273.911525 145.66824 
C 274.849159 146.605875 276.121043 147.132706 277.447059 147.132706 
z
" style="fill:none;stroke:#17becf;"/>
   </g>
   <g id="PathCollection_29">
    <path clip-path="url(#pe655e938cb)" d="M 285.105882 144.599973 
C 286.431898 144.599973 287.703782 144.073141 288.641416 143.135507 
C 289.579051 142.197872 290.105882 140.925988 290.105882 139.599973 
C 290.105882 138.273957 289.579051 137.002073 288.641416 136.064439 
C 287.703782 135.126804 286.431898 134.599973 285.105882 134.599973 
C 283.779867 134.599973 282.507983 135.126804 281.570348 136.064439 
C 280.632714 137.002073 280.105882 138.273957 280.105882 139.599973 
C 280.105882 140.925988 280.632714 142.197872 281.570348 143.135507 
C 282.507983 144.073141 283.779867 144.599973 285.105882 144.599973 
z
" style="fill:none;stroke:#17becf;"/>
   </g>
   <g id="PathCollection_30">
    <path clip-path="url(#pe655e938cb)" d="M 292.764706 142.074155 
C 294.090721 142.074155 295.362605 141.547324 296.30024 140.609689 
C 297.237874 139.672055 297.764706 138.400171 297.764706 137.074155 
C 297.764706 135.74814 297.237874 134.476256 296.30024 133.538622 
C 295.362605 132.600987 294.090721 132.074155 292.764706 132.074155 
C 291.43869 132.074155 290.166807 132.600987 289.229172 133.538622 
C 288.291537 134.476256 287.764706 135.74814 287.764706 137.074155 
C 287.764706 138.400171 288.291537 139.672055 289.229172 140.609689 
C 290.166807 141.547324 291.43869 142.074155 292.764706 142.074155 
z
" style="fill:none;stroke:#17becf;"/>
   </g>
   <g id="PathCollection_31">
    <path clip-path="url(#pe655e938cb)" d="M 300.423529 139.573186 
C 301.749545 139.573186 303.021429 139.046354 303.959063 138.10872 
C 304.896698 137.171085 305.423529 135.899202 305.423529 134.573186 
C 305.423529 133.247171 304.896698 131.975287 303.959063 131.037652 
C 303.021429 130.100018 301.749545 129.573186 300.423529 129.573186 
C 299.097514 129.573186 297.82563 130.100018 296.887996 131.037652 
C 295.950361 131.975287 295.423529 133.247171 295.423529 134.573186 
C 295.423529 135.899202 295.950361 137.171085 296.887996 138.10872 
C 297.82563 139.046354 299.097514 139.573186 300.423529 139.573186 
z
" style="fill:none;stroke:#17becf;"/>
   </g>
   <g id="PathCollection_32">
    <path clip-path="url(#pe655e938cb)" d="M 308.082353 137.12016 
C 309.408368 137.12016 310.680252 136.593328 311.617887 135.655694 
C 312.555521 134.718059 313.082353 133.446175 313.082353 132.12016 
C 313.082353 130.794144 312.555521 129.52226 311.617887 128.584626 
C 310.680252 127.646991 309.408368 127.12016 308.082353 127.12016 
C 306.756337 127.12016 305.484454 127.646991 304.546819 128.584626 
C 303.609184 129.52226 303.082353 130.794144 303.082353 132.12016 
C 303.082353 133.446175 303.609184 134.718059 304.546819 135.655694 
C 305.484454 136.593328 306.756337 137.12016 308.082353 137.12016 
z
" style="fill:none;stroke:#17becf;"/>
   </g>
   <g id="PathCollection_33">
    <path clip-path="url(#pe655e938cb)" d="M 315.741176 134.74339 
C 317.067192 134.74339 318.339076 134.216559 319.27671 133.278924 
C 320.214345 132.34129 320.741176 131.069406 320.741176 129.74339 
C 320.741176 128.417375 320.214345 127.145491 319.27671 126.207857 
C 318.339076 125.270222 317.067192 124.74339 315.741176 124.74339 
C 314.415161 124.74339 313.143277 125.270222 312.205643 126.207857 
C 311.268008 127.145491 310.741176 128.417375 310.741176 129.74339 
C 310.741176 131.069406 311.268008 132.34129 312.205643 133.278924 
C 313.143277 134.216559 314.415161 134.74339 315.741176 134.74339 
z
" style="fill:none;stroke:#17becf;"/>
   </g>
   <g id="PathCollection_34">
    <path clip-path="url(#pe655e938cb)" d="M 323.4 132.476176 
C 324.726016 132.476176 325.997899 131.949344 326.935534 131.01171 
C 327.873168 130.074075 328.4 128.802191 328.4 127.476176 
C 328.4 126.15016 327.873168 124.878277 326.935534 123.940642 
C 325.997899 123.003008 324.726016 122.476176 323.4 122.476176 
C 322.073985 122.476176 320.802101 123.003008 319.864466 123.940642 
C 318.926832 124.878277 318.4 126.15016 318.4 127.476176 
C 318.4 128.802191 318.926832 130.074075 319.864466 131.01171 
C 320.802101 131.949344 322.073985 132.476176 323.4 132.476176 
z
" style="fill:none;stroke:#17becf;"/>
   </g>
   <g id="PathCollection_35">
    <path clip-path="url(#pe655e938cb)" d="M 331.058824 130.356227 
C 332.384839 130.356227 333.656723 129.829396 334.594357 128.891761 
C 335.531992 127.954127 336.058824 126.682243 336.058824 125.356227 
C 336.058824 124.030212 335.531992 122.758328 334.594357 121.820693 
C 333.656723 120.883059 332.384839 120.356227 331.058824 120.356227 
C 329.732808 120.356227 328.460924 120.883059 327.52329 121.820693 
C 326.585655 122.758328 326.058824 124.030212 326.058824 125.356227 
C 326.058824 126.682243 326.585655 127.954127 327.52329 128.891761 
C 328.460924 129.829396 329.732808 130.356227 331.058824 130.356227 
z
" style="fill:none;stroke:#17becf;"/>
   </g>
   <g id="PathCollection_36">
    <path clip-path="url(#pe655e938cb)" d="M 338.717647 128.424729 
C 340.043663 128.424729 341.315546 127.897898 342.253181 126.960263 
C 343.190816 126.022629 343.717647 124.750745 343.717647 123.424729 
C 343.717647 122.098714 343.190816 120.82683 342.253181 119.889195 
C 341.315546 118.951561 340.043663 118.424729 338.717647 118.424729 
C 337.391632 118.424729 336.119748 118.951561 335.182113 119.889195 
C 334.244479 120.82683 333.717647 122.098714 333.717647 123.424729 
C 333.717647 124.750745 334.244479 126.022629 335.182113 126.960263 
C 336.119748 127.897898 337.391632 128.424729 338.717647 128.424729 
z
" style="fill:none;stroke:#17becf;"/>
   </g>
   <g id="PathCollection_37">
    <path clip-path="url(#pe655e938cb)" d="M 346.376471 126.724983 
C 347.702486 126.724983 348.97437 126.198152 349.912004 125.260517 
C 350.849639 124.322883 351.376471 123.050999 351.376471 121.724983 
C 351.376471 120.398968 350.849639 119.127084 349.912004 118.189449 
C 348.97437 117.251815 347.702486 116.724983 346.376471 116.724983 
C 345.050455 116.724983 343.778571 117.251815 342.840937 118.189449 
C 341.903302 119.127084 341.376471 120.398968 341.376471 121.724983 
C 341.376471 123.050999 341.903302 124.322883 342.840937 125.260517 
C 343.778571 126.198152 345.050455 126.724983 346.376471 126.724983 
z
" style="fill:none;stroke:#17becf;"/>
   </g>
   <g id="PathCollection_38">
    <path clip-path="url(#pe655e938cb)" d="M 354.035294 125.300599 
C 355.36131 125.300599 356.633193 124.773768 357.570828 123.836133 
C 358.508463 122.898499 359.035294 121.626615 359.035294 120.300599 
C 359.035294 118.974584 358.508463 117.7027 357.570828 116.765065 
C 356.633193 115.827431 355.36131 115.300599 354.035294 115.300599 
C 352.709279 115.300599 351.437395 115.827431 350.49976 116.765065 
C 349.562126 117.7027 349.035294 118.974584 349.035294 120.300599 
C 349.035294 121.626615 349.562126 122.898499 350.49976 123.836133 
C 351.437395 124.773768 352.709279 125.300599 354.035294 125.300599 
z
" style="fill:none;stroke:#17becf;"/>
   </g>
   <g id="PathCollection_39">
    <path clip-path="url(#pe655e938cb)" d="M 361.694118 124.193189 
C 363.020133 124.193189 364.292017 123.666358 365.229652 122.728723 
C 366.167286 121.791089 366.694118 120.519205 366.694118 119.193189 
C 366.694118 117.867174 366.167286 116.59529 365.229652 115.657656 
C 364.292017 114.720021 363.020133 114.193189 361.694118 114.193189 
C 360.368102 114.193189 359.096218 114.720021 358.158584 115.657656 
C 357.220949 116.59529 356.694118 117.867174 356.694118 119.193189 
C 356.694118 120.519205 357.220949 121.791089 358.158584 122.728723 
C 359.096218 123.666358 360.368102 124.193189 361.694118 124.193189 
z
" style="fill:none;stroke:#17becf;"/>
   </g>
   <g id="PathCollection_40">
    <path clip-path="url(#pe655e938cb)" d="M 369.352941 123.439531 
C 370.678957 123.439531 371.950841 122.912699 372.888475 121.975065 
C 373.82611 121.03743 374.352941 119.765546 374.352941 118.439531 
C 374.352941 117.113515 373.82611 115.841632 372.888475 114.903997 
C 371.950841 113.966362 370.678957 113.439531 369.352941 113.439531 
C 368.026926 113.439531 366.755042 113.966362 365.817407 114.903997 
C 364.879773 115.841632 364.352941 117.113515 364.352941 118.439531 
C 364.352941 119.765546 364.879773 121.03743 365.817407 121.975065 
C 366.755042 122.912699 368.026926 123.439531 369.352941 123.439531 
z
" style="fill:none;stroke:#17becf;"/>
   </g>
   <g id="PathCollection_41">
    <path clip-path="url(#pe655e938cb)" d="M 377.011765 123.068149 
C 378.33778 123.068149 379.609664 122.541318 380.547299 121.603683 
C 381.484933 120.666049 382.011765 119.394165 382.011765 118.068149 
C 382.011765 116.742134 381.484933 115.47025 380.547299 114.532615 
C 379.609664 113.594981 378.33778 113.068149 377.011765 113.068149 
C 375.685749 113.068149 374.413865 113.594981 373.476231 114.532615 
C 372.538596 115.47025 372.011765 116.742134 372.011765 118.068149 
C 372.011765 119.394165 372.538596 120.666049 373.476231 121.603683 
C 374.413865 122.541318 375.685749 123.068149 377.011765 123.068149 
z
" style="fill:none;stroke:#17becf;"/>
   </g>
   <g id="PathCollection_42">
    <path clip-path="url(#pe655e938cb)" d="M 384.670588 123.095285 
C 385.996604 123.095285 387.268488 122.568454 388.206122 121.630819 
C 389.143757 120.693185 389.670588 119.421301 389.670588 118.095285 
C 389.670588 116.76927 389.143757 115.497386 388.206122 114.559751 
C 387.268488 113.622117 385.996604 113.095285 384.670588 113.095285 
C 383.344573 113.095285 382.072689 113.622117 381.135054 114.559751 
C 380.19742 115.497386 379.670588 116.76927 379.670588 118.095285 
C 379.670588 119.421301 380.19742 120.693185 381.135054 121.630819 
C 382.072689 122.568454 383.344573 123.095285 384.670588 123.095285 
z
" style="fill:none;stroke:#17becf;"/>
   </g>
   <g id="PathCollection_43">
    <path clip-path="url(#pe655e938cb)" d="M 392.329412 123.520209 
C 393.655427 123.520209 394.927311 122.993377 395.864946 122.055743 
C 396.80258 121.118108 397.329412 119.846224 397.329412 118.520209 
C 397.329412 117.194193 396.80258 115.92231 395.864946 114.984675 
C 394.927311 114.04704 393.655427 113.520209 392.329412 113.520209 
C 391.003396 113.520209 389.731512 114.04704 388.793878 114.984675 
C 387.856243 115.92231 387.329412 117.194193 387.329412 118.520209 
C 387.329412 119.846224 387.856243 121.118108 388.793878 122.055743 
C 389.731512 122.993377 391.003396 123.520209 392.329412 123.520209 
z
" style="fill:none;stroke:#17becf;"/>
   </g>
   <g id="PathCollection_44">
    <path clip-path="url(#pe655e938cb)" d="M 399.988235 124.319831 
C 401.314251 124.319831 402.586135 123.792999 403.523769 122.855365 
C 404.461404 121.91773 404.988235 120.645846 404.988235 119.319831 
C 404.988235 117.993815 404.461404 116.721932 403.523769 115.784297 
C 402.586135 114.846662 401.314251 114.319831 399.988235 114.319831 
C 398.66222 114.319831 397.390336 114.846662 396.452701 115.784297 
C 395.515067 116.721932 394.988235 117.993815 394.988235 119.319831 
C 394.988235 120.645846 395.515067 121.91773 396.452701 122.855365 
C 397.390336 123.792999 398.66222 124.319831 399.988235 124.319831 
z
" style="fill:none;stroke:#17becf;"/>
   </g>
   <g id="PathCollection_45">
    <path clip-path="url(#pe655e938cb)" d="M 407.647059 125.442579 
C 408.973074 125.442579 410.244958 124.915747 411.182593 123.978113 
C 412.120227 123.040478 412.647059 121.768594 412.647059 120.442579 
C 412.647059 119.116563 412.120227 117.844679 411.182593 116.907045 
C 410.244958 115.96941 408.973074 115.442579 407.647059 115.442579 
C 406.321043 115.442579 405.049159 115.96941 404.111525 116.907045 
C 403.17389 117.844679 402.647059 119.116563 402.647059 120.442579 
C 402.647059 121.768594 403.17389 123.040478 404.111525 123.978113 
C 405.049159 124.915747 406.321043 125.442579 407.647059 125.442579 
z
" style="fill:none;stroke:#17becf;"/>
   </g>
   <g id="PathCollection_46">
    <path clip-path="url(#pe655e938cb)" d="M 415.305882 126.801495 
C 416.631898 126.801495 417.903782 126.274663 418.841416 125.337029 
C 419.779051 124.399394 420.305882 123.12751 420.305882 121.801495 
C 420.305882 120.475479 419.779051 119.203595 418.841416 118.265961 
C 417.903782 117.328326 416.631898 116.801495 415.305882 116.801495 
C 413.979867 116.801495 412.707983 117.328326 411.770348 118.265961 
C 410.832714 119.203595 410.305882 120.475479 410.305882 121.801495 
C 410.305882 123.12751 410.832714 124.399394 411.770348 125.337029 
C 412.707983 126.274663 413.979867 126.801495 415.305882 126.801495 
z
" style="fill:none;stroke:#17becf;"/>
   </g>
   <g id="PathCollection_47">
    <path clip-path="url(#pe655e938cb)" d="M 422.964706 128.266513 
C 424.290721 128.266513 425.562605 127.739681 426.50024 126.802047 
C 427.437874 125.864412 427.964706 124.592528 427.964706 123.266513 
C 427.964706 121.940497 427.437874 120.668613 426.50024 119.730979 
C 425.562605 118.793344 424.290721 118.266513 422.964706 118.266513 
C 421.63869 118.266513 420.366807 118.793344 419.429172 119.730979 
C 418.491537 120.668613 417.964706 121.940497 417.964706 123.266513 
C 417.964706 124.592528 418.491537 125.864412 419.429172 126.802047 
C 420.366807 127.739681 421.63869 128.266513 422.964706 128.266513 
z
" style="fill:none;stroke:#17becf;"/>
   </g>
   <g id="PathCollection_48">
    <path clip-path="url(#pe655e938cb)" d="M 430.623529 129.655876 
C 431.949545 129.655876 433.221429 129.129045 434.159063 128.19141 
C 435.096698 127.253776 435.623529 125.981892 435.623529 124.655876 
C 435.623529 123.329861 435.096698 122.057977 434.159063 121.120342 
C 433.221429 120.182708 431.949545 119.655876 430.623529 119.655876 
C 429.297514 119.655876 428.02563 120.182708 427.087996 121.120342 
C 426.150361 122.057977 425.623529 123.329861 425.623529 124.655876 
C 425.623529 125.981892 426.150361 127.253776 427.087996 128.19141 
C 428.02563 129.129045 429.297514 129.655876 430.623529 129.655876 
z
" style="fill:none;stroke:#17becf;"/>
   </g>
   <g id="PathCollection_49">
    <path clip-path="url(#pe655e938cb)" d="M 438.282353 130.726658 
C 439.608368 130.726658 440.880252 130.199827 441.817887 129.262192 
C 442.755521 128.324558 443.282353 127.052674 443.282353 125.726658 
C 443.282353 124.400643 442.755521 123.128759 441.817887 122.191124 
C 440.880252 121.25349 439.608368 120.726658 438.282353 120.726658 
C 436.956337 120.726658 435.684454 121.25349 434.746819 122.191124 
C 433.809184 123.128759 433.282353 124.400643 433.282353 125.726658 
C 433.282353 127.052674 433.809184 128.324558 434.746819 129.262192 
C 435.684454 130.199827 436.956337 130.726658 438.282353 130.726658 
z
" style="fill:none;stroke:#17becf;"/>
   </g>
   <g id="PathCollection_50">
    <path clip-path="url(#pe655e938cb)" d="M 445.941176 131.164336 
C 447.267192 131.164336 448.539076 130.637504 449.47671 129.69987 
C 450.414345 128.762235 450.941176 127.490352 450.941176 126.164336 
C 450.941176 124.838321 450.414345 123.566437 449.47671 122.628802 
C 448.539076 121.691168 447.267192 121.164336 445.941176 121.164336 
C 444.615161 121.164336 443.343277 121.691168 442.405643 122.628802 
C 441.468008 123.566437 440.941176 124.838321 440.941176 126.164336 
C 440.941176 127.490352 441.468008 128.762235 442.405643 129.69987 
C 443.343277 130.637504 444.615161 131.164336 445.941176 131.164336 
z
" style="fill:none;stroke:#17becf;"/>
   </g>
   <g id="PathCollection_51">
    <path clip-path="url(#pe655e938cb)" d="M 453.6 130.571388 
C 454.926016 130.571388 456.197899 130.044556 457.135534 129.106921 
C 458.073168 128.169287 458.6 126.897403 458.6 125.571388 
C 458.6 124.245372 458.073168 122.973488 457.135534 122.035854 
C 456.197899 121.098219 454.926016 120.571388 453.6 120.571388 
C 452.273985 120.571388 451.002101 121.098219 450.064466 122.035854 
C 449.126832 122.973488 448.6 124.245372 448.6 125.571388 
C 448.6 126.897403 449.126832 128.169287 450.064466 129.106921 
C 451.002101 130.044556 452.273985 130.571388 453.6 130.571388 
z
" style="fill:none;stroke:#17becf;"/>
   </g>
   <g id="PathCollection_52">
    <defs>
     <path d="M 0 5 
C 1.326016 5 2.597899 4.473168 3.535534 3.535534 
C 4.473168 2.597899 5 1.326016 5 0 
C 5 -1.326016 4.473168 -2.597899 3.535534 -3.535534 
C 2.597899 -4.473168 1.326016 -5 0 -5 
C -1.326016 -5 -2.597899 -4.473168 -3.535534 -3.535534 
C -4.473168 -2.597899 -5 -1.326016 -5 0 
C -5 1.326016 -4.473168 2.597899 -3.535534 3.535534 
C -2.597899 4.473168 -1.326016 5 0 5 
z
" id="m74d8b88d9d" style="stroke:#17becf;"/>
    </defs>
    <g clip-path="url(#pe655e938cb)">
     <use style="fill:#17becf;stroke:#17becf;" x="70.658824" xlink:href="#m74d8b88d9d" y="188.756652"/>
    </g>
   </g>
   <g id="PathCollection_53">
    <g clip-path="url(#pe655e938cb)">
     <use style="fill:#17becf;stroke:#17becf;" x="78.317647" xlink:href="#m74d8b88d9d" y="189.016308"/>
    </g>
   </g>
   <g id="PathCollection_54">
    <g clip-path="url(#pe655e938cb)">
     <use style="fill:#17becf;stroke:#17becf;" x="85.976471" xlink:href="#m74d8b88d9d" y="188.889025"/>
    </g>
   </g>
   <g id="PathCollection_55">
    <g clip-path="url(#pe655e938cb)">
     <use style="fill:#17becf;stroke:#17becf;" x="93.635294" xlink:href="#m74d8b88d9d" y="188.458956"/>
    </g>
   </g>
   <g id="PathCollection_56">
    <g clip-path="url(#pe655e938cb)">
     <use style="fill:#17becf;stroke:#17becf;" x="101.294118" xlink:href="#m74d8b88d9d" y="187.791739"/>
    </g>
   </g>
   <g id="PathCollection_57">
    <g clip-path="url(#pe655e938cb)">
     <use style="fill:#17becf;stroke:#17becf;" x="108.952941" xlink:href="#m74d8b88d9d" y="186.936939"/>
    </g>
   </g>
   <g id="PathCollection_58">
    <g clip-path="url(#pe655e938cb)">
     <use style="fill:#17becf;stroke:#17becf;" x="116.611765" xlink:href="#m74d8b88d9d" y="185.930361"/>
    </g>
   </g>
   <g id="PathCollection_59">
    <g clip-path="url(#pe655e938cb)">
     <use style="fill:#17becf;stroke:#17becf;" x="124.270588" xlink:href="#m74d8b88d9d" y="184.7962"/>
    </g>
   </g>
   <g id="PathCollection_60">
    <g clip-path="url(#pe655e938cb)">
     <use style="fill:#17becf;stroke:#17becf;" x="131.929412" xlink:href="#m74d8b88d9d" y="183.549029"/>
    </g>
   </g>
   <g id="PathCollection_61">
    <g clip-path="url(#pe655e938cb)">
     <use style="fill:#17becf;stroke:#17becf;" x="139.588235" xlink:href="#m74d8b88d9d" y="182.195643"/>
    </g>
   </g>
   <g id="PathCollection_62">
    <g clip-path="url(#pe655e938cb)">
     <use style="fill:#17becf;stroke:#17becf;" x="147.247059" xlink:href="#m74d8b88d9d" y="180.736739"/>
    </g>
   </g>
   <g id="PathCollection_63">
    <g clip-path="url(#pe655e938cb)">
     <use style="fill:#17becf;stroke:#17becf;" x="154.905882" xlink:href="#m74d8b88d9d" y="179.168466"/>
    </g>
   </g>
   <g id="PathCollection_64">
    <g clip-path="url(#pe655e938cb)">
     <use style="fill:#17becf;stroke:#17becf;" x="162.564706" xlink:href="#m74d8b88d9d" y="177.483823"/>
    </g>
   </g>
   <g id="PathCollection_65">
    <g clip-path="url(#pe655e938cb)">
     <use style="fill:#17becf;stroke:#17becf;" x="170.223529" xlink:href="#m74d8b88d9d" y="175.673915"/>
    </g>
   </g>
   <g id="PathCollection_66">
    <g clip-path="url(#pe655e938cb)">
     <use style="fill:#17becf;stroke:#17becf;" x="177.882353" xlink:href="#m74d8b88d9d" y="173.729085"/>
    </g>
   </g>
   <g id="PathCollection_67">
    <g clip-path="url(#pe655e938cb)">
     <use style="fill:#17becf;stroke:#17becf;" x="185.541176" xlink:href="#m74d8b88d9d" y="171.639903"/>
    </g>
   </g>
   <g id="PathCollection_68">
    <g clip-path="url(#pe655e938cb)">
     <use style="fill:#17becf;stroke:#17becf;" x="193.2" xlink:href="#m74d8b88d9d" y="169.39803"/>
    </g>
   </g>
   <g id="PathCollection_69">
    <g clip-path="url(#pe655e938cb)">
     <use style="fill:#17becf;stroke:#17becf;" x="200.858824" xlink:href="#m74d8b88d9d" y="166.996958"/>
    </g>
   </g>
   <g id="PathCollection_70">
    <g clip-path="url(#pe655e938cb)">
     <use style="fill:#17becf;stroke:#17becf;" x="208.517647" xlink:href="#m74d8b88d9d" y="164.432626"/>
    </g>
   </g>
   <g id="PathCollection_71">
    <g clip-path="url(#pe655e938cb)">
     <use style="fill:#17becf;stroke:#17becf;" x="216.176471" xlink:href="#m74d8b88d9d" y="161.70392"/>
    </g>
   </g>
   <g id="PathCollection_72">
    <g clip-path="url(#pe655e938cb)">
     <use style="fill:#17becf;stroke:#17becf;" x="223.835294" xlink:href="#m74d8b88d9d" y="158.813057"/>
    </g>
   </g>
   <g id="PathCollection_73">
    <g clip-path="url(#pe655e938cb)">
     <use style="fill:#17becf;stroke:#17becf;" x="231.494118" xlink:href="#m74d8b88d9d" y="155.765856"/>
    </g>
   </g>
   <g id="PathCollection_74">
    <g clip-path="url(#pe655e938cb)">
     <use style="fill:#17becf;stroke:#17becf;" x="239.152941" xlink:href="#m74d8b88d9d" y="152.571905"/>
    </g>
   </g>
   <g id="PathCollection_75">
    <g clip-path="url(#pe655e938cb)">
     <use style="fill:#17becf;stroke:#17becf;" x="246.811765" xlink:href="#m74d8b88d9d" y="149.244621"/>
    </g>
   </g>
   <g id="PathCollection_76">
    <g clip-path="url(#pe655e938cb)">
     <use style="fill:#17becf;stroke:#17becf;" x="254.470588" xlink:href="#m74d8b88d9d" y="145.801209"/>
    </g>
   </g>
   <g id="PathCollection_77">
    <g clip-path="url(#pe655e938cb)">
     <use style="fill:#17becf;stroke:#17becf;" x="262.129412" xlink:href="#m74d8b88d9d" y="142.262524"/>
    </g>
   </g>
   <g id="PathCollection_78">
    <g clip-path="url(#pe655e938cb)">
     <use style="fill:#17becf;stroke:#17becf;" x="269.788235" xlink:href="#m74d8b88d9d" y="138.652841"/>
    </g>
   </g>
   <g id="PathCollection_79">
    <g clip-path="url(#pe655e938cb)">
     <use style="fill:#17becf;stroke:#17becf;" x="277.447059" xlink:href="#m74d8b88d9d" y="134.999533"/>
    </g>
   </g>
   <g id="PathCollection_80">
    <g clip-path="url(#pe655e938cb)">
     <use style="fill:#17becf;stroke:#17becf;" x="285.105882" xlink:href="#m74d8b88d9d" y="131.332658"/>
    </g>
   </g>
   <g id="PathCollection_81">
    <g clip-path="url(#pe655e938cb)">
     <use style="fill:#17becf;stroke:#17becf;" x="292.764706" xlink:href="#m74d8b88d9d" y="127.684473"/>
    </g>
   </g>
   <g id="PathCollection_82">
    <g clip-path="url(#pe655e938cb)">
     <use style="fill:#17becf;stroke:#17becf;" x="300.423529" xlink:href="#m74d8b88d9d" y="124.088857"/>
    </g>
   </g>
   <g id="PathCollection_83">
    <g clip-path="url(#pe655e938cb)">
     <use style="fill:#17becf;stroke:#17becf;" x="308.082353" xlink:href="#m74d8b88d9d" y="120.580662"/>
    </g>
   </g>
   <g id="PathCollection_84">
    <g clip-path="url(#pe655e938cb)">
     <use style="fill:#17becf;stroke:#17becf;" x="315.741176" xlink:href="#m74d8b88d9d" y="117.194995"/>
    </g>
   </g>
   <g id="PathCollection_85">
    <g clip-path="url(#pe655e938cb)">
     <use style="fill:#17becf;stroke:#17becf;" x="323.4" xlink:href="#m74d8b88d9d" y="113.966421"/>
    </g>
   </g>
   <g id="PathCollection_86">
    <g clip-path="url(#pe655e938cb)">
     <use style="fill:#17becf;stroke:#17becf;" x="331.058824" xlink:href="#m74d8b88d9d" y="110.92811"/>
    </g>
   </g>
   <g id="PathCollection_87">
    <g clip-path="url(#pe655e938cb)">
     <use style="fill:#17becf;stroke:#17becf;" x="338.717647" xlink:href="#m74d8b88d9d" y="108.110916"/>
    </g>
   </g>
   <g id="PathCollection_88">
    <g clip-path="url(#pe655e938cb)">
     <use style="fill:#17becf;stroke:#17becf;" x="346.376471" xlink:href="#m74d8b88d9d" y="105.542393"/>
    </g>
   </g>
   <g id="PathCollection_89">
    <g clip-path="url(#pe655e938cb)">
     <use style="fill:#17becf;stroke:#17becf;" x="354.035294" xlink:href="#m74d8b88d9d" y="103.24577"/>
    </g>
   </g>
   <g id="PathCollection_90">
    <g clip-path="url(#pe655e938cb)">
     <use style="fill:#17becf;stroke:#17becf;" x="361.694118" xlink:href="#m74d8b88d9d" y="101.238853"/>
    </g>
   </g>
   <g id="PathCollection_91">
    <g clip-path="url(#pe655e938cb)">
     <use style="fill:#17becf;stroke:#17becf;" x="369.352941" xlink:href="#m74d8b88d9d" y="99.532895"/>
    </g>
   </g>
   <g id="PathCollection_92">
    <g clip-path="url(#pe655e938cb)">
     <use style="fill:#17becf;stroke:#17becf;" x="377.011765" xlink:href="#m74d8b88d9d" y="98.131419"/>
    </g>
   </g>
   <g id="PathCollection_93">
    <g clip-path="url(#pe655e938cb)">
     <use style="fill:#17becf;stroke:#17becf;" x="384.670588" xlink:href="#m74d8b88d9d" y="97.028986"/>
    </g>
   </g>
   <g id="PathCollection_94">
    <g clip-path="url(#pe655e938cb)">
     <use style="fill:#17becf;stroke:#17becf;" x="392.329412" xlink:href="#m74d8b88d9d" y="96.209942"/>
    </g>
   </g>
   <g id="PathCollection_95">
    <g clip-path="url(#pe655e938cb)">
     <use style="fill:#17becf;stroke:#17becf;" x="399.988235" xlink:href="#m74d8b88d9d" y="95.647119"/>
    </g>
   </g>
   <g id="PathCollection_96">
    <g clip-path="url(#pe655e938cb)">
     <use style="fill:#17becf;stroke:#17becf;" x="407.647059" xlink:href="#m74d8b88d9d" y="95.30051"/>
    </g>
   </g>
   <g id="PathCollection_97">
    <g clip-path="url(#pe655e938cb)">
     <use style="fill:#17becf;stroke:#17becf;" x="415.305882" xlink:href="#m74d8b88d9d" y="95.115912"/>
    </g>
   </g>
   <g id="PathCollection_98">
    <g clip-path="url(#pe655e938cb)">
     <use style="fill:#17becf;stroke:#17becf;" x="422.964706" xlink:href="#m74d8b88d9d" y="95.02355"/>
    </g>
   </g>
   <g id="PathCollection_99">
    <g clip-path="url(#pe655e938cb)">
     <use style="fill:#17becf;stroke:#17becf;" x="430.623529" xlink:href="#m74d8b88d9d" y="94.936677"/>
    </g>
   </g>
   <g id="PathCollection_100">
    <g clip-path="url(#pe655e938cb)">
     <use style="fill:#17becf;stroke:#17becf;" x="438.282353" xlink:href="#m74d8b88d9d" y="94.750155"/>
    </g>
   </g>
   <g id="PathCollection_101">
    <g clip-path="url(#pe655e938cb)">
     <use style="fill:#17becf;stroke:#17becf;" x="445.941176" xlink:href="#m74d8b88d9d" y="94.339027"/>
    </g>
   </g>
   <g id="PathCollection_102">
    <g clip-path="url(#pe655e938cb)">
     <use style="fill:#17becf;stroke:#17becf;" x="453.6" xlink:href="#m74d8b88d9d" y="93.557073"/>
    </g>
   </g>
   <g id="matplotlib.axis_1"/>
   <g id="matplotlib.axis_2"/>
   <g id="line2d_1">
    <path clip-path="url(#pe655e938cb)" d="M 63 189 
L 109.272059 188.889778 
L 114.697059 188.573987 
L 120.217794 188.027809 
L 126.025735 187.226925 
L 132.152794 186.155155 
L 138.662794 184.788823 
L 145.651471 183.091839 
L 153.182647 181.03139 
L 161.415882 178.544303 
L 170.478824 175.570874 
L 180.754412 171.960129 
L 192.721324 167.512125 
L 207.719853 161.68697 
L 231.111176 152.329908 
L 263.916471 139.242999 
L 282.840147 131.940464 
L 293.753971 127.921717 
L 299.051324 126.230576 
L 304.316765 124.783874 
L 309.741765 123.525532 
L 315.358235 122.452373 
L 321.198088 121.563862 
L 327.293235 120.862216 
L 333.7075 120.349891 
L 340.440882 120.037102 
L 347.557206 119.930851 
L 355.120294 120.042212 
L 363.225882 120.386812 
L 371.969706 120.984858 
L 381.479412 121.862289 
L 391.946471 123.055651 
L 403.69 124.623587 
L 417.188676 126.656266 
L 433.495588 129.345675 
L 453.6 132.876672 
L 453.6 132.876672 
" style="fill:none;stroke:#17becf;stroke-dasharray:11.1,4.8;stroke-dashoffset:0;stroke-width:3;"/>
   </g>
   <g id="line2d_2">
    <path clip-path="url(#pe655e938cb)" d="M 63 189 
L 108.761471 188.889604 
L 113.739706 188.574892 
L 118.749853 188.032538 
L 123.951471 187.244685 
L 129.440294 186.18633 
L 135.248235 184.836967 
L 141.407206 183.175186 
L 148.012941 181.159001 
L 155.097353 178.761502 
L 162.82 175.909936 
L 171.340441 172.522032 
L 180.913971 168.469785 
L 191.955441 163.547522 
L 205.390294 157.305853 
L 224.473529 148.174421 
L 264.905735 128.788395 
L 282.521029 120.630551 
L 293.211471 115.883421 
L 298.157794 113.951576 
L 302.976471 112.308076 
L 307.922794 110.857359 
L 312.996765 109.601502 
L 318.262206 108.5286 
L 323.719118 107.644936 
L 329.399412 106.951655 
L 335.335 106.452803 
L 341.557794 106.154725 
L 348.099706 106.065448 
L 355.024559 106.195132 
L 362.396176 106.558073 
L 370.278382 107.171366 
L 378.798824 108.060908 
L 388.053235 109.25387 
L 398.296912 110.803008 
L 409.817059 112.775694 
L 423.156176 115.292469 
L 439.431176 118.599054 
L 453.6 121.609524 
L 453.6 121.609524 
" style="fill:none;stroke:#17becf;stroke-linecap:square;stroke-width:3;"/>
   </g>
   <g id="patch_3">
    <path d="M 63 189 
L 63 25.92 
" style="fill:none;stroke:#000000;stroke-linecap:square;stroke-linejoin:miter;stroke-width:0.8;"/>
   </g>
   <g id="patch_4">
    <path d="M 453.6 189 
L 453.6 25.92 
" style="fill:none;stroke:#000000;stroke-linecap:square;stroke-linejoin:miter;stroke-width:0.8;"/>
   </g>
   <g id="patch_5">
    <path d="M 63 189 
L 453.6 189 
" style="fill:none;stroke:#000000;stroke-linecap:square;stroke-linejoin:miter;stroke-width:0.8;"/>
   </g>
   <g id="patch_6">
    <path d="M 63 25.92 
L 453.6 25.92 
" style="fill:none;stroke:#000000;stroke-linecap:square;stroke-linejoin:miter;stroke-width:0.8;"/>
   </g>
  </g>
 </g>
 <defs>
  <clipPath id="pe655e938cb">
   <rect height="163.08" width="390.6" x="63" y="25.92"/>
  </clipPath>
 </defs>
</svg>
