<?xml version="1.0" encoding="utf-8" standalone="no"?>
<!DOCTYPE svg PUBLIC "-//W3C//DTD SVG 1.1//EN"
  "http://www.w3.org/Graphics/SVG/1.1/DTD/svg11.dtd">
<!-- Created with matplotlib (https://matplotlib.org/) -->
<svg height="216pt" version="1.1" viewBox="0 0 504 216" width="504pt" xmlns="http://www.w3.org/2000/svg" xmlns:xlink="http://www.w3.org/1999/xlink">
 <metadata>
  <rdf:RDF xmlns:cc="http://creativecommons.org/ns#" xmlns:dc="http://purl.org/dc/elements/1.1/" xmlns:rdf="http://www.w3.org/1999/02/22-rdf-syntax-ns#">
   <cc:Work>
    <dc:type rdf:resource="http://purl.org/dc/dcmitype/StillImage"/>
    <dc:date>2024-11-24T08:57:39.189842</dc:date>
    <dc:format>image/svg+xml</dc:format>
    <dc:creator>
     <cc:Agent>
      <dc:title>Matplotlib v3.3.2, https://matplotlib.org/</dc:title>
     </cc:Agent>
    </dc:creator>
   </cc:Work>
  </rdf:RDF>
 </metadata>
 <defs>
  <style type="text/css">*{stroke-linecap:butt;stroke-linejoin:round;}</style>
 </defs>
 <g id="figure_1">
  <g id="patch_1">
   <path d="M 0 216 
L 504 216 
L 504 0 
L 0 0 
z
" style="fill:none;"/>
  </g>
  <g id="axes_1">
   <g id="patch_2">
    <path d="M 63 189 
L 453.6 189 
L 453.6 25.92 
L 63 25.92 
z
" style="fill:#ffffff;"/>
   </g>
   <g id="PathCollection_1">
    <path clip-path="url(#p47123a09a5)" d="M 70.658824 193.66167 
C 71.984839 193.66167 73.256723 193.134839 74.194357 192.197204 
C 75.131992 191.25957 75.658824 189.987686 75.658824 188.66167 
C 75.658824 187.335655 75.131992 186.063771 74.194357 185.126136 
C 73.256723 184.188502 71.984839 183.66167 70.658824 183.66167 
C 69.332808 183.66167 68.060924 184.188502 67.12329 185.126136 
C 66.185655 186.063771 65.658824 187.335655 65.658824 188.66167 
C 65.658824 189.987686 66.185655 191.25957 67.12329 192.197204 
C 68.060924 193.134839 69.332808 193.66167 70.658824 193.66167 
z
" style="fill:none;stroke:#c5b0d5;"/>
   </g>
   <g id="PathCollection_2">
    <path clip-path="url(#p47123a09a5)" d="M 78.317647 193.530483 
C 79.643663 193.530483 80.915546 193.003651 81.853181 192.066016 
C 82.790816 191.128382 83.317647 189.856498 83.317647 188.530483 
C 83.317647 187.204467 82.790816 185.932583 81.853181 184.994949 
C 80.915546 184.057314 79.643663 183.530483 78.317647 183.530483 
C 76.991632 183.530483 75.719748 184.057314 74.782113 184.994949 
C 73.844479 185.932583 73.317647 187.204467 73.317647 188.530483 
C 73.317647 189.856498 73.844479 191.128382 74.782113 192.066016 
C 75.719748 193.003651 76.991632 193.530483 78.317647 193.530483 
z
" style="fill:none;stroke:#c5b0d5;"/>
   </g>
   <g id="PathCollection_3">
    <path clip-path="url(#p47123a09a5)" d="M 85.976471 193.334377 
C 87.302486 193.334377 88.57437 192.807545 89.512004 191.86991 
C 90.449639 190.932276 90.976471 189.660392 90.976471 188.334377 
C 90.976471 187.008361 90.449639 185.736477 89.512004 184.798843 
C 88.57437 183.861208 87.302486 183.334377 85.976471 183.334377 
C 84.650455 183.334377 83.378571 183.861208 82.440937 184.798843 
C 81.503302 185.736477 80.976471 187.008361 80.976471 188.334377 
C 80.976471 189.660392 81.503302 190.932276 82.440937 191.86991 
C 83.378571 192.807545 84.650455 193.334377 85.976471 193.334377 
z
" style="fill:none;stroke:#c5b0d5;"/>
   </g>
   <g id="PathCollection_4">
    <path clip-path="url(#p47123a09a5)" d="M 93.635294 193.044351 
C 94.96131 193.044351 96.233193 192.51752 97.170828 191.579885 
C 98.108463 190.642251 98.635294 189.370367 98.635294 188.044351 
C 98.635294 186.718336 98.108463 185.446452 97.170828 184.508817 
C 96.233193 183.571183 94.96131 183.044351 93.635294 183.044351 
C 92.309279 183.044351 91.037395 183.571183 90.09976 184.508817 
C 89.162126 185.446452 88.635294 186.718336 88.635294 188.044351 
C 88.635294 189.370367 89.162126 190.642251 90.09976 191.579885 
C 91.037395 192.51752 92.309279 193.044351 93.635294 193.044351 
z
" style="fill:none;stroke:#c5b0d5;"/>
   </g>
   <g id="PathCollection_5">
    <path clip-path="url(#p47123a09a5)" d="M 101.294118 192.633073 
C 102.620133 192.633073 103.892017 192.106241 104.829652 191.168606 
C 105.767286 190.230972 106.294118 188.959088 106.294118 187.633073 
C 106.294118 186.307057 105.767286 185.035173 104.829652 184.097539 
C 103.892017 183.159904 102.620133 182.633073 101.294118 182.633073 
C 99.968102 182.633073 98.696218 183.159904 97.758584 184.097539 
C 96.820949 185.035173 96.294118 186.307057 96.294118 187.633073 
C 96.294118 188.959088 96.820949 190.230972 97.758584 191.168606 
C 98.696218 192.106241 99.968102 192.633073 101.294118 192.633073 
z
" style="fill:none;stroke:#c5b0d5;"/>
   </g>
   <g id="PathCollection_6">
    <path clip-path="url(#p47123a09a5)" d="M 108.952941 192.085839 
C 110.278957 192.085839 111.550841 191.559008 112.488475 190.621373 
C 113.42611 189.683739 113.952941 188.411855 113.952941 187.085839 
C 113.952941 185.759824 113.42611 184.48794 112.488475 183.550305 
C 111.550841 182.612671 110.278957 182.085839 108.952941 182.085839 
C 107.626926 182.085839 106.355042 182.612671 105.417407 183.550305 
C 104.479773 184.48794 103.952941 185.759824 103.952941 187.085839 
C 103.952941 188.411855 104.479773 189.683739 105.417407 190.621373 
C 106.355042 191.559008 107.626926 192.085839 108.952941 192.085839 
z
" style="fill:none;stroke:#c5b0d5;"/>
   </g>
   <g id="PathCollection_7">
    <path clip-path="url(#p47123a09a5)" d="M 116.611765 191.386899 
C 117.93778 191.386899 119.209664 190.860068 120.147299 189.922433 
C 121.084933 188.984799 121.611765 187.712915 121.611765 186.386899 
C 121.611765 185.060884 121.084933 183.789 120.147299 182.851365 
C 119.209664 181.913731 117.93778 181.386899 116.611765 181.386899 
C 115.285749 181.386899 114.013865 181.913731 113.076231 182.851365 
C 112.138596 183.789 111.611765 185.060884 111.611765 186.386899 
C 111.611765 187.712915 112.138596 188.984799 113.076231 189.922433 
C 114.013865 190.860068 115.285749 191.386899 116.611765 191.386899 
z
" style="fill:none;stroke:#c5b0d5;"/>
   </g>
   <g id="PathCollection_8">
    <path clip-path="url(#p47123a09a5)" d="M 124.270588 190.524648 
C 125.596604 190.524648 126.868488 189.997816 127.806122 189.060182 
C 128.743757 188.122547 129.270588 186.850663 129.270588 185.524648 
C 129.270588 184.198632 128.743757 182.926748 127.806122 181.989114 
C 126.868488 181.051479 125.596604 180.524648 124.270588 180.524648 
C 122.944573 180.524648 121.672689 181.051479 120.735054 181.989114 
C 119.79742 182.926748 119.270588 184.198632 119.270588 185.524648 
C 119.270588 186.850663 119.79742 188.122547 120.735054 189.060182 
C 121.672689 189.997816 122.944573 190.524648 124.270588 190.524648 
z
" style="fill:none;stroke:#c5b0d5;"/>
   </g>
   <g id="PathCollection_9">
    <path clip-path="url(#p47123a09a5)" d="M 131.929412 189.489563 
C 133.255427 189.489563 134.527311 188.962731 135.464946 188.025097 
C 136.40258 187.087462 136.929412 185.815579 136.929412 184.489563 
C 136.929412 183.163548 136.40258 181.891664 135.464946 180.954029 
C 134.527311 180.016395 133.255427 179.489563 131.929412 179.489563 
C 130.603396 179.489563 129.331512 180.016395 128.393878 180.954029 
C 127.456243 181.891664 126.929412 183.163548 126.929412 184.489563 
C 126.929412 185.815579 127.456243 187.087462 128.393878 188.025097 
C 129.331512 188.962731 130.603396 189.489563 131.929412 189.489563 
z
" style="fill:none;stroke:#c5b0d5;"/>
   </g>
   <g id="PathCollection_10">
    <path clip-path="url(#p47123a09a5)" d="M 139.588235 188.273575 
C 140.914251 188.273575 142.186135 187.746743 143.123769 186.809109 
C 144.061404 185.871474 144.588235 184.59959 144.588235 183.273575 
C 144.588235 181.947559 144.061404 180.675676 143.123769 179.738041 
C 142.186135 178.800407 140.914251 178.273575 139.588235 178.273575 
C 138.26222 178.273575 136.990336 178.800407 136.052701 179.738041 
C 135.115067 180.675676 134.588235 181.947559 134.588235 183.273575 
C 134.588235 184.59959 135.115067 185.871474 136.052701 186.809109 
C 136.990336 187.746743 138.26222 188.273575 139.588235 188.273575 
z
" style="fill:none;stroke:#c5b0d5;"/>
   </g>
   <g id="PathCollection_11">
    <path clip-path="url(#p47123a09a5)" d="M 147.247059 186.869604 
C 148.573074 186.869604 149.844958 186.342772 150.782593 185.405138 
C 151.720227 184.467503 152.247059 183.195619 152.247059 181.869604 
C 152.247059 180.543588 151.720227 179.271705 150.782593 178.33407 
C 149.844958 177.396435 148.573074 176.869604 147.247059 176.869604 
C 145.921043 176.869604 144.649159 177.396435 143.711525 178.33407 
C 142.77389 179.271705 142.247059 180.543588 142.247059 181.869604 
C 142.247059 183.195619 142.77389 184.467503 143.711525 185.405138 
C 144.649159 186.342772 145.921043 186.869604 147.247059 186.869604 
z
" style="fill:none;stroke:#c5b0d5;"/>
   </g>
   <g id="PathCollection_12">
    <path clip-path="url(#p47123a09a5)" d="M 154.905882 185.271258 
C 156.231898 185.271258 157.503782 184.744427 158.441416 183.806792 
C 159.379051 182.869158 159.905882 181.597274 159.905882 180.271258 
C 159.905882 178.945243 159.379051 177.673359 158.441416 176.735725 
C 157.503782 175.79809 156.231898 175.271258 154.905882 175.271258 
C 153.579867 175.271258 152.307983 175.79809 151.370348 176.735725 
C 150.432714 177.673359 149.905882 178.945243 149.905882 180.271258 
C 149.905882 181.597274 150.432714 182.869158 151.370348 183.806792 
C 152.307983 184.744427 153.579867 185.271258 154.905882 185.271258 
z
" style="fill:none;stroke:#c5b0d5;"/>
   </g>
   <g id="PathCollection_13">
    <path clip-path="url(#p47123a09a5)" d="M 162.564706 183.472672 
C 163.890721 183.472672 165.162605 182.94584 166.10024 182.008206 
C 167.037874 181.070571 167.564706 179.798687 167.564706 178.472672 
C 167.564706 177.146656 167.037874 175.874772 166.10024 174.937138 
C 165.162605 173.999503 163.890721 173.472672 162.564706 173.472672 
C 161.23869 173.472672 159.966807 173.999503 159.029172 174.937138 
C 158.091537 175.874772 157.564706 177.146656 157.564706 178.472672 
C 157.564706 179.798687 158.091537 181.070571 159.029172 182.008206 
C 159.966807 182.94584 161.23869 183.472672 162.564706 183.472672 
z
" style="fill:none;stroke:#c5b0d5;"/>
   </g>
   <g id="PathCollection_14">
    <path clip-path="url(#p47123a09a5)" d="M 170.223529 181.468461 
C 171.549545 181.468461 172.821429 180.94163 173.759063 180.003995 
C 174.696698 179.066361 175.223529 177.794477 175.223529 176.468461 
C 175.223529 175.142446 174.696698 173.870562 173.759063 172.932927 
C 172.821429 171.995293 171.549545 171.468461 170.223529 171.468461 
C 168.897514 171.468461 167.62563 171.995293 166.687996 172.932927 
C 165.750361 173.870562 165.223529 175.142446 165.223529 176.468461 
C 165.223529 177.794477 165.750361 179.066361 166.687996 180.003995 
C 167.62563 180.94163 168.897514 181.468461 170.223529 181.468461 
z
" style="fill:none;stroke:#c5b0d5;"/>
   </g>
   <g id="PathCollection_15">
    <path clip-path="url(#p47123a09a5)" d="M 177.882353 179.253802 
C 179.208368 179.253802 180.480252 178.726971 181.417887 177.789336 
C 182.355521 176.851702 182.882353 175.579818 182.882353 174.253802 
C 182.882353 172.927787 182.355521 171.655903 181.417887 170.718268 
C 180.480252 169.780634 179.208368 169.253802 177.882353 169.253802 
C 176.556337 169.253802 175.284454 169.780634 174.346819 170.718268 
C 173.409184 171.655903 172.882353 172.927787 172.882353 174.253802 
C 172.882353 175.579818 173.409184 176.851702 174.346819 177.789336 
C 175.284454 178.726971 176.556337 179.253802 177.882353 179.253802 
z
" style="fill:none;stroke:#c5b0d5;"/>
   </g>
   <g id="PathCollection_16">
    <path clip-path="url(#p47123a09a5)" d="M 185.541176 176.824591 
C 186.867192 176.824591 188.139076 176.297759 189.07671 175.360125 
C 190.014345 174.42249 190.541176 173.150606 190.541176 171.824591 
C 190.541176 170.498575 190.014345 169.226691 189.07671 168.289057 
C 188.139076 167.351422 186.867192 166.824591 185.541176 166.824591 
C 184.215161 166.824591 182.943277 167.351422 182.005643 168.289057 
C 181.068008 169.226691 180.541176 170.498575 180.541176 171.824591 
C 180.541176 173.150606 181.068008 174.42249 182.005643 175.360125 
C 182.943277 176.297759 184.215161 176.824591 185.541176 176.824591 
z
" style="fill:none;stroke:#c5b0d5;"/>
   </g>
   <g id="PathCollection_17">
    <path clip-path="url(#p47123a09a5)" d="M 193.2 174.177686 
C 194.526016 174.177686 195.797899 173.650854 196.735534 172.71322 
C 197.673168 171.775585 198.2 170.503701 198.2 169.177686 
C 198.2 167.85167 197.673168 166.579786 196.735534 165.642152 
C 195.797899 164.704517 194.526016 164.177686 193.2 164.177686 
C 191.873985 164.177686 190.602101 164.704517 189.664466 165.642152 
C 188.726832 166.579786 188.2 167.85167 188.2 169.177686 
C 188.2 170.503701 188.726832 171.775585 189.664466 172.71322 
C 190.602101 173.650854 191.873985 174.177686 193.2 174.177686 
z
" style="fill:none;stroke:#c5b0d5;"/>
   </g>
   <g id="PathCollection_18">
    <path clip-path="url(#p47123a09a5)" d="M 200.858824 171.311213 
C 202.184839 171.311213 203.456723 170.784382 204.394357 169.846747 
C 205.331992 168.909113 205.858824 167.637229 205.858824 166.311213 
C 205.858824 164.985198 205.331992 163.713314 204.394357 162.775679 
C 203.456723 161.838045 202.184839 161.311213 200.858824 161.311213 
C 199.532808 161.311213 198.260924 161.838045 197.32329 162.775679 
C 196.385655 163.713314 195.858824 164.985198 195.858824 166.311213 
C 195.858824 167.637229 196.385655 168.909113 197.32329 169.846747 
C 198.260924 170.784382 199.532808 171.311213 200.858824 171.311213 
z
" style="fill:none;stroke:#c5b0d5;"/>
   </g>
   <g id="PathCollection_19">
    <path clip-path="url(#p47123a09a5)" d="M 208.517647 168.224917 
C 209.843663 168.224917 211.115546 167.698086 212.053181 166.760451 
C 212.990816 165.822817 213.517647 164.550933 213.517647 163.224917 
C 213.517647 161.898902 212.990816 160.627018 212.053181 159.689383 
C 211.115546 158.751749 209.843663 158.224917 208.517647 158.224917 
C 207.191632 158.224917 205.919748 158.751749 204.982113 159.689383 
C 204.044479 160.627018 203.517647 161.898902 203.517647 163.224917 
C 203.517647 164.550933 204.044479 165.822817 204.982113 166.760451 
C 205.919748 167.698086 207.191632 168.224917 208.517647 168.224917 
z
" style="fill:none;stroke:#c5b0d5;"/>
   </g>
   <g id="PathCollection_20">
    <path clip-path="url(#p47123a09a5)" d="M 216.176471 164.920542 
C 217.502486 164.920542 218.77437 164.393711 219.712004 163.456076 
C 220.649639 162.518442 221.176471 161.246558 221.176471 159.920542 
C 221.176471 158.594527 220.649639 157.322643 219.712004 156.385009 
C 218.77437 155.447374 217.502486 154.920542 216.176471 154.920542 
C 214.850455 154.920542 213.578571 155.447374 212.640937 156.385009 
C 211.703302 157.322643 211.176471 158.594527 211.176471 159.920542 
C 211.176471 161.246558 211.703302 162.518442 212.640937 163.456076 
C 213.578571 164.393711 214.850455 164.920542 216.176471 164.920542 
z
" style="fill:none;stroke:#c5b0d5;"/>
   </g>
   <g id="PathCollection_21">
    <path clip-path="url(#p47123a09a5)" d="M 223.835294 161.402228 
C 225.16131 161.402228 226.433193 160.875397 227.370828 159.937762 
C 228.308463 159.000128 228.835294 157.728244 228.835294 156.402228 
C 228.835294 155.076213 228.308463 153.804329 227.370828 152.866695 
C 226.433193 151.92906 225.16131 151.402228 223.835294 151.402228 
C 222.509279 151.402228 221.237395 151.92906 220.29976 152.866695 
C 219.362126 153.804329 218.835294 155.076213 218.835294 156.402228 
C 218.835294 157.728244 219.362126 159.000128 220.29976 159.937762 
C 221.237395 160.875397 222.509279 161.402228 223.835294 161.402228 
z
" style="fill:none;stroke:#c5b0d5;"/>
   </g>
   <g id="PathCollection_22">
    <path clip-path="url(#p47123a09a5)" d="M 231.494118 157.676907 
C 232.820133 157.676907 234.092017 157.150076 235.029652 156.212441 
C 235.967286 155.274807 236.494118 154.002923 236.494118 152.676907 
C 236.494118 151.350892 235.967286 150.079008 235.029652 149.141373 
C 234.092017 148.203739 232.820133 147.676907 231.494118 147.676907 
C 230.168102 147.676907 228.896218 148.203739 227.958584 149.141373 
C 227.020949 150.079008 226.494118 151.350892 226.494118 152.676907 
C 226.494118 154.002923 227.020949 155.274807 227.958584 156.212441 
C 228.896218 157.150076 230.168102 157.676907 231.494118 157.676907 
z
" style="fill:none;stroke:#c5b0d5;"/>
   </g>
   <g id="PathCollection_23">
    <path clip-path="url(#p47123a09a5)" d="M 239.152941 153.754683 
C 240.478957 153.754683 241.750841 153.227851 242.688475 152.290216 
C 243.62611 151.352582 244.152941 150.080698 244.152941 148.754683 
C 244.152941 147.428667 243.62611 146.156783 242.688475 145.219149 
C 241.750841 144.281514 240.478957 143.754683 239.152941 143.754683 
C 237.826926 143.754683 236.555042 144.281514 235.617407 145.219149 
C 234.679773 146.156783 234.152941 147.428667 234.152941 148.754683 
C 234.152941 150.080698 234.679773 151.352582 235.617407 152.290216 
C 236.555042 153.227851 237.826926 153.754683 239.152941 153.754683 
z
" style="fill:none;stroke:#c5b0d5;"/>
   </g>
   <g id="PathCollection_24">
    <path clip-path="url(#p47123a09a5)" d="M 246.811765 149.649178 
C 248.13778 149.649178 249.409664 149.122347 250.347299 148.184712 
C 251.284933 147.247077 251.811765 145.975194 251.811765 144.649178 
C 251.811765 143.323163 251.284933 142.051279 250.347299 141.113644 
C 249.409664 140.17601 248.13778 139.649178 246.811765 139.649178 
C 245.485749 139.649178 244.213865 140.17601 243.276231 141.113644 
C 242.338596 142.051279 241.811765 143.323163 241.811765 144.649178 
C 241.811765 145.975194 242.338596 147.247077 243.276231 148.184712 
C 244.213865 149.122347 245.485749 149.649178 246.811765 149.649178 
z
" style="fill:none;stroke:#c5b0d5;"/>
   </g>
   <g id="PathCollection_25">
    <path clip-path="url(#p47123a09a5)" d="M 254.470588 145.377837 
C 255.796604 145.377837 257.068488 144.851005 258.006122 143.913371 
C 258.943757 142.975736 259.470588 141.703852 259.470588 140.377837 
C 259.470588 139.051821 258.943757 137.779938 258.006122 136.842303 
C 257.068488 135.904668 255.796604 135.377837 254.470588 135.377837 
C 253.144573 135.377837 251.872689 135.904668 250.935054 136.842303 
C 249.99742 137.779938 249.470588 139.051821 249.470588 140.377837 
C 249.470588 141.703852 249.99742 142.975736 250.935054 143.913371 
C 251.872689 144.851005 253.144573 145.377837 254.470588 145.377837 
z
" style="fill:none;stroke:#c5b0d5;"/>
   </g>
   <g id="PathCollection_26">
    <path clip-path="url(#p47123a09a5)" d="M 262.129412 140.962159 
C 263.455427 140.962159 264.727311 140.435327 265.664946 139.497693 
C 266.60258 138.560058 267.129412 137.288174 267.129412 135.962159 
C 267.129412 134.636143 266.60258 133.364259 265.664946 132.426625 
C 264.727311 131.48899 263.455427 130.962159 262.129412 130.962159 
C 260.803396 130.962159 259.531512 131.48899 258.593878 132.426625 
C 257.656243 133.364259 257.129412 134.636143 257.129412 135.962159 
C 257.129412 137.288174 257.656243 138.560058 258.593878 139.497693 
C 259.531512 140.435327 260.803396 140.962159 262.129412 140.962159 
z
" style="fill:none;stroke:#c5b0d5;"/>
   </g>
   <g id="PathCollection_27">
    <path clip-path="url(#p47123a09a5)" d="M 269.788235 136.427857 
C 271.114251 136.427857 272.386135 135.901025 273.323769 134.963391 
C 274.261404 134.025756 274.788235 132.753872 274.788235 131.427857 
C 274.788235 130.101841 274.261404 128.829957 273.323769 127.892323 
C 272.386135 126.954688 271.114251 126.427857 269.788235 126.427857 
C 268.46222 126.427857 267.190336 126.954688 266.252701 127.892323 
C 265.315067 128.829957 264.788235 130.101841 264.788235 131.427857 
C 264.788235 132.753872 265.315067 134.025756 266.252701 134.963391 
C 267.190336 135.901025 268.46222 136.427857 269.788235 136.427857 
z
" style="fill:none;stroke:#c5b0d5;"/>
   </g>
   <g id="PathCollection_28">
    <path clip-path="url(#p47123a09a5)" d="M 277.447059 131.804922 
C 278.773074 131.804922 280.044958 131.27809 280.982593 130.340456 
C 281.920227 129.402821 282.447059 128.130937 282.447059 126.804922 
C 282.447059 125.478906 281.920227 124.207022 280.982593 123.269388 
C 280.044958 122.331753 278.773074 121.804922 277.447059 121.804922 
C 276.121043 121.804922 274.849159 122.331753 273.911525 123.269388 
C 272.97389 124.207022 272.447059 125.478906 272.447059 126.804922 
C 272.447059 128.130937 272.97389 129.402821 273.911525 130.340456 
C 274.849159 131.27809 276.121043 131.804922 277.447059 131.804922 
z
" style="fill:none;stroke:#c5b0d5;"/>
   </g>
   <g id="PathCollection_29">
    <path clip-path="url(#p47123a09a5)" d="M 285.105882 127.127574 
C 286.431898 127.127574 287.703782 126.600743 288.641416 125.663108 
C 289.579051 124.725474 290.105882 123.45359 290.105882 122.127574 
C 290.105882 120.801559 289.579051 119.529675 288.641416 118.59204 
C 287.703782 117.654406 286.431898 117.127574 285.105882 117.127574 
C 283.779867 117.127574 282.507983 117.654406 281.570348 118.59204 
C 280.632714 119.529675 280.105882 120.801559 280.105882 122.127574 
C 280.105882 123.45359 280.632714 124.725474 281.570348 125.663108 
C 282.507983 126.600743 283.779867 127.127574 285.105882 127.127574 
z
" style="fill:none;stroke:#c5b0d5;"/>
   </g>
   <g id="PathCollection_30">
    <path clip-path="url(#p47123a09a5)" d="M 292.764706 122.434091 
C 294.090721 122.434091 295.362605 121.907259 296.30024 120.969625 
C 297.237874 120.03199 297.764706 118.760106 297.764706 117.434091 
C 297.764706 116.108075 297.237874 114.836192 296.30024 113.898557 
C 295.362605 112.960922 294.090721 112.434091 292.764706 112.434091 
C 291.43869 112.434091 290.166807 112.960922 289.229172 113.898557 
C 288.291537 114.836192 287.764706 116.108075 287.764706 117.434091 
C 287.764706 118.760106 288.291537 120.03199 289.229172 120.969625 
C 290.166807 121.907259 291.43869 122.434091 292.764706 122.434091 
z
" style="fill:none;stroke:#c5b0d5;"/>
   </g>
   <g id="PathCollection_31">
    <path clip-path="url(#p47123a09a5)" d="M 300.423529 117.76649 
C 301.749545 117.76649 303.021429 117.239658 303.959063 116.302024 
C 304.896698 115.364389 305.423529 114.092505 305.423529 112.76649 
C 305.423529 111.440474 304.896698 110.16859 303.959063 109.230956 
C 303.021429 108.293321 301.749545 107.76649 300.423529 107.76649 
C 299.097514 107.76649 297.82563 108.293321 296.887996 109.230956 
C 295.950361 110.16859 295.423529 111.440474 295.423529 112.76649 
C 295.423529 114.092505 295.950361 115.364389 296.887996 116.302024 
C 297.82563 117.239658 299.097514 117.76649 300.423529 117.76649 
z
" style="fill:none;stroke:#c5b0d5;"/>
   </g>
   <g id="PathCollection_32">
    <path clip-path="url(#p47123a09a5)" d="M 308.082353 113.170057 
C 309.408368 113.170057 310.680252 112.643226 311.617887 111.705591 
C 312.555521 110.767957 313.082353 109.496073 313.082353 108.170057 
C 313.082353 106.844042 312.555521 105.572158 311.617887 104.634523 
C 310.680252 103.696889 309.408368 103.170057 308.082353 103.170057 
C 306.756337 103.170057 305.484454 103.696889 304.546819 104.634523 
C 303.609184 105.572158 303.082353 106.844042 303.082353 108.170057 
C 303.082353 109.496073 303.609184 110.767957 304.546819 111.705591 
C 305.484454 112.643226 306.756337 113.170057 308.082353 113.170057 
z
" style="fill:none;stroke:#c5b0d5;"/>
   </g>
   <g id="PathCollection_33">
    <path clip-path="url(#p47123a09a5)" d="M 315.741176 108.692702 
C 317.067192 108.692702 318.339076 108.165871 319.27671 107.228236 
C 320.214345 106.290602 320.741176 105.018718 320.741176 103.692702 
C 320.741176 102.366687 320.214345 101.094803 319.27671 100.157168 
C 318.339076 99.219534 317.067192 98.692702 315.741176 98.692702 
C 314.415161 98.692702 313.143277 99.219534 312.205643 100.157168 
C 311.268008 101.094803 310.741176 102.366687 310.741176 103.692702 
C 310.741176 105.018718 311.268008 106.290602 312.205643 107.228236 
C 313.143277 108.165871 314.415161 108.692702 315.741176 108.692702 
z
" style="fill:none;stroke:#c5b0d5;"/>
   </g>
   <g id="PathCollection_34">
    <path clip-path="url(#p47123a09a5)" d="M 323.4 104.384122 
C 324.726016 104.384122 325.997899 103.857291 326.935534 102.919656 
C 327.873168 101.982022 328.4 100.710138 328.4 99.384122 
C 328.4 98.058107 327.873168 96.786223 326.935534 95.848588 
C 325.997899 94.910954 324.726016 94.384122 323.4 94.384122 
C 322.073985 94.384122 320.802101 94.910954 319.864466 95.848588 
C 318.926832 96.786223 318.4 98.058107 318.4 99.384122 
C 318.4 100.710138 318.926832 101.982022 319.864466 102.919656 
C 320.802101 103.857291 322.073985 104.384122 323.4 104.384122 
z
" style="fill:none;stroke:#c5b0d5;"/>
   </g>
   <g id="PathCollection_35">
    <path clip-path="url(#p47123a09a5)" d="M 331.058824 100.294763 
C 332.384839 100.294763 333.656723 99.767932 334.594357 98.830297 
C 335.531992 97.892663 336.058824 96.620779 336.058824 95.294763 
C 336.058824 93.968748 335.531992 92.696864 334.594357 91.759229 
C 333.656723 90.821595 332.384839 90.294763 331.058824 90.294763 
C 329.732808 90.294763 328.460924 90.821595 327.52329 91.759229 
C 326.585655 92.696864 326.058824 93.968748 326.058824 95.294763 
C 326.058824 96.620779 326.585655 97.892663 327.52329 98.830297 
C 328.460924 99.767932 329.732808 100.294763 331.058824 100.294763 
z
" style="fill:none;stroke:#c5b0d5;"/>
   </g>
   <g id="PathCollection_36">
    <path clip-path="url(#p47123a09a5)" d="M 338.717647 96.474562 
C 340.043663 96.474562 341.315546 95.94773 342.253181 95.010096 
C 343.190816 94.072461 343.717647 92.800577 343.717647 91.474562 
C 343.717647 90.148546 343.190816 88.876662 342.253181 87.939028 
C 341.315546 87.001393 340.043663 86.474562 338.717647 86.474562 
C 337.391632 86.474562 336.119748 87.001393 335.182113 87.939028 
C 334.244479 88.876662 333.717647 90.148546 333.717647 91.474562 
C 333.717647 92.800577 334.244479 94.072461 335.182113 95.010096 
C 336.119748 95.94773 337.391632 96.474562 338.717647 96.474562 
z
" style="fill:none;stroke:#c5b0d5;"/>
   </g>
   <g id="PathCollection_37">
    <path clip-path="url(#p47123a09a5)" d="M 346.376471 92.971449 
C 347.702486 92.971449 348.97437 92.444617 349.912004 91.506983 
C 350.849639 90.569348 351.376471 89.297464 351.376471 87.971449 
C 351.376471 86.645433 350.849639 85.373549 349.912004 84.435915 
C 348.97437 83.49828 347.702486 82.971449 346.376471 82.971449 
C 345.050455 82.971449 343.778571 83.49828 342.840937 84.435915 
C 341.903302 85.373549 341.376471 86.645433 341.376471 87.971449 
C 341.376471 89.297464 341.903302 90.569348 342.840937 91.506983 
C 343.778571 92.444617 345.050455 92.971449 346.376471 92.971449 
z
" style="fill:none;stroke:#c5b0d5;"/>
   </g>
   <g id="PathCollection_38">
    <path clip-path="url(#p47123a09a5)" d="M 354.035294 89.829603 
C 355.36131 89.829603 356.633193 89.302771 357.570828 88.365137 
C 358.508463 87.427502 359.035294 86.155619 359.035294 84.829603 
C 359.035294 83.503588 358.508463 82.231704 357.570828 81.294069 
C 356.633193 80.356435 355.36131 79.829603 354.035294 79.829603 
C 352.709279 79.829603 351.437395 80.356435 350.49976 81.294069 
C 349.562126 82.231704 349.035294 83.503588 349.035294 84.829603 
C 349.035294 86.155619 349.562126 87.427502 350.49976 88.365137 
C 351.437395 89.302771 352.709279 89.829603 354.035294 89.829603 
z
" style="fill:none;stroke:#c5b0d5;"/>
   </g>
   <g id="PathCollection_39">
    <path clip-path="url(#p47123a09a5)" d="M 361.694118 87.087438 
C 363.020133 87.087438 364.292017 86.560606 365.229652 85.622972 
C 366.167286 84.685337 366.694118 83.413453 366.694118 82.087438 
C 366.694118 80.761422 366.167286 79.489539 365.229652 78.551904 
C 364.292017 77.614269 363.020133 77.087438 361.694118 77.087438 
C 360.368102 77.087438 359.096218 77.614269 358.158584 78.551904 
C 357.220949 79.489539 356.694118 80.761422 356.694118 82.087438 
C 356.694118 83.413453 357.220949 84.685337 358.158584 85.622972 
C 359.096218 86.560606 360.368102 87.087438 361.694118 87.087438 
z
" style="fill:none;stroke:#c5b0d5;"/>
   </g>
   <g id="PathCollection_40">
    <path clip-path="url(#p47123a09a5)" d="M 369.352941 84.775304 
C 370.678957 84.775304 371.950841 84.248473 372.888475 83.310838 
C 373.82611 82.373204 374.352941 81.10132 374.352941 79.775304 
C 374.352941 78.449289 373.82611 77.177405 372.888475 76.23977 
C 371.950841 75.302136 370.678957 74.775304 369.352941 74.775304 
C 368.026926 74.775304 366.755042 75.302136 365.817407 76.23977 
C 364.879773 77.177405 364.352941 78.449289 364.352941 79.775304 
C 364.352941 81.10132 364.879773 82.373204 365.817407 83.310838 
C 366.755042 84.248473 368.026926 84.775304 369.352941 84.775304 
z
" style="fill:none;stroke:#c5b0d5;"/>
   </g>
   <g id="PathCollection_41">
    <path clip-path="url(#p47123a09a5)" d="M 377.011765 82.912895 
C 378.33778 82.912895 379.609664 82.386063 380.547299 81.448428 
C 381.484933 80.510794 382.011765 79.23891 382.011765 77.912895 
C 382.011765 76.586879 381.484933 75.314995 380.547299 74.377361 
C 379.609664 73.439726 378.33778 72.912895 377.011765 72.912895 
C 375.685749 72.912895 374.413865 73.439726 373.476231 74.377361 
C 372.538596 75.314995 372.011765 76.586879 372.011765 77.912895 
C 372.011765 79.23891 372.538596 80.510794 373.476231 81.448428 
C 374.413865 82.386063 375.685749 82.912895 377.011765 82.912895 
z
" style="fill:none;stroke:#c5b0d5;"/>
   </g>
   <g id="PathCollection_42">
    <path clip-path="url(#p47123a09a5)" d="M 384.670588 81.506334 
C 385.996604 81.506334 387.268488 80.979502 388.206122 80.041868 
C 389.143757 79.104233 389.670588 77.832349 389.670588 76.506334 
C 389.670588 75.180318 389.143757 73.908434 388.206122 72.9708 
C 387.268488 72.033165 385.996604 71.506334 384.670588 71.506334 
C 383.344573 71.506334 382.072689 72.033165 381.135054 72.9708 
C 380.19742 73.908434 379.670588 75.180318 379.670588 76.506334 
C 379.670588 77.832349 380.19742 79.104233 381.135054 80.041868 
C 382.072689 80.979502 383.344573 81.506334 384.670588 81.506334 
z
" style="fill:none;stroke:#c5b0d5;"/>
   </g>
   <g id="PathCollection_43">
    <path clip-path="url(#p47123a09a5)" d="M 392.329412 80.54494 
C 393.655427 80.54494 394.927311 80.018108 395.864946 79.080474 
C 396.80258 78.142839 397.329412 76.870955 397.329412 75.54494 
C 397.329412 74.218924 396.80258 72.94704 395.864946 72.009406 
C 394.927311 71.071771 393.655427 70.54494 392.329412 70.54494 
C 391.003396 70.54494 389.731512 71.071771 388.793878 72.009406 
C 387.856243 72.94704 387.329412 74.218924 387.329412 75.54494 
C 387.329412 76.870955 387.856243 78.142839 388.793878 79.080474 
C 389.731512 80.018108 391.003396 80.54494 392.329412 80.54494 
z
" style="fill:none;stroke:#c5b0d5;"/>
   </g>
   <g id="PathCollection_44">
    <path clip-path="url(#p47123a09a5)" d="M 399.988235 79.997637 
C 401.314251 79.997637 402.586135 79.470806 403.523769 78.533171 
C 404.461404 77.595537 404.988235 76.323653 404.988235 74.997637 
C 404.988235 73.671622 404.461404 72.399738 403.523769 71.462103 
C 402.586135 70.524469 401.314251 69.997637 399.988235 69.997637 
C 398.66222 69.997637 397.390336 70.524469 396.452701 71.462103 
C 395.515067 72.399738 394.988235 73.671622 394.988235 74.997637 
C 394.988235 76.323653 395.515067 77.595537 396.452701 78.533171 
C 397.390336 79.470806 398.66222 79.997637 399.988235 79.997637 
z
" style="fill:none;stroke:#c5b0d5;"/>
   </g>
   <g id="PathCollection_45">
    <path clip-path="url(#p47123a09a5)" d="M 407.647059 79.809013 
C 408.973074 79.809013 410.244958 79.282181 411.182593 78.344547 
C 412.120227 77.406912 412.647059 76.135028 412.647059 74.809013 
C 412.647059 73.482997 412.120227 72.211113 411.182593 71.273479 
C 410.244958 70.335844 408.973074 69.809013 407.647059 69.809013 
C 406.321043 69.809013 405.049159 70.335844 404.111525 71.273479 
C 403.17389 72.211113 402.647059 73.482997 402.647059 74.809013 
C 402.647059 76.135028 403.17389 77.406912 404.111525 78.344547 
C 405.049159 79.282181 406.321043 79.809013 407.647059 79.809013 
z
" style="fill:none;stroke:#c5b0d5;"/>
   </g>
   <g id="PathCollection_46">
    <path clip-path="url(#p47123a09a5)" d="M 415.305882 79.894989 
C 416.631898 79.894989 417.903782 79.368157 418.841416 78.430523 
C 419.779051 77.492888 420.305882 76.221004 420.305882 74.894989 
C 420.305882 73.568973 419.779051 72.29709 418.841416 71.359455 
C 417.903782 70.42182 416.631898 69.894989 415.305882 69.894989 
C 413.979867 69.894989 412.707983 70.42182 411.770348 71.359455 
C 410.832714 72.29709 410.305882 73.568973 410.305882 74.894989 
C 410.305882 76.221004 410.832714 77.492888 411.770348 78.430523 
C 412.707983 79.368157 413.979867 79.894989 415.305882 79.894989 
z
" style="fill:none;stroke:#c5b0d5;"/>
   </g>
   <g id="PathCollection_47">
    <path clip-path="url(#p47123a09a5)" d="M 422.964706 80.13811 
C 424.290721 80.13811 425.562605 79.611278 426.50024 78.673643 
C 427.437874 77.736009 427.964706 76.464125 427.964706 75.13811 
C 427.964706 73.812094 427.437874 72.54021 426.50024 71.602576 
C 425.562605 70.664941 424.290721 70.13811 422.964706 70.13811 
C 421.63869 70.13811 420.366807 70.664941 419.429172 71.602576 
C 418.491537 72.54021 417.964706 73.812094 417.964706 75.13811 
C 417.964706 76.464125 418.491537 77.736009 419.429172 78.673643 
C 420.366807 79.611278 421.63869 80.13811 422.964706 80.13811 
z
" style="fill:none;stroke:#c5b0d5;"/>
   </g>
   <g id="PathCollection_48">
    <path clip-path="url(#p47123a09a5)" d="M 430.623529 80.382414 
C 431.949545 80.382414 433.221429 79.855583 434.159063 78.917948 
C 435.096698 77.980314 435.623529 76.70843 435.623529 75.382414 
C 435.623529 74.056399 435.096698 72.784515 434.159063 71.846881 
C 433.221429 70.909246 431.949545 70.382414 430.623529 70.382414 
C 429.297514 70.382414 428.02563 70.909246 427.087996 71.846881 
C 426.150361 72.784515 425.623529 74.056399 425.623529 75.382414 
C 425.623529 76.70843 426.150361 77.980314 427.087996 78.917948 
C 428.02563 79.855583 429.297514 80.382414 430.623529 80.382414 
z
" style="fill:none;stroke:#c5b0d5;"/>
   </g>
   <g id="PathCollection_49">
    <path clip-path="url(#p47123a09a5)" d="M 438.282353 80.42789 
C 439.608368 80.42789 440.880252 79.901059 441.817887 78.963424 
C 442.755521 78.02579 443.282353 76.753906 443.282353 75.42789 
C 443.282353 74.101875 442.755521 72.829991 441.817887 71.892356 
C 440.880252 70.954722 439.608368 70.42789 438.282353 70.42789 
C 436.956337 70.42789 435.684454 70.954722 434.746819 71.892356 
C 433.809184 72.829991 433.282353 74.101875 433.282353 75.42789 
C 433.282353 76.753906 433.809184 78.02579 434.746819 78.963424 
C 435.684454 79.901059 436.956337 80.42789 438.282353 80.42789 
z
" style="fill:none;stroke:#c5b0d5;"/>
   </g>
   <g id="PathCollection_50">
    <path clip-path="url(#p47123a09a5)" d="M 445.941176 80.024483 
C 447.267192 80.024483 448.539076 79.497652 449.47671 78.560017 
C 450.414345 77.622383 450.941176 76.350499 450.941176 75.024483 
C 450.941176 73.698468 450.414345 72.426584 449.47671 71.488949 
C 448.539076 70.551315 447.267192 70.024483 445.941176 70.024483 
C 444.615161 70.024483 443.343277 70.551315 442.405643 71.488949 
C 441.468008 72.426584 440.941176 73.698468 440.941176 75.024483 
C 440.941176 76.350499 441.468008 77.622383 442.405643 78.560017 
C 443.343277 79.497652 444.615161 80.024483 445.941176 80.024483 
z
" style="fill:none;stroke:#c5b0d5;"/>
   </g>
   <g id="PathCollection_51">
    <path clip-path="url(#p47123a09a5)" d="M 453.6 78.865653 
C 454.926016 78.865653 456.197899 78.338822 457.135534 77.401187 
C 458.073168 76.463552 458.6 75.191669 458.6 73.865653 
C 458.6 72.539638 458.073168 71.267754 457.135534 70.330119 
C 456.197899 69.392485 454.926016 68.865653 453.6 68.865653 
C 452.273985 68.865653 451.002101 69.392485 450.064466 70.330119 
C 449.126832 71.267754 448.6 72.539638 448.6 73.865653 
C 448.6 75.191669 449.126832 76.463552 450.064466 77.401187 
C 451.002101 78.338822 452.273985 78.865653 453.6 78.865653 
z
" style="fill:none;stroke:#c5b0d5;"/>
   </g>
   <g id="PathCollection_52">
    <defs>
     <path d="M 0 5 
C 1.326016 5 2.597899 4.473168 3.535534 3.535534 
C 4.473168 2.597899 5 1.326016 5 0 
C 5 -1.326016 4.473168 -2.597899 3.535534 -3.535534 
C 2.597899 -4.473168 1.326016 -5 0 -5 
C -1.326016 -5 -2.597899 -4.473168 -3.535534 -3.535534 
C -4.473168 -2.597899 -5 -1.326016 -5 0 
C -5 1.326016 -4.473168 2.597899 -3.535534 3.535534 
C -2.597899 4.473168 -1.326016 5 0 5 
z
" id="m5610ef8de7" style="stroke:#c5b0d5;"/>
    </defs>
    <g clip-path="url(#p47123a09a5)">
     <use style="fill:#c5b0d5;stroke:#c5b0d5;" x="70.658824" xlink:href="#m5610ef8de7" y="188.310235"/>
    </g>
   </g>
   <g id="PathCollection_53">
    <g clip-path="url(#p47123a09a5)">
     <use style="fill:#c5b0d5;stroke:#c5b0d5;" x="78.317647" xlink:href="#m5610ef8de7" y="188.025867"/>
    </g>
   </g>
   <g id="PathCollection_54">
    <g clip-path="url(#p47123a09a5)">
     <use style="fill:#c5b0d5;stroke:#c5b0d5;" x="85.976471" xlink:href="#m5610ef8de7" y="187.656287"/>
    </g>
   </g>
   <g id="PathCollection_55">
    <g clip-path="url(#p47123a09a5)">
     <use style="fill:#c5b0d5;stroke:#c5b0d5;" x="93.635294" xlink:href="#m5610ef8de7" y="187.180302"/>
    </g>
   </g>
   <g id="PathCollection_56">
    <g clip-path="url(#p47123a09a5)">
     <use style="fill:#c5b0d5;stroke:#c5b0d5;" x="101.294118" xlink:href="#m5610ef8de7" y="186.583394"/>
    </g>
   </g>
   <g id="PathCollection_57">
    <g clip-path="url(#p47123a09a5)">
     <use style="fill:#c5b0d5;stroke:#c5b0d5;" x="108.952941" xlink:href="#m5610ef8de7" y="185.856073"/>
    </g>
   </g>
   <g id="PathCollection_58">
    <g clip-path="url(#p47123a09a5)">
     <use style="fill:#c5b0d5;stroke:#c5b0d5;" x="116.611765" xlink:href="#m5610ef8de7" y="184.992485"/>
    </g>
   </g>
   <g id="PathCollection_59">
    <g clip-path="url(#p47123a09a5)">
     <use style="fill:#c5b0d5;stroke:#c5b0d5;" x="124.270588" xlink:href="#m5610ef8de7" y="183.989265"/>
    </g>
   </g>
   <g id="PathCollection_60">
    <g clip-path="url(#p47123a09a5)">
     <use style="fill:#c5b0d5;stroke:#c5b0d5;" x="131.929412" xlink:href="#m5610ef8de7" y="182.84461"/>
    </g>
   </g>
   <g id="PathCollection_61">
    <g clip-path="url(#p47123a09a5)">
     <use style="fill:#c5b0d5;stroke:#c5b0d5;" x="139.588235" xlink:href="#m5610ef8de7" y="181.55756"/>
    </g>
   </g>
   <g id="PathCollection_62">
    <g clip-path="url(#p47123a09a5)">
     <use style="fill:#c5b0d5;stroke:#c5b0d5;" x="147.247059" xlink:href="#m5610ef8de7" y="180.12747"/>
    </g>
   </g>
   <g id="PathCollection_63">
    <g clip-path="url(#p47123a09a5)">
     <use style="fill:#c5b0d5;stroke:#c5b0d5;" x="154.905882" xlink:href="#m5610ef8de7" y="178.553648"/>
    </g>
   </g>
   <g id="PathCollection_64">
    <g clip-path="url(#p47123a09a5)">
     <use style="fill:#c5b0d5;stroke:#c5b0d5;" x="162.564706" xlink:href="#m5610ef8de7" y="176.835158"/>
    </g>
   </g>
   <g id="PathCollection_65">
    <g clip-path="url(#p47123a09a5)">
     <use style="fill:#c5b0d5;stroke:#c5b0d5;" x="170.223529" xlink:href="#m5610ef8de7" y="174.970754"/>
    </g>
   </g>
   <g id="PathCollection_66">
    <g clip-path="url(#p47123a09a5)">
     <use style="fill:#c5b0d5;stroke:#c5b0d5;" x="177.882353" xlink:href="#m5610ef8de7" y="172.958938"/>
    </g>
   </g>
   <g id="PathCollection_67">
    <g clip-path="url(#p47123a09a5)">
     <use style="fill:#c5b0d5;stroke:#c5b0d5;" x="185.541176" xlink:href="#m5610ef8de7" y="170.798129"/>
    </g>
   </g>
   <g id="PathCollection_68">
    <g clip-path="url(#p47123a09a5)">
     <use style="fill:#c5b0d5;stroke:#c5b0d5;" x="193.2" xlink:href="#m5610ef8de7" y="168.486906"/>
    </g>
   </g>
   <g id="PathCollection_69">
    <g clip-path="url(#p47123a09a5)">
     <use style="fill:#c5b0d5;stroke:#c5b0d5;" x="200.858824" xlink:href="#m5610ef8de7" y="166.024337"/>
    </g>
   </g>
   <g id="PathCollection_70">
    <g clip-path="url(#p47123a09a5)">
     <use style="fill:#c5b0d5;stroke:#c5b0d5;" x="208.517647" xlink:href="#m5610ef8de7" y="163.410351"/>
    </g>
   </g>
   <g id="PathCollection_71">
    <g clip-path="url(#p47123a09a5)">
     <use style="fill:#c5b0d5;stroke:#c5b0d5;" x="216.176471" xlink:href="#m5610ef8de7" y="160.646155"/>
    </g>
   </g>
   <g id="PathCollection_72">
    <g clip-path="url(#p47123a09a5)">
     <use style="fill:#c5b0d5;stroke:#c5b0d5;" x="223.835294" xlink:href="#m5610ef8de7" y="157.734663"/>
    </g>
   </g>
   <g id="PathCollection_73">
    <g clip-path="url(#p47123a09a5)">
     <use style="fill:#c5b0d5;stroke:#c5b0d5;" x="231.494118" xlink:href="#m5610ef8de7" y="154.680937"/>
    </g>
   </g>
   <g id="PathCollection_74">
    <g clip-path="url(#p47123a09a5)">
     <use style="fill:#c5b0d5;stroke:#c5b0d5;" x="239.152941" xlink:href="#m5610ef8de7" y="151.492605"/>
    </g>
   </g>
   <g id="PathCollection_75">
    <g clip-path="url(#p47123a09a5)">
     <use style="fill:#c5b0d5;stroke:#c5b0d5;" x="246.811765" xlink:href="#m5610ef8de7" y="148.180258"/>
    </g>
   </g>
   <g id="PathCollection_76">
    <g clip-path="url(#p47123a09a5)">
     <use style="fill:#c5b0d5;stroke:#c5b0d5;" x="254.470588" xlink:href="#m5610ef8de7" y="144.757789"/>
    </g>
   </g>
   <g id="PathCollection_77">
    <g clip-path="url(#p47123a09a5)">
     <use style="fill:#c5b0d5;stroke:#c5b0d5;" x="262.129412" xlink:href="#m5610ef8de7" y="141.242679"/>
    </g>
   </g>
   <g id="PathCollection_78">
    <g clip-path="url(#p47123a09a5)">
     <use style="fill:#c5b0d5;stroke:#c5b0d5;" x="269.788235" xlink:href="#m5610ef8de7" y="137.656189"/>
    </g>
   </g>
   <g id="PathCollection_79">
    <g clip-path="url(#p47123a09a5)">
     <use style="fill:#c5b0d5;stroke:#c5b0d5;" x="277.447059" xlink:href="#m5610ef8de7" y="134.023463"/>
    </g>
   </g>
   <g id="PathCollection_80">
    <g clip-path="url(#p47123a09a5)">
     <use style="fill:#c5b0d5;stroke:#c5b0d5;" x="285.105882" xlink:href="#m5610ef8de7" y="130.373514"/>
    </g>
   </g>
   <g id="PathCollection_81">
    <g clip-path="url(#p47123a09a5)">
     <use style="fill:#c5b0d5;stroke:#c5b0d5;" x="292.764706" xlink:href="#m5610ef8de7" y="126.739071"/>
    </g>
   </g>
   <g id="PathCollection_82">
    <g clip-path="url(#p47123a09a5)">
     <use style="fill:#c5b0d5;stroke:#c5b0d5;" x="300.423529" xlink:href="#m5610ef8de7" y="123.156288"/>
    </g>
   </g>
   <g id="PathCollection_83">
    <g clip-path="url(#p47123a09a5)">
     <use style="fill:#c5b0d5;stroke:#c5b0d5;" x="308.082353" xlink:href="#m5610ef8de7" y="119.664276"/>
    </g>
   </g>
   <g id="PathCollection_84">
    <g clip-path="url(#p47123a09a5)">
     <use style="fill:#c5b0d5;stroke:#c5b0d5;" x="315.741176" xlink:href="#m5610ef8de7" y="116.304456"/>
    </g>
   </g>
   <g id="PathCollection_85">
    <g clip-path="url(#p47123a09a5)">
     <use style="fill:#c5b0d5;stroke:#c5b0d5;" x="323.4" xlink:href="#m5610ef8de7" y="113.119715"/>
    </g>
   </g>
   <g id="PathCollection_86">
    <g clip-path="url(#p47123a09a5)">
     <use style="fill:#c5b0d5;stroke:#c5b0d5;" x="331.058824" xlink:href="#m5610ef8de7" y="110.153343"/>
    </g>
   </g>
   <g id="PathCollection_87">
    <g clip-path="url(#p47123a09a5)">
     <use style="fill:#c5b0d5;stroke:#c5b0d5;" x="338.717647" xlink:href="#m5610ef8de7" y="107.447731"/>
    </g>
   </g>
   <g id="PathCollection_88">
    <g clip-path="url(#p47123a09a5)">
     <use style="fill:#c5b0d5;stroke:#c5b0d5;" x="346.376471" xlink:href="#m5610ef8de7" y="105.042825"/>
    </g>
   </g>
   <g id="PathCollection_89">
    <g clip-path="url(#p47123a09a5)">
     <use style="fill:#c5b0d5;stroke:#c5b0d5;" x="354.035294" xlink:href="#m5610ef8de7" y="102.97431"/>
    </g>
   </g>
   <g id="PathCollection_90">
    <g clip-path="url(#p47123a09a5)">
     <use style="fill:#c5b0d5;stroke:#c5b0d5;" x="361.694118" xlink:href="#m5610ef8de7" y="101.271507"/>
    </g>
   </g>
   <g id="PathCollection_91">
    <g clip-path="url(#p47123a09a5)">
     <use style="fill:#c5b0d5;stroke:#c5b0d5;" x="369.352941" xlink:href="#m5610ef8de7" y="99.954972"/>
    </g>
   </g>
   <g id="PathCollection_92">
    <g clip-path="url(#p47123a09a5)">
     <use style="fill:#c5b0d5;stroke:#c5b0d5;" x="377.011765" xlink:href="#m5610ef8de7" y="99.033772"/>
    </g>
   </g>
   <g id="PathCollection_93">
    <g clip-path="url(#p47123a09a5)">
     <use style="fill:#c5b0d5;stroke:#c5b0d5;" x="384.670588" xlink:href="#m5610ef8de7" y="98.502429"/>
    </g>
   </g>
   <g id="PathCollection_94">
    <g clip-path="url(#p47123a09a5)">
     <use style="fill:#c5b0d5;stroke:#c5b0d5;" x="392.329412" xlink:href="#m5610ef8de7" y="98.337509"/>
    </g>
   </g>
   <g id="PathCollection_95">
    <g clip-path="url(#p47123a09a5)">
     <use style="fill:#c5b0d5;stroke:#c5b0d5;" x="399.988235" xlink:href="#m5610ef8de7" y="98.493847"/>
    </g>
   </g>
   <g id="PathCollection_96">
    <g clip-path="url(#p47123a09a5)">
     <use style="fill:#c5b0d5;stroke:#c5b0d5;" x="407.647059" xlink:href="#m5610ef8de7" y="98.900373"/>
    </g>
   </g>
   <g id="PathCollection_97">
    <g clip-path="url(#p47123a09a5)">
     <use style="fill:#c5b0d5;stroke:#c5b0d5;" x="415.305882" xlink:href="#m5610ef8de7" y="99.455551"/>
    </g>
   </g>
   <g id="PathCollection_98">
    <g clip-path="url(#p47123a09a5)">
     <use style="fill:#c5b0d5;stroke:#c5b0d5;" x="422.964706" xlink:href="#m5610ef8de7" y="100.022385"/>
    </g>
   </g>
   <g id="PathCollection_99">
    <g clip-path="url(#p47123a09a5)">
     <use style="fill:#c5b0d5;stroke:#c5b0d5;" x="430.623529" xlink:href="#m5610ef8de7" y="100.422993"/>
    </g>
   </g>
   <g id="PathCollection_100">
    <g clip-path="url(#p47123a09a5)">
     <use style="fill:#c5b0d5;stroke:#c5b0d5;" x="438.282353" xlink:href="#m5610ef8de7" y="100.432727"/>
    </g>
   </g>
   <g id="PathCollection_101">
    <g clip-path="url(#p47123a09a5)">
     <use style="fill:#c5b0d5;stroke:#c5b0d5;" x="445.941176" xlink:href="#m5610ef8de7" y="99.773822"/>
    </g>
   </g>
   <g id="PathCollection_102">
    <g clip-path="url(#p47123a09a5)">
     <use style="fill:#c5b0d5;stroke:#c5b0d5;" x="453.6" xlink:href="#m5610ef8de7" y="98.108552"/>
    </g>
   </g>
   <g id="matplotlib.axis_1"/>
   <g id="matplotlib.axis_2"/>
   <g id="line2d_1">
    <path clip-path="url(#p47123a09a5)" d="M 63 189 
L 108.761471 188.890043 
L 113.739706 188.57657 
L 118.749853 188.036342 
L 123.983382 187.24609 
L 129.504118 186.183813 
L 135.343971 184.829268 
L 141.534853 183.161343 
L 148.1725 181.138421 
L 155.288824 178.733925 
L 163.043382 175.875632 
L 171.563824 172.494925 
L 181.201176 168.425443 
L 192.370294 163.458502 
L 205.996618 157.144236 
L 225.813824 147.68922 
L 263.725 129.57671 
L 281.372206 121.418944 
L 292.924265 116.287679 
L 297.9025 114.337566 
L 302.753088 112.677974 
L 307.699412 111.222461 
L 312.773382 109.961541 
L 318.038824 108.883273 
L 323.495735 107.993948 
L 329.176029 107.294688 
L 335.111618 106.789513 
L 341.334412 106.484745 
L 347.876324 106.38839 
L 354.801176 106.510554 
L 362.172794 106.865487 
L 370.055 107.470238 
L 378.575441 108.350601 
L 387.829853 109.533691 
L 398.073529 111.072057 
L 409.561765 113.027147 
L 422.868971 115.523788 
L 439.112059 118.807165 
L 453.6 121.872301 
L 453.6 121.872301 
" style="fill:none;stroke:#c5b0d5;stroke-dasharray:11.1,4.8;stroke-dashoffset:0;stroke-width:3;"/>
   </g>
   <g id="line2d_2">
    <path clip-path="url(#p47123a09a5)" d="M 63 189 
L 108.282794 188.890125 
L 112.846176 188.578971 
L 117.409559 188.042179 
L 122.100588 187.265783 
L 127.046912 186.219199 
L 132.216618 184.896491 
L 137.705441 183.25995 
L 143.545294 181.282471 
L 149.768088 178.93668 
L 156.437647 176.182074 
L 163.713529 172.931675 
L 171.691471 169.118441 
L 180.594853 164.610124 
L 190.742794 159.216306 
L 202.965 152.457628 
L 219.303824 143.149378 
L 268.575588 114.924601 
L 284.563382 106.11488 
L 293.275294 101.515411 
L 297.870588 99.362489 
L 302.338235 97.515073 
L 306.869706 95.881858 
L 311.528824 94.440278 
L 316.315588 93.193265 
L 321.261912 92.136218 
L 326.367794 91.273627 
L 331.665147 90.605082 
L 337.185882 90.133743 
L 342.961912 89.865725 
L 349.025147 89.809483 
L 355.4075 89.975168 
L 362.172794 90.37636 
L 369.352941 91.027468 
L 377.043676 91.950618 
L 385.372647 93.178059 
L 394.435588 94.741877 
L 404.487794 96.706522 
L 415.848382 99.159312 
L 429.091765 102.253219 
L 445.590147 106.347187 
L 453.6 108.395938 
L 453.6 108.395938 
" style="fill:none;stroke:#c5b0d5;stroke-linecap:square;stroke-width:3;"/>
   </g>
   <g id="patch_3">
    <path d="M 63 189 
L 63 25.92 
" style="fill:none;stroke:#000000;stroke-linecap:square;stroke-linejoin:miter;stroke-width:0.8;"/>
   </g>
   <g id="patch_4">
    <path d="M 453.6 189 
L 453.6 25.92 
" style="fill:none;stroke:#000000;stroke-linecap:square;stroke-linejoin:miter;stroke-width:0.8;"/>
   </g>
   <g id="patch_5">
    <path d="M 63 189 
L 453.6 189 
" style="fill:none;stroke:#000000;stroke-linecap:square;stroke-linejoin:miter;stroke-width:0.8;"/>
   </g>
   <g id="patch_6">
    <path d="M 63 25.92 
L 453.6 25.92 
" style="fill:none;stroke:#000000;stroke-linecap:square;stroke-linejoin:miter;stroke-width:0.8;"/>
   </g>
  </g>
 </g>
 <defs>
  <clipPath id="p47123a09a5">
   <rect height="163.08" width="390.6" x="63" y="25.92"/>
  </clipPath>
 </defs>
</svg>
