<?xml version="1.0" encoding="utf-8" standalone="no"?>
<!DOCTYPE svg PUBLIC "-//W3C//DTD SVG 1.1//EN"
  "http://www.w3.org/Graphics/SVG/1.1/DTD/svg11.dtd">
<!-- Created with matplotlib (https://matplotlib.org/) -->
<svg height="216pt" version="1.1" viewBox="0 0 504 216" width="504pt" xmlns="http://www.w3.org/2000/svg" xmlns:xlink="http://www.w3.org/1999/xlink">
 <metadata>
  <rdf:RDF xmlns:cc="http://creativecommons.org/ns#" xmlns:dc="http://purl.org/dc/elements/1.1/" xmlns:rdf="http://www.w3.org/1999/02/22-rdf-syntax-ns#">
   <cc:Work>
    <dc:type rdf:resource="http://purl.org/dc/dcmitype/StillImage"/>
    <dc:date>2024-11-24T08:58:29.041381</dc:date>
    <dc:format>image/svg+xml</dc:format>
    <dc:creator>
     <cc:Agent>
      <dc:title>Matplotlib v3.3.2, https://matplotlib.org/</dc:title>
     </cc:Agent>
    </dc:creator>
   </cc:Work>
  </rdf:RDF>
 </metadata>
 <defs>
  <style type="text/css">*{stroke-linecap:butt;stroke-linejoin:round;}</style>
 </defs>
 <g id="figure_1">
  <g id="patch_1">
   <path d="M 0 216 
L 504 216 
L 504 0 
L 0 0 
z
" style="fill:none;"/>
  </g>
  <g id="axes_1">
   <g id="patch_2">
    <path d="M 63 189 
L 453.6 189 
L 453.6 25.92 
L 63 25.92 
z
" style="fill:#ffffff;"/>
   </g>
   <g id="PathCollection_1">
    <path clip-path="url(#p8bc24394f7)" d="M 70.658824 194.259049 
C 71.984839 194.259049 73.256723 193.732217 74.194357 192.794583 
C 75.131992 191.856948 75.658824 190.585064 75.658824 189.259049 
C 75.658824 187.933033 75.131992 186.661149 74.194357 185.723515 
C 73.256723 184.78588 71.984839 184.259049 70.658824 184.259049 
C 69.332808 184.259049 68.060924 184.78588 67.12329 185.723515 
C 66.185655 186.661149 65.658824 187.933033 65.658824 189.259049 
C 65.658824 190.585064 66.185655 191.856948 67.12329 192.794583 
C 68.060924 193.732217 69.332808 194.259049 70.658824 194.259049 
z
" style="fill:none;stroke:#ff9896;"/>
   </g>
   <g id="PathCollection_2">
    <path clip-path="url(#p8bc24394f7)" d="M 78.317647 195.809766 
C 79.643663 195.809766 80.915546 195.282935 81.853181 194.3453 
C 82.790816 193.407666 83.317647 192.135782 83.317647 190.809766 
C 83.317647 189.483751 82.790816 188.211867 81.853181 187.274232 
C 80.915546 186.336598 79.643663 185.809766 78.317647 185.809766 
C 76.991632 185.809766 75.719748 186.336598 74.782113 187.274232 
C 73.844479 188.211867 73.317647 189.483751 73.317647 190.809766 
C 73.317647 192.135782 73.844479 193.407666 74.782113 194.3453 
C 75.719748 195.282935 76.991632 195.809766 78.317647 195.809766 
z
" style="fill:none;stroke:#ff9896;"/>
   </g>
   <g id="PathCollection_3">
    <path clip-path="url(#p8bc24394f7)" d="M 85.976471 195.938781 
C 87.302486 195.938781 88.57437 195.41195 89.512004 194.474315 
C 90.449639 193.536681 90.976471 192.264797 90.976471 190.938781 
C 90.976471 189.612766 90.449639 188.340882 89.512004 187.403247 
C 88.57437 186.465613 87.302486 185.938781 85.976471 185.938781 
C 84.650455 185.938781 83.378571 186.465613 82.440937 187.403247 
C 81.503302 188.340882 80.976471 189.612766 80.976471 190.938781 
C 80.976471 192.264797 81.503302 193.536681 82.440937 194.474315 
C 83.378571 195.41195 84.650455 195.938781 85.976471 195.938781 
z
" style="fill:none;stroke:#ff9896;"/>
   </g>
   <g id="PathCollection_4">
    <path clip-path="url(#p8bc24394f7)" d="M 93.635294 195.011096 
C 94.96131 195.011096 96.233193 194.484264 97.170828 193.54663 
C 98.108463 192.608995 98.635294 191.337112 98.635294 190.011096 
C 98.635294 188.68508 98.108463 187.413197 97.170828 186.475562 
C 96.233193 185.537928 94.96131 185.011096 93.635294 185.011096 
C 92.309279 185.011096 91.037395 185.537928 90.09976 186.475562 
C 89.162126 187.413197 88.635294 188.68508 88.635294 190.011096 
C 88.635294 191.337112 89.162126 192.608995 90.09976 193.54663 
C 91.037395 194.484264 92.309279 195.011096 93.635294 195.011096 
z
" style="fill:none;stroke:#ff9896;"/>
   </g>
   <g id="PathCollection_5">
    <path clip-path="url(#p8bc24394f7)" d="M 101.294118 193.289303 
C 102.620133 193.289303 103.892017 192.762471 104.829652 191.824837 
C 105.767286 190.887202 106.294118 189.615318 106.294118 188.289303 
C 106.294118 186.963287 105.767286 185.691404 104.829652 184.753769 
C 103.892017 183.816134 102.620133 183.289303 101.294118 183.289303 
C 99.968102 183.289303 98.696218 183.816134 97.758584 184.753769 
C 96.820949 185.691404 96.294118 186.963287 96.294118 188.289303 
C 96.294118 189.615318 96.820949 190.887202 97.758584 191.824837 
C 98.696218 192.762471 99.968102 193.289303 101.294118 193.289303 
z
" style="fill:none;stroke:#ff9896;"/>
   </g>
   <g id="PathCollection_6">
    <path clip-path="url(#p8bc24394f7)" d="M 108.952941 190.94811 
C 110.278957 190.94811 111.550841 190.421279 112.488475 189.483644 
C 113.42611 188.546009 113.952941 187.274126 113.952941 185.94811 
C 113.952941 184.622095 113.42611 183.350211 112.488475 182.412576 
C 111.550841 181.474942 110.278957 180.94811 108.952941 180.94811 
C 107.626926 180.94811 106.355042 181.474942 105.417407 182.412576 
C 104.479773 183.350211 103.952941 184.622095 103.952941 185.94811 
C 103.952941 187.274126 104.479773 188.546009 105.417407 189.483644 
C 106.355042 190.421279 107.626926 190.94811 108.952941 190.94811 
z
" style="fill:none;stroke:#ff9896;"/>
   </g>
   <g id="PathCollection_7">
    <path clip-path="url(#p8bc24394f7)" d="M 116.611765 188.09875 
C 117.93778 188.09875 119.209664 187.571919 120.147299 186.634284 
C 121.084933 185.69665 121.611765 184.424766 121.611765 183.09875 
C 121.611765 181.772735 121.084933 180.500851 120.147299 179.563216 
C 119.209664 178.625582 117.93778 178.09875 116.611765 178.09875 
C 115.285749 178.09875 114.013865 178.625582 113.076231 179.563216 
C 112.138596 180.500851 111.611765 181.772735 111.611765 183.09875 
C 111.611765 184.424766 112.138596 185.69665 113.076231 186.634284 
C 114.013865 187.571919 115.285749 188.09875 116.611765 188.09875 
z
" style="fill:none;stroke:#ff9896;"/>
   </g>
   <g id="PathCollection_8">
    <path clip-path="url(#p8bc24394f7)" d="M 124.270588 184.802111 
C 125.596604 184.802111 126.868488 184.275279 127.806122 183.337645 
C 128.743757 182.40001 129.270588 181.128126 129.270588 179.802111 
C 129.270588 178.476095 128.743757 177.204212 127.806122 176.266577 
C 126.868488 175.328942 125.596604 174.802111 124.270588 174.802111 
C 122.944573 174.802111 121.672689 175.328942 120.735054 176.266577 
C 119.79742 177.204212 119.270588 178.476095 119.270588 179.802111 
C 119.270588 181.128126 119.79742 182.40001 120.735054 183.337645 
C 121.672689 184.275279 122.944573 184.802111 124.270588 184.802111 
z
" style="fill:none;stroke:#ff9896;"/>
   </g>
   <g id="PathCollection_9">
    <path clip-path="url(#p8bc24394f7)" d="M 131.929412 181.083461 
C 133.255427 181.083461 134.527311 180.556629 135.464946 179.618995 
C 136.40258 178.68136 136.929412 177.409476 136.929412 176.083461 
C 136.929412 174.757445 136.40258 173.485561 135.464946 172.547927 
C 134.527311 171.610292 133.255427 171.083461 131.929412 171.083461 
C 130.603396 171.083461 129.331512 171.610292 128.393878 172.547927 
C 127.456243 173.485561 126.929412 174.757445 126.929412 176.083461 
C 126.929412 177.409476 127.456243 178.68136 128.393878 179.618995 
C 129.331512 180.556629 130.603396 181.083461 131.929412 181.083461 
z
" style="fill:none;stroke:#ff9896;"/>
   </g>
   <g id="PathCollection_10">
    <path clip-path="url(#p8bc24394f7)" d="M 139.588235 176.944626 
C 140.914251 176.944626 142.186135 176.417794 143.123769 175.480159 
C 144.061404 174.542525 144.588235 173.270641 144.588235 171.944626 
C 144.588235 170.61861 144.061404 169.346726 143.123769 168.409092 
C 142.186135 167.471457 140.914251 166.944626 139.588235 166.944626 
C 138.26222 166.944626 136.990336 167.471457 136.052701 168.409092 
C 135.115067 169.346726 134.588235 170.61861 134.588235 171.944626 
C 134.588235 173.270641 135.115067 174.542525 136.052701 175.480159 
C 136.990336 176.417794 138.26222 176.944626 139.588235 176.944626 
z
" style="fill:none;stroke:#ff9896;"/>
   </g>
   <g id="PathCollection_11">
    <path clip-path="url(#p8bc24394f7)" d="M 147.247059 172.374337 
C 148.573074 172.374337 149.844958 171.847505 150.782593 170.909871 
C 151.720227 169.972236 152.247059 168.700352 152.247059 167.374337 
C 152.247059 166.048321 151.720227 164.776437 150.782593 163.838803 
C 149.844958 162.901168 148.573074 162.374337 147.247059 162.374337 
C 145.921043 162.374337 144.649159 162.901168 143.711525 163.838803 
C 142.77389 164.776437 142.247059 166.048321 142.247059 167.374337 
C 142.247059 168.700352 142.77389 169.972236 143.711525 170.909871 
C 144.649159 171.847505 145.921043 172.374337 147.247059 172.374337 
z
" style="fill:none;stroke:#ff9896;"/>
   </g>
   <g id="PathCollection_12">
    <path clip-path="url(#p8bc24394f7)" d="M 154.905882 167.356855 
C 156.231898 167.356855 157.503782 166.830023 158.441416 165.892388 
C 159.379051 164.954754 159.905882 163.68287 159.905882 162.356855 
C 159.905882 161.030839 159.379051 159.758955 158.441416 158.821321 
C 157.503782 157.883686 156.231898 157.356855 154.905882 157.356855 
C 153.579867 157.356855 152.307983 157.883686 151.370348 158.821321 
C 150.432714 159.758955 149.905882 161.030839 149.905882 162.356855 
C 149.905882 163.68287 150.432714 164.954754 151.370348 165.892388 
C 152.307983 166.830023 153.579867 167.356855 154.905882 167.356855 
z
" style="fill:none;stroke:#ff9896;"/>
   </g>
   <g id="PathCollection_13">
    <path clip-path="url(#p8bc24394f7)" d="M 162.564706 161.878987 
C 163.890721 161.878987 165.162605 161.352155 166.10024 160.414521 
C 167.037874 159.476886 167.564706 158.205002 167.564706 156.878987 
C 167.564706 155.552971 167.037874 154.281087 166.10024 153.343453 
C 165.162605 152.405818 163.890721 151.878987 162.564706 151.878987 
C 161.23869 151.878987 159.966807 152.405818 159.029172 153.343453 
C 158.091537 154.281087 157.564706 155.552971 157.564706 156.878987 
C 157.564706 158.205002 158.091537 159.476886 159.029172 160.414521 
C 159.966807 161.352155 161.23869 161.878987 162.564706 161.878987 
z
" style="fill:none;stroke:#ff9896;"/>
   </g>
   <g id="PathCollection_14">
    <path clip-path="url(#p8bc24394f7)" d="M 170.223529 155.935601 
C 171.549545 155.935601 172.821429 155.408769 173.759063 154.471134 
C 174.696698 153.5335 175.223529 152.261616 175.223529 150.935601 
C 175.223529 149.609585 174.696698 148.337701 173.759063 147.400067 
C 172.821429 146.462432 171.549545 145.935601 170.223529 145.935601 
C 168.897514 145.935601 167.62563 146.462432 166.687996 147.400067 
C 165.750361 148.337701 165.223529 149.609585 165.223529 150.935601 
C 165.223529 152.261616 165.750361 153.5335 166.687996 154.471134 
C 167.62563 155.408769 168.897514 155.935601 170.223529 155.935601 
z
" style="fill:none;stroke:#ff9896;"/>
   </g>
   <g id="PathCollection_15">
    <path clip-path="url(#p8bc24394f7)" d="M 177.882353 149.533753 
C 179.208368 149.533753 180.480252 149.006921 181.417887 148.069287 
C 182.355521 147.131652 182.882353 145.859768 182.882353 144.533753 
C 182.882353 143.207737 182.355521 141.935853 181.417887 140.998219 
C 180.480252 140.060584 179.208368 139.533753 177.882353 139.533753 
C 176.556337 139.533753 175.284454 140.060584 174.346819 140.998219 
C 173.409184 141.935853 172.882353 143.207737 172.882353 144.533753 
C 172.882353 145.859768 173.409184 147.131652 174.346819 148.069287 
C 175.284454 149.006921 176.556337 149.533753 177.882353 149.533753 
z
" style="fill:none;stroke:#ff9896;"/>
   </g>
   <g id="PathCollection_16">
    <path clip-path="url(#p8bc24394f7)" d="M 185.541176 142.695533 
C 186.867192 142.695533 188.139076 142.168701 189.07671 141.231067 
C 190.014345 140.293432 190.541176 139.021548 190.541176 137.695533 
C 190.541176 136.369517 190.014345 135.097634 189.07671 134.159999 
C 188.139076 133.222365 186.867192 132.695533 185.541176 132.695533 
C 184.215161 132.695533 182.943277 133.222365 182.005643 134.159999 
C 181.068008 135.097634 180.541176 136.369517 180.541176 137.695533 
C 180.541176 139.021548 181.068008 140.293432 182.005643 141.231067 
C 182.943277 142.168701 184.215161 142.695533 185.541176 142.695533 
z
" style="fill:none;stroke:#ff9896;"/>
   </g>
   <g id="PathCollection_17">
    <path clip-path="url(#p8bc24394f7)" d="M 193.2 135.459744 
C 194.526016 135.459744 195.797899 134.932912 196.735534 133.995277 
C 197.673168 133.057643 198.2 131.785759 198.2 130.459744 
C 198.2 129.133728 197.673168 127.861844 196.735534 126.92421 
C 195.797899 125.986575 194.526016 125.459744 193.2 125.459744 
C 191.873985 125.459744 190.602101 125.986575 189.664466 126.92421 
C 188.726832 127.861844 188.2 129.133728 188.2 130.459744 
C 188.2 131.785759 188.726832 133.057643 189.664466 133.995277 
C 190.602101 134.932912 191.873985 135.459744 193.2 135.459744 
z
" style="fill:none;stroke:#ff9896;"/>
   </g>
   <g id="PathCollection_18">
    <path clip-path="url(#p8bc24394f7)" d="M 200.858824 127.882517 
C 202.184839 127.882517 203.456723 127.355685 204.394357 126.418051 
C 205.331992 125.480416 205.858824 124.208533 205.858824 122.882517 
C 205.858824 121.556502 205.331992 120.284618 204.394357 119.346983 
C 203.456723 118.409349 202.184839 117.882517 200.858824 117.882517 
C 199.532808 117.882517 198.260924 118.409349 197.32329 119.346983 
C 196.385655 120.284618 195.858824 121.556502 195.858824 122.882517 
C 195.858824 124.208533 196.385655 125.480416 197.32329 126.418051 
C 198.260924 127.355685 199.532808 127.882517 200.858824 127.882517 
z
" style="fill:none;stroke:#ff9896;"/>
   </g>
   <g id="PathCollection_19">
    <path clip-path="url(#p8bc24394f7)" d="M 208.517647 120.036987 
C 209.843663 120.036987 211.115546 119.510155 212.053181 118.572521 
C 212.990816 117.634886 213.517647 116.363002 213.517647 115.036987 
C 213.517647 113.710971 212.990816 112.439087 212.053181 111.501453 
C 211.115546 110.563818 209.843663 110.036987 208.517647 110.036987 
C 207.191632 110.036987 205.919748 110.563818 204.982113 111.501453 
C 204.044479 112.439087 203.517647 113.710971 203.517647 115.036987 
C 203.517647 116.363002 204.044479 117.634886 204.982113 118.572521 
C 205.919748 119.510155 207.191632 120.036987 208.517647 120.036987 
z
" style="fill:none;stroke:#ff9896;"/>
   </g>
   <g id="PathCollection_20">
    <path clip-path="url(#p8bc24394f7)" d="M 216.176471 112.012118 
C 217.502486 112.012118 218.77437 111.485287 219.712004 110.547652 
C 220.649639 109.610018 221.176471 108.338134 221.176471 107.012118 
C 221.176471 105.686103 220.649639 104.414219 219.712004 103.476584 
C 218.77437 102.53895 217.502486 102.012118 216.176471 102.012118 
C 214.850455 102.012118 213.578571 102.53895 212.640937 103.476584 
C 211.703302 104.414219 211.176471 105.686103 211.176471 107.012118 
C 211.176471 108.338134 211.703302 109.610018 212.640937 110.547652 
C 213.578571 111.485287 214.850455 112.012118 216.176471 112.012118 
z
" style="fill:none;stroke:#ff9896;"/>
   </g>
   <g id="PathCollection_21">
    <path clip-path="url(#p8bc24394f7)" d="M 223.835294 103.910814 
C 225.16131 103.910814 226.433193 103.383982 227.370828 102.446348 
C 228.308463 101.508713 228.835294 100.236829 228.835294 98.910814 
C 228.835294 97.584798 228.308463 96.312914 227.370828 95.37528 
C 226.433193 94.437645 225.16131 93.910814 223.835294 93.910814 
C 222.509279 93.910814 221.237395 94.437645 220.29976 95.37528 
C 219.362126 96.312914 218.835294 97.584798 218.835294 98.910814 
C 218.835294 100.236829 219.362126 101.508713 220.29976 102.446348 
C 221.237395 103.383982 222.509279 103.910814 223.835294 103.910814 
z
" style="fill:none;stroke:#ff9896;"/>
   </g>
   <g id="PathCollection_22">
    <path clip-path="url(#p8bc24394f7)" d="M 231.494118 95.847397 
C 232.820133 95.847397 234.092017 95.320566 235.029652 94.382931 
C 235.967286 93.445297 236.494118 92.173413 236.494118 90.847397 
C 236.494118 89.521382 235.967286 88.249498 235.029652 87.311863 
C 234.092017 86.374229 232.820133 85.847397 231.494118 85.847397 
C 230.168102 85.847397 228.896218 86.374229 227.958584 87.311863 
C 227.020949 88.249498 226.494118 89.521382 226.494118 90.847397 
C 226.494118 92.173413 227.020949 93.445297 227.958584 94.382931 
C 228.896218 95.320566 230.168102 95.847397 231.494118 95.847397 
z
" style="fill:none;stroke:#ff9896;"/>
   </g>
   <g id="PathCollection_23">
    <path clip-path="url(#p8bc24394f7)" d="M 239.152941 87.944594 
C 240.478957 87.944594 241.750841 87.417762 242.688475 86.480128 
C 243.62611 85.542493 244.152941 84.270609 244.152941 82.944594 
C 244.152941 81.618578 243.62611 80.346695 242.688475 79.40906 
C 241.750841 78.471425 240.478957 77.944594 239.152941 77.944594 
C 237.826926 77.944594 236.555042 78.471425 235.617407 79.40906 
C 234.679773 80.346695 234.152941 81.618578 234.152941 82.944594 
C 234.152941 84.270609 234.679773 85.542493 235.617407 86.480128 
C 236.555042 87.417762 237.826926 87.944594 239.152941 87.944594 
z
" style="fill:none;stroke:#ff9896;"/>
   </g>
   <g id="PathCollection_24">
    <path clip-path="url(#p8bc24394f7)" d="M 246.811765 80.330111 
C 248.13778 80.330111 249.409664 79.80328 250.347299 78.865645 
C 251.284933 77.928011 251.811765 76.656127 251.811765 75.330111 
C 251.811765 74.004096 251.284933 72.732212 250.347299 71.794577 
C 249.409664 70.856943 248.13778 70.330111 246.811765 70.330111 
C 245.485749 70.330111 244.213865 70.856943 243.276231 71.794577 
C 242.338596 72.732212 241.811765 74.004096 241.811765 75.330111 
C 241.811765 76.656127 242.338596 77.928011 243.276231 78.865645 
C 244.213865 79.80328 245.485749 80.330111 246.811765 80.330111 
z
" style="fill:none;stroke:#ff9896;"/>
   </g>
   <g id="PathCollection_25">
    <path clip-path="url(#p8bc24394f7)" d="M 254.470588 73.132934 
C 255.796604 73.132934 257.068488 72.606102 258.006122 71.668468 
C 258.943757 70.730833 259.470588 69.458949 259.470588 68.132934 
C 259.470588 66.806918 258.943757 65.535034 258.006122 64.5974 
C 257.068488 63.659765 255.796604 63.132934 254.470588 63.132934 
C 253.144573 63.132934 251.872689 63.659765 250.935054 64.5974 
C 249.99742 65.535034 249.470588 66.806918 249.470588 68.132934 
C 249.470588 69.458949 249.99742 70.730833 250.935054 71.668468 
C 251.872689 72.606102 253.144573 73.132934 254.470588 73.132934 
z
" style="fill:none;stroke:#ff9896;"/>
   </g>
   <g id="PathCollection_26">
    <path clip-path="url(#p8bc24394f7)" d="M 262.129412 66.47944 
C 263.455427 66.47944 264.727311 65.952609 265.664946 65.014974 
C 266.60258 64.077339 267.129412 62.805456 267.129412 61.47944 
C 267.129412 60.153425 266.60258 58.881541 265.664946 57.943906 
C 264.727311 57.006272 263.455427 56.47944 262.129412 56.47944 
C 260.803396 56.47944 259.531512 57.006272 258.593878 57.943906 
C 257.656243 58.881541 257.129412 60.153425 257.129412 61.47944 
C 257.129412 62.805456 257.656243 64.077339 258.593878 65.014974 
C 259.531512 65.952609 260.803396 66.47944 262.129412 66.47944 
z
" style="fill:none;stroke:#ff9896;"/>
   </g>
   <g id="PathCollection_27">
    <path clip-path="url(#p8bc24394f7)" d="M 269.788235 60.489455 
C 271.114251 60.489455 272.386135 59.962623 273.323769 59.024989 
C 274.261404 58.087354 274.788235 56.81547 274.788235 55.489455 
C 274.788235 54.163439 274.261404 52.891556 273.323769 51.953921 
C 272.386135 51.016286 271.114251 50.489455 269.788235 50.489455 
C 268.46222 50.489455 267.190336 51.016286 266.252701 51.953921 
C 265.315067 52.891556 264.788235 54.163439 264.788235 55.489455 
C 264.788235 56.81547 265.315067 58.087354 266.252701 59.024989 
C 267.190336 59.962623 268.46222 60.489455 269.788235 60.489455 
z
" style="fill:none;stroke:#ff9896;"/>
   </g>
   <g id="PathCollection_28">
    <path clip-path="url(#p8bc24394f7)" d="M 277.447059 55.272344 
C 278.773074 55.272344 280.044958 54.745512 280.982593 53.807878 
C 281.920227 52.870243 282.447059 51.598359 282.447059 50.272344 
C 282.447059 48.946328 281.920227 47.674444 280.982593 46.73681 
C 280.044958 45.799175 278.773074 45.272344 277.447059 45.272344 
C 276.121043 45.272344 274.849159 45.799175 273.911525 46.73681 
C 272.97389 47.674444 272.447059 48.946328 272.447059 50.272344 
C 272.447059 51.598359 272.97389 52.870243 273.911525 53.807878 
C 274.849159 54.745512 276.121043 55.272344 277.447059 55.272344 
z
" style="fill:none;stroke:#ff9896;"/>
   </g>
   <g id="PathCollection_29">
    <path clip-path="url(#p8bc24394f7)" d="M 285.105882 50.923263 
C 286.431898 50.923263 287.703782 50.396432 288.641416 49.458797 
C 289.579051 48.521163 290.105882 47.249279 290.105882 45.923263 
C 290.105882 44.597248 289.579051 43.325364 288.641416 42.387729 
C 287.703782 41.450095 286.431898 40.923263 285.105882 40.923263 
C 283.779867 40.923263 282.507983 41.450095 281.570348 42.387729 
C 280.632714 43.325364 280.105882 44.597248 280.105882 45.923263 
C 280.105882 47.249279 280.632714 48.521163 281.570348 49.458797 
C 282.507983 50.396432 283.779867 50.923263 285.105882 50.923263 
z
" style="fill:none;stroke:#ff9896;"/>
   </g>
   <g id="PathCollection_30">
    <path clip-path="url(#p8bc24394f7)" d="M 292.764706 47.519674 
C 294.090721 47.519674 295.362605 46.992843 296.30024 46.055208 
C 297.237874 45.117574 297.764706 43.84569 297.764706 42.519674 
C 297.764706 41.193659 297.237874 39.921775 296.30024 38.984141 
C 295.362605 38.046506 294.090721 37.519674 292.764706 37.519674 
C 291.43869 37.519674 290.166807 38.046506 289.229172 38.984141 
C 288.291537 39.921775 287.764706 41.193659 287.764706 42.519674 
C 287.764706 43.84569 288.291537 45.117574 289.229172 46.055208 
C 290.166807 46.992843 291.43869 47.519674 292.764706 47.519674 
z
" style="fill:none;stroke:#ff9896;"/>
   </g>
   <g id="PathCollection_31">
    <path clip-path="url(#p8bc24394f7)" d="M 300.423529 45.118231 
C 301.749545 45.118231 303.021429 44.591399 303.959063 43.653765 
C 304.896698 42.71613 305.423529 41.444246 305.423529 40.118231 
C 305.423529 38.792215 304.896698 37.520331 303.959063 36.582697 
C 303.021429 35.645062 301.749545 35.118231 300.423529 35.118231 
C 299.097514 35.118231 297.82563 35.645062 296.887996 36.582697 
C 295.950361 37.520331 295.423529 38.792215 295.423529 40.118231 
C 295.423529 41.444246 295.950361 42.71613 296.887996 43.653765 
C 297.82563 44.591399 299.097514 45.118231 300.423529 45.118231 
z
" style="fill:none;stroke:#ff9896;"/>
   </g>
   <g id="PathCollection_32">
    <path clip-path="url(#p8bc24394f7)" d="M 308.082353 43.752153 
C 309.408368 43.752153 310.680252 43.225322 311.617887 42.287687 
C 312.555521 41.350053 313.082353 40.078169 313.082353 38.752153 
C 313.082353 37.426138 312.555521 36.154254 311.617887 35.216619 
C 310.680252 34.278985 309.408368 33.752153 308.082353 33.752153 
C 306.756337 33.752153 305.484454 34.278985 304.546819 35.216619 
C 303.609184 36.154254 303.082353 37.426138 303.082353 38.752153 
C 303.082353 40.078169 303.609184 41.350053 304.546819 42.287687 
C 305.484454 43.225322 306.756337 43.752153 308.082353 43.752153 
z
" style="fill:none;stroke:#ff9896;"/>
   </g>
   <g id="PathCollection_33">
    <path clip-path="url(#p8bc24394f7)" d="M 315.741176 43.429198 
C 317.067192 43.429198 318.339076 42.902367 319.27671 41.964732 
C 320.214345 41.027098 320.741176 39.755214 320.741176 38.429198 
C 320.741176 37.103183 320.214345 35.831299 319.27671 34.893664 
C 318.339076 33.95603 317.067192 33.429198 315.741176 33.429198 
C 314.415161 33.429198 313.143277 33.95603 312.205643 34.893664 
C 311.268008 35.831299 310.741176 37.103183 310.741176 38.429198 
C 310.741176 39.755214 311.268008 41.027098 312.205643 41.964732 
C 313.143277 42.902367 314.415161 43.429198 315.741176 43.429198 
z
" style="fill:none;stroke:#ff9896;"/>
   </g>
   <g id="PathCollection_34">
    <path clip-path="url(#p8bc24394f7)" d="M 323.4 44.130331 
C 324.726016 44.130331 325.997899 43.603499 326.935534 42.665865 
C 327.873168 41.72823 328.4 40.456346 328.4 39.130331 
C 328.4 37.804315 327.873168 36.532432 326.935534 35.594797 
C 325.997899 34.657162 324.726016 34.130331 323.4 34.130331 
C 322.073985 34.130331 320.802101 34.657162 319.864466 35.594797 
C 318.926832 36.532432 318.4 37.804315 318.4 39.130331 
C 318.4 40.456346 318.926832 41.72823 319.864466 42.665865 
C 320.802101 43.603499 322.073985 44.130331 323.4 44.130331 
z
" style="fill:none;stroke:#ff9896;"/>
   </g>
   <g id="PathCollection_35">
    <path clip-path="url(#p8bc24394f7)" d="M 331.058824 45.809217 
C 332.384839 45.809217 333.656723 45.282386 334.594357 44.344751 
C 335.531992 43.407116 336.058824 42.135233 336.058824 40.809217 
C 336.058824 39.483202 335.531992 38.211318 334.594357 37.273683 
C 333.656723 36.336049 332.384839 35.809217 331.058824 35.809217 
C 329.732808 35.809217 328.460924 36.336049 327.52329 37.273683 
C 326.585655 38.211318 326.058824 39.483202 326.058824 40.809217 
C 326.058824 42.135233 326.585655 43.407116 327.52329 44.344751 
C 328.460924 45.282386 329.732808 45.809217 331.058824 45.809217 
z
" style="fill:none;stroke:#ff9896;"/>
   </g>
   <g id="PathCollection_36">
    <path clip-path="url(#p8bc24394f7)" d="M 338.717647 48.392639 
C 340.043663 48.392639 341.315546 47.865808 342.253181 46.928173 
C 343.190816 45.990538 343.717647 44.718655 343.717647 43.392639 
C 343.717647 42.066624 343.190816 40.79474 342.253181 39.857105 
C 341.315546 38.919471 340.043663 38.392639 338.717647 38.392639 
C 337.391632 38.392639 336.119748 38.919471 335.182113 39.857105 
C 334.244479 40.79474 333.717647 42.066624 333.717647 43.392639 
C 333.717647 44.718655 334.244479 45.990538 335.182113 46.928173 
C 336.119748 47.865808 337.391632 48.392639 338.717647 48.392639 
z
" style="fill:none;stroke:#ff9896;"/>
   </g>
   <g id="PathCollection_37">
    <path clip-path="url(#p8bc24394f7)" d="M 346.376471 51.781947 
C 347.702486 51.781947 348.97437 51.255116 349.912004 50.317481 
C 350.849639 49.379847 351.376471 48.107963 351.376471 46.781947 
C 351.376471 45.455932 350.849639 44.184048 349.912004 43.246413 
C 348.97437 42.308779 347.702486 41.781947 346.376471 41.781947 
C 345.050455 41.781947 343.778571 42.308779 342.840937 43.246413 
C 341.903302 44.184048 341.376471 45.455932 341.376471 46.781947 
C 341.376471 48.107963 341.903302 49.379847 342.840937 50.317481 
C 343.778571 51.255116 345.050455 51.781947 346.376471 51.781947 
z
" style="fill:none;stroke:#ff9896;"/>
   </g>
   <g id="PathCollection_38">
    <path clip-path="url(#p8bc24394f7)" d="M 354.035294 55.85566 
C 355.36131 55.85566 356.633193 55.328828 357.570828 54.391194 
C 358.508463 53.453559 359.035294 52.181675 359.035294 50.85566 
C 359.035294 49.529644 358.508463 48.257761 357.570828 47.320126 
C 356.633193 46.382492 355.36131 45.85566 354.035294 45.85566 
C 352.709279 45.85566 351.437395 46.382492 350.49976 47.320126 
C 349.562126 48.257761 349.035294 49.529644 349.035294 50.85566 
C 349.035294 52.181675 349.562126 53.453559 350.49976 54.391194 
C 351.437395 55.328828 352.709279 55.85566 354.035294 55.85566 
z
" style="fill:none;stroke:#ff9896;"/>
   </g>
   <g id="PathCollection_39">
    <path clip-path="url(#p8bc24394f7)" d="M 361.694118 60.47332 
C 363.020133 60.47332 364.292017 59.946488 365.229652 59.008854 
C 366.167286 58.071219 366.694118 56.799335 366.694118 55.47332 
C 366.694118 54.147304 366.167286 52.87542 365.229652 51.937786 
C 364.292017 51.000151 363.020133 50.47332 361.694118 50.47332 
C 360.368102 50.47332 359.096218 51.000151 358.158584 51.937786 
C 357.220949 52.87542 356.694118 54.147304 356.694118 55.47332 
C 356.694118 56.799335 357.220949 58.071219 358.158584 59.008854 
C 359.096218 59.946488 360.368102 60.47332 361.694118 60.47332 
z
" style="fill:none;stroke:#ff9896;"/>
   </g>
   <g id="PathCollection_40">
    <path clip-path="url(#p8bc24394f7)" d="M 369.352941 65.480716 
C 370.678957 65.480716 371.950841 64.953884 372.888475 64.01625 
C 373.82611 63.078615 374.352941 61.806731 374.352941 60.480716 
C 374.352941 59.1547 373.82611 57.882817 372.888475 56.945182 
C 371.950841 56.007547 370.678957 55.480716 369.352941 55.480716 
C 368.026926 55.480716 366.755042 56.007547 365.817407 56.945182 
C 364.879773 57.882817 364.352941 59.1547 364.352941 60.480716 
C 364.352941 61.806731 364.879773 63.078615 365.817407 64.01625 
C 366.755042 64.953884 368.026926 65.480716 369.352941 65.480716 
z
" style="fill:none;stroke:#ff9896;"/>
   </g>
   <g id="PathCollection_41">
    <path clip-path="url(#p8bc24394f7)" d="M 377.011765 70.716586 
C 378.33778 70.716586 379.609664 70.189755 380.547299 69.25212 
C 381.484933 68.314486 382.011765 67.042602 382.011765 65.716586 
C 382.011765 64.390571 381.484933 63.118687 380.547299 62.181052 
C 379.609664 61.243418 378.33778 60.716586 377.011765 60.716586 
C 375.685749 60.716586 374.413865 61.243418 373.476231 62.181052 
C 372.538596 63.118687 372.011765 64.390571 372.011765 65.716586 
C 372.011765 67.042602 372.538596 68.314486 373.476231 69.25212 
C 374.413865 70.189755 375.685749 70.716586 377.011765 70.716586 
z
" style="fill:none;stroke:#ff9896;"/>
   </g>
   <g id="PathCollection_42">
    <path clip-path="url(#p8bc24394f7)" d="M 384.670588 76.020904 
C 385.996604 76.020904 387.268488 75.494072 388.206122 74.556438 
C 389.143757 73.618803 389.670588 72.346919 389.670588 71.020904 
C 389.670588 69.694888 389.143757 68.423004 388.206122 67.48537 
C 387.268488 66.547735 385.996604 66.020904 384.670588 66.020904 
C 383.344573 66.020904 382.072689 66.547735 381.135054 67.48537 
C 380.19742 68.423004 379.670588 69.694888 379.670588 71.020904 
C 379.670588 72.346919 380.19742 73.618803 381.135054 74.556438 
C 382.072689 75.494072 383.344573 76.020904 384.670588 76.020904 
z
" style="fill:none;stroke:#ff9896;"/>
   </g>
   <g id="PathCollection_43">
    <path clip-path="url(#p8bc24394f7)" d="M 392.329412 81.244865 
C 393.655427 81.244865 394.927311 80.718034 395.864946 79.780399 
C 396.80258 78.842765 397.329412 77.570881 397.329412 76.244865 
C 397.329412 74.91885 396.80258 73.646966 395.864946 72.709331 
C 394.927311 71.771697 393.655427 71.244865 392.329412 71.244865 
C 391.003396 71.244865 389.731512 71.771697 388.793878 72.709331 
C 387.856243 73.646966 387.329412 74.91885 387.329412 76.244865 
C 387.329412 77.570881 387.856243 78.842765 388.793878 79.780399 
C 389.731512 80.718034 391.003396 81.244865 392.329412 81.244865 
z
" style="fill:none;stroke:#ff9896;"/>
   </g>
   <g id="PathCollection_44">
    <path clip-path="url(#p8bc24394f7)" d="M 399.988235 86.262684 
C 401.314251 86.262684 402.586135 85.735852 403.523769 84.798218 
C 404.461404 83.860583 404.988235 82.588699 404.988235 81.262684 
C 404.988235 79.936668 404.461404 78.664785 403.523769 77.72715 
C 402.586135 76.789516 401.314251 76.262684 399.988235 76.262684 
C 398.66222 76.262684 397.390336 76.789516 396.452701 77.72715 
C 395.515067 78.664785 394.988235 79.936668 394.988235 81.262684 
C 394.988235 82.588699 395.515067 83.860583 396.452701 84.798218 
C 397.390336 85.735852 398.66222 86.262684 399.988235 86.262684 
z
" style="fill:none;stroke:#ff9896;"/>
   </g>
   <g id="PathCollection_45">
    <path clip-path="url(#p8bc24394f7)" d="M 407.647059 90.985304 
C 408.973074 90.985304 410.244958 90.458472 411.182593 89.520838 
C 412.120227 88.583203 412.647059 87.31132 412.647059 85.985304 
C 412.647059 84.659289 412.120227 83.387405 411.182593 82.44977 
C 410.244958 81.512136 408.973074 80.985304 407.647059 80.985304 
C 406.321043 80.985304 405.049159 81.512136 404.111525 82.44977 
C 403.17389 83.387405 402.647059 84.659289 402.647059 85.985304 
C 402.647059 87.31132 403.17389 88.583203 404.111525 89.520838 
C 405.049159 90.458472 406.321043 90.985304 407.647059 90.985304 
z
" style="fill:none;stroke:#ff9896;"/>
   </g>
   <g id="PathCollection_46">
    <path clip-path="url(#p8bc24394f7)" d="M 415.305882 95.376141 
C 416.631898 95.376141 417.903782 94.849309 418.841416 93.911675 
C 419.779051 92.97404 420.305882 91.702156 420.305882 90.376141 
C 420.305882 89.050125 419.779051 87.778241 418.841416 86.840607 
C 417.903782 85.902972 416.631898 85.376141 415.305882 85.376141 
C 413.979867 85.376141 412.707983 85.902972 411.770348 86.840607 
C 410.832714 87.778241 410.305882 89.050125 410.305882 90.376141 
C 410.305882 91.702156 410.832714 92.97404 411.770348 93.911675 
C 412.707983 94.849309 413.979867 95.376141 415.305882 95.376141 
z
" style="fill:none;stroke:#ff9896;"/>
   </g>
   <g id="PathCollection_47">
    <path clip-path="url(#p8bc24394f7)" d="M 422.964706 99.468964 
C 424.290721 99.468964 425.562605 98.942133 426.50024 98.004498 
C 427.437874 97.066864 427.964706 95.79498 427.964706 94.468964 
C 427.964706 93.142949 427.437874 91.871065 426.50024 90.93343 
C 425.562605 89.995796 424.290721 89.468964 422.964706 89.468964 
C 421.63869 89.468964 420.366807 89.995796 419.429172 90.93343 
C 418.491537 91.871065 417.964706 93.142949 417.964706 94.468964 
C 417.964706 95.79498 418.491537 97.066864 419.429172 98.004498 
C 420.366807 98.942133 421.63869 99.468964 422.964706 99.468964 
z
" style="fill:none;stroke:#ff9896;"/>
   </g>
   <g id="PathCollection_48">
    <path clip-path="url(#p8bc24394f7)" d="M 430.623529 103.388028 
C 431.949545 103.388028 433.221429 102.861196 434.159063 101.923562 
C 435.096698 100.985927 435.623529 99.714043 435.623529 98.388028 
C 435.623529 97.062012 435.096698 95.790129 434.159063 94.852494 
C 433.221429 93.914859 431.949545 93.388028 430.623529 93.388028 
C 429.297514 93.388028 428.02563 93.914859 427.087996 94.852494 
C 426.150361 95.790129 425.623529 97.062012 425.623529 98.388028 
C 425.623529 99.714043 426.150361 100.985927 427.087996 101.923562 
C 428.02563 102.861196 429.297514 103.388028 430.623529 103.388028 
z
" style="fill:none;stroke:#ff9896;"/>
   </g>
   <g id="PathCollection_49">
    <path clip-path="url(#p8bc24394f7)" d="M 438.282353 107.370559 
C 439.608368 107.370559 440.880252 106.843727 441.817887 105.906092 
C 442.755521 104.968458 443.282353 103.696574 443.282353 102.370559 
C 443.282353 101.044543 442.755521 99.772659 441.817887 98.835025 
C 440.880252 97.89739 439.608368 97.370559 438.282353 97.370559 
C 436.956337 97.370559 435.684454 97.89739 434.746819 98.835025 
C 433.809184 99.772659 433.282353 101.044543 433.282353 102.370559 
C 433.282353 103.696574 433.809184 104.968458 434.746819 105.906092 
C 435.684454 106.843727 436.956337 107.370559 438.282353 107.370559 
z
" style="fill:none;stroke:#ff9896;"/>
   </g>
   <g id="PathCollection_50">
    <path clip-path="url(#p8bc24394f7)" d="M 445.941176 111.791717 
C 447.267192 111.791717 448.539076 111.264886 449.47671 110.327251 
C 450.414345 109.389616 450.941176 108.117733 450.941176 106.791717 
C 450.941176 105.465702 450.414345 104.193818 449.47671 103.256183 
C 448.539076 102.318549 447.267192 101.791717 445.941176 101.791717 
C 444.615161 101.791717 443.343277 102.318549 442.405643 103.256183 
C 441.468008 104.193818 440.941176 105.465702 440.941176 106.791717 
C 440.941176 108.117733 441.468008 109.389616 442.405643 110.327251 
C 443.343277 111.264886 444.615161 111.791717 445.941176 111.791717 
z
" style="fill:none;stroke:#ff9896;"/>
   </g>
   <g id="PathCollection_51">
    <path clip-path="url(#p8bc24394f7)" d="M 453.6 117.192138 
C 454.926016 117.192138 456.197899 116.665306 457.135534 115.727672 
C 458.073168 114.790037 458.6 113.518153 458.6 112.192138 
C 458.6 110.866122 458.073168 109.594238 457.135534 108.656604 
C 456.197899 107.718969 454.926016 107.192138 453.6 107.192138 
C 452.273985 107.192138 451.002101 107.718969 450.064466 108.656604 
C 449.126832 109.594238 448.6 110.866122 448.6 112.192138 
C 448.6 113.518153 449.126832 114.790037 450.064466 115.727672 
C 451.002101 116.665306 452.273985 117.192138 453.6 117.192138 
z
" style="fill:none;stroke:#ff9896;"/>
   </g>
   <g id="PathCollection_52">
    <defs>
     <path d="M 0 5 
C 1.326016 5 2.597899 4.473168 3.535534 3.535534 
C 4.473168 2.597899 5 1.326016 5 0 
C 5 -1.326016 4.473168 -2.597899 3.535534 -3.535534 
C 2.597899 -4.473168 1.326016 -5 0 -5 
C -1.326016 -5 -2.597899 -4.473168 -3.535534 -3.535534 
C -4.473168 -2.597899 -5 -1.326016 -5 0 
C -5 1.326016 -4.473168 2.597899 -3.535534 3.535534 
C -2.597899 4.473168 -1.326016 5 0 5 
z
" id="m43dc634170" style="stroke:#ff9896;"/>
    </defs>
    <g clip-path="url(#p8bc24394f7)">
     <use style="fill:#ff9896;stroke:#ff9896;" x="70.658824" xlink:href="#m43dc634170" y="189.212322"/>
    </g>
   </g>
   <g id="PathCollection_53">
    <g clip-path="url(#p8bc24394f7)">
     <use style="fill:#ff9896;stroke:#ff9896;" x="78.317647" xlink:href="#m43dc634170" y="190.426253"/>
    </g>
   </g>
   <g id="PathCollection_54">
    <g clip-path="url(#p8bc24394f7)">
     <use style="fill:#ff9896;stroke:#ff9896;" x="85.976471" xlink:href="#m43dc634170" y="190.537853"/>
    </g>
   </g>
   <g id="PathCollection_55">
    <g clip-path="url(#p8bc24394f7)">
     <use style="fill:#ff9896;stroke:#ff9896;" x="93.635294" xlink:href="#m43dc634170" y="189.782784"/>
    </g>
   </g>
   <g id="PathCollection_56">
    <g clip-path="url(#p8bc24394f7)">
     <use style="fill:#ff9896;stroke:#ff9896;" x="101.294118" xlink:href="#m43dc634170" y="188.322135"/>
    </g>
   </g>
   <g id="PathCollection_57">
    <g clip-path="url(#p8bc24394f7)">
     <use style="fill:#ff9896;stroke:#ff9896;" x="108.952941" xlink:href="#m43dc634170" y="186.268317"/>
    </g>
   </g>
   <g id="PathCollection_58">
    <g clip-path="url(#p8bc24394f7)">
     <use style="fill:#ff9896;stroke:#ff9896;" x="116.611765" xlink:href="#m43dc634170" y="183.687104"/>
    </g>
   </g>
   <g id="PathCollection_59">
    <g clip-path="url(#p8bc24394f7)">
     <use style="fill:#ff9896;stroke:#ff9896;" x="124.270588" xlink:href="#m43dc634170" y="180.614673"/>
    </g>
   </g>
   <g id="PathCollection_60">
    <g clip-path="url(#p8bc24394f7)">
     <use style="fill:#ff9896;stroke:#ff9896;" x="131.929412" xlink:href="#m43dc634170" y="177.066466"/>
    </g>
   </g>
   <g id="PathCollection_61">
    <g clip-path="url(#p8bc24394f7)">
     <use style="fill:#ff9896;stroke:#ff9896;" x="139.588235" xlink:href="#m43dc634170" y="173.045715"/>
    </g>
   </g>
   <g id="PathCollection_62">
    <g clip-path="url(#p8bc24394f7)">
     <use style="fill:#ff9896;stroke:#ff9896;" x="147.247059" xlink:href="#m43dc634170" y="168.550599"/>
    </g>
   </g>
   <g id="PathCollection_63">
    <g clip-path="url(#p8bc24394f7)">
     <use style="fill:#ff9896;stroke:#ff9896;" x="154.905882" xlink:href="#m43dc634170" y="163.580128"/>
    </g>
   </g>
   <g id="PathCollection_64">
    <g clip-path="url(#p8bc24394f7)">
     <use style="fill:#ff9896;stroke:#ff9896;" x="162.564706" xlink:href="#m43dc634170" y="158.138819"/>
    </g>
   </g>
   <g id="PathCollection_65">
    <g clip-path="url(#p8bc24394f7)">
     <use style="fill:#ff9896;stroke:#ff9896;" x="170.223529" xlink:href="#m43dc634170" y="152.240278"/>
    </g>
   </g>
   <g id="PathCollection_66">
    <g clip-path="url(#p8bc24394f7)">
     <use style="fill:#ff9896;stroke:#ff9896;" x="177.882353" xlink:href="#m43dc634170" y="145.909735"/>
    </g>
   </g>
   <g id="PathCollection_67">
    <g clip-path="url(#p8bc24394f7)">
     <use style="fill:#ff9896;stroke:#ff9896;" x="185.541176" xlink:href="#m43dc634170" y="139.185652"/>
    </g>
   </g>
   <g id="PathCollection_68">
    <g clip-path="url(#p8bc24394f7)">
     <use style="fill:#ff9896;stroke:#ff9896;" x="193.2" xlink:href="#m43dc634170" y="132.120458"/>
    </g>
   </g>
   <g id="PathCollection_69">
    <g clip-path="url(#p8bc24394f7)">
     <use style="fill:#ff9896;stroke:#ff9896;" x="200.858824" xlink:href="#m43dc634170" y="124.780519"/>
    </g>
   </g>
   <g id="PathCollection_70">
    <g clip-path="url(#p8bc24394f7)">
     <use style="fill:#ff9896;stroke:#ff9896;" x="208.517647" xlink:href="#m43dc634170" y="117.245406"/>
    </g>
   </g>
   <g id="PathCollection_71">
    <g clip-path="url(#p8bc24394f7)">
     <use style="fill:#ff9896;stroke:#ff9896;" x="216.176471" xlink:href="#m43dc634170" y="109.606565"/>
    </g>
   </g>
   <g id="PathCollection_72">
    <g clip-path="url(#p8bc24394f7)">
     <use style="fill:#ff9896;stroke:#ff9896;" x="223.835294" xlink:href="#m43dc634170" y="101.965454"/>
    </g>
   </g>
   <g id="PathCollection_73">
    <g clip-path="url(#p8bc24394f7)">
     <use style="fill:#ff9896;stroke:#ff9896;" x="231.494118" xlink:href="#m43dc634170" y="94.431247"/>
    </g>
   </g>
   <g id="PathCollection_74">
    <g clip-path="url(#p8bc24394f7)">
     <use style="fill:#ff9896;stroke:#ff9896;" x="239.152941" xlink:href="#m43dc634170" y="87.118176"/>
    </g>
   </g>
   <g id="PathCollection_75">
    <g clip-path="url(#p8bc24394f7)">
     <use style="fill:#ff9896;stroke:#ff9896;" x="246.811765" xlink:href="#m43dc634170" y="80.142608"/>
    </g>
   </g>
   <g id="PathCollection_76">
    <g clip-path="url(#p8bc24394f7)">
     <use style="fill:#ff9896;stroke:#ff9896;" x="254.470588" xlink:href="#m43dc634170" y="73.619929"/>
    </g>
   </g>
   <g id="PathCollection_77">
    <g clip-path="url(#p8bc24394f7)">
     <use style="fill:#ff9896;stroke:#ff9896;" x="262.129412" xlink:href="#m43dc634170" y="67.661322"/>
    </g>
   </g>
   <g id="PathCollection_78">
    <g clip-path="url(#p8bc24394f7)">
     <use style="fill:#ff9896;stroke:#ff9896;" x="269.788235" xlink:href="#m43dc634170" y="62.370531"/>
    </g>
   </g>
   <g id="PathCollection_79">
    <g clip-path="url(#p8bc24394f7)">
     <use style="fill:#ff9896;stroke:#ff9896;" x="277.447059" xlink:href="#m43dc634170" y="57.840685"/>
    </g>
   </g>
   <g id="PathCollection_80">
    <g clip-path="url(#p8bc24394f7)">
     <use style="fill:#ff9896;stroke:#ff9896;" x="285.105882" xlink:href="#m43dc634170" y="54.151271"/>
    </g>
   </g>
   <g id="PathCollection_81">
    <g clip-path="url(#p8bc24394f7)">
     <use style="fill:#ff9896;stroke:#ff9896;" x="292.764706" xlink:href="#m43dc634170" y="51.365337"/>
    </g>
   </g>
   <g id="PathCollection_82">
    <g clip-path="url(#p8bc24394f7)">
     <use style="fill:#ff9896;stroke:#ff9896;" x="300.423529" xlink:href="#m43dc634170" y="49.527011"/>
    </g>
   </g>
   <g id="PathCollection_83">
    <g clip-path="url(#p8bc24394f7)">
     <use style="fill:#ff9896;stroke:#ff9896;" x="308.082353" xlink:href="#m43dc634170" y="48.659426"/>
    </g>
   </g>
   <g id="PathCollection_84">
    <g clip-path="url(#p8bc24394f7)">
     <use style="fill:#ff9896;stroke:#ff9896;" x="315.741176" xlink:href="#m43dc634170" y="48.763118"/>
    </g>
   </g>
   <g id="PathCollection_85">
    <g clip-path="url(#p8bc24394f7)">
     <use style="fill:#ff9896;stroke:#ff9896;" x="323.4" xlink:href="#m43dc634170" y="49.815001"/>
    </g>
   </g>
   <g id="PathCollection_86">
    <g clip-path="url(#p8bc24394f7)">
     <use style="fill:#ff9896;stroke:#ff9896;" x="331.058824" xlink:href="#m43dc634170" y="51.767986"/>
    </g>
   </g>
   <g id="PathCollection_87">
    <g clip-path="url(#p8bc24394f7)">
     <use style="fill:#ff9896;stroke:#ff9896;" x="338.717647" xlink:href="#m43dc634170" y="54.551345"/>
    </g>
   </g>
   <g id="PathCollection_88">
    <g clip-path="url(#p8bc24394f7)">
     <use style="fill:#ff9896;stroke:#ff9896;" x="346.376471" xlink:href="#m43dc634170" y="58.071884"/>
    </g>
   </g>
   <g id="PathCollection_89">
    <g clip-path="url(#p8bc24394f7)">
     <use style="fill:#ff9896;stroke:#ff9896;" x="354.035294" xlink:href="#m43dc634170" y="62.216027"/>
    </g>
   </g>
   <g id="PathCollection_90">
    <g clip-path="url(#p8bc24394f7)">
     <use style="fill:#ff9896;stroke:#ff9896;" x="361.694118" xlink:href="#m43dc634170" y="66.852886"/>
    </g>
   </g>
   <g id="PathCollection_91">
    <g clip-path="url(#p8bc24394f7)">
     <use style="fill:#ff9896;stroke:#ff9896;" x="369.352941" xlink:href="#m43dc634170" y="71.838398"/>
    </g>
   </g>
   <g id="PathCollection_92">
    <g clip-path="url(#p8bc24394f7)">
     <use style="fill:#ff9896;stroke:#ff9896;" x="377.011765" xlink:href="#m43dc634170" y="77.020629"/>
    </g>
   </g>
   <g id="PathCollection_93">
    <g clip-path="url(#p8bc24394f7)">
     <use style="fill:#ff9896;stroke:#ff9896;" x="384.670588" xlink:href="#m43dc634170" y="82.246299"/>
    </g>
   </g>
   <g id="PathCollection_94">
    <g clip-path="url(#p8bc24394f7)">
     <use style="fill:#ff9896;stroke:#ff9896;" x="392.329412" xlink:href="#m43dc634170" y="87.36865"/>
    </g>
   </g>
   <g id="PathCollection_95">
    <g clip-path="url(#p8bc24394f7)">
     <use style="fill:#ff9896;stroke:#ff9896;" x="399.988235" xlink:href="#m43dc634170" y="92.256708"/>
    </g>
   </g>
   <g id="PathCollection_96">
    <g clip-path="url(#p8bc24394f7)">
     <use style="fill:#ff9896;stroke:#ff9896;" x="407.647059" xlink:href="#m43dc634170" y="96.806045"/>
    </g>
   </g>
   <g id="PathCollection_97">
    <g clip-path="url(#p8bc24394f7)">
     <use style="fill:#ff9896;stroke:#ff9896;" x="415.305882" xlink:href="#m43dc634170" y="100.951104"/>
    </g>
   </g>
   <g id="PathCollection_98">
    <g clip-path="url(#p8bc24394f7)">
     <use style="fill:#ff9896;stroke:#ff9896;" x="422.964706" xlink:href="#m43dc634170" y="104.679202"/>
    </g>
   </g>
   <g id="PathCollection_99">
    <g clip-path="url(#p8bc24394f7)">
     <use style="fill:#ff9896;stroke:#ff9896;" x="430.623529" xlink:href="#m43dc634170" y="108.046257"/>
    </g>
   </g>
   <g id="PathCollection_100">
    <g clip-path="url(#p8bc24394f7)">
     <use style="fill:#ff9896;stroke:#ff9896;" x="438.282353" xlink:href="#m43dc634170" y="111.194357"/>
    </g>
   </g>
   <g id="PathCollection_101">
    <g clip-path="url(#p8bc24394f7)">
     <use style="fill:#ff9896;stroke:#ff9896;" x="445.941176" xlink:href="#m43dc634170" y="114.371232"/>
    </g>
   </g>
   <g id="PathCollection_102">
    <g clip-path="url(#p8bc24394f7)">
     <use style="fill:#ff9896;stroke:#ff9896;" x="453.6" xlink:href="#m43dc634170" y="117.95172"/>
    </g>
   </g>
   <g id="matplotlib.axis_1"/>
   <g id="matplotlib.axis_2"/>
   <g id="line2d_1">
    <path clip-path="url(#p8bc24394f7)" d="M 63 189 
L 107.772206 188.889833 
L 111.888824 188.582376 
L 115.941618 188.056805 
L 120.122059 187.289315 
L 124.493971 186.257201 
L 129.057353 184.948296 
L 133.844118 183.341352 
L 138.918088 181.3994 
L 144.279265 179.105517 
L 149.959559 176.431467 
L 156.054706 173.314406 
L 162.660441 169.682354 
L 169.8725 165.457679 
L 177.850441 160.51952 
L 186.849559 154.678955 
L 197.284706 147.631169 
L 210.145147 138.664671 
L 229.898529 124.583379 
L 259.704118 103.364901 
L 275.628088 92.316169 
L 289.382059 83.036296 
L 294.360294 79.893628 
L 298.540735 77.520332 
L 302.625441 75.455824 
L 306.773971 73.608085 
L 310.986324 71.974629 
L 315.294412 70.541575 
L 319.730147 69.300985 
L 324.293529 68.256898 
L 328.984559 67.412117 
L 333.835147 66.764694 
L 338.877206 66.317049 
L 344.110735 66.076162 
L 349.599559 66.047967 
L 355.343676 66.242761 
L 361.406912 66.673727 
L 367.821176 67.356013 
L 374.618382 68.305168 
L 381.894265 69.548189 
L 389.744559 71.117931 
L 398.296912 73.058302 
L 407.742794 75.433573 
L 418.401324 78.348906 
L 430.751176 81.964152 
L 446.005 86.671884 
L 453.6 89.080974 
L 453.6 89.080974 
" style="fill:none;stroke:#ff9896;stroke-dasharray:11.1,4.8;stroke-dashoffset:0;stroke-width:3;"/>
   </g>
   <g id="line2d_2">
    <path clip-path="url(#p8bc24394f7)" d="M 63 189 
L 107.357353 188.890197 
L 111.154853 188.584217 
L 114.856618 188.062152 
L 118.654118 187.299669 
L 122.579265 186.282591 
L 126.663971 184.993126 
L 130.940147 183.40878 
L 135.439706 181.502465 
L 140.194559 179.243483 
L 145.204706 176.615455 
L 150.565882 173.548943 
L 156.31 170.002284 
L 162.500882 165.912761 
L 169.234265 161.19194 
L 176.605882 155.746173 
L 184.807206 149.406366 
L 194.253088 141.814971 
L 205.549853 132.43924 
L 220.644118 119.603165 
L 265.192941 81.562039 
L 279.553235 69.692032 
L 291.009559 60.491254 
L 295.285735 57.331592 
L 299.147059 54.752872 
L 302.976471 52.461681 
L 306.837794 50.410333 
L 310.762941 48.577753 
L 314.751912 46.961531 
L 318.804706 45.558545 
L 322.953235 44.356801 
L 327.229412 43.350621 
L 331.633235 42.545013 
L 336.164706 41.943704 
L 340.855735 41.547207 
L 345.706324 41.361051 
L 350.780294 41.390851 
L 356.077647 41.646733 
L 361.630294 42.139823 
L 367.470147 42.883526 
L 373.661029 43.898606 
L 380.234853 45.204051 
L 387.287353 46.83414 
L 394.914265 48.829216 
L 403.211324 51.233085 
L 412.401912 54.131759 
L 422.773235 57.641326 
L 434.899706 61.987065 
L 450.057794 67.667609 
L 453.6 69.02153 
L 453.6 69.02153 
" style="fill:none;stroke:#ff9896;stroke-linecap:square;stroke-width:3;"/>
   </g>
   <g id="patch_3">
    <path d="M 63 189 
L 63 25.92 
" style="fill:none;stroke:#000000;stroke-linecap:square;stroke-linejoin:miter;stroke-width:0.8;"/>
   </g>
   <g id="patch_4">
    <path d="M 453.6 189 
L 453.6 25.92 
" style="fill:none;stroke:#000000;stroke-linecap:square;stroke-linejoin:miter;stroke-width:0.8;"/>
   </g>
   <g id="patch_5">
    <path d="M 63 189 
L 453.6 189 
" style="fill:none;stroke:#000000;stroke-linecap:square;stroke-linejoin:miter;stroke-width:0.8;"/>
   </g>
   <g id="patch_6">
    <path d="M 63 25.92 
L 453.6 25.92 
" style="fill:none;stroke:#000000;stroke-linecap:square;stroke-linejoin:miter;stroke-width:0.8;"/>
   </g>
  </g>
 </g>
 <defs>
  <clipPath id="p8bc24394f7">
   <rect height="163.08" width="390.6" x="63" y="25.92"/>
  </clipPath>
 </defs>
</svg>
