<?xml version="1.0" encoding="utf-8" standalone="no"?>
<!DOCTYPE svg PUBLIC "-//W3C//DTD SVG 1.1//EN"
  "http://www.w3.org/Graphics/SVG/1.1/DTD/svg11.dtd">
<!-- Created with matplotlib (https://matplotlib.org/) -->
<svg height="216pt" version="1.1" viewBox="0 0 360 216" width="360pt" xmlns="http://www.w3.org/2000/svg" xmlns:xlink="http://www.w3.org/1999/xlink">
 <metadata>
  <rdf:RDF xmlns:cc="http://creativecommons.org/ns#" xmlns:dc="http://purl.org/dc/elements/1.1/" xmlns:rdf="http://www.w3.org/1999/02/22-rdf-syntax-ns#">
   <cc:Work>
    <dc:type rdf:resource="http://purl.org/dc/dcmitype/StillImage"/>
    <dc:date>2024-12-06T08:49:48.206296</dc:date>
    <dc:format>image/svg+xml</dc:format>
    <dc:creator>
     <cc:Agent>
      <dc:title>Matplotlib v3.3.2, https://matplotlib.org/</dc:title>
     </cc:Agent>
    </dc:creator>
   </cc:Work>
  </rdf:RDF>
 </metadata>
 <defs>
  <style type="text/css">*{stroke-linecap:butt;stroke-linejoin:round;}</style>
 </defs>
 <g id="figure_1">
  <g id="patch_1">
   <path d="M 0 216 
L 360 216 
L 360 0 
L 0 0 
z
" style="fill:none;"/>
  </g>
  <g id="axes_1">
   <g id="patch_2">
    <path d="M 45 189 
L 324 189 
L 324 25.92 
L 45 25.92 
z
" style="fill:#ffffff;"/>
   </g>
   <g id="PathCollection_1">
    <path clip-path="url(#p3e3d4dd213)" d="M 62.65508 184.837944 
C 63.592715 184.837944 64.492072 184.465418 65.15508 183.80241 
C 65.818088 183.139403 66.190614 182.240045 66.190614 181.30241 
C 66.190614 180.364776 65.818088 179.465418 65.15508 178.80241 
C 64.492072 178.139403 63.592715 177.766877 62.65508 177.766877 
C 61.717446 177.766877 60.818088 178.139403 60.15508 178.80241 
C 59.492072 179.465418 59.119546 180.364776 59.119546 181.30241 
C 59.119546 182.240045 59.492072 183.139403 60.15508 183.80241 
C 60.818088 184.465418 61.717446 184.837944 62.65508 184.837944 
z
" style="fill:none;stroke:#9467bd;"/>
   </g>
   <g id="PathCollection_2">
    <path clip-path="url(#p3e3d4dd213)" d="M 67.628342 184.953252 
C 68.565977 184.953252 69.465334 184.580726 70.128342 183.917718 
C 70.79135 183.25471 71.163876 182.355353 71.163876 181.417718 
C 71.163876 180.480084 70.79135 179.580726 70.128342 178.917718 
C 69.465334 178.25471 68.565977 177.882184 67.628342 177.882184 
C 66.690708 177.882184 65.79135 178.25471 65.128342 178.917718 
C 64.465334 179.580726 64.092808 180.480084 64.092808 181.417718 
C 64.092808 182.355353 64.465334 183.25471 65.128342 183.917718 
C 65.79135 184.580726 66.690708 184.953252 67.628342 184.953252 
z
" style="fill:none;stroke:#9467bd;"/>
   </g>
   <g id="PathCollection_3">
    <path clip-path="url(#p3e3d4dd213)" d="M 72.601604 185.122807 
C 73.539239 185.122807 74.438597 184.75028 75.101604 184.087273 
C 75.764612 183.424265 76.137138 182.524907 76.137138 181.587273 
C 76.137138 180.649638 75.764612 179.75028 75.101604 179.087273 
C 74.438597 178.424265 73.539239 178.051739 72.601604 178.051739 
C 71.66397 178.051739 70.764612 178.424265 70.101604 179.087273 
C 69.438597 179.75028 69.06607 180.649638 69.06607 181.587273 
C 69.06607 182.524907 69.438597 183.424265 70.101604 184.087273 
C 70.764612 184.75028 71.66397 185.122807 72.601604 185.122807 
z
" style="fill:none;stroke:#9467bd;"/>
   </g>
   <g id="PathCollection_4">
    <path clip-path="url(#p3e3d4dd213)" d="M 77.574866 185.103877 
C 78.512501 185.103877 79.411859 184.731351 80.074866 184.068343 
C 80.737874 183.405335 81.1104 182.505978 81.1104 181.568343 
C 81.1104 180.630708 80.737874 179.731351 80.074866 179.068343 
C 79.411859 178.405335 78.512501 178.032809 77.574866 178.032809 
C 76.637232 178.032809 75.737874 178.405335 75.074866 179.068343 
C 74.411859 179.731351 74.039332 180.630708 74.039332 181.568343 
C 74.039332 182.505978 74.411859 183.405335 75.074866 184.068343 
C 75.737874 184.731351 76.637232 185.103877 77.574866 185.103877 
z
" style="fill:none;stroke:#9467bd;"/>
   </g>
   <g id="PathCollection_5">
    <path clip-path="url(#p3e3d4dd213)" d="M 82.548128 184.72959 
C 83.485763 184.72959 84.385121 184.357064 85.048128 183.694056 
C 85.711136 183.031048 86.083662 182.131691 86.083662 181.194056 
C 86.083662 180.256421 85.711136 179.357064 85.048128 178.694056 
C 84.385121 178.031048 83.485763 177.658522 82.548128 177.658522 
C 81.610494 177.658522 80.711136 178.031048 80.048128 178.694056 
C 79.385121 179.357064 79.012594 180.256421 79.012594 181.194056 
C 79.012594 182.131691 79.385121 183.031048 80.048128 183.694056 
C 80.711136 184.357064 81.610494 184.72959 82.548128 184.72959 
z
" style="fill:none;stroke:#9467bd;"/>
   </g>
   <g id="PathCollection_6">
    <path clip-path="url(#p3e3d4dd213)" d="M 87.52139 183.896027 
C 88.459025 183.896027 89.358383 183.523501 90.02139 182.860493 
C 90.684398 182.197485 91.056924 181.298128 91.056924 180.360493 
C 91.056924 179.422858 90.684398 178.523501 90.02139 177.860493 
C 89.358383 177.197485 88.459025 176.824959 87.52139 176.824959 
C 86.583756 176.824959 85.684398 177.197485 85.02139 177.860493 
C 84.358383 178.523501 83.985856 179.422858 83.985856 180.360493 
C 83.985856 181.298128 84.358383 182.197485 85.02139 182.860493 
C 85.684398 183.523501 86.583756 183.896027 87.52139 183.896027 
z
" style="fill:none;stroke:#9467bd;"/>
   </g>
   <g id="PathCollection_7">
    <path clip-path="url(#p3e3d4dd213)" d="M 92.494652 182.550631 
C 93.432287 182.550631 94.331645 182.178105 94.994652 181.515097 
C 95.65766 180.852089 96.030186 179.952732 96.030186 179.015097 
C 96.030186 178.077462 95.65766 177.178105 94.994652 176.515097 
C 94.331645 175.852089 93.432287 175.479563 92.494652 175.479563 
C 91.557018 175.479563 90.65766 175.852089 89.994652 176.515097 
C 89.331645 177.178105 88.959119 178.077462 88.959119 179.015097 
C 88.959119 179.952732 89.331645 180.852089 89.994652 181.515097 
C 90.65766 182.178105 91.557018 182.550631 92.494652 182.550631 
z
" style="fill:none;stroke:#9467bd;"/>
   </g>
   <g id="PathCollection_8">
    <path clip-path="url(#p3e3d4dd213)" d="M 97.467914 180.681783 
C 98.405549 180.681783 99.304907 180.309257 99.967914 179.646249 
C 100.630922 178.983241 101.003448 178.083884 101.003448 177.146249 
C 101.003448 176.208614 100.630922 175.309257 99.967914 174.646249 
C 99.304907 173.983241 98.405549 173.610715 97.467914 173.610715 
C 96.53028 173.610715 95.630922 173.983241 94.967914 174.646249 
C 94.304907 175.309257 93.932381 176.208614 93.932381 177.146249 
C 93.932381 178.083884 94.304907 178.983241 94.967914 179.646249 
C 95.630922 180.309257 96.53028 180.681783 97.467914 180.681783 
z
" style="fill:none;stroke:#9467bd;"/>
   </g>
   <g id="PathCollection_9">
    <path clip-path="url(#p3e3d4dd213)" d="M 102.441176 178.309577 
C 103.378811 178.309577 104.278169 177.937051 104.941176 177.274043 
C 105.604184 176.611035 105.97671 175.711678 105.97671 174.774043 
C 105.97671 173.836408 105.604184 172.937051 104.941176 172.274043 
C 104.278169 171.611035 103.378811 171.238509 102.441176 171.238509 
C 101.503542 171.238509 100.604184 171.611035 99.941176 172.274043 
C 99.278169 172.937051 98.905643 173.836408 98.905643 174.774043 
C 98.905643 175.711678 99.278169 176.611035 99.941176 177.274043 
C 100.604184 177.937051 101.503542 178.309577 102.441176 178.309577 
z
" style="fill:none;stroke:#9467bd;"/>
   </g>
   <g id="PathCollection_10">
    <path clip-path="url(#p3e3d4dd213)" d="M 107.414439 175.477678 
C 108.352073 175.477678 109.251431 175.105152 109.914439 174.442144 
C 110.577446 173.779136 110.949972 172.879779 110.949972 171.942144 
C 110.949972 171.00451 110.577446 170.105152 109.914439 169.442144 
C 109.251431 168.779136 108.352073 168.40661 107.414439 168.40661 
C 106.476804 168.40661 105.577446 168.779136 104.914439 169.442144 
C 104.251431 170.105152 103.878905 171.00451 103.878905 171.942144 
C 103.878905 172.879779 104.251431 173.779136 104.914439 174.442144 
C 105.577446 175.105152 106.476804 175.477678 107.414439 175.477678 
z
" style="fill:none;stroke:#9467bd;"/>
   </g>
   <g id="PathCollection_11">
    <path clip-path="url(#p3e3d4dd213)" d="M 112.387701 172.246229 
C 113.325335 172.246229 114.224693 171.873702 114.887701 171.210695 
C 115.550708 170.547687 115.923234 169.648329 115.923234 168.710695 
C 115.923234 167.77306 115.550708 166.873702 114.887701 166.210695 
C 114.224693 165.547687 113.325335 165.175161 112.387701 165.175161 
C 111.450066 165.175161 110.550708 165.547687 109.887701 166.210695 
C 109.224693 166.873702 108.852167 167.77306 108.852167 168.710695 
C 108.852167 169.648329 109.224693 170.547687 109.887701 171.210695 
C 110.550708 171.873702 111.450066 172.246229 112.387701 172.246229 
z
" style="fill:none;stroke:#9467bd;"/>
   </g>
   <g id="PathCollection_12">
    <path clip-path="url(#p3e3d4dd213)" d="M 117.360963 168.685736 
C 118.298597 168.685736 119.197955 168.31321 119.860963 167.650202 
C 120.52397 166.987195 120.896496 166.087837 120.896496 165.150202 
C 120.896496 164.212568 120.52397 163.31321 119.860963 162.650202 
C 119.197955 161.987195 118.298597 161.614668 117.360963 161.614668 
C 116.423328 161.614668 115.52397 161.987195 114.860963 162.650202 
C 114.197955 163.31321 113.825429 164.212568 113.825429 165.150202 
C 113.825429 166.087837 114.197955 166.987195 114.860963 167.650202 
C 115.52397 168.31321 116.423328 168.685736 117.360963 168.685736 
z
" style="fill:none;stroke:#9467bd;"/>
   </g>
   <g id="PathCollection_13">
    <path clip-path="url(#p3e3d4dd213)" d="M 122.334225 164.871889 
C 123.271859 164.871889 124.171217 164.499363 124.834225 163.836355 
C 125.497232 163.173348 125.869759 162.27399 125.869759 161.336355 
C 125.869759 160.398721 125.497232 159.499363 124.834225 158.836355 
C 124.171217 158.173348 123.271859 157.800822 122.334225 157.800822 
C 121.39659 157.800822 120.497232 158.173348 119.834225 158.836355 
C 119.171217 159.499363 118.798691 160.398721 118.798691 161.336355 
C 118.798691 162.27399 119.171217 163.173348 119.834225 163.836355 
C 120.497232 164.499363 121.39659 164.871889 122.334225 164.871889 
z
" style="fill:none;stroke:#9467bd;"/>
   </g>
   <g id="PathCollection_14">
    <path clip-path="url(#p3e3d4dd213)" d="M 127.307487 160.881239 
C 128.245121 160.881239 129.144479 160.508713 129.807487 159.845705 
C 130.470494 159.182697 130.843021 158.283339 130.843021 157.345705 
C 130.843021 156.40807 130.470494 155.508713 129.807487 154.845705 
C 129.144479 154.182697 128.245121 153.810171 127.307487 153.810171 
C 126.369852 153.810171 125.470494 154.182697 124.807487 154.845705 
C 124.144479 155.508713 123.771953 156.40807 123.771953 157.345705 
C 123.771953 158.283339 124.144479 159.182697 124.807487 159.845705 
C 125.470494 160.508713 126.369852 160.881239 127.307487 160.881239 
z
" style="fill:none;stroke:#9467bd;"/>
   </g>
   <g id="PathCollection_15">
    <path clip-path="url(#p3e3d4dd213)" d="M 132.280749 156.78769 
C 133.218383 156.78769 134.117741 156.415164 134.780749 155.752156 
C 135.443756 155.089149 135.816283 154.189791 135.816283 153.252156 
C 135.816283 152.314522 135.443756 151.415164 134.780749 150.752156 
C 134.117741 150.089149 133.218383 149.716623 132.280749 149.716623 
C 131.343114 149.716623 130.443756 150.089149 129.780749 150.752156 
C 129.117741 151.415164 128.745215 152.314522 128.745215 153.252156 
C 128.745215 154.189791 129.117741 155.089149 129.780749 155.752156 
C 130.443756 156.415164 131.343114 156.78769 132.280749 156.78769 
z
" style="fill:none;stroke:#9467bd;"/>
   </g>
   <g id="PathCollection_16">
    <path clip-path="url(#p3e3d4dd213)" d="M 137.254011 152.659744 
C 138.191645 152.659744 139.091003 152.287218 139.754011 151.62421 
C 140.417018 150.961203 140.789545 150.061845 140.789545 149.12421 
C 140.789545 148.186576 140.417018 147.287218 139.754011 146.62421 
C 139.091003 145.961203 138.191645 145.588677 137.254011 145.588677 
C 136.316376 145.588677 135.417018 145.961203 134.754011 146.62421 
C 134.091003 147.287218 133.718477 148.186576 133.718477 149.12421 
C 133.718477 150.061845 134.091003 150.961203 134.754011 151.62421 
C 135.417018 152.287218 136.316376 152.659744 137.254011 152.659744 
z
" style="fill:none;stroke:#9467bd;"/>
   </g>
   <g id="PathCollection_17">
    <path clip-path="url(#p3e3d4dd213)" d="M 142.227273 148.55843 
C 143.164907 148.55843 144.064265 148.185904 144.727273 147.522897 
C 145.39028 146.859889 145.762807 145.960531 145.762807 145.022897 
C 145.762807 144.085262 145.39028 143.185904 144.727273 142.522897 
C 144.064265 141.859889 143.164907 141.487363 142.227273 141.487363 
C 141.289638 141.487363 140.39028 141.859889 139.727273 142.522897 
C 139.064265 143.185904 138.691739 144.085262 138.691739 145.022897 
C 138.691739 145.960531 139.064265 146.859889 139.727273 147.522897 
C 140.39028 148.185904 141.289638 148.55843 142.227273 148.55843 
z
" style="fill:none;stroke:#9467bd;"/>
   </g>
   <g id="PathCollection_18">
    <path clip-path="url(#p3e3d4dd213)" d="M 147.200535 144.535876 
C 148.138169 144.535876 149.037527 144.163349 149.700535 143.500342 
C 150.363543 142.837334 150.736069 141.937976 150.736069 141.000342 
C 150.736069 140.062707 150.363543 139.163349 149.700535 138.500342 
C 149.037527 137.837334 148.138169 137.464808 147.200535 137.464808 
C 146.2629 137.464808 145.363543 137.837334 144.700535 138.500342 
C 144.037527 139.163349 143.665001 140.062707 143.665001 141.000342 
C 143.665001 141.937976 144.037527 142.837334 144.700535 143.500342 
C 145.363543 144.163349 146.2629 144.535876 147.200535 144.535876 
z
" style="fill:none;stroke:#9467bd;"/>
   </g>
   <g id="PathCollection_19">
    <path clip-path="url(#p3e3d4dd213)" d="M 152.173797 140.634444 
C 153.111431 140.634444 154.010789 140.261918 154.673797 139.59891 
C 155.336805 138.935903 155.709331 138.036545 155.709331 137.09891 
C 155.709331 136.161276 155.336805 135.261918 154.673797 134.59891 
C 154.010789 133.935903 153.111431 133.563377 152.173797 133.563377 
C 151.236162 133.563377 150.336805 133.935903 149.673797 134.59891 
C 149.010789 135.261918 148.638263 136.161276 148.638263 137.09891 
C 148.638263 138.036545 149.010789 138.935903 149.673797 139.59891 
C 150.336805 140.261918 151.236162 140.634444 152.173797 140.634444 
z
" style="fill:none;stroke:#9467bd;"/>
   </g>
   <g id="PathCollection_20">
    <path clip-path="url(#p3e3d4dd213)" d="M 157.147059 136.8864 
C 158.084693 136.8864 158.984051 136.513874 159.647059 135.850866 
C 160.310067 135.187858 160.682593 134.288501 160.682593 133.350866 
C 160.682593 132.413232 160.310067 131.513874 159.647059 130.850866 
C 158.984051 130.187858 158.084693 129.815332 157.147059 129.815332 
C 156.209424 129.815332 155.310067 130.187858 154.647059 130.850866 
C 153.984051 131.513874 153.611525 132.413232 153.611525 133.350866 
C 153.611525 134.288501 153.984051 135.187858 154.647059 135.850866 
C 155.310067 136.513874 156.209424 136.8864 157.147059 136.8864 
z
" style="fill:none;stroke:#9467bd;"/>
   </g>
   <g id="PathCollection_21">
    <path clip-path="url(#p3e3d4dd213)" d="M 162.120321 133.314022 
C 163.057955 133.314022 163.957313 132.941496 164.620321 132.278488 
C 165.283329 131.61548 165.655855 130.716123 165.655855 129.778488 
C 165.655855 128.840854 165.283329 127.941496 164.620321 127.278488 
C 163.957313 126.61548 163.057955 126.242954 162.120321 126.242954 
C 161.182686 126.242954 160.283329 126.61548 159.620321 127.278488 
C 158.957313 127.941496 158.584787 128.840854 158.584787 129.778488 
C 158.584787 130.716123 158.957313 131.61548 159.620321 132.278488 
C 160.283329 132.941496 161.182686 133.314022 162.120321 133.314022 
z
" style="fill:none;stroke:#9467bd;"/>
   </g>
   <g id="PathCollection_22">
    <path clip-path="url(#p3e3d4dd213)" d="M 167.093583 129.930122 
C 168.031217 129.930122 168.930575 129.557595 169.593583 128.894588 
C 170.256591 128.23158 170.629117 127.332222 170.629117 126.394588 
C 170.629117 125.456953 170.256591 124.557595 169.593583 123.894588 
C 168.930575 123.23158 168.031217 122.859054 167.093583 122.859054 
C 166.155948 122.859054 165.256591 123.23158 164.593583 123.894588 
C 163.930575 124.557595 163.558049 125.456953 163.558049 126.394588 
C 163.558049 127.332222 163.930575 128.23158 164.593583 128.894588 
C 165.256591 129.557595 166.155948 129.930122 167.093583 129.930122 
z
" style="fill:none;stroke:#9467bd;"/>
   </g>
   <g id="PathCollection_23">
    <path clip-path="url(#p3e3d4dd213)" d="M 172.066845 126.738902 
C 173.004479 126.738902 173.903837 126.366376 174.566845 125.703368 
C 175.229853 125.040361 175.602379 124.141003 175.602379 123.203368 
C 175.602379 122.265734 175.229853 121.366376 174.566845 120.703368 
C 173.903837 120.040361 173.004479 119.667835 172.066845 119.667835 
C 171.12921 119.667835 170.229853 120.040361 169.566845 120.703368 
C 168.903837 121.366376 168.531311 122.265734 168.531311 123.203368 
C 168.531311 124.141003 168.903837 125.040361 169.566845 125.703368 
C 170.229853 126.366376 171.12921 126.738902 172.066845 126.738902 
z
" style="fill:none;stroke:#9467bd;"/>
   </g>
   <g id="PathCollection_24">
    <path clip-path="url(#p3e3d4dd213)" d="M 177.040107 123.737101 
C 177.977742 123.737101 178.877099 123.364575 179.540107 122.701567 
C 180.203115 122.038559 180.575641 121.139202 180.575641 120.201567 
C 180.575641 119.263933 180.203115 118.364575 179.540107 117.701567 
C 178.877099 117.038559 177.977742 116.666033 177.040107 116.666033 
C 176.102472 116.666033 175.203115 117.038559 174.540107 117.701567 
C 173.877099 118.364575 173.504573 119.263933 173.504573 120.201567 
C 173.504573 121.139202 173.877099 122.038559 174.540107 122.701567 
C 175.203115 123.364575 176.102472 123.737101 177.040107 123.737101 
z
" style="fill:none;stroke:#9467bd;"/>
   </g>
   <g id="PathCollection_25">
    <path clip-path="url(#p3e3d4dd213)" d="M 182.013369 120.915355 
C 182.951004 120.915355 183.850361 120.542829 184.513369 119.879821 
C 185.176377 119.216813 185.548903 118.317455 185.548903 117.379821 
C 185.548903 116.442186 185.176377 115.542829 184.513369 114.879821 
C 183.850361 114.216813 182.951004 113.844287 182.013369 113.844287 
C 181.075734 113.844287 180.176377 114.216813 179.513369 114.879821 
C 178.850361 115.542829 178.477835 116.442186 178.477835 117.379821 
C 178.477835 118.317455 178.850361 119.216813 179.513369 119.879821 
C 180.176377 120.542829 181.075734 120.915355 182.013369 120.915355 
z
" style="fill:none;stroke:#9467bd;"/>
   </g>
   <g id="PathCollection_26">
    <path clip-path="url(#p3e3d4dd213)" d="M 186.986631 118.259732 
C 187.924266 118.259732 188.823623 117.887206 189.486631 117.224198 
C 190.149639 116.561191 190.522165 115.661833 190.522165 114.724198 
C 190.522165 113.786564 190.149639 112.887206 189.486631 112.224198 
C 188.823623 111.561191 187.924266 111.188665 186.986631 111.188665 
C 186.048996 111.188665 185.149639 111.561191 184.486631 112.224198 
C 183.823623 112.887206 183.451097 113.786564 183.451097 114.724198 
C 183.451097 115.661833 183.823623 116.561191 184.486631 117.224198 
C 185.149639 117.887206 186.048996 118.259732 186.986631 118.259732 
z
" style="fill:none;stroke:#9467bd;"/>
   </g>
   <g id="PathCollection_27">
    <path clip-path="url(#p3e3d4dd213)" d="M 191.959893 115.753375 
C 192.897528 115.753375 193.796885 115.380849 194.459893 114.717841 
C 195.122901 114.054833 195.495427 113.155476 195.495427 112.217841 
C 195.495427 111.280207 195.122901 110.380849 194.459893 109.717841 
C 193.796885 109.054833 192.897528 108.682307 191.959893 108.682307 
C 191.022258 108.682307 190.122901 109.054833 189.459893 109.717841 
C 188.796885 110.380849 188.424359 111.280207 188.424359 112.217841 
C 188.424359 113.155476 188.796885 114.054833 189.459893 114.717841 
C 190.122901 115.380849 191.022258 115.753375 191.959893 115.753375 
z
" style="fill:none;stroke:#9467bd;"/>
   </g>
   <g id="PathCollection_28">
    <path clip-path="url(#p3e3d4dd213)" d="M 196.933155 113.378186 
C 197.87079 113.378186 198.770147 113.00566 199.433155 112.342652 
C 200.096163 111.679644 200.468689 110.780287 200.468689 109.842652 
C 200.468689 108.905017 200.096163 108.00566 199.433155 107.342652 
C 198.770147 106.679644 197.87079 106.307118 196.933155 106.307118 
C 195.995521 106.307118 195.096163 106.679644 194.433155 107.342652 
C 193.770147 108.00566 193.397621 108.905017 193.397621 109.842652 
C 193.397621 110.780287 193.770147 111.679644 194.433155 112.342652 
C 195.096163 113.00566 195.995521 113.378186 196.933155 113.378186 
z
" style="fill:none;stroke:#9467bd;"/>
   </g>
   <g id="PathCollection_29">
    <path clip-path="url(#p3e3d4dd213)" d="M 201.906417 111.116511 
C 202.844052 111.116511 203.743409 110.743984 204.406417 110.080977 
C 205.069425 109.417969 205.441951 108.518611 205.441951 107.580977 
C 205.441951 106.643342 205.069425 105.743984 204.406417 105.080977 
C 203.743409 104.417969 202.844052 104.045443 201.906417 104.045443 
C 200.968783 104.045443 200.069425 104.417969 199.406417 105.080977 
C 198.743409 105.743984 198.370883 106.643342 198.370883 107.580977 
C 198.370883 108.518611 198.743409 109.417969 199.406417 110.080977 
C 200.069425 110.743984 200.968783 111.116511 201.906417 111.116511 
z
" style="fill:none;stroke:#9467bd;"/>
   </g>
   <g id="PathCollection_30">
    <path clip-path="url(#p3e3d4dd213)" d="M 206.879679 108.952749 
C 207.817314 108.952749 208.716671 108.580223 209.379679 107.917215 
C 210.042687 107.254207 210.415213 106.354849 210.415213 105.417215 
C 210.415213 104.47958 210.042687 103.580223 209.379679 102.917215 
C 208.716671 102.254207 207.817314 101.881681 206.879679 101.881681 
C 205.942045 101.881681 205.042687 102.254207 204.379679 102.917215 
C 203.716671 103.580223 203.344145 104.47958 203.344145 105.417215 
C 203.344145 106.354849 203.716671 107.254207 204.379679 107.917215 
C 205.042687 108.580223 205.942045 108.952749 206.879679 108.952749 
z
" style="fill:none;stroke:#9467bd;"/>
   </g>
   <g id="PathCollection_31">
    <path clip-path="url(#p3e3d4dd213)" d="M 211.852941 106.874841 
C 212.790576 106.874841 213.689933 106.502315 214.352941 105.839308 
C 215.015949 105.1763 215.388475 104.276942 215.388475 103.339308 
C 215.388475 102.401673 215.015949 101.502315 214.352941 100.839308 
C 213.689933 100.1763 212.790576 99.803774 211.852941 99.803774 
C 210.915307 99.803774 210.015949 100.1763 209.352941 100.839308 
C 208.689933 101.502315 208.317407 102.401673 208.317407 103.339308 
C 208.317407 104.276942 208.689933 105.1763 209.352941 105.839308 
C 210.015949 106.502315 210.915307 106.874841 211.852941 106.874841 
z
" style="fill:none;stroke:#9467bd;"/>
   </g>
   <g id="PathCollection_32">
    <path clip-path="url(#p3e3d4dd213)" d="M 216.826203 104.875573 
C 217.763838 104.875573 218.663195 104.503047 219.326203 103.840039 
C 219.989211 103.177031 220.361737 102.277674 220.361737 101.340039 
C 220.361737 100.402404 219.989211 99.503047 219.326203 98.840039 
C 218.663195 98.177031 217.763838 97.804505 216.826203 97.804505 
C 215.888569 97.804505 214.989211 98.177031 214.326203 98.840039 
C 213.663195 99.503047 213.290669 100.402404 213.290669 101.340039 
C 213.290669 102.277674 213.663195 103.177031 214.326203 103.840039 
C 214.989211 104.503047 215.888569 104.875573 216.826203 104.875573 
z
" style="fill:none;stroke:#9467bd;"/>
   </g>
   <g id="PathCollection_33">
    <path clip-path="url(#p3e3d4dd213)" d="M 221.799465 102.953631 
C 222.7371 102.953631 223.636457 102.581104 224.299465 101.918097 
C 224.962473 101.255089 225.334999 100.355731 225.334999 99.418097 
C 225.334999 98.480462 224.962473 97.581104 224.299465 96.918097 
C 223.636457 96.255089 222.7371 95.882563 221.799465 95.882563 
C 220.861831 95.882563 219.962473 96.255089 219.299465 96.918097 
C 218.636457 97.581104 218.263931 98.480462 218.263931 99.418097 
C 218.263931 100.355731 218.636457 101.255089 219.299465 101.918097 
C 219.962473 102.581104 220.861831 102.953631 221.799465 102.953631 
z
" style="fill:none;stroke:#9467bd;"/>
   </g>
   <g id="PathCollection_34">
    <path clip-path="url(#p3e3d4dd213)" d="M 226.772727 101.11436 
C 227.710362 101.11436 228.60972 100.741834 229.272727 100.078827 
C 229.935735 99.415819 230.308261 98.516461 230.308261 97.578827 
C 230.308261 96.641192 229.935735 95.741834 229.272727 95.078827 
C 228.60972 94.415819 227.710362 94.043293 226.772727 94.043293 
C 225.835093 94.043293 224.935735 94.415819 224.272727 95.078827 
C 223.60972 95.741834 223.237193 96.641192 223.237193 97.578827 
C 223.237193 98.516461 223.60972 99.415819 224.272727 100.078827 
C 224.935735 100.741834 225.835093 101.11436 226.772727 101.11436 
z
" style="fill:none;stroke:#9467bd;"/>
   </g>
   <g id="PathCollection_35">
    <path clip-path="url(#p3e3d4dd213)" d="M 231.745989 99.370168 
C 232.683624 99.370168 233.582982 98.997642 234.245989 98.334634 
C 234.908997 97.671627 235.281523 96.772269 235.281523 95.834634 
C 235.281523 94.897 234.908997 93.997642 234.245989 93.334634 
C 233.582982 92.671627 232.683624 92.299101 231.745989 92.299101 
C 230.808355 92.299101 229.908997 92.671627 229.245989 93.334634 
C 228.582982 93.997642 228.210455 94.897 228.210455 95.834634 
C 228.210455 96.772269 228.582982 97.671627 229.245989 98.334634 
C 229.908997 98.997642 230.808355 99.370168 231.745989 99.370168 
z
" style="fill:none;stroke:#9467bd;"/>
   </g>
   <g id="PathCollection_36">
    <path clip-path="url(#p3e3d4dd213)" d="M 236.719251 97.740497 
C 237.656886 97.740497 238.556244 97.36797 239.219251 96.704963 
C 239.882259 96.041955 240.254785 95.142597 240.254785 94.204963 
C 240.254785 93.267328 239.882259 92.36797 239.219251 91.704963 
C 238.556244 91.041955 237.656886 90.669429 236.719251 90.669429 
C 235.781617 90.669429 234.882259 91.041955 234.219251 91.704963 
C 233.556244 92.36797 233.183717 93.267328 233.183717 94.204963 
C 233.183717 95.142597 233.556244 96.041955 234.219251 96.704963 
C 234.882259 97.36797 235.781617 97.740497 236.719251 97.740497 
z
" style="fill:none;stroke:#9467bd;"/>
   </g>
   <g id="PathCollection_37">
    <path clip-path="url(#p3e3d4dd213)" d="M 241.692513 96.251329 
C 242.630148 96.251329 243.529506 95.878803 244.192513 95.215796 
C 244.855521 94.552788 245.228047 93.65343 245.228047 92.715796 
C 245.228047 91.778161 244.855521 90.878803 244.192513 90.215796 
C 243.529506 89.552788 242.630148 89.180262 241.692513 89.180262 
C 240.754879 89.180262 239.855521 89.552788 239.192513 90.215796 
C 238.529506 90.878803 238.156979 91.778161 238.156979 92.715796 
C 238.156979 93.65343 238.529506 94.552788 239.192513 95.215796 
C 239.855521 95.878803 240.754879 96.251329 241.692513 96.251329 
z
" style="fill:none;stroke:#9467bd;"/>
   </g>
   <g id="PathCollection_38">
    <path clip-path="url(#p3e3d4dd213)" d="M 246.665775 94.93416 
C 247.60341 94.93416 248.502768 94.561634 249.165775 93.898626 
C 249.828783 93.235618 250.201309 92.336261 250.201309 91.398626 
C 250.201309 90.460992 249.828783 89.561634 249.165775 88.898626 
C 248.502768 88.235618 247.60341 87.863092 246.665775 87.863092 
C 245.728141 87.863092 244.828783 88.235618 244.165775 88.898626 
C 243.502768 89.561634 243.130241 90.460992 243.130241 91.398626 
C 243.130241 92.336261 243.502768 93.235618 244.165775 93.898626 
C 244.828783 94.561634 245.728141 94.93416 246.665775 94.93416 
z
" style="fill:none;stroke:#9467bd;"/>
   </g>
   <g id="PathCollection_39">
    <path clip-path="url(#p3e3d4dd213)" d="M 251.639037 93.824364 
C 252.576672 93.824364 253.47603 93.451838 254.139037 92.78883 
C 254.802045 92.125822 255.174571 91.226465 255.174571 90.28883 
C 255.174571 89.351196 254.802045 88.451838 254.139037 87.78883 
C 253.47603 87.125822 252.576672 86.753296 251.639037 86.753296 
C 250.701403 86.753296 249.802045 87.125822 249.139037 87.78883 
C 248.47603 88.451838 248.103504 89.351196 248.103504 90.28883 
C 248.103504 91.226465 248.47603 92.125822 249.139037 92.78883 
C 249.802045 93.451838 250.701403 93.824364 251.639037 93.824364 
z
" style="fill:none;stroke:#9467bd;"/>
   </g>
   <g id="PathCollection_40">
    <path clip-path="url(#p3e3d4dd213)" d="M 256.612299 92.958924 
C 257.549934 92.958924 258.449292 92.586398 259.112299 91.92339 
C 259.775307 91.260383 260.147833 90.361025 260.147833 89.42339 
C 260.147833 88.485756 259.775307 87.586398 259.112299 86.92339 
C 258.449292 86.260383 257.549934 85.887857 256.612299 85.887857 
C 255.674665 85.887857 254.775307 86.260383 254.112299 86.92339 
C 253.449292 87.586398 253.076766 88.485756 253.076766 89.42339 
C 253.076766 90.361025 253.449292 91.260383 254.112299 91.92339 
C 254.775307 92.586398 255.674665 92.958924 256.612299 92.958924 
z
" style="fill:none;stroke:#9467bd;"/>
   </g>
   <g id="PathCollection_41">
    <path clip-path="url(#p3e3d4dd213)" d="M 261.585561 92.37344 
C 262.523196 92.37344 263.422554 92.000914 264.085561 91.337906 
C 264.748569 90.674899 265.121095 89.775541 265.121095 88.837906 
C 265.121095 87.900272 264.748569 87.000914 264.085561 86.337906 
C 263.422554 85.674899 262.523196 85.302373 261.585561 85.302373 
C 260.647927 85.302373 259.748569 85.674899 259.085561 86.337906 
C 258.422554 87.000914 258.050028 87.900272 258.050028 88.837906 
C 258.050028 89.775541 258.422554 90.674899 259.085561 91.337906 
C 259.748569 92.000914 260.647927 92.37344 261.585561 92.37344 
z
" style="fill:none;stroke:#9467bd;"/>
   </g>
   <g id="PathCollection_42">
    <path clip-path="url(#p3e3d4dd213)" d="M 266.558824 92.098373 
C 267.496458 92.098373 268.395816 91.725847 269.058824 91.062839 
C 269.721831 90.399832 270.094357 89.500474 270.094357 88.562839 
C 270.094357 87.625205 269.721831 86.725847 269.058824 86.062839 
C 268.395816 85.399832 267.496458 85.027305 266.558824 85.027305 
C 265.621189 85.027305 264.721831 85.399832 264.058824 86.062839 
C 263.395816 86.725847 263.02329 87.625205 263.02329 88.562839 
C 263.02329 89.500474 263.395816 90.399832 264.058824 91.062839 
C 264.721831 91.725847 265.621189 92.098373 266.558824 92.098373 
z
" style="fill:none;stroke:#9467bd;"/>
   </g>
   <g id="PathCollection_43">
    <path clip-path="url(#p3e3d4dd213)" d="M 271.532086 92.154462 
C 272.46972 92.154462 273.369078 91.781935 274.032086 91.118928 
C 274.695093 90.45592 275.067619 89.556562 275.067619 88.618928 
C 275.067619 87.681293 274.695093 86.781935 274.032086 86.118928 
C 273.369078 85.45592 272.46972 85.083394 271.532086 85.083394 
C 270.594451 85.083394 269.695093 85.45592 269.032086 86.118928 
C 268.369078 86.781935 267.996552 87.681293 267.996552 88.618928 
C 267.996552 89.556562 268.369078 90.45592 269.032086 91.118928 
C 269.695093 91.781935 270.594451 92.154462 271.532086 92.154462 
z
" style="fill:none;stroke:#9467bd;"/>
   </g>
   <g id="PathCollection_44">
    <path clip-path="url(#p3e3d4dd213)" d="M 276.505348 92.54725 
C 277.442982 92.54725 278.34234 92.174724 279.005348 91.511716 
C 279.668355 90.848709 280.040881 89.949351 280.040881 89.011716 
C 280.040881 88.074082 279.668355 87.174724 279.005348 86.511716 
C 278.34234 85.848709 277.442982 85.476182 276.505348 85.476182 
C 275.567713 85.476182 274.668355 85.848709 274.005348 86.511716 
C 273.34234 87.174724 272.969814 88.074082 272.969814 89.011716 
C 272.969814 89.949351 273.34234 90.848709 274.005348 91.511716 
C 274.668355 92.174724 275.567713 92.54725 276.505348 92.54725 
z
" style="fill:none;stroke:#9467bd;"/>
   </g>
   <g id="PathCollection_45">
    <path clip-path="url(#p3e3d4dd213)" d="M 281.47861 93.260678 
C 282.416244 93.260678 283.315602 92.888152 283.97861 92.225144 
C 284.641617 91.562137 285.014144 90.662779 285.014144 89.725144 
C 285.014144 88.78751 284.641617 87.888152 283.97861 87.225144 
C 283.315602 86.562137 282.416244 86.18961 281.47861 86.18961 
C 280.540975 86.18961 279.641617 86.562137 278.97861 87.225144 
C 278.315602 87.888152 277.943076 88.78751 277.943076 89.725144 
C 277.943076 90.662779 278.315602 91.562137 278.97861 92.225144 
C 279.641617 92.888152 280.540975 93.260678 281.47861 93.260678 
z
" style="fill:none;stroke:#9467bd;"/>
   </g>
   <g id="PathCollection_46">
    <path clip-path="url(#p3e3d4dd213)" d="M 286.451872 94.249661 
C 287.389506 94.249661 288.288864 93.877135 288.951872 93.214127 
C 289.614879 92.551119 289.987406 91.651762 289.987406 90.714127 
C 289.987406 89.776493 289.614879 88.877135 288.951872 88.214127 
C 288.288864 87.551119 287.389506 87.178593 286.451872 87.178593 
C 285.514237 87.178593 284.614879 87.551119 283.951872 88.214127 
C 283.288864 88.877135 282.916338 89.776493 282.916338 90.714127 
C 282.916338 91.651762 283.288864 92.551119 283.951872 93.214127 
C 284.614879 93.877135 285.514237 94.249661 286.451872 94.249661 
z
" style="fill:none;stroke:#9467bd;"/>
   </g>
   <g id="PathCollection_47">
    <path clip-path="url(#p3e3d4dd213)" d="M 291.425134 95.431613 
C 292.362768 95.431613 293.262126 95.059087 293.925134 94.396079 
C 294.588141 93.733072 294.960668 92.833714 294.960668 91.896079 
C 294.960668 90.958445 294.588141 90.059087 293.925134 89.396079 
C 293.262126 88.733072 292.362768 88.360545 291.425134 88.360545 
C 290.487499 88.360545 289.588141 88.733072 288.925134 89.396079 
C 288.262126 90.059087 287.8896 90.958445 287.8896 91.896079 
C 287.8896 92.833714 288.262126 93.733072 288.925134 94.396079 
C 289.588141 95.059087 290.487499 95.431613 291.425134 95.431613 
z
" style="fill:none;stroke:#9467bd;"/>
   </g>
   <g id="PathCollection_48">
    <path clip-path="url(#p3e3d4dd213)" d="M 296.398396 96.676851 
C 297.33603 96.676851 298.235388 96.304325 298.898396 95.641317 
C 299.561403 94.97831 299.93393 94.078952 299.93393 93.141317 
C 299.93393 92.203683 299.561403 91.304325 298.898396 90.641317 
C 298.235388 89.97831 297.33603 89.605783 296.398396 89.605783 
C 295.460761 89.605783 294.561403 89.97831 293.898396 90.641317 
C 293.235388 91.304325 292.862862 92.203683 292.862862 93.141317 
C 292.862862 94.078952 293.235388 94.97831 293.898396 95.641317 
C 294.561403 96.304325 295.460761 96.676851 296.398396 96.676851 
z
" style="fill:none;stroke:#9467bd;"/>
   </g>
   <g id="PathCollection_49">
    <path clip-path="url(#p3e3d4dd213)" d="M 301.371658 97.79782 
C 302.309292 97.79782 303.20865 97.425294 303.871658 96.762286 
C 304.534666 96.099278 304.907192 95.19992 304.907192 94.262286 
C 304.907192 93.324651 304.534666 92.425294 303.871658 91.762286 
C 303.20865 91.099278 302.309292 90.726752 301.371658 90.726752 
C 300.434023 90.726752 299.534666 91.099278 298.871658 91.762286 
C 298.20865 92.425294 297.836124 93.324651 297.836124 94.262286 
C 297.836124 95.19992 298.20865 96.099278 298.871658 96.762286 
C 299.534666 97.425294 300.434023 97.79782 301.371658 97.79782 
z
" style="fill:none;stroke:#9467bd;"/>
   </g>
   <g id="PathCollection_50">
    <path clip-path="url(#p3e3d4dd213)" d="M 306.34492 98.537078 
C 307.282554 98.537078 308.181912 98.164552 308.84492 97.501544 
C 309.507928 96.838537 309.880454 95.939179 309.880454 95.001544 
C 309.880454 94.06391 309.507928 93.164552 308.84492 92.501544 
C 308.181912 91.838537 307.282554 91.466011 306.34492 91.466011 
C 305.407285 91.466011 304.507928 91.838537 303.84492 92.501544 
C 303.181912 93.164552 302.809386 94.06391 302.809386 95.001544 
C 302.809386 95.939179 303.181912 96.838537 303.84492 97.501544 
C 304.507928 98.164552 305.407285 98.537078 306.34492 98.537078 
z
" style="fill:none;stroke:#9467bd;"/>
   </g>
   <g id="PathCollection_51">
    <path clip-path="url(#p3e3d4dd213)" d="M 311.318182 98.553997 
C 312.255816 98.553997 313.155174 98.181471 313.818182 97.518463 
C 314.48119 96.855455 314.853716 95.956098 314.853716 95.018463 
C 314.853716 94.080829 314.48119 93.181471 313.818182 92.518463 
C 313.155174 91.855455 312.255816 91.482929 311.318182 91.482929 
C 310.380547 91.482929 309.48119 91.855455 308.818182 92.518463 
C 308.155174 93.181471 307.782648 94.080829 307.782648 95.018463 
C 307.782648 95.956098 308.155174 96.855455 308.818182 97.518463 
C 309.48119 98.181471 310.380547 98.553997 311.318182 98.553997 
z
" style="fill:none;stroke:#9467bd;"/>
   </g>
   <g id="PathCollection_52">
    <defs>
     <path d="M 0 3.535534 
C 0.937635 3.535534 1.836992 3.163008 2.5 2.5 
C 3.163008 1.836992 3.535534 0.937635 3.535534 0 
C 3.535534 -0.937635 3.163008 -1.836992 2.5 -2.5 
C 1.836992 -3.163008 0.937635 -3.535534 0 -3.535534 
C -0.937635 -3.535534 -1.836992 -3.163008 -2.5 -2.5 
C -3.163008 -1.836992 -3.535534 -0.937635 -3.535534 0 
C -3.535534 0.937635 -3.163008 1.836992 -2.5 2.5 
C -1.836992 3.163008 -0.937635 3.535534 0 3.535534 
z
" id="m7c9d552817" style="stroke:#9467bd;"/>
    </defs>
    <g clip-path="url(#p3e3d4dd213)">
     <use style="fill:#9467bd;stroke:#9467bd;" x="62.65508" xlink:href="#m7c9d552817" y="179.796772"/>
    </g>
   </g>
   <g id="PathCollection_53">
    <g clip-path="url(#p3e3d4dd213)">
     <use style="fill:#9467bd;stroke:#9467bd;" x="67.628342" xlink:href="#m7c9d552817" y="180.060458"/>
    </g>
   </g>
   <g id="PathCollection_54">
    <g clip-path="url(#p3e3d4dd213)">
     <use style="fill:#9467bd;stroke:#9467bd;" x="72.601604" xlink:href="#m7c9d552817" y="179.521249"/>
    </g>
   </g>
   <g id="PathCollection_55">
    <g clip-path="url(#p3e3d4dd213)">
     <use style="fill:#9467bd;stroke:#9467bd;" x="77.574866" xlink:href="#m7c9d552817" y="178.287468"/>
    </g>
   </g>
   <g id="PathCollection_56">
    <g clip-path="url(#p3e3d4dd213)">
     <use style="fill:#9467bd;stroke:#9467bd;" x="82.548128" xlink:href="#m7c9d552817" y="176.441281"/>
    </g>
   </g>
   <g id="PathCollection_57">
    <g clip-path="url(#p3e3d4dd213)">
     <use style="fill:#9467bd;stroke:#9467bd;" x="87.52139" xlink:href="#m7c9d552817" y="174.065806"/>
    </g>
   </g>
   <g id="PathCollection_58">
    <g clip-path="url(#p3e3d4dd213)">
     <use style="fill:#9467bd;stroke:#9467bd;" x="92.494652" xlink:href="#m7c9d552817" y="171.204731"/>
    </g>
   </g>
   <g id="PathCollection_59">
    <g clip-path="url(#p3e3d4dd213)">
     <use style="fill:#9467bd;stroke:#9467bd;" x="97.467914" xlink:href="#m7c9d552817" y="167.910492"/>
    </g>
   </g>
   <g id="PathCollection_60">
    <g clip-path="url(#p3e3d4dd213)">
     <use style="fill:#9467bd;stroke:#9467bd;" x="102.441176" xlink:href="#m7c9d552817" y="164.225041"/>
    </g>
   </g>
   <g id="PathCollection_61">
    <g clip-path="url(#p3e3d4dd213)">
     <use style="fill:#9467bd;stroke:#9467bd;" x="107.414439" xlink:href="#m7c9d552817" y="160.186828"/>
    </g>
   </g>
   <g id="PathCollection_62">
    <g clip-path="url(#p3e3d4dd213)">
     <use style="fill:#9467bd;stroke:#9467bd;" x="112.387701" xlink:href="#m7c9d552817" y="155.832842"/>
    </g>
   </g>
   <g id="PathCollection_63">
    <g clip-path="url(#p3e3d4dd213)">
     <use style="fill:#9467bd;stroke:#9467bd;" x="117.360963" xlink:href="#m7c9d552817" y="151.200209"/>
    </g>
   </g>
   <g id="PathCollection_64">
    <g clip-path="url(#p3e3d4dd213)">
     <use style="fill:#9467bd;stroke:#9467bd;" x="122.334225" xlink:href="#m7c9d552817" y="146.327358"/>
    </g>
   </g>
   <g id="PathCollection_65">
    <g clip-path="url(#p3e3d4dd213)">
     <use style="fill:#9467bd;stroke:#9467bd;" x="127.307487" xlink:href="#m7c9d552817" y="141.254818"/>
    </g>
   </g>
   <g id="PathCollection_66">
    <g clip-path="url(#p3e3d4dd213)">
     <use style="fill:#9467bd;stroke:#9467bd;" x="132.280749" xlink:href="#m7c9d552817" y="136.025654"/>
    </g>
   </g>
   <g id="PathCollection_67">
    <g clip-path="url(#p3e3d4dd213)">
     <use style="fill:#9467bd;stroke:#9467bd;" x="137.254011" xlink:href="#m7c9d552817" y="130.685605"/>
    </g>
   </g>
   <g id="PathCollection_68">
    <g clip-path="url(#p3e3d4dd213)">
     <use style="fill:#9467bd;stroke:#9467bd;" x="142.227273" xlink:href="#m7c9d552817" y="125.282923"/>
    </g>
   </g>
   <g id="PathCollection_69">
    <g clip-path="url(#p3e3d4dd213)">
     <use style="fill:#9467bd;stroke:#9467bd;" x="147.200535" xlink:href="#m7c9d552817" y="119.867986"/>
    </g>
   </g>
   <g id="PathCollection_70">
    <g clip-path="url(#p3e3d4dd213)">
     <use style="fill:#9467bd;stroke:#9467bd;" x="152.173797" xlink:href="#m7c9d552817" y="114.492687"/>
    </g>
   </g>
   <g id="PathCollection_71">
    <g clip-path="url(#p3e3d4dd213)">
     <use style="fill:#9467bd;stroke:#9467bd;" x="157.147059" xlink:href="#m7c9d552817" y="109.209654"/>
    </g>
   </g>
   <g id="PathCollection_72">
    <g clip-path="url(#p3e3d4dd213)">
     <use style="fill:#9467bd;stroke:#9467bd;" x="162.120321" xlink:href="#m7c9d552817" y="104.071329"/>
    </g>
   </g>
   <g id="PathCollection_73">
    <g clip-path="url(#p3e3d4dd213)">
     <use style="fill:#9467bd;stroke:#9467bd;" x="167.093583" xlink:href="#m7c9d552817" y="99.128934"/>
    </g>
   </g>
   <g id="PathCollection_74">
    <g clip-path="url(#p3e3d4dd213)">
     <use style="fill:#9467bd;stroke:#9467bd;" x="172.066845" xlink:href="#m7c9d552817" y="94.431371"/>
    </g>
   </g>
   <g id="PathCollection_75">
    <g clip-path="url(#p3e3d4dd213)">
     <use style="fill:#9467bd;stroke:#9467bd;" x="177.040107" xlink:href="#m7c9d552817" y="90.024082"/>
    </g>
   </g>
   <g id="PathCollection_76">
    <g clip-path="url(#p3e3d4dd213)">
     <use style="fill:#9467bd;stroke:#9467bd;" x="182.013369" xlink:href="#m7c9d552817" y="85.947902"/>
    </g>
   </g>
   <g id="PathCollection_77">
    <g clip-path="url(#p3e3d4dd213)">
     <use style="fill:#9467bd;stroke:#9467bd;" x="186.986631" xlink:href="#m7c9d552817" y="82.237953"/>
    </g>
   </g>
   <g id="PathCollection_78">
    <g clip-path="url(#p3e3d4dd213)">
     <use style="fill:#9467bd;stroke:#9467bd;" x="191.959893" xlink:href="#m7c9d552817" y="78.922588"/>
    </g>
   </g>
   <g id="PathCollection_79">
    <g clip-path="url(#p3e3d4dd213)">
     <use style="fill:#9467bd;stroke:#9467bd;" x="196.933155" xlink:href="#m7c9d552817" y="76.02245"/>
    </g>
   </g>
   <g id="PathCollection_80">
    <g clip-path="url(#p3e3d4dd213)">
     <use style="fill:#9467bd;stroke:#9467bd;" x="201.906417" xlink:href="#m7c9d552817" y="73.549659"/>
    </g>
   </g>
   <g id="PathCollection_81">
    <g clip-path="url(#p3e3d4dd213)">
     <use style="fill:#9467bd;stroke:#9467bd;" x="206.879679" xlink:href="#m7c9d552817" y="71.507163"/>
    </g>
   </g>
   <g id="PathCollection_82">
    <g clip-path="url(#p3e3d4dd213)">
     <use style="fill:#9467bd;stroke:#9467bd;" x="211.852941" xlink:href="#m7c9d552817" y="69.888306"/>
    </g>
   </g>
   <g id="PathCollection_83">
    <g clip-path="url(#p3e3d4dd213)">
     <use style="fill:#9467bd;stroke:#9467bd;" x="216.826203" xlink:href="#m7c9d552817" y="68.676616"/>
    </g>
   </g>
   <g id="PathCollection_84">
    <g clip-path="url(#p3e3d4dd213)">
     <use style="fill:#9467bd;stroke:#9467bd;" x="221.799465" xlink:href="#m7c9d552817" y="67.845883"/>
    </g>
   </g>
   <g id="PathCollection_85">
    <g clip-path="url(#p3e3d4dd213)">
     <use style="fill:#9467bd;stroke:#9467bd;" x="226.772727" xlink:href="#m7c9d552817" y="67.360534"/>
    </g>
   </g>
   <g id="PathCollection_86">
    <g clip-path="url(#p3e3d4dd213)">
     <use style="fill:#9467bd;stroke:#9467bd;" x="231.745989" xlink:href="#m7c9d552817" y="67.176348"/>
    </g>
   </g>
   <g id="PathCollection_87">
    <g clip-path="url(#p3e3d4dd213)">
     <use style="fill:#9467bd;stroke:#9467bd;" x="236.719251" xlink:href="#m7c9d552817" y="67.241555"/>
    </g>
   </g>
   <g id="PathCollection_88">
    <g clip-path="url(#p3e3d4dd213)">
     <use style="fill:#9467bd;stroke:#9467bd;" x="241.692513" xlink:href="#m7c9d552817" y="67.498339"/>
    </g>
   </g>
   <g id="PathCollection_89">
    <g clip-path="url(#p3e3d4dd213)">
     <use style="fill:#9467bd;stroke:#9467bd;" x="246.665775" xlink:href="#m7c9d552817" y="67.884784"/>
    </g>
   </g>
   <g id="PathCollection_90">
    <g clip-path="url(#p3e3d4dd213)">
     <use style="fill:#9467bd;stroke:#9467bd;" x="251.639037" xlink:href="#m7c9d552817" y="68.33731"/>
    </g>
   </g>
   <g id="PathCollection_91">
    <g clip-path="url(#p3e3d4dd213)">
     <use style="fill:#9467bd;stroke:#9467bd;" x="256.612299" xlink:href="#m7c9d552817" y="68.79361"/>
    </g>
   </g>
   <g id="PathCollection_92">
    <g clip-path="url(#p3e3d4dd213)">
     <use style="fill:#9467bd;stroke:#9467bd;" x="261.585561" xlink:href="#m7c9d552817" y="69.196144"/>
    </g>
   </g>
   <g id="PathCollection_93">
    <g clip-path="url(#p3e3d4dd213)">
     <use style="fill:#9467bd;stroke:#9467bd;" x="266.558824" xlink:href="#m7c9d552817" y="69.496212"/>
    </g>
   </g>
   <g id="PathCollection_94">
    <g clip-path="url(#p3e3d4dd213)">
     <use style="fill:#9467bd;stroke:#9467bd;" x="271.532086" xlink:href="#m7c9d552817" y="69.658645"/>
    </g>
   </g>
   <g id="PathCollection_95">
    <g clip-path="url(#p3e3d4dd213)">
     <use style="fill:#9467bd;stroke:#9467bd;" x="276.505348" xlink:href="#m7c9d552817" y="69.667148"/>
    </g>
   </g>
   <g id="PathCollection_96">
    <g clip-path="url(#p3e3d4dd213)">
     <use style="fill:#9467bd;stroke:#9467bd;" x="281.47861" xlink:href="#m7c9d552817" y="69.530332"/>
    </g>
   </g>
   <g id="PathCollection_97">
    <g clip-path="url(#p3e3d4dd213)">
     <use style="fill:#9467bd;stroke:#9467bd;" x="286.451872" xlink:href="#m7c9d552817" y="69.288458"/>
    </g>
   </g>
   <g id="PathCollection_98">
    <g clip-path="url(#p3e3d4dd213)">
     <use style="fill:#9467bd;stroke:#9467bd;" x="291.425134" xlink:href="#m7c9d552817" y="69.020951"/>
    </g>
   </g>
   <g id="PathCollection_99">
    <g clip-path="url(#p3e3d4dd213)">
     <use style="fill:#9467bd;stroke:#9467bd;" x="296.398396" xlink:href="#m7c9d552817" y="68.854687"/>
    </g>
   </g>
   <g id="PathCollection_100">
    <g clip-path="url(#p3e3d4dd213)">
     <use style="fill:#9467bd;stroke:#9467bd;" x="301.371658" xlink:href="#m7c9d552817" y="68.973115"/>
    </g>
   </g>
   <g id="PathCollection_101">
    <g clip-path="url(#p3e3d4dd213)">
     <use style="fill:#9467bd;stroke:#9467bd;" x="306.34492" xlink:href="#m7c9d552817" y="69.626239"/>
    </g>
   </g>
   <g id="PathCollection_102">
    <g clip-path="url(#p3e3d4dd213)">
     <use style="fill:#9467bd;stroke:#9467bd;" x="311.318182" xlink:href="#m7c9d552817" y="71.141483"/>
    </g>
   </g>
   <g id="matplotlib.axis_1"/>
   <g id="matplotlib.axis_2">
    <g id="ytick_1">
     <g id="line2d_1">
      <defs>
       <path d="M 0 0 
L -3.5 0 
" id="m3c01bdb689" style="stroke:#000000;stroke-width:0.8;"/>
      </defs>
      <g>
       <use style="stroke:#000000;stroke-width:0.8;" x="45" xlink:href="#m3c01bdb689" y="181.217297"/>
      </g>
     </g>
     <g id="text_1">
      <!-- 0.0 -->
      <g transform="translate(22.096875 185.016516)scale(0.1 -0.1)">
       <defs>
        <path d="M 31.78125 66.40625 
Q 24.171875 66.40625 20.328125 58.90625 
Q 16.5 51.421875 16.5 36.375 
Q 16.5 21.390625 20.328125 13.890625 
Q 24.171875 6.390625 31.78125 6.390625 
Q 39.453125 6.390625 43.28125 13.890625 
Q 47.125 21.390625 47.125 36.375 
Q 47.125 51.421875 43.28125 58.90625 
Q 39.453125 66.40625 31.78125 66.40625 
z
M 31.78125 74.21875 
Q 44.046875 74.21875 50.515625 64.515625 
Q 56.984375 54.828125 56.984375 36.375 
Q 56.984375 17.96875 50.515625 8.265625 
Q 44.046875 -1.421875 31.78125 -1.421875 
Q 19.53125 -1.421875 13.0625 8.265625 
Q 6.59375 17.96875 6.59375 36.375 
Q 6.59375 54.828125 13.0625 64.515625 
Q 19.53125 74.21875 31.78125 74.21875 
z
" id="DejaVuSans-48"/>
        <path d="M 10.6875 12.40625 
L 21 12.40625 
L 21 0 
L 10.6875 0 
z
" id="DejaVuSans-46"/>
       </defs>
       <use xlink:href="#DejaVuSans-48"/>
       <use x="63.623047" xlink:href="#DejaVuSans-46"/>
       <use x="95.410156" xlink:href="#DejaVuSans-48"/>
      </g>
     </g>
    </g>
    <g id="ytick_2">
     <g id="line2d_2">
      <g>
       <use style="stroke:#000000;stroke-width:0.8;" x="45" xlink:href="#m3c01bdb689" y="150.79681"/>
      </g>
     </g>
     <g id="text_2">
      <!-- 0.1 -->
      <g transform="translate(22.096875 154.596028)scale(0.1 -0.1)">
       <defs>
        <path d="M 12.40625 8.296875 
L 28.515625 8.296875 
L 28.515625 63.921875 
L 10.984375 60.40625 
L 10.984375 69.390625 
L 28.421875 72.90625 
L 38.28125 72.90625 
L 38.28125 8.296875 
L 54.390625 8.296875 
L 54.390625 0 
L 12.40625 0 
z
" id="DejaVuSans-49"/>
       </defs>
       <use xlink:href="#DejaVuSans-48"/>
       <use x="63.623047" xlink:href="#DejaVuSans-46"/>
       <use x="95.410156" xlink:href="#DejaVuSans-49"/>
      </g>
     </g>
    </g>
    <g id="ytick_3">
     <g id="line2d_3">
      <g>
       <use style="stroke:#000000;stroke-width:0.8;" x="45" xlink:href="#m3c01bdb689" y="120.376322"/>
      </g>
     </g>
     <g id="text_3">
      <!-- 0.2 -->
      <g transform="translate(22.096875 124.175541)scale(0.1 -0.1)">
       <defs>
        <path d="M 19.1875 8.296875 
L 53.609375 8.296875 
L 53.609375 0 
L 7.328125 0 
L 7.328125 8.296875 
Q 12.9375 14.109375 22.625 23.890625 
Q 32.328125 33.6875 34.8125 36.53125 
Q 39.546875 41.84375 41.421875 45.53125 
Q 43.3125 49.21875 43.3125 52.78125 
Q 43.3125 58.59375 39.234375 62.25 
Q 35.15625 65.921875 28.609375 65.921875 
Q 23.96875 65.921875 18.8125 64.3125 
Q 13.671875 62.703125 7.8125 59.421875 
L 7.8125 69.390625 
Q 13.765625 71.78125 18.9375 73 
Q 24.125 74.21875 28.421875 74.21875 
Q 39.75 74.21875 46.484375 68.546875 
Q 53.21875 62.890625 53.21875 53.421875 
Q 53.21875 48.921875 51.53125 44.890625 
Q 49.859375 40.875 45.40625 35.40625 
Q 44.1875 33.984375 37.640625 27.21875 
Q 31.109375 20.453125 19.1875 8.296875 
z
" id="DejaVuSans-50"/>
       </defs>
       <use xlink:href="#DejaVuSans-48"/>
       <use x="63.623047" xlink:href="#DejaVuSans-46"/>
       <use x="95.410156" xlink:href="#DejaVuSans-50"/>
      </g>
     </g>
    </g>
    <g id="ytick_4">
     <g id="line2d_4">
      <g>
       <use style="stroke:#000000;stroke-width:0.8;" x="45" xlink:href="#m3c01bdb689" y="89.955835"/>
      </g>
     </g>
     <g id="text_4">
      <!-- 0.3 -->
      <g transform="translate(22.096875 93.755053)scale(0.1 -0.1)">
       <defs>
        <path d="M 40.578125 39.3125 
Q 47.65625 37.796875 51.625 33 
Q 55.609375 28.21875 55.609375 21.1875 
Q 55.609375 10.40625 48.1875 4.484375 
Q 40.765625 -1.421875 27.09375 -1.421875 
Q 22.515625 -1.421875 17.65625 -0.515625 
Q 12.796875 0.390625 7.625 2.203125 
L 7.625 11.71875 
Q 11.71875 9.328125 16.59375 8.109375 
Q 21.484375 6.890625 26.8125 6.890625 
Q 36.078125 6.890625 40.9375 10.546875 
Q 45.796875 14.203125 45.796875 21.1875 
Q 45.796875 27.640625 41.28125 31.265625 
Q 36.765625 34.90625 28.71875 34.90625 
L 20.21875 34.90625 
L 20.21875 43.015625 
L 29.109375 43.015625 
Q 36.375 43.015625 40.234375 45.921875 
Q 44.09375 48.828125 44.09375 54.296875 
Q 44.09375 59.90625 40.109375 62.90625 
Q 36.140625 65.921875 28.71875 65.921875 
Q 24.65625 65.921875 20.015625 65.03125 
Q 15.375 64.15625 9.8125 62.3125 
L 9.8125 71.09375 
Q 15.4375 72.65625 20.34375 73.4375 
Q 25.25 74.21875 29.59375 74.21875 
Q 40.828125 74.21875 47.359375 69.109375 
Q 53.90625 64.015625 53.90625 55.328125 
Q 53.90625 49.265625 50.4375 45.09375 
Q 46.96875 40.921875 40.578125 39.3125 
z
" id="DejaVuSans-51"/>
       </defs>
       <use xlink:href="#DejaVuSans-48"/>
       <use x="63.623047" xlink:href="#DejaVuSans-46"/>
       <use x="95.410156" xlink:href="#DejaVuSans-51"/>
      </g>
     </g>
    </g>
    <g id="ytick_5">
     <g id="line2d_5">
      <g>
       <use style="stroke:#000000;stroke-width:0.8;" x="45" xlink:href="#m3c01bdb689" y="59.535347"/>
      </g>
     </g>
     <g id="text_5">
      <!-- 0.4 -->
      <g transform="translate(22.096875 63.334566)scale(0.1 -0.1)">
       <defs>
        <path d="M 37.796875 64.3125 
L 12.890625 25.390625 
L 37.796875 25.390625 
z
M 35.203125 72.90625 
L 47.609375 72.90625 
L 47.609375 25.390625 
L 58.015625 25.390625 
L 58.015625 17.1875 
L 47.609375 17.1875 
L 47.609375 0 
L 37.796875 0 
L 37.796875 17.1875 
L 4.890625 17.1875 
L 4.890625 26.703125 
z
" id="DejaVuSans-52"/>
       </defs>
       <use xlink:href="#DejaVuSans-48"/>
       <use x="63.623047" xlink:href="#DejaVuSans-46"/>
       <use x="95.410156" xlink:href="#DejaVuSans-52"/>
      </g>
     </g>
    </g>
    <g id="ytick_6">
     <g id="line2d_6">
      <g>
       <use style="stroke:#000000;stroke-width:0.8;" x="45" xlink:href="#m3c01bdb689" y="29.11486"/>
      </g>
     </g>
     <g id="text_6">
      <!-- 0.5 -->
      <g transform="translate(22.096875 32.914079)scale(0.1 -0.1)">
       <defs>
        <path d="M 10.796875 72.90625 
L 49.515625 72.90625 
L 49.515625 64.59375 
L 19.828125 64.59375 
L 19.828125 46.734375 
Q 21.96875 47.46875 24.109375 47.828125 
Q 26.265625 48.1875 28.421875 48.1875 
Q 40.625 48.1875 47.75 41.5 
Q 54.890625 34.8125 54.890625 23.390625 
Q 54.890625 11.625 47.5625 5.09375 
Q 40.234375 -1.421875 26.90625 -1.421875 
Q 22.3125 -1.421875 17.546875 -0.640625 
Q 12.796875 0.140625 7.71875 1.703125 
L 7.71875 11.625 
Q 12.109375 9.234375 16.796875 8.0625 
Q 21.484375 6.890625 26.703125 6.890625 
Q 35.15625 6.890625 40.078125 11.328125 
Q 45.015625 15.765625 45.015625 23.390625 
Q 45.015625 31 40.078125 35.4375 
Q 35.15625 39.890625 26.703125 39.890625 
Q 22.75 39.890625 18.8125 39.015625 
Q 14.890625 38.140625 10.796875 36.28125 
z
" id="DejaVuSans-53"/>
       </defs>
       <use xlink:href="#DejaVuSans-48"/>
       <use x="63.623047" xlink:href="#DejaVuSans-46"/>
       <use x="95.410156" xlink:href="#DejaVuSans-53"/>
      </g>
     </g>
    </g>
   </g>
   <g id="line2d_7">
    <path clip-path="url(#p3e3d4dd213)" d="M 57.681818 181.217297 
L 89.365642 181.106729 
L 94.670455 180.778548 
L 100.348262 180.19983 
L 106.502674 179.345359 
L 113.278743 178.176773 
L 120.925134 176.626504 
L 129.731952 174.606468 
L 140.341578 171.935432 
L 154.618984 168.094586 
L 203.97861 154.638139 
L 209.863636 153.237804 
L 214.899064 152.277451 
L 220.183155 151.498091 
L 225.798797 150.897149 
L 231.808155 150.480856 
L 238.273396 150.258917 
L 245.298128 150.243257 
L 253.027406 150.451855 
L 261.668449 150.911869 
L 271.552807 151.666622 
L 283.239973 152.789473 
L 298.076872 154.450443 
L 311.318182 156.058126 
L 311.318182 156.058126 
" style="fill:none;stroke:#9467bd;stroke-dasharray:11.1,4.8;stroke-dashoffset:0;stroke-width:3;"/>
   </g>
   <g id="line2d_8">
    <path clip-path="url(#p3e3d4dd213)" d="M 57.681818 181.217297 
L 86.298797 181.107082 
L 88.764706 180.799775 
L 91.168449 180.275951 
L 93.65508 179.503939 
L 96.245321 178.464026 
L 98.980615 177.122147 
L 101.860963 175.45825 
L 104.927807 173.426133 
L 108.201872 170.986272 
L 111.724599 168.078376 
L 115.516711 164.654748 
L 119.640374 160.626563 
L 124.178476 155.874441 
L 129.193182 150.292494 
L 134.850267 143.652364 
L 141.33623 135.687934 
L 149.169118 125.706594 
L 159.985963 111.53088 
L 189.784091 72.310769 
L 200.10361 59.208956 
L 206.610294 51.249921 
L 209.490642 48.097141 
L 212.205214 45.450781 
L 214.899064 43.132299 
L 217.592914 41.104741 
L 220.307487 39.338474 
L 223.042781 37.822544 
L 225.819519 36.537417 
L 228.637701 35.477657 
L 231.518048 34.632192 
L 234.460561 33.999609 
L 237.506684 33.573363 
L 240.656417 33.359081 
L 243.930481 33.361434 
L 247.349599 33.588745 
L 250.934492 34.052334 
L 254.726604 34.770367 
L 258.746658 35.761553 
L 263.036096 37.051814 
L 267.636364 38.67073 
L 272.630348 40.667335 
L 278.121658 43.107349 
L 284.213904 46.062795 
L 291.155749 49.684269 
L 299.340909 54.21454 
L 309.722594 60.22918 
L 311.318182 61.171115 
L 311.318182 61.171115 
" style="fill:none;stroke:#9467bd;stroke-linecap:square;stroke-width:3;"/>
   </g>
   <g id="patch_3">
    <path d="M 45 189 
L 45 25.92 
" style="fill:none;stroke:#000000;stroke-linecap:square;stroke-linejoin:miter;stroke-width:0.8;"/>
   </g>
   <g id="patch_4">
    <path d="M 324 189 
L 324 25.92 
" style="fill:none;stroke:#000000;stroke-linecap:square;stroke-linejoin:miter;stroke-width:0.8;"/>
   </g>
   <g id="patch_5">
    <path d="M 45 189 
L 324 189 
" style="fill:none;stroke:#000000;stroke-linecap:square;stroke-linejoin:miter;stroke-width:0.8;"/>
   </g>
   <g id="patch_6">
    <path d="M 45 25.92 
L 324 25.92 
" style="fill:none;stroke:#000000;stroke-linecap:square;stroke-linejoin:miter;stroke-width:0.8;"/>
   </g>
  </g>
 </g>
 <defs>
  <clipPath id="p3e3d4dd213">
   <rect height="163.08" width="279" x="45" y="25.92"/>
  </clipPath>
 </defs>
</svg>
