<?xml version="1.0" encoding="utf-8" standalone="no"?>
<!DOCTYPE svg PUBLIC "-//W3C//DTD SVG 1.1//EN"
  "http://www.w3.org/Graphics/SVG/1.1/DTD/svg11.dtd">
<!-- Created with matplotlib (https://matplotlib.org/) -->
<svg height="216pt" version="1.1" viewBox="0 0 360 216" width="360pt" xmlns="http://www.w3.org/2000/svg" xmlns:xlink="http://www.w3.org/1999/xlink">
 <metadata>
  <rdf:RDF xmlns:cc="http://creativecommons.org/ns#" xmlns:dc="http://purl.org/dc/elements/1.1/" xmlns:rdf="http://www.w3.org/1999/02/22-rdf-syntax-ns#">
   <cc:Work>
    <dc:type rdf:resource="http://purl.org/dc/dcmitype/StillImage"/>
    <dc:date>2024-12-06T08:50:09.662508</dc:date>
    <dc:format>image/svg+xml</dc:format>
    <dc:creator>
     <cc:Agent>
      <dc:title>Matplotlib v3.3.2, https://matplotlib.org/</dc:title>
     </cc:Agent>
    </dc:creator>
   </cc:Work>
  </rdf:RDF>
 </metadata>
 <defs>
  <style type="text/css">*{stroke-linecap:butt;stroke-linejoin:round;}</style>
 </defs>
 <g id="figure_1">
  <g id="patch_1">
   <path d="M 0 216 
L 360 216 
L 360 0 
L 0 0 
z
" style="fill:none;"/>
  </g>
  <g id="axes_1">
   <g id="patch_2">
    <path d="M 45 189 
L 324 189 
L 324 25.92 
L 45 25.92 
z
" style="fill:#ffffff;"/>
   </g>
   <g id="PathCollection_1">
    <path clip-path="url(#pacf885debf)" d="M 62.65508 183.690757 
C 63.592715 183.690757 64.492072 183.318231 65.15508 182.655223 
C 65.818088 181.992215 66.190614 181.092858 66.190614 180.155223 
C 66.190614 179.217589 65.818088 178.318231 65.15508 177.655223 
C 64.492072 176.992215 63.592715 176.619689 62.65508 176.619689 
C 61.717446 176.619689 60.818088 176.992215 60.15508 177.655223 
C 59.492072 178.318231 59.119546 179.217589 59.119546 180.155223 
C 59.119546 181.092858 59.492072 181.992215 60.15508 182.655223 
C 60.818088 183.318231 61.717446 183.690757 62.65508 183.690757 
z
" style="fill:none;stroke:#ff9896;"/>
   </g>
   <g id="PathCollection_2">
    <path clip-path="url(#pacf885debf)" d="M 67.628342 185.012815 
C 68.565977 185.012815 69.465334 184.640289 70.128342 183.977282 
C 70.79135 183.314274 71.163876 182.414916 71.163876 181.477282 
C 71.163876 180.539647 70.79135 179.640289 70.128342 178.977282 
C 69.465334 178.314274 68.565977 177.941748 67.628342 177.941748 
C 66.690708 177.941748 65.79135 178.314274 65.128342 178.977282 
C 64.465334 179.640289 64.092808 180.539647 64.092808 181.477282 
C 64.092808 182.414916 64.465334 183.314274 65.128342 183.977282 
C 65.79135 184.640289 66.690708 185.012815 67.628342 185.012815 
z
" style="fill:none;stroke:#ff9896;"/>
   </g>
   <g id="PathCollection_3">
    <path clip-path="url(#pacf885debf)" d="M 72.601604 185.122807 
C 73.539239 185.122807 74.438597 184.75028 75.101604 184.087273 
C 75.764612 183.424265 76.137138 182.524907 76.137138 181.587273 
C 76.137138 180.649638 75.764612 179.75028 75.101604 179.087273 
C 74.438597 178.424265 73.539239 178.051739 72.601604 178.051739 
C 71.66397 178.051739 70.764612 178.424265 70.101604 179.087273 
C 69.438597 179.75028 69.06607 180.649638 69.06607 181.587273 
C 69.06607 182.524907 69.438597 183.424265 70.101604 184.087273 
C 70.764612 184.75028 71.66397 185.122807 72.601604 185.122807 
z
" style="fill:none;stroke:#ff9896;"/>
   </g>
   <g id="PathCollection_4">
    <path clip-path="url(#pacf885debf)" d="M 77.574866 184.331912 
C 78.512501 184.331912 79.411859 183.959386 80.074866 183.296378 
C 80.737874 182.633371 81.1104 181.734013 81.1104 180.796378 
C 81.1104 179.858744 80.737874 178.959386 80.074866 178.296378 
C 79.411859 177.633371 78.512501 177.260844 77.574866 177.260844 
C 76.637232 177.260844 75.737874 177.633371 75.074866 178.296378 
C 74.411859 178.959386 74.039332 179.858744 74.039332 180.796378 
C 74.039332 181.734013 74.411859 182.633371 75.074866 183.296378 
C 75.737874 183.959386 76.637232 184.331912 77.574866 184.331912 
z
" style="fill:none;stroke:#ff9896;"/>
   </g>
   <g id="PathCollection_5">
    <path clip-path="url(#pacf885debf)" d="M 82.548128 182.864004 
C 83.485763 182.864004 84.385121 182.491478 85.048128 181.82847 
C 85.711136 181.165462 86.083662 180.266105 86.083662 179.32847 
C 86.083662 178.390836 85.711136 177.491478 85.048128 176.82847 
C 84.385121 176.165462 83.485763 175.792936 82.548128 175.792936 
C 81.610494 175.792936 80.711136 176.165462 80.048128 176.82847 
C 79.385121 177.491478 79.012594 178.390836 79.012594 179.32847 
C 79.012594 180.266105 79.385121 181.165462 80.048128 181.82847 
C 80.711136 182.491478 81.610494 182.864004 82.548128 182.864004 
z
" style="fill:none;stroke:#ff9896;"/>
   </g>
   <g id="PathCollection_6">
    <path clip-path="url(#pacf885debf)" d="M 87.52139 180.868029 
C 88.459025 180.868029 89.358383 180.495503 90.02139 179.832495 
C 90.684398 179.169487 91.056924 178.27013 91.056924 177.332495 
C 91.056924 176.394861 90.684398 175.495503 90.02139 174.832495 
C 89.358383 174.169487 88.459025 173.796961 87.52139 173.796961 
C 86.583756 173.796961 85.684398 174.169487 85.02139 174.832495 
C 84.358383 175.495503 83.985856 176.394861 83.985856 177.332495 
C 83.985856 178.27013 84.358383 179.169487 85.02139 179.832495 
C 85.684398 180.495503 86.583756 180.868029 87.52139 180.868029 
z
" style="fill:none;stroke:#ff9896;"/>
   </g>
   <g id="PathCollection_7">
    <path clip-path="url(#pacf885debf)" d="M 92.494652 178.438818 
C 93.432287 178.438818 94.331645 178.066292 94.994652 177.403284 
C 95.65766 176.740277 96.030186 175.840919 96.030186 174.903284 
C 96.030186 173.96565 95.65766 173.066292 94.994652 172.403284 
C 94.331645 171.740277 93.432287 171.36775 92.494652 171.36775 
C 91.557018 171.36775 90.65766 171.740277 89.994652 172.403284 
C 89.331645 173.066292 88.959119 173.96565 88.959119 174.903284 
C 88.959119 175.840919 89.331645 176.740277 89.994652 177.403284 
C 90.65766 178.066292 91.557018 178.438818 92.494652 178.438818 
z
" style="fill:none;stroke:#ff9896;"/>
   </g>
   <g id="PathCollection_8">
    <path clip-path="url(#pacf885debf)" d="M 97.467914 175.628281 
C 98.405549 175.628281 99.304907 175.255755 99.967914 174.592747 
C 100.630922 173.929739 101.003448 173.030381 101.003448 172.092747 
C 101.003448 171.155112 100.630922 170.255755 99.967914 169.592747 
C 99.304907 168.929739 98.405549 168.557213 97.467914 168.557213 
C 96.53028 168.557213 95.630922 168.929739 94.967914 169.592747 
C 94.304907 170.255755 93.932381 171.155112 93.932381 172.092747 
C 93.932381 173.030381 94.304907 173.929739 94.967914 174.592747 
C 95.630922 175.255755 96.53028 175.628281 97.467914 175.628281 
z
" style="fill:none;stroke:#ff9896;"/>
   </g>
   <g id="PathCollection_9">
    <path clip-path="url(#pacf885debf)" d="M 102.441176 172.45796 
C 103.378811 172.45796 104.278169 172.085434 104.941176 171.422426 
C 105.604184 170.759418 105.97671 169.86006 105.97671 168.922426 
C 105.97671 167.984791 105.604184 167.085434 104.941176 166.422426 
C 104.278169 165.759418 103.378811 165.386892 102.441176 165.386892 
C 101.503542 165.386892 100.604184 165.759418 99.941176 166.422426 
C 99.278169 167.085434 98.905643 167.984791 98.905643 168.922426 
C 98.905643 169.86006 99.278169 170.759418 99.941176 171.422426 
C 100.604184 172.085434 101.503542 172.45796 102.441176 172.45796 
z
" style="fill:none;stroke:#ff9896;"/>
   </g>
   <g id="PathCollection_10">
    <path clip-path="url(#pacf885debf)" d="M 107.414439 168.929412 
C 108.352073 168.929412 109.251431 168.556885 109.914439 167.893878 
C 110.577446 167.23087 110.949972 166.331512 110.949972 165.393878 
C 110.949972 164.456243 110.577446 163.556885 109.914439 162.893878 
C 109.251431 162.23087 108.352073 161.858344 107.414439 161.858344 
C 106.476804 161.858344 105.577446 162.23087 104.914439 162.893878 
C 104.251431 163.556885 103.878905 164.456243 103.878905 165.393878 
C 103.878905 166.331512 104.251431 167.23087 104.914439 167.893878 
C 105.577446 168.556885 106.476804 168.929412 107.414439 168.929412 
z
" style="fill:none;stroke:#ff9896;"/>
   </g>
   <g id="PathCollection_11">
    <path clip-path="url(#pacf885debf)" d="M 112.387701 165.033029 
C 113.325335 165.033029 114.224693 164.660503 114.887701 163.997495 
C 115.550708 163.334488 115.923234 162.43513 115.923234 161.497495 
C 115.923234 160.559861 115.550708 159.660503 114.887701 158.997495 
C 114.224693 158.334488 113.325335 157.961961 112.387701 157.961961 
C 111.450066 157.961961 110.550708 158.334488 109.887701 158.997495 
C 109.224693 159.660503 108.852167 160.559861 108.852167 161.497495 
C 108.852167 162.43513 109.224693 163.334488 109.887701 163.997495 
C 110.550708 164.660503 111.450066 165.033029 112.387701 165.033029 
z
" style="fill:none;stroke:#ff9896;"/>
   </g>
   <g id="PathCollection_12">
    <path clip-path="url(#pacf885debf)" d="M 117.360963 160.755394 
C 118.298597 160.755394 119.197955 160.382868 119.860963 159.71986 
C 120.52397 159.056852 120.896496 158.157495 120.896496 157.21986 
C 120.896496 156.282226 120.52397 155.382868 119.860963 154.71986 
C 119.197955 154.056852 118.298597 153.684326 117.360963 153.684326 
C 116.423328 153.684326 115.52397 154.056852 114.860963 154.71986 
C 114.197955 155.382868 113.825429 156.282226 113.825429 157.21986 
C 113.825429 158.157495 114.197955 159.056852 114.860963 159.71986 
C 115.52397 160.382868 116.423328 160.755394 117.360963 160.755394 
z
" style="fill:none;stroke:#ff9896;"/>
   </g>
   <g id="PathCollection_13">
    <path clip-path="url(#pacf885debf)" d="M 122.334225 156.085258 
C 123.271859 156.085258 124.171217 155.712732 124.834225 155.049725 
C 125.497232 154.386717 125.869759 153.487359 125.869759 152.549725 
C 125.869759 151.61209 125.497232 150.712732 124.834225 150.049725 
C 124.171217 149.386717 123.271859 149.014191 122.334225 149.014191 
C 121.39659 149.014191 120.497232 149.386717 119.834225 150.049725 
C 119.171217 150.712732 118.798691 151.61209 118.798691 152.549725 
C 118.798691 153.487359 119.171217 154.386717 119.834225 155.049725 
C 120.497232 155.712732 121.39659 156.085258 122.334225 156.085258 
z
" style="fill:none;stroke:#ff9896;"/>
   </g>
   <g id="PathCollection_14">
    <path clip-path="url(#pacf885debf)" d="M 127.307487 151.018247 
C 128.245121 151.018247 129.144479 150.645721 129.807487 149.982713 
C 130.470494 149.319706 130.843021 148.420348 130.843021 147.482713 
C 130.843021 146.545079 130.470494 145.645721 129.807487 144.982713 
C 129.144479 144.319706 128.245121 143.94718 127.307487 143.94718 
C 126.369852 143.94718 125.470494 144.319706 124.807487 144.982713 
C 124.144479 145.645721 123.771953 146.545079 123.771953 147.482713 
C 123.771953 148.420348 124.144479 149.319706 124.807487 149.982713 
C 125.470494 150.645721 126.369852 151.018247 127.307487 151.018247 
z
" style="fill:none;stroke:#ff9896;"/>
   </g>
   <g id="PathCollection_15">
    <path clip-path="url(#pacf885debf)" d="M 132.280749 145.560376 
C 133.218383 145.560376 134.117741 145.18785 134.780749 144.524842 
C 135.443756 143.861835 135.816283 142.962477 135.816283 142.024842 
C 135.816283 141.087208 135.443756 140.18785 134.780749 139.524842 
C 134.117741 138.861835 133.218383 138.489308 132.280749 138.489308 
C 131.343114 138.489308 130.443756 138.861835 129.780749 139.524842 
C 129.117741 140.18785 128.745215 141.087208 128.745215 142.024842 
C 128.745215 142.962477 129.117741 143.861835 129.780749 144.524842 
C 130.443756 145.18785 131.343114 145.560376 132.280749 145.560376 
z
" style="fill:none;stroke:#ff9896;"/>
   </g>
   <g id="PathCollection_16">
    <path clip-path="url(#pacf885debf)" d="M 137.254011 139.730478 
C 138.191645 139.730478 139.091003 139.357952 139.754011 138.694944 
C 140.417018 138.031936 140.789545 137.132579 140.789545 136.194944 
C 140.789545 135.25731 140.417018 134.357952 139.754011 133.694944 
C 139.091003 133.031936 138.191645 132.65941 137.254011 132.65941 
C 136.316376 132.65941 135.417018 133.031936 134.754011 133.694944 
C 134.091003 134.357952 133.718477 135.25731 133.718477 136.194944 
C 133.718477 137.132579 134.091003 138.031936 134.754011 138.694944 
C 135.417018 139.357952 136.316376 139.730478 137.254011 139.730478 
z
" style="fill:none;stroke:#ff9896;"/>
   </g>
   <g id="PathCollection_17">
    <path clip-path="url(#pacf885debf)" d="M 142.227273 133.561633 
C 143.164907 133.561633 144.064265 133.189107 144.727273 132.526099 
C 145.39028 131.863092 145.762807 130.963734 145.762807 130.026099 
C 145.762807 129.088465 145.39028 128.189107 144.727273 127.526099 
C 144.064265 126.863092 143.164907 126.490566 142.227273 126.490566 
C 141.289638 126.490566 140.39028 126.863092 139.727273 127.526099 
C 139.064265 128.189107 138.691739 129.088465 138.691739 130.026099 
C 138.691739 130.963734 139.064265 131.863092 139.727273 132.526099 
C 140.39028 133.189107 141.289638 133.561633 142.227273 133.561633 
z
" style="fill:none;stroke:#ff9896;"/>
   </g>
   <g id="PathCollection_18">
    <path clip-path="url(#pacf885debf)" d="M 147.200535 127.101698 
C 148.138169 127.101698 149.037527 126.729172 149.700535 126.066164 
C 150.363543 125.403156 150.736069 124.503798 150.736069 123.566164 
C 150.736069 122.628529 150.363543 121.729172 149.700535 121.066164 
C 149.037527 120.403156 148.138169 120.03063 147.200535 120.03063 
C 146.2629 120.03063 145.363543 120.403156 144.700535 121.066164 
C 144.037527 121.729172 143.665001 122.628529 143.665001 123.566164 
C 143.665001 124.503798 144.037527 125.403156 144.700535 126.066164 
C 145.363543 126.729172 146.2629 127.101698 147.200535 127.101698 
z
" style="fill:none;stroke:#ff9896;"/>
   </g>
   <g id="PathCollection_19">
    <path clip-path="url(#pacf885debf)" d="M 152.173797 120.413021 
C 153.111431 120.413021 154.010789 120.040495 154.673797 119.377487 
C 155.336805 118.714479 155.709331 117.815121 155.709331 116.877487 
C 155.709331 115.939852 155.336805 115.040495 154.673797 114.377487 
C 154.010789 113.714479 153.111431 113.341953 152.173797 113.341953 
C 151.236162 113.341953 150.336805 113.714479 149.673797 114.377487 
C 149.010789 115.040495 148.638263 115.939852 148.638263 116.877487 
C 148.638263 117.815121 149.010789 118.714479 149.673797 119.377487 
C 150.336805 120.040495 151.236162 120.413021 152.173797 120.413021 
z
" style="fill:none;stroke:#ff9896;"/>
   </g>
   <g id="PathCollection_20">
    <path clip-path="url(#pacf885debf)" d="M 157.147059 113.57145 
C 158.084693 113.57145 158.984051 113.198924 159.647059 112.535916 
C 160.310067 111.872908 160.682593 110.973551 160.682593 110.035916 
C 160.682593 109.098281 160.310067 108.198924 159.647059 107.535916 
C 158.984051 106.872908 158.084693 106.500382 157.147059 106.500382 
C 156.209424 106.500382 155.310067 106.872908 154.647059 107.535916 
C 153.984051 108.198924 153.611525 109.098281 153.611525 110.035916 
C 153.611525 110.973551 153.984051 111.872908 154.647059 112.535916 
C 155.310067 113.198924 156.209424 113.57145 157.147059 113.57145 
z
" style="fill:none;stroke:#ff9896;"/>
   </g>
   <g id="PathCollection_21">
    <path clip-path="url(#pacf885debf)" d="M 162.120321 106.664713 
C 163.057955 106.664713 163.957313 106.292187 164.620321 105.62918 
C 165.283329 104.966172 165.655855 104.066814 165.655855 103.12918 
C 165.655855 102.191545 165.283329 101.292187 164.620321 100.62918 
C 163.957313 99.966172 163.057955 99.593646 162.120321 99.593646 
C 161.182686 99.593646 160.283329 99.966172 159.620321 100.62918 
C 158.957313 101.292187 158.584787 102.191545 158.584787 103.12918 
C 158.584787 104.066814 158.957313 104.966172 159.620321 105.62918 
C 160.283329 106.292187 161.182686 106.664713 162.120321 106.664713 
z
" style="fill:none;stroke:#ff9896;"/>
   </g>
   <g id="PathCollection_22">
    <path clip-path="url(#pacf885debf)" d="M 167.093583 99.790278 
C 168.031217 99.790278 168.930575 99.417752 169.593583 98.754744 
C 170.256591 98.091737 170.629117 97.192379 170.629117 96.254744 
C 170.629117 95.31711 170.256591 94.417752 169.593583 93.754744 
C 168.930575 93.091737 168.031217 92.719211 167.093583 92.719211 
C 166.155948 92.719211 165.256591 93.091737 164.593583 93.754744 
C 163.930575 94.417752 163.558049 95.31711 163.558049 96.254744 
C 163.558049 97.192379 163.930575 98.091737 164.593583 98.754744 
C 165.256591 99.417752 166.155948 99.790278 167.093583 99.790278 
z
" style="fill:none;stroke:#ff9896;"/>
   </g>
   <g id="PathCollection_23">
    <path clip-path="url(#pacf885debf)" d="M 172.066845 93.052774 
C 173.004479 93.052774 173.903837 92.680247 174.566845 92.01724 
C 175.229853 91.354232 175.602379 90.454874 175.602379 89.51724 
C 175.602379 88.579605 175.229853 87.680247 174.566845 87.01724 
C 173.903837 86.354232 173.004479 85.981706 172.066845 85.981706 
C 171.12921 85.981706 170.229853 86.354232 169.566845 87.01724 
C 168.903837 87.680247 168.531311 88.579605 168.531311 89.51724 
C 168.531311 90.454874 168.903837 91.354232 169.566845 92.01724 
C 170.229853 92.680247 171.12921 93.052774 172.066845 93.052774 
z
" style="fill:none;stroke:#ff9896;"/>
   </g>
   <g id="PathCollection_24">
    <path clip-path="url(#pacf885debf)" d="M 177.040107 86.561075 
C 177.977742 86.561075 178.877099 86.188549 179.540107 85.525541 
C 180.203115 84.862534 180.575641 83.963176 180.575641 83.025541 
C 180.575641 82.087907 180.203115 81.188549 179.540107 80.525541 
C 178.877099 79.862534 177.977742 79.490007 177.040107 79.490007 
C 176.102472 79.490007 175.203115 79.862534 174.540107 80.525541 
C 173.877099 81.188549 173.504573 82.087907 173.504573 83.025541 
C 173.504573 83.963176 173.877099 84.862534 174.540107 85.525541 
C 175.203115 86.188549 176.102472 86.561075 177.040107 86.561075 
z
" style="fill:none;stroke:#ff9896;"/>
   </g>
   <g id="PathCollection_25">
    <path clip-path="url(#pacf885debf)" d="M 182.013369 80.425149 
C 182.951004 80.425149 183.850361 80.052623 184.513369 79.389615 
C 185.176377 78.726607 185.548903 77.82725 185.548903 76.889615 
C 185.548903 75.951981 185.176377 75.052623 184.513369 74.389615 
C 183.850361 73.726607 182.951004 73.354081 182.013369 73.354081 
C 181.075734 73.354081 180.176377 73.726607 179.513369 74.389615 
C 178.850361 75.052623 178.477835 75.951981 178.477835 76.889615 
C 178.477835 77.82725 178.850361 78.726607 179.513369 79.389615 
C 180.176377 80.052623 181.075734 80.425149 182.013369 80.425149 
z
" style="fill:none;stroke:#ff9896;"/>
   </g>
   <g id="PathCollection_26">
    <path clip-path="url(#pacf885debf)" d="M 186.986631 74.752738 
C 187.924266 74.752738 188.823623 74.380212 189.486631 73.717204 
C 190.149639 73.054197 190.522165 72.154839 190.522165 71.217204 
C 190.522165 70.27957 190.149639 69.380212 189.486631 68.717204 
C 188.823623 68.054197 187.924266 67.681671 186.986631 67.681671 
C 186.048996 67.681671 185.149639 68.054197 184.486631 68.717204 
C 183.823623 69.380212 183.451097 70.27957 183.451097 71.217204 
C 183.451097 72.154839 183.823623 73.054197 184.486631 73.717204 
C 185.149639 74.380212 186.048996 74.752738 186.986631 74.752738 
z
" style="fill:none;stroke:#ff9896;"/>
   </g>
   <g id="PathCollection_27">
    <path clip-path="url(#pacf885debf)" d="M 191.959893 69.645999 
C 192.897528 69.645999 193.796885 69.273473 194.459893 68.610465 
C 195.122901 67.947458 195.495427 67.0481 195.495427 66.110465 
C 195.495427 65.172831 195.122901 64.273473 194.459893 63.610465 
C 193.796885 62.947458 192.897528 62.574932 191.959893 62.574932 
C 191.022258 62.574932 190.122901 62.947458 189.459893 63.610465 
C 188.796885 64.273473 188.424359 65.172831 188.424359 66.110465 
C 188.424359 67.0481 188.796885 67.947458 189.459893 68.610465 
C 190.122901 69.273473 191.022258 69.645999 191.959893 69.645999 
z
" style="fill:none;stroke:#ff9896;"/>
   </g>
   <g id="PathCollection_28">
    <path clip-path="url(#pacf885debf)" d="M 196.933155 65.198171 
C 197.87079 65.198171 198.770147 64.825645 199.433155 64.162637 
C 200.096163 63.499629 200.468689 62.600272 200.468689 61.662637 
C 200.468689 60.725003 200.096163 59.825645 199.433155 59.162637 
C 198.770147 58.499629 197.87079 58.127103 196.933155 58.127103 
C 195.995521 58.127103 195.096163 58.499629 194.433155 59.162637 
C 193.770147 59.825645 193.397621 60.725003 193.397621 61.662637 
C 193.397621 62.600272 193.770147 63.499629 194.433155 64.162637 
C 195.096163 64.825645 195.995521 65.198171 196.933155 65.198171 
z
" style="fill:none;stroke:#ff9896;"/>
   </g>
   <g id="PathCollection_29">
    <path clip-path="url(#pacf885debf)" d="M 201.906417 61.490379 
C 202.844052 61.490379 203.743409 61.117853 204.406417 60.454845 
C 205.069425 59.791837 205.441951 58.89248 205.441951 57.954845 
C 205.441951 57.017211 205.069425 56.117853 204.406417 55.454845 
C 203.743409 54.791837 202.844052 54.419311 201.906417 54.419311 
C 200.968783 54.419311 200.069425 54.791837 199.406417 55.454845 
C 198.743409 56.117853 198.370883 57.017211 198.370883 57.954845 
C 198.370883 58.89248 198.743409 59.791837 199.406417 60.454845 
C 200.069425 61.117853 200.968783 61.490379 201.906417 61.490379 
z
" style="fill:none;stroke:#ff9896;"/>
   </g>
   <g id="PathCollection_30">
    <path clip-path="url(#pacf885debf)" d="M 206.879679 58.588662 
C 207.817314 58.588662 208.716671 58.216136 209.379679 57.553128 
C 210.042687 56.890121 210.415213 55.990763 210.415213 55.053128 
C 210.415213 54.115494 210.042687 53.216136 209.379679 52.553128 
C 208.716671 51.890121 207.817314 51.517595 206.879679 51.517595 
C 205.942045 51.517595 205.042687 51.890121 204.379679 52.553128 
C 203.716671 53.216136 203.344145 54.115494 203.344145 55.053128 
C 203.344145 55.990763 203.716671 56.890121 204.379679 57.553128 
C 205.042687 58.216136 205.942045 58.588662 206.879679 58.588662 
z
" style="fill:none;stroke:#ff9896;"/>
   </g>
   <g id="PathCollection_31">
    <path clip-path="url(#pacf885debf)" d="M 211.852941 56.541321 
C 212.790576 56.541321 213.689933 56.168795 214.352941 55.505787 
C 215.015949 54.842779 215.388475 53.943421 215.388475 53.005787 
C 215.388475 52.068152 215.015949 51.168795 214.352941 50.505787 
C 213.689933 49.842779 212.790576 49.470253 211.852941 49.470253 
C 210.915307 49.470253 210.015949 49.842779 209.352941 50.505787 
C 208.689933 51.168795 208.317407 52.068152 208.317407 53.005787 
C 208.317407 53.943421 208.689933 54.842779 209.352941 55.505787 
C 210.015949 56.168795 210.915307 56.541321 211.852941 56.541321 
z
" style="fill:none;stroke:#ff9896;"/>
   </g>
   <g id="PathCollection_32">
    <path clip-path="url(#pacf885debf)" d="M 216.826203 55.376677 
C 217.763838 55.376677 218.663195 55.00415 219.326203 54.341143 
C 219.989211 53.678135 220.361737 52.778777 220.361737 51.841143 
C 220.361737 50.903508 219.989211 50.00415 219.326203 49.341143 
C 218.663195 48.678135 217.763838 48.305609 216.826203 48.305609 
C 215.888569 48.305609 214.989211 48.678135 214.326203 49.341143 
C 213.663195 50.00415 213.290669 50.903508 213.290669 51.841143 
C 213.290669 52.778777 213.663195 53.678135 214.326203 54.341143 
C 214.989211 55.00415 215.888569 55.376677 216.826203 55.376677 
z
" style="fill:none;stroke:#ff9896;"/>
   </g>
   <g id="PathCollection_33">
    <path clip-path="url(#pacf885debf)" d="M 221.799465 55.101342 
C 222.7371 55.101342 223.636457 54.728816 224.299465 54.065809 
C 224.962473 53.402801 225.334999 52.503443 225.334999 51.565809 
C 225.334999 50.628174 224.962473 49.728816 224.299465 49.065809 
C 223.636457 48.402801 222.7371 48.030275 221.799465 48.030275 
C 220.861831 48.030275 219.962473 48.402801 219.299465 49.065809 
C 218.636457 49.728816 218.263931 50.628174 218.263931 51.565809 
C 218.263931 52.503443 218.636457 53.402801 219.299465 54.065809 
C 219.962473 54.728816 220.861831 55.101342 221.799465 55.101342 
z
" style="fill:none;stroke:#ff9896;"/>
   </g>
   <g id="PathCollection_34">
    <path clip-path="url(#pacf885debf)" d="M 226.772727 55.69909 
C 227.710362 55.69909 228.60972 55.326564 229.272727 54.663557 
C 229.935735 54.000549 230.308261 53.101191 230.308261 52.163557 
C 230.308261 51.225922 229.935735 50.326564 229.272727 49.663557 
C 228.60972 49.000549 227.710362 48.628023 226.772727 48.628023 
C 225.835093 48.628023 224.935735 49.000549 224.272727 49.663557 
C 223.60972 50.326564 223.237193 51.225922 223.237193 52.163557 
C 223.237193 53.101191 223.60972 54.000549 224.272727 54.663557 
C 224.935735 55.326564 225.835093 55.69909 226.772727 55.69909 
z
" style="fill:none;stroke:#ff9896;"/>
   </g>
   <g id="PathCollection_35">
    <path clip-path="url(#pacf885debf)" d="M 231.745989 57.130418 
C 232.683624 57.130418 233.582982 56.757892 234.245989 56.094885 
C 234.908997 55.431877 235.281523 54.532519 235.281523 53.594885 
C 235.281523 52.65725 234.908997 51.757892 234.245989 51.094885 
C 233.582982 50.431877 232.683624 50.059351 231.745989 50.059351 
C 230.808355 50.059351 229.908997 50.431877 229.245989 51.094885 
C 228.582982 51.757892 228.210455 52.65725 228.210455 53.594885 
C 228.210455 54.532519 228.582982 55.431877 229.245989 56.094885 
C 229.908997 56.757892 230.808355 57.130418 231.745989 57.130418 
z
" style="fill:none;stroke:#ff9896;"/>
   </g>
   <g id="PathCollection_36">
    <path clip-path="url(#pacf885debf)" d="M 236.719251 59.332905 
C 237.656886 59.332905 238.556244 58.960379 239.219251 58.297371 
C 239.882259 57.634363 240.254785 56.735006 240.254785 55.797371 
C 240.254785 54.859737 239.882259 53.960379 239.219251 53.297371 
C 238.556244 52.634363 237.656886 52.261837 236.719251 52.261837 
C 235.781617 52.261837 234.882259 52.634363 234.219251 53.297371 
C 233.556244 53.960379 233.183717 54.859737 233.183717 55.797371 
C 233.183717 56.735006 233.556244 57.634363 234.219251 58.297371 
C 234.882259 58.960379 235.781617 59.332905 236.719251 59.332905 
z
" style="fill:none;stroke:#ff9896;"/>
   </g>
   <g id="PathCollection_37">
    <path clip-path="url(#pacf885debf)" d="M 241.692513 62.222447 
C 242.630148 62.222447 243.529506 61.849921 244.192513 61.186913 
C 244.855521 60.523905 245.228047 59.624548 245.228047 58.686913 
C 245.228047 57.749278 244.855521 56.849921 244.192513 56.186913 
C 243.529506 55.523905 242.630148 55.151379 241.692513 55.151379 
C 240.754879 55.151379 239.855521 55.523905 239.192513 56.186913 
C 238.529506 56.849921 238.156979 57.749278 238.156979 58.686913 
C 238.156979 59.624548 238.529506 60.523905 239.192513 61.186913 
C 239.855521 61.849921 240.754879 62.222447 241.692513 62.222447 
z
" style="fill:none;stroke:#ff9896;"/>
   </g>
   <g id="PathCollection_38">
    <path clip-path="url(#pacf885debf)" d="M 246.665775 65.695475 
C 247.60341 65.695475 248.502768 65.322949 249.165775 64.659941 
C 249.828783 63.996933 250.201309 63.097576 250.201309 62.159941 
C 250.201309 61.222307 249.828783 60.322949 249.165775 59.659941 
C 248.502768 58.996933 247.60341 58.624407 246.665775 58.624407 
C 245.728141 58.624407 244.828783 58.996933 244.165775 59.659941 
C 243.502768 60.322949 243.130241 61.222307 243.130241 62.159941 
C 243.130241 63.097576 243.502768 63.996933 244.165775 64.659941 
C 244.828783 65.322949 245.728141 65.695475 246.665775 65.695475 
z
" style="fill:none;stroke:#ff9896;"/>
   </g>
   <g id="PathCollection_39">
    <path clip-path="url(#pacf885debf)" d="M 251.639037 69.632243 
C 252.576672 69.632243 253.47603 69.259717 254.139037 68.596709 
C 254.802045 67.933702 255.174571 67.034344 255.174571 66.096709 
C 255.174571 65.159075 254.802045 64.259717 254.139037 63.596709 
C 253.47603 62.933702 252.576672 62.561176 251.639037 62.561176 
C 250.701403 62.561176 249.802045 62.933702 249.139037 63.596709 
C 248.47603 64.259717 248.103504 65.159075 248.103504 66.096709 
C 248.103504 67.034344 248.47603 67.933702 249.139037 68.596709 
C 249.802045 69.259717 250.701403 69.632243 251.639037 69.632243 
z
" style="fill:none;stroke:#ff9896;"/>
   </g>
   <g id="PathCollection_40">
    <path clip-path="url(#pacf885debf)" d="M 256.612299 73.90128 
C 257.549934 73.90128 258.449292 73.528754 259.112299 72.865746 
C 259.775307 72.202738 260.147833 71.303381 260.147833 70.365746 
C 260.147833 69.428111 259.775307 68.528754 259.112299 67.865746 
C 258.449292 67.202738 257.549934 66.830212 256.612299 66.830212 
C 255.674665 66.830212 254.775307 67.202738 254.112299 67.865746 
C 253.449292 68.528754 253.076766 69.428111 253.076766 70.365746 
C 253.076766 71.303381 253.449292 72.202738 254.112299 72.865746 
C 254.775307 73.528754 255.674665 73.90128 256.612299 73.90128 
z
" style="fill:none;stroke:#ff9896;"/>
   </g>
   <g id="PathCollection_41">
    <path clip-path="url(#pacf885debf)" d="M 261.585561 78.365101 
C 262.523196 78.365101 263.422554 77.992575 264.085561 77.329567 
C 264.748569 76.66656 265.121095 75.767202 265.121095 74.829567 
C 265.121095 73.891933 264.748569 72.992575 264.085561 72.329567 
C 263.422554 71.66656 262.523196 71.294033 261.585561 71.294033 
C 260.647927 71.294033 259.748569 71.66656 259.085561 72.329567 
C 258.422554 72.992575 258.050028 73.891933 258.050028 74.829567 
C 258.050028 75.767202 258.422554 76.66656 259.085561 77.329567 
C 259.748569 77.992575 260.647927 78.365101 261.585561 78.365101 
z
" style="fill:none;stroke:#ff9896;"/>
   </g>
   <g id="PathCollection_42">
    <path clip-path="url(#pacf885debf)" d="M 266.558824 82.887277 
C 267.496458 82.887277 268.395816 82.514751 269.058824 81.851743 
C 269.721831 81.188735 270.094357 80.289378 270.094357 79.351743 
C 270.094357 78.414108 269.721831 77.514751 269.058824 76.851743 
C 268.395816 76.188735 267.496458 75.816209 266.558824 75.816209 
C 265.621189 75.816209 264.721831 76.188735 264.058824 76.851743 
C 263.395816 77.514751 263.02329 78.414108 263.02329 79.351743 
C 263.02329 80.289378 263.395816 81.188735 264.058824 81.851743 
C 264.721831 82.514751 265.621189 82.887277 266.558824 82.887277 
z
" style="fill:none;stroke:#ff9896;"/>
   </g>
   <g id="PathCollection_43">
    <path clip-path="url(#pacf885debf)" d="M 271.532086 87.340945 
C 272.46972 87.340945 273.369078 86.968419 274.032086 86.305412 
C 274.695093 85.642404 275.067619 84.743046 275.067619 83.805412 
C 275.067619 82.867777 274.695093 81.968419 274.032086 81.305412 
C 273.369078 80.642404 272.46972 80.269878 271.532086 80.269878 
C 270.594451 80.269878 269.695093 80.642404 269.032086 81.305412 
C 268.369078 81.968419 267.996552 82.867777 267.996552 83.805412 
C 267.996552 84.743046 268.369078 85.642404 269.032086 86.305412 
C 269.695093 86.968419 270.594451 87.340945 271.532086 87.340945 
z
" style="fill:none;stroke:#ff9896;"/>
   </g>
   <g id="PathCollection_44">
    <path clip-path="url(#pacf885debf)" d="M 276.505348 91.618868 
C 277.442982 91.618868 278.34234 91.246341 279.005348 90.583334 
C 279.668355 89.920326 280.040881 89.020968 280.040881 88.083334 
C 280.040881 87.145699 279.668355 86.246341 279.005348 85.583334 
C 278.34234 84.920326 277.442982 84.5478 276.505348 84.5478 
C 275.567713 84.5478 274.668355 84.920326 274.005348 85.583334 
C 273.34234 86.246341 272.969814 87.145699 272.969814 88.083334 
C 272.969814 89.020968 273.34234 89.920326 274.005348 90.583334 
C 274.668355 91.246341 275.567713 91.618868 276.505348 91.618868 
z
" style="fill:none;stroke:#ff9896;"/>
   </g>
   <g id="PathCollection_45">
    <path clip-path="url(#pacf885debf)" d="M 281.47861 95.645119 
C 282.416244 95.645119 283.315602 95.272593 283.97861 94.609585 
C 284.641617 93.946578 285.014144 93.04722 285.014144 92.109585 
C 285.014144 91.171951 284.641617 90.272593 283.97861 89.609585 
C 283.315602 88.946578 282.416244 88.574052 281.47861 88.574052 
C 280.540975 88.574052 279.641617 88.946578 278.97861 89.609585 
C 278.315602 90.272593 277.943076 91.171951 277.943076 92.109585 
C 277.943076 93.04722 278.315602 93.946578 278.97861 94.609585 
C 279.641617 95.272593 280.540975 95.645119 281.47861 95.645119 
z
" style="fill:none;stroke:#ff9896;"/>
   </g>
   <g id="PathCollection_46">
    <path clip-path="url(#pacf885debf)" d="M 286.451872 99.38851 
C 287.389506 99.38851 288.288864 99.015984 288.951872 98.352977 
C 289.614879 97.689969 289.987406 96.790611 289.987406 95.852977 
C 289.987406 94.915342 289.614879 94.015984 288.951872 93.352977 
C 288.288864 92.689969 287.389506 92.317443 286.451872 92.317443 
C 285.514237 92.317443 284.614879 92.689969 283.951872 93.352977 
C 283.288864 94.015984 282.916338 94.915342 282.916338 95.852977 
C 282.916338 96.790611 283.288864 97.689969 283.951872 98.352977 
C 284.614879 99.015984 285.514237 99.38851 286.451872 99.38851 
z
" style="fill:none;stroke:#ff9896;"/>
   </g>
   <g id="PathCollection_47">
    <path clip-path="url(#pacf885debf)" d="M 291.425134 102.877832 
C 292.362768 102.877832 293.262126 102.505306 293.925134 101.842298 
C 294.588141 101.17929 294.960668 100.279932 294.960668 99.342298 
C 294.960668 98.404663 294.588141 97.505306 293.925134 96.842298 
C 293.262126 96.17929 292.362768 95.806764 291.425134 95.806764 
C 290.487499 95.806764 289.588141 96.17929 288.925134 96.842298 
C 288.262126 97.505306 287.8896 98.404663 287.8896 99.342298 
C 287.8896 100.279932 288.262126 101.17929 288.925134 101.842298 
C 289.588141 102.505306 290.487499 102.877832 291.425134 102.877832 
z
" style="fill:none;stroke:#ff9896;"/>
   </g>
   <g id="PathCollection_48">
    <path clip-path="url(#pacf885debf)" d="M 296.398396 106.219014 
C 297.33603 106.219014 298.235388 105.846488 298.898396 105.18348 
C 299.561403 104.520473 299.93393 103.621115 299.93393 102.68348 
C 299.93393 101.745846 299.561403 100.846488 298.898396 100.18348 
C 298.235388 99.520473 297.33603 99.147947 296.398396 99.147947 
C 295.460761 99.147947 294.561403 99.520473 293.898396 100.18348 
C 293.235388 100.846488 292.862862 101.745846 292.862862 102.68348 
C 292.862862 103.621115 293.235388 104.520473 293.898396 105.18348 
C 294.561403 105.846488 295.460761 106.219014 296.398396 106.219014 
z
" style="fill:none;stroke:#ff9896;"/>
   </g>
   <g id="PathCollection_49">
    <path clip-path="url(#pacf885debf)" d="M 301.371658 109.614306 
C 302.309292 109.614306 303.20865 109.24178 303.871658 108.578772 
C 304.534666 107.915764 304.907192 107.016406 304.907192 106.078772 
C 304.907192 105.141137 304.534666 104.24178 303.871658 103.578772 
C 303.20865 102.915764 302.309292 102.543238 301.371658 102.543238 
C 300.434023 102.543238 299.534666 102.915764 298.871658 103.578772 
C 298.20865 104.24178 297.836124 105.141137 297.836124 106.078772 
C 297.836124 107.016406 298.20865 107.915764 298.871658 108.578772 
C 299.534666 109.24178 300.434023 109.614306 301.371658 109.614306 
z
" style="fill:none;stroke:#ff9896;"/>
   </g>
   <g id="PathCollection_50">
    <path clip-path="url(#pacf885debf)" d="M 306.34492 113.383548 
C 307.282554 113.383548 308.181912 113.011021 308.84492 112.348014 
C 309.507928 111.685006 309.880454 110.785648 309.880454 109.848014 
C 309.880454 108.910379 309.507928 108.011021 308.84492 107.348014 
C 308.181912 106.685006 307.282554 106.31248 306.34492 106.31248 
C 305.407285 106.31248 304.507928 106.685006 303.84492 107.348014 
C 303.181912 108.011021 302.809386 108.910379 302.809386 109.848014 
C 302.809386 110.785648 303.181912 111.685006 303.84492 112.348014 
C 304.507928 113.011021 305.407285 113.383548 306.34492 113.383548 
z
" style="fill:none;stroke:#ff9896;"/>
   </g>
   <g id="PathCollection_51">
    <path clip-path="url(#pacf885debf)" d="M 311.318182 117.987656 
C 312.255816 117.987656 313.155174 117.615129 313.818182 116.952122 
C 314.48119 116.289114 314.853716 115.389756 314.853716 114.452122 
C 314.853716 113.514487 314.48119 112.615129 313.818182 111.952122 
C 313.155174 111.289114 312.255816 110.916588 311.318182 110.916588 
C 310.380547 110.916588 309.48119 111.289114 308.818182 111.952122 
C 308.155174 112.615129 307.782648 113.514487 307.782648 114.452122 
C 307.782648 115.389756 308.155174 116.289114 308.818182 116.952122 
C 309.48119 117.615129 310.380547 117.987656 311.318182 117.987656 
z
" style="fill:none;stroke:#ff9896;"/>
   </g>
   <g id="PathCollection_52">
    <defs>
     <path d="M 0 3.535534 
C 0.937635 3.535534 1.836992 3.163008 2.5 2.5 
C 3.163008 1.836992 3.535534 0.937635 3.535534 0 
C 3.535534 -0.937635 3.163008 -1.836992 2.5 -2.5 
C 1.836992 -3.163008 0.937635 -3.535534 0 -3.535534 
C -0.937635 -3.535534 -1.836992 -3.163008 -2.5 -2.5 
C -3.163008 -1.836992 -3.535534 -0.937635 -3.535534 0 
C -3.535534 0.937635 -3.163008 1.836992 -2.5 2.5 
C -1.836992 3.163008 -0.937635 3.535534 0 3.535534 
z
" id="mc8239a78cd" style="stroke:#ff9896;"/>
    </defs>
    <g clip-path="url(#pacf885debf)">
     <use style="fill:#ff9896;stroke:#ff9896;" x="62.65508" xlink:href="#mc8239a78cd" y="180.115387"/>
    </g>
   </g>
   <g id="PathCollection_53">
    <g clip-path="url(#pacf885debf)">
     <use style="fill:#ff9896;stroke:#ff9896;" x="67.628342" xlink:href="#mc8239a78cd" y="181.150319"/>
    </g>
   </g>
   <g id="PathCollection_54">
    <g clip-path="url(#pacf885debf)">
     <use style="fill:#ff9896;stroke:#ff9896;" x="72.601604" xlink:href="#mc8239a78cd" y="181.245463"/>
    </g>
   </g>
   <g id="PathCollection_55">
    <g clip-path="url(#pacf885debf)">
     <use style="fill:#ff9896;stroke:#ff9896;" x="77.574866" xlink:href="#mc8239a78cd" y="180.601732"/>
    </g>
   </g>
   <g id="PathCollection_56">
    <g clip-path="url(#pacf885debf)">
     <use style="fill:#ff9896;stroke:#ff9896;" x="82.548128" xlink:href="#mc8239a78cd" y="179.356461"/>
    </g>
   </g>
   <g id="PathCollection_57">
    <g clip-path="url(#pacf885debf)">
     <use style="fill:#ff9896;stroke:#ff9896;" x="87.52139" xlink:href="#mc8239a78cd" y="177.605486"/>
    </g>
   </g>
   <g id="PathCollection_58">
    <g clip-path="url(#pacf885debf)">
     <use style="fill:#ff9896;stroke:#ff9896;" x="92.494652" xlink:href="#mc8239a78cd" y="175.404883"/>
    </g>
   </g>
   <g id="PathCollection_59">
    <g clip-path="url(#pacf885debf)">
     <use style="fill:#ff9896;stroke:#ff9896;" x="97.467914" xlink:href="#mc8239a78cd" y="172.785494"/>
    </g>
   </g>
   <g id="PathCollection_60">
    <g clip-path="url(#pacf885debf)">
     <use style="fill:#ff9896;stroke:#ff9896;" x="102.441176" xlink:href="#mc8239a78cd" y="169.760483"/>
    </g>
   </g>
   <g id="PathCollection_61">
    <g clip-path="url(#pacf885debf)">
     <use style="fill:#ff9896;stroke:#ff9896;" x="107.414439" xlink:href="#mc8239a78cd" y="166.332607"/>
    </g>
   </g>
   <g id="PathCollection_62">
    <g clip-path="url(#pacf885debf)">
     <use style="fill:#ff9896;stroke:#ff9896;" x="112.387701" xlink:href="#mc8239a78cd" y="162.500314"/>
    </g>
   </g>
   <g id="PathCollection_63">
    <g clip-path="url(#pacf885debf)">
     <use style="fill:#ff9896;stroke:#ff9896;" x="117.360963" xlink:href="#mc8239a78cd" y="158.262757"/>
    </g>
   </g>
   <g id="PathCollection_64">
    <g clip-path="url(#pacf885debf)">
     <use style="fill:#ff9896;stroke:#ff9896;" x="122.334225" xlink:href="#mc8239a78cd" y="153.62379"/>
    </g>
   </g>
   <g id="PathCollection_65">
    <g clip-path="url(#pacf885debf)">
     <use style="fill:#ff9896;stroke:#ff9896;" x="127.307487" xlink:href="#mc8239a78cd" y="148.595011"/>
    </g>
   </g>
   <g id="PathCollection_66">
    <g clip-path="url(#pacf885debf)">
     <use style="fill:#ff9896;stroke:#ff9896;" x="132.280749" xlink:href="#mc8239a78cd" y="143.197931"/>
    </g>
   </g>
   <g id="PathCollection_67">
    <g clip-path="url(#pacf885debf)">
     <use style="fill:#ff9896;stroke:#ff9896;" x="137.254011" xlink:href="#mc8239a78cd" y="137.46534"/>
    </g>
   </g>
   <g id="PathCollection_68">
    <g clip-path="url(#pacf885debf)">
     <use style="fill:#ff9896;stroke:#ff9896;" x="142.227273" xlink:href="#mc8239a78cd" y="131.441936"/>
    </g>
   </g>
   <g id="PathCollection_69">
    <g clip-path="url(#pacf885debf)">
     <use style="fill:#ff9896;stroke:#ff9896;" x="147.200535" xlink:href="#mc8239a78cd" y="125.184298"/>
    </g>
   </g>
   <g id="PathCollection_70">
    <g clip-path="url(#pacf885debf)">
     <use style="fill:#ff9896;stroke:#ff9896;" x="152.173797" xlink:href="#mc8239a78cd" y="118.760267"/>
    </g>
   </g>
   <g id="PathCollection_71">
    <g clip-path="url(#pacf885debf)">
     <use style="fill:#ff9896;stroke:#ff9896;" x="157.147059" xlink:href="#mc8239a78cd" y="112.247802"/>
    </g>
   </g>
   <g id="PathCollection_72">
    <g clip-path="url(#pacf885debf)">
     <use style="fill:#ff9896;stroke:#ff9896;" x="162.120321" xlink:href="#mc8239a78cd" y="105.733402"/>
    </g>
   </g>
   <g id="PathCollection_73">
    <g clip-path="url(#pacf885debf)">
     <use style="fill:#ff9896;stroke:#ff9896;" x="167.093583" xlink:href="#mc8239a78cd" y="99.310142"/>
    </g>
   </g>
   <g id="PathCollection_74">
    <g clip-path="url(#pacf885debf)">
     <use style="fill:#ff9896;stroke:#ff9896;" x="172.066845" xlink:href="#mc8239a78cd" y="93.075411"/>
    </g>
   </g>
   <g id="PathCollection_75">
    <g clip-path="url(#pacf885debf)">
     <use style="fill:#ff9896;stroke:#ff9896;" x="177.040107" xlink:href="#mc8239a78cd" y="87.128417"/>
    </g>
   </g>
   <g id="PathCollection_76">
    <g clip-path="url(#pacf885debf)">
     <use style="fill:#ff9896;stroke:#ff9896;" x="182.013369" xlink:href="#mc8239a78cd" y="81.567532"/>
    </g>
   </g>
   <g id="PathCollection_77">
    <g clip-path="url(#pacf885debf)">
     <use style="fill:#ff9896;stroke:#ff9896;" x="186.986631" xlink:href="#mc8239a78cd" y="76.487544"/>
    </g>
   </g>
   <g id="PathCollection_78">
    <g clip-path="url(#pacf885debf)">
     <use style="fill:#ff9896;stroke:#ff9896;" x="191.959893" xlink:href="#mc8239a78cd" y="71.976901"/>
    </g>
   </g>
   <g id="PathCollection_79">
    <g clip-path="url(#pacf885debf)">
     <use style="fill:#ff9896;stroke:#ff9896;" x="196.933155" xlink:href="#mc8239a78cd" y="68.114998"/>
    </g>
   </g>
   <g id="PathCollection_80">
    <g clip-path="url(#pacf885debf)">
     <use style="fill:#ff9896;stroke:#ff9896;" x="201.906417" xlink:href="#mc8239a78cd" y="64.969602"/>
    </g>
   </g>
   <g id="PathCollection_81">
    <g clip-path="url(#pacf885debf)">
     <use style="fill:#ff9896;stroke:#ff9896;" x="206.879679" xlink:href="#mc8239a78cd" y="62.594464"/>
    </g>
   </g>
   <g id="PathCollection_82">
    <g clip-path="url(#pacf885debf)">
     <use style="fill:#ff9896;stroke:#ff9896;" x="211.852941" xlink:href="#mc8239a78cd" y="61.027206"/>
    </g>
   </g>
   <g id="PathCollection_83">
    <g clip-path="url(#pacf885debf)">
     <use style="fill:#ff9896;stroke:#ff9896;" x="216.826203" xlink:href="#mc8239a78cd" y="60.28755"/>
    </g>
   </g>
   <g id="PathCollection_84">
    <g clip-path="url(#pacf885debf)">
     <use style="fill:#ff9896;stroke:#ff9896;" x="221.799465" xlink:href="#mc8239a78cd" y="60.375952"/>
    </g>
   </g>
   <g id="PathCollection_85">
    <g clip-path="url(#pacf885debf)">
     <use style="fill:#ff9896;stroke:#ff9896;" x="226.772727" xlink:href="#mc8239a78cd" y="61.272731"/>
    </g>
   </g>
   <g id="PathCollection_86">
    <g clip-path="url(#pacf885debf)">
     <use style="fill:#ff9896;stroke:#ff9896;" x="231.745989" xlink:href="#mc8239a78cd" y="62.937741"/>
    </g>
   </g>
   <g id="PathCollection_87">
    <g clip-path="url(#pacf885debf)">
     <use style="fill:#ff9896;stroke:#ff9896;" x="236.719251" xlink:href="#mc8239a78cd" y="65.310683"/>
    </g>
   </g>
   <g id="PathCollection_88">
    <g clip-path="url(#pacf885debf)">
     <use style="fill:#ff9896;stroke:#ff9896;" x="241.692513" xlink:href="#mc8239a78cd" y="68.312106"/>
    </g>
   </g>
   <g id="PathCollection_89">
    <g clip-path="url(#pacf885debf)">
     <use style="fill:#ff9896;stroke:#ff9896;" x="246.665775" xlink:href="#mc8239a78cd" y="71.845179"/>
    </g>
   </g>
   <g id="PathCollection_90">
    <g clip-path="url(#pacf885debf)">
     <use style="fill:#ff9896;stroke:#ff9896;" x="251.639037" xlink:href="#mc8239a78cd" y="75.798315"/>
    </g>
   </g>
   <g id="PathCollection_91">
    <g clip-path="url(#pacf885debf)">
     <use style="fill:#ff9896;stroke:#ff9896;" x="256.612299" xlink:href="#mc8239a78cd" y="80.048695"/>
    </g>
   </g>
   <g id="PathCollection_92">
    <g clip-path="url(#pacf885debf)">
     <use style="fill:#ff9896;stroke:#ff9896;" x="261.585561" xlink:href="#mc8239a78cd" y="84.466786"/>
    </g>
   </g>
   <g id="PathCollection_93">
    <g clip-path="url(#pacf885debf)">
     <use style="fill:#ff9896;stroke:#ff9896;" x="266.558824" xlink:href="#mc8239a78cd" y="88.921911"/>
    </g>
   </g>
   <g id="PathCollection_94">
    <g clip-path="url(#pacf885debf)">
     <use style="fill:#ff9896;stroke:#ff9896;" x="271.532086" xlink:href="#mc8239a78cd" y="93.288952"/>
    </g>
   </g>
   <g id="PathCollection_95">
    <g clip-path="url(#pacf885debf)">
     <use style="fill:#ff9896;stroke:#ff9896;" x="276.505348" xlink:href="#mc8239a78cd" y="97.456247"/>
    </g>
   </g>
   <g id="PathCollection_96">
    <g clip-path="url(#pacf885debf)">
     <use style="fill:#ff9896;stroke:#ff9896;" x="281.47861" xlink:href="#mc8239a78cd" y="101.334767"/>
    </g>
   </g>
   <g id="PathCollection_97">
    <g clip-path="url(#pacf885debf)">
     <use style="fill:#ff9896;stroke:#ff9896;" x="286.451872" xlink:href="#mc8239a78cd" y="104.868622"/>
    </g>
   </g>
   <g id="PathCollection_98">
    <g clip-path="url(#pacf885debf)">
     <use style="fill:#ff9896;stroke:#ff9896;" x="291.425134" xlink:href="#mc8239a78cd" y="108.046997"/>
    </g>
   </g>
   <g id="PathCollection_99">
    <g clip-path="url(#pacf885debf)">
     <use style="fill:#ff9896;stroke:#ff9896;" x="296.398396" xlink:href="#mc8239a78cd" y="110.917567"/>
    </g>
   </g>
   <g id="PathCollection_100">
    <g clip-path="url(#pacf885debf)">
     <use style="fill:#ff9896;stroke:#ff9896;" x="301.371658" xlink:href="#mc8239a78cd" y="113.601468"/>
    </g>
   </g>
   <g id="PathCollection_101">
    <g clip-path="url(#pacf885debf)">
     <use style="fill:#ff9896;stroke:#ff9896;" x="306.34492" xlink:href="#mc8239a78cd" y="116.3099"/>
    </g>
   </g>
   <g id="PathCollection_102">
    <g clip-path="url(#pacf885debf)">
     <use style="fill:#ff9896;stroke:#ff9896;" x="311.318182" xlink:href="#mc8239a78cd" y="119.362432"/>
    </g>
   </g>
   <g id="matplotlib.axis_1"/>
   <g id="matplotlib.axis_2">
    <g id="ytick_1">
     <g id="line2d_1">
      <defs>
       <path d="M 0 0 
L -3.5 0 
" id="md4fb26565b" style="stroke:#000000;stroke-width:0.8;"/>
      </defs>
      <g>
       <use style="stroke:#000000;stroke-width:0.8;" x="45" xlink:href="#md4fb26565b" y="179.934372"/>
      </g>
     </g>
     <g id="text_1">
      <!-- 0.0 -->
      <g transform="translate(22.096875 183.733591)scale(0.1 -0.1)">
       <defs>
        <path d="M 31.78125 66.40625 
Q 24.171875 66.40625 20.328125 58.90625 
Q 16.5 51.421875 16.5 36.375 
Q 16.5 21.390625 20.328125 13.890625 
Q 24.171875 6.390625 31.78125 6.390625 
Q 39.453125 6.390625 43.28125 13.890625 
Q 47.125 21.390625 47.125 36.375 
Q 47.125 51.421875 43.28125 58.90625 
Q 39.453125 66.40625 31.78125 66.40625 
z
M 31.78125 74.21875 
Q 44.046875 74.21875 50.515625 64.515625 
Q 56.984375 54.828125 56.984375 36.375 
Q 56.984375 17.96875 50.515625 8.265625 
Q 44.046875 -1.421875 31.78125 -1.421875 
Q 19.53125 -1.421875 13.0625 8.265625 
Q 6.59375 17.96875 6.59375 36.375 
Q 6.59375 54.828125 13.0625 64.515625 
Q 19.53125 74.21875 31.78125 74.21875 
z
" id="DejaVuSans-48"/>
        <path d="M 10.6875 12.40625 
L 21 12.40625 
L 21 0 
L 10.6875 0 
z
" id="DejaVuSans-46"/>
       </defs>
       <use xlink:href="#DejaVuSans-48"/>
       <use x="63.623047" xlink:href="#DejaVuSans-46"/>
       <use x="95.410156" xlink:href="#DejaVuSans-48"/>
      </g>
     </g>
    </g>
    <g id="ytick_2">
     <g id="line2d_2">
      <g>
       <use style="stroke:#000000;stroke-width:0.8;" x="45" xlink:href="#md4fb26565b" y="152.127726"/>
      </g>
     </g>
     <g id="text_2">
      <!-- 0.1 -->
      <g transform="translate(22.096875 155.926944)scale(0.1 -0.1)">
       <defs>
        <path d="M 12.40625 8.296875 
L 28.515625 8.296875 
L 28.515625 63.921875 
L 10.984375 60.40625 
L 10.984375 69.390625 
L 28.421875 72.90625 
L 38.28125 72.90625 
L 38.28125 8.296875 
L 54.390625 8.296875 
L 54.390625 0 
L 12.40625 0 
z
" id="DejaVuSans-49"/>
       </defs>
       <use xlink:href="#DejaVuSans-48"/>
       <use x="63.623047" xlink:href="#DejaVuSans-46"/>
       <use x="95.410156" xlink:href="#DejaVuSans-49"/>
      </g>
     </g>
    </g>
    <g id="ytick_3">
     <g id="line2d_3">
      <g>
       <use style="stroke:#000000;stroke-width:0.8;" x="45" xlink:href="#md4fb26565b" y="124.321079"/>
      </g>
     </g>
     <g id="text_3">
      <!-- 0.2 -->
      <g transform="translate(22.096875 128.120298)scale(0.1 -0.1)">
       <defs>
        <path d="M 19.1875 8.296875 
L 53.609375 8.296875 
L 53.609375 0 
L 7.328125 0 
L 7.328125 8.296875 
Q 12.9375 14.109375 22.625 23.890625 
Q 32.328125 33.6875 34.8125 36.53125 
Q 39.546875 41.84375 41.421875 45.53125 
Q 43.3125 49.21875 43.3125 52.78125 
Q 43.3125 58.59375 39.234375 62.25 
Q 35.15625 65.921875 28.609375 65.921875 
Q 23.96875 65.921875 18.8125 64.3125 
Q 13.671875 62.703125 7.8125 59.421875 
L 7.8125 69.390625 
Q 13.765625 71.78125 18.9375 73 
Q 24.125 74.21875 28.421875 74.21875 
Q 39.75 74.21875 46.484375 68.546875 
Q 53.21875 62.890625 53.21875 53.421875 
Q 53.21875 48.921875 51.53125 44.890625 
Q 49.859375 40.875 45.40625 35.40625 
Q 44.1875 33.984375 37.640625 27.21875 
Q 31.109375 20.453125 19.1875 8.296875 
z
" id="DejaVuSans-50"/>
       </defs>
       <use xlink:href="#DejaVuSans-48"/>
       <use x="63.623047" xlink:href="#DejaVuSans-46"/>
       <use x="95.410156" xlink:href="#DejaVuSans-50"/>
      </g>
     </g>
    </g>
    <g id="ytick_4">
     <g id="line2d_4">
      <g>
       <use style="stroke:#000000;stroke-width:0.8;" x="45" xlink:href="#md4fb26565b" y="96.514432"/>
      </g>
     </g>
     <g id="text_4">
      <!-- 0.3 -->
      <g transform="translate(22.096875 100.313651)scale(0.1 -0.1)">
       <defs>
        <path d="M 40.578125 39.3125 
Q 47.65625 37.796875 51.625 33 
Q 55.609375 28.21875 55.609375 21.1875 
Q 55.609375 10.40625 48.1875 4.484375 
Q 40.765625 -1.421875 27.09375 -1.421875 
Q 22.515625 -1.421875 17.65625 -0.515625 
Q 12.796875 0.390625 7.625 2.203125 
L 7.625 11.71875 
Q 11.71875 9.328125 16.59375 8.109375 
Q 21.484375 6.890625 26.8125 6.890625 
Q 36.078125 6.890625 40.9375 10.546875 
Q 45.796875 14.203125 45.796875 21.1875 
Q 45.796875 27.640625 41.28125 31.265625 
Q 36.765625 34.90625 28.71875 34.90625 
L 20.21875 34.90625 
L 20.21875 43.015625 
L 29.109375 43.015625 
Q 36.375 43.015625 40.234375 45.921875 
Q 44.09375 48.828125 44.09375 54.296875 
Q 44.09375 59.90625 40.109375 62.90625 
Q 36.140625 65.921875 28.71875 65.921875 
Q 24.65625 65.921875 20.015625 65.03125 
Q 15.375 64.15625 9.8125 62.3125 
L 9.8125 71.09375 
Q 15.4375 72.65625 20.34375 73.4375 
Q 25.25 74.21875 29.59375 74.21875 
Q 40.828125 74.21875 47.359375 69.109375 
Q 53.90625 64.015625 53.90625 55.328125 
Q 53.90625 49.265625 50.4375 45.09375 
Q 46.96875 40.921875 40.578125 39.3125 
z
" id="DejaVuSans-51"/>
       </defs>
       <use xlink:href="#DejaVuSans-48"/>
       <use x="63.623047" xlink:href="#DejaVuSans-46"/>
       <use x="95.410156" xlink:href="#DejaVuSans-51"/>
      </g>
     </g>
    </g>
    <g id="ytick_5">
     <g id="line2d_5">
      <g>
       <use style="stroke:#000000;stroke-width:0.8;" x="45" xlink:href="#md4fb26565b" y="68.707786"/>
      </g>
     </g>
     <g id="text_5">
      <!-- 0.4 -->
      <g transform="translate(22.096875 72.507005)scale(0.1 -0.1)">
       <defs>
        <path d="M 37.796875 64.3125 
L 12.890625 25.390625 
L 37.796875 25.390625 
z
M 35.203125 72.90625 
L 47.609375 72.90625 
L 47.609375 25.390625 
L 58.015625 25.390625 
L 58.015625 17.1875 
L 47.609375 17.1875 
L 47.609375 0 
L 37.796875 0 
L 37.796875 17.1875 
L 4.890625 17.1875 
L 4.890625 26.703125 
z
" id="DejaVuSans-52"/>
       </defs>
       <use xlink:href="#DejaVuSans-48"/>
       <use x="63.623047" xlink:href="#DejaVuSans-46"/>
       <use x="95.410156" xlink:href="#DejaVuSans-52"/>
      </g>
     </g>
    </g>
    <g id="ytick_6">
     <g id="line2d_6">
      <g>
       <use style="stroke:#000000;stroke-width:0.8;" x="45" xlink:href="#md4fb26565b" y="40.901139"/>
      </g>
     </g>
     <g id="text_6">
      <!-- 0.5 -->
      <g transform="translate(22.096875 44.700358)scale(0.1 -0.1)">
       <defs>
        <path d="M 10.796875 72.90625 
L 49.515625 72.90625 
L 49.515625 64.59375 
L 19.828125 64.59375 
L 19.828125 46.734375 
Q 21.96875 47.46875 24.109375 47.828125 
Q 26.265625 48.1875 28.421875 48.1875 
Q 40.625 48.1875 47.75 41.5 
Q 54.890625 34.8125 54.890625 23.390625 
Q 54.890625 11.625 47.5625 5.09375 
Q 40.234375 -1.421875 26.90625 -1.421875 
Q 22.3125 -1.421875 17.546875 -0.640625 
Q 12.796875 0.140625 7.71875 1.703125 
L 7.71875 11.625 
Q 12.109375 9.234375 16.796875 8.0625 
Q 21.484375 6.890625 26.703125 6.890625 
Q 35.15625 6.890625 40.078125 11.328125 
Q 45.015625 15.765625 45.015625 23.390625 
Q 45.015625 31 40.078125 35.4375 
Q 35.15625 39.890625 26.703125 39.890625 
Q 22.75 39.890625 18.8125 39.015625 
Q 14.890625 38.140625 10.796875 36.28125 
z
" id="DejaVuSans-53"/>
       </defs>
       <use xlink:href="#DejaVuSans-48"/>
       <use x="63.623047" xlink:href="#DejaVuSans-46"/>
       <use x="95.410156" xlink:href="#DejaVuSans-53"/>
      </g>
     </g>
    </g>
   </g>
   <g id="line2d_7">
    <path clip-path="url(#pacf885debf)" d="M 57.681818 179.934372 
L 88.951203 179.823416 
L 93.800134 179.499252 
L 98.939171 178.930506 
L 104.471925 178.092603 
L 110.543449 176.944099 
L 117.257353 175.442391 
L 124.820856 173.516825 
L 133.58623 171.048994 
L 144.320187 167.786292 
L 159.592246 162.888668 
L 196.332219 151.034957 
L 207.874332 147.55309 
L 212.536765 146.401079 
L 217.302807 145.45486 
L 222.317513 144.688432 
L 227.622326 144.104981 
L 233.279412 143.709301 
L 239.350936 143.510816 
L 245.919786 143.522139 
L 253.089572 143.760252 
L 261.046791 144.251223 
L 270.040107 145.034319 
L 280.483957 146.173447 
L 293.269385 147.801348 
L 310.883021 150.2863 
L 311.318182 150.349694 
L 311.318182 150.349694 
" style="fill:none;stroke:#ff9896;stroke-dasharray:11.1,4.8;stroke-dashoffset:0;stroke-width:3;"/>
   </g>
   <g id="line2d_8">
    <path clip-path="url(#pacf885debf)" d="M 57.681818 179.934372 
L 86.319519 179.823426 
L 88.785428 179.516818 
L 91.209893 178.990101 
L 93.696524 178.220926 
L 96.307487 177.177076 
L 99.042781 175.841327 
L 101.94385 174.173686 
L 105.031417 172.137766 
L 108.326203 169.694408 
L 111.869652 166.784173 
L 115.703209 163.340565 
L 119.868316 159.292253 
L 124.406417 154.565909 
L 129.483289 148.94741 
L 135.20254 142.274323 
L 141.77139 134.258352 
L 149.832219 124.053009 
L 160.835561 109.737061 
L 188.602941 73.481628 
L 199.088235 60.244503 
L 206.299465 51.451205 
L 209.221257 48.246256 
L 211.956551 45.572621 
L 214.650401 43.246831 
L 217.344251 41.210987 
L 220.058824 39.43555 
L 222.794118 37.909629 
L 225.570856 36.613657 
L 228.389037 35.542226 
L 231.269385 34.684206 
L 234.23262 34.034442 
L 237.278743 33.595257 
L 240.428476 33.366933 
L 243.70254 33.354053 
L 247.121658 33.564842 
L 250.706551 34.010523 
L 254.498663 34.709048 
L 258.518717 35.679022 
L 262.808155 36.946156 
L 267.408422 38.539826 
L 272.402406 40.508643 
L 277.872995 42.908286 
L 283.965241 45.828527 
L 290.886364 49.399072 
L 299.03008 53.858992 
L 309.328877 59.766185 
L 311.318182 60.92981 
L 311.318182 60.92981 
" style="fill:none;stroke:#ff9896;stroke-linecap:square;stroke-width:3;"/>
   </g>
   <g id="patch_3">
    <path d="M 45 189 
L 45 25.92 
" style="fill:none;stroke:#000000;stroke-linecap:square;stroke-linejoin:miter;stroke-width:0.8;"/>
   </g>
   <g id="patch_4">
    <path d="M 324 189 
L 324 25.92 
" style="fill:none;stroke:#000000;stroke-linecap:square;stroke-linejoin:miter;stroke-width:0.8;"/>
   </g>
   <g id="patch_5">
    <path d="M 45 189 
L 324 189 
" style="fill:none;stroke:#000000;stroke-linecap:square;stroke-linejoin:miter;stroke-width:0.8;"/>
   </g>
   <g id="patch_6">
    <path d="M 45 25.92 
L 324 25.92 
" style="fill:none;stroke:#000000;stroke-linecap:square;stroke-linejoin:miter;stroke-width:0.8;"/>
   </g>
  </g>
 </g>
 <defs>
  <clipPath id="pacf885debf">
   <rect height="163.08" width="279" x="45" y="25.92"/>
  </clipPath>
 </defs>
</svg>
