<?xml version="1.0" encoding="utf-8" standalone="no"?>
<!DOCTYPE svg PUBLIC "-//W3C//DTD SVG 1.1//EN"
  "http://www.w3.org/Graphics/SVG/1.1/DTD/svg11.dtd">
<!-- Created with matplotlib (https://matplotlib.org/) -->
<svg height="216pt" version="1.1" viewBox="0 0 360 216" width="360pt" xmlns="http://www.w3.org/2000/svg" xmlns:xlink="http://www.w3.org/1999/xlink">
 <metadata>
  <rdf:RDF xmlns:cc="http://creativecommons.org/ns#" xmlns:dc="http://purl.org/dc/elements/1.1/" xmlns:rdf="http://www.w3.org/1999/02/22-rdf-syntax-ns#">
   <cc:Work>
    <dc:type rdf:resource="http://purl.org/dc/dcmitype/StillImage"/>
    <dc:date>2024-12-13T09:02:33.651116</dc:date>
    <dc:format>image/svg+xml</dc:format>
    <dc:creator>
     <cc:Agent>
      <dc:title>Matplotlib v3.3.2, https://matplotlib.org/</dc:title>
     </cc:Agent>
    </dc:creator>
   </cc:Work>
  </rdf:RDF>
 </metadata>
 <defs>
  <style type="text/css">*{stroke-linecap:butt;stroke-linejoin:round;}</style>
 </defs>
 <g id="figure_1">
  <g id="patch_1">
   <path d="M 0 216 
L 360 216 
L 360 0 
L 0 0 
z
" style="fill:none;"/>
  </g>
  <g id="axes_1">
   <g id="patch_2">
    <path d="M 45 189 
L 324 189 
L 324 25.92 
L 45 25.92 
z
" style="fill:#ffffff;"/>
   </g>
   <g id="PathCollection_1">
    <path clip-path="url(#p4dd7a5390d)" d="M 62.65508 185.099994 
C 63.592715 185.099994 64.492072 184.727468 65.15508 184.06446 
C 65.818088 183.401452 66.190614 182.502094 66.190614 181.56446 
C 66.190614 180.626825 65.818088 179.727468 65.15508 179.06446 
C 64.492072 178.401452 63.592715 178.028926 62.65508 178.028926 
C 61.717446 178.028926 60.818088 178.401452 60.15508 179.06446 
C 59.492072 179.727468 59.119546 180.626825 59.119546 181.56446 
C 59.119546 182.502094 59.492072 183.401452 60.15508 184.06446 
C 60.818088 184.727468 61.717446 185.099994 62.65508 185.099994 
z
" style="fill:none;stroke:#2ca02c;"/>
   </g>
   <g id="PathCollection_2">
    <path clip-path="url(#p4dd7a5390d)" d="M 67.628342 185.046453 
C 68.565977 185.046453 69.465334 184.673927 70.128342 184.010919 
C 70.79135 183.347911 71.163876 182.448553 71.163876 181.510919 
C 71.163876 180.573284 70.79135 179.673927 70.128342 179.010919 
C 69.465334 178.347911 68.565977 177.975385 67.628342 177.975385 
C 66.690708 177.975385 65.79135 178.347911 65.128342 179.010919 
C 64.465334 179.673927 64.092808 180.573284 64.092808 181.510919 
C 64.092808 182.448553 64.465334 183.347911 65.128342 184.010919 
C 65.79135 184.673927 66.690708 185.046453 67.628342 185.046453 
z
" style="fill:none;stroke:#2ca02c;"/>
   </g>
   <g id="PathCollection_3">
    <path clip-path="url(#p4dd7a5390d)" d="M 72.601604 184.833579 
C 73.539239 184.833579 74.438597 184.461053 75.101604 183.798045 
C 75.764612 183.135038 76.137138 182.23568 76.137138 181.298045 
C 76.137138 180.360411 75.764612 179.461053 75.101604 178.798045 
C 74.438597 178.135038 73.539239 177.762512 72.601604 177.762512 
C 71.66397 177.762512 70.764612 178.135038 70.101604 178.798045 
C 69.438597 179.461053 69.06607 180.360411 69.06607 181.298045 
C 69.06607 182.23568 69.438597 183.135038 70.101604 183.798045 
C 70.764612 184.461053 71.66397 184.833579 72.601604 184.833579 
z
" style="fill:none;stroke:#2ca02c;"/>
   </g>
   <g id="PathCollection_4">
    <path clip-path="url(#p4dd7a5390d)" d="M 77.574866 184.414422 
C 78.512501 184.414422 79.411859 184.041896 80.074866 183.378888 
C 80.737874 182.715881 81.1104 181.816523 81.1104 180.878888 
C 81.1104 179.941254 80.737874 179.041896 80.074866 178.378888 
C 79.411859 177.715881 78.512501 177.343355 77.574866 177.343355 
C 76.637232 177.343355 75.737874 177.715881 75.074866 178.378888 
C 74.411859 179.041896 74.039332 179.941254 74.039332 180.878888 
C 74.039332 181.816523 74.411859 182.715881 75.074866 183.378888 
C 75.737874 184.041896 76.637232 184.414422 77.574866 184.414422 
z
" style="fill:none;stroke:#2ca02c;"/>
   </g>
   <g id="PathCollection_5">
    <path clip-path="url(#p4dd7a5390d)" d="M 82.548128 183.762879 
C 83.485763 183.762879 84.385121 183.390353 85.048128 182.727345 
C 85.711136 182.064337 86.083662 181.164979 86.083662 180.227345 
C 86.083662 179.28971 85.711136 178.390353 85.048128 177.727345 
C 84.385121 177.064337 83.485763 176.691811 82.548128 176.691811 
C 81.610494 176.691811 80.711136 177.064337 80.048128 177.727345 
C 79.385121 178.390353 79.012594 179.28971 79.012594 180.227345 
C 79.012594 181.164979 79.385121 182.064337 80.048128 182.727345 
C 80.711136 183.390353 81.610494 183.762879 82.548128 183.762879 
z
" style="fill:none;stroke:#2ca02c;"/>
   </g>
   <g id="PathCollection_6">
    <path clip-path="url(#p4dd7a5390d)" d="M 87.52139 182.868983 
C 88.459025 182.868983 89.358383 182.496457 90.02139 181.833449 
C 90.684398 181.170441 91.056924 180.271084 91.056924 179.333449 
C 91.056924 178.395815 90.684398 177.496457 90.02139 176.833449 
C 89.358383 176.170441 88.459025 175.797915 87.52139 175.797915 
C 86.583756 175.797915 85.684398 176.170441 85.02139 176.833449 
C 84.358383 177.496457 83.985856 178.395815 83.985856 179.333449 
C 83.985856 180.271084 84.358383 181.170441 85.02139 181.833449 
C 85.684398 182.496457 86.583756 182.868983 87.52139 182.868983 
z
" style="fill:none;stroke:#2ca02c;"/>
   </g>
   <g id="PathCollection_7">
    <path clip-path="url(#p4dd7a5390d)" d="M 92.494652 181.734783 
C 93.432287 181.734783 94.331645 181.362257 94.994652 180.699249 
C 95.65766 180.036241 96.030186 179.136884 96.030186 178.199249 
C 96.030186 177.261615 95.65766 176.362257 94.994652 175.699249 
C 94.331645 175.036241 93.432287 174.663715 92.494652 174.663715 
C 91.557018 174.663715 90.65766 175.036241 89.994652 175.699249 
C 89.331645 176.362257 88.959119 177.261615 88.959119 178.199249 
C 88.959119 179.136884 89.331645 180.036241 89.994652 180.699249 
C 90.65766 181.362257 91.557018 181.734783 92.494652 181.734783 
z
" style="fill:none;stroke:#2ca02c;"/>
   </g>
   <g id="PathCollection_8">
    <path clip-path="url(#p4dd7a5390d)" d="M 97.467914 180.370784 
C 98.405549 180.370784 99.304907 179.998258 99.967914 179.33525 
C 100.630922 178.672243 101.003448 177.772885 101.003448 176.83525 
C 101.003448 175.897616 100.630922 174.998258 99.967914 174.33525 
C 99.304907 173.672243 98.405549 173.299716 97.467914 173.299716 
C 96.53028 173.299716 95.630922 173.672243 94.967914 174.33525 
C 94.304907 174.998258 93.932381 175.897616 93.932381 176.83525 
C 93.932381 177.772885 94.304907 178.672243 94.967914 179.33525 
C 95.630922 179.998258 96.53028 180.370784 97.467914 180.370784 
z
" style="fill:none;stroke:#2ca02c;"/>
   </g>
   <g id="PathCollection_9">
    <path clip-path="url(#p4dd7a5390d)" d="M 102.441176 178.792928 
C 103.378811 178.792928 104.278169 178.420401 104.941176 177.757394 
C 105.604184 177.094386 105.97671 176.195028 105.97671 175.257394 
C 105.97671 174.319759 105.604184 173.420401 104.941176 172.757394 
C 104.278169 172.094386 103.378811 171.72186 102.441176 171.72186 
C 101.503542 171.72186 100.604184 172.094386 99.941176 172.757394 
C 99.278169 173.420401 98.905643 174.319759 98.905643 175.257394 
C 98.905643 176.195028 99.278169 177.094386 99.941176 177.757394 
C 100.604184 178.420401 101.503542 178.792928 102.441176 178.792928 
z
" style="fill:none;stroke:#2ca02c;"/>
   </g>
   <g id="PathCollection_10">
    <path clip-path="url(#p4dd7a5390d)" d="M 107.414439 177.020077 
C 108.352073 177.020077 109.251431 176.647551 109.914439 175.984543 
C 110.577446 175.321536 110.949972 174.422178 110.949972 173.484543 
C 110.949972 172.546909 110.577446 171.647551 109.914439 170.984543 
C 109.251431 170.321536 108.352073 169.949009 107.414439 169.949009 
C 106.476804 169.949009 105.577446 170.321536 104.914439 170.984543 
C 104.251431 171.647551 103.878905 172.546909 103.878905 173.484543 
C 103.878905 174.422178 104.251431 175.321536 104.914439 175.984543 
C 105.577446 176.647551 106.476804 177.020077 107.414439 177.020077 
z
" style="fill:none;stroke:#2ca02c;"/>
   </g>
   <g id="PathCollection_11">
    <path clip-path="url(#p4dd7a5390d)" d="M 112.387701 175.071967 
C 113.325335 175.071967 114.224693 174.699441 114.887701 174.036433 
C 115.550708 173.373426 115.923234 172.474068 115.923234 171.536433 
C 115.923234 170.598799 115.550708 169.699441 114.887701 169.036433 
C 114.224693 168.373426 113.325335 168.000899 112.387701 168.000899 
C 111.450066 168.000899 110.550708 168.373426 109.887701 169.036433 
C 109.224693 169.699441 108.852167 170.598799 108.852167 171.536433 
C 108.852167 172.474068 109.224693 173.373426 109.887701 174.036433 
C 110.550708 174.699441 111.450066 175.071967 112.387701 175.071967 
z
" style="fill:none;stroke:#2ca02c;"/>
   </g>
   <g id="PathCollection_12">
    <path clip-path="url(#p4dd7a5390d)" d="M 117.360963 172.967593 
C 118.298597 172.967593 119.197955 172.595067 119.860963 171.932059 
C 120.52397 171.269051 120.896496 170.369693 120.896496 169.432059 
C 120.896496 168.494424 120.52397 167.595067 119.860963 166.932059 
C 119.197955 166.269051 118.298597 165.896525 117.360963 165.896525 
C 116.423328 165.896525 115.52397 166.269051 114.860963 166.932059 
C 114.197955 167.595067 113.825429 168.494424 113.825429 169.432059 
C 113.825429 170.369693 114.197955 171.269051 114.860963 171.932059 
C 115.52397 172.595067 116.423328 172.967593 117.360963 172.967593 
z
" style="fill:none;stroke:#2ca02c;"/>
   </g>
   <g id="PathCollection_13">
    <path clip-path="url(#p4dd7a5390d)" d="M 122.334225 170.723998 
C 123.271859 170.723998 124.171217 170.351472 124.834225 169.688464 
C 125.497232 169.025457 125.869759 168.126099 125.869759 167.188464 
C 125.869759 166.25083 125.497232 165.351472 124.834225 164.688464 
C 124.171217 164.025457 123.271859 163.65293 122.334225 163.65293 
C 121.39659 163.65293 120.497232 164.025457 119.834225 164.688464 
C 119.171217 165.351472 118.798691 166.25083 118.798691 167.188464 
C 118.798691 168.126099 119.171217 169.025457 119.834225 169.688464 
C 120.497232 170.351472 121.39659 170.723998 122.334225 170.723998 
z
" style="fill:none;stroke:#2ca02c;"/>
   </g>
   <g id="PathCollection_14">
    <path clip-path="url(#p4dd7a5390d)" d="M 127.307487 168.355432 
C 128.245121 168.355432 129.144479 167.982906 129.807487 167.319899 
C 130.470494 166.656891 130.843021 165.757533 130.843021 164.819899 
C 130.843021 163.882264 130.470494 162.982906 129.807487 162.319899 
C 129.144479 161.656891 128.245121 161.284365 127.307487 161.284365 
C 126.369852 161.284365 125.470494 161.656891 124.807487 162.319899 
C 124.144479 162.982906 123.771953 163.882264 123.771953 164.819899 
C 123.771953 165.757533 124.144479 166.656891 124.807487 167.319899 
C 125.470494 167.982906 126.369852 168.355432 127.307487 168.355432 
z
" style="fill:none;stroke:#2ca02c;"/>
   </g>
   <g id="PathCollection_15">
    <path clip-path="url(#p4dd7a5390d)" d="M 132.280749 165.872843 
C 133.218383 165.872843 134.117741 165.500316 134.780749 164.837309 
C 135.443756 164.174301 135.816283 163.274943 135.816283 162.337309 
C 135.816283 161.399674 135.443756 160.500316 134.780749 159.837309 
C 134.117741 159.174301 133.218383 158.801775 132.280749 158.801775 
C 131.343114 158.801775 130.443756 159.174301 129.780749 159.837309 
C 129.117741 160.500316 128.745215 161.399674 128.745215 162.337309 
C 128.745215 163.274943 129.117741 164.174301 129.780749 164.837309 
C 130.443756 165.500316 131.343114 165.872843 132.280749 165.872843 
z
" style="fill:none;stroke:#2ca02c;"/>
   </g>
   <g id="PathCollection_16">
    <path clip-path="url(#p4dd7a5390d)" d="M 137.254011 163.283663 
C 138.191645 163.283663 139.091003 162.911137 139.754011 162.248129 
C 140.417018 161.585122 140.789545 160.685764 140.789545 159.748129 
C 140.789545 158.810495 140.417018 157.911137 139.754011 157.248129 
C 139.091003 156.585122 138.191645 156.212596 137.254011 156.212596 
C 136.316376 156.212596 135.417018 156.585122 134.754011 157.248129 
C 134.091003 157.911137 133.718477 158.810495 133.718477 159.748129 
C 133.718477 160.685764 134.091003 161.585122 134.754011 162.248129 
C 135.417018 162.911137 136.316376 163.283663 137.254011 163.283663 
z
" style="fill:none;stroke:#2ca02c;"/>
   </g>
   <g id="PathCollection_17">
    <path clip-path="url(#p4dd7a5390d)" d="M 142.227273 160.591879 
C 143.164907 160.591879 144.064265 160.219352 144.727273 159.556345 
C 145.39028 158.893337 145.762807 157.993979 145.762807 157.056345 
C 145.762807 156.11871 145.39028 155.219352 144.727273 154.556345 
C 144.064265 153.893337 143.164907 153.520811 142.227273 153.520811 
C 141.289638 153.520811 140.39028 153.893337 139.727273 154.556345 
C 139.064265 155.219352 138.691739 156.11871 138.691739 157.056345 
C 138.691739 157.993979 139.064265 158.893337 139.727273 159.556345 
C 140.39028 160.219352 141.289638 160.591879 142.227273 160.591879 
z
" style="fill:none;stroke:#2ca02c;"/>
   </g>
   <g id="PathCollection_18">
    <path clip-path="url(#p4dd7a5390d)" d="M 147.200535 157.798311 
C 148.138169 157.798311 149.037527 157.425784 149.700535 156.762777 
C 150.363543 156.099769 150.736069 155.200411 150.736069 154.262777 
C 150.736069 153.325142 150.363543 152.425784 149.700535 151.762777 
C 149.037527 151.099769 148.138169 150.727243 147.200535 150.727243 
C 146.2629 150.727243 145.363543 151.099769 144.700535 151.762777 
C 144.037527 152.425784 143.665001 153.325142 143.665001 154.262777 
C 143.665001 155.200411 144.037527 156.099769 144.700535 156.762777 
C 145.363543 157.425784 146.2629 157.798311 147.200535 157.798311 
z
" style="fill:none;stroke:#2ca02c;"/>
   </g>
   <g id="PathCollection_19">
    <path clip-path="url(#p4dd7a5390d)" d="M 152.173797 154.901115 
C 153.111431 154.901115 154.010789 154.528588 154.673797 153.865581 
C 155.336805 153.202573 155.709331 152.303215 155.709331 151.365581 
C 155.709331 150.427946 155.336805 149.528588 154.673797 148.865581 
C 154.010789 148.202573 153.111431 147.830047 152.173797 147.830047 
C 151.236162 147.830047 150.336805 148.202573 149.673797 148.865581 
C 149.010789 149.528588 148.638263 150.427946 148.638263 151.365581 
C 148.638263 152.303215 149.010789 153.202573 149.673797 153.865581 
C 150.336805 154.528588 151.236162 154.901115 152.173797 154.901115 
z
" style="fill:none;stroke:#2ca02c;"/>
   </g>
   <g id="PathCollection_20">
    <path clip-path="url(#p4dd7a5390d)" d="M 157.147059 151.896434 
C 158.084693 151.896434 158.984051 151.523908 159.647059 150.8609 
C 160.310067 150.197892 160.682593 149.298535 160.682593 148.3609 
C 160.682593 147.423266 160.310067 146.523908 159.647059 145.8609 
C 158.984051 145.197892 158.084693 144.825366 157.147059 144.825366 
C 156.209424 144.825366 155.310067 145.197892 154.647059 145.8609 
C 153.984051 146.523908 153.611525 147.423266 153.611525 148.3609 
C 153.611525 149.298535 153.984051 150.197892 154.647059 150.8609 
C 155.310067 151.523908 156.209424 151.896434 157.147059 151.896434 
z
" style="fill:none;stroke:#2ca02c;"/>
   </g>
   <g id="PathCollection_21">
    <path clip-path="url(#p4dd7a5390d)" d="M 162.120321 148.779191 
C 163.057955 148.779191 163.957313 148.406665 164.620321 147.743657 
C 165.283329 147.08065 165.655855 146.181292 165.655855 145.243657 
C 165.655855 144.306023 165.283329 143.406665 164.620321 142.743657 
C 163.957313 142.08065 163.057955 141.708123 162.120321 141.708123 
C 161.182686 141.708123 160.283329 142.08065 159.620321 142.743657 
C 158.957313 143.406665 158.584787 144.306023 158.584787 145.243657 
C 158.584787 146.181292 158.957313 147.08065 159.620321 147.743657 
C 160.283329 148.406665 161.182686 148.779191 162.120321 148.779191 
z
" style="fill:none;stroke:#2ca02c;"/>
   </g>
   <g id="PathCollection_22">
    <path clip-path="url(#p4dd7a5390d)" d="M 167.093583 145.543977 
C 168.031217 145.543977 168.930575 145.171451 169.593583 144.508443 
C 170.256591 143.845435 170.629117 142.946078 170.629117 142.008443 
C 170.629117 141.070809 170.256591 140.171451 169.593583 139.508443 
C 168.930575 138.845435 168.031217 138.472909 167.093583 138.472909 
C 166.155948 138.472909 165.256591 138.845435 164.593583 139.508443 
C 163.930575 140.171451 163.558049 141.070809 163.558049 142.008443 
C 163.558049 142.946078 163.930575 143.845435 164.593583 144.508443 
C 165.256591 145.171451 166.155948 145.543977 167.093583 145.543977 
z
" style="fill:none;stroke:#2ca02c;"/>
   </g>
   <g id="PathCollection_23">
    <path clip-path="url(#p4dd7a5390d)" d="M 172.066845 142.186003 
C 173.004479 142.186003 173.903837 141.813477 174.566845 141.150469 
C 175.229853 140.487462 175.602379 139.588104 175.602379 138.650469 
C 175.602379 137.712835 175.229853 136.813477 174.566845 136.150469 
C 173.903837 135.487462 173.004479 135.114935 172.066845 135.114935 
C 171.12921 135.114935 170.229853 135.487462 169.566845 136.150469 
C 168.903837 136.813477 168.531311 137.712835 168.531311 138.650469 
C 168.531311 139.588104 168.903837 140.487462 169.566845 141.150469 
C 170.229853 141.813477 171.12921 142.186003 172.066845 142.186003 
z
" style="fill:none;stroke:#2ca02c;"/>
   </g>
   <g id="PathCollection_24">
    <path clip-path="url(#p4dd7a5390d)" d="M 177.040107 138.702088 
C 177.977742 138.702088 178.877099 138.329562 179.540107 137.666554 
C 180.203115 137.003546 180.575641 136.104188 180.575641 135.166554 
C 180.575641 134.228919 180.203115 133.329562 179.540107 132.666554 
C 178.877099 132.003546 177.977742 131.63102 177.040107 131.63102 
C 176.102472 131.63102 175.203115 132.003546 174.540107 132.666554 
C 173.877099 133.329562 173.504573 134.228919 173.504573 135.166554 
C 173.504573 136.104188 173.877099 137.003546 174.540107 137.666554 
C 175.203115 138.329562 176.102472 138.702088 177.040107 138.702088 
z
" style="fill:none;stroke:#2ca02c;"/>
   </g>
   <g id="PathCollection_25">
    <path clip-path="url(#p4dd7a5390d)" d="M 182.013369 135.091636 
C 182.951004 135.091636 183.850361 134.71911 184.513369 134.056102 
C 185.176377 133.393094 185.548903 132.493736 185.548903 131.556102 
C 185.548903 130.618467 185.176377 129.71911 184.513369 129.056102 
C 183.850361 128.393094 182.951004 128.020568 182.013369 128.020568 
C 181.075734 128.020568 180.176377 128.393094 179.513369 129.056102 
C 178.850361 129.71911 178.477835 130.618467 178.477835 131.556102 
C 178.477835 132.493736 178.850361 133.393094 179.513369 134.056102 
C 180.176377 134.71911 181.075734 135.091636 182.013369 135.091636 
z
" style="fill:none;stroke:#2ca02c;"/>
   </g>
   <g id="PathCollection_26">
    <path clip-path="url(#p4dd7a5390d)" d="M 186.986631 131.357589 
C 187.924266 131.357589 188.823623 130.985063 189.486631 130.322055 
C 190.149639 129.659047 190.522165 128.75969 190.522165 127.822055 
C 190.522165 126.884421 190.149639 125.985063 189.486631 125.322055 
C 188.823623 124.659047 187.924266 124.286521 186.986631 124.286521 
C 186.048996 124.286521 185.149639 124.659047 184.486631 125.322055 
C 183.823623 125.985063 183.451097 126.884421 183.451097 127.822055 
C 183.451097 128.75969 183.823623 129.659047 184.486631 130.322055 
C 185.149639 130.985063 186.048996 131.357589 186.986631 131.357589 
z
" style="fill:none;stroke:#2ca02c;"/>
   </g>
   <g id="PathCollection_27">
    <path clip-path="url(#p4dd7a5390d)" d="M 191.959893 127.507299 
C 192.897528 127.507299 193.796885 127.134773 194.459893 126.471765 
C 195.122901 125.808757 195.495427 124.9094 195.495427 123.971765 
C 195.495427 123.03413 195.122901 122.134773 194.459893 121.471765 
C 193.796885 120.808757 192.897528 120.436231 191.959893 120.436231 
C 191.022258 120.436231 190.122901 120.808757 189.459893 121.471765 
C 188.796885 122.134773 188.424359 123.03413 188.424359 123.971765 
C 188.424359 124.9094 188.796885 125.808757 189.459893 126.471765 
C 190.122901 127.134773 191.022258 127.507299 191.959893 127.507299 
z
" style="fill:none;stroke:#2ca02c;"/>
   </g>
   <g id="PathCollection_28">
    <path clip-path="url(#p4dd7a5390d)" d="M 196.933155 123.553303 
C 197.87079 123.553303 198.770147 123.180777 199.433155 122.517769 
C 200.096163 121.854761 200.468689 120.955404 200.468689 120.017769 
C 200.468689 119.080135 200.096163 118.180777 199.433155 117.517769 
C 198.770147 116.854761 197.87079 116.482235 196.933155 116.482235 
C 195.995521 116.482235 195.096163 116.854761 194.433155 117.517769 
C 193.770147 118.180777 193.397621 119.080135 193.397621 120.017769 
C 193.397621 120.955404 193.770147 121.854761 194.433155 122.517769 
C 195.096163 123.180777 195.995521 123.553303 196.933155 123.553303 
z
" style="fill:none;stroke:#2ca02c;"/>
   </g>
   <g id="PathCollection_29">
    <path clip-path="url(#p4dd7a5390d)" d="M 201.906417 119.513957 
C 202.844052 119.513957 203.743409 119.141431 204.406417 118.478423 
C 205.069425 117.815416 205.441951 116.916058 205.441951 115.978423 
C 205.441951 115.040789 205.069425 114.141431 204.406417 113.478423 
C 203.743409 112.815416 202.844052 112.44289 201.906417 112.44289 
C 200.968783 112.44289 200.069425 112.815416 199.406417 113.478423 
C 198.743409 114.141431 198.370883 115.040789 198.370883 115.978423 
C 198.370883 116.916058 198.743409 117.815416 199.406417 118.478423 
C 200.069425 119.141431 200.968783 119.513957 201.906417 119.513957 
z
" style="fill:none;stroke:#2ca02c;"/>
   </g>
   <g id="PathCollection_30">
    <path clip-path="url(#p4dd7a5390d)" d="M 206.879679 115.413905 
C 207.817314 115.413905 208.716671 115.041379 209.379679 114.378372 
C 210.042687 113.715364 210.415213 112.816006 210.415213 111.878372 
C 210.415213 110.940737 210.042687 110.041379 209.379679 109.378372 
C 208.716671 108.715364 207.817314 108.342838 206.879679 108.342838 
C 205.942045 108.342838 205.042687 108.715364 204.379679 109.378372 
C 203.716671 110.041379 203.344145 110.940737 203.344145 111.878372 
C 203.344145 112.816006 203.716671 113.715364 204.379679 114.378372 
C 205.042687 115.041379 205.942045 115.413905 206.879679 115.413905 
z
" style="fill:none;stroke:#2ca02c;"/>
   </g>
   <g id="PathCollection_31">
    <path clip-path="url(#p4dd7a5390d)" d="M 211.852941 111.284337 
C 212.790576 111.284337 213.689933 110.911811 214.352941 110.248803 
C 215.015949 109.585795 215.388475 108.686438 215.388475 107.748803 
C 215.388475 106.811169 215.015949 105.911811 214.352941 105.248803 
C 213.689933 104.585795 212.790576 104.213269 211.852941 104.213269 
C 210.915307 104.213269 210.015949 104.585795 209.352941 105.248803 
C 208.689933 105.911811 208.317407 106.811169 208.317407 107.748803 
C 208.317407 108.686438 208.689933 109.585795 209.352941 110.248803 
C 210.015949 110.911811 210.915307 111.284337 211.852941 111.284337 
z
" style="fill:none;stroke:#2ca02c;"/>
   </g>
   <g id="PathCollection_32">
    <path clip-path="url(#p4dd7a5390d)" d="M 216.826203 107.163012 
C 217.763838 107.163012 218.663195 106.790486 219.326203 106.127478 
C 219.989211 105.46447 220.361737 104.565112 220.361737 103.627478 
C 220.361737 102.689843 219.989211 101.790486 219.326203 101.127478 
C 218.663195 100.46447 217.763838 100.091944 216.826203 100.091944 
C 215.888569 100.091944 214.989211 100.46447 214.326203 101.127478 
C 213.663195 101.790486 213.290669 102.689843 213.290669 103.627478 
C 213.290669 104.565112 213.663195 105.46447 214.326203 106.127478 
C 214.989211 106.790486 215.888569 107.163012 216.826203 107.163012 
z
" style="fill:none;stroke:#2ca02c;"/>
   </g>
   <g id="PathCollection_33">
    <path clip-path="url(#p4dd7a5390d)" d="M 221.799465 103.09401 
C 222.7371 103.09401 223.636457 102.721484 224.299465 102.058476 
C 224.962473 101.395468 225.334999 100.496111 225.334999 99.558476 
C 225.334999 98.620842 224.962473 97.721484 224.299465 97.058476 
C 223.636457 96.395468 222.7371 96.022942 221.799465 96.022942 
C 220.861831 96.022942 219.962473 96.395468 219.299465 97.058476 
C 218.636457 97.721484 218.263931 98.620842 218.263931 99.558476 
C 218.263931 100.496111 218.636457 101.395468 219.299465 102.058476 
C 219.962473 102.721484 220.861831 103.09401 221.799465 103.09401 
z
" style="fill:none;stroke:#2ca02c;"/>
   </g>
   <g id="PathCollection_34">
    <path clip-path="url(#p4dd7a5390d)" d="M 226.772727 99.127179 
C 227.710362 99.127179 228.60972 98.754653 229.272727 98.091645 
C 229.935735 97.428637 230.308261 96.529279 230.308261 95.591645 
C 230.308261 94.65401 229.935735 93.754653 229.272727 93.091645 
C 228.60972 92.428637 227.710362 92.056111 226.772727 92.056111 
C 225.835093 92.056111 224.935735 92.428637 224.272727 93.091645 
C 223.60972 93.754653 223.237193 94.65401 223.237193 95.591645 
C 223.237193 96.529279 223.60972 97.428637 224.272727 98.091645 
C 224.935735 98.754653 225.835093 99.127179 226.772727 99.127179 
z
" style="fill:none;stroke:#2ca02c;"/>
   </g>
   <g id="PathCollection_35">
    <path clip-path="url(#p4dd7a5390d)" d="M 231.745989 95.317239 
C 232.683624 95.317239 233.582982 94.944712 234.245989 94.281705 
C 234.908997 93.618697 235.281523 92.719339 235.281523 91.781705 
C 235.281523 90.84407 234.908997 89.944712 234.245989 89.281705 
C 233.582982 88.618697 232.683624 88.246171 231.745989 88.246171 
C 230.808355 88.246171 229.908997 88.618697 229.245989 89.281705 
C 228.582982 89.944712 228.210455 90.84407 228.210455 91.781705 
C 228.210455 92.719339 228.582982 93.618697 229.245989 94.281705 
C 229.908997 94.944712 230.808355 95.317239 231.745989 95.317239 
z
" style="fill:none;stroke:#2ca02c;"/>
   </g>
   <g id="PathCollection_36">
    <path clip-path="url(#p4dd7a5390d)" d="M 236.719251 91.722517 
C 237.656886 91.722517 238.556244 91.34999 239.219251 90.686983 
C 239.882259 90.023975 240.254785 89.124617 240.254785 88.186983 
C 240.254785 87.249348 239.882259 86.34999 239.219251 85.686983 
C 238.556244 85.023975 237.656886 84.651449 236.719251 84.651449 
C 235.781617 84.651449 234.882259 85.023975 234.219251 85.686983 
C 233.556244 86.34999 233.183717 87.249348 233.183717 88.186983 
C 233.183717 89.124617 233.556244 90.023975 234.219251 90.686983 
C 234.882259 91.34999 235.781617 91.722517 236.719251 91.722517 
z
" style="fill:none;stroke:#2ca02c;"/>
   </g>
   <g id="PathCollection_37">
    <path clip-path="url(#p4dd7a5390d)" d="M 241.692513 88.403274 
C 242.630148 88.403274 243.529506 88.030748 244.192513 87.36774 
C 244.855521 86.704733 245.228047 85.805375 245.228047 84.86774 
C 245.228047 83.930106 244.855521 83.030748 244.192513 82.36774 
C 243.529506 81.704733 242.630148 81.332206 241.692513 81.332206 
C 240.754879 81.332206 239.855521 81.704733 239.192513 82.36774 
C 238.529506 83.030748 238.156979 83.930106 238.156979 84.86774 
C 238.156979 85.805375 238.529506 86.704733 239.192513 87.36774 
C 239.855521 88.030748 240.754879 88.403274 241.692513 88.403274 
z
" style="fill:none;stroke:#2ca02c;"/>
   </g>
   <g id="PathCollection_38">
    <path clip-path="url(#p4dd7a5390d)" d="M 246.665775 85.419595 
C 247.60341 85.419595 248.502768 85.047069 249.165775 84.384061 
C 249.828783 83.721053 250.201309 82.821696 250.201309 81.884061 
C 250.201309 80.946427 249.828783 80.047069 249.165775 79.384061 
C 248.502768 78.721053 247.60341 78.348527 246.665775 78.348527 
C 245.728141 78.348527 244.828783 78.721053 244.165775 79.384061 
C 243.502768 80.047069 243.130241 80.946427 243.130241 81.884061 
C 243.130241 82.821696 243.502768 83.721053 244.165775 84.384061 
C 244.828783 85.047069 245.728141 85.419595 246.665775 85.419595 
z
" style="fill:none;stroke:#2ca02c;"/>
   </g>
   <g id="PathCollection_39">
    <path clip-path="url(#p4dd7a5390d)" d="M 251.639037 82.828798 
C 252.576672 82.828798 253.47603 82.456271 254.139037 81.793264 
C 254.802045 81.130256 255.174571 80.230898 255.174571 79.293264 
C 255.174571 78.355629 254.802045 77.456271 254.139037 76.793264 
C 253.47603 76.130256 252.576672 75.75773 251.639037 75.75773 
C 250.701403 75.75773 249.802045 76.130256 249.139037 76.793264 
C 248.47603 77.456271 248.103504 78.355629 248.103504 79.293264 
C 248.103504 80.230898 248.47603 81.130256 249.139037 81.793264 
C 249.802045 82.456271 250.701403 82.828798 251.639037 82.828798 
z
" style="fill:none;stroke:#2ca02c;"/>
   </g>
   <g id="PathCollection_40">
    <path clip-path="url(#p4dd7a5390d)" d="M 256.612299 80.682342 
C 257.549934 80.682342 258.449292 80.309816 259.112299 79.646808 
C 259.775307 78.983801 260.147833 78.084443 260.147833 77.146808 
C 260.147833 76.209174 259.775307 75.309816 259.112299 74.646808 
C 258.449292 73.983801 257.549934 73.611274 256.612299 73.611274 
C 255.674665 73.611274 254.775307 73.983801 254.112299 74.646808 
C 253.449292 75.309816 253.076766 76.209174 253.076766 77.146808 
C 253.076766 78.084443 253.449292 78.983801 254.112299 79.646808 
C 254.775307 80.309816 255.674665 80.682342 256.612299 80.682342 
z
" style="fill:none;stroke:#2ca02c;"/>
   </g>
   <g id="PathCollection_41">
    <path clip-path="url(#p4dd7a5390d)" d="M 261.585561 79.022196 
C 262.523196 79.022196 263.422554 78.64967 264.085561 77.986662 
C 264.748569 77.323654 265.121095 76.424296 265.121095 75.486662 
C 265.121095 74.549027 264.748569 73.64967 264.085561 72.986662 
C 263.422554 72.323654 262.523196 71.951128 261.585561 71.951128 
C 260.647927 71.951128 259.748569 72.323654 259.085561 72.986662 
C 258.422554 73.64967 258.050028 74.549027 258.050028 75.486662 
C 258.050028 76.424296 258.422554 77.323654 259.085561 77.986662 
C 259.748569 78.64967 260.647927 79.022196 261.585561 79.022196 
z
" style="fill:none;stroke:#2ca02c;"/>
   </g>
   <g id="PathCollection_42">
    <path clip-path="url(#p4dd7a5390d)" d="M 266.558824 77.876621 
C 267.496458 77.876621 268.395816 77.504095 269.058824 76.841088 
C 269.721831 76.17808 270.094357 75.278722 270.094357 74.341088 
C 270.094357 73.403453 269.721831 72.504095 269.058824 71.841088 
C 268.395816 71.17808 267.496458 70.805554 266.558824 70.805554 
C 265.621189 70.805554 264.721831 71.17808 264.058824 71.841088 
C 263.395816 72.504095 263.02329 73.403453 263.02329 74.341088 
C 263.02329 75.278722 263.395816 76.17808 264.058824 76.841088 
C 264.721831 77.504095 265.621189 77.876621 266.558824 77.876621 
z
" style="fill:none;stroke:#2ca02c;"/>
   </g>
   <g id="PathCollection_43">
    <path clip-path="url(#p4dd7a5390d)" d="M 271.532086 77.255362 
C 272.46972 77.255362 273.369078 76.882836 274.032086 76.219828 
C 274.695093 75.55682 275.067619 74.657462 275.067619 73.719828 
C 275.067619 72.782193 274.695093 71.882836 274.032086 71.219828 
C 273.369078 70.55682 272.46972 70.184294 271.532086 70.184294 
C 270.594451 70.184294 269.695093 70.55682 269.032086 71.219828 
C 268.369078 71.882836 267.996552 72.782193 267.996552 73.719828 
C 267.996552 74.657462 268.369078 75.55682 269.032086 76.219828 
C 269.695093 76.882836 270.594451 77.255362 271.532086 77.255362 
z
" style="fill:none;stroke:#2ca02c;"/>
   </g>
   <g id="PathCollection_44">
    <path clip-path="url(#p4dd7a5390d)" d="M 276.505348 77.144176 
C 277.442982 77.144176 278.34234 76.77165 279.005348 76.108642 
C 279.668355 75.445635 280.040881 74.546277 280.040881 73.608642 
C 280.040881 72.671008 279.668355 71.77165 279.005348 71.108642 
C 278.34234 70.445635 277.442982 70.073108 276.505348 70.073108 
C 275.567713 70.073108 274.668355 70.445635 274.005348 71.108642 
C 273.34234 71.77165 272.969814 72.671008 272.969814 73.608642 
C 272.969814 74.546277 273.34234 75.445635 274.005348 76.108642 
C 274.668355 76.77165 275.567713 77.144176 276.505348 77.144176 
z
" style="fill:none;stroke:#2ca02c;"/>
   </g>
   <g id="PathCollection_45">
    <path clip-path="url(#p4dd7a5390d)" d="M 281.47861 77.498708 
C 282.416244 77.498708 283.315602 77.126182 283.97861 76.463174 
C 284.641617 75.800166 285.014144 74.900808 285.014144 73.963174 
C 285.014144 73.025539 284.641617 72.126182 283.97861 71.463174 
C 283.315602 70.800166 282.416244 70.42764 281.47861 70.42764 
C 280.540975 70.42764 279.641617 70.800166 278.97861 71.463174 
C 278.315602 72.126182 277.943076 73.025539 277.943076 73.963174 
C 277.943076 74.900808 278.315602 75.800166 278.97861 76.463174 
C 279.641617 77.126182 280.540975 77.498708 281.47861 77.498708 
z
" style="fill:none;stroke:#2ca02c;"/>
   </g>
   <g id="PathCollection_46">
    <path clip-path="url(#p4dd7a5390d)" d="M 286.451872 78.237636 
C 287.389506 78.237636 288.288864 77.86511 288.951872 77.202102 
C 289.614879 76.539094 289.987406 75.639736 289.987406 74.702102 
C 289.987406 73.764467 289.614879 72.86511 288.951872 72.202102 
C 288.288864 71.539094 287.389506 71.166568 286.451872 71.166568 
C 285.514237 71.166568 284.614879 71.539094 283.951872 72.202102 
C 283.288864 72.86511 282.916338 73.764467 282.916338 74.702102 
C 282.916338 75.639736 283.288864 76.539094 283.951872 77.202102 
C 284.614879 77.86511 285.514237 78.237636 286.451872 78.237636 
z
" style="fill:none;stroke:#2ca02c;"/>
   </g>
   <g id="PathCollection_47">
    <path clip-path="url(#p4dd7a5390d)" d="M 291.425134 79.235087 
C 292.362768 79.235087 293.262126 78.862561 293.925134 78.199553 
C 294.588141 77.536545 294.960668 76.637188 294.960668 75.699553 
C 294.960668 74.761918 294.588141 73.862561 293.925134 73.199553 
C 293.262126 72.536545 292.362768 72.164019 291.425134 72.164019 
C 290.487499 72.164019 289.588141 72.536545 288.925134 73.199553 
C 288.262126 73.862561 287.8896 74.761918 287.8896 75.699553 
C 287.8896 76.637188 288.262126 77.536545 288.925134 78.199553 
C 289.588141 78.862561 290.487499 79.235087 291.425134 79.235087 
z
" style="fill:none;stroke:#2ca02c;"/>
   </g>
   <g id="PathCollection_48">
    <path clip-path="url(#p4dd7a5390d)" d="M 296.398396 80.312271 
C 297.33603 80.312271 298.235388 79.939745 298.898396 79.276737 
C 299.561403 78.61373 299.93393 77.714372 299.93393 76.776737 
C 299.93393 75.839103 299.561403 74.939745 298.898396 74.276737 
C 298.235388 73.61373 297.33603 73.241204 296.398396 73.241204 
C 295.460761 73.241204 294.561403 73.61373 293.898396 74.276737 
C 293.235388 74.939745 292.862862 75.839103 292.862862 76.776737 
C 292.862862 77.714372 293.235388 78.61373 293.898396 79.276737 
C 294.561403 79.939745 295.460761 80.312271 296.398396 80.312271 
z
" style="fill:none;stroke:#2ca02c;"/>
   </g>
   <g id="PathCollection_49">
    <path clip-path="url(#p4dd7a5390d)" d="M 301.371658 81.228305 
C 302.309292 81.228305 303.20865 80.855779 303.871658 80.192771 
C 304.534666 79.529763 304.907192 78.630406 304.907192 77.692771 
C 304.907192 76.755136 304.534666 75.855779 303.871658 75.192771 
C 303.20865 74.529763 302.309292 74.157237 301.371658 74.157237 
C 300.434023 74.157237 299.534666 74.529763 298.871658 75.192771 
C 298.20865 75.855779 297.836124 76.755136 297.836124 77.692771 
C 297.836124 78.630406 298.20865 79.529763 298.871658 80.192771 
C 299.534666 80.855779 300.434023 81.228305 301.371658 81.228305 
z
" style="fill:none;stroke:#2ca02c;"/>
   </g>
   <g id="PathCollection_50">
    <path clip-path="url(#p4dd7a5390d)" d="M 306.34492 81.670191 
C 307.282554 81.670191 308.181912 81.297665 308.84492 80.634657 
C 309.507928 79.97165 309.880454 79.072292 309.880454 78.134657 
C 309.880454 77.197023 309.507928 76.297665 308.84492 75.634657 
C 308.181912 74.97165 307.282554 74.599124 306.34492 74.599124 
C 305.407285 74.599124 304.507928 74.97165 303.84492 75.634657 
C 303.181912 76.297665 302.809386 77.197023 302.809386 78.134657 
C 302.809386 79.072292 303.181912 79.97165 303.84492 80.634657 
C 304.507928 81.297665 305.407285 81.670191 306.34492 81.670191 
z
" style="fill:none;stroke:#2ca02c;"/>
   </g>
   <g id="PathCollection_51">
    <path clip-path="url(#p4dd7a5390d)" d="M 311.318182 81.241922 
C 312.255816 81.241922 313.155174 80.869396 313.818182 80.206388 
C 314.48119 79.54338 314.853716 78.644022 314.853716 77.706388 
C 314.853716 76.768753 314.48119 75.869396 313.818182 75.206388 
C 313.155174 74.54338 312.255816 74.170854 311.318182 74.170854 
C 310.380547 74.170854 309.48119 74.54338 308.818182 75.206388 
C 308.155174 75.869396 307.782648 76.768753 307.782648 77.706388 
C 307.782648 78.644022 308.155174 79.54338 308.818182 80.206388 
C 309.48119 80.869396 310.380547 81.241922 311.318182 81.241922 
z
" style="fill:none;stroke:#2ca02c;"/>
   </g>
   <g id="PathCollection_52">
    <defs>
     <path d="M 0 3.535534 
C 0.937635 3.535534 1.836992 3.163008 2.5 2.5 
C 3.163008 1.836992 3.535534 0.937635 3.535534 0 
C 3.535534 -0.937635 3.163008 -1.836992 2.5 -2.5 
C 1.836992 -3.163008 0.937635 -3.535534 0 -3.535534 
C -0.937635 -3.535534 -1.836992 -3.163008 -2.5 -2.5 
C -3.163008 -1.836992 -3.535534 -0.937635 -3.535534 0 
C -3.535534 0.937635 -3.163008 1.836992 -2.5 2.5 
C -1.836992 3.163008 -0.937635 3.535534 0 3.535534 
z
" id="mcc177bc752" style="stroke:#2ca02c;"/>
    </defs>
    <g clip-path="url(#p4dd7a5390d)">
     <use style="fill:#2ca02c;stroke:#2ca02c;" x="62.65508" xlink:href="#mcc177bc752" y="180.607575"/>
    </g>
   </g>
   <g id="PathCollection_53">
    <g clip-path="url(#p4dd7a5390d)">
     <use style="fill:#2ca02c;stroke:#2ca02c;" x="67.628342" xlink:href="#mcc177bc752" y="179.618844"/>
    </g>
   </g>
   <g id="PathCollection_54">
    <g clip-path="url(#p4dd7a5390d)">
     <use style="fill:#2ca02c;stroke:#2ca02c;" x="72.601604" xlink:href="#mcc177bc752" y="178.908141"/>
    </g>
   </g>
   <g id="PathCollection_55">
    <g clip-path="url(#p4dd7a5390d)">
     <use style="fill:#2ca02c;stroke:#2ca02c;" x="77.574866" xlink:href="#mcc177bc752" y="178.268512"/>
    </g>
   </g>
   <g id="PathCollection_56">
    <g clip-path="url(#p4dd7a5390d)">
     <use style="fill:#2ca02c;stroke:#2ca02c;" x="82.548128" xlink:href="#mcc177bc752" y="177.546915"/>
    </g>
   </g>
   <g id="PathCollection_57">
    <g clip-path="url(#p4dd7a5390d)">
     <use style="fill:#2ca02c;stroke:#2ca02c;" x="87.52139" xlink:href="#mcc177bc752" y="176.634726"/>
    </g>
   </g>
   <g id="PathCollection_58">
    <g clip-path="url(#p4dd7a5390d)">
     <use style="fill:#2ca02c;stroke:#2ca02c;" x="92.494652" xlink:href="#mcc177bc752" y="175.459784"/>
    </g>
   </g>
   <g id="PathCollection_59">
    <g clip-path="url(#p4dd7a5390d)">
     <use style="fill:#2ca02c;stroke:#2ca02c;" x="97.467914" xlink:href="#mcc177bc752" y="173.97931"/>
    </g>
   </g>
   <g id="PathCollection_60">
    <g clip-path="url(#p4dd7a5390d)">
     <use style="fill:#2ca02c;stroke:#2ca02c;" x="102.441176" xlink:href="#mcc177bc752" y="172.173643"/>
    </g>
   </g>
   <g id="PathCollection_61">
    <g clip-path="url(#p4dd7a5390d)">
     <use style="fill:#2ca02c;stroke:#2ca02c;" x="107.414439" xlink:href="#mcc177bc752" y="170.04077"/>
    </g>
   </g>
   <g id="PathCollection_62">
    <g clip-path="url(#p4dd7a5390d)">
     <use style="fill:#2ca02c;stroke:#2ca02c;" x="112.387701" xlink:href="#mcc177bc752" y="167.591582"/>
    </g>
   </g>
   <g id="PathCollection_63">
    <g clip-path="url(#p4dd7a5390d)">
     <use style="fill:#2ca02c;stroke:#2ca02c;" x="117.360963" xlink:href="#mcc177bc752" y="164.845836"/>
    </g>
   </g>
   <g id="PathCollection_64">
    <g clip-path="url(#p4dd7a5390d)">
     <use style="fill:#2ca02c;stroke:#2ca02c;" x="122.334225" xlink:href="#mcc177bc752" y="161.828757"/>
    </g>
   </g>
   <g id="PathCollection_65">
    <g clip-path="url(#p4dd7a5390d)">
     <use style="fill:#2ca02c;stroke:#2ca02c;" x="127.307487" xlink:href="#mcc177bc752" y="158.568251"/>
    </g>
   </g>
   <g id="PathCollection_66">
    <g clip-path="url(#p4dd7a5390d)">
     <use style="fill:#2ca02c;stroke:#2ca02c;" x="132.280749" xlink:href="#mcc177bc752" y="155.092681"/>
    </g>
   </g>
   <g id="PathCollection_67">
    <g clip-path="url(#p4dd7a5390d)">
     <use style="fill:#2ca02c;stroke:#2ca02c;" x="137.254011" xlink:href="#mcc177bc752" y="151.429158"/>
    </g>
   </g>
   <g id="PathCollection_68">
    <g clip-path="url(#p4dd7a5390d)">
     <use style="fill:#2ca02c;stroke:#2ca02c;" x="142.227273" xlink:href="#mcc177bc752" y="147.602315"/>
    </g>
   </g>
   <g id="PathCollection_69">
    <g clip-path="url(#p4dd7a5390d)">
     <use style="fill:#2ca02c;stroke:#2ca02c;" x="147.200535" xlink:href="#mcc177bc752" y="143.633496"/>
    </g>
   </g>
   <g id="PathCollection_70">
    <g clip-path="url(#p4dd7a5390d)">
     <use style="fill:#2ca02c;stroke:#2ca02c;" x="152.173797" xlink:href="#mcc177bc752" y="139.540353"/>
    </g>
   </g>
   <g id="PathCollection_71">
    <g clip-path="url(#p4dd7a5390d)">
     <use style="fill:#2ca02c;stroke:#2ca02c;" x="157.147059" xlink:href="#mcc177bc752" y="135.336764"/>
    </g>
   </g>
   <g id="PathCollection_72">
    <g clip-path="url(#p4dd7a5390d)">
     <use style="fill:#2ca02c;stroke:#2ca02c;" x="162.120321" xlink:href="#mcc177bc752" y="131.033068"/>
    </g>
   </g>
   <g id="PathCollection_73">
    <g clip-path="url(#p4dd7a5390d)">
     <use style="fill:#2ca02c;stroke:#2ca02c;" x="167.093583" xlink:href="#mcc177bc752" y="126.636547"/>
    </g>
   </g>
   <g id="PathCollection_74">
    <g clip-path="url(#p4dd7a5390d)">
     <use style="fill:#2ca02c;stroke:#2ca02c;" x="172.066845" xlink:href="#mcc177bc752" y="122.152116"/>
    </g>
   </g>
   <g id="PathCollection_75">
    <g clip-path="url(#p4dd7a5390d)">
     <use style="fill:#2ca02c;stroke:#2ca02c;" x="177.040107" xlink:href="#mcc177bc752" y="117.583191"/>
    </g>
   </g>
   <g id="PathCollection_76">
    <g clip-path="url(#p4dd7a5390d)">
     <use style="fill:#2ca02c;stroke:#2ca02c;" x="182.013369" xlink:href="#mcc177bc752" y="112.93267"/>
    </g>
   </g>
   <g id="PathCollection_77">
    <g clip-path="url(#p4dd7a5390d)">
     <use style="fill:#2ca02c;stroke:#2ca02c;" x="186.986631" xlink:href="#mcc177bc752" y="108.203998"/>
    </g>
   </g>
   <g id="PathCollection_78">
    <g clip-path="url(#p4dd7a5390d)">
     <use style="fill:#2ca02c;stroke:#2ca02c;" x="191.959893" xlink:href="#mcc177bc752" y="103.40227"/>
    </g>
   </g>
   <g id="PathCollection_79">
    <g clip-path="url(#p4dd7a5390d)">
     <use style="fill:#2ca02c;stroke:#2ca02c;" x="196.933155" xlink:href="#mcc177bc752" y="98.535322"/>
    </g>
   </g>
   <g id="PathCollection_80">
    <g clip-path="url(#p4dd7a5390d)">
     <use style="fill:#2ca02c;stroke:#2ca02c;" x="201.906417" xlink:href="#mcc177bc752" y="93.614772"/>
    </g>
   </g>
   <g id="PathCollection_81">
    <g clip-path="url(#p4dd7a5390d)">
     <use style="fill:#2ca02c;stroke:#2ca02c;" x="206.879679" xlink:href="#mcc177bc752" y="88.656965"/>
    </g>
   </g>
   <g id="PathCollection_82">
    <g clip-path="url(#p4dd7a5390d)">
     <use style="fill:#2ca02c;stroke:#2ca02c;" x="211.852941" xlink:href="#mcc177bc752" y="83.683776"/>
    </g>
   </g>
   <g id="PathCollection_83">
    <g clip-path="url(#p4dd7a5390d)">
     <use style="fill:#2ca02c;stroke:#2ca02c;" x="216.826203" xlink:href="#mcc177bc752" y="78.723235"/>
    </g>
   </g>
   <g id="PathCollection_84">
    <g clip-path="url(#p4dd7a5390d)">
     <use style="fill:#2ca02c;stroke:#2ca02c;" x="221.799465" xlink:href="#mcc177bc752" y="73.809916"/>
    </g>
   </g>
   <g id="PathCollection_85">
    <g clip-path="url(#p4dd7a5390d)">
     <use style="fill:#2ca02c;stroke:#2ca02c;" x="226.772727" xlink:href="#mcc177bc752" y="68.985064"/>
    </g>
   </g>
   <g id="PathCollection_86">
    <g clip-path="url(#p4dd7a5390d)">
     <use style="fill:#2ca02c;stroke:#2ca02c;" x="231.745989" xlink:href="#mcc177bc752" y="64.296398"/>
    </g>
   </g>
   <g id="PathCollection_87">
    <g clip-path="url(#p4dd7a5390d)">
     <use style="fill:#2ca02c;stroke:#2ca02c;" x="236.719251" xlink:href="#mcc177bc752" y="59.79756"/>
    </g>
   </g>
   <g id="PathCollection_88">
    <g clip-path="url(#p4dd7a5390d)">
     <use style="fill:#2ca02c;stroke:#2ca02c;" x="241.692513" xlink:href="#mcc177bc752" y="55.54716"/>
    </g>
   </g>
   <g id="PathCollection_89">
    <g clip-path="url(#p4dd7a5390d)">
     <use style="fill:#2ca02c;stroke:#2ca02c;" x="246.665775" xlink:href="#mcc177bc752" y="51.607372"/>
    </g>
   </g>
   <g id="PathCollection_90">
    <g clip-path="url(#p4dd7a5390d)">
     <use style="fill:#2ca02c;stroke:#2ca02c;" x="251.639037" xlink:href="#mcc177bc752" y="48.042042"/>
    </g>
   </g>
   <g id="PathCollection_91">
    <g clip-path="url(#p4dd7a5390d)">
     <use style="fill:#2ca02c;stroke:#2ca02c;" x="256.612299" xlink:href="#mcc177bc752" y="44.914261"/>
    </g>
   </g>
   <g id="PathCollection_92">
    <g clip-path="url(#p4dd7a5390d)">
     <use style="fill:#2ca02c;stroke:#2ca02c;" x="261.585561" xlink:href="#mcc177bc752" y="42.283354"/>
    </g>
   </g>
   <g id="PathCollection_93">
    <g clip-path="url(#p4dd7a5390d)">
     <use style="fill:#2ca02c;stroke:#2ca02c;" x="266.558824" xlink:href="#mcc177bc752" y="40.201253"/>
    </g>
   </g>
   <g id="PathCollection_94">
    <g clip-path="url(#p4dd7a5390d)">
     <use style="fill:#2ca02c;stroke:#2ca02c;" x="271.532086" xlink:href="#mcc177bc752" y="38.708204"/>
    </g>
   </g>
   <g id="PathCollection_95">
    <g clip-path="url(#p4dd7a5390d)">
     <use style="fill:#2ca02c;stroke:#2ca02c;" x="276.505348" xlink:href="#mcc177bc752" y="37.827754"/>
    </g>
   </g>
   <g id="PathCollection_96">
    <g clip-path="url(#p4dd7a5390d)">
     <use style="fill:#2ca02c;stroke:#2ca02c;" x="281.47861" xlink:href="#mcc177bc752" y="37.560997"/>
    </g>
   </g>
   <g id="PathCollection_97">
    <g clip-path="url(#p4dd7a5390d)">
     <use style="fill:#2ca02c;stroke:#2ca02c;" x="286.451872" xlink:href="#mcc177bc752" y="37.880011"/>
    </g>
   </g>
   <g id="PathCollection_98">
    <g clip-path="url(#p4dd7a5390d)">
     <use style="fill:#2ca02c;stroke:#2ca02c;" x="291.425134" xlink:href="#mcc177bc752" y="38.720461"/>
    </g>
   </g>
   <g id="PathCollection_99">
    <g clip-path="url(#p4dd7a5390d)">
     <use style="fill:#2ca02c;stroke:#2ca02c;" x="296.398396" xlink:href="#mcc177bc752" y="39.973307"/>
    </g>
   </g>
   <g id="PathCollection_100">
    <g clip-path="url(#p4dd7a5390d)">
     <use style="fill:#2ca02c;stroke:#2ca02c;" x="301.371658" xlink:href="#mcc177bc752" y="41.475595"/>
    </g>
   </g>
   <g id="PathCollection_101">
    <g clip-path="url(#p4dd7a5390d)">
     <use style="fill:#2ca02c;stroke:#2ca02c;" x="306.34492" xlink:href="#mcc177bc752" y="43.000262"/>
    </g>
   </g>
   <g id="PathCollection_102">
    <g clip-path="url(#p4dd7a5390d)">
     <use style="fill:#2ca02c;stroke:#2ca02c;" x="311.318182" xlink:href="#mcc177bc752" y="44.244928"/>
    </g>
   </g>
   <g id="matplotlib.axis_1"/>
   <g id="matplotlib.axis_2">
    <g id="ytick_1">
     <g id="line2d_1">
      <defs>
       <path d="M 0 0 
L -3.5 0 
" id="maa9fb73878" style="stroke:#000000;stroke-width:0.8;"/>
      </defs>
      <g>
       <use style="stroke:#000000;stroke-width:0.8;" x="45" xlink:href="#maa9fb73878" y="181.587273"/>
      </g>
     </g>
     <g id="text_1">
      <!-- 0.00 -->
      <g transform="translate(15.734375 185.386491)scale(0.1 -0.1)">
       <defs>
        <path d="M 31.78125 66.40625 
Q 24.171875 66.40625 20.328125 58.90625 
Q 16.5 51.421875 16.5 36.375 
Q 16.5 21.390625 20.328125 13.890625 
Q 24.171875 6.390625 31.78125 6.390625 
Q 39.453125 6.390625 43.28125 13.890625 
Q 47.125 21.390625 47.125 36.375 
Q 47.125 51.421875 43.28125 58.90625 
Q 39.453125 66.40625 31.78125 66.40625 
z
M 31.78125 74.21875 
Q 44.046875 74.21875 50.515625 64.515625 
Q 56.984375 54.828125 56.984375 36.375 
Q 56.984375 17.96875 50.515625 8.265625 
Q 44.046875 -1.421875 31.78125 -1.421875 
Q 19.53125 -1.421875 13.0625 8.265625 
Q 6.59375 17.96875 6.59375 36.375 
Q 6.59375 54.828125 13.0625 64.515625 
Q 19.53125 74.21875 31.78125 74.21875 
z
" id="DejaVuSans-48"/>
        <path d="M 10.6875 12.40625 
L 21 12.40625 
L 21 0 
L 10.6875 0 
z
" id="DejaVuSans-46"/>
       </defs>
       <use xlink:href="#DejaVuSans-48"/>
       <use x="63.623047" xlink:href="#DejaVuSans-46"/>
       <use x="95.410156" xlink:href="#DejaVuSans-48"/>
       <use x="159.033203" xlink:href="#DejaVuSans-48"/>
      </g>
     </g>
    </g>
    <g id="ytick_2">
     <g id="line2d_2">
      <g>
       <use style="stroke:#000000;stroke-width:0.8;" x="45" xlink:href="#maa9fb73878" y="158.261141"/>
      </g>
     </g>
     <g id="text_2">
      <!-- 0.05 -->
      <g transform="translate(15.734375 162.06036)scale(0.1 -0.1)">
       <defs>
        <path d="M 10.796875 72.90625 
L 49.515625 72.90625 
L 49.515625 64.59375 
L 19.828125 64.59375 
L 19.828125 46.734375 
Q 21.96875 47.46875 24.109375 47.828125 
Q 26.265625 48.1875 28.421875 48.1875 
Q 40.625 48.1875 47.75 41.5 
Q 54.890625 34.8125 54.890625 23.390625 
Q 54.890625 11.625 47.5625 5.09375 
Q 40.234375 -1.421875 26.90625 -1.421875 
Q 22.3125 -1.421875 17.546875 -0.640625 
Q 12.796875 0.140625 7.71875 1.703125 
L 7.71875 11.625 
Q 12.109375 9.234375 16.796875 8.0625 
Q 21.484375 6.890625 26.703125 6.890625 
Q 35.15625 6.890625 40.078125 11.328125 
Q 45.015625 15.765625 45.015625 23.390625 
Q 45.015625 31 40.078125 35.4375 
Q 35.15625 39.890625 26.703125 39.890625 
Q 22.75 39.890625 18.8125 39.015625 
Q 14.890625 38.140625 10.796875 36.28125 
z
" id="DejaVuSans-53"/>
       </defs>
       <use xlink:href="#DejaVuSans-48"/>
       <use x="63.623047" xlink:href="#DejaVuSans-46"/>
       <use x="95.410156" xlink:href="#DejaVuSans-48"/>
       <use x="159.033203" xlink:href="#DejaVuSans-53"/>
      </g>
     </g>
    </g>
    <g id="ytick_3">
     <g id="line2d_3">
      <g>
       <use style="stroke:#000000;stroke-width:0.8;" x="45" xlink:href="#maa9fb73878" y="134.935009"/>
      </g>
     </g>
     <g id="text_3">
      <!-- 0.10 -->
      <g transform="translate(15.734375 138.734228)scale(0.1 -0.1)">
       <defs>
        <path d="M 12.40625 8.296875 
L 28.515625 8.296875 
L 28.515625 63.921875 
L 10.984375 60.40625 
L 10.984375 69.390625 
L 28.421875 72.90625 
L 38.28125 72.90625 
L 38.28125 8.296875 
L 54.390625 8.296875 
L 54.390625 0 
L 12.40625 0 
z
" id="DejaVuSans-49"/>
       </defs>
       <use xlink:href="#DejaVuSans-48"/>
       <use x="63.623047" xlink:href="#DejaVuSans-46"/>
       <use x="95.410156" xlink:href="#DejaVuSans-49"/>
       <use x="159.033203" xlink:href="#DejaVuSans-48"/>
      </g>
     </g>
    </g>
    <g id="ytick_4">
     <g id="line2d_4">
      <g>
       <use style="stroke:#000000;stroke-width:0.8;" x="45" xlink:href="#maa9fb73878" y="111.608877"/>
      </g>
     </g>
     <g id="text_4">
      <!-- 0.15 -->
      <g transform="translate(15.734375 115.408096)scale(0.1 -0.1)">
       <use xlink:href="#DejaVuSans-48"/>
       <use x="63.623047" xlink:href="#DejaVuSans-46"/>
       <use x="95.410156" xlink:href="#DejaVuSans-49"/>
       <use x="159.033203" xlink:href="#DejaVuSans-53"/>
      </g>
     </g>
    </g>
    <g id="ytick_5">
     <g id="line2d_5">
      <g>
       <use style="stroke:#000000;stroke-width:0.8;" x="45" xlink:href="#maa9fb73878" y="88.282745"/>
      </g>
     </g>
     <g id="text_5">
      <!-- 0.20 -->
      <g transform="translate(15.734375 92.081964)scale(0.1 -0.1)">
       <defs>
        <path d="M 19.1875 8.296875 
L 53.609375 8.296875 
L 53.609375 0 
L 7.328125 0 
L 7.328125 8.296875 
Q 12.9375 14.109375 22.625 23.890625 
Q 32.328125 33.6875 34.8125 36.53125 
Q 39.546875 41.84375 41.421875 45.53125 
Q 43.3125 49.21875 43.3125 52.78125 
Q 43.3125 58.59375 39.234375 62.25 
Q 35.15625 65.921875 28.609375 65.921875 
Q 23.96875 65.921875 18.8125 64.3125 
Q 13.671875 62.703125 7.8125 59.421875 
L 7.8125 69.390625 
Q 13.765625 71.78125 18.9375 73 
Q 24.125 74.21875 28.421875 74.21875 
Q 39.75 74.21875 46.484375 68.546875 
Q 53.21875 62.890625 53.21875 53.421875 
Q 53.21875 48.921875 51.53125 44.890625 
Q 49.859375 40.875 45.40625 35.40625 
Q 44.1875 33.984375 37.640625 27.21875 
Q 31.109375 20.453125 19.1875 8.296875 
z
" id="DejaVuSans-50"/>
       </defs>
       <use xlink:href="#DejaVuSans-48"/>
       <use x="63.623047" xlink:href="#DejaVuSans-46"/>
       <use x="95.410156" xlink:href="#DejaVuSans-50"/>
       <use x="159.033203" xlink:href="#DejaVuSans-48"/>
      </g>
     </g>
    </g>
    <g id="ytick_6">
     <g id="line2d_6">
      <g>
       <use style="stroke:#000000;stroke-width:0.8;" x="45" xlink:href="#maa9fb73878" y="64.956613"/>
      </g>
     </g>
     <g id="text_6">
      <!-- 0.25 -->
      <g transform="translate(15.734375 68.755832)scale(0.1 -0.1)">
       <use xlink:href="#DejaVuSans-48"/>
       <use x="63.623047" xlink:href="#DejaVuSans-46"/>
       <use x="95.410156" xlink:href="#DejaVuSans-50"/>
       <use x="159.033203" xlink:href="#DejaVuSans-53"/>
      </g>
     </g>
    </g>
    <g id="ytick_7">
     <g id="line2d_7">
      <g>
       <use style="stroke:#000000;stroke-width:0.8;" x="45" xlink:href="#maa9fb73878" y="41.630481"/>
      </g>
     </g>
     <g id="text_7">
      <!-- 0.30 -->
      <g transform="translate(15.734375 45.4297)scale(0.1 -0.1)">
       <defs>
        <path d="M 40.578125 39.3125 
Q 47.65625 37.796875 51.625 33 
Q 55.609375 28.21875 55.609375 21.1875 
Q 55.609375 10.40625 48.1875 4.484375 
Q 40.765625 -1.421875 27.09375 -1.421875 
Q 22.515625 -1.421875 17.65625 -0.515625 
Q 12.796875 0.390625 7.625 2.203125 
L 7.625 11.71875 
Q 11.71875 9.328125 16.59375 8.109375 
Q 21.484375 6.890625 26.8125 6.890625 
Q 36.078125 6.890625 40.9375 10.546875 
Q 45.796875 14.203125 45.796875 21.1875 
Q 45.796875 27.640625 41.28125 31.265625 
Q 36.765625 34.90625 28.71875 34.90625 
L 20.21875 34.90625 
L 20.21875 43.015625 
L 29.109375 43.015625 
Q 36.375 43.015625 40.234375 45.921875 
Q 44.09375 48.828125 44.09375 54.296875 
Q 44.09375 59.90625 40.109375 62.90625 
Q 36.140625 65.921875 28.71875 65.921875 
Q 24.65625 65.921875 20.015625 65.03125 
Q 15.375 64.15625 9.8125 62.3125 
L 9.8125 71.09375 
Q 15.4375 72.65625 20.34375 73.4375 
Q 25.25 74.21875 29.59375 74.21875 
Q 40.828125 74.21875 47.359375 69.109375 
Q 53.90625 64.015625 53.90625 55.328125 
Q 53.90625 49.265625 50.4375 45.09375 
Q 46.96875 40.921875 40.578125 39.3125 
z
" id="DejaVuSans-51"/>
       </defs>
       <use xlink:href="#DejaVuSans-48"/>
       <use x="63.623047" xlink:href="#DejaVuSans-46"/>
       <use x="95.410156" xlink:href="#DejaVuSans-51"/>
       <use x="159.033203" xlink:href="#DejaVuSans-48"/>
      </g>
     </g>
    </g>
   </g>
   <g id="line2d_8">
    <path clip-path="url(#p4dd7a5390d)" d="M 57.681818 181.587273 
L 87.687166 181.476717 
L 90.816176 181.163945 
L 93.945187 180.62607 
L 97.198529 179.83998 
L 100.617647 178.783624 
L 104.243984 177.427583 
L 108.098262 175.74523 
L 112.221925 173.6983 
L 116.656417 171.244141 
L 121.463904 168.32444 
L 126.727273 164.862336 
L 132.570856 160.746238 
L 139.18115 155.810996 
L 146.910428 149.753626 
L 156.546123 141.905593 
L 171.486631 129.411801 
L 193.099599 111.378427 
L 205.221925 101.567247 
L 214.836898 94.052632 
L 222.089572 88.659971 
L 228.492647 84.17113 
L 234.43984 80.269747 
L 240.096925 76.821789 
L 245.546791 73.757537 
L 250.872326 71.016322 
L 256.094251 68.576475 
L 261.254011 66.409027 
L 266.393048 64.490539 
L 271.511364 62.81606 
L 276.650401 61.368401 
L 281.81016 60.145387 
L 287.032086 59.136496 
L 292.316176 58.342487 
L 297.683155 57.761053 
L 303.153743 57.392039 
L 308.769385 57.237086 
L 311.318182 57.238433 
L 311.318182 57.238433 
" style="fill:none;stroke:#2ca02c;stroke-dasharray:11.1,4.8;stroke-dashoffset:0;stroke-width:3;"/>
   </g>
   <g id="line2d_9">
    <path clip-path="url(#p4dd7a5390d)" d="M 57.681818 181.587273 
L 87.397059 181.476634 
L 90.277406 181.166157 
L 93.137032 180.632325 
L 96.100267 179.850453 
L 99.208556 178.796873 
L 102.48262 177.448549 
L 105.943182 175.779657 
L 109.631684 173.750081 
L 113.56885 171.326436 
L 117.816845 168.44601 
L 122.417112 165.053671 
L 127.45254 161.059525 
L 133.04746 156.331489 
L 139.367647 150.691621 
L 146.72393 143.819199 
L 155.800134 135.02091 
L 169.165775 121.720233 
L 192.913102 98.080475 
L 204.51738 86.872266 
L 213.966578 78.038313 
L 221.012032 71.748058 
L 227.187166 66.527326 
L 232.885695 61.995938 
L 238.294118 57.97626 
L 243.474599 54.399554 
L 248.510027 51.190277 
L 253.441845 48.30893 
L 258.290775 45.732045 
L 263.07754 43.438178 
L 267.843583 41.400092 
L 272.588904 39.612139 
L 277.334225 38.061184 
L 282.100267 36.737114 
L 286.907754 35.632809 
L 291.756684 34.747361 
L 296.667781 34.076499 
L 301.661765 33.618693 
L 306.759358 33.374959 
L 311.318182 33.339842 
L 311.318182 33.339842 
" style="fill:none;stroke:#2ca02c;stroke-linecap:square;stroke-width:3;"/>
   </g>
   <g id="patch_3">
    <path d="M 45 189 
L 45 25.92 
" style="fill:none;stroke:#000000;stroke-linecap:square;stroke-linejoin:miter;stroke-width:0.8;"/>
   </g>
   <g id="patch_4">
    <path d="M 324 189 
L 324 25.92 
" style="fill:none;stroke:#000000;stroke-linecap:square;stroke-linejoin:miter;stroke-width:0.8;"/>
   </g>
   <g id="patch_5">
    <path d="M 45 189 
L 324 189 
" style="fill:none;stroke:#000000;stroke-linecap:square;stroke-linejoin:miter;stroke-width:0.8;"/>
   </g>
   <g id="patch_6">
    <path d="M 45 25.92 
L 324 25.92 
" style="fill:none;stroke:#000000;stroke-linecap:square;stroke-linejoin:miter;stroke-width:0.8;"/>
   </g>
  </g>
 </g>
 <defs>
  <clipPath id="p4dd7a5390d">
   <rect height="163.08" width="279" x="45" y="25.92"/>
  </clipPath>
 </defs>
</svg>
