<?xml version="1.0" encoding="utf-8" standalone="no"?>
<!DOCTYPE svg PUBLIC "-//W3C//DTD SVG 1.1//EN"
  "http://www.w3.org/Graphics/SVG/1.1/DTD/svg11.dtd">
<!-- Created with matplotlib (https://matplotlib.org/) -->
<svg height="216pt" version="1.1" viewBox="0 0 360 216" width="360pt" xmlns="http://www.w3.org/2000/svg" xmlns:xlink="http://www.w3.org/1999/xlink">
 <metadata>
  <rdf:RDF xmlns:cc="http://creativecommons.org/ns#" xmlns:dc="http://purl.org/dc/elements/1.1/" xmlns:rdf="http://www.w3.org/1999/02/22-rdf-syntax-ns#">
   <cc:Work>
    <dc:type rdf:resource="http://purl.org/dc/dcmitype/StillImage"/>
    <dc:date>2024-12-13T09:06:29.643433</dc:date>
    <dc:format>image/svg+xml</dc:format>
    <dc:creator>
     <cc:Agent>
      <dc:title>Matplotlib v3.3.2, https://matplotlib.org/</dc:title>
     </cc:Agent>
    </dc:creator>
   </cc:Work>
  </rdf:RDF>
 </metadata>
 <defs>
  <style type="text/css">*{stroke-linecap:butt;stroke-linejoin:round;}</style>
 </defs>
 <g id="figure_1">
  <g id="patch_1">
   <path d="M 0 216 
L 360 216 
L 360 0 
L 0 0 
z
" style="fill:none;"/>
  </g>
  <g id="axes_1">
   <g id="patch_2">
    <path d="M 45 189 
L 324 189 
L 324 25.92 
L 45 25.92 
z
" style="fill:#ffffff;"/>
   </g>
   <g id="PathCollection_1">
    <path clip-path="url(#pbaed1a46f6)" d="M 62.65508 184.794812 
C 63.592715 184.794812 64.492072 184.422286 65.15508 183.759278 
C 65.818088 183.096271 66.190614 182.196913 66.190614 181.259278 
C 66.190614 180.321644 65.818088 179.422286 65.15508 178.759278 
C 64.492072 178.096271 63.592715 177.723745 62.65508 177.723745 
C 61.717446 177.723745 60.818088 178.096271 60.15508 178.759278 
C 59.492072 179.422286 59.119546 180.321644 59.119546 181.259278 
C 59.119546 182.196913 59.492072 183.096271 60.15508 183.759278 
C 60.818088 184.422286 61.717446 184.794812 62.65508 184.794812 
z
" style="fill:none;stroke:#9467bd;"/>
   </g>
   <g id="PathCollection_2">
    <path clip-path="url(#pbaed1a46f6)" d="M 67.628342 184.927579 
C 68.565977 184.927579 69.465334 184.555053 70.128342 183.892045 
C 70.79135 183.229037 71.163876 182.32968 71.163876 181.392045 
C 71.163876 180.454411 70.79135 179.555053 70.128342 178.892045 
C 69.465334 178.229037 68.565977 177.856511 67.628342 177.856511 
C 66.690708 177.856511 65.79135 178.229037 65.128342 178.892045 
C 64.465334 179.555053 64.092808 180.454411 64.092808 181.392045 
C 64.092808 182.32968 64.465334 183.229037 65.128342 183.892045 
C 65.79135 184.555053 66.690708 184.927579 67.628342 184.927579 
z
" style="fill:none;stroke:#9467bd;"/>
   </g>
   <g id="PathCollection_3">
    <path clip-path="url(#pbaed1a46f6)" d="M 72.601604 185.122807 
C 73.539239 185.122807 74.438597 184.75028 75.101604 184.087273 
C 75.764612 183.424265 76.137138 182.524907 76.137138 181.587273 
C 76.137138 180.649638 75.764612 179.75028 75.101604 179.087273 
C 74.438597 178.424265 73.539239 178.051739 72.601604 178.051739 
C 71.66397 178.051739 70.764612 178.424265 70.101604 179.087273 
C 69.438597 179.75028 69.06607 180.649638 69.06607 181.587273 
C 69.06607 182.524907 69.438597 183.424265 70.101604 184.087273 
C 70.764612 184.75028 71.66397 185.122807 72.601604 185.122807 
z
" style="fill:none;stroke:#9467bd;"/>
   </g>
   <g id="PathCollection_4">
    <path clip-path="url(#pbaed1a46f6)" d="M 77.574866 185.101011 
C 78.512501 185.101011 79.411859 184.728485 80.074866 184.065477 
C 80.737874 183.402469 81.1104 182.503111 81.1104 181.565477 
C 81.1104 180.627842 80.737874 179.728485 80.074866 179.065477 
C 79.411859 178.402469 78.512501 178.029943 77.574866 178.029943 
C 76.637232 178.029943 75.737874 178.402469 75.074866 179.065477 
C 74.411859 179.728485 74.039332 180.627842 74.039332 181.565477 
C 74.039332 182.503111 74.411859 183.402469 75.074866 184.065477 
C 75.737874 184.728485 76.637232 185.101011 77.574866 185.101011 
z
" style="fill:none;stroke:#9467bd;"/>
   </g>
   <g id="PathCollection_5">
    <path clip-path="url(#pbaed1a46f6)" d="M 82.548128 184.670052 
C 83.485763 184.670052 84.385121 184.297525 85.048128 183.634518 
C 85.711136 182.97151 86.083662 182.072152 86.083662 181.134518 
C 86.083662 180.196883 85.711136 179.297525 85.048128 178.634518 
C 84.385121 177.97151 83.485763 177.598984 82.548128 177.598984 
C 81.610494 177.598984 80.711136 177.97151 80.048128 178.634518 
C 79.385121 179.297525 79.012594 180.196883 79.012594 181.134518 
C 79.012594 182.072152 79.385121 182.97151 80.048128 183.634518 
C 80.711136 184.297525 81.610494 184.670052 82.548128 184.670052 
z
" style="fill:none;stroke:#9467bd;"/>
   </g>
   <g id="PathCollection_6">
    <path clip-path="url(#pbaed1a46f6)" d="M 87.52139 183.710276 
C 88.459025 183.710276 89.358383 183.33775 90.02139 182.674742 
C 90.684398 182.011734 91.056924 181.112377 91.056924 180.174742 
C 91.056924 179.237108 90.684398 178.33775 90.02139 177.674742 
C 89.358383 177.011734 88.459025 176.639208 87.52139 176.639208 
C 86.583756 176.639208 85.684398 177.011734 85.02139 177.674742 
C 84.358383 178.33775 83.985856 179.237108 83.985856 180.174742 
C 83.985856 181.112377 84.358383 182.011734 85.02139 182.674742 
C 85.684398 183.33775 86.583756 183.710276 87.52139 183.710276 
z
" style="fill:none;stroke:#9467bd;"/>
   </g>
   <g id="PathCollection_7">
    <path clip-path="url(#pbaed1a46f6)" d="M 92.494652 182.161169 
C 93.432287 182.161169 94.331645 181.788643 94.994652 181.125635 
C 95.65766 180.462627 96.030186 179.56327 96.030186 178.625635 
C 96.030186 177.688001 95.65766 176.788643 94.994652 176.125635 
C 94.331645 175.462627 93.432287 175.090101 92.494652 175.090101 
C 91.557018 175.090101 90.65766 175.462627 89.994652 176.125635 
C 89.331645 176.788643 88.959119 177.688001 88.959119 178.625635 
C 88.959119 179.56327 89.331645 180.462627 89.994652 181.125635 
C 90.65766 181.788643 91.557018 182.161169 92.494652 182.161169 
z
" style="fill:none;stroke:#9467bd;"/>
   </g>
   <g id="PathCollection_8">
    <path clip-path="url(#pbaed1a46f6)" d="M 97.467914 180.009352 
C 98.405549 180.009352 99.304907 179.636826 99.967914 178.973819 
C 100.630922 178.310811 101.003448 177.411453 101.003448 176.473819 
C 101.003448 175.536184 100.630922 174.636826 99.967914 173.973819 
C 99.304907 173.310811 98.405549 172.938285 97.467914 172.938285 
C 96.53028 172.938285 95.630922 173.310811 94.967914 173.973819 
C 94.304907 174.636826 93.932381 175.536184 93.932381 176.473819 
C 93.932381 177.411453 94.304907 178.310811 94.967914 178.973819 
C 95.630922 179.636826 96.53028 180.009352 97.467914 180.009352 
z
" style="fill:none;stroke:#9467bd;"/>
   </g>
   <g id="PathCollection_9">
    <path clip-path="url(#pbaed1a46f6)" d="M 102.441176 177.277963 
C 103.378811 177.277963 104.278169 176.905436 104.941176 176.242429 
C 105.604184 175.579421 105.97671 174.680063 105.97671 173.742429 
C 105.97671 172.804794 105.604184 171.905436 104.941176 171.242429 
C 104.278169 170.579421 103.378811 170.206895 102.441176 170.206895 
C 101.503542 170.206895 100.604184 170.579421 99.941176 171.242429 
C 99.278169 171.905436 98.905643 172.804794 98.905643 173.742429 
C 98.905643 174.680063 99.278169 175.579421 99.941176 176.242429 
C 100.604184 176.905436 101.503542 177.277963 102.441176 177.277963 
z
" style="fill:none;stroke:#9467bd;"/>
   </g>
   <g id="PathCollection_10">
    <path clip-path="url(#pbaed1a46f6)" d="M 107.414439 174.017276 
C 108.352073 174.017276 109.251431 173.64475 109.914439 172.981742 
C 110.577446 172.318735 110.949972 171.419377 110.949972 170.481742 
C 110.949972 169.544108 110.577446 168.64475 109.914439 167.981742 
C 109.251431 167.318735 108.352073 166.946209 107.414439 166.946209 
C 106.476804 166.946209 105.577446 167.318735 104.914439 167.981742 
C 104.251431 168.64475 103.878905 169.544108 103.878905 170.481742 
C 103.878905 171.419377 104.251431 172.318735 104.914439 172.981742 
C 105.577446 173.64475 106.476804 174.017276 107.414439 174.017276 
z
" style="fill:none;stroke:#9467bd;"/>
   </g>
   <g id="PathCollection_11">
    <path clip-path="url(#pbaed1a46f6)" d="M 112.387701 170.296542 
C 113.325335 170.296542 114.224693 169.924016 114.887701 169.261008 
C 115.550708 168.598001 115.923234 167.698643 115.923234 166.761008 
C 115.923234 165.823374 115.550708 164.924016 114.887701 164.261008 
C 114.224693 163.598001 113.325335 163.225474 112.387701 163.225474 
C 111.450066 163.225474 110.550708 163.598001 109.887701 164.261008 
C 109.224693 164.924016 108.852167 165.823374 108.852167 166.761008 
C 108.852167 167.698643 109.224693 168.598001 109.887701 169.261008 
C 110.550708 169.924016 111.450066 170.296542 112.387701 170.296542 
z
" style="fill:none;stroke:#9467bd;"/>
   </g>
   <g id="PathCollection_12">
    <path clip-path="url(#pbaed1a46f6)" d="M 117.360963 166.196944 
C 118.298597 166.196944 119.197955 165.824417 119.860963 165.16141 
C 120.52397 164.498402 120.896496 163.599044 120.896496 162.66141 
C 120.896496 161.723775 120.52397 160.824417 119.860963 160.16141 
C 119.197955 159.498402 118.298597 159.125876 117.360963 159.125876 
C 116.423328 159.125876 115.52397 159.498402 114.860963 160.16141 
C 114.197955 160.824417 113.825429 161.723775 113.825429 162.66141 
C 113.825429 163.599044 114.197955 164.498402 114.860963 165.16141 
C 115.52397 165.824417 116.423328 166.196944 117.360963 166.196944 
z
" style="fill:none;stroke:#9467bd;"/>
   </g>
   <g id="PathCollection_13">
    <path clip-path="url(#pbaed1a46f6)" d="M 122.334225 161.805629 
C 123.271859 161.805629 124.171217 161.433103 124.834225 160.770095 
C 125.497232 160.107088 125.869759 159.20773 125.869759 158.270095 
C 125.869759 157.332461 125.497232 156.433103 124.834225 155.770095 
C 124.171217 155.107088 123.271859 154.734561 122.334225 154.734561 
C 121.39659 154.734561 120.497232 155.107088 119.834225 155.770095 
C 119.171217 156.433103 118.798691 157.332461 118.798691 158.270095 
C 118.798691 159.20773 119.171217 160.107088 119.834225 160.770095 
C 120.497232 161.433103 121.39659 161.805629 122.334225 161.805629 
z
" style="fill:none;stroke:#9467bd;"/>
   </g>
   <g id="PathCollection_14">
    <path clip-path="url(#pbaed1a46f6)" d="M 127.307487 157.210741 
C 128.245121 157.210741 129.144479 156.838215 129.807487 156.175207 
C 130.470494 155.512199 130.843021 154.612841 130.843021 153.675207 
C 130.843021 152.737572 130.470494 151.838215 129.807487 151.175207 
C 129.144479 150.512199 128.245121 150.139673 127.307487 150.139673 
C 126.369852 150.139673 125.470494 150.512199 124.807487 151.175207 
C 124.144479 151.838215 123.771953 152.737572 123.771953 153.675207 
C 123.771953 154.612841 124.144479 155.512199 124.807487 156.175207 
C 125.470494 156.838215 126.369852 157.210741 127.307487 157.210741 
z
" style="fill:none;stroke:#9467bd;"/>
   </g>
   <g id="PathCollection_15">
    <path clip-path="url(#pbaed1a46f6)" d="M 132.280749 152.497374 
C 133.218383 152.497374 134.117741 152.124848 134.780749 151.46184 
C 135.443756 150.798833 135.816283 149.899475 135.816283 148.96184 
C 135.816283 148.024206 135.443756 147.124848 134.780749 146.46184 
C 134.117741 145.798833 133.218383 145.426306 132.280749 145.426306 
C 131.343114 145.426306 130.443756 145.798833 129.780749 146.46184 
C 129.117741 147.124848 128.745215 148.024206 128.745215 148.96184 
C 128.745215 149.899475 129.117741 150.798833 129.780749 151.46184 
C 130.443756 152.124848 131.343114 152.497374 132.280749 152.497374 
z
" style="fill:none;stroke:#9467bd;"/>
   </g>
   <g id="PathCollection_16">
    <path clip-path="url(#pbaed1a46f6)" d="M 137.254011 147.744402 
C 138.191645 147.744402 139.091003 147.371876 139.754011 146.708868 
C 140.417018 146.04586 140.789545 145.146502 140.789545 144.208868 
C 140.789545 143.271233 140.417018 142.371876 139.754011 141.708868 
C 139.091003 141.04586 138.191645 140.673334 137.254011 140.673334 
C 136.316376 140.673334 135.417018 141.04586 134.754011 141.708868 
C 134.091003 142.371876 133.718477 143.271233 133.718477 144.208868 
C 133.718477 145.146502 134.091003 146.04586 134.754011 146.708868 
C 135.417018 147.371876 136.316376 147.744402 137.254011 147.744402 
z
" style="fill:none;stroke:#9467bd;"/>
   </g>
   <g id="PathCollection_17">
    <path clip-path="url(#pbaed1a46f6)" d="M 142.227273 143.022094 
C 143.164907 143.022094 144.064265 142.649568 144.727273 141.98656 
C 145.39028 141.323552 145.762807 140.424195 145.762807 139.48656 
C 145.762807 138.548926 145.39028 137.649568 144.727273 136.98656 
C 144.064265 136.323552 143.164907 135.951026 142.227273 135.951026 
C 141.289638 135.951026 140.39028 136.323552 139.727273 136.98656 
C 139.064265 137.649568 138.691739 138.548926 138.691739 139.48656 
C 138.691739 140.424195 139.064265 141.323552 139.727273 141.98656 
C 140.39028 142.649568 141.289638 143.022094 142.227273 143.022094 
z
" style="fill:none;stroke:#9467bd;"/>
   </g>
   <g id="PathCollection_18">
    <path clip-path="url(#pbaed1a46f6)" d="M 147.200535 138.390471 
C 148.138169 138.390471 149.037527 138.017944 149.700535 137.354937 
C 150.363543 136.691929 150.736069 135.792571 150.736069 134.854937 
C 150.736069 133.917302 150.363543 133.017944 149.700535 132.354937 
C 149.037527 131.691929 148.138169 131.319403 147.200535 131.319403 
C 146.2629 131.319403 145.363543 131.691929 144.700535 132.354937 
C 144.037527 133.017944 143.665001 133.917302 143.665001 134.854937 
C 143.665001 135.792571 144.037527 136.691929 144.700535 137.354937 
C 145.363543 138.017944 146.2629 138.390471 147.200535 138.390471 
z
" style="fill:none;stroke:#9467bd;"/>
   </g>
   <g id="PathCollection_19">
    <path clip-path="url(#pbaed1a46f6)" d="M 152.173797 133.89831 
C 153.111431 133.89831 154.010789 133.525784 154.673797 132.862777 
C 155.336805 132.199769 155.709331 131.300411 155.709331 130.362777 
C 155.709331 129.425142 155.336805 128.525784 154.673797 127.862777 
C 154.010789 127.199769 153.111431 126.827243 152.173797 126.827243 
C 151.236162 126.827243 150.336805 127.199769 149.673797 127.862777 
C 149.010789 128.525784 148.638263 129.425142 148.638263 130.362777 
C 148.638263 131.300411 149.010789 132.199769 149.673797 132.862777 
C 150.336805 133.525784 151.236162 133.89831 152.173797 133.89831 
z
" style="fill:none;stroke:#9467bd;"/>
   </g>
   <g id="PathCollection_20">
    <path clip-path="url(#pbaed1a46f6)" d="M 157.147059 129.582762 
C 158.084693 129.582762 158.984051 129.210236 159.647059 128.547228 
C 160.310067 127.88422 160.682593 126.984863 160.682593 126.047228 
C 160.682593 125.109593 160.310067 124.210236 159.647059 123.547228 
C 158.984051 122.88422 158.084693 122.511694 157.147059 122.511694 
C 156.209424 122.511694 155.310067 122.88422 154.647059 123.547228 
C 153.984051 124.210236 153.611525 125.109593 153.611525 126.047228 
C 153.611525 126.984863 153.984051 127.88422 154.647059 128.547228 
C 155.310067 129.210236 156.209424 129.582762 157.147059 129.582762 
z
" style="fill:none;stroke:#9467bd;"/>
   </g>
   <g id="PathCollection_21">
    <path clip-path="url(#pbaed1a46f6)" d="M 162.120321 125.469478 
C 163.057955 125.469478 163.957313 125.096952 164.620321 124.433944 
C 165.283329 123.770936 165.655855 122.871579 165.655855 121.933944 
C 165.655855 120.99631 165.283329 120.096952 164.620321 119.433944 
C 163.957313 118.770936 163.057955 118.39841 162.120321 118.39841 
C 161.182686 118.39841 160.283329 118.770936 159.620321 119.433944 
C 158.957313 120.096952 158.584787 120.99631 158.584787 121.933944 
C 158.584787 122.871579 158.957313 123.770936 159.620321 124.433944 
C 160.283329 125.096952 161.182686 125.469478 162.120321 125.469478 
z
" style="fill:none;stroke:#9467bd;"/>
   </g>
   <g id="PathCollection_22">
    <path clip-path="url(#pbaed1a46f6)" d="M 167.093583 121.57321 
C 168.031217 121.57321 168.930575 121.200684 169.593583 120.537676 
C 170.256591 119.874668 170.629117 118.97531 170.629117 118.037676 
C 170.629117 117.100041 170.256591 116.200684 169.593583 115.537676 
C 168.930575 114.874668 168.031217 114.502142 167.093583 114.502142 
C 166.155948 114.502142 165.256591 114.874668 164.593583 115.537676 
C 163.930575 116.200684 163.558049 117.100041 163.558049 118.037676 
C 163.558049 118.97531 163.930575 119.874668 164.593583 120.537676 
C 165.256591 121.200684 166.155948 121.57321 167.093583 121.57321 
z
" style="fill:none;stroke:#9467bd;"/>
   </g>
   <g id="PathCollection_23">
    <path clip-path="url(#pbaed1a46f6)" d="M 172.066845 117.898797 
C 173.004479 117.898797 173.903837 117.526271 174.566845 116.863263 
C 175.229853 116.200255 175.602379 115.300898 175.602379 114.363263 
C 175.602379 113.425629 175.229853 112.526271 174.566845 111.863263 
C 173.903837 111.200255 173.004479 110.827729 172.066845 110.827729 
C 171.12921 110.827729 170.229853 111.200255 169.566845 111.863263 
C 168.903837 112.526271 168.531311 113.425629 168.531311 114.363263 
C 168.531311 115.300898 168.903837 116.200255 169.566845 116.863263 
C 170.229853 117.526271 171.12921 117.898797 172.066845 117.898797 
z
" style="fill:none;stroke:#9467bd;"/>
   </g>
   <g id="PathCollection_24">
    <path clip-path="url(#pbaed1a46f6)" d="M 177.040107 114.442483 
C 177.977742 114.442483 178.877099 114.069957 179.540107 113.406949 
C 180.203115 112.743941 180.575641 111.844584 180.575641 110.906949 
C 180.575641 109.969315 180.203115 109.069957 179.540107 108.406949 
C 178.877099 107.743941 177.977742 107.371415 177.040107 107.371415 
C 176.102472 107.371415 175.203115 107.743941 174.540107 108.406949 
C 173.877099 109.069957 173.504573 109.969315 173.504573 110.906949 
C 173.504573 111.844584 173.877099 112.743941 174.540107 113.406949 
C 175.203115 114.069957 176.102472 114.442483 177.040107 114.442483 
z
" style="fill:none;stroke:#9467bd;"/>
   </g>
   <g id="PathCollection_25">
    <path clip-path="url(#pbaed1a46f6)" d="M 182.013369 111.193486 
C 182.951004 111.193486 183.850361 110.82096 184.513369 110.157953 
C 185.176377 109.494945 185.548903 108.595587 185.548903 107.657953 
C 185.548903 106.720318 185.176377 105.82096 184.513369 105.157953 
C 183.850361 104.494945 182.951004 104.122419 182.013369 104.122419 
C 181.075734 104.122419 180.176377 104.494945 179.513369 105.157953 
C 178.850361 105.82096 178.477835 106.720318 178.477835 107.657953 
C 178.477835 108.595587 178.850361 109.494945 179.513369 110.157953 
C 180.176377 110.82096 181.075734 111.193486 182.013369 111.193486 
z
" style="fill:none;stroke:#9467bd;"/>
   </g>
   <g id="PathCollection_26">
    <path clip-path="url(#pbaed1a46f6)" d="M 186.986631 108.135767 
C 187.924266 108.135767 188.823623 107.763241 189.486631 107.100233 
C 190.149639 106.437226 190.522165 105.537868 190.522165 104.600233 
C 190.522165 103.662599 190.149639 102.763241 189.486631 102.100233 
C 188.823623 101.437226 187.924266 101.064699 186.986631 101.064699 
C 186.048996 101.064699 185.149639 101.437226 184.486631 102.100233 
C 183.823623 102.763241 183.451097 103.662599 183.451097 104.600233 
C 183.451097 105.537868 183.823623 106.437226 184.486631 107.100233 
C 185.149639 107.763241 186.048996 108.135767 186.986631 108.135767 
z
" style="fill:none;stroke:#9467bd;"/>
   </g>
   <g id="PathCollection_27">
    <path clip-path="url(#pbaed1a46f6)" d="M 191.959893 105.249914 
C 192.897528 105.249914 193.796885 104.877388 194.459893 104.21438 
C 195.122901 103.551372 195.495427 102.652014 195.495427 101.71438 
C 195.495427 100.776745 195.122901 99.877388 194.459893 99.21438 
C 193.796885 98.551372 192.897528 98.178846 191.959893 98.178846 
C 191.022258 98.178846 190.122901 98.551372 189.459893 99.21438 
C 188.796885 99.877388 188.424359 100.776745 188.424359 101.71438 
C 188.424359 102.652014 188.796885 103.551372 189.459893 104.21438 
C 190.122901 104.877388 191.022258 105.249914 191.959893 105.249914 
z
" style="fill:none;stroke:#9467bd;"/>
   </g>
   <g id="PathCollection_28">
    <path clip-path="url(#pbaed1a46f6)" d="M 196.933155 102.515089 
C 197.87079 102.515089 198.770147 102.142563 199.433155 101.479555 
C 200.096163 100.816548 200.468689 99.91719 200.468689 98.979555 
C 200.468689 98.041921 200.096163 97.142563 199.433155 96.479555 
C 198.770147 95.816548 197.87079 95.444021 196.933155 95.444021 
C 195.995521 95.444021 195.096163 95.816548 194.433155 96.479555 
C 193.770147 97.142563 193.397621 98.041921 193.397621 98.979555 
C 193.397621 99.91719 193.770147 100.816548 194.433155 101.479555 
C 195.096163 102.142563 195.995521 102.515089 196.933155 102.515089 
z
" style="fill:none;stroke:#9467bd;"/>
   </g>
   <g id="PathCollection_29">
    <path clip-path="url(#pbaed1a46f6)" d="M 201.906417 99.910966 
C 202.844052 99.910966 203.743409 99.53844 204.406417 98.875432 
C 205.069425 98.212424 205.441951 97.313067 205.441951 96.375432 
C 205.441951 95.437798 205.069425 94.53844 204.406417 93.875432 
C 203.743409 93.212424 202.844052 92.839898 201.906417 92.839898 
C 200.968783 92.839898 200.069425 93.212424 199.406417 93.875432 
C 198.743409 94.53844 198.370883 95.437798 198.370883 96.375432 
C 198.370883 97.313067 198.743409 98.212424 199.406417 98.875432 
C 200.069425 99.53844 200.968783 99.910966 201.906417 99.910966 
z
" style="fill:none;stroke:#9467bd;"/>
   </g>
   <g id="PathCollection_30">
    <path clip-path="url(#pbaed1a46f6)" d="M 206.879679 97.419582 
C 207.817314 97.419582 208.716671 97.047055 209.379679 96.384048 
C 210.042687 95.72104 210.415213 94.821682 210.415213 93.884048 
C 210.415213 92.946413 210.042687 92.047055 209.379679 91.384048 
C 208.716671 90.72104 207.817314 90.348514 206.879679 90.348514 
C 205.942045 90.348514 205.042687 90.72104 204.379679 91.384048 
C 203.716671 92.047055 203.344145 92.946413 203.344145 93.884048 
C 203.344145 94.821682 203.716671 95.72104 204.379679 96.384048 
C 205.042687 97.047055 205.942045 97.419582 206.879679 97.419582 
z
" style="fill:none;stroke:#9467bd;"/>
   </g>
   <g id="PathCollection_31">
    <path clip-path="url(#pbaed1a46f6)" d="M 211.852941 95.027051 
C 212.790576 95.027051 213.689933 94.654525 214.352941 93.991517 
C 215.015949 93.32851 215.388475 92.429152 215.388475 91.491517 
C 215.388475 90.553883 215.015949 89.654525 214.352941 88.991517 
C 213.689933 88.32851 212.790576 87.955984 211.852941 87.955984 
C 210.915307 87.955984 210.015949 88.32851 209.352941 88.991517 
C 208.689933 89.654525 208.317407 90.553883 208.317407 91.491517 
C 208.317407 92.429152 208.689933 93.32851 209.352941 93.991517 
C 210.015949 94.654525 210.915307 95.027051 211.852941 95.027051 
z
" style="fill:none;stroke:#9467bd;"/>
   </g>
   <g id="PathCollection_32">
    <path clip-path="url(#pbaed1a46f6)" d="M 216.826203 92.725067 
C 217.763838 92.725067 218.663195 92.352541 219.326203 91.689533 
C 219.989211 91.026525 220.361737 90.127167 220.361737 89.189533 
C 220.361737 88.251898 219.989211 87.352541 219.326203 86.689533 
C 218.663195 86.026525 217.763838 85.653999 216.826203 85.653999 
C 215.888569 85.653999 214.989211 86.026525 214.326203 86.689533 
C 213.663195 87.352541 213.290669 88.251898 213.290669 89.189533 
C 213.290669 90.127167 213.663195 91.026525 214.326203 91.689533 
C 214.989211 92.352541 215.888569 92.725067 216.826203 92.725067 
z
" style="fill:none;stroke:#9467bd;"/>
   </g>
   <g id="PathCollection_33">
    <path clip-path="url(#pbaed1a46f6)" d="M 221.799465 90.512117 
C 222.7371 90.512117 223.636457 90.13959 224.299465 89.476583 
C 224.962473 88.813575 225.334999 87.914217 225.334999 86.976583 
C 225.334999 86.038948 224.962473 85.13959 224.299465 84.476583 
C 223.636457 83.813575 222.7371 83.441049 221.799465 83.441049 
C 220.861831 83.441049 219.962473 83.813575 219.299465 84.476583 
C 218.636457 85.13959 218.263931 86.038948 218.263931 86.976583 
C 218.263931 87.914217 218.636457 88.813575 219.299465 89.476583 
C 219.962473 90.13959 220.861831 90.512117 221.799465 90.512117 
z
" style="fill:none;stroke:#9467bd;"/>
   </g>
   <g id="PathCollection_34">
    <path clip-path="url(#pbaed1a46f6)" d="M 226.772727 88.394356 
C 227.710362 88.394356 228.60972 88.02183 229.272727 87.358822 
C 229.935735 86.695815 230.308261 85.796457 230.308261 84.858822 
C 230.308261 83.921188 229.935735 83.02183 229.272727 82.358822 
C 228.60972 81.695815 227.710362 81.323289 226.772727 81.323289 
C 225.835093 81.323289 224.935735 81.695815 224.272727 82.358822 
C 223.60972 83.02183 223.237193 83.921188 223.237193 84.858822 
C 223.237193 85.796457 223.60972 86.695815 224.272727 87.358822 
C 224.935735 88.02183 225.835093 88.394356 226.772727 88.394356 
z
" style="fill:none;stroke:#9467bd;"/>
   </g>
   <g id="PathCollection_35">
    <path clip-path="url(#pbaed1a46f6)" d="M 231.745989 86.38607 
C 232.683624 86.38607 233.582982 86.013544 234.245989 85.350536 
C 234.908997 84.687529 235.281523 83.788171 235.281523 82.850536 
C 235.281523 81.912902 234.908997 81.013544 234.245989 80.350536 
C 233.582982 79.687529 232.683624 79.315002 231.745989 79.315002 
C 230.808355 79.315002 229.908997 79.687529 229.245989 80.350536 
C 228.582982 81.013544 228.210455 81.912902 228.210455 82.850536 
C 228.210455 83.788171 228.582982 84.687529 229.245989 85.350536 
C 229.908997 86.013544 230.808355 86.38607 231.745989 86.38607 
z
" style="fill:none;stroke:#9467bd;"/>
   </g>
   <g id="PathCollection_36">
    <path clip-path="url(#pbaed1a46f6)" d="M 236.719251 84.509644 
C 237.656886 84.509644 238.556244 84.137118 239.219251 83.47411 
C 239.882259 82.811103 240.254785 81.911745 240.254785 80.97411 
C 240.254785 80.036476 239.882259 79.137118 239.219251 78.47411 
C 238.556244 77.811103 237.656886 77.438577 236.719251 77.438577 
C 235.781617 77.438577 234.882259 77.811103 234.219251 78.47411 
C 233.556244 79.137118 233.183717 80.036476 233.183717 80.97411 
C 233.183717 81.911745 233.556244 82.811103 234.219251 83.47411 
C 234.882259 84.137118 235.781617 84.509644 236.719251 84.509644 
z
" style="fill:none;stroke:#9467bd;"/>
   </g>
   <g id="PathCollection_37">
    <path clip-path="url(#pbaed1a46f6)" d="M 241.692513 82.794997 
C 242.630148 82.794997 243.529506 82.422471 244.192513 81.759463 
C 244.855521 81.096456 245.228047 80.197098 245.228047 79.259463 
C 245.228047 78.321829 244.855521 77.422471 244.192513 76.759463 
C 243.529506 76.096456 242.630148 75.72393 241.692513 75.72393 
C 240.754879 75.72393 239.855521 76.096456 239.192513 76.759463 
C 238.529506 77.422471 238.156979 78.321829 238.156979 79.259463 
C 238.156979 80.197098 238.529506 81.096456 239.192513 81.759463 
C 239.855521 82.422471 240.754879 82.794997 241.692513 82.794997 
z
" style="fill:none;stroke:#9467bd;"/>
   </g>
   <g id="PathCollection_38">
    <path clip-path="url(#pbaed1a46f6)" d="M 246.665775 81.278391 
C 247.60341 81.278391 248.502768 80.905865 249.165775 80.242857 
C 249.828783 79.579849 250.201309 78.680492 250.201309 77.742857 
C 250.201309 76.805222 249.828783 75.905865 249.165775 75.242857 
C 248.502768 74.579849 247.60341 74.207323 246.665775 74.207323 
C 245.728141 74.207323 244.828783 74.579849 244.165775 75.242857 
C 243.502768 75.905865 243.130241 76.805222 243.130241 77.742857 
C 243.130241 78.680492 243.502768 79.579849 244.165775 80.242857 
C 244.828783 80.905865 245.728141 81.278391 246.665775 81.278391 
z
" style="fill:none;stroke:#9467bd;"/>
   </g>
   <g id="PathCollection_39">
    <path clip-path="url(#pbaed1a46f6)" d="M 251.639037 80.000557 
C 252.576672 80.000557 253.47603 79.628031 254.139037 78.965023 
C 254.802045 78.302015 255.174571 77.402658 255.174571 76.465023 
C 255.174571 75.527388 254.802045 74.628031 254.139037 73.965023 
C 253.47603 73.302015 252.576672 72.929489 251.639037 72.929489 
C 250.701403 72.929489 249.802045 73.302015 249.139037 73.965023 
C 248.47603 74.628031 248.103504 75.527388 248.103504 76.465023 
C 248.103504 77.402658 248.47603 78.302015 249.139037 78.965023 
C 249.802045 79.628031 250.701403 80.000557 251.639037 80.000557 
z
" style="fill:none;stroke:#9467bd;"/>
   </g>
   <g id="PathCollection_40">
    <path clip-path="url(#pbaed1a46f6)" d="M 256.612299 79.004078 
C 257.549934 79.004078 258.449292 78.631552 259.112299 77.968544 
C 259.775307 77.305536 260.147833 76.406179 260.147833 75.468544 
C 260.147833 74.53091 259.775307 73.631552 259.112299 72.968544 
C 258.449292 72.305536 257.549934 71.93301 256.612299 71.93301 
C 255.674665 71.93301 254.775307 72.305536 254.112299 72.968544 
C 253.449292 73.631552 253.076766 74.53091 253.076766 75.468544 
C 253.076766 76.406179 253.449292 77.305536 254.112299 77.968544 
C 254.775307 78.631552 255.674665 79.004078 256.612299 79.004078 
z
" style="fill:none;stroke:#9467bd;"/>
   </g>
   <g id="PathCollection_41">
    <path clip-path="url(#pbaed1a46f6)" d="M 261.585561 78.329944 
C 262.523196 78.329944 263.422554 77.957418 264.085561 77.29441 
C 264.748569 76.631402 265.121095 75.732045 265.121095 74.79441 
C 265.121095 73.856775 264.748569 72.957418 264.085561 72.29441 
C 263.422554 71.631402 262.523196 71.258876 261.585561 71.258876 
C 260.647927 71.258876 259.748569 71.631402 259.085561 72.29441 
C 258.422554 72.957418 258.050028 73.856775 258.050028 74.79441 
C 258.050028 75.732045 258.422554 76.631402 259.085561 77.29441 
C 259.748569 77.957418 260.647927 78.329944 261.585561 78.329944 
z
" style="fill:none;stroke:#9467bd;"/>
   </g>
   <g id="PathCollection_42">
    <path clip-path="url(#pbaed1a46f6)" d="M 266.558824 78.013228 
C 267.496458 78.013228 268.395816 77.640702 269.058824 76.977694 
C 269.721831 76.314686 270.094357 75.415328 270.094357 74.477694 
C 270.094357 73.540059 269.721831 72.640702 269.058824 71.977694 
C 268.395816 71.314686 267.496458 70.94216 266.558824 70.94216 
C 265.621189 70.94216 264.721831 71.314686 264.058824 71.977694 
C 263.395816 72.640702 263.02329 73.540059 263.02329 74.477694 
C 263.02329 75.415328 263.395816 76.314686 264.058824 76.977694 
C 264.721831 77.640702 265.621189 78.013228 266.558824 78.013228 
z
" style="fill:none;stroke:#9467bd;"/>
   </g>
   <g id="PathCollection_43">
    <path clip-path="url(#pbaed1a46f6)" d="M 271.532086 78.077809 
C 272.46972 78.077809 273.369078 77.705283 274.032086 77.042275 
C 274.695093 76.379267 275.067619 75.479909 275.067619 74.542275 
C 275.067619 73.60464 274.695093 72.705283 274.032086 72.042275 
C 273.369078 71.379267 272.46972 71.006741 271.532086 71.006741 
C 270.594451 71.006741 269.695093 71.379267 269.032086 72.042275 
C 268.369078 72.705283 267.996552 73.60464 267.996552 74.542275 
C 267.996552 75.479909 268.369078 76.379267 269.032086 77.042275 
C 269.695093 77.705283 270.594451 78.077809 271.532086 78.077809 
z
" style="fill:none;stroke:#9467bd;"/>
   </g>
   <g id="PathCollection_44">
    <path clip-path="url(#pbaed1a46f6)" d="M 276.505348 78.530071 
C 277.442982 78.530071 278.34234 78.157545 279.005348 77.494537 
C 279.668355 76.831529 280.040881 75.932172 280.040881 74.994537 
C 280.040881 74.056902 279.668355 73.157545 279.005348 72.494537 
C 278.34234 71.831529 277.442982 71.459003 276.505348 71.459003 
C 275.567713 71.459003 274.668355 71.831529 274.005348 72.494537 
C 273.34234 73.157545 272.969814 74.056902 272.969814 74.994537 
C 272.969814 75.932172 273.34234 76.831529 274.005348 77.494537 
C 274.668355 78.157545 275.567713 78.530071 276.505348 78.530071 
z
" style="fill:none;stroke:#9467bd;"/>
   </g>
   <g id="PathCollection_45">
    <path clip-path="url(#pbaed1a46f6)" d="M 281.47861 79.351521 
C 282.416244 79.351521 283.315602 78.978995 283.97861 78.315988 
C 284.641617 77.65298 285.014144 76.753622 285.014144 75.815988 
C 285.014144 74.878353 284.641617 73.978995 283.97861 73.315988 
C 283.315602 72.65298 282.416244 72.280454 281.47861 72.280454 
C 280.540975 72.280454 279.641617 72.65298 278.97861 73.315988 
C 278.315602 73.978995 277.943076 74.878353 277.943076 75.815988 
C 277.943076 76.753622 278.315602 77.65298 278.97861 78.315988 
C 279.641617 78.978995 280.540975 79.351521 281.47861 79.351521 
z
" style="fill:none;stroke:#9467bd;"/>
   </g>
   <g id="PathCollection_46">
    <path clip-path="url(#pbaed1a46f6)" d="M 286.451872 80.49025 
C 287.389506 80.49025 288.288864 80.117723 288.951872 79.454716 
C 289.614879 78.791708 289.987406 77.89235 289.987406 76.954716 
C 289.987406 76.017081 289.614879 75.117723 288.951872 74.454716 
C 288.288864 73.791708 287.389506 73.419182 286.451872 73.419182 
C 285.514237 73.419182 284.614879 73.791708 283.951872 74.454716 
C 283.288864 75.117723 282.916338 76.017081 282.916338 76.954716 
C 282.916338 77.89235 283.288864 78.791708 283.951872 79.454716 
C 284.614879 80.117723 285.514237 80.49025 286.451872 80.49025 
z
" style="fill:none;stroke:#9467bd;"/>
   </g>
   <g id="PathCollection_47">
    <path clip-path="url(#pbaed1a46f6)" d="M 291.425134 81.851165 
C 292.362768 81.851165 293.262126 81.478639 293.925134 80.815631 
C 294.588141 80.152623 294.960668 79.253266 294.960668 78.315631 
C 294.960668 77.377997 294.588141 76.478639 293.925134 75.815631 
C 293.262126 75.152623 292.362768 74.780097 291.425134 74.780097 
C 290.487499 74.780097 289.588141 75.152623 288.925134 75.815631 
C 288.262126 76.478639 287.8896 77.377997 287.8896 78.315631 
C 287.8896 79.253266 288.262126 80.152623 288.925134 80.815631 
C 289.588141 81.478639 290.487499 81.851165 291.425134 81.851165 
z
" style="fill:none;stroke:#9467bd;"/>
   </g>
   <g id="PathCollection_48">
    <path clip-path="url(#pbaed1a46f6)" d="M 296.398396 83.284949 
C 297.33603 83.284949 298.235388 82.912423 298.898396 82.249415 
C 299.561403 81.586407 299.93393 80.687049 299.93393 79.749415 
C 299.93393 78.81178 299.561403 77.912423 298.898396 77.249415 
C 298.235388 76.586407 297.33603 76.213881 296.398396 76.213881 
C 295.460761 76.213881 294.561403 76.586407 293.898396 77.249415 
C 293.235388 77.912423 292.862862 78.81178 292.862862 79.749415 
C 292.862862 80.687049 293.235388 81.586407 293.898396 82.249415 
C 294.561403 82.912423 295.460761 83.284949 296.398396 83.284949 
z
" style="fill:none;stroke:#9467bd;"/>
   </g>
   <g id="PathCollection_49">
    <path clip-path="url(#pbaed1a46f6)" d="M 301.371658 84.575647 
C 302.309292 84.575647 303.20865 84.203121 303.871658 83.540113 
C 304.534666 82.877105 304.907192 81.977748 304.907192 81.040113 
C 304.907192 80.102478 304.534666 79.203121 303.871658 78.540113 
C 303.20865 77.877105 302.309292 77.504579 301.371658 77.504579 
C 300.434023 77.504579 299.534666 77.877105 298.871658 78.540113 
C 298.20865 79.203121 297.836124 80.102478 297.836124 81.040113 
C 297.836124 81.977748 298.20865 82.877105 298.871658 83.540113 
C 299.534666 84.203121 300.434023 84.575647 301.371658 84.575647 
z
" style="fill:none;stroke:#9467bd;"/>
   </g>
   <g id="PathCollection_50">
    <path clip-path="url(#pbaed1a46f6)" d="M 306.34492 85.426839 
C 307.282554 85.426839 308.181912 85.054313 308.84492 84.391305 
C 309.507928 83.728298 309.880454 82.82894 309.880454 81.891305 
C 309.880454 80.953671 309.507928 80.054313 308.84492 79.391305 
C 308.181912 78.728298 307.282554 78.355771 306.34492 78.355771 
C 305.407285 78.355771 304.507928 78.728298 303.84492 79.391305 
C 303.181912 80.054313 302.809386 80.953671 302.809386 81.891305 
C 302.809386 82.82894 303.181912 83.728298 303.84492 84.391305 
C 304.507928 85.054313 305.407285 85.426839 306.34492 85.426839 
z
" style="fill:none;stroke:#9467bd;"/>
   </g>
   <g id="PathCollection_51">
    <path clip-path="url(#pbaed1a46f6)" d="M 311.318182 85.44632 
C 312.255816 85.44632 313.155174 85.073793 313.818182 84.410786 
C 314.48119 83.747778 314.853716 82.84842 314.853716 81.910786 
C 314.853716 80.973151 314.48119 80.073793 313.818182 79.410786 
C 313.155174 78.747778 312.255816 78.375252 311.318182 78.375252 
C 310.380547 78.375252 309.48119 78.747778 308.818182 79.410786 
C 308.155174 80.073793 307.782648 80.973151 307.782648 81.910786 
C 307.782648 82.84842 308.155174 83.747778 308.818182 84.410786 
C 309.48119 85.073793 310.380547 85.44632 311.318182 85.44632 
z
" style="fill:none;stroke:#9467bd;"/>
   </g>
   <g id="PathCollection_52">
    <defs>
     <path d="M 0 3.535534 
C 0.937635 3.535534 1.836992 3.163008 2.5 2.5 
C 3.163008 1.836992 3.535534 0.937635 3.535534 0 
C 3.535534 -0.937635 3.163008 -1.836992 2.5 -2.5 
C 1.836992 -3.163008 0.937635 -3.535534 0 -3.535534 
C -0.937635 -3.535534 -1.836992 -3.163008 -2.5 -2.5 
C -3.163008 -1.836992 -3.535534 -0.937635 -3.535534 0 
C -3.535534 0.937635 -3.163008 1.836992 -2.5 2.5 
C -1.836992 3.163008 -0.937635 3.535534 0 3.535534 
z
" id="mee111406d9" style="stroke:#9467bd;"/>
    </defs>
    <g clip-path="url(#pbaed1a46f6)">
     <use style="fill:#9467bd;stroke:#9467bd;" x="62.65508" xlink:href="#mee111406d9" y="179.525666"/>
    </g>
   </g>
   <g id="PathCollection_53">
    <g clip-path="url(#pbaed1a46f6)">
     <use style="fill:#9467bd;stroke:#9467bd;" x="67.628342" xlink:href="#mee111406d9" y="179.829278"/>
    </g>
   </g>
   <g id="PathCollection_54">
    <g clip-path="url(#pbaed1a46f6)">
     <use style="fill:#9467bd;stroke:#9467bd;" x="72.601604" xlink:href="#mee111406d9" y="179.208425"/>
    </g>
   </g>
   <g id="PathCollection_55">
    <g clip-path="url(#pbaed1a46f6)">
     <use style="fill:#9467bd;stroke:#9467bd;" x="77.574866" xlink:href="#mee111406d9" y="177.787833"/>
    </g>
   </g>
   <g id="PathCollection_56">
    <g clip-path="url(#pbaed1a46f6)">
     <use style="fill:#9467bd;stroke:#9467bd;" x="82.548128" xlink:href="#mee111406d9" y="175.662109"/>
    </g>
   </g>
   <g id="PathCollection_57">
    <g clip-path="url(#pbaed1a46f6)">
     <use style="fill:#9467bd;stroke:#9467bd;" x="87.52139" xlink:href="#mee111406d9" y="172.926955"/>
    </g>
   </g>
   <g id="PathCollection_58">
    <g clip-path="url(#pbaed1a46f6)">
     <use style="fill:#9467bd;stroke:#9467bd;" x="92.494652" xlink:href="#mee111406d9" y="169.632675"/>
    </g>
   </g>
   <g id="PathCollection_59">
    <g clip-path="url(#pbaed1a46f6)">
     <use style="fill:#9467bd;stroke:#9467bd;" x="97.467914" xlink:href="#mee111406d9" y="165.839645"/>
    </g>
   </g>
   <g id="PathCollection_60">
    <g clip-path="url(#pbaed1a46f6)">
     <use style="fill:#9467bd;stroke:#9467bd;" x="102.441176" xlink:href="#mee111406d9" y="161.596167"/>
    </g>
   </g>
   <g id="PathCollection_61">
    <g clip-path="url(#pbaed1a46f6)">
     <use style="fill:#9467bd;stroke:#9467bd;" x="107.414439" xlink:href="#mee111406d9" y="156.946514"/>
    </g>
   </g>
   <g id="PathCollection_62">
    <g clip-path="url(#pbaed1a46f6)">
     <use style="fill:#9467bd;stroke:#9467bd;" x="112.387701" xlink:href="#mee111406d9" y="151.933277"/>
    </g>
   </g>
   <g id="PathCollection_63">
    <g clip-path="url(#pbaed1a46f6)">
     <use style="fill:#9467bd;stroke:#9467bd;" x="117.360963" xlink:href="#mee111406d9" y="146.599201"/>
    </g>
   </g>
   <g id="PathCollection_64">
    <g clip-path="url(#pbaed1a46f6)">
     <use style="fill:#9467bd;stroke:#9467bd;" x="122.334225" xlink:href="#mee111406d9" y="140.988535"/>
    </g>
   </g>
   <g id="PathCollection_65">
    <g clip-path="url(#pbaed1a46f6)">
     <use style="fill:#9467bd;stroke:#9467bd;" x="127.307487" xlink:href="#mee111406d9" y="135.147944"/>
    </g>
   </g>
   <g id="PathCollection_66">
    <g clip-path="url(#pbaed1a46f6)">
     <use style="fill:#9467bd;stroke:#9467bd;" x="132.280749" xlink:href="#mee111406d9" y="129.127015"/>
    </g>
   </g>
   <g id="PathCollection_67">
    <g clip-path="url(#pbaed1a46f6)">
     <use style="fill:#9467bd;stroke:#9467bd;" x="137.254011" xlink:href="#mee111406d9" y="122.978411"/>
    </g>
   </g>
   <g id="PathCollection_68">
    <g clip-path="url(#pbaed1a46f6)">
     <use style="fill:#9467bd;stroke:#9467bd;" x="142.227273" xlink:href="#mee111406d9" y="116.75769"/>
    </g>
   </g>
   <g id="PathCollection_69">
    <g clip-path="url(#pbaed1a46f6)">
     <use style="fill:#9467bd;stroke:#9467bd;" x="147.200535" xlink:href="#mee111406d9" y="110.522859"/>
    </g>
   </g>
   <g id="PathCollection_70">
    <g clip-path="url(#pbaed1a46f6)">
     <use style="fill:#9467bd;stroke:#9467bd;" x="152.173797" xlink:href="#mee111406d9" y="104.333668"/>
    </g>
   </g>
   <g id="PathCollection_71">
    <g clip-path="url(#pbaed1a46f6)">
     <use style="fill:#9467bd;stroke:#9467bd;" x="157.147059" xlink:href="#mee111406d9" y="98.250713"/>
    </g>
   </g>
   <g id="PathCollection_72">
    <g clip-path="url(#pbaed1a46f6)">
     <use style="fill:#9467bd;stroke:#9467bd;" x="162.120321" xlink:href="#mee111406d9" y="92.334377"/>
    </g>
   </g>
   <g id="PathCollection_73">
    <g clip-path="url(#pbaed1a46f6)">
     <use style="fill:#9467bd;stroke:#9467bd;" x="167.093583" xlink:href="#mee111406d9" y="86.643637"/>
    </g>
   </g>
   <g id="PathCollection_74">
    <g clip-path="url(#pbaed1a46f6)">
     <use style="fill:#9467bd;stroke:#9467bd;" x="172.066845" xlink:href="#mee111406d9" y="81.2348"/>
    </g>
   </g>
   <g id="PathCollection_75">
    <g clip-path="url(#pbaed1a46f6)">
     <use style="fill:#9467bd;stroke:#9467bd;" x="177.040107" xlink:href="#mee111406d9" y="76.160188"/>
    </g>
   </g>
   <g id="PathCollection_76">
    <g clip-path="url(#pbaed1a46f6)">
     <use style="fill:#9467bd;stroke:#9467bd;" x="182.013369" xlink:href="#mee111406d9" y="71.466821"/>
    </g>
   </g>
   <g id="PathCollection_77">
    <g clip-path="url(#pbaed1a46f6)">
     <use style="fill:#9467bd;stroke:#9467bd;" x="186.986631" xlink:href="#mee111406d9" y="67.195135"/>
    </g>
   </g>
   <g id="PathCollection_78">
    <g clip-path="url(#pbaed1a46f6)">
     <use style="fill:#9467bd;stroke:#9467bd;" x="191.959893" xlink:href="#mee111406d9" y="63.377779"/>
    </g>
   </g>
   <g id="PathCollection_79">
    <g clip-path="url(#pbaed1a46f6)">
     <use style="fill:#9467bd;stroke:#9467bd;" x="196.933155" xlink:href="#mee111406d9" y="60.038522"/>
    </g>
   </g>
   <g id="PathCollection_80">
    <g clip-path="url(#pbaed1a46f6)">
     <use style="fill:#9467bd;stroke:#9467bd;" x="201.906417" xlink:href="#mee111406d9" y="57.191317"/>
    </g>
   </g>
   <g id="PathCollection_81">
    <g clip-path="url(#pbaed1a46f6)">
     <use style="fill:#9467bd;stroke:#9467bd;" x="206.879679" xlink:href="#mee111406d9" y="54.83956"/>
    </g>
   </g>
   <g id="PathCollection_82">
    <g clip-path="url(#pbaed1a46f6)">
     <use style="fill:#9467bd;stroke:#9467bd;" x="211.852941" xlink:href="#mee111406d9" y="52.975586"/>
    </g>
   </g>
   <g id="PathCollection_83">
    <g clip-path="url(#pbaed1a46f6)">
     <use style="fill:#9467bd;stroke:#9467bd;" x="216.826203" xlink:href="#mee111406d9" y="51.58043"/>
    </g>
   </g>
   <g id="PathCollection_84">
    <g clip-path="url(#pbaed1a46f6)">
     <use style="fill:#9467bd;stroke:#9467bd;" x="221.799465" xlink:href="#mee111406d9" y="50.623913"/>
    </g>
   </g>
   <g id="PathCollection_85">
    <g clip-path="url(#pbaed1a46f6)">
     <use style="fill:#9467bd;stroke:#9467bd;" x="226.772727" xlink:href="#mee111406d9" y="50.065076"/>
    </g>
   </g>
   <g id="PathCollection_86">
    <g clip-path="url(#pbaed1a46f6)">
     <use style="fill:#9467bd;stroke:#9467bd;" x="231.745989" xlink:href="#mee111406d9" y="49.853002"/>
    </g>
   </g>
   <g id="PathCollection_87">
    <g clip-path="url(#pbaed1a46f6)">
     <use style="fill:#9467bd;stroke:#9467bd;" x="236.719251" xlink:href="#mee111406d9" y="49.928082"/>
    </g>
   </g>
   <g id="PathCollection_88">
    <g clip-path="url(#pbaed1a46f6)">
     <use style="fill:#9467bd;stroke:#9467bd;" x="241.692513" xlink:href="#mee111406d9" y="50.223746"/>
    </g>
   </g>
   <g id="PathCollection_89">
    <g clip-path="url(#pbaed1a46f6)">
     <use style="fill:#9467bd;stroke:#9467bd;" x="246.665775" xlink:href="#mee111406d9" y="50.668704"/>
    </g>
   </g>
   <g id="PathCollection_90">
    <g clip-path="url(#pbaed1a46f6)">
     <use style="fill:#9467bd;stroke:#9467bd;" x="251.639037" xlink:href="#mee111406d9" y="51.189749"/>
    </g>
   </g>
   <g id="PathCollection_91">
    <g clip-path="url(#pbaed1a46f6)">
     <use style="fill:#9467bd;stroke:#9467bd;" x="256.612299" xlink:href="#mee111406d9" y="51.715139"/>
    </g>
   </g>
   <g id="PathCollection_92">
    <g clip-path="url(#pbaed1a46f6)">
     <use style="fill:#9467bd;stroke:#9467bd;" x="261.585561" xlink:href="#mee111406d9" y="52.178622"/>
    </g>
   </g>
   <g id="PathCollection_93">
    <g clip-path="url(#pbaed1a46f6)">
     <use style="fill:#9467bd;stroke:#9467bd;" x="266.558824" xlink:href="#mee111406d9" y="52.524124"/>
    </g>
   </g>
   <g id="PathCollection_94">
    <g clip-path="url(#pbaed1a46f6)">
     <use style="fill:#9467bd;stroke:#9467bd;" x="271.532086" xlink:href="#mee111406d9" y="52.711151"/>
    </g>
   </g>
   <g id="PathCollection_95">
    <g clip-path="url(#pbaed1a46f6)">
     <use style="fill:#9467bd;stroke:#9467bd;" x="276.505348" xlink:href="#mee111406d9" y="52.720942"/>
    </g>
   </g>
   <g id="PathCollection_96">
    <g clip-path="url(#pbaed1a46f6)">
     <use style="fill:#9467bd;stroke:#9467bd;" x="281.47861" xlink:href="#mee111406d9" y="52.56341"/>
    </g>
   </g>
   <g id="PathCollection_97">
    <g clip-path="url(#pbaed1a46f6)">
     <use style="fill:#9467bd;stroke:#9467bd;" x="286.451872" xlink:href="#mee111406d9" y="52.284913"/>
    </g>
   </g>
   <g id="PathCollection_98">
    <g clip-path="url(#pbaed1a46f6)">
     <use style="fill:#9467bd;stroke:#9467bd;" x="291.425134" xlink:href="#mee111406d9" y="51.976902"/>
    </g>
   </g>
   <g id="PathCollection_99">
    <g clip-path="url(#pbaed1a46f6)">
     <use style="fill:#9467bd;stroke:#9467bd;" x="296.398396" xlink:href="#mee111406d9" y="51.785463"/>
    </g>
   </g>
   <g id="PathCollection_100">
    <g clip-path="url(#pbaed1a46f6)">
     <use style="fill:#9467bd;stroke:#9467bd;" x="301.371658" xlink:href="#mee111406d9" y="51.921824"/>
    </g>
   </g>
   <g id="PathCollection_101">
    <g clip-path="url(#pbaed1a46f6)">
     <use style="fill:#9467bd;stroke:#9467bd;" x="306.34492" xlink:href="#mee111406d9" y="52.673839"/>
    </g>
   </g>
   <g id="PathCollection_102">
    <g clip-path="url(#pbaed1a46f6)">
     <use style="fill:#9467bd;stroke:#9467bd;" x="311.318182" xlink:href="#mee111406d9" y="54.418511"/>
    </g>
   </g>
   <g id="matplotlib.axis_1"/>
   <g id="matplotlib.axis_2">
    <g id="ytick_1">
     <g id="line2d_1">
      <defs>
       <path d="M 0 0 
L -3.5 0 
" id="md9f7eb3bef" style="stroke:#000000;stroke-width:0.8;"/>
      </defs>
      <g>
       <use style="stroke:#000000;stroke-width:0.8;" x="45" xlink:href="#md9f7eb3bef" y="181.161278"/>
      </g>
     </g>
     <g id="text_1">
      <!-- 0.0 -->
      <g transform="translate(22.096875 184.960497)scale(0.1 -0.1)">
       <defs>
        <path d="M 31.78125 66.40625 
Q 24.171875 66.40625 20.328125 58.90625 
Q 16.5 51.421875 16.5 36.375 
Q 16.5 21.390625 20.328125 13.890625 
Q 24.171875 6.390625 31.78125 6.390625 
Q 39.453125 6.390625 43.28125 13.890625 
Q 47.125 21.390625 47.125 36.375 
Q 47.125 51.421875 43.28125 58.90625 
Q 39.453125 66.40625 31.78125 66.40625 
z
M 31.78125 74.21875 
Q 44.046875 74.21875 50.515625 64.515625 
Q 56.984375 54.828125 56.984375 36.375 
Q 56.984375 17.96875 50.515625 8.265625 
Q 44.046875 -1.421875 31.78125 -1.421875 
Q 19.53125 -1.421875 13.0625 8.265625 
Q 6.59375 17.96875 6.59375 36.375 
Q 6.59375 54.828125 13.0625 64.515625 
Q 19.53125 74.21875 31.78125 74.21875 
z
" id="DejaVuSans-48"/>
        <path d="M 10.6875 12.40625 
L 21 12.40625 
L 21 0 
L 10.6875 0 
z
" id="DejaVuSans-46"/>
       </defs>
       <use xlink:href="#DejaVuSans-48"/>
       <use x="63.623047" xlink:href="#DejaVuSans-46"/>
       <use x="95.410156" xlink:href="#DejaVuSans-48"/>
      </g>
     </g>
    </g>
    <g id="ytick_2">
     <g id="line2d_2">
      <g>
       <use style="stroke:#000000;stroke-width:0.8;" x="45" xlink:href="#md9f7eb3bef" y="146.134721"/>
      </g>
     </g>
     <g id="text_2">
      <!-- 0.1 -->
      <g transform="translate(22.096875 149.93394)scale(0.1 -0.1)">
       <defs>
        <path d="M 12.40625 8.296875 
L 28.515625 8.296875 
L 28.515625 63.921875 
L 10.984375 60.40625 
L 10.984375 69.390625 
L 28.421875 72.90625 
L 38.28125 72.90625 
L 38.28125 8.296875 
L 54.390625 8.296875 
L 54.390625 0 
L 12.40625 0 
z
" id="DejaVuSans-49"/>
       </defs>
       <use xlink:href="#DejaVuSans-48"/>
       <use x="63.623047" xlink:href="#DejaVuSans-46"/>
       <use x="95.410156" xlink:href="#DejaVuSans-49"/>
      </g>
     </g>
    </g>
    <g id="ytick_3">
     <g id="line2d_3">
      <g>
       <use style="stroke:#000000;stroke-width:0.8;" x="45" xlink:href="#md9f7eb3bef" y="111.108164"/>
      </g>
     </g>
     <g id="text_3">
      <!-- 0.2 -->
      <g transform="translate(22.096875 114.907383)scale(0.1 -0.1)">
       <defs>
        <path d="M 19.1875 8.296875 
L 53.609375 8.296875 
L 53.609375 0 
L 7.328125 0 
L 7.328125 8.296875 
Q 12.9375 14.109375 22.625 23.890625 
Q 32.328125 33.6875 34.8125 36.53125 
Q 39.546875 41.84375 41.421875 45.53125 
Q 43.3125 49.21875 43.3125 52.78125 
Q 43.3125 58.59375 39.234375 62.25 
Q 35.15625 65.921875 28.609375 65.921875 
Q 23.96875 65.921875 18.8125 64.3125 
Q 13.671875 62.703125 7.8125 59.421875 
L 7.8125 69.390625 
Q 13.765625 71.78125 18.9375 73 
Q 24.125 74.21875 28.421875 74.21875 
Q 39.75 74.21875 46.484375 68.546875 
Q 53.21875 62.890625 53.21875 53.421875 
Q 53.21875 48.921875 51.53125 44.890625 
Q 49.859375 40.875 45.40625 35.40625 
Q 44.1875 33.984375 37.640625 27.21875 
Q 31.109375 20.453125 19.1875 8.296875 
z
" id="DejaVuSans-50"/>
       </defs>
       <use xlink:href="#DejaVuSans-48"/>
       <use x="63.623047" xlink:href="#DejaVuSans-46"/>
       <use x="95.410156" xlink:href="#DejaVuSans-50"/>
      </g>
     </g>
    </g>
    <g id="ytick_4">
     <g id="line2d_4">
      <g>
       <use style="stroke:#000000;stroke-width:0.8;" x="45" xlink:href="#md9f7eb3bef" y="76.081608"/>
      </g>
     </g>
     <g id="text_4">
      <!-- 0.3 -->
      <g transform="translate(22.096875 79.880826)scale(0.1 -0.1)">
       <defs>
        <path d="M 40.578125 39.3125 
Q 47.65625 37.796875 51.625 33 
Q 55.609375 28.21875 55.609375 21.1875 
Q 55.609375 10.40625 48.1875 4.484375 
Q 40.765625 -1.421875 27.09375 -1.421875 
Q 22.515625 -1.421875 17.65625 -0.515625 
Q 12.796875 0.390625 7.625 2.203125 
L 7.625 11.71875 
Q 11.71875 9.328125 16.59375 8.109375 
Q 21.484375 6.890625 26.8125 6.890625 
Q 36.078125 6.890625 40.9375 10.546875 
Q 45.796875 14.203125 45.796875 21.1875 
Q 45.796875 27.640625 41.28125 31.265625 
Q 36.765625 34.90625 28.71875 34.90625 
L 20.21875 34.90625 
L 20.21875 43.015625 
L 29.109375 43.015625 
Q 36.375 43.015625 40.234375 45.921875 
Q 44.09375 48.828125 44.09375 54.296875 
Q 44.09375 59.90625 40.109375 62.90625 
Q 36.140625 65.921875 28.71875 65.921875 
Q 24.65625 65.921875 20.015625 65.03125 
Q 15.375 64.15625 9.8125 62.3125 
L 9.8125 71.09375 
Q 15.4375 72.65625 20.34375 73.4375 
Q 25.25 74.21875 29.59375 74.21875 
Q 40.828125 74.21875 47.359375 69.109375 
Q 53.90625 64.015625 53.90625 55.328125 
Q 53.90625 49.265625 50.4375 45.09375 
Q 46.96875 40.921875 40.578125 39.3125 
z
" id="DejaVuSans-51"/>
       </defs>
       <use xlink:href="#DejaVuSans-48"/>
       <use x="63.623047" xlink:href="#DejaVuSans-46"/>
       <use x="95.410156" xlink:href="#DejaVuSans-51"/>
      </g>
     </g>
    </g>
    <g id="ytick_5">
     <g id="line2d_5">
      <g>
       <use style="stroke:#000000;stroke-width:0.8;" x="45" xlink:href="#md9f7eb3bef" y="41.055051"/>
      </g>
     </g>
     <g id="text_5">
      <!-- 0.4 -->
      <g transform="translate(22.096875 44.85427)scale(0.1 -0.1)">
       <defs>
        <path d="M 37.796875 64.3125 
L 12.890625 25.390625 
L 37.796875 25.390625 
z
M 35.203125 72.90625 
L 47.609375 72.90625 
L 47.609375 25.390625 
L 58.015625 25.390625 
L 58.015625 17.1875 
L 47.609375 17.1875 
L 47.609375 0 
L 37.796875 0 
L 37.796875 17.1875 
L 4.890625 17.1875 
L 4.890625 26.703125 
z
" id="DejaVuSans-52"/>
       </defs>
       <use xlink:href="#DejaVuSans-48"/>
       <use x="63.623047" xlink:href="#DejaVuSans-46"/>
       <use x="95.410156" xlink:href="#DejaVuSans-52"/>
      </g>
     </g>
    </g>
   </g>
   <g id="line2d_6">
    <path clip-path="url(#pbaed1a46f6)" d="M 57.681818 181.161278 
L 86.920455 181.050795 
L 89.697193 180.741417 
L 92.453209 180.208621 
L 95.312834 179.425344 
L 98.27607 178.381635 
L 101.40508 177.041821 
L 104.720588 175.377189 
L 108.264037 173.34351 
L 112.035428 170.917301 
L 116.096925 168.033954 
L 120.489973 164.635862 
L 125.256016 160.663041 
L 130.498663 155.999502 
L 136.38369 150.460749 
L 143.118316 143.809401 
L 151.199866 135.502006 
L 161.768048 124.299209 
L 199.35762 84.179137 
L 206.983289 76.430517 
L 210.112299 73.586796 
L 213.096257 71.173926 
L 216.059492 69.060937 
L 219.064171 67.190709 
L 222.089572 65.567541 
L 225.177139 64.162698 
L 228.326872 62.974236 
L 231.53877 61.999465 
L 234.854278 61.226724 
L 238.273396 60.660049 
L 241.816845 60.300523 
L 245.484626 60.152926 
L 249.318182 60.222103 
L 253.358957 60.52 
L 257.606952 61.058167 
L 262.124332 61.857208 
L 266.95254 62.940454 
L 272.133021 64.333482 
L 277.769385 66.082994 
L 283.965241 68.243547 
L 290.886364 70.897902 
L 298.802139 74.178205 
L 308.272059 78.352459 
L 311.318182 79.737432 
L 311.318182 79.737432 
" style="fill:none;stroke:#9467bd;stroke-dasharray:11.1,4.8;stroke-dashoffset:0;stroke-width:3;"/>
   </g>
   <g id="line2d_7">
    <path clip-path="url(#pbaed1a46f6)" d="M 57.681818 181.161278 
L 86.630348 181.050169 
L 89.158422 180.743412 
L 91.645053 180.216635 
L 94.19385 179.448208 
L 96.846257 178.415638 
L 99.643717 177.085632 
L 102.606952 175.426032 
L 105.735963 173.415149 
L 109.072193 171.002592 
L 112.636364 168.146743 
L 116.46992 164.785698 
L 120.614305 160.851678 
L 125.131684 156.251448 
L 130.104947 150.863135 
L 135.637701 144.534303 
L 141.957888 136.957005 
L 149.417781 127.651627 
L 158.887701 115.460345 
L 174.988636 94.305353 
L 191.877005 72.250141 
L 202.859626 58.272667 
L 207.542781 52.573203 
L 210.485294 49.360217 
L 213.303476 46.609188 
L 216.100936 44.185724 
L 218.898396 42.05246 
L 221.716578 40.179859 
L 224.555481 38.557317 
L 227.435829 37.165223 
L 230.35762 35.998342 
L 233.341578 35.045263 
L 236.387701 34.30468 
L 239.537433 33.768912 
L 242.770053 33.444953 
L 246.127005 33.332763 
L 249.629011 33.440208 
L 253.27607 33.775675 
L 257.109626 34.352631 
L 261.171123 35.191172 
L 265.481283 36.310854 
L 270.081551 37.738095 
L 275.054813 39.517933 
L 280.442513 41.686132 
L 286.368984 44.315126 
L 293 47.505622 
L 300.584225 51.408277 
L 309.660428 56.338477 
L 311.318182 57.261796 
L 311.318182 57.261796 
" style="fill:none;stroke:#9467bd;stroke-linecap:square;stroke-width:3;"/>
   </g>
   <g id="patch_3">
    <path d="M 45 189 
L 45 25.92 
" style="fill:none;stroke:#000000;stroke-linecap:square;stroke-linejoin:miter;stroke-width:0.8;"/>
   </g>
   <g id="patch_4">
    <path d="M 324 189 
L 324 25.92 
" style="fill:none;stroke:#000000;stroke-linecap:square;stroke-linejoin:miter;stroke-width:0.8;"/>
   </g>
   <g id="patch_5">
    <path d="M 45 189 
L 324 189 
" style="fill:none;stroke:#000000;stroke-linecap:square;stroke-linejoin:miter;stroke-width:0.8;"/>
   </g>
   <g id="patch_6">
    <path d="M 45 25.92 
L 324 25.92 
" style="fill:none;stroke:#000000;stroke-linecap:square;stroke-linejoin:miter;stroke-width:0.8;"/>
   </g>
  </g>
 </g>
 <defs>
  <clipPath id="pbaed1a46f6">
   <rect height="163.08" width="279" x="45" y="25.92"/>
  </clipPath>
 </defs>
</svg>
