<?xml version="1.0" encoding="utf-8" standalone="no"?>
<!DOCTYPE svg PUBLIC "-//W3C//DTD SVG 1.1//EN"
  "http://www.w3.org/Graphics/SVG/1.1/DTD/svg11.dtd">
<svg xmlns:xlink="http://www.w3.org/1999/xlink" width="432pt" height="288pt" viewBox="0 0 432 288" xmlns="http://www.w3.org/2000/svg" version="1.1">
 <metadata>
  <rdf:RDF xmlns:dc="http://purl.org/dc/elements/1.1/" xmlns:cc="http://creativecommons.org/ns#" xmlns:rdf="http://www.w3.org/1999/02/22-rdf-syntax-ns#">
   <cc:Work>
    <dc:type rdf:resource="http://purl.org/dc/dcmitype/StillImage"/>
    <dc:date>2025-02-10T11:05:35.014211</dc:date>
    <dc:format>image/svg+xml</dc:format>
    <dc:creator>
     <cc:Agent>
      <dc:title>Matplotlib v3.7.5, https://matplotlib.org/</dc:title>
     </cc:Agent>
    </dc:creator>
   </cc:Work>
  </rdf:RDF>
 </metadata>
 <defs>
  <style type="text/css">*{stroke-linejoin: round; stroke-linecap: butt}</style>
 </defs>
 <g id="figure_1">
  <g id="patch_1">
   <path d="M 0 288 
L 432 288 
L 432 0 
L 0 0 
L 0 288 
z
" style="fill: none"/>
  </g>
  <g id="axes_1">
   <g id="patch_2">
    <path d="M 54 252 
L 388.8 252 
L 388.8 34.56 
L 54 34.56 
z
" style="fill: #ffffff"/>
   </g>
   <g id="PathCollection_1">
    <path d="M 75.186096 255.535534 
C 76.123731 255.535534 77.023089 255.163008 77.686096 254.5 
C 78.349104 253.836992 78.72163 252.937635 78.72163 252 
C 78.72163 251.062365 78.349104 250.163008 77.686096 249.5 
C 77.023089 248.836992 76.123731 248.464466 75.186096 248.464466 
C 74.248462 248.464466 73.349104 248.836992 72.686096 249.5 
C 72.023089 250.163008 71.650562 251.062365 71.650562 252 
C 71.650562 252.937635 72.023089 253.836992 72.686096 254.5 
C 73.349104 255.163008 74.248462 255.535534 75.186096 255.535534 
L 75.186096 255.535534 
z
" clip-path="url(#p32ee5393c0)" style="fill: none; stroke: #2ca02c"/>
   </g>
   <g id="PathCollection_2">
    <path d="M 81.154011 255.535534 
C 82.091645 255.535534 82.991003 255.163008 83.654011 254.5 
C 84.317018 253.836992 84.689545 252.937635 84.689545 252 
C 84.689545 251.062365 84.317018 250.163008 83.654011 249.5 
C 82.991003 248.836992 82.091645 248.464466 81.154011 248.464466 
C 80.216376 248.464466 79.317018 248.836992 78.654011 249.5 
C 77.991003 250.163008 77.618477 251.062365 77.618477 252 
C 77.618477 252.937635 77.991003 253.836992 78.654011 254.5 
C 79.317018 255.163008 80.216376 255.535534 81.154011 255.535534 
L 81.154011 255.535534 
z
" clip-path="url(#p32ee5393c0)" style="fill: none; stroke: #2ca02c"/>
   </g>
   <g id="PathCollection_3">
    <path d="M 87.121925 255.535534 
C 88.05956 255.535534 88.958917 255.163008 89.621925 254.5 
C 90.284933 253.836992 90.657459 252.937635 90.657459 252 
C 90.657459 251.062365 90.284933 250.163008 89.621925 249.5 
C 88.958917 248.836992 88.05956 248.464466 87.121925 248.464466 
C 86.184291 248.464466 85.284933 248.836992 84.621925 249.5 
C 83.958917 250.163008 83.586391 251.062365 83.586391 252 
C 83.586391 252.937635 83.958917 253.836992 84.621925 254.5 
C 85.284933 255.163008 86.184291 255.535534 87.121925 255.535534 
L 87.121925 255.535534 
z
" clip-path="url(#p32ee5393c0)" style="fill: none; stroke: #2ca02c"/>
   </g>
   <g id="PathCollection_4">
    <path d="M 93.08984 255.535534 
C 94.027474 255.535534 94.926832 255.163008 95.58984 254.5 
C 96.252847 253.836992 96.625373 252.937635 96.625373 252 
C 96.625373 251.062365 96.252847 250.163008 95.58984 249.5 
C 94.926832 248.836992 94.027474 248.464466 93.08984 248.464466 
C 92.152205 248.464466 91.252847 248.836992 90.58984 249.5 
C 89.926832 250.163008 89.554306 251.062365 89.554306 252 
C 89.554306 252.937635 89.926832 253.836992 90.58984 254.5 
C 91.252847 255.163008 92.152205 255.535534 93.08984 255.535534 
L 93.08984 255.535534 
z
" clip-path="url(#p32ee5393c0)" style="fill: none; stroke: #2ca02c"/>
   </g>
   <g id="PathCollection_5">
    <path d="M 99.057754 255.535534 
C 99.995389 255.535534 100.894746 255.163008 101.557754 254.5 
C 102.220762 253.836992 102.593288 252.937635 102.593288 252 
C 102.593288 251.062365 102.220762 250.163008 101.557754 249.5 
C 100.894746 248.836992 99.995389 248.464466 99.057754 248.464466 
C 98.120119 248.464466 97.220762 248.836992 96.557754 249.5 
C 95.894746 250.163008 95.52222 251.062365 95.52222 252 
C 95.52222 252.937635 95.894746 253.836992 96.557754 254.5 
C 97.220762 255.163008 98.120119 255.535534 99.057754 255.535534 
L 99.057754 255.535534 
z
" clip-path="url(#p32ee5393c0)" style="fill: none; stroke: #2ca02c"/>
   </g>
   <g id="PathCollection_6">
    <path d="M 105.025668 255.535534 
C 105.963303 255.535534 106.862661 255.163008 107.525668 254.5 
C 108.188676 253.836992 108.561202 252.937635 108.561202 252 
C 108.561202 251.062365 108.188676 250.163008 107.525668 249.5 
C 106.862661 248.836992 105.963303 248.464466 105.025668 248.464466 
C 104.088034 248.464466 103.188676 248.836992 102.525668 249.5 
C 101.862661 250.163008 101.490135 251.062365 101.490135 252 
C 101.490135 252.937635 101.862661 253.836992 102.525668 254.5 
C 103.188676 255.163008 104.088034 255.535534 105.025668 255.535534 
L 105.025668 255.535534 
z
" clip-path="url(#p32ee5393c0)" style="fill: none; stroke: #2ca02c"/>
   </g>
   <g id="PathCollection_7">
    <path d="M 110.993583 255.535534 
C 111.931217 255.535534 112.830575 255.163008 113.493583 254.5 
C 114.156591 253.836992 114.529117 252.937635 114.529117 252 
C 114.529117 251.062365 114.156591 250.163008 113.493583 249.5 
C 112.830575 248.836992 111.931217 248.464466 110.993583 248.464466 
C 110.055948 248.464466 109.156591 248.836992 108.493583 249.5 
C 107.830575 250.163008 107.458049 251.062365 107.458049 252 
C 107.458049 252.937635 107.830575 253.836992 108.493583 254.5 
C 109.156591 255.163008 110.055948 255.535534 110.993583 255.535534 
L 110.993583 255.535534 
z
" clip-path="url(#p32ee5393c0)" style="fill: none; stroke: #2ca02c"/>
   </g>
   <g id="PathCollection_8">
    <path d="M 116.961497 255.535534 
C 117.899132 255.535534 118.79849 255.163008 119.461497 254.5 
C 120.124505 253.836992 120.497031 252.937635 120.497031 252 
C 120.497031 251.062365 120.124505 250.163008 119.461497 249.5 
C 118.79849 248.836992 117.899132 248.464466 116.961497 248.464466 
C 116.023863 248.464466 115.124505 248.836992 114.461497 249.5 
C 113.79849 250.163008 113.425963 251.062365 113.425963 252 
C 113.425963 252.937635 113.79849 253.836992 114.461497 254.5 
C 115.124505 255.163008 116.023863 255.535534 116.961497 255.535534 
L 116.961497 255.535534 
z
" clip-path="url(#p32ee5393c0)" style="fill: none; stroke: #2ca02c"/>
   </g>
   <g id="PathCollection_9">
    <path d="M 122.929412 255.535534 
C 123.867046 255.535534 124.766404 255.163008 125.429412 254.5 
C 126.09242 253.836992 126.464946 252.937635 126.464946 252 
C 126.464946 251.062365 126.09242 250.163008 125.429412 249.5 
C 124.766404 248.836992 123.867046 248.464466 122.929412 248.464466 
C 121.991777 248.464466 121.09242 248.836992 120.429412 249.5 
C 119.766404 250.163008 119.393878 251.062365 119.393878 252 
C 119.393878 252.937635 119.766404 253.836992 120.429412 254.5 
C 121.09242 255.163008 121.991777 255.535534 122.929412 255.535534 
L 122.929412 255.535534 
z
" clip-path="url(#p32ee5393c0)" style="fill: none; stroke: #2ca02c"/>
   </g>
   <g id="PathCollection_10">
    <path d="M 128.897326 255.535534 
C 129.834961 255.535534 130.734318 255.163008 131.397326 254.5 
C 132.060334 253.836992 132.43286 252.937635 132.43286 252 
C 132.43286 251.062365 132.060334 250.163008 131.397326 249.5 
C 130.734318 248.836992 129.834961 248.464466 128.897326 248.464466 
C 127.959692 248.464466 127.060334 248.836992 126.397326 249.5 
C 125.734318 250.163008 125.361792 251.062365 125.361792 252 
C 125.361792 252.937635 125.734318 253.836992 126.397326 254.5 
C 127.060334 255.163008 127.959692 255.535534 128.897326 255.535534 
L 128.897326 255.535534 
z
" clip-path="url(#p32ee5393c0)" style="fill: none; stroke: #2ca02c"/>
   </g>
   <g id="PathCollection_11">
    <path d="M 134.865241 255.535534 
C 135.802875 255.535534 136.702233 255.163008 137.365241 254.5 
C 138.028248 253.836992 138.400775 252.937635 138.400775 252 
C 138.400775 251.062365 138.028248 250.163008 137.365241 249.5 
C 136.702233 248.836992 135.802875 248.464466 134.865241 248.464466 
C 133.927606 248.464466 133.028248 248.836992 132.365241 249.5 
C 131.702233 250.163008 131.329707 251.062365 131.329707 252 
C 131.329707 252.937635 131.702233 253.836992 132.365241 254.5 
C 133.028248 255.163008 133.927606 255.535534 134.865241 255.535534 
L 134.865241 255.535534 
z
" clip-path="url(#p32ee5393c0)" style="fill: none; stroke: #2ca02c"/>
   </g>
   <g id="PathCollection_12">
    <path d="M 140.833155 255.535534 
C 141.77079 255.535534 142.670147 255.163008 143.333155 254.5 
C 143.996163 253.836992 144.368689 252.937635 144.368689 252 
C 144.368689 251.062365 143.996163 250.163008 143.333155 249.5 
C 142.670147 248.836992 141.77079 248.464466 140.833155 248.464466 
C 139.895521 248.464466 138.996163 248.836992 138.333155 249.5 
C 137.670147 250.163008 137.297621 251.062365 137.297621 252 
C 137.297621 252.937635 137.670147 253.836992 138.333155 254.5 
C 138.996163 255.163008 139.895521 255.535534 140.833155 255.535534 
L 140.833155 255.535534 
z
" clip-path="url(#p32ee5393c0)" style="fill: none; stroke: #2ca02c"/>
   </g>
   <g id="PathCollection_13">
    <path d="M 146.80107 255.535534 
C 147.738704 255.535534 148.638062 255.163008 149.30107 254.5 
C 149.964077 253.836992 150.336603 252.937635 150.336603 252 
C 150.336603 251.062365 149.964077 250.163008 149.30107 249.5 
C 148.638062 248.836992 147.738704 248.464466 146.80107 248.464466 
C 145.863435 248.464466 144.964077 248.836992 144.30107 249.5 
C 143.638062 250.163008 143.265536 251.062365 143.265536 252 
C 143.265536 252.937635 143.638062 253.836992 144.30107 254.5 
C 144.964077 255.163008 145.863435 255.535534 146.80107 255.535534 
L 146.80107 255.535534 
z
" clip-path="url(#p32ee5393c0)" style="fill: none; stroke: #2ca02c"/>
   </g>
   <g id="PathCollection_14">
    <path d="M 152.768984 255.535534 
C 153.706619 255.535534 154.605976 255.163008 155.268984 254.5 
C 155.931992 253.836992 156.304518 252.937635 156.304518 252 
C 156.304518 251.062365 155.931992 250.163008 155.268984 249.5 
C 154.605976 248.836992 153.706619 248.464466 152.768984 248.464466 
C 151.831349 248.464466 150.931992 248.836992 150.268984 249.5 
C 149.605976 250.163008 149.23345 251.062365 149.23345 252 
C 149.23345 252.937635 149.605976 253.836992 150.268984 254.5 
C 150.931992 255.163008 151.831349 255.535534 152.768984 255.535534 
L 152.768984 255.535534 
z
" clip-path="url(#p32ee5393c0)" style="fill: none; stroke: #2ca02c"/>
   </g>
   <g id="PathCollection_15">
    <path d="M 158.736898 255.535534 
C 159.674533 255.535534 160.573891 255.163008 161.236898 254.5 
C 161.899906 253.836992 162.272432 252.937635 162.272432 252 
C 162.272432 251.062365 161.899906 250.163008 161.236898 249.5 
C 160.573891 248.836992 159.674533 248.464466 158.736898 248.464466 
C 157.799264 248.464466 156.899906 248.836992 156.236898 249.5 
C 155.573891 250.163008 155.201364 251.062365 155.201364 252 
C 155.201364 252.937635 155.573891 253.836992 156.236898 254.5 
C 156.899906 255.163008 157.799264 255.535534 158.736898 255.535534 
L 158.736898 255.535534 
z
" clip-path="url(#p32ee5393c0)" style="fill: none; stroke: #2ca02c"/>
   </g>
   <g id="PathCollection_16">
    <path d="M 164.704813 255.535534 
C 165.642447 255.535534 166.541805 255.163008 167.204813 254.5 
C 167.867821 253.836992 168.240347 252.937635 168.240347 252 
C 168.240347 251.062365 167.867821 250.163008 167.204813 249.5 
C 166.541805 248.836992 165.642447 248.464466 164.704813 248.464466 
C 163.767178 248.464466 162.867821 248.836992 162.204813 249.5 
C 161.541805 250.163008 161.169279 251.062365 161.169279 252 
C 161.169279 252.937635 161.541805 253.836992 162.204813 254.5 
C 162.867821 255.163008 163.767178 255.535534 164.704813 255.535534 
L 164.704813 255.535534 
z
" clip-path="url(#p32ee5393c0)" style="fill: none; stroke: #2ca02c"/>
   </g>
   <g id="PathCollection_17">
    <path d="M 170.672727 255.535534 
C 171.610362 255.535534 172.50972 255.163008 173.172727 254.5 
C 173.835735 253.836992 174.208261 252.937635 174.208261 252 
C 174.208261 251.062365 173.835735 250.163008 173.172727 249.5 
C 172.50972 248.836992 171.610362 248.464466 170.672727 248.464466 
C 169.735093 248.464466 168.835735 248.836992 168.172727 249.5 
C 167.50972 250.163008 167.137193 251.062365 167.137193 252 
C 167.137193 252.937635 167.50972 253.836992 168.172727 254.5 
C 168.835735 255.163008 169.735093 255.535534 170.672727 255.535534 
L 170.672727 255.535534 
z
" clip-path="url(#p32ee5393c0)" style="fill: none; stroke: #2ca02c"/>
   </g>
   <g id="PathCollection_18">
    <path d="M 176.640642 255.535534 
C 177.578276 255.535534 178.477634 255.163008 179.140642 254.5 
C 179.803649 253.836992 180.176176 252.937635 180.176176 252 
C 180.176176 251.062365 179.803649 250.163008 179.140642 249.5 
C 178.477634 248.836992 177.578276 248.464466 176.640642 248.464466 
C 175.703007 248.464466 174.803649 248.836992 174.140642 249.5 
C 173.477634 250.163008 173.105108 251.062365 173.105108 252 
C 173.105108 252.937635 173.477634 253.836992 174.140642 254.5 
C 174.803649 255.163008 175.703007 255.535534 176.640642 255.535534 
L 176.640642 255.535534 
z
" clip-path="url(#p32ee5393c0)" style="fill: none; stroke: #2ca02c"/>
   </g>
   <g id="PathCollection_19">
    <path d="M 182.608556 255.535534 
C 183.546191 255.535534 184.445548 255.163008 185.108556 254.5 
C 185.771564 253.836992 186.14409 252.937635 186.14409 252 
C 186.14409 251.062365 185.771564 250.163008 185.108556 249.5 
C 184.445548 248.836992 183.546191 248.464466 182.608556 248.464466 
C 181.670922 248.464466 180.771564 248.836992 180.108556 249.5 
C 179.445548 250.163008 179.073022 251.062365 179.073022 252 
C 179.073022 252.937635 179.445548 253.836992 180.108556 254.5 
C 180.771564 255.163008 181.670922 255.535534 182.608556 255.535534 
L 182.608556 255.535534 
z
" clip-path="url(#p32ee5393c0)" style="fill: none; stroke: #2ca02c"/>
   </g>
   <g id="PathCollection_20">
    <path d="M 188.576471 255.535534 
C 189.514105 255.535534 190.413463 255.163008 191.076471 254.5 
C 191.739478 253.836992 192.112004 252.937635 192.112004 252 
C 192.112004 251.062365 191.739478 250.163008 191.076471 249.5 
C 190.413463 248.836992 189.514105 248.464466 188.576471 248.464466 
C 187.638836 248.464466 186.739478 248.836992 186.076471 249.5 
C 185.413463 250.163008 185.040937 251.062365 185.040937 252 
C 185.040937 252.937635 185.413463 253.836992 186.076471 254.5 
C 186.739478 255.163008 187.638836 255.535534 188.576471 255.535534 
L 188.576471 255.535534 
z
" clip-path="url(#p32ee5393c0)" style="fill: none; stroke: #2ca02c"/>
   </g>
   <g id="PathCollection_21">
    <path d="M 194.544385 255.535534 
C 195.48202 255.535534 196.381377 255.163008 197.044385 254.5 
C 197.707393 253.836992 198.079919 252.937635 198.079919 252 
C 198.079919 251.062365 197.707393 250.163008 197.044385 249.5 
C 196.381377 248.836992 195.48202 248.464466 194.544385 248.464466 
C 193.60675 248.464466 192.707393 248.836992 192.044385 249.5 
C 191.381377 250.163008 191.008851 251.062365 191.008851 252 
C 191.008851 252.937635 191.381377 253.836992 192.044385 254.5 
C 192.707393 255.163008 193.60675 255.535534 194.544385 255.535534 
L 194.544385 255.535534 
z
" clip-path="url(#p32ee5393c0)" style="fill: none; stroke: #2ca02c"/>
   </g>
   <g id="PathCollection_22">
    <path d="M 200.512299 255.535534 
C 201.449934 255.535534 202.349292 255.163008 203.012299 254.5 
C 203.675307 253.836992 204.047833 252.937635 204.047833 252 
C 204.047833 251.062365 203.675307 250.163008 203.012299 249.5 
C 202.349292 248.836992 201.449934 248.464466 200.512299 248.464466 
C 199.574665 248.464466 198.675307 248.836992 198.012299 249.5 
C 197.349292 250.163008 196.976766 251.062365 196.976766 252 
C 196.976766 252.937635 197.349292 253.836992 198.012299 254.5 
C 198.675307 255.163008 199.574665 255.535534 200.512299 255.535534 
L 200.512299 255.535534 
z
" clip-path="url(#p32ee5393c0)" style="fill: none; stroke: #2ca02c"/>
   </g>
   <g id="PathCollection_23">
    <path d="M 206.480214 255.535534 
C 207.417848 255.535534 208.317206 255.163008 208.980214 254.5 
C 209.643222 253.836992 210.015748 252.937635 210.015748 252 
C 210.015748 251.062365 209.643222 250.163008 208.980214 249.5 
C 208.317206 248.836992 207.417848 248.464466 206.480214 248.464466 
C 205.542579 248.464466 204.643222 248.836992 203.980214 249.5 
C 203.317206 250.163008 202.94468 251.062365 202.94468 252 
C 202.94468 252.937635 203.317206 253.836992 203.980214 254.5 
C 204.643222 255.163008 205.542579 255.535534 206.480214 255.535534 
L 206.480214 255.535534 
z
" clip-path="url(#p32ee5393c0)" style="fill: none; stroke: #2ca02c"/>
   </g>
   <g id="PathCollection_24">
    <path d="M 212.448128 255.535534 
C 213.385763 255.535534 214.285121 255.163008 214.948128 254.5 
C 215.611136 253.836992 215.983662 252.937635 215.983662 252 
C 215.983662 251.062365 215.611136 250.163008 214.948128 249.5 
C 214.285121 248.836992 213.385763 248.464466 212.448128 248.464466 
C 211.510494 248.464466 210.611136 248.836992 209.948128 249.5 
C 209.285121 250.163008 208.912594 251.062365 208.912594 252 
C 208.912594 252.937635 209.285121 253.836992 209.948128 254.5 
C 210.611136 255.163008 211.510494 255.535534 212.448128 255.535534 
L 212.448128 255.535534 
z
" clip-path="url(#p32ee5393c0)" style="fill: none; stroke: #2ca02c"/>
   </g>
   <g id="PathCollection_25">
    <path d="M 218.416043 255.535534 
C 219.353677 255.535534 220.253035 255.163008 220.916043 254.5 
C 221.579051 253.836992 221.951577 252.937635 221.951577 252 
C 221.951577 251.062365 221.579051 250.163008 220.916043 249.5 
C 220.253035 248.836992 219.353677 248.464466 218.416043 248.464466 
C 217.478408 248.464466 216.579051 248.836992 215.916043 249.5 
C 215.253035 250.163008 214.880509 251.062365 214.880509 252 
C 214.880509 252.937635 215.253035 253.836992 215.916043 254.5 
C 216.579051 255.163008 217.478408 255.535534 218.416043 255.535534 
L 218.416043 255.535534 
z
" clip-path="url(#p32ee5393c0)" style="fill: none; stroke: #2ca02c"/>
   </g>
   <g id="PathCollection_26">
    <path d="M 224.383957 255.535534 
C 225.321592 255.535534 226.220949 255.163008 226.883957 254.5 
C 227.546965 253.836992 227.919491 252.937635 227.919491 252 
C 227.919491 251.062365 227.546965 250.163008 226.883957 249.5 
C 226.220949 248.836992 225.321592 248.464466 224.383957 248.464466 
C 223.446323 248.464466 222.546965 248.836992 221.883957 249.5 
C 221.220949 250.163008 220.848423 251.062365 220.848423 252 
C 220.848423 252.937635 221.220949 253.836992 221.883957 254.5 
C 222.546965 255.163008 223.446323 255.535534 224.383957 255.535534 
L 224.383957 255.535534 
z
" clip-path="url(#p32ee5393c0)" style="fill: none; stroke: #2ca02c"/>
   </g>
   <g id="PathCollection_27">
    <path d="M 230.351872 255.535534 
C 231.289506 255.535534 232.188864 255.163008 232.851872 254.5 
C 233.514879 253.836992 233.887406 252.937635 233.887406 252 
C 233.887406 251.062365 233.514879 250.163008 232.851872 249.5 
C 232.188864 248.836992 231.289506 248.464466 230.351872 248.464466 
C 229.414237 248.464466 228.514879 248.836992 227.851872 249.5 
C 227.188864 250.163008 226.816338 251.062365 226.816338 252 
C 226.816338 252.937635 227.188864 253.836992 227.851872 254.5 
C 228.514879 255.163008 229.414237 255.535534 230.351872 255.535534 
L 230.351872 255.535534 
z
" clip-path="url(#p32ee5393c0)" style="fill: none; stroke: #2ca02c"/>
   </g>
   <g id="PathCollection_28">
    <path d="M 236.319786 255.535534 
C 237.257421 255.535534 238.156778 255.163008 238.819786 254.5 
C 239.482794 253.836992 239.85532 252.937635 239.85532 252 
C 239.85532 251.062365 239.482794 250.163008 238.819786 249.5 
C 238.156778 248.836992 237.257421 248.464466 236.319786 248.464466 
C 235.382152 248.464466 234.482794 248.836992 233.819786 249.5 
C 233.156778 250.163008 232.784252 251.062365 232.784252 252 
C 232.784252 252.937635 233.156778 253.836992 233.819786 254.5 
C 234.482794 255.163008 235.382152 255.535534 236.319786 255.535534 
L 236.319786 255.535534 
z
" clip-path="url(#p32ee5393c0)" style="fill: none; stroke: #2ca02c"/>
   </g>
   <g id="PathCollection_29">
    <path d="M 242.287701 255.535534 
C 243.225335 255.535534 244.124693 255.163008 244.787701 254.5 
C 245.450708 253.836992 245.823234 252.937635 245.823234 252 
C 245.823234 251.062365 245.450708 250.163008 244.787701 249.5 
C 244.124693 248.836992 243.225335 248.464466 242.287701 248.464466 
C 241.350066 248.464466 240.450708 248.836992 239.787701 249.5 
C 239.124693 250.163008 238.752167 251.062365 238.752167 252 
C 238.752167 252.937635 239.124693 253.836992 239.787701 254.5 
C 240.450708 255.163008 241.350066 255.535534 242.287701 255.535534 
L 242.287701 255.535534 
z
" clip-path="url(#p32ee5393c0)" style="fill: none; stroke: #2ca02c"/>
   </g>
   <g id="PathCollection_30">
    <path d="M 248.255615 255.535534 
C 249.19325 255.535534 250.092607 255.163008 250.755615 254.5 
C 251.418623 253.836992 251.791149 252.937635 251.791149 252 
C 251.791149 251.062365 251.418623 250.163008 250.755615 249.5 
C 250.092607 248.836992 249.19325 248.464466 248.255615 248.464466 
C 247.31798 248.464466 246.418623 248.836992 245.755615 249.5 
C 245.092607 250.163008 244.720081 251.062365 244.720081 252 
C 244.720081 252.937635 245.092607 253.836992 245.755615 254.5 
C 246.418623 255.163008 247.31798 255.535534 248.255615 255.535534 
L 248.255615 255.535534 
z
" clip-path="url(#p32ee5393c0)" style="fill: none; stroke: #2ca02c"/>
   </g>
   <g id="PathCollection_31">
    <path d="M 254.223529 255.535534 
C 255.161164 255.535534 256.060522 255.163008 256.723529 254.5 
C 257.386537 253.836992 257.759063 252.937635 257.759063 252 
C 257.759063 251.062365 257.386537 250.163008 256.723529 249.5 
C 256.060522 248.836992 255.161164 248.464466 254.223529 248.464466 
C 253.285895 248.464466 252.386537 248.836992 251.723529 249.5 
C 251.060522 250.163008 250.687996 251.062365 250.687996 252 
C 250.687996 252.937635 251.060522 253.836992 251.723529 254.5 
C 252.386537 255.163008 253.285895 255.535534 254.223529 255.535534 
L 254.223529 255.535534 
z
" clip-path="url(#p32ee5393c0)" style="fill: none; stroke: #2ca02c"/>
   </g>
   <g id="PathCollection_32">
    <path d="M 260.191444 255.535534 
C 261.129078 255.535534 262.028436 255.163008 262.691444 254.5 
C 263.354452 253.836992 263.726978 252.937635 263.726978 252 
C 263.726978 251.062365 263.354452 250.163008 262.691444 249.5 
C 262.028436 248.836992 261.129078 248.464466 260.191444 248.464466 
C 259.253809 248.464466 258.354452 248.836992 257.691444 249.5 
C 257.028436 250.163008 256.65591 251.062365 256.65591 252 
C 256.65591 252.937635 257.028436 253.836992 257.691444 254.5 
C 258.354452 255.163008 259.253809 255.535534 260.191444 255.535534 
L 260.191444 255.535534 
z
" clip-path="url(#p32ee5393c0)" style="fill: none; stroke: #2ca02c"/>
   </g>
   <g id="PathCollection_33">
    <path d="M 266.159358 255.535534 
C 267.096993 255.535534 267.996351 255.163008 268.659358 254.5 
C 269.322366 253.836992 269.694892 252.937635 269.694892 252 
C 269.694892 251.062365 269.322366 250.163008 268.659358 249.5 
C 267.996351 248.836992 267.096993 248.464466 266.159358 248.464466 
C 265.221724 248.464466 264.322366 248.836992 263.659358 249.5 
C 262.996351 250.163008 262.623824 251.062365 262.623824 252 
C 262.623824 252.937635 262.996351 253.836992 263.659358 254.5 
C 264.322366 255.163008 265.221724 255.535534 266.159358 255.535534 
L 266.159358 255.535534 
z
" clip-path="url(#p32ee5393c0)" style="fill: none; stroke: #2ca02c"/>
   </g>
   <g id="PathCollection_34">
    <path d="M 272.127273 255.535534 
C 273.064907 255.535534 273.964265 255.163008 274.627273 254.5 
C 275.29028 253.836992 275.662807 252.937635 275.662807 252 
C 275.662807 251.062365 275.29028 250.163008 274.627273 249.5 
C 273.964265 248.836992 273.064907 248.464466 272.127273 248.464466 
C 271.189638 248.464466 270.29028 248.836992 269.627273 249.5 
C 268.964265 250.163008 268.591739 251.062365 268.591739 252 
C 268.591739 252.937635 268.964265 253.836992 269.627273 254.5 
C 270.29028 255.163008 271.189638 255.535534 272.127273 255.535534 
L 272.127273 255.535534 
z
" clip-path="url(#p32ee5393c0)" style="fill: none; stroke: #2ca02c"/>
   </g>
   <g id="PathCollection_35">
    <path d="M 278.095187 255.535534 
C 279.032822 255.535534 279.932179 255.163008 280.595187 254.5 
C 281.258195 253.836992 281.630721 252.937635 281.630721 252 
C 281.630721 251.062365 281.258195 250.163008 280.595187 249.5 
C 279.932179 248.836992 279.032822 248.464466 278.095187 248.464466 
C 277.157553 248.464466 276.258195 248.836992 275.595187 249.5 
C 274.932179 250.163008 274.559653 251.062365 274.559653 252 
C 274.559653 252.937635 274.932179 253.836992 275.595187 254.5 
C 276.258195 255.163008 277.157553 255.535534 278.095187 255.535534 
L 278.095187 255.535534 
z
" clip-path="url(#p32ee5393c0)" style="fill: none; stroke: #2ca02c"/>
   </g>
   <g id="PathCollection_36">
    <path d="M 284.063102 255.535534 
C 285.000736 255.535534 285.900094 255.163008 286.563102 254.5 
C 287.226109 253.836992 287.598636 252.937635 287.598636 252 
C 287.598636 251.062365 287.226109 250.163008 286.563102 249.5 
C 285.900094 248.836992 285.000736 248.464466 284.063102 248.464466 
C 283.125467 248.464466 282.226109 248.836992 281.563102 249.5 
C 280.900094 250.163008 280.527568 251.062365 280.527568 252 
C 280.527568 252.937635 280.900094 253.836992 281.563102 254.5 
C 282.226109 255.163008 283.125467 255.535534 284.063102 255.535534 
L 284.063102 255.535534 
z
" clip-path="url(#p32ee5393c0)" style="fill: none; stroke: #2ca02c"/>
   </g>
   <g id="PathCollection_37">
    <path d="M 290.031016 255.535534 
C 290.968651 255.535534 291.868008 255.163008 292.531016 254.5 
C 293.194024 253.836992 293.56655 252.937635 293.56655 252 
C 293.56655 251.062365 293.194024 250.163008 292.531016 249.5 
C 291.868008 248.836992 290.968651 248.464466 290.031016 248.464466 
C 289.093381 248.464466 288.194024 248.836992 287.531016 249.5 
C 286.868008 250.163008 286.495482 251.062365 286.495482 252 
C 286.495482 252.937635 286.868008 253.836992 287.531016 254.5 
C 288.194024 255.163008 289.093381 255.535534 290.031016 255.535534 
L 290.031016 255.535534 
z
" clip-path="url(#p32ee5393c0)" style="fill: none; stroke: #2ca02c"/>
   </g>
   <g id="PathCollection_38">
    <path d="M 295.99893 255.535534 
C 296.936565 255.535534 297.835923 255.163008 298.49893 254.5 
C 299.161938 253.836992 299.534464 252.937635 299.534464 252 
C 299.534464 251.062365 299.161938 250.163008 298.49893 249.5 
C 297.835923 248.836992 296.936565 248.464466 295.99893 248.464466 
C 295.061296 248.464466 294.161938 248.836992 293.49893 249.5 
C 292.835923 250.163008 292.463397 251.062365 292.463397 252 
C 292.463397 252.937635 292.835923 253.836992 293.49893 254.5 
C 294.161938 255.163008 295.061296 255.535534 295.99893 255.535534 
L 295.99893 255.535534 
z
" clip-path="url(#p32ee5393c0)" style="fill: none; stroke: #2ca02c"/>
   </g>
   <g id="PathCollection_39">
    <path d="M 301.966845 255.535534 
C 302.904479 255.535534 303.803837 255.163008 304.466845 254.5 
C 305.129853 253.836992 305.502379 252.937635 305.502379 252 
C 305.502379 251.062365 305.129853 250.163008 304.466845 249.5 
C 303.803837 248.836992 302.904479 248.464466 301.966845 248.464466 
C 301.02921 248.464466 300.129853 248.836992 299.466845 249.5 
C 298.803837 250.163008 298.431311 251.062365 298.431311 252 
C 298.431311 252.937635 298.803837 253.836992 299.466845 254.5 
C 300.129853 255.163008 301.02921 255.535534 301.966845 255.535534 
L 301.966845 255.535534 
z
" clip-path="url(#p32ee5393c0)" style="fill: none; stroke: #2ca02c"/>
   </g>
   <g id="PathCollection_40">
    <path d="M 307.934759 255.535534 
C 308.872394 255.535534 309.771752 255.163008 310.434759 254.5 
C 311.097767 253.836992 311.470293 252.937635 311.470293 252 
C 311.470293 251.062365 311.097767 250.163008 310.434759 249.5 
C 309.771752 248.836992 308.872394 248.464466 307.934759 248.464466 
C 306.997125 248.464466 306.097767 248.836992 305.434759 249.5 
C 304.771752 250.163008 304.399225 251.062365 304.399225 252 
C 304.399225 252.937635 304.771752 253.836992 305.434759 254.5 
C 306.097767 255.163008 306.997125 255.535534 307.934759 255.535534 
L 307.934759 255.535534 
z
" clip-path="url(#p32ee5393c0)" style="fill: none; stroke: #2ca02c"/>
   </g>
   <g id="PathCollection_41">
    <path d="M 313.902674 255.535534 
C 314.840308 255.535534 315.739666 255.163008 316.402674 254.5 
C 317.065682 253.836992 317.438208 252.937635 317.438208 252 
C 317.438208 251.062365 317.065682 250.163008 316.402674 249.5 
C 315.739666 248.836992 314.840308 248.464466 313.902674 248.464466 
C 312.965039 248.464466 312.065682 248.836992 311.402674 249.5 
C 310.739666 250.163008 310.36714 251.062365 310.36714 252 
C 310.36714 252.937635 310.739666 253.836992 311.402674 254.5 
C 312.065682 255.163008 312.965039 255.535534 313.902674 255.535534 
L 313.902674 255.535534 
z
" clip-path="url(#p32ee5393c0)" style="fill: none; stroke: #2ca02c"/>
   </g>
   <g id="PathCollection_42">
    <path d="M 319.870588 255.535534 
C 320.808223 255.535534 321.70758 255.163008 322.370588 254.5 
C 323.033596 253.836992 323.406122 252.937635 323.406122 252 
C 323.406122 251.062365 323.033596 250.163008 322.370588 249.5 
C 321.70758 248.836992 320.808223 248.464466 319.870588 248.464466 
C 318.932954 248.464466 318.033596 248.836992 317.370588 249.5 
C 316.70758 250.163008 316.335054 251.062365 316.335054 252 
C 316.335054 252.937635 316.70758 253.836992 317.370588 254.5 
C 318.033596 255.163008 318.932954 255.535534 319.870588 255.535534 
L 319.870588 255.535534 
z
" clip-path="url(#p32ee5393c0)" style="fill: none; stroke: #2ca02c"/>
   </g>
   <g id="PathCollection_43">
    <path d="M 325.838503 255.535534 
C 326.776137 255.535534 327.675495 255.163008 328.338503 254.5 
C 329.00151 253.836992 329.374037 252.937635 329.374037 252 
C 329.374037 251.062365 329.00151 250.163008 328.338503 249.5 
C 327.675495 248.836992 326.776137 248.464466 325.838503 248.464466 
C 324.900868 248.464466 324.00151 248.836992 323.338503 249.5 
C 322.675495 250.163008 322.302969 251.062365 322.302969 252 
C 322.302969 252.937635 322.675495 253.836992 323.338503 254.5 
C 324.00151 255.163008 324.900868 255.535534 325.838503 255.535534 
L 325.838503 255.535534 
z
" clip-path="url(#p32ee5393c0)" style="fill: none; stroke: #2ca02c"/>
   </g>
   <g id="PathCollection_44">
    <path d="M 331.806417 255.535534 
C 332.744052 255.535534 333.643409 255.163008 334.306417 254.5 
C 334.969425 253.836992 335.341951 252.937635 335.341951 252 
C 335.341951 251.062365 334.969425 250.163008 334.306417 249.5 
C 333.643409 248.836992 332.744052 248.464466 331.806417 248.464466 
C 330.868783 248.464466 329.969425 248.836992 329.306417 249.5 
C 328.643409 250.163008 328.270883 251.062365 328.270883 252 
C 328.270883 252.937635 328.643409 253.836992 329.306417 254.5 
C 329.969425 255.163008 330.868783 255.535534 331.806417 255.535534 
L 331.806417 255.535534 
z
" clip-path="url(#p32ee5393c0)" style="fill: none; stroke: #2ca02c"/>
   </g>
   <g id="PathCollection_45">
    <path d="M 337.774332 255.535534 
C 338.711966 255.535534 339.611324 255.163008 340.274332 254.5 
C 340.937339 253.836992 341.309865 252.937635 341.309865 252 
C 341.309865 251.062365 340.937339 250.163008 340.274332 249.5 
C 339.611324 248.836992 338.711966 248.464466 337.774332 248.464466 
C 336.836697 248.464466 335.937339 248.836992 335.274332 249.5 
C 334.611324 250.163008 334.238798 251.062365 334.238798 252 
C 334.238798 252.937635 334.611324 253.836992 335.274332 254.5 
C 335.937339 255.163008 336.836697 255.535534 337.774332 255.535534 
L 337.774332 255.535534 
z
" clip-path="url(#p32ee5393c0)" style="fill: none; stroke: #2ca02c"/>
   </g>
   <g id="PathCollection_46">
    <path d="M 343.742246 255.535534 
C 344.679881 255.535534 345.579238 255.163008 346.242246 254.5 
C 346.905254 253.836992 347.27778 252.937635 347.27778 252 
C 347.27778 251.062365 346.905254 250.163008 346.242246 249.5 
C 345.579238 248.836992 344.679881 248.464466 343.742246 248.464466 
C 342.804611 248.464466 341.905254 248.836992 341.242246 249.5 
C 340.579238 250.163008 340.206712 251.062365 340.206712 252 
C 340.206712 252.937635 340.579238 253.836992 341.242246 254.5 
C 341.905254 255.163008 342.804611 255.535534 343.742246 255.535534 
L 343.742246 255.535534 
z
" clip-path="url(#p32ee5393c0)" style="fill: none; stroke: #2ca02c"/>
   </g>
   <g id="PathCollection_47">
    <path d="M 349.71016 255.535534 
C 350.647795 255.535534 351.547153 255.163008 352.21016 254.5 
C 352.873168 253.836992 353.245694 252.937635 353.245694 252 
C 353.245694 251.062365 352.873168 250.163008 352.21016 249.5 
C 351.547153 248.836992 350.647795 248.464466 349.71016 248.464466 
C 348.772526 248.464466 347.873168 248.836992 347.21016 249.5 
C 346.547153 250.163008 346.174627 251.062365 346.174627 252 
C 346.174627 252.937635 346.547153 253.836992 347.21016 254.5 
C 347.873168 255.163008 348.772526 255.535534 349.71016 255.535534 
L 349.71016 255.535534 
z
" clip-path="url(#p32ee5393c0)" style="fill: none; stroke: #2ca02c"/>
   </g>
   <g id="PathCollection_48">
    <path d="M 355.678075 255.535534 
C 356.615709 255.535534 357.515067 255.163008 358.178075 254.5 
C 358.841083 253.836992 359.213609 252.937635 359.213609 252 
C 359.213609 251.062365 358.841083 250.163008 358.178075 249.5 
C 357.515067 248.836992 356.615709 248.464466 355.678075 248.464466 
C 354.74044 248.464466 353.841083 248.836992 353.178075 249.5 
C 352.515067 250.163008 352.142541 251.062365 352.142541 252 
C 352.142541 252.937635 352.515067 253.836992 353.178075 254.5 
C 353.841083 255.163008 354.74044 255.535534 355.678075 255.535534 
L 355.678075 255.535534 
z
" clip-path="url(#p32ee5393c0)" style="fill: none; stroke: #2ca02c"/>
   </g>
   <g id="PathCollection_49">
    <path d="M 361.645989 255.535534 
C 362.583624 255.535534 363.482982 255.163008 364.145989 254.5 
C 364.808997 253.836992 365.181523 252.937635 365.181523 252 
C 365.181523 251.062365 364.808997 250.163008 364.145989 249.5 
C 363.482982 248.836992 362.583624 248.464466 361.645989 248.464466 
C 360.708355 248.464466 359.808997 248.836992 359.145989 249.5 
C 358.482982 250.163008 358.110455 251.062365 358.110455 252 
C 358.110455 252.937635 358.482982 253.836992 359.145989 254.5 
C 359.808997 255.163008 360.708355 255.535534 361.645989 255.535534 
L 361.645989 255.535534 
z
" clip-path="url(#p32ee5393c0)" style="fill: none; stroke: #2ca02c"/>
   </g>
   <g id="PathCollection_50">
    <path d="M 367.613904 255.535534 
C 368.551538 255.535534 369.450896 255.163008 370.113904 254.5 
C 370.776911 253.836992 371.149438 252.937635 371.149438 252 
C 371.149438 251.062365 370.776911 250.163008 370.113904 249.5 
C 369.450896 248.836992 368.551538 248.464466 367.613904 248.464466 
C 366.676269 248.464466 365.776911 248.836992 365.113904 249.5 
C 364.450896 250.163008 364.07837 251.062365 364.07837 252 
C 364.07837 252.937635 364.450896 253.836992 365.113904 254.5 
C 365.776911 255.163008 366.676269 255.535534 367.613904 255.535534 
L 367.613904 255.535534 
z
" clip-path="url(#p32ee5393c0)" style="fill: none; stroke: #2ca02c"/>
   </g>
   <g id="PathCollection_51">
    <path d="M 373.581818 255.535534 
C 374.519453 255.535534 375.41881 255.163008 376.081818 254.5 
C 376.744826 253.836992 377.117352 252.937635 377.117352 252 
C 377.117352 251.062365 376.744826 250.163008 376.081818 249.5 
C 375.41881 248.836992 374.519453 248.464466 373.581818 248.464466 
C 372.644184 248.464466 371.744826 248.836992 371.081818 249.5 
C 370.41881 250.163008 370.046284 251.062365 370.046284 252 
C 370.046284 252.937635 370.41881 253.836992 371.081818 254.5 
C 371.744826 255.163008 372.644184 255.535534 373.581818 255.535534 
L 373.581818 255.535534 
z
" clip-path="url(#p32ee5393c0)" style="fill: none; stroke: #2ca02c"/>
   </g>
   <g id="PathCollection_52">
    <defs>
     <path id="m3fc17a0fac" d="M 0 3.535534 
C 0.937635 3.535534 1.836992 3.163008 2.5 2.5 
C 3.163008 1.836992 3.535534 0.937635 3.535534 0 
C 3.535534 -0.937635 3.163008 -1.836992 2.5 -2.5 
C 1.836992 -3.163008 0.937635 -3.535534 0 -3.535534 
C -0.937635 -3.535534 -1.836992 -3.163008 -2.5 -2.5 
C -3.163008 -1.836992 -3.535534 -0.937635 -3.535534 0 
C -3.535534 0.937635 -3.163008 1.836992 -2.5 2.5 
C -1.836992 3.163008 -0.937635 3.535534 0 3.535534 
z
" style="stroke: #2ca02c"/>
    </defs>
    <g clip-path="url(#p32ee5393c0)">
     <use xlink:href="#m3fc17a0fac" x="75.186096" y="252" style="fill: #2ca02c; stroke: #2ca02c"/>
    </g>
   </g>
   <g id="PathCollection_53">
    <g clip-path="url(#p32ee5393c0)">
     <use xlink:href="#m3fc17a0fac" x="81.154011" y="252" style="fill: #2ca02c; stroke: #2ca02c"/>
    </g>
   </g>
   <g id="PathCollection_54">
    <g clip-path="url(#p32ee5393c0)">
     <use xlink:href="#m3fc17a0fac" x="87.121925" y="252" style="fill: #2ca02c; stroke: #2ca02c"/>
    </g>
   </g>
   <g id="PathCollection_55">
    <g clip-path="url(#p32ee5393c0)">
     <use xlink:href="#m3fc17a0fac" x="93.08984" y="252" style="fill: #2ca02c; stroke: #2ca02c"/>
    </g>
   </g>
   <g id="PathCollection_56">
    <g clip-path="url(#p32ee5393c0)">
     <use xlink:href="#m3fc17a0fac" x="99.057754" y="252" style="fill: #2ca02c; stroke: #2ca02c"/>
    </g>
   </g>
   <g id="PathCollection_57">
    <g clip-path="url(#p32ee5393c0)">
     <use xlink:href="#m3fc17a0fac" x="105.025668" y="252" style="fill: #2ca02c; stroke: #2ca02c"/>
    </g>
   </g>
   <g id="PathCollection_58">
    <g clip-path="url(#p32ee5393c0)">
     <use xlink:href="#m3fc17a0fac" x="110.993583" y="252" style="fill: #2ca02c; stroke: #2ca02c"/>
    </g>
   </g>
   <g id="PathCollection_59">
    <g clip-path="url(#p32ee5393c0)">
     <use xlink:href="#m3fc17a0fac" x="116.961497" y="252" style="fill: #2ca02c; stroke: #2ca02c"/>
    </g>
   </g>
   <g id="PathCollection_60">
    <g clip-path="url(#p32ee5393c0)">
     <use xlink:href="#m3fc17a0fac" x="122.929412" y="252" style="fill: #2ca02c; stroke: #2ca02c"/>
    </g>
   </g>
   <g id="PathCollection_61">
    <g clip-path="url(#p32ee5393c0)">
     <use xlink:href="#m3fc17a0fac" x="128.897326" y="252" style="fill: #2ca02c; stroke: #2ca02c"/>
    </g>
   </g>
   <g id="PathCollection_62">
    <g clip-path="url(#p32ee5393c0)">
     <use xlink:href="#m3fc17a0fac" x="134.865241" y="252" style="fill: #2ca02c; stroke: #2ca02c"/>
    </g>
   </g>
   <g id="PathCollection_63">
    <g clip-path="url(#p32ee5393c0)">
     <use xlink:href="#m3fc17a0fac" x="140.833155" y="252" style="fill: #2ca02c; stroke: #2ca02c"/>
    </g>
   </g>
   <g id="PathCollection_64">
    <g clip-path="url(#p32ee5393c0)">
     <use xlink:href="#m3fc17a0fac" x="146.80107" y="252" style="fill: #2ca02c; stroke: #2ca02c"/>
    </g>
   </g>
   <g id="PathCollection_65">
    <g clip-path="url(#p32ee5393c0)">
     <use xlink:href="#m3fc17a0fac" x="152.768984" y="252" style="fill: #2ca02c; stroke: #2ca02c"/>
    </g>
   </g>
   <g id="PathCollection_66">
    <g clip-path="url(#p32ee5393c0)">
     <use xlink:href="#m3fc17a0fac" x="158.736898" y="252" style="fill: #2ca02c; stroke: #2ca02c"/>
    </g>
   </g>
   <g id="PathCollection_67">
    <g clip-path="url(#p32ee5393c0)">
     <use xlink:href="#m3fc17a0fac" x="164.704813" y="252" style="fill: #2ca02c; stroke: #2ca02c"/>
    </g>
   </g>
   <g id="PathCollection_68">
    <g clip-path="url(#p32ee5393c0)">
     <use xlink:href="#m3fc17a0fac" x="170.672727" y="252" style="fill: #2ca02c; stroke: #2ca02c"/>
    </g>
   </g>
   <g id="PathCollection_69">
    <g clip-path="url(#p32ee5393c0)">
     <use xlink:href="#m3fc17a0fac" x="176.640642" y="252" style="fill: #2ca02c; stroke: #2ca02c"/>
    </g>
   </g>
   <g id="PathCollection_70">
    <g clip-path="url(#p32ee5393c0)">
     <use xlink:href="#m3fc17a0fac" x="182.608556" y="252" style="fill: #2ca02c; stroke: #2ca02c"/>
    </g>
   </g>
   <g id="PathCollection_71">
    <g clip-path="url(#p32ee5393c0)">
     <use xlink:href="#m3fc17a0fac" x="188.576471" y="252" style="fill: #2ca02c; stroke: #2ca02c"/>
    </g>
   </g>
   <g id="PathCollection_72">
    <g clip-path="url(#p32ee5393c0)">
     <use xlink:href="#m3fc17a0fac" x="194.544385" y="252" style="fill: #2ca02c; stroke: #2ca02c"/>
    </g>
   </g>
   <g id="PathCollection_73">
    <g clip-path="url(#p32ee5393c0)">
     <use xlink:href="#m3fc17a0fac" x="200.512299" y="252" style="fill: #2ca02c; stroke: #2ca02c"/>
    </g>
   </g>
   <g id="PathCollection_74">
    <g clip-path="url(#p32ee5393c0)">
     <use xlink:href="#m3fc17a0fac" x="206.480214" y="252" style="fill: #2ca02c; stroke: #2ca02c"/>
    </g>
   </g>
   <g id="PathCollection_75">
    <g clip-path="url(#p32ee5393c0)">
     <use xlink:href="#m3fc17a0fac" x="212.448128" y="252" style="fill: #2ca02c; stroke: #2ca02c"/>
    </g>
   </g>
   <g id="PathCollection_76">
    <g clip-path="url(#p32ee5393c0)">
     <use xlink:href="#m3fc17a0fac" x="218.416043" y="252" style="fill: #2ca02c; stroke: #2ca02c"/>
    </g>
   </g>
   <g id="PathCollection_77">
    <g clip-path="url(#p32ee5393c0)">
     <use xlink:href="#m3fc17a0fac" x="224.383957" y="252" style="fill: #2ca02c; stroke: #2ca02c"/>
    </g>
   </g>
   <g id="PathCollection_78">
    <g clip-path="url(#p32ee5393c0)">
     <use xlink:href="#m3fc17a0fac" x="230.351872" y="252" style="fill: #2ca02c; stroke: #2ca02c"/>
    </g>
   </g>
   <g id="PathCollection_79">
    <g clip-path="url(#p32ee5393c0)">
     <use xlink:href="#m3fc17a0fac" x="236.319786" y="252" style="fill: #2ca02c; stroke: #2ca02c"/>
    </g>
   </g>
   <g id="PathCollection_80">
    <g clip-path="url(#p32ee5393c0)">
     <use xlink:href="#m3fc17a0fac" x="242.287701" y="252" style="fill: #2ca02c; stroke: #2ca02c"/>
    </g>
   </g>
   <g id="PathCollection_81">
    <g clip-path="url(#p32ee5393c0)">
     <use xlink:href="#m3fc17a0fac" x="248.255615" y="252" style="fill: #2ca02c; stroke: #2ca02c"/>
    </g>
   </g>
   <g id="PathCollection_82">
    <g clip-path="url(#p32ee5393c0)">
     <use xlink:href="#m3fc17a0fac" x="254.223529" y="252" style="fill: #2ca02c; stroke: #2ca02c"/>
    </g>
   </g>
   <g id="PathCollection_83">
    <g clip-path="url(#p32ee5393c0)">
     <use xlink:href="#m3fc17a0fac" x="260.191444" y="252" style="fill: #2ca02c; stroke: #2ca02c"/>
    </g>
   </g>
   <g id="PathCollection_84">
    <g clip-path="url(#p32ee5393c0)">
     <use xlink:href="#m3fc17a0fac" x="266.159358" y="252" style="fill: #2ca02c; stroke: #2ca02c"/>
    </g>
   </g>
   <g id="PathCollection_85">
    <g clip-path="url(#p32ee5393c0)">
     <use xlink:href="#m3fc17a0fac" x="272.127273" y="252" style="fill: #2ca02c; stroke: #2ca02c"/>
    </g>
   </g>
   <g id="PathCollection_86">
    <g clip-path="url(#p32ee5393c0)">
     <use xlink:href="#m3fc17a0fac" x="278.095187" y="252" style="fill: #2ca02c; stroke: #2ca02c"/>
    </g>
   </g>
   <g id="PathCollection_87">
    <g clip-path="url(#p32ee5393c0)">
     <use xlink:href="#m3fc17a0fac" x="284.063102" y="252" style="fill: #2ca02c; stroke: #2ca02c"/>
    </g>
   </g>
   <g id="PathCollection_88">
    <g clip-path="url(#p32ee5393c0)">
     <use xlink:href="#m3fc17a0fac" x="290.031016" y="252" style="fill: #2ca02c; stroke: #2ca02c"/>
    </g>
   </g>
   <g id="PathCollection_89">
    <g clip-path="url(#p32ee5393c0)">
     <use xlink:href="#m3fc17a0fac" x="295.99893" y="252" style="fill: #2ca02c; stroke: #2ca02c"/>
    </g>
   </g>
   <g id="PathCollection_90">
    <g clip-path="url(#p32ee5393c0)">
     <use xlink:href="#m3fc17a0fac" x="301.966845" y="252" style="fill: #2ca02c; stroke: #2ca02c"/>
    </g>
   </g>
   <g id="PathCollection_91">
    <g clip-path="url(#p32ee5393c0)">
     <use xlink:href="#m3fc17a0fac" x="307.934759" y="252" style="fill: #2ca02c; stroke: #2ca02c"/>
    </g>
   </g>
   <g id="PathCollection_92">
    <g clip-path="url(#p32ee5393c0)">
     <use xlink:href="#m3fc17a0fac" x="313.902674" y="252" style="fill: #2ca02c; stroke: #2ca02c"/>
    </g>
   </g>
   <g id="PathCollection_93">
    <g clip-path="url(#p32ee5393c0)">
     <use xlink:href="#m3fc17a0fac" x="319.870588" y="252" style="fill: #2ca02c; stroke: #2ca02c"/>
    </g>
   </g>
   <g id="PathCollection_94">
    <g clip-path="url(#p32ee5393c0)">
     <use xlink:href="#m3fc17a0fac" x="325.838503" y="252" style="fill: #2ca02c; stroke: #2ca02c"/>
    </g>
   </g>
   <g id="PathCollection_95">
    <g clip-path="url(#p32ee5393c0)">
     <use xlink:href="#m3fc17a0fac" x="331.806417" y="252" style="fill: #2ca02c; stroke: #2ca02c"/>
    </g>
   </g>
   <g id="PathCollection_96">
    <g clip-path="url(#p32ee5393c0)">
     <use xlink:href="#m3fc17a0fac" x="337.774332" y="252" style="fill: #2ca02c; stroke: #2ca02c"/>
    </g>
   </g>
   <g id="PathCollection_97">
    <g clip-path="url(#p32ee5393c0)">
     <use xlink:href="#m3fc17a0fac" x="343.742246" y="252" style="fill: #2ca02c; stroke: #2ca02c"/>
    </g>
   </g>
   <g id="PathCollection_98">
    <g clip-path="url(#p32ee5393c0)">
     <use xlink:href="#m3fc17a0fac" x="349.71016" y="252" style="fill: #2ca02c; stroke: #2ca02c"/>
    </g>
   </g>
   <g id="PathCollection_99">
    <g clip-path="url(#p32ee5393c0)">
     <use xlink:href="#m3fc17a0fac" x="355.678075" y="252" style="fill: #2ca02c; stroke: #2ca02c"/>
    </g>
   </g>
   <g id="PathCollection_100">
    <g clip-path="url(#p32ee5393c0)">
     <use xlink:href="#m3fc17a0fac" x="361.645989" y="252" style="fill: #2ca02c; stroke: #2ca02c"/>
    </g>
   </g>
   <g id="PathCollection_101">
    <g clip-path="url(#p32ee5393c0)">
     <use xlink:href="#m3fc17a0fac" x="367.613904" y="252" style="fill: #2ca02c; stroke: #2ca02c"/>
    </g>
   </g>
   <g id="PathCollection_102">
    <g clip-path="url(#p32ee5393c0)">
     <use xlink:href="#m3fc17a0fac" x="373.581818" y="252" style="fill: #2ca02c; stroke: #2ca02c"/>
    </g>
   </g>
   <g id="matplotlib.axis_1"/>
   <g id="matplotlib.axis_2">
    <g id="ytick_1">
     <g id="line2d_1">
      <defs>
       <path id="m95e7d15f4d" d="M 0 0 
L -3.5 0 
" style="stroke: #000000; stroke-width: 0.8"/>
      </defs>
      <g>
       <use xlink:href="#m95e7d15f4d" x="54" y="252" style="stroke: #000000; stroke-width: 0.8"/>
      </g>
     </g>
     <g id="text_1">
      <!-- 0.0 -->
      <g transform="translate(31.096875 255.799219) scale(0.1 -0.1)">
       <defs>
        <path id="DejaVuSans-30" d="M 2034 4250 
Q 1547 4250 1301 3770 
Q 1056 3291 1056 2328 
Q 1056 1369 1301 889 
Q 1547 409 2034 409 
Q 2525 409 2770 889 
Q 3016 1369 3016 2328 
Q 3016 3291 2770 3770 
Q 2525 4250 2034 4250 
z
M 2034 4750 
Q 2819 4750 3233 4129 
Q 3647 3509 3647 2328 
Q 3647 1150 3233 529 
Q 2819 -91 2034 -91 
Q 1250 -91 836 529 
Q 422 1150 422 2328 
Q 422 3509 836 4129 
Q 1250 4750 2034 4750 
z
" transform="scale(0.015625)"/>
        <path id="DejaVuSans-2e" d="M 684 794 
L 1344 794 
L 1344 0 
L 684 0 
L 684 794 
z
" transform="scale(0.015625)"/>
       </defs>
       <use xlink:href="#DejaVuSans-30"/>
       <use xlink:href="#DejaVuSans-2e" x="63.623047"/>
       <use xlink:href="#DejaVuSans-30" x="95.410156"/>
      </g>
     </g>
    </g>
    <g id="ytick_2">
     <g id="line2d_2">
      <g>
       <use xlink:href="#m95e7d15f4d" x="54" y="215.76" style="stroke: #000000; stroke-width: 0.8"/>
      </g>
     </g>
     <g id="text_2">
      <!-- 0.1 -->
      <g transform="translate(31.096875 219.559219) scale(0.1 -0.1)">
       <defs>
        <path id="DejaVuSans-31" d="M 794 531 
L 1825 531 
L 1825 4091 
L 703 3866 
L 703 4441 
L 1819 4666 
L 2450 4666 
L 2450 531 
L 3481 531 
L 3481 0 
L 794 0 
L 794 531 
z
" transform="scale(0.015625)"/>
       </defs>
       <use xlink:href="#DejaVuSans-30"/>
       <use xlink:href="#DejaVuSans-2e" x="63.623047"/>
       <use xlink:href="#DejaVuSans-31" x="95.410156"/>
      </g>
     </g>
    </g>
    <g id="ytick_3">
     <g id="line2d_3">
      <g>
       <use xlink:href="#m95e7d15f4d" x="54" y="179.52" style="stroke: #000000; stroke-width: 0.8"/>
      </g>
     </g>
     <g id="text_3">
      <!-- 0.2 -->
      <g transform="translate(31.096875 183.319219) scale(0.1 -0.1)">
       <defs>
        <path id="DejaVuSans-32" d="M 1228 531 
L 3431 531 
L 3431 0 
L 469 0 
L 469 531 
Q 828 903 1448 1529 
Q 2069 2156 2228 2338 
Q 2531 2678 2651 2914 
Q 2772 3150 2772 3378 
Q 2772 3750 2511 3984 
Q 2250 4219 1831 4219 
Q 1534 4219 1204 4116 
Q 875 4013 500 3803 
L 500 4441 
Q 881 4594 1212 4672 
Q 1544 4750 1819 4750 
Q 2544 4750 2975 4387 
Q 3406 4025 3406 3419 
Q 3406 3131 3298 2873 
Q 3191 2616 2906 2266 
Q 2828 2175 2409 1742 
Q 1991 1309 1228 531 
z
" transform="scale(0.015625)"/>
       </defs>
       <use xlink:href="#DejaVuSans-30"/>
       <use xlink:href="#DejaVuSans-2e" x="63.623047"/>
       <use xlink:href="#DejaVuSans-32" x="95.410156"/>
      </g>
     </g>
    </g>
    <g id="ytick_4">
     <g id="line2d_4">
      <g>
       <use xlink:href="#m95e7d15f4d" x="54" y="143.28" style="stroke: #000000; stroke-width: 0.8"/>
      </g>
     </g>
     <g id="text_4">
      <!-- 0.3 -->
      <g transform="translate(31.096875 147.079219) scale(0.1 -0.1)">
       <defs>
        <path id="DejaVuSans-33" d="M 2597 2516 
Q 3050 2419 3304 2112 
Q 3559 1806 3559 1356 
Q 3559 666 3084 287 
Q 2609 -91 1734 -91 
Q 1441 -91 1130 -33 
Q 819 25 488 141 
L 488 750 
Q 750 597 1062 519 
Q 1375 441 1716 441 
Q 2309 441 2620 675 
Q 2931 909 2931 1356 
Q 2931 1769 2642 2001 
Q 2353 2234 1838 2234 
L 1294 2234 
L 1294 2753 
L 1863 2753 
Q 2328 2753 2575 2939 
Q 2822 3125 2822 3475 
Q 2822 3834 2567 4026 
Q 2313 4219 1838 4219 
Q 1578 4219 1281 4162 
Q 984 4106 628 3988 
L 628 4550 
Q 988 4650 1302 4700 
Q 1616 4750 1894 4750 
Q 2613 4750 3031 4423 
Q 3450 4097 3450 3541 
Q 3450 3153 3228 2886 
Q 3006 2619 2597 2516 
z
" transform="scale(0.015625)"/>
       </defs>
       <use xlink:href="#DejaVuSans-30"/>
       <use xlink:href="#DejaVuSans-2e" x="63.623047"/>
       <use xlink:href="#DejaVuSans-33" x="95.410156"/>
      </g>
     </g>
    </g>
    <g id="ytick_5">
     <g id="line2d_5">
      <g>
       <use xlink:href="#m95e7d15f4d" x="54" y="107.04" style="stroke: #000000; stroke-width: 0.8"/>
      </g>
     </g>
     <g id="text_5">
      <!-- 0.4 -->
      <g transform="translate(31.096875 110.839219) scale(0.1 -0.1)">
       <defs>
        <path id="DejaVuSans-34" d="M 2419 4116 
L 825 1625 
L 2419 1625 
L 2419 4116 
z
M 2253 4666 
L 3047 4666 
L 3047 1625 
L 3713 1625 
L 3713 1100 
L 3047 1100 
L 3047 0 
L 2419 0 
L 2419 1100 
L 313 1100 
L 313 1709 
L 2253 4666 
z
" transform="scale(0.015625)"/>
       </defs>
       <use xlink:href="#DejaVuSans-30"/>
       <use xlink:href="#DejaVuSans-2e" x="63.623047"/>
       <use xlink:href="#DejaVuSans-34" x="95.410156"/>
      </g>
     </g>
    </g>
    <g id="ytick_6">
     <g id="line2d_6">
      <g>
       <use xlink:href="#m95e7d15f4d" x="54" y="70.8" style="stroke: #000000; stroke-width: 0.8"/>
      </g>
     </g>
     <g id="text_6">
      <!-- 0.5 -->
      <g transform="translate(31.096875 74.599219) scale(0.1 -0.1)">
       <defs>
        <path id="DejaVuSans-35" d="M 691 4666 
L 3169 4666 
L 3169 4134 
L 1269 4134 
L 1269 2991 
Q 1406 3038 1543 3061 
Q 1681 3084 1819 3084 
Q 2600 3084 3056 2656 
Q 3513 2228 3513 1497 
Q 3513 744 3044 326 
Q 2575 -91 1722 -91 
Q 1428 -91 1123 -41 
Q 819 9 494 109 
L 494 744 
Q 775 591 1075 516 
Q 1375 441 1709 441 
Q 2250 441 2565 725 
Q 2881 1009 2881 1497 
Q 2881 1984 2565 2268 
Q 2250 2553 1709 2553 
Q 1456 2553 1204 2497 
Q 953 2441 691 2322 
L 691 4666 
z
" transform="scale(0.015625)"/>
       </defs>
       <use xlink:href="#DejaVuSans-30"/>
       <use xlink:href="#DejaVuSans-2e" x="63.623047"/>
       <use xlink:href="#DejaVuSans-35" x="95.410156"/>
      </g>
     </g>
    </g>
    <g id="ytick_7">
     <g id="line2d_7">
      <g>
       <use xlink:href="#m95e7d15f4d" x="54" y="34.56" style="stroke: #000000; stroke-width: 0.8"/>
      </g>
     </g>
     <g id="text_7">
      <!-- 0.6 -->
      <g transform="translate(31.096875 38.359219) scale(0.1 -0.1)">
       <defs>
        <path id="DejaVuSans-36" d="M 2113 2584 
Q 1688 2584 1439 2293 
Q 1191 2003 1191 1497 
Q 1191 994 1439 701 
Q 1688 409 2113 409 
Q 2538 409 2786 701 
Q 3034 994 3034 1497 
Q 3034 2003 2786 2293 
Q 2538 2584 2113 2584 
z
M 3366 4563 
L 3366 3988 
Q 3128 4100 2886 4159 
Q 2644 4219 2406 4219 
Q 1781 4219 1451 3797 
Q 1122 3375 1075 2522 
Q 1259 2794 1537 2939 
Q 1816 3084 2150 3084 
Q 2853 3084 3261 2657 
Q 3669 2231 3669 1497 
Q 3669 778 3244 343 
Q 2819 -91 2113 -91 
Q 1303 -91 875 529 
Q 447 1150 447 2328 
Q 447 3434 972 4092 
Q 1497 4750 2381 4750 
Q 2619 4750 2861 4703 
Q 3103 4656 3366 4563 
z
" transform="scale(0.015625)"/>
       </defs>
       <use xlink:href="#DejaVuSans-30"/>
       <use xlink:href="#DejaVuSans-2e" x="63.623047"/>
       <use xlink:href="#DejaVuSans-36" x="95.410156"/>
      </g>
     </g>
    </g>
   </g>
   <g id="line2d_8">
    <path d="M 69.218182 252 
L 107.71123 251.889482 
L 114.574332 251.559268 
L 121.959626 250.977223 
L 130.041176 250.113758 
L 139.067647 248.920805 
L 149.362299 247.329249 
L 161.546791 245.211207 
L 177.038503 242.278791 
L 202.526471 237.192558 
L 235.300267 230.709138 
L 250.394118 227.924052 
L 256.834492 226.991964 
L 263.548396 226.24727 
L 270.709893 225.678448 
L 278.418449 225.291703 
L 286.773529 225.098064 
L 295.924332 225.111689 
L 306.094652 225.353369 
L 317.607754 225.854648 
L 331.010695 226.667413 
L 347.42246 227.895012 
L 369.926471 229.818693 
L 373.581818 230.145479 
L 373.581818 230.145479 
" clip-path="url(#p32ee5393c0)" style="fill: none; stroke-dasharray: 11.1,4.8; stroke-dashoffset: 0; stroke: #2ca02c; stroke-width: 3"/>
   </g>
   <g id="line2d_9">
    <path d="M 69.218182 252 
L 104.055882 251.889239 
L 107.412834 251.578098 
L 110.74492 251.043642 
L 114.201337 250.260461 
L 117.782086 249.220209 
L 121.586631 247.879779 
L 125.590107 246.230441 
L 129.867112 244.223116 
L 134.442513 241.82379 
L 139.366043 238.983776 
L 144.662567 235.667394 
L 150.481283 231.755729 
L 156.921658 227.151729 
L 164.232353 221.64347 
L 172.786364 214.907944 
L 183.404278 206.249091 
L 200.03984 192.354474 
L 222.966578 173.248077 
L 236.29492 162.441699 
L 246.763636 154.222855 
L 250.518449 151.54204 
L 253.95 149.365082 
L 257.356684 147.465228 
L 260.813102 145.79052 
L 264.344118 144.326264 
L 267.949733 143.071152 
L 271.654813 142.016663 
L 275.484225 141.159379 
L 279.437968 140.503759 
L 283.540909 140.050609 
L 287.817914 139.804301 
L 292.268984 139.771721 
L 296.968717 139.962144 
L 301.917112 140.387602 
L 307.163904 141.063969 
L 312.78369 142.015879 
L 318.826203 143.2686 
L 325.390909 144.860813 
L 332.602139 146.843185 
L 340.658824 149.293768 
L 349.884225 152.338427 
L 360.949733 156.233799 
L 373.581818 160.887202 
L 373.581818 160.887202 
" clip-path="url(#p32ee5393c0)" style="fill: none; stroke: #2ca02c; stroke-width: 3; stroke-linecap: square"/>
   </g>
   <g id="patch_3">
    <path d="M 54 252 
L 54 34.56 
" style="fill: none; stroke: #000000; stroke-width: 0.8; stroke-linejoin: miter; stroke-linecap: square"/>
   </g>
   <g id="patch_4">
    <path d="M 388.8 252 
L 388.8 34.56 
" style="fill: none; stroke: #000000; stroke-width: 0.8; stroke-linejoin: miter; stroke-linecap: square"/>
   </g>
   <g id="patch_5">
    <path d="M 54 252 
L 388.8 252 
" style="fill: none; stroke: #000000; stroke-width: 0.8; stroke-linejoin: miter; stroke-linecap: square"/>
   </g>
   <g id="patch_6">
    <path d="M 54 34.56 
L 388.8 34.56 
" style="fill: none; stroke: #000000; stroke-width: 0.8; stroke-linejoin: miter; stroke-linecap: square"/>
   </g>
  </g>
 </g>
 <defs>
  <clipPath id="p32ee5393c0">
   <rect x="54" y="34.56" width="334.8" height="217.44"/>
  </clipPath>
 </defs>
</svg>
