<?xml version="1.0" encoding="utf-8" standalone="no"?>
<!DOCTYPE svg PUBLIC "-//W3C//DTD SVG 1.1//EN"
  "http://www.w3.org/Graphics/SVG/1.1/DTD/svg11.dtd">
<!-- Created with matplotlib (https://matplotlib.org/) -->
<svg height="216pt" version="1.1" viewBox="0 0 360 216" width="360pt" xmlns="http://www.w3.org/2000/svg" xmlns:xlink="http://www.w3.org/1999/xlink">
 <metadata>
  <rdf:RDF xmlns:cc="http://creativecommons.org/ns#" xmlns:dc="http://purl.org/dc/elements/1.1/" xmlns:rdf="http://www.w3.org/1999/02/22-rdf-syntax-ns#">
   <cc:Work>
    <dc:type rdf:resource="http://purl.org/dc/dcmitype/StillImage"/>
    <dc:date>2024-12-09T16:15:10.549363</dc:date>
    <dc:format>image/svg+xml</dc:format>
    <dc:creator>
     <cc:Agent>
      <dc:title>Matplotlib v3.3.2, https://matplotlib.org/</dc:title>
     </cc:Agent>
    </dc:creator>
   </cc:Work>
  </rdf:RDF>
 </metadata>
 <defs>
  <style type="text/css">*{stroke-linecap:butt;stroke-linejoin:round;}</style>
 </defs>
 <g id="figure_1">
  <g id="patch_1">
   <path d="M 0 216 
L 360 216 
L 360 0 
L 0 0 
z
" style="fill:none;"/>
  </g>
  <g id="axes_1">
   <g id="patch_2">
    <path d="M 45 189 
L 324 189 
L 324 25.92 
L 45 25.92 
z
" style="fill:#ffffff;"/>
   </g>
   <g id="PathCollection_1">
    <path clip-path="url(#pa933f568f3)" d="M 62.65508 184.770274 
C 63.592715 184.770274 64.492072 184.397748 65.15508 183.734741 
C 65.818088 183.071733 66.190614 182.172375 66.190614 181.234741 
C 66.190614 180.297106 65.818088 179.397748 65.15508 178.734741 
C 64.492072 178.071733 63.592715 177.699207 62.65508 177.699207 
C 61.717446 177.699207 60.818088 178.071733 60.15508 178.734741 
C 59.492072 179.397748 59.119546 180.297106 59.119546 181.234741 
C 59.119546 182.172375 59.492072 183.071733 60.15508 183.734741 
C 60.818088 184.397748 61.717446 184.770274 62.65508 184.770274 
z
" style="fill:none;stroke:#9467bd;"/>
   </g>
   <g id="PathCollection_2">
    <path clip-path="url(#pa933f568f3)" d="M 67.628342 184.912974 
C 68.565977 184.912974 69.465334 184.540448 70.128342 183.87744 
C 70.79135 183.214432 71.163876 182.315074 71.163876 181.37744 
C 71.163876 180.439805 70.79135 179.540448 70.128342 178.87744 
C 69.465334 178.214432 68.565977 177.841906 67.628342 177.841906 
C 66.690708 177.841906 65.79135 178.214432 65.128342 178.87744 
C 64.465334 179.540448 64.092808 180.439805 64.092808 181.37744 
C 64.092808 182.315074 64.465334 183.214432 65.128342 183.87744 
C 65.79135 184.540448 66.690708 184.912974 67.628342 184.912974 
z
" style="fill:none;stroke:#9467bd;"/>
   </g>
   <g id="PathCollection_3">
    <path clip-path="url(#pa933f568f3)" d="M 72.601604 185.122807 
C 73.539239 185.122807 74.438597 184.75028 75.101604 184.087273 
C 75.764612 183.424265 76.137138 182.524907 76.137138 181.587273 
C 76.137138 180.649638 75.764612 179.75028 75.101604 179.087273 
C 74.438597 178.424265 73.539239 178.051739 72.601604 178.051739 
C 71.66397 178.051739 70.764612 178.424265 70.101604 179.087273 
C 69.438597 179.75028 69.06607 180.649638 69.06607 181.587273 
C 69.06607 182.524907 69.438597 183.424265 70.101604 184.087273 
C 70.764612 184.75028 71.66397 185.122807 72.601604 185.122807 
z
" style="fill:none;stroke:#9467bd;"/>
   </g>
   <g id="PathCollection_4">
    <path clip-path="url(#pa933f568f3)" d="M 77.574866 185.09938 
C 78.512501 185.09938 79.411859 184.726854 80.074866 184.063846 
C 80.737874 183.400838 81.1104 182.501481 81.1104 181.563846 
C 81.1104 180.626212 80.737874 179.726854 80.074866 179.063846 
C 79.411859 178.400838 78.512501 178.028312 77.574866 178.028312 
C 76.637232 178.028312 75.737874 178.400838 75.074866 179.063846 
C 74.411859 179.726854 74.039332 180.626212 74.039332 181.563846 
C 74.039332 182.501481 74.411859 183.400838 75.074866 184.063846 
C 75.737874 184.726854 76.637232 185.09938 77.574866 185.09938 
z
" style="fill:none;stroke:#9467bd;"/>
   </g>
   <g id="PathCollection_5">
    <path clip-path="url(#pa933f568f3)" d="M 82.548128 184.63618 
C 83.485763 184.63618 84.385121 184.263654 85.048128 183.600646 
C 85.711136 182.937638 86.083662 182.038281 86.083662 181.100646 
C 86.083662 180.163012 85.711136 179.263654 85.048128 178.600646 
C 84.385121 177.937638 83.485763 177.565112 82.548128 177.565112 
C 81.610494 177.565112 80.711136 177.937638 80.048128 178.600646 
C 79.385121 179.263654 79.012594 180.163012 79.012594 181.100646 
C 79.012594 182.038281 79.385121 182.937638 80.048128 183.600646 
C 80.711136 184.263654 81.610494 184.63618 82.548128 184.63618 
z
" style="fill:none;stroke:#9467bd;"/>
   </g>
   <g id="PathCollection_6">
    <path clip-path="url(#pa933f568f3)" d="M 87.52139 183.604602 
C 88.459025 183.604602 89.358383 183.232076 90.02139 182.569068 
C 90.684398 181.90606 91.056924 181.006702 91.056924 180.069068 
C 91.056924 179.131433 90.684398 178.232076 90.02139 177.569068 
C 89.358383 176.90606 88.459025 176.533534 87.52139 176.533534 
C 86.583756 176.533534 85.684398 176.90606 85.02139 177.569068 
C 84.358383 178.232076 83.985856 179.131433 83.985856 180.069068 
C 83.985856 181.006702 84.358383 181.90606 85.02139 182.569068 
C 85.684398 183.232076 86.583756 183.604602 87.52139 183.604602 
z
" style="fill:none;stroke:#9467bd;"/>
   </g>
   <g id="PathCollection_7">
    <path clip-path="url(#pa933f568f3)" d="M 92.494652 181.939603 
C 93.432287 181.939603 94.331645 181.567077 94.994652 180.904069 
C 95.65766 180.241061 96.030186 179.341704 96.030186 178.404069 
C 96.030186 177.466435 95.65766 176.567077 94.994652 175.904069 
C 94.331645 175.241061 93.432287 174.868535 92.494652 174.868535 
C 91.557018 174.868535 90.65766 175.241061 89.994652 175.904069 
C 89.331645 176.567077 88.959119 177.466435 88.959119 178.404069 
C 88.959119 179.341704 89.331645 180.241061 89.994652 180.904069 
C 90.65766 181.567077 91.557018 181.939603 92.494652 181.939603 
z
" style="fill:none;stroke:#9467bd;"/>
   </g>
   <g id="PathCollection_8">
    <path clip-path="url(#pa933f568f3)" d="M 97.467914 179.626805 
C 98.405549 179.626805 99.304907 179.254279 99.967914 178.591271 
C 100.630922 177.928263 101.003448 177.028905 101.003448 176.091271 
C 101.003448 175.153636 100.630922 174.254279 99.967914 173.591271 
C 99.304907 172.928263 98.405549 172.555737 97.467914 172.555737 
C 96.53028 172.555737 95.630922 172.928263 94.967914 173.591271 
C 94.304907 174.254279 93.932381 175.153636 93.932381 176.091271 
C 93.932381 177.028905 94.304907 177.928263 94.967914 178.591271 
C 95.630922 179.254279 96.53028 179.626805 97.467914 179.626805 
z
" style="fill:none;stroke:#9467bd;"/>
   </g>
   <g id="PathCollection_9">
    <path clip-path="url(#pa933f568f3)" d="M 102.441176 176.691074 
C 103.378811 176.691074 104.278169 176.318548 104.941176 175.65554 
C 105.604184 174.992533 105.97671 174.093175 105.97671 173.15554 
C 105.97671 172.217906 105.604184 171.318548 104.941176 170.65554 
C 104.278169 169.992533 103.378811 169.620007 102.441176 169.620007 
C 101.503542 169.620007 100.604184 169.992533 99.941176 170.65554 
C 99.278169 171.318548 98.905643 172.217906 98.905643 173.15554 
C 98.905643 174.093175 99.278169 174.992533 99.941176 175.65554 
C 100.604184 176.318548 101.503542 176.691074 102.441176 176.691074 
z
" style="fill:none;stroke:#9467bd;"/>
   </g>
   <g id="PathCollection_10">
    <path clip-path="url(#pa933f568f3)" d="M 107.414439 173.18645 
C 108.352073 173.18645 109.251431 172.813923 109.914439 172.150916 
C 110.577446 171.487908 110.949972 170.58855 110.949972 169.650916 
C 110.949972 168.713281 110.577446 167.813923 109.914439 167.150916 
C 109.251431 166.487908 108.352073 166.115382 107.414439 166.115382 
C 106.476804 166.115382 105.577446 166.487908 104.914439 167.150916 
C 104.251431 167.813923 103.878905 168.713281 103.878905 169.650916 
C 103.878905 170.58855 104.251431 171.487908 104.914439 172.150916 
C 105.577446 172.813923 106.476804 173.18645 107.414439 173.18645 
z
" style="fill:none;stroke:#9467bd;"/>
   </g>
   <g id="PathCollection_11">
    <path clip-path="url(#pa933f568f3)" d="M 112.387701 169.18736 
C 113.325335 169.18736 114.224693 168.814834 114.887701 168.151826 
C 115.550708 167.488818 115.923234 166.589461 115.923234 165.651826 
C 115.923234 164.714192 115.550708 163.814834 114.887701 163.151826 
C 114.224693 162.488818 113.325335 162.116292 112.387701 162.116292 
C 111.450066 162.116292 110.550708 162.488818 109.887701 163.151826 
C 109.224693 163.814834 108.852167 164.714192 108.852167 165.651826 
C 108.852167 166.589461 109.224693 167.488818 109.887701 168.151826 
C 110.550708 168.814834 111.450066 169.18736 112.387701 169.18736 
z
" style="fill:none;stroke:#9467bd;"/>
   </g>
   <g id="PathCollection_12">
    <path clip-path="url(#pa933f568f3)" d="M 117.360963 164.781062 
C 118.298597 164.781062 119.197955 164.408536 119.860963 163.745528 
C 120.52397 163.082521 120.896496 162.183163 120.896496 161.245528 
C 120.896496 160.307894 120.52397 159.408536 119.860963 158.745528 
C 119.197955 158.082521 118.298597 157.709994 117.360963 157.709994 
C 116.423328 157.709994 115.52397 158.082521 114.860963 158.745528 
C 114.197955 159.408536 113.825429 160.307894 113.825429 161.245528 
C 113.825429 162.183163 114.197955 163.082521 114.860963 163.745528 
C 115.52397 164.408536 116.423328 164.781062 117.360963 164.781062 
z
" style="fill:none;stroke:#9467bd;"/>
   </g>
   <g id="PathCollection_13">
    <path clip-path="url(#pa933f568f3)" d="M 122.334225 160.061225 
C 123.271859 160.061225 124.171217 159.688699 124.834225 159.025691 
C 125.497232 158.362683 125.869759 157.463326 125.869759 156.525691 
C 125.869759 155.588056 125.497232 154.688699 124.834225 154.025691 
C 124.171217 153.362683 123.271859 152.990157 122.334225 152.990157 
C 121.39659 152.990157 120.497232 153.362683 119.834225 154.025691 
C 119.171217 154.688699 118.798691 155.588056 118.798691 156.525691 
C 118.798691 157.463326 119.171217 158.362683 119.834225 159.025691 
C 120.497232 159.688699 121.39659 160.061225 122.334225 160.061225 
z
" style="fill:none;stroke:#9467bd;"/>
   </g>
   <g id="PathCollection_14">
    <path clip-path="url(#pa933f568f3)" d="M 127.307487 155.122584 
C 128.245121 155.122584 129.144479 154.750058 129.807487 154.08705 
C 130.470494 153.424042 130.843021 152.524684 130.843021 151.58705 
C 130.843021 150.649415 130.470494 149.750058 129.807487 149.08705 
C 129.144479 148.424042 128.245121 148.051516 127.307487 148.051516 
C 126.369852 148.051516 125.470494 148.424042 124.807487 149.08705 
C 124.144479 149.750058 123.771953 150.649415 123.771953 151.58705 
C 123.771953 152.524684 124.144479 153.424042 124.807487 154.08705 
C 125.470494 154.750058 126.369852 155.122584 127.307487 155.122584 
z
" style="fill:none;stroke:#9467bd;"/>
   </g>
   <g id="PathCollection_15">
    <path clip-path="url(#pa933f568f3)" d="M 132.280749 150.056601 
C 133.218383 150.056601 134.117741 149.684075 134.780749 149.021067 
C 135.443756 148.358059 135.816283 147.458702 135.816283 146.521067 
C 135.816283 145.583432 135.443756 144.684075 134.780749 144.021067 
C 134.117741 143.358059 133.218383 142.985533 132.280749 142.985533 
C 131.343114 142.985533 130.443756 143.358059 129.780749 144.021067 
C 129.117741 144.684075 128.745215 145.583432 128.745215 146.521067 
C 128.745215 147.458702 129.117741 148.358059 129.780749 149.021067 
C 130.443756 149.684075 131.343114 150.056601 132.280749 150.056601 
z
" style="fill:none;stroke:#9467bd;"/>
   </g>
   <g id="PathCollection_16">
    <path clip-path="url(#pa933f568f3)" d="M 137.254011 144.948049 
C 138.191645 144.948049 139.091003 144.575523 139.754011 143.912515 
C 140.417018 143.249508 140.789545 142.35015 140.789545 141.412515 
C 140.789545 140.474881 140.417018 139.575523 139.754011 138.912515 
C 139.091003 138.249508 138.191645 137.876981 137.254011 137.876981 
C 136.316376 137.876981 135.417018 138.249508 134.754011 138.912515 
C 134.091003 139.575523 133.718477 140.474881 133.718477 141.412515 
C 133.718477 142.35015 134.091003 143.249508 134.754011 143.912515 
C 135.417018 144.575523 136.316376 144.948049 137.254011 144.948049 
z
" style="fill:none;stroke:#9467bd;"/>
   </g>
   <g id="PathCollection_17">
    <path clip-path="url(#pa933f568f3)" d="M 142.227273 139.872456 
C 143.164907 139.872456 144.064265 139.49993 144.727273 138.836922 
C 145.39028 138.173915 145.762807 137.274557 145.762807 136.336922 
C 145.762807 135.399288 145.39028 134.49993 144.727273 133.836922 
C 144.064265 133.173915 143.164907 132.801389 142.227273 132.801389 
C 141.289638 132.801389 140.39028 133.173915 139.727273 133.836922 
C 139.064265 134.49993 138.691739 135.399288 138.691739 136.336922 
C 138.691739 137.274557 139.064265 138.173915 139.727273 138.836922 
C 140.39028 139.49993 141.289638 139.872456 142.227273 139.872456 
z
" style="fill:none;stroke:#9467bd;"/>
   </g>
   <g id="PathCollection_18">
    <path clip-path="url(#pa933f568f3)" d="M 147.200535 134.894332 
C 148.138169 134.894332 149.037527 134.521806 149.700535 133.858798 
C 150.363543 133.19579 150.736069 132.296432 150.736069 131.358798 
C 150.736069 130.421163 150.363543 129.521806 149.700535 128.858798 
C 149.037527 128.19579 148.138169 127.823264 147.200535 127.823264 
C 146.2629 127.823264 145.363543 128.19579 144.700535 128.858798 
C 144.037527 129.521806 143.665001 130.421163 143.665001 131.358798 
C 143.665001 132.296432 144.037527 133.19579 144.700535 133.858798 
C 145.363543 134.521806 146.2629 134.894332 147.200535 134.894332 
z
" style="fill:none;stroke:#9467bd;"/>
   </g>
   <g id="PathCollection_19">
    <path clip-path="url(#pa933f568f3)" d="M 152.173797 130.066104 
C 153.111431 130.066104 154.010789 129.693578 154.673797 129.03057 
C 155.336805 128.367563 155.709331 127.468205 155.709331 126.53057 
C 155.709331 125.592936 155.336805 124.693578 154.673797 124.03057 
C 154.010789 123.367563 153.111431 122.995036 152.173797 122.995036 
C 151.236162 122.995036 150.336805 123.367563 149.673797 124.03057 
C 149.010789 124.693578 148.638263 125.592936 148.638263 126.53057 
C 148.638263 127.468205 149.010789 128.367563 149.673797 129.03057 
C 150.336805 129.693578 151.236162 130.066104 152.173797 130.066104 
z
" style="fill:none;stroke:#9467bd;"/>
   </g>
   <g id="PathCollection_20">
    <path clip-path="url(#pa933f568f3)" d="M 157.147059 125.427701 
C 158.084693 125.427701 158.984051 125.055175 159.647059 124.392167 
C 160.310067 123.729159 160.682593 122.829802 160.682593 121.892167 
C 160.682593 120.954533 160.310067 120.055175 159.647059 119.392167 
C 158.984051 118.729159 158.084693 118.356633 157.147059 118.356633 
C 156.209424 118.356633 155.310067 118.729159 154.647059 119.392167 
C 153.984051 120.055175 153.611525 120.954533 153.611525 121.892167 
C 153.611525 122.829802 153.984051 123.729159 154.647059 124.392167 
C 155.310067 125.055175 156.209424 125.427701 157.147059 125.427701 
z
" style="fill:none;stroke:#9467bd;"/>
   </g>
   <g id="PathCollection_21">
    <path clip-path="url(#pa933f568f3)" d="M 162.120321 121.006694 
C 163.057955 121.006694 163.957313 120.634168 164.620321 119.97116 
C 165.283329 119.308153 165.655855 118.408795 165.655855 117.47116 
C 165.655855 116.533526 165.283329 115.634168 164.620321 114.97116 
C 163.957313 114.308153 163.057955 113.935626 162.120321 113.935626 
C 161.182686 113.935626 160.283329 114.308153 159.620321 114.97116 
C 158.957313 115.634168 158.584787 116.533526 158.584787 117.47116 
C 158.584787 118.408795 158.957313 119.308153 159.620321 119.97116 
C 160.283329 120.634168 161.182686 121.006694 162.120321 121.006694 
z
" style="fill:none;stroke:#9467bd;"/>
   </g>
   <g id="PathCollection_22">
    <path clip-path="url(#pa933f568f3)" d="M 167.093583 116.818938 
C 168.031217 116.818938 168.930575 116.446412 169.593583 115.783404 
C 170.256591 115.120397 170.629117 114.221039 170.629117 113.283404 
C 170.629117 112.34577 170.256591 111.446412 169.593583 110.783404 
C 168.930575 110.120397 168.031217 109.747871 167.093583 109.747871 
C 166.155948 109.747871 165.256591 110.120397 164.593583 110.783404 
C 163.930575 111.446412 163.558049 112.34577 163.558049 113.283404 
C 163.558049 114.221039 163.930575 115.120397 164.593583 115.783404 
C 165.256591 116.446412 166.155948 116.818938 167.093583 116.818938 
z
" style="fill:none;stroke:#9467bd;"/>
   </g>
   <g id="PathCollection_23">
    <path clip-path="url(#pa933f568f3)" d="M 172.066845 112.869636 
C 173.004479 112.869636 173.903837 112.49711 174.566845 111.834102 
C 175.229853 111.171094 175.602379 110.271736 175.602379 109.334102 
C 175.602379 108.396467 175.229853 107.49711 174.566845 106.834102 
C 173.903837 106.171094 173.004479 105.798568 172.066845 105.798568 
C 171.12921 105.798568 170.229853 106.171094 169.566845 106.834102 
C 168.903837 107.49711 168.531311 108.396467 168.531311 109.334102 
C 168.531311 110.271736 168.903837 111.171094 169.566845 111.834102 
C 170.229853 112.49711 171.12921 112.869636 172.066845 112.869636 
z
" style="fill:none;stroke:#9467bd;"/>
   </g>
   <g id="PathCollection_24">
    <path clip-path="url(#pa933f568f3)" d="M 177.040107 109.154748 
C 177.977742 109.154748 178.877099 108.782222 179.540107 108.119214 
C 180.203115 107.456206 180.575641 106.556848 180.575641 105.619214 
C 180.575641 104.681579 180.203115 103.782222 179.540107 103.119214 
C 178.877099 102.456206 177.977742 102.08368 177.040107 102.08368 
C 176.102472 102.08368 175.203115 102.456206 174.540107 103.119214 
C 173.877099 103.782222 173.504573 104.681579 173.504573 105.619214 
C 173.504573 106.556848 173.877099 107.456206 174.540107 108.119214 
C 175.203115 108.782222 176.102472 109.154748 177.040107 109.154748 
z
" style="fill:none;stroke:#9467bd;"/>
   </g>
   <g id="PathCollection_25">
    <path clip-path="url(#pa933f568f3)" d="M 182.013369 105.662687 
C 182.951004 105.662687 183.850361 105.290161 184.513369 104.627154 
C 185.176377 103.964146 185.548903 103.064788 185.548903 102.127154 
C 185.548903 101.189519 185.176377 100.290161 184.513369 99.627154 
C 183.850361 98.964146 182.951004 98.59162 182.013369 98.59162 
C 181.075734 98.59162 180.176377 98.964146 179.513369 99.627154 
C 178.850361 100.290161 178.477835 101.189519 178.477835 102.127154 
C 178.477835 103.064788 178.850361 103.964146 179.513369 104.627154 
C 180.176377 105.290161 181.075734 105.662687 182.013369 105.662687 
z
" style="fill:none;stroke:#9467bd;"/>
   </g>
   <g id="PathCollection_26">
    <path clip-path="url(#pa933f568f3)" d="M 186.986631 102.376214 
C 187.924266 102.376214 188.823623 102.003688 189.486631 101.34068 
C 190.149639 100.677672 190.522165 99.778315 190.522165 98.84068 
C 190.522165 97.903046 190.149639 97.003688 189.486631 96.34068 
C 188.823623 95.677672 187.924266 95.305146 186.986631 95.305146 
C 186.048996 95.305146 185.149639 95.677672 184.486631 96.34068 
C 183.823623 97.003688 183.451097 97.903046 183.451097 98.84068 
C 183.451097 99.778315 183.823623 100.677672 184.486631 101.34068 
C 185.149639 102.003688 186.048996 102.376214 186.986631 102.376214 
z
" style="fill:none;stroke:#9467bd;"/>
   </g>
   <g id="PathCollection_27">
    <path clip-path="url(#pa933f568f3)" d="M 191.959893 99.274464 
C 192.897528 99.274464 193.796885 98.901938 194.459893 98.23893 
C 195.122901 97.575923 195.495427 96.676565 195.495427 95.73893 
C 195.495427 94.801296 195.122901 93.901938 194.459893 93.23893 
C 193.796885 92.575923 192.897528 92.203396 191.959893 92.203396 
C 191.022258 92.203396 190.122901 92.575923 189.459893 93.23893 
C 188.796885 93.901938 188.424359 94.801296 188.424359 95.73893 
C 188.424359 96.676565 188.796885 97.575923 189.459893 98.23893 
C 190.122901 98.901938 191.022258 99.274464 191.959893 99.274464 
z
" style="fill:none;stroke:#9467bd;"/>
   </g>
   <g id="PathCollection_28">
    <path clip-path="url(#pa933f568f3)" d="M 196.933155 96.335042 
C 197.87079 96.335042 198.770147 95.962516 199.433155 95.299508 
C 200.096163 94.6365 200.468689 93.737143 200.468689 92.799508 
C 200.468689 91.861874 200.096163 90.962516 199.433155 90.299508 
C 198.770147 89.6365 197.87079 89.263974 196.933155 89.263974 
C 195.995521 89.263974 195.096163 89.6365 194.433155 90.299508 
C 193.770147 90.962516 193.397621 91.861874 193.397621 92.799508 
C 193.397621 93.737143 193.770147 94.6365 194.433155 95.299508 
C 195.096163 95.962516 195.995521 96.335042 196.933155 96.335042 
z
" style="fill:none;stroke:#9467bd;"/>
   </g>
   <g id="PathCollection_29">
    <path clip-path="url(#pa933f568f3)" d="M 201.906417 93.536099 
C 202.844052 93.536099 203.743409 93.163573 204.406417 92.500565 
C 205.069425 91.837558 205.441951 90.9382 205.441951 90.000565 
C 205.441951 89.062931 205.069425 88.163573 204.406417 87.500565 
C 203.743409 86.837558 202.844052 86.465031 201.906417 86.465031 
C 200.968783 86.465031 200.069425 86.837558 199.406417 87.500565 
C 198.743409 88.163573 198.370883 89.062931 198.370883 90.000565 
C 198.370883 90.9382 198.743409 91.837558 199.406417 92.500565 
C 200.069425 93.163573 200.968783 93.536099 201.906417 93.536099 
z
" style="fill:none;stroke:#9467bd;"/>
   </g>
   <g id="PathCollection_30">
    <path clip-path="url(#pa933f568f3)" d="M 206.879679 90.858329 
C 207.817314 90.858329 208.716671 90.485803 209.379679 89.822796 
C 210.042687 89.159788 210.415213 88.26043 210.415213 87.322796 
C 210.415213 86.385161 210.042687 85.485803 209.379679 84.822796 
C 208.716671 84.159788 207.817314 83.787262 206.879679 83.787262 
C 205.942045 83.787262 205.042687 84.159788 204.379679 84.822796 
C 203.716671 85.485803 203.344145 86.385161 203.344145 87.322796 
C 203.344145 88.26043 203.716671 89.159788 204.379679 89.822796 
C 205.042687 90.485803 205.942045 90.858329 206.879679 90.858329 
z
" style="fill:none;stroke:#9467bd;"/>
   </g>
   <g id="PathCollection_31">
    <path clip-path="url(#pa933f568f3)" d="M 211.852941 88.286809 
C 212.790576 88.286809 213.689933 87.914283 214.352941 87.251275 
C 215.015949 86.588268 215.388475 85.68891 215.388475 84.751275 
C 215.388475 83.813641 215.015949 82.914283 214.352941 82.251275 
C 213.689933 81.588268 212.790576 81.215741 211.852941 81.215741 
C 210.915307 81.215741 210.015949 81.588268 209.352941 82.251275 
C 208.689933 82.914283 208.317407 83.813641 208.317407 84.751275 
C 208.317407 85.68891 208.689933 86.588268 209.352941 87.251275 
C 210.015949 87.914283 210.915307 88.286809 211.852941 88.286809 
z
" style="fill:none;stroke:#9467bd;"/>
   </g>
   <g id="PathCollection_32">
    <path clip-path="url(#pa933f568f3)" d="M 216.826203 85.812609 
C 217.763838 85.812609 218.663195 85.440083 219.326203 84.777075 
C 219.989211 84.114067 220.361737 83.214709 220.361737 82.277075 
C 220.361737 81.33944 219.989211 80.440083 219.326203 79.777075 
C 218.663195 79.114067 217.763838 78.741541 216.826203 78.741541 
C 215.888569 78.741541 214.989211 79.114067 214.326203 79.777075 
C 213.663195 80.440083 213.290669 81.33944 213.290669 82.277075 
C 213.290669 83.214709 213.663195 84.114067 214.326203 84.777075 
C 214.989211 85.440083 215.888569 85.812609 216.826203 85.812609 
z
" style="fill:none;stroke:#9467bd;"/>
   </g>
   <g id="PathCollection_33">
    <path clip-path="url(#pa933f568f3)" d="M 221.799465 83.434103 
C 222.7371 83.434103 223.636457 83.061577 224.299465 82.398569 
C 224.962473 81.735562 225.334999 80.836204 225.334999 79.898569 
C 225.334999 78.960935 224.962473 78.061577 224.299465 77.398569 
C 223.636457 76.735562 222.7371 76.363035 221.799465 76.363035 
C 220.861831 76.363035 219.962473 76.735562 219.299465 77.398569 
C 218.636457 78.061577 218.263931 78.960935 218.263931 79.898569 
C 218.263931 80.836204 218.636457 81.735562 219.299465 82.398569 
C 219.962473 83.061577 220.861831 83.434103 221.799465 83.434103 
z
" style="fill:none;stroke:#9467bd;"/>
   </g>
   <g id="PathCollection_34">
    <path clip-path="url(#pa933f568f3)" d="M 226.772727 81.157909 
C 227.710362 81.157909 228.60972 80.785383 229.272727 80.122375 
C 229.935735 79.459368 230.308261 78.56001 230.308261 77.622375 
C 230.308261 76.684741 229.935735 75.785383 229.272727 75.122375 
C 228.60972 74.459368 227.710362 74.086841 226.772727 74.086841 
C 225.835093 74.086841 224.935735 74.459368 224.272727 75.122375 
C 223.60972 75.785383 223.237193 76.684741 223.237193 77.622375 
C 223.237193 78.56001 223.60972 79.459368 224.272727 80.122375 
C 224.935735 80.785383 225.835093 81.157909 226.772727 81.157909 
z
" style="fill:none;stroke:#9467bd;"/>
   </g>
   <g id="PathCollection_35">
    <path clip-path="url(#pa933f568f3)" d="M 231.745989 78.999379 
C 232.683624 78.999379 233.582982 78.626853 234.245989 77.963845 
C 234.908997 77.300837 235.281523 76.40148 235.281523 75.463845 
C 235.281523 74.526211 234.908997 73.626853 234.245989 72.963845 
C 233.582982 72.300837 232.683624 71.928311 231.745989 71.928311 
C 230.808355 71.928311 229.908997 72.300837 229.245989 72.963845 
C 228.582982 73.626853 228.210455 74.526211 228.210455 75.463845 
C 228.210455 76.40148 228.582982 77.300837 229.245989 77.963845 
C 229.908997 78.626853 230.808355 78.999379 231.745989 78.999379 
z
" style="fill:none;stroke:#9467bd;"/>
   </g>
   <g id="PathCollection_36">
    <path clip-path="url(#pa933f568f3)" d="M 236.719251 76.982574 
C 237.656886 76.982574 238.556244 76.610048 239.219251 75.94704 
C 239.882259 75.284032 240.254785 74.384675 240.254785 73.44704 
C 240.254785 72.509406 239.882259 71.610048 239.219251 70.94704 
C 238.556244 70.284032 237.656886 69.911506 236.719251 69.911506 
C 235.781617 69.911506 234.882259 70.284032 234.219251 70.94704 
C 233.556244 71.610048 233.183717 72.509406 233.183717 73.44704 
C 233.183717 74.384675 233.556244 75.284032 234.219251 75.94704 
C 234.882259 76.610048 235.781617 76.982574 236.719251 76.982574 
z
" style="fill:none;stroke:#9467bd;"/>
   </g>
   <g id="PathCollection_37">
    <path clip-path="url(#pa933f568f3)" d="M 241.692513 75.139651 
C 242.630148 75.139651 243.529506 74.767125 244.192513 74.104117 
C 244.855521 73.441109 245.228047 72.541752 245.228047 71.604117 
C 245.228047 70.666483 244.855521 69.767125 244.192513 69.104117 
C 243.529506 68.441109 242.630148 68.068583 241.692513 68.068583 
C 240.754879 68.068583 239.855521 68.441109 239.192513 69.104117 
C 238.529506 69.767125 238.156979 70.666483 238.156979 71.604117 
C 238.156979 72.541752 238.529506 73.441109 239.192513 74.104117 
C 239.855521 74.767125 240.754879 75.139651 241.692513 75.139651 
z
" style="fill:none;stroke:#9467bd;"/>
   </g>
   <g id="PathCollection_38">
    <path clip-path="url(#pa933f568f3)" d="M 246.665775 73.509584 
C 247.60341 73.509584 248.502768 73.137058 249.165775 72.47405 
C 249.828783 71.811043 250.201309 70.911685 250.201309 69.97405 
C 250.201309 69.036416 249.828783 68.137058 249.165775 67.47405 
C 248.502768 66.811043 247.60341 66.438516 246.665775 66.438516 
C 245.728141 66.438516 244.828783 66.811043 244.165775 67.47405 
C 243.502768 68.137058 243.130241 69.036416 243.130241 69.97405 
C 243.130241 70.911685 243.502768 71.811043 244.165775 72.47405 
C 244.828783 73.137058 245.728141 73.509584 246.665775 73.509584 
z
" style="fill:none;stroke:#9467bd;"/>
   </g>
   <g id="PathCollection_39">
    <path clip-path="url(#pa933f568f3)" d="M 251.639037 72.136153 
C 252.576672 72.136153 253.47603 71.763627 254.139037 71.100619 
C 254.802045 70.437611 255.174571 69.538254 255.174571 68.600619 
C 255.174571 67.662984 254.802045 66.763627 254.139037 66.100619 
C 253.47603 65.437611 252.576672 65.065085 251.639037 65.065085 
C 250.701403 65.065085 249.802045 65.437611 249.139037 66.100619 
C 248.47603 66.763627 248.103504 67.662984 248.103504 68.600619 
C 248.103504 69.538254 248.47603 70.437611 249.139037 71.100619 
C 249.802045 71.763627 250.701403 72.136153 251.639037 72.136153 
z
" style="fill:none;stroke:#9467bd;"/>
   </g>
   <g id="PathCollection_40">
    <path clip-path="url(#pa933f568f3)" d="M 256.612299 71.065125 
C 257.549934 71.065125 258.449292 70.692599 259.112299 70.029592 
C 259.775307 69.366584 260.147833 68.467226 260.147833 67.529592 
C 260.147833 66.591957 259.775307 65.692599 259.112299 65.029592 
C 258.449292 64.366584 257.549934 63.994058 256.612299 63.994058 
C 255.674665 63.994058 254.775307 64.366584 254.112299 65.029592 
C 253.449292 65.692599 253.076766 66.591957 253.076766 67.529592 
C 253.076766 68.467226 253.449292 69.366584 254.112299 70.029592 
C 254.775307 70.692599 255.674665 71.065125 256.612299 71.065125 
z
" style="fill:none;stroke:#9467bd;"/>
   </g>
   <g id="PathCollection_41">
    <path clip-path="url(#pa933f568f3)" d="M 261.585561 70.340558 
C 262.523196 70.340558 263.422554 69.968032 264.085561 69.305024 
C 264.748569 68.642016 265.121095 67.742659 265.121095 66.805024 
C 265.121095 65.86739 264.748569 64.968032 264.085561 64.305024 
C 263.422554 63.642016 262.523196 63.26949 261.585561 63.26949 
C 260.647927 63.26949 259.748569 63.642016 259.085561 64.305024 
C 258.422554 64.968032 258.050028 65.86739 258.050028 66.805024 
C 258.050028 67.742659 258.422554 68.642016 259.085561 69.305024 
C 259.748569 69.968032 260.647927 70.340558 261.585561 70.340558 
z
" style="fill:none;stroke:#9467bd;"/>
   </g>
   <g id="PathCollection_42">
    <path clip-path="url(#pa933f568f3)" d="M 266.558824 70.000148 
C 267.496458 70.000148 268.395816 69.627622 269.058824 68.964614 
C 269.721831 68.301606 270.094357 67.402248 270.094357 66.464614 
C 270.094357 65.526979 269.721831 64.627622 269.058824 63.964614 
C 268.395816 63.301606 267.496458 62.92908 266.558824 62.92908 
C 265.621189 62.92908 264.721831 63.301606 264.058824 63.964614 
C 263.395816 64.627622 263.02329 65.526979 263.02329 66.464614 
C 263.02329 67.402248 263.395816 68.301606 264.058824 68.964614 
C 264.721831 69.627622 265.621189 70.000148 266.558824 70.000148 
z
" style="fill:none;stroke:#9467bd;"/>
   </g>
   <g id="PathCollection_43">
    <path clip-path="url(#pa933f568f3)" d="M 271.532086 70.06956 
C 272.46972 70.06956 273.369078 69.697034 274.032086 69.034026 
C 274.695093 68.371019 275.067619 67.471661 275.067619 66.534026 
C 275.067619 65.596392 274.695093 64.697034 274.032086 64.034026 
C 273.369078 63.371019 272.46972 62.998492 271.532086 62.998492 
C 270.594451 62.998492 269.695093 63.371019 269.032086 64.034026 
C 268.369078 64.697034 267.996552 65.596392 267.996552 66.534026 
C 267.996552 67.471661 268.369078 68.371019 269.032086 69.034026 
C 269.695093 69.697034 270.594451 70.06956 271.532086 70.06956 
z
" style="fill:none;stroke:#9467bd;"/>
   </g>
   <g id="PathCollection_44">
    <path clip-path="url(#pa933f568f3)" d="M 276.505348 70.555657 
C 277.442982 70.555657 278.34234 70.183131 279.005348 69.520123 
C 279.668355 68.857115 280.040881 67.957758 280.040881 67.020123 
C 280.040881 66.082489 279.668355 65.183131 279.005348 64.520123 
C 278.34234 63.857115 277.442982 63.484589 276.505348 63.484589 
C 275.567713 63.484589 274.668355 63.857115 274.005348 64.520123 
C 273.34234 65.183131 272.969814 66.082489 272.969814 67.020123 
C 272.969814 67.957758 273.34234 68.857115 274.005348 69.520123 
C 274.668355 70.183131 275.567713 70.555657 276.505348 70.555657 
z
" style="fill:none;stroke:#9467bd;"/>
   </g>
   <g id="PathCollection_45">
    <path clip-path="url(#pa933f568f3)" d="M 281.47861 71.438562 
C 282.416244 71.438562 283.315602 71.066036 283.97861 70.403028 
C 284.641617 69.74002 285.014144 68.840663 285.014144 67.903028 
C 285.014144 66.965393 284.641617 66.066036 283.97861 65.403028 
C 283.315602 64.74002 282.416244 64.367494 281.47861 64.367494 
C 280.540975 64.367494 279.641617 64.74002 278.97861 65.403028 
C 278.315602 66.066036 277.943076 66.965393 277.943076 67.903028 
C 277.943076 68.840663 278.315602 69.74002 278.97861 70.403028 
C 279.641617 71.066036 280.540975 71.438562 281.47861 71.438562 
z
" style="fill:none;stroke:#9467bd;"/>
   </g>
   <g id="PathCollection_46">
    <path clip-path="url(#pa933f568f3)" d="M 286.451872 72.66248 
C 287.389506 72.66248 288.288864 72.289954 288.951872 71.626947 
C 289.614879 70.963939 289.987406 70.064581 289.987406 69.126947 
C 289.987406 68.189312 289.614879 67.289954 288.951872 66.626947 
C 288.288864 65.963939 287.389506 65.591413 286.451872 65.591413 
C 285.514237 65.591413 284.614879 65.963939 283.951872 66.626947 
C 283.288864 67.289954 282.916338 68.189312 282.916338 69.126947 
C 282.916338 70.064581 283.288864 70.963939 283.951872 71.626947 
C 284.614879 72.289954 285.514237 72.66248 286.451872 72.66248 
z
" style="fill:none;stroke:#9467bd;"/>
   </g>
   <g id="PathCollection_47">
    <path clip-path="url(#pa933f568f3)" d="M 291.425134 74.125209 
C 292.362768 74.125209 293.262126 73.752683 293.925134 73.089675 
C 294.588141 72.426667 294.960668 71.527309 294.960668 70.589675 
C 294.960668 69.65204 294.588141 68.752683 293.925134 68.089675 
C 293.262126 67.426667 292.362768 67.054141 291.425134 67.054141 
C 290.487499 67.054141 289.588141 67.426667 288.925134 68.089675 
C 288.262126 68.752683 287.8896 69.65204 287.8896 70.589675 
C 287.8896 71.527309 288.262126 72.426667 288.925134 73.089675 
C 289.588141 73.752683 290.487499 74.125209 291.425134 74.125209 
z
" style="fill:none;stroke:#9467bd;"/>
   </g>
   <g id="PathCollection_48">
    <path clip-path="url(#pa933f568f3)" d="M 296.398396 75.666257 
C 297.33603 75.666257 298.235388 75.293731 298.898396 74.630723 
C 299.561403 73.967715 299.93393 73.068357 299.93393 72.130723 
C 299.93393 71.193088 299.561403 70.293731 298.898396 69.630723 
C 298.235388 68.967715 297.33603 68.595189 296.398396 68.595189 
C 295.460761 68.595189 294.561403 68.967715 293.898396 69.630723 
C 293.235388 70.293731 292.862862 71.193088 292.862862 72.130723 
C 292.862862 73.068357 293.235388 73.967715 293.898396 74.630723 
C 294.561403 75.293731 295.460761 75.666257 296.398396 75.666257 
z
" style="fill:none;stroke:#9467bd;"/>
   </g>
   <g id="PathCollection_49">
    <path clip-path="url(#pa933f568f3)" d="M 301.371658 77.053515 
C 302.309292 77.053515 303.20865 76.680988 303.871658 76.017981 
C 304.534666 75.354973 304.907192 74.455615 304.907192 73.517981 
C 304.907192 72.580346 304.534666 71.680988 303.871658 71.017981 
C 303.20865 70.354973 302.309292 69.982447 301.371658 69.982447 
C 300.434023 69.982447 299.534666 70.354973 298.871658 71.017981 
C 298.20865 71.680988 297.836124 72.580346 297.836124 73.517981 
C 297.836124 74.455615 298.20865 75.354973 298.871658 76.017981 
C 299.534666 76.680988 300.434023 77.053515 301.371658 77.053515 
z
" style="fill:none;stroke:#9467bd;"/>
   </g>
   <g id="PathCollection_50">
    <path clip-path="url(#pa933f568f3)" d="M 306.34492 77.968386 
C 307.282554 77.968386 308.181912 77.59586 308.84492 76.932852 
C 309.507928 76.269845 309.880454 75.370487 309.880454 74.432852 
C 309.880454 73.495218 309.507928 72.59586 308.84492 71.932852 
C 308.181912 71.269845 307.282554 70.897318 306.34492 70.897318 
C 305.407285 70.897318 304.507928 71.269845 303.84492 71.932852 
C 303.181912 72.59586 302.809386 73.495218 302.809386 74.432852 
C 302.809386 75.370487 303.181912 76.269845 303.84492 76.932852 
C 304.507928 77.59586 305.407285 77.968386 306.34492 77.968386 
z
" style="fill:none;stroke:#9467bd;"/>
   </g>
   <g id="PathCollection_51">
    <path clip-path="url(#pa933f568f3)" d="M 311.318182 77.989324 
C 312.255816 77.989324 313.155174 77.616798 313.818182 76.95379 
C 314.48119 76.290782 314.853716 75.391425 314.853716 74.45379 
C 314.853716 73.516155 314.48119 72.616798 313.818182 71.95379 
C 313.155174 71.290782 312.255816 70.918256 311.318182 70.918256 
C 310.380547 70.918256 309.48119 71.290782 308.818182 71.95379 
C 308.155174 72.616798 307.782648 73.516155 307.782648 74.45379 
C 307.782648 75.391425 308.155174 76.290782 308.818182 76.95379 
C 309.48119 77.616798 310.380547 77.989324 311.318182 77.989324 
z
" style="fill:none;stroke:#9467bd;"/>
   </g>
   <g id="PathCollection_52">
    <defs>
     <path d="M 0 3.535534 
C 0.937635 3.535534 1.836992 3.163008 2.5 2.5 
C 3.163008 1.836992 3.535534 0.937635 3.535534 0 
C 3.535534 -0.937635 3.163008 -1.836992 2.5 -2.5 
C 1.836992 -3.163008 0.937635 -3.535534 0 -3.535534 
C -0.937635 -3.535534 -1.836992 -3.163008 -2.5 -2.5 
C -3.163008 -1.836992 -3.535534 -0.937635 -3.535534 0 
C -3.535534 0.937635 -3.163008 1.836992 -2.5 2.5 
C -1.836992 3.163008 -0.937635 3.535534 0 3.535534 
z
" id="m53a70ef20c" style="stroke:#9467bd;"/>
    </defs>
    <g clip-path="url(#pa933f568f3)">
     <use style="fill:#9467bd;stroke:#9467bd;" x="62.65508" xlink:href="#m53a70ef20c" y="179.371433"/>
    </g>
   </g>
   <g id="PathCollection_53">
    <g clip-path="url(#pa933f568f3)">
     <use style="fill:#9467bd;stroke:#9467bd;" x="67.628342" xlink:href="#m53a70ef20c" y="179.697758"/>
    </g>
   </g>
   <g id="PathCollection_54">
    <g clip-path="url(#pa933f568f3)">
     <use style="fill:#9467bd;stroke:#9467bd;" x="72.601604" xlink:href="#m53a70ef20c" y="179.030459"/>
    </g>
   </g>
   <g id="PathCollection_55">
    <g clip-path="url(#pa933f568f3)">
     <use style="fill:#9467bd;stroke:#9467bd;" x="77.574866" xlink:href="#m53a70ef20c" y="177.50359"/>
    </g>
   </g>
   <g id="PathCollection_56">
    <g clip-path="url(#pa933f568f3)">
     <use style="fill:#9467bd;stroke:#9467bd;" x="82.548128" xlink:href="#m53a70ef20c" y="175.218835"/>
    </g>
   </g>
   <g id="PathCollection_57">
    <g clip-path="url(#pa933f568f3)">
     <use style="fill:#9467bd;stroke:#9467bd;" x="87.52139" xlink:href="#m53a70ef20c" y="172.27906"/>
    </g>
   </g>
   <g id="PathCollection_58">
    <g clip-path="url(#pa933f568f3)">
     <use style="fill:#9467bd;stroke:#9467bd;" x="92.494652" xlink:href="#m53a70ef20c" y="168.738327"/>
    </g>
   </g>
   <g id="PathCollection_59">
    <g clip-path="url(#pa933f568f3)">
     <use style="fill:#9467bd;stroke:#9467bd;" x="97.467914" xlink:href="#m53a70ef20c" y="164.661533"/>
    </g>
   </g>
   <g id="PathCollection_60">
    <g clip-path="url(#pa933f568f3)">
     <use style="fill:#9467bd;stroke:#9467bd;" x="102.441176" xlink:href="#m53a70ef20c" y="160.100593"/>
    </g>
   </g>
   <g id="PathCollection_61">
    <g clip-path="url(#pa933f568f3)">
     <use style="fill:#9467bd;stroke:#9467bd;" x="107.414439" xlink:href="#m53a70ef20c" y="155.10309"/>
    </g>
   </g>
   <g id="PathCollection_62">
    <g clip-path="url(#pa933f568f3)">
     <use style="fill:#9467bd;stroke:#9467bd;" x="112.387701" xlink:href="#m53a70ef20c" y="149.714802"/>
    </g>
   </g>
   <g id="PathCollection_63">
    <g clip-path="url(#pa933f568f3)">
     <use style="fill:#9467bd;stroke:#9467bd;" x="117.360963" xlink:href="#m53a70ef20c" y="143.981674"/>
    </g>
   </g>
   <g id="PathCollection_64">
    <g clip-path="url(#pa933f568f3)">
     <use style="fill:#9467bd;stroke:#9467bd;" x="122.334225" xlink:href="#m53a70ef20c" y="137.951263"/>
    </g>
   </g>
   <g id="PathCollection_65">
    <g clip-path="url(#pa933f568f3)">
     <use style="fill:#9467bd;stroke:#9467bd;" x="127.307487" xlink:href="#m53a70ef20c" y="131.673725"/>
    </g>
   </g>
   <g id="PathCollection_66">
    <g clip-path="url(#pa933f568f3)">
     <use style="fill:#9467bd;stroke:#9467bd;" x="132.280749" xlink:href="#m53a70ef20c" y="125.202359"/>
    </g>
   </g>
   <g id="PathCollection_67">
    <g clip-path="url(#pa933f568f3)">
     <use style="fill:#9467bd;stroke:#9467bd;" x="137.254011" xlink:href="#m53a70ef20c" y="118.593765"/>
    </g>
   </g>
   <g id="PathCollection_68">
    <g clip-path="url(#pa933f568f3)">
     <use style="fill:#9467bd;stroke:#9467bd;" x="142.227273" xlink:href="#m53a70ef20c" y="111.907661"/>
    </g>
   </g>
   <g id="PathCollection_69">
    <g clip-path="url(#pa933f568f3)">
     <use style="fill:#9467bd;stroke:#9467bd;" x="147.200535" xlink:href="#m53a70ef20c" y="105.206389"/>
    </g>
   </g>
   <g id="PathCollection_70">
    <g clip-path="url(#pa933f568f3)">
     <use style="fill:#9467bd;stroke:#9467bd;" x="152.173797" xlink:href="#m53a70ef20c" y="98.554172"/>
    </g>
   </g>
   <g id="PathCollection_71">
    <g clip-path="url(#pa933f568f3)">
     <use style="fill:#9467bd;stroke:#9467bd;" x="157.147059" xlink:href="#m53a70ef20c" y="92.01614"/>
    </g>
   </g>
   <g id="PathCollection_72">
    <g clip-path="url(#pa933f568f3)">
     <use style="fill:#9467bd;stroke:#9467bd;" x="162.120321" xlink:href="#m53a70ef20c" y="85.657191"/>
    </g>
   </g>
   <g id="PathCollection_73">
    <g clip-path="url(#pa933f568f3)">
     <use style="fill:#9467bd;stroke:#9467bd;" x="167.093583" xlink:href="#m53a70ef20c" y="79.540715"/>
    </g>
   </g>
   <g id="PathCollection_74">
    <g clip-path="url(#pa933f568f3)">
     <use style="fill:#9467bd;stroke:#9467bd;" x="172.066845" xlink:href="#m53a70ef20c" y="73.727233"/>
    </g>
   </g>
   <g id="PathCollection_75">
    <g clip-path="url(#pa933f568f3)">
     <use style="fill:#9467bd;stroke:#9467bd;" x="177.040107" xlink:href="#m53a70ef20c" y="68.272979"/>
    </g>
   </g>
   <g id="PathCollection_76">
    <g clip-path="url(#pa933f568f3)">
     <use style="fill:#9467bd;stroke:#9467bd;" x="182.013369" xlink:href="#m53a70ef20c" y="63.228491"/>
    </g>
   </g>
   <g id="PathCollection_77">
    <g clip-path="url(#pa933f568f3)">
     <use style="fill:#9467bd;stroke:#9467bd;" x="186.986631" xlink:href="#m53a70ef20c" y="58.637232"/>
    </g>
   </g>
   <g id="PathCollection_78">
    <g clip-path="url(#pa933f568f3)">
     <use style="fill:#9467bd;stroke:#9467bd;" x="191.959893" xlink:href="#m53a70ef20c" y="54.534292"/>
    </g>
   </g>
   <g id="PathCollection_79">
    <g clip-path="url(#pa933f568f3)">
     <use style="fill:#9467bd;stroke:#9467bd;" x="196.933155" xlink:href="#m53a70ef20c" y="50.945219"/>
    </g>
   </g>
   <g id="PathCollection_80">
    <g clip-path="url(#pa933f568f3)">
     <use style="fill:#9467bd;stroke:#9467bd;" x="201.906417" xlink:href="#m53a70ef20c" y="47.885009"/>
    </g>
   </g>
   <g id="PathCollection_81">
    <g clip-path="url(#pa933f568f3)">
     <use style="fill:#9467bd;stroke:#9467bd;" x="206.879679" xlink:href="#m53a70ef20c" y="45.357313"/>
    </g>
   </g>
   <g id="PathCollection_82">
    <g clip-path="url(#pa933f568f3)">
     <use style="fill:#9467bd;stroke:#9467bd;" x="211.852941" xlink:href="#m53a70ef20c" y="43.35389"/>
    </g>
   </g>
   <g id="PathCollection_83">
    <g clip-path="url(#pa933f568f3)">
     <use style="fill:#9467bd;stroke:#9467bd;" x="216.826203" xlink:href="#m53a70ef20c" y="41.85436"/>
    </g>
   </g>
   <g id="PathCollection_84">
    <g clip-path="url(#pa933f568f3)">
     <use style="fill:#9467bd;stroke:#9467bd;" x="221.799465" xlink:href="#m53a70ef20c" y="40.826284"/>
    </g>
   </g>
   <g id="PathCollection_85">
    <g clip-path="url(#pa933f568f3)">
     <use style="fill:#9467bd;stroke:#9467bd;" x="226.772727" xlink:href="#m53a70ef20c" y="40.225639"/>
    </g>
   </g>
   <g id="PathCollection_86">
    <g clip-path="url(#pa933f568f3)">
     <use style="fill:#9467bd;stroke:#9467bd;" x="231.745989" xlink:href="#m53a70ef20c" y="39.9977"/>
    </g>
   </g>
   <g id="PathCollection_87">
    <g clip-path="url(#pa933f568f3)">
     <use style="fill:#9467bd;stroke:#9467bd;" x="236.719251" xlink:href="#m53a70ef20c" y="40.078397"/>
    </g>
   </g>
   <g id="PathCollection_88">
    <g clip-path="url(#pa933f568f3)">
     <use style="fill:#9467bd;stroke:#9467bd;" x="241.692513" xlink:href="#m53a70ef20c" y="40.39618"/>
    </g>
   </g>
   <g id="PathCollection_89">
    <g clip-path="url(#pa933f568f3)">
     <use style="fill:#9467bd;stroke:#9467bd;" x="246.665775" xlink:href="#m53a70ef20c" y="40.874427"/>
    </g>
   </g>
   <g id="PathCollection_90">
    <g clip-path="url(#pa933f568f3)">
     <use style="fill:#9467bd;stroke:#9467bd;" x="251.639037" xlink:href="#m53a70ef20c" y="41.434451"/>
    </g>
   </g>
   <g id="PathCollection_91">
    <g clip-path="url(#pa933f568f3)">
     <use style="fill:#9467bd;stroke:#9467bd;" x="256.612299" xlink:href="#m53a70ef20c" y="41.999147"/>
    </g>
   </g>
   <g id="PathCollection_92">
    <g clip-path="url(#pa933f568f3)">
     <use style="fill:#9467bd;stroke:#9467bd;" x="261.585561" xlink:href="#m53a70ef20c" y="42.497304"/>
    </g>
   </g>
   <g id="PathCollection_93">
    <g clip-path="url(#pa933f568f3)">
     <use style="fill:#9467bd;stroke:#9467bd;" x="266.558824" xlink:href="#m53a70ef20c" y="42.868654"/>
    </g>
   </g>
   <g id="PathCollection_94">
    <g clip-path="url(#pa933f568f3)">
     <use style="fill:#9467bd;stroke:#9467bd;" x="271.532086" xlink:href="#m53a70ef20c" y="43.069673"/>
    </g>
   </g>
   <g id="PathCollection_95">
    <g clip-path="url(#pa933f568f3)">
     <use style="fill:#9467bd;stroke:#9467bd;" x="276.505348" xlink:href="#m53a70ef20c" y="43.080196"/>
    </g>
   </g>
   <g id="PathCollection_96">
    <g clip-path="url(#pa933f568f3)">
     <use style="fill:#9467bd;stroke:#9467bd;" x="281.47861" xlink:href="#m53a70ef20c" y="42.910879"/>
    </g>
   </g>
   <g id="PathCollection_97">
    <g clip-path="url(#pa933f568f3)">
     <use style="fill:#9467bd;stroke:#9467bd;" x="286.451872" xlink:href="#m53a70ef20c" y="42.611548"/>
    </g>
   </g>
   <g id="PathCollection_98">
    <g clip-path="url(#pa933f568f3)">
     <use style="fill:#9467bd;stroke:#9467bd;" x="291.425134" xlink:href="#m53a70ef20c" y="42.280493"/>
    </g>
   </g>
   <g id="PathCollection_99">
    <g clip-path="url(#pa933f568f3)">
     <use style="fill:#9467bd;stroke:#9467bd;" x="296.398396" xlink:href="#m53a70ef20c" y="42.074732"/>
    </g>
   </g>
   <g id="PathCollection_100">
    <g clip-path="url(#pa933f568f3)">
     <use style="fill:#9467bd;stroke:#9467bd;" x="301.371658" xlink:href="#m53a70ef20c" y="42.221294"/>
    </g>
   </g>
   <g id="PathCollection_101">
    <g clip-path="url(#pa933f568f3)">
     <use style="fill:#9467bd;stroke:#9467bd;" x="306.34492" xlink:href="#m53a70ef20c" y="43.02957"/>
    </g>
   </g>
   <g id="PathCollection_102">
    <g clip-path="url(#pa933f568f3)">
     <use style="fill:#9467bd;stroke:#9467bd;" x="311.318182" xlink:href="#m53a70ef20c" y="44.904763"/>
    </g>
   </g>
   <g id="matplotlib.axis_1"/>
   <g id="matplotlib.axis_2">
    <g id="ytick_1">
     <g id="line2d_1">
      <defs>
       <path d="M 0 0 
L -3.5 0 
" id="mc89347dc29" style="stroke:#000000;stroke-width:0.8;"/>
      </defs>
      <g>
       <use style="stroke:#000000;stroke-width:0.8;" x="45" xlink:href="#mc89347dc29" y="181.129408"/>
      </g>
     </g>
     <g id="text_1">
      <!-- 0.0 -->
      <g transform="translate(22.096875 184.928627)scale(0.1 -0.1)">
       <defs>
        <path d="M 31.78125 66.40625 
Q 24.171875 66.40625 20.328125 58.90625 
Q 16.5 51.421875 16.5 36.375 
Q 16.5 21.390625 20.328125 13.890625 
Q 24.171875 6.390625 31.78125 6.390625 
Q 39.453125 6.390625 43.28125 13.890625 
Q 47.125 21.390625 47.125 36.375 
Q 47.125 51.421875 43.28125 58.90625 
Q 39.453125 66.40625 31.78125 66.40625 
z
M 31.78125 74.21875 
Q 44.046875 74.21875 50.515625 64.515625 
Q 56.984375 54.828125 56.984375 36.375 
Q 56.984375 17.96875 50.515625 8.265625 
Q 44.046875 -1.421875 31.78125 -1.421875 
Q 19.53125 -1.421875 13.0625 8.265625 
Q 6.59375 17.96875 6.59375 36.375 
Q 6.59375 54.828125 13.0625 64.515625 
Q 19.53125 74.21875 31.78125 74.21875 
z
" id="DejaVuSans-48"/>
        <path d="M 10.6875 12.40625 
L 21 12.40625 
L 21 0 
L 10.6875 0 
z
" id="DejaVuSans-46"/>
       </defs>
       <use xlink:href="#DejaVuSans-48"/>
       <use x="63.623047" xlink:href="#DejaVuSans-46"/>
       <use x="95.410156" xlink:href="#DejaVuSans-48"/>
      </g>
     </g>
    </g>
    <g id="ytick_2">
     <g id="line2d_2">
      <g>
       <use style="stroke:#000000;stroke-width:0.8;" x="45" xlink:href="#mc89347dc29" y="143.482446"/>
      </g>
     </g>
     <g id="text_2">
      <!-- 0.1 -->
      <g transform="translate(22.096875 147.281664)scale(0.1 -0.1)">
       <defs>
        <path d="M 12.40625 8.296875 
L 28.515625 8.296875 
L 28.515625 63.921875 
L 10.984375 60.40625 
L 10.984375 69.390625 
L 28.421875 72.90625 
L 38.28125 72.90625 
L 38.28125 8.296875 
L 54.390625 8.296875 
L 54.390625 0 
L 12.40625 0 
z
" id="DejaVuSans-49"/>
       </defs>
       <use xlink:href="#DejaVuSans-48"/>
       <use x="63.623047" xlink:href="#DejaVuSans-46"/>
       <use x="95.410156" xlink:href="#DejaVuSans-49"/>
      </g>
     </g>
    </g>
    <g id="ytick_3">
     <g id="line2d_3">
      <g>
       <use style="stroke:#000000;stroke-width:0.8;" x="45" xlink:href="#mc89347dc29" y="105.835483"/>
      </g>
     </g>
     <g id="text_3">
      <!-- 0.2 -->
      <g transform="translate(22.096875 109.634701)scale(0.1 -0.1)">
       <defs>
        <path d="M 19.1875 8.296875 
L 53.609375 8.296875 
L 53.609375 0 
L 7.328125 0 
L 7.328125 8.296875 
Q 12.9375 14.109375 22.625 23.890625 
Q 32.328125 33.6875 34.8125 36.53125 
Q 39.546875 41.84375 41.421875 45.53125 
Q 43.3125 49.21875 43.3125 52.78125 
Q 43.3125 58.59375 39.234375 62.25 
Q 35.15625 65.921875 28.609375 65.921875 
Q 23.96875 65.921875 18.8125 64.3125 
Q 13.671875 62.703125 7.8125 59.421875 
L 7.8125 69.390625 
Q 13.765625 71.78125 18.9375 73 
Q 24.125 74.21875 28.421875 74.21875 
Q 39.75 74.21875 46.484375 68.546875 
Q 53.21875 62.890625 53.21875 53.421875 
Q 53.21875 48.921875 51.53125 44.890625 
Q 49.859375 40.875 45.40625 35.40625 
Q 44.1875 33.984375 37.640625 27.21875 
Q 31.109375 20.453125 19.1875 8.296875 
z
" id="DejaVuSans-50"/>
       </defs>
       <use xlink:href="#DejaVuSans-48"/>
       <use x="63.623047" xlink:href="#DejaVuSans-46"/>
       <use x="95.410156" xlink:href="#DejaVuSans-50"/>
      </g>
     </g>
    </g>
    <g id="ytick_4">
     <g id="line2d_4">
      <g>
       <use style="stroke:#000000;stroke-width:0.8;" x="45" xlink:href="#mc89347dc29" y="68.18852"/>
      </g>
     </g>
     <g id="text_4">
      <!-- 0.3 -->
      <g transform="translate(22.096875 71.987738)scale(0.1 -0.1)">
       <defs>
        <path d="M 40.578125 39.3125 
Q 47.65625 37.796875 51.625 33 
Q 55.609375 28.21875 55.609375 21.1875 
Q 55.609375 10.40625 48.1875 4.484375 
Q 40.765625 -1.421875 27.09375 -1.421875 
Q 22.515625 -1.421875 17.65625 -0.515625 
Q 12.796875 0.390625 7.625 2.203125 
L 7.625 11.71875 
Q 11.71875 9.328125 16.59375 8.109375 
Q 21.484375 6.890625 26.8125 6.890625 
Q 36.078125 6.890625 40.9375 10.546875 
Q 45.796875 14.203125 45.796875 21.1875 
Q 45.796875 27.640625 41.28125 31.265625 
Q 36.765625 34.90625 28.71875 34.90625 
L 20.21875 34.90625 
L 20.21875 43.015625 
L 29.109375 43.015625 
Q 36.375 43.015625 40.234375 45.921875 
Q 44.09375 48.828125 44.09375 54.296875 
Q 44.09375 59.90625 40.109375 62.90625 
Q 36.140625 65.921875 28.71875 65.921875 
Q 24.65625 65.921875 20.015625 65.03125 
Q 15.375 64.15625 9.8125 62.3125 
L 9.8125 71.09375 
Q 15.4375 72.65625 20.34375 73.4375 
Q 25.25 74.21875 29.59375 74.21875 
Q 40.828125 74.21875 47.359375 69.109375 
Q 53.90625 64.015625 53.90625 55.328125 
Q 53.90625 49.265625 50.4375 45.09375 
Q 46.96875 40.921875 40.578125 39.3125 
z
" id="DejaVuSans-51"/>
       </defs>
       <use xlink:href="#DejaVuSans-48"/>
       <use x="63.623047" xlink:href="#DejaVuSans-46"/>
       <use x="95.410156" xlink:href="#DejaVuSans-51"/>
      </g>
     </g>
    </g>
    <g id="ytick_5">
     <g id="line2d_5">
      <g>
       <use style="stroke:#000000;stroke-width:0.8;" x="45" xlink:href="#mc89347dc29" y="30.541557"/>
      </g>
     </g>
     <g id="text_5">
      <!-- 0.4 -->
      <g transform="translate(22.096875 34.340775)scale(0.1 -0.1)">
       <defs>
        <path d="M 37.796875 64.3125 
L 12.890625 25.390625 
L 37.796875 25.390625 
z
M 35.203125 72.90625 
L 47.609375 72.90625 
L 47.609375 25.390625 
L 58.015625 25.390625 
L 58.015625 17.1875 
L 47.609375 17.1875 
L 47.609375 0 
L 37.796875 0 
L 37.796875 17.1875 
L 4.890625 17.1875 
L 4.890625 26.703125 
z
" id="DejaVuSans-52"/>
       </defs>
       <use xlink:href="#DejaVuSans-48"/>
       <use x="63.623047" xlink:href="#DejaVuSans-46"/>
       <use x="95.410156" xlink:href="#DejaVuSans-52"/>
      </g>
     </g>
    </g>
   </g>
   <g id="line2d_6">
    <path clip-path="url(#pa933f568f3)" d="M 57.681818 181.129408 
L 86.754679 181.019137 
L 89.427807 180.711385 
L 92.080214 180.180294 
L 94.815508 179.403637 
L 97.695856 178.350455 
L 100.721257 177.003913 
L 103.933155 175.326888 
L 107.352273 173.286862 
L 111.020053 170.834788 
L 114.977941 167.915462 
L 119.26738 164.4697 
L 123.971257 160.399173 
L 129.17246 155.598035 
L 135.036765 149.875189 
L 141.833556 142.922998 
L 150.184492 134.04685 
L 161.830214 121.316334 
L 188.333556 92.258178 
L 199.191845 80.741022 
L 206.631016 73.131044 
L 209.677139 70.345894 
L 212.536765 68.031351 
L 215.375668 66.017248 
L 218.235294 64.258643 
L 221.136364 62.734185 
L 224.078877 61.437473 
L 227.083556 60.355066 
L 230.171123 59.479387 
L 233.341578 58.811621 
L 236.615642 58.349525 
L 240.014037 58.095033 
L 243.557487 58.053599 
L 247.266711 58.233558 
L 251.183155 58.64823 
L 255.32754 59.313007 
L 259.74131 60.248617 
L 264.486631 61.485164 
L 269.625668 63.0583 
L 275.24131 65.01432 
L 281.47861 67.427806 
L 288.544786 70.407352 
L 296.792112 74.134235 
L 307.090909 79.04459 
L 311.318182 81.113587 
L 311.318182 81.113587 
" style="fill:none;stroke:#9467bd;stroke-dasharray:11.1,4.8;stroke-dashoffset:0;stroke-width:3;"/>
   </g>
   <g id="line2d_7">
    <path clip-path="url(#pa933f568f3)" d="M 57.681818 181.129408 
L 86.485294 181.019502 
L 88.951203 180.713229 
L 91.354947 180.190661 
L 93.841578 179.420084 
L 96.431818 178.38177 
L 99.167112 177.041641 
L 102.04746 175.379679 
L 105.114305 173.349784 
L 108.388369 170.912299 
L 111.911096 168.007097 
L 115.703209 164.586468 
L 119.826872 160.561668 
L 124.364973 155.813312 
L 129.379679 150.235645 
L 135.036765 143.600471 
L 141.543449 135.615794 
L 149.417781 125.586912 
L 160.255348 111.391559 
L 189.763369 72.572766 
L 200.082888 59.471469 
L 206.755348 51.305611 
L 209.656417 48.126591 
L 212.370989 45.477528 
L 215.06484 43.156319 
L 217.75869 41.126086 
L 220.473262 39.357196 
L 223.208556 37.838696 
L 225.985294 36.551034 
L 228.803476 35.488775 
L 231.683824 34.640829 
L 234.626337 34.005787 
L 237.67246 33.577071 
L 240.822193 33.360315 
L 244.096257 33.360177 
L 247.515374 33.584971 
L 251.100267 34.046013 
L 254.871658 34.756943 
L 258.891711 35.744321 
L 263.18115 37.030769 
L 267.781417 38.645865 
L 272.775401 40.638613 
L 278.245989 43.065085 
L 284.338235 46.015736 
L 291.259358 49.62123 
L 299.423797 54.134188 
L 309.764037 60.118189 
L 311.318182 61.034724 
L 311.318182 61.034724 
" style="fill:none;stroke:#9467bd;stroke-linecap:square;stroke-width:3;"/>
   </g>
   <g id="patch_3">
    <path d="M 45 189 
L 45 25.92 
" style="fill:none;stroke:#000000;stroke-linecap:square;stroke-linejoin:miter;stroke-width:0.8;"/>
   </g>
   <g id="patch_4">
    <path d="M 324 189 
L 324 25.92 
" style="fill:none;stroke:#000000;stroke-linecap:square;stroke-linejoin:miter;stroke-width:0.8;"/>
   </g>
   <g id="patch_5">
    <path d="M 45 189 
L 324 189 
" style="fill:none;stroke:#000000;stroke-linecap:square;stroke-linejoin:miter;stroke-width:0.8;"/>
   </g>
   <g id="patch_6">
    <path d="M 45 25.92 
L 324 25.92 
" style="fill:none;stroke:#000000;stroke-linecap:square;stroke-linejoin:miter;stroke-width:0.8;"/>
   </g>
  </g>
 </g>
 <defs>
  <clipPath id="pa933f568f3">
   <rect height="163.08" width="279" x="45" y="25.92"/>
  </clipPath>
 </defs>
</svg>
